<?xml version="1.0" encoding="UTF-8" standalone="no"?>
<!DOCTYPE svg PUBLIC "-//W3C//DTD SVG 1.1//EN" "http://www.w3.org/Graphics/SVG/1.1/DTD/svg11.dtd">
<svg width="100%" height="100%" viewBox="0 0 363 1051" version="1.1" xmlns="http://www.w3.org/2000/svg" xmlns:xlink="http://www.w3.org/1999/xlink" xml:space="preserve" xmlns:serif="http://www.serif.com/" style="fill-rule:evenodd;clip-rule:evenodd;stroke-linejoin:round;stroke-miterlimit:2;">
    <g transform="matrix(1,0,0,1,-1395,-1069)">
        <g transform="matrix(1,0,0,1,-622.718,213.631)">
            <g transform="matrix(4.16667,0,0,4.16667,2340.77,922.487)">
                <path d="M0,-7.432C-1.746,-11.005 -4.609,-15.077 -9.52,-14.199C-15.259,-13.173 -19.539,-11.735 -21.7,-5.66C-20.052,-6.709 -18.913,-8.204 -17.22,-8.882C-14.337,-10.036 -8.758,-9.342 -6.58,-7.915C-2.989,-5.564 -0.288,1.645 0.699,7.391C2.622,7.645 4.188,7.162 5.74,6.586C2.86,2.951 2.258,-2.81 0,-7.432" style="fill:rgb(89,74,66);"/>
            </g>
            <g transform="matrix(4.16667,0,0,4.16667,2234.6,865.198)">
                <path d="M0,10.506C0.887,10.453 1.073,9.593 2.1,9.7C2.514,5.022 5.282,3.051 7.42,0.356C2.623,0 -2.073,4.938 0,10.506" style="fill:rgb(113,101,88);"/>
            </g>
            <g transform="matrix(4.16667,0,0,4.16667,2344.27,899.555)">
                <path d="M0,23.045C-1.53,19.227 -0.986,14.906 -1.68,11.122C-2.418,7.105 -4.579,2.519 -6.72,0.166C-8.368,-1.643 -12.377,-2.739 -16.099,-2.25C-18.484,-1.938 -19.805,-0.032 -21.839,1.293C-19.59,3.647 -16.712,5.275 -15.82,9.188C-12.112,8.5 -8.753,10.445 -6.441,12.734C-3.52,16.731 -3.857,24.475 1.4,25.784C1.162,24.809 0.414,24.082 0,23.045" style="fill:rgb(113,101,88);"/>
            </g>
            <g transform="matrix(0.520976,4.13397,4.13397,-0.520976,2148.07,859.494)">
                <path d="M15.306,-12.179C16.38,-9.737 17.979,-7.877 19.361,-5.776C17.549,-2.179 15.569,2.316 15.306,7.151C15.139,10.237 15.125,14.4 15.406,17.155C9.542,9.251 9.066,-6 15.306,-12.179" style="fill:rgb(113,101,88);"/>
            </g>
            <g transform="matrix(-1.36016,-3.93841,-3.93841,1.36016,2246.88,935.583)">
                <path d="M2.596,-4.149C4.308,-3.148 6.664,-2.126 4.911,0.087C3.828,0.189 3.333,-0.769 2.596,-1.187C-0.268,-2.815 -4.083,-3.395 -7.182,-4.327C-4.15,-6.474 0.263,-5.511 2.596,-4.149" style="fill:rgb(229,107,85);"/>
            </g>
            <g transform="matrix(4.16667,0,0,4.16667,2229.94,970.895)">
                <path d="M0,-12.283C-1.977,-12.406 -9.019,-11.656 -12.88,-10.511C-13.789,-10.24 -16.524,-9.119 -17.079,-8.9C-18.921,-8.173 -20.438,-6.679 -21.559,-5.677C-19.111,-3.768 -16.54,-2.001 -14.279,0.123C-9.439,-4.456 -2.805,-6.972 3.22,-10.188C2.322,-10.425 1.237,-12.206 0,-12.283" style="fill:rgb(89,74,66);"/>
            </g>
            <g transform="matrix(4.16667,0,0,4.16667,2248.02,1012.36)">
                <path d="M0,-18.851C-6.349,-16.008 -12.877,-13.369 -17.639,-8.7C-15.771,-5.641 -13.638,-2.886 -11.62,0C-8.845,-2.104 -6.573,-4.987 -4.339,-7.734C-2.074,-10.522 -0.203,-13.713 1.4,-17.24C1.066,-17.929 0.669,-18.548 0,-18.851" style="fill:rgb(113,101,88);"/>
            </g>
            <g transform="matrix(4.16667,0,0,4.16667,2197.27,1005.74)">
                <path d="M0,3.523C-3.159,-2.076 -7.579,-7.682 -12.18,-11.139C-15.354,-13.525 -19.901,-17.077 -23.798,-16.94C-24.133,-16.928 -24.176,-16.731 -24.359,-16.618C-27.745,-14.518 -31.388,-10.036 -30.939,-4.694C-30.431,-6.446 -29.347,-7.952 -28.559,-9.529C-27.769,-11.107 -27.218,-13.187 -25.618,-13.878C-24.736,-12.021 -24.913,-9.895 -24.219,-8.24C-23.374,-6.222 -21.625,-4.388 -20.159,-2.923C-15.466,1.77 -8.915,4.461 -4.199,8.678C-1.238,12.358 1.747,16.013 3.92,20.6C4.559,15.039 2.658,8.232 0,3.523" style="fill:rgb(89,74,66);"/>
            </g>
            <g transform="matrix(4.16667,0,0,4.16667,2322.68,1004.38)">
                <path d="M0,-6.785C-1.535,-11.568 -5.283,-15.145 -10.219,-14.197C-10.016,-12.82 -8.957,-12.137 -8.4,-11.135C-7.037,-8.69 -7.187,-5.995 -7.139,-2.596C-7.072,2.209 -5.946,6.822 -3.22,8.36C-2.858,3.46 0.721,2.262 1.4,-2.274C0.545,-3.596 0.502,-5.222 0,-6.785" style="fill:rgb(89,74,66);"/>
            </g>
            <g transform="matrix(4.16667,0,0,4.16667,2258.52,1025.11)">
                <path d="M0,-7.894C0.857,-10.005 2.397,-13.214 2.1,-15.467C1.918,-16.843 0.762,-18.081 -0.28,-18.85C-3.678,-11.912 -8.715,-6.861 -13.299,-1.289C-11.314,2.067 -10.077,6.28 -9.24,10.956C-5.373,6.579 -2.696,-1.256 0,-7.894" style="fill:rgb(89,74,66);"/>
            </g>
            <g transform="matrix(4.16667,0,0,4.16667,2067.78,1151.98)">
                <path d="M0,-34.96C-0.434,-32.461 -0.529,-29.374 -0.14,-26.582C0.174,-24.329 1.384,-21.549 1.578,-19.231C1.911,-15.237 0.794,-12.66 -1.4,-9.826C-0.952,-8.462 -0.054,-7.615 1.4,-7.409C2.131,-5.565 2.758,-3.602 3.5,-1.77C9.452,-1.338 13.717,-4.169 16.099,-8.376C15.664,-8.828 14.448,-9.105 14.839,-9.987C16.513,-10.659 19.224,-8.231 18.619,-6.28C17.84,-5.72 17.524,-6.904 17.079,-7.247C14.564,-3.107 9.753,-0.069 4.62,0.004C6.665,3.497 9.322,7.217 12.74,9.026C16.135,10.824 19.646,10.068 23.099,8.059C27.668,5.402 32.13,1.273 34.579,-2.575C33.938,-4.244 34.894,-7.056 36.818,-7.409C38.139,-7.649 38.871,-6.871 40.039,-6.28C42.354,-7.569 44.17,-9.08 45.638,-11.276C47.005,-13.32 49.887,-19.336 47.317,-21.265C43.603,-24.053 36.784,-17.705 36.398,-16.11C35.961,-14.295 36.528,-11.278 34.998,-11.276C34.145,-11.274 33.95,-13.27 33.459,-14.498C32.155,-17.754 29.614,-20.918 27.859,-23.038C24.981,-26.513 21.273,-28.671 17.499,-31.093C14.871,-32.779 11.495,-34.867 9.52,-37.055C7.505,-39.285 5.471,-42.026 4.76,-45.593C4.752,-45.692 4.739,-45.784 4.62,-45.754C2.902,-42.396 0.717,-39.09 0,-34.96" style="fill:rgb(254,220,189);"/>
            </g>
            <g transform="matrix(4.16667,0,0,4.16667,2235.19,971.408)">
                <path d="M0,21.429C2.22,19.9 6.588,19.129 8.68,21.267C11.181,16.138 10.936,5.46 8.539,0C6.315,7.752 2.85,14.934 0,21.429" style="fill:rgb(113,101,88);"/>
            </g>
            <g transform="matrix(4.16667,0,0,4.16667,2363.52,1088.05)">
                <path d="M0,17.118C0.661,16.158 1.673,15.036 2.1,14.058C3.748,10.272 0.788,5.458 -0.84,3.585C-3.399,0.638 -7.74,-2.9 -12.027,-1.109C-13.932,1.693 -15.976,4.21 -17.499,7.451C-10.835,9.878 -6.453,14.931 -2.1,20.018C-1.512,18.919 -0.659,18.075 0,17.118" style="fill:rgb(177,207,139);"/>
            </g>
            <g transform="matrix(-3.28373,2.56481,2.56481,3.28373,2353.97,1167.91)">
                <path d="M6.23,-18.095C7.806,-17.87 9.354,-17.137 10.904,-16.431C7.704,-10.559 5.619,-4.469 6.23,2.144C4.849,2.223 3.517,1.387 2.149,1.243C1.757,-5.545 2.524,-12.106 6.23,-18.095" style="fill:rgb(235,202,75);"/>
            </g>
            <g transform="matrix(4.16667,0,0,4.16667,2215.94,1129.86)">
                <path d="M0,1.929C0.062,2.745 0.234,3.142 0.7,3.217C2.643,3.466 3.854,1.489 2.94,-0.166C1.494,-1.537 -0.285,0.327 0,1.929" style="fill:rgb(229,107,85);"/>
            </g>
            <g transform="matrix(4.16667,0,0,4.16667,2271.94,1229.87)">
                <path d="M0,-19.817C-1.237,-17.868 -2.764,-15.759 -3.92,-13.855C-4.256,-13.302 -4.896,-12.711 -4.76,-12.082C1.43,-9.433 6.2,-5.147 10.22,0C12.228,-2.36 13.824,-5.194 15.4,-8.055C11.609,-13.522 6.473,-17.438 0,-19.817" style="fill:rgb(177,207,139);"/>
            </g>
            <g transform="matrix(4.16667,0,0,4.16667,2156.44,1166.85)">
                <path d="M0,17.541C3.158,15.899 6.023,14.266 8.819,11.902C9.827,11.05 12.225,9.414 12.599,8.357C13.305,6.37 12.296,0.401 12.18,-2.116C8.596,2.299 3.979,5.526 -1.679,7.552C-2.135,10.146 -1.589,13.041 -1.679,15.93C-3.131,16.468 -4.582,17.523 -5.18,19.474C-3.203,19.657 -1.656,18.401 0,17.541" style="fill:rgb(252,219,172);"/>
            </g>
            <g transform="matrix(-4.11901,0.62839,0.62839,4.11901,2244.2,1312.02)">
                <path d="M-5.345,-29.885C2.771,-22.289 10.21,-13.622 17.133,-4.139C9.363,-3.903 1.441,-1.631 -5.345,0.756C-9.47,-5.242 -14.379,-10 -18.633,-15.798C-15.321,-21.442 -11.717,-26.838 -5.345,-29.885" style="fill:rgb(235,202,75);"/>
            </g>
            <g transform="matrix(4.16667,0,0,4.16667,2218.85,1388.56)">
                <path d="M0,-44.691C-4.634,-40.767 -10.969,-35.329 -17.639,-32.445C-18.613,-32.025 -19.74,-31.952 -20.859,-32.123C-23.954,-22.886 -25.323,-11.821 -26.179,-0.544C-25.638,-0.52 -25.531,0 -24.919,-0.06C-23.387,-2.638 -24.895,-6.594 -24.219,-9.566C-24.038,-10.362 -23.358,-11.157 -23.099,-11.982C-22.95,-12.457 -23.086,-12.992 -22.959,-13.433C-21.703,-17.788 -17.875,-18.333 -13.579,-19.395C-8.892,-27.803 -3.858,-35.811 1.12,-43.885C0.667,-44.062 0.578,-44.658 0,-44.691" style="fill:rgb(229,107,85);"/>
            </g>
            <g transform="matrix(4.16667,0,0,4.16667,2273.68,1381.59)">
                <path d="M0,-16.433C0.581,-16.402 0.887,-16.057 0.98,-15.466C-11.269,-16.404 -15.013,-18.471 -25.899,-16.433C-29.261,-15.802 -33.205,-14.542 -34.438,-12.083C-33.568,-12.124 -32.675,-13.52 -32.058,-12.405C-32.081,-11.035 -33.203,-10.929 -34.158,-10.632C-35.633,-9.328 -36.243,-8.305 -36.258,-5.96C-35.337,-6.624 -33.968,-9.643 -32.758,-7.894C-34.115,-6.126 -35.939,-4.894 -36.258,-1.932C-35.276,-2.144 -35.386,-3.614 -34.299,-3.704C-33.98,-3.587 -33.879,-3.22 -33.739,-2.899C-34.758,-0.689 -38.079,1.613 -36.398,4.673C-33.606,4.673 -31.754,1.655 -31.079,-0.805C-26.48,-1.294 -23.224,-1.979 -19.809,-3.987C-18.567,-2.516 -8.214,2.528 -2.38,1.935C-0.243,1.717 0.454,1.255 1.54,-0.483C4.724,-5.278 5.236,-15.242 2.38,-21.106C1.567,-19.57 0.512,-18.314 0,-16.433" style="fill:rgb(254,220,189);"/>
            </g>
            <g transform="matrix(4.16667,0,0,4.16667,2191.44,1506.46)">
                <path d="M0,-32.063C-3.043,-30.863 -6.798,-29.724 -10.079,-29.325C-11.782,-26.746 -13.77,-23.05 -17.639,-24.008C-18.017,-21.811 -18.577,-19.824 -20.299,-19.173C-20.477,-17.178 -21.291,-15.912 -23.099,-15.79C-23.214,-14.258 -24.286,-13.828 -24.639,-12.568C-18.867,-9.704 -14.479,-5.249 -10.779,0C-5.059,-9.744 0.961,-19.142 6.86,-28.68C4.43,-29.644 2.036,-30.647 0,-32.063" style="fill:rgb(235,202,75);"/>
            </g>
            <g transform="matrix(3.14525,2.73285,2.73285,-3.14525,2135.25,1454.62)">
                <path d="M11.259,-5.419C18.848,-1.955 27.68,6.199 29.119,13.299C23.031,18.029 17.445,22.966 11.259,28.518C9.569,27.595 7.878,26.938 6.187,26.032C7.669,15.578 9.172,5.122 11.259,-5.419" style="fill:rgb(229,107,85);"/>
            </g>
            <g transform="matrix(4.16667,0,0,4.16667,2112.69,1410.58)">
                <path d="M0,-3.735C-2.816,-6.284 -4.58,1.533 -1.68,2.549C-0.301,1.396 0.144,-0.831 0,-3.735" style="fill:rgb(254,220,189);"/>
            </g>
            <g transform="matrix(4.16667,0,0,4.16667,2101.61,1433.04)">
                <path d="M0,-1.714C-1.205,-2.474 -1.436,-4.358 -2.1,-5.742C-5.578,-3.594 -0.859,4.028 0,-1.714" style="fill:rgb(254,220,189);"/>
            </g>
            <g transform="matrix(4.16667,0,0,4.16667,2078.86,1429.24)">
                <path d="M0,4.515C1.629,4.995 2.367,3.915 2.66,2.421C1.815,1.728 1.495,0.432 0.84,-0.48C0.064,0.638 -1.284,2.962 0,4.515" style="fill:rgb(254,220,189);"/>
            </g>
            <g transform="matrix(4.16667,0,0,4.16667,2070.11,1448.48)">
                <path d="M0,2.959C1.162,3.222 1.733,2.525 1.68,1.67C1.39,0.876 0.765,0.466 0.42,-0.263C-0.219,0.367 -0.801,2.052 0,2.959" style="fill:rgb(254,220,189);"/>
            </g>
            <g transform="matrix(4.16667,0,0,4.16667,2082.36,1526.6)">
                <path d="M0,-16.433C-0.287,-15.296 -1.043,-14.765 -2.184,-14.504C-2.959,-14.325 -4.128,-15.124 -4.48,-13.695C2.28,-10.465 7.788,-5.794 12.32,0C13.042,-1.102 13.848,-2.107 14.279,-3.543C10.685,-9.182 6.248,-13.851 0,-16.433" style="fill:rgb(177,207,139);"/>
            </g>
            <g transform="matrix(-3.48214,2.28819,2.28819,3.48214,2132.46,1533.85)">
                <path d="M6.813,-21.211C8.94,-20.378 11.008,-19.105 13.102,-18.015C7.574,-12.399 7.033,-5.38 6.813,1.731C4.583,1.403 2.414,0.619 0.324,-0.752C0.647,-8.026 2.582,-15.397 6.813,-21.211" style="fill:rgb(235,202,75);"/>
            </g>
            <g transform="matrix(-4.09843,0.750989,0.750989,4.09843,2100.18,1600.59)">
                <path d="M9.528,-24.551C12.464,-20.934 14.102,-13.323 16.52,-8.141C13.214,-6.363 10.743,-3.92 9.528,-0.471C5.185,-3.507 0.449,-5.879 -3.629,-9.363C-0.819,-15.685 2.121,-21.903 9.528,-24.551" style="fill:rgb(221,217,210);"/>
            </g>
            <g transform="matrix(4.16667,0,0,4.16667,2176.27,1620.42)">
                <path d="M0,-25.74C-1.974,-26.153 -3.915,-26.606 -6.019,-26.869C-8.104,-22.982 -10.446,-19.275 -12.713,-16.323C-14.296,-14.646 -15.627,-13.016 -16.66,-11.883C-17.016,-9.221 -17.333,-6.336 -17.359,-4.15C-14.336,-1.665 -9.887,-1.03 -5.6,-0.123C-1.132,0.823 3.525,1.129 7.979,0.683C7.679,-5.341 7.095,-12.036 6.719,-18.167C4.01,-20.152 1.481,-22.343 0,-25.74" style="fill:rgb(138,199,194);"/>
            </g>
            <g transform="matrix(-3.76847,1.77756,1.77756,3.76847,2284.88,1600.27)">
                <path d="M4.977,-25.282C8.101,-17.439 11.068,-8.561 13.811,-1.303C10.855,-0.944 7.847,-0.399 4.977,-0.341C2.346,-8.008 0.161,-16.468 -1.018,-23.879C0.927,-24.154 3.016,-24.947 4.977,-25.282" style="fill:rgb(138,199,194);"/>
            </g>
            <g transform="matrix(4.16667,0,0,4.16667,2203.69,1513.84)">
                <path d="M0,4.995C-0.205,3.568 -0.337,2.053 -0.28,0.322C-1.639,0.062 -3.452,0.322 -4.76,0C-3.904,2.506 -2.206,4.044 0,4.995" style="fill:rgb(138,199,194);"/>
            </g>
            <g transform="matrix(4.16667,0,0,4.16667,2208.36,1621.47)">
                <path d="M0,-25.508C0.146,-16.882 0.849,-7.627 1.96,0.11C2.75,0.16 3.416,0.068 3.92,-0.212C3.323,-6.629 3.015,-13.531 2.379,-19.707C2.17,-21.742 2.049,-23.897 1.4,-25.668C1.032,-25.503 0.541,-25.476 0,-25.508" style="fill:rgb(90,190,179);"/>
            </g>
            <g transform="matrix(4.16667,0,0,4.16667,2033.36,1586.51)">
                <path d="M0,9.79C1.967,9.828 4.164,6.748 5.459,5.44C3.8,2.784 1.598,0.754 -1.68,-0.038C-2.365,3.256 -3.227,9.726 0,9.79" style="fill:rgb(235,202,75);"/>
            </g>
            <g transform="matrix(4.16667,0,0,4.16667,2138.94,1819.02)">
                <path d="M0,-46.497C-0.316,-33.54 0.664,-20.274 1.679,-7.99C4.827,-7.199 6.837,-6.088 8.96,-3.962C10.163,-2.755 11.485,-0.133 12.599,0.228C13.389,0.483 14.844,0.177 15.819,0.067C18.934,-0.282 21.67,-0.724 23.239,-2.35C23.869,-9.296 22.438,-17.25 21.979,-25.551C21.683,-30.898 20.622,-36.74 18.899,-41.34C18.439,-42.569 17.665,-45.204 16.798,-45.53C15.956,-45.847 14.381,-45.599 13.542,-45.535C8.98,-45.191 4.433,-46.407 0.14,-46.98C-0.023,-46.953 -0.012,-46.725 0,-46.497" style="fill:rgb(254,220,189);"/>
            </g>
            <g transform="matrix(4.16667,0,0,4.16667,2216.52,1805.32)">
                <path d="M0,-42.242C5.489,-30.841 5.087,-14.235 6.3,0.455C7.417,0.805 8.784,0.254 9.66,-0.189C9.951,-3.372 9.704,-5.87 9.52,-8.729C8.707,-21.3 7.615,-33.813 3.92,-43.047L3.639,-43.047C2.609,-42.57 1.103,-42.638 0,-42.242" style="fill:rgb(254,220,189);"/>
            </g>
            <g transform="matrix(4.16667,0,0,4.16667,2148.86,1803.85)">
                <path d="M0,0.968C2.127,2.441 4.869,3.206 7.84,3.706C5.953,0.561 3.435,-1.856 -0.42,-2.738C-0.61,-1.734 -0.191,-0.125 0,0.968" style="fill:rgb(215,68,48);"/>
            </g>
            <g transform="matrix(-4.14993,-0.373067,-0.373067,4.14993,2254.17,1849.89)">
                <path d="M0.334,-9.122C1.139,-9.258 1.744,-8.187 2.926,-8.241C1.845,-5.709 1.06,-2.764 0.334,0.26C-0.79,-0.027 -2.513,-0.188 -2.982,-1.105C-2.398,-3.587 -1.536,-8.805 0.334,-9.122" style="fill:rgb(215,68,48);"/>
            </g>
            <g transform="matrix(4.16667,0,0,4.16667,2140.11,1836.45)">
                <path d="M0,-5.566C1.28,-3.544 3.22,-0.897 5.88,0.073C5.708,-3.199 3.088,-5.639 0,-5.566" style="fill:rgb(241,242,242);"/>
            </g>
            <g transform="matrix(-4.01112,1.12783,1.12783,4.01112,2149.11,1835.89)">
                <path d="M2.358,-5.802C2.573,-5.435 3.236,-6.013 3.341,-5.409C3.52,-3.816 2.427,-1.964 2.358,-0.113C1.217,0.133 0.215,-0.294 -0.373,-0.516C0.673,-2.189 1.219,-4.19 2.358,-5.802" style="fill:rgb(215,68,48);"/>
            </g>
            <g transform="matrix(-2.86961,3.021,3.021,2.86961,2253.3,1840.36)">
                <path d="M4.527,-9.999C6.176,-7.316 8.121,-4.62 11.039,-1.882C8.889,-0.311 6.709,0.937 4.527,2.166C1.547,-0.822 -0.481,-3.768 -1.737,-6.68C0.42,-7.074 2.483,-8.444 4.527,-9.999" style="fill:rgb(215,68,48);"/>
            </g>
            <g transform="matrix(4.16667,0,0,4.16667,2122.03,1849.51)">
                <path d="M0,-7.089C-0.322,-6.709 -0.858,-6.573 -1.26,-6.284C0.222,-3.854 1.619,-1.327 4.06,0C3.032,-2.738 1.864,-5.313 0,-7.089" style="fill:rgb(241,242,242);"/>
            </g>
            <g transform="matrix(4.16667,0,0,4.16667,2166.36,1855.05)">
                <path d="M0,-2.942C-0.791,-2.714 -2.027,-3.267 -2.52,-3.909C-3.425,-3.286 -4.781,-3.182 -5.6,-2.459C-5.294,-1.966 -5.032,-0.1 -5.74,0.118C-6.34,0.566 -6.942,-0.156 -7.559,-0.204C-8.155,1.098 -8.84,2.297 -9.239,3.824C-3.004,4.673 4.436,4.509 10.499,3.342C10.671,-0.315 10.312,-4.407 9.1,-6.971C5.792,-6.57 2.984,-7.389 -0.14,-7.615C0.451,-6.332 1.424,-3.974 0,-2.942" style="fill:rgb(234,119,107);"/>
            </g>
            <g transform="matrix(4.16667,0,0,4.16667,2103.36,1851.73)">
                <path d="M0,-5.206C1.737,-2.586 3.794,-0.335 5.04,2.851C5.69,1.987 6.125,0.877 6.44,-0.372C4.233,-1.364 2.956,-8.057 0,-5.206" style="fill:rgb(215,68,48);"/>
            </g>
            <g transform="matrix(-1.15165,-4.00435,-4.00435,1.15165,2081.96,1839.25)">
                <path d="M-2.819,-5.553C-2.008,-5.244 0.38,-4.167 0.279,-3.531C-0.118,-1.043 -1.18,3.134 -2.819,4.935C-5.317,1.405 -7.407,-2.752 -9.554,-6.821C-6.971,-6.736 -4.959,-6.37 -2.819,-5.553" style="fill:rgb(241,242,242);"/>
            </g>
            <g transform="matrix(-3.44629,2.34184,2.34184,3.44629,2274.13,1864.66)">
                <path d="M3.184,-4.224C4.091,-2.891 4.637,-1.653 5.487,-0.336C4.713,-0.086 3.922,0.303 3.184,0.258C2.142,1.008 -1.01,-2.418 -0.287,-3.18C0.29,-3.789 2.283,-4.105 3.184,-4.224" style="fill:rgb(241,242,242);"/>
            </g>
            <g transform="matrix(4.16667,0,0,4.16667,2060.78,1905.21)">
                <path d="M0,-10.469C-0.982,-9.505 -1.524,-8.033 -1.4,-5.796C1.142,-4.091 4.348,-3.452 7.559,-2.734C19.81,0 33.529,-1.736 44.798,-4.668C45.048,-6.206 45.067,-7.727 44.798,-9.34C42.286,-8.742 40.157,-7.7 37.378,-7.407C22.36,-5.116 10.52,-6.911 0,-10.469" style="fill:rgb(241,242,242);"/>
            </g>
            <g transform="matrix(4.16667,0,0,4.16667,0,0)">
                <g opacity="0.06">
                    <g transform="matrix(0.999981,0.00620282,0.00620282,-0.999981,518.54,276.52)">
                        <path d="M0.073,-0C5.551,0.034 10.136,5.268 10.132,11.665C10.13,18 5.551,23.41 0.073,23.376C-5.406,23.342 -9.991,18.107 -9.988,11.709C-9.985,5.375 -5.407,-0.034 0.073,-0" style="fill:rgb(231,129,116);fill-rule:nonzero;"/>
                    </g>
                </g>
            </g>
            <g transform="matrix(4.16667,0,0,4.16667,2372.26,1614.82)">
                <path d="M0,-112.366C-0.426,-111.387 -1.438,-110.265 -2.1,-109.306C-2.758,-108.348 -3.611,-107.504 -4.199,-106.404C-8.552,-111.492 -12.934,-116.546 -19.599,-118.972C-18.075,-122.213 -16.031,-124.731 -14.127,-127.533C-9.839,-129.322 -5.498,-125.784 -2.939,-122.838C-1.311,-120.966 1.649,-116.152 0,-112.366M-7.979,-101.733C-11.569,-107.32 -16.961,-110.837 -23.098,-113.495C-22.311,-115.005 -21.542,-116.536 -20.439,-117.683C-13.831,-115.244 -9.188,-110.546 -5.319,-104.955C-6.308,-103.998 -6.844,-102.52 -7.979,-101.733M-13.859,-92.388C-17.879,-97.536 -22.648,-101.821 -28.837,-104.471C-28.975,-105.099 -28.335,-105.691 -27.998,-106.244C-26.842,-108.148 -25.315,-110.257 -24.079,-112.206C-17.606,-109.826 -12.469,-105.911 -8.679,-100.444C-10.254,-97.583 -11.851,-94.749 -13.859,-92.388M-25.338,-72.731C-32.405,-74.067 -40.581,-75.119 -48.297,-74.181C-42.883,-84.598 -36.836,-94.289 -29.958,-103.022C-23.2,-100.971 -18.823,-96.18 -14.699,-91.099C-18.029,-84.727 -22.164,-79.283 -25.338,-72.731M-22.119,-56.458C-23.205,-54.721 -23.901,-54.26 -26.038,-54.04C-31.872,-53.447 -42.225,-58.491 -43.467,-59.964C-46.882,-57.955 -50.139,-57.271 -54.737,-56.78C-55.412,-54.32 -57.264,-51.302 -60.057,-51.302C-61.736,-54.363 -58.416,-56.665 -57.397,-58.875C-57.538,-59.196 -57.638,-59.562 -57.957,-59.68C-59.045,-59.589 -58.934,-58.12 -59.916,-57.908C-59.597,-60.869 -57.774,-62.102 -56.417,-63.869C-57.626,-65.619 -58.995,-62.6 -59.916,-61.936C-59.901,-64.282 -59.291,-65.304 -57.817,-66.608C-56.862,-66.906 -55.74,-67.01 -55.717,-68.381C-56.334,-69.495 -57.227,-68.099 -58.097,-68.059C-56.863,-70.518 -52.92,-71.778 -49.557,-72.408C-38.672,-74.448 -34.927,-72.379 -22.679,-71.442C-22.773,-72.033 -23.078,-72.379 -23.658,-72.408C-23.146,-74.29 -22.091,-75.546 -21.278,-77.081C-18.422,-71.218 -18.935,-61.254 -22.119,-56.458M-26.179,-29.39C-31.922,-24.973 -43.936,-24.611 -51.937,-26.973C-46.599,-36.298 -40.876,-45.178 -35.137,-54.04C-33.267,-53.616 -31.56,-53.003 -29.678,-52.591C-28.65,-44.342 -27.672,-36.952 -26.179,-29.39M-25.618,-1.677C-28.239,-0.505 -31.192,0.286 -34.017,1.222C-34.634,-6.512 -35.738,-15.808 -36.258,-24.235C-34.341,-24.768 -32.113,-24.942 -30.238,-25.524C-28.144,-18.317 -26.508,-9.734 -25.618,-1.677M-27.858,36.991C-27.673,39.85 -27.427,42.348 -27.718,45.531C-28.593,45.975 -29.961,46.526 -31.078,46.175C-32.292,31.485 -31.889,14.879 -37.378,3.479C-36.275,3.083 -34.77,3.15 -33.738,2.673L-33.458,2.673C-29.762,11.907 -28.67,24.42 -27.858,36.991M-25.273,55.585C-25.822,56.456 -27.553,56.461 -28.699,56.647C-29.15,53.57 -29.668,50.567 -30.518,47.947C-29.346,48.108 -28.647,47.095 -27.858,47.303C-26.024,47.785 -25.633,53.059 -25.273,55.585M-26.038,61.965C-26.624,62.419 -27.498,62.541 -28.277,62.77C-28.315,61.202 -28.559,59.871 -28.558,58.258C-27.746,57.85 -25.92,56.993 -25.102,57.172C-24.074,57.396 -24.757,62 -26.038,61.965M-29.958,65.026C-41.227,67.958 -54.945,69.694 -67.197,66.96C-70.408,66.242 -73.614,65.603 -76.156,63.898C-76.28,61.661 -75.739,60.189 -74.756,59.225C-64.236,62.784 -52.395,64.578 -37.378,62.287C-34.599,61.994 -32.471,60.953 -29.958,60.354C-29.69,61.968 -29.708,63.489 -29.958,65.026M-66.356,52.619C-65.772,52.346 -64.077,54.343 -63.556,55.037C-62.18,56.868 -61.273,58.701 -60.476,61.159C-64.981,60.221 -69.554,59.361 -73.636,57.936C-72.358,55.863 -68.637,53.689 -66.356,52.619M-58.097,56.487C-58.412,57.736 -58.846,58.847 -59.497,59.709C-60.743,56.524 -62.799,54.272 -64.537,51.652C-61.58,48.802 -60.303,55.495 -58.097,56.487M-60.057,49.236C-58.193,51.012 -57.025,53.588 -55.996,56.325C-58.437,54.999 -59.834,52.472 -61.317,50.041C-60.915,49.752 -60.379,49.617 -60.057,49.236M-57.397,48.109C-55.864,49.352 -54.797,51.132 -53.337,52.459C-53.843,52.831 -54.692,53.514 -55.857,53.586C-56.425,51.823 -57.978,50.336 -58.237,48.754C-58.299,48.144 -57.505,48.521 -57.397,48.109M-49.837,53.264C-52.497,52.294 -54.436,49.647 -55.717,47.625C-52.629,47.552 -50.009,49.992 -49.837,53.264M-38.917,50.525C-36.382,50.114 -33.97,49.561 -32.198,48.27C-30.951,51.185 -30.213,54.685 -30.098,58.903C-32.492,59.639 -34.898,60.361 -37.518,60.836C-37.494,56.836 -38.108,53.568 -38.917,50.525M-53.617,46.336C-53.808,45.243 -54.227,43.633 -54.037,42.63C-50.182,43.512 -47.663,45.93 -45.778,49.074C-48.748,48.574 -51.49,47.809 -53.617,46.336M-55.017,55.198C-54.199,54.476 -52.843,54.37 -51.937,53.748C-51.444,54.39 -50.209,54.943 -49.417,54.715C-47.992,53.683 -48.967,51.325 -49.557,50.041C-46.434,50.268 -43.625,51.087 -40.317,50.686C-39.106,53.25 -38.746,57.341 -38.917,60.998C-44.981,62.165 -52.421,62.329 -58.656,61.481C-58.257,59.954 -57.572,58.755 -56.977,57.454C-56.36,57.501 -55.757,58.223 -55.157,57.776C-54.449,57.557 -54.711,55.692 -55.017,55.198M-55.996,2.512C-56.008,2.283 -56.019,2.055 -55.857,2.028C-51.564,2.601 -47.017,3.817 -42.454,3.473C-41.616,3.409 -40.041,3.161 -39.198,3.479C-38.331,3.805 -37.558,6.439 -37.097,7.668C-35.375,12.268 -34.313,18.11 -34.017,23.458C-33.559,31.758 -32.127,39.712 -32.758,46.659C-34.326,48.285 -37.062,48.726 -40.177,49.074C-41.153,49.185 -42.607,49.492 -43.397,49.236C-44.512,48.875 -45.835,46.253 -47.038,45.047C-49.159,42.919 -51.17,41.809 -54.317,41.019C-55.332,28.734 -56.313,15.469 -55.996,2.512M-39.338,-23.912C-38.797,-23.88 -38.306,-23.906 -37.938,-24.073C-37.288,-22.3 -37.167,-20.146 -36.958,-18.111C-36.322,-11.936 -36.014,-5.032 -35.418,1.384C-35.921,1.664 -36.587,1.756 -37.378,1.706C-38.488,-6.031 -39.192,-15.285 -39.338,-23.912M-40.458,-19.24C-42.664,-20.191 -44.361,-21.729 -45.217,-24.235C-43.909,-23.913 -42.097,-24.173 -40.738,-23.912C-40.794,-22.182 -40.663,-20.667 -40.458,-19.24M-64.396,-2.805C-64.37,-4.991 -64.053,-7.876 -63.696,-10.538C-62.665,-11.671 -61.333,-13.3 -59.75,-14.978C-57.482,-17.93 -55.141,-21.637 -53.057,-25.524C-50.952,-25.261 -49.011,-24.808 -47.038,-24.395C-45.557,-20.998 -43.026,-18.807 -40.317,-16.822C-39.942,-10.691 -39.357,-3.996 -39.057,2.028C-43.512,2.474 -48.169,2.168 -52.637,1.222C-56.925,0.315 -61.373,-0.32 -64.396,-2.805M-74.756,-2.161C-76.572,-5.334 -79.443,-7.292 -83.016,-8.445C-81.571,-13.978 -81.332,-21.758 -79.096,-25.846C-71.333,-24.576 -67.32,-18.989 -63.417,-13.278C-66.798,-9.115 -71.031,-5.93 -74.756,-2.161M-81.335,2.995C-84.562,2.932 -83.701,-3.538 -83.016,-6.833C-79.738,-6.04 -77.535,-4.01 -75.876,-1.354C-77.171,-0.046 -79.369,3.034 -81.335,2.995M-74.896,-33.419C-68.167,-30.883 -62.502,-25.784 -58.237,-19.884C-59.232,-17.591 -60.613,-15.745 -62.296,-14.245C-66.384,-20.067 -70.693,-25.635 -78.396,-27.295C-77.245,-29.355 -76.216,-31.554 -74.896,-33.419M-71.76,-35.677C-70.619,-35.939 -69.864,-36.47 -69.576,-37.606C-63.328,-35.024 -58.891,-30.356 -55.297,-24.717C-55.728,-23.28 -56.534,-22.275 -57.256,-21.173C-61.788,-26.968 -67.295,-31.639 -74.056,-34.868C-73.705,-36.298 -72.536,-35.499 -71.76,-35.677M-72.096,-40.185C-71.751,-39.454 -71.127,-39.045 -70.836,-38.25C-70.783,-37.396 -71.353,-36.699 -72.516,-36.962C-73.318,-37.869 -72.735,-39.554 -72.096,-40.185M-69.576,-45.018C-68.921,-44.107 -68.601,-42.811 -67.757,-42.118C-68.048,-40.625 -68.786,-39.544 -70.417,-40.024C-71.7,-41.577 -70.352,-43.901 -69.576,-45.018M-67.056,-49.369C-66.393,-47.984 -66.162,-46.101 -64.956,-45.341C-65.816,-39.598 -70.534,-47.22 -67.056,-49.369M-62.296,-52.752C-62.151,-49.847 -62.597,-47.62 -63.977,-46.468C-66.876,-47.483 -65.112,-55.301 -62.296,-52.752M-53.477,-55.33C-50.195,-55.729 -46.44,-56.868 -43.397,-58.069C-41.362,-56.652 -38.968,-55.649 -36.537,-54.685C-42.437,-45.147 -48.456,-35.748 -54.177,-26.006C-57.876,-31.255 -62.265,-35.71 -68.036,-38.573C-67.683,-39.834 -66.612,-40.263 -66.497,-41.796C-64.689,-41.918 -63.875,-43.183 -63.696,-45.179C-61.975,-45.829 -61.415,-47.816 -61.036,-50.013C-57.168,-49.056 -55.18,-52.752 -53.477,-55.33M-57.677,-86.425C-56.558,-86.256 -55.431,-86.327 -54.457,-86.748C-47.787,-89.632 -41.452,-95.07 -36.818,-98.994C-36.24,-98.96 -36.15,-98.365 -35.698,-98.187C-40.676,-90.114 -45.71,-82.106 -50.397,-73.697C-54.693,-72.635 -58.521,-72.09 -59.776,-67.737C-59.903,-67.295 -59.768,-66.76 -59.916,-66.286C-60.175,-65.46 -60.856,-64.664 -61.036,-63.869C-61.713,-60.897 -60.205,-56.942 -61.736,-54.363C-62.349,-54.302 -62.456,-54.824 -62.996,-54.847C-62.14,-66.124 -60.772,-77.188 -57.677,-86.425M-53.477,-91.582C-53.386,-94.471 -53.932,-97.366 -53.477,-99.96C-47.818,-101.986 -43.201,-105.213 -39.617,-109.628C-39.501,-107.11 -38.493,-101.142 -39.198,-99.154C-39.572,-98.098 -41.97,-96.462 -42.978,-95.609C-45.774,-93.245 -48.639,-91.612 -51.797,-89.97C-53.453,-89.11 -55,-87.854 -56.977,-88.037C-56.379,-89.989 -54.928,-91.043 -53.477,-91.582M-60.336,-102.055C-63.753,-103.864 -66.411,-107.583 -68.456,-111.077C-63.323,-111.149 -58.512,-114.188 -55.996,-118.328C-55.552,-117.984 -55.236,-116.801 -54.457,-117.361C-53.852,-119.31 -56.563,-121.739 -58.237,-121.067C-58.628,-120.185 -57.412,-119.908 -56.977,-119.456C-59.36,-115.25 -63.624,-112.419 -69.576,-112.85C-70.318,-114.681 -70.945,-116.646 -71.676,-118.49C-73.129,-118.695 -74.029,-119.541 -74.476,-120.906C-72.282,-123.74 -71.165,-126.317 -71.498,-130.311C-71.692,-132.63 -72.902,-135.41 -73.216,-137.661C-73.605,-140.454 -73.51,-143.541 -73.076,-146.04C-72.358,-150.17 -70.174,-153.476 -68.456,-156.835C-68.337,-156.865 -68.324,-156.773 -68.316,-156.674C-67.604,-153.106 -65.571,-150.365 -63.556,-148.135C-61.581,-145.948 -58.204,-143.86 -55.577,-142.173C-51.803,-139.752 -48.095,-137.592 -45.217,-134.118C-43.462,-131.997 -40.922,-128.835 -39.617,-125.578C-39.126,-124.35 -38.931,-122.354 -38.078,-122.356C-36.547,-122.358 -37.115,-125.375 -36.678,-127.19C-36.293,-128.786 -29.473,-135.133 -25.758,-132.344C-23.189,-130.417 -26.071,-124.4 -27.439,-122.356C-28.906,-120.16 -30.722,-118.65 -33.038,-117.361C-34.205,-117.951 -34.937,-118.73 -36.258,-118.49C-38.182,-118.137 -39.137,-115.324 -38.498,-113.655C-40.946,-109.808 -45.408,-105.679 -49.977,-103.022C-53.43,-101.012 -56.941,-100.255 -60.336,-102.055M-66.356,-162.796C-66.174,-162.91 -66.13,-163.108 -65.796,-163.119C-61.898,-163.256 -57.351,-159.704 -54.177,-157.318C-49.576,-153.861 -45.156,-148.255 -41.998,-142.656C-39.339,-137.946 -37.439,-131.14 -38.078,-125.578C-40.251,-130.166 -43.235,-133.821 -46.197,-137.501C-50.913,-141.718 -57.464,-144.409 -62.157,-149.102C-63.623,-150.567 -65.371,-152.401 -66.216,-154.418C-66.909,-156.074 -66.734,-158.201 -67.616,-160.057C-69.215,-159.366 -69.767,-157.286 -70.556,-155.707C-71.345,-154.131 -72.428,-152.625 -72.936,-150.873C-73.386,-156.215 -69.743,-160.697 -66.356,-162.796M-34.86,-168.137C-37.628,-168.072 -41.756,-167.538 -44.797,-166.986C-49.562,-166.12 -53.775,-163.594 -57.117,-161.346C-59.374,-162.455 -61.417,-163.808 -63.977,-164.569C-58.626,-171.533 -43.436,-172.968 -34.86,-168.137M-34.158,-166.824C-32.921,-166.748 -31.837,-164.967 -30.939,-164.73C-36.963,-161.513 -43.597,-158.997 -48.437,-154.418C-50.698,-156.543 -53.268,-158.31 -55.717,-160.219C-54.596,-161.22 -53.079,-162.715 -51.237,-163.441C-50.682,-163.66 -47.946,-164.782 -47.038,-165.052C-43.177,-166.197 -36.134,-166.946 -34.158,-166.824M-25.618,-179.552C-27.757,-176.858 -30.523,-174.887 -30.939,-170.208C-31.964,-170.316 -32.151,-169.456 -33.038,-169.402C-35.111,-174.971 -30.414,-179.909 -25.618,-179.552M-17.078,-180.358C-12.168,-181.237 -9.305,-177.164 -7.559,-173.592C-5.301,-168.969 -4.698,-163.209 -1.819,-159.574C-3.371,-158.997 -4.937,-158.514 -6.859,-158.768C-7.847,-164.514 -10.548,-171.724 -14.139,-174.075C-16.317,-175.5 -21.896,-176.195 -24.778,-175.042C-26.472,-174.364 -27.611,-172.869 -29.259,-171.819C-27.098,-177.894 -22.817,-179.332 -17.078,-180.358M-5.319,-145.879C-10.575,-147.187 -10.239,-154.932 -13.159,-158.93C-15.472,-161.218 -18.831,-163.163 -22.538,-162.474C-23.431,-166.387 -26.309,-168.016 -28.558,-170.369C-26.525,-171.696 -25.202,-173.601 -22.818,-173.914C-19.096,-174.402 -15.087,-173.306 -13.439,-171.496C-11.297,-169.144 -9.137,-164.558 -8.399,-160.541C-7.705,-156.757 -8.249,-152.436 -6.719,-148.619C-6.304,-147.581 -5.557,-146.855 -5.319,-145.879M-15.119,-138.146C-17.845,-139.684 -18.971,-144.296 -19.039,-149.102C-19.087,-152.5 -18.937,-155.196 -20.299,-157.641C-20.856,-158.642 -21.915,-159.326 -22.119,-160.702C-17.182,-161.65 -13.434,-158.074 -11.899,-153.29C-11.398,-151.728 -11.354,-150.102 -10.499,-148.78C-11.178,-144.244 -14.758,-143.046 -15.119,-138.146M-27.578,-160.38C-26.537,-159.611 -25.381,-158.372 -25.198,-156.996C-24.901,-154.743 -26.441,-151.534 -27.299,-149.423C-29.993,-142.786 -32.671,-134.95 -36.537,-130.573C-37.374,-135.25 -38.613,-139.462 -40.597,-142.818C-36.014,-148.39 -30.976,-153.441 -27.578,-160.38M-31.778,-167.63C-30.257,-170.009 -28.523,-168.117 -27.018,-166.824C-24.969,-165.063 -22.619,-161.207 -23.658,-157.641C-25.551,-160.265 -27.344,-163.682 -29.819,-165.858C-30.454,-166.418 -31.521,-166.573 -31.778,-167.63M-28.418,-161.83C-30.022,-158.303 -31.892,-155.112 -34.158,-152.324C-36.391,-149.577 -38.663,-146.695 -41.437,-144.59C-43.456,-147.476 -45.589,-150.231 -47.457,-153.29C-42.695,-157.96 -36.167,-160.598 -29.819,-163.441C-29.149,-163.137 -28.752,-162.519 -28.418,-161.83M-24.218,-133.151C-26.311,-135.29 -30.678,-134.517 -32.898,-132.989C-30.048,-139.484 -26.583,-146.666 -24.358,-154.418C-21.962,-148.959 -21.717,-138.281 -24.218,-133.151M-36.818,-113.172C-37.284,-113.247 -37.455,-113.644 -37.518,-114.46C-37.802,-116.062 -36.024,-117.926 -34.577,-116.555C-33.664,-114.9 -34.876,-112.923 -36.818,-113.172M1.821,-117.039C1.3,-119.742 -0.922,-122.88 -3.22,-125.256C-6.114,-128.249 -9.35,-130.3 -13.999,-129.284C-15.271,-129.006 -17.856,-124.578 -18.619,-123.483C-24.084,-115.634 -29.438,-106.246 -34.86,-99.096C-35.76,-99.982 -37.029,-101.168 -37.797,-101.733C-37.617,-104.613 -38.831,-109.313 -37.657,-111.883C-35.349,-110.844 -33.261,-113.213 -32.898,-115.911C-27.3,-118.439 -23.599,-124 -23.239,-132.022C-21.798,-134.104 -21.185,-137.797 -20.999,-141.206C-20.724,-146.246 -21.818,-151.757 -23.098,-155.707C-22.601,-156.156 -22.596,-157.17 -22.119,-157.641C-19.108,-155.088 -21.019,-148.518 -20.018,-143.945C-19.228,-140.335 -17.371,-137.747 -15.399,-135.89C-14.855,-135.378 -14.162,-134.223 -13.299,-134.762C-12.566,-136.133 -13.602,-136.593 -13.719,-137.823C-14.088,-141.712 -10.046,-143.649 -9.519,-147.007C-8.21,-144.81 -4.932,-143.633 -2.519,-144.106C-2.515,-145.624 -3.857,-146.256 -4.479,-147.329C-5.983,-149.92 -6.849,-153.175 -6.58,-157.157C-3.413,-156.571 -1.3,-158.496 0.84,-159.091C1.103,-160.857 -0.494,-160.559 -1.4,-161.346C-1.78,-161.677 -2.123,-162.422 -2.379,-162.958C-4.315,-166.987 -5.001,-172.66 -7.419,-176.653C-8.569,-178.552 -10.595,-180.705 -12.599,-181.487C-15.938,-182.788 -20.185,-181.69 -22.959,-180.68C-29.987,-182.559 -35.96,-177.368 -34.718,-169.725C-44.706,-175.398 -59.916,-172.903 -66.076,-164.73C-71.098,-162.524 -75.93,-155.046 -73.916,-147.491C-76.817,-138.048 -70.558,-131.309 -73.636,-124.611C-74.202,-123.378 -75.957,-122.387 -76.016,-121.067C-76.122,-118.687 -73.342,-117.731 -72.376,-116.716C-69.724,-108.493 -62.394,-98.301 -54.982,-99.822C-55.09,-97.456 -54.564,-94.934 -54.877,-93.031C-58.894,-89.585 -60.703,-82.999 -61.736,-75.792C-62.757,-68.675 -63.983,-61.92 -64.537,-54.847C-65.328,-53.717 -66.303,-52.798 -66.636,-51.14C-68.281,-50.456 -69.314,-49.067 -69.576,-46.79C-71.093,-46.007 -71.37,-44.116 -72.236,-42.441C-73.283,-40.414 -74.69,-39.717 -74.196,-37.124C-75.77,-34.865 -77.043,-32.455 -78.536,-30.034C-80.504,-26.843 -81.745,-23.571 -82.456,-18.918C-82.888,-16.085 -83.623,-13.201 -83.995,-10.216C-84.522,-6.003 -86.079,0.11 -84.136,3.156C-82.034,6.45 -78.603,3.548 -76.576,1.544C-75.346,0.329 -73.998,-0.891 -72.796,-1.999C-69.985,-4.592 -67.612,-7.374 -65.236,-8.767C-65.554,-6.607 -65.64,-4.183 -65.796,-1.839C-63.68,0.184 -60.232,0.673 -57.397,1.866C-57.464,16.185 -56.558,32.066 -55.157,45.853C-58.483,46.828 -61.906,48.663 -65.236,50.363C-71.136,53.379 -78.024,56.076 -77.555,65.349C-69.344,68.847 -59.301,70.422 -48.577,69.538C-41.945,68.991 -35.102,68.491 -28.837,66.153C-28.39,65.917 -28.54,64.993 -28.277,64.542C-26.994,63.849 -25.136,63.938 -24.498,62.77C-23.996,61.851 -23.939,61.174 -23.894,60.148C-23.747,56.759 -24.369,53.983 -24.919,51.17C-25.416,48.621 -26.492,46.283 -26.458,43.757C-26.421,40.981 -26.234,37.488 -26.598,34.253C-27.919,22.557 -28.878,11.094 -32.058,2.189C-29.304,1.277 -26.242,0.72 -24.079,-0.872C-24.919,-9.467 -27.237,-17.75 -28.699,-26.168C-27.883,-27.088 -24.979,-27.107 -24.498,-28.262C-24.284,-28.777 -25.035,-30.944 -25.198,-31.806C-26.391,-38.112 -27.816,-46.276 -28.138,-52.429C-23.147,-51.746 -21.215,-54.502 -20.145,-56.825C-17.555,-62.449 -17.494,-74.055 -20.158,-79.014C-19.031,-80.692 -18.212,-82.505 -17.078,-84.171C-15.94,-85.843 -15.145,-87.769 -13.999,-89.487C-13.373,-90.427 -12.55,-91.152 -11.899,-92.227C-11.31,-93.198 -10.734,-94.294 -10.079,-95.287C-7.271,-99.546 -5.024,-102.699 -2.1,-106.888C0.059,-109.98 2.744,-112.232 1.821,-117.039" style="fill:rgb(35,31,32);"/>
            </g>
            <g transform="matrix(4.16667,0,0,4.16667,2088.78,1076.81)">
                <path d="M0,-3.707C-1.17,-3.126 -0.374,-0.201 0.56,0C1.93,-0.467 1.341,-3.571 0,-3.707" style="fill:rgb(35,31,32);"/>
            </g>
            <g transform="matrix(4.16667,0,0,4.16667,2230.52,1070.79)">
                <path d="M0,8.856C0.686,7.605 1.164,6.114 2.379,5.472C3.075,5.96 3.109,7.21 3.639,7.889C5.79,7.229 3.818,5.427 3.359,4.183C4.441,2.85 5.832,1.874 7.559,1.283C7.458,0.79 7.702,0.697 7.699,0.317C7.418,-0.004 7.243,0.249 6.675,0.257C5.181,0.721 3.142,2.112 1.679,3.699C0.54,4.938 -0.907,6.56 -0.84,8.696C-0.413,8.578 -0.331,8.86 0,8.856" style="fill:rgb(35,31,32);"/>
            </g>
        </g>
    </g>
</svg>
