<?xml version="1.0" encoding="UTF-8" standalone="no"?>
<!DOCTYPE svg PUBLIC "-//W3C//DTD SVG 1.1//EN" "http://www.w3.org/Graphics/SVG/1.1/DTD/svg11.dtd">
<svg width="100%" height="100%" viewBox="0 0 942 477" version="1.1" xmlns="http://www.w3.org/2000/svg" xmlns:xlink="http://www.w3.org/1999/xlink" xml:space="preserve" xmlns:serif="http://www.serif.com/" style="fill-rule:evenodd;clip-rule:evenodd;">
    <g transform="matrix(1,0,0,1,-1314,-168)">
        <g transform="matrix(1,0,0,1,0,-323.995)">
            <g>
                <g transform="matrix(4.16667,0,0,4.16667,0,-1687.13)">
                    <rect x="317.339" y="532.912" width="212.598" height="104.441" style="fill:white;"/>
                </g>
                <g transform="matrix(4.16667,0,0,4.16667,1323.43,619.802)">
                    <path d="M0,0L212.031,0" style="fill:none;fill-rule:nonzero;stroke:rgb(237,28,36);stroke-width:1px;"/>
                </g>
                <g transform="matrix(4.16667,0,0,4.16667,1323.43,691.323)">
                    <path d="M0,0L212.031,0" style="fill:none;fill-rule:nonzero;stroke:rgb(187,189,192);stroke-width:1px;"/>
                </g>
                <g transform="matrix(4.16667,0,0,4.16667,1323.43,762.848)">
                    <path d="M0,0L212.031,0" style="fill:none;fill-rule:nonzero;stroke:rgb(187,189,192);stroke-width:1px;"/>
                </g>
                <g transform="matrix(4.16667,0,0,4.16667,1323.43,834.369)">
                    <path d="M0,0L212.031,0" style="fill:none;fill-rule:nonzero;stroke:rgb(187,189,192);stroke-width:1px;"/>
                </g>
                <g transform="matrix(4.16667,0,0,4.16667,1323.43,905.89)">
                    <path d="M0,0L212.031,0" style="fill:none;fill-rule:nonzero;stroke:rgb(187,189,192);stroke-width:1px;"/>
                </g>
                <g transform="matrix(4.16667,0,0,4.16667,2208.66,492.518)">
                    <path d="M0,22.677C6.262,22.677 11.339,17.601 11.339,11.339C11.339,5.076 6.262,0 0,0C-6.262,0 -11.339,5.076 -11.339,11.339C-11.339,17.601 -6.262,22.677 0,22.677" style="fill:rgb(249,160,73);fill-rule:nonzero;"/>
                </g>
                <g transform="matrix(54.1667,0,0,54.1667,2190.95,559.805)">
                    <path d="M0.053,-0L0.556,-0L0.556,-0.126L0.257,-0.126C0.316,-0.183 0.375,-0.239 0.433,-0.295C0.52,-0.378 0.551,-0.439 0.552,-0.525C0.552,-0.647 0.464,-0.754 0.309,-0.754C0.256,-0.754 0.16,-0.738 0.102,-0.655C0.061,-0.6 0.052,-0.539 0.05,-0.482L0.193,-0.482C0.194,-0.558 0.224,-0.623 0.296,-0.623C0.357,-0.623 0.403,-0.585 0.403,-0.512C0.402,-0.427 0.343,-0.376 0.269,-0.311C0.197,-0.246 0.125,-0.182 0.053,-0.117L0.053,-0Z" style="fill:white;fill-rule:nonzero;"/>
                </g>
                <g transform="matrix(54.1667,0,0,54.1667,1351.77,688.575)">
                    <path d="M0.223,-0.145L0.515,-0.145L0.569,-0L0.732,-0L0.439,-0.74L0.308,-0.74L0.008,-0L0.17,-0L0.223,-0.145ZM0.475,-0.264L0.262,-0.264L0.367,-0.564L0.475,-0.264Z" style="fill:rgb(35,31,32);fill-rule:nonzero;"/>
                </g>
                <g transform="matrix(54.1667,0,0,54.1667,1389.3,688.575)">
                    <path d="M0.571,-0.549L0.44,-0.549L0.44,-0.246C0.44,-0.168 0.408,-0.106 0.314,-0.106C0.221,-0.105 0.194,-0.169 0.194,-0.25L0.194,-0.549L0.063,-0.549L0.063,-0.217C0.063,-0.121 0.097,0.016 0.277,0.017C0.376,0.018 0.425,-0.03 0.448,-0.073L0.448,-0L0.571,-0L0.571,-0.549Z" style="fill:rgb(35,31,32);fill-rule:nonzero;"/>
                </g>
                <g transform="matrix(54.1667,0,0,54.1667,1423.21,688.575)">
                    <path d="M0.101,-0L0.232,-0L0.232,-0.448L0.326,-0.448L0.326,-0.549L0.232,-0.549L0.232,-0.74L0.101,-0.74L0.101,-0.549L0.01,-0.549L0.01,-0.448L0.101,-0.448L0.101,-0Z" style="fill:rgb(35,31,32);fill-rule:nonzero;"/>
                </g>
                <g transform="matrix(54.1667,0,0,54.1667,1439.62,688.575)">
                    <path d="M0.036,-0.275C0.036,-0.133 0.139,0.016 0.33,0.016C0.521,0.016 0.624,-0.133 0.624,-0.275C0.624,-0.416 0.521,-0.565 0.33,-0.565C0.139,-0.565 0.036,-0.416 0.036,-0.276L0.036,-0.275ZM0.167,-0.275C0.167,-0.372 0.24,-0.443 0.33,-0.443C0.42,-0.443 0.492,-0.372 0.492,-0.275C0.492,-0.178 0.42,-0.107 0.33,-0.107C0.24,-0.107 0.167,-0.178 0.167,-0.274L0.167,-0.275Z" style="fill:rgb(35,31,32);fill-rule:nonzero;"/>
                </g>
                <g transform="matrix(54.1667,0,0,54.1667,1474.83,688.575)">
                    <path d="M0.064,-0L0.195,-0L0.195,-0.296C0.195,-0.391 0.242,-0.434 0.334,-0.434L0.34,-0.434L0.34,-0.566C0.257,-0.565 0.212,-0.526 0.188,-0.477L0.188,-0.549L0.064,-0.549L0.064,-0Z" style="fill:rgb(35,31,32);fill-rule:nonzero;"/>
                </g>
                <g transform="matrix(54.1667,0,0,54.1667,1493.14,688.575)">
                    <path d="M0.221,-0.549L0.084,-0.549L0.084,-0.401L0.221,-0.401L0.221,-0.549ZM0.221,-0.148L0.084,-0.148L0.084,-0L0.221,-0L0.221,-0.148Z" style="fill:rgb(35,31,32);fill-rule:nonzero;"/>
                </g>
                <g transform="matrix(54.1667,0,0,54.1667,1524.18,688.575)">
                    <path d="M0.151,-0L0.149,-0.658L0.437,-0L0.49,-0L0.777,-0.658L0.775,-0L0.853,-0L0.853,-0.74L0.737,-0.74L0.464,-0.119L0.19,-0.74L0.074,-0.74L0.074,-0L0.151,-0Z" style="fill:rgb(35,31,32);fill-rule:nonzero;"/>
                </g>
                <g transform="matrix(54.1667,0,0,54.1667,1573.85,688.575)">
                    <path d="M0.612,-0.538L0.538,-0.538L0.538,-0.425C0.512,-0.486 0.433,-0.553 0.318,-0.553C0.154,-0.553 0.039,-0.427 0.039,-0.269C0.039,-0.121 0.143,0.015 0.318,0.015C0.414,0.015 0.496,-0.03 0.538,-0.111L0.538,-0L0.612,-0L0.612,-0.538ZM0.112,-0.269C0.112,-0.389 0.202,-0.485 0.326,-0.485C0.421,-0.485 0.493,-0.43 0.523,-0.356C0.535,-0.33 0.541,-0.3 0.54,-0.27C0.54,-0.241 0.534,-0.211 0.522,-0.185C0.493,-0.109 0.423,-0.054 0.328,-0.054C0.18,-0.054 0.113,-0.171 0.112,-0.268L0.112,-0.269Z" style="fill:rgb(35,31,32);fill-rule:nonzero;"/>
                </g>
                <g transform="matrix(54.1667,0,0,54.1667,1610.36,688.575)">
                    <path d="M0.072,-0L0.145,-0L0.145,-0.293C0.145,-0.415 0.203,-0.48 0.307,-0.48L0.314,-0.48L0.314,-0.553C0.251,-0.551 0.181,-0.53 0.142,-0.45L0.142,-0.538L0.072,-0.538L0.072,-0Z" style="fill:rgb(35,31,32);fill-rule:nonzero;"/>
                </g>
                <g transform="matrix(54.1667,0,0,54.1667,1627.26,688.575)">
                    <path d="M0.072,-0.637L0.146,-0.637L0.146,-0.74L0.072,-0.74L0.072,-0.637ZM0.072,-0L0.146,-0L0.146,-0.538L0.072,-0.538L0.072,-0Z" style="fill:rgb(35,31,32);fill-rule:nonzero;"/>
                </g>
                <g transform="matrix(54.1667,0,0,54.1667,1638.52,688.575)">
                    <path d="M0.387,-0.403C0.382,-0.512 0.298,-0.553 0.223,-0.553C0.132,-0.553 0.055,-0.496 0.055,-0.399C0.057,-0.314 0.117,-0.283 0.194,-0.26C0.287,-0.233 0.327,-0.208 0.329,-0.147C0.33,-0.092 0.287,-0.046 0.225,-0.046C0.171,-0.046 0.116,-0.079 0.113,-0.153L0.04,-0.153C0.041,-0.04 0.137,0.015 0.224,0.015C0.326,0.015 0.406,-0.057 0.402,-0.156C0.398,-0.271 0.312,-0.293 0.235,-0.314C0.17,-0.333 0.131,-0.354 0.129,-0.405C0.127,-0.452 0.163,-0.492 0.222,-0.492C0.276,-0.492 0.314,-0.46 0.314,-0.403L0.387,-0.403Z" style="fill:rgb(35,31,32);fill-rule:nonzero;"/>
                </g>
                <g transform="matrix(54.1667,0,0,54.1667,1662.36,688.575)">
                    <path d="M0.039,-0.269C0.039,-0.118 0.151,0.014 0.324,0.014C0.498,0.014 0.61,-0.118 0.61,-0.269C0.61,-0.42 0.498,-0.553 0.324,-0.553C0.151,-0.553 0.039,-0.42 0.039,-0.27L0.039,-0.269ZM0.112,-0.269C0.112,-0.392 0.205,-0.484 0.324,-0.484C0.444,-0.484 0.536,-0.392 0.536,-0.269C0.536,-0.146 0.444,-0.054 0.324,-0.054C0.205,-0.054 0.112,-0.146 0.112,-0.268L0.112,-0.269Z" style="fill:rgb(35,31,32);fill-rule:nonzero;"/>
                </g>
                <g transform="matrix(54.1667,0,0,54.1667,1696.97,688.575)">
                    <rect x="0.072" y="-0.74" width="0.074" height="0.74" style="fill:rgb(35,31,32);fill-rule:nonzero;"/>
                </g>
                <g transform="matrix(54.1667,0,0,54.1667,1723.24,688.575)">
                    <path d="M0.067,-0L0.15,-0L0.15,-0.667L0.266,-0.667C0.333,-0.667 0.379,-0.664 0.416,-0.64C0.462,-0.61 0.489,-0.552 0.489,-0.497C0.489,-0.444 0.472,-0.399 0.433,-0.361C0.393,-0.324 0.321,-0.323 0.269,-0.323L0.245,-0.323L0.454,-0L0.544,-0L0.36,-0.277C0.428,-0.284 0.481,-0.298 0.525,-0.358C0.556,-0.4 0.57,-0.453 0.569,-0.503C0.569,-0.587 0.528,-0.666 0.468,-0.702C0.43,-0.726 0.376,-0.74 0.26,-0.74L0.067,-0.74L0.067,-0Z" style="fill:rgb(35,31,32);fill-rule:nonzero;"/>
                </g>
                <g transform="matrix(54.1667,0,0,54.1667,1754.49,688.575)">
                    <path d="M0.039,-0.269C0.039,-0.118 0.151,0.014 0.324,0.014C0.498,0.014 0.61,-0.118 0.61,-0.269C0.61,-0.42 0.498,-0.553 0.324,-0.553C0.151,-0.553 0.039,-0.42 0.039,-0.27L0.039,-0.269ZM0.112,-0.269C0.112,-0.392 0.205,-0.484 0.324,-0.484C0.444,-0.484 0.536,-0.392 0.536,-0.269C0.536,-0.146 0.444,-0.054 0.324,-0.054C0.205,-0.054 0.112,-0.146 0.112,-0.268L0.112,-0.269Z" style="fill:rgb(35,31,32);fill-rule:nonzero;"/>
                </g>
                <g transform="matrix(54.1667,0,0,54.1667,1789.11,688.575)">
                    <path d="M0.61,-0.74L0.536,-0.74L0.536,-0.429C0.512,-0.485 0.434,-0.553 0.316,-0.553C0.155,-0.553 0.039,-0.43 0.039,-0.27C0.039,-0.119 0.145,0.015 0.317,0.015C0.429,0.015 0.501,-0.04 0.539,-0.111L0.539,-0L0.61,-0L0.61,-0.74ZM0.112,-0.27C0.112,-0.391 0.203,-0.485 0.327,-0.485C0.387,-0.485 0.441,-0.462 0.479,-0.423C0.518,-0.385 0.541,-0.333 0.541,-0.272C0.543,-0.212 0.52,-0.157 0.481,-0.117C0.443,-0.078 0.388,-0.054 0.328,-0.054C0.188,-0.054 0.113,-0.161 0.112,-0.269L0.112,-0.27Z" style="fill:rgb(35,31,32);fill-rule:nonzero;"/>
                </g>
                <g transform="matrix(54.1667,0,0,54.1667,1825.62,688.575)">
                    <path d="M0.072,-0L0.145,-0L0.145,-0.293C0.145,-0.415 0.203,-0.48 0.307,-0.48L0.314,-0.48L0.314,-0.553C0.251,-0.551 0.181,-0.53 0.142,-0.45L0.142,-0.538L0.072,-0.538L0.072,-0Z" style="fill:rgb(35,31,32);fill-rule:nonzero;"/>
                </g>
                <g transform="matrix(54.1667,0,0,54.1667,1842.52,688.575)">
                    <path d="M0.072,-0L0.146,-0L0.146,-0.538L0.072,-0.538L0.072,-0ZM0.008,-0.648L0.032,-0.6L0.273,-0.729L0.246,-0.783L0.008,-0.648Z" style="fill:rgb(35,31,32);fill-rule:nonzero;"/>
                </g>
                <g transform="matrix(54.1667,0,0,54.1667,1853.78,688.575)">
                    <path d="M0.61,-0.538L0.537,-0.538L0.537,-0.427C0.507,-0.493 0.425,-0.553 0.319,-0.553C0.155,-0.553 0.038,-0.429 0.038,-0.268C0.038,-0.113 0.151,0.015 0.319,0.015C0.423,0.015 0.498,-0.038 0.536,-0.114L0.536,-0.045C0.536,0.089 0.431,0.169 0.328,0.169C0.294,0.169 0.248,0.158 0.209,0.13C0.177,0.108 0.158,0.082 0.145,0.059L0.06,0.059C0.094,0.156 0.192,0.233 0.326,0.233C0.399,0.233 0.477,0.202 0.53,0.15C0.577,0.105 0.61,0.04 0.61,-0.062L0.61,-0.538ZM0.112,-0.27C0.112,-0.396 0.208,-0.484 0.326,-0.484C0.403,-0.484 0.457,-0.452 0.49,-0.409C0.524,-0.366 0.539,-0.313 0.539,-0.268C0.538,-0.209 0.516,-0.155 0.479,-0.116C0.441,-0.077 0.389,-0.054 0.328,-0.054C0.189,-0.054 0.112,-0.16 0.112,-0.269L0.112,-0.27Z" style="fill:rgb(35,31,32);fill-rule:nonzero;"/>
                </g>
                <g transform="matrix(54.1667,0,0,54.1667,1890.13,688.575)">
                    <path d="M0.567,-0.538L0.493,-0.538L0.493,-0.234C0.493,-0.122 0.429,-0.055 0.317,-0.054C0.196,-0.053 0.144,-0.131 0.144,-0.247L0.144,-0.538L0.071,-0.538L0.071,-0.233C0.071,-0.102 0.13,0.012 0.298,0.015C0.394,0.016 0.467,-0.026 0.497,-0.096L0.497,-0L0.567,-0L0.567,-0.538Z" style="fill:rgb(35,31,32);fill-rule:nonzero;"/>
                </g>
                <g transform="matrix(54.1667,0,0,54.1667,1924.2,688.575)">
                    <path d="M0.595,-0.248C0.603,-0.334 0.573,-0.417 0.511,-0.477C0.46,-0.526 0.39,-0.553 0.314,-0.553C0.153,-0.553 0.031,-0.426 0.031,-0.268C0.031,-0.134 0.128,0.015 0.315,0.015C0.37,0.015 0.423,-0 0.468,-0.029C0.514,-0.058 0.552,-0.102 0.577,-0.16L0.5,-0.16C0.465,-0.09 0.398,-0.049 0.315,-0.049C0.224,-0.048 0.109,-0.113 0.105,-0.248L0.595,-0.248ZM0.106,-0.307C0.113,-0.405 0.199,-0.49 0.315,-0.49C0.426,-0.493 0.517,-0.401 0.522,-0.307L0.106,-0.307Z" style="fill:rgb(35,31,32);fill-rule:nonzero;"/>
                </g>
                <g transform="matrix(54.1667,0,0,54.1667,1957.67,688.575)">
                    <path d="M0.013,-0L0.405,-0L0.405,-0.059L0.102,-0.059L0.394,-0.478L0.394,-0.538L0.025,-0.538L0.025,-0.479L0.311,-0.479L0.013,-0.054L0.013,-0Z" style="fill:rgb(35,31,32);fill-rule:nonzero;"/>
                </g>
                <g transform="matrix(54.1667,0,0,54.1667,1351.77,762.2)">
                    <path d="M0.169,-0L0.318,-0L0.318,-0.609L0.477,-0.609L0.477,-0.74L0.009,-0.74L0.009,-0.609L0.169,-0.609L0.169,-0Z" style="fill:rgb(35,31,32);fill-rule:nonzero;"/>
                </g>
                <g transform="matrix(54.1667,0,0,54.1667,1377.5,762.2)">
                    <path d="M0.065,-0L0.196,-0L0.196,-0.549L0.065,-0.549L0.065,-0ZM0.025,-0.692L0.064,-0.613L0.308,-0.729L0.265,-0.824L0.025,-0.692Z" style="fill:rgb(35,31,32);fill-rule:nonzero;"/>
                </g>
                <g transform="matrix(54.1667,0,0,54.1667,1391.04,762.2)">
                    <path d="M0.101,-0L0.232,-0L0.232,-0.448L0.326,-0.448L0.326,-0.549L0.232,-0.549L0.232,-0.74L0.101,-0.74L0.101,-0.549L0.01,-0.549L0.01,-0.448L0.101,-0.448L0.101,-0Z" style="fill:rgb(35,31,32);fill-rule:nonzero;"/>
                </g>
                <g transform="matrix(54.1667,0,0,54.1667,1408.75,762.2)">
                    <path d="M0.571,-0.549L0.44,-0.549L0.44,-0.246C0.44,-0.168 0.408,-0.106 0.314,-0.106C0.221,-0.105 0.194,-0.169 0.194,-0.25L0.194,-0.549L0.063,-0.549L0.063,-0.217C0.063,-0.121 0.097,0.016 0.277,0.017C0.376,0.018 0.425,-0.03 0.448,-0.073L0.448,-0L0.571,-0L0.571,-0.549Z" style="fill:rgb(35,31,32);fill-rule:nonzero;"/>
                </g>
                <g transform="matrix(54.1667,0,0,54.1667,1442.66,762.2)">
                    <rect x="0.065" y="-0.74" width="0.131" height="0.74" style="fill:rgb(35,31,32);fill-rule:nonzero;"/>
                </g>
                <g transform="matrix(54.1667,0,0,54.1667,1456.2,762.2)">
                    <path d="M0.036,-0.275C0.036,-0.133 0.139,0.016 0.33,0.016C0.521,0.016 0.624,-0.133 0.624,-0.275C0.624,-0.416 0.521,-0.565 0.33,-0.565C0.139,-0.565 0.036,-0.416 0.036,-0.276L0.036,-0.275ZM0.167,-0.275C0.167,-0.372 0.24,-0.443 0.33,-0.443C0.42,-0.443 0.492,-0.372 0.492,-0.275C0.492,-0.178 0.42,-0.107 0.33,-0.107C0.24,-0.107 0.167,-0.178 0.167,-0.274L0.167,-0.275Z" style="fill:rgb(35,31,32);fill-rule:nonzero;"/>
                </g>
                <g transform="matrix(54.1667,0,0,54.1667,1491.41,762.2)">
                    <path d="M0.221,-0.549L0.084,-0.549L0.084,-0.401L0.221,-0.401L0.221,-0.549ZM0.221,-0.148L0.084,-0.148L0.084,-0L0.221,-0L0.221,-0.148Z" style="fill:rgb(35,31,32);fill-rule:nonzero;"/>
                </g>
                <g transform="matrix(54.1667,0,0,54.1667,1522.44,762.2)">
                    <path d="M0.075,-0L0.44,-0L0.44,-0.073L0.158,-0.073L0.158,-0.74L0.075,-0.74L0.075,-0Z" style="fill:rgb(35,31,32);fill-rule:nonzero;"/>
                </g>
                <g transform="matrix(54.1667,0,0,54.1667,1545.95,762.2)">
                    <path d="M0.612,-0.538L0.538,-0.538L0.538,-0.425C0.512,-0.486 0.433,-0.553 0.318,-0.553C0.154,-0.553 0.039,-0.427 0.039,-0.269C0.039,-0.121 0.143,0.015 0.318,0.015C0.414,0.015 0.496,-0.03 0.538,-0.111L0.538,-0L0.612,-0L0.612,-0.538ZM0.112,-0.269C0.112,-0.389 0.202,-0.485 0.326,-0.485C0.421,-0.485 0.493,-0.43 0.523,-0.356C0.535,-0.33 0.541,-0.3 0.54,-0.27C0.54,-0.241 0.534,-0.211 0.522,-0.185C0.493,-0.109 0.423,-0.054 0.328,-0.054C0.18,-0.054 0.113,-0.171 0.112,-0.268L0.112,-0.269Z" style="fill:rgb(35,31,32);fill-rule:nonzero;"/>
                </g>
                <g transform="matrix(54.1667,0,0,54.1667,1597.52,762.2)">
                    <path d="M0.519,-0.182C0.496,-0.117 0.427,-0.055 0.324,-0.054C0.208,-0.054 0.112,-0.142 0.112,-0.269C0.112,-0.331 0.137,-0.389 0.173,-0.424C0.218,-0.466 0.262,-0.485 0.325,-0.485C0.401,-0.485 0.486,-0.443 0.52,-0.352L0.596,-0.352C0.559,-0.481 0.443,-0.553 0.322,-0.553C0.159,-0.553 0.038,-0.428 0.038,-0.269C0.038,-0.125 0.145,0.015 0.327,0.015C0.456,0.015 0.561,-0.068 0.596,-0.182L0.519,-0.182Z" style="fill:rgb(35,31,32);fill-rule:nonzero;"/>
                </g>
                <g transform="matrix(54.1667,0,0,54.1667,1631.1,762.2)">
                    <path d="M0.039,-0.269C0.039,-0.118 0.151,0.014 0.324,0.014C0.498,0.014 0.61,-0.118 0.61,-0.269C0.61,-0.42 0.498,-0.553 0.324,-0.553C0.151,-0.553 0.039,-0.42 0.039,-0.27L0.039,-0.269ZM0.112,-0.269C0.112,-0.392 0.205,-0.484 0.324,-0.484C0.444,-0.484 0.536,-0.392 0.536,-0.269C0.536,-0.146 0.444,-0.054 0.324,-0.054C0.205,-0.054 0.112,-0.146 0.112,-0.268L0.112,-0.269Z" style="fill:rgb(35,31,32);fill-rule:nonzero;"/>
                </g>
                <g transform="matrix(54.1667,0,0,54.1667,1665.72,762.2)">
                    <path d="M0.072,-0L0.146,-0L0.146,-0.304C0.146,-0.416 0.21,-0.483 0.321,-0.484C0.442,-0.486 0.494,-0.407 0.494,-0.291L0.494,-0L0.567,-0L0.567,-0.306C0.567,-0.437 0.508,-0.551 0.341,-0.553C0.245,-0.555 0.172,-0.512 0.141,-0.442C0.142,-0.478 0.142,-0.508 0.142,-0.538L0.072,-0.538L0.072,-0Z" style="fill:rgb(35,31,32);fill-rule:nonzero;"/>
                </g>
                <g transform="matrix(54.1667,0,0,54.1667,1699.73,762.2)">
                    <path d="M0.114,-0L0.187,-0L0.187,-0.479L0.305,-0.479L0.305,-0.538L0.187,-0.538L0.187,-0.74L0.114,-0.74L0.114,-0.538L0.008,-0.538L0.008,-0.479L0.114,-0.479L0.114,-0Z" style="fill:rgb(35,31,32);fill-rule:nonzero;"/>
                </g>
                <g transform="matrix(54.1667,0,0,54.1667,1714.57,762.2)">
                    <path d="M0.612,-0.538L0.538,-0.538L0.538,-0.425C0.512,-0.486 0.433,-0.553 0.318,-0.553C0.154,-0.553 0.039,-0.427 0.039,-0.269C0.039,-0.121 0.143,0.015 0.318,0.015C0.414,0.015 0.496,-0.03 0.538,-0.111L0.538,-0L0.612,-0L0.612,-0.538ZM0.112,-0.269C0.112,-0.389 0.202,-0.485 0.326,-0.485C0.421,-0.485 0.493,-0.43 0.523,-0.356C0.535,-0.33 0.541,-0.3 0.54,-0.27C0.54,-0.241 0.534,-0.211 0.522,-0.185C0.493,-0.109 0.423,-0.054 0.328,-0.054C0.18,-0.054 0.113,-0.171 0.112,-0.268L0.112,-0.269Z" style="fill:rgb(35,31,32);fill-rule:nonzero;"/>
                </g>
                <g transform="matrix(54.1667,0,0,54.1667,1751.08,762.2)">
                    <path d="M0.072,-0L0.146,-0L0.146,-0.3C0.146,-0.357 0.159,-0.398 0.182,-0.429C0.204,-0.461 0.246,-0.486 0.296,-0.484C0.351,-0.483 0.389,-0.462 0.414,-0.427C0.435,-0.394 0.444,-0.359 0.442,-0.299L0.442,-0L0.516,-0L0.516,-0.299C0.516,-0.36 0.521,-0.39 0.548,-0.428C0.573,-0.465 0.619,-0.484 0.666,-0.484C0.717,-0.484 0.751,-0.467 0.773,-0.439C0.804,-0.404 0.813,-0.353 0.813,-0.296L0.813,-0L0.887,-0L0.887,-0.299C0.887,-0.394 0.873,-0.452 0.826,-0.499C0.789,-0.537 0.736,-0.553 0.681,-0.553C0.621,-0.553 0.568,-0.53 0.533,-0.493C0.513,-0.472 0.502,-0.451 0.494,-0.436C0.491,-0.442 0.473,-0.478 0.459,-0.492C0.421,-0.535 0.368,-0.553 0.312,-0.553C0.251,-0.553 0.176,-0.521 0.142,-0.453L0.142,-0.538L0.072,-0.538L0.072,-0Z" style="fill:rgb(35,31,32);fill-rule:nonzero;"/>
                </g>
                <g transform="matrix(54.1667,0,0,54.1667,1802.32,762.2)">
                    <path d="M0.072,-0.637L0.146,-0.637L0.146,-0.74L0.072,-0.74L0.072,-0.637ZM0.072,-0L0.146,-0L0.146,-0.538L0.072,-0.538L0.072,-0Z" style="fill:rgb(35,31,32);fill-rule:nonzero;"/>
                </g>
                <g transform="matrix(54.1667,0,0,54.1667,1813.59,762.2)">
                    <path d="M0.072,-0L0.146,-0L0.146,-0.304C0.146,-0.416 0.21,-0.483 0.321,-0.484C0.442,-0.486 0.494,-0.407 0.494,-0.291L0.494,-0L0.567,-0L0.567,-0.306C0.567,-0.437 0.508,-0.551 0.341,-0.553C0.245,-0.555 0.172,-0.512 0.141,-0.442C0.142,-0.478 0.142,-0.508 0.142,-0.538L0.072,-0.538L0.072,-0Z" style="fill:rgb(35,31,32);fill-rule:nonzero;"/>
                </g>
                <g transform="matrix(54.1667,0,0,54.1667,1847.61,762.2)">
                    <path d="M0.612,-0.538L0.538,-0.538L0.538,-0.425C0.512,-0.486 0.433,-0.553 0.318,-0.553C0.154,-0.553 0.039,-0.427 0.039,-0.269C0.039,-0.121 0.143,0.015 0.318,0.015C0.414,0.015 0.496,-0.03 0.538,-0.111L0.538,-0L0.612,-0L0.612,-0.538ZM0.112,-0.269C0.112,-0.389 0.202,-0.485 0.326,-0.485C0.421,-0.485 0.493,-0.43 0.523,-0.356C0.535,-0.33 0.541,-0.3 0.54,-0.27C0.54,-0.241 0.534,-0.211 0.522,-0.185C0.493,-0.109 0.423,-0.054 0.328,-0.054C0.18,-0.054 0.113,-0.171 0.112,-0.268L0.112,-0.269Z" style="fill:rgb(35,31,32);fill-rule:nonzero;"/>
                </g>
                <g transform="matrix(54.1667,0,0,54.1667,1884.12,762.2)">
                    <path d="M0.519,-0.182C0.496,-0.117 0.427,-0.055 0.324,-0.054C0.208,-0.054 0.112,-0.142 0.112,-0.269C0.112,-0.331 0.137,-0.389 0.173,-0.424C0.218,-0.466 0.262,-0.485 0.325,-0.485C0.401,-0.485 0.486,-0.443 0.52,-0.352L0.596,-0.352C0.559,-0.481 0.443,-0.553 0.322,-0.553C0.159,-0.553 0.038,-0.428 0.038,-0.269C0.038,-0.125 0.145,0.015 0.327,0.015C0.456,0.015 0.561,-0.068 0.596,-0.182L0.519,-0.182Z" style="fill:rgb(35,31,32);fill-rule:nonzero;"/>
                </g>
                <g transform="matrix(54.1667,0,0,54.1667,1917.7,762.2)">
                    <path d="M0.072,-0.637L0.146,-0.637L0.146,-0.74L0.072,-0.74L0.072,-0.637ZM0.072,-0L0.146,-0L0.146,-0.538L0.072,-0.538L0.072,-0Z" style="fill:rgb(35,31,32);fill-rule:nonzero;"/>
                </g>
                <g transform="matrix(54.1667,0,0,54.1667,1928.97,762.2)">
                    <path d="M0.039,-0.269C0.039,-0.118 0.151,0.014 0.324,0.014C0.498,0.014 0.61,-0.118 0.61,-0.269C0.61,-0.42 0.498,-0.553 0.324,-0.553C0.151,-0.553 0.039,-0.42 0.039,-0.27L0.039,-0.269ZM0.112,-0.269C0.112,-0.392 0.205,-0.484 0.324,-0.484C0.444,-0.484 0.536,-0.392 0.536,-0.269C0.536,-0.146 0.444,-0.054 0.324,-0.054C0.205,-0.054 0.112,-0.146 0.112,-0.268L0.112,-0.269ZM0.201,-0.648L0.225,-0.6L0.466,-0.729L0.439,-0.783L0.201,-0.648Z" style="fill:rgb(35,31,32);fill-rule:nonzero;"/>
                </g>
                <g transform="matrix(54.1667,0,0,54.1667,1963.58,762.2)">
                    <path d="M0.072,-0L0.146,-0L0.146,-0.304C0.146,-0.416 0.21,-0.483 0.321,-0.484C0.442,-0.486 0.494,-0.407 0.494,-0.291L0.494,-0L0.567,-0L0.567,-0.306C0.567,-0.437 0.508,-0.551 0.341,-0.553C0.245,-0.555 0.172,-0.512 0.141,-0.442C0.142,-0.478 0.142,-0.508 0.142,-0.538L0.072,-0.538L0.072,-0Z" style="fill:rgb(35,31,32);fill-rule:nonzero;"/>
                </g>
                <g transform="matrix(54.1667,0,0,54.1667,1351.77,833.034)">
                    <path d="M0.61,-0.74L0.536,-0.74L0.536,-0.429C0.512,-0.485 0.434,-0.553 0.316,-0.553C0.155,-0.553 0.039,-0.43 0.039,-0.27C0.039,-0.119 0.145,0.015 0.317,0.015C0.429,0.015 0.501,-0.04 0.539,-0.111L0.539,-0L0.61,-0L0.61,-0.74ZM0.112,-0.27C0.112,-0.391 0.203,-0.485 0.327,-0.485C0.387,-0.485 0.441,-0.462 0.479,-0.423C0.518,-0.385 0.541,-0.333 0.541,-0.272C0.543,-0.212 0.52,-0.157 0.481,-0.117C0.443,-0.078 0.388,-0.054 0.328,-0.054C0.188,-0.054 0.113,-0.161 0.112,-0.269L0.112,-0.27Z" style="fill:rgb(35,31,32);fill-rule:nonzero;"/>
                </g>
                <g transform="matrix(54.1667,0,0,54.1667,1388.27,833.034)">
                    <path d="M0.595,-0.248C0.603,-0.334 0.573,-0.417 0.511,-0.477C0.46,-0.526 0.39,-0.553 0.314,-0.553C0.153,-0.553 0.031,-0.426 0.031,-0.268C0.031,-0.134 0.128,0.015 0.315,0.015C0.37,0.015 0.423,-0 0.468,-0.029C0.514,-0.058 0.552,-0.102 0.577,-0.16L0.5,-0.16C0.465,-0.09 0.398,-0.049 0.315,-0.049C0.224,-0.048 0.109,-0.113 0.105,-0.248L0.595,-0.248ZM0.106,-0.307C0.113,-0.405 0.199,-0.49 0.315,-0.49C0.426,-0.493 0.517,-0.401 0.522,-0.307L0.106,-0.307Z" style="fill:rgb(35,31,32);fill-rule:nonzero;"/>
                </g>
                <g transform="matrix(54.1667,0,0,54.1667,1421.75,833.034)">
                    <rect x="0.072" y="-0.74" width="0.074" height="0.74" style="fill:rgb(35,31,32);fill-rule:nonzero;"/>
                </g>
                <g transform="matrix(54.1667,0,0,54.1667,1448.02,833.034)">
                    <path d="M0.612,-0.538L0.538,-0.538L0.538,-0.425C0.512,-0.486 0.433,-0.553 0.318,-0.553C0.154,-0.553 0.039,-0.427 0.039,-0.269C0.039,-0.121 0.143,0.015 0.318,0.015C0.414,0.015 0.496,-0.03 0.538,-0.111L0.538,-0L0.612,-0L0.612,-0.538ZM0.112,-0.269C0.112,-0.389 0.202,-0.485 0.326,-0.485C0.421,-0.485 0.493,-0.43 0.523,-0.356C0.535,-0.33 0.541,-0.3 0.54,-0.27C0.54,-0.241 0.534,-0.211 0.522,-0.185C0.493,-0.109 0.423,-0.054 0.328,-0.054C0.18,-0.054 0.113,-0.171 0.112,-0.268L0.112,-0.269Z" style="fill:rgb(35,31,32);fill-rule:nonzero;"/>
                </g>
                <g transform="matrix(54.1667,0,0,54.1667,1484.53,833.034)">
                    <path d="M0.072,-0.637L0.146,-0.637L0.146,-0.74L0.072,-0.74L0.072,-0.637ZM0.072,-0L0.146,-0L0.146,-0.538L0.072,-0.538L0.072,-0Z" style="fill:rgb(35,31,32);fill-rule:nonzero;"/>
                </g>
                <g transform="matrix(54.1667,0,0,54.1667,1495.79,833.034)">
                    <path d="M0.072,-0L0.145,-0L0.145,-0.293C0.145,-0.415 0.203,-0.48 0.307,-0.48L0.314,-0.48L0.314,-0.553C0.251,-0.551 0.181,-0.53 0.142,-0.45L0.142,-0.538L0.072,-0.538L0.072,-0Z" style="fill:rgb(35,31,32);fill-rule:nonzero;"/>
                </g>
                <g transform="matrix(54.1667,0,0,54.1667,1510.64,833.034)">
                    <path d="M0.595,-0.248C0.603,-0.334 0.573,-0.417 0.511,-0.477C0.46,-0.526 0.39,-0.553 0.314,-0.553C0.153,-0.553 0.031,-0.426 0.031,-0.268C0.031,-0.134 0.128,0.015 0.315,0.015C0.37,0.015 0.423,-0 0.468,-0.029C0.514,-0.058 0.552,-0.102 0.577,-0.16L0.5,-0.16C0.465,-0.09 0.398,-0.049 0.315,-0.049C0.224,-0.048 0.109,-0.113 0.105,-0.248L0.595,-0.248ZM0.106,-0.307C0.113,-0.405 0.199,-0.49 0.315,-0.49C0.426,-0.493 0.517,-0.401 0.522,-0.307L0.106,-0.307Z" style="fill:rgb(35,31,32);fill-rule:nonzero;"/>
                </g>
                <g transform="matrix(54.1667,0,0,54.1667,1351.77,906.659)">
                    <path d="M0.203,-0.74L0.07,-0.74L0.07,-0L0.213,-0L0.21,-0.512L0.551,-0L0.683,-0L0.683,-0.74L0.54,-0.74L0.543,-0.227L0.203,-0.74Z" style="fill:rgb(35,31,32);fill-rule:nonzero;"/>
                </g>
                <g transform="matrix(54.1667,0,0,54.1667,1392.07,906.659)">
                    <path d="M0.571,-0.549L0.44,-0.549L0.44,-0.246C0.44,-0.168 0.408,-0.106 0.314,-0.106C0.221,-0.105 0.194,-0.169 0.194,-0.25L0.194,-0.549L0.063,-0.549L0.063,-0.217C0.063,-0.121 0.097,0.016 0.277,0.017C0.376,0.018 0.425,-0.03 0.448,-0.073L0.448,-0L0.571,-0L0.571,-0.549ZM0.22,-0.692L0.259,-0.613L0.503,-0.729L0.459,-0.824L0.22,-0.692Z" style="fill:rgb(35,31,32);fill-rule:nonzero;"/>
                </g>
                <g transform="matrix(54.1667,0,0,54.1667,1425.97,906.659)">
                    <path d="M0.065,-0L0.196,-0L0.196,-0.297C0.196,-0.329 0.201,-0.363 0.217,-0.392C0.233,-0.42 0.263,-0.443 0.311,-0.443C0.358,-0.442 0.385,-0.421 0.401,-0.392C0.415,-0.364 0.418,-0.333 0.418,-0.301L0.418,-0L0.549,-0L0.549,-0.301C0.549,-0.334 0.551,-0.363 0.568,-0.393C0.585,-0.423 0.617,-0.443 0.663,-0.443C0.709,-0.443 0.735,-0.425 0.749,-0.398C0.768,-0.369 0.771,-0.331 0.771,-0.296L0.771,-0L0.902,-0L0.902,-0.301C0.902,-0.414 0.892,-0.459 0.842,-0.511C0.8,-0.554 0.742,-0.566 0.696,-0.566C0.638,-0.566 0.59,-0.544 0.556,-0.512C0.538,-0.495 0.526,-0.477 0.516,-0.46C0.509,-0.474 0.495,-0.497 0.483,-0.51C0.443,-0.553 0.393,-0.566 0.348,-0.566C0.253,-0.566 0.2,-0.505 0.188,-0.48L0.188,-0.549L0.065,-0.549L0.065,-0Z" style="fill:rgb(35,31,32);fill-rule:nonzero;"/>
                </g>
                <g transform="matrix(54.1667,0,0,54.1667,1477.65,906.659)">
                    <path d="M0.604,-0.231C0.615,-0.327 0.59,-0.413 0.523,-0.482C0.472,-0.535 0.4,-0.566 0.318,-0.566C0.152,-0.566 0.03,-0.429 0.03,-0.273C0.03,-0.12 0.151,0.017 0.32,0.017C0.377,0.017 0.431,0.001 0.477,-0.031C0.523,-0.062 0.562,-0.108 0.588,-0.169L0.453,-0.169C0.428,-0.124 0.385,-0.095 0.321,-0.095C0.246,-0.094 0.168,-0.143 0.162,-0.231L0.604,-0.231ZM0.164,-0.331C0.169,-0.385 0.222,-0.455 0.319,-0.455C0.415,-0.456 0.47,-0.383 0.475,-0.331L0.164,-0.331Z" style="fill:rgb(35,31,32);fill-rule:nonzero;"/>
                </g>
                <g transform="matrix(54.1667,0,0,54.1667,1511.72,906.659)">
                    <path d="M0.064,-0L0.195,-0L0.195,-0.296C0.195,-0.391 0.242,-0.434 0.334,-0.434L0.34,-0.434L0.34,-0.566C0.257,-0.565 0.212,-0.526 0.188,-0.477L0.188,-0.549L0.064,-0.549L0.064,-0Z" style="fill:rgb(35,31,32);fill-rule:nonzero;"/>
                </g>
                <g transform="matrix(54.1667,0,0,54.1667,1528.67,906.659)">
                    <path d="M0.036,-0.275C0.036,-0.133 0.139,0.016 0.33,0.016C0.521,0.016 0.624,-0.133 0.624,-0.275C0.624,-0.416 0.521,-0.565 0.33,-0.565C0.139,-0.565 0.036,-0.416 0.036,-0.276L0.036,-0.275ZM0.167,-0.275C0.167,-0.372 0.24,-0.443 0.33,-0.443C0.42,-0.443 0.492,-0.372 0.492,-0.275C0.492,-0.178 0.42,-0.107 0.33,-0.107C0.24,-0.107 0.167,-0.178 0.167,-0.274L0.167,-0.275Z" style="fill:rgb(35,31,32);fill-rule:nonzero;"/>
                </g>
                <g transform="matrix(54.1667,0,0,54.1667,1579.64,906.659)">
                    <path d="M0.627,-0.74L0.496,-0.74L0.496,-0.478C0.476,-0.51 0.417,-0.566 0.312,-0.566C0.163,-0.566 0.036,-0.453 0.036,-0.275C0.036,-0.115 0.145,0.017 0.314,0.017C0.426,0.017 0.478,-0.038 0.502,-0.079L0.502,-0L0.627,-0L0.627,-0.74ZM0.167,-0.276C0.167,-0.362 0.229,-0.444 0.336,-0.444C0.383,-0.444 0.425,-0.426 0.455,-0.396C0.485,-0.367 0.504,-0.326 0.504,-0.278C0.506,-0.23 0.488,-0.187 0.457,-0.156C0.426,-0.125 0.383,-0.106 0.335,-0.106C0.234,-0.106 0.167,-0.182 0.167,-0.275L0.167,-0.276Z" style="fill:rgb(35,31,32);fill-rule:nonzero;"/>
                </g>
                <g transform="matrix(54.1667,0,0,54.1667,1616.64,906.659)">
                    <path d="M0.604,-0.231C0.615,-0.327 0.59,-0.413 0.523,-0.482C0.472,-0.535 0.4,-0.566 0.318,-0.566C0.152,-0.566 0.03,-0.429 0.03,-0.273C0.03,-0.12 0.151,0.017 0.32,0.017C0.377,0.017 0.431,0.001 0.477,-0.031C0.523,-0.062 0.562,-0.108 0.588,-0.169L0.453,-0.169C0.428,-0.124 0.385,-0.095 0.321,-0.095C0.246,-0.094 0.168,-0.143 0.162,-0.231L0.604,-0.231ZM0.164,-0.331C0.169,-0.385 0.222,-0.455 0.319,-0.455C0.415,-0.456 0.47,-0.383 0.475,-0.331L0.164,-0.331Z" style="fill:rgb(35,31,32);fill-rule:nonzero;"/>
                </g>
                <g transform="matrix(54.1667,0,0,54.1667,1666.47,906.659)">
                    <path d="M0.065,0.192L0.196,0.192L0.196,-0.073C0.218,-0.038 0.276,0.017 0.383,0.017C0.544,0.017 0.655,-0.114 0.655,-0.27C0.655,-0.403 0.574,-0.566 0.382,-0.566C0.291,-0.566 0.227,-0.524 0.188,-0.469L0.188,-0.549L0.065,-0.549L0.065,0.192ZM0.524,-0.274C0.524,-0.184 0.457,-0.105 0.357,-0.105C0.31,-0.105 0.268,-0.124 0.238,-0.154C0.208,-0.184 0.19,-0.226 0.19,-0.273C0.19,-0.321 0.208,-0.364 0.237,-0.394C0.267,-0.425 0.308,-0.444 0.356,-0.444C0.467,-0.444 0.524,-0.354 0.524,-0.275L0.524,-0.274Z" style="fill:rgb(35,31,32);fill-rule:nonzero;"/>
                </g>
                <g transform="matrix(54.1667,0,0,54.1667,1703.42,906.659)">
                    <path d="M0.631,-0.549L0.5,-0.549L0.5,-0.469C0.476,-0.513 0.415,-0.566 0.315,-0.566C0.161,-0.566 0.036,-0.448 0.036,-0.275C0.036,-0.12 0.139,0.017 0.315,0.017C0.392,0.017 0.465,-0.015 0.5,-0.079L0.5,-0L0.631,-0L0.631,-0.549ZM0.167,-0.273C0.167,-0.358 0.227,-0.444 0.333,-0.444C0.412,-0.444 0.463,-0.399 0.486,-0.347C0.497,-0.323 0.502,-0.296 0.501,-0.27C0.499,-0.243 0.493,-0.217 0.48,-0.193C0.455,-0.143 0.407,-0.105 0.334,-0.105C0.216,-0.105 0.167,-0.204 0.167,-0.272L0.167,-0.273ZM0.223,-0.692L0.262,-0.613L0.506,-0.729L0.462,-0.824L0.223,-0.692Z" style="fill:rgb(35,31,32);fill-rule:nonzero;"/>
                </g>
                <g transform="matrix(54.1667,0,0,54.1667,1740.57,906.659)">
                    <path d="M0.626,-0.549L0.494,-0.549L0.494,-0.475C0.463,-0.529 0.395,-0.565 0.316,-0.565C0.164,-0.565 0.036,-0.451 0.036,-0.272C0.036,-0.103 0.158,0.017 0.316,0.017C0.409,0.017 0.467,-0.032 0.494,-0.081L0.494,-0.035C0.494,0.076 0.409,0.13 0.331,0.13C0.315,0.13 0.286,0.126 0.259,0.111C0.235,0.099 0.214,0.08 0.202,0.055L0.05,0.055C0.07,0.14 0.152,0.242 0.323,0.242C0.436,0.242 0.528,0.192 0.575,0.129C0.609,0.083 0.626,0.025 0.626,-0.065L0.626,-0.549ZM0.167,-0.276C0.167,-0.374 0.242,-0.443 0.331,-0.443C0.388,-0.443 0.429,-0.421 0.455,-0.388C0.482,-0.356 0.495,-0.312 0.495,-0.27C0.494,-0.223 0.477,-0.182 0.448,-0.153C0.419,-0.123 0.38,-0.106 0.331,-0.106C0.236,-0.106 0.167,-0.179 0.167,-0.275L0.167,-0.276Z" style="fill:rgb(35,31,32);fill-rule:nonzero;"/>
                </g>
                <g transform="matrix(54.1667,0,0,54.1667,1777.3,906.659)">
                    <path d="M0.065,-0.623L0.196,-0.623L0.196,-0.74L0.065,-0.74L0.065,-0.623ZM0.065,-0L0.196,-0L0.196,-0.549L0.065,-0.549L0.065,-0Z" style="fill:rgb(35,31,32);fill-rule:nonzero;"/>
                </g>
                <g transform="matrix(54.1667,0,0,54.1667,1790.84,906.659)">
                    <path d="M0.065,-0L0.196,-0L0.196,-0.303C0.196,-0.38 0.228,-0.442 0.321,-0.443C0.413,-0.443 0.44,-0.38 0.44,-0.298L0.44,-0L0.571,-0L0.571,-0.331C0.571,-0.428 0.537,-0.565 0.358,-0.566C0.26,-0.567 0.211,-0.519 0.187,-0.476C0.188,-0.502 0.188,-0.525 0.188,-0.549L0.065,-0.549L0.065,-0Z" style="fill:rgb(35,31,32);fill-rule:nonzero;"/>
                </g>
                <g transform="matrix(54.1667,0,0,54.1667,1824.64,906.659)">
                    <path d="M0.631,-0.549L0.5,-0.549L0.5,-0.469C0.476,-0.513 0.415,-0.566 0.315,-0.566C0.161,-0.566 0.036,-0.448 0.036,-0.275C0.036,-0.12 0.139,0.017 0.315,0.017C0.392,0.017 0.465,-0.015 0.5,-0.079L0.5,-0L0.631,-0L0.631,-0.549ZM0.167,-0.273C0.167,-0.358 0.227,-0.444 0.333,-0.444C0.412,-0.444 0.463,-0.399 0.486,-0.347C0.497,-0.323 0.502,-0.296 0.501,-0.27C0.499,-0.243 0.493,-0.217 0.48,-0.193C0.455,-0.143 0.407,-0.105 0.334,-0.105C0.216,-0.105 0.167,-0.204 0.167,-0.272L0.167,-0.273Z" style="fill:rgb(35,31,32);fill-rule:nonzero;"/>
                </g>
                <g transform="matrix(54.1667,0,0,54.1667,1861.8,906.659)">
                    <path d="M0.432,-0.401C0.421,-0.533 0.311,-0.566 0.237,-0.566C0.131,-0.566 0.04,-0.499 0.04,-0.391C0.041,-0.312 0.101,-0.271 0.175,-0.248C0.276,-0.213 0.317,-0.2 0.317,-0.153C0.318,-0.116 0.283,-0.089 0.242,-0.089C0.217,-0.089 0.166,-0.101 0.161,-0.16L0.03,-0.16C0.04,-0.027 0.155,0.017 0.24,0.017C0.355,0.017 0.45,-0.055 0.448,-0.168C0.447,-0.286 0.352,-0.312 0.264,-0.336C0.212,-0.351 0.172,-0.37 0.171,-0.405C0.171,-0.432 0.192,-0.46 0.236,-0.46C0.287,-0.46 0.302,-0.43 0.303,-0.401L0.432,-0.401Z" style="fill:rgb(35,31,32);fill-rule:nonzero;"/>
                </g>
                <g transform="matrix(54.1667,0,0,54.1667,1887.31,906.659)">
                    <path d="M0.221,-0.549L0.084,-0.549L0.084,-0.401L0.221,-0.401L0.221,-0.549ZM0.221,-0.148L0.084,-0.148L0.084,-0L0.221,-0L0.221,-0.148Z" style="fill:rgb(35,31,32);fill-rule:nonzero;"/>
                </g>
                <g transform="matrix(54.1667,0,0,54.1667,1918.35,906.659)">
                    <path d="M0.258,-0L0.341,-0L0.341,-0.74L0.109,-0.74L0.109,-0.669L0.258,-0.669L0.258,-0Z" style="fill:rgb(35,31,32);fill-rule:nonzero;"/>
                </g>
                <g transform="matrix(54.1667,0,0,54.1667,1949.01,906.659)">
                    <path d="M0.258,-0L0.341,-0L0.341,-0.74L0.109,-0.74L0.109,-0.669L0.258,-0.669L0.258,-0Z" style="fill:rgb(35,31,32);fill-rule:nonzero;"/>
                </g>
                <g transform="matrix(54.1667,0,0,54.1667,1979.67,906.659)">
                    <path d="M0.374,-0L0.454,-0L0.454,-0.139L0.532,-0.139L0.532,-0.206L0.454,-0.206L0.454,-0.74L0.369,-0.74L0.008,-0.202L0.008,-0.139L0.374,-0.139L0.374,-0ZM0.094,-0.206L0.378,-0.64L0.378,-0.206L0.094,-0.206Z" style="fill:rgb(35,31,32);fill-rule:nonzero;"/>
                </g>
            </g>
        </g>
    </g>
</svg>
