<?xml version="1.0" encoding="UTF-8" standalone="no"?>
<!DOCTYPE svg PUBLIC "-//W3C//DTD SVG 1.1//EN" "http://www.w3.org/Graphics/SVG/1.1/DTD/svg11.dtd">
<svg width="100%" height="100%" viewBox="0 0 340 403" version="1.1" xmlns="http://www.w3.org/2000/svg" xmlns:xlink="http://www.w3.org/1999/xlink" xml:space="preserve" xmlns:serif="http://www.serif.com/" style="fill-rule:evenodd;clip-rule:evenodd;stroke-miterlimit:10;">
    <g transform="matrix(1,0,0,1,-1805,-732)">
        <g id="a3">
            <g transform="matrix(4.16667,0,0,4.16667,1939.83,753.297)">
                <path d="M0,16.083L-1.333,10.166L6.334,0L16.667,0L23.167,9.833L22,16.083" style="fill:rgb(247,247,199);fill-rule:nonzero;stroke:rgb(94,164,72);stroke-width:1px;"/>
            </g>
            <g transform="matrix(4.16667,0,0,4.16667,1939.83,1113.36)">
                <path d="M0,-16.083L-1.333,-10.166L6.334,0L16.667,0L23.167,-9.833L22,-16.083" style="fill:rgb(247,247,199);fill-rule:nonzero;stroke:rgb(94,164,72);stroke-width:1px;"/>
            </g>
            <g transform="matrix(-4.16667,0,0,4.16667,3787.98,-1322.31)">
                <rect x="443.558" y="514.229" width="22" height="54.25" style="fill:rgb(209,227,143);stroke:rgb(94,164,72);stroke-width:1px;"/>
            </g>
            <g transform="matrix(-4.16667,0,0,4.16667,3971.32,-1322.31)">
                <rect x="465.558" y="514.229" width="22" height="54.25" style="fill:rgb(209,227,143);stroke:rgb(94,164,72);stroke-width:1px;"/>
            </g>
            <g transform="matrix(-4.16667,0,0,4.16667,4154.65,-1322.31)">
                <rect x="487.558" y="514.229" width="22" height="54.25" style="fill:rgb(209,227,143);stroke:rgb(94,164,72);stroke-width:1px;"/>
            </g>
            <g transform="matrix(4.16667,0,0,4.16667,1939.83,753.297)">
                <path d="M0,16.083L22,16.083L11,0L0,16.083Z" style="fill:rgb(209,227,143);fill-rule:nonzero;stroke:rgb(94,164,72);stroke-width:1px;"/>
            </g>
            <g transform="matrix(4.16667,0,0,4.16667,1939.83,1113.36)">
                <path d="M0,-16.083L22,-16.083L11,0L0,-16.083Z" style="fill:rgb(209,227,143);fill-rule:nonzero;stroke:rgb(94,164,72);stroke-width:1px;"/>
            </g>
            <g transform="matrix(-3.1669,2.70774,2.70774,3.1669,1902.67,1026.23)">
                <path d="M-22.174,-46.063L-15.377,-46.063L14.517,-11.1L13.081,-4.83L-22.174,-46.063Z" style="fill:rgb(247,247,199);fill-rule:nonzero;stroke:rgb(94,164,72);stroke-width:1px;"/>
            </g>
        </g>
    </g>
</svg>
