<?xml version="1.0" encoding="UTF-8" standalone="no"?>
<!DOCTYPE svg PUBLIC "-//W3C//DTD SVG 1.1//EN" "http://www.w3.org/Graphics/SVG/1.1/DTD/svg11.dtd">
<svg width="100%" height="100%" viewBox="0 0 122 363" version="1.1" xmlns="http://www.w3.org/2000/svg" xmlns:xlink="http://www.w3.org/1999/xlink" xml:space="preserve" xmlns:serif="http://www.serif.com/" style="fill-rule:evenodd;clip-rule:evenodd;stroke-linejoin:round;stroke-miterlimit:2;">
    <g transform="matrix(1,0,0,1,-426,-1458)">
        <g id="b1">
            <g transform="matrix(4.16667,0,0,4.16667,504.153,1816.4)">
                <path d="M0,-84.588C-2.633,-85.279 -5.046,-85.234 -7.468,-84.891C-8.295,-84.774 -8.879,-84.229 -8.79,-83.408C-8.689,-82.488 -7.834,-82.92 -7.333,-82.933C-6.007,-82.971 -4.666,-83.032 -3.367,-83.276C-2.279,-83.48 -0.979,-83.313 0,-84.588M-4.646,-80.326C-3.883,-79.608 -4.213,-79.05 -4.174,-78.548C-4.009,-76.39 -3.632,-76.11 -1.593,-76.679C0.258,-77.197 1.673,-81.095 0.605,-82.691C0.304,-83.144 -0.034,-82.958 -0.427,-82.907C-2.795,-82.597 -5.145,-82.075 -7.551,-82.184C-8.361,-82.221 -8.674,-81.9 -8.52,-81.147C-8.291,-80.045 -8.055,-78.941 -7.74,-77.862C-7.591,-77.351 -7.211,-76.799 -6.586,-77.037C-6.028,-77.25 -6.355,-77.847 -6.407,-78.262C-6.518,-79.152 -7.009,-80.045 -6.36,-80.918C-6.003,-79.639 -6.036,-78.316 -5.582,-77.082C-5.42,-76.646 -5.115,-76.368 -4.69,-76.532C-4.276,-76.692 -4.55,-77.087 -4.593,-77.391C-4.72,-78.277 -4.926,-79.166 -4.646,-80.326M-3.39,-56.629C0.311,-56.56 3.635,-57.558 6.663,-59.562C9.254,-61.276 9.843,-64.317 8.311,-67.038C6.789,-69.74 4.196,-70.929 1.608,-72.126C0.317,-72.724 -0.718,-73.45 -1.014,-74.88C-1.183,-75.694 -1.554,-75.733 -2.269,-75.612C-3.181,-75.459 -4.127,-75.462 -5.057,-75.468C-5.774,-75.473 -6.354,-75.396 -6.605,-74.584C-6.993,-73.334 -8.023,-72.713 -9.097,-72.137C-10.556,-71.354 -12.014,-70.581 -13.342,-69.568C-15.991,-67.546 -16.235,-64.763 -15.759,-61.829C-15.314,-59.105 -13.325,-57.808 -10.827,-57.29C-8.361,-56.778 -5.886,-56.144 -3.39,-56.629M-6.67,-43.881C-9.314,-43.827 -11.931,-44.167 -14.404,-45.211C-15.38,-45.623 -15.931,-45.625 -15.932,-44.393C-15.936,-40.462 -16.133,-36.53 -15.611,-32.608C-15.395,-30.98 -14.544,-30.162 -13,-29.772C-11.289,-29.339 -9.546,-29.64 -7.83,-29.347C-3.267,-28.566 1.033,-29.326 5.011,-31.748C5.925,-32.304 7.118,-32.908 7.104,-33.978C7.046,-38.329 7.598,-42.683 7.209,-47.217C4.9,-46.067 2.689,-45.261 0.267,-45.245C1.278,-45.732 2.351,-46.031 3.386,-46.427C5.065,-47.07 6.808,-47.69 7.831,-49.299C8.197,-49.875 8.688,-50.709 8.143,-51.349C7.526,-52.073 6.94,-51.202 6.447,-50.933C3.943,-49.564 1.379,-49.192 -1.338,-50.119C1.592,-49.607 4.16,-50.647 6.67,-51.962C7.536,-52.417 8.151,-53.096 8.521,-53.984C8.686,-54.38 9.14,-54.837 8.63,-55.242C8.22,-55.567 7.916,-55.083 7.597,-54.905C6.514,-54.303 5.373,-53.931 4.015,-53.823C4.534,-54.456 5.183,-54.459 5.714,-54.713C7.163,-55.408 8.519,-56.242 9.359,-57.684C9.792,-58.425 9.967,-59.28 9.304,-59.901C8.412,-60.734 8.375,-59.358 7.84,-59.185C7.592,-59.105 7.372,-58.935 7.139,-58.806C-0.04,-54.856 -7.337,-54.328 -14.727,-58.158C-15.619,-58.622 -15.877,-58.35 -16.186,-57.626C-16.646,-56.549 -16.204,-55.681 -15.324,-55.249C-12.814,-54.018 -10.266,-52.828 -7.352,-52.953C-6.015,-53.01 -4.677,-53.047 -3.34,-53.093C-6.895,-52.143 -10.439,-51.675 -13.808,-53.572C-14.626,-54.033 -15.349,-54.047 -15.87,-53.218C-16.346,-52.461 -15.983,-51.767 -15.395,-51.265C-14.85,-50.799 -14.232,-50.375 -13.579,-50.087C-12.105,-49.435 -10.59,-48.879 -8.658,-48.113C-10.825,-48.056 -12.359,-48.775 -13.96,-49.162C-14.732,-49.349 -15.595,-50.187 -16.234,-49.035C-16.832,-47.961 -15.823,-47.502 -15.236,-46.934C-14.509,-46.228 -13.612,-45.802 -12.657,-45.46C-10.713,-44.761 -8.683,-44.441 -6.67,-43.881M1.151,-24.381L1.189,-24.339C1.75,-25.252 2.812,-25.101 3.623,-25.483C5.851,-26.53 8.249,-27.384 8.769,-30.271C8.899,-30.996 8.802,-31.668 8.065,-31.935C7.459,-32.155 6.88,-32.466 6.154,-31.757C5.071,-30.7 3.645,-30.09 2.203,-29.539C-3.37,-27.408 -8.942,-28.557 -14.521,-29.415C-15.217,-29.522 -15.73,-29.914 -16.108,-30.517C-16.32,-30.853 -16.197,-31.617 -16.934,-31.356C-17.493,-31.158 -17.647,-30.628 -17.666,-30.049C-17.717,-28.415 -16.632,-27.582 -15.468,-26.732C-13.617,-25.379 -11.438,-24.887 -9.268,-24.328C-11.421,-24.422 -13.551,-24.481 -15.389,-25.779C-15.904,-26.142 -16.632,-26.685 -17.197,-26.098C-17.836,-25.435 -17.551,-24.531 -17.023,-23.895C-16.049,-22.723 -14.997,-21.639 -13.508,-21.034C-12.161,-20.486 -10.738,-20.31 -9.358,-19.914C-11.591,-19.595 -13.653,-20.177 -15.544,-21.265C-16.863,-22.023 -17.163,-21.576 -17.159,-20.298C-17.154,-18.449 -15.93,-16.756 -13.897,-15.925C-13.07,-15.588 -12.217,-15.317 -11.15,-14.934C-11.9,-14.63 -12.344,-14.968 -12.775,-14.94C-14.212,-14.843 -15.43,-17.055 -16.533,-15.921C-17.387,-15.044 -17.216,-13.159 -17.476,-11.718C-18.072,-8.415 -16.167,-5.007 -12.703,-3.348C-13.368,-4.905 -14.06,-6.335 -14.33,-7.898C-14.417,-8.401 -15.055,-9.228 -14.05,-9.322C-13.196,-9.401 -13.664,-8.521 -13.622,-8.082C-13.145,-3.126 -8.656,0.554 -3.735,-0.13C0.045,-0.655 1.817,-3.5 3.209,-6.615C3.89,-8.139 4.339,-9.764 4.894,-11.343C5.02,-11.304 5.144,-11.265 5.27,-11.225C4.675,-9.105 4.081,-6.984 3.464,-4.784C8.059,-6.896 10.286,-12.987 6.862,-18.453C6.022,-17.929 5.217,-17.175 4.087,-17.408C5.659,-18.23 6.743,-19.449 7.491,-20.99C7.731,-21.486 7.925,-21.993 7.438,-22.457C6.989,-22.883 6.593,-22.515 6.16,-22.374C4.838,-21.941 3.85,-20.676 2.009,-20.727C4.141,-22.088 6.216,-23.034 7.771,-24.689C8.154,-25.096 8.59,-25.72 8.158,-26.31C7.61,-27.059 7.064,-26.344 6.604,-26.098C4.889,-25.179 3.11,-24.505 1.151,-24.381M1.294,-82.078C1.357,-80.059 1.782,-78.077 0.085,-76.279C-0.937,-75.196 0.079,-74.033 1.211,-73.387C2.596,-72.597 4.064,-71.955 5.44,-71.151C9.231,-68.936 10.468,-66.263 9.749,-62.004C9.716,-61.808 9.521,-61.543 9.59,-61.442C11.646,-58.48 9.299,-55.83 9.028,-53.036C8.449,-47.063 7.326,-41.126 7.889,-35.074C7.972,-34.174 8.08,-33.437 8.799,-32.781C9.835,-31.836 10.034,-30.537 9.579,-29.28C9.258,-28.389 9.465,-27.35 9.207,-26.701C8.391,-24.637 9.104,-22.331 8.009,-20.417C7.407,-19.368 7.979,-18.611 8.344,-17.805C9.866,-14.441 10.052,-11.149 8.084,-7.873C7.522,-6.941 6.836,-6.151 6.012,-5.472C4.143,-3.93 2.031,-2.731 0.208,-1.092C-2.396,1.25 -5.523,1.771 -8.637,0.006C-10.527,-1.066 -12.56,-1.862 -14.304,-3.269C-17.798,-6.085 -19.078,-9.523 -17.975,-13.855C-17.493,-15.742 -17.825,-17.663 -17.722,-19.516C-17.573,-22.161 -19.206,-24.783 -17.787,-27.408C-17.676,-27.615 -18.097,-28.089 -18.229,-28.454C-18.77,-29.924 -18.883,-31.341 -17.358,-32.31C-16.75,-32.696 -16.596,-33.118 -16.679,-33.788C-17.136,-37.445 -16.756,-41.114 -16.789,-44.776C-16.799,-45.825 -17.314,-47.095 -17.126,-47.83C-16.59,-49.92 -17.228,-51.966 -16.855,-53.993C-16.845,-54.05 -16.729,-54.116 -16.74,-54.147C-17.622,-56.381 -16.15,-58.623 -16.469,-60.633C-17.339,-66.14 -15.908,-69.541 -10.865,-72.057C-9.604,-72.686 -8.052,-73.016 -7.46,-74.597C-7.272,-75.095 -6.924,-75.585 -7.406,-76.07C-9.577,-78.249 -9.229,-81.183 -9.746,-83.853C-9.905,-84.671 -9.362,-85.068 -8.68,-85.302C-5.592,-86.359 -2.499,-85.702 0.593,-85.318C1.253,-85.236 1.207,-84.741 1.22,-84.27C1.24,-83.539 1.269,-82.809 1.294,-82.078" style="fill:rgb(35,31,32);"/>
            </g>
            <g transform="matrix(61.3606,0,0,-61.3606,485.715,1751.74)">
                <path d="M0.718,1.103C0.645,1.031 0.548,0.989 0.45,0.952C0.072,0.807 -0.307,0.885 -0.686,0.944C-0.733,0.951 -0.768,0.977 -0.793,1.018C-0.808,1.041 -0.799,1.093 -0.849,1.075C-0.887,1.062 -0.898,1.026 -0.899,0.987C-0.903,0.876 -0.829,0.819 -0.75,0.761C-0.624,0.67 -0.476,0.636 -0.329,0.598C-0.475,0.605 -0.62,0.609 -0.744,0.697C-0.78,0.721 -0.829,0.758 -0.867,0.718C-0.911,0.673 -0.891,0.612 -0.856,0.569C-0.789,0.489 -0.718,0.416 -0.617,0.374C-0.525,0.337 -0.429,0.325 -0.335,0.298C-0.487,0.277 -0.627,0.316 -0.755,0.39C-0.845,0.442 -0.865,0.411 -0.865,0.325C-0.864,0.199 -0.781,0.084 -0.643,0.028C-0.587,0.005 -0.529,-0.014 -0.457,-0.04C-0.489,-0.053 -0.513,-0.048 -0.534,-0.044C-0.546,-0.041 -0.556,-0.039 -0.567,-0.039C-0.607,-0.042 -0.644,-0.019 -0.68,0.005C-0.731,0.039 -0.778,0.073 -0.822,0.027C-0.88,-0.032 -0.869,-0.16 -0.886,-0.258C-0.927,-0.482 -0.797,-0.714 -0.562,-0.826C-0.607,-0.721 -0.654,-0.624 -0.673,-0.518C-0.678,-0.483 -0.722,-0.427 -0.654,-0.421C-0.596,-0.415 -0.627,-0.475 -0.625,-0.505C-0.592,-0.842 -0.287,-1.091 0.047,-1.045C0.304,-1.009 0.424,-0.816 0.518,-0.605C0.565,-0.501 0.595,-0.391 0.633,-0.284C0.641,-0.286 0.65,-0.289 0.658,-0.292C0.618,-0.436 0.578,-0.58 0.536,-0.729C0.848,-0.586 0.999,-0.172 0.766,0.199C0.709,0.164 0.655,0.112 0.578,0.128C0.685,0.184 0.758,0.267 0.809,0.372C0.825,0.405 0.839,0.44 0.806,0.471C0.775,0.5 0.748,0.475 0.719,0.466C0.629,0.436 0.562,0.35 0.437,0.354C0.582,0.446 0.723,0.51 0.828,0.623C0.854,0.65 0.884,0.693 0.854,0.733C0.817,0.784 0.78,0.735 0.749,0.718C0.634,0.657 0.514,0.611 0.383,0.602C0.383,0.601 0.382,0.6 0.381,0.599C0.38,0.599 0.378,0.599 0.377,0.599C0.351,0.559 0.308,0.556 0.256,0.545C0.29,0.596 0.332,0.603 0.377,0.599C0.378,0.6 0.378,0.601 0.379,0.602C0.38,0.602 0.382,0.602 0.383,0.602C0.422,0.661 0.492,0.651 0.546,0.677C0.698,0.748 0.861,0.806 0.896,1.002C0.905,1.051 0.898,1.097 0.848,1.115C0.826,1.123 0.805,1.132 0.782,1.132C0.762,1.132 0.741,1.125 0.718,1.103Z" style="fill:url(#_Radial1);fill-rule:nonzero;"/>
            </g>
            <g transform="matrix(59.8843,0,0,-59.8843,490.249,1632.55)">
                <path d="M0.778,1.048C0.76,1.042 0.745,1.031 0.729,1.022C0.229,0.747 -0.278,0.71 -0.792,0.977C-0.855,1.009 -0.872,0.99 -0.894,0.939C-0.926,0.865 -0.895,0.804 -0.834,0.774C-0.659,0.689 -0.482,0.606 -0.279,0.614C-0.186,0.618 -0.093,0.621 -0,0.624C-0.248,0.558 -0.494,0.525 -0.729,0.657C-0.786,0.689 -0.836,0.691 -0.872,0.633C-0.905,0.58 -0.88,0.532 -0.839,0.497C-0.801,0.465 -0.758,0.435 -0.713,0.415C-0.61,0.37 -0.505,0.331 -0.37,0.278C-0.521,0.274 -0.628,0.324 -0.739,0.351C-0.793,0.364 -0.853,0.422 -0.897,0.342C-0.939,0.267 -0.869,0.235 -0.828,0.196C-0.777,0.147 -0.715,0.117 -0.649,0.093C-0.513,0.044 -0.372,0.022 -0.232,-0.017C-0.416,-0.021 -0.598,0.003 -0.77,0.076C-0.838,0.104 -0.876,0.104 -0.876,0.019C-0.877,-0.255 -0.89,-0.528 -0.854,-0.801C-0.839,-0.914 -0.78,-0.971 -0.672,-0.998C-0.553,-1.029 -0.432,-1.008 -0.313,-1.028C0.005,-1.082 0.304,-1.03 0.581,-0.861C0.644,-0.822 0.727,-0.78 0.726,-0.706C0.722,-0.403 0.761,-0.1 0.734,0.215C0.573,0.135 0.419,0.079 0.251,0.078C0.321,0.112 0.396,0.133 0.468,0.16C0.585,0.205 0.706,0.248 0.777,0.36C0.803,0.4 0.837,0.458 0.799,0.503C0.756,0.553 0.715,0.493 0.681,0.474C0.507,0.379 0.328,0.353 0.139,0.417C0.343,0.382 0.522,0.454 0.696,0.545C0.757,0.577 0.799,0.624 0.825,0.686C0.836,0.714 0.868,0.745 0.833,0.774C0.804,0.796 0.783,0.763 0.761,0.75C0.685,0.708 0.606,0.682 0.511,0.675C0.548,0.719 0.593,0.719 0.63,0.737C0.731,0.785 0.825,0.843 0.883,0.944C0.914,0.995 0.926,1.055 0.879,1.098C0.865,1.111 0.854,1.116 0.845,1.116C0.814,1.116 0.806,1.057 0.778,1.048Z" style="fill:url(#_Radial2);fill-rule:nonzero;"/>
            </g>
            <g transform="matrix(46.5613,0,0,-46.5613,489.969,1542.44)">
                <path d="M0.102,0.883C0.02,0.869 -0.065,0.869 -0.148,0.87C-0.212,0.87 -0.264,0.863 -0.286,0.791C-0.321,0.679 -0.413,0.623 -0.509,0.572C-0.64,0.502 -0.77,0.432 -0.889,0.342C-1.126,0.161 -1.148,-0.088 -1.106,-0.351C-1.066,-0.595 -0.888,-0.711 -0.664,-0.757C-0.444,-0.803 -0.222,-0.859 0.001,-0.816C0.332,-0.822 0.63,-0.733 0.901,-0.554C1.133,-0.4 1.185,-0.128 1.048,0.115C0.912,0.357 0.68,0.464 0.449,0.571C0.333,0.624 0.24,0.689 0.214,0.817C0.203,0.871 0.181,0.887 0.145,0.887C0.132,0.887 0.118,0.885 0.102,0.883ZM-0.78,-0.259C-0.846,-0.196 -0.912,-0.134 -0.881,-0.031C-0.841,0.106 -0.763,0.211 -0.638,0.286C-0.562,0.331 -0.491,0.386 -0.426,0.446C-0.391,0.478 -0.397,0.572 -0.33,0.551C-0.262,0.53 -0.232,0.454 -0.223,0.338C-0.374,0.167 -0.446,-0.088 -0.618,-0.28C-0.633,-0.297 -0.654,-0.305 -0.677,-0.305C-0.711,-0.305 -0.75,-0.288 -0.78,-0.259Z" style="fill:url(#_Radial3);fill-rule:nonzero;"/>
            </g>
            <g transform="matrix(4.16667,0,0,4.16667,484.796,1487.53)">
                <path d="M0,-1.398C-0.28,-0.238 -0.074,0.651 0.053,1.537C0.096,1.841 0.369,2.236 -0.045,2.395C-0.47,2.56 -0.774,2.282 -0.937,1.846C-1.391,0.612 -1.357,-0.711 -1.715,-1.99C-2.363,-1.117 -1.872,-0.225 -1.762,0.666C-1.71,1.081 -1.383,1.678 -1.94,1.891C-2.565,2.129 -2.945,1.577 -3.095,1.065C-3.409,-0.013 -3.646,-1.117 -3.874,-2.219C-4.028,-2.973 -3.716,-3.293 -2.905,-3.256C-0.499,-3.147 1.851,-3.669 4.219,-3.979C4.611,-4.03 4.949,-4.216 5.251,-3.763C6.318,-2.168 4.903,1.731 3.053,2.248C1.014,2.818 0.637,2.538 0.472,0.379C0.433,-0.122 0.763,-0.68 0,-1.398" style="fill:rgb(0,189,242);"/>
            </g>
            <g transform="matrix(4.16667,0,0,4.16667,504.153,1469.82)">
                <path d="M0,-1.409C-0.979,-0.134 -2.279,-0.301 -3.367,-0.097C-4.666,0.147 -6.007,0.208 -7.333,0.246C-7.834,0.259 -8.689,0.691 -8.79,-0.229C-8.879,-1.05 -8.295,-1.595 -7.468,-1.712C-5.046,-2.055 -2.633,-2.1 0,-1.409" style="fill:rgb(153,219,249);"/>
            </g>
            <g transform="matrix(4.16667,0,0,4.16667,508.95,1718.2)">
                <path d="M0,-0.813C-0.385,-0.191 -1.028,-0.136 -1.812,0.026C-1.287,-0.751 -0.657,-0.839 0.037,-0.771C0.038,-0.771 0,-0.813 0,-0.813" style="fill:rgb(35,31,32);"/>
            </g>
            <g transform="matrix(4.16667,0,0,4.16667,474.884,1549.67)">
                <path d="M0,-6.266C-0.989,-5.683 -1.929,-5.102 -2.894,-4.567C-4.048,-3.925 -4.789,-2.973 -5.334,-1.778C-5.866,-0.614 -5.444,0.288 -4.506,0.741C-3.313,1.317 -2.77,0.225 -2.562,-0.645C-2.194,-2.182 -1.54,-3.475 -0.424,-4.594C-0.038,-4.979 0.247,-5.568 0,-6.266M1.126,-5.515C-0.563,-3.598 -1.367,-0.755 -3.286,1.397C-3.701,1.863 -4.526,1.702 -5.095,1.159C-5.83,0.455 -6.568,-0.233 -6.226,-1.393C-5.776,-2.916 -4.903,-4.096 -3.512,-4.927C-2.664,-5.432 -1.868,-6.051 -1.14,-6.717C-0.746,-7.077 -0.816,-8.129 -0.072,-7.895C0.695,-7.654 1.027,-6.807 1.126,-5.515" style="fill:rgb(35,31,32);"/>
            </g>
            <g transform="matrix(4.16667,0,0,4.16667,474.884,1555.16)">
                <path d="M0,-7.583C0.247,-6.885 -0.038,-6.296 -0.424,-5.911C-1.54,-4.792 -2.194,-3.499 -2.562,-1.962C-2.77,-1.092 -3.313,0 -4.506,-0.576C-5.444,-1.029 -5.866,-1.931 -5.334,-3.095C-4.789,-4.29 -4.048,-5.242 -2.894,-5.884C-1.929,-6.419 -0.989,-7 0,-7.583" style="fill:white;"/>
            </g>
        </g>
    </g>
    <defs>
        <radialGradient id="_Radial1" cx="0" cy="0" r="1" gradientUnits="userSpaceOnUse" gradientTransform="matrix(1,0,0,-1,0,0.0409549)"><stop offset="0" style="stop-color:white;stop-opacity:1"/><stop offset="0.91" style="stop-color:rgb(181,221,240);stop-opacity:1"/><stop offset="1" style="stop-color:rgb(137,202,230);stop-opacity:1"/></radialGradient>
        <radialGradient id="_Radial2" cx="0" cy="0" r="1" gradientUnits="userSpaceOnUse" gradientTransform="matrix(1,0,0,-1,0,0.0338285)"><stop offset="0" style="stop-color:white;stop-opacity:1"/><stop offset="0.91" style="stop-color:rgb(181,221,240);stop-opacity:1"/><stop offset="1" style="stop-color:rgb(137,202,230);stop-opacity:1"/></radialGradient>
        <radialGradient id="_Radial3" cx="0" cy="0" r="1" gradientUnits="userSpaceOnUse" gradientTransform="matrix(1,0,0,-1,0,0.027755)"><stop offset="0" style="stop-color:white;stop-opacity:1"/><stop offset="0.91" style="stop-color:rgb(181,221,240);stop-opacity:1"/><stop offset="1" style="stop-color:rgb(137,202,230);stop-opacity:1"/></radialGradient>
    </defs>
</svg>
