<?xml version="1.0" encoding="UTF-8" standalone="no"?>
<!DOCTYPE svg PUBLIC "-//W3C//DTD SVG 1.1//EN" "http://www.w3.org/Graphics/SVG/1.1/DTD/svg11.dtd">
<svg width="100%" height="100%" viewBox="0 0 78 217" version="1.1" xmlns="http://www.w3.org/2000/svg" xmlns:xlink="http://www.w3.org/1999/xlink" xml:space="preserve" xmlns:serif="http://www.serif.com/" style="fill-rule:evenodd;clip-rule:evenodd;stroke-linejoin:round;stroke-miterlimit:2;">
    <g transform="matrix(1,0,0,1,-1096,-1604)">
        <g id="b2">
            <g transform="matrix(4.16667,0,0,4.16667,1165.05,1675.17)">
                <path d="M0,18.261C-2.348,19.523 -6.554,20.567 -10.113,20.052C-11.821,19.805 -13.344,19.153 -14.644,18.893C-14.513,19.816 -15.574,20.055 -15.592,21C-15.629,22.971 -12.844,23.042 -11.483,23.844C-12.556,23.959 -13.781,23.341 -14.96,23.212C-16.533,26.675 -11.94,27.155 -8.85,27.216C-10.443,27.809 -12.743,27.338 -14.538,26.794C-16.11,27.837 -15.061,30.661 -14.116,32.062C-13.752,32.604 -12.611,33.749 -12.01,33.853C-11.238,33.987 -10.496,33.157 -9.798,33.22C-9.282,33.267 -8.951,34.072 -8.533,34.274C-5.722,35.64 -3.648,32.583 -3.266,30.06C-3.123,30.637 -3.378,32.042 -3.793,32.694C-3.245,34.337 -2.148,33.632 -1.264,32.589C-0.754,31.988 -0.173,31.515 0.105,31.114C1.367,29.294 1.454,26.677 0.738,25.425C-0.243,26.024 -1.452,26.956 -2.95,26.689C-1.339,25.947 0.852,25.784 0.843,23.423C0.413,23.08 0.572,22.149 0.211,21.738C-0.391,21.943 -0.929,23.097 -1.58,22.58C-0.495,21.803 1.471,19.836 0,18.261M-15.171,15.205C-15.172,15.763 -15.125,17.242 -14.96,17.628C-14.476,18.759 -12.298,18.895 -11.272,19.104C-10.575,19.245 -9.912,19.586 -9.271,19.63C-6.013,19.854 -1.52,19.106 0.316,17.418C0.287,12.736 0.274,10.681 0.211,6.461C-3.023,8.387 -9.723,8.845 -13.59,7.514C-14.267,7.282 -14.59,6.554 -15.276,6.567C-14.991,8.77 -15.164,12.617 -15.171,15.205M-14.012,-6.497C-15.255,-5.472 -16.491,-2.394 -14.854,-0.913C-13.664,0.163 -11.03,-0.08 -9.903,0.245C-11.729,0.635 -13.747,0.323 -15.381,-0.597C-17.562,1.494 -14.219,3.277 -11.378,3.09C-10.492,3.032 -9.726,2.441 -9.06,2.774C-10.652,3.701 -13.434,3.636 -15.171,2.879C-16.51,4.252 -15.193,6.221 -13.906,6.883C-12.174,7.773 -8.557,7.9 -5.794,7.725C-3.462,7.578 -1.615,6.943 -0.421,6.356C0.558,5.684 1.511,3.321 0.211,2.247C0.098,2.422 -0.519,2.632 -0.632,2.458C0.397,1.857 1.583,0.457 0.843,-1.229C0.057,-0.903 -0.918,-0.63 -1.58,-0.703C-1.178,-1.108 -0.554,-1.292 0.211,-1.335C1.067,-2.386 1.863,-3.534 1.687,-4.812C1.243,-7.995 -3.402,-7.259 -4.214,-9.657C-5.71,-9.257 -7.743,-9.278 -9.165,-9.763C-9.484,-8.31 -12.497,-7.746 -14.012,-6.497M-10.535,-14.926C-10.135,-13.663 -10.733,-12.402 -10.43,-11.448C-9.898,-9.781 -4.722,-8.985 -3.266,-10.711C-2.02,-12.188 -3.097,-13.409 -2.844,-15.347C-4.509,-14.091 -8.354,-14.21 -10.535,-14.926M-10.324,-15.347C-7.999,-14.661 -4.431,-14.29 -2.95,-15.979C-4.701,-17.156 -9.142,-16.917 -10.324,-15.347M-3.687,-9.763C-2.905,-8.003 0.072,-8.246 1.37,-6.708C2.292,-5.614 2.373,-2.924 1.159,-1.862C1.836,-0.779 1.716,1.118 0.738,1.826C0.775,2.35 1.258,2.43 1.37,2.879C1.526,4.3 1.137,5.175 0.633,5.934C0.849,9.397 0.572,14.107 0.948,17.313C0.721,17.436 0.963,18.029 0.633,18.05C1.17,18.878 1.166,20.379 0.527,21.105C0.944,22.321 1.879,23.584 1.054,24.898C2.583,27.146 1.206,30.499 -0.211,32.167C-1.521,33.712 -2.69,35.263 -4.108,33.537C-5.024,35.201 -8.632,35.512 -9.798,33.853C-10.698,34.133 -11.615,34.568 -12.537,34.274C-14.349,33.696 -17.231,28.191 -15.065,26.478C-15.785,25.532 -16.215,23.971 -15.381,22.791C-15.646,21.929 -16.176,21.615 -16.119,20.789C-16.04,19.651 -14.155,18.761 -15.486,17.523C-15.718,14.187 -15.578,10.203 -15.486,7.199C-15.457,6.234 -16.477,4.826 -16.224,3.722C-16.135,3.335 -15.692,3.022 -15.486,2.669C-16.047,1.903 -16.672,1.844 -16.54,0.667C-16.454,-0.103 -15.644,-0.588 -15.592,-0.913C-15.523,-1.341 -16.085,-1.993 -16.119,-2.283C-16.254,-3.461 -15.678,-5.217 -14.854,-6.181C-13.396,-7.888 -11.042,-8.016 -9.481,-9.868C-11.704,-10.705 -10.322,-14.211 -11.062,-15.768C-8.961,-17.043 -5.856,-17.379 -3.055,-16.716C-2.713,-16.356 -2.469,-15.898 -2.212,-15.452C-2.539,-13.524 -1.896,-10.479 -3.687,-9.763" style="fill:rgb(35,31,32);"/>
            </g>
            <g transform="matrix(4.16667,0,0,4.16667,1152.76,1610.72)">
                <path d="M0,-0.511C-1.48,1.177 -5.049,0.806 -7.374,0.121C-6.191,-1.449 -1.751,-1.688 0,-0.511" style="fill:rgb(182,229,250);"/>
            </g>
            <g transform="matrix(-16.4736,28.4203,28.4203,16.4736,1145.8,1608.69)">
                <path d="M0.489,-0.584C0.602,-0.459 0.779,-0.445 0.864,-0.351C1.013,-0.186 0.771,0.432 0.489,0.482C0.248,0.525 0.182,0.329 -0.046,0.234C0.197,0.131 0.429,-0.299 0.489,-0.584Z" style="fill:url(#_Linear1);fill-rule:nonzero;"/>
            </g>
            <g transform="matrix(36.8231,0,0,-36.8231,1135.11,1671.51)">
                <path d="M-0.772,0.636C-0.913,0.52 -1.053,0.171 -0.868,0.004C-0.733,-0.118 -0.435,-0.09 -0.308,-0.127C-0.514,-0.171 -0.743,-0.136 -0.927,-0.032C-1.174,-0.268 -0.796,-0.47 -0.474,-0.449C-0.374,-0.442 -0.287,-0.376 -0.212,-0.413C-0.392,-0.518 -0.707,-0.511 -0.904,-0.425C-1.055,-0.58 -0.906,-0.803 -0.76,-0.878C-0.564,-0.979 -0.155,-0.993 0.157,-0.974C0.421,-0.957 0.63,-0.885 0.765,-0.819C0.876,-0.743 0.984,-0.475 0.837,-0.354C0.824,-0.373 0.754,-0.397 0.742,-0.377C0.858,-0.309 0.992,-0.151 0.908,0.04C0.82,0.003 0.709,-0.028 0.634,-0.02C0.68,0.026 0.75,0.047 0.837,0.052C0.934,0.171 1.024,0.301 1.004,0.445C0.954,0.805 0.428,0.722 0.336,0.993C0.167,0.948 -0.063,0.951 -0.224,1.005C-0.26,0.841 -0.601,0.777 -0.772,0.636ZM-0.45,0.219C-0.561,0.227 -0.852,0.266 -0.868,0.35C-0.896,0.501 -0.42,0.531 -0.296,0.54C0.13,0.571 0.521,0.552 0.908,0.457C0.881,0.337 0.692,0.298 0.503,0.266C0.298,0.232 -0.027,0.213 -0.262,0.213C-0.336,0.213 -0.401,0.215 -0.45,0.219Z" style="fill:url(#_Radial2);fill-rule:nonzero;"/>
            </g>
            <g transform="matrix(4.16667,0,0,4.16667,1115.45,1659.82)">
                <path d="M0,-1.234C-0.845,-1.098 -1.975,-1.179 -2.424,-0.391C-0.912,0.429 1.501,0.57 4.108,0.452C7.131,0.314 10.398,0.106 12.115,-1.129C8.203,-1.857 3.985,-1.876 0,-1.234M12.747,-1.234C12.5,-0.173 10.833,0.171 9.166,0.452C6.78,0.853 2.583,1.011 0.737,0.873C-0.239,0.8 -2.809,0.456 -2.95,-0.286C-3.204,-1.621 1.007,-1.892 2.106,-1.971C5.87,-2.245 9.321,-2.075 12.747,-1.234" style="fill:rgb(35,31,32);"/>
            </g>
            <g transform="matrix(21.6581,0,0,-21.6581,1135.64,1657.65)">
                <path d="M-0.932,0.137C-1.095,0.111 -1.312,0.126 -1.399,-0.025C-1.108,-0.183 -0.643,-0.21 -0.142,-0.187C0.439,-0.161 1.068,-0.121 1.398,0.117C1.005,0.19 0.595,0.226 0.185,0.226C-0.19,0.226 -0.567,0.196 -0.932,0.137Z" style="fill:url(#_Radial3);fill-rule:nonzero;"/>
            </g>
            <g transform="matrix(64.9677,0,0,-64.9677,1101.4,1730.38)">
                <path d="M0.108,0.368C0.065,0.383 0.044,0.429 -0,0.429C0.018,0.287 0.007,0.041 0.007,-0.125C0.007,-0.161 0.01,-0.256 0.02,-0.281C0.051,-0.353 0.191,-0.362 0.257,-0.375C0.301,-0.384 0.344,-0.406 0.385,-0.409C0.594,-0.424 0.882,-0.376 1,-0.267C0.998,0.033 0.997,0.165 0.993,0.435C0.786,0.312 0.356,0.283 0.108,0.368Z" style="fill:url(#_Linear4);fill-rule:nonzero;"/>
            </g>
            <g transform="matrix(34.5144,0,0,-34.5144,1135.05,1789.6)">
                <path d="M-0.351,0.895C-0.558,0.925 -0.741,1.004 -0.898,1.035C-0.883,0.923 -1.011,0.895 -1.013,0.781C-1.017,0.543 -0.681,0.534 -0.517,0.437C-0.646,0.423 -0.794,0.498 -0.936,0.514C-1.126,0.095 -0.572,0.038 -0.199,0.03C-0.391,-0.042 -0.669,0.015 -0.886,0.081C-1.075,-0.045 -0.949,-0.386 -0.835,-0.555C-0.791,-0.62 -0.653,-0.759 -0.58,-0.771C-0.532,-0.78 -0.485,-0.757 -0.438,-0.734C-0.396,-0.712 -0.354,-0.691 -0.313,-0.695C-0.251,-0.7 -0.211,-0.798 -0.161,-0.822C0.179,-0.987 0.429,-0.618 0.475,-0.313C0.492,-0.383 0.462,-0.552 0.412,-0.631C0.478,-0.829 0.61,-0.744 0.717,-0.619C0.778,-0.546 0.849,-0.489 0.882,-0.441C1.035,-0.221 1.045,0.095 0.959,0.246C0.84,0.174 0.694,0.061 0.513,0.094C0.708,0.183 0.972,0.203 0.971,0.488C0.919,0.529 0.938,0.642 0.895,0.691C0.822,0.667 0.757,0.527 0.679,0.59C0.81,0.683 1.047,0.921 0.869,1.111C0.586,0.959 0.078,0.833 -0.351,0.895Z" style="fill:url(#_Radial5);fill-rule:nonzero;"/>
            </g>
            <g transform="matrix(4.16667,0,0,4.16667,0,0)">
                <g opacity="0.59">
                    <g transform="matrix(1,0,0,1,270.71,401.531)">
                        <path d="M0,-8.396C-0.44,-7.112 -1.998,-6.514 -3.053,-5.802C-3.862,-5.256 -4.18,-4.775 -4.587,-3.936C-4.976,-3.133 -5.523,-2.5 -5.254,-1.566C-4.962,-0.555 -4.083,-0.347 -3.091,-0.35C-2.287,-0.352 -1.15,0 -1.14,-1.048C-1.127,-2.206 -2.625,-2.842 -2.171,-4.119C-1.74,-5.328 -0.433,-5.515 0.188,-6.439C0.46,-6.842 0.682,-7.969 0.304,-8.32" style="fill:white;"/>
                    </g>
                </g>
            </g>
            <g transform="matrix(0,-4.16667,-4.16667,0,1114.76,1653.51)">
                <path d="M-0.905,-0.904C-1.724,-0.904 -2.387,-0.499 -2.387,-0.001C-2.387,0.499 -1.724,0.905 -0.905,0.905C-0.085,0.905 0.578,0.499 0.578,-0.001C0.578,-0.499 -0.085,-0.904 -0.905,-0.904" style="fill:white;"/>
            </g>
            <g transform="matrix(4.16667,0,0,4.16667,0,0)">
                <g opacity="0.59">
                    <g transform="matrix(-0.646247,0.763128,0.763128,0.646247,269.773,423.104)">
                        <path d="M1.748,-4.157C2.903,-4.273 4.032,-3.785 3.565,-2.519C3.266,-1.709 2.621,-0.009 1.748,0.403C0.371,1.054 -0.22,-0.337 0.209,-1.401C0.63,-2.443 1.564,-3.274 1.845,-4.272" style="fill:white;"/>
                    </g>
                </g>
            </g>
            <g transform="matrix(4.16667,0,0,4.16667,0,0)">
                <g opacity="0.59">
                    <g transform="matrix(1,0,0,1,268.963,427.812)">
                        <path d="M0,-1.126C-1.146,-1.78 -2.783,-1.944 -4.087,-1.874C-4.112,-1.382 -4.254,-0.55 -3.953,-0.135C-3.559,0.41 -2.396,0.571 -1.797,0.622C-1.346,0.66 0.014,0.818 0.328,0.511C0.773,0.076 0.327,-0.742 0,-0.974" style="fill:white;"/>
                    </g>
                </g>
            </g>
            <g transform="matrix(4.16667,0,0,4.16667,0,0)">
                <g opacity="0.59">
                    <g transform="matrix(1,0,0,1,267.217,437.087)">
                        <path d="M0,-7.213C-1.183,-7.149 -2.226,-7.964 -2.353,-6.212C-2.453,-4.83 -1.653,-3.343 -0.74,-2.375C0.555,-1.001 1.048,-3.012 2.412,-2.892C3.388,-2.805 4.95,0.751 6.167,-1.528C5.816,-1.839 5.299,-1.94 4.915,-2.259C4.406,-2.682 4.141,-3.23 3.755,-3.763C3.375,-4.288 3.307,-4.465 2.658,-4.315C1.972,-4.156 1.679,-3.192 1.061,-3.067C-0.528,-2.747 -0.644,-6.177 -0.379,-7.061" style="fill:white;"/>
                    </g>
                </g>
            </g>
        </g>
    </g>
    <defs>
        <linearGradient id="_Linear1" x1="0" y1="0" x2="1" y2="0" gradientUnits="userSpaceOnUse" gradientTransform="matrix(-0.501487,0.865165,0.865165,0.501487,0.750192,-0.432265)"><stop offset="0" style="stop-color:rgb(0,174,239);stop-opacity:1"/><stop offset="1" style="stop-color:rgb(3,98,175);stop-opacity:1"/></linearGradient>
        <radialGradient id="_Radial2" cx="0" cy="0" r="1" gradientUnits="userSpaceOnUse" gradientTransform="matrix(1,0,0,-1,0,0.0120598)"><stop offset="0" style="stop-color:white;stop-opacity:1"/><stop offset="0.84" style="stop-color:rgb(195,206,214);stop-opacity:1"/><stop offset="1" style="stop-color:rgb(146,162,175);stop-opacity:1"/></radialGradient>
        <radialGradient id="_Radial3" cx="0" cy="0" r="1" gradientUnits="userSpaceOnUse" gradientTransform="matrix(1,0,0,-1,0,0.0157438)"><stop offset="0" style="stop-color:white;stop-opacity:1"/><stop offset="1" style="stop-color:rgb(146,162,175);stop-opacity:1"/></radialGradient>
        <linearGradient id="_Linear4" x1="0" y1="0" x2="1" y2="0" gradientUnits="userSpaceOnUse" gradientTransform="matrix(1,0,0,-1,0,0.0118713)"><stop offset="0" style="stop-color:rgb(0,174,239);stop-opacity:1"/><stop offset="1" style="stop-color:rgb(3,98,175);stop-opacity:1"/></linearGradient>
        <radialGradient id="_Radial5" cx="0" cy="0" r="1" gradientUnits="userSpaceOnUse" gradientTransform="matrix(1,0,0,-1,0,0.124222)"><stop offset="0" style="stop-color:white;stop-opacity:1"/><stop offset="0.84" style="stop-color:rgb(195,206,214);stop-opacity:1"/><stop offset="1" style="stop-color:rgb(146,162,175);stop-opacity:1"/></radialGradient>
    </defs>
</svg>
