<?xml version="1.0" encoding="UTF-8" standalone="no"?>
<!DOCTYPE svg PUBLIC "-//W3C//DTD SVG 1.1//EN" "http://www.w3.org/Graphics/SVG/1.1/DTD/svg11.dtd">
<svg width="100%" height="100%" viewBox="0 0 228 356" version="1.1" xmlns="http://www.w3.org/2000/svg" xmlns:xlink="http://www.w3.org/1999/xlink" xml:space="preserve" xmlns:serif="http://www.serif.com/" style="fill-rule:evenodd;clip-rule:evenodd;stroke-linejoin:round;stroke-miterlimit:2;">
    <g transform="matrix(1,0,0,1,-1808,-1466)">
        <g transform="matrix(4.16667,0,0,4.16667,0,0)">
            <g id="b3">
                <g>
                    <clipPath id="_clip1">
                        <rect x="433.939" y="352" width="55.923" height="84.992" clip-rule="nonzero"/>
                    </clipPath>
                    <g clip-path="url(#_clip1)">
                        <g transform="matrix(1,0,0,1,454.247,427.394)">
                            <path d="M0,-65.791C-1.716,-64.79 -3.414,-63.746 -4.46,-61.976C-3.776,-62.307 -3.128,-62.689 -2.588,-63.187C-1.69,-64.016 -0.859,-64.919 0,-65.791M16.939,-73.097C16.959,-73.253 16.978,-73.409 16.998,-73.566C15.582,-73.896 14.18,-74.392 12.747,-74.514C10.759,-74.682 8.745,-74.622 6.746,-74.557C5.579,-74.519 4.406,-74.34 3.263,-74.097C2.894,-74.019 2.612,-73.535 2.29,-73.237C2.569,-72.971 2.805,-72.559 3.134,-72.466C4.204,-72.161 5.297,-71.849 6.398,-71.763C9.527,-71.514 12.615,-71.979 15.681,-72.558C16.119,-72.64 16.521,-72.912 16.939,-73.097M-0.847,-68.557C-0.893,-68.554 -1.132,-68.56 -1.36,-68.514C-5.573,-67.659 -9.624,-66.325 -13.462,-64.379C-13.777,-64.219 -13.971,-63.82 -14.22,-63.532C-13.915,-63.282 -13.648,-62.921 -13.299,-62.803C-12.306,-62.469 -11.283,-62.219 -10.265,-61.966C-9.189,-61.699 -8.109,-61.443 -7.02,-61.241C-6.795,-61.2 -6.39,-61.351 -6.293,-61.533C-5.327,-63.355 -3.713,-64.516 -2.136,-65.725C-1.346,-66.332 -0.578,-66.971 0.174,-67.626C0.321,-67.754 0.444,-68.054 0.395,-68.221C0.35,-68.372 0.066,-68.482 -0.134,-68.547C-0.292,-68.599 -0.482,-68.557 -0.847,-68.557M1.701,-71.619C1.773,-70.789 1.851,-70.042 1.903,-69.294C2.017,-67.651 2.026,-67.62 3.632,-67.093C5.796,-66.384 8.043,-66.496 10.276,-66.43C12.6,-66.361 14.656,-67.191 16.679,-68.17C16.977,-68.314 17.404,-68.577 17.434,-68.825C17.558,-69.88 18.007,-70.956 17.536,-72.081C12.264,-70.706 7.086,-69.886 1.701,-71.619M4.28,-66.172C2.497,-66.395 2.508,-66.384 1.524,-65.518C-0.112,-64.08 -1.737,-62.63 -3.413,-61.24C-4.334,-60.478 -5.389,-59.945 -6.656,-60.073C-9.125,-60.323 -11.482,-61.071 -13.848,-61.756C-14.692,-62.001 -15.583,-62.56 -15.65,-63.481C-15.714,-64.4 -14.779,-64.822 -14.02,-65.139C-12.121,-65.934 -10.231,-66.779 -8.272,-67.401C-5.979,-68.132 -3.619,-68.647 -1.288,-69.256C-0.749,-69.396 -0.104,-69.371 0.17,-70.3C-0.409,-70.238 -0.862,-70.251 -1.281,-70.136C-5.253,-69.048 -9.226,-67.964 -13.182,-66.822C-14.706,-66.381 -16.213,-65.854 -17.68,-65.251C-19.522,-64.493 -19.622,-63.628 -18.13,-62.289C-18.086,-62.25 -18.044,-62.206 -17.996,-62.174C-15.419,-60.534 -12.915,-58.742 -9.771,-58.309C-9.479,-58.269 -9.177,-58.258 -8.899,-58.169C-6.76,-57.488 -4.758,-57.924 -3.035,-59.205C-1.247,-60.534 0.403,-62.061 2.047,-63.573C2.805,-64.271 3.406,-65.142 4.28,-66.172M-11.838,-4.954C-10.796,-1.059 -9.78,2.402 -7.317,5.23C-6.871,5.742 -6.244,6.244 -5.608,6.418C-3.458,7.011 -1.289,7.716 0.913,7.9C5.894,8.314 10.898,8.462 15.894,8.68C18.499,8.794 21.083,8.45 23.585,7.792C26.322,7.073 28.525,5.57 29.313,2.622C29.768,0.918 30.198,-0.795 30.553,-2.522C30.686,-3.178 30.574,-3.885 30.574,-4.509C28.143,-3.895 25.848,-3.103 23.487,-2.77C20.352,-2.327 17.167,-2.047 14.005,-2.054C9.958,-2.063 5.909,-2.426 1.861,-2.639C-2.612,-2.874 -7.018,-3.537 -11.838,-4.954M-12.949,-37.313C-13.212,-35.944 -13.566,-34.859 -13.604,-33.763C-13.765,-29.109 -13.85,-24.453 -13.925,-19.797C-13.947,-18.389 -13.861,-16.979 -13.803,-15.571C-13.69,-12.87 -13.577,-10.173 -12.637,-7.585C-12.309,-6.678 -11.826,-6.128 -10.878,-5.811C-6.542,-4.358 -2.038,-3.861 2.467,-3.409C5.156,-3.139 7.883,-3.22 10.569,-2.924C14.537,-2.486 18.456,-2.711 22.356,-3.404C25.012,-3.876 27.694,-4.291 30.141,-5.571C30.892,-5.963 31.317,-6.397 31.398,-7.289C31.83,-12.019 33.015,-16.672 32.606,-21.492C32.374,-24.237 32.595,-27.02 32.399,-29.77C32.259,-31.735 31.932,-33.716 31.166,-35.521C30.914,-35.54 30.791,-35.579 30.683,-35.553C26.139,-34.44 21.554,-33.797 16.864,-34.345C16.577,-34.378 16.28,-34.297 15.986,-34.291C11.745,-34.218 7.501,-33.963 3.27,-34.565C1.935,-34.756 0.571,-34.742 -0.77,-34.906C-2.75,-35.15 -4.736,-35.392 -6.692,-35.779C-8.701,-36.176 -10.675,-36.747 -12.949,-37.313M21.159,-35.066C24.759,-35.106 28.273,-35.786 31.754,-36.683C32.395,-36.848 32.587,-37.284 32.731,-37.798C33.2,-39.47 33.253,-41.17 33.032,-42.883C32.386,-47.885 30.431,-52.442 27.888,-56.696C26.332,-59.3 24.241,-61.596 22.295,-63.952C21.558,-64.843 20.546,-65.507 19.67,-66.284C18.544,-67.284 17.39,-67.167 16.084,-66.582C13.667,-65.498 11.126,-65.201 8.491,-65.632C6.058,-66.03 5.44,-65.774 3.742,-63.946C3.581,-63.773 3.444,-63.58 3.289,-63.402C1.455,-61.29 -0.788,-59.658 -3.108,-58.154C-4.44,-57.289 -5.988,-56.592 -7.617,-56.953C-8.783,-57.211 -9.4,-56.871 -9.901,-55.926C-10.15,-55.458 -10.509,-55.045 -10.719,-54.564C-12.188,-51.217 -13.582,-47.831 -14.179,-44.21C-14.395,-42.903 -14.226,-41.517 -14.113,-40.178C-14.026,-39.151 -13.315,-38.492 -12.387,-38.114C-11.843,-37.893 -11.277,-37.671 -10.702,-37.591C-7.5,-37.147 -4.448,-35.913 -1.17,-35.846C0.415,-35.815 1.996,-35.598 3.579,-35.47C5.982,-35.278 8.383,-34.968 10.789,-34.928C14.243,-34.87 17.702,-35.01 21.159,-35.066M-9.963,-57.413C-13.15,-58.042 -15.688,-59.384 -18.072,-61.048C-18.504,-61.35 -18.94,-61.661 -19.308,-62.033C-20.817,-63.561 -20.625,-64.908 -18.686,-65.767C-17.183,-66.433 -15.627,-67.01 -14.047,-67.462C-9.86,-68.66 -5.65,-69.777 -1.444,-70.909C-0.491,-71.167 0.276,-71.44 0.357,-72.691C0.412,-73.551 1.182,-74.121 2.016,-74.362C3.201,-74.703 4.4,-75.138 5.614,-75.208C9.075,-75.412 12.546,-75.589 15.994,-74.934C18.078,-74.538 18.536,-74.052 18.578,-71.876C18.597,-70.875 18.61,-69.872 18.586,-68.869C18.568,-68.202 18.82,-67.761 19.419,-67.456C21.734,-66.275 23.468,-64.47 24.957,-62.371C25.841,-61.125 26.978,-60.052 27.808,-58.776C30.923,-53.991 33.163,-48.829 34.038,-43.15C34.42,-40.666 34.141,-38.244 33.123,-35.886C32.777,-35.082 32.656,-34.007 32.869,-33.166C33.559,-30.437 33.43,-27.669 33.552,-24.909C33.624,-23.27 33.771,-21.628 33.746,-19.989C33.719,-18.344 33.603,-16.691 33.383,-15.062C32.736,-10.287 32.033,-5.52 31.309,-0.758C31.187,0.046 30.887,0.829 30.605,1.599C30.362,2.26 29.956,2.866 29.74,3.535C28.771,6.547 26.593,8.025 23.614,8.705C19.673,9.605 15.696,9.798 11.684,9.647C9.041,9.547 6.395,9.468 3.756,9.302C2.236,9.206 0.724,8.961 -0.791,8.777C-1.141,8.734 -1.486,8.618 -1.835,8.611C-5.555,8.548 -8.275,6.827 -9.892,3.524C-12.425,-1.649 -13.94,-7.164 -14.587,-12.859C-14.932,-15.887 -14.684,-18.984 -14.69,-22.049C-14.694,-23.994 -14.753,-25.944 -14.647,-27.886C-14.496,-30.639 -14.238,-33.388 -13.974,-36.134C-13.897,-36.937 -13.98,-37.647 -14.441,-38.316C-15.487,-39.832 -15.4,-41.482 -15.198,-43.233C-14.918,-45.658 -14.108,-47.923 -13.336,-50.19C-12.732,-51.962 -11.81,-53.626 -11.016,-55.332C-10.723,-55.961 -10.391,-56.572 -9.963,-57.413" style="fill:rgb(35,31,32);fill-rule:nonzero;"/>
                        </g>
                        <g transform="matrix(20.2547,0,0,-20.2547,463.684,376.467)">
                            <path d="M0.328,0.773C0.209,0.719 0.083,0.705 -0.047,0.726C-0.167,0.746 -0.197,0.733 -0.281,0.643C-0.289,0.634 -0.296,0.625 -0.303,0.616C-0.394,0.512 -0.505,0.431 -0.619,0.357C-0.685,0.314 -0.762,0.28 -0.842,0.298C-0.9,0.31 -0.93,0.293 -0.955,0.247C-0.967,0.224 -0.985,0.203 -0.995,0.18C-1.068,0.014 -1.136,-0.153 -1.166,-0.332C-1.177,-0.396 -1.168,-0.465 -1.163,-0.531C-1.158,-0.581 -1.123,-0.614 -1.077,-0.633C-1.051,-0.643 -1.023,-0.654 -0.994,-0.658C-0.836,-0.68 -0.686,-0.741 -0.524,-0.745C-0.445,-0.746 -0.367,-0.757 -0.289,-0.763C-0.171,-0.773 -0.052,-0.788 0.067,-0.79C0.237,-0.793 0.408,-0.786 0.579,-0.783C0.756,-0.781 0.93,-0.747 1.102,-0.703C1.133,-0.695 1.143,-0.674 1.15,-0.648C1.173,-0.566 1.176,-0.482 1.165,-0.397C1.133,-0.15 1.036,0.075 0.911,0.285C0.834,0.413 0.731,0.527 0.635,0.643C0.598,0.687 0.548,0.72 0.505,0.758C0.476,0.784 0.446,0.795 0.415,0.795C0.387,0.795 0.359,0.787 0.328,0.773Z" style="fill:url(#_Radial2);fill-rule:nonzero;"/>
                        </g>
                        <g transform="matrix(20.5286,0,0,-20.5286,463.628,407.602)">
                            <path d="M-1.12,0.681C-1.128,0.454 -1.132,0.227 -1.135,0C-1.136,-0.068 -1.132,-0.137 -1.129,-0.206C-1.124,-0.337 -1.118,-0.469 -1.073,-0.595C-1.057,-0.639 -1.033,-0.666 -0.987,-0.681C-0.776,-0.752 -0.556,-0.776 -0.337,-0.798C-0.206,-0.811 -0.073,-0.807 0.058,-0.822C0.251,-0.843 0.442,-0.832 0.632,-0.798C0.761,-0.775 0.892,-0.755 1.011,-0.693C1.048,-0.674 1.069,-0.652 1.073,-0.609C1.094,-0.379 1.151,-0.152 1.131,0.083C1.12,0.217 1.131,0.352 1.121,0.486C1.114,0.582 1.099,0.678 1.061,0.766C1.049,0.767 1.043,0.769 1.038,0.768C0.816,0.714 0.593,0.682 0.364,0.709C0.351,0.711 0.336,0.707 0.322,0.706C0.115,0.703 -0.092,0.69 -0.298,0.72C-0.363,0.729 -0.429,0.728 -0.494,0.736C-0.591,0.748 -0.688,0.76 -0.783,0.779C-0.881,0.798 -0.977,0.826 -1.088,0.853C-1.101,0.787 -1.118,0.734 -1.12,0.681ZM0.114,0.517C0.32,0.523 0.526,0.545 0.731,0.564C0.792,0.57 0.852,0.589 0.914,0.603C0.914,0.45 0.918,0.304 0.913,0.158C0.909,0.033 0.891,-0.093 0.884,-0.218C0.881,-0.284 0.887,-0.35 0.889,-0.416C0.89,-0.47 0.892,-0.524 0.891,-0.578C0.89,-0.602 0.878,-0.62 0.849,-0.624C0.773,-0.635 0.697,-0.655 0.621,-0.662C0.482,-0.676 0.342,-0.689 0.202,-0.69C0.148,-0.69 0.094,-0.684 0.041,-0.678C-0.02,-0.67 -0.08,-0.663 -0.14,-0.666C-0.328,-0.673 -0.509,-0.636 -0.693,-0.609C-0.718,-0.605 -0.742,-0.596 -0.767,-0.588C-0.848,-0.561 -0.88,-0.508 -0.88,-0.419C-0.88,-0.299 -0.899,-0.18 -0.907,-0.06C-0.912,0.012 -0.912,0.084 -0.911,0.156C-0.911,0.29 -0.91,0.425 -0.906,0.559C-0.906,0.569 -0.886,0.588 -0.876,0.587C-0.831,0.583 -0.786,0.574 -0.741,0.566C-0.665,0.554 -0.589,0.534 -0.512,0.531C-0.345,0.524 -0.178,0.516 -0.01,0.516C0.031,0.516 0.073,0.516 0.114,0.517Z" style="fill:url(#_Radial3);fill-rule:nonzero;"/>
                        </g>
                        <g transform="matrix(15.7682,0,0,-15.7682,463.636,429.36)">
                            <path d="M-1.346,0.439C-1.28,0.192 -1.216,-0.028 -1.06,-0.207C-1.031,-0.24 -0.992,-0.271 -0.951,-0.282C-0.815,-0.32 -0.677,-0.365 -0.538,-0.376C-0.222,-0.403 0.096,-0.412 0.413,-0.426C0.578,-0.433 0.742,-0.411 0.9,-0.369C1.074,-0.324 1.214,-0.228 1.263,-0.042C1.292,0.066 1.32,0.175 1.342,0.285C1.351,0.326 1.344,0.371 1.344,0.411C1.189,0.372 1.044,0.321 0.894,0.3C0.695,0.272 0.493,0.255 0.293,0.255C0.036,0.256 -0.221,0.279 -0.477,0.292C-0.761,0.307 -1.041,0.349 -1.346,0.439Z" style="fill:url(#_Radial4);fill-rule:nonzero;"/>
                        </g>
                        <g transform="matrix(1,0,0,1,458.527,365.778)">
                            <path d="M0,-4.556C-0.874,-3.526 -1.475,-2.656 -2.234,-1.957C-3.877,-0.445 -5.527,1.081 -7.316,2.411C-9.039,3.692 -11.04,4.128 -13.18,3.447C-13.458,3.358 -13.76,3.347 -14.052,3.306C-17.196,2.874 -19.7,1.081 -22.276,-0.558C-22.326,-0.59 -22.368,-0.634 -22.411,-0.673C-23.902,-2.012 -23.803,-2.877 -21.961,-3.635C-20.494,-4.238 -18.987,-4.765 -17.462,-5.206C-13.506,-6.349 -9.533,-7.432 -5.561,-8.52C-5.143,-8.635 -4.69,-8.622 -4.111,-8.684C-4.385,-7.756 -5.03,-7.78 -5.568,-7.64C-7.899,-7.031 -10.259,-6.516 -12.552,-5.785C-14.511,-5.163 -16.402,-4.318 -18.301,-3.523C-19.06,-3.206 -19.995,-2.785 -19.93,-1.865C-19.864,-0.944 -18.972,-0.385 -18.128,-0.14C-15.763,0.545 -13.405,1.291 -10.936,1.543C-9.669,1.671 -8.614,1.138 -7.694,0.376C-6.018,-1.014 -4.393,-2.465 -2.757,-3.902C-1.773,-4.768 -1.783,-4.779 0,-4.556" style="fill:rgb(0,181,241);fill-rule:nonzero;"/>
                        </g>
                        <g transform="matrix(1,0,0,1,455.948,360.571)">
                            <path d="M0,-4.797C5.385,-3.064 10.562,-3.883 15.835,-5.259C16.306,-4.134 15.856,-3.058 15.732,-2.003C15.703,-1.755 15.276,-1.491 14.978,-1.346C12.955,-0.369 10.899,0.462 8.575,0.393C6.342,0.327 4.095,0.439 1.93,-0.271C0.325,-0.797 0.316,-0.829 0.202,-2.471C0.15,-3.219 0.073,-3.966 0,-4.797" style="fill:rgb(0,183,241);fill-rule:nonzero;"/>
                        </g>
                        <g transform="matrix(1,0,0,1,471.186,354.294)">
                            <path d="M0,0.003C-0.418,0.187 -0.82,0.46 -1.258,0.542C-4.324,1.121 -7.412,1.586 -10.541,1.337C-11.642,1.251 -12.735,0.938 -13.805,0.634C-14.134,0.54 -14.37,0.129 -14.649,-0.137C-14.327,-0.435 -14.045,-0.919 -13.677,-0.997C-12.533,-1.24 -11.36,-1.419 -10.193,-1.457C-8.194,-1.522 -6.181,-1.583 -4.193,-1.414C-2.76,-1.292 -1.357,-0.796 0.059,-0.466C0.039,-0.31 0.02,-0.154 0,0.003" style="fill:rgb(179,227,250);fill-rule:nonzero;"/>
                        </g>
                        <g transform="matrix(1,0,0,1,454.247,365.418)">
                            <path d="M0,-3.815C-0.859,-2.943 -1.69,-2.04 -2.588,-1.211C-3.128,-0.713 -3.776,-0.331 -4.46,0C-3.414,-1.77 -1.716,-2.814 0,-3.815" style="fill:rgb(132,213,247);fill-rule:nonzero;"/>
                        </g>
                        <g transform="matrix(1,0,0,1,446.566,412.119)">
                            <path d="M0,-7.233C0.59,-7.326 0.819,-7.327 1.024,-7.399C3.203,-8.166 5.414,-8.134 7.639,-7.66C10.738,-6.999 13.336,-5.208 16.136,-3.874C17.877,-3.045 19.619,-2.109 21.467,-1.655C23.315,-1.2 25.253,-1.171 27.231,-1.496C29.287,-1.835 31.128,-2.512 32.691,-3.769C34.09,-4.893 35.291,-6.29 34.694,-8.466C34.402,-8.317 34.193,-8.221 33.994,-8.107C29.184,-5.352 24.193,-5.054 19.047,-7.031C17.129,-7.768 15.271,-8.68 13.319,-9.304C10.202,-10.3 6.999,-10.667 3.789,-9.71C2.446,-9.31 1.139,-8.76 0,-7.233M-0.102,0.461C0.469,0.037 0.892,-0.273 1.308,-0.59C1.495,-0.733 1.664,-0.899 1.849,-1.044C3.417,-2.266 5.182,-2.253 6.624,-0.866C7.768,0.231 8.724,1.523 9.87,2.618C11.89,4.55 14.196,5.94 17.148,5.481C18.768,5.23 20.402,4.918 21.954,4.405C24.848,3.448 27.043,1.423 29.515,-0.823C28.914,-0.765 28.693,-0.742 28.472,-0.721C26.781,-0.562 25.068,-0.153 23.403,-0.299C20.756,-0.532 18.273,-1.464 15.932,-2.8C13.792,-4.025 11.611,-5.214 9.343,-6.171C6.569,-7.34 3.662,-7.641 0.755,-6.504C0.104,-6.25 -0.671,-6.03 -0.636,-5.125C-0.566,-3.32 -0.916,-1.473 -0.102,0.461M34.656,-3.548C33.127,-2.467 31.671,-1.506 30.291,-0.444C28.799,0.703 27.396,1.966 25.923,3.138C24.284,4.441 22.393,5.181 20.371,5.725C16.225,6.839 12.567,6.213 9.477,3.093C9.187,2.801 8.887,2.52 8.605,2.222C7.879,1.449 7.183,0.646 6.432,-0.101C5.742,-0.786 4.916,-1.298 3.896,-1.007C2.425,-0.588 1.376,0.451 0.36,1.541C-0.336,2.287 0.186,3.115 0.07,3.894C0.045,4.067 0.067,4.247 0.071,4.424C0.108,6.354 0.122,6.347 2.013,7.006C4.889,8.007 7.928,7.912 10.885,8.356C11.638,8.469 12.408,8.479 13.171,8.506C15.343,8.585 17.552,8.432 19.681,8.772C22.657,9.246 25.552,8.668 28.478,8.544C29.759,8.491 31.044,8.226 32.299,7.933C34.229,7.482 34.367,7.227 34.432,5.297C34.519,2.711 34.64,0.126 34.735,-2.459C34.747,-2.791 34.689,-3.124 34.656,-3.548M-0.813,-8.218C-0.136,-8.658 0.339,-8.966 0.814,-9.275C2.367,-10.283 4.02,-11.015 5.903,-11.124C9.69,-11.344 13.322,-10.569 16.713,-8.992C18.547,-8.139 20.403,-7.476 22.332,-6.951C26.31,-5.868 29.911,-6.961 33.313,-8.956C34.423,-9.606 35.038,-10.727 35.09,-12.017C35.128,-12.949 34.915,-13.888 34.863,-14.827C34.82,-15.62 34.453,-15.828 33.707,-15.674C28.607,-14.621 23.415,-14.551 18.243,-14.354C14.945,-14.228 11.635,-14.297 8.334,-14.396C6.757,-14.444 5.177,-14.703 3.618,-14.976C2.251,-15.216 0.913,-15.608 -0.42,-15.929C-1.283,-13.337 -0.638,-10.89 -0.813,-8.218M35.832,-16.895C35.832,-13.745 35.914,-10.752 35.808,-7.767C35.716,-5.186 35.362,-2.615 35.217,-0.034C35.142,1.309 35.277,2.665 35.306,4.014C35.332,5.128 35.378,6.244 35.345,7.356C35.331,7.84 35.086,8.202 34.485,8.291C32.922,8.522 31.38,8.926 29.812,9.077C26.949,9.352 24.074,9.633 21.203,9.65C18.866,9.662 16.517,9.054 14.19,9.147C10.33,9.298 6.605,8.533 2.843,7.978C2.326,7.902 1.822,7.717 1.323,7.551C-0.344,6.996 -0.993,5.903 -0.995,4.085C-0.998,1.626 -1.397,-0.83 -1.561,-3.291C-1.657,-4.76 -1.653,-6.237 -1.65,-7.71C-1.642,-10.472 -1.614,-13.233 -1.545,-15.993C-1.541,-16.198 -1.126,-16.58 -0.929,-16.563C0.005,-16.483 0.929,-16.295 1.856,-16.144C3.419,-15.892 4.976,-15.485 6.547,-15.417C10.832,-15.232 15.126,-15.026 19.408,-15.14C23.634,-15.252 27.852,-15.708 32.066,-16.099C33.324,-16.215 34.555,-16.617 35.832,-16.895" style="fill:rgb(35,31,32);fill-rule:nonzero;"/>
                        </g>
                        <g transform="matrix(1,0,0,1,445.753,398.539)">
                            <path d="M0,5.362C0.176,2.69 -0.47,0.243 0.392,-2.349C1.726,-2.028 3.064,-1.636 4.431,-1.397C5.99,-1.123 7.57,-0.863 9.147,-0.817C12.448,-0.717 15.758,-0.648 19.056,-0.774C24.228,-0.971 29.42,-1.041 34.521,-2.094C35.265,-2.247 35.634,-2.04 35.677,-1.247C35.728,-0.308 35.94,0.631 35.903,1.563C35.851,2.854 35.236,3.974 34.126,4.624C30.724,6.619 27.123,7.711 23.145,6.629C21.216,6.103 19.36,5.441 17.525,4.588C14.136,3.011 10.504,2.236 6.715,2.456C4.832,2.565 3.181,3.297 1.627,4.305C1.152,4.613 0.678,4.922 0,5.362" style="fill:rgb(0,174,239);fill-rule:nonzero;"/>
                        </g>
                        <g transform="matrix(1,0,0,1,481.221,421.365)">
                            <path d="M0,-12.794C0.032,-12.37 0.092,-12.037 0.079,-11.706C-0.016,-9.12 -0.137,-6.535 -0.223,-3.948C-0.289,-2.019 -0.427,-1.764 -2.357,-1.314C-3.611,-1.021 -4.897,-0.755 -6.178,-0.702C-9.104,-0.579 -11.998,0 -14.975,-0.475C-17.104,-0.815 -19.312,-0.661 -21.486,-0.74C-22.248,-0.767 -23.018,-0.777 -23.77,-0.89C-26.728,-1.335 -29.767,-1.239 -32.642,-2.241C-34.534,-2.899 -34.547,-2.893 -34.585,-4.822C-34.588,-4.998 -34.611,-5.179 -34.585,-5.352C-34.469,-6.131 -34.991,-6.96 -34.296,-7.705C-33.279,-8.795 -32.231,-9.833 -30.76,-10.253C-29.739,-10.544 -28.915,-10.033 -28.224,-9.347C-27.472,-8.601 -26.777,-7.797 -26.051,-7.025C-25.769,-6.726 -25.469,-6.445 -25.18,-6.153C-22.089,-3.033 -18.431,-2.408 -14.285,-3.522C-12.263,-4.065 -10.371,-4.805 -8.732,-6.108C-7.259,-7.281 -5.857,-8.543 -4.364,-9.691C-2.985,-10.752 -1.529,-11.713 0,-12.794" style="fill:rgb(0,188,242);fill-rule:nonzero;"/>
                        </g>
                        <g transform="matrix(1,0,0,1,446.463,409.956)">
                            <path d="M0,2.624C-0.814,0.689 -0.463,-1.158 -0.534,-2.963C-0.569,-3.868 0.207,-4.087 0.857,-4.341C3.764,-5.478 6.671,-5.177 9.446,-4.008C11.713,-3.052 13.895,-1.862 16.035,-0.638C18.375,0.699 20.859,1.63 23.505,1.863C25.17,2.009 26.883,1.601 28.575,1.441C28.795,1.42 29.016,1.397 29.617,1.339C27.145,3.585 24.951,5.611 22.056,6.567C20.504,7.081 18.871,7.393 17.25,7.644C14.298,8.102 11.992,6.712 9.972,4.78C8.827,3.685 7.87,2.394 6.728,1.296C5.284,-0.091 3.52,-0.103 1.952,1.119C1.767,1.264 1.598,1.43 1.411,1.572C0.995,1.89 0.572,2.199 0,2.624" style="fill:rgb(212,239,252);fill-rule:nonzero;"/>
                        </g>
                        <g transform="matrix(1,0,0,1,446.566,407.514)">
                            <path d="M0,-2.628C1.139,-4.155 2.446,-4.705 3.789,-5.105C6.999,-6.062 10.202,-5.695 13.319,-4.699C15.271,-4.075 17.129,-3.163 19.047,-2.426C24.193,-0.449 29.184,-0.747 33.994,-3.502C34.193,-3.616 34.402,-3.712 34.694,-3.861C35.291,-1.685 34.09,-0.288 32.691,0.836C31.128,2.093 29.287,2.77 27.231,3.109C25.253,3.434 23.315,3.405 21.467,2.95C19.619,2.496 17.877,1.56 16.136,0.731C13.336,-0.603 10.738,-2.394 7.639,-3.055C5.414,-3.529 3.203,-3.561 1.024,-2.794C0.819,-2.722 0.59,-2.721 0,-2.628" style="fill:rgb(101,206,246);fill-rule:nonzero;"/>
                        </g>
                    </g>
                </g>
            </g>
        </g>
    </g>
    <defs>
        <radialGradient id="_Radial2" cx="0" cy="0" r="1" gradientUnits="userSpaceOnUse" gradientTransform="matrix(1,0,0,-1,0,0.00224056)"><stop offset="0" style="stop-color:white;stop-opacity:1"/><stop offset="0.91" style="stop-color:rgb(181,221,240);stop-opacity:1"/><stop offset="1" style="stop-color:rgb(137,202,230);stop-opacity:1"/></radialGradient>
        <radialGradient id="_Radial3" cx="0" cy="0" r="1" gradientUnits="userSpaceOnUse" gradientTransform="matrix(1,0,0,-1,0,0.0103889)"><stop offset="0" style="stop-color:white;stop-opacity:1"/><stop offset="0.91" style="stop-color:rgb(181,221,240);stop-opacity:1"/><stop offset="1" style="stop-color:rgb(137,202,230);stop-opacity:1"/></radialGradient>
        <radialGradient id="_Radial4" cx="0" cy="0" r="1" gradientUnits="userSpaceOnUse" gradientTransform="matrix(1,0,0,-1,0,0.00585386)"><stop offset="0" style="stop-color:white;stop-opacity:1"/><stop offset="0.91" style="stop-color:rgb(181,221,240);stop-opacity:1"/><stop offset="1" style="stop-color:rgb(137,202,230);stop-opacity:1"/></radialGradient>
    </defs>
</svg>
