<?xml version="1.0" encoding="UTF-8" standalone="no"?>
<!DOCTYPE svg PUBLIC "-//W3C//DTD SVG 1.1//EN" "http://www.w3.org/Graphics/SVG/1.1/DTD/svg11.dtd">
<svg width="100%" height="100%" viewBox="0 0 1112 529" version="1.1" xmlns="http://www.w3.org/2000/svg" xmlns:xlink="http://www.w3.org/1999/xlink" xml:space="preserve" xmlns:serif="http://www.serif.com/" style="fill-rule:evenodd;clip-rule:evenodd;">
    <g transform="matrix(1,0,0,1,-897,-2392)">
        <g id="d1">
            <g transform="matrix(4.16667,0,0,4.16667,0,1906.82)">
                <rect x="220.846" y="142.359" width="256.291" height="23" style="fill:rgb(224,239,212);"/>
            </g>
            <g transform="matrix(4.16667,0,0,4.16667,954.167,2499.78)">
                <path d="M0,-24.265C-4.697,-24.265 -8.504,-20.457 -8.504,-15.761L-8.504,0L248.354,0L248.354,-15.761C248.354,-20.457 244.547,-24.265 239.85,-24.265L0,-24.265Z" style="fill:rgb(113,191,68);fill-rule:nonzero;"/>
            </g>
            <g transform="matrix(4.16667,0,0,4.16667,955.208,2895.82)">
                <path d="M0,-118.813C-4.697,-118.813 -8.504,-115.005 -8.504,-110.309L-8.504,-8.504C-8.504,-3.808 -4.697,0 0,0L239.667,0C244.364,0 248.171,-3.808 248.171,-8.504L248.171,-110.309C248.171,-115.005 244.364,-118.813 239.667,-118.813L0,-118.813Z" style="fill:none;fill-rule:nonzero;stroke:rgb(113,191,68);stroke-width:1px;"/>
            </g>
            <g transform="matrix(0,-4.16667,-4.16667,0,1498.48,2547.45)">
                <path d="M-11.797,11.797L11.797,11.797" style="fill:none;fill-rule:nonzero;stroke:rgb(113,191,68);stroke-width:1px;stroke-miterlimit:10;"/>
            </g>
            <g transform="matrix(4.16667,0,0,4.16667,918.11,2598.69)">
                <path d="M0,0L127.492,0" style="fill:none;fill-rule:nonzero;stroke:rgb(113,191,68);stroke-width:1px;stroke-miterlimit:10;"/>
            </g>
            <g transform="matrix(4.16667,0,0,4.16667,1449.33,2598.69)">
                <path d="M0,0L129.165,0" style="fill:none;fill-rule:nonzero;stroke:rgb(113,191,68);stroke-width:1px;stroke-miterlimit:10;"/>
            </g>
            <g transform="matrix(0,-4.16667,-4.16667,0,1497.44,2648.88)">
                <path d="M-11.547,11.547L11.547,11.547" style="fill:none;fill-rule:nonzero;stroke:rgb(113,191,68);stroke-width:1px;stroke-miterlimit:10;"/>
            </g>
            <g transform="matrix(4.16667,0,0,4.16667,918.11,2699.08)">
                <path d="M0,0L127.492,0" style="fill:none;fill-rule:nonzero;stroke:rgb(113,191,68);stroke-width:1px;stroke-miterlimit:10;"/>
            </g>
            <g transform="matrix(4.16667,0,0,4.16667,1449.33,2699.08)">
                <path d="M0,0L129.165,0" style="fill:none;fill-rule:nonzero;stroke:rgb(113,191,68);stroke-width:1px;stroke-miterlimit:10;"/>
            </g>
            <g transform="matrix(0,-4.16667,-4.16667,0,1497.44,2749.28)">
                <path d="M-11.547,11.547L11.547,11.547" style="fill:none;fill-rule:nonzero;stroke:rgb(113,191,68);stroke-width:1px;stroke-miterlimit:10;"/>
            </g>
            <g transform="matrix(4.16667,0,0,4.16667,918.11,2799.47)">
                <path d="M0,0L127.492,0" style="fill:none;fill-rule:nonzero;stroke:rgb(113,191,68);stroke-width:1px;stroke-miterlimit:10;"/>
            </g>
            <g transform="matrix(4.16667,0,0,4.16667,1449.33,2799.47)">
                <path d="M0,0L129.165,0" style="fill:none;fill-rule:nonzero;stroke:rgb(113,191,68);stroke-width:1px;stroke-miterlimit:10;"/>
            </g>
            <g transform="matrix(0,-4.16667,-4.16667,0,1498.48,2850.71)">
                <path d="M-11.797,11.797L11.797,11.797" style="fill:none;fill-rule:nonzero;stroke:rgb(113,191,68);stroke-width:1px;stroke-miterlimit:10;"/>
            </g>
            <g transform="matrix(4.16667,0,0,4.16667,0,0)">
                <g transform="matrix(13,0,0,13,245.359,592.353)">
                    <path d="M0.239,-0.401L0.377,-0.401L0.377,-0.549L0.239,-0.549L0.239,-0.401ZM0.239,-0.33C0.237,-0.296 0.23,-0.265 0.163,-0.201C0.108,-0.15 0.048,-0.095 0.048,-0.006C0.048,0.1 0.136,0.206 0.281,0.206C0.414,0.206 0.526,0.116 0.531,-0.027C0.532,-0.033 0.532,-0.038 0.531,-0.047L0.387,-0.047C0.387,-0.039 0.386,-0.031 0.385,-0.024C0.379,0.03 0.347,0.07 0.288,0.07C0.231,0.07 0.199,0.03 0.199,-0.021C0.2,-0.063 0.226,-0.095 0.276,-0.145C0.347,-0.213 0.376,-0.262 0.377,-0.33L0.239,-0.33Z" style="fill:white;fill-rule:nonzero;"/>
                </g>
                <g transform="matrix(13,0,0,13,252.873,592.353)">
                    <path d="M0.631,-0.248C0.617,-0.221 0.557,-0.117 0.425,-0.117C0.284,-0.117 0.187,-0.236 0.187,-0.371C0.187,-0.502 0.28,-0.623 0.424,-0.623C0.542,-0.622 0.608,-0.539 0.631,-0.488L0.788,-0.488C0.759,-0.596 0.638,-0.753 0.425,-0.754C0.191,-0.754 0.038,-0.568 0.038,-0.371C0.038,-0.165 0.2,0.014 0.426,0.014C0.599,0.014 0.743,-0.095 0.788,-0.248L0.631,-0.248Z" style="fill:white;fill-rule:nonzero;"/>
                </g>
                <g transform="matrix(13,0,0,13,263.533,592.353)">
                    <path d="M0.571,-0.549L0.44,-0.549L0.44,-0.246C0.44,-0.168 0.408,-0.106 0.314,-0.106C0.221,-0.105 0.194,-0.169 0.194,-0.25L0.194,-0.549L0.063,-0.549L0.063,-0.217C0.063,-0.121 0.097,0.016 0.277,0.017C0.376,0.018 0.425,-0.03 0.448,-0.073L0.448,-0L0.571,-0L0.571,-0.549Z" style="fill:white;fill-rule:nonzero;"/>
                </g>
                <g transform="matrix(13,0,0,13,271.801,592.353)">
                    <path d="M0.631,-0.549L0.5,-0.549L0.5,-0.469C0.476,-0.513 0.415,-0.566 0.315,-0.566C0.161,-0.566 0.036,-0.448 0.036,-0.275C0.036,-0.12 0.139,0.017 0.315,0.017C0.392,0.017 0.465,-0.015 0.5,-0.079L0.5,-0L0.631,-0L0.631,-0.549ZM0.167,-0.273C0.167,-0.358 0.227,-0.444 0.333,-0.444C0.412,-0.444 0.463,-0.399 0.486,-0.347C0.497,-0.323 0.502,-0.296 0.501,-0.27C0.499,-0.243 0.493,-0.217 0.48,-0.193C0.455,-0.143 0.407,-0.105 0.334,-0.105C0.216,-0.105 0.167,-0.204 0.167,-0.272L0.167,-0.273ZM0.223,-0.692L0.262,-0.613L0.506,-0.729L0.462,-0.824L0.223,-0.692Z" style="fill:white;fill-rule:nonzero;"/>
                </g>
                <g transform="matrix(13,0,0,13,280.849,592.353)">
                    <rect x="0.065" y="-0.74" width="0.131" height="0.74" style="fill:white;fill-rule:nonzero;"/>
                </g>
                <g transform="matrix(13,0,0,13,288.142,592.353)">
                    <path d="M0.604,-0.231C0.615,-0.327 0.59,-0.413 0.523,-0.482C0.472,-0.535 0.4,-0.566 0.318,-0.566C0.152,-0.566 0.03,-0.429 0.03,-0.273C0.03,-0.12 0.151,0.017 0.32,0.017C0.377,0.017 0.431,0.001 0.477,-0.031C0.523,-0.062 0.562,-0.108 0.588,-0.169L0.453,-0.169C0.428,-0.124 0.385,-0.095 0.321,-0.095C0.246,-0.094 0.168,-0.143 0.162,-0.231L0.604,-0.231ZM0.164,-0.331C0.169,-0.385 0.222,-0.455 0.319,-0.455C0.415,-0.456 0.47,-0.383 0.475,-0.331L0.164,-0.331Z" style="fill:white;fill-rule:nonzero;"/>
                </g>
                <g transform="matrix(13,0,0,13,296.449,592.353)">
                    <path d="M0.432,-0.401C0.421,-0.533 0.311,-0.566 0.237,-0.566C0.131,-0.566 0.04,-0.499 0.04,-0.391C0.041,-0.312 0.101,-0.271 0.175,-0.248C0.276,-0.213 0.317,-0.2 0.317,-0.153C0.318,-0.116 0.283,-0.089 0.242,-0.089C0.217,-0.089 0.166,-0.101 0.161,-0.16L0.03,-0.16C0.04,-0.027 0.155,0.017 0.24,0.017C0.355,0.017 0.45,-0.055 0.448,-0.168C0.447,-0.286 0.352,-0.312 0.264,-0.336C0.212,-0.351 0.172,-0.37 0.171,-0.405C0.171,-0.432 0.192,-0.46 0.236,-0.46C0.287,-0.46 0.302,-0.43 0.303,-0.401L0.432,-0.401Z" style="fill:white;fill-rule:nonzero;"/>
                </g>
                <g transform="matrix(13,0,0,13,306.615,592.353)">
                    <path d="M0.101,-0L0.232,-0L0.232,-0.448L0.326,-0.448L0.326,-0.549L0.232,-0.549L0.232,-0.74L0.101,-0.74L0.101,-0.549L0.01,-0.549L0.01,-0.448L0.101,-0.448L0.101,-0Z" style="fill:white;fill-rule:nonzero;"/>
                </g>
                <g transform="matrix(13,0,0,13,310.996,592.353)">
                    <path d="M0.571,-0.549L0.44,-0.549L0.44,-0.246C0.44,-0.168 0.408,-0.106 0.314,-0.106C0.221,-0.105 0.194,-0.169 0.194,-0.25L0.194,-0.549L0.063,-0.549L0.063,-0.217C0.063,-0.121 0.097,0.016 0.277,0.017C0.376,0.018 0.425,-0.03 0.448,-0.073L0.448,-0L0.571,-0L0.571,-0.549Z" style="fill:white;fill-rule:nonzero;"/>
                </g>
                <g transform="matrix(13,0,0,13,323.177,592.353)">
                    <path d="M0.065,-0L0.196,-0L0.196,-0.297C0.196,-0.329 0.201,-0.363 0.217,-0.392C0.233,-0.42 0.263,-0.443 0.311,-0.443C0.358,-0.442 0.385,-0.421 0.401,-0.392C0.415,-0.364 0.418,-0.333 0.418,-0.301L0.418,-0L0.549,-0L0.549,-0.301C0.549,-0.334 0.551,-0.363 0.568,-0.393C0.585,-0.423 0.617,-0.443 0.663,-0.443C0.709,-0.443 0.735,-0.425 0.749,-0.398C0.768,-0.369 0.771,-0.331 0.771,-0.296L0.771,-0L0.902,-0L0.902,-0.301C0.902,-0.414 0.892,-0.459 0.842,-0.511C0.8,-0.554 0.742,-0.566 0.696,-0.566C0.638,-0.566 0.59,-0.544 0.556,-0.512C0.538,-0.495 0.526,-0.477 0.516,-0.46C0.509,-0.474 0.495,-0.497 0.483,-0.51C0.443,-0.553 0.393,-0.566 0.348,-0.566C0.253,-0.566 0.2,-0.505 0.188,-0.48L0.188,-0.549L0.065,-0.549L0.065,-0Z" style="fill:white;fill-rule:nonzero;"/>
                </g>
                <g transform="matrix(13,0,0,13,335.709,592.353)">
                    <path d="M0.631,-0.549L0.5,-0.549L0.5,-0.469C0.476,-0.513 0.415,-0.566 0.315,-0.566C0.161,-0.566 0.036,-0.448 0.036,-0.275C0.036,-0.12 0.139,0.017 0.315,0.017C0.392,0.017 0.465,-0.015 0.5,-0.079L0.5,-0L0.631,-0L0.631,-0.549ZM0.167,-0.273C0.167,-0.358 0.227,-0.444 0.333,-0.444C0.412,-0.444 0.463,-0.399 0.486,-0.347C0.497,-0.323 0.502,-0.296 0.501,-0.27C0.499,-0.243 0.493,-0.217 0.48,-0.193C0.455,-0.143 0.407,-0.105 0.334,-0.105C0.216,-0.105 0.167,-0.204 0.167,-0.272L0.167,-0.273Z" style="fill:white;fill-rule:nonzero;"/>
                </g>
                <g transform="matrix(13,0,0,13,344.757,592.353)">
                    <path d="M0.432,-0.401C0.421,-0.533 0.311,-0.566 0.237,-0.566C0.131,-0.566 0.04,-0.499 0.04,-0.391C0.041,-0.312 0.101,-0.271 0.175,-0.248C0.276,-0.213 0.317,-0.2 0.317,-0.153C0.318,-0.116 0.283,-0.089 0.242,-0.089C0.217,-0.089 0.166,-0.101 0.161,-0.16L0.03,-0.16C0.04,-0.027 0.155,0.017 0.24,0.017C0.355,0.017 0.45,-0.055 0.448,-0.168C0.447,-0.286 0.352,-0.312 0.264,-0.336C0.212,-0.351 0.172,-0.37 0.171,-0.405C0.171,-0.432 0.192,-0.46 0.236,-0.46C0.287,-0.46 0.302,-0.43 0.303,-0.401L0.432,-0.401Z" style="fill:white;fill-rule:nonzero;"/>
                </g>
                <g transform="matrix(13,0,0,13,351.01,592.353)">
                    <path d="M0.477,-0.2C0.457,-0.155 0.411,-0.106 0.329,-0.106C0.236,-0.106 0.167,-0.176 0.167,-0.275C0.167,-0.323 0.184,-0.367 0.212,-0.397C0.244,-0.428 0.281,-0.445 0.329,-0.444C0.401,-0.444 0.454,-0.403 0.477,-0.345L0.611,-0.345C0.579,-0.479 0.462,-0.566 0.324,-0.566C0.16,-0.566 0.035,-0.437 0.035,-0.275C0.035,-0.118 0.155,0.017 0.329,0.017C0.471,0.017 0.58,-0.078 0.611,-0.2L0.477,-0.2Z" style="fill:white;fill-rule:nonzero;"/>
                </g>
                <g transform="matrix(13,0,0,13,359.382,592.353)">
                    <path d="M0.036,-0.275C0.036,-0.133 0.139,0.016 0.33,0.016C0.521,0.016 0.624,-0.133 0.624,-0.275C0.624,-0.416 0.521,-0.565 0.33,-0.565C0.139,-0.565 0.036,-0.416 0.036,-0.276L0.036,-0.275ZM0.167,-0.275C0.167,-0.372 0.24,-0.443 0.33,-0.443C0.42,-0.443 0.492,-0.372 0.492,-0.275C0.492,-0.178 0.42,-0.107 0.33,-0.107C0.24,-0.107 0.167,-0.178 0.167,-0.274L0.167,-0.275Z" style="fill:white;fill-rule:nonzero;"/>
                </g>
                <g transform="matrix(13,0,0,13,367.962,592.353)">
                    <path d="M0.101,-0L0.232,-0L0.232,-0.448L0.326,-0.448L0.326,-0.549L0.232,-0.549L0.232,-0.74L0.101,-0.74L0.101,-0.549L0.01,-0.549L0.01,-0.448L0.101,-0.448L0.101,-0Z" style="fill:white;fill-rule:nonzero;"/>
                </g>
                <g transform="matrix(13,0,0,13,372.031,592.353)">
                    <path d="M0.631,-0.549L0.5,-0.549L0.5,-0.469C0.476,-0.513 0.415,-0.566 0.315,-0.566C0.161,-0.566 0.036,-0.448 0.036,-0.275C0.036,-0.12 0.139,0.017 0.315,0.017C0.392,0.017 0.465,-0.015 0.5,-0.079L0.5,-0L0.631,-0L0.631,-0.549ZM0.167,-0.273C0.167,-0.358 0.227,-0.444 0.333,-0.444C0.412,-0.444 0.463,-0.399 0.486,-0.347C0.497,-0.323 0.502,-0.296 0.501,-0.27C0.499,-0.243 0.493,-0.217 0.48,-0.193C0.455,-0.143 0.407,-0.105 0.334,-0.105C0.216,-0.105 0.167,-0.204 0.167,-0.272L0.167,-0.273Z" style="fill:white;fill-rule:nonzero;"/>
                </g>
                <g transform="matrix(13,0,0,13,384.992,592.353)">
                    <path d="M0.065,0.192L0.196,0.192L0.196,-0.073C0.218,-0.038 0.276,0.017 0.383,0.017C0.544,0.017 0.655,-0.114 0.655,-0.27C0.655,-0.403 0.574,-0.566 0.382,-0.566C0.291,-0.566 0.227,-0.524 0.188,-0.469L0.188,-0.549L0.065,-0.549L0.065,0.192ZM0.524,-0.274C0.524,-0.184 0.457,-0.105 0.357,-0.105C0.31,-0.105 0.268,-0.124 0.238,-0.154C0.208,-0.184 0.19,-0.226 0.19,-0.273C0.19,-0.321 0.208,-0.364 0.237,-0.394C0.267,-0.425 0.308,-0.444 0.356,-0.444C0.467,-0.444 0.524,-0.354 0.524,-0.275L0.524,-0.274Z" style="fill:white;fill-rule:nonzero;"/>
                </g>
                <g transform="matrix(13,0,0,13,393.988,592.353)">
                    <path d="M0.064,-0L0.195,-0L0.195,-0.296C0.195,-0.391 0.242,-0.434 0.334,-0.434L0.34,-0.434L0.34,-0.566C0.257,-0.565 0.212,-0.526 0.188,-0.477L0.188,-0.549L0.064,-0.549L0.064,-0Z" style="fill:white;fill-rule:nonzero;"/>
                </g>
                <g transform="matrix(13,0,0,13,398.2,592.353)">
                    <path d="M0.604,-0.231C0.615,-0.327 0.59,-0.413 0.523,-0.482C0.472,-0.535 0.4,-0.566 0.318,-0.566C0.152,-0.566 0.03,-0.429 0.03,-0.273C0.03,-0.12 0.151,0.017 0.32,0.017C0.377,0.017 0.431,0.001 0.477,-0.031C0.523,-0.062 0.562,-0.108 0.588,-0.169L0.453,-0.169C0.428,-0.124 0.385,-0.095 0.321,-0.095C0.246,-0.094 0.168,-0.143 0.162,-0.231L0.604,-0.231ZM0.164,-0.331C0.169,-0.385 0.222,-0.455 0.319,-0.455C0.415,-0.456 0.47,-0.383 0.475,-0.331L0.164,-0.331Z" style="fill:white;fill-rule:nonzero;"/>
                </g>
                <g transform="matrix(13,0,0,13,406.507,592.353)">
                    <path d="M0.073,-0L0.204,-0L0.204,-0.448L0.291,-0.448L0.291,-0.549L0.204,-0.549L0.204,-0.576C0.204,-0.653 0.258,-0.653 0.291,-0.653L0.291,-0.754C0.197,-0.753 0.073,-0.743 0.073,-0.58L0.073,-0.549L0.005,-0.549L0.005,-0.448L0.073,-0.448L0.073,-0Z" style="fill:white;fill-rule:nonzero;"/>
                </g>
                <g transform="matrix(13,0,0,13,410.121,592.353)">
                    <path d="M0.604,-0.231C0.615,-0.327 0.59,-0.413 0.523,-0.482C0.472,-0.535 0.4,-0.566 0.318,-0.566C0.152,-0.566 0.03,-0.429 0.03,-0.273C0.03,-0.12 0.151,0.017 0.32,0.017C0.377,0.017 0.431,0.001 0.477,-0.031C0.523,-0.062 0.562,-0.108 0.588,-0.169L0.453,-0.169C0.428,-0.124 0.385,-0.095 0.321,-0.095C0.246,-0.094 0.168,-0.143 0.162,-0.231L0.604,-0.231ZM0.164,-0.331C0.169,-0.385 0.222,-0.455 0.319,-0.455C0.415,-0.456 0.47,-0.383 0.475,-0.331L0.164,-0.331Z" style="fill:white;fill-rule:nonzero;"/>
                </g>
                <g transform="matrix(13,0,0,13,418.428,592.353)">
                    <path d="M0.064,-0L0.195,-0L0.195,-0.296C0.195,-0.391 0.242,-0.434 0.334,-0.434L0.34,-0.434L0.34,-0.566C0.257,-0.565 0.212,-0.526 0.188,-0.477L0.188,-0.549L0.064,-0.549L0.064,-0Z" style="fill:white;fill-rule:nonzero;"/>
                </g>
                <g transform="matrix(13,0,0,13,423.043,592.353)">
                    <path d="M0.065,-0.623L0.196,-0.623L0.196,-0.74L0.065,-0.74L0.065,-0.623ZM0.065,-0L0.196,-0L0.196,-0.549L0.065,-0.549L0.065,-0Z" style="fill:white;fill-rule:nonzero;"/>
                </g>
                <g transform="matrix(13,0,0,13,426.423,592.353)">
                    <path d="M0.627,-0.74L0.496,-0.74L0.496,-0.478C0.476,-0.51 0.417,-0.566 0.312,-0.566C0.163,-0.566 0.036,-0.453 0.036,-0.275C0.036,-0.115 0.145,0.017 0.314,0.017C0.426,0.017 0.478,-0.038 0.502,-0.079L0.502,-0L0.627,-0L0.627,-0.74ZM0.167,-0.276C0.167,-0.362 0.229,-0.444 0.336,-0.444C0.383,-0.444 0.425,-0.426 0.455,-0.396C0.485,-0.367 0.504,-0.326 0.504,-0.278C0.506,-0.23 0.488,-0.187 0.457,-0.156C0.426,-0.125 0.383,-0.106 0.335,-0.106C0.234,-0.106 0.167,-0.182 0.167,-0.275L0.167,-0.276Z" style="fill:white;fill-rule:nonzero;"/>
                </g>
                <g transform="matrix(13,0,0,13,435.432,592.353)">
                    <path d="M0.631,-0.549L0.5,-0.549L0.5,-0.469C0.476,-0.513 0.415,-0.566 0.315,-0.566C0.161,-0.566 0.036,-0.448 0.036,-0.275C0.036,-0.12 0.139,0.017 0.315,0.017C0.392,0.017 0.465,-0.015 0.5,-0.079L0.5,-0L0.631,-0L0.631,-0.549ZM0.167,-0.273C0.167,-0.358 0.227,-0.444 0.333,-0.444C0.412,-0.444 0.463,-0.399 0.486,-0.347C0.497,-0.323 0.502,-0.296 0.501,-0.27C0.499,-0.243 0.493,-0.217 0.48,-0.193C0.455,-0.143 0.407,-0.105 0.334,-0.105C0.216,-0.105 0.167,-0.204 0.167,-0.272L0.167,-0.273Z" style="fill:white;fill-rule:nonzero;"/>
                </g>
                <g transform="matrix(13,0,0,13,444.48,592.353)">
                    <path d="M0.339,-0.218C0.341,-0.252 0.348,-0.283 0.415,-0.347C0.47,-0.398 0.53,-0.453 0.53,-0.542C0.53,-0.648 0.442,-0.754 0.297,-0.754C0.164,-0.754 0.052,-0.664 0.046,-0.522C0.046,-0.516 0.046,-0.51 0.047,-0.501L0.191,-0.501C0.191,-0.509 0.192,-0.517 0.193,-0.525C0.199,-0.578 0.231,-0.618 0.29,-0.618C0.347,-0.618 0.379,-0.578 0.379,-0.527C0.378,-0.484 0.352,-0.453 0.302,-0.403C0.231,-0.335 0.202,-0.286 0.201,-0.218L0.339,-0.218ZM0.339,-0.148L0.201,-0.148L0.201,-0L0.339,-0L0.339,-0.148Z" style="fill:white;fill-rule:nonzero;"/>
                </g>
                <g transform="matrix(13,0,0,13,255.434,616.442)">
                    <path d="M0.207,-0L0.203,-0.593L0.411,-0L0.509,-0L0.716,-0.593L0.712,-0L0.85,-0L0.85,-0.74L0.648,-0.74L0.461,-0.209L0.271,-0.74L0.07,-0.74L0.07,-0L0.207,-0Z" style="fill:rgb(113,191,68);fill-rule:nonzero;"/>
                </g>
                <g transform="matrix(13,0,0,13,267.394,616.442)">
                    <path d="M0.631,-0.549L0.5,-0.549L0.5,-0.469C0.476,-0.513 0.415,-0.566 0.315,-0.566C0.161,-0.566 0.036,-0.448 0.036,-0.275C0.036,-0.12 0.139,0.017 0.315,0.017C0.392,0.017 0.465,-0.015 0.5,-0.079L0.5,-0L0.631,-0L0.631,-0.549ZM0.167,-0.273C0.167,-0.358 0.227,-0.444 0.333,-0.444C0.412,-0.444 0.463,-0.399 0.486,-0.347C0.497,-0.323 0.502,-0.296 0.501,-0.27C0.499,-0.243 0.493,-0.217 0.48,-0.193C0.455,-0.143 0.407,-0.105 0.334,-0.105C0.216,-0.105 0.167,-0.204 0.167,-0.272L0.167,-0.273Z" style="fill:rgb(113,191,68);fill-rule:nonzero;"/>
                </g>
                <g transform="matrix(13,0,0,13,276.442,616.442)">
                    <path d="M0.432,-0.401C0.421,-0.533 0.311,-0.566 0.237,-0.566C0.131,-0.566 0.04,-0.499 0.04,-0.391C0.041,-0.312 0.101,-0.271 0.175,-0.248C0.276,-0.213 0.317,-0.2 0.317,-0.153C0.318,-0.116 0.283,-0.089 0.242,-0.089C0.217,-0.089 0.166,-0.101 0.161,-0.16L0.03,-0.16C0.04,-0.027 0.155,0.017 0.24,0.017C0.355,0.017 0.45,-0.055 0.448,-0.168C0.447,-0.286 0.352,-0.312 0.264,-0.336C0.212,-0.351 0.172,-0.37 0.171,-0.405C0.171,-0.432 0.192,-0.46 0.236,-0.46C0.287,-0.46 0.302,-0.43 0.303,-0.401L0.432,-0.401Z" style="fill:rgb(113,191,68);fill-rule:nonzero;"/>
                </g>
                <g transform="matrix(13,0,0,13,282.695,616.442)">
                    <path d="M0.477,-0.2C0.457,-0.155 0.411,-0.106 0.329,-0.106C0.236,-0.106 0.167,-0.176 0.167,-0.275C0.167,-0.323 0.184,-0.367 0.212,-0.397C0.244,-0.428 0.281,-0.445 0.329,-0.444C0.401,-0.444 0.454,-0.403 0.477,-0.345L0.611,-0.345C0.579,-0.479 0.462,-0.566 0.324,-0.566C0.16,-0.566 0.035,-0.437 0.035,-0.275C0.035,-0.118 0.155,0.017 0.329,0.017C0.471,0.017 0.58,-0.078 0.611,-0.2L0.477,-0.2Z" style="fill:rgb(113,191,68);fill-rule:nonzero;"/>
                </g>
                <g transform="matrix(13,0,0,13,291.067,616.442)">
                    <path d="M0.036,-0.275C0.036,-0.133 0.139,0.016 0.33,0.016C0.521,0.016 0.624,-0.133 0.624,-0.275C0.624,-0.416 0.521,-0.565 0.33,-0.565C0.139,-0.565 0.036,-0.416 0.036,-0.276L0.036,-0.275ZM0.167,-0.275C0.167,-0.372 0.24,-0.443 0.33,-0.443C0.42,-0.443 0.492,-0.372 0.492,-0.275C0.492,-0.178 0.42,-0.107 0.33,-0.107C0.24,-0.107 0.167,-0.178 0.167,-0.274L0.167,-0.275Z" style="fill:rgb(113,191,68);fill-rule:nonzero;"/>
                </g>
                <g transform="matrix(13,0,0,13,299.647,616.442)">
                    <path d="M0.101,-0L0.232,-0L0.232,-0.448L0.326,-0.448L0.326,-0.549L0.232,-0.549L0.232,-0.74L0.101,-0.74L0.101,-0.549L0.01,-0.549L0.01,-0.448L0.101,-0.448L0.101,-0Z" style="fill:rgb(113,191,68);fill-rule:nonzero;"/>
                </g>
                <g transform="matrix(13,0,0,13,303.716,616.442)">
                    <path d="M0.631,-0.549L0.5,-0.549L0.5,-0.469C0.476,-0.513 0.415,-0.566 0.315,-0.566C0.161,-0.566 0.036,-0.448 0.036,-0.275C0.036,-0.12 0.139,0.017 0.315,0.017C0.392,0.017 0.465,-0.015 0.5,-0.079L0.5,-0L0.631,-0L0.631,-0.549ZM0.167,-0.273C0.167,-0.358 0.227,-0.444 0.333,-0.444C0.412,-0.444 0.463,-0.399 0.486,-0.347C0.497,-0.323 0.502,-0.296 0.501,-0.27C0.499,-0.243 0.493,-0.217 0.48,-0.193C0.455,-0.143 0.407,-0.105 0.334,-0.105C0.216,-0.105 0.167,-0.204 0.167,-0.272L0.167,-0.273Z" style="fill:rgb(113,191,68);fill-rule:nonzero;"/>
                </g>
                <g transform="matrix(13,0,0,13,388.109,616.442)">
                    <path d="M0.631,-0.248C0.617,-0.221 0.557,-0.117 0.425,-0.117C0.284,-0.117 0.187,-0.236 0.187,-0.371C0.187,-0.502 0.28,-0.623 0.424,-0.623C0.542,-0.622 0.608,-0.539 0.631,-0.488L0.788,-0.488C0.759,-0.596 0.638,-0.753 0.425,-0.754C0.191,-0.754 0.038,-0.568 0.038,-0.371C0.038,-0.165 0.2,0.014 0.426,0.014C0.599,0.014 0.743,-0.095 0.788,-0.248L0.631,-0.248Z" style="fill:rgb(113,191,68);fill-rule:nonzero;"/>
                </g>
                <g transform="matrix(13,0,0,13,398.769,616.442)">
                    <path d="M0.036,-0.275C0.036,-0.133 0.139,0.016 0.33,0.016C0.521,0.016 0.624,-0.133 0.624,-0.275C0.624,-0.416 0.521,-0.565 0.33,-0.565C0.139,-0.565 0.036,-0.416 0.036,-0.276L0.036,-0.275ZM0.167,-0.275C0.167,-0.372 0.24,-0.443 0.33,-0.443C0.42,-0.443 0.492,-0.372 0.492,-0.275C0.492,-0.178 0.42,-0.107 0.33,-0.107C0.24,-0.107 0.167,-0.178 0.167,-0.274L0.167,-0.275Z" style="fill:rgb(113,191,68);fill-rule:nonzero;"/>
                </g>
                <g transform="matrix(13,0,0,13,407.349,616.442)">
                    <path d="M0.065,-0L0.196,-0L0.196,-0.303C0.196,-0.38 0.228,-0.442 0.321,-0.443C0.413,-0.443 0.44,-0.38 0.44,-0.298L0.44,-0L0.571,-0L0.571,-0.331C0.571,-0.428 0.537,-0.565 0.358,-0.566C0.26,-0.567 0.211,-0.519 0.187,-0.476C0.188,-0.502 0.188,-0.525 0.188,-0.549L0.065,-0.549L0.065,-0Z" style="fill:rgb(113,191,68);fill-rule:nonzero;"/>
                </g>
                <g transform="matrix(13,0,0,13,415.591,616.442)">
                    <path d="M0.101,-0L0.232,-0L0.232,-0.448L0.326,-0.448L0.326,-0.549L0.232,-0.549L0.232,-0.74L0.101,-0.74L0.101,-0.549L0.01,-0.549L0.01,-0.448L0.101,-0.448L0.101,-0Z" style="fill:rgb(113,191,68);fill-rule:nonzero;"/>
                </g>
                <g transform="matrix(13,0,0,13,419.66,616.442)">
                    <path d="M0.604,-0.231C0.615,-0.327 0.59,-0.413 0.523,-0.482C0.472,-0.535 0.4,-0.566 0.318,-0.566C0.152,-0.566 0.03,-0.429 0.03,-0.273C0.03,-0.12 0.151,0.017 0.32,0.017C0.377,0.017 0.431,0.001 0.477,-0.031C0.523,-0.062 0.562,-0.108 0.588,-0.169L0.453,-0.169C0.428,-0.124 0.385,-0.095 0.321,-0.095C0.246,-0.094 0.168,-0.143 0.162,-0.231L0.604,-0.231ZM0.164,-0.331C0.169,-0.385 0.222,-0.455 0.319,-0.455C0.415,-0.456 0.47,-0.383 0.475,-0.331L0.164,-0.331Z" style="fill:rgb(113,191,68);fill-rule:nonzero;"/>
                </g>
                <g transform="matrix(13,0,0,13,427.967,616.442)">
                    <path d="M0.036,-0.275C0.036,-0.133 0.139,0.016 0.33,0.016C0.521,0.016 0.624,-0.133 0.624,-0.275C0.624,-0.416 0.521,-0.565 0.33,-0.565C0.139,-0.565 0.036,-0.416 0.036,-0.276L0.036,-0.275ZM0.167,-0.275C0.167,-0.372 0.24,-0.443 0.33,-0.443C0.42,-0.443 0.492,-0.372 0.492,-0.275C0.492,-0.178 0.42,-0.107 0.33,-0.107C0.24,-0.107 0.167,-0.178 0.167,-0.274L0.167,-0.275Z" style="fill:rgb(113,191,68);fill-rule:nonzero;"/>
                </g>
            </g>
            <g transform="matrix(4.16667,0,0,4.16667,0,0)">
                <g transform="matrix(13,0,0,13,267.836,640.531)">
                    <path d="M0.791,-0.513C0.743,-0.648 0.596,-0.754 0.429,-0.754C0.213,-0.754 0.037,-0.593 0.037,-0.372C0.037,-0.157 0.206,0.014 0.427,0.014C0.56,0.014 0.719,-0.054 0.788,-0.208C0.816,-0.27 0.823,-0.345 0.821,-0.394L0.373,-0.394L0.373,-0.274L0.649,-0.274C0.638,-0.23 0.612,-0.19 0.573,-0.162C0.535,-0.134 0.485,-0.117 0.426,-0.117C0.308,-0.117 0.186,-0.205 0.186,-0.372C0.186,-0.533 0.307,-0.623 0.426,-0.623C0.483,-0.623 0.53,-0.604 0.568,-0.574C0.59,-0.557 0.608,-0.536 0.623,-0.513L0.791,-0.513Z" style="fill:rgb(35,31,32);fill-rule:nonzero;"/>
                </g>
                <g transform="matrix(13,0,0,13,278.938,640.531)">
                    <path d="M0.631,-0.549L0.5,-0.549L0.5,-0.469C0.476,-0.513 0.415,-0.566 0.315,-0.566C0.161,-0.566 0.036,-0.448 0.036,-0.275C0.036,-0.12 0.139,0.017 0.315,0.017C0.392,0.017 0.465,-0.015 0.5,-0.079L0.5,-0L0.631,-0L0.631,-0.549ZM0.167,-0.273C0.167,-0.358 0.227,-0.444 0.333,-0.444C0.412,-0.444 0.463,-0.399 0.486,-0.347C0.497,-0.323 0.502,-0.296 0.501,-0.27C0.499,-0.243 0.493,-0.217 0.48,-0.193C0.455,-0.143 0.407,-0.105 0.334,-0.105C0.216,-0.105 0.167,-0.204 0.167,-0.272L0.167,-0.273Z" style="fill:rgb(35,31,32);fill-rule:nonzero;"/>
                </g>
                <g transform="matrix(13,0,0,13,287.986,640.531)">
                    <path d="M0.101,-0L0.232,-0L0.232,-0.448L0.326,-0.448L0.326,-0.549L0.232,-0.549L0.232,-0.74L0.101,-0.74L0.101,-0.549L0.01,-0.549L0.01,-0.448L0.101,-0.448L0.101,-0Z" style="fill:rgb(35,31,32);fill-rule:nonzero;"/>
                </g>
                <g transform="matrix(13,0,0,13,292.055,640.531)">
                    <path d="M0.036,-0.275C0.036,-0.133 0.139,0.016 0.33,0.016C0.521,0.016 0.624,-0.133 0.624,-0.275C0.624,-0.416 0.521,-0.565 0.33,-0.565C0.139,-0.565 0.036,-0.416 0.036,-0.276L0.036,-0.275ZM0.167,-0.275C0.167,-0.372 0.24,-0.443 0.33,-0.443C0.42,-0.443 0.492,-0.372 0.492,-0.275C0.492,-0.178 0.42,-0.107 0.33,-0.107C0.24,-0.107 0.167,-0.178 0.167,-0.274L0.167,-0.275Z" style="fill:rgb(35,31,32);fill-rule:nonzero;"/>
                </g>
            </g>
            <g transform="matrix(4.16667,0,0,4.16667,0,0)">
                <g transform="matrix(13,0,0,13,404.973,640.531)">
                    <path d="M0.238,-0L0.387,-0L0.387,-0.74L0.106,-0.74L0.106,-0.614L0.238,-0.614L0.238,-0Z" style="fill:rgb(35,31,32);fill-rule:nonzero;"/>
                </g>
                <g transform="matrix(13,0,0,13,412.799,640.531)">
                    <path d="M0.053,-0L0.556,-0L0.556,-0.126L0.257,-0.126C0.316,-0.183 0.375,-0.239 0.433,-0.295C0.52,-0.378 0.551,-0.439 0.552,-0.525C0.552,-0.647 0.464,-0.754 0.309,-0.754C0.256,-0.754 0.16,-0.738 0.102,-0.655C0.061,-0.6 0.052,-0.539 0.05,-0.482L0.193,-0.482C0.194,-0.558 0.224,-0.623 0.296,-0.623C0.357,-0.623 0.403,-0.585 0.403,-0.512C0.402,-0.427 0.343,-0.376 0.269,-0.311C0.197,-0.246 0.125,-0.182 0.053,-0.117L0.053,-0Z" style="fill:rgb(35,31,32);fill-rule:nonzero;"/>
                </g>
            </g>
            <g transform="matrix(4.16667,0,0,4.16667,0,0)">
                <g transform="matrix(13,0,0,13,273.049,664.62)">
                    <path d="M0.067,-0.74L0.067,-0L0.216,-0L0.216,-0.254L0.307,-0.254C0.415,-0.254 0.465,-0.272 0.515,-0.313C0.562,-0.351 0.593,-0.427 0.593,-0.5C0.593,-0.573 0.563,-0.645 0.509,-0.689C0.466,-0.722 0.416,-0.74 0.291,-0.74L0.067,-0.74ZM0.216,-0.609L0.298,-0.609C0.335,-0.609 0.369,-0.606 0.399,-0.59C0.428,-0.576 0.45,-0.545 0.45,-0.498C0.45,-0.451 0.428,-0.418 0.401,-0.404C0.371,-0.388 0.338,-0.385 0.304,-0.385L0.216,-0.385L0.216,-0.609Z" style="fill:rgb(35,31,32);fill-rule:nonzero;"/>
                </g>
                <g transform="matrix(13,0,0,13,280.667,664.62)">
                    <path d="M0.604,-0.231C0.615,-0.327 0.59,-0.413 0.523,-0.482C0.472,-0.535 0.4,-0.566 0.318,-0.566C0.152,-0.566 0.03,-0.429 0.03,-0.273C0.03,-0.12 0.151,0.017 0.32,0.017C0.377,0.017 0.431,0.001 0.477,-0.031C0.523,-0.062 0.562,-0.108 0.588,-0.169L0.453,-0.169C0.428,-0.124 0.385,-0.095 0.321,-0.095C0.246,-0.094 0.168,-0.143 0.162,-0.231L0.604,-0.231ZM0.164,-0.331C0.169,-0.385 0.222,-0.455 0.319,-0.455C0.415,-0.456 0.47,-0.383 0.475,-0.331L0.164,-0.331Z" style="fill:rgb(35,31,32);fill-rule:nonzero;"/>
                </g>
                <g transform="matrix(13,0,0,13,288.974,664.62)">
                    <path d="M0.014,-0L0.419,-0L0.419,-0.101L0.17,-0.101L0.415,-0.448L0.415,-0.549L0.019,-0.549L0.019,-0.448L0.272,-0.448L0.014,-0.091L0.014,-0Z" style="fill:rgb(35,31,32);fill-rule:nonzero;"/>
                </g>
            </g>
            <g transform="matrix(54.1667,0,0,54.1667,1703.15,2769.25)">
                <path d="M0.319,-0L0.513,-0.284C0.548,-0.338 0.58,-0.401 0.58,-0.479C0.58,-0.535 0.563,-0.607 0.518,-0.658C0.47,-0.719 0.391,-0.754 0.3,-0.754C0.147,-0.754 0.024,-0.639 0.024,-0.479C0.024,-0.316 0.145,-0.229 0.259,-0.229C0.282,-0.229 0.31,-0.236 0.318,-0.24C0.308,-0.225 0.297,-0.211 0.286,-0.195L0.147,-0L0.319,-0ZM0.433,-0.492C0.433,-0.41 0.37,-0.36 0.302,-0.36C0.228,-0.36 0.173,-0.418 0.173,-0.493C0.173,-0.567 0.231,-0.623 0.303,-0.623C0.373,-0.623 0.433,-0.571 0.433,-0.493L0.433,-0.492Z" style="fill:rgb(35,31,32);fill-rule:nonzero;"/>
            </g>
            <g transform="matrix(4.16667,0,0,4.16667,0,0)">
                <g transform="matrix(13,0,0,13,267.225,688.709)">
                    <path d="M0.067,-0.74L0.067,-0L0.216,-0L0.216,-0.254L0.307,-0.254C0.415,-0.254 0.465,-0.272 0.515,-0.313C0.562,-0.351 0.593,-0.427 0.593,-0.5C0.593,-0.573 0.563,-0.645 0.509,-0.689C0.466,-0.722 0.416,-0.74 0.291,-0.74L0.067,-0.74ZM0.216,-0.609L0.298,-0.609C0.335,-0.609 0.369,-0.606 0.399,-0.59C0.428,-0.576 0.45,-0.545 0.45,-0.498C0.45,-0.451 0.428,-0.418 0.401,-0.404C0.371,-0.388 0.338,-0.385 0.304,-0.385L0.216,-0.385L0.216,-0.609Z" style="fill:rgb(35,31,32);fill-rule:nonzero;"/>
                </g>
                <g transform="matrix(13,0,0,13,274.843,688.709)">
                    <path d="M0.604,-0.231C0.615,-0.327 0.59,-0.413 0.523,-0.482C0.472,-0.535 0.4,-0.566 0.318,-0.566C0.152,-0.566 0.03,-0.429 0.03,-0.273C0.03,-0.12 0.151,0.017 0.32,0.017C0.377,0.017 0.431,0.001 0.477,-0.031C0.523,-0.062 0.562,-0.108 0.588,-0.169L0.453,-0.169C0.428,-0.124 0.385,-0.095 0.321,-0.095C0.246,-0.094 0.168,-0.143 0.162,-0.231L0.604,-0.231ZM0.164,-0.331C0.169,-0.385 0.222,-0.455 0.319,-0.455C0.415,-0.456 0.47,-0.383 0.475,-0.331L0.164,-0.331Z" style="fill:rgb(35,31,32);fill-rule:nonzero;"/>
                </g>
                <g transform="matrix(13,0,0,13,283.15,688.709)">
                    <path d="M0.064,-0L0.195,-0L0.195,-0.296C0.195,-0.391 0.242,-0.434 0.334,-0.434L0.34,-0.434L0.34,-0.566C0.257,-0.565 0.212,-0.526 0.188,-0.477L0.188,-0.549L0.064,-0.549L0.064,-0Z" style="fill:rgb(35,31,32);fill-rule:nonzero;"/>
                </g>
                <g transform="matrix(13,0,0,13,287.674,688.709)">
                    <path d="M0.064,-0L0.195,-0L0.195,-0.296C0.195,-0.391 0.242,-0.434 0.334,-0.434L0.34,-0.434L0.34,-0.566C0.257,-0.565 0.212,-0.526 0.188,-0.477L0.188,-0.549L0.064,-0.549L0.064,-0Z" style="fill:rgb(35,31,32);fill-rule:nonzero;"/>
                </g>
                <g transform="matrix(13,0,0,13,291.873,688.709)">
                    <path d="M0.036,-0.275C0.036,-0.133 0.139,0.016 0.33,0.016C0.521,0.016 0.624,-0.133 0.624,-0.275C0.624,-0.416 0.521,-0.565 0.33,-0.565C0.139,-0.565 0.036,-0.416 0.036,-0.276L0.036,-0.275ZM0.167,-0.275C0.167,-0.372 0.24,-0.443 0.33,-0.443C0.42,-0.443 0.492,-0.372 0.492,-0.275C0.492,-0.178 0.42,-0.107 0.33,-0.107C0.24,-0.107 0.167,-0.178 0.167,-0.274L0.167,-0.275Z" style="fill:rgb(35,31,32);fill-rule:nonzero;"/>
                </g>
            </g>
            <g transform="matrix(4.16667,0,0,4.16667,0,0)">
                <g transform="matrix(13,0,0,13,404.973,688.956)">
                    <path d="M0.238,-0L0.387,-0L0.387,-0.74L0.106,-0.74L0.106,-0.614L0.238,-0.614L0.238,-0Z" style="fill:rgb(35,31,32);fill-rule:nonzero;"/>
                </g>
                <g transform="matrix(13,0,0,13,412.799,688.956)">
                    <path d="M0.068,-0.556C0.068,-0.476 0.116,-0.431 0.149,-0.41C0.074,-0.377 0.043,-0.306 0.042,-0.228C0.043,-0.089 0.151,0.014 0.301,0.014C0.451,0.014 0.559,-0.089 0.56,-0.228C0.559,-0.306 0.527,-0.377 0.453,-0.41C0.486,-0.431 0.534,-0.476 0.534,-0.556C0.534,-0.655 0.454,-0.754 0.301,-0.754C0.148,-0.754 0.068,-0.654 0.068,-0.557L0.068,-0.556ZM0.213,-0.544C0.213,-0.595 0.253,-0.632 0.301,-0.632C0.349,-0.632 0.389,-0.595 0.389,-0.544C0.389,-0.494 0.349,-0.456 0.301,-0.456C0.253,-0.456 0.213,-0.494 0.213,-0.543L0.213,-0.544ZM0.191,-0.229C0.191,-0.287 0.235,-0.342 0.301,-0.342C0.367,-0.342 0.411,-0.287 0.411,-0.229C0.411,-0.173 0.367,-0.117 0.301,-0.117C0.235,-0.117 0.191,-0.173 0.191,-0.228L0.191,-0.229Z" style="fill:rgb(35,31,32);fill-rule:nonzero;"/>
                </g>
            </g>
        </g>
    </g>
</svg>
