<?xml version="1.0" encoding="UTF-8" standalone="no"?>
<!DOCTYPE svg PUBLIC "-//W3C//DTD SVG 1.1//EN" "http://www.w3.org/Graphics/SVG/1.1/DTD/svg11.dtd">
<svg width="100%" height="100%" viewBox="0 0 416 863" version="1.1" xmlns="http://www.w3.org/2000/svg" xmlns:xlink="http://www.w3.org/1999/xlink" xml:space="preserve" xmlns:serif="http://www.serif.com/" style="fill-rule:evenodd;clip-rule:evenodd;stroke-linejoin:round;stroke-miterlimit:2;">
    <g transform="matrix(1,0,0,1,-1338,-1441)">
        <g transform="matrix(4.16667,0,0,4.16667,-520.692,-613.504)">
            <g transform="matrix(1,0,0,1,467.365,608.652)">
                <path d="M0,3.645L-1.563,5.38L-4.805,-1.735L0,3.645Z" style="fill:rgb(244,124,32);fill-rule:nonzero;"/>
            </g>
            <g transform="matrix(1,0,0,1,468.585,606.916)">
                <path d="M0,3.979L-6.024,0L1.54,2.234L0,3.979Z" style="fill:rgb(250,169,99);fill-rule:nonzero;"/>
            </g>
            <g transform="matrix(1,0,0,1,468.633,608.452)">
                <path d="M0,2.39L-1.343,3.925L-6.073,-1.535L0,2.39Z" style="fill:rgb(248,152,41);fill-rule:nonzero;"/>
            </g>
            <g>
                <clipPath id="_clip1">
                    <rect x="446.215" y="493.149" width="99.69" height="206.851" clip-rule="nonzero"/>
                </clipPath>
                <g clip-path="url(#_clip1)">
                    <g transform="matrix(-0.66932,0.742975,0.742975,0.66932,485.721,624.899)">
                        <path d="M2.923,-22.073L5.258,-22.073L11.575,-0.168L5.678,-0.33C5.678,-0.33 2.366,-21.93 2.923,-22.073" style="fill:rgb(253,193,116);fill-rule:nonzero;"/>
                    </g>
                    <g transform="matrix(0.651802,0.758389,0.758389,-0.651802,475.945,609.741)">
                        <path d="M-3.641,-8.282L18.181,-8.282L18.142,-8.02L-3.703,-7.836L-3.641,-8.282Z" style="fill:rgb(254,224,196);fill-rule:nonzero;"/>
                    </g>
                    <g transform="matrix(0.828267,0.560334,0.560334,-0.828267,473.379,605.552)">
                        <path d="M-0.977,-7.112L20.521,-7.112L21.65,-0.889L-0.68,-4.804L-0.977,-7.112Z" style="fill:rgb(254,224,196);fill-rule:nonzero;"/>
                    </g>
                    <g transform="matrix(0.826547,0.562868,0.562868,-0.826547,473.692,606.987)">
                        <path d="M-2.001,-5.954L19.43,-5.954L19.371,-6.46L-2.074,-6.547L-2.001,-5.954Z" style="fill:rgb(254,234,220);fill-rule:nonzero;"/>
                    </g>
                    <g transform="matrix(-0.829306,-0.558795,-0.558795,0.829306,473.592,612.882)">
                        <path d="M-16.511,1.151L5.263,1.151L5.491,2.995L-15.666,8.818C-15.666,8.818 -22.433,4.362 -16.511,1.151" style="fill:rgb(255,213,153);fill-rule:nonzero;"/>
                    </g>
                    <g transform="matrix(1,0,0,1,484.345,712.703)">
                        <path d="M0,-82.022C-2.834,-84.489 -6.113,-85.362 -7.323,-83.973C-8.534,-82.582 -7.218,-79.453 -4.385,-76.986L87.882,3.34L92.266,-1.696L0,-82.022Z" style="fill:rgb(231,162,76);fill-rule:nonzero;"/>
                    </g>
                    <g transform="matrix(1,0,0,1,484.879,712.703)">
                        <path d="M0,-81.557C-2.833,-84.024 -6.113,-84.897 -7.322,-83.508C-8.533,-82.117 -7.218,-78.988 -4.384,-76.521L87.349,3.34L91.732,-1.696L0,-81.557Z" style="fill:rgb(244,124,32);fill-rule:nonzero;"/>
                    </g>
                    <g transform="matrix(-0.660676,0.750671,0.750671,0.660676,588.975,662.72)">
                        <path d="M45.216,-100.891C45.353,-101.83 45.587,-102.684 45.894,-103.407L45.216,22.627L44.55,22.623L45.216,-100.891Z" style="fill:rgb(231,106,35);fill-rule:nonzero;"/>
                    </g>
                    <g transform="matrix(1,0,0,1,491.947,703.42)">
                        <path d="M0,-84.077C-2.18,-85.975 -4.914,-86.404 -6.104,-85.036C-7.295,-83.669 -6.493,-81.02 -4.313,-79.122L89.243,2.327L93.557,-2.627L0,-84.077Z" style="fill:rgb(231,162,76);fill-rule:nonzero;"/>
                    </g>
                    <g transform="matrix(1,0,0,1,492.481,703.42)">
                        <path d="M0,-83.612C-2.181,-85.51 -4.914,-85.939 -6.104,-84.571C-7.295,-83.204 -6.493,-80.555 -4.313,-78.657L88.709,2.327L93.022,-2.627L0,-83.612Z" style="fill:rgb(250,169,99);fill-rule:nonzero;"/>
                    </g>
                    <g transform="matrix(-0.660038,0.751233,0.751233,0.660038,596.686,655.801)">
                        <path d="M47.749,-104.964C48.107,-104.122 48.315,-103.105 48.31,-102.008L47.749,21.325L47.176,21.323L47.749,-104.964Z" style="fill:rgb(252,193,150);fill-rule:nonzero;"/>
                    </g>
                    <g transform="matrix(1,0,0,1,487.515,709.184)">
                        <path d="M0,-85.263C-2.169,-87.151 -5.045,-87.399 -6.421,-85.818C-7.798,-84.237 -7.156,-81.423 -4.987,-79.535L88.824,2.136L93.811,-3.592L0,-85.263Z" style="fill:rgb(231,162,76);fill-rule:nonzero;"/>
                    </g>
                    <g transform="matrix(1,0,0,1,488.249,709.225)">
                        <path d="M0,-84.781C-2.169,-86.669 -5.062,-86.899 -6.46,-85.292C-7.858,-83.686 -7.576,-81.152 -5.406,-79.262L88.07,2.118L93.135,-3.698L0,-84.781Z" style="fill:rgb(248,152,41);fill-rule:nonzero;"/>
                    </g>
                    <g transform="matrix(1,0,0,1,467.366,510.942)">
                        <path d="M0,3.645L-1.563,5.38L-4.806,-1.735L0,3.645Z" style="fill:rgb(0,170,77);fill-rule:nonzero;"/>
                    </g>
                    <g transform="matrix(1,0,0,1,468.586,509.207)">
                        <path d="M0,3.979L-6.025,0L1.538,2.234L0,3.979Z" style="fill:rgb(85,185,71);fill-rule:nonzero;"/>
                    </g>
                    <g transform="matrix(1,0,0,1,468.634,510.743)">
                        <path d="M0,2.388L-1.344,3.924L-6.074,-1.536L0,2.388Z" style="fill:rgb(0,173,77);fill-rule:nonzero;"/>
                    </g>
                    <g transform="matrix(-0.66932,0.742975,0.742975,0.66932,485.72,527.188)">
                        <path d="M2.923,-22.071L5.258,-22.071L11.575,-0.167L5.677,-0.33C5.677,-0.33 2.365,-21.928 2.923,-22.071" style="fill:rgb(253,193,116);fill-rule:nonzero;"/>
                    </g>
                    <g transform="matrix(0.651802,0.758389,0.758389,-0.651802,475.945,512.03)">
                        <path d="M-3.641,-8.282L18.181,-8.282L18.143,-8.02L-3.702,-7.836L-3.641,-8.282Z" style="fill:rgb(254,224,196);fill-rule:nonzero;"/>
                    </g>
                    <g transform="matrix(0.828274,0.560323,0.560323,-0.828274,473.38,507.842)">
                        <path d="M-0.977,-7.112L20.519,-7.112L21.65,-0.888L-0.681,-4.805L-0.977,-7.112Z" style="fill:rgb(254,224,196);fill-rule:nonzero;"/>
                    </g>
                    <g transform="matrix(0.826525,0.5629,0.5629,-0.826525,473.693,509.276)">
                        <path d="M-2.001,-5.955L19.43,-5.955L19.37,-6.461L-2.074,-6.548L-2.001,-5.955Z" style="fill:rgb(254,234,220);fill-rule:nonzero;"/>
                    </g>
                    <g transform="matrix(-0.829291,-0.558816,-0.558816,0.829291,473.594,515.172)">
                        <path d="M-16.509,1.152L5.264,1.152L5.492,2.995L-15.664,8.819C-15.664,8.819 -22.432,4.362 -16.509,1.152" style="fill:rgb(255,213,153);fill-rule:nonzero;"/>
                    </g>
                    <g transform="matrix(1,0,0,1,484.345,615.109)">
                        <path d="M0,-82.138C-2.834,-84.605 -6.113,-85.478 -7.322,-84.088C-8.534,-82.696 -7.218,-79.569 -4.384,-77.102L88.015,3.34L92.399,-1.696L0,-82.138Z" style="fill:rgb(231,162,76);fill-rule:nonzero;"/>
                    </g>
                    <g transform="matrix(1,0,0,1,484.88,615.109)">
                        <path d="M0,-81.673C-2.834,-84.14 -6.113,-85.013 -7.323,-83.623C-8.535,-82.232 -7.218,-79.104 -4.385,-76.637L87.48,3.34L91.865,-1.696L0,-81.673Z" style="fill:rgb(0,170,77);fill-rule:nonzero;"/>
                    </g>
                    <g transform="matrix(-0.660675,0.750672,0.750672,0.660675,589.128,565.057)">
                        <path d="M45.28,-101.037C45.419,-101.975 45.653,-102.83 45.96,-103.553L45.28,22.656L44.614,22.652L45.28,-101.037Z" style="fill:rgb(0,137,65);fill-rule:nonzero;"/>
                    </g>
                    <g transform="matrix(1,0,0,1,491.947,605.825)">
                        <path d="M0,-84.191C-2.181,-86.089 -4.914,-86.519 -6.104,-85.151C-7.295,-83.784 -6.493,-81.135 -4.312,-79.238L89.377,2.328L93.689,-2.626L0,-84.191Z" style="fill:rgb(231,162,76);fill-rule:nonzero;"/>
                    </g>
                    <g transform="matrix(1,0,0,1,492.481,605.825)">
                        <path d="M0,-83.726C-2.181,-85.624 -4.914,-86.054 -6.104,-84.686C-7.295,-83.319 -6.493,-80.67 -4.312,-78.772L88.843,2.328L93.155,-2.625L0,-83.726Z" style="fill:rgb(85,185,71);fill-rule:nonzero;"/>
                    </g>
                    <g transform="matrix(-0.660034,0.751236,0.751236,0.660034,596.84,558.137)">
                        <path d="M47.815,-105.11C48.172,-104.268 48.38,-103.252 48.375,-102.155L47.815,21.356L47.242,21.353L47.815,-105.11Z" style="fill:rgb(151,202,73);fill-rule:nonzero;"/>
                    </g>
                    <g transform="matrix(1,0,0,1,487.516,611.588)">
                        <path d="M0,-85.377C-2.17,-87.266 -5.045,-87.514 -6.422,-85.932C-7.798,-84.352 -7.157,-81.538 -4.987,-79.649L88.956,2.137L93.942,-3.591L0,-85.377Z" style="fill:rgb(231,162,76);fill-rule:nonzero;"/>
                    </g>
                    <g transform="matrix(1,0,0,1,488.25,611.63)">
                        <path d="M0,-84.897C-2.169,-86.786 -5.062,-87.015 -6.461,-85.408C-7.859,-83.802 -7.576,-81.267 -5.407,-79.379L88.203,2.118L93.268,-3.699L0,-84.897Z" style="fill:rgb(0,173,77);fill-rule:nonzero;"/>
                    </g>
                    <g transform="matrix(1,0,0,1,467.365,559.767)">
                        <path d="M0,3.647L-1.562,5.381L-4.805,-1.734L0,3.647Z" style="fill:rgb(0,154,191);fill-rule:nonzero;"/>
                    </g>
                    <g transform="matrix(1,0,0,1,468.585,558.034)">
                        <path d="M0,3.979L-6.024,0L1.539,2.234L0,3.979Z" style="fill:rgb(0,181,225);fill-rule:nonzero;"/>
                    </g>
                    <g transform="matrix(1,0,0,1,468.633,559.569)">
                        <path d="M0,2.389L-1.343,3.925L-6.073,-1.536L0,2.389Z" style="fill:rgb(0,177,237);fill-rule:nonzero;"/>
                    </g>
                    <g transform="matrix(-0.669296,0.742996,0.742996,0.669296,485.72,576.013)">
                        <path d="M2.924,-22.07L5.257,-22.07L11.575,-0.167L5.68,-0.329C5.68,-0.329 2.366,-21.928 2.924,-22.07" style="fill:rgb(253,193,116);fill-rule:nonzero;"/>
                    </g>
                    <g transform="matrix(0.651776,0.758412,0.758412,-0.651776,475.945,560.857)">
                        <path d="M-3.641,-8.282L18.181,-8.282L18.142,-8.019L-3.703,-7.837L-3.641,-8.282Z" style="fill:rgb(254,224,196);fill-rule:nonzero;"/>
                    </g>
                    <g transform="matrix(0.828252,0.560355,0.560355,-0.828252,473.38,556.669)">
                        <path d="M-0.977,-7.113L20.52,-7.113L21.65,-0.887L-0.68,-4.805L-0.977,-7.113Z" style="fill:rgb(254,224,196);fill-rule:nonzero;"/>
                    </g>
                    <g transform="matrix(0.826525,0.5629,0.5629,-0.826525,473.692,558.103)">
                        <path d="M-2.001,-5.954L19.431,-5.954L19.371,-6.46L-2.074,-6.548L-2.001,-5.954Z" style="fill:rgb(254,234,220);fill-rule:nonzero;"/>
                    </g>
                    <g transform="matrix(-0.829291,-0.558816,-0.558816,0.829291,473.593,563.999)">
                        <path d="M-16.509,1.152L5.264,1.152L5.492,2.995L-15.665,8.82C-15.665,8.82 -22.432,4.362 -16.509,1.152" style="fill:rgb(255,213,153);fill-rule:nonzero;"/>
                    </g>
                    <g transform="matrix(1,0,0,1,484.345,663.936)">
                        <path d="M0,-82.139C-2.834,-84.606 -6.113,-85.478 -7.323,-84.088C-8.534,-82.698 -7.218,-79.57 -4.384,-77.103L88.015,3.339L92.398,-1.697L0,-82.139Z" style="fill:rgb(231,162,76);fill-rule:nonzero;"/>
                    </g>
                    <g transform="matrix(1,0,0,1,484.879,663.936)">
                        <path d="M0,-81.674C-2.833,-84.141 -6.113,-85.013 -7.323,-83.623C-8.534,-82.233 -7.217,-79.105 -4.384,-76.638L87.481,3.339L91.865,-1.696L0,-81.674Z" style="fill:rgb(0,154,191);fill-rule:nonzero;"/>
                    </g>
                    <g transform="matrix(-0.660667,0.75068,0.75068,0.660667,589.127,613.881)">
                        <path d="M45.281,-101.036C45.42,-101.974 45.653,-102.828 45.96,-103.552L45.281,22.658L44.616,22.653L45.281,-101.036Z" style="fill:rgb(0,135,162);fill-rule:nonzero;"/>
                    </g>
                    <g transform="matrix(1,0,0,1,491.947,654.652)">
                        <path d="M0,-84.192C-2.181,-86.089 -4.913,-86.52 -6.104,-85.151C-7.295,-83.784 -6.493,-81.136 -4.313,-79.238L89.376,2.328L93.689,-2.626L0,-84.192Z" style="fill:rgb(231,162,76);fill-rule:nonzero;"/>
                    </g>
                    <g transform="matrix(1,0,0,1,492.481,654.651)">
                        <path d="M0,-83.726C-2.181,-85.624 -4.914,-86.054 -6.104,-84.686C-7.296,-83.318 -6.493,-80.67 -4.312,-78.772L88.842,2.328L93.155,-2.625L0,-83.726Z" style="fill:rgb(0,181,225);fill-rule:nonzero;"/>
                    </g>
                    <g transform="matrix(-0.660038,0.751232,0.751232,0.660038,596.84,606.964)">
                        <path d="M47.815,-105.11C48.174,-104.268 48.381,-103.251 48.376,-102.154L47.815,21.355L47.242,21.353L47.815,-105.11Z" style="fill:rgb(51,196,228);fill-rule:nonzero;"/>
                    </g>
                    <g transform="matrix(1,0,0,1,487.515,660.415)">
                        <path d="M0,-85.377C-2.17,-87.266 -5.045,-87.514 -6.421,-85.933C-7.798,-84.352 -7.156,-81.539 -4.986,-79.65L88.957,2.137L93.942,-3.59L0,-85.377Z" style="fill:rgb(231,162,76);fill-rule:nonzero;"/>
                    </g>
                    <g transform="matrix(1,0,0,1,488.249,660.458)">
                        <path d="M0,-84.899C-2.169,-86.787 -5.062,-87.016 -6.461,-85.409C-7.859,-83.804 -7.576,-81.268 -5.407,-79.379L88.203,2.117L93.268,-3.701L0,-84.899Z" style="fill:rgb(0,177,237);fill-rule:nonzero;"/>
                    </g>
                </g>
            </g>
            <g transform="matrix(0.760408,0.649446,-0.649446,0.760408,0,0)">
                <text x="715.236px" y="91.919px" style="font-family:'BarnacleBoy', 'Barnacle Boy';font-size:14.034px;fill:white;">C<tspan x="725.021px 732.956px 741.179px 746.777px " y="91.919px 91.919px 91.919px 91.919px ">onte</tspan>nido</text>
            </g>
            <g transform="matrix(0.760408,0.649446,-0.649446,0.760408,0,0)">
                <text x="746.625px" y="128.671px" style="font-family:'BarnacleBoy', 'Barnacle Boy';font-size:14.034px;fill:white;">E<tspan x="755.086px 763.698px 768.097px " y="128.671px 128.671px 128.671px ">dic</tspan>ión</text>
            </g>
            <g transform="matrix(0.760408,0.649446,-0.649446,0.760408,0,0)">
                <text x="778.933px" y="166.499px" style="font-family:'BarnacleBoy', 'Barnacle Boy';font-size:14.034px;fill:white;">D<tspan x="789.457px " y="166.499px ">i</tspan>fusión</text>
            </g>
        </g>
    </g>
</svg>
