<?xml version="1.0" encoding="UTF-8" standalone="no"?>
<!DOCTYPE svg PUBLIC "-//W3C//DTD SVG 1.1//EN" "http://www.w3.org/Graphics/SVG/1.1/DTD/svg11.dtd">
<svg width="100%" height="100%" viewBox="0 0 692 713" version="1.1" xmlns="http://www.w3.org/2000/svg" xmlns:xlink="http://www.w3.org/1999/xlink" xml:space="preserve" xmlns:serif="http://www.serif.com/" style="fill-rule:evenodd;clip-rule:evenodd;stroke-linejoin:round;stroke-miterlimit:2;">
    <g transform="matrix(1,0,0,1,-217,-1995)">
        <g>
            <g transform="matrix(0,349.221,349.221,0,562.775,2351.41)">
                <ellipse cx="0" cy="-0" rx="1.016" ry="0.984" style="fill:url(#_Radial1);"/>
            </g>
            <g transform="matrix(4.16667,0,0,4.16667,562.77,2704.42)">
                <path d="M0,-169.443C-45.261,-169.443 -82.084,-131.437 -82.084,-84.721C-82.084,-38.006 -45.261,0 0,0C45.262,0 82.084,-38.006 82.084,-84.721C82.084,-131.437 45.262,-169.443 0,-169.443M0,0.799C-45.702,0.799 -82.883,-37.565 -82.883,-84.721C-82.883,-131.878 -45.702,-170.242 0,-170.242C45.702,-170.242 82.884,-131.878 82.884,-84.721C82.884,-37.565 45.702,0.799 0,0.799" style="fill:rgb(35,31,32);fill-rule:nonzero;"/>
            </g>
            <g transform="matrix(4.16667,0,0,4.16667,0,0)">
                <g opacity="0.64">
                    <g transform="matrix(1,0,0,1,194.365,640.129)">
                        <path d="M0,-132.692C4.269,-127.877 7.9,-122.475 11.013,-116.792C13.883,-110.984 16.198,-104.906 17.973,-98.676C19.744,-92.445 20.931,-86.041 21.462,-79.576C21.988,-73.113 21.866,-66.579 20.927,-60.147C20.037,-53.68 18.057,-47.409 15.43,-41.475C12.79,-35.538 9.462,-29.922 5.604,-24.71C1.747,-19.492 -2.666,-14.695 -7.499,-10.366C-12.545,-6.28 -18.024,-2.754 -23.838,0C-18.422,-3.467 -13.398,-7.452 -8.844,-11.882C-4.077,-16.074 0.215,-20.801 3.999,-25.898C7.774,-31 11.029,-36.494 13.604,-42.286C16.168,-48.078 18.089,-54.171 18.95,-60.43C19.866,-66.704 19.985,-73.088 19.472,-79.413C18.952,-85.74 17.789,-92.017 16.051,-98.131C14.318,-104.249 12.016,-110.203 9.24,-115.921C6.706,-121.761 3.627,-127.382 0,-132.692" style="fill:rgb(75,191,238);fill-rule:nonzero;"/>
                    </g>
                </g>
            </g>
            <g transform="matrix(272.598,0,0,-272.598,583.108,2355.15)">
                <path d="M-0.345,1.219C-0.407,1.172 -0.482,1.145 -0.559,1.141C-0.537,1.105 -0.465,1.132 -0.446,1.093C-0.427,1.052 -0.502,1.023 -0.506,0.977C-0.506,0.968 -0.504,0.96 -0.504,0.951C-0.505,0.936 -0.512,0.923 -0.519,0.91C-0.549,0.855 -0.587,0.805 -0.632,0.762C-0.642,0.752 -0.653,0.742 -0.659,0.729C-0.665,0.716 -0.666,0.701 -0.667,0.687C-0.674,0.583 -0.677,0.479 -0.677,0.375C-0.677,0.357 -0.659,0.331 -0.648,0.346C-0.647,0.409 -0.648,0.472 -0.65,0.535C-0.643,0.533 -0.641,0.524 -0.639,0.517C-0.628,0.457 -0.617,0.398 -0.607,0.338C-0.603,0.318 -0.599,0.297 -0.599,0.276C-0.6,0.26 -0.603,0.244 -0.599,0.229C-0.595,0.215 -0.587,0.203 -0.578,0.192C-0.544,0.152 -0.502,0.12 -0.454,0.099C-0.445,0.096 -0.436,0.092 -0.43,0.084C-0.425,0.076 -0.425,0.067 -0.421,0.059C-0.409,0.035 -0.377,0.033 -0.354,0.021C-0.318,0.001 -0.307,-0.046 -0.293,-0.085C-0.279,-0.124 -0.244,-0.167 -0.204,-0.156C-0.195,-0.153 -0.186,-0.148 -0.177,-0.149C-0.16,-0.152 -0.153,-0.173 -0.151,-0.19C-0.149,-0.22 -0.153,-0.251 -0.162,-0.28C-0.208,-0.289 -0.234,-0.346 -0.257,-0.387C-0.264,-0.399 -0.27,-0.411 -0.272,-0.425C-0.274,-0.439 -0.27,-0.453 -0.266,-0.467C-0.242,-0.55 -0.204,-0.629 -0.154,-0.699C-0.133,-0.727 -0.11,-0.756 -0.108,-0.791C-0.107,-0.817 -0.118,-0.843 -0.129,-0.867C-0.16,-0.934 -0.194,-0.999 -0.229,-1.064C-0.243,-1.089 -0.254,-1.126 -0.23,-1.141C-0.252,-1.153 -0.276,-1.17 -0.276,-1.196C-0.276,-1.223 -0.243,-1.242 -0.215,-1.236C-0.188,-1.231 -0.167,-1.21 -0.149,-1.188C-0.132,-1.167 -0.115,-1.143 -0.09,-1.13C-0.08,-1.125 -0.068,-1.121 -0.06,-1.113C-0.051,-1.105 -0.049,-1.089 -0.058,-1.082C-0.033,-1.088 -0.006,-1.094 0.019,-1.088C0.044,-1.082 0.068,-1.06 0.066,-1.034C0.138,-1.034 0.206,-0.998 0.267,-0.959C0.403,-0.871 0.528,-0.764 0.634,-0.642C0.663,-0.609 0.692,-0.561 0.668,-0.524C0.633,-0.473 0.539,-0.51 0.5,-0.462C0.493,-0.453 0.488,-0.441 0.477,-0.436C0.466,-0.43 0.453,-0.435 0.44,-0.439C0.424,-0.444 0.41,-0.449 0.399,-0.438C0.384,-0.421 0.406,-0.397 0.413,-0.374C0.422,-0.341 0.39,-0.31 0.359,-0.297C0.327,-0.283 0.29,-0.277 0.266,-0.253C0.251,-0.238 0.243,-0.218 0.231,-0.202C0.206,-0.168 0.162,-0.15 0.121,-0.156C0.106,-0.158 0.09,-0.162 0.077,-0.156C0.065,-0.152 0.058,-0.14 0.049,-0.132C0.003,-0.087 -0.072,-0.11 -0.131,-0.135C-0.132,-0.116 -0.155,-0.108 -0.174,-0.108C-0.193,-0.108 -0.213,-0.113 -0.229,-0.103C-0.255,-0.087 -0.251,-0.049 -0.245,-0.02C-0.239,0.01 -0.24,0.05 -0.269,0.059C-0.29,0.067 -0.325,0.06 -0.326,0.082C-0.326,0.088 -0.322,0.093 -0.319,0.098C-0.302,0.124 -0.286,0.15 -0.269,0.176C-0.272,0.197 -0.3,0.206 -0.32,0.198C-0.34,0.191 -0.355,0.174 -0.371,0.161C-0.388,0.148 -0.412,0.139 -0.431,0.15C-0.447,0.159 -0.452,0.18 -0.455,0.198C-0.462,0.233 -0.467,0.277 -0.439,0.3C-0.433,0.305 -0.425,0.309 -0.42,0.315C-0.413,0.324 -0.411,0.337 -0.407,0.348C-0.394,0.388 -0.342,0.409 -0.304,0.391C-0.309,0.36 -0.263,0.347 -0.232,0.353C-0.2,0.359 -0.159,0.367 -0.143,0.339C-0.132,0.32 -0.141,0.296 -0.139,0.274C-0.137,0.252 -0.106,0.231 -0.096,0.251C-0.072,0.28 -0.102,0.329 -0.078,0.358C-0.065,0.375 -0.04,0.376 -0.02,0.385C0.017,0.4 0.036,0.446 0.023,0.482C0.056,0.476 0.093,0.492 0.111,0.521C0.118,0.533 0.122,0.547 0.132,0.556C0.148,0.571 0.171,0.57 0.193,0.569C0.199,0.569 0.205,0.568 0.211,0.569C0.238,0.569 0.272,0.59 0.262,0.615C0.251,0.618 0.239,0.62 0.228,0.623C0.229,0.635 0.23,0.647 0.232,0.659C0.216,0.661 0.201,0.669 0.19,0.681C0.204,0.698 0.227,0.696 0.25,0.694C0.261,0.693 0.271,0.692 0.281,0.693C0.306,0.695 0.329,0.71 0.341,0.732C0.338,0.728 0.324,0.743 0.321,0.747C0.296,0.773 0.274,0.802 0.252,0.832L0.224,0.868C0.214,0.857 0.203,0.846 0.193,0.834C0.184,0.838 0.175,0.843 0.166,0.847C0.169,0.858 0.172,0.869 0.17,0.88C0.166,0.901 0.14,0.914 0.121,0.905C0.102,0.895 0.097,0.865 0.114,0.851C0.092,0.847 0.075,0.825 0.077,0.803C0.065,0.813 0.047,0.798 0.041,0.783C0.036,0.768 0.034,0.749 0.02,0.742C0.002,0.749 -0.009,0.769 -0.005,0.788C-0.004,0.795 -0,0.802 -0.001,0.809C-0.002,0.827 -0.022,0.834 -0.038,0.841C-0.062,0.851 -0.084,0.869 -0.091,0.893C-0.098,0.918 -0.083,0.949 -0.058,0.953C-0.04,0.955 -0.024,0.944 -0.008,0.938C0.008,0.931 0.03,0.929 0.04,0.943C0.044,0.949 0.045,0.956 0.05,0.96C0.062,0.97 0.078,0.959 0.088,0.948C0.095,0.966 0.081,0.988 0.062,0.991C0.072,1.016 0.11,1.025 0.13,1.007C0.151,0.99 0.147,0.951 0.123,0.938C0.147,0.922 0.174,0.911 0.201,0.907L0.203,0.933C0.227,0.925 0.255,0.937 0.265,0.96C0.233,0.973 0.206,0.996 0.188,1.025C0.183,1.033 0.179,1.042 0.171,1.047C0.161,1.053 0.148,1.052 0.136,1.051C0.12,1.049 0.106,1.048 0.099,1.061C0.096,1.066 0.096,1.072 0.094,1.077C0.089,1.09 0.07,1.095 0.059,1.086C0.049,1.078 0.049,1.059 0.06,1.051C0.056,1.041 0.045,1.034 0.035,1.034C0.028,1.061 0.036,1.091 0.055,1.11C0.035,1.119 0.011,1.116 -0.007,1.104C-0.006,1.095 -0.004,1.086 -0.003,1.077C-0.015,1.069 -0.029,1.065 -0.043,1.067C-0.031,1.074 -0.026,1.092 -0.034,1.103C-0.042,1.115 -0.06,1.118 -0.071,1.109C-0.071,1.123 -0.075,1.137 -0.083,1.149C-0.108,1.138 -0.129,1.118 -0.141,1.093C-0.156,1.106 -0.165,1.124 -0.179,1.138C-0.193,1.152 -0.218,1.16 -0.232,1.146C-0.22,1.173 -0.24,1.205 -0.266,1.219C-0.268,1.227 -0.27,1.235 -0.272,1.243C-0.277,1.245 -0.282,1.246 -0.287,1.246C-0.307,1.246 -0.327,1.231 -0.345,1.219ZM0.341,0.732C0.341,0.732 0.341,0.732 0.341,0.733C0.341,0.732 0.341,0.732 0.341,0.732Z" style="fill:url(#_Radial2);fill-rule:nonzero;"/>
            </g>
            <g transform="matrix(4.16667,0,0,4.16667,568.278,2309.42)">
                <path d="M0,3.205C-2.168,-0.512 -6.998,-2.44 -11.129,-1.237C-9.658,0.924 -5.805,0.072 -4.296,2.208C-3.97,2.67 -3.799,3.224 -3.503,3.705C-2.348,5.582 0.832,5.645 2.06,3.815C1.639,2.922 0.721,2.283 -0.263,2.198" style="fill:rgb(179,205,124);fill-rule:nonzero;"/>
            </g>
            <g transform="matrix(-0.811262,-4.08693,-4.08693,0.811262,587.002,2331.7)">
                <path d="M-2.647,-3.361C-1.455,-2.688 -0.969,-1.156 -1.132,0.202C-1.294,1.561 -1.976,2.794 -2.647,3.989C-3.936,1.25 -4.768,-1.703 -5.099,-4.712C-3.684,-4.418 -2.393,-3.568 -1.563,-2.386" style="fill:rgb(179,205,124);fill-rule:nonzero;"/>
            </g>
            <g transform="matrix(4.16667,0,0,4.16667,651.601,2096.02)">
                <path d="M0,-6.505C1.075,-5.393 1.045,-3.275 2.49,-2.722C2.851,-2.584 3.276,-2.567 3.562,-2.306C4.151,-1.769 3.669,-0.804 3.731,-0.009C3.795,0.818 4.47,1.447 5.099,1.987C7.102,3.712 9.105,5.435 11.109,7.159C12.111,6.129 11.304,4.369 11.727,2.996C12.314,1.089 15.185,0.138 14.919,-1.84C14.671,-3.691 12.047,-3.929 10.718,-5.24C9.837,-6.11 9.592,-7.558 10.138,-8.668C10.476,-9.356 11.085,-10.154 10.641,-10.779C10.506,-10.97 10.295,-11.09 10.088,-11.197C6.384,-13.122 -2.925,-13.664 -5.345,-9.276C-3.722,-8.44 -1.292,-7.841 0,-6.505" style="fill:rgb(44,144,79);fill-rule:nonzero;"/>
            </g>
            <g transform="matrix(4.16667,0,0,4.16667,0,0)">
                <g opacity="0.71">
                    <g transform="matrix(1,0,0,1,137.691,492.388)">
                        <path d="M0,-12.83C-5.008,-12.83 -8.461,-11.963 -8.796,-10.309C-9.375,-7.453 -0.478,-3.141 10.631,-0.891C21.739,1.359 31.612,0.847 32.191,-2.009C32.769,-4.864 23.873,-9.177 12.764,-11.427C8.091,-12.373 3.636,-12.83 0,-12.83M23.392,0.937C19.767,0.937 15.329,0.469 10.551,-0.499C-1.16,-2.871 -9.831,-7.215 -9.188,-10.388C-8.544,-13.561 1.133,-14.189 12.844,-11.818C24.555,-9.446 33.225,-5.102 32.583,-1.929C32.202,-0.051 28.653,0.937 23.392,0.937" style="fill:white;fill-rule:nonzero;"/>
                    </g>
                    <g transform="matrix(1,0,0,1,172.509,484.857)">
                        <path d="M0,22.662C-8.864,22.663 -19.578,21.122 -27.149,19.796C-53.797,15.134 -66.089,8.443 -64.731,-0.657L-64.255,-0.776C-65.574,8.064 -53.469,14.785 -27.081,19.403C-4.018,23.438 10.8,23.226 14.649,18.806C15.675,17.626 15.905,16.124 15.331,14.342L15.759,14.591C16.379,16.516 16.075,17.775 14.95,19.067C12.627,21.736 6.869,22.662 0,22.662" style="fill:white;fill-rule:nonzero;"/>
                    </g>
                    <g transform="matrix(1,0,0,1,178.682,496.812)">
                        <path d="M0,28.799C-9.584,28.799 -21.739,27.545 -36.046,25.034C-63.85,20.156 -82.36,12.855 -88.166,4.477C-89.815,2.097 -90.411,-0.206 -89.958,-2.624L-89.531,-2.828C-89.963,-0.518 -89.423,1.96 -87.838,4.249C-82.093,12.539 -63.676,19.781 -35.978,24.642C3.828,31.627 16.909,27.351 21.165,24.181C22.828,22.942 23.86,20.88 24.062,19.154L24.471,19.731C24.255,21.57 23.158,23.195 21.403,24.501C17.56,27.364 10.25,28.798 0,28.799" style="fill:white;fill-rule:nonzero;"/>
                    </g>
                    <g transform="matrix(1,0,0,1,180.92,508.857)">
                        <path d="M0,37.913C-11.711,37.913 -26.063,36.496 -42.155,33.593C-84.88,25.882 -107.664,10.941 -108.121,0.066L-107.73,-0.305C-107.494,5.334 -101.297,11.961 -90.24,17.894C-78.093,24.414 -61.441,29.706 -42.083,33.199C-21.898,36.842 -4.166,38.218 9.198,37.181C22.44,36.152 30.347,32.433 31.84,27.233L32.063,27.847C30.147,34.517 18.331,37.913 0,37.913" style="fill:white;fill-rule:nonzero;"/>
                    </g>
                    <g transform="matrix(1,0,0,1,181.957,528.303)">
                        <path d="M0,41.134C-12.201,41.134 -27.61,39.442 -46.573,35.302C-72.746,29.589 -88.723,24.959 -99.997,19.821C-112.114,14.298 -118.668,8.264 -121.384,0.021L-121.068,-0.444C-118.391,7.685 -111.838,13.985 -99.831,19.457C-88.584,24.583 -72.631,29.205 -46.488,34.912C-24.49,39.714 -5.087,41.578 9.624,40.306C22.142,39.222 31.392,35.592 35.318,30.57L35.375,31.238C30.965,36.879 19.697,41.134 0,41.134" style="fill:white;fill-rule:nonzero;"/>
                    </g>
                    <g transform="matrix(1,0,0,1,178.277,547.781)">
                        <path d="M0,43.439C-14.741,43.439 -31.827,41.423 -47.369,37.827C-49.069,37.432 -50.788,37.039 -52.519,36.642C-82.847,29.684 -116.767,22.925 -124.228,1.95L-123.651,-0.726C-116.485,19.423 -82.089,28.218 -52.161,35.084C-50.429,35.481 -48.71,35.876 -47.008,36.269C-14.005,43.908 27.273,44.165 37.846,32.165L37.4,34.617C30.683,42.242 15.258,43.189 2.812,43.414C1.885,43.431 0.947,43.439 0,43.439" style="fill:white;fill-rule:nonzero;"/>
                    </g>
                    <g transform="matrix(1,0,0,1,173.392,574.192)">
                        <path d="M0,35.739C-0.502,35.739 -1.009,35.737 -1.52,35.733C-15.277,35.622 -31.714,33.97 -46.616,31.202C-71.758,26.531 -104.275,15.51 -120.138,-1.413L-120.159,-2.032C-109.802,9.017 -84.793,23.703 -46.542,30.809C-17.771,36.154 20.238,37.771 34.908,29.13L34.611,29.799C27.863,33.774 16.006,35.739 0,35.739" style="fill:white;fill-rule:nonzero;"/>
                    </g>
                    <g transform="matrix(1,0,0,1,170.953,597.357)">
                        <path d="M0,29.847C-14.521,29.847 -32.249,27.386 -47.248,24.705C-74.129,19.902 -101.563,6.186 -112.457,-2.02L-112.666,-2.714C-101.803,5.468 -73.994,19.52 -47.178,24.312C-22.455,28.73 9.699,32.561 22.484,25.726L22.672,26.078C17.585,28.798 9.474,29.847 0,29.847" style="fill:white;fill-rule:nonzero;"/>
                    </g>
                    <g transform="matrix(1,0,0,1,157.24,616.203)">
                        <path d="M0,23.66C-7.914,23.66 -19.12,22.595 -36.108,19.293C-65.981,13.486 -68.685,11.674 -78.743,4.931C-81.294,3.222 -84.186,1.283 -88.113,-1.135L-88.715,-2.012C-84.781,0.411 -81.075,2.888 -78.52,4.599C-68.515,11.306 -65.826,13.109 -36.031,18.9C-1.192,25.672 9.251,23.02 16.877,21.085C17.402,20.951 21.469,20.058 21.979,19.933L21.217,20.435C20.708,20.56 17.499,21.339 16.976,21.472C13.04,22.472 8.356,23.66 0,23.66" style="fill:white;fill-rule:nonzero;"/>
                    </g>
                    <g transform="matrix(1,0,0,1,149.879,632.699)">
                        <path d="M0,14.787C-7.463,14.787 -18.374,13.211 -31.13,10.272C-42.743,7.597 -55.069,3.865 -62.475,0.911L-63.534,0C-56.146,2.948 -42.635,7.212 -31.041,9.883C-16.931,13.134 -5.095,14.716 2.292,14.332L2.313,14.73C1.584,14.768 0.812,14.787 0,14.787" style="fill:white;fill-rule:nonzero;"/>
                    </g>
                    <g transform="matrix(-0.983182,-0.182627,-0.182627,0.983182,162.099,495.587)">
                        <rect x="14.157" y="-1.304" width="0.339" height="158.719" style="fill:white;"/>
                    </g>
                    <g transform="matrix(1,0,0,1,126.534,492.801)">
                        <path d="M0,156.05L-0.46,156.009C13.314,136.523 22.744,112.28 27.304,84.329C31.549,58.303 31.565,29.949 27.349,0.057L27.744,0C31.966,29.934 31.951,58.327 27.698,84.394C23.128,112.405 13.809,136.514 0,156.05" style="fill:white;fill-rule:nonzero;"/>
                    </g>
                    <g transform="matrix(1,0,0,1,136.796,493.004)">
                        <path d="M0,156.307L-0.65,156.251C9.932,148.803 25.379,134.493 35.09,97.951C39.141,82.706 39.79,64.811 36.966,46.199C34.366,29.066 28.992,12.73 21.833,0.199L22.181,0C29.363,12.574 34.754,28.959 37.361,46.139C40.193,64.804 39.541,82.756 35.476,98.053C25.731,134.721 10.632,148.823 0,156.307" style="fill:white;fill-rule:nonzero;"/>
                    </g>
                    <g transform="matrix(1,0,0,1,152.066,492.851)">
                        <path d="M0,154.66L-0.215,154.323C-0.147,154.28 6.673,149.887 14.631,140.722C21.975,132.265 31.818,117.901 37.007,97.492C42.543,75.715 37.716,53.95 32.691,39.527C26.333,21.275 17.059,6.97 11.049,0.266L11.346,0C17.381,6.73 26.691,21.088 33.069,39.395C38.112,53.871 42.955,75.717 37.394,97.591C32.184,118.083 22.298,132.506 14.922,140.996C6.927,150.199 0.068,154.616 0,154.66" style="fill:white;fill-rule:nonzero;"/>
                    </g>
                    <g transform="matrix(1,0,0,1,168.404,492.443)">
                        <path d="M0,149.734L-1.078,150.049C-0.669,149.92 22.059,133.44 33.93,94.774C39.11,77.897 36.749,58.306 27.1,38.121C19.084,21.351 7.662,7.422 -0.354,-0.023L-0.083,-0.315C7.961,7.154 19.42,21.128 27.46,37.948C37.153,58.226 39.522,77.917 34.311,94.891C22.395,133.709 0.194,149.605 0,149.734" style="fill:white;fill-rule:nonzero;"/>
                    </g>
                    <g transform="matrix(1,0,0,1,110.794,490.774)">
                        <path d="M0,154.727C-6.94,129.93 -4.722,115.824 -2.375,100.888C-1.728,96.773 -1.058,92.517 -0.61,88.059C1.568,66.377 13.573,29.084 32.301,-0.243L32.638,-0.027C13.943,29.247 1.961,66.464 -0.213,88.099C-0.662,92.568 -1.332,96.829 -1.98,100.951C-4.321,115.84 -6.446,130.256 0.471,154.97L0,154.727Z" style="fill:white;fill-rule:nonzero;"/>
                    </g>
                    <g transform="matrix(1,0,0,1,194.605,495.489)">
                        <path d="M0,127.659L-6.244,133.624C-5.466,132.413 -0.324,125.22 0.462,124.139C4.006,119.272 8.021,113.756 16.925,87.703C23.239,69.226 16.605,50.171 9.928,37.439C1.967,22.26 -10.553,7.091 -24.807,-4.349L-24.417,-5.965C-9.998,5.606 3.284,21.329 11.343,36.697C21.127,55.353 23.581,73.17 18.437,88.22C9.456,114.501 5.364,120.122 1.754,125.08C0.982,126.14 0.752,126.487 0,127.659" style="fill:white;fill-rule:nonzero;"/>
                    </g>
                    <g transform="matrix(1,0,0,1,104.463,489.06)">
                        <path d="M0,154.249C-7.789,148.1 -12.613,139.337 -14.839,127.331C-16.89,116.27 -16.691,102.4 -14.23,84.928C-11.969,68.866 -6.047,52.023 2.894,36.221C11.497,21.018 22.128,8.093 33.262,-0.409L33.742,-0.221C22.649,8.249 11.818,21.261 3.242,36.417C-5.675,52.177 -11.581,68.971 -13.835,84.983C-16.29,102.412 -16.489,116.24 -14.446,127.258C-12.239,139.165 -6.482,148.571 1.226,154.658L0,154.249Z" style="fill:white;fill-rule:nonzero;"/>
                    </g>
                    <g transform="matrix(1,0,0,1,90.5078,487.369)">
                        <path d="M0,148.415C-0.056,148.347 -5.62,141.556 -10.442,129.769C-14.891,118.894 -19.528,101.541 -16.354,80.631C-12.701,56.572 -2.009,38.678 6.318,27.902C17.148,13.888 30.268,3.583 43.036,-0.595L43.575,-0.345C30.881,3.809 17.417,14.193 6.634,28.147C-1.663,38.885 -12.319,56.718 -15.958,80.69C-19.119,101.504 -14.505,118.778 -10.078,129.604C-5.279,141.339 0.929,148.941 0.985,149.01L0,148.415Z" style="fill:white;fill-rule:nonzero;"/>
                    </g>
                    <g transform="matrix(1,0,0,1,76.3114,485.487)">
                        <path d="M0,138.293C-0.045,138.236 -4.636,132.631 -8.553,122.059C-12.164,112.31 -16.017,96.257 -13.86,75.147C-11.512,52.148 1.608,34.868 12.201,24.423C24.16,12.629 39.559,2.972 53.392,-1.412L53.513,-1.031C39.737,3.334 24.398,12.956 12.481,24.707C1.936,35.106 -11.126,52.306 -13.463,75.188C-15.61,96.211 -11.778,112.194 -8.185,121.901C-4.292,132.419 1.386,139.649 1.431,139.705L0,138.293Z" style="fill:white;fill-rule:nonzero;"/>
                    </g>
                    <g transform="matrix(1,0,0,1,59.1602,483.483)">
                        <path d="M0,113.371C-0.081,113.261 -1.779,110.048 -3.148,103.121C-4.408,96.754 -5.401,85.437 -2.983,67.684C-0.744,51.245 7.789,35.754 21.693,22.885C34.789,10.764 51.78,1.976 69.54,-1.858L69.624,-1.467C51.934,2.351 35.008,11.104 21.964,23.178C8.129,35.983 -0.36,51.392 -2.587,67.737C-4.998,85.437 -4.01,96.707 -2.756,103.044C-1.404,109.884 0.742,115.203 0.762,115.229L0,113.371Z" style="fill:white;fill-rule:nonzero;"/>
                    </g>
                </g>
            </g>
            <g transform="matrix(4.12508,0.587187,0.587187,-4.12508,274.876,2167.31)">
                <path d="M0.079,-0.005C-0.111,0.183 -0.299,0.371 -0.488,0.561L0.079,1.123C0.266,0.935 0.453,0.749 0.641,0.563L0.079,-0.005Z" style="fill:white;fill-rule:nonzero;"/>
            </g>
            <g transform="matrix(4.16667,0,0,4.16667,283.486,2180.65)">
                <path d="M0,-0.679C-0.34,-1.089 -0.676,-1.503 -1.007,-1.921L-0.382,-2.418C-0.053,-2.004 0.279,-1.594 0.615,-1.189L0,-0.679ZM2.093,1.739C1.735,1.343 1.382,0.944 1.033,0.542L1.637,0.018C1.982,0.417 2.332,0.811 2.686,1.203L2.093,1.739Z" style="fill:white;fill-rule:nonzero;"/>
            </g>
            <g transform="matrix(4.16667,0,0,4.16667,301.371,2326.57)">
                <path d="M0,-30.963C-0.376,-31.341 -0.747,-31.723 -1.112,-32.109L-0.532,-32.658C-0.17,-32.277 0.195,-31.9 0.566,-31.526L0,-30.963ZM2.306,-28.748C1.912,-29.109 1.523,-29.474 1.14,-29.842L1.693,-30.418C2.072,-30.055 2.457,-29.694 2.846,-29.337L2.306,-28.748ZM4.716,-26.644C4.304,-26.985 3.899,-27.332 3.499,-27.682L4.024,-28.283C4.419,-27.939 4.82,-27.596 5.227,-27.258L4.716,-26.644ZM7.22,-24.653C6.792,-24.978 6.371,-25.304 5.956,-25.634L6.453,-26.26C6.863,-25.934 7.28,-25.611 7.702,-25.291L7.22,-24.653ZM9.812,-22.782C9.37,-23.086 8.935,-23.393 8.505,-23.703L8.973,-24.351C9.397,-24.044 9.828,-23.74 10.265,-23.44L9.812,-22.782ZM12.481,-21.025C12.027,-21.311 11.579,-21.599 11.137,-21.889L11.577,-22.557C12.014,-22.269 12.458,-21.984 12.907,-21.701L12.481,-21.025ZM15.222,-19.381C14.757,-19.649 14.297,-19.918 13.844,-20.19L14.255,-20.875C14.704,-20.606 15.159,-20.339 15.62,-20.074L15.222,-19.381ZM18.023,-17.845C17.548,-18.094 17.079,-18.346 16.616,-18.6L17,-19.301C17.459,-19.049 17.924,-18.8 18.395,-18.553L18.023,-17.845ZM20.877,-16.41C20.394,-16.644 19.916,-16.878 19.444,-17.115L19.803,-17.829C20.271,-17.595 20.744,-17.361 21.224,-17.131L20.877,-16.41ZM23.776,-15.071C23.285,-15.288 22.8,-15.508 22.321,-15.73L22.656,-16.455C23.131,-16.235 23.612,-16.018 24.099,-15.802L23.776,-15.071ZM26.713,-13.822C26.217,-14.026 25.726,-14.231 25.24,-14.437L25.553,-15.172C26.035,-14.967 26.522,-14.764 27.015,-14.563L26.713,-13.822ZM29.683,-12.655C29.181,-12.845 28.685,-13.036 28.194,-13.23L28.486,-13.973C28.974,-13.781 29.467,-13.591 29.965,-13.403L29.683,-12.655ZM32.681,-11.565C32.175,-11.741 31.674,-11.92 31.179,-12.101L31.452,-12.852C31.944,-12.672 32.442,-12.494 32.945,-12.318L32.681,-11.565ZM35.702,-10.542C35.192,-10.709 34.688,-10.876 34.188,-11.045L34.444,-11.802C34.941,-11.634 35.442,-11.468 35.95,-11.303L35.702,-10.542ZM38.744,-9.584C38.23,-9.74 37.723,-9.898 37.22,-10.056L37.46,-10.817C37.96,-10.66 38.465,-10.504 38.975,-10.349L38.744,-9.584ZM41.801,-8.686C41.286,-8.832 40.776,-8.98 40.27,-9.129L40.496,-9.895C40.999,-9.747 41.507,-9.601 42.02,-9.454L41.801,-8.686ZM44.875,-7.84C44.357,-7.978 43.844,-8.116 43.336,-8.257L43.548,-9.026C44.054,-8.888 44.565,-8.749 45.08,-8.612L44.875,-7.84ZM47.96,-7.044C47.441,-7.174 46.927,-7.305 46.416,-7.436L46.616,-8.21C47.124,-8.078 47.637,-7.948 48.154,-7.818L47.96,-7.044ZM51.057,-6.292C50.536,-6.415 50.02,-6.538 49.507,-6.662L49.695,-7.439C50.206,-7.316 50.721,-7.192 51.24,-7.069L51.057,-6.292ZM140.01,-5.968L139.578,-6.64C140.018,-6.922 140.457,-7.217 140.884,-7.517L141.342,-6.861C140.907,-6.557 140.458,-6.256 140.01,-5.968M54.163,-5.582C53.641,-5.698 53.123,-5.815 52.609,-5.933L52.787,-6.711C53.299,-6.595 53.816,-6.479 54.336,-6.362L54.163,-5.582ZM57.277,-4.91C56.754,-5.021 56.234,-5.131 55.719,-5.242L55.888,-6.023C56.401,-5.912 56.919,-5.802 57.441,-5.692L57.277,-4.91ZM137.243,-4.336L136.865,-5.04C137.327,-5.289 137.789,-5.549 138.237,-5.813L138.643,-5.125C138.186,-4.856 137.715,-4.59 137.243,-4.336M60.398,-4.275C59.874,-4.378 59.353,-4.484 58.836,-4.589L58.997,-5.371C59.511,-5.267 60.03,-5.162 60.554,-5.058L60.398,-4.275ZM63.526,-3.67C63,-3.769 62.479,-3.868 61.961,-3.969L62.112,-4.753C62.629,-4.653 63.149,-4.554 63.673,-4.455L63.526,-3.67ZM66.656,-3.092L65.091,-3.379L65.236,-4.164L66.8,-3.877L66.656,-3.092ZM134.359,-2.924L134.034,-3.654C134.513,-3.866 134.994,-4.091 135.463,-4.32L135.814,-3.603C135.336,-3.368 134.846,-3.14 134.359,-2.924M69.79,-2.53L68.223,-2.809L68.363,-3.595L69.928,-3.317L69.79,-2.53ZM72.928,-1.986C72.407,-2.075 71.884,-2.165 71.358,-2.256L71.495,-3.043C72.019,-2.952 72.542,-2.862 73.061,-2.775L72.928,-1.986ZM131.381,-1.729L131.11,-2.48C131.609,-2.66 132.104,-2.849 132.583,-3.04L132.88,-2.299C132.394,-2.104 131.889,-1.912 131.381,-1.729M76.068,-1.466C75.548,-1.55 75.024,-1.636 74.497,-1.724L74.628,-2.512C75.154,-2.424 75.677,-2.339 76.196,-2.254L76.068,-1.466ZM79.214,-0.968C78.693,-1.048 78.168,-1.13 77.641,-1.214L77.766,-2.002C78.292,-1.919 78.815,-1.837 79.335,-1.758L79.214,-0.968ZM128.33,-0.742L128.109,-1.51C128.618,-1.656 129.121,-1.81 129.618,-1.97L129.863,-1.21C129.358,-1.047 128.847,-0.891 128.33,-0.742M82.364,-0.498C81.842,-0.573 81.316,-0.651 80.789,-0.729L80.906,-1.52C81.434,-1.441 81.958,-1.363 82.478,-1.288L82.364,-0.498ZM85.52,-0.059C84.997,-0.129 84.471,-0.2 83.941,-0.275L84.051,-1.066C84.579,-0.992 85.104,-0.921 85.625,-0.851L85.52,-0.059ZM125.226,0.05L125.051,-0.731C125.568,-0.846 126.08,-0.969 126.586,-1.097L126.783,-0.322C126.27,-0.192 125.75,-0.068 125.226,0.05M88.679,0.345C88.156,0.28 87.629,0.215 87.099,0.147L87.199,-0.646C87.729,-0.578 88.254,-0.513 88.776,-0.449L88.679,0.345ZM122.083,0.663L121.95,-0.125C122.474,-0.213 122.993,-0.307 123.505,-0.407L123.658,0.377C123.139,0.478 122.614,0.573 122.083,0.663M91.845,0.708C91.321,0.651 90.793,0.593 90.262,0.531L90.353,-0.262C90.883,-0.201 91.409,-0.143 91.932,-0.086L91.845,0.708ZM95.017,1.026C94.492,0.977 93.963,0.927 93.431,0.873L93.51,0.078C94.041,0.132 94.568,0.183 95.09,0.23L95.017,1.026ZM118.916,1.116L118.821,0.322C119.349,0.26 119.872,0.19 120.389,0.117L120.501,0.908C119.979,0.982 119.45,1.052 118.916,1.116M98.194,1.291C97.668,1.252 97.139,1.21 96.605,1.165L96.671,0.369C97.203,0.413 97.73,0.455 98.254,0.494L98.194,1.291ZM115.734,1.428L115.672,0.631C116.203,0.59 116.729,0.544 117.249,0.493L117.327,1.289C116.801,1.34 116.27,1.386 115.734,1.428M101.377,1.498C100.851,1.469 100.32,1.437 99.785,1.402L99.836,0.605C100.369,0.64 100.896,0.672 101.42,0.699L101.377,1.498ZM112.544,1.615L112.511,0.816C113.043,0.795 113.57,0.768 114.093,0.738L114.14,1.535C113.613,1.566 113.081,1.593 112.544,1.615M104.563,1.635C104.037,1.618 103.505,1.599 102.97,1.575L103.005,0.776C103.537,0.8 104.065,0.82 104.589,0.837L104.563,1.635ZM109.351,1.693L109.344,0.894C109.877,0.89 110.405,0.881 110.928,0.868L110.947,1.667C110.42,1.68 109.888,1.688 109.351,1.693M107.754,1.695C107.228,1.692 106.695,1.686 106.159,1.676L106.174,0.877C106.707,0.887 107.235,0.893 107.758,0.896L107.754,1.695Z" style="fill:white;fill-rule:nonzero;"/>
            </g>
            <g transform="matrix(-2.52078,-3.31764,-3.31764,2.52078,898.245,2290.41)">
                <path d="M-0.324,0.961L0.477,0.961C0.476,0.697 0.478,0.434 0.484,0.171L-0.316,0.154C-0.321,0.423 -0.323,0.692 -0.324,0.961" style="fill:white;fill-rule:nonzero;"/>
            </g>
            <g transform="matrix(4.16667,0,0,4.16667,237.105,2572.36)">
                <path d="M0,-32.25C-0.435,-32.568 -0.866,-32.884 -1.291,-33.198L-0.815,-33.84C-0.392,-33.527 0.037,-33.213 0.471,-32.896L0,-32.25ZM2.603,-30.384C2.163,-30.694 1.728,-31.004 1.298,-31.313L1.764,-31.961C2.192,-31.654 2.625,-31.346 3.063,-31.037L2.603,-30.384ZM5.233,-28.558C4.789,-28.861 4.349,-29.163 3.914,-29.466L4.37,-30.122C4.803,-29.821 5.241,-29.52 5.684,-29.217L5.233,-28.558ZM7.894,-26.775C7.445,-27.07 7,-27.366 6.56,-27.66L7.004,-28.324C7.443,-28.03 7.886,-27.736 8.333,-27.442L7.894,-26.775ZM10.586,-25.039C10.132,-25.326 9.682,-25.614 9.237,-25.901L9.67,-26.572C10.113,-26.286 10.561,-26.001 11.014,-25.714L10.586,-25.039ZM13.31,-23.353C12.851,-23.631 12.396,-23.91 11.945,-24.189L12.365,-24.869C12.814,-24.591 13.268,-24.313 13.725,-24.036L13.31,-23.353ZM16.066,-21.718C15.601,-21.987 15.141,-22.258 14.685,-22.528L15.092,-23.216C15.546,-22.946 16.004,-22.678 16.467,-22.409L16.066,-21.718ZM18.852,-20.136C18.382,-20.396 17.917,-20.658 17.455,-20.921L17.85,-21.615C18.309,-21.355 18.772,-21.095 19.24,-20.835L18.852,-20.136ZM21.67,-18.61C21.195,-18.862 20.724,-19.113 20.257,-19.367L20.638,-20.069C21.103,-19.817 21.571,-19.566 22.043,-19.316L21.67,-18.61ZM24.517,-17.142C24.038,-17.383 23.562,-17.626 23.09,-17.869L23.456,-18.579C23.926,-18.337 24.399,-18.096 24.876,-17.855L24.517,-17.142ZM27.395,-15.731C26.911,-15.963 26.43,-16.195 25.952,-16.43L26.304,-17.146C26.779,-16.914 27.257,-16.683 27.739,-16.453L27.395,-15.731ZM30.3,-14.381C29.811,-14.603 29.326,-14.824 28.844,-15.049L29.181,-15.773C29.66,-15.551 30.144,-15.329 30.629,-15.108L30.3,-14.381ZM33.233,-13.091C32.74,-13.303 32.25,-13.515 31.763,-13.729L32.085,-14.46C32.569,-14.247 33.057,-14.036 33.547,-13.825L33.233,-13.091ZM36.193,-11.862C35.695,-12.063 35.201,-12.266 34.71,-12.469L35.017,-13.207C35.504,-13.004 35.997,-12.804 36.491,-12.604L36.193,-11.862ZM39.178,-10.697C38.676,-10.888 38.178,-11.079 37.683,-11.272L37.973,-12.017C38.466,-11.824 38.961,-11.634 39.461,-11.444L39.178,-10.697ZM42.186,-9.595C41.681,-9.774 41.178,-9.955 40.679,-10.139L40.954,-10.889C41.45,-10.707 41.95,-10.526 42.453,-10.348L42.186,-9.595ZM45.217,-8.556C44.708,-8.724 44.202,-8.895 43.699,-9.066L43.958,-9.823C44.459,-9.651 44.962,-9.481 45.469,-9.313L45.217,-8.556ZM48.27,-7.579C47.757,-7.737 47.248,-7.897 46.741,-8.06L46.984,-8.82C47.488,-8.659 47.995,-8.5 48.505,-8.344L48.27,-7.579ZM51.341,-6.668C50.826,-6.814 50.313,-6.964 49.803,-7.115L50.031,-7.882C50.538,-7.731 51.047,-7.583 51.561,-7.437L51.341,-6.668ZM54.431,-5.82C53.912,-5.956 53.396,-6.096 52.884,-6.236L53.095,-7.007C53.605,-6.866 54.118,-6.729 54.634,-6.593L54.431,-5.82ZM57.538,-5.036C57.016,-5.161 56.498,-5.289 55.982,-5.42L56.178,-6.194C56.691,-6.065 57.207,-5.938 57.725,-5.813L57.538,-5.036ZM60.659,-4.314C60.135,-4.431 59.614,-4.547 59.096,-4.667L59.276,-5.446C59.792,-5.326 60.31,-5.21 60.831,-5.095L60.659,-4.314ZM63.794,-3.657C63.269,-3.762 62.745,-3.869 62.225,-3.979L62.389,-4.76C62.907,-4.651 63.427,-4.545 63.951,-4.44L63.794,-3.657ZM66.942,-3.062C66.415,-3.156 65.89,-3.252 65.367,-3.352L65.516,-4.137C66.036,-4.038 66.558,-3.941 67.083,-3.848L66.942,-3.062ZM70.101,-2.527L68.521,-2.788L68.654,-3.576L70.229,-3.316L70.101,-2.527ZM73.261,-2.028C72.735,-2.109 72.208,-2.191 71.681,-2.274L71.805,-3.063C72.332,-2.98 72.857,-2.898 73.382,-2.818L73.261,-2.028ZM76.426,-1.558C75.9,-1.633 75.372,-1.711 74.843,-1.789L74.96,-2.58C75.488,-2.501 76.015,-2.424 76.54,-2.349L76.426,-1.558ZM141.743,-1.119L141.521,-1.887C142.01,-2.027 142.486,-2.176 142.937,-2.326L143.189,-1.568C142.729,-1.414 142.242,-1.263 141.743,-1.119M79.594,-1.113C79.068,-1.185 78.539,-1.258 78.009,-1.332L78.12,-2.123C78.649,-2.049 79.176,-1.977 79.702,-1.905L79.594,-1.113ZM82.768,-0.699C82.24,-0.766 81.711,-0.833 81.18,-0.903L81.284,-1.695C81.813,-1.626 82.341,-1.558 82.867,-1.491L82.768,-0.699ZM138.616,-0.338L138.447,-1.119C138.977,-1.233 139.492,-1.353 139.992,-1.478L140.185,-0.701C139.677,-0.575 139.154,-0.454 138.616,-0.338M85.945,-0.313C85.417,-0.375 84.887,-0.438 84.356,-0.502L84.452,-1.296C84.982,-1.231 85.511,-1.169 86.037,-1.107L85.945,-0.313ZM89.125,0.041C88.596,-0.016 88.066,-0.073 87.534,-0.132L87.623,-0.927C88.154,-0.867 88.682,-0.81 89.209,-0.754L89.125,0.041ZM135.455,0.257L135.327,-0.532C135.86,-0.619 136.381,-0.711 136.892,-0.806L137.038,-0.021C136.522,0.076 135.995,0.169 135.455,0.257M92.309,0.363C91.78,0.312 91.25,0.26 90.717,0.206L90.797,-0.589C91.329,-0.535 91.858,-0.482 92.386,-0.432L92.309,0.363ZM95.497,0.653C94.967,0.608 94.436,0.562 93.902,0.513L93.975,-0.283C94.507,-0.234 95.037,-0.188 95.564,-0.143L95.497,0.653ZM132.276,0.71L132.178,-0.083C132.713,-0.149 133.239,-0.219 133.755,-0.292L133.868,0.499C133.347,0.573 132.816,0.644 132.276,0.71M98.687,0.908C98.157,0.868 97.625,0.827 97.092,0.785L97.155,-0.012C97.688,0.031 98.218,0.071 98.746,0.111L98.687,0.908ZM129.084,1.049L129.013,0.253C129.549,0.205 130.077,0.152 130.598,0.098L130.681,0.893C130.157,0.947 129.625,1 129.084,1.049M101.881,1.127C101.351,1.094 100.819,1.06 100.283,1.022L100.338,0.225C100.872,0.262 101.403,0.297 101.93,0.329L101.881,1.127ZM125.887,1.295L125.836,0.497C126.373,0.463 126.903,0.427 127.426,0.386L127.487,1.183C126.96,1.223 126.428,1.261 125.887,1.295M105.077,1.308C104.547,1.28 104.014,1.252 103.479,1.222L103.523,0.425C104.058,0.454 104.589,0.482 105.117,0.509L105.077,1.308ZM108.276,1.445C107.746,1.427 107.212,1.405 106.676,1.382L106.711,0.583C107.245,0.606 107.777,0.628 108.305,0.647L108.276,1.445ZM122.687,1.46L122.654,0.662C123.191,0.641 123.721,0.615 124.247,0.589L124.287,1.387C123.76,1.414 123.226,1.438 122.687,1.46M111.476,1.54C110.947,1.528 110.413,1.515 109.875,1.498L109.899,0.699C110.435,0.716 110.966,0.729 111.494,0.741L111.476,1.54ZM119.483,1.556L119.467,0.757C120.003,0.746 120.535,0.732 121.061,0.717L121.084,1.516C120.556,1.531 120.022,1.545 119.483,1.556M114.678,1.586C114.148,1.583 113.615,1.577 113.077,1.569L113.088,0.77C113.625,0.778 114.156,0.784 114.684,0.787L114.678,1.586ZM116.28,1.59L116.278,0.791C116.814,0.79 117.346,0.787 117.873,0.781L117.882,1.58C117.352,1.586 116.818,1.589 116.28,1.59" style="fill:white;fill-rule:nonzero;"/>
            </g>
        </g>
    </g>
    <defs>
        <radialGradient id="_Radial1" cx="0" cy="0" r="1" gradientUnits="userSpaceOnUse" gradientTransform="matrix(-0.127557,1.15518,0.880784,0.0972573,0.127567,-0.155194)"><stop offset="0" style="stop-color:white;stop-opacity:1"/><stop offset="0.48" style="stop-color:rgb(152,208,241);stop-opacity:1"/><stop offset="1" style="stop-color:rgb(18,121,173);stop-opacity:1"/></radialGradient>
        <radialGradient id="_Radial2" cx="0" cy="0" r="1" gradientUnits="userSpaceOnUse" gradientTransform="matrix(1.27415,0.129597,0.0923421,-0.907872,-0.274149,-0.125183)"><stop offset="0" style="stop-color:white;stop-opacity:1"/><stop offset="0.49" style="stop-color:rgb(167,211,131);stop-opacity:1"/><stop offset="1" style="stop-color:rgb(26,157,93);stop-opacity:1"/></radialGradient>
    </defs>
</svg>
