<?xml version="1.0" encoding="UTF-8" standalone="no"?>
<!DOCTYPE svg PUBLIC "-//W3C//DTD SVG 1.1//EN" "http://www.w3.org/Graphics/SVG/1.1/DTD/svg11.dtd">
<svg width="100%" height="100%" viewBox="0 0 237 238" version="1.1" xmlns="http://www.w3.org/2000/svg" xmlns:xlink="http://www.w3.org/1999/xlink" xml:space="preserve" xmlns:serif="http://www.serif.com/" style="fill-rule:evenodd;clip-rule:evenodd;stroke-linejoin:round;stroke-miterlimit:2;">
    <g transform="matrix(1,0,0,1,-844,-2105)">
        <g transform="matrix(4.16667,0,0,4.16667,0,0)">
            <g>
                <clipPath id="_clip1">
                    <path d="M208.358,505.433C205.227,505.433 202.689,507.971 202.689,511.102L202.689,556.457C202.689,559.587 205.227,562.126 208.358,562.126L253.713,562.126C256.844,562.126 259.382,559.587 259.382,556.457L259.382,511.102C259.382,507.971 256.844,505.433 253.713,505.433L208.358,505.433Z" clip-rule="nonzero"/>
                </clipPath>
                <g clip-path="url(#_clip1)">
                    <g transform="matrix(1,0,0,1,0,302.205)">
                        <rect x="202.689" y="203.228" width="56.693" height="56.693" style="fill:white;"/>
                    </g>
                    <g transform="matrix(1,0,0,1,214.741,548.891)">
                        <path d="M0,-29.289C2.265,-29.289 4.088,-31.129 4.088,-33.377C4.088,-35.641 2.249,-37.465 0,-37.465C-2.264,-37.465 -4.087,-35.625 -4.087,-33.377C-4.087,-31.113 -2.248,-29.289 0,-29.289M4.732,-28.283L-4.731,-28.283C-6.037,-28.283 -7.2,-27.748 -8.002,-26.884C-8.662,-26.16 -9.071,-25.202 -9.071,-24.211L-9.071,-12.089C-9.071,-11.209 -8.301,-10.486 -7.373,-10.486C-6.478,-10.486 -5.675,-11.178 -5.675,-12.089L-5.675,-22.057C-5.675,-22.309 -5.455,-22.513 -5.187,-22.513C-4.937,-22.513 -4.7,-22.324 -4.7,-22.057L-4.7,6.18C-4.7,7.28 -3.757,8.176 -2.594,8.176C-1.478,8.176 -0.487,7.327 -0.487,6.18L-0.487,-10.312C-0.487,-10.564 -0.267,-10.768 0,-10.768C0.268,-10.768 0.488,-10.564 0.488,-10.312L0.488,6.18C0.488,7.327 1.479,8.176 2.595,8.176C3.758,8.176 4.701,7.28 4.701,6.18L4.701,-22.057C4.701,-22.324 4.937,-22.513 5.188,-22.513C5.456,-22.513 5.676,-22.309 5.676,-22.057L5.676,-12.089C5.676,-11.178 6.478,-10.486 7.374,-10.486C8.302,-10.486 9.072,-11.209 9.072,-12.089L9.072,-24.211C9.072,-25.202 8.663,-26.16 8.003,-26.884C7.201,-27.732 6.038,-28.283 4.732,-28.283M31.192,-29.289C33.457,-29.289 35.28,-31.129 35.28,-33.377C35.28,-35.641 33.441,-37.465 31.192,-37.465C28.929,-37.465 27.105,-35.625 27.105,-33.377C27.105,-31.113 28.944,-29.289 31.192,-29.289M42.513,-13.567C41.412,-17.45 40.296,-21.334 39.211,-25.233C38.692,-27.072 36.947,-28.268 35.045,-28.283L27.341,-28.283C25.438,-28.268 23.693,-27.057 23.175,-25.233C22.09,-21.35 20.974,-17.45 19.873,-13.567C19.621,-12.718 20.172,-11.838 21.068,-11.602C21.933,-11.382 22.892,-11.853 23.144,-12.733L26.271,-23.77C26.351,-24.022 26.618,-24.164 26.869,-24.102C27.121,-24.038 27.294,-23.786 27.215,-23.535L22.278,-6.131L26.492,-6.131L26.492,6.18C26.492,7.28 27.436,8.176 28.599,8.176C29.715,8.176 30.705,7.327 30.705,6.18L30.705,-5.659C30.705,-5.911 30.926,-6.115 31.192,-6.115C31.46,-6.115 31.681,-5.911 31.681,-5.659L31.681,6.18C31.681,7.327 32.671,8.176 33.787,8.176C34.95,8.176 35.894,7.28 35.894,6.18L35.894,-6.131L40.107,-6.131L35.171,-23.535C35.107,-23.786 35.265,-24.038 35.517,-24.102C35.783,-24.164 36.051,-24.022 36.114,-23.77L39.242,-12.733C39.494,-11.853 40.453,-11.382 41.317,-11.602C42.214,-11.822 42.749,-12.718 42.513,-13.567M13.396,8.176L16.21,8.176L16.21,-37.465L13.396,-37.465L13.396,8.176Z" style="fill:rgb(35,31,32);fill-rule:nonzero;"/>
                    </g>
                </g>
            </g>
        </g>
    </g>
</svg>
