<?xml version="1.0" encoding="UTF-8" standalone="no"?>
<!DOCTYPE svg PUBLIC "-//W3C//DTD SVG 1.1//EN" "http://www.w3.org/Graphics/SVG/1.1/DTD/svg11.dtd">
<svg width="100%" height="100%" viewBox="0 0 237 238" version="1.1" xmlns="http://www.w3.org/2000/svg" xmlns:xlink="http://www.w3.org/1999/xlink" xml:space="preserve" xmlns:serif="http://www.serif.com/" style="fill-rule:evenodd;clip-rule:evenodd;stroke-linejoin:round;stroke-miterlimit:2;">
    <g transform="matrix(1,0,0,1,-1394,-2105)">
        <g>
            <g transform="matrix(4.16667,0,0,4.16667,0,1259.19)">
                <path d="M340.393,203.228C337.262,203.228 334.724,205.766 334.724,208.897L334.724,254.252C334.724,257.382 337.262,259.921 340.393,259.921L385.748,259.921C388.879,259.921 391.417,257.382 391.417,254.252L391.417,208.897C391.417,205.766 388.879,203.228 385.748,203.228L340.393,203.228Z" style="fill:white;fill-rule:nonzero;"/>
            </g>
            <g transform="matrix(4.16667,0,0,4.16667,0,0)">
                <clipPath id="_clip1">
                    <path d="M340.393,505.433C337.262,505.433 334.724,507.971 334.724,511.102L334.724,556.457C334.724,559.587 337.262,562.126 340.393,562.126L385.748,562.126C388.879,562.126 391.417,559.587 391.417,556.457L391.417,511.102C391.417,507.971 388.879,505.433 385.748,505.433L340.393,505.433Z" clip-rule="nonzero"/>
                </clipPath>
                <g clip-path="url(#_clip1)">
                    <g transform="matrix(1,0,0,1,381.576,560.45)">
                        <path d="M0,-51.53L-36.932,-51.53C-39.65,-51.53 -41.814,-49.267 -41.806,-46.555L-41.806,-15.642C-41.801,-12.926 -39.556,-10.735 -36.832,-10.74L-27.624,-10.74C-22.651,-4.978 -18.343,0.009 -18.343,0.009C-18.343,0.009 -13.897,-5.211 -9.115,-10.808L0.094,-10.808C2.815,-10.816 4.974,-13.039 4.971,-15.756L4.971,-46.66C4.962,-49.384 2.719,-51.539 0,-51.53" style="fill:rgb(0,174,239);fill-rule:nonzero;"/>
                    </g>
                    <g transform="matrix(1,0,0,1,377.928,523.956)">
                        <path d="M0,11.118L-12.328,0.244C-12.264,-2.619 -12.274,-4.944 -12.405,-6.015C-12.602,-7.61 -13.911,-9.854 -14.679,-9.854C-15.445,-9.854 -16.755,-7.61 -16.951,-6.015C-17.082,-4.944 -17.093,-2.62 -17.028,0.242L-29.358,11.118C-29.541,11.278 -29.646,11.511 -29.646,11.753L-29.646,13.854C-29.646,14.037 -29.461,14.162 -29.291,14.093L-20.079,10.36C-19.797,10.246 -19.791,10.273 -16.646,9.847C-16.562,11.452 -16.47,13.013 -16.375,14.439L-20.27,17.503C-20.457,17.65 -20.555,17.883 -20.532,18.119L-20.354,19.906C-20.334,20.104 -20.14,20.235 -19.948,20.18L-16.004,19.039C-15.805,20.254 -15.142,20.903 -14.68,20.972C-14.215,20.903 -13.553,20.254 -13.353,19.039L-9.411,20.18C-9.22,20.235 -9.025,20.104 -9.006,19.906L-8.827,18.119C-8.803,17.883 -8.902,17.65 -9.09,17.503L-12.981,14.441C-12.887,13.014 -12.795,11.453 -12.71,9.847C-9.57,10.272 -9.563,10.246 -9.28,10.36L-0.067,14.093C0.102,14.162 0.286,14.037 0.286,13.854L0.286,11.753C0.286,11.511 0.182,11.278 0,11.118" style="fill:white;fill-rule:nonzero;"/>
                    </g>
                </g>
            </g>
        </g>
    </g>
</svg>
