<?xml version="1.0" encoding="UTF-8" standalone="no"?>
<!DOCTYPE svg PUBLIC "-//W3C//DTD SVG 1.1//EN" "http://www.w3.org/Graphics/SVG/1.1/DTD/svg11.dtd">
<svg width="100%" height="100%" viewBox="0 0 237 238" version="1.1" xmlns="http://www.w3.org/2000/svg" xmlns:xlink="http://www.w3.org/1999/xlink" xml:space="preserve" xmlns:serif="http://www.serif.com/" style="fill-rule:evenodd;clip-rule:evenodd;stroke-linejoin:round;stroke-miterlimit:2;">
    <g transform="matrix(1,0,0,1,-1943,-2105)">
        <g transform="matrix(4.16667,0,0,4.16667,0,0)">
            <g>
                <clipPath id="_clip1">
                    <path d="M472.11,505.433C468.979,505.433 466.441,507.971 466.441,511.102L466.441,556.457C466.441,559.587 468.979,562.126 472.11,562.126L517.465,562.126C520.596,562.126 523.134,559.587 523.134,556.457L523.134,511.102C523.134,507.971 520.596,505.433 517.465,505.433L472.11,505.433Z" clip-rule="nonzero"/>
                </clipPath>
                <g clip-path="url(#_clip1)">
                    <g transform="matrix(1,0,0,1,0,302.205)">
                        <rect x="466.441" y="203.228" width="56.693" height="56.693" style="fill:white;"/>
                    </g>
                    <g transform="matrix(1,0,0,1,500.168,521.653)">
                        <path d="M0,6.05C-1.652,4.363 -6.538,-0.766 -6.538,-0.766L2.175,-3.322C3.874,-4.036 4.675,-5.995 3.959,-7.694C3.246,-9.391 1.288,-10.189 -0.409,-9.476L-14.326,-5.638C-15.358,-5.206 -16.097,-4.296 -16.311,-3.203C-16.525,-2.109 -15.922,-1.182 -15.392,-0.199C-14.37,1.694 -11.763,5.075 -9.922,7.821L-16.34,10.911C-12.804,11.11 -9.391,12.037 -4.934,13.465C-3.686,13.864 1.332,15.814 3.838,16.239L0.814,7.432C0.662,6.928 0.395,6.453 0,6.05" style="fill:rgb(0,174,239);fill-rule:nonzero;"/>
                    </g>
                    <g transform="matrix(0.0999,0.994997,0.994997,-0.0999,509.523,525.628)">
                        <path d="M6.589,-5.96C10.245,-5.962 13.213,-2.998 13.212,0.661C13.213,4.322 10.247,7.285 6.589,7.283C2.93,7.286 -0.035,4.321 -0.036,0.663C-0.037,-2.997 2.93,-5.961 6.589,-5.96" style="fill:rgb(0,174,239);fill-rule:nonzero;"/>
                    </g>
                    <g transform="matrix(1,0,0,1,472.93,536.53)">
                        <path d="M0,5.565C1.773,3.737 5.668,0.714 11.838,1.044C15.698,1.248 19.674,2.508 23.883,3.841C28.602,5.336 33.045,6.645 37.377,6.859C39.624,6.969 42.977,6.718 45.176,5.989C45.721,5.808 46.04,5.247 45.877,4.696C45.713,4.146 45.137,3.833 44.584,3.996C43.127,4.429 40.706,4.915 37.472,4.783C33.396,4.582 29.089,3.309 24.512,1.86C20.171,0.486 16.073,-0.814 11.947,-1.033C4.956,-1.404 0.527,2.036 -1.492,4.119C-1.892,4.531 -1.882,5.188 -1.47,5.588C-1.058,5.987 -0.399,5.978 0,5.565" style="fill:rgb(0,174,239);fill-rule:nonzero;"/>
                    </g>
                    <g transform="matrix(1,0,0,1,502.825,541.138)">
                        <path d="M0,3.926C-1.514,3.53 -3.361,2.932 -5.317,2.298C-7.577,1.567 -9.914,0.81 -12.21,0.201C-20.697,-2.045 -24.277,1.212 -24.425,1.352C-24.839,1.742 -24.857,2.388 -24.473,2.807C-24.089,3.225 -23.434,3.253 -23.01,2.874C-22.98,2.848 -20.006,0.287 -12.741,2.211C-10.501,2.805 -8.191,3.553 -5.957,4.277C-3.973,4.919 -2.098,5.527 -0.525,5.937C-0.437,5.96 -0.349,5.971 -0.262,5.971C0.199,5.971 0.621,5.661 0.743,5.194C0.888,4.639 0.556,4.071 0,3.926" style="fill:rgb(0,174,239);fill-rule:nonzero;"/>
                    </g>
                    <g transform="matrix(1,0,0,1,483.722,547.637)">
                        <path d="M0,-2.416C-0.555,-2.276 -0.89,-1.716 -0.752,-1.16C-0.615,-0.605 -0.056,-0.267 0.503,-0.399C0.531,-0.406 3.447,-1.079 6.646,0.761C6.809,0.855 6.986,0.9 7.162,0.9C7.522,0.899 7.872,0.713 8.064,0.379C8.351,-0.119 8.18,-0.755 7.682,-1.041C3.726,-3.316 0.151,-2.454 0,-2.416" style="fill:rgb(0,174,239);fill-rule:nonzero;"/>
                    </g>
                </g>
            </g>
        </g>
    </g>
</svg>
