<?xml version="1.0" encoding="UTF-8" standalone="no"?>
<!DOCTYPE svg PUBLIC "-//W3C//DTD SVG 1.1//EN" "http://www.w3.org/Graphics/SVG/1.1/DTD/svg11.dtd">
<svg width="100%" height="100%" viewBox="0 0 237 237" version="1.1" xmlns="http://www.w3.org/2000/svg" xmlns:xlink="http://www.w3.org/1999/xlink" xml:space="preserve" xmlns:serif="http://www.serif.com/" style="fill-rule:evenodd;clip-rule:evenodd;stroke-linejoin:round;stroke-miterlimit:2;">
    <g transform="matrix(1,0,0,1,-1394,-1274)">
        <g transform="matrix(4.16667,0,0,4.16667,0,0)">
            <g>
                <clipPath id="_clip1">
                    <path d="M340.393,305.89C337.262,305.89 334.724,308.428 334.724,311.559L334.724,356.913C334.724,360.044 337.262,362.582 340.393,362.582L385.748,362.582C388.879,362.582 391.417,360.044 391.417,356.913L391.417,311.559C391.417,308.428 388.879,305.89 385.748,305.89L340.393,305.89Z" clip-rule="nonzero"/>
                </clipPath>
                <g clip-path="url(#_clip1)">
                    <g transform="matrix(1,0,0,1,0,-96.883)">
                        <rect x="334.724" y="402.772" width="56.693" height="56.693" style="fill:white;"/>
                    </g>
                    <g transform="matrix(1,0,0,1,337.959,333.661)">
                        <path d="M0,0C0,-0.546 0.213,-1.059 0.599,-1.445L22.772,-23.619C23.158,-24.005 23.672,-24.218 24.218,-24.218C24.764,-24.218 25.276,-24.005 25.662,-23.619L47.837,-1.445C48.223,-1.059 48.435,-0.546 48.435,0C48.435,0.546 48.223,1.059 47.837,1.445L25.662,23.619C25.276,24.005 24.764,24.218 24.218,24.218C23.672,24.218 23.158,24.005 22.772,23.619L0.599,1.445C0.213,1.059 0,0.546 0,0M0.357,1.686L22.531,23.859C23.463,24.791 24.973,24.791 25.903,23.859L48.077,1.686C49.009,0.755 49.009,-0.755 48.077,-1.686L25.903,-23.86C24.973,-24.791 23.463,-24.791 22.531,-23.86L0.357,-1.686C-0.573,-0.755 -0.573,0.755 0.357,1.686" style="fill:rgb(35,31,32);fill-rule:nonzero;"/>
                    </g>
                    <g transform="matrix(1,0,0,1,362.177,309.442)">
                        <path d="M0,48.436C0.546,48.436 1.059,48.223 1.444,47.837L23.619,25.663C24.005,25.277 24.217,24.764 24.217,24.218C24.217,23.672 24.005,23.159 23.619,22.773L1.444,0.599C1.059,0.213 0.546,0 0,0C-0.546,0 -1.06,0.213 -1.445,0.599L-23.619,22.773C-24.005,23.159 -24.218,23.672 -24.218,24.218C-24.218,24.764 -24.005,25.277 -23.619,25.663L-1.445,47.837C-1.06,48.223 -0.546,48.436 0,48.436" style="fill:rgb(255,228,26);fill-rule:nonzero;"/>
                    </g>
                    <g transform="matrix(1,0,0,1,385.355,335.003)">
                        <path d="M0,-2.688L-21.836,-24.524C-22.575,-25.263 -23.785,-25.263 -24.524,-24.524L-46.36,-2.688C-47.1,-1.948 -47.1,-0.74 -46.36,-0L-24.524,21.837C-23.785,22.575 -22.575,22.575 -21.836,21.837L0,-0C0.739,-0.74 0.739,-1.948 0,-2.688" style="fill:rgb(35,31,32);fill-rule:nonzero;"/>
                    </g>
                    <g transform="matrix(1,0,0,1,384.674,334.331)">
                        <path d="M0,-1.342L-21.827,-23.169C-22.195,-23.538 -22.802,-23.538 -23.17,-23.169L-44.996,-1.342C-45.365,-0.973 -45.365,-0.369 -44.996,0L-23.17,21.827C-22.801,22.196 -22.194,22.196 -21.826,21.827L0,0C0.369,-0.369 0.369,-0.973 0,-1.342" style="fill:rgb(255,228,26);fill-rule:nonzero;"/>
                    </g>
                    <g transform="matrix(1,0,0,1,363.876,337.336)">
                        <path d="M0,-6.166C0.23,-5.4 0.46,-4.635 0.69,-3.869C0.781,-3.569 0.849,-3.232 1.008,-2.96C1.354,-2.365 2.187,-2.256 2.668,-2.758C2.934,-3.035 3.078,-3.442 3.244,-3.781C3.586,-4.473 7.093,-11.585 8.502,-14.448C5.308,-14.448 -2.604,-14.449 -3.363,-14.45C-3.764,-14.45 -4.216,-14.492 -4.607,-14.39C-5.258,-14.218 -5.688,-13.48 -5.238,-12.875C-5.03,-12.595 -4.748,-12.34 -4.512,-12.08C-3.976,-11.486 -3.438,-10.893 -2.902,-10.3C-5.376,-9.176 -7.776,-7.454 -9.245,-5.128C-10.704,-2.812 -10.934,-0.297 -10.928,2.366C-10.925,4.275 -10.928,8.326 -10.928,8.326L-5.729,8.326C-5.729,8.326 -5.739,2.679 -5.723,1.06C-5.709,-0.216 -5.431,-1.42 -4.737,-2.504C-3.66,-4.183 -1.706,-5.273 0,-6.166" style="fill:rgb(35,31,32);fill-rule:nonzero;"/>
                    </g>
                </g>
            </g>
        </g>
    </g>
</svg>
