<?xml version="1.0" encoding="UTF-8" standalone="no"?>
<!DOCTYPE svg PUBLIC "-//W3C//DTD SVG 1.1//EN" "http://www.w3.org/Graphics/SVG/1.1/DTD/svg11.dtd">
<svg width="100%" height="100%" viewBox="0 0 237 237" version="1.1" xmlns="http://www.w3.org/2000/svg" xmlns:xlink="http://www.w3.org/1999/xlink" xml:space="preserve" xmlns:serif="http://www.serif.com/" style="fill-rule:evenodd;clip-rule:evenodd;stroke-linejoin:round;stroke-miterlimit:2;">
    <g transform="matrix(1,0,0,1,-1943,-1274)">
        <g transform="matrix(4.16667,0,0,4.16667,0,0)">
            <g>
                <clipPath id="_clip1">
                    <path d="M472.11,305.89C468.979,305.89 466.441,308.428 466.441,311.559L466.441,356.913C466.441,360.044 468.979,362.582 472.11,362.582L517.465,362.582C520.596,362.582 523.134,360.044 523.134,356.913L523.134,311.559C523.134,308.428 520.596,305.89 517.465,305.89L472.11,305.89Z" clip-rule="nonzero"/>
                </clipPath>
                <g clip-path="url(#_clip1)">
                    <g transform="matrix(1,0,0,1,0,-96.883)">
                        <rect x="466.441" y="402.772" width="56.693" height="56.693" style="fill:white;"/>
                    </g>
                    <g transform="matrix(1,0,0,1,473.552,310.259)">
                        <path d="M0,45.359C-1.404,45.359 -2.71,44.602 -3.407,43.384C-4.112,42.166 -4.112,40.696 -3.399,39.464L18.251,1.963C18.961,0.734 20.232,0 21.653,0C23.073,0 24.345,0.734 25.055,1.964L46.707,39.466C47.408,40.683 47.406,42.19 46.703,43.401C45.994,44.626 44.724,45.359 43.306,45.359L0,45.359Z" style="fill:rgb(255,228,26);fill-rule:nonzero;"/>
                    </g>
                    <g transform="matrix(1,0,0,1,495.204,352.362)">
                        <path d="M0,-38.847C-0.116,-38.847 -0.406,-38.814 -0.581,-38.511L-22.233,-1.008C-22.409,-0.705 -22.292,-0.437 -22.233,-0.337C-22.175,-0.235 -22.002,-0.001 -21.652,-0.001L21.653,-0.001C22.003,-0.001 22.177,-0.235 22.234,-0.336C22.293,-0.437 22.409,-0.705 22.234,-1.008L0.582,-38.511C0.407,-38.814 0.117,-38.847 0,-38.847M21.653,2.335L-21.652,2.335C-22.739,2.335 -23.712,1.773 -24.256,0.831C-24.8,-0.11 -24.8,-1.234 -24.256,-2.176L-2.604,-39.679C-2.061,-40.62 -1.087,-41.182 0,-41.182C1.088,-41.182 2.062,-40.62 2.604,-39.679L24.257,-2.176C24.801,-1.234 24.801,-0.11 24.257,0.831C23.713,1.773 22.74,2.335 21.653,2.335" style="fill:rgb(35,31,32);fill-rule:nonzero;"/>
                    </g>
                    <g transform="matrix(1,0,0,1,501.72,342.608)">
                        <path d="M0,-10.395L-7.281,-8.909L-2.684,-18.878L-9.032,-18.878L-13.03,-2.757L-7.932,-4.25L-8.949,1.475L-11.055,-0.055L-10.218,8.483L-4.28,2.273L-6.864,2.186L0,-10.395Z" style="fill:rgb(35,31,32);fill-rule:nonzero;"/>
                    </g>
                </g>
            </g>
        </g>
    </g>
</svg>
