<?xml version="1.0" encoding="UTF-8" standalone="no"?>
<!DOCTYPE svg PUBLIC "-//W3C//DTD SVG 1.1//EN" "http://www.w3.org/Graphics/SVG/1.1/DTD/svg11.dtd">
<svg width="100%" height="100%" viewBox="0 0 237 238" version="1.1" xmlns="http://www.w3.org/2000/svg" xmlns:xlink="http://www.w3.org/1999/xlink" xml:space="preserve" xmlns:serif="http://www.serif.com/" style="fill-rule:evenodd;clip-rule:evenodd;stroke-linejoin:round;stroke-miterlimit:2;">
    <g transform="matrix(1,0,0,1,-295,-1685)">
        <g transform="matrix(4.16667,0,0,4.16667,0,0)">
            <g>
                <clipPath id="_clip1">
                    <path d="M76.683,404.598C73.552,404.598 71.014,407.136 71.014,410.267L71.014,455.622C71.014,458.753 73.552,461.291 76.683,461.291L121.955,461.291C125.087,461.291 127.624,458.753 127.624,455.622L127.624,410.267C127.624,407.136 125.087,404.598 121.955,404.598L76.683,404.598Z" clip-rule="nonzero"/>
                </clipPath>
                <g clip-path="url(#_clip1)">
                    <g transform="matrix(1,0,0,1,0,100.535)">
                        <rect x="71.013" y="304.063" width="56.611" height="56.693" style="fill:white;"/>
                    </g>
                    <g transform="matrix(1,0,0,1,103.826,435.768)">
                        <path d="M0,-2.161C0.771,-2.161 1.396,-1.496 1.396,-0.676C1.396,0.145 0.771,0.81 0,0.81C-0.771,0.81 -1.396,0.145 -1.396,-0.676C-1.396,-1.496 -0.771,-2.161 0,-2.161M-3.579,17.483L18.627,17.483L18.627,-19.644L-3.579,-19.644L-3.579,17.483Z" style="fill:rgb(29,146,69);fill-rule:nonzero;"/>
                    </g>
                    <g transform="matrix(1,0,0,1,98.4404,453.25)">
                        <path d="M0,-38.949L0,0L1.265,0L1.265,-37.683L24.554,-37.683L24.554,0L25.82,0L25.82,-38.949L0,-38.949Z" style="fill:rgb(29,146,69);fill-rule:nonzero;"/>
                    </g>
                    <g transform="matrix(1,0,0,1,96.0391,446.707)">
                        <path d="M0,-13.586L-5.365,-15.489L-9.147,-19.208C-9.553,-19.703 -10.148,-20.042 -10.835,-20.109L-13.067,-20.325C-13.823,-20.398 -14.533,-20.126 -15.04,-19.637L-19.468,-16.934C-19.788,-16.738 -20.013,-16.445 -20.127,-16.116C-20.157,-16.039 -20.18,-15.959 -20.197,-15.876L-21.408,-9.987C-21.582,-9.144 -21.038,-8.319 -20.194,-8.146C-19.351,-7.973 -18.526,-8.516 -18.353,-9.359L-17.271,-14.62L-16.054,-15.363L-16.898,-6.644C-16.936,-6.264 -16.884,-5.895 -16.763,-5.558L-16.75,-5.549C-16.756,-5.538 -16.762,-5.527 -16.768,-5.517L-21.537,3.542C-22.059,4.533 -21.675,5.769 -20.685,6.291C-19.694,6.812 -18.458,6.429 -17.936,5.438L-13.36,-3.253L-13.345,-3.242L-13.33,-3.29L-9.404,-0.485L-9.87,4.32C-9.978,5.435 -9.162,6.426 -8.048,6.533C-6.934,6.642 -5.943,5.826 -5.834,4.712L-5.25,-1.318C-5.162,-2.227 -5.688,-3.053 -6.489,-3.386L-9.737,-5.706C-9.722,-5.784 -9.71,-5.865 -9.702,-5.946L-8.868,-14.559L-7.341,-13.059C-7.277,-12.996 -7.21,-12.94 -7.139,-12.891C-7.012,-12.793 -6.868,-12.713 -6.708,-12.656L-1.043,-10.647C-0.231,-10.358 0.66,-10.783 0.948,-11.595C1.236,-12.406 0.812,-13.298 0,-13.586" style="fill:rgb(29,146,69);fill-rule:nonzero;"/>
                    </g>
                    <g transform="matrix(0.995341,0.0964163,0.0964163,-0.995341,85.1979,425.646)">
                        <path d="M0.368,-0.018C2.476,-0.018 4.185,1.691 4.185,3.799C4.186,5.906 2.476,7.616 0.368,7.616C-1.739,7.616 -3.448,5.907 -3.448,3.799C-3.449,1.691 -1.74,-0.018 0.368,-0.018" style="fill:rgb(29,146,69);fill-rule:nonzero;"/>
                    </g>
                </g>
            </g>
        </g>
    </g>
</svg>
