<?xml version="1.0" encoding="UTF-8" standalone="no"?>
<!DOCTYPE svg PUBLIC "-//W3C//DTD SVG 1.1//EN" "http://www.w3.org/Graphics/SVG/1.1/DTD/svg11.dtd">
<svg width="100%" height="100%" viewBox="0 0 237 238" version="1.1" xmlns="http://www.w3.org/2000/svg" xmlns:xlink="http://www.w3.org/1999/xlink" xml:space="preserve" xmlns:serif="http://www.serif.com/" style="fill-rule:evenodd;clip-rule:evenodd;stroke-linejoin:round;stroke-miterlimit:2;">
    <g transform="matrix(1,0,0,1,-844,-1685)">
        <g transform="matrix(4.16667,0,0,4.16667,0,0)">
            <g>
                <clipPath id="_clip1">
                    <path d="M208.358,404.598C205.227,404.598 202.689,407.136 202.689,410.267L202.689,455.622C202.689,458.753 205.227,461.291 208.358,461.291L253.713,461.291C256.844,461.291 259.382,458.753 259.382,455.622L259.382,410.267C259.382,407.136 256.844,404.598 253.713,404.598L208.358,404.598Z" clip-rule="nonzero"/>
                </clipPath>
                <g clip-path="url(#_clip1)">
                    <g transform="matrix(1,0,0,1,0,100.535)">
                        <rect x="202.689" y="304.063" width="56.693" height="56.693" style="fill:white;"/>
                    </g>
                    <g transform="matrix(1,0,0,1,230.11,408.94)">
                        <path d="M0,47.479L0,44.741C-11.248,44.347 -20.278,35.081 -20.278,23.739C-20.278,12.397 -11.248,3.13 0,2.737L0,-0.001C13.091,-0.001 23.74,10.648 23.74,23.739C23.74,36.83 13.091,47.479 0,47.479M0.742,-2.227C-13.576,-2.227 -25.225,9.42 -25.225,23.739C-25.225,38.057 -13.576,49.706 0.742,49.706C15.06,49.706 26.708,38.057 26.708,23.739C26.708,9.42 15.06,-2.227 0.742,-2.227" style="fill:rgb(237,28,36);fill-rule:nonzero;"/>
                    </g>
                    <g transform="matrix(1,0,0,1,230.557,411.811)">
                        <path d="M0,41.736L0,40.557C10.856,40.557 19.688,31.724 19.688,20.868C19.688,10.011 10.856,1.179 0,1.179L0,0C11.507,0 20.868,9.361 20.868,20.868C20.868,32.375 11.507,41.736 0,41.736" style="fill:rgb(237,28,36);fill-rule:nonzero;"/>
                    </g>
                    <g transform="matrix(1,0,0,1,240.911,437.273)">
                        <path d="M0,-9.188L-5.465,-9.188L-5.465,-14.655C-5.465,-16.556 -7.008,-18.097 -8.909,-18.097L-11.211,-18.097C-13.112,-18.097 -14.654,-16.556 -14.654,-14.655L-14.654,-9.188L-20.12,-9.188C-22.021,-9.188 -23.562,-7.647 -23.562,-5.746L-23.562,-3.443C-23.562,-1.542 -22.021,-0 -20.12,-0L-14.654,-0L-14.654,5.466C-14.654,7.368 -13.112,8.909 -11.211,8.909L-8.909,8.909C-7.006,8.909 -5.465,7.368 -5.465,5.466L-5.465,-0L0,-0C1.901,-0 3.443,-1.542 3.443,-3.443L3.443,-5.746C3.443,-7.647 1.901,-9.188 0,-9.188" style="fill:rgb(237,28,36);fill-rule:nonzero;"/>
                    </g>
                </g>
            </g>
        </g>
    </g>
</svg>
