<?xml version="1.0" encoding="UTF-8" standalone="no"?>
<!DOCTYPE svg PUBLIC "-//W3C//DTD SVG 1.1//EN" "http://www.w3.org/Graphics/SVG/1.1/DTD/svg11.dtd">
<svg width="100%" height="100%" viewBox="0 0 237 238" version="1.1" xmlns="http://www.w3.org/2000/svg" xmlns:xlink="http://www.w3.org/1999/xlink" xml:space="preserve" xmlns:serif="http://www.serif.com/" style="fill-rule:evenodd;clip-rule:evenodd;stroke-linejoin:round;stroke-miterlimit:2;">
    <g transform="matrix(1,0,0,1,-1394,-1685)">
        <g transform="matrix(4.16667,0,0,4.16667,0,0)">
            <g>
                <clipPath id="_clip1">
                    <path d="M340.393,404.598C337.262,404.598 334.724,407.136 334.724,410.267L334.724,455.622C334.724,458.753 337.262,461.291 340.393,461.291L385.748,461.291C388.879,461.291 391.417,458.753 391.417,455.622L391.417,410.267C391.417,407.136 388.879,404.598 385.748,404.598L340.393,404.598Z" clip-rule="nonzero"/>
                </clipPath>
                <g clip-path="url(#_clip1)">
                    <g transform="matrix(1,0,0,1,0,100.535)">
                        <rect x="334.724" y="304.063" width="56.693" height="56.693" style="fill:white;"/>
                    </g>
                    <g transform="matrix(1,0,0,1,371.499,430.164)">
                        <path d="M0,5.03L-11.989,5.03L-11.989,12.764L1.402,12.764L1.402,18.807L-19.338,18.807L-19.338,-13.777L0.726,-13.777L0.726,-7.734L-11.989,-7.734L-11.989,-0.965L0,-0.965L0,5.03Z" style="fill:rgb(35,31,32);fill-rule:nonzero;"/>
                    </g>
                    <g transform="matrix(1,0,0,1,379.462,419.582)">
                        <path d="M0,26.194L-29.769,-3.568C-26.109,-6.464 -21.385,-8.121 -16.66,-8.121C-4.974,-8.121 4.559,1.411 4.559,13.097C4.559,17.823 2.901,22.547 0,26.194M-16.66,34.317C-28.348,34.317 -37.88,24.786 -37.88,13.097C-37.88,8.373 -36.222,3.566 -33.321,-0.081L-3.553,29.766C-7.212,32.66 -11.937,34.317 -16.66,34.317M-16.66,-13.115C-31.098,-13.115 -42.872,-1.339 -42.872,13.097C-42.872,27.536 -31.098,39.309 -16.66,39.309C-2.224,39.309 9.551,27.536 9.551,13.097C9.551,-1.34 -2.224,-13.115 -16.66,-13.115" style="fill:rgb(237,28,36);fill-rule:nonzero;"/>
                    </g>
                </g>
            </g>
        </g>
    </g>
</svg>
