<?xml version="1.0" encoding="UTF-8" standalone="no"?>
<!DOCTYPE svg PUBLIC "-//W3C//DTD SVG 1.1//EN" "http://www.w3.org/Graphics/SVG/1.1/DTD/svg11.dtd">
<svg width="100%" height="100%" viewBox="0 0 237 238" version="1.1" xmlns="http://www.w3.org/2000/svg" xmlns:xlink="http://www.w3.org/1999/xlink" xml:space="preserve" xmlns:serif="http://www.serif.com/" style="fill-rule:evenodd;clip-rule:evenodd;stroke-linejoin:round;stroke-miterlimit:2;">
    <g transform="matrix(1,0,0,1,-295,-2105)">
        <g transform="matrix(4.16667,0,0,4.16667,0,0)">
            <g>
                <clipPath id="_clip1">
                    <path d="M76.683,505.433C73.552,505.433 71.014,507.971 71.014,511.102L71.014,556.457C71.014,559.587 73.552,562.126 76.683,562.126L121.955,562.126C125.087,562.126 127.624,559.587 127.624,556.457L127.624,511.102C127.624,507.971 125.087,505.433 121.955,505.433L76.683,505.433Z" clip-rule="nonzero"/>
                </clipPath>
                <g clip-path="url(#_clip1)">
                    <g transform="matrix(1,0,0,1,0,302.205)">
                        <rect x="71.013" y="203.228" width="56.611" height="56.693" style="fill:white;"/>
                    </g>
                    <g transform="matrix(1,0,0,1,124.842,509.492)">
                        <path d="M0,48.098C0,48.841 -0.603,49.444 -1.345,49.444L-49.445,49.444C-50.188,49.444 -50.79,48.841 -50.79,48.098L-50.79,-0.002C-50.79,-0.744 -50.188,-1.346 -49.445,-1.346L-1.345,-1.346C-0.603,-1.346 0,-0.744 0,-0.002L0,48.098Z" style="fill:rgb(29,146,69);fill-rule:nonzero;"/>
                    </g>
                    <g transform="matrix(1,0,0,1,114.053,534.205)">
                        <path d="M0,8.142C0,9.627 -1.205,10.832 -2.69,10.832L-10.563,10.832C-12.049,10.832 -13.254,9.627 -13.254,8.142L-13.254,-0.001C-13.254,-1.486 -12.049,-2.69 -10.563,-2.69L-2.69,-2.69C-1.205,-2.69 0,-1.486 0,-0.001L0,8.142Z" style="fill:rgb(15,147,71);fill-rule:nonzero;"/>
                    </g>
                    <g transform="matrix(1,0,0,1,112.636,533.688)">
                        <path d="M0,9.175C0,9.67 -0.401,10.072 -0.896,10.072L-9.523,10.072C-10.019,10.072 -10.42,9.67 -10.42,9.175L-10.42,-0.001C-10.42,-0.496 -10.019,-0.897 -9.523,-0.897L-0.896,-0.897C-0.401,-0.897 0,-0.496 0,-0.001L0,9.175Z" style="fill:white;fill-rule:nonzero;"/>
                    </g>
                    <g transform="matrix(-1,0,0,1,215.047,321.606)">
                        <rect x="101.888" y="221.417" width="11.271" height="0.914" style="fill:rgb(18,149,71);"/>
                    </g>
                    <g transform="matrix(1,0,0,1,104.955,536.311)">
                        <path d="M0,7.343C0,7.588 -0.198,7.787 -0.443,7.787C-0.688,7.787 -0.888,7.588 -0.888,7.343L-0.888,-0.001C-0.888,-0.246 -0.688,-0.444 -0.443,-0.444C-0.198,-0.444 0,-0.246 0,-0.001L0,7.343Z" style="fill:rgb(18,149,71);fill-rule:nonzero;"/>
                    </g>
                    <g transform="matrix(1,0,0,1,110.654,536.311)">
                        <path d="M0,7.343C0,7.588 -0.199,7.787 -0.444,7.787C-0.689,7.787 -0.888,7.588 -0.888,7.343L-0.888,-0.001C-0.888,-0.246 -0.689,-0.444 -0.444,-0.444C-0.199,-0.444 0,-0.246 0,-0.001L0,7.343Z" style="fill:rgb(18,149,71);fill-rule:nonzero;"/>
                    </g>
                    <g transform="matrix(0,-1,-1,0,107.291,524.928)">
                        <path d="M-2.81,-2.811C-4.364,-2.811 -5.622,-1.552 -5.622,0.001C-5.622,1.552 -4.364,2.81 -2.81,2.81C-1.257,2.81 0,1.552 0,0.001C0,-1.552 -1.257,-2.811 -2.81,-2.811" style="fill:white;fill-rule:nonzero;"/>
                    </g>
                    <g transform="matrix(0,-1,-1,0,99.419,520.425)">
                        <path d="M-2.812,-2.811C-4.364,-2.811 -5.623,-1.552 -5.623,0.001C-5.623,1.553 -4.364,2.812 -2.812,2.812C-1.259,2.812 -0,1.553 -0,0.001C-0,-1.552 -1.259,-2.811 -2.812,-2.811" style="fill:white;fill-rule:nonzero;"/>
                    </g>
                    <g transform="matrix(1,0,0,1,98.2349,534.205)">
                        <path d="M0,8.142C0,9.627 -1.205,10.832 -2.69,10.832L-10.563,10.832C-12.049,10.832 -13.253,9.627 -13.253,8.142L-13.253,-0.001C-13.253,-1.486 -12.049,-2.69 -10.563,-2.69L-2.69,-2.69C-1.205,-2.69 0,-1.486 0,-0.001L0,8.142Z" style="fill:rgb(15,147,71);fill-rule:nonzero;"/>
                    </g>
                    <g transform="matrix(1,0,0,1,96.8179,533.688)">
                        <path d="M0,9.175C0,9.67 -0.401,10.072 -0.896,10.072L-9.523,10.072C-10.018,10.072 -10.419,9.67 -10.419,9.175L-10.419,-0.001C-10.419,-0.496 -10.018,-0.897 -9.523,-0.897L-0.896,-0.897C-0.401,-0.897 0,-0.496 0,-0.001L0,9.175Z" style="fill:white;fill-rule:nonzero;"/>
                    </g>
                    <g transform="matrix(-1,0,0,1,183.411,321.606)">
                        <rect x="86.07" y="221.417" width="11.271" height="0.914" style="fill:rgb(18,149,71);"/>
                    </g>
                    <g transform="matrix(1,0,0,1,89.1367,536.311)">
                        <path d="M0,7.343C0,7.588 -0.199,7.787 -0.444,7.787C-0.689,7.787 -0.888,7.588 -0.888,7.343L-0.888,-0.001C-0.888,-0.246 -0.689,-0.444 -0.444,-0.444C-0.199,-0.444 0,-0.246 0,-0.001L0,7.343Z" style="fill:rgb(18,149,71);fill-rule:nonzero;"/>
                    </g>
                    <g transform="matrix(1,0,0,1,94.8354,536.311)">
                        <path d="M0,7.343C0,7.588 -0.199,7.787 -0.444,7.787C-0.689,7.787 -0.888,7.588 -0.888,7.343L-0.888,-0.001C-0.888,-0.246 -0.689,-0.444 -0.444,-0.444C-0.199,-0.444 0,-0.246 0,-0.001L0,7.343Z" style="fill:rgb(18,149,71);fill-rule:nonzero;"/>
                    </g>
                    <g transform="matrix(0,-1,-1,0,91.5571,524.897)">
                        <path d="M-2.81,-2.811C-4.364,-2.811 -5.622,-1.553 -5.622,-0C-5.622,1.552 -4.364,2.81 -2.81,2.81C-1.257,2.81 0,1.552 0,-0C0,-1.553 -1.257,-2.811 -2.81,-2.811" style="fill:white;fill-rule:nonzero;"/>
                    </g>
                    <g transform="matrix(1,0,0,1,106.162,537.887)">
                        <path d="M0,8.142C0,9.627 -1.204,10.832 -2.689,10.832L-10.563,10.832C-12.049,10.832 -13.253,9.627 -13.253,8.142L-13.253,-0.001C-13.253,-1.486 -12.049,-2.69 -10.563,-2.69L-2.689,-2.69C-1.204,-2.69 0,-1.486 0,-0.001L0,8.142Z" style="fill:rgb(15,147,71);fill-rule:nonzero;"/>
                    </g>
                    <g transform="matrix(1,0,0,1,104.745,537.37)">
                        <path d="M0,9.176C0,9.671 -0.401,10.072 -0.896,10.072L-9.522,10.072C-10.018,10.072 -10.419,9.671 -10.419,9.176L-10.419,0C-10.419,-0.495 -10.018,-0.896 -9.522,-0.896L-0.896,-0.896C-0.401,-0.896 0,-0.495 0,0L0,9.176Z" style="fill:white;fill-rule:nonzero;"/>
                    </g>
                    <g transform="matrix(-1,0,0,1,199.265,328.972)">
                        <rect x="93.997" y="217.734" width="11.271" height="0.914" style="fill:rgb(18,149,71);"/>
                    </g>
                    <g transform="matrix(1,0,0,1,97.064,539.994)">
                        <path d="M0,7.343C0,7.588 -0.199,7.787 -0.444,7.787C-0.689,7.787 -0.888,7.588 -0.888,7.343L-0.888,-0.001C-0.888,-0.246 -0.689,-0.444 -0.444,-0.444C-0.199,-0.444 0,-0.246 0,-0.001L0,7.343Z" style="fill:rgb(18,149,71);fill-rule:nonzero;"/>
                    </g>
                    <g transform="matrix(1,0,0,1,102.762,539.994)">
                        <path d="M0,7.343C0,7.588 -0.198,7.787 -0.443,7.787C-0.688,7.787 -0.888,7.588 -0.888,7.343L-0.888,-0.001C-0.888,-0.246 -0.688,-0.444 -0.443,-0.444C-0.198,-0.444 0,-0.246 0,-0.001L0,7.343Z" style="fill:rgb(18,149,71);fill-rule:nonzero;"/>
                    </g>
                    <g transform="matrix(0,-1,-1,0,99.5021,527.92)">
                        <path d="M-4.223,-4.224C-6.556,-4.224 -8.447,-2.333 -8.447,-0.001C-8.447,2.332 -6.556,4.223 -4.223,4.223C-1.891,4.223 0,2.332 0,-0.001C0,-2.333 -1.891,-4.224 -4.223,-4.224" style="fill:rgb(18,149,71);fill-rule:nonzero;"/>
                    </g>
                    <g transform="matrix(0,-1,-1,0,99.4302,529.332)">
                        <path d="M-2.81,-2.811C-4.364,-2.811 -5.622,-1.553 -5.622,-0C-5.622,1.552 -4.364,2.81 -2.81,2.81C-1.258,2.81 0,1.552 0,-0C0,-1.553 -1.258,-2.811 -2.81,-2.811" style="fill:white;fill-rule:nonzero;"/>
                    </g>
                    <g transform="matrix(1,0,0,1,78.1953,521.614)">
                        <path d="M0,-12.166L5.504,-6.571L5.504,-11.602L9.493,-7.515L9.493,0L1.852,0L-2.134,-3.945L2.977,-4L-2.574,-9.47L0,-12.166Z" style="fill:white;fill-rule:nonzero;"/>
                    </g>
                    <g transform="matrix(1,0,0,1,123.537,518.991)">
                        <path d="M0,-6.92L-5.595,-1.415L-0.564,-1.415L-4.651,2.573L-12.166,2.573L-12.166,-5.068L-8.22,-9.054L-8.166,-3.942L-2.696,-9.493L0,-6.92Z" style="fill:white;fill-rule:nonzero;"/>
                    </g>
                    <g transform="matrix(1,0,0,1,120.873,545.353)">
                        <path d="M0,12.166L-5.505,6.57L-5.505,11.601L-9.493,7.515L-9.493,0L-1.852,0L2.134,3.945L-2.977,3.999L2.573,9.47L0,12.166Z" style="fill:white;fill-rule:nonzero;"/>
                    </g>
                    <g transform="matrix(1,0,0,1,75.5317,547.976)">
                        <path d="M0,6.92L5.596,1.415L0.565,1.415L4.652,-2.573L12.166,-2.573L12.166,5.068L8.221,9.054L8.167,3.942L2.697,9.493L0,6.92Z" style="fill:white;fill-rule:nonzero;"/>
                    </g>
                </g>
            </g>
        </g>
    </g>
</svg>
