<?xml version="1.0" encoding="UTF-8" standalone="no"?>
<!DOCTYPE svg PUBLIC "-//W3C//DTD SVG 1.1//EN" "http://www.w3.org/Graphics/SVG/1.1/DTD/svg11.dtd">
<svg width="100%" height="100%" viewBox="0 0 492 301" version="1.1" xmlns="http://www.w3.org/2000/svg" xmlns:xlink="http://www.w3.org/1999/xlink" xml:space="preserve" xmlns:serif="http://www.serif.com/" style="fill-rule:evenodd;clip-rule:evenodd;stroke-linejoin:round;stroke-miterlimit:2;">
    <g transform="matrix(1,0,0,1,-80,-230)">
        <g transform="matrix(1,0,0,1,-313.582,-333.795)">
            <g transform="matrix(4.16667,0,0,4.16667,394.292,568.246)">
                <path d="M0,69.796C3.172,65.972 12.394,54.913 13.953,53.326C14.772,52.494 15.827,51.876 16.83,51.246C19.015,49.872 21.229,48.541 23.445,47.216C24.764,46.428 74.341,18.603 76.58,17.398C79.459,15.848 82.28,14.188 85.102,12.535C87.26,11.27 89.353,9.889 91.528,8.652C94.357,7.043 97.236,5.521 100.1,3.973C100.431,3.794 100.827,3.545 101.158,3.589C103.024,3.84 104.147,2.441 105.579,1.718C107.325,0.837 109.123,0.057 110.891,-0.782C112.312,-1.457 113.305,-0.614 114.292,0.176C117.597,2.824 118.129,6.414 117.448,10.263C117.285,11.184 116.445,12.149 115.658,12.765C113.618,14.366 111.401,15.743 109.327,17.304C108.719,17.761 108.453,18.665 107.855,19.144C105.934,20.685 103.968,22.175 101.95,23.585C99.991,24.953 97.985,26.266 95.927,27.477C94.123,28.538 92.375,29.713 90.115,29.819C89.155,29.865 88.19,30.531 87.293,31.036C85.219,32.204 27.665,64.943 24.662,66.659C22.762,67.743 20.69,68.129 18.526,68.248C16.142,68.38 5.697,70.27 2.82,70.822C1.99,70.98 0.323,71.253 0.148,70.339C0.099,70.158 0.049,69.977 0,69.796" style="fill:rgb(35,31,32);fill-rule:nonzero;"/>
            </g>
            <g transform="matrix(4.16667,0,0,4.16667,494.425,659.292)">
                <path d="M0,43.68C0.074,43.648 0.427,43.521 0.756,43.348C4.486,41.384 37.818,22.4 40.664,20.75C42.903,19.453 51.189,14.475 53.148,13.383C57.003,11.236 60.926,9.21 64.768,7.043C65.304,6.74 65.797,5.952 65.878,5.332C66.047,4.035 65.992,2.695 65.907,1.38C65.83,0.189 65.305,0 64.244,0.572C62.641,1.437 61.024,2.279 59.393,3.091C57.212,4.178 16.167,24.964 12.597,26.749C9.214,28.44 5.911,30.295 2.594,32.118C0.829,33.089 -0.912,34.111 -2.612,35.193C-2.929,35.394 -3.257,36.089 -3.14,36.379C-2.187,38.758 -1.129,41.095 0,43.68" style="fill:rgb(241,195,37);fill-rule:nonzero;"/>
            </g>
            <g transform="matrix(4.16667,0,0,4.16667,461.153,645.024)">
                <path d="M0,34.707C0.986,35.63 1.886,36.352 2.633,37.207C3.301,37.971 3.753,38.073 4.679,37.473C6.608,36.226 8.655,35.146 10.704,34.098C13.09,32.876 47.894,15.394 50.569,14.004C52.216,13.148 53.824,12.22 55.477,11.377C57.185,10.504 58.934,9.713 60.651,8.857C64.282,7.046 67.887,5.182 71.537,3.409C72.845,2.774 73.066,2.32 72.557,0.911C71.748,-1.327 70.02,-2.505 67.915,-3.253C67.597,-3.366 67.125,-3.287 66.811,-3.128C65.322,-2.378 11.838,27.5 8.229,29.749C6.481,30.839 4.654,31.804 2.881,32.856C1.951,33.407 1.058,34.024 0,34.707" style="fill:rgb(241,195,37);fill-rule:nonzero;"/>
            </g>
            <g transform="matrix(4.16667,0,0,4.16667,426.991,820.283)">
                <path d="M0,1.608C0.913,3.325 1.723,4.566 2.339,6.284C2.701,7.293 3.09,7.657 4.047,7.533C6.826,7.174 9.607,6.835 12.375,6.405C13.014,6.306 13.686,5.98 14.193,5.573C15.121,4.828 14.59,4.019 14.327,3.052C13.439,-0.216 11.547,-2.785 9.168,-5.032C8.514,-5.65 7.589,-5.932 6.708,-6.007C6.21,-6.049 5.545,-5.092 5.076,-4.557C3.258,-2.479 1.665,-0.344 0,1.608" style="fill:rgb(234,215,183);fill-rule:nonzero;"/>
            </g>
            <g transform="matrix(4.16667,0,0,4.16667,774.262,611.411)">
                <path d="M0,17.492L0.356,17.986C2.116,17.068 3.805,15.96 5.654,15.284C7.705,14.533 7.516,13.013 7.298,11.509C7.128,10.338 7.015,9.451 6.538,8.356C6.097,6.243 4.93,3.807 3.199,1.759C1.835,0.144 0.636,-0.494 -0.748,0.3C-2.326,1.206 -3.884,2.146 -5.439,3.091C-5.626,3.204 -5.901,3.516 -5.861,3.592C-5.72,3.861 -5.485,4.096 -5.241,4.291C-4.463,4.911 -3.458,5.363 -2.915,6.142C-1.134,8.698 0.224,11.451 0.009,14.721C-0.051,15.641 0,16.568 0,17.492" style="fill:rgb(210,210,201);fill-rule:nonzero;"/>
            </g>
            <g transform="matrix(4.16667,0,0,4.16667,850.673,570.33)">
                <path d="M0,14.886C1.477,13.911 3.057,12.872 4.632,11.825C5.701,11.113 6.637,10.282 6.803,8.908C7.184,5.765 6.734,2.856 4.065,0.778C3.454,0.304 2.513,0 1.743,0.036C-0.834,0.157 -2.812,1.759 -4.856,3.094C-5.682,3.635 -5.517,4.417 -4.825,5.177C-3.879,6.218 -2.834,7.268 -2.249,8.511C-1.362,10.395 -0.836,12.448 0,14.886" style="fill:rgb(245,135,86);fill-rule:nonzero;"/>
            </g>
            <g transform="matrix(4.16667,0,0,4.16667,826.428,586.608)">
                <path d="M0,16.423C2.618,14.982 3.661,13.979 3.871,11.899C4.273,7.915 2.973,4.539 0.08,1.876C-0.822,1.045 -2.023,0 -3.566,0.817C-4.116,1.109 -4.641,1.45 -5.198,1.73C-6.694,2.482 -6.732,2.844 -5.552,4.018C-3.065,6.49 -1.304,9.35 -0.801,12.902C-0.641,14.029 -0.299,15.133 0,16.423" style="fill:rgb(210,210,201);fill-rule:nonzero;"/>
            </g>
            <g transform="matrix(4.16667,0,0,4.16667,783.036,656.802)">
                <path d="M0,-11.965C1.216,-10.494 2.718,-9.264 3.434,-7.679C5.08,-5.085 5.825,-2.082 6.456,0.98C6.547,1.42 7.113,1.699 7.453,2.056C7.984,1.232 9.357,1.069 9.148,-0.358C8.591,-4.158 7.75,-7.884 5.172,-10.853C3.032,-13.317 3.001,-14.021 0,-11.965" style="fill:rgb(218,64,57);fill-rule:nonzero;"/>
            </g>
            <g transform="matrix(4.16667,0,0,4.16667,402.676,835.601)">
                <path d="M0,4.988C0.135,5.179 0.27,5.37 0.405,5.561C2.058,5.194 3.702,4.776 5.366,4.47C7.802,4.024 7.897,3.88 6.737,1.818C6.551,1.484 6.498,1.052 6.258,0.778C5.829,0.292 5.361,-0.307 4.797,-0.473C4.457,-0.573 3.878,0.027 3.451,0.368C3.16,0.6 2.921,0.912 2.7,1.218C1.792,2.469 0.898,3.731 0,4.988" style="fill:rgb(59,74,78);fill-rule:nonzero;"/>
            </g>
            <g transform="matrix(4.16667,0,0,4.16667,0,0)">
                <g opacity="0.2">
                    <g transform="matrix(0.864759,-0.502187,-0.502187,-0.864759,135.231,216.664)">
                        <path d="M-6.94,19.789L68.267,19.789L71.482,22.328L72.353,26.427L-6.94,19.789Z" style="fill:rgb(35,31,32);fill-rule:nonzero;"/>
                    </g>
                </g>
            </g>
        </g>
    </g>
</svg>
