<?xml version="1.0" encoding="UTF-8" standalone="no"?>
<!DOCTYPE svg PUBLIC "-//W3C//DTD SVG 1.1//EN" "http://www.w3.org/Graphics/SVG/1.1/DTD/svg11.dtd">
<svg width="100%" height="100%" viewBox="0 0 346 465" version="1.1" xmlns="http://www.w3.org/2000/svg" xmlns:xlink="http://www.w3.org/1999/xlink" xml:space="preserve" xmlns:serif="http://www.serif.com/" style="fill-rule:evenodd;clip-rule:evenodd;stroke-linejoin:round;stroke-miterlimit:2;">
    <g transform="matrix(1,0,0,1,-1068,-120)">
        <g transform="matrix(1,0,0,1,-21.92,-361.439)">
            <g transform="matrix(4.16667,0,0,4.16667,1390.46,858.407)">
                <path d="M0,-69.739C-0.736,-68.185 -1.275,-66.541 -1.918,-64.943C-2.037,-64.646 -2.197,-64.206 -2.415,-64.152C-2.657,-64.094 -3.024,-64.358 -3.274,-64.56C-3.675,-64.882 -4.013,-65.279 -4.395,-65.626C-5.058,-66.229 -6.249,-66.787 -6.288,-67.421C-6.354,-68.502 -5.913,-69.765 -5.307,-70.708C-3.95,-72.824 -2.375,-74.799 -0.857,-76.806C-0.551,-77.212 -0.141,-77.566 0.284,-77.848C0.823,-78.205 1.426,-78.462 2.001,-78.763C2.175,-78.166 2.348,-77.569 2.522,-76.973C2.208,-74.315 1.09,-72.042 0,-69.739M-22.672,-73.853C-23.054,-74.298 -23.16,-74.984 -23.34,-75.582C-23.346,-75.6 -23.936,-77.852 -23.863,-77.779C-23.095,-77.418 -21.032,-75.159 -20.923,-73.812C-21.774,-73.812 -22.47,-73.619 -22.672,-73.853M-65.146,-50.248C-65.468,-50.316 -65.862,-50.919 -65.895,-51.305C-65.996,-52.486 -65.048,-53.546 -63.198,-53.521C-63.046,-53.349 -62.661,-52.575 -62.573,-52.16C-62.421,-51.43 -64.23,-50.056 -65.146,-50.248M10.666,-21.062C10.6,-22.685 10.509,-24.353 10.08,-25.902C9.572,-27.743 9.045,-29.788 7.86,-31.172C6.772,-32.44 6.642,-33.821 6.301,-35.15C5.668,-37.617 5.386,-40.175 4.98,-42.698C4.578,-45.196 4.042,-47.692 5.042,-50.189C5.327,-50.897 5.513,-51.652 5.667,-52.402C6.186,-54.942 6.664,-57.488 7.173,-60.029C7.275,-60.542 7.426,-61.048 7.594,-61.544C8.266,-63.521 9.05,-65.465 9.605,-67.474C10.084,-69.21 10.326,-71.014 10.635,-72.794C10.692,-73.118 10.61,-73.49 10.508,-73.812C10.343,-74.344 10.195,-74.912 9.887,-75.362C8.836,-76.898 7.892,-78.562 6.582,-79.848C5.184,-81.219 3.476,-82.305 1.798,-83.347C0.462,-84.174 -0.968,-85.087 -2.468,-85.367C-6.861,-86.186 -9.681,-83.449 -12.278,-80.48C-13.171,-79.461 -13.942,-78.335 -14.873,-77.123C-15.37,-77.687 -15.735,-78.095 -16.092,-78.509C-17.707,-80.384 -19.39,-82.117 -22.085,-82.355C-23.356,-82.468 -24.721,-82.504 -25.139,-84.212C-25.565,-85.962 -26.555,-87.358 -27.995,-88.508C-29.786,-89.941 -31.643,-90.897 -33.975,-90.13C-34.823,-89.851 -35.607,-89.385 -36.446,-89.075C-38.647,-88.264 -40.303,-86.641 -40.481,-84.455C-40.781,-80.779 -40.461,-77.055 -40.457,-73.351C-40.457,-72.923 -40.697,-72.243 -41.012,-72.105C-43.216,-71.147 -45.577,-70.496 -47.672,-69.355C-49.396,-68.416 -50.876,-66.992 -52.364,-65.67C-53.124,-64.996 -53.695,-64.096 -54.298,-63.259C-55.14,-62.091 -56.114,-60.97 -56.7,-59.677C-57.316,-58.321 -58.096,-57.687 -59.601,-57.518C-62.214,-57.224 -64.808,-56.724 -67.388,-56.201C-68.195,-56.038 -69.135,-55.703 -69.648,-55.124C-70.33,-54.351 -70.641,-53.399 -69.916,-52.203C-69.129,-50.904 -68.91,-49.271 -68.213,-47.901C-67.342,-46.19 -66.01,-45.537 -64.055,-46.825C-63.111,-47.445 -62.26,-48.209 -61.114,-49.106C-61.443,-47.059 -61.693,-45.309 -62.012,-43.57C-62.578,-40.476 -63.309,-37.405 -63.74,-34.292C-64.088,-31.784 -64.164,-29.257 -65.755,-27.103C-66.943,-25.495 -68.289,-23.951 -69.177,-22.184C-71.05,-18.45 -71.653,-14.333 -71.868,-10.222C-72.119,-5.403 -72.199,-0.561 -70.855,4.169C-70.253,6.287 -69.868,8.476 -69.138,10.547C-68.59,12.105 -67.774,13.61 -66.842,14.98C-66.095,16.076 -65.144,17.178 -64.024,17.84C-61.729,19.201 -59.121,19.709 -56.453,19.866C-55.231,19.938 -54.014,20.083 -52.793,20.187C-49.114,20.497 -45.442,20.939 -41.757,21.068C-39.199,21.158 -36.626,20.812 -34.059,20.667C-30.522,20.469 -26.987,20.197 -23.447,20.102C-20.258,20.017 -17.135,19.595 -14.062,18.786C-13.498,18.638 -12.978,18.298 -12.462,18.007C-11.364,17.386 -10.373,16.745 -9.002,16.522C-7.085,16.21 -5.181,15.425 -3.444,14.514C-1.597,13.546 0.171,12.336 1.751,10.975C3.729,9.272 5.63,7.43 7.287,5.419C8.744,3.652 9.261,1.38 9.79,-0.863C10.532,-4.019 10.855,-7.21 10.896,-10.422C10.943,-13.968 10.812,-17.518 10.666,-21.062" style="fill:rgb(35,31,32);fill-rule:nonzero;"/>
            </g>
            <g transform="matrix(4.16667,0,0,4.16667,1221.15,768.934)">
                <path d="M0,41.629C0,41.715 1.657,41.55 2.223,41.6C3.47,41.71 4.434,41.39 5.032,40.171C5.976,38.246 7.047,36.383 7.967,34.447C9.572,31.071 11.234,27.711 12.624,24.246C13.759,21.418 14.601,18.465 15.433,15.527C15.808,14.202 16.02,12.739 16.272,11.18C16.705,8.507 15.697,5.377 13.409,3.912C11.262,2.536 8.959,1.871 6.589,1.347C3.808,0.732 0.743,0.244 -2.097,0.1C-5.72,-0.086 -9.327,-0.066 -12.929,0.298C-15.597,0.569 -18.167,1.386 -20.715,2.296C-22.809,3.043 -24.863,4.348 -26.763,5.519C-28.842,6.801 -28.766,6.921 -27.938,9.304C-27.881,9.466 -27.915,9.658 -27.865,9.823C-27.161,12.089 -26.564,14.397 -25.711,16.606C-24.713,19.192 -23.91,21.856 -22.712,24.358C-21.767,26.33 -20.471,28.207 -19.231,29.993C-17.011,33.192 -15.143,35.848 -12.829,38.983C-11.892,40.252 -10.133,41.334 -8.55,41.333C-5.529,41.332 -3.021,41.629 0,41.629" style="fill:rgb(36,170,225);fill-rule:nonzero;"/>
            </g>
            <g transform="matrix(4.16667,0,0,4.16667,1105.81,893.468)">
                <path d="M0,-30.017C0.103,-29.922 0.206,-29.827 0.309,-29.732C1.618,-30.328 2.979,-30.831 4.225,-31.538C7.202,-33.228 11.309,-34.032 15.152,-34.332C19.055,-34.344 21.604,-34.335 25.496,-34.049C31.175,-33.633 36.671,-33.229 41.863,-30.822C42.304,-30.617 45.851,-30.088 50.924,-18.718C51.605,-17.192 52.092,-15.573 52.595,-13.973C53.185,-12.09 53.911,-10.214 54.2,-8.28C54.75,-4.604 54.711,-0.954 53.343,2.643C52.616,4.556 51.691,6.146 49.88,7.08C49.475,7.289 48.752,7.237 48.339,7.009C47.323,6.453 46.396,5.731 45.443,5.061C44.111,4.125 43.905,2.589 44.932,1.336C46.239,-0.256 47.457,-1.932 48.88,-3.41C50.234,-4.816 50.863,-6.029 50.002,-8.111C49.145,-11.57 48,-14.208 46.865,-17.814C46.536,-18.785 45.483,-20.949 44.953,-21.853C44.825,-21.842 45.049,-20.513 44.922,-20.503C44.702,-19.161 44.521,-17.81 44.254,-16.477C43.757,-13.985 43.133,-11.43 42.357,-9.024C41.397,-6.047 40.207,-3.138 39.012,-0.239C38.472,1.071 37.68,2.478 37.065,3.755C36.424,5.088 35.679,6.522 35.019,7.847C34.401,9.087 33.928,9.937 33.122,11.592C34.938,11.3 36.585,11.072 37.981,10.978C40.69,10.796 43.416,10.858 46.116,10.612C49.737,10.284 53.593,10.671 56.593,7.955C57.753,6.905 59.122,5.837 59.722,4.48C60.467,2.792 60.671,0.807 60.811,-1.072C60.915,-2.462 60.499,-3.884 60.391,-5.298C60.252,-7.129 60.254,-8.973 60.081,-10.801C59.794,-13.817 59.464,-16.832 59.06,-19.835C58.685,-22.617 58.183,-25.381 57.747,-28.154C57.482,-29.834 57.387,-31.556 56.932,-33.181C56.65,-34.187 56.049,-35.507 55.225,-35.881C52.738,-37.013 50.088,-37.807 47.467,-38.627C45.782,-39.154 44.056,-39.589 42.319,-39.897C39.329,-40.426 36.327,-40.903 33.312,-41.246C31.364,-41.467 29.386,-41.413 27.42,-41.476C23.317,-41.609 18.867,-41.577 14.804,-40.87C12.315,-40.437 10.196,-39.944 7.915,-38.824C6.933,-38.342 5.999,-37.672 5.207,-36.916C4.191,-35.945 3.266,-35.16 2.424,-34.032C1.205,-32.74 0.143,-31.038 0,-30.017" style="fill:rgb(138,110,177);fill-rule:nonzero;"/>
            </g>
            <g transform="matrix(4.16667,0,0,4.16667,1170.08,679.346)">
                <path d="M0,-8.753C0.125,-6.869 0.159,-5.385 0.331,-3.916C0.737,-0.438 1.142,3.06 3.12,6.091C4.442,8.118 4.121,8.871 7.266,8.822C7.471,8.776 8.343,8.694 8.559,8.711C11.588,8.941 14.618,9.15 17.644,9.413C20.125,9.63 22.607,9.854 25.075,10.182C27.352,10.486 27.566,10.45 28.652,8.375C28.872,7.955 28.978,7.476 29.143,7.026C29.988,4.721 30.956,2.453 31.643,0.102C32.195,-1.787 32.583,-3.76 32.729,-5.72C32.93,-8.412 32.851,-11.127 32.843,-13.832C32.842,-14.17 32.636,-14.61 32.376,-14.827C30.023,-16.794 27.23,-18.153 24.317,-18.647C20.862,-19.234 17.262,-19.239 13.745,-19.078C10.965,-18.952 8.185,-18.324 5.46,-17.683C1.839,-16.83 1.099,-16.764 0.392,-12.634C0.151,-11.229 0.101,-9.79 0,-8.753" style="fill:rgb(36,170,225);fill-rule:nonzero;"/>
            </g>
            <g transform="matrix(4.16667,0,0,4.16667,1373.07,841.033)">
                <path d="M0,-7.49C0.154,-8.668 0.23,-9.845 0.474,-10.987C1.194,-14.342 0.081,-17.527 -0.41,-20.76C-0.554,-21.706 -1.262,-22.604 -2.519,-22.312C-3.848,-22.004 -5.158,-21.617 -6.626,-21.222C-6.384,-20.528 -6.082,-19.915 -5.96,-19.268C-5.485,-16.716 -4.987,-14.164 -4.643,-11.592C-4.12,-7.682 -3.699,-3.758 -3.276,0.165C-3.108,1.729 -3.08,3.308 -2.936,4.875C-2.495,9.639 -1.824,14.42 -4.242,18.92C-4.327,19.079 -4.305,19.297 -4.362,19.674C-3.104,19.316 -1.95,19.153 -0.948,18.672C2.42,17.059 5.456,14.927 8.087,12.276C9.255,11.1 10.577,9.908 11.252,8.455C12.287,6.22 13.069,3.797 13.506,1.374C13.967,-1.191 14.008,-3.851 14.037,-6.472C14.074,-10.057 13.816,-13.646 13.895,-17.229C13.953,-19.823 13.291,-22.212 12.415,-24.573C11.793,-26.25 10.728,-27.164 9.77,-26.771C8.252,-26.147 6.835,-25.279 5.591,-24.626C6.457,-22.631 7.353,-20.869 7.994,-19.019C8.733,-16.882 9.497,-14.7 9.795,-12.478C10.153,-9.802 10.152,-7.06 10.074,-4.354C10.032,-2.874 9.544,-1.399 9.175,0.057C9.093,0.375 8.66,0.602 8.389,0.871C8.255,0.781 8.121,0.691 7.987,0.6C8.266,-0.002 8.697,-0.579 8.8,-1.21C9.457,-5.264 9.374,-9.352 8.614,-13.355C8.08,-16.175 7.022,-18.898 6.152,-21.649C5.569,-23.485 4.513,-24.039 2.685,-23.577C2.516,-23.534 2.353,-23.466 2.185,-23.421C-0.04,-22.834 -0.049,-22.816 0.608,-20.658C0.645,-20.536 0.615,-20.393 0.647,-20.267C1.663,-16.304 1.17,-12.276 1.173,-8.269C1.173,-7.407 0.84,-7.173 0,-7.49" style="fill:rgb(36,170,225);fill-rule:nonzero;"/>
            </g>
            <g transform="matrix(4.16667,0,0,4.16667,1349.77,726.303)">
                <path d="M0,-36.68C-0.054,-34.956 -0.545,-33.945 -1.643,-33.202C-3.254,-32.111 -4.881,-32.163 -5.986,-33.667C-7.076,-35.15 -7.981,-36.772 -8.92,-38.36C-9.6,-39.51 -9.891,-41.037 -11.712,-40.942C-12.427,-40.905 -13.143,-40.886 -13.858,-40.864C-16.967,-40.769 -20.084,-40.771 -23.183,-40.549C-25.16,-40.408 -27.107,-39.885 -29.078,-39.624C-32.354,-39.189 -35.781,-37.956 -38.557,-36.241C-40.19,-35.232 -43.243,-31.808 -43.149,-31.649C-42.585,-31.797 -41.303,-32.545 -40.749,-32.724C-38.56,-33.431 -36.423,-34.458 -34.179,-34.814C-28.438,-35.726 -22.713,-35.828 -16.966,-34.32C-11.649,-32.925 -7.091,-30.5 -3.714,-26.153C-2.343,-24.388 -0.913,-22.482 -0.242,-20.403C0.901,-16.854 1.743,-13.152 2.203,-9.452C2.708,-5.385 2.672,-1.248 2.797,2.861C2.83,3.933 3.206,4.357 4.217,4.07C6.29,3.482 8.394,2.959 10.399,2.187C11.786,1.654 13.049,0.779 14.332,0C15.179,-0.514 15.629,-1.306 15.461,-2.326C15.26,-3.55 15.011,-4.767 14.778,-5.985C14.413,-7.895 14.039,-9.803 13.677,-11.713C13.235,-14.037 12.822,-16.367 12.365,-18.69C11.656,-22.289 9.929,-25.447 8.239,-28.661C6.782,-31.43 4.507,-33.292 2.228,-35.216C1.638,-35.714 0.932,-36.075 0,-36.68" style="fill:rgb(138,110,177);fill-rule:nonzero;"/>
            </g>
            <g transform="matrix(4.16667,0,0,4.16667,1155.32,715.492)">
                <path d="M0,-24.09C0.081,-24.01 0.163,-23.929 0.244,-23.85C0.413,-23.883 0.596,-23.885 0.747,-23.956C3.065,-25.034 5.32,-26.285 7.715,-27.151C9.643,-27.849 11.73,-28.128 13.763,-28.508C14.96,-28.731 16.187,-28.878 17.403,-28.9C20.026,-28.947 22.667,-29.069 25.272,-28.833C28.748,-28.517 31.889,-27.167 34.894,-25.331C38.323,-23.236 41.056,-20.535 42.48,-16.836C43.635,-13.839 44.408,-10.652 44.969,-7.483C45.499,-4.492 45.556,-1.414 45.773,1.629C45.861,2.851 45.722,4.096 45.883,5.304C45.978,6.006 46.289,6.909 46.814,7.272C47.674,7.865 48.447,7.189 48.465,5.959C48.554,0.2 48.402,-5.548 47.163,-11.197C46.591,-13.803 45.967,-16.43 45.013,-18.911C43.595,-22.595 40.569,-25.041 37.529,-27.324C35.03,-29.199 32.011,-30.147 29.024,-30.89C24.745,-31.955 20.337,-31.852 15.963,-31.612C14.101,-31.509 12.191,-31.291 10.419,-30.745C8.01,-30.002 5.866,-29.254 3.357,-27.979C1.324,-27.305 0.987,-25.484 0,-24.09" style="fill:rgb(231,230,219);fill-rule:nonzero;"/>
            </g>
            <g transform="matrix(4.16667,0,0,4.16667,1185.52,629.477)">
                <path d="M0,20.877C-0.699,19.744 -1.238,18.974 -1.67,18.15C-3.242,15.148 -3.701,11.803 -4.204,8.549C-4.749,5.013 -5.107,1.367 -3.775,-2.157C-3.621,-2.565 -3.698,-3.06 -3.667,-3.516C-4.081,-3.382 -4.496,-3.252 -4.907,-3.114C-5.154,-3.03 -5.427,-2.978 -5.637,-2.835C-6.54,-2.222 -7.746,-1.767 -8.244,-0.908C-9.096,0.567 -9.583,2.276 -10.071,3.932C-10.788,6.368 -11.436,8.83 -11.99,11.309C-12.379,13.048 -12.559,14.833 -12.839,16.596C-13.236,19.108 -13.64,21.62 -14.041,24.132C-13.906,24.219 -13.771,24.306 -13.638,24.393C-12.857,24.019 -12.093,23.602 -11.293,23.279C-8.354,22.091 -5.257,21.654 -2.126,21.373C-1.51,21.318 -0.909,21.095 0,20.877" style="fill:rgb(138,110,177);fill-rule:nonzero;"/>
            </g>
            <g transform="matrix(4.16667,0,0,4.16667,1343.58,625.528)">
                <path d="M0,28.056C0.04,27.485 0.115,27.1 0.084,26.724C-0.153,23.788 -0.388,20.851 -0.672,17.918C-0.848,16.095 -0.922,14.231 -1.373,12.47C-2.13,9.516 -3.011,6.574 -4.118,3.735C-4.716,2.203 -5.942,0.945 -7.439,0C-7.577,0.276 -7.68,0.391 -7.685,0.509C-7.807,3.129 -7.62,5.748 -8.355,8.347C-8.895,10.258 -8.74,12.375 -9.344,14.254C-10.263,17.111 -11.543,19.855 -12.729,22.622C-13.111,23.513 -12.853,23.846 -11.993,24.121C-8.431,25.264 -4.886,26.464 -1.333,27.641C-0.94,27.772 -0.54,27.888 0,28.056" style="fill:rgb(138,110,177);fill-rule:nonzero;"/>
            </g>
            <g transform="matrix(4.16667,0,0,4.16667,1166.43,801.934)">
                <path d="M0,32.654C0.089,32.529 0.179,32.404 0.269,32.279C-0.22,31.748 -0.779,31.266 -1.187,30.679C-3.54,27.294 -5.922,23.926 -8.17,20.471C-10.962,16.183 -12.618,11.375 -14.225,6.562C-14.882,4.597 -15.413,2.59 -16.031,0.612C-16.104,0.378 -16.366,0.203 -16.54,0C-16.684,0.258 -16.903,0.501 -16.955,0.777C-17.043,1.241 -17.031,1.725 -17.052,2.201C-17.159,4.669 -17.45,7.145 -17.328,9.603C-17.108,14.025 -16.217,18.355 -14.728,22.535C-14.138,24.194 -13.539,25.905 -12.6,27.373C-11.447,29.177 -9.84,30.52 -7.733,31.39C-5.189,32.442 -2.572,32.224 0,32.654" style="fill:rgb(138,110,177);fill-rule:nonzero;"/>
            </g>
            <g transform="matrix(4.16667,0,0,4.16667,1406.29,526.972)">
                <path d="M0,29.791C0.312,29.225 0.565,28.936 0.636,28.609C1.2,25.986 1.631,23.33 2.298,20.735C2.949,18.199 3.84,15.726 4.608,13.22C4.959,12.07 5.433,10.923 5.547,9.746C5.696,8.204 5.941,6.486 5.428,5.11C4.626,2.959 3.324,1.026 0.76,0.297C-0.237,0.014 -0.63,0 -0.476,1.002C-0.127,3.276 -1.172,5.269 -1.779,7.292C-2.648,10.193 -4.022,12.942 -5.152,15.767C-5.484,16.596 -5.397,17.283 -4.885,18.184C-3.547,20.533 -2.461,23.033 -1.382,25.52C-0.84,26.766 -0.533,28.114 0,29.791" style="fill:rgb(108,110,112);fill-rule:nonzero;"/>
            </g>
            <g transform="matrix(4.16667,0,0,4.16667,1099.58,826.03)">
                <path d="M0,-8.134C0.327,-8.263 0.575,-8.332 0.796,-8.45C2.875,-9.557 4.931,-10.709 7.032,-11.771C7.906,-12.211 8.854,-12.543 9.801,-12.792C12.093,-13.393 14.382,-14.221 16.713,-14.398C20.244,-14.667 23.821,-14.736 27.361,-14.455C43.703,-13.155 45.749,-8.563 47.265,-5.433C47.636,-4.815 48.261,-3.774 48.544,-3.122C49.228,-1.545 49.739,-0.428 50.298,1.196C51.12,3.585 51.826,6.011 52.635,8.403C52.77,8.802 53.18,9.404 53.45,9.397C54.053,9.381 54.832,9.216 54.74,8.283C54.668,7.547 54.66,6.77 54.405,6.095C53.487,2.319 52.228,-0.803 50.591,-4.469C49.696,-6.473 48.001,-9.271 46.598,-10.959C43.616,-14.544 39.204,-15.423 34.849,-16.092C31.626,-16.588 28.293,-17.085 25.034,-17.247C20.204,-17.488 15.563,-17.538 10.808,-16.399C7.618,-15.635 4.718,-13.707 1.908,-12.12C0.431,-11.286 -0.156,-9.923 0,-8.134" style="fill:rgb(231,230,219);fill-rule:nonzero;"/>
            </g>
            <g transform="matrix(4.16667,0,0,4.16667,1403.88,556.397)">
                <path d="M0,-8.462C-1.261,-9.309 -2.411,-10.04 -3.517,-10.833C-5.922,-12.553 -8.656,-12.292 -10.8,-10.971C-12.995,-9.62 -14.643,-7.35 -16.446,-5.404C-17.491,-4.276 -17.569,-2.982 -16.541,-1.724C-16.247,-1.364 -15.892,-1.013 -15.728,-0.594C-14.921,1.454 -13.504,2.939 -11.577,3.921C-11.243,4.091 -10.344,3.933 -10.321,3.809C-9.94,1.815 -8.66,0.337 -7.574,-1.259C-6.174,-3.314 -4.837,-5.416 -2.672,-6.788C-1.855,-7.305 -1.032,-7.816 0,-8.462" style="fill:rgb(140,198,63);fill-rule:nonzero;"/>
            </g>
            <g transform="matrix(4.16667,0,0,4.16667,1224.68,514.174)">
                <path d="M0,3.389C0.149,5.469 0.063,7.24 0.2,8.932C0.29,10.05 0.843,10.367 1.862,9.96C3.057,9.483 3.206,9.147 4.143,8.081C4.458,7.723 5.11,6.399 5.438,5.565C6.34,3.938 6.881,2.748 8.497,2.021C8.984,1.802 9.433,0.956 9.468,0.371C9.575,-1.4 9.401,-3.187 9.475,-4.962C9.525,-6.13 9.048,-6.766 7.986,-6.844C6.146,-6.978 4.564,-6.02 2.995,-5.296C1.572,-4.639 0.3,-3.582 0.1,-1.952C-0.133,-0.056 0.167,1.851 0,3.389" style="fill:rgb(140,198,63);fill-rule:nonzero;"/>
            </g>
            <g transform="matrix(4.16667,0,0,4.16667,1271.07,585.444)">
                <path d="M0,-16.012C0.002,-15.885 1.245,-15.759 1.248,-15.632C4.442,-14.364 5.984,-12.272 6.639,-11.619C9.583,-8.275 11.267,-4.389 13.414,-1.001C14.245,0.31 15.106,0.492 16.768,-0.184C17.696,-0.562 18.075,-1.651 17.56,-2.847C17.067,-3.991 16.473,-5.101 15.818,-6.161C14.779,-7.841 13.624,-9.452 12.567,-11.122C10.691,-14.088 8.956,-15.868 5.191,-16.361C4.103,-16.504 1.099,-16.124 0,-16.012" style="fill:rgb(231,230,219);fill-rule:nonzero;"/>
            </g>
            <g transform="matrix(4.16667,0,0,4.16667,1329.74,909.251)">
                <path d="M0,-6.869C0.145,-8.07 -0.103,-8.976 -0.354,-9.668C-1.014,-9.344 -2.238,-8.823 -2.701,-8.32C-4.233,-6.648 -6.031,-4.544 -7.393,-2.729C-9.062,-0.503 -8.681,-0.449 -6.83,1.183C-4.999,2.799 -3.583,2.782 -2.519,1.039C-1.056,-1.359 -0.327,-3.996 0,-6.869" style="fill:rgb(195,205,211);fill-rule:nonzero;"/>
            </g>
            <g transform="matrix(4.16667,0,0,4.16667,1282.17,549.852)">
                <path d="M0,-5.55C-2.568,-6.947 -5.615,-6.446 -7.057,-3.676C-7.706,-2.428 -8.822,-0.314 -9.503,1.066C-6.511,1.397 -5.447,0.69 -4.652,-1.057C-4.424,-1.558 -4.088,-2.034 -3.825,-2.482C-2.697,-4.404 -1.342,-5.081 0,-5.55" style="fill:rgb(169,168,151);fill-rule:nonzero;"/>
            </g>
            <g transform="matrix(4.16667,0,0,4.16667,1266.79,515.653)">
                <path d="M0,-5.679C0.175,-3.699 0.316,-2.038 0.482,-0.38C0.496,-0.243 0.711,0 0.798,-0.014C1.816,-0.188 2.828,-0.401 3.841,-0.604C3.695,-1.125 3.558,-1.647 3.403,-2.164C3.29,-2.538 3.189,-2.921 3.023,-3.272C2.508,-4.358 1.753,-5.188 0,-5.679" style="fill:rgb(108,110,112);fill-rule:nonzero;"/>
            </g>
            <g transform="matrix(4.16667,0,0,4.16667,1282.93,533.13)">
                <path d="M0,4.576C0.537,4.445 1.916,4.334 1.945,4.13C2.08,3.177 1.687,2.192 1.457,1.263C1.352,0.836 0.633,0.4 0.115,0.269C-0.959,0 -1.876,0.589 -1.945,1.405C-2.128,3.569 -1.556,4.484 0,4.576" style="fill:rgb(108,110,112);fill-rule:nonzero;"/>
            </g>
            <g transform="matrix(4.16667,0,0,4.16667,1273.77,539.852)">
                <path d="M0,2.817C-0.275,2.114 -0.475,0.296 -0.699,-0.278C-1.597,0.571 -2.265,2.641 -2.346,3.017C-1.884,3.063 -0.234,3.095 0,2.817" style="fill:rgb(140,198,63);fill-rule:nonzero;"/>
            </g>
            <g transform="matrix(4.16667,0,0,4.16667,1130.53,640.063)">
                <path d="M0,1.506C-0.667,2.265 -1.687,2.836 -2.662,3.172C-3.826,3.573 -4.871,1.862 -4.417,0.43C-4.068,-0.674 -2.83,-1.773 -1.512,-2.016C-0.563,-1.967 0.458,-1.386 0.571,-0.902C0.743,-0.163 0.498,0.937 0,1.506M2.012,-4.364C-0.507,-3.76 -3.047,-3.231 -5.534,-2.521C-6.949,-2.117 -7.163,-1.459 -6.698,-0.002C-6.346,1.101 -5.988,2.205 -5.555,3.276C-4.774,5.206 -3.367,5.87 -1.986,4.831C0.474,2.981 2.219,0.512 3.367,-2.324C4.011,-3.914 3.742,-4.169 2.012,-4.364" style="fill:rgb(195,205,211);fill-rule:nonzero;"/>
            </g>
            <g transform="matrix(4.05952,0.938854,0.938854,-4.05952,1306.71,910.586)">
                <path d="M0.518,-0.071C-0.292,-0.232 -1.05,-0.144 -1.285,1.045C-1.576,2.515 -0.724,4.151 0.518,4.478C1.713,4.792 2.287,4.204 2.468,3.161C2.747,1.562 2.41,0.433 0.518,-0.071" style="fill:rgb(35,31,32);fill-rule:nonzero;"/>
            </g>
            <g transform="matrix(-3.83334,-1.63297,-1.63297,3.83334,1306.45,907.036)">
                <path d="M-0.991,-2.88C0.193,-2.286 0.761,-1.607 0.357,-0.545C0.133,0.046 -0.318,0.317 -0.991,-0.053C-1.685,-0.434 -2.15,-1.696 -1.718,-2.394C-1.549,-2.667 -1.136,-2.789 -0.991,-2.88" style="fill:rgb(93,190,119);fill-rule:nonzero;"/>
            </g>
            <g transform="matrix(4.16667,0,0,4.16667,0,0)">
                <g opacity="0.2">
                    <g transform="matrix(1,0,0,1,323.223,180.479)">
                        <path d="M0,41.856C4.786,44.401 17.038,35.444 18.258,30.162C20.322,21.232 8.013,-2.545 -1.026,-1.02C2.667,18.264 6.359,37.547 0,41.856" style="fill:rgb(35,31,32);fill-rule:nonzero;"/>
                    </g>
                </g>
            </g>
            <g transform="matrix(4.16667,0,0,4.16667,0,0)">
                <g opacity="0.2">
                    <g transform="matrix(1,0,0,1,281.783,151.921)">
                        <path d="M0,21.178C7.267,19.514 37.762,21.748 41.129,28.704C41.181,11.89 38.773,-6.722 23.353,-7.526C27.754,-0.867 22.348,19.401 0,21.178" style="fill:rgb(35,31,32);fill-rule:nonzero;"/>
                    </g>
                </g>
            </g>
            <g transform="matrix(4.16667,0,0,4.16667,0,0)">
                <g opacity="0.2">
                    <g transform="matrix(1,0,0,1,325.814,149.516)">
                        <path d="M0,28.448C0.071,32.247 14.5,24.534 14.5,24.534C14.5,24.534 8.962,1.13 -8.681,-3.799C1.218,4.5 0.573,25.723 0,28.448" style="fill:rgb(35,31,32);fill-rule:nonzero;"/>
                    </g>
                </g>
            </g>
            <g transform="matrix(4.16667,0,0,4.16667,0,0)">
                <g opacity="0.2">
                    <g transform="matrix(1,0,0,1,263.157,227.601)">
                        <path d="M0,-36.589C6.567,-23.266 20.827,-4.878 33.4,-1.126C22.142,0 6.53,-3.743 6.53,-3.743C6.53,-3.743 -4.879,-16.699 0,-36.589" style="fill:rgb(35,31,32);fill-rule:nonzero;"/>
                    </g>
                </g>
            </g>
            <g transform="matrix(4.16667,0,0,4.16667,1173.52,887.475)">
                <path d="M0,1.948C2.396,-1.038 3.035,-1.829 5.345,-4.708C6.587,-2.881 7.8,-1.127 8.979,0.65C9.683,1.71 10.462,2.745 10.98,3.895C11.758,5.624 11.14,6.656 9.296,6.489C6.244,6.214 3.212,5.688 0.186,5.175C-0.343,5.085 -1.847,4.095 0,1.948" style="fill:rgb(35,31,32);fill-rule:nonzero;"/>
            </g>
            <g transform="matrix(4.16667,0,0,4.16667,1207.28,878.61)">
                <path d="M0,7.697C0.678,7.496 3.629,8.469 1.205,4.977C0.119,3.474 -1.018,2.004 -2.031,0.454C-2.789,-0.706 -3.481,-0.772 -4.295,0.381C-4.787,1.078 -5.349,1.729 -5.836,2.429C-6.446,3.31 -7.082,4.188 -7.55,5.144C-7.674,5.397 -7.295,6.229 -7.031,6.288C-4.709,6.821 -2.361,7.24 0,7.697" style="fill:rgb(128,130,133);fill-rule:nonzero;"/>
            </g>
        </g>
    </g>
</svg>
