<?xml version="1.0" encoding="UTF-8" standalone="no"?>
<!DOCTYPE svg PUBLIC "-//W3C//DTD SVG 1.1//EN" "http://www.w3.org/Graphics/SVG/1.1/DTD/svg11.dtd">
<svg width="100%" height="100%" viewBox="0 0 362 351" version="1.1" xmlns="http://www.w3.org/2000/svg" xmlns:xlink="http://www.w3.org/1999/xlink" xml:space="preserve" xmlns:serif="http://www.serif.com/" style="fill-rule:evenodd;clip-rule:evenodd;stroke-linejoin:round;stroke-miterlimit:2;">
    <g transform="matrix(1,0,0,1,-1746,-230)">
        <g transform="matrix(1,0,0,1,39.7173,-311.46)">
            <g transform="matrix(4.16667,0,0,4.16667,2044.55,805.769)">
                <path d="M0,-45.041C2.659,-40.244 3.897,-35.163 5.106,-29.916C7.763,-6.944 -2.507,3.671 -4.16,5.956C-5.277,7.498 -6.738,8.825 -8.189,10.083C-29.426,25.852 -49.696,19.789 -53.13,18.74C-56.335,17.76 -59.644,16.82 -62.543,15.207C-67.792,12.288 -72.687,8.67 -75.679,3.31C-77.828,-0.542 -79.817,-4.575 -80.261,-9.129C-80.52,-11.795 -81.268,-14.462 -81.17,-17.106C-81.036,-20.684 -80.579,-24.305 -79.746,-27.784C-78.867,-31.468 -77.621,-35.112 -76.084,-38.573C-75.038,-40.929 -73.354,-43.053 -71.708,-45.079C-69.971,-47.214 -68.079,-49.274 -65.998,-51.068C-63.428,-53.282 -60.713,-55.384 -57.834,-57.173C-55.143,-58.846 -52.239,-60.259 -49.275,-61.381C-47.377,-62.099 -18.072,-70.893 0,-45.041" style="fill:rgb(35,31,32);fill-rule:nonzero;"/>
            </g>
            <g transform="matrix(4.16667,0,0,4.16667,1712.88,805.38)">
                <path d="M0,-17.603C-0.17,-11.866 0.707,-6.339 3.136,-1.074C4.774,2.476 6.899,5.68 9.882,8.148C11.681,9.638 13.84,11.336 16.004,11.605C20.044,12.107 24.163,12.234 28.288,10.916C32.963,9.424 37.458,7.572 41.445,4.857C45.16,2.327 48.362,-0.949 51.814,-3.87C55.731,-7.184 58.429,-11.449 61.08,-15.746C61.308,-16.114 61.36,-16.86 61.138,-17.197C59.285,-20 59.469,-23.132 59.662,-26.225C59.791,-28.261 59.531,-28.782 57.456,-28.909C55.146,-29.05 52.826,-29.293 50.521,-29.203C40.658,-29.837 19.341,-28.14 12.658,-26.517C8.982,-25.624 5.224,-25.068 1.499,-24.385C0.496,-24.201 -0.033,-23.724 -0.01,-22.646C0.027,-20.966 0,-19.284 0,-17.603" style="fill:white;fill-rule:nonzero;"/>
            </g>
            <g transform="matrix(4.16667,0,0,4.16667,1854.72,698.384)">
                <path d="M0,-35.224C-2.696,-34.278 -5.401,-33.64 -7.801,-32.406C-10.6,-30.967 -13.159,-29.049 -15.766,-27.255C-17.255,-26.231 -18.791,-25.195 -20.024,-23.897C-22.898,-20.876 -25.921,-18.045 -28.053,-14.29C-30.312,-10.311 -31.972,-6.219 -32.966,-1.807C-33.272,-0.451 -32.665,0 -31.336,-0.276C-28.991,-0.763 -26.631,-1.183 -24.283,-1.656C-21.824,-2.152 -19.392,-2.924 -16.909,-3.145C-9.112,-3.84 -1.306,-4.587 6.513,-4.826C13.022,-5.024 19.553,-4.528 26.075,-4.376C26.414,-4.368 26.859,-4.607 27.089,-4.873C28.073,-6.006 27.656,-7.122 26.936,-8.206C26.184,-9.338 25.441,-10.475 24.685,-11.605C22.662,-14.632 20.76,-17.75 18.576,-20.656C16.507,-23.408 14.352,-26.163 11.84,-28.491C9.789,-30.391 7.208,-31.754 4.76,-33.179C3.307,-34.024 1.655,-34.527 0,-35.224" style="fill:rgb(19,117,188);fill-rule:nonzero;"/>
            </g>
            <g transform="matrix(4.16667,0,0,4.16667,1785.64,774.543)">
                <path d="M0,21.051C1.461,21.814 2.5,22.517 3.644,22.921C21.44,32.028 40.064,24.824 45.597,21.633C49.715,19.258 53.514,17.565 55.553,12.849C57.164,9.124 57.778,4.625 57.551,0.75C57.363,-2.456 55.948,-5.612 54.935,-8.743C54.283,-10.756 53.5,-10.977 51.994,-9.484C50.304,-7.81 48.414,-7.426 46.184,-7.744C45.72,-7.811 44.997,-7.558 44.721,-7.201C43.404,-5.491 42.279,-3.632 40.937,-1.944C39.027,0.462 37.257,3.085 34.944,5.043C30.884,8.482 27.261,12.538 22.233,14.75C19.346,16.022 16.617,17.699 13.662,18.771C11.108,19.697 8.353,20.11 5.657,20.587C3.964,20.885 2.217,20.881 0,21.051" style="fill:rgb(242,101,33);fill-rule:nonzero;"/>
            </g>
            <g transform="matrix(4.16667,0,0,4.16667,1863.99,654.357)">
                <path d="M0,-24.923C0.504,-24.625 2.149,-24.106 2.431,-23.94C4.563,-22.688 6.908,-21.692 8.778,-20.127C12.002,-17.425 14.884,-14.355 17.211,-10.775C20.066,-6.386 23.149,-2.147 26.07,2.199C26.665,3.085 27.297,3.273 28.252,3.043C29.664,2.702 31.043,2.315 32.545,2.884C34.595,3.66 35.119,3.342 36.035,1.298C36.985,-0.822 37.953,-2.936 38.923,-5.047C40.373,-8.201 39.647,-11.977 37.201,-13.647C23.719,-28.583 3.615,-26.044 0,-24.923" style="fill:white;fill-rule:nonzero;"/>
            </g>
            <g transform="matrix(4.16667,0,0,4.16667,2026.81,696.486)">
                <path d="M0,29.007C0.17,29.071 0.341,29.136 0.511,29.199C8.065,19.284 8.91,6.464 8.799,4.745C8.746,3.929 8.229,2.679 7.612,2.445C5.11,1.493 2.497,0.819 -0.097,0.125C-1.275,-0.192 -1.976,0.242 -1.948,1.628C-1.936,2.212 -2.319,2.794 -2.417,3.393C-2.667,4.937 -3.561,6.405 -2.549,8.063C0.235,12.621 1.191,17.617 0.68,22.906C0.484,24.942 0.228,26.974 0,29.007" style="fill:white;fill-rule:nonzero;"/>
            </g>
            <g transform="matrix(4.16667,0,0,4.16667,2013.09,711.04)">
                <path d="M0,-3.276C-0.464,-4.506 -1.068,-6.672 -2.085,-8.622C-2.991,-10.358 -4.811,-10.362 -7.739,-9.034C-9.467,-8.251 -11.427,-3.346 -11.382,-1.519C-11.189,6.1 -7.03,7.086 -5.912,6.514C-2.571,4.809 0.025,1.903 0,-3.276" style="fill:rgb(36,170,225);fill-rule:nonzero;"/>
            </g>
            <g transform="matrix(4.16667,0,0,4.16667,2037.79,702.977)">
                <path d="M0,-20.516C-0.184,-20.371 -0.367,-20.225 -0.552,-20.08C-1.706,-15.743 -3.128,-11.545 -5.598,-7.728C-6.837,-5.813 -5.358,-3.353 -3.149,-2.835C-0.654,-2.251 1.902,-1.711 4.225,-0.687C5.786,0 6.054,-0.464 5.906,-1.703C5.677,-3.621 5.257,-5.518 4.866,-7.412C4.017,-11.521 2.566,-15.419 0.687,-19.164C0.46,-19.616 0.229,-20.065 0,-20.516" style="fill:rgb(145,38,143);fill-rule:nonzero;"/>
            </g>
            <g transform="matrix(4.16667,0,0,4.16667,0,0)">
                <g opacity="0.2">
                    <g transform="matrix(1,0,0,1,426.595,218.498)">
                        <path d="M0,-77.154C-8.519,-49.701 18.933,-7.573 48.518,-11.123C32.66,0 8.607,-5.565 -1.893,-12.543C-13,-19.926 -29.82,-49.937 0,-77.154" style="fill:rgb(35,31,32);fill-rule:nonzero;"/>
                    </g>
                </g>
            </g>
        </g>
    </g>
</svg>
