<?xml version="1.0" encoding="UTF-8" standalone="no"?>
<!DOCTYPE svg PUBLIC "-//W3C//DTD SVG 1.1//EN" "http://www.w3.org/Graphics/SVG/1.1/DTD/svg11.dtd">
<svg width="100%" height="100%" viewBox="0 0 477 376" version="1.1" xmlns="http://www.w3.org/2000/svg" xmlns:xlink="http://www.w3.org/1999/xlink" xml:space="preserve" xmlns:serif="http://www.serif.com/" style="fill-rule:evenodd;clip-rule:evenodd;stroke-linejoin:round;stroke-miterlimit:2;">
    <g transform="matrix(1,0,0,1,-167,-1395)">
        <g transform="matrix(1,0,0,1,-186.347,312.031)">
            <g transform="matrix(4.16667,0,0,4.16667,398.215,1326.8)">
                <path d="M0,-26.563C-0.014,-26.256 -0.414,-25.963 -0.707,-25.8C-2.002,-25.085 -3.308,-24.382 -4.656,-23.775C-4.878,-23.676 -5.622,-24.086 -5.614,-24.236C-5.57,-25.148 -5.546,-26.125 -5.203,-26.949C-4.292,-29.129 -2.502,-30.344 -0.251,-30.91C0.497,-29.47 0.065,-27.945 0,-26.563M102.703,-9.311C101.998,-10.066 101.366,-10.889 100.676,-11.657C99.23,-13.264 97.767,-14.855 96.312,-16.454C94.106,-18.879 91.91,-21.315 89.689,-23.728C88.109,-25.444 86.506,-27.14 84.892,-28.824C83.803,-29.959 65.854,-48.049 63.212,-50.691C61.556,-52.348 59.927,-54.038 58.187,-55.604C56.727,-56.918 55.247,-58.597 53.034,-58.505C49.878,-58.373 48.174,-57.909 43.686,-56.572C41.929,-55.879 11.742,-46.37 8.747,-45.219C5.743,-44.067 2.738,-42.914 -0.277,-41.79C-5.785,-39.732 -2.211,-37.465 -1.201,-36.273C-4.188,-35.603 -7.314,-33.838 -8.754,-31.265C-9.371,-30.159 -10.098,-28.751 -10.376,-27.53C-10.717,-26.022 -10.879,-24.956 -10.599,-23.221C-10.465,-22.391 -9.836,-21.356 -9.238,-20.752C-7.963,-19.465 -6.371,-18.802 -4.426,-18.38C-4.426,-17.778 -4.447,-16.861 -4.422,-15.946C-4.359,-13.697 -2.701,-11.233 -0.612,-10.868C1.159,-10.559 1.334,-9.662 1.444,-8.142C1.677,-4.909 3.233,-3.366 6.557,-2.931C8.231,-2.712 8.335,-2.782 8.062,-1.179C7.517,2.04 10.118,6.198 13.526,5.71C15.417,5.439 15.353,5.598 15.501,7.597C15.667,9.831 15.945,12.123 18.575,12.93C19.382,13.178 20.28,13.163 21.138,13.196C22.035,13.229 22.481,13.464 22.325,14.523C22.011,16.653 23.279,18.645 25.337,19.32C26.614,19.739 27.661,19.332 28.991,19.615C29.42,19.705 30.028,20.036 30.126,20.38C30.361,21.205 30.227,22.137 30.457,22.965C30.756,24.04 31.051,25.231 31.726,26.063C33.334,28.048 35.507,28.852 38.11,28.472C38.532,28.411 39.111,28.832 39.491,29.172C41.206,30.709 43.018,32.034 45.481,31.394C47.408,30.892 49.326,30.296 51.177,29.562C54.747,28.147 90.135,15.033 94.28,13.581C96.536,12.791 98.754,11.879 100.944,10.923C102.444,10.268 102.652,8.931 101.563,7.716C100.684,6.733 99.901,5.624 98.873,4.832C98.146,4.271 98.162,3.828 98.347,3.105C98.799,1.343 99.109,-0.458 99.64,-2.193C99.863,-2.927 100.437,-3.589 100.964,-4.185C101.409,-4.688 102.024,-5.039 102.548,-5.476C103.956,-6.65 103.988,-7.937 102.703,-9.311" style="fill:rgb(35,31,32);fill-rule:nonzero;"/>
            </g>
            <g transform="matrix(4.16667,0,0,4.16667,409.328,1280.03)">
                <path d="M0,-20.39C0.929,-19.467 2.412,-18.126 3.399,-17.269C3.795,-16.925 4.186,-16.929 4.702,-16.919C5.35,-16.907 6.171,-17.375 6.829,-17.423C7.567,-17.477 8.058,-17.257 8.176,-18.12C8.222,-18.455 8.752,-18.89 9.135,-18.983C10.755,-19.385 11.99,-18.277 12.819,-17.031C14.114,-15.083 13.047,-13.461 10.797,-12.919C9.926,-12.709 9.181,-11.978 8.378,-11.484C8.8,-10.997 9.21,-10.499 9.644,-10.025C10.848,-8.711 13.936,-8.856 15.145,-10.21C15.414,-10.511 15.933,-10.681 16.358,-10.732C17.543,-10.87 19.047,-9.958 19.612,-8.852C20.061,-7.971 19.248,-5.492 18.442,-5.243C17.242,-4.871 16.049,-4.48 14.454,-3.97C15.543,-2.983 16.289,-2.339 17,-1.659C17.947,-0.752 20.033,-1.124 20.589,-2.319C21.265,-3.772 22.791,-3.832 24.082,-2.811C24.438,-2.53 24.296,-2.4 24.568,-2.04C25.844,-0.356 25.34,1.177 23.317,1.845C22.062,2.258 21.353,3.155 21.673,3.924C22.241,5.29 24.246,6.278 25.718,5.896C26.858,5.6 28.255,5.141 28.871,4.414C28.937,4.336 29.112,4.303 29.239,4.25C30.526,2.874 32.143,4.261 32.865,5.925C33.669,7.773 32.979,9.263 31.061,9.879C30.119,10.18 29.189,10.526 28.168,10.883C29.128,12.287 32.667,12.875 33.635,12.052C33.701,11.997 33.72,11.891 33.774,11.816C34.637,10.629 35.916,10.564 36.928,11.218C37.685,11.706 38.411,12.79 38.493,13.67C38.696,15.841 37.831,16.582 35.693,16.607C35.371,16.611 35.03,16.578 34.732,16.671C34.463,16.756 34.241,16.99 33.998,17.159C34.144,17.365 34.259,17.607 34.443,17.774C35.107,18.379 35.861,18.899 36.457,19.563C37.32,20.522 38.235,20.369 39.307,20.037C40.316,19.724 41.164,19.315 41.754,18.386C41.9,18.156 42.778,18.045 43.034,18.144C43.805,18.44 44.239,18.767 44.934,19.215C45.85,19.931 46.226,21.508 45.853,22.674C45.627,23.383 44.517,23.816 43.786,24.349C43.584,24.496 43.319,24.553 43.07,24.656C43.597,26.245 44.792,26.37 45.992,26.003C49.072,25.059 52.116,23.998 55.167,22.962C56.45,22.528 57.718,22.046 58.989,21.574C62.579,20.238 66.167,18.894 69.759,17.561C69.971,17.481 70.216,17.488 70.425,17.405C73.144,16.331 75.847,15.214 78.581,14.175C80.36,13.499 82.201,12.983 83.978,12.302C87.128,11.096 90.286,9.901 93.37,8.541C95.344,7.671 97.252,6.604 99.068,5.44C99.88,4.919 100.282,3.891 99.542,2.905C98.54,1.568 97.562,0.202 96.448,-1.039C93.777,-4.012 91.036,-6.921 88.319,-9.851C86.824,-11.464 85.333,-13.081 83.816,-14.673C82.648,-15.897 81.436,-17.08 80.256,-18.292C78.662,-19.929 77.107,-21.607 75.482,-23.214C73.975,-24.706 72.347,-26.077 70.863,-27.592C67.964,-30.552 65.169,-33.612 62.256,-36.558C60.083,-38.757 57.832,-40.884 55.543,-42.962C53.714,-44.62 52.49,-46.76 49.772,-46.484C48.11,-46.315 45.746,-45.474 44.091,-45.254C41.231,-44.875 -0.212,-31.41 -3.782,-29.13C-6.109,-28.179 -2.824,-25.248 -1.799,-25.46C-0.978,-25.63 0.464,-26 1.268,-26.277C1.741,-26.44 2.315,-26.714 2.727,-26.579C4.313,-26.059 5.535,-24.951 5.933,-23.353C6.111,-22.634 5.578,-21.667 5.176,-20.915C5.042,-20.664 4.304,-20.56 3.856,-20.662C2.575,-20.95 0.106,-20.601 0,-20.39" style="fill:rgb(220,93,104);fill-rule:nonzero;"/>
            </g>
            <g transform="matrix(4.16667,0,0,4.16667,583.17,1315.53)">
                <path d="M0,28.766C0.9,28.569 1.491,28.509 2.029,28.31C4.233,27.493 6.427,26.645 8.616,25.788C11.551,24.639 46.842,12.059 49.784,11.221C51.566,10.715 52.461,10.021 52.286,8.17C52.279,8.095 52.208,8.026 52.071,7.783C47.436,8.993 43.404,12.25 38.374,12.379C39.005,11.876 39.689,11.513 40.405,11.239C44.204,9.78 48.011,8.346 51.815,6.9C52.945,6.47 53.364,5.587 53.031,4.178C52.507,4.321 51.845,4.31 51.499,4.635C50.812,5.279 50.562,5.073 50.321,4.337C54.047,2.851 54.084,2.812 54.227,0C53.804,0.128 53.425,0.2 53.082,0.354C51.652,0.994 50.262,1.736 48.802,2.295C45.765,3.46 42.684,4.513 39.636,5.649C36.251,6.911 15.237,14.626 13.311,15.302C10.709,16.216 8.107,17.135 5.527,18.108C3.737,18.784 1.481,18.981 1.622,21.789C1.667,22.691 1.993,23.043 2.856,22.707C5.767,21.575 8.671,20.421 11.593,19.316C15.178,17.963 18.769,16.628 22.38,15.344C23.033,15.113 23.79,15.175 24.5,15.102C24.528,15.268 24.557,15.436 24.587,15.604C24.062,15.775 23.543,15.963 23.013,16.112C22.179,16.348 16.762,18.36 14.874,19.099C13.272,19.725 11.636,20.259 10.024,20.856C7.785,21.685 5.537,22.496 3.326,23.392C2.417,23.761 1.232,24.127 0.815,24.86C0.244,25.866 0.284,27.219 0,28.766" style="fill:rgb(244,248,250);fill-rule:nonzero;"/>
            </g>
            <g transform="matrix(4.16667,0,0,4.16667,807.336,1455.98)">
                <path d="M0,-25.663C-0.287,-24.74 -0.596,-24.275 -0.519,-23.886C-0.364,-23.105 -0.718,-22.804 -1.333,-22.563C-4.352,-21.374 -7.341,-20.109 -10.389,-19.001C-12.974,-18.061 -15.64,-17.342 -18.243,-16.445C-21.625,-15.277 -24.977,-14.02 -28.349,-12.821C-31.63,-11.654 -34.923,-10.518 -38.206,-9.355C-40.04,-8.705 -41.865,-8.03 -43.692,-7.362C-45.896,-6.558 -48.103,-5.766 -50.296,-4.936C-50.962,-4.684 -51.684,-4.435 -52.675,-4.119C-53.76,-3.435 -54.607,-3.44 -55.492,-4.342C-56.865,-5.742 -58.257,-7.123 -59.653,-8.501C-60.237,-9.077 -60.85,-9.625 -61.492,-10.223C-62.533,-7.852 -62.112,-5.521 -60.152,-4.255C-59.701,-3.964 -58.984,-3.574 -58.621,-3.182C-56.159,-0.52 -52.762,0 -49.647,-1.582C-47.283,-2.783 -6.143,-17.773 -2.564,-18.93C-1.098,-19.403 0.343,-19.972 1.76,-20.58C2.903,-21.07 3.093,-22.068 2.298,-23.018C1.63,-23.816 0.935,-24.59 0,-25.663" style="fill:rgb(217,27,91);fill-rule:nonzero;"/>
            </g>
            <g transform="matrix(4.16667,0,0,4.16667,403.31,1209.81)">
                <path d="M0,16.641C-0.35,15.803 -3.235,12.429 1.593,7.652C3.296,6.273 5.291,5.429 7.467,4.947C8.717,4.671 9.917,4.092 11.076,3.522C11.477,3.325 11.967,2.709 11.919,2.35C11.856,1.868 11.406,1.237 10.957,1.038C8.621,0 6.502,0.341 4.208,1.05C2.121,1.694 0.61,2.924 -0.971,4.293C-3.162,6.186 -5.122,8.795 -4.573,12.061C-4.189,14.345 -2.27,16.596 0,16.641" style="fill:rgb(36,170,225);fill-rule:nonzero;"/>
            </g>
            <g transform="matrix(4.16667,0,0,4.16667,461.74,1281.6)">
                <path d="M0,15.173C-0.422,14.535 -0.73,13.914 -1.179,13.422C-2.328,12.16 -2.67,9.765 -1.594,8.494C0.815,5.649 3.504,3.188 7.381,2.433C8.193,2.274 8.961,1.626 9.623,1.057C10.189,0.57 10.115,0.039 9.415,-0.49C8.197,-1.408 7.129,-1.106 5.77,-0.722C2.671,0.153 -0.194,1.265 -2.422,3.713C-4.068,5.523 -5.792,7.351 -6.039,9.861C-6.38,13.324 -4.496,16.581 0,15.173" style="fill:rgb(36,170,225);fill-rule:nonzero;"/>
            </g>
            <g transform="matrix(4.16667,0,0,4.16667,424.63,1243.27)">
                <path d="M0,15.896C-0.298,15.159 -0.715,14.499 -0.824,13.791C-1.167,11.544 0.149,10.215 1.764,8.834C3.599,7.266 5.58,6.303 7.376,5.47C8.775,4.821 9.989,4.367 11.332,3.92C12.143,3.651 13.181,2.252 12.913,1.582C12.435,0.385 10.752,-0.326 9.575,0.151C9.168,0.317 8.743,0.485 8.311,0.542C5.613,0.895 2.82,2.261 0.892,3.964C-0.954,5.596 -2.018,6.877 -3.431,9.369C-4.205,10.734 -4.162,12.648 -3.454,13.819C-2.804,14.894 -1.845,16.222 0,15.896" style="fill:rgb(36,170,225);fill-rule:nonzero;"/>
            </g>
            <g transform="matrix(4.16667,0,0,4.16667,476.368,1303.85)">
                <path d="M0,17.819C-0.137,15.537 0.083,14.79 0.535,13.466C1.837,9.652 5.352,7.269 8.744,5.558C10.184,4.833 11.859,4.308 13.354,3.67C13.953,3.415 14.51,3.045 14.779,2.443C14.894,2.183 14.262,1.536 13.899,1.128C12.897,0 11.222,0.257 10.094,0.729C8.306,1.476 6.874,2.105 5.312,3.171C3.082,4.692 1.075,6.583 -0.849,8.494C-1.98,9.617 -2.455,11.137 -2.414,12.846C-2.319,16.768 -0.608,16.97 0,17.819" style="fill:rgb(36,170,225);fill-rule:nonzero;"/>
            </g>
            <g transform="matrix(4.16667,0,0,4.16667,377.608,1177.91)">
                <path d="M0,16.04C-0.386,14.977 -0.945,13.493 -1.283,12.39C-2.025,9.964 -0.969,6.886 1.147,5.499C3.581,3.904 6.338,3.266 9.205,3.022C9.652,2.984 10.171,2.966 10.507,2.729C10.734,2.568 10.878,1.813 10.748,1.708C10.059,1.149 9.323,0.438 8.508,0.284C6.124,-0.164 3.809,-0.043 1.464,1.011C-2.442,2.769 -4.311,5.864 -4.995,9.83C-5.594,13.301 -3.007,16.204 0,16.04" style="fill:rgb(36,170,225);fill-rule:nonzero;"/>
            </g>
            <g transform="matrix(4.16667,0,0,4.16667,551.328,1368.39)">
                <path d="M0,17.206C-0.483,16.586 -1.071,16.064 -1.255,15.515C-1.821,13.831 -1.812,12.657 -1.447,11.018C-0.699,7.669 2.152,5.413 4.978,3.996C6.117,3.426 7.303,2.951 8.428,2.358C9.374,1.859 9.38,1.127 8.611,0.423C7.656,-0.454 6.347,-0.753 5.271,-0.344C3.82,0.205 2.966,0.637 1.632,1.448C-0.726,2.879 -2.882,5.364 -4.225,7.768C-5.589,10.209 -5.97,12.843 -4.469,15.329C-3.572,16.815 -1.559,17.959 0,17.206" style="fill:rgb(36,170,225);fill-rule:nonzero;"/>
            </g>
            <g transform="matrix(4.16667,0,0,4.16667,559.601,1395.19)">
                <path d="M0,-12.563C-1.031,-14.217 -3.505,-15.091 -4.847,-14.379C-6.118,-13.705 -7.516,-13.151 -8.571,-12.218C-10.304,-10.978 -11.873,-9.252 -13.371,-7.178C-14.083,-6.335 -14.434,-5.197 -15.015,-4.233C-16.815,-1.243 -15.028,2.263 -11.542,2.507C-11.25,2.528 -10.946,2.358 -10.5,2.238C-11.167,1.535 -11.976,1.08 -12.075,0.503C-12.381,-1.276 -12.153,-3.023 -11.096,-4.614C-8.955,-7.84 -6.088,-10.144 -2.517,-11.597C-1.697,-11.93 -0.864,-12.232 0,-12.563" style="fill:rgb(36,170,225);fill-rule:nonzero;"/>
            </g>
            <g transform="matrix(4.16667,0,0,4.16667,551.61,1410.62)">
                <path d="M0,-0.394C2.123,1.62 4.174,3.566 6.327,5.608C6.484,5.167 6.564,4.958 6.633,4.745C7.357,2.518 7.641,-0.204 8.075,-2.478C8.503,-4.726 9.298,-4.581 8.127,-5.686C7.61,-6.002 6.889,-5.906 6.266,-5.722C3.605,-4.937 1.456,-2.942 0,-0.394" style="fill:rgb(226,236,242);fill-rule:nonzero;"/>
            </g>
            <g transform="matrix(4.16667,0,0,4.16667,561.075,1376.67)">
                <path d="M0,-2.517C-0.983,-3.363 -1.872,-3.996 -2.592,-4.782C-3.355,-5.615 -4.181,-5.536 -4.936,-5.047C-6.023,-4.345 -7.064,-3.54 -8.004,-2.65C-9.993,-0.766 -9.961,-0.732 -8.21,1.3C-6.66,3.096 -6.608,3.098 -4.877,1.472C-4.777,1.379 -4.649,1.316 -4.543,1.23C-3.097,0.038 -1.653,-1.154 0,-2.517" style="fill:rgb(226,236,242);fill-rule:nonzero;"/>
            </g>
            <g transform="matrix(4.16667,0,0,4.16667,508.478,1313.58)">
                <path d="M0,-1.427C-0.067,-1.682 -0.645,-1.562 -0.713,-1.816C-1.811,-2.633 -2.91,-3.449 -4.011,-4.261C-4.033,-4.277 -4.094,-4.225 -4.139,-4.222C-6.717,-4.01 -8.361,-2.177 -10.19,-0.686C-10.321,-0.579 -10.276,-0.024 -10.119,0.159C-9.402,1.003 -8.671,1.856 -7.825,2.56C-7.526,2.809 -6.758,2.85 -6.424,2.638C-4.722,1.558 -3.098,0.354 -1.428,-0.777C-1.176,-0.947 -0.309,-1.34 0,-1.427" style="fill:rgb(226,236,242);fill-rule:nonzero;"/>
            </g>
            <g transform="matrix(4.16667,0,0,4.16667,409.715,1246.29)">
                <path d="M0,0.467C0.471,1.157 0.84,1.917 1.408,2.471C2.172,3.218 2.962,3.473 4.058,2.651C5.441,1.614 7.129,0.402 8.594,0.055C8.903,-0.018 9.223,-0.413 9.242,-0.675C9.295,-1.421 7.267,-3.006 6.483,-2.875C3.969,-2.455 1.654,-1.641 0,0.467" style="fill:rgb(226,236,242);fill-rule:nonzero;"/>
            </g>
            <g transform="matrix(4.16667,0,0,4.16667,434.961,1277.6)">
                <path d="M0,0.894C1.06,1.943 1.781,2.776 2.638,3.433C2.906,3.638 3.606,3.491 3.993,3.289C5.759,2.168 7.44,1.03 9.147,0.439C10.066,-0.029 10.144,-0.529 9.519,-1.22C9.097,-1.687 8.64,-2.155 8.11,-2.478C7.794,-2.67 7.228,-2.744 6.909,-2.59C4.712,-1.999 2.647,-0.988 0,0.894" style="fill:rgb(226,236,242);fill-rule:nonzero;"/>
            </g>
            <g transform="matrix(4.16667,0,0,4.16667,529.332,1347.04)">
                <path d="M0,-3.05C-1.289,-4.645 -2.048,-5.003 -3.029,-4.366C-5.032,-3.333 -7.634,-1.641 -8.427,-0.37C-7.418,0.469 -6.131,1.924 -5.705,1.953C-5.431,1.848 -5.23,1.548 -5.004,1.327C-4.33,0.669 -3.693,-0.031 -2.982,-0.646C-2.016,-1.482 -0.994,-2.254 0,-3.05" style="fill:rgb(226,236,242);fill-rule:nonzero;"/>
            </g>
            <g transform="matrix(4.16667,0,0,4.16667,480.643,1357.3)">
                <path d="M0,2.972C0.1,3.967 0.403,4.758 1.32,4.678C1.806,4.637 2.733,4.607 3.065,4.209C3.685,3.466 4.017,2.482 4.457,1.592C4.995,0.504 3.738,-1.726 2.537,-1.777C2.314,-1.786 2.012,-1.573 1.873,-1.424C0.84,-0.312 0.172,1.031 0,2.972" style="fill:rgb(217,27,91);fill-rule:nonzero;"/>
            </g>
            <g transform="matrix(4.16667,0,0,4.16667,525.242,1376.43)">
                <path d="M0,7.018C0.335,6.066 0.795,5.465 1.175,4.834C1.572,4.176 1.856,3.488 0.977,2.911C0.251,2.435 -0.329,1.678 -0.844,0.953C-1.512,0.014 -2.016,0 -2.402,0.829C-2.536,1.118 -2.977,2.125 -3.033,2.425C-3.184,3.232 -3.281,3.81 -2.958,4.381C-2.462,5.259 -0.961,6.177 0,7.018" style="fill:rgb(217,27,91);fill-rule:nonzero;"/>
            </g>
            <g transform="matrix(4.16667,0,0,4.16667,424.454,1298.83)">
                <path d="M0,-0.351C0.279,1.286 1.43,2.802 2.446,2.664C3.245,2.556 4.886,-0.098 4.474,-0.806C4.006,-1.609 3.36,-2.337 2.67,-2.966C2.465,-3.153 1.748,-2.916 1.464,-2.812C0.515,-2.464 0.134,-1.552 0,-0.351" style="fill:rgb(217,27,91);fill-rule:nonzero;"/>
            </g>
            <g transform="matrix(4.16667,0,0,4.16667,463.203,1316.74)">
                <path d="M0,5.279C0.197,5.498 1.16,5.213 1.428,4.956C3.109,3.351 3.005,2.426 1.116,0.943C1.012,0.859 0.853,0.842 0.753,0.755C-0.367,-0.219 -0.953,-0.069 -1.512,1.305C-2.227,3.062 -0.666,4.536 0,5.279" style="fill:rgb(217,27,91);fill-rule:nonzero;"/>
            </g>
            <g transform="matrix(4.16667,0,0,4.16667,402.151,1195.55)">
                <path d="M0,5.942C1.847,4.677 2.997,4.19 4.46,3.545C2.643,2.761 2.385,0.364 0,0L0,5.942Z" style="fill:rgb(226,236,242);fill-rule:nonzero;"/>
            </g>
            <g transform="matrix(4.16667,0,0,4.16667,408.086,1276.01)">
                <path d="M0,-5.968C-1.626,-3.623 -1.773,-2.623 -0.566,-0.766C-0.067,0 0.391,-0.036 0.899,-0.742C1.316,-1.32 1.765,-1.876 2.171,-2.462C2.295,-2.64 2.454,-2.983 2.378,-3.082C1.61,-4.078 0.918,-4.855 0,-5.968" style="fill:rgb(217,27,91);fill-rule:nonzero;"/>
            </g>
            <g transform="matrix(4.16667,0,0,4.16667,397.932,1239.3)">
                <path d="M0,-3.641C-0.064,-3.738 -0.128,-3.834 -0.192,-3.931C-1.555,-3.265 -2.958,-2.67 -4.266,-1.909C-5.173,-1.382 -4.584,-0.586 -4.246,0.009C-4.144,0.189 -3.344,0.29 -3.226,0.1C-2.463,-1.125 -1.328,-2.399 0,-3.641" style="fill:rgb(217,27,91);fill-rule:nonzero;"/>
            </g>
            <g transform="matrix(4.16667,0,0,4.16667,511.152,1272.35)">
                <path d="M0,1.692C-0.195,0.455 -0.612,-0.473 -1.75,-0.707C-2.093,-0.776 -2.592,-0.39 -2.903,-0.091C-2.985,-0.013 -2.685,0.556 -2.471,0.831C-2.15,1.24 -1.771,1.613 -1.374,1.952C-1.128,2.163 -0.743,2.468 -0.53,2.399C-0.271,2.314 -0.128,1.878 0,1.692" style="fill:rgb(69,93,96);fill-rule:nonzero;"/>
            </g>
            <g transform="matrix(4.16667,0,0,4.16667,596.085,1359.38)">
                <path d="M0,3.565C0.562,2.858 0.471,1.904 -0.152,1.124C-0.552,0.626 -1.262,0.331 -1.886,0.082C-2.089,0 -2.616,0.288 -2.713,0.522C-2.795,0.723 -2.578,1.201 -2.318,1.372C-1.487,1.92 -0.68,2.533 0,3.565" style="fill:rgb(69,93,96);fill-rule:nonzero;"/>
            </g>
            <g transform="matrix(4.16667,0,0,4.16667,414.54,1184.34)">
                <path d="M0,-2.372C1.343,-1.418 2.299,-0.542 2.895,0.324C3.06,0.472 3.372,0.456 3.617,0.515C3.673,0.266 3.799,0.009 3.77,-0.229C3.668,-1.083 2.034,-2.887 0.923,-2.727C0.553,-2.672 0.206,-2.454 0,-2.372" style="fill:rgb(69,93,96);fill-rule:nonzero;"/>
            </g>
            <g transform="matrix(4.16667,0,0,4.16667,459.705,1203.78)">
                <path d="M0,4.065C1.064,2.106 -0.442,0.807 -2.032,0C-2.79,0.055 -2.907,0.414 -3.306,0.766C-1.637,1.584 -0.572,2.999 0,4.065" style="fill:rgb(69,93,96);fill-rule:nonzero;"/>
            </g>
            <g transform="matrix(4.16667,0,0,4.16667,553.892,1338.11)">
                <path d="M0,-1.482C1.192,-0.399 2.112,0.088 1.929,0.913C1.885,1.108 2.256,1.353 2.355,1.325C2.576,1.264 2.905,1.059 2.921,0.887C2.975,0.314 3.175,-0.392 2.861,-0.841C1.462,-2.835 0.408,-2.036 0,-1.482" style="fill:rgb(69,93,96);fill-rule:nonzero;"/>
            </g>
            <g transform="matrix(4.16667,0,0,4.16667,473.572,1247.79)">
                <path d="M0,-1.844C1.625,-0.923 2.221,-0.003 2.098,0.924C2.068,1.157 2.477,1.408 2.648,1.391C2.847,1.372 3.18,1.063 3.175,0.886C3.155,0.135 3.341,-0.873 2.879,-1.307C0.813,-3.252 0.866,-1.565 0,-1.844" style="fill:rgb(69,93,96);fill-rule:nonzero;"/>
            </g>
            <g transform="matrix(4.16667,0,0,4.16667,532.391,1309.58)">
                <path d="M0,-1.641C1.197,-0.629 2,0.216 2.488,1.006C3.274,-0.365 2.236,-2.647 0.883,-2.539C0.125,-2.485 0.217,-1.826 0,-1.641" style="fill:rgb(69,93,96);fill-rule:nonzero;"/>
            </g>
            <g transform="matrix(4.16667,0,0,4.16667,0,0)">
                <g opacity="0.2">
                    <g transform="matrix(1,0,0,1,143.013,278.874)">
                        <clipPath id="_clip1">
                            <path d="M4.997,-18.152C3.335,-17.984 0.972,-17.142 -0.683,-16.921C-3.544,-16.542 -44.986,-3.078 -48.556,-0.796C-50.883,0.154 -47.599,3.085 -46.573,2.873C-45.752,2.703 -44.31,2.331 -43.507,2.056C-43.034,1.893 -42.46,1.618 -42.047,1.753C-40.461,2.274 -39.239,3.382 -38.842,4.98C-38.662,5.698 -39.196,6.665 -39.598,7.417C-39.733,7.669 -40.47,7.772 -40.919,7.671C-42.199,7.383 -44.668,7.732 -44.774,7.942C-43.846,8.866 -42.362,10.205 -41.376,11.063C-40.979,11.407 -40.589,11.402 -40.073,11.413C-39.425,11.425 -38.603,10.957 -37.946,10.908C-37.798,10.898 -37.658,10.898 -37.53,10.899C-37.024,10.901 -36.692,10.903 -36.599,10.212C-36.553,9.878 -36.022,9.443 -35.639,9.349C-34.019,8.947 -32.785,10.055 -31.956,11.301C-30.661,13.248 -31.727,14.871 -33.978,15.414C-34.848,15.623 -35.593,16.355 -36.396,16.849C-35.974,17.336 -35.565,17.833 -35.131,18.307C-33.926,19.621 -30.837,19.476 -29.629,18.122C-29.361,17.821 -28.84,17.652 -28.415,17.602C-27.232,17.461 -25.728,18.376 -25.162,19.482C-24.713,20.362 -25.527,22.841 -26.333,23.09C-27.532,23.462 -28.726,23.853 -30.32,24.363C-29.23,25.349 -28.485,25.993 -27.775,26.674C-26.827,27.581 -24.741,27.209 -24.186,26.014C-23.51,24.559 -21.983,24.501 -20.692,25.521C-20.336,25.802 -20.478,25.932 -20.205,26.291C-18.931,27.976 -19.434,29.51 -21.458,30.177C-22.711,30.59 -23.42,31.488 -23.102,32.256C-22.534,33.623 -20.527,34.61 -19.056,34.228C-17.917,33.933 -16.52,33.473 -15.903,32.746C-15.838,32.669 -15.662,32.635 -15.536,32.583C-14.248,31.206 -12.632,32.593 -11.908,34.258C-11.105,36.106 -11.796,37.596 -13.714,38.212C-14.656,38.513 -15.586,38.859 -16.607,39.216C-15.647,40.62 -12.107,41.207 -11.14,40.384C-11.074,40.328 -11.054,40.223 -11.001,40.149C-10.138,38.96 -8.858,38.897 -7.847,39.549C-7.09,40.04 -6.363,41.122 -6.281,42.002C-6.079,44.173 -6.944,44.915 -9.081,44.939C-9.153,44.94 -9.226,44.939 -9.298,44.938C-9.553,44.935 -9.811,44.932 -10.042,45.004C-10.312,45.088 -10.534,45.323 -10.777,45.491C-10.63,45.698 -10.515,45.94 -10.332,46.106C-9.667,46.711 -8.914,47.232 -8.317,47.895C-7.455,48.854 -6.54,48.702 -5.468,48.369C-4.458,48.057 -3.609,47.648 -3.021,46.718C-2.875,46.488 -1.997,46.378 -1.741,46.477C-0.97,46.773 -0.536,47.098 0.16,47.548C1.076,48.263 1.451,49.84 1.079,51.007C0.853,51.714 -0.258,52.149 -0.989,52.682C-1.189,52.828 -1.456,52.885 -1.705,52.989C-1.178,54.578 0.018,54.703 1.217,54.334C4.298,53.391 7.342,52.33 10.393,51.295C11.677,50.859 12.943,50.379 14.214,49.906C17.804,48.57 21.393,47.227 24.985,45.892C25.196,45.814 25.441,45.821 25.651,45.737C28.369,44.663 31.074,43.547 33.806,42.508C35.585,41.831 37.426,41.315 39.205,40.634C42.353,39.428 45.511,38.233 48.595,36.873C50.57,36.002 52.478,34.937 54.295,33.772C54.8,33.448 55.146,32.928 55.157,32.344L55.157,32.285C55.151,31.947 55.032,31.59 54.768,31.238C53.765,29.9 52.787,28.534 51.673,27.294C49.003,24.32 46.261,21.412 43.544,18.481C42.049,16.869 40.558,15.251 39.042,13.659C37.874,12.435 36.661,11.253 35.481,10.041C33.887,8.403 32.332,6.726 30.708,5.119C29.2,3.627 27.572,2.256 26.088,0.741C23.19,-2.22 20.395,-5.28 17.482,-8.225C15.309,-10.424 13.058,-12.551 10.768,-14.629C9.048,-16.189 7.862,-18.176 5.465,-18.176C5.314,-18.176 5.159,-18.168 4.997,-18.152Z" clip-rule="nonzero"/>
                        </clipPath>
                        <g clip-path="url(#_clip1)">
                            <path d="M0,55.268C14.049,58.565 53.894,34.594 53.894,34.594C53.894,34.594 16.261,49.229 -43.208,-3.272C-44.935,-3.297 -49.712,-0.949 -49.712,-0.949L-50.409,0.446C-50.409,0.446 -18.126,51.014 0,55.268" style="fill:rgb(35,31,32);fill-rule:nonzero;"/>
                        </g>
                    </g>
                </g>
            </g>
            <g transform="matrix(4.16667,0,0,4.16667,667.15,1265.53)">
                <path d="M0,15.29C-1.689,13.73 -3.267,12.052 -4.932,10.466C-6.494,8.978 -5.895,7.352 -4.136,6.314C-0.014,4.421 3.737,3.303 7.09,1.906C10.817,0.685 14.522,-0.611 18.267,-1.769C18.853,-1.95 19.791,-1.804 20.254,-1.428C22.3,0.236 24.268,2.001 26.187,3.811C27.019,4.597 28.129,6.171 27.246,6.905C26.408,7.6 24.278,8.605 23.286,9.013C20.831,10.022 18.299,10.999 15.809,11.924C12.547,13.137 9.313,14.427 6.029,15.578C4.833,15.997 2.514,17.24 0,15.29" style="fill:rgb(35,31,32);fill-rule:nonzero;"/>
            </g>
            <g transform="matrix(4.16667,0,0,4.16667,679.074,1258.18)">
                <path d="M0,17.052C0.538,16.941 1.297,16.969 1.812,16.793C4.25,15.957 6.791,15.042 9.216,14.171C12.456,13.005 15.391,11.824 18.608,10.597C19.7,10.18 22.192,9.279 23.149,8.618C24.465,7.707 23.002,6.426 21.785,5.331C21.057,4.678 20.35,3.996 19.673,3.29C17.628,1.157 16.524,-0.087 13.806,1.181C13.29,1.422 -5.482,7.888 -7.186,9.183C-7.985,9.791 -7.733,10.58 -7.212,11.256C-6.384,12.331 -5.629,13.522 -4.598,14.365C-3.239,15.476 -2.117,17.139 0,17.052" style="fill:rgb(234,236,216);fill-rule:nonzero;"/>
            </g>
            <g transform="matrix(4.16667,0,0,4.16667,0,0)">
                <g opacity="0.5">
                    <g transform="matrix(1,0,0,1,125.444,273.741)">
                        <path d="M0,-2.746C11.857,-7.01 18.323,-8.789 23.583,-8.742C27.313,-6.876 37.707,5.115 38.709,6.043C25.982,0.052 25.182,-7.809 0,-2.746" style="fill:white;fill-rule:nonzero;"/>
                    </g>
                </g>
            </g>
        </g>
    </g>
</svg>
