<?xml version="1.0" encoding="UTF-8" standalone="no"?>
<!DOCTYPE svg PUBLIC "-//W3C//DTD SVG 1.1//EN" "http://www.w3.org/Graphics/SVG/1.1/DTD/svg11.dtd">
<svg width="100%" height="100%" viewBox="0 0 351 500" version="1.1" xmlns="http://www.w3.org/2000/svg" xmlns:xlink="http://www.w3.org/1999/xlink" xml:space="preserve" xmlns:serif="http://www.serif.com/" style="fill-rule:evenodd;clip-rule:evenodd;stroke-linejoin:round;stroke-miterlimit:2;">
    <g transform="matrix(1,0,0,1,-1932,-1220)">
        <g transform="matrix(1,0,0,1,225.344,199.76)">
            <g transform="matrix(4.16667,0,0,4.16667,1835.62,1441.22)">
                <path d="M0,-81.86C1.631,-82.35 1.679,-75.506 2.88,-72.55C3.018,-72.575 3.156,-72.599 3.294,-72.623C3.75,-73.938 4.25,-75.237 4.648,-76.569C5.147,-78.24 5.445,-79.981 6.054,-81.608C6.492,-82.78 7.178,-83.909 7.96,-84.893C10.117,-87.605 12.374,-90.238 14.616,-92.883C14.859,-93.171 15.305,-93.549 15.568,-93.49C15.872,-93.421 16.221,-92.948 16.302,-92.594C16.943,-89.789 17.523,-87.862 18.143,-85.053C18.273,-84.459 18.56,-83.008 18.68,-82.416C18.973,-80.968 19.209,-79.508 19.504,-77.846C20.146,-78.548 20.917,-79.348 21.639,-80.189C23.595,-82.467 25.525,-84.767 27.477,-87.047C27.701,-87.31 28.191,-87.814 28.602,-86.874C28.843,-86.491 30.164,-79.558 30.306,-79.529C30.652,-80.429 32.296,-87.849 32.851,-90.233C32.983,-90.799 33.42,-91.32 33.796,-91.797C35.063,-93.4 36.339,-94.998 37.666,-96.551C38.735,-97.803 39.862,-99.005 41.009,-100.186C41.201,-100.385 41.534,-100.676 41.999,-100.8C42.289,-99.839 42.681,-98.652 42.898,-97.749C43.648,-94.626 44.083,-91.389 45.21,-88.411C45.833,-86.763 45.016,-85.715 44.786,-84.428C44.188,-81.078 39.591,-63.135 39.166,-61.375C41.666,-61.278 43.966,-61.122 46.265,-61.123C47.715,-61.124 48.974,-60.979 49.861,-59.635C51.312,-57.439 52.576,-54.79 53.138,-52.566C53.188,-51.518 52.73,-51.139 51.711,-51.089C48.419,-50.926 45.128,-50.697 41.837,-50.496C40.07,-50.387 37.862,-48.446 37.332,-46.727C36.133,-42.833 34.812,-38.977 33.619,-35.083C32.789,-32.371 19.187,16.152 18.569,17.974C18.425,18.4 17.563,18.819 17.021,18.835C13.677,18.931 10.327,18.94 6.981,18.919C5.03,18.905 3.077,18.805 1.128,18.703C-2.495,18.514 -6.151,18.536 -9.725,18.017C-12.759,17.577 -14.517,16.523 -18.314,14.737C-19.352,13.913 -27.435,10.394 -30.119,9.023C-30.52,8.817 -30.945,8.024 -30.863,7.6C-30.205,4.218 -29.436,0.856 -28.679,-2.506C-28.276,-4.297 -27.872,-6.093 -27.38,-7.862C-26.639,-10.529 -25.732,-13.152 -25.058,-15.835C-24.277,-18.941 -20.635,-32.737 -19.5,-36.507C-18.931,-38.399 -18.511,-40.336 -17.937,-42.225C-17.077,-45.055 -16.126,-47.857 -15.24,-50.678C-14.817,-52.021 -14.474,-53.39 -14.054,-54.734C-13.952,-55.066 -13.688,-55.349 -13.494,-55.652C-13.057,-56.332 -12.446,-56.955 -12.21,-57.698C-11.288,-60.611 -10.482,-63.56 -9.643,-66.499C-9.54,-66.862 -9.395,-67.265 -9.457,-67.617C-8.492,-71.029 -8.394,-70.932 -7.302,-72.33C-6.004,-73.99 -4.703,-75.648 -3.421,-77.32C-2.309,-78.77 -1.22,-80.238 0,-81.86" style="fill:rgb(35,31,32);fill-rule:nonzero;"/>
            </g>
            <g transform="matrix(4.16667,0,0,4.16667,1986.84,1482.23)">
                <path d="M0,-55.938C0.073,-57.933 -1.165,-58.495 -2.072,-59.038C-3.952,-60.164 -6.001,-61.007 -7.969,-61.992C-9.755,-62.887 -10.531,-62.59 -11.131,-60.718C-11.576,-59.333 -12.004,-57.944 -12.45,-56.56C-13.891,-52.084 -15.348,-47.614 -16.778,-43.136C-17.768,-40.036 -18.742,-36.932 -19.689,-33.82C-20.663,-30.625 -21.558,-27.406 -22.557,-24.219C-23.44,-21.403 -24.491,-18.638 -25.339,-15.812C-26.53,-11.841 -27.598,-7.832 -28.735,-3.844C-28.965,-3.033 -29.206,-2.217 -29.538,-1.445C-30.446,0.66 -29.892,2.008 -27.712,2.853C-27.578,2.906 -27.44,2.95 -27.313,3.016C-24.825,4.295 -22.351,5.601 -19.835,6.822C-19.575,6.949 -18.855,6.677 -18.718,6.404C-18.258,5.488 -17.88,4.508 -17.621,3.513C-16.61,-0.371 -0.627,-53.795 0,-55.938" style="fill:rgb(140,198,63);fill-rule:nonzero;"/>
            </g>
            <g transform="matrix(4.16667,0,0,4.16667,1886.7,1394.97)">
                <path d="M0,-29.02C-15.251,-27.942 -22.062,-21.278 -24.594,-19.407C-26.442,-18.042 -29.726,-15.509 -31.222,-13.769C-33.005,-11.696 -33.634,-10.209 -35.179,-7.942C-35.698,-7.178 -36.261,-5.696 -35.301,-4.919C-33.942,-3.821 -32.543,-2.693 -30.986,-1.94C-27.204,-0.111 -23.107,0.203 -18.995,-0.207C-15.286,-0.577 -11.726,-1.662 -8.131,-2.674C-5.314,-3.468 -2.855,-4.842 -0.316,-6.104C0.896,-6.707 2.087,-7.581 2.433,-9.146C2.736,-10.514 3.137,-11.865 3.576,-13.198C5.029,-17.61 6.526,-22.008 7.991,-26.418C8.432,-27.748 8.008,-27.428 6.923,-28.302C6.651,-28.521 2.867,-29.223 0,-29.02" style="fill:rgb(140,198,63);fill-rule:nonzero;"/>
            </g>
            <g transform="matrix(4.16667,0,0,4.16667,1874.69,1442.53)">
                <path d="M0,-4.821C-1.547,-4.632 -2.848,-4.416 -4.157,-4.324C-9.457,-3.948 -14.522,-5.039 -19.446,-6.894C-20.678,-7.358 -21.869,-7.937 -23.055,-8.511C-24.66,-9.287 -26.308,-10 -27.813,-10.942C-29.519,-12.009 -31.086,-13.298 -32.713,-14.491C-33.548,-15.104 -34.034,-14.773 -34.267,-13.888C-35.115,-10.654 -36.014,-7.433 -36.768,-4.177C-37.537,-0.865 -38.14,2.483 -38.848,5.808C-39.124,7.099 -38.607,7.701 -37.344,7.813C-32.229,8.272 -27.118,8.76 -22.002,9.192C-19.913,9.369 -17.815,9.428 -15.72,9.55C-12.483,9.74 -9.241,9.9 -6.007,10.153C-4.349,10.283 -4.029,10.091 -3.577,8.461C-2.607,4.971 -1.571,1.499 -0.592,-1.989C-0.355,-2.835 -0.228,-3.712 0,-4.821" style="fill:rgb(215,223,34);fill-rule:nonzero;"/>
            </g>
            <g transform="matrix(4.16667,0,0,4.16667,1759.97,1214.08)">
                <path d="M0,16.317C0.131,16.439 0.26,16.561 0.391,16.683C1.929,16.111 3.443,15.453 5.013,14.986C18.362,10.557 29.114,12.744 32.625,13.249C34.49,13.518 36.331,13.948 38.191,14.245C38.473,14.289 38.957,14.082 39.089,13.846C39.471,13.164 39.775,12.423 40.013,11.675C40.299,10.77 40.436,9.817 40.724,8.912C41.421,6.732 42.177,4.569 42.895,2.393C43.155,1.602 42.93,1.088 42.014,1.042C39.066,0.892 36.119,0.691 33.169,0.64C32.724,0.632 32.227,1.277 31.824,1.686C31.2,2.318 30.74,3.163 30.027,3.646C27.694,5.222 25.019,5.564 22.276,5.419C19.811,5.288 17.274,3.569 17.073,1.744C16.908,0.25 16.057,-0.234 14.813,-0.258C12.089,-0.311 9.358,-0.366 6.642,-0.209C5.923,-0.168 4.87,0.495 4.624,1.127C3.877,3.047 3.452,5.09 2.895,7.085C2.742,7.628 2.564,8.164 2.396,8.703C1.598,11.241 0.798,13.779 0,16.317" style="fill:rgb(215,223,34);fill-rule:nonzero;"/>
            </g>
            <g transform="matrix(4.16667,0,0,4.16667,1940.49,1085.71)">
                <path d="M0,30.454C0.224,30.648 0.528,31.056 0.932,31.236C1.711,31.581 2.583,31.72 3.35,32.082C5.036,32.877 6.668,33.783 8.345,34.598C9.468,35.143 10.166,34.666 10.451,33.526C10.964,31.469 11.448,29.403 11.952,27.344C12.715,24.23 18.007,4.855 18.667,0.689C19.414,-0.899 18.341,-1.894 17.684,-2.27C15.358,-3.603 12.838,-4.689 10.007,-4.231C9.225,-4.104 8.439,-4.002 8.188,-2.956C7.29,0.785 6.307,4.507 5.388,8.245C4.869,10.354 4.448,12.488 3.926,14.597C3.002,18.327 2.025,22.045 1.089,25.772C0.722,27.226 0.408,28.693 0,30.454" style="fill:rgb(0,155,223);fill-rule:nonzero;"/>
            </g>
            <g transform="matrix(4.16667,0,0,4.16667,1886.06,1234.67)">
                <path d="M0,-31.676L0,-31.69C-1.192,-31.69 -2.384,-31.714 -3.576,-31.684C-4.716,-31.655 -5.414,-31.039 -5.701,-29.942C-6.31,-27.617 -6.905,-25.29 -7.537,-22.971C-7.997,-21.29 -8.498,-19.62 -8.992,-17.948C-9.725,-15.467 -10.48,-12.992 -11.206,-10.509C-11.576,-9.246 -12.027,-7.99 -12.215,-6.698C-12.381,-5.543 -12.63,-4.14 -12.151,-3.204C-10.998,-0.959 -7.567,0.038 -5.51,-0.432C-4.364,-0.693 -3.207,-1.025 -2.151,-1.528C-1.496,-1.837 -0.692,-2.437 -0.525,-3.06C0.216,-5.836 0.701,-8.678 1.375,-11.474C2.268,-15.175 3.248,-18.855 4.195,-22.543C4.724,-24.599 5.36,-26.633 5.768,-28.711C6.18,-30.819 5.468,-31.586 3.296,-31.669C2.199,-31.711 1.098,-31.676 0,-31.676" style="fill:rgb(57,181,74);fill-rule:nonzero;"/>
            </g>
            <g transform="matrix(4.16667,0,0,4.16667,1920.99,1126.98)">
                <path d="M0,20.639C3.604,20.709 3.62,20.628 4.213,17.79C4.82,14.882 5.653,12.16 6.41,9.287C6.863,7.569 7.444,5.752 7.891,4.033C8.388,2.114 8.467,0.766 5.705,0.415C3.915,-0.068 1.969,-0.07 -0.288,0.415C-1.136,0.528 -2.391,1.588 -2.789,2.379C-3.404,3.607 -6.187,16.392 -6.885,19.06C-7.055,19.707 -6.96,20.138 -6.094,20.184C-3.857,20.301 -1.624,20.512 0,20.639" style="fill:rgb(248,237,47);fill-rule:nonzero;"/>
            </g>
            <g transform="matrix(4.16667,0,0,4.16667,1722.1,1516.88)">
                <path d="M0,-8.974C0.051,-8.807 0.059,-8.434 0.201,-8.372C1.628,-7.757 3.094,-7.233 4.514,-6.602C6.089,-5.903 7.602,-5.063 9.185,-4.387C11.627,-3.342 14.036,-2.098 16.589,-1.47C19.15,-0.842 21.87,-0.842 24.524,-0.604C26.403,-0.437 28.287,-0.242 30.17,-0.227C32.511,-0.21 39.892,-0.079 41.245,-0.022C41.783,0 42.334,-0.332 43.289,-0.631C41.714,-1.522 40.56,-2.249 39.342,-2.843C38.037,-3.479 36.674,-4.001 35.329,-4.554C33.65,-5.244 32.014,-6.277 30.27,-6.523C25.954,-7.132 21.59,-7.43 17.238,-7.754C13.386,-8.042 9.521,-8.169 5.665,-8.417C3.844,-8.535 2.032,-8.77 0,-8.974" style="fill:rgb(140,198,63);fill-rule:nonzero;"/>
            </g>
            <g transform="matrix(4.16667,0,0,4.16667,1774.49,1396.18)">
                <path d="M0,0.519C-0.048,0.71 -0.097,0.901 -0.144,1.092C3.474,2.933 7.398,4.516 11.123,5.232C14.479,5.877 17.588,5.943 21.064,5.466C23.384,5.148 24.739,5.232 25.648,1.867C25.703,1.668 27.276,-3.022 28.017,-5.424C27.367,-5.235 26.964,-5.158 26.593,-5.005C25.421,-4.521 24.283,-3.948 23.09,-3.523C21.054,-2.796 18.986,-2.151 16.928,-1.478C12.638,-0.077 8.292,0.982 3.722,0.711C2.482,0.638 1.241,0.583 0,0.519" style="fill:rgb(19,117,188);fill-rule:nonzero;"/>
            </g>
            <g transform="matrix(4.16667,0,0,4.16667,1870.2,1342.88)">
                <path d="M0,-17.085C-0.022,-17.217 -0.045,-17.348 -0.067,-17.48C-4.979,-17.9 -9.835,-18.04 -14.717,-16.691C-18.319,-15.695 -21.904,-14.762 -25.29,-13.146C-26.427,-12.604 -27.174,-11.915 -27.525,-10.641C-28.213,-8.152 -30.385,-0.447 -30.654,0.955C-28.958,-0.572 -27.661,-2.288 -26.131,-3.76C-15.802,-13.495 -6.055,-16.061 -3.151,-16.436C-2.09,-16.573 -1.051,-16.864 0,-17.085" style="fill:rgb(19,117,188);fill-rule:nonzero;"/>
            </g>
            <g transform="matrix(4.16667,0,0,4.16667,1809.97,1151.5)">
                <path d="M0,13.904L0,13.911C1.097,13.911 2.198,13.861 3.292,13.926C4.325,13.988 4.865,13.598 5.116,12.578C5.691,10.244 6.335,7.925 6.976,5.608C7.236,4.665 7.624,3.755 7.837,2.802C7.968,2.219 8.259,1.563 7.288,1.169C5.324,0.37 3.34,-0.084 1.211,0.038C-1.379,0.187 -1.469,0.134 -2.213,2.631C-3.151,5.773 -3.972,8.949 -4.772,12.129C-5.138,13.588 -4.847,13.873 -3.293,13.9C-2.196,13.919 -1.097,13.904 0,13.904" style="fill:rgb(241,90,41);fill-rule:nonzero;"/>
            </g>
            <g transform="matrix(4.16667,0,0,4.16667,1986.92,1189.77)">
                <path d="M0,11.833C1.216,11.818 9.613,3.066 11.505,0.271C10.9,0.232 10.114,0.122 9.624,0.095C7.927,0 6.392,0.036 4.446,0.016C2.926,0.036 2.627,0.164 2.267,1.133C1.896,2.132 1.644,3.181 1.399,4.222C0.876,6.454 0.529,9.474 0,11.833" style="fill:rgb(205,200,177);fill-rule:nonzero;"/>
            </g>
            <g transform="matrix(4.16667,0,0,4.16667,2010.46,1196.01)">
                <path d="M0,7.084C3.024,6.902 6.052,6.745 9.071,6.497C9.35,6.475 9.864,5.775 9.789,5.555C9.245,3.978 8.72,2.364 7.893,0.931C7.412,0.1 6.398,0 5.57,0.86C4.561,1.911 3.522,2.936 2.481,3.955C1.594,4.824 -0.072,6.898 0,7.084" style="fill:rgb(19,117,188);fill-rule:nonzero;"/>
            </g>
            <g transform="matrix(4.16667,0,0,4.16667,1869.63,1077.08)">
                <path d="M0,4.373C-0.011,4.545 -0.022,4.716 -0.032,4.888L9.45,4.888C9.352,4.115 9.285,3.123 9.091,2.158C8.802,0.722 7.768,0.036 6.406,-0.21C4.96,-0.471 3.569,-0.515 2.574,0.874C1.731,2.05 0.859,3.207 0,4.373" style="fill:white;fill-rule:nonzero;"/>
            </g>
            <g transform="matrix(3.8044,-1.69931,-1.69931,-3.8044,1848.24,1142.67)">
                <path d="M-1.644,-1.524C-1.237,-0.286 -0.864,0.72 -0.575,1.751C-0.239,2.95 -0.528,3.913 -1.644,4.658C-4.321,6.447 -7.231,5.888 -9.15,3.228C-6.752,1.708 -4.35,0.189 -1.644,-1.524" style="fill:white;fill-rule:nonzero;"/>
            </g>
            <g transform="matrix(4.16667,0,0,4.16667,1918.9,1102.25)">
                <path d="M0,5.087L0.922,5.087C3.268,4.764 5.971,4.881 8.498,5.88C8.656,5.957 8.67,5.278 8.727,4.949C8.873,4.115 8.757,3.238 8.815,2.382C8.935,0.615 6.876,-0.87 5.231,-0.153C2.91,0.859 1.643,2.915 0,5.087" style="fill:white;fill-rule:nonzero;"/>
            </g>
            <g transform="matrix(4.16667,0,0,4.16667,2018.94,1045.31)">
                <path d="M0,6.795C-0.064,6.259 -0.217,5.052 -0.331,4.37C-0.751,1.869 -2.107,0.592 -4.742,0.232C-5.245,0.163 -6.002,0 -6.236,0.255C-7.278,1.394 -8.767,3.086 -9.636,4.21C-6.348,4.3 -2.551,4.588 0,6.795" style="fill:white;fill-rule:nonzero;"/>
            </g>
            <g transform="matrix(2.04739,3.62895,3.62895,-2.04739,1997.04,1032.4)">
                <path d="M1.788,-1.18C2.852,0.108 3.551,0.747 4.643,1.582C3.532,1.971 2.677,2.334 1.788,2.532C1.577,2.577 0.616,2.869 0.638,2.64C0.71,1.828 1.558,-0.208 1.788,-1.18" style="fill:rgb(0,155,223);fill-rule:nonzero;"/>
            </g>
            <g transform="matrix(4.16667,0,0,4.16667,1902.35,1058.2)">
                <path d="M0,3.701C0.163,3.546 -0.421,0.891 -0.869,0C-1.565,0.636 -2.847,2.472 -3.806,3.349C-2.279,3.231 -0.893,3.424 0,3.701" style="fill:rgb(57,181,74);fill-rule:nonzero;"/>
            </g>
            <g transform="matrix(2.4563,3.36566,3.36566,-2.4563,1823.57,1113.37)">
                <path d="M1.83,-0.891C2.833,0.187 3.485,0.889 4.287,1.753C3.298,2.185 2.586,2.56 1.83,2.788C1.585,2.861 0.707,2.89 0.722,2.818C0.934,1.819 1.463,0.428 1.83,-0.891" style="fill:rgb(241,90,41);fill-rule:nonzero;"/>
            </g>
            <g transform="matrix(2.99094,2.90093,2.90093,-2.99094,1939.45,1090.11)">
                <path d="M1.433,-0.742C2.404,-0.034 3.09,0.467 4.096,1.2C2.988,1.821 2.21,2.618 1.433,3.055C1.304,2.986 0.853,3.23 1.041,2.487C1.158,1.526 1.274,0.564 1.433,-0.742" style="fill:rgb(248,237,47);fill-rule:nonzero;"/>
            </g>
            <g transform="matrix(4.16667,0,0,4.16667,0,0)">
                <g opacity="0.2">
                    <g transform="matrix(1,0,0,1,410.431,295.097)">
                        <path d="M0,59.819C17.874,60.38 35.224,62.115 35.224,62.115L55.394,-2.296C55.394,-2.296 41.297,42.813 0,59.819" style="fill:rgb(35,31,32);fill-rule:nonzero;"/>
                    </g>
                </g>
            </g>
            <g transform="matrix(4.16667,0,0,4.16667,0,0)">
                <g opacity="0.2">
                    <g transform="matrix(0.885253,0.46511,0.46511,-0.885253,435.093,346.763)">
                        <path d="M14.21,-4.338L28.665,-4.338L15.115,60.996C15.115,60.996 14.456,63.551 14.005,63.146C22.313,12.414 15.242,-5.781 14.21,-4.338" style="fill:rgb(35,31,32);fill-rule:nonzero;"/>
                    </g>
                </g>
            </g>
            <g transform="matrix(4.16667,0,0,4.16667,0,0)">
                <g opacity="0.4">
                    <g transform="matrix(-0.242722,0.970096,0.970096,0.242722,459.703,285.629)">
                        <path d="M-16.849,-14.779L12.209,-14.779C12.209,-14.779 10.52,-13.699 9.879,-13.548C3.867,-12.989 -11.174,-13.618 -17.182,-13.067C-17.459,-13.404 -16.849,-14.779 -16.849,-14.779" style="fill:white;fill-rule:nonzero;"/>
                    </g>
                </g>
            </g>
            <g transform="matrix(4.16667,0,0,4.16667,0,0)">
                <g opacity="0.4">
                    <g transform="matrix(-0.242762,0.970086,0.970086,0.242762,487.094,277.522)">
                        <path d="M-16.849,-14.777L12.208,-14.777C12.208,-14.777 10.52,-13.698 9.879,-13.547C3.866,-12.988 -11.174,-13.617 -17.182,-13.067C-17.46,-13.402 -16.849,-14.777 -16.849,-14.777" style="fill:white;fill-rule:nonzero;"/>
                    </g>
                </g>
            </g>
            <g transform="matrix(4.16667,0,0,4.16667,0,0)">
                <g opacity="0.4">
                    <g transform="matrix(-0.217981,0.975953,0.975953,0.217981,467.591,283.241)">
                        <path d="M-9.491,-9.248L8.042,-9.248C8.042,-9.248 6.382,-8.126 5.744,-7.958C-0.251,-7.247 -3.789,-8.231 -9.781,-7.529C-10.067,-7.858 -9.491,-9.248 -9.491,-9.248" style="fill:white;fill-rule:nonzero;"/>
                    </g>
                </g>
            </g>
            <g transform="matrix(4.16667,0,0,4.16667,0,0)">
                <g opacity="0.4">
                    <g transform="matrix(-0.251962,0.967737,0.967737,0.251962,438.543,285.045)">
                        <path d="M-6.042,-6.29L5.551,-6.29C5.551,-6.29 3.852,-5.226 3.21,-5.082C-2.808,-4.581 -0.378,-5.075 -6.391,-4.582C-6.666,-4.921 -6.042,-6.29 -6.042,-6.29" style="fill:white;fill-rule:nonzero;"/>
                    </g>
                </g>
            </g>
        </g>
    </g>
</svg>
