<?xml version="1.0" encoding="UTF-8" standalone="no"?>
<!DOCTYPE svg PUBLIC "-//W3C//DTD SVG 1.1//EN" "http://www.w3.org/Graphics/SVG/1.1/DTD/svg11.dtd">
<svg width="100%" height="100%" viewBox="0 0 1832 832" version="1.1" xmlns="http://www.w3.org/2000/svg" xmlns:xlink="http://www.w3.org/1999/xlink" xml:space="preserve" xmlns:serif="http://www.serif.com/" style="fill-rule:evenodd;clip-rule:evenodd;stroke-miterlimit:10;">
    <g transform="matrix(1,0,0,1,-325,-2132)">
        <g transform="matrix(4.16667,0,0,4.16667,0,458.227)">
            <clipPath id="_clip1">
                <rect x="78.215" y="401.791" width="439.393" height="199.515" clip-rule="nonzero"/>
            </clipPath>
            <g clip-path="url(#_clip1)">
                <g transform="matrix(1,0,0,1,166.74,573.142)">
                    <path d="M0,-160.703C3.813,-159.68 7.661,-158.19 11.582,-158.657C15.446,-159.119 18.792,-161.415 22.258,-163.179C31.32,-167.793 41.725,-168.917 51.875,-169.691C80.31,-171.86 108.909,-171.904 137.351,-169.818C144.952,-169.26 152.892,-168.434 159.255,-164.263C171.147,-156.468 173.247,-138.721 166.509,-126.245C159.772,-113.769 146.431,-106.057 132.79,-101.983C119.149,-97.91 104.803,-96.862 90.845,-94.048C78.437,-91.548 64.718,-86.187 60.502,-74.318C56.88,-64.124 61.617,-52.27 57.501,-42.263C54.052,-33.873 44.816,-28.012 43.994,-18.985C43.477,-13.302 46.546,-7.516 45.013,-2.018C43.811,2.295 39.921,5.454 35.69,6.981C31.46,8.508 26.873,8.663 22.374,8.8C1.432,9.441 -19.51,10.083 -40.452,10.726C-48.38,10.969 -56.417,11.201 -64.132,9.38C-71.849,7.56 -79.341,3.412 -83.463,-3.325C-87.467,-9.867 -87.842,-17.904 -88.107,-25.559C-88.773,-44.768 -89.385,-64.399 -83.698,-82.77C-81.383,-90.244 -78.003,-97.804 -79.055,-105.554C-80.077,-113.083 -85.146,-119.476 -87.054,-126.831C-89.835,-137.556 -84.913,-149.802 -75.466,-155.668C-70.158,-158.962 -63.641,-160.097 -57.483,-159.186C-51.807,-158.345 -46.299,-153.433 -40.558,-154.694C-33.913,-156.154 -28.231,-160.464 -21.241,-161.642C-14.201,-162.828 -6.902,-162.554 0,-160.703" style="fill:rgb(224,237,203);fill-rule:nonzero;"/>
                </g>
                <g transform="matrix(1,0,0,1,404.291,600.317)">
                    <path d="M0,-180.676C15.514,-181.756 31.2,-182.83 46.553,-180.435C61.905,-178.041 77.127,-171.811 87.198,-160.5C95.382,-151.308 94.83,-141.732 98.603,-130.22C102.242,-119.118 109.243,-107.173 111.701,-95.73C115.24,-79.258 112.487,-66.487 108.033,-52.24C105.863,-45.293 111.676,-29.841 105.992,-25.031C98.599,-18.775 87.638,-18.698 77.779,-19.354C63.509,-20.305 49.296,-22.073 35.245,-24.644C27.422,-26.075 19.314,-27.753 11.589,-25.9C3.043,-23.851 -3.704,-17.82 -11.117,-13.274C-29.041,-2.287 -51.187,0.085 -72.471,0.98C-100.393,2.154 -128.408,1.287 -156.191,-1.611C-162.641,-2.284 -169.712,-3.379 -173.897,-8.11C-178.833,-13.689 -177.771,-21.948 -176.435,-29.137C-174.892,-37.427 -173.319,-45.819 -169.665,-53.483C-166.012,-61.148 -159.994,-68.132 -151.833,-71.336C-145.523,-73.813 -138.498,-73.862 -131.675,-73.875C-95.417,-73.942 -59.158,-74.008 -22.9,-74.075C-25.242,-74.071 -32.274,-92.591 -34.372,-96.861C-38.629,-105.527 -38.733,-112.271 -39.799,-121.787C-41.582,-137.705 -41.623,-147.484 -25.557,-164.209C-17.894,-172.185 -10.926,-179.916 0,-180.676" style="fill:rgb(207,229,247);fill-rule:nonzero;"/>
                </g>
                <g transform="matrix(1,0,0,1,419.478,528.109)">
                    <path d="M0,-56.177C-0.121,-55.894 -0.597,-55.757 -0.93,-55.708C-2.397,-55.488 -3.871,-55.283 -5.349,-55.182C-5.592,-55.166 -6.149,-55.813 -6.089,-55.951C-5.729,-56.793 -5.367,-57.701 -4.756,-58.356C-3.138,-60.088 -1.031,-60.605 1.282,-60.349C1.482,-58.736 0.544,-57.454 0,-56.177M90.506,-4.106C90.108,-5.061 89.801,-6.055 89.42,-7.018C88.624,-9.033 87.803,-11.039 86.993,-13.05C85.765,-16.099 84.553,-19.156 83.308,-22.199C82.422,-24.364 81.509,-26.518 80.578,-28.665C79.952,-30.11 69.397,-53.38 67.837,-56.785C66.858,-58.92 65.919,-61.078 64.829,-63.157C63.915,-64.901 63.111,-66.997 60.997,-67.683C57.986,-68.661 56.223,-68.82 51.537,-69.13C49.644,-69.092 17.952,-70.693 14.735,-70.658C11.509,-70.624 8.282,-70.59 5.056,-70.585C-0.839,-70.575 1.727,-67.195 2.262,-65.722C-0.781,-66.135 -4.335,-65.569 -6.586,-63.653C-7.553,-62.829 -8.727,-61.759 -9.413,-60.709C-10.261,-59.411 -10.787,-58.465 -11.129,-56.736C-11.292,-55.91 -11.063,-54.718 -10.712,-53.941C-9.962,-52.285 -8.698,-51.107 -7.017,-50.032C-7.227,-49.465 -7.568,-48.611 -7.863,-47.742C-8.589,-45.607 -7.891,-42.711 -6.055,-41.639C-4.499,-40.73 -4.647,-39.826 -5.074,-38.359C-5.983,-35.239 -5.061,-33.245 -2.089,-31.677C-0.591,-30.887 -0.469,-30.916 -1.285,-29.504C-2.921,-26.67 -1.929,-21.853 1.444,-21.122C3.317,-20.716 3.201,-20.588 2.643,-18.659C2.019,-16.502 1.48,-14.25 3.67,-12.572C4.341,-12.059 5.191,-11.759 5.987,-11.428C6.817,-11.083 7.155,-10.706 6.638,-9.766C5.599,-7.874 6.095,-5.56 7.795,-4.206C8.848,-3.367 9.976,-3.383 11.127,-2.654C11.497,-2.418 11.953,-1.895 11.926,-1.538C11.859,-0.679 11.407,0.148 11.333,1.008C11.24,2.122 11.101,3.344 11.445,4.363C12.263,6.79 14.025,8.303 16.604,8.855C17.023,8.946 17.421,9.543 17.658,9.995C18.733,12.038 19.975,13.917 22.513,14.174C24.499,14.377 26.51,14.486 28.505,14.442C32.355,14.358 70.194,14.389 74.598,14.47C76.994,14.516 79.396,14.433 81.789,14.298C83.426,14.206 84.09,13.022 83.491,11.5C83.008,10.271 82.658,8.954 81.97,7.851C81.483,7.069 81.65,6.659 82.078,6.043C83.118,4.546 84.037,2.962 85.142,1.515C85.609,0.904 86.379,0.483 87.082,0.106C87.676,-0.212 88.377,-0.326 89.022,-0.555C90.756,-1.167 91.234,-2.365 90.506,-4.106" style="fill:rgb(35,31,32);fill-rule:nonzero;"/>
                </g>
                <g transform="matrix(1,0,0,1,420.016,467.62)">
                    <path d="M0,5.585C2.177,5.04 3.429,4.984 5.029,4.888C3.594,3.517 4.19,1.174 2.074,0C1.372,1.89 0.744,3.581 0,5.585" style="fill:rgb(226,236,242);fill-rule:nonzero;"/>
                </g>
                <g transform="matrix(1,0,0,1,418.744,475.901)">
                    <path d="M0,-2.187C-0.027,-2.3 -0.053,-2.413 -0.08,-2.527C-1.593,-2.377 -3.121,-2.308 -4.616,-2.05C-5.652,-1.87 -5.376,-0.916 -5.266,-0.239C-5.233,-0.034 -4.516,0.34 -4.339,0.203C-3.194,-0.682 -1.682,-1.484 0,-2.187" style="fill:rgb(244,202,18);fill-rule:nonzero;"/>
                </g>
                <g transform="matrix(1,0,0,1,426.652,467.786)">
                    <path d="M0,-3.885C0.929,-2.52 1.521,-1.363 1.779,-0.34C1.884,-0.144 2.182,-0.05 2.392,0.091C2.531,-0.123 2.739,-0.321 2.796,-0.555C2.999,-1.392 2.091,-3.66 0.991,-3.897C0.624,-3.976 0.222,-3.891 0,-3.885" style="fill:rgb(69,93,96);fill-rule:nonzero;"/>
                </g>
                <g transform="matrix(1,0,0,1,423.75,517.797)">
                    <path d="M0,-49.685C0.551,-48.491 1.476,-46.715 2.105,-45.564C2.358,-45.103 2.727,-44.971 3.207,-44.781C3.812,-44.544 4.746,-44.698 5.383,-44.513C6.095,-44.305 6.479,-43.926 6.891,-44.697C7.052,-44.996 7.702,-45.218 8.095,-45.174C9.758,-44.986 10.531,-43.512 10.875,-42.053C11.412,-39.77 9.843,-38.617 7.538,-38.893C6.648,-39.001 5.692,-38.573 4.766,-38.389C4.991,-37.783 5.203,-37.173 5.446,-36.576C6.118,-34.919 9.071,-33.978 10.681,-34.829C11.038,-35.019 11.586,-34.996 12.003,-34.896C13.165,-34.613 14.26,-33.229 14.404,-31.991C14.519,-31.008 12.89,-28.962 12.045,-29.009C10.788,-29.078 9.529,-29.128 7.852,-29.205C8.532,-27.897 9.008,-27.032 9.439,-26.144C10.013,-24.961 12.102,-24.582 13.043,-25.511C14.184,-26.641 15.641,-26.164 16.498,-24.754C16.734,-24.367 16.555,-24.293 16.685,-23.861C17.296,-21.831 16.287,-20.566 14.152,-20.645C12.829,-20.695 11.849,-20.1 11.882,-19.265C11.939,-17.783 13.478,-16.155 14.995,-15.999C16.169,-15.88 17.643,-15.823 18.476,-16.293C18.565,-16.342 18.741,-16.312 18.878,-16.317C20.569,-17.161 21.604,-15.293 21.703,-13.476C21.812,-11.46 20.645,-10.299 18.626,-10.392C17.635,-10.437 16.641,-10.436 15.555,-10.457C15.968,-8.802 19.09,-7.013 20.287,-7.451C20.368,-7.48 20.423,-7.571 20.498,-7.623C21.725,-8.438 22.95,-8.051 23.673,-7.084C24.213,-6.36 24.519,-5.088 24.289,-4.233C23.719,-2.122 22.648,-1.727 20.63,-2.45C20.326,-2.559 20.017,-2.709 19.705,-2.725C19.422,-2.739 19.132,-2.596 18.845,-2.523C18.91,-2.277 18.934,-2.01 19.047,-1.79C19.46,-0.989 19.988,-0.237 20.317,0.596C20.793,1.797 21.706,1.973 22.83,2.036C23.887,2.095 24.827,2.006 25.707,1.338C25.923,1.174 26.787,1.375 26.994,1.558C27.615,2.106 27.909,2.563 28.406,3.228C29.017,4.22 28.819,5.833 28.062,6.8C27.601,7.386 26.407,7.407 25.534,7.653C25.294,7.72 25.023,7.681 24.753,7.691C24.695,9.37 25.774,9.903 27.031,9.977C30.255,10.165 33.487,10.23 36.715,10.323C38.073,10.362 39.433,10.353 40.792,10.352C44.633,10.35 48.474,10.339 52.316,10.339C52.543,10.339 52.771,10.431 52.997,10.426C55.927,10.365 58.859,10.261 61.79,10.238C63.699,10.224 65.608,10.381 67.517,10.362C70.898,10.328 74.284,10.307 77.658,10.106C79.816,9.977 81.982,9.642 84.097,9.18C85.041,8.974 85.776,8.149 85.426,6.964C84.949,5.357 84.508,3.732 83.895,2.176C82.422,-1.55 80.862,-5.241 79.331,-8.945C78.489,-10.981 77.653,-13.022 76.782,-15.048C76.113,-16.607 75.386,-18.141 74.7,-19.692C73.772,-21.789 72.897,-23.907 71.931,-25.985C71.035,-27.914 69.984,-29.771 69.118,-31.713C67.427,-35.507 65.868,-39.359 64.16,-43.145C62.884,-45.971 61.511,-48.756 60.084,-51.508C58.945,-53.705 58.541,-56.144 55.89,-56.834C54.271,-57.255 51.754,-57.29 50.121,-57.661C47.301,-58.302 3.649,-60.116 -0.503,-59.218C-3.022,-59.137 -0.958,-55.237 0.08,-55.077C0.91,-54.951 2.395,-54.796 3.246,-54.775C3.748,-54.763 4.384,-54.82 4.723,-54.549C6.033,-53.507 6.795,-52.039 6.611,-50.397C6.528,-49.66 5.689,-48.938 5.048,-48.371C4.835,-48.181 4.105,-48.342 3.719,-48.593C2.615,-49.312 0.172,-49.846 0,-49.685" style="fill:rgb(244,202,18);fill-rule:nonzero;"/>
                </g>
                <g transform="matrix(1,0,0,1,442.827,529.247)">
                    <path d="M0,7.643C0.916,7.773 1.491,7.923 2.067,7.923C4.424,7.926 6.781,7.893 9.139,7.853C12.298,7.797 49.861,8.294 52.917,8.535C54.769,8.68 55.852,8.341 56.335,6.541C56.353,6.467 56.312,6.377 56.267,6.101C51.488,5.62 46.562,7.273 41.79,5.638C42.558,5.386 43.327,5.285 44.096,5.276C48.175,5.232 52.254,5.213 56.335,5.181C57.547,5.172 58.25,4.489 58.427,3.048C57.885,3 57.268,2.759 56.828,2.944C55.959,3.308 55.795,3.026 55.827,2.252C59.845,2.155 59.894,2.131 61.011,-0.462C60.568,-0.49 60.187,-0.553 59.812,-0.529C58.244,-0.427 56.679,-0.215 55.111,-0.198C51.85,-0.164 48.587,-0.25 45.324,-0.246C41.702,-0.242 19.258,-0.327 17.212,-0.364C14.447,-0.414 11.681,-0.458 8.915,-0.444C6.997,-0.434 4.808,-1.037 3.96,1.652C3.688,2.515 3.871,2.959 4.8,2.945C7.931,2.898 11.063,2.827 14.195,2.809C18.038,2.789 21.88,2.787 25.721,2.841C26.415,2.852 27.105,3.175 27.798,3.353C27.767,3.521 27.736,3.688 27.704,3.855C27.152,3.832 26.598,3.828 26.048,3.785C25.181,3.714 19.387,3.716 17.354,3.751C15.631,3.78 13.907,3.711 12.183,3.709C9.789,3.705 7.394,3.683 5.002,3.753C4.019,3.783 2.778,3.713 2.13,4.256C1.242,5.002 0.808,6.288 0,7.643" style="fill:rgb(244,248,250);fill-rule:nonzero;"/>
                </g>
                <g transform="matrix(1,0,0,1,500.629,534.938)">
                    <path d="M0,1.258C-0.594,2.025 -1.045,2.355 -1.109,2.747C-1.236,3.535 -1.673,3.693 -2.335,3.707C-5.587,3.769 -8.839,3.915 -12.091,3.892C-14.849,3.873 -17.606,3.617 -20.365,3.553C-23.952,3.469 -27.542,3.481 -31.129,3.431C-34.621,3.383 -38.112,3.301 -41.604,3.247C-43.554,3.218 -45.506,3.215 -47.457,3.204C-49.808,3.191 -52.16,3.165 -54.51,3.179C-55.224,3.183 -55.99,3.166 -57.031,3.116C-58.29,3.381 -59.085,3.079 -59.601,1.924C-60.403,0.128 -61.229,-1.656 -62.059,-3.439C-62.407,-4.184 -62.793,-4.912 -63.186,-5.7C-64.993,-3.833 -65.412,-1.496 -64.011,0.378C-63.689,0.809 -63.151,1.426 -62.946,1.921C-61.561,5.282 -58.552,6.958 -55.072,6.558C-52.43,6.256 -8.529,6.528 -4.761,6.691C-3.218,6.758 -1.666,6.726 -0.121,6.649C1.124,6.589 1.653,5.717 1.236,4.545C0.887,3.563 0.503,2.593 0,1.258" style="fill:rgb(244,202,18);fill-rule:nonzero;"/>
                </g>
                <g transform="matrix(1,0,0,1,415.346,473.267)">
                    <path d="M0,13.308C-0.036,12.399 -1.57,8.22 4.636,5.416C6.718,4.713 8.888,4.618 11.101,4.925C12.372,5.102 13.703,4.976 14.991,4.846C15.436,4.801 16.113,4.393 16.194,4.039C16.302,3.562 16.098,2.812 15.746,2.469C13.913,0.676 11.802,0.259 9.399,0.123C7.213,0 5.363,0.629 3.398,1.363C0.678,2.378 -2.075,4.146 -2.699,7.407C-3.135,9.687 -2.117,12.473 0,13.308" style="fill:rgb(0,127,198);fill-rule:nonzero;"/>
                </g>
                <g transform="matrix(1,0,0,1,423.024,493.1)">
                    <path d="M0,13.185C-0.174,12.439 -0.248,11.748 -0.497,11.128C-1.136,9.541 -0.623,7.171 0.834,6.351C4.09,4.519 7.478,3.143 11.386,3.787C12.204,3.922 13.152,3.581 13.974,3.277C14.675,3.018 14.79,2.493 14.316,1.751C13.494,0.463 12.384,0.373 10.972,0.26C7.755,0 4.673,0.045 1.724,1.568C-0.454,2.696 -2.714,3.811 -3.823,6.084C-5.351,9.22 -4.717,12.938 0,13.185" style="fill:rgb(0,127,198);fill-rule:nonzero;"/>
                </g>
                <g transform="matrix(1,0,0,1,417.613,483.068)">
                    <path d="M0,12.14C-0.023,11.343 -0.185,10.577 -0.04,9.873C0.421,7.642 2.124,6.853 4.123,6.118C6.394,5.284 8.594,5.072 10.573,4.915C12.113,4.793 13.413,4.791 14.832,4.84C15.688,4.87 17.153,3.918 17.134,3.195C17.103,1.904 15.769,0.648 14.497,0.684C14.055,0.696 13.597,0.707 13.172,0.611C10.512,0 7.41,0.31 5.004,1.237C2.7,2.125 1.251,2.957 -0.946,4.807C-2.15,5.82 -2.779,7.634 -2.521,8.982C-2.286,10.219 -1.848,11.802 0,12.14" style="fill:rgb(0,127,198);fill-rule:nonzero;"/>
                </g>
                <g transform="matrix(1,0,0,1,423.536,502.428)">
                    <path d="M0,12.588C0.668,10.395 1.135,9.769 2.023,8.684C4.579,5.552 8.713,4.541 12.499,4.118C14.106,3.938 15.862,4.029 17.49,3.952C18.143,3.921 18.796,3.768 19.259,3.296C19.459,3.092 19.09,2.263 18.891,1.754C18.342,0.343 16.679,0 15.454,0.049C13.513,0.128 11.947,0.219 10.106,0.675C7.479,1.326 4.934,2.403 2.458,3.527C1.002,4.187 0.025,5.45 -0.533,7.07C-1.814,10.791 -0.276,11.578 0,12.588" style="fill:rgb(0,127,198);fill-rule:nonzero;"/>
                </g>
                <g transform="matrix(1,0,0,1,412.432,462.874)">
                    <path d="M0,13.787C0.008,12.652 0.001,11.063 0.068,9.908C0.217,7.368 2.284,4.844 4.758,4.279C7.603,3.629 10.417,3.992 13.197,4.764C13.631,4.884 14.124,5.05 14.523,4.944C14.792,4.872 15.192,4.212 15.106,4.068C14.653,3.302 14.209,2.377 13.497,1.948C11.412,0.693 9.195,0 6.624,0.172C2.338,0.46 -0.5,2.717 -2.527,6.206C-4.301,9.259 -2.884,12.89 0,13.787" style="fill:rgb(0,127,198);fill-rule:nonzero;"/>
                </g>
                <g transform="matrix(1,0,0,1,435.251,520.783)">
                    <path d="M0,14.497C-0.237,13.746 -0.607,13.05 -0.59,12.471C-0.534,10.688 -0.115,9.588 0.8,8.177C2.672,5.289 6.14,4.164 9.292,3.819C10.56,3.681 11.84,3.649 13.105,3.484C14.168,3.346 14.429,2.66 13.953,1.728C13.362,0.572 12.236,-0.165 11.08,-0.158C9.526,-0.149 8.572,-0.04 7.036,0.254C4.318,0.778 1.425,2.36 -0.675,4.151C-2.81,5.97 -4.088,8.312 -3.546,11.172C-3.221,12.882 -1.728,14.662 0,14.497" style="fill:rgb(0,127,198);fill-rule:nonzero;"/>
                </g>
                <g transform="matrix(1,0,0,1,445.265,520.694)">
                    <path d="M0,-6.656C-0.391,-8.57 -2.411,-10.256 -3.921,-10.055C-5.35,-9.865 -6.858,-9.833 -8.175,-9.324C-10.236,-8.763 -12.315,-7.688 -14.447,-6.262C-15.411,-5.72 -16.138,-4.772 -17.02,-4.068C-19.757,-1.887 -19.301,2.032 -16.108,3.479C-15.842,3.6 -15.497,3.547 -15.036,3.59C-15.417,2.695 -16.019,1.986 -15.91,1.409C-15.577,-0.37 -14.752,-1.933 -13.204,-3.059C-10.065,-5.342 -6.566,-6.508 -2.704,-6.627C-1.816,-6.653 -0.928,-6.647 0,-6.656" style="fill:rgb(0,127,198);fill-rule:nonzero;"/>
                </g>
                <g transform="matrix(1,0,0,1,437.921,533.127)">
                    <path d="M0,-4.839C1.291,-2.205 2.54,0.339 3.851,3.011C4.153,2.651 4.301,2.482 4.44,2.306C5.898,0.467 7.114,-1.993 8.316,-3.979C9.504,-5.942 10.2,-5.528 9.486,-6.976C9.109,-7.454 8.4,-7.615 7.749,-7.659C4.974,-7.85 2.257,-6.725 0,-4.839" style="fill:rgb(226,236,242);fill-rule:nonzero;"/>
                </g>
                <g transform="matrix(1,0,0,1,443.643,518.099)">
                    <path d="M0,1.327C-0.629,0.19 -1.244,-0.716 -1.645,-1.707C-2.071,-2.756 -2.877,-2.97 -3.756,-2.774C-5.023,-2.494 -6.283,-2.101 -7.478,-1.593C-10.004,-0.516 -9.987,-0.473 -9.049,2.048C-8.22,4.277 -8.172,4.297 -5.976,3.374C-5.85,3.321 -5.709,3.306 -5.578,3.262C-3.804,2.648 -2.03,2.032 0,1.327" style="fill:rgb(226,236,242);fill-rule:nonzero;"/>
                </g>
                <g transform="matrix(1,0,0,1,436.683,498.701)">
                    <path d="M0,3.113C0.026,2.85 -0.559,2.761 -0.534,2.498C-1.282,1.347 -2.028,0.196 -2.78,-0.952C-2.795,-0.973 -2.871,-0.947 -2.914,-0.959C-5.412,-1.66 -7.597,-0.512 -9.837,0.252C-9.996,0.305 -10.147,0.844 -10.065,1.07C-9.685,2.115 -9.296,3.17 -8.746,4.129C-8.553,4.467 -7.845,4.773 -7.457,4.69C-5.48,4.271 -3.534,3.706 -1.569,3.225C-1.273,3.153 -0.32,3.088 0,3.113" style="fill:rgb(226,236,242);fill-rule:nonzero;"/>
                </g>
                <g transform="matrix(1,0,0,1,419.382,482.593)">
                    <path d="M0,-2.454C0.202,-1.641 0.282,-0.799 0.623,-0.08C1.081,0.89 1.735,1.404 3.052,1.015C4.713,0.523 6.724,-0.027 8.222,0.159C8.537,0.199 8.976,-0.061 9.084,-0.301C9.395,-0.984 8.042,-3.181 7.259,-3.332C4.751,-3.815 2.289,-3.858 0,-2.454" style="fill:rgb(226,236,242);fill-rule:nonzero;"/>
                </g>
                <g transform="matrix(1,0,0,1,422.304,492.345)">
                    <path d="M0,-2.627C0.63,-1.272 1.017,-0.236 1.594,0.681C1.773,0.966 2.482,1.073 2.917,1.017C4.968,0.581 6.946,0.099 8.757,0.138C9.784,0.02 10.032,-0.422 9.685,-1.291C9.451,-1.877 9.185,-2.477 8.8,-2.965C8.57,-3.255 8.064,-3.522 7.71,-3.489C5.438,-3.7 3.144,-3.472 0,-2.627" style="fill:rgb(226,236,242);fill-rule:nonzero;"/>
                </g>
                <g transform="matrix(1,0,0,1,439.151,509.742)">
                    <path d="M0,-0.159C-0.655,-2.109 -1.244,-2.71 -2.388,-2.455C-4.63,-2.183 -7.668,-1.501 -8.856,-0.583C-8.202,0.558 -7.5,2.375 -7.11,2.551C-6.815,2.547 -6.521,2.336 -6.232,2.208C-5.368,1.824 -4.526,1.389 -3.642,1.058C-2.442,0.61 -1.213,0.242 0,-0.159" style="fill:rgb(226,236,242);fill-rule:nonzero;"/>
                </g>
                <g transform="matrix(1,0,0,1,425.204,512.305)">
                    <path d="M0,1.173C-0.252,2.143 -0.245,2.992 0.646,3.237C1.116,3.368 1.999,3.664 2.45,3.405C3.291,2.923 3.947,2.114 4.671,1.432C5.556,0.597 5.155,-1.938 4.042,-2.406C3.836,-2.491 3.478,-2.397 3.296,-2.305C1.936,-1.621 0.839,-0.592 0,1.173" style="fill:rgb(244,202,18);fill-rule:nonzero;"/>
                </g>
                <g transform="matrix(1,0,0,1,432.25,518.031)">
                    <path d="M0,7.301C0.648,6.523 1.29,6.119 1.867,5.66C2.471,5.179 2.977,4.632 2.352,3.782C1.836,3.081 1.554,2.167 1.323,1.306C1.024,0.191 0.556,0 -0.097,0.647C-0.324,0.871 -1.09,1.663 -1.247,1.925C-1.67,2.631 -1.963,3.141 -1.86,3.79C-1.701,4.789 -0.609,6.175 0,7.301" style="fill:rgb(244,202,18);fill-rule:nonzero;"/>
                </g>
                <g transform="matrix(1,0,0,1,418.59,494.515)">
                    <path d="M0,-2.059C-0.31,-0.423 0.244,1.404 1.246,1.629C2.035,1.806 4.504,-0.116 4.364,-0.924C4.203,-1.844 3.852,-2.753 3.423,-3.584C3.294,-3.833 2.539,-3.86 2.236,-3.862C1.222,-3.865 0.546,-3.141 0,-2.059" style="fill:rgb(244,202,18);fill-rule:nonzero;"/>
                </g>
                <g transform="matrix(1,0,0,1,423.865,500.02)">
                    <path d="M0,5.015C0.108,5.291 1.113,5.358 1.455,5.211C3.594,4.288 3.82,3.383 2.564,1.33C2.494,1.215 2.351,1.143 2.287,1.026C1.574,-0.281 0.972,-0.343 -0.033,0.752C-1.32,2.155 -0.366,4.084 0,5.015" style="fill:rgb(244,202,18);fill-rule:nonzero;"/>
                </g>
                <g transform="matrix(1,0,0,1,418.77,486.37)">
                    <path d="M0,-5.712C-2.347,-4.076 -2.834,-3.187 -2.347,-1.021C-2.147,-0.126 -1.703,0 -0.978,-0.485C-0.385,-0.884 0.231,-1.25 0.818,-1.659C0.996,-1.783 1.265,-2.05 1.228,-2.168C0.854,-3.373 0.475,-4.346 0,-5.712" style="fill:rgb(244,202,18);fill-rule:nonzero;"/>
                </g>
                <g transform="matrix(1,0,0,1,439.652,493.108)">
                    <path d="M0,2.56C0.249,1.329 0.18,0.311 -0.808,-0.305C-1.104,-0.49 -1.708,-0.302 -2.105,-0.131C-2.209,-0.085 -2.128,0.555 -2.021,0.888C-1.862,1.385 -1.636,1.867 -1.382,2.324C-1.224,2.61 -0.97,3.03 -0.745,3.039C-0.472,3.05 -0.184,2.691 0,2.56" style="fill:rgb(69,93,96);fill-rule:nonzero;"/>
                </g>
                <g transform="matrix(1,0,0,1,450.864,520.098)">
                    <path d="M0,4.08C0.775,3.612 1.023,2.683 0.709,1.733C0.508,1.124 -0.057,0.601 -0.556,0.147C-0.718,0 -1.315,0.085 -1.487,0.272C-1.634,0.432 -1.597,0.958 -1.413,1.209C-0.824,2.014 -0.279,2.872 0,4.08" style="fill:rgb(69,93,96);fill-rule:nonzero;"/>
                </g>
                <g transform="matrix(1,0,0,1,432.963,473.377)">
                    <path d="M0,4.743C1.684,3.273 0.722,1.527 -0.49,0.214C-1.222,0 -1.458,0.297 -1.955,0.489C-0.673,1.841 -0.165,3.541 0,4.743" style="fill:rgb(69,93,96);fill-rule:nonzero;"/>
                </g>
                <g transform="matrix(1,0,0,1,444.891,513.818)">
                    <path d="M0,-2.718C0.742,-1.284 1.437,-0.505 0.977,0.206C0.868,0.374 1.131,0.734 1.234,0.743C1.463,0.762 1.844,0.684 1.919,0.528C2.169,0.008 2.603,-0.586 2.465,-1.117C1.847,-3.48 0.576,-3.096 0,-2.718" style="fill:rgb(69,93,96);fill-rule:nonzero;"/>
                </g>
                <g transform="matrix(1,0,0,1,434.468,486.633)">
                    <path d="M0,-2.976C1.205,-1.544 1.443,-0.47 1.006,0.358C0.896,0.566 1.193,0.945 1.359,0.989C1.552,1.04 1.974,0.866 2.031,0.697C2.275,-0.015 2.8,-0.896 2.518,-1.466C1.254,-4.016 0.717,-2.412 0,-2.976" style="fill:rgb(69,93,96);fill-rule:nonzero;"/>
                </g>
                <g transform="matrix(1,0,0,1,442.488,505.319)">
                    <path d="M0,-2.607C0.771,-1.238 1.231,-0.163 1.414,0.749C2.631,-0.265 2.453,-2.772 1.143,-3.143C0.411,-3.356 0.269,-2.705 0,-2.607" style="fill:rgb(69,93,96);fill-rule:nonzero;"/>
                </g>
                <g opacity="0.2">
                    <g transform="matrix(1,0,0,1,449.31,465.497)">
                        <clipPath id="_clip2">
                            <path d="M-26.063,-6.918C-28.582,-6.838 -26.518,-2.936 -25.481,-2.778C-24.65,-2.651 -23.165,-2.496 -22.313,-2.476C-21.812,-2.463 -21.177,-2.521 -20.837,-2.25C-19.528,-1.208 -18.766,0.261 -18.95,1.902C-19.033,2.639 -19.872,3.364 -20.511,3.93C-20.726,4.119 -21.455,3.959 -21.841,3.706C-22.946,2.987 -25.388,2.454 -25.56,2.615C-25.009,3.808 -24.084,5.586 -23.454,6.736C-23.203,7.196 -22.834,7.329 -22.353,7.519C-21.749,7.756 -20.814,7.602 -20.177,7.787C-19.465,7.995 -19.081,8.374 -18.669,7.603C-18.509,7.304 -17.858,7.082 -17.466,7.127C-15.803,7.314 -15.029,8.787 -14.685,10.247C-14.147,12.529 -15.716,13.682 -18.022,13.407C-18.913,13.298 -19.869,13.727 -20.795,13.911C-20.57,14.516 -20.357,15.127 -20.115,15.724C-19.441,17.381 -16.488,18.322 -14.879,17.471C-14.522,17.281 -13.975,17.304 -13.558,17.404C-12.396,17.686 -11.3,19.071 -11.156,20.308C-11.041,21.292 -12.671,23.337 -13.516,23.291C-14.772,23.221 -16.031,23.172 -17.708,23.094C-17.027,24.402 -16.552,25.267 -16.122,26.156C-15.548,27.339 -13.457,27.719 -12.518,26.789C-11.376,25.659 -9.919,26.136 -9.062,27.546C-8.827,27.934 -9.005,28.007 -8.876,28.44C-8.265,30.469 -9.273,31.733 -11.409,31.654C-12.731,31.606 -13.712,32.2 -13.678,33.036C-13.622,34.517 -12.082,36.146 -10.566,36.301C-9.391,36.421 -7.918,36.476 -7.084,36.007C-7.024,35.974 -6.92,35.977 -6.818,35.981C-6.772,35.982 -6.725,35.984 -6.683,35.982C-4.992,35.14 -3.957,37.006 -3.858,38.825C-3.748,40.841 -4.916,42.001 -6.934,41.909C-7.925,41.864 -8.919,41.865 -10.005,41.842C-9.593,43.497 -6.47,45.286 -5.274,44.851C-5.193,44.819 -5.137,44.728 -5.062,44.676C-3.835,43.862 -2.61,44.248 -1.888,45.216C-1.347,45.939 -1.043,47.212 -1.272,48.067C-1.841,50.179 -2.912,50.572 -4.931,49.85C-5.235,49.741 -5.543,49.591 -5.855,49.574C-6.138,49.562 -6.428,49.703 -6.715,49.778C-6.65,50.023 -6.626,50.289 -6.513,50.51C-6.1,51.311 -5.573,52.063 -5.243,52.895C-4.768,54.097 -3.855,54.274 -2.731,54.335C-1.673,54.394 -0.733,54.305 0.146,53.639C0.362,53.473 1.227,53.674 1.433,53.857C2.054,54.405 2.349,54.863 2.845,55.528C3.457,56.519 3.259,58.134 2.502,59.1C2.042,59.688 0.848,59.707 -0.026,59.952C-0.192,59.999 -0.37,59.995 -0.554,59.992C-0.638,59.99 -0.722,59.988 -0.807,59.991C-0.866,61.669 0.213,62.203 1.471,62.278C4.694,62.464 7.926,62.53 11.155,62.622C12.513,62.661 13.872,62.653 15.231,62.651C19.073,62.649 22.914,62.64 26.755,62.64C26.982,62.64 27.21,62.731 27.436,62.726C30.367,62.665 33.298,62.562 36.23,62.539C37.169,62.531 38.108,62.567 39.048,62.601C40.017,62.636 40.987,62.673 41.957,62.661C45.337,62.628 48.723,62.608 52.097,62.405C54.256,62.278 56.421,61.942 58.537,61.479C59.303,61.313 59.931,60.737 59.954,59.894L59.954,59.8C59.95,59.631 59.922,59.452 59.866,59.265C59.389,57.657 58.948,56.031 58.334,54.476C56.863,50.75 55.302,47.059 53.77,43.354C52.929,41.319 52.092,39.277 51.222,37.251C50.552,35.692 49.825,34.159 49.139,32.607C48.212,30.51 47.336,28.392 46.37,26.314C45.475,24.387 44.423,22.529 43.558,20.587C41.867,16.793 40.308,12.941 38.599,9.154C37.323,6.329 35.95,3.544 34.524,0.791C33.384,-1.406 32.981,-3.844 30.331,-4.534C28.71,-4.954 26.194,-4.991 24.561,-5.361C22.282,-5.879 -6.658,-7.163 -19.875,-7.163C-23.014,-7.163 -25.267,-7.091 -26.063,-6.918Z" clip-rule="nonzero"/>
                        </clipPath>
                        <g clip-path="url(#_clip2)">
                            <path d="M0,62.729C12.054,70.733 57.873,62.112 57.873,62.112C57.873,62.112 17.392,62.729 -20.174,-7.378C-21.788,-8.004 -27.097,-7.465 -27.097,-7.465L-28.239,-6.398C-28.239,-6.398 -15.552,52.402 0,62.729" style="fill:rgb(35,31,32);fill-rule:nonzero;"/>
                        </g>
                    </g>
                </g>
                <g opacity="0.5">
                    <g transform="matrix(1,0,0,1,454.843,484.515)">
                        <path d="M0,-21.775C12.634,-21.642 19.332,-21.058 24.259,-19.177C27.115,-16.121 32.696,-1.222 33.314,0C23.444,-10.075 25.437,-17.742 0,-21.775" style="fill:white;fill-rule:nonzero;"/>
                    </g>
                </g>
                <g transform="matrix(1,0,0,1,102.699,526.473)">
                    <path d="M0,-96.407C0.199,-97.09 0.398,-97.773 0.596,-98.456C1.255,-98.112 1.945,-97.817 2.562,-97.409C3.049,-97.086 3.518,-96.681 3.869,-96.217C5.607,-93.918 7.411,-91.657 8.964,-89.236C9.658,-88.155 10.163,-86.71 10.087,-85.47C10.043,-84.745 8.679,-84.107 7.92,-83.417C7.483,-83.019 7.095,-82.564 6.636,-82.196C6.35,-81.965 5.93,-81.663 5.653,-81.73C5.402,-81.791 5.221,-82.295 5.085,-82.633C4.348,-84.464 3.73,-86.346 2.889,-88.125C1.642,-90.762 0.359,-93.364 0,-96.407M26.842,-92.788C26.968,-94.33 29.33,-96.917 30.209,-97.331C30.292,-97.414 29.617,-94.835 29.61,-94.814C29.404,-94.129 29.283,-93.344 28.845,-92.836C28.614,-92.567 27.817,-92.788 26.842,-92.788M74.528,-67.999C74.627,-68.474 75.069,-69.36 75.242,-69.556C77.361,-69.586 78.446,-68.372 78.331,-67.02C78.293,-66.579 77.841,-65.888 77.473,-65.81C76.425,-65.59 74.352,-67.162 74.528,-67.999M-9.587,-20.213C-9.54,-16.536 -9.171,-12.882 -8.32,-9.27C-7.715,-6.701 -7.122,-4.1 -5.454,-2.076C-3.557,0.225 -1.381,2.334 0.882,4.284C2.693,5.842 4.716,7.228 6.831,8.336C8.819,9.379 10.999,10.278 13.194,10.634C14.763,10.89 15.898,11.624 17.155,12.335C17.747,12.669 18.342,13.057 18.986,13.228C22.506,14.153 26.082,14.635 29.734,14.733C33.786,14.842 37.833,15.152 41.882,15.38C44.821,15.546 47.767,15.942 50.696,15.839C54.914,15.692 59.119,15.186 63.33,14.831C64.728,14.712 66.122,14.545 67.521,14.462C70.575,14.284 73.562,13.701 76.189,12.144C77.47,11.385 78.561,10.124 79.415,8.869C80.482,7.301 81.417,5.577 82.045,3.794C82.88,1.422 83.32,-1.083 84.01,-3.509C85.547,-8.924 85.458,-14.468 85.169,-19.984C84.923,-24.691 84.233,-29.405 82.088,-33.679C81.072,-35.702 79.531,-37.471 78.17,-39.312C76.349,-41.777 76.263,-44.671 75.864,-47.542C75.37,-51.106 74.534,-54.622 73.885,-58.164C73.52,-60.155 73.234,-62.16 72.857,-64.503C74.17,-63.475 75.144,-62.602 76.223,-61.891C78.464,-60.417 79.987,-61.163 80.984,-63.122C81.783,-64.691 82.034,-66.559 82.935,-68.049C83.764,-69.418 83.408,-70.507 82.627,-71.391C82.04,-72.056 80.964,-72.438 80.04,-72.625C77.086,-73.224 74.117,-73.797 71.125,-74.133C69.401,-74.327 68.508,-75.052 67.804,-76.605C67.132,-78.085 66.019,-79.369 65.054,-80.706C64.362,-81.664 63.71,-82.695 62.84,-83.466C61.136,-84.98 59.441,-86.611 57.467,-87.685C55.068,-88.992 52.366,-89.736 49.843,-90.834C49.482,-90.991 49.207,-91.77 49.208,-92.261C49.212,-96.502 49.579,-100.765 49.234,-104.974C49.03,-107.476 47.135,-109.334 44.615,-110.263C43.654,-110.618 42.756,-111.151 41.786,-111.471C39.116,-112.349 36.99,-111.254 34.939,-109.615C33.291,-108.297 32.157,-106.699 31.67,-104.696C31.192,-102.74 29.628,-102.698 28.173,-102.569C25.087,-102.296 23.162,-100.312 21.312,-98.165C20.902,-97.692 20.485,-97.225 19.915,-96.579C18.85,-97.967 17.967,-99.256 16.945,-100.423C13.972,-103.821 10.743,-106.955 5.714,-106.017C3.997,-105.697 2.358,-104.652 0.83,-103.705C-1.091,-102.513 -3.049,-101.268 -4.648,-99.699C-6.147,-98.227 -7.229,-96.32 -8.432,-94.563C-8.783,-94.049 -8.953,-93.397 -9.143,-92.788C-9.259,-92.419 -9.353,-91.994 -9.289,-91.624C-8.935,-89.585 -8.658,-87.52 -8.109,-85.532C-7.473,-83.232 -6.576,-81.006 -5.807,-78.743C-5.614,-78.175 -5.442,-77.595 -5.324,-77.008C-4.741,-74.099 -4.194,-71.183 -3.6,-68.276C-3.425,-67.418 -3.211,-66.553 -2.886,-65.742C-1.739,-62.883 -2.354,-60.026 -2.814,-57.166C-3.279,-54.277 -3.601,-51.348 -4.326,-48.525C-4.717,-47.002 -4.865,-45.421 -6.11,-43.97C-7.468,-42.386 -8.07,-40.045 -8.653,-37.937C-9.144,-36.161 -9.248,-34.253 -9.324,-32.396C-9.49,-28.337 -9.64,-24.272 -9.587,-20.213" style="fill:rgb(35,31,32);fill-rule:nonzero;"/>
                </g>
                <g transform="matrix(1,0,0,1,152.11,493.607)">
                    <path d="M0,47.66C0,47.758 -1.897,47.57 -2.545,47.628C-3.973,47.754 -5.077,47.387 -5.761,45.992C-6.843,43.788 -8.068,41.655 -9.122,39.438C-10.96,35.572 -12.862,31.727 -14.454,27.759C-15.753,24.521 -16.717,21.14 -17.67,17.776C-18.099,16.259 -18.342,14.584 -18.63,12.8C-19.125,9.739 -17.971,6.155 -15.353,4.479C-12.894,2.903 -10.257,2.141 -7.544,1.541C-4.361,0.837 -0.851,0.279 2.4,0.113C6.548,-0.098 10.678,-0.075 14.801,0.341C17.857,0.651 20.799,1.586 23.716,2.627C26.113,3.483 28.465,4.978 30.64,6.318C33.02,7.786 32.934,7.922 31.985,10.651C31.921,10.837 31.96,11.058 31.902,11.247C31.096,13.841 30.413,16.483 29.436,19.012C28.293,21.973 27.374,25.022 26.002,27.888C24.921,30.145 23.437,32.294 22.018,34.338C19.475,38.002 17.337,41.042 14.686,44.632C13.614,46.084 11.6,47.322 9.788,47.321C6.33,47.32 3.458,47.66 0,47.66" style="fill:rgb(57,151,210);fill-rule:nonzero;"/>
                </g>
                <g transform="matrix(1,0,0,1,183.802,527.826)">
                    <path d="M0,-34.367C-0.118,-34.258 -0.236,-34.149 -0.353,-34.04C-1.852,-34.722 -3.411,-35.299 -4.837,-36.109C-8.245,-38.042 -12.947,-38.963 -17.349,-39.307C-21.816,-39.32 -24.735,-39.31 -29.191,-38.984C-35.693,-38.506 -41.985,-38.044 -47.928,-35.288C-48.434,-35.053 -52.494,-34.449 -58.303,-21.43C-59.082,-19.684 -59.64,-17.83 -60.215,-15.998C-60.891,-13.842 -61.722,-11.695 -62.054,-9.48C-62.683,-5.272 -62.638,-1.093 -61.072,3.025C-60.239,5.215 -59.181,7.036 -57.107,8.106C-56.643,8.345 -55.817,8.285 -55.342,8.025C-54.179,7.387 -53.119,6.562 -52.028,5.795C-50.502,4.722 -50.266,2.963 -51.443,1.529C-52.938,-0.293 -54.332,-2.212 -55.962,-3.905C-57.513,-5.515 -58.232,-6.904 -57.247,-9.287C-56.267,-13.247 -54.955,-16.268 -53.656,-20.395C-53.279,-21.507 -52.073,-23.985 -51.466,-25.02C-51.32,-25.008 -51.576,-23.486 -51.431,-23.474C-51.18,-21.937 -50.972,-20.391 -50.667,-18.864C-50.098,-16.012 -49.383,-13.086 -48.494,-10.332C-47.395,-6.924 -46.033,-3.594 -44.665,-0.274C-44.047,1.225 -43.139,2.836 -42.436,4.298C-41.702,5.826 -40.85,7.467 -40.093,8.984C-39.385,10.403 -38.844,11.376 -37.921,13.271C-39.999,12.937 -41.886,12.675 -43.484,12.569C-46.585,12.36 -49.706,12.431 -52.798,12.15C-56.943,11.773 -61.358,12.216 -64.793,9.107C-66.121,7.905 -67.688,6.683 -68.375,5.13C-69.228,3.196 -69.463,0.925 -69.623,-1.227C-69.742,-2.819 -69.264,-4.447 -69.141,-6.066C-68.982,-8.162 -68.985,-10.273 -68.785,-12.367C-68.457,-15.82 -68.081,-19.272 -67.617,-22.709C-67.188,-25.894 -66.613,-29.058 -66.114,-32.235C-65.812,-34.156 -65.701,-36.129 -65.181,-37.99C-64.858,-39.14 -64.17,-40.652 -63.227,-41.081C-60.379,-42.377 -57.345,-43.286 -54.345,-44.224C-52.416,-44.827 -50.44,-45.326 -48.45,-45.678C-45.028,-46.284 -41.59,-46.83 -38.138,-47.222C-35.908,-47.475 -33.643,-47.415 -31.394,-47.487C-26.695,-47.638 -21.601,-47.602 -16.948,-46.792C-14.099,-46.297 -11.674,-45.733 -9.062,-44.451C-7.937,-43.898 -6.867,-43.131 -5.961,-42.265C-4.798,-41.154 -3.74,-40.254 -2.775,-38.963C-1.38,-37.484 -0.164,-35.536 0,-34.367" style="fill:rgb(228,153,93);fill-rule:nonzero;"/>
                </g>
                <g transform="matrix(1,0,0,1,166.143,468.991)">
                    <path d="M0,-10.021C-0.143,-7.864 -0.183,-6.165 -0.379,-4.483C-0.844,-0.502 -1.309,3.503 -3.572,6.973C-5.087,9.293 -4.718,10.157 -8.319,10.099C-8.553,10.049 -9.552,9.954 -9.8,9.973C-13.267,10.237 -16.736,10.475 -20.199,10.777C-23.04,11.025 -25.882,11.28 -28.708,11.658C-31.314,12.006 -31.56,11.963 -32.804,9.589C-33.056,9.107 -33.177,8.559 -33.366,8.044C-34.334,5.406 -35.441,2.807 -36.228,0.117C-36.86,-2.046 -37.305,-4.306 -37.471,-6.549C-37.702,-9.631 -37.611,-12.739 -37.602,-15.836C-37.601,-16.222 -37.364,-16.727 -37.068,-16.976C-34.373,-19.229 -31.176,-20.783 -27.84,-21.35C-23.886,-22.02 -19.764,-22.027 -15.736,-21.844C-12.554,-21.697 -9.37,-20.98 -6.251,-20.244C-2.105,-19.268 -1.258,-19.194 -0.449,-14.466C-0.173,-12.856 -0.115,-11.209 0,-10.021" style="fill:rgb(57,151,210);fill-rule:nonzero;"/>
                </g>
                <g transform="matrix(1,0,0,1,110.365,513.418)">
                    <path d="M0,-8.576C-0.178,-9.925 -0.264,-11.273 -0.544,-12.58C-1.367,-16.42 -0.094,-20.067 0.468,-23.769C0.633,-24.852 1.443,-25.88 2.884,-25.545C4.405,-25.194 5.904,-24.749 7.585,-24.299C7.308,-23.503 6.961,-22.801 6.823,-22.061C6.279,-19.139 5.709,-16.216 5.315,-13.273C4.716,-8.795 4.235,-4.302 3.75,0.189C3.557,1.98 3.525,3.787 3.36,5.581C2.856,11.035 2.088,16.51 4.855,21.661C4.953,21.844 4.929,22.092 4.994,22.525C3.553,22.115 2.231,21.926 1.084,21.377C-2.772,19.531 -6.246,17.09 -9.26,14.054C-10.596,12.708 -12.112,11.343 -12.883,9.679C-14.068,7.121 -14.963,4.348 -15.463,1.572C-15.992,-1.364 -16.039,-4.41 -16.07,-7.41C-16.115,-11.514 -15.817,-15.624 -15.909,-19.725C-15.975,-22.696 -15.217,-25.43 -14.214,-28.133C-13.502,-30.054 -12.282,-31.101 -11.187,-30.65C-9.448,-29.936 -7.824,-28.941 -6.401,-28.195C-7.394,-25.912 -8.42,-23.894 -9.153,-21.775C-10,-19.329 -10.873,-16.831 -11.214,-14.286C-11.625,-11.223 -11.624,-8.083 -11.535,-4.984C-11.486,-3.29 -10.927,-1.602 -10.504,0.065C-10.412,0.428 -9.915,0.689 -9.605,0.997C-9.451,0.894 -9.298,0.79 -9.145,0.686C-9.464,-0.003 -9.958,-0.663 -10.075,-1.386C-10.828,-6.026 -10.734,-10.707 -9.864,-15.292C-9.25,-18.52 -8.04,-21.636 -7.042,-24.787C-6.377,-26.888 -5.168,-27.523 -3.075,-26.994C-2.881,-26.944 -2.695,-26.867 -2.502,-26.815C0.045,-26.143 0.056,-26.122 -0.697,-23.653C-0.74,-23.511 -0.705,-23.349 -0.742,-23.204C-1.904,-18.667 -1.34,-14.056 -1.343,-9.468C-1.343,-8.48 -0.963,-8.213 0,-8.576" style="fill:rgb(57,151,210);fill-rule:nonzero;"/>
                </g>
                <g transform="matrix(1,0,0,1,116.767,481.893)">
                    <path d="M0,-41.995C0.061,-40.021 0.625,-38.864 1.882,-38.012C3.725,-36.764 5.588,-36.823 6.854,-38.545C8.101,-40.244 9.138,-42.1 10.212,-43.919C10.991,-45.235 11.324,-46.983 13.41,-46.875C14.227,-46.832 15.047,-46.809 15.866,-46.785C19.425,-46.677 22.993,-46.679 26.542,-46.425C28.806,-46.264 31.035,-45.665 33.292,-45.365C37.043,-44.867 40.966,-43.456 44.144,-41.492C46.013,-40.337 49.509,-36.417 49.401,-36.235C48.756,-36.405 47.287,-37.261 46.653,-37.466C44.147,-38.276 41.701,-39.451 39.132,-39.859C32.559,-40.903 26.004,-41.02 19.424,-39.292C13.336,-37.696 8.119,-34.92 4.252,-29.942C2.683,-27.922 1.045,-25.74 0.278,-23.359C-1.032,-19.296 -1.995,-15.059 -2.522,-10.821C-3.101,-6.164 -3.059,-1.428 -3.202,3.276C-3.24,4.503 -3.671,4.988 -4.827,4.659C-7.201,3.987 -9.611,3.388 -11.906,2.505C-13.495,1.894 -14.939,0.891 -16.409,0C-17.378,-0.588 -17.892,-1.495 -17.701,-2.664C-17.472,-4.064 -17.186,-5.458 -16.919,-6.853C-16.501,-9.039 -16.072,-11.224 -15.658,-13.41C-15.153,-16.071 -14.679,-18.74 -14.155,-21.397C-13.344,-25.518 -11.368,-29.133 -9.432,-32.813C-7.765,-35.985 -5.16,-38.116 -2.55,-40.319C-1.875,-40.889 -1.067,-41.301 0,-41.995" style="fill:rgb(228,153,93);fill-rule:nonzero;"/>
                </g>
                <g transform="matrix(1,0,0,1,170.199,478.924)">
                    <path d="M0,-27.582C-0.093,-27.49 -0.187,-27.399 -0.28,-27.307C-0.472,-27.345 -0.682,-27.348 -0.856,-27.428C-3.51,-28.662 -6.092,-30.094 -8.832,-31.087C-11.041,-31.886 -13.43,-32.205 -15.758,-32.639C-17.128,-32.895 -18.532,-33.065 -19.924,-33.089C-22.928,-33.143 -25.952,-33.283 -28.933,-33.012C-32.914,-32.651 -36.51,-31.105 -39.95,-29.003C-43.876,-26.605 -47.006,-23.511 -48.636,-19.278C-49.957,-15.846 -50.842,-12.197 -51.485,-8.569C-52.092,-5.144 -52.156,-1.62 -52.405,1.863C-52.506,3.262 -52.347,4.687 -52.531,6.071C-52.64,6.875 -52.995,7.909 -53.596,8.324C-54.582,9.004 -55.466,8.229 -55.488,6.821C-55.589,0.228 -55.416,-6.355 -53.997,-12.821C-53.342,-15.804 -52.626,-18.812 -51.534,-21.653C-49.912,-25.87 -46.448,-28.671 -42.966,-31.284C-40.105,-33.432 -36.65,-34.516 -33.228,-35.368C-28.331,-36.586 -23.283,-36.468 -18.276,-36.194C-16.144,-36.076 -13.957,-35.826 -11.929,-35.2C-9.171,-34.35 -6.717,-33.494 -3.843,-32.035C-1.517,-31.263 -1.13,-29.179 0,-27.582" style="fill:rgb(226,214,228);fill-rule:nonzero;"/>
                </g>
                <g transform="matrix(1,0,0,1,161.901,455.288)">
                    <path d="M0,23.902C0.8,22.605 1.417,21.724 1.912,20.779C3.712,17.344 4.238,13.512 4.813,9.787C5.437,5.74 5.847,1.564 4.322,-2.47C4.145,-2.937 4.234,-3.504 4.199,-4.025C4.673,-3.872 5.147,-3.723 5.618,-3.565C5.901,-3.469 6.214,-3.41 6.454,-3.247C7.488,-2.544 8.87,-2.023 9.438,-1.039C10.413,0.649 10.972,2.605 11.53,4.501C12.352,7.291 13.094,10.11 13.728,12.948C14.172,14.938 14.379,16.981 14.699,19C15.155,21.877 15.616,24.752 16.075,27.629C15.921,27.727 15.767,27.828 15.613,27.927C14.72,27.498 13.845,27.022 12.928,26.651C9.565,25.292 6.019,24.791 2.434,24.47C1.728,24.407 1.04,24.151 0,23.902" style="fill:rgb(228,153,93);fill-rule:nonzero;"/>
                </g>
                <g transform="matrix(1,0,0,1,118.469,454.202)">
                    <path d="M0,32.122C-0.045,31.469 -0.132,31.029 -0.097,30.597C0.176,27.235 0.444,23.872 0.769,20.516C0.972,18.427 1.055,16.294 1.572,14.277C2.439,10.896 3.448,7.527 4.716,4.277C5.4,2.523 6.804,1.084 8.516,0C8.675,0.318 8.793,0.448 8.799,0.584C8.939,3.582 8.723,6.581 9.565,9.558C10.183,11.744 10.006,14.167 10.697,16.32C11.749,19.592 13.215,22.733 14.573,25.9C15.01,26.921 14.715,27.302 13.732,27.618C9.652,28.925 5.594,30.3 1.527,31.646C1.076,31.796 0.619,31.93 0,32.122" style="fill:rgb(228,153,93);fill-rule:nonzero;"/>
                </g>
                <g transform="matrix(1,0,0,1,167.144,502.674)">
                    <path d="M0,37.386C-0.102,37.243 -0.204,37.1 -0.306,36.957C0.253,36.35 0.893,35.797 1.36,35.125C4.053,31.249 6.781,27.393 9.356,23.438C12.551,18.529 14.446,13.024 16.287,7.514C17.038,5.264 17.647,2.967 18.354,0.701C18.438,0.434 18.737,0.232 18.937,0C19.102,0.295 19.353,0.575 19.413,0.891C19.514,1.422 19.499,1.976 19.523,2.52C19.646,5.346 19.978,8.183 19.839,10.994C19.586,16.058 18.567,21.016 16.864,25.801C16.186,27.701 15.501,29.66 14.427,31.34C13.106,33.405 11.265,34.944 8.854,35.94C5.942,37.143 2.944,36.894 0,37.386" style="fill:rgb(228,153,93);fill-rule:nonzero;"/>
                </g>
                <g transform="matrix(1,0,0,1,101.238,427.123)">
                    <path d="M0,34.107C-0.357,33.458 -0.647,33.128 -0.728,32.752C-1.374,29.75 -1.867,26.71 -2.631,23.738C-3.377,20.835 -4.398,18.003 -5.276,15.134C-5.678,13.818 -6.221,12.504 -6.351,11.156C-6.521,9.392 -6.802,7.424 -6.215,5.849C-5.298,3.387 -3.807,1.173 -0.871,0.34C0.271,0.015 0.721,0 0.545,1.147C0.144,3.751 1.342,6.032 2.035,8.348C3.031,11.669 4.605,14.816 5.898,18.051C6.278,18.999 6.179,19.787 5.593,20.818C4.061,23.507 2.818,26.37 1.581,29.216C0.962,30.642 0.609,32.187 0,34.107" style="fill:rgb(224,137,66);fill-rule:nonzero;"/>
                </g>
                <g transform="matrix(1,0,0,1,185.514,509.295)">
                    <path d="M0,-9.313C-0.375,-9.459 -0.658,-9.539 -0.912,-9.675C-3.292,-10.943 -5.645,-12.259 -8.052,-13.475C-9.051,-13.98 -10.136,-14.361 -11.222,-14.646C-13.844,-15.334 -16.465,-16.281 -19.136,-16.484C-23.177,-16.792 -27.273,-16.872 -31.325,-16.549C-50.035,-15.061 -52.378,-9.803 -54.114,-6.22C-54.538,-5.513 -55.254,-4.321 -55.578,-3.575C-56.361,-1.769 -56.947,-0.489 -57.586,1.37C-58.527,4.104 -59.335,6.883 -60.261,9.621C-60.415,10.076 -60.885,10.766 -61.193,10.758C-61.884,10.741 -62.776,10.552 -62.671,9.483C-62.589,8.642 -62.579,7.752 -62.287,6.978C-61.236,2.655 -59.796,-0.92 -57.921,-5.117C-56.897,-7.412 -54.956,-10.614 -53.35,-12.547C-49.936,-16.652 -44.884,-17.657 -39.898,-18.425C-36.208,-18.993 -32.392,-19.561 -28.661,-19.747C-23.131,-20.022 -17.818,-20.079 -12.374,-18.775C-8.721,-17.9 -5.402,-15.694 -2.184,-13.876C-0.494,-12.922 0.179,-11.361 0,-9.313" style="fill:rgb(226,214,228);fill-rule:nonzero;"/>
                </g>
                <g transform="matrix(1,0,0,1,101.901,435.207)">
                    <path d="M0,-9.688C1.443,-10.657 2.76,-11.495 4.027,-12.402C6.78,-14.372 9.911,-14.073 12.365,-12.561C14.877,-11.012 16.764,-8.414 18.829,-6.186C20.024,-4.896 20.115,-3.414 18.938,-1.973C18.601,-1.561 18.195,-1.159 18.006,-0.68C17.083,1.665 15.46,3.365 13.254,4.49C12.873,4.684 11.843,4.503 11.815,4.362C11.381,2.079 9.915,0.386 8.671,-1.441C7.069,-3.794 5.539,-6.201 3.06,-7.77C2.124,-8.364 1.182,-8.947 0,-9.688" style="fill:rgb(57,151,210);fill-rule:nonzero;"/>
                </g>
                <g transform="matrix(1,0,0,1,151.138,423.605)">
                    <path d="M0,3.88C-0.171,6.262 -0.072,8.288 -0.229,10.227C-0.332,11.507 -0.964,11.869 -2.13,11.404C-3.5,10.857 -3.671,10.472 -4.743,9.252C-5.103,8.844 -5.85,7.326 -6.226,6.372C-7.258,4.509 -7.878,3.147 -9.727,2.315C-10.286,2.064 -10.799,1.096 -10.839,0.426C-10.962,-1.603 -10.763,-3.649 -10.848,-5.681C-10.905,-7.02 -10.359,-7.747 -9.144,-7.835C-7.037,-7.989 -5.224,-6.893 -3.429,-6.064C-1.8,-5.311 -0.344,-4.101 -0.114,-2.235C0.154,-0.064 -0.19,2.119 0,3.88" style="fill:rgb(57,151,210);fill-rule:nonzero;"/>
                </g>
                <g transform="matrix(1,0,0,1,138.394,443.188)">
                    <path d="M0,-18.331C-0.003,-18.187 -1.425,-18.042 -1.429,-17.897C-5.086,-16.445 -6.852,-14.05 -7.601,-13.302C-10.972,-9.473 -12.899,-5.024 -15.358,-1.144C-16.31,0.356 -17.295,0.563 -19.197,-0.21C-20.261,-0.643 -20.694,-1.89 -20.105,-3.258C-19.54,-4.568 -18.859,-5.839 -18.11,-7.053C-16.92,-8.977 -15.599,-10.82 -14.388,-12.732C-12.239,-16.128 -10.254,-18.166 -5.944,-18.731C-4.697,-18.894 -1.259,-18.46 0,-18.331" style="fill:rgb(226,214,228);fill-rule:nonzero;"/>
                </g>
                <g transform="matrix(1,0,0,1,122.273,532.162)">
                    <path d="M0,-7.864C-0.166,-9.239 0.118,-10.277 0.406,-11.068C1.16,-10.698 2.563,-10.103 3.092,-9.525C4.848,-7.611 6.905,-5.202 8.464,-3.125C10.374,-0.577 9.938,-0.514 7.82,1.355C5.724,3.204 4.102,3.186 2.884,1.19C1.209,-1.555 0.375,-4.575 0,-7.864" style="fill:rgb(221,227,74);fill-rule:nonzero;"/>
                </g>
                <g transform="matrix(1,0,0,1,135.344,433.408)">
                    <path d="M0,-6.353C2.94,-7.953 6.429,-7.379 8.079,-4.208C8.823,-2.779 10.1,-0.359 10.88,1.221C7.454,1.6 6.236,0.792 5.326,-1.209C5.065,-1.783 4.681,-2.327 4.379,-2.841C3.088,-5.041 1.536,-5.817 0,-6.353" style="fill:rgb(180,138,172);fill-rule:nonzero;"/>
                </g>
                <g transform="matrix(1,0,0,1,139.569,424.011)">
                    <path d="M0,-6.501C-0.201,-4.235 -0.361,-2.333 -0.551,-0.434C-0.567,-0.277 -0.813,0 -0.913,-0.016C-2.079,-0.215 -3.237,-0.459 -4.398,-0.692C-4.231,-1.287 -4.073,-1.885 -3.895,-2.478C-3.766,-2.906 -3.65,-3.344 -3.46,-3.746C-2.871,-4.989 -2.007,-5.94 0,-6.501" style="fill:rgb(224,137,66);fill-rule:nonzero;"/>
                </g>
                <g transform="matrix(1,0,0,1,135.134,428.813)">
                    <path d="M0,5.24C-0.616,5.089 -2.193,4.962 -2.226,4.729C-2.381,3.637 -1.931,2.51 -1.668,1.446C-1.548,0.958 -0.724,0.459 -0.133,0.31C1.098,0 2.148,0.675 2.227,1.609C2.437,4.087 1.782,5.135 0,5.24" style="fill:rgb(224,137,66);fill-rule:nonzero;"/>
                </g>
                <g transform="matrix(1,0,0,1,137.651,430.66)">
                    <path d="M0,3.226C0.314,2.422 0.544,0.339 0.8,-0.318C1.828,0.654 2.592,3.024 2.685,3.454C2.157,3.508 0.267,3.544 0,3.226" style="fill:rgb(57,151,210);fill-rule:nonzero;"/>
                </g>
                <g transform="matrix(1,0,0,1,176.357,460.955)">
                    <path d="M0,-3.792C0.129,-4.345 1.297,-5.01 2.383,-5.067C3.893,-4.788 5.31,-3.531 5.711,-2.267C6.231,-0.628 5.033,1.332 3.702,0.872C2.584,0.486 1.416,-0.165 0.653,-1.035C0.083,-1.686 -0.197,-2.945 0,-3.792M-3.201,-5.42C-1.887,-2.173 0.11,0.653 2.927,2.773C4.508,3.963 6.118,3.202 7.013,0.991C7.51,-0.235 7.918,-1.499 8.321,-2.76C8.855,-4.429 8.609,-5.182 6.99,-5.645C4.141,-6.458 1.234,-7.063 -1.649,-7.755C-3.631,-7.532 -3.939,-7.24 -3.201,-5.42" style="fill:rgb(221,227,74);fill-rule:nonzero;"/>
                </g>
                <g transform="matrix(0.974313,-0.225196,-0.225196,-0.974313,128.599,532.53)">
                    <path d="M-0.593,-0.082C0.336,-0.267 1.203,-0.164 1.472,1.196C1.806,2.88 0.829,4.755 -0.593,5.127C-1.962,5.487 -2.618,4.814 -2.827,3.621C-3.145,1.787 -2.76,0.496 -0.593,-0.082" style="fill:rgb(35,31,32);fill-rule:nonzero;"/>
                </g>
                <g transform="matrix(-0.919958,0.392017,0.392017,0.919958,128.669,531.553)">
                    <path d="M1.134,-3.297C-0.222,-2.614 -0.871,-1.839 -0.409,-0.623C-0.152,0.054 0.364,0.363 1.134,-0.059C1.93,-0.495 2.461,-1.94 1.966,-2.741C1.773,-3.052 1.299,-3.192 1.134,-3.297" style="fill:rgb(228,153,93);fill-rule:nonzero;"/>
                </g>
                <g opacity="0.2">
                    <g transform="matrix(1,0,0,1,117.595,486.549)">
                        <path d="M0,50.324C-5.043,50.835 -18.569,41.958 -20.752,36.375C-24.575,26.601 -9.173,-0.511 1.174,1.235C-3.053,23.313 -7.282,45.393 0,50.324" style="fill:rgb(35,31,32);fill-rule:nonzero;"/>
                    </g>
                </g>
                <g opacity="0.2">
                    <g transform="matrix(1,0,0,1,165.04,456.258)">
                        <path d="M0,24.246C-8.32,22.34 -43.235,24.898 -47.089,32.862C-47.147,13.612 -44.391,-7.697 -26.737,-8.616C-31.775,-0.993 -25.588,22.211 0,24.246" style="fill:rgb(35,31,32);fill-rule:nonzero;"/>
                    </g>
                </g>
                <g opacity="0.2">
                    <g transform="matrix(1,0,0,1,114.629,453.505)">
                        <path d="M0,32.568C-0.082,36.919 -16.601,28.087 -16.601,28.087C-16.601,28.087 -10.261,1.293 9.938,-4.351C-1.396,5.151 -0.657,29.449 0,32.568" style="fill:rgb(35,31,32);fill-rule:nonzero;"/>
                    </g>
                </g>
                <g opacity="0.2">
                    <g transform="matrix(1,0,0,1,186.364,542.903)">
                        <path d="M0,-41.891C-7.519,-26.638 -23.845,-5.585 -38.239,-1.289C-25.349,0 -7.477,-4.286 -7.477,-4.286C-7.477,-4.286 5.586,-19.119 0,-41.891" style="fill:rgb(35,31,32);fill-rule:nonzero;"/>
                    </g>
                </g>
                <g transform="matrix(1,0,0,1,165.197,526.179)">
                    <path d="M0,2.231C-2.742,-1.188 -3.475,-2.093 -6.119,-5.389C-7.541,-3.298 -8.93,-1.289 -10.28,0.745C-11.087,1.958 -11.979,3.144 -12.571,4.46C-13.462,6.439 -12.755,7.62 -10.643,7.429C-7.149,7.114 -3.676,6.513 -0.213,5.926C0.392,5.822 2.115,4.688 0,2.231" style="fill:rgb(35,31,32);fill-rule:nonzero;"/>
                </g>
                <g transform="matrix(1,0,0,1,155.922,523.742)">
                    <path d="M0,8.813C-0.777,8.584 -4.156,9.696 -1.38,5.699C-0.137,3.979 1.165,2.296 2.325,0.521C3.193,-0.807 3.986,-0.883 4.917,0.437C5.481,1.237 6.123,1.98 6.681,2.783C7.38,3.791 8.108,4.796 8.644,5.89C8.786,6.18 8.352,7.132 8.049,7.201C5.391,7.811 2.703,8.291 0,8.813" style="fill:rgb(191,198,216);fill-rule:nonzero;"/>
                </g>
                <g transform="matrix(1,0,0,1,195.672,427.187)">
                    <path d="M0,11.028C-2.82,11.028 -5.107,8.995 -5.107,6.489C-5.107,3.982 -2.82,1.95 0,1.95C2.82,1.95 5.107,3.982 5.107,6.489C5.107,8.995 2.82,11.028 0,11.028M13.171,-19.759L-13.774,1.675C-16.881,4.148 -16.831,7.802 -13.656,10.235L13.171,30.787L211.276,30.787C216.188,30.787 220.17,28.077 220.17,24.735L220.17,-13.708C220.17,-17.05 216.188,-19.759 211.276,-19.759L13.171,-19.759Z" style="fill:rgb(255,240,170);fill-rule:nonzero;"/>
                </g>
                <g transform="matrix(1,0,0,1,195.672,427.187)">
                    <path d="M0,11.028C-2.82,11.028 -5.107,8.995 -5.107,6.489C-5.107,3.982 -2.82,1.95 0,1.95C2.82,1.95 5.107,3.982 5.107,6.489C5.107,8.995 2.82,11.028 0,11.028ZM13.171,-19.759L-13.774,1.675C-16.881,4.148 -16.831,7.802 -13.656,10.235L13.171,30.787L211.276,30.787C216.188,30.787 220.17,28.077 220.17,24.735L220.17,-13.708C220.17,-17.05 216.188,-19.759 211.276,-19.759L13.171,-19.759Z" style="fill:none;fill-rule:nonzero;stroke:rgb(36,170,225);stroke-width:1.12px;"/>
                </g>
                <g transform="matrix(1,0,0,1,122.835,424.839)">
                    <path d="M0,4.95C0.825,4.098 1.495,4.223 2.212,4.34C4.99,4.792 11.142,6.909 15.76,6.963C39.714,7.239 38.267,-2.227 51.155,-2.683C59.931,-2.993 64.886,3.77 67.886,11.524L67.886,6.278C64.886,-1.474 59.481,-6.574 50.704,-6.264C37.817,-5.807 39.552,4.227 15.598,3.95C10.326,3.89 4.844,2.743 2.814,2.275C2.289,2.154 1.632,2.337 1.229,2.531C0.826,2.725 0,4.098 0,4.95" style="fill:rgb(237,28,36);fill-rule:nonzero;"/>
                </g>
                <g transform="matrix(1,0,0,1,185.341,426.988)">
                    <path d="M0,14.06C-10.1,8.615 -7.073,2.801 -18.744,5.244C-24.887,6.529 -56.388,8.35 -57.132,7.432C-56.18,6.808 -54.608,5.485 -53.256,5.395C-51.711,5.243 -48.757,6.961 -44.638,6.198C-40.518,5.434 -23.721,4.939 -20.631,3.565C-17.542,2.191 -9.11,0 -5.849,3.969C-6.049,5.038 -5.953,8.024 -5.139,9.204C-4.346,10.353 -2.62,11.518 -1.489,12.801C-0.78,13.603 0,14.06 0,14.06" style="fill:rgb(237,28,36);fill-rule:nonzero;"/>
                </g>
                <g transform="matrix(1,0,0,1,425.639,561.899)">
                    <path d="M0,1.95C0,-0.558 1.896,-2.589 4.236,-2.589C6.576,-2.589 8.471,-0.558 8.471,1.95C8.471,4.457 6.576,6.489 4.236,6.489C1.896,6.489 0,4.457 0,1.95M-234.61,-24.298C-240.128,-24.298 -244.6,-21.589 -244.6,-18.247L-244.6,20.196C-244.6,23.538 -240.128,26.248 -234.61,26.248L-12.061,26.248L18.075,5.695C21.642,3.263 21.698,-0.391 18.207,-2.864L-12.061,-24.298L-234.61,-24.298Z" style="fill:rgb(255,240,170);fill-rule:nonzero;"/>
                </g>
                <g transform="matrix(1,0,0,1,425.639,561.899)">
                    <path d="M0,1.95C0,-0.558 1.896,-2.589 4.236,-2.589C6.576,-2.589 8.471,-0.558 8.471,1.95C8.471,4.457 6.576,6.489 4.236,6.489C1.896,6.489 0,4.457 0,1.95ZM-234.61,-24.298C-240.128,-24.298 -244.6,-21.589 -244.6,-18.247L-244.6,20.196C-244.6,23.538 -240.128,26.248 -234.61,26.248L-12.061,26.248L18.075,5.695C21.642,3.263 21.698,-0.391 18.207,-2.864L-12.061,-24.298L-234.61,-24.298Z" style="fill:none;fill-rule:nonzero;stroke:rgb(36,170,225);stroke-width:0.89px;"/>
                </g>
                <g>
                    <g transform="matrix(12.8828,0,0,12.8828,202.573,438.672)">
                        <path d="M0.182,-0.74L0.071,-0.74L0.071,-0L0.185,-0L0.183,-0.564L0.57,-0L0.678,-0L0.678,-0.74L0.564,-0.74L0.566,-0.177L0.182,-0.74Z" style="fill:rgb(35,31,32);fill-rule:nonzero;"/>
                    </g>
                    <g transform="matrix(12.8828,0,0,12.8828,212.235,438.672)">
                        <path d="M0.037,-0.272C0.037,-0.126 0.144,0.015 0.327,0.015C0.51,0.015 0.617,-0.126 0.617,-0.272C0.617,-0.418 0.51,-0.56 0.327,-0.56C0.144,-0.56 0.037,-0.418 0.037,-0.273L0.037,-0.272ZM0.141,-0.272C0.141,-0.381 0.223,-0.462 0.327,-0.462C0.431,-0.462 0.513,-0.381 0.513,-0.272C0.513,-0.163 0.431,-0.082 0.327,-0.082C0.223,-0.082 0.141,-0.163 0.141,-0.271L0.141,-0.272Z" style="fill:rgb(35,31,32);fill-rule:nonzero;"/>
                    </g>
                    <g transform="matrix(12.8828,0,0,12.8828,220.673,438.672)">
                        <path d="M0.068,-0L0.172,-0L0.172,-0.298C0.172,-0.342 0.181,-0.38 0.201,-0.409C0.219,-0.439 0.255,-0.463 0.304,-0.462C0.355,-0.461 0.387,-0.44 0.407,-0.408C0.425,-0.378 0.43,-0.345 0.429,-0.3L0.429,-0L0.534,-0L0.534,-0.3C0.534,-0.346 0.537,-0.376 0.559,-0.41C0.579,-0.443 0.618,-0.462 0.664,-0.462C0.713,-0.462 0.742,-0.445 0.761,-0.417C0.785,-0.386 0.791,-0.341 0.791,-0.296L0.791,-0L0.895,-0L0.895,-0.3C0.895,-0.404 0.883,-0.456 0.835,-0.505C0.795,-0.546 0.739,-0.56 0.689,-0.56C0.63,-0.56 0.58,-0.538 0.545,-0.503C0.526,-0.484 0.515,-0.465 0.506,-0.449C0.5,-0.459 0.485,-0.488 0.471,-0.502C0.433,-0.545 0.381,-0.56 0.331,-0.56C0.252,-0.56 0.189,-0.513 0.166,-0.467L0.166,-0.544L0.068,-0.544L0.068,-0Z" style="fill:rgb(35,31,32);fill-rule:nonzero;"/>
                    </g>
                    <g transform="matrix(12.8828,0,0,12.8828,233.04,438.672)">
                        <path d="M0.068,-0L0.168,-0L0.168,-0.094C0.203,-0.029 0.275,0.016 0.368,0.016C0.524,0.016 0.648,-0.099 0.648,-0.274C0.648,-0.455 0.513,-0.56 0.372,-0.56C0.302,-0.559 0.222,-0.528 0.172,-0.457L0.172,-0.74L0.068,-0.74L0.068,-0ZM0.544,-0.272C0.543,-0.178 0.477,-0.081 0.353,-0.081C0.242,-0.081 0.168,-0.169 0.168,-0.273C0.168,-0.376 0.244,-0.463 0.356,-0.463C0.463,-0.463 0.544,-0.379 0.544,-0.273L0.544,-0.272Z" style="fill:rgb(35,31,32);fill-rule:nonzero;"/>
                    </g>
                    <g transform="matrix(12.8828,0,0,12.8828,241.852,438.672)">
                        <path d="M0.068,-0L0.172,-0L0.172,-0.294C0.172,-0.402 0.223,-0.456 0.321,-0.456L0.328,-0.456L0.328,-0.56C0.254,-0.559 0.197,-0.528 0.166,-0.464L0.166,-0.544L0.068,-0.544L0.068,-0Z" style="fill:rgb(35,31,32);fill-rule:nonzero;"/>
                    </g>
                    <g transform="matrix(12.8828,0,0,12.8828,245.782,438.672)">
                        <path d="M0.6,-0.239C0.609,-0.33 0.582,-0.415 0.518,-0.48C0.466,-0.531 0.395,-0.56 0.317,-0.56C0.152,-0.56 0.03,-0.427 0.03,-0.271C0.03,-0.127 0.14,0.016 0.318,0.016C0.373,0.016 0.427,0.001 0.473,-0.03C0.519,-0.06 0.557,-0.105 0.583,-0.165L0.475,-0.165C0.445,-0.108 0.391,-0.073 0.318,-0.073C0.236,-0.073 0.14,-0.129 0.135,-0.239L0.6,-0.239ZM0.137,-0.32C0.142,-0.394 0.211,-0.471 0.317,-0.471C0.42,-0.473 0.492,-0.392 0.497,-0.32L0.137,-0.32Z" style="fill:rgb(35,31,32);fill-rule:nonzero;"/>
                    </g>
                    <g transform="matrix(12.8828,0,0,12.8828,253.949,438.672)">
                        <path d="M0.204,-0.544L0.095,-0.544L0.095,-0.414L0.204,-0.414L0.204,-0.544ZM0.204,-0.13L0.095,-0.13L0.095,-0L0.204,-0L0.204,-0.13Z" style="fill:rgb(35,31,32);fill-rule:nonzero;"/>
                    </g>
                </g>
                <g>
                    <g transform="matrix(12.8828,0,0,12.8828,207.789,568.845)">
                        <path d="M0.182,-0.74L0.071,-0.74L0.071,-0L0.185,-0L0.183,-0.564L0.57,-0L0.678,-0L0.678,-0.74L0.564,-0.74L0.566,-0.177L0.182,-0.74Z" style="fill:rgb(35,31,32);fill-rule:nonzero;"/>
                    </g>
                    <g transform="matrix(12.8828,0,0,12.8828,217.451,568.845)">
                        <path d="M0.037,-0.272C0.037,-0.126 0.144,0.015 0.327,0.015C0.51,0.015 0.617,-0.126 0.617,-0.272C0.617,-0.418 0.51,-0.56 0.327,-0.56C0.144,-0.56 0.037,-0.418 0.037,-0.273L0.037,-0.272ZM0.141,-0.272C0.141,-0.381 0.223,-0.462 0.327,-0.462C0.431,-0.462 0.513,-0.381 0.513,-0.272C0.513,-0.163 0.431,-0.082 0.327,-0.082C0.223,-0.082 0.141,-0.163 0.141,-0.271L0.141,-0.272Z" style="fill:rgb(35,31,32);fill-rule:nonzero;"/>
                    </g>
                    <g transform="matrix(12.8828,0,0,12.8828,225.889,568.845)">
                        <path d="M0.068,-0L0.172,-0L0.172,-0.298C0.172,-0.342 0.181,-0.38 0.201,-0.409C0.219,-0.439 0.255,-0.463 0.304,-0.462C0.355,-0.461 0.387,-0.44 0.407,-0.408C0.425,-0.378 0.43,-0.345 0.429,-0.3L0.429,-0L0.534,-0L0.534,-0.3C0.534,-0.346 0.537,-0.376 0.559,-0.41C0.579,-0.443 0.618,-0.462 0.664,-0.462C0.713,-0.462 0.742,-0.445 0.761,-0.417C0.785,-0.386 0.791,-0.341 0.791,-0.296L0.791,-0L0.895,-0L0.895,-0.3C0.895,-0.404 0.883,-0.456 0.835,-0.505C0.795,-0.546 0.739,-0.56 0.689,-0.56C0.63,-0.56 0.58,-0.538 0.545,-0.503C0.526,-0.484 0.515,-0.465 0.506,-0.449C0.5,-0.459 0.485,-0.488 0.471,-0.502C0.433,-0.545 0.381,-0.56 0.331,-0.56C0.252,-0.56 0.189,-0.513 0.166,-0.467L0.166,-0.544L0.068,-0.544L0.068,-0Z" style="fill:rgb(35,31,32);fill-rule:nonzero;"/>
                    </g>
                    <g transform="matrix(12.8828,0,0,12.8828,238.257,568.845)">
                        <path d="M0.068,-0L0.168,-0L0.168,-0.094C0.203,-0.029 0.275,0.016 0.368,0.016C0.524,0.016 0.648,-0.099 0.648,-0.274C0.648,-0.455 0.513,-0.56 0.372,-0.56C0.302,-0.559 0.222,-0.528 0.172,-0.457L0.172,-0.74L0.068,-0.74L0.068,-0ZM0.544,-0.272C0.543,-0.178 0.477,-0.081 0.353,-0.081C0.242,-0.081 0.168,-0.169 0.168,-0.273C0.168,-0.376 0.244,-0.463 0.356,-0.463C0.463,-0.463 0.544,-0.379 0.544,-0.273L0.544,-0.272Z" style="fill:rgb(35,31,32);fill-rule:nonzero;"/>
                    </g>
                    <g transform="matrix(12.8828,0,0,12.8828,247.068,568.845)">
                        <path d="M0.068,-0L0.172,-0L0.172,-0.294C0.172,-0.402 0.223,-0.456 0.321,-0.456L0.328,-0.456L0.328,-0.56C0.254,-0.559 0.197,-0.528 0.166,-0.464L0.166,-0.544L0.068,-0.544L0.068,-0Z" style="fill:rgb(35,31,32);fill-rule:nonzero;"/>
                    </g>
                    <g transform="matrix(12.8828,0,0,12.8828,250.998,568.845)">
                        <path d="M0.6,-0.239C0.609,-0.33 0.582,-0.415 0.518,-0.48C0.466,-0.531 0.395,-0.56 0.317,-0.56C0.152,-0.56 0.03,-0.427 0.03,-0.271C0.03,-0.127 0.14,0.016 0.318,0.016C0.373,0.016 0.427,0.001 0.473,-0.03C0.519,-0.06 0.557,-0.105 0.583,-0.165L0.475,-0.165C0.445,-0.108 0.391,-0.073 0.318,-0.073C0.236,-0.073 0.14,-0.129 0.135,-0.239L0.6,-0.239ZM0.137,-0.32C0.142,-0.394 0.211,-0.471 0.317,-0.471C0.42,-0.473 0.492,-0.392 0.497,-0.32L0.137,-0.32Z" style="fill:rgb(35,31,32);fill-rule:nonzero;"/>
                    </g>
                    <g transform="matrix(12.8828,0,0,12.8828,259.165,568.845)">
                        <path d="M0.204,-0.544L0.095,-0.544L0.095,-0.414L0.204,-0.414L0.204,-0.544ZM0.204,-0.13L0.095,-0.13L0.095,-0L0.204,-0L0.204,-0.13Z" style="fill:rgb(35,31,32);fill-rule:nonzero;"/>
                    </g>
                </g>
                <g transform="matrix(1,0,0,1,429.874,526.09)">
                    <path d="M0,33.22C-2.731,34.284 -16.801,13.767 -9.525,10.409C-4.62,8.145 0.263,-1.064 2.376,-0.758" style="fill:none;fill-rule:nonzero;stroke:rgb(251,176,64);stroke-width:0.92px;"/>
                </g>
                <g transform="matrix(1,0,0,1,435.366,528.96)">
                    <path d="M0,24.071C-3.767,13.37 -7.606,9.317 -3.23,7.18C0.096,5.556 2.567,1.069 0.685,0" style="fill:none;fill-rule:nonzero;stroke:rgb(251,176,64);stroke-width:0.92px;"/>
                </g>
            </g>
        </g>
    </g>
</svg>
