<?xml version="1.0" encoding="UTF-8" standalone="no"?>
<!DOCTYPE svg PUBLIC "-//W3C//DTD SVG 1.1//EN" "http://www.w3.org/Graphics/SVG/1.1/DTD/svg11.dtd">
<svg width="100%" height="100%" viewBox="0 0 76 52" version="1.1" xmlns="http://www.w3.org/2000/svg" xmlns:xlink="http://www.w3.org/1999/xlink" xml:space="preserve" xmlns:serif="http://www.serif.com/" style="fill-rule:evenodd;clip-rule:evenodd;stroke-linecap:round;stroke-linejoin:round;stroke-miterlimit:10;">
    <g transform="matrix(1,0,0,1,-31,-58)">
        <g transform="matrix(1,0,0,1,-62.4799,-177.909)">
            <g id="i1">
                <g>
                    <clipPath id="_clip1">
                        <path d="M94.257,271.483C94.257,286.992 109.682,286.943 130.451,286.943C151.22,286.943 169.467,286.992 169.467,271.483C169.467,255.975 152.63,243.403 131.861,243.403C111.092,243.403 94.257,255.975 94.257,271.483Z" clip-rule="nonzero"/>
                    </clipPath>
                    <g clip-path="url(#_clip1)">
                        <g transform="matrix(0,-1,-1,0,138.148,227.586)">
                            <path d="M-43.896,-31.323C-59.406,-31.323 -59.358,-13.074 -59.358,7.696C-59.358,28.468 -59.406,43.896 -43.896,43.896C-28.386,43.896 -15.813,27.057 -15.813,6.286C-15.813,-14.485 -28.386,-31.323 -43.896,-31.323" style="fill:rgb(254,220,196);fill-rule:nonzero;"/>
                        </g>
                        <g transform="matrix(1,0,0,1,137.726,262.223)">
                            <path d="M0,-7.937C1.793,-7.5 3.805,-7.463 5.217,-6.273C6.143,-5.49 6.658,-4.306 6.854,-3.109C7.566,1.241 4.266,5.454 0.235,7.239C-3.797,9.024 -8.376,8.931 -12.78,8.727C-10.22,8.614 -7.678,8.149 -5.242,7.35C-2.854,6.568 -0.503,5.415 1.138,3.511C2.779,1.607 3.581,-1.166 2.642,-3.498C2.546,-3.741 2.424,-3.985 2.218,-4.145C1.947,-4.356 1.58,-4.385 1.237,-4.402C-2.426,-4.589 -6.105,-4.456 -9.744,-4.003C-8.564,-3.966 -8.245,-5.609 -8.334,-6.787C-8.497,-8.924 -10.122,-15.578 -8.357,-16.961C-6.699,-13.817 -4.757,-7.937 0,-7.937" style="fill:rgb(251,188,144);fill-rule:nonzero;"/>
                        </g>
                        <g transform="matrix(1,0,0,1,129.612,253.231)">
                            <path d="M0,5.613C1.075,4.816 2.331,5.17 3.265,4.474C0.866,2.753 -0.07,0.263 -0.607,-2.465C-1.069,-4.809 -0.771,-7.129 -0.48,-9.452C-0.4,-10.101 -0.271,-10.748 -0.11,-11.383C-0.037,-11.67 0.169,-11.923 0.382,-12.316C0.722,-11.733 0.542,-11.298 0.512,-10.876C0.386,-9.116 0.224,-7.356 0.137,-5.593C0.044,-3.717 0.533,-1.928 1.124,-0.17C1.681,1.482 2.837,2.709 4.05,3.898C4.339,4.183 4.635,4.182 4.952,4.09C6.164,3.739 7.405,3.824 8.635,3.849C9.16,3.859 9.696,3.981 10.197,4.141C11.264,4.485 11.876,5.196 12.08,6.349C12.379,8.039 12.281,9.594 11.236,11.046C10.51,12.058 9.731,12.995 8.726,13.741C6.107,15.688 3.235,17.025 -0.019,17.534C-2.553,17.929 -4.833,17.334 -6.955,15.974C-7.126,15.864 -7.289,15.732 -7.426,15.583C-7.532,15.467 -7.592,15.31 -7.729,15.076C-7.43,15.076 -7.197,15.017 -7.012,15.086C-6.396,15.317 -5.792,15.583 -5.192,15.854C-3.242,16.733 -1.242,16.882 0.841,16.401C3.788,15.721 6.411,14.403 8.749,12.513C9.758,11.697 10.518,10.648 11.019,9.471C11.519,8.298 11.409,7.039 10.962,5.865C10.69,5.149 9.937,4.906 9.241,4.826C7.765,4.657 6.284,4.642 4.833,5.076C3.571,5.453 2.307,5.841 0.97,5.808C0.709,5.802 0.451,5.707 0,5.613" style="fill:rgb(35,31,32);fill-rule:nonzero;"/>
                        </g>
                        <g opacity="0.5">
                            <g transform="matrix(1,0,0,1,131.207,263.535)">
                                <path d="M0,3.502C2.289,2.367 4.401,0.874 6.232,-0.907C6.702,-1.363 7.183,-2.061 6.83,-2.612C4.393,-0.225 1.167,1.163 -2.027,2.362C-3.865,3.052 -5.422,3.104 -7.254,3.164C-6.964,6.114 -1.454,4.223 0,3.502" style="fill:white;fill-rule:nonzero;"/>
                            </g>
                        </g>
                        <g transform="matrix(0,-1,-1,0,141.487,238.442)">
                            <path d="M-1.879,-1.879C-3.811,-1.879 -5.377,-1.038 -5.377,0C-5.377,1.038 -3.811,1.879 -1.879,1.879C0.053,1.879 1.62,1.038 1.62,0C1.62,-1.038 0.053,-1.879 -1.879,-1.879" style="fill:rgb(35,31,32);fill-rule:nonzero;"/>
                        </g>
                        <g transform="matrix(0,-1,-1,0,119.459,238.442)">
                            <path d="M-1.879,-1.879C-3.811,-1.879 -5.377,-1.038 -5.377,0C-5.377,1.038 -3.811,1.879 -1.879,1.879C0.053,1.879 1.62,1.038 1.62,0C1.62,-1.038 0.053,-1.879 -1.879,-1.879" style="fill:rgb(35,31,32);fill-rule:nonzero;"/>
                        </g>
                        <g transform="matrix(1,0,0,1,109.875,272.725)">
                            <path d="M0,4.386C0.059,3.748 0.55,3.245 1.035,2.827C2.39,1.659 3.925,0.702 5.57,0" style="fill:none;fill-rule:nonzero;stroke:rgb(35,31,32);stroke-width:1.03px;"/>
                        </g>
                        <g transform="matrix(-0.615586,0.78807,0.78807,0.615586,141.328,271.641)">
                            <path d="M20.022,-20.503C21.524,-17.156 21.142,-13.304 20.728,-9.657C20.571,-8.27 20.412,-6.874 20.022,-5.533C18.878,-1.598 15.859,1.518 12.591,3.987C10.616,5.48 8.264,6.86 5.814,6.496" style="fill:none;fill-rule:nonzero;stroke:rgb(35,31,32);stroke-width:1.03px;"/>
                        </g>
                    </g>
                </g>
            </g>
        </g>
    </g>
</svg>
