<?xml version="1.0" encoding="UTF-8" standalone="no"?>
<!DOCTYPE svg PUBLIC "-//W3C//DTD SVG 1.1//EN" "http://www.w3.org/Graphics/SVG/1.1/DTD/svg11.dtd">
<svg width="100%" height="100%" viewBox="0 0 59 53" version="1.1" xmlns="http://www.w3.org/2000/svg" xmlns:xlink="http://www.w3.org/1999/xlink" xml:space="preserve" xmlns:serif="http://www.serif.com/" style="fill-rule:evenodd;clip-rule:evenodd;stroke-linejoin:round;stroke-miterlimit:2;">
    <g transform="matrix(1,0,0,1,-131,-57)">
        <g id="i2" transform="matrix(1,0,0,1,-130.433,-179.915)">
            <g transform="matrix(1,0,0,1,281.517,275.941)">
                <path d="M0,-24.297C0.003,-24.189 0.007,-24.08 0.011,-23.971C0.523,-23.885 1.034,-23.739 1.548,-23.729C2.229,-23.715 2.913,-23.836 3.596,-23.851C6.574,-23.916 9.563,-23.827 12.529,-24.053C16.058,-24.321 19.474,-25.228 22.734,-26.636C23.188,-26.833 23.566,-27.201 23.979,-27.49C23.952,-27.603 23.924,-27.716 23.896,-27.829C22.714,-28.125 21.547,-28.525 20.347,-28.695C18.324,-28.981 16.253,-29.434 14.393,-28.03C12.559,-26.647 10.419,-26.616 8.323,-26.976C5,-27.547 2.552,-25.833 0,-24.297M25.925,-16.215C27.682,-17.76 29.381,-19.255 30.915,-20.605C29.021,-22.503 26.997,-24.531 24.89,-26.643C23.298,-26.068 21.498,-25.194 19.597,-24.78C16.343,-24.071 13.042,-23.411 9.729,-23.172C6.173,-22.914 2.58,-23.18 -0.998,-23.178C-1.408,-23.177 -1.863,-22.992 -2.219,-22.768C-4.931,-21.054 -7.625,-19.313 -10.32,-17.573C-10.845,-17.234 -11.351,-16.865 -11.865,-16.51C-11.855,-16.391 -11.846,-16.273 -11.836,-16.154C-10.69,-16.062 -9.269,-15.493 -8.448,-15.966C-5.883,-17.443 -3.159,-18.189 -0.312,-18.759C2.615,-19.346 5.488,-19.498 8.348,-18.479C8.58,-18.397 8.926,-18.354 9.111,-18.468C10.996,-19.632 13.085,-20.011 15.246,-20.264C19.551,-20.769 23.252,-19.815 25.925,-16.215M37.413,-20.457C35.89,-21.796 34.462,-22.893 33.231,-24.179C31.966,-25.5 30.865,-26.983 29.744,-28.435C28.177,-30.465 26.74,-32.569 24.838,-34.358C21.6,-37.402 18.593,-37.982 14.674,-35.765C12.968,-34.801 11.346,-34.614 9.574,-35.442C9.172,-35.63 8.696,-35.701 8.247,-35.739C5.591,-35.963 3.533,-34.634 1.711,-32.974C-0.869,-30.622 -3.313,-28.121 -5.833,-25.702C-8.286,-23.347 -10.759,-21.012 -13.229,-18.675C-13.905,-18.035 -14.599,-17.416 -15.285,-16.787C-15.21,-16.649 -15.135,-16.51 -15.06,-16.372C-13.953,-16.741 -12.738,-16.929 -11.761,-17.515C-8.298,-19.588 -4.869,-21.727 -1.52,-23.978C1.085,-25.728 3.634,-27.521 6.849,-27.934C7.285,-27.99 7.76,-27.983 8.182,-27.871C10.327,-27.302 12.329,-27.473 14.24,-28.713C14.988,-29.198 15.874,-29.697 16.725,-29.754C19.453,-29.935 22.07,-29.165 24.682,-28.472C25.923,-28.142 26.237,-26.904 27.031,-26.149C28.919,-24.353 30.928,-22.683 32.875,-20.947C33.052,-20.789 33.129,-20.52 33.261,-20.289C29.593,-18.878 28.876,-18.352 27.215,-16.312C26.647,-15.615 26.66,-15.082 27.089,-14.344C28.035,-12.721 28.935,-11.068 29.779,-9.389C30.193,-8.568 30.442,-7.665 30.765,-6.799C31.959,-11.901 34.061,-16.517 37.413,-20.457M-17.724,-15.071C-17.337,-14.718 -17.252,-14.599 -17.136,-14.541C-16.726,-14.338 -16.302,-14.165 -15.891,-13.964C-12.949,-12.522 -10.766,-10.215 -9.092,-7.503C-7.529,-4.97 -6.363,-2.197 -4.891,0.396C-1.898,5.666 2.392,9.382 8.243,11.265C12.317,12.576 16.363,12.551 20.415,11.375C25.132,10.006 28.188,7.018 29.089,2.064C29.14,1.786 29.096,1.49 29.096,1.258C27.606,2.147 26.229,3.168 24.699,3.842C21.199,5.384 17.757,7.261 13.651,6.015C10.64,5.102 8.037,3.689 5.849,1.363C3.93,-0.677 2.677,-3.121 1.143,-5.397C-0.058,-7.18 -1.091,-9.152 -2.593,-10.644C-6.049,-14.077 -10.291,-15.898 -15.26,-15.643C-16.013,-15.604 -16.753,-15.304 -17.724,-15.071M-7.945,-15.496C-6.476,-14.508 -5.104,-13.674 -3.831,-12.71C-0.591,-10.257 1.244,-6.693 3.351,-3.364C5.236,-0.386 7.247,2.425 10.552,3.996C13.255,5.28 16.06,6.225 19.043,5.307C21.226,4.637 23.381,3.78 25.406,2.73C26.577,2.122 27.691,1.124 28.436,0.032C30.556,-3.074 30.252,-6.459 28.806,-9.703C27.934,-11.66 26.613,-13.413 25.541,-15.285C24.678,-16.792 23.339,-17.748 21.862,-18.503C18.228,-20.358 14.545,-19.667 10.885,-18.552C10.589,-18.463 10.366,-18.137 9.973,-17.807C11.751,-16.596 13.127,-15.25 13.895,-13.378C13.378,-13.723 12.987,-14.186 12.582,-14.634C10.701,-16.711 8.435,-17.974 5.608,-18.412C2.552,-18.886 -0.322,-18.141 -3.233,-17.543C-4.894,-17.202 -6.48,-16.628 -7.945,-15.496M-19.222,-14.408C-19.046,-14.679 -18.969,-14.912 -18.808,-15.032C-13.941,-18.666 -9.456,-22.727 -5.235,-27.09C-3.19,-29.204 -1.139,-31.318 1.032,-33.298C2.655,-34.778 4.407,-36.227 6.709,-36.472C7.77,-36.586 8.986,-36.568 9.931,-36.152C11.733,-35.36 13.283,-35.657 14.71,-36.754C17.217,-38.679 19.879,-38.195 22.396,-37.117C25.438,-35.814 27.521,-33.282 29.333,-30.591C31.426,-27.485 33.687,-24.552 36.796,-22.38C37.022,-22.222 37.244,-22.056 37.478,-21.912C38.656,-21.186 38.774,-20.421 37.767,-19.401C34.153,-15.742 32.632,-11.12 31.628,-6.247C30.952,-2.967 30.33,0.327 29.535,3.578C28.515,7.753 25.839,10.53 21.763,11.799C13.466,14.382 6.018,12.835 -0.541,7.042C-3.177,4.714 -5.075,1.885 -6.7,-1.181C-7.965,-3.568 -9.08,-6.066 -10.614,-8.27C-12.667,-11.224 -15.464,-13.375 -19.222,-14.408" style="fill:rgb(35,31,32);"/>
            </g>
            <g transform="matrix(1,0,0,1,273.572,277.306)">
                <path d="M0,-16.861C1.464,-17.992 3.051,-18.567 4.712,-18.908C7.623,-19.506 10.497,-20.251 13.553,-19.777C16.38,-19.339 18.646,-18.075 20.526,-15.999C20.932,-15.55 21.323,-15.088 21.84,-14.743C21.072,-16.615 19.696,-17.961 17.918,-19.172C18.311,-19.502 18.534,-19.827 18.83,-19.917C22.49,-21.031 26.172,-21.722 29.807,-19.867C31.284,-19.112 32.623,-18.156 33.485,-16.65C34.558,-14.778 35.879,-13.025 36.751,-11.068C38.197,-7.824 38.5,-4.439 36.381,-1.333C35.636,-0.241 34.521,0.758 33.351,1.365C31.326,2.415 29.171,3.272 26.988,3.943C24.004,4.861 21.2,3.915 18.497,2.631C15.191,1.06 13.181,-1.751 11.295,-4.729C9.188,-8.058 7.354,-11.622 4.114,-14.075C2.841,-15.039 1.469,-15.873 0,-16.861" style="fill:rgb(247,152,112);"/>
            </g>
            <g transform="matrix(1,0,0,1,263.793,287.69)">
                <path d="M0,-26.819C0.971,-27.052 1.711,-27.352 2.464,-27.391C7.434,-27.646 11.675,-25.825 15.131,-22.392C16.633,-20.901 17.666,-18.928 18.867,-17.145C20.401,-14.869 21.654,-12.425 23.573,-10.385C25.761,-8.059 28.364,-6.646 31.375,-5.733C35.481,-4.487 38.923,-6.364 42.423,-7.906C43.953,-8.58 45.33,-9.601 46.82,-10.49C46.82,-10.258 46.864,-9.963 46.813,-9.684C45.912,-4.73 42.856,-1.742 38.139,-0.373C34.087,0.803 30.042,0.827 25.967,-0.484C20.116,-2.366 15.826,-6.082 12.833,-11.352C11.361,-13.945 10.195,-16.718 8.632,-19.251C6.958,-21.964 4.775,-24.27 1.833,-25.712C1.422,-25.913 0.998,-26.086 0.588,-26.289C0.472,-26.347 0.387,-26.466 0,-26.819" style="fill:rgb(237,165,177);"/>
            </g>
            <g transform="matrix(1,0,0,1,318.93,251.618)">
                <path d="M0,3.867C-3.352,7.806 -5.453,12.423 -6.647,17.525C-6.971,16.659 -7.22,15.755 -7.633,14.934C-8.478,13.256 -9.377,11.603 -10.323,9.979C-10.753,9.242 -10.765,8.709 -10.197,8.012C-8.536,5.971 -7.82,5.446 -4.152,4.034C-4.283,3.804 -4.361,3.534 -4.538,3.376C-6.484,1.64 -8.493,-0.029 -10.381,-1.825C-11.176,-2.58 -11.489,-3.819 -12.73,-4.148C-15.343,-4.841 -17.959,-5.611 -20.687,-5.43C-21.539,-5.373 -22.425,-4.874 -23.173,-4.389C-25.084,-3.15 -27.085,-2.979 -29.23,-3.548C-29.652,-3.659 -30.127,-3.666 -30.564,-3.61C-33.779,-3.197 -36.327,-1.404 -38.932,0.346C-42.282,2.596 -45.711,4.736 -49.174,6.809C-50.151,7.394 -51.366,7.582 -52.472,7.952C-52.547,7.814 -52.623,7.675 -52.698,7.536C-52.012,6.908 -51.317,6.288 -50.642,5.649C-48.171,3.311 -45.699,0.977 -43.245,-1.379C-40.726,-3.797 -38.282,-6.299 -35.701,-8.65C-33.88,-10.31 -31.822,-11.639 -29.166,-11.415C-28.717,-11.378 -28.24,-11.307 -27.838,-11.118C-26.066,-10.29 -24.444,-10.477 -22.738,-11.442C-18.819,-13.658 -15.813,-13.078 -12.574,-10.034C-10.672,-8.246 -9.235,-6.142 -7.668,-4.112C-6.547,-2.659 -5.446,-1.176 -4.182,0.145C-2.951,1.43 -1.523,2.528 0,3.867" style="fill:rgb(237,165,177);"/>
            </g>
            <g transform="matrix(1,0,0,1,307.442,250.022)">
                <path d="M0,9.704C-2.673,6.105 -6.375,5.151 -10.68,5.655C-12.84,5.908 -14.929,6.287 -16.814,7.452C-16.999,7.566 -17.346,7.522 -17.577,7.44C-20.437,6.422 -23.311,6.574 -26.238,7.16C-29.084,7.73 -31.809,8.476 -34.373,9.954C-35.194,10.427 -36.615,9.858 -37.762,9.766C-37.771,9.647 -37.781,9.528 -37.79,9.41C-37.276,9.055 -36.771,8.685 -36.246,8.347C-33.55,6.607 -30.856,4.865 -28.144,3.152C-27.789,2.927 -27.333,2.742 -26.923,2.742C-23.346,2.739 -19.752,3.005 -16.196,2.748C-12.883,2.509 -9.583,1.849 -6.328,1.139C-4.428,0.725 -2.627,-0.148 -1.035,-0.723C1.071,1.388 3.096,3.417 4.99,5.315C3.456,6.664 1.756,8.159 0,9.704" style="fill:rgb(144,40,23);"/>
            </g>
            <g transform="matrix(1,0,0,1,281.517,247.089)">
                <path d="M0,4.555C2.552,3.019 5,1.305 8.323,1.876C10.419,2.236 12.559,2.205 14.393,0.822C16.253,-0.582 18.324,-0.129 20.347,0.157C21.547,0.327 22.714,0.727 23.896,1.023C23.924,1.136 23.952,1.249 23.979,1.362C23.566,1.651 23.188,2.019 22.734,2.216C19.474,3.624 16.058,4.531 12.529,4.799C9.563,5.025 6.574,4.936 3.596,5.001C2.913,5.016 2.229,5.137 1.548,5.123C1.034,5.113 0.523,4.967 0.011,4.881C0.007,4.772 0.003,4.663 0,4.555" style="fill:white;"/>
            </g>
            <g opacity="0.4">
                <g transform="matrix(1,0,0,1,285.29,280.011)">
                    <path d="M0,-9.555C2.408,-5.718 5.136,-2.307 9.388,-0.523C13.654,1.267 18.874,0.253 22.27,-2.966C22.972,-3.632 24.104,-4.634 24.036,-5.67C23.952,-6.946 22.925,-7.291 21.877,-6.821C20.872,-6.369 20.062,-5.033 19.153,-4.377C17.895,-3.468 16.211,-2.744 14.677,-2.499C12.126,-2.091 9.65,-3.083 7.772,-4.809C6.007,-6.432 4.224,-9.732 1.867,-10.527C0.994,-10.822 -0.232,-10.649 0,-9.411" style="fill:white;"/>
                </g>
            </g>
            <g transform="matrix(0.141715,-0.989907,-0.989907,-0.141715,297.658,274.639)">
                <path d="M-3.775,-3.274C-4.69,-3.275 -5.431,-1.567 -5.432,0.539C-5.431,2.646 -4.691,4.354 -3.775,4.354C-2.862,4.354 -2.121,2.646 -2.12,0.541C-2.121,-1.566 -2.861,-3.274 -3.775,-3.274" style="fill:white;"/>
            </g>
        </g>
    </g>
</svg>
