<?xml version="1.0" encoding="UTF-8" standalone="no"?>
<!DOCTYPE svg PUBLIC "-//W3C//DTD SVG 1.1//EN" "http://www.w3.org/Graphics/SVG/1.1/DTD/svg11.dtd">
<svg width="100%" height="100%" viewBox="0 0 78 54" version="1.1" xmlns="http://www.w3.org/2000/svg" xmlns:xlink="http://www.w3.org/1999/xlink" xml:space="preserve" xmlns:serif="http://www.serif.com/" style="fill-rule:evenodd;clip-rule:evenodd;stroke-linejoin:round;stroke-miterlimit:2;">
    <g transform="matrix(1,0,0,1,-219,-154)">
        <g id="i6" transform="matrix(1,0,0,1,-213.962,-251.132)">
            <g transform="matrix(1,0,0,1,483.323,415.432)">
                <path d="M0,32.993C-0.155,32.321 -0.276,31.74 -0.428,31.168C-0.508,30.862 -0.629,30.565 -0.753,30.273C-0.967,29.774 -1.4,29.928 -1.786,29.946C-2.19,29.967 -2.326,30.202 -2.323,30.576C-2.317,31.598 -2.321,32.622 -2.321,33.747C-1.485,33.475 -0.782,33.247 0,32.993M-31.408,-3.982C-31.472,-4.441 -31.503,-4.91 -31.607,-5.362C-31.76,-6.026 -32.283,-6.487 -32.949,-6.51C-33.61,-6.531 -34.404,-6.659 -34.718,-5.881C-34.979,-5.236 -35.068,-4.515 -35.179,-3.819C-35.243,-3.411 -34.979,-3.247 -34.585,-3.327C-33.545,-3.537 -32.506,-3.755 -31.408,-3.982M22.865,17.627C22.942,17.686 23.02,17.746 23.098,17.805C23.447,17.503 23.846,17.241 24.139,16.89C24.826,16.068 25.46,15.201 26.122,14.356C26.732,13.579 26.8,12.689 26.694,11.754C26.433,9.44 25.148,7.653 23.676,5.788C23.398,9.838 23.132,13.732 22.865,17.627M4.548,34.345C3.903,32.99 3.239,31.632 2.608,30.26C2.009,28.956 2.023,28.95 0.662,29.4C0.549,29.437 0.431,29.462 0.315,29.495C-0.021,29.589 -0.107,29.768 0.01,30.118C0.276,30.909 0.508,31.712 0.737,32.514C0.998,33.422 0.87,33.608 -0.03,33.86C-0.643,34.032 -1.236,34.268 -1.846,34.455C-2.206,34.566 -2.329,34.792 -2.364,35.155C-2.474,36.304 -2.623,37.448 -2.738,38.596C-2.751,38.728 -2.687,38.937 -2.587,39.001C-2.071,39.33 -0.991,39.044 -0.761,38.482C-0.248,37.234 0.677,36.387 1.816,35.751C2.713,35.25 3.644,34.807 4.548,34.345M-36.321,-6.185C-35.15,-6.889 -34.156,-7.189 -33.038,-7.201C-32.107,-7.212 -31.243,-6.579 -30.936,-5.57C-30.867,-5.345 -30.872,-5.098 -30.826,-4.864C-30.629,-3.842 -30.624,-3.839 -29.61,-3.829C-29.331,-3.826 -29.052,-3.82 -28.773,-3.832C-28.12,-3.861 -28.083,-3.89 -28.055,-4.502C-28.021,-5.218 -28.035,-5.937 -27.981,-6.651C-27.929,-7.372 -28.22,-7.93 -28.819,-8.247C-30.953,-9.378 -33.175,-9.849 -35.442,-8.685C-36.134,-8.33 -36.727,-7.747 -37.296,-7.197C-38.822,-5.722 -38.952,-3.833 -38.759,-1.876C-38.725,-1.532 -38.504,-1.403 -38.163,-1.598C-37.608,-1.912 -37.059,-2.237 -36.487,-2.519C-36.074,-2.722 -35.919,-3.013 -35.914,-3.463C-35.907,-4.016 -35.913,-4.591 -35.764,-5.114C-35.618,-5.619 -35.716,-5.935 -36.321,-6.185M-25.027,34.153C-25.229,34.153 -25.471,34.206 -25.677,34.142C-26.214,33.976 -26.692,34.111 -27.182,34.312C-27.624,34.495 -28.093,34.614 -28.528,34.809C-29.854,35.407 -30.883,36.292 -31.287,37.759C-31.489,38.49 -31.307,39.079 -30.727,39.575C-30.292,39.946 -29.814,40.132 -29.2,40.176C-29.2,39.81 -29.188,39.537 -29.203,39.266C-29.254,38.301 -28.687,37.622 -28.116,36.954C-28.044,36.87 -27.842,36.897 -27.7,36.873C-27.686,37.016 -27.613,37.188 -27.668,37.299C-27.844,37.654 -28.118,37.967 -28.262,38.333C-28.744,39.562 -28.773,40.654 -27.012,40.747C-26.973,40.749 -26.933,40.757 -26.893,40.759C-26.124,40.799 -25.733,40.881 -25.845,39.849C-25.912,39.228 -25.747,38.658 -25.357,38.173C-25.25,38.04 -25.04,37.989 -24.878,37.901C-24.864,38.07 -24.81,38.25 -24.845,38.409C-24.97,38.982 -25.183,39.542 -25.25,40.12C-25.298,40.526 -25.014,40.784 -24.558,40.717C-23.888,40.617 -23.209,40.551 -22.554,40.391C-21.965,40.248 -21.512,39.972 -21.385,39.236C-21.131,37.76 -20.211,36.73 -18.867,36.101C-17.898,35.648 -16.899,35.259 -15.836,34.807C-16.402,33.666 -16.989,32.5 -17.559,31.325C-17.799,30.831 -18.166,30.654 -18.711,30.677C-20.165,30.739 -21.55,30.364 -22.939,29.988C-24.499,29.566 -26.079,29.22 -27.926,28.774C-26.884,30.708 -25.971,32.402 -25.027,34.153M-40.758,16.093C-37.359,16.159 -36.509,15.677 -34.988,13.816C-33.524,12.027 -34.25,8.936 -35.947,7.621C-37.141,6.697 -38.56,6.498 -39.897,6.026C-40.487,5.818 -41.071,5.527 -41.68,5.454C-42.704,5.332 -43.751,5.264 -44.777,5.333C-46.783,5.466 -48.49,6.881 -49.012,8.843C-49.504,10.693 -49.099,12.269 -47.265,13.655C-45.088,15.3 -42.575,15.928 -40.758,16.093M-42.173,17.022C-42.115,17.218 -42.073,17.407 -42.006,17.587C-41.339,19.358 -40.135,20.73 -38.722,21.937C-38.062,22.502 -37.252,22.715 -36.394,22.775C-35.188,22.859 -34.129,22.372 -33.054,21.944C-31.612,21.371 -30.598,20.335 -29.866,18.997C-29.494,18.315 -29.498,18.314 -30.098,17.735C-30.213,17.625 -30.355,17.525 -30.425,17.389C-30.505,17.231 -30.518,17.04 -30.56,16.862C-30.382,16.867 -30.146,16.799 -30.037,16.888C-29.216,17.559 -28.315,17.651 -27.327,17.365C-27.187,17.324 -26.997,17.449 -26.83,17.497C-26.911,17.665 -26.949,17.891 -27.082,17.985C-27.265,18.115 -27.527,18.225 -27.741,18.203C-28.447,18.131 -28.757,18.527 -28.963,19.101C-29.003,19.213 -29.072,19.314 -29.132,19.418C-31,22.727 -34.706,24.218 -38.345,23.097C-38.703,22.987 -38.934,23.038 -39.213,23.255C-39.604,23.559 -40.025,23.651 -40.469,23.248C-40.334,23.137 -40.28,23.074 -40.212,23.04C-39.299,22.576 -39.286,22.566 -39.98,21.85C-41.307,20.484 -42.407,18.994 -42.834,17.086C-42.885,16.859 -43.109,16.594 -43.323,16.495C-43.828,16.264 -44.375,16.122 -44.904,15.942C-45.452,15.757 -46,15.57 -46.658,15.347C-46.563,15.722 -46.523,15.953 -46.444,16.171C-45.773,18.028 -44.756,19.675 -43.522,21.22C-40.511,24.991 -36.535,26.807 -31.796,27.075C-29.122,27.225 -26.772,26.104 -24.593,24.775C-22.728,23.637 -21.065,22.18 -19.47,20.651C-18.089,19.328 -17.61,17.731 -17.435,15.949C-17.369,15.292 -17.544,14.701 -17.84,14.112C-18.866,12.063 -20.467,10.617 -22.508,9.64C-26.031,7.956 -29.796,7.04 -33.6,6.279C-34.477,6.103 -35.391,6.116 -36.288,6.041C-36.038,6.437 -35.721,6.663 -35.414,6.901C-34.002,8.001 -33.336,9.46 -33.243,11.233C-33.146,13.093 -34.125,14.406 -35.356,15.604C-36.382,16.602 -37.63,17.043 -39.056,17.024C-40.047,17.012 -41.038,17.022 -42.173,17.022M-43.687,4.502C-43.26,4.569 -42.923,4.629 -42.585,4.676C-41.635,4.806 -40.608,4.753 -39.754,5.109C-38.764,5.521 -37.899,5.046 -36.99,5.119C-35.6,5.232 -34.19,5.313 -32.833,5.607C-30.574,6.097 -28.332,6.686 -26.114,7.34C-23.807,8.02 -21.537,8.878 -19.695,10.474C-17.674,12.226 -16.138,14.256 -16.741,17.212C-17.027,18.611 -17.508,19.857 -18.542,20.908C-19.979,22.367 -21.52,23.69 -23.21,24.837C-24.03,25.393 -24.9,25.886 -25.785,26.336C-26.621,26.763 -27.504,27.097 -28.587,27.566C-28.025,27.844 -27.665,28.108 -27.265,28.204C-24.779,28.799 -22.287,29.363 -19.792,29.915C-19.428,29.995 -19.019,30.07 -18.623,29.762C-18.776,29.442 -18.922,29.164 -19.045,28.876C-19.28,28.326 -19.511,27.773 -19.723,27.214C-19.756,27.127 -19.682,27 -19.657,26.892C-19.52,26.929 -19.354,26.931 -19.251,27.011C-19.132,27.103 -19.05,27.258 -18.98,27.399C-17.794,29.792 -16.133,31.926 -15.133,34.418C-14.942,34.893 -14.733,35.256 -14.152,35.319C-13.921,35.346 -13.713,35.581 -13.494,35.722C-14.206,35.89 -14.869,35.885 -15.532,35.891C-17.187,35.909 -18.507,36.721 -19.72,37.722C-20.039,37.985 -20.247,38.429 -20.409,38.828C-21.041,40.38 -20.607,41.252 -19.01,41.717C-18.837,41.767 -18.65,41.772 -18.406,41.807C-18.447,40.623 -17.885,39.811 -17.145,39.11C-16.977,38.951 -16.563,38.806 -16.434,38.897C-16.096,39.135 -16.429,39.362 -16.59,39.568C-16.812,39.851 -17.06,40.116 -17.25,40.418C-17.418,40.684 -17.566,40.979 -17.644,41.282C-17.783,41.833 -17.582,42.093 -17.009,42.176C-16.456,42.255 -15.9,42.325 -15.345,42.387C-14.482,42.482 -14.396,42.421 -14.353,41.544C-14.292,40.332 -13.75,39.328 -13.035,38.397C-12.962,38.302 -12.763,38.303 -12.621,38.259C-12.598,38.398 -12.512,38.566 -12.561,38.672C-12.727,39.033 -12.983,39.356 -13.127,39.724C-13.387,40.389 -13.64,41.063 -13.802,41.756C-13.915,42.24 -13.739,42.399 -13.216,42.403C-12.739,42.407 -12.259,42.367 -11.785,42.302C-11.034,42.2 -10.288,42.064 -9.541,41.936C-7.884,41.653 -6.26,41.254 -4.698,40.618C-4.229,40.427 -3.854,40.183 -3.771,39.631C-3.62,38.606 -3.354,37.589 -3.308,36.56C-3.183,33.811 -3.115,31.058 -3.092,28.306C-3.081,27.034 -3.238,25.76 -3.291,24.485C-3.305,24.164 -3.531,23.639 -3.068,23.567C-2.468,23.474 -2.58,24.064 -2.557,24.428C-2.464,25.82 -2.401,27.214 -2.319,28.606C-2.286,29.167 -2.162,29.318 -1.688,29.204C-0.682,28.96 0.312,28.656 1.308,28.366C1.677,28.259 1.815,28.014 1.681,27.633C1.575,27.332 1.471,27.028 1.395,26.72C0.997,25.095 0.604,23.47 0.222,21.842C0.122,21.42 0.142,21.009 0.527,20.634C0.624,20.8 0.71,20.889 0.731,20.993C1.555,24.95 2.713,28.795 4.528,32.423C5.03,33.426 5.527,34.428 6.847,34.639C4.912,34.812 3.279,35.597 1.755,36.682C0.734,37.408 0.038,38.347 -0.329,39.525C-0.596,40.384 -0.383,40.829 0.429,41.124C0.755,41.242 1.155,41.347 1.46,41.254C1.62,41.206 1.606,40.698 1.741,40.434C2.119,39.696 2.524,38.971 2.946,38.257C2.987,38.186 3.227,38.194 3.354,38.232C3.408,38.249 3.465,38.455 3.431,38.539C3.328,38.796 3.184,39.035 3.054,39.281C2.849,39.669 2.604,40.04 2.444,40.445C2.125,41.262 2.244,41.431 3.101,41.479C3.58,41.507 4.061,41.5 4.539,41.538C5.515,41.615 5.487,41.614 5.835,40.665C6.065,40.034 6.371,39.428 6.676,38.827C6.724,38.731 6.945,38.722 7.086,38.675C7.12,38.816 7.218,38.981 7.177,39.097C6.964,39.698 6.687,40.276 6.486,40.88C6.258,41.567 6.327,41.673 7.023,41.66C9.589,41.615 12.023,41.119 14.131,39.531C14.448,39.292 14.778,39.047 15.141,38.89C16.237,38.42 16.91,37.543 17.448,36.548C18.343,34.894 19.154,33.185 19.577,31.356C20.276,28.332 20.926,25.289 21.427,22.225C21.824,19.793 21.971,17.318 22.225,14.862C22.355,13.595 22.537,12.328 22.589,11.056C22.663,9.264 22.654,7.468 22.642,5.673C22.639,5.286 22.508,4.884 22.365,4.516C21.591,2.519 20.383,0.785 18.88,-0.711C17.896,-1.69 16.73,-2.488 15.645,-3.364C13.523,-5.073 11.1,-6.203 8.478,-6.845C3.141,-8.152 -2.279,-8.84 -7.787,-8.675C-9.744,-8.617 -11.716,-8.641 -13.65,-8.396C-15.942,-8.107 -18.208,-7.594 -20.473,-7.119C-21.248,-6.956 -22.006,-6.661 -22.736,-6.346C-24.057,-5.776 -25.354,-5.152 -26.652,-4.533C-26.922,-4.405 -27.157,-4.204 -27.54,-3.948C-27.034,-3.791 -26.703,-3.645 -26.358,-3.59C-25.05,-3.381 -23.79,-3.015 -22.57,-2.504C-21.983,-2.259 -21.397,-2.013 -20.812,-1.767C-20.39,-2.285 -19.967,-2.802 -19.547,-3.321C-18.446,-4.68 -16.979,-5.579 -15.328,-5.9C-13.058,-6.34 -11.039,-5.679 -9.3,-4.001C-7.584,-2.346 -7.358,-0.328 -7.747,1.733C-8.25,4.397 -9.998,6.261 -12.395,7.5C-12.708,7.662 -13.064,7.79 -13.411,7.82C-13.582,7.836 -13.775,7.594 -13.959,7.468C-13.842,7.324 -13.746,7.084 -13.604,7.052C-12.585,6.825 -11.795,6.202 -11.031,5.567C-9.235,4.075 -8.283,2.205 -8.512,-0.195C-8.62,-1.331 -8.78,-2.394 -9.702,-3.216C-10.57,-3.991 -11.4,-4.778 -12.591,-5.061C-13.963,-5.387 -15.23,-5.293 -16.533,-4.653C-18.187,-3.84 -19.387,-2.668 -20.135,-1.007C-20.346,-0.538 -20.559,-0.474 -21.065,-0.842C-22.155,-1.636 -23.432,-1.979 -24.68,-2.393C-26.64,-3.043 -28.66,-3.12 -30.711,-3.119C-33.159,-3.118 -35.37,-2.401 -37.38,-1.106C-38.115,-0.632 -38.866,-0.129 -39.546,0.413C-40.913,1.505 -42.13,2.785 -43.4,3.996C-43.506,4.097 -43.553,4.259 -43.687,4.502M-26.295,33.414C-26.892,32.272 -27.428,31.252 -27.958,30.228C-28.123,29.91 -28.34,29.599 -28.422,29.259C-28.69,28.142 -29.544,27.901 -30.5,27.825C-31.017,27.783 -31.541,27.843 -32.06,27.815C-36.862,27.564 -40.848,25.675 -43.903,21.921C-44.889,20.71 -45.865,19.493 -46.453,18.029C-46.779,17.217 -47.106,16.397 -47.325,15.554C-47.482,14.947 -47.72,14.465 -48.206,14.054C-51.638,11.149 -50.054,6.061 -46.184,4.895C-45.109,4.572 -44.364,4.081 -43.638,3.214C-42.543,1.909 -41.196,0.81 -39.915,-0.329C-39.549,-0.655 -39.41,-0.9 -39.465,-1.422C-39.573,-2.448 -39.624,-3.507 -39.483,-4.523C-39.373,-5.326 -39.074,-6.175 -38.624,-6.845C-37.698,-8.221 -36.496,-9.383 -34.832,-9.813C-32.617,-10.384 -30.458,-10.102 -28.48,-8.929C-27.655,-8.441 -27.148,-7.686 -27.271,-6.63C-27.326,-6.163 -27.281,-5.685 -27.281,-5.083C-26.986,-5.186 -26.742,-5.256 -26.511,-5.356C-26.07,-5.544 -25.616,-5.716 -25.204,-5.956C-22.746,-7.385 -20.035,-8.005 -17.286,-8.591C-12.946,-9.516 -8.554,-9.65 -4.166,-9.476C0.628,-9.285 5.377,-8.551 10.015,-7.293C12.221,-6.695 14.259,-5.656 16.074,-4.231C16.451,-3.936 16.849,-3.665 17.24,-3.389C19.289,-1.937 20.956,-0.17 22.149,2.075C22.817,3.332 23.735,4.46 24.563,5.631C25.734,7.291 27.015,8.882 27.329,10.995C27.553,12.501 27.532,13.896 26.537,15.195C25.491,16.559 24.564,18.008 22.983,18.856C22.794,18.959 22.665,19.29 22.623,19.535C22.122,22.438 21.682,25.353 21.148,28.251C20.664,30.886 19.909,33.449 18.71,35.858C18.321,36.639 17.82,37.366 17.368,38.116C17.005,38.718 16.467,39.114 15.85,39.433C15.426,39.653 15.008,39.896 14.623,40.179C12.516,41.725 10.134,42.427 7.547,42.394C5.432,42.367 3.316,42.252 1.204,42.136C0.779,42.112 0.35,41.942 -0.051,41.774C-0.658,41.52 -1.184,41.17 -1.205,40.399C-1.221,39.839 -1.659,39.803 -2.065,39.799C-2.438,39.795 -2.93,39.629 -3.046,40.199C-3.188,40.901 -3.736,41.122 -4.294,41.36C-6.07,42.119 -7.942,42.516 -9.835,42.835C-11.891,43.181 -13.959,43.377 -16.036,43.106C-17.141,42.964 -18.239,42.745 -19.324,42.492C-20.107,42.308 -20.828,41.971 -21.313,41.254C-21.41,41.111 -21.711,41.015 -21.898,41.04C-23.122,41.204 -24.335,41.498 -25.563,41.575C-27.386,41.689 -29.122,41.21 -30.783,40.478C-30.993,40.386 -31.16,40.188 -31.334,40.025C-32.087,39.322 -32.234,38.483 -31.943,37.512C-31.456,35.891 -30.331,34.886 -28.825,34.265C-28.055,33.948 -27.244,33.729 -26.295,33.414" style="fill:rgb(35,31,32);fill-rule:nonzero;"/>
            </g>
            <g transform="matrix(1,0,0,1,448.771,447.298)">
                <path d="M0,-30.09C0.042,-30.524 -0.308,-30.838 -0.609,-30.661C-1.065,-30.394 -1.464,-30.014 -1.849,-29.642C-2.059,-29.44 -2.121,-29.106 -1.847,-28.921C-1.646,-28.786 -1.298,-28.685 -1.099,-28.768C-0.481,-29.023 -0.219,-29.611 0,-30.09M3.466,-29.171C3.402,-29.308 3.353,-29.65 3.166,-29.757C2.98,-29.864 2.61,-29.818 2.406,-29.696C1.875,-29.381 1.55,-28.875 1.379,-28.278C1.281,-27.936 1.364,-27.637 1.66,-27.436C1.968,-27.226 2.265,-27.321 2.54,-27.531C3.041,-27.911 3.327,-28.417 3.466,-29.171M20.795,-34.413C20.695,-34.302 20.655,-34.212 20.591,-34.19C19.215,-33.709 18.103,-32.942 17.569,-31.512C17.456,-31.208 17.224,-31.103 16.898,-31.175C16.707,-31.218 16.5,-31.261 16.312,-31.232C16.179,-31.211 16.063,-31.069 15.94,-30.981C16.044,-30.882 16.134,-30.716 16.251,-30.694C17.378,-30.49 18.044,-29.714 18.613,-28.825C18.936,-28.322 19.201,-27.784 19.521,-27.281C19.858,-26.749 20.206,-26.664 20.712,-27.037C21.521,-27.634 22.272,-28.302 22.494,-29.35C22.683,-30.242 22.89,-31.138 22.99,-32.043C23.138,-33.376 22.112,-34.861 20.836,-35.283C20.321,-35.454 19.849,-35.46 19.422,-34.91C19.937,-34.724 20.362,-34.57 20.795,-34.413M-9.135,-27.364C-9.001,-27.608 -8.954,-27.77 -8.849,-27.87C-7.578,-29.081 -6.361,-30.361 -4.994,-31.453C-4.314,-31.995 -3.563,-32.498 -2.828,-32.972C-0.818,-34.267 1.393,-34.985 3.841,-34.986C5.892,-34.986 7.912,-34.909 9.872,-34.259C11.12,-33.845 12.396,-33.502 13.486,-32.708C13.993,-32.34 14.206,-32.404 14.417,-32.873C15.165,-34.534 16.365,-35.706 18.019,-36.519C19.321,-37.159 20.589,-37.253 21.961,-36.927C23.151,-36.644 23.981,-35.858 24.85,-35.082C25.771,-34.26 25.932,-33.197 26.04,-32.062C26.269,-29.661 25.316,-27.791 23.521,-26.299C22.757,-25.664 21.967,-25.041 20.948,-24.815C20.806,-24.782 20.71,-24.542 20.593,-24.399C20.776,-24.273 20.97,-24.03 21.141,-24.046C21.487,-24.076 21.844,-24.204 22.157,-24.366C24.554,-25.606 26.302,-27.469 26.805,-30.133C27.193,-32.194 26.968,-34.212 25.252,-35.867C23.513,-37.545 21.494,-38.206 19.224,-37.766C17.573,-37.445 16.105,-36.546 15.005,-35.188C14.585,-34.668 14.162,-34.152 13.74,-33.633C13.154,-33.879 12.568,-34.125 11.981,-34.37C10.762,-34.881 9.502,-35.247 8.193,-35.456C7.849,-35.511 7.518,-35.657 7.012,-35.815C7.395,-36.07 7.63,-36.272 7.899,-36.4C9.198,-37.018 10.495,-37.642 11.815,-38.212C12.546,-38.528 13.304,-38.822 14.079,-38.986C16.344,-39.46 18.609,-39.973 20.901,-40.262C22.836,-40.507 24.808,-40.484 26.765,-40.541C32.272,-40.706 37.692,-40.018 43.029,-38.711C45.651,-38.069 48.075,-36.94 50.196,-35.231C51.282,-34.355 52.448,-33.556 53.432,-32.577C54.935,-31.081 56.143,-29.347 56.917,-27.35C57.06,-26.983 57.19,-26.58 57.193,-26.194C57.206,-24.399 57.215,-22.602 57.141,-20.81C57.089,-19.538 56.907,-18.272 56.776,-17.004C56.522,-14.548 56.376,-12.073 55.979,-9.641C55.478,-6.577 54.828,-3.534 54.129,-0.51C53.706,1.319 52.895,3.028 52,4.681C51.462,5.677 50.789,6.554 49.692,7.024C49.33,7.181 49,7.426 48.683,7.665C46.575,9.253 44.141,9.749 41.575,9.794C40.879,9.806 40.81,9.701 41.038,9.014C41.239,8.41 41.516,7.832 41.729,7.231C41.77,7.115 41.672,6.95 41.638,6.808C41.497,6.856 41.275,6.865 41.228,6.961C40.923,7.561 40.617,8.168 40.387,8.799C40.039,9.748 40.066,9.749 39.091,9.672C38.612,9.634 38.132,9.64 37.652,9.613C36.796,9.564 36.677,9.395 36.996,8.579C37.155,8.174 37.4,7.803 37.605,7.415C37.735,7.169 37.88,6.93 37.982,6.673C38.017,6.589 37.96,6.383 37.905,6.366C37.778,6.328 37.539,6.32 37.498,6.39C37.076,7.104 36.671,7.83 36.293,8.568C36.158,8.832 36.172,9.34 36.012,9.388C35.707,9.48 35.307,9.376 34.98,9.258C34.169,8.963 33.956,8.517 34.223,7.659C34.59,6.48 35.286,5.542 36.307,4.816C37.831,3.731 39.464,2.946 41.398,2.772C40.079,2.561 39.582,1.559 39.08,0.556C37.265,-3.071 36.106,-6.916 35.283,-10.873C35.262,-10.977 35.176,-11.067 35.079,-11.233C34.693,-10.858 34.674,-10.446 34.773,-10.025C35.156,-8.397 35.549,-6.772 35.946,-5.147C36.022,-4.838 36.127,-4.534 36.232,-4.234C36.367,-3.852 36.229,-3.608 35.859,-3.5C34.863,-3.21 33.87,-2.906 32.863,-2.662C32.39,-2.548 32.266,-2.699 32.232,-3.26C32.15,-4.653 32.088,-6.046 31.995,-7.439C31.972,-7.802 32.084,-8.392 31.483,-8.299C31.021,-8.227 31.247,-7.702 31.261,-7.381C31.313,-6.107 31.471,-4.832 31.46,-3.56C31.437,-0.808 31.369,1.945 31.244,4.694C31.197,5.723 30.932,6.74 30.78,7.764C30.698,8.317 30.323,8.56 29.854,8.752C28.292,9.388 26.668,9.787 25.011,10.07C24.264,10.198 23.518,10.334 22.767,10.435C22.293,10.501 21.812,10.541 21.336,10.537C20.812,10.533 20.637,10.374 20.75,9.889C20.912,9.197 21.165,8.522 21.425,7.858C21.568,7.49 21.825,7.167 21.991,6.806C22.04,6.7 21.954,6.532 21.931,6.392C21.789,6.436 21.59,6.435 21.517,6.531C20.802,7.462 20.26,8.466 20.199,9.678C20.155,10.555 20.069,10.616 19.207,10.52C18.651,10.459 18.096,10.389 17.543,10.309C16.97,10.226 16.769,9.967 16.908,9.416C16.985,9.113 17.134,8.818 17.302,8.552C17.492,8.25 17.74,7.985 17.962,7.702C18.123,7.496 18.456,7.268 18.118,7.031C17.988,6.94 17.575,7.085 17.407,7.244C16.667,7.945 16.104,8.757 16.146,9.941C15.901,9.906 15.715,9.901 15.542,9.85C13.944,9.386 13.511,8.514 14.143,6.962C14.305,6.562 14.513,6.119 14.832,5.855C16.045,4.854 17.365,4.043 19.02,4.025C19.683,4.018 20.346,4.024 21.058,3.855C20.839,3.715 20.631,3.479 20.399,3.453C19.818,3.389 19.609,3.027 19.419,2.552C18.419,0.059 16.758,-2.074 15.571,-4.467C15.502,-4.609 15.42,-4.763 15.301,-4.856C15.197,-4.936 15.032,-4.938 14.895,-4.974C14.87,-4.866 14.796,-4.739 14.829,-4.653C15.041,-4.093 15.271,-3.54 15.507,-2.99C15.63,-2.702 15.775,-2.424 15.929,-2.105C15.533,-1.796 15.124,-1.871 14.76,-1.951C12.265,-2.503 9.772,-3.068 7.287,-3.662C6.887,-3.758 6.526,-4.023 5.965,-4.3C7.048,-4.77 7.931,-5.104 8.767,-5.53C9.651,-5.981 10.521,-6.473 11.342,-7.029C13.032,-8.176 14.573,-9.499 16.01,-10.958C17.044,-12.009 17.524,-13.255 17.811,-14.654C18.414,-17.611 16.878,-19.64 14.856,-21.392C13.015,-22.988 10.745,-23.846 8.438,-24.527C6.22,-25.18 3.978,-25.77 1.719,-26.259C0.361,-26.553 -1.048,-26.634 -2.438,-26.747C-3.348,-26.82 -4.212,-26.345 -5.202,-26.757C-6.057,-27.113 -7.083,-27.06 -8.033,-27.191C-8.371,-27.237 -8.708,-27.297 -9.135,-27.364" style="fill:rgb(197,129,77);fill-rule:nonzero;"/>
            </g>
            <g opacity="0.2">
                <g transform="matrix(1,0,0,1,485.003,450.433)">
                    <path d="M0,-7.368C-0.105,-7.669 -0.21,-7.972 -0.286,-8.281C-0.684,-9.906 -1.076,-11.531 -1.459,-13.159C-1.493,-13.304 -1.504,-13.446 -1.5,-13.588C-2.147,-13.799 -2.887,-13.778 -3.539,-13.695C-4.548,-13.567 -5.574,-13.241 -6.436,-12.693C-7.02,-12.322 -7.604,-11.808 -7.725,-11.093C-7.797,-10.669 -7.693,-10.213 -7.6,-9.801C-7.484,-9.299 -7.334,-8.806 -7.185,-8.313C-6.429,-5.817 -6.268,-3.102 -6.33,-0.507C-6.379,1.537 -6.714,3.649 -7.903,5.364C-8.184,5.768 -8.504,6.122 -8.855,6.431C-8.017,6.211 -7.188,5.947 -6.379,5.617C-5.908,5.426 -5.534,5.183 -5.452,4.63C-5.301,3.606 -5.035,2.588 -4.988,1.56C-4.863,-1.189 -4.796,-3.942 -4.772,-6.694C-4.762,-7.967 -4.919,-9.24 -4.972,-10.515C-4.985,-10.837 -5.212,-11.361 -4.75,-11.433C-4.148,-11.527 -4.261,-10.936 -4.237,-10.573C-4.145,-9.18 -4.082,-7.787 -4,-6.394C-3.967,-5.834 -3.843,-5.682 -3.369,-5.797C-2.362,-6.041 -1.369,-6.345 -0.373,-6.635C-0.004,-6.742 0.135,-6.986 0,-7.368" style="fill:rgb(59,35,20);fill-rule:nonzero;"/>
                </g>
            </g>
            <g opacity="0.2">
                <g transform="matrix(1,0,0,1,470.928,412.538)">
                    <path d="M0,10.394C-0.062,10.425 -0.13,10.447 -0.194,10.476C1.2,10.999 2.785,11.099 4.212,10.698C5.585,10.311 6.815,9.42 7.415,8.096C7.939,6.94 7.852,5.586 7.546,4.384C7.21,3.068 6.574,1.797 5.673,0.776C5.087,0.112 4.325,-0.486 3.458,-0.705C4.826,0.871 5.006,2.729 4.647,4.627C4.145,7.291 2.396,9.155 0,10.394" style="fill:rgb(59,35,20);fill-rule:nonzero;"/>
                </g>
            </g>
            <g opacity="0.2">
                <g transform="matrix(1,0,0,1,460.632,410.859)">
                    <path d="M0,-0.125C0.11,-0.656 -0.125,-1.147 -0.484,-1.574C-1.653,-1.058 -2.809,-0.51 -3.962,0.04C-4.231,0.168 -4.467,0.369 -4.85,0.625C-4.344,0.782 -4.013,0.929 -3.668,0.983C-2.975,1.095 -2.296,1.252 -1.629,1.449C-1.615,1.394 -1.578,1.343 -1.509,1.312C-0.896,1.03 -0.15,0.594 0,-0.125" style="fill:rgb(59,35,20);fill-rule:nonzero;"/>
                </g>
            </g>
            <g opacity="0.2">
                <g transform="matrix(1,0,0,1,505.964,445.614)">
                    <path d="M0,-24.509C-0.003,-24.896 -0.134,-25.298 -0.276,-25.665C-1.051,-27.662 -2.259,-29.397 -3.762,-30.893C-4.745,-31.871 -5.911,-32.67 -6.997,-33.546C-8.2,-34.515 -9.51,-35.28 -10.888,-35.893C-9.885,-35.001 -8.982,-33.999 -8.229,-32.866C-7.295,-31.458 -6.61,-29.902 -6.176,-28.269C-5.653,-26.31 -5.551,-24.314 -5.527,-22.296C-5.465,-16.859 -5.794,-11.428 -6.058,-6C-6.172,-3.641 -6.119,-1.24 -6.474,1.099C-6.781,3.127 -7.486,5.032 -8.734,6.669C-9.735,7.981 -10.867,9.243 -12.173,10.26C-12.72,10.686 -13.379,11.128 -14.076,11.384C-12.08,11.18 -10.19,10.615 -8.511,9.349C-8.193,9.11 -7.863,8.865 -7.501,8.709C-6.404,8.238 -5.731,7.361 -5.193,6.366C-4.299,4.713 -3.487,3.004 -3.064,1.175C-2.365,-1.851 -1.716,-4.893 -1.215,-7.956C-0.816,-10.389 -0.671,-12.863 -0.417,-15.32C-0.286,-16.587 -0.104,-17.854 -0.053,-19.125C0.021,-20.917 0.013,-22.714 0,-24.509" style="fill:rgb(59,35,20);fill-rule:nonzero;"/>
                </g>
            </g>
            <g opacity="0.2">
                <g transform="matrix(1,0,0,1,464.7,432.102)">
                    <path d="M0,13.092C-0.153,12.773 -0.299,12.494 -0.422,12.206C-0.657,11.656 -0.888,11.104 -1.1,10.544C-1.133,10.457 -1.059,10.33 -1.034,10.223C-1.001,10.232 -0.964,10.238 -0.928,10.243C-1.01,9.967 -1.039,9.667 -0.985,9.344C-0.84,8.463 -0.42,7.637 -0.025,6.846C0.458,5.874 0.976,4.919 1.407,3.922C1.975,2.608 2.465,1.018 1.984,-0.309C1.966,-0.032 1.941,0.247 1.882,0.542C1.596,1.942 1.115,3.188 0.081,4.238C-1.355,5.697 -2.897,7.021 -4.587,8.167C-5.407,8.724 -6.277,9.216 -7.162,9.666C-7.998,10.093 -8.881,10.427 -9.964,10.897C-9.402,11.174 -9.042,11.439 -8.642,11.534C-6.156,12.129 -3.664,12.694 -1.169,13.245C-0.805,13.325 -0.396,13.401 0,13.092" style="fill:rgb(59,35,20);fill-rule:nonzero;"/>
                </g>
            </g>
            <g transform="matrix(1,0,0,1,441.15,431.677)">
                <path d="M0,0.778C1.135,0.778 2.126,0.767 3.117,0.78C4.543,0.799 5.791,0.358 6.816,-0.64C8.048,-1.838 9.026,-3.152 8.93,-5.011C8.837,-6.784 8.171,-8.243 6.759,-9.343C6.452,-9.581 6.135,-9.807 5.885,-10.203C6.782,-10.128 7.696,-10.141 8.573,-9.965C12.377,-9.204 16.142,-8.288 19.665,-6.604C21.706,-5.627 23.307,-4.181 24.333,-2.132C24.629,-1.543 24.804,-0.952 24.738,-0.295C24.562,1.487 24.084,3.084 22.703,4.407C21.107,5.936 19.445,7.392 17.58,8.531C15.4,9.86 13.051,10.981 10.377,10.831C5.638,10.563 1.662,8.747 -1.35,4.975C-2.583,3.43 -3.601,1.784 -4.271,-0.074C-4.351,-0.291 -4.39,-0.523 -4.485,-0.898C-3.827,-0.674 -3.279,-0.488 -2.731,-0.302C-2.202,-0.122 -1.655,0.019 -1.15,0.251C-0.937,0.349 -0.712,0.615 -0.661,0.841C-0.234,2.75 0.866,4.24 2.192,5.606C2.887,6.322 2.874,6.332 1.961,6.796C1.893,6.83 1.839,6.892 1.704,7.004C2.147,7.407 2.568,7.315 2.96,7.01C3.239,6.794 3.47,6.743 3.828,6.853C7.467,7.973 11.173,6.483 13.041,3.174C13.101,3.07 13.17,2.968 13.21,2.857C13.416,2.283 13.726,1.886 14.432,1.959C14.646,1.981 14.908,1.871 15.091,1.741C15.224,1.647 15.262,1.421 15.343,1.253C15.176,1.205 14.986,1.08 14.846,1.121C13.857,1.407 12.957,1.315 12.136,0.643C12.027,0.554 11.791,0.623 11.613,0.618C11.655,0.796 11.668,0.987 11.748,1.145C11.817,1.281 11.96,1.381 12.075,1.491C12.675,2.07 12.679,2.071 12.307,2.753C11.575,4.091 10.561,5.127 9.119,5.7C8.044,6.128 6.985,6.615 5.779,6.531C4.921,6.47 4.111,6.257 3.451,5.693C2.038,4.486 0.834,3.114 0.167,1.342C0.1,1.163 0.058,0.973 0,0.778" style="fill:rgb(239,185,122);fill-rule:nonzero;"/>
            </g>
            <g transform="matrix(1,0,0,1,442.565,420.763)">
                <path d="M0,10.762C-1.817,10.597 -4.33,9.969 -6.507,8.324C-8.341,6.939 -8.746,5.363 -8.254,3.512C-7.732,1.55 -6.025,0.135 -4.02,0.002C-2.993,-0.066 -1.946,0.001 -0.922,0.123C-0.313,0.197 0.271,0.488 0.86,0.696C2.198,1.167 3.617,1.366 4.811,2.29C6.508,3.606 7.233,6.697 5.77,8.486C4.249,10.346 3.398,10.828 0,10.762" style="fill:rgb(89,74,66);fill-rule:nonzero;"/>
            </g>
            <g transform="matrix(1,0,0,1,458.295,450.934)">
                <path d="M0,-1.349C-0.943,-3.1 -1.856,-4.794 -2.898,-6.728C-1.052,-6.283 0.528,-5.936 2.088,-5.514C3.478,-5.138 4.862,-4.763 6.316,-4.826C6.861,-4.848 7.229,-4.671 7.469,-4.177C8.038,-3.002 8.625,-1.836 9.191,-0.695C8.128,-0.244 7.129,0.146 6.16,0.599C4.816,1.228 3.896,2.257 3.643,3.734C3.516,4.469 3.063,4.746 2.474,4.889C1.818,5.048 1.14,5.115 0.47,5.214C0.014,5.282 -0.271,5.024 -0.223,4.618C-0.155,4.04 0.058,3.48 0.183,2.907C0.218,2.748 0.163,2.568 0.149,2.399C-0.013,2.487 -0.223,2.538 -0.33,2.671C-0.72,3.156 -0.885,3.726 -0.817,4.347C-0.706,5.379 -1.097,5.297 -1.865,5.256C-1.905,5.255 -1.945,5.247 -1.984,5.245C-3.746,5.152 -3.717,4.06 -3.234,2.831C-3.091,2.464 -2.816,2.152 -2.641,1.797C-2.586,1.686 -2.658,1.514 -2.673,1.371C-2.814,1.395 -3.017,1.368 -3.089,1.452C-3.66,2.12 -4.227,2.798 -4.176,3.764C-4.161,4.035 -4.173,4.308 -4.173,4.673C-4.787,4.63 -5.265,4.444 -5.699,4.073C-6.279,3.577 -6.462,2.988 -6.26,2.256C-5.855,0.79 -4.827,-0.095 -3.501,-0.693C-3.065,-0.888 -2.597,-1.007 -2.154,-1.19C-1.665,-1.391 -1.187,-1.526 -0.649,-1.36C-0.443,-1.296 -0.201,-1.349 0,-1.349" style="fill:rgb(165,109,63);fill-rule:nonzero;"/>
            </g>
            <g transform="matrix(1,0,0,1,447.001,410.365)">
                <path d="M0,-1.117C0.605,-0.867 0.703,-0.552 0.558,-0.047C0.408,0.477 0.414,1.052 0.407,1.605C0.402,2.055 0.247,2.346 -0.166,2.549C-0.737,2.83 -1.287,3.155 -1.842,3.47C-2.183,3.664 -2.403,3.535 -2.438,3.192C-2.631,1.235 -2.501,-0.654 -0.975,-2.13C-0.405,-2.679 0.187,-3.263 0.879,-3.617C3.146,-4.781 5.368,-4.31 7.502,-3.18C8.102,-2.862 8.393,-2.304 8.34,-1.583C8.286,-0.869 8.3,-0.15 8.267,0.566C8.238,1.178 8.201,1.206 7.548,1.236C7.27,1.248 6.99,1.241 6.711,1.238C5.697,1.229 5.692,1.226 5.495,0.203C5.449,-0.03 5.454,-0.277 5.386,-0.503C5.078,-1.512 4.214,-2.144 3.283,-2.134C2.165,-2.121 1.171,-1.821 0,-1.117" style="fill:rgb(165,109,63);fill-rule:nonzero;"/>
            </g>
            <g transform="matrix(1,0,0,1,487.87,449.367)">
                <path d="M0,0.41C-0.904,0.873 -1.835,1.315 -2.731,1.816C-3.871,2.452 -4.796,3.3 -5.309,4.548C-5.539,5.109 -6.619,5.395 -7.135,5.066C-7.234,5.003 -7.299,4.794 -7.286,4.661C-7.171,3.514 -7.021,2.369 -6.912,1.221C-6.877,0.857 -6.754,0.632 -6.394,0.52C-5.784,0.334 -5.19,0.098 -4.578,-0.074C-3.678,-0.326 -3.55,-0.513 -3.811,-1.421C-4.04,-2.223 -4.271,-3.026 -4.538,-3.817C-4.655,-4.166 -4.568,-4.346 -4.232,-4.44C-4.117,-4.473 -3.999,-4.497 -3.886,-4.534C-2.524,-4.985 -2.539,-4.979 -1.939,-3.675C-1.309,-2.303 -0.645,-0.944 0,0.41" style="fill:rgb(165,109,63);fill-rule:nonzero;"/>
            </g>
            <g transform="matrix(1,0,0,1,506.188,421.399)">
                <path d="M0,11.66C0.267,7.765 0.533,3.871 0.811,-0.179C2.283,1.686 3.567,3.473 3.829,5.787C3.935,6.723 3.867,7.612 3.257,8.389C2.595,9.234 1.961,10.101 1.273,10.924C0.98,11.274 0.582,11.536 0.232,11.839C0.154,11.779 0.077,11.72 0,11.66" style="fill:rgb(197,129,77);fill-rule:nonzero;"/>
            </g>
            <g transform="matrix(1,0,0,1,451.914,409.507)">
                <path d="M0,1.944C-1.098,2.171 -2.137,2.388 -3.177,2.598C-3.57,2.678 -3.835,2.514 -3.771,2.107C-3.66,1.411 -3.57,0.69 -3.31,0.045C-2.996,-0.734 -2.202,-0.606 -1.541,-0.584C-0.875,-0.562 -0.352,-0.1 -0.199,0.563C-0.095,1.015 -0.063,1.485 0,1.944" style="fill:rgb(230,187,145);fill-rule:nonzero;"/>
            </g>
            <g transform="matrix(1,0,0,1,469.029,413.045)">
                <path d="M0,6.382C0.087,6.361 0.172,6.36 0.229,6.32C0.952,5.83 1.388,5.163 1.562,4.299C1.752,3.367 2.006,2.447 1.883,1.486C1.809,0.903 1.535,0.629 1.046,0.723C-0.307,0.984 -1.419,1.609 -1.946,2.966C-2.036,3.196 -2.079,3.562 -1.958,3.738C-1.338,4.644 -0.656,5.508 0,6.382M0.537,-0.16C0.104,-0.317 -0.32,-0.471 -0.836,-0.657C-0.409,-1.207 0.063,-1.201 0.578,-1.03C1.854,-0.608 2.88,0.877 2.732,2.21C2.632,3.115 2.425,4.011 2.236,4.903C2.015,5.951 1.263,6.619 0.454,7.216C-0.052,7.589 -0.399,7.504 -0.737,6.972C-1.057,6.469 -1.322,5.931 -1.645,5.428C-2.214,4.539 -2.88,3.763 -4.007,3.559C-4.124,3.537 -4.214,3.371 -4.317,3.273C-4.194,3.185 -4.079,3.042 -3.946,3.022C-3.758,2.992 -3.551,3.035 -3.359,3.078C-3.034,3.151 -2.802,3.045 -2.688,2.741C-2.155,1.312 -1.043,0.544 0.333,0.064C0.397,0.041 0.437,-0.049 0.537,-0.16" style="fill:rgb(35,31,32);fill-rule:nonzero;"/>
            </g>
            <g transform="matrix(1,0,0,1,452.237,419.379)">
                <path d="M0,-1.252C-0.139,-0.498 -0.425,0.008 -0.926,0.388C-1.201,0.598 -1.498,0.693 -1.806,0.483C-2.102,0.282 -2.185,-0.017 -2.087,-0.359C-1.916,-0.956 -1.591,-1.462 -1.06,-1.777C-0.855,-1.898 -0.485,-1.945 -0.3,-1.838C-0.113,-1.731 -0.063,-1.389 0,-1.252" style="fill:rgb(35,31,32);fill-rule:nonzero;"/>
            </g>
            <g transform="matrix(1,0,0,1,448.771,417.865)">
                <path d="M0,-0.657C-0.219,-0.178 -0.481,0.41 -1.099,0.665C-1.298,0.748 -1.646,0.647 -1.847,0.512C-2.121,0.327 -2.059,-0.007 -1.849,-0.209C-1.464,-0.581 -1.065,-0.961 -0.609,-1.228C-0.308,-1.405 0.042,-1.091 0,-0.657" style="fill:rgb(35,31,32);fill-rule:nonzero;"/>
            </g>
            <g transform="matrix(1,0,0,1,469.029,413.674)">
                <path d="M0,5.753C-0.656,4.879 -1.338,4.015 -1.958,3.109C-2.079,2.933 -2.036,2.567 -1.946,2.337C-1.419,0.98 -0.307,0.355 1.046,0.094C1.535,0 1.809,0.274 1.883,0.857C2.006,1.818 1.752,2.738 1.562,3.67C1.388,4.534 0.952,5.201 0.229,5.691C0.172,5.731 0.087,5.732 0,5.753" style="fill:rgb(230,187,145);fill-rule:nonzero;"/>
            </g>
            <g transform="matrix(1,0,0,1,440.818,426.355)">
                <path d="M0,-3.929C-0.932,-4.173 -1.932,-4.368 -2.845,-4.061C-3.758,-3.753 -4.51,-2.768 -4.229,-1.846C-4.033,-1.201 -3.418,-0.783 -2.813,-0.488C-1.923,-0.053 -0.959,0.229 0.023,0.343C0.839,0.439 1.766,0.379 2.327,-0.221C2.765,-0.688 2.871,-1.407 2.686,-2.02C2.501,-2.632 2.059,-3.144 1.537,-3.516C0.879,-3.986 0.081,-4.257 -0.728,-4.284" style="fill:white;fill-rule:nonzero;"/>
            </g>
        </g>
    </g>
</svg>
