<?xml version="1.0" encoding="UTF-8" standalone="no"?>
<!DOCTYPE svg PUBLIC "-//W3C//DTD SVG 1.1//EN" "http://www.w3.org/Graphics/SVG/1.1/DTD/svg11.dtd">
<svg width="100%" height="100%" viewBox="0 0 58 49" version="1.1" xmlns="http://www.w3.org/2000/svg" xmlns:xlink="http://www.w3.org/1999/xlink" xml:space="preserve" xmlns:serif="http://www.serif.com/" style="fill-rule:evenodd;clip-rule:evenodd;stroke-linejoin:round;stroke-miterlimit:2;">
    <g transform="matrix(1,0,0,1,-31,-223)">
        <g id="i7" transform="matrix(1,0,0,1,-60.7051,-431.213)">
            <g transform="matrix(1,0,0,1,133.786,701.371)">
                <path d="M0,-44.683C0.156,-45.157 0.269,-45.503 0.383,-45.849C0.026,-45.582 -0.145,-45.254 0,-44.683M0.418,-15.86C0.312,-15.545 0.049,-15.362 0.258,-15C0.528,-15.145 0.774,-15.276 1.096,-15.448C0.836,-15.606 0.667,-15.709 0.418,-15.86M2.75,-17.924C2.9,-18.108 3.03,-18.268 3.18,-18.453C2.909,-18.669 2.71,-18.866 2.415,-18.686C2.331,-18.635 2.241,-18.515 2.238,-18.424C2.226,-18.1 2.52,-18.077 2.75,-17.924M1.763,-18.029C1.657,-17.82 1.567,-17.641 1.456,-17.423C1.732,-17.266 1.933,-17.152 2.156,-17.026C2.294,-17.271 2.398,-17.457 2.518,-17.672C2.258,-17.795 2.04,-17.898 1.763,-18.029M-7.599,-30.652C-7.844,-31.458 -8.242,-31.625 -9.022,-31.339C-8.512,-31.093 -8.056,-30.873 -7.599,-30.652M0.592,-16.196C0.9,-15.995 1.099,-15.866 1.333,-15.713C1.529,-16.081 1.705,-16.409 1.898,-16.77C1.608,-16.922 1.373,-17.045 1.061,-17.209C0.898,-16.857 0.754,-16.544 0.592,-16.196M1.522,-45.967C0.985,-45.893 0.862,-45.838 0.755,-45.51C0.607,-45.059 0.281,-44.586 0.791,-44.15C1.707,-44.394 1.918,-44.9 1.522,-45.967M6.508,-21.922C5.127,-21.137 3.875,-20.321 2.83,-19.157C3.055,-18.983 3.231,-18.847 3.42,-18.702C3.613,-18.864 3.794,-19 3.955,-19.156C4.606,-19.788 5.248,-20.433 6.109,-20.786C6.607,-20.99 6.586,-21.383 6.508,-21.922M-35.542,-9.366C-35.171,-8.761 -34.884,-8.301 -34.606,-7.838C-34.48,-7.627 -34.423,-7.335 -34.244,-7.202C-33.305,-6.503 -32.336,-5.843 -31.306,-5.119C-31.501,-6.434 -32.183,-7.346 -32.891,-7.821C-33.625,-8.313 -34.375,-8.784 -35.121,-9.258C-35.189,-9.302 -35.284,-9.302 -35.542,-9.366M0.099,-43.576C0.047,-43.598 -0.005,-43.62 -0.057,-43.642C-0.413,-42.936 -0.84,-42.255 -1.11,-41.517C-1.554,-40.303 -1.912,-39.056 -2.276,-37.814C-2.609,-36.678 -2.9,-35.531 -3.21,-34.389C-3.293,-34.084 -3.407,-33.784 -3.464,-33.474C-3.625,-32.602 -3.762,-31.726 -3.912,-30.852C-4.014,-30.249 -4.122,-29.647 -4.238,-28.985C-3.884,-28.843 -3.584,-28.723 -3.243,-28.586C-3.14,-33.865 -1.845,-38.792 0.099,-43.576M6.517,-26.467C6.516,-26.539 6.515,-26.611 6.513,-26.683C6.335,-26.76 6.163,-26.865 5.977,-26.911C5.358,-27.061 4.733,-27.185 4.112,-27.328C2.737,-27.647 1.363,-27.974 -0.013,-28.288C-0.164,-28.323 -0.329,-28.292 -0.606,-28.292C0.425,-27.502 1.364,-26.811 1.967,-25.785C2.11,-25.543 2.327,-25.541 2.564,-25.574C3.174,-25.66 3.794,-25.701 4.391,-25.839C5.11,-26.006 5.81,-26.255 6.517,-26.467M1.645,-25.384C1.55,-25.545 1.518,-25.634 1.459,-25.695C0.877,-26.301 0.281,-26.893 -0.291,-27.508C-0.655,-27.9 -1.083,-28.037 -1.589,-27.918C-2.698,-27.658 -3.806,-27.39 -4.91,-27.107C-5.125,-27.052 -5.321,-26.916 -5.61,-26.777C-4.696,-26.72 -3.9,-26.647 -3.102,-26.627C-2.131,-26.604 -1.396,-26.197 -0.9,-25.37C-0.791,-25.19 -0.736,-24.977 -0.654,-24.774C0.101,-24.974 0.824,-25.166 1.645,-25.384M-35.848,-13.098C-35.772,-13.093 -35.696,-13.087 -35.62,-13.082C-35.214,-13.731 -34.826,-14.393 -34.396,-15.026C-33.976,-15.647 -33.522,-16.245 -33.066,-16.84C-32.607,-17.44 -31.927,-17.858 -31.574,-18.59C-32.294,-18.868 -32.934,-18.855 -33.598,-18.544C-34.564,-18.094 -35.277,-17.407 -35.751,-16.462C-36.173,-15.622 -36.305,-14.731 -36.152,-13.809C-36.111,-13.562 -35.952,-13.334 -35.848,-13.098M-3.819,-19.19C-1.787,-21.629 0.567,-23.459 3.107,-25.085C0.586,-24.768 -1.771,-23.972 -4.046,-22.989C-3.972,-21.743 -3.901,-20.567 -3.819,-19.19M-13.658,-19.175C-9.626,-21.331 -5.423,-23.06 -1.105,-24.62C-1.489,-25.497 -2.06,-26.099 -2.942,-26.152C-4.169,-26.226 -5.406,-26.198 -6.635,-26.135C-7.897,-26.072 -8.975,-25.442 -10.07,-24.876C-10.488,-24.66 -10.812,-24.377 -11.089,-24.001C-12.178,-22.525 -12.943,-20.878 -13.658,-19.175M-29.857,-20.043C-30.088,-20.232 -30.208,-20.377 -30.361,-20.448C-31.252,-20.861 -32.142,-21.279 -33.051,-21.65C-33.622,-21.883 -34.227,-22.022 -34.859,-21.898C-37.263,-21.427 -38.723,-19.807 -39.819,-17.777C-40.402,-16.699 -40.588,-15.491 -40.751,-14.296C-40.902,-13.195 -40.858,-12.109 -40.16,-11.146C-39.652,-10.445 -38.98,-10.069 -37.981,-9.894C-38.311,-10.557 -38.572,-11.099 -38.849,-11.634C-39.132,-12.181 -39.437,-12.716 -39.718,-13.264C-39.856,-13.534 -39.978,-13.892 -39.69,-14.077C-39.252,-14.357 -38.753,-14.586 -38.203,-14.322C-37.873,-14.165 -37.546,-14.002 -37.217,-13.846C-37.048,-13.766 -36.875,-13.696 -36.613,-13.582C-36.812,-14.453 -36.757,-15.183 -36.486,-15.908C-36.112,-16.912 -35.549,-17.778 -34.692,-18.423C-33.72,-19.155 -32.649,-19.394 -31.464,-18.973C-31.324,-18.923 -31.09,-18.968 -30.97,-19.06C-30.596,-19.351 -30.255,-19.686 -29.857,-20.043M-24.149,-23.91C-23.432,-23.46 -22.792,-22.982 -22.087,-22.634C-20.433,-21.816 -18.816,-20.913 -17.068,-20.301C-16.251,-20.015 -15.416,-19.774 -14.576,-19.565C-14.004,-19.423 -14.002,-19.467 -13.776,-20.017C-13.167,-21.496 -12.436,-22.91 -11.501,-24.213C-11.419,-24.328 -11.389,-24.48 -11.362,-24.548C-12.413,-24.752 -13.43,-24.901 -14.419,-25.155C-15.232,-25.364 -16.053,-25.619 -16.8,-25.995C-17.917,-26.555 -18.975,-27.233 -20.05,-27.874C-20.578,-28.188 -20.57,-28.201 -21.031,-27.793C-22.256,-26.709 -23.154,-25.362 -24.149,-23.91M-3.377,-28.064C-3.609,-28.201 -3.703,-28.264 -3.805,-28.315C-4.458,-28.641 -5.109,-28.971 -5.766,-29.287C-7.058,-29.909 -8.388,-30.461 -9.632,-31.166C-10.248,-31.515 -10.803,-31.461 -11.387,-31.335C-12.614,-31.069 -13.832,-30.76 -15.047,-30.442C-16.596,-30.037 -18.103,-29.511 -19.528,-28.769C-19.674,-28.693 -19.8,-28.575 -20.001,-28.429C-19.789,-28.265 -19.657,-28.149 -19.511,-28.053C-19.11,-27.791 -18.697,-27.548 -18.302,-27.277C-17.274,-26.572 -16.123,-26.13 -14.947,-25.77C-14.099,-25.51 -13.223,-25.305 -12.344,-25.19C-11.727,-25.108 -11.074,-25.161 -10.457,-25.265C-10.068,-25.331 -9.707,-25.591 -9.347,-25.787C-7.757,-26.65 -6.063,-27.247 -4.335,-27.759C-4.079,-27.834 -3.826,-27.92 -3.377,-28.064M-4.498,-22.801C-5.001,-22.63 -5.491,-22.512 -5.94,-22.304C-8.334,-21.195 -10.719,-20.063 -13.109,-18.944C-13.366,-18.824 -13.487,-18.656 -13.482,-18.363C-13.474,-17.794 -13.501,-17.225 -13.503,-16.656C-13.507,-15.425 -13.505,-14.195 -13.505,-12.946C-12.715,-12.33 -11.611,-12.055 -11.201,-10.963C-9.709,-11.481 -8.258,-11.984 -6.896,-12.457C-6.811,-13.024 -6.79,-13.507 -6.663,-13.961C-6.232,-15.511 -5.49,-16.918 -4.565,-18.226C-4.315,-18.58 -4.173,-18.941 -4.203,-19.37C-4.281,-20.483 -4.359,-21.596 -4.438,-22.708C-4.44,-22.728 -4.462,-22.746 -4.498,-22.801M-3.741,-11.678C-2.812,-12.042 -1.962,-12.36 -1.128,-12.716C-0.972,-12.783 -0.828,-12.992 -0.774,-13.165C-0.646,-13.573 -0.606,-14.01 -0.474,-14.417C-0.13,-15.477 0.223,-16.529 0.857,-17.471C1.757,-18.809 2.849,-19.966 4.111,-20.953C5.097,-21.725 6.132,-22.45 7.334,-22.862C8.147,-23.141 8.979,-23.365 9.907,-23.644C9.853,-23.97 9.872,-24.405 9.708,-24.752C9.08,-26.074 8.287,-26.774 6.804,-26.108C6.347,-25.903 5.854,-25.781 5.395,-25.579C2.33,-24.228 -0.352,-22.329 -2.624,-19.866C-3.178,-19.266 -3.686,-18.623 -4.186,-17.977C-4.873,-17.089 -5.384,-16.097 -5.82,-15.065C-6.104,-14.393 -6.36,-13.719 -6.302,-12.936C-5.602,-12.645 -4.917,-12.361 -4.145,-12.04C-4.413,-15.198 -2.893,-17.535 -1.031,-19.729C-1.052,-19.578 -1.123,-19.448 -1.203,-19.324C-1.779,-18.428 -2.349,-17.539 -2.824,-16.573C-3.583,-15.024 -3.856,-13.433 -3.741,-11.678M1.322,-13.213C1.107,-12.064 1.631,-11.141 2.291,-10.282C3.189,-9.112 4.343,-8.288 5.764,-7.857C6.113,-7.751 6.48,-7.674 6.801,-7.511C7.661,-7.072 8.484,-7.205 9.295,-7.61C11.114,-8.519 12.392,-9.991 13.374,-11.715C14.276,-13.3 14.753,-15.036 14.83,-16.867C14.842,-17.152 14.817,-17.48 14.684,-17.72C14.289,-18.435 13.913,-19.192 13.21,-19.66C12.303,-20.265 11.363,-20.821 10.431,-21.387C9.983,-21.659 9.521,-21.751 9.014,-21.494C8.713,-21.342 8.376,-21.257 8.053,-21.15C5.951,-20.455 4.294,-19.136 2.939,-17.429C1.967,-16.204 1.073,-14.922 1.322,-13.213M-10.924,-7.513C-11.04,-8.157 -11.197,-8.797 -11.258,-9.446C-11.321,-10.112 -11.933,-10.552 -11.927,-11.233C-11.927,-11.28 -12.012,-11.338 -12.068,-11.374C-12.638,-11.744 -13.191,-12.145 -13.786,-12.467C-14.465,-12.833 -15.181,-13.133 -15.885,-13.452C-16.518,-13.739 -17.148,-13.871 -17.87,-13.719C-18.872,-13.507 -19.785,-13.121 -20.642,-12.593C-21.181,-12.261 -21.751,-11.927 -22.175,-11.471C-22.853,-10.742 -23.459,-9.945 -23.894,-9.022C-24.582,-7.56 -25.045,-6.067 -25.051,-4.427C-25.055,-3.251 -24.645,-2.269 -23.857,-1.473C-22.196,0.202 -20.18,1.071 -17.785,1.063C-16.258,1.058 -15.015,0.49 -13.917,-0.527C-13.267,-1.129 -12.833,-1.867 -12.411,-2.623C-11.564,-4.138 -11.006,-5.735 -10.924,-7.513M-27.473,-7.083C-27.244,-7.075 -27.161,-6.945 -27.173,-6.698C-27.775,-6.376 -28.101,-7.125 -28.699,-7.097C-28.612,-6.876 -28.541,-6.695 -28.47,-6.513C-28.304,-6.09 -28.13,-5.669 -27.976,-5.242C-27.907,-5.048 -27.953,-4.883 -28.259,-4.826C-28.354,-5.045 -28.454,-5.265 -28.546,-5.489C-28.965,-6.497 -29.394,-7.502 -29.793,-8.519C-29.998,-9.039 -30.357,-9.386 -30.829,-9.655C-32.075,-10.365 -33.313,-11.091 -34.56,-11.802C-35.702,-12.453 -36.843,-13.107 -38,-13.73C-38.402,-13.946 -38.852,-14.039 -39.331,-13.713C-39.254,-13.531 -39.195,-13.366 -39.117,-13.21C-38.541,-12.051 -37.903,-10.918 -37.401,-9.728C-37.026,-8.839 -36.324,-8.441 -35.529,-8.096C-35.505,-8.086 -35.456,-8.136 -35.396,-8.172C-35.585,-8.505 -35.76,-8.849 -35.969,-9.171C-36.146,-9.444 -36.152,-9.681 -35.909,-9.899C-35.672,-10.112 -35.436,-9.996 -35.217,-9.859C-34.406,-9.349 -33.592,-8.843 -32.793,-8.313C-32.51,-8.126 -32.262,-7.884 -32.011,-7.653C-31.304,-7.004 -31.086,-6.094 -30.777,-5.244C-30.657,-4.912 -30.496,-4.686 -30.197,-4.543C-28.59,-3.774 -28.354,-3.72 -27.011,-4.858C-26.569,-5.232 -26.035,-5.499 -25.44,-5.882C-25.419,-5.96 -25.353,-6.178 -25.304,-6.4C-25,-7.77 -24.45,-9.039 -23.699,-10.216C-22.886,-11.491 -21.756,-12.451 -20.431,-13.147C-19.319,-13.731 -18.152,-14.22 -16.847,-14.158C-16.599,-14.146 -16.332,-14.145 -16.111,-14.051C-15.716,-13.884 -15.358,-13.632 -14.969,-13.449C-14.694,-13.319 -14.394,-13.243 -13.987,-13.102C-13.95,-14.945 -13.915,-16.665 -13.881,-18.414C-14.04,-18.388 -14.114,-18.394 -14.169,-18.364C-16.647,-17.006 -18.955,-15.389 -21.246,-13.741C-22.453,-12.873 -23.534,-11.871 -24.582,-10.827C-24.92,-10.491 -25.27,-10.152 -25.532,-9.759C-26.023,-9.021 -26.459,-8.245 -26.908,-7.479C-27.042,-7.249 -27.179,-7.052 -27.484,-7.085C-27.305,-7.503 -27.16,-7.939 -26.942,-8.335C-26.088,-9.889 -24.928,-11.207 -23.607,-12.365C-22.551,-13.291 -21.398,-14.108 -20.28,-14.962C-18.574,-16.265 -16.778,-17.429 -14.896,-18.462C-14.67,-18.586 -14.461,-18.742 -14.21,-18.905C-17.901,-19.881 -21.183,-21.576 -24.278,-23.466C-28.839,-20.832 -32.54,-17.392 -35.23,-12.875C-35.11,-12.775 -35.034,-12.691 -34.94,-12.636C-34.213,-12.209 -33.479,-11.795 -32.757,-11.361C-32.135,-10.987 -31.55,-10.544 -30.905,-10.217C-30.097,-9.807 -29.456,-9.298 -29.216,-8.376C-29.164,-8.174 -29.022,-7.942 -28.852,-7.832C-28.415,-7.55 -27.94,-7.329 -27.473,-7.083M-29.516,-20.461C-28.585,-21.152 -27.702,-21.832 -26.791,-22.474C-26.236,-22.866 -25.587,-23.139 -25.077,-23.578C-24.657,-23.939 -24.359,-24.453 -24.043,-24.922C-23.172,-26.214 -22.186,-27.406 -21.047,-28.47C-20.965,-28.547 -20.89,-28.647 -20.792,-28.691C-18.918,-29.519 -17.071,-30.398 -15.065,-30.905C-13.558,-31.286 -12.069,-31.736 -10.525,-31.927C-9.827,-32.013 -9.111,-32.018 -8.406,-31.991C-7.594,-31.959 -7.149,-31.533 -7.059,-30.724C-7.022,-30.396 -6.902,-30.25 -6.603,-30.144C-6.285,-30.03 -6,-29.831 -5.695,-29.68C-5.391,-29.531 -5.08,-29.396 -4.684,-29.213C-4.61,-29.511 -4.529,-29.782 -4.477,-30.058C-4.302,-30.977 -4.167,-31.904 -3.962,-32.815C-3.646,-34.215 -3.298,-35.608 -2.939,-36.998C-2.482,-38.764 -1.988,-40.519 -1.21,-42.18C-0.96,-42.715 -0.717,-43.257 -0.525,-43.815C-0.441,-44.057 -0.5,-44.346 -0.482,-44.612C-0.456,-44.992 -0.451,-45.376 -0.378,-45.747C-0.311,-46.089 -0.052,-46.303 0.298,-46.337C0.697,-46.375 1.103,-46.395 1.503,-46.369C1.63,-46.362 1.775,-46.204 1.863,-46.079C2.459,-45.228 2.026,-44.026 1.232,-43.793C0.822,-43.673 0.559,-43.37 0.398,-42.953C-0.019,-41.875 -0.485,-40.816 -0.896,-39.735C-1.074,-39.269 -1.168,-38.77 -1.294,-38.284C-1.584,-37.16 -1.912,-36.042 -2.149,-34.907C-2.386,-33.771 -2.505,-32.61 -2.727,-31.471C-2.892,-30.628 -2.791,-29.798 -2.793,-28.934C-2.583,-28.934 -2.428,-28.91 -2.283,-28.939C-1.212,-29.147 -0.193,-28.838 0.831,-28.623C2.213,-28.334 3.592,-28.025 4.964,-27.692C6.049,-27.428 7.136,-27.158 8.196,-26.811C9.081,-26.522 9.703,-25.862 10.065,-25.014C10.293,-24.477 10.412,-23.892 10.554,-23.322C10.582,-23.209 10.495,-23.067 10.483,-23.023C9.639,-22.882 8.851,-22.771 8.073,-22.611C7.768,-22.548 7.468,-22.406 7.198,-22.246C6.878,-22.057 6.958,-21.749 7.058,-21.373C7.312,-21.456 7.55,-21.508 7.764,-21.611C8.366,-21.9 8.989,-22.095 9.662,-22.115C10.107,-22.129 10.446,-22.014 10.811,-21.68C11.322,-21.214 11.978,-20.902 12.587,-20.55C13.554,-19.99 14.35,-19.25 14.896,-18.28C15.151,-17.827 15.27,-17.303 15.21,-16.761C15.083,-15.602 14.896,-14.468 14.528,-13.345C13.976,-11.653 13.086,-10.208 11.841,-8.962C11.084,-8.205 10.328,-7.449 9.276,-7.093C8.458,-6.816 7.661,-6.682 6.826,-7.094C6.407,-7.3 5.899,-7.315 5.463,-7.494C4.246,-7.995 3.234,-8.801 2.331,-9.746C2.111,-9.976 1.923,-10.236 1.718,-10.48C0.947,-11.397 0.778,-12.465 0.915,-13.617C0.96,-13.997 0.958,-14.382 0.979,-14.8C0.544,-14.823 0.122,-14.666 -0.053,-14.381C-0.248,-14.066 -0.29,-13.594 -0.247,-13.208C-0.19,-12.71 -0.155,-12.626 -0.587,-12.441C-1.109,-12.216 -1.641,-12.012 -2.167,-11.795C-2.608,-11.613 -3.057,-11.444 -3.484,-11.233C-3.729,-11.112 -3.913,-11.132 -4.104,-11.309C-4.221,-11.418 -4.333,-11.544 -4.471,-11.615C-5.178,-11.976 -5.854,-12.332 -6.721,-11.994C-8.14,-11.442 -9.598,-10.988 -11.084,-10.478C-10.945,-10.004 -10.833,-9.618 -10.719,-9.233C-10.474,-8.41 -10.523,-7.586 -10.629,-6.742C-10.76,-5.694 -10.963,-4.668 -11.372,-3.698C-12.098,-1.982 -12.963,-0.358 -14.621,0.675C-15.742,1.373 -16.941,1.712 -18.271,1.582C-19.883,1.424 -21.394,0.99 -22.744,0.067C-23.597,-0.516 -24.383,-1.173 -24.945,-2.052C-25.336,-2.663 -25.442,-3.368 -25.494,-4.077C-25.519,-4.414 -25.498,-4.755 -25.498,-5.193C-25.715,-5.09 -25.855,-5.045 -25.971,-4.965C-26.534,-4.578 -27.084,-4.175 -27.649,-3.793C-28.28,-3.365 -28.946,-3.441 -29.604,-3.719C-31.365,-4.462 -32.855,-5.635 -34.398,-6.729C-35.12,-7.241 -35.909,-7.659 -36.637,-8.164C-37.023,-8.431 -37.336,-8.801 -37.698,-9.105C-37.843,-9.228 -38.021,-9.333 -38.202,-9.389C-38.79,-9.569 -39.361,-9.734 -39.864,-10.144C-40.859,-10.954 -41.318,-11.963 -41.304,-13.235C-41.285,-14.802 -41.031,-16.338 -40.363,-17.74C-39.429,-19.7 -38.094,-21.312 -35.907,-22.009C-34.47,-22.467 -33.108,-22.226 -31.787,-21.612C-31.023,-21.257 -30.283,-20.852 -29.516,-20.461" style="fill:rgb(35,31,32);fill-rule:nonzero;"/>
            </g>
            <g transform="matrix(1,0,0,1,113.995,691.089)">
                <path d="M0,-9.985C-0.85,-10.628 -1.591,-11.182 -2.45,-11.547C-3.094,-11.82 -3.747,-11.929 -4.438,-11.668C-5.828,-11.142 -7.087,-10.386 -8.266,-9.499C-8.429,-9.376 -8.544,-9.049 -8.515,-8.839C-8.419,-8.169 -8.277,-7.501 -8.092,-6.849C-7.973,-6.425 -7.75,-6.03 -7.581,-5.64C-7.279,-5.64 -7.074,-5.628 -6.87,-5.642C-5.816,-5.715 -4.838,-6.077 -4.073,-6.769C-3.059,-7.685 -2.026,-8.56 -0.877,-9.301C-0.596,-9.482 -0.347,-9.712 0,-9.985M-7.688,3.199C-8.148,2.954 -8.624,2.732 -9.06,2.45C-9.231,2.34 -9.372,2.109 -9.425,1.906C-9.665,0.985 -10.305,0.476 -11.113,0.066C-11.758,-0.261 -12.343,-0.705 -12.965,-1.079C-13.687,-1.513 -14.422,-1.926 -15.148,-2.354C-15.242,-2.409 -15.319,-2.493 -15.438,-2.593C-12.749,-7.11 -9.047,-10.549 -4.486,-13.184C-1.391,-11.294 1.89,-9.599 5.582,-8.623C5.331,-8.46 5.122,-8.304 4.896,-8.18C3.014,-7.147 1.217,-5.983 -0.488,-4.68C-1.607,-3.826 -2.759,-3.009 -3.815,-2.083C-5.136,-0.925 -6.297,0.394 -7.151,1.947C-7.368,2.344 -7.513,2.779 -7.692,3.197L-7.688,3.199Z" style="fill:rgb(239,70,67);fill-rule:nonzero;"/>
            </g>
            <g transform="matrix(1,0,0,1,115.142,694.35)">
                <path d="M0,-13.363C-0.101,-11.164 -0.488,-8.749 -3.016,-8.281C-3.171,-8.252 -3.32,-8.335 -3.36,-8.484C-5.161,-7.898 -6.768,-6.941 -8.312,-5.848C-8.52,-5.701 -8.796,-5.946 -8.731,-6.171C-8.687,-6.297 -8.65,-6.426 -8.62,-6.556C-9.626,-6.303 -10.444,-5.688 -11.342,-5.154C-11.58,-5.012 -11.891,-5.302 -11.732,-5.545C-11.131,-6.462 -11.361,-7.562 -11.218,-8.601C-11.456,-8.433 -11.695,-8.265 -11.933,-8.097C-12.05,-7.892 -12.404,-7.921 -12.455,-8.165C-12.668,-9.187 -12.615,-10.164 -12.481,-11.172C-14.056,-9.57 -15.457,-7.791 -16.648,-5.79C-16.529,-5.691 -16.452,-5.606 -16.359,-5.551C-15.632,-5.124 -14.898,-4.711 -14.175,-4.277C-13.553,-3.902 -12.969,-3.459 -12.324,-3.132C-11.515,-2.722 -10.875,-2.213 -10.635,-1.292C-10.582,-1.089 -10.441,-0.857 -10.271,-0.747C-9.835,-0.466 -9.361,-0.245 -8.902,0C-8.724,-0.418 -8.579,-0.854 -8.361,-1.25C-7.507,-2.804 -6.346,-4.123 -5.026,-5.28C-3.969,-6.206 -2.817,-7.023 -1.699,-7.877C0.007,-9.18 1.804,-10.344 3.686,-11.377C3.912,-11.502 4.12,-11.657 4.371,-11.82C2.849,-12.223 1.399,-12.753 0,-13.363" style="fill:rgb(248,158,81);fill-rule:nonzero;"/>
            </g>
            <g transform="matrix(1,0,0,1,114.732,692.387)">
                <path d="M0,5.168C-0.046,6.07 0.112,6.971 0.673,7.781C1.244,8.605 2.281,8.987 3.245,8.676C4.224,8.36 5.087,7.845 5.626,6.949C6.13,6.113 6.62,5.254 6.985,4.352C7.506,3.066 7.696,1.721 7.348,0.33C7.13,-0.546 6.618,-1.197 5.898,-1.669C5.457,-1.956 4.909,-2.073 4.392,-1.821C3.696,-1.481 3.025,-1.11 2.482,-0.521C1.923,0.087 1.426,0.729 1.066,1.469C0.505,2.621 0.021,3.8 0,5.168M8.13,1.471C8.049,3.249 7.49,4.846 6.644,6.361C6.221,7.117 5.788,7.855 5.138,8.457C4.04,9.474 2.796,10.042 1.27,10.047C-1.126,10.055 -3.141,9.186 -4.802,7.511C-5.591,6.716 -6.001,5.733 -5.997,4.558C-5.99,2.917 -5.528,1.424 -4.84,-0.038C-4.405,-0.961 -3.799,-1.757 -3.12,-2.487C-2.696,-2.943 -2.127,-3.276 -1.587,-3.609C-0.731,-4.137 0.183,-4.522 1.185,-4.734C1.906,-4.887 2.537,-4.755 3.169,-4.468C3.874,-4.149 4.589,-3.849 5.268,-3.482C5.864,-3.16 6.417,-2.759 6.987,-2.39C7.043,-2.354 7.128,-2.296 7.127,-2.249C7.121,-1.568 7.733,-1.128 7.796,-0.462C7.858,0.187 8.015,0.827 8.13,1.471" style="fill:rgb(147,149,152);fill-rule:nonzero;"/>
            </g>
            <g transform="matrix(1,0,0,1,113.303,691.122)">
                <path d="M0,7.547C-0.273,3.904 3.373,-3.143 7.65,-1.697C7.339,-1.902 7.025,-2.103 6.697,-2.28C6.018,-2.646 5.303,-2.946 4.599,-3.265C3.966,-3.552 3.336,-3.684 2.614,-3.532C1.612,-3.32 0.699,-2.935 -0.158,-2.407C-0.697,-2.074 -1.267,-1.74 -1.691,-1.284C-2.37,-0.555 -2.975,0.242 -3.41,1.165C-4.099,2.627 -4.561,4.12 -4.567,5.76C-4.572,6.936 -4.162,7.918 -3.373,8.713C-1.815,10.283 0.057,11.135 2.257,11.231C1.032,10.64 0.144,9.471 0,7.547" style="fill:rgb(190,192,194);fill-rule:nonzero;"/>
            </g>
            <g transform="matrix(1,0,0,1,113.24,698.913)">
                <path d="M0,-0.244C-0.047,-0.873 0.025,-1.605 0.195,-2.377C-1.519,-2.389 -3.376,-2.681 -4.403,-3.684C-4.505,-3.147 -4.565,-2.598 -4.567,-2.031C-4.572,-0.855 -4.162,0.127 -3.373,0.922C-1.816,2.492 0.057,3.344 2.257,3.44C1.032,2.849 0.144,1.68 0,-0.244" style="fill:rgb(147,149,152);fill-rule:nonzero;"/>
            </g>
            <g transform="matrix(1,0,0,1,147.311,688.42)">
                <path d="M0,-2.921C0,-3.218 0.011,-3.516 -0.002,-3.812C-0.025,-4.296 -0.105,-4.772 -0.393,-5.174C-0.484,-5.302 -0.671,-5.437 -0.816,-5.439C-1.742,-5.448 -2.644,-5.301 -3.43,-4.772C-4.45,-4.085 -5.267,-3.238 -5.678,-2.027C-6.12,-0.722 -6.373,0.571 -5.878,1.915C-5.393,3.233 -4.457,3.936 -2.939,3.046C-2.861,3 -2.791,2.939 -2.718,2.886C-2.007,2.361 -1.462,1.705 -1.074,0.905C-0.485,-0.308 0.131,-1.51 0,-2.921M-12.203,-0.261C-12.452,-1.971 -11.558,-3.252 -10.586,-4.477C-9.231,-6.184 -7.574,-7.503 -5.472,-8.198C-5.149,-8.306 -4.812,-8.39 -4.511,-8.543C-4.004,-8.8 -3.542,-8.707 -3.094,-8.435C-2.162,-7.869 -1.222,-7.313 -0.315,-6.709C0.388,-6.24 0.765,-5.483 1.159,-4.769C1.292,-4.529 1.318,-4.2 1.305,-3.915C1.228,-2.085 0.751,-0.348 -0.152,1.237C-1.133,2.961 -2.411,4.433 -4.23,5.342C-5.041,5.747 -5.864,5.879 -6.724,5.441C-7.045,5.277 -7.412,5.201 -7.761,5.095C-9.183,4.663 -10.336,3.84 -11.234,2.67C-11.894,1.811 -12.419,0.888 -12.203,-0.261" style="fill:rgb(147,149,152);fill-rule:nonzero;"/>
            </g>
            <g transform="matrix(1,0,0,1,142.773,680.055)">
                <path d="M0,13.777C-1.755,13.502 -3.056,12.283 -2.954,9.336C-2.879,7.183 -2.295,5.068 -0.744,3.467C0.499,2.182 2.225,1.341 4.002,1.516C3.163,0.966 2.301,0.451 1.444,-0.07C0.996,-0.342 0.534,-0.434 0.027,-0.178C-0.274,-0.025 -0.611,0.06 -0.934,0.167C-3.036,0.862 -4.693,2.181 -6.048,3.888C-7.02,5.113 -7.914,6.395 -7.665,8.104C-7.88,9.253 -7.356,10.176 -6.696,11.035C-5.798,12.205 -4.644,13.029 -3.223,13.46C-2.874,13.566 -2.507,13.643 -2.186,13.806C-1.392,14.211 -0.63,14.126 0.12,13.793C0.08,13.787 0.041,13.783 0,13.777" style="fill:rgb(190,192,194);fill-rule:nonzero;"/>
            </g>
            <g transform="matrix(1,0,0,1,139.82,691.871)">
                <path d="M0,-2.417C0.004,-2.521 0.015,-2.623 0.021,-2.727C-1.748,-3.006 -3.46,-3.618 -4.696,-4.874C-4.763,-4.489 -4.774,-4.083 -4.711,-3.65C-4.927,-2.501 -4.402,-1.578 -3.742,-0.718C-2.844,0.452 -1.69,1.275 -0.269,1.707C0.08,1.813 0.446,1.889 0.768,2.053C1.561,2.457 2.323,2.372 3.073,2.039C3.033,2.033 2.995,2.03 2.954,2.023C1.199,1.748 -0.102,0.529 0,-2.417" style="fill:rgb(147,149,152);fill-rule:nonzero;"/>
            </g>
            <g transform="matrix(1,0,0,1,130.045,674.597)">
                <path d="M0,15.096C-0.115,13.341 0.159,11.75 0.918,10.201C1.392,9.235 1.962,8.346 2.539,7.451C2.618,7.326 2.69,7.196 2.71,7.045C0.849,9.238 -0.672,11.576 -0.403,14.734C-1.176,14.413 -1.861,14.129 -2.561,13.839C-2.619,13.056 -2.362,12.381 -2.079,11.709C-1.643,10.677 -1.132,9.685 -0.444,8.797C0.056,8.151 0.564,7.508 1.117,6.908C3.389,4.445 6.071,2.547 9.137,1.195C9.595,0.993 10.089,0.871 10.545,0.666C12.028,0 12.821,0.699 13.449,2.022C13.614,2.369 13.594,2.804 13.648,3.13C12.721,3.41 11.889,3.633 11.076,3.912C9.873,4.324 8.839,5.049 7.852,5.821C6.591,6.808 5.499,7.965 4.598,9.304C3.965,10.245 3.612,11.298 3.268,12.357C3.136,12.764 3.096,13.201 2.968,13.609C2.913,13.782 2.77,13.991 2.613,14.057C1.78,14.414 0.93,14.731 0,15.096" style="fill:rgb(239,70,67);fill-rule:nonzero;"/>
            </g>
            <g transform="matrix(1,0,0,1,143.494,688.787)">
                <path d="M0,-12.231C-0.153,-12.553 -0.316,-12.837 -0.496,-13.074C-0.5,-13.073 -0.502,-13.07 -0.506,-13.069C-2.822,-12.473 -4.81,-11.176 -6.851,-9.982C-8.675,-8.914 -9.939,-7.408 -11.431,-5.985C-11.824,-5.359 -12.202,-4.725 -12.531,-4.051C-13.29,-2.503 -13.564,-0.912 -13.449,0.843C-12.52,0.478 -11.669,0.161 -10.836,-0.196C-10.679,-0.263 -10.537,-0.471 -10.482,-0.644C-10.353,-1.053 -10.314,-1.489 -10.182,-1.896C-9.838,-2.955 -9.485,-4.008 -8.851,-4.949C-7.951,-6.288 -6.859,-7.445 -5.598,-8.432C-4.61,-9.204 -3.576,-9.929 -2.374,-10.341C-1.561,-10.62 -0.729,-10.844 0.199,-11.123C0.145,-11.449 0.165,-11.884 0,-12.231" style="fill:rgb(248,158,81);fill-rule:nonzero;"/>
            </g>
            <g transform="matrix(1,0,0,1,129.288,690.408)">
                <path d="M0,-11.837C0.036,-11.783 0.058,-11.765 0.06,-11.745C0.139,-10.632 0.217,-9.52 0.295,-8.407C0.325,-7.978 0.183,-7.617 -0.067,-7.263C-0.991,-5.954 -1.734,-4.547 -2.165,-2.998C-2.291,-2.544 -2.313,-2.06 -2.397,-1.493C-3.76,-1.021 -5.211,-0.517 -6.703,0C-7.112,-1.092 -8.217,-1.366 -9.006,-1.982C-9.006,-3.231 -9.009,-4.462 -9.005,-5.692C-9.003,-6.261 -8.976,-6.83 -8.984,-7.399C-8.988,-7.693 -8.868,-7.86 -8.61,-7.98C-6.22,-9.099 -3.836,-10.232 -1.441,-11.34C-0.992,-11.548 -0.502,-11.666 0,-11.837" style="fill:rgb(239,70,67);fill-rule:nonzero;"/>
            </g>
            <g transform="matrix(1,0,0,1,127.595,688.768)">
                <path d="M0,-6.121C-1.314,-4.769 -2.879,-2.657 -4.941,-2.563C-5.135,-2.555 -5.256,-2.752 -5.217,-2.924C-5.139,-3.267 -5.025,-3.594 -4.91,-3.922C-5.811,-3.54 -6.614,-3.062 -7.375,-2.451C-7.375,-1.729 -7.376,-1.011 -7.376,-0.28C-6.587,0.336 -5.482,0.611 -5.072,1.703C-3.581,1.185 -2.13,0.682 -0.767,0.209C-0.683,-0.358 -0.661,-0.841 -0.535,-1.295C-0.103,-2.845 0.639,-4.251 1.563,-5.56C1.813,-5.914 1.955,-6.275 1.925,-6.704C1.899,-7.078 1.872,-7.451 1.846,-7.824C1.262,-7.232 0.561,-6.699 0,-6.121" style="fill:rgb(248,158,81);fill-rule:nonzero;"/>
            </g>
            <g transform="matrix(1,0,0,1,106.303,686.322)">
                <path d="M0,7.964C0.305,7.997 0.441,7.801 0.576,7.57C1.024,6.804 1.46,6.029 1.952,5.29C2.213,4.897 2.564,4.558 2.901,4.222C3.949,3.178 5.031,2.176 6.238,1.308C8.528,-0.34 10.837,-1.956 13.315,-3.315C13.37,-3.345 13.444,-3.339 13.603,-3.365C13.568,-1.616 13.534,0.104 13.497,1.947C13.09,1.806 12.789,1.73 12.515,1.601C12.126,1.417 11.767,1.166 11.372,0.998C11.152,0.904 10.884,0.903 10.636,0.891C9.331,0.83 8.165,1.318 7.052,1.903C5.727,2.598 4.597,3.558 3.784,4.833C3.034,6.01 2.483,7.28 2.18,8.65C2.131,8.871 2.065,9.089 2.044,9.168C1.449,9.55 0.915,9.817 0.473,10.191C-0.87,11.329 -1.107,11.275 -2.714,10.506C-3.013,10.363 -3.174,10.137 -3.294,9.806C-3.602,8.955 -3.82,8.045 -4.527,7.396C-4.778,7.165 -5.026,6.923 -5.309,6.736C-6.108,6.206 -6.922,5.7 -7.734,5.19C-7.952,5.053 -8.189,4.937 -8.425,5.15C-8.668,5.368 -8.663,5.606 -8.486,5.878C-8.277,6.2 -8.102,6.544 -7.912,6.878C-7.973,6.914 -8.022,6.963 -8.045,6.954C-8.84,6.608 -9.542,6.21 -9.917,5.321C-10.419,4.131 -11.057,2.999 -11.634,1.84C-11.712,1.683 -11.771,1.518 -11.847,1.336C-11.368,1.01 -10.919,1.103 -10.517,1.319C-9.359,1.943 -8.218,2.596 -7.076,3.247C-5.83,3.958 -4.592,4.684 -3.345,5.394C-2.873,5.663 -2.514,6.01 -2.31,6.53C-1.91,7.547 -1.481,8.552 -1.063,9.561C-0.97,9.784 -0.871,10.004 -0.776,10.223C-0.469,10.166 -0.423,10.001 -0.493,9.808C-0.646,9.38 -0.82,8.959 -0.987,8.536C-1.058,8.355 -1.129,8.173 -1.215,7.952C-0.617,7.924 -0.291,8.673 0.31,8.351C0.323,8.104 0.239,7.975 0.008,7.966C0.004,7.966 0,7.964 0,7.964" style="fill:rgb(239,70,67);fill-rule:nonzero;"/>
            </g>
            <g transform="matrix(1,0,0,1,103.724,690.974)">
                <path d="M0,4.173C-0.511,2.589 -1.221,1.678 -2.669,0.837C-3.754,0.206 -4.846,-0.434 -5.955,-1.021C-6.82,-1.48 -7.719,-1.73 -8.635,-1.988C-8.182,-1.111 -7.72,-0.238 -7.338,0.669C-6.963,1.558 -6.261,1.957 -5.466,2.301C-5.443,2.312 -5.393,2.261 -5.333,2.226C-5.522,1.892 -5.697,1.548 -5.906,1.226C-6.084,0.954 -6.089,0.716 -5.846,0.498C-5.609,0.286 -5.373,0.401 -5.154,0.538C-4.343,1.048 -3.529,1.555 -2.73,2.084C-2.448,2.271 -2.199,2.513 -1.948,2.744C-1.241,3.393 -1.023,4.303 -0.715,5.154C-0.594,5.485 -0.433,5.711 -0.135,5.854C0.125,5.978 0.34,6.076 0.538,6.161C0.373,5.494 0.211,4.826 0,4.173" style="fill:rgb(172,48,45);fill-rule:nonzero;"/>
            </g>
            <g transform="matrix(1,0,0,1,117.091,686.32)">
                <path d="M0,0.898C0.222,0.908 0.453,0.918 0.648,1.001C1.042,1.168 1.401,1.42 1.79,1.603C2.064,1.733 2.365,1.809 2.772,1.95C2.793,0.919 2.812,-0.072 2.832,-1.052C1.777,-0.608 0.763,0.045 0,0.898" style="fill:rgb(248,158,81);fill-rule:nonzero;"/>
            </g>
            <g transform="matrix(1,0,0,1,130.41,672.812)">
                <path d="M0,0.495C-0.449,0.639 -0.702,0.725 -0.958,0.801C-2.686,1.312 -4.38,1.909 -5.97,2.772C-6.331,2.968 -6.692,3.228 -7.08,3.294C-7.698,3.398 -8.35,3.451 -8.967,3.37C-9.846,3.254 -10.722,3.05 -11.57,2.789C-12.746,2.429 -13.897,1.987 -14.925,1.282C-15.32,1.011 -15.734,0.768 -16.134,0.506C-16.28,0.411 -16.412,0.295 -16.624,0.131C-16.424,-0.016 -16.298,-0.134 -16.151,-0.21C-14.726,-0.952 -13.22,-1.478 -11.67,-1.883C-10.455,-2.201 -9.237,-2.509 -8.01,-2.775C-7.426,-2.902 -6.871,-2.956 -6.255,-2.607C-5.011,-1.901 -3.681,-1.35 -2.39,-0.728C-1.732,-0.412 -1.081,-0.082 -0.428,0.244C-0.327,0.295 -0.232,0.358 0,0.495" style="fill:rgb(239,70,67);fill-rule:nonzero;"/>
            </g>
            <g transform="matrix(1,0,0,1,114.121,670.07)">
                <path d="M0,2.899C1.85,1.382 4.577,1.471 6.828,1.679C7.118,1.706 7.207,2.042 6.973,2.211C6.757,2.367 6.521,2.472 6.282,2.572C7.062,2.648 7.897,2.631 8.613,2.409C8.247,1.805 9.103,1.497 9.848,1.438C10.806,1.362 11.83,1.635 12.782,1.722C12.957,1.737 13.132,1.75 13.307,1.765C12.184,1.241 11.046,0.744 9.971,0.135C9.355,-0.214 8.799,-0.16 8.216,-0.034C6.989,0.232 5.771,0.541 4.556,0.859C3.007,1.264 1.5,1.79 0.075,2.531C-0.072,2.608 -0.197,2.726 -0.399,2.872C-0.274,2.968 -0.179,3.044 -0.091,3.113C-0.101,3.04 -0.078,2.964 0,2.899" style="fill:rgb(244,125,75);fill-rule:nonzero;"/>
            </g>
            <g transform="matrix(1,0,0,1,125.062,676.186)">
                <path d="M0,-1.796C-2.499,-1.711 -5.002,-1.578 -7.424,-0.976C-7.048,-0.835 -6.669,-0.702 -6.285,-0.584C-5.436,-0.324 -4.561,-0.12 -3.682,-0.004C-3.065,0.076 -2.413,0.025 -1.795,-0.08C-1.406,-0.146 -1.046,-0.406 -0.685,-0.602C0.244,-1.107 1.212,-1.513 2.198,-1.872C1.466,-1.848 0.733,-1.821 0,-1.796" style="fill:rgb(244,125,75);fill-rule:nonzero;"/>
            </g>
            <g transform="matrix(1,0,0,1,109.637,677.657)">
                <path d="M0,-0.195C0.996,-1.648 1.893,-2.994 3.118,-4.078C3.58,-4.486 3.572,-4.474 4.099,-4.16C5.175,-3.519 6.233,-2.841 7.349,-2.28C8.096,-1.905 8.917,-1.649 9.73,-1.441C10.72,-1.186 11.736,-1.037 12.788,-0.834C12.76,-0.765 12.73,-0.613 12.648,-0.499C11.713,0.805 10.982,2.218 10.373,3.698C10.147,4.248 10.145,4.291 9.574,4.149C8.734,3.94 7.898,3.7 7.081,3.413C5.334,2.801 3.716,1.899 2.062,1.081C1.358,0.733 0.717,0.254 0,-0.195" style="fill:rgb(207,208,210);fill-rule:nonzero;"/>
            </g>
            <g transform="matrix(1,0,0,1,103.93,689.499)">
                <path d="M0,-8.17C-0.398,-7.813 -0.739,-7.478 -1.114,-7.188C-1.233,-7.095 -1.467,-7.05 -1.608,-7.1C-2.792,-7.521 -3.863,-7.282 -4.836,-6.55C-5.693,-5.905 -6.256,-5.039 -6.63,-4.035C-6.9,-3.311 -6.955,-2.58 -6.757,-1.709C-7.018,-1.823 -7.191,-1.894 -7.36,-1.973C-7.69,-2.129 -8.017,-2.292 -8.346,-2.449C-8.897,-2.713 -9.395,-2.485 -9.833,-2.204C-10.121,-2.019 -9.999,-1.661 -9.861,-1.391C-9.581,-0.843 -9.275,-0.308 -8.992,0.239C-8.716,0.774 -8.454,1.316 -8.124,1.979C-9.123,1.805 -9.795,1.428 -10.303,0.727C-11.001,-0.236 -11.046,-1.322 -10.895,-2.423C-10.732,-3.618 -10.545,-4.826 -9.963,-5.904C-8.866,-7.935 -7.406,-9.554 -5.003,-10.025C-4.37,-10.149 -3.765,-10.01 -3.194,-9.777C-2.285,-9.406 -1.396,-8.988 -0.505,-8.575C-0.351,-8.504 -0.232,-8.36 0,-8.17" style="fill:rgb(147,149,152);fill-rule:nonzero;"/>
            </g>
            <g transform="matrix(1,0,0,1,94.0056,682.72)">
                <path d="M0,5.388C-0.138,5.118 -0.26,4.76 0.028,4.575C0.366,4.358 0.742,4.175 1.149,4.224C1.385,2.335 2.036,0.392 3.505,-0.803C5.136,-2.129 7.819,-2.355 9.533,-1.092C9.641,-1.191 9.746,-1.287 9.861,-1.391C9.629,-1.58 9.51,-1.725 9.356,-1.796C8.465,-2.209 7.576,-2.627 6.667,-2.998C6.095,-3.231 5.491,-3.37 4.858,-3.246C2.455,-2.775 0.995,-1.155 -0.101,0.875C-0.684,1.953 -0.871,3.161 -1.034,4.356C-1.184,5.457 -1.14,6.543 -0.442,7.506C0.066,8.207 0.738,8.584 1.737,8.758C1.407,8.095 1.146,7.553 0.869,7.018C0.586,6.471 0.28,5.936 0,5.388" style="fill:rgb(190,192,194);fill-rule:nonzero;"/>
            </g>
            <g transform="matrix(1,0,0,1,94.0058,689.365)">
                <path d="M0,-1.321C-0.138,-1.591 -0.26,-1.949 0.028,-2.134C0.366,-2.351 0.742,-2.534 1.149,-2.485C1.151,-2.503 1.155,-2.521 1.157,-2.54C0.397,-2.676 -0.33,-2.944 -0.879,-3.37C-0.938,-3.032 -0.988,-2.692 -1.034,-2.353C-1.185,-1.252 -1.14,-0.166 -0.442,0.797C0.066,1.498 0.737,1.875 1.736,2.049C1.407,1.386 1.145,0.844 0.869,0.309C0.586,-0.238 0.28,-0.773 0,-1.321" style="fill:rgb(147,149,152);fill-rule:nonzero;"/>
            </g>
            <g transform="matrix(1,0,0,1,120.129,675.145)">
                <path d="M0,7.051C0.715,5.348 1.48,3.701 2.568,2.226C2.846,1.849 3.17,1.566 3.588,1.35C4.683,0.785 5.761,0.154 7.023,0.091C8.252,0.029 9.489,0 10.716,0.074C11.598,0.128 12.169,0.729 12.553,1.606C8.235,3.166 4.032,4.895 0,7.051" style="fill:rgb(207,208,210);fill-rule:nonzero;"/>
            </g>
            <g transform="matrix(1,0,0,1,129.968,676.287)">
                <path d="M0,5.894C-0.083,4.517 -0.153,3.341 -0.228,2.095C2.048,1.112 4.404,0.317 6.925,0C4.385,1.625 2.031,3.456 0,5.894" style="fill:rgb(239,70,67);fill-rule:nonzero;"/>
            </g>
            <g transform="matrix(1,0,0,1,97.9389,682.521)">
                <path d="M0,5.752C-0.105,5.516 -0.264,5.289 -0.305,5.042C-0.458,4.119 -0.326,3.228 0.096,2.388C0.57,1.443 1.284,0.757 2.25,0.306C2.914,-0.004 3.553,-0.017 4.274,0.26C3.921,0.992 3.24,1.41 2.781,2.009C2.325,2.605 1.872,3.204 1.451,3.824C1.022,4.457 0.634,5.119 0.227,5.769C0.152,5.763 0.076,5.758 0,5.752" style="fill:rgb(96,97,100);fill-rule:nonzero;"/>
            </g>
            <g transform="matrix(1,0,0,1,135.431,673.945)">
                <path d="M0,2.043C-0.82,2.261 -1.544,2.453 -2.299,2.653C-2.381,2.45 -2.436,2.237 -2.544,2.056C-3.042,1.229 -3.775,0.823 -4.747,0.799C-5.545,0.78 -6.341,0.707 -7.255,0.65C-6.965,0.511 -6.77,0.375 -6.555,0.319C-5.451,0.037 -4.343,-0.231 -3.234,-0.492C-2.729,-0.61 -2.3,-0.473 -1.936,-0.082C-1.364,0.534 -0.768,1.126 -0.186,1.732C-0.127,1.793 -0.095,1.881 0,2.043" style="fill:rgb(239,70,67);fill-rule:nonzero;"/>
            </g>
            <g transform="matrix(1,0,0,1,140.304,673.976)">
                <path d="M0,0.928C-0.708,1.141 -1.407,1.39 -2.126,1.556C-2.723,1.695 -3.344,1.735 -3.953,1.821C-4.19,1.855 -4.408,1.852 -4.55,1.611C-5.153,0.584 -6.093,-0.107 -7.124,-0.897C-6.846,-0.897 -6.681,-0.927 -6.53,-0.893C-5.154,-0.579 -3.781,-0.251 -2.406,0.067C-1.785,0.211 -1.16,0.334 -0.541,0.485C-0.355,0.53 -0.183,0.635 -0.004,0.713C-0.003,0.785 -0.002,0.856 0,0.928" style="fill:rgb(239,70,67);fill-rule:nonzero;"/>
            </g>
            <g transform="matrix(1,0,0,1,133.886,672.719)">
                <path d="M0,-14.923C-1.944,-10.14 -3.239,-5.213 -3.343,0.066C-3.683,-0.07 -3.983,-0.191 -4.337,-0.333C-4.221,-0.995 -4.114,-1.597 -4.01,-2.2C-3.861,-3.074 -3.724,-3.95 -3.564,-4.821C-3.506,-5.132 -3.393,-5.431 -3.309,-5.737C-2.998,-6.878 -2.708,-8.026 -2.375,-9.161C-2.012,-10.404 -1.653,-11.65 -1.209,-12.865C-0.94,-13.603 -0.512,-14.283 -0.156,-14.989C-0.104,-14.967 -0.052,-14.945 0,-14.923" style="fill:rgb(207,208,210);fill-rule:nonzero;"/>
            </g>
            <g transform="matrix(1,0,0,1,98.2443,696.253)">
                <path d="M0,-4.247C0.258,-4.183 0.354,-4.183 0.422,-4.14C1.168,-3.665 1.917,-3.195 2.651,-2.702C3.359,-2.227 4.041,-1.315 4.237,0C3.206,-0.724 2.237,-1.384 1.298,-2.084C1.119,-2.217 1.062,-2.508 0.936,-2.719C0.658,-3.183 0.371,-3.642 0,-4.247" style="fill:rgb(252,182,85);fill-rule:nonzero;"/>
            </g>
            <g transform="matrix(1,0,0,1,140.295,682.669)">
                <path d="M0,-3.22C0.078,-2.681 0.099,-2.288 -0.399,-2.084C-1.26,-1.731 -1.902,-1.086 -2.554,-0.454C-2.714,-0.298 -2.896,-0.163 -3.089,0C-3.277,-0.145 -3.453,-0.281 -3.678,-0.455C-2.634,-1.619 -1.382,-2.435 0,-3.22" style="fill:rgb(96,97,100);fill-rule:nonzero;"/>
            </g>
            <g transform="matrix(0.402363,0.91548,0.91548,-0.402363,134.526,684.419)">
                <path d="M0.633,-0.439C0.379,-0.151 0.151,0.107 -0.105,0.398C0.17,0.617 0.377,0.783 0.633,0.987C0.886,0.665 1.116,0.372 1.373,0.045C1.139,-0.108 0.94,-0.238 0.633,-0.439" style="fill:rgb(147,149,152);fill-rule:nonzero;"/>
            </g>
            <g transform="matrix(1,0,0,1,126.187,669.747)">
                <path d="M0,0.972C-0.456,0.752 -0.912,0.532 -1.423,0.286C-0.643,0 -0.244,0.166 0,0.972" style="fill:rgb(239,70,67);fill-rule:nonzero;"/>
            </g>
            <g transform="matrix(-0.931078,0.364819,0.364819,0.931078,136.165,684.229)">
                <path d="M0.25,-1.05C0.039,-0.827 -0.126,-0.652 -0.323,-0.442C-0.132,-0.286 0.033,-0.151 0.25,0.027C0.411,-0.172 0.558,-0.351 0.757,-0.598C0.574,-0.762 0.425,-0.894 0.25,-1.05" style="fill:rgb(96,97,100);fill-rule:nonzero;"/>
            </g>
            <g transform="matrix(0.915439,-0.402457,-0.402457,-0.915439,136.722,683.389)">
                <path d="M-0.194,0.021C-0.343,0.254 -0.602,0.393 -0.462,0.685C-0.421,0.768 -0.291,0.84 -0.194,0.853C0.148,0.9 0.251,0.639 0.413,0.332C0.201,0.223 0.018,0.129 -0.194,0.021" style="fill:rgb(147,149,152);fill-rule:nonzero;"/>
            </g>
            <g transform="matrix(1,0,0,1,134.205,686.371)">
                <path d="M0,-0.859C0.249,-0.708 0.418,-0.605 0.678,-0.448C0.356,-0.276 0.11,-0.144 -0.161,0C-0.37,-0.362 -0.106,-0.545 0,-0.859" style="fill:rgb(96,97,100);fill-rule:nonzero;"/>
            </g>
            <g transform="matrix(1,0,0,1,105.919,682.227)">
                <path d="M0,0.167C-0.055,0.75 0.094,1.373 0.387,1.729C0.524,1.124 0.628,0.568 0,0.167M6.207,-0.213C6.173,-0.247 6.139,-0.28 6.105,-0.314C5.267,0.081 4.487,0.564 3.842,1.243C3.787,1.301 3.816,1.439 3.794,1.656C4.659,0.986 5.433,0.387 6.207,-0.213M3.418,1.674C2.483,1.771 1.729,1.356 0.989,0.888C0.687,1.441 0.763,1.967 0.794,2.485C0.807,2.691 0.933,2.842 1.15,2.818C1.971,2.723 2.735,2.466 3.395,1.951C3.418,1.933 3.404,1.866 3.418,1.674M0.277,-0.36C0.535,-0.061 0.718,0.228 0.972,0.426C1.232,0.628 1.572,0.725 1.859,0.897C2.613,1.349 3.124,1.31 3.769,0.742C4.647,-0.031 5.622,-0.644 6.727,-1.044C6.848,-1.088 6.961,-1.155 7.151,-1.247C6.947,-1.415 6.811,-1.571 6.64,-1.659C6.136,-1.918 5.624,-2.164 5.105,-2.39C4.697,-2.568 4.286,-2.611 3.853,-2.402C3.465,-2.216 3.027,-2.13 2.647,-1.931C1.846,-1.514 1.023,-1.117 0.277,-0.36M8.076,-1.123C7.728,-0.85 7.479,-0.62 7.199,-0.439C6.05,0.302 5.017,1.177 4.002,2.093C3.238,2.784 2.26,3.147 1.206,3.22C1.002,3.234 0.797,3.222 0.495,3.222C0.326,2.832 0.103,2.438 -0.017,2.013C-0.201,1.361 -0.344,0.693 -0.439,0.023C-0.469,-0.186 -0.353,-0.515 -0.19,-0.637C0.989,-1.524 2.248,-2.281 3.638,-2.806C4.329,-3.067 4.982,-2.958 5.626,-2.685C6.485,-2.32 7.226,-1.766 8.076,-1.123" style="fill:rgb(35,31,32);fill-rule:nonzero;"/>
            </g>
            <g transform="matrix(1,0,0,1,115.964,691.611)">
                <path d="M0,8.466C0.541,9.025 1.107,9.221 1.736,9.03C2.835,8.697 3.752,8.084 4.316,7.044C4.619,6.486 4.922,5.925 5.184,5.347C5.833,3.913 6.112,2.439 5.573,0.896C5.355,0.273 4.995,-0.214 4.407,-0.554C3.839,-0.883 3.404,-0.549 2.929,-0.356C2.913,-0.35 2.904,-0.33 2.863,-0.285C3.565,0.257 3.778,1.04 3.855,1.87C3.974,3.161 3.79,4.428 3.342,5.631C2.786,7.121 1.823,8.217 0,8.466M3.433,2.393C3.415,2.12 3.45,1.83 3.368,1.578C3.224,1.134 3.073,0.667 2.808,0.294C2.497,-0.143 2.195,-0.126 1.783,0.228C1.526,0.449 1.259,0.674 1.057,0.943C0.415,1.803 -0.021,2.769 -0.425,3.763C-0.763,4.592 -0.858,5.428 -0.805,6.295C-0.783,6.653 -0.731,7.022 -0.611,7.357C-0.371,8.035 -0.172,8.113 0.525,7.902C1.521,7.6 2.252,6.941 2.689,6.036C3.238,4.899 3.491,3.669 3.433,2.393M-1.232,5.944C-1.212,4.577 -0.728,3.398 -0.167,2.245C0.194,1.505 0.69,0.863 1.25,0.255C1.792,-0.334 2.463,-0.704 3.159,-1.044C3.676,-1.297 4.225,-1.18 4.665,-0.892C5.385,-0.421 5.897,0.231 6.116,1.107C6.464,2.498 6.274,3.842 5.753,5.128C5.387,6.03 4.898,6.89 4.394,7.726C3.855,8.622 2.992,9.137 2.012,9.452C1.048,9.763 0.012,9.381 -0.56,8.557C-1.121,7.748 -1.279,6.846 -1.232,5.944" style="fill:rgb(35,31,32);fill-rule:nonzero;"/>
            </g>
            <g transform="matrix(1,0,0,1,141.873,685.25)">
                <path d="M0,4.828C0.761,4.828 1.179,4.669 1.567,4.231C2.567,3.102 2.937,1.742 2.941,0.273C2.941,-0.048 2.801,-0.398 2.637,-0.685C2.398,-1.105 2.064,-1.14 1.685,-0.834C1.44,-0.637 1.209,-0.417 0.997,-0.185C0.178,0.715 -0.097,1.845 -0.264,2.998C-0.351,3.601 -0.349,4.228 0,4.828M2.617,-1.425C3.207,-0.895 3.45,-0.242 3.389,0.489C3.311,1.417 3.138,2.322 2.769,3.199C2.491,3.859 2.053,4.333 1.549,4.805C1.175,5.155 0.714,5.265 0.243,5.415C0.839,6.172 1.132,6.255 1.912,5.955C2.483,5.735 2.921,5.351 3.298,4.885C4.115,3.874 4.625,2.708 4.938,1.464C5.175,0.52 5.068,-0.442 4.854,-1.385C4.795,-1.644 4.646,-1.891 4.352,-1.861C3.778,-1.801 3.173,-1.824 2.617,-1.425M5.439,0.249C5.569,1.66 4.954,2.861 4.365,4.075C3.976,4.874 3.432,5.531 2.721,6.055C2.647,6.109 2.578,6.17 2.5,6.216C0.982,7.106 0.046,6.403 -0.439,5.084C-0.934,3.741 -0.682,2.448 -0.239,1.142C0.171,-0.068 0.989,-0.915 2.009,-1.602C2.795,-2.131 3.697,-2.278 4.623,-2.269C4.767,-2.268 4.954,-2.132 5.046,-2.004C5.334,-1.603 5.414,-1.126 5.436,-0.643C5.45,-0.346 5.439,-0.048 5.439,0.249" style="fill:rgb(35,31,32);fill-rule:nonzero;"/>
            </g>
            <g transform="matrix(1,0,0,1,106.196,681.325)">
                <path d="M0,0.542C0.746,-0.214 1.568,-0.612 2.37,-1.029C2.75,-1.228 3.188,-1.313 3.576,-1.5C4.008,-1.709 4.42,-1.666 4.828,-1.488C5.347,-1.262 5.859,-1.016 6.363,-0.757C6.534,-0.669 6.67,-0.513 6.874,-0.345C6.684,-0.253 6.571,-0.185 6.45,-0.142C5.345,0.258 4.37,0.871 3.492,1.644C2.846,2.213 2.336,2.251 1.582,1.799C1.295,1.627 0.955,1.531 0.695,1.328C0.441,1.13 0.258,0.842 0,0.542" style="fill:rgb(239,70,67);fill-rule:nonzero;"/>
            </g>
            <g transform="matrix(1,0,0,1,109.337,684.284)">
                <path d="M0,-0.383C-0.014,-0.19 0,-0.124 -0.023,-0.106C-0.684,0.409 -1.447,0.666 -2.268,0.76C-2.485,0.786 -2.611,0.634 -2.624,0.428C-2.655,-0.09 -2.731,-0.617 -2.429,-1.169C-1.689,-0.701 -0.935,-0.286 0,-0.383" style="fill:rgb(170,42,30);fill-rule:nonzero;"/>
            </g>
            <g transform="matrix(-0.524258,-0.851559,-0.851559,0.524258,109.529,682.331)">
                <path d="M-1.092,-2.378C-1.197,-1.404 -1.301,-0.431 -1.418,0.657C-1.245,0.524 -1.112,0.477 -1.092,0.399C-0.851,-0.505 -0.849,-1.423 -0.952,-2.344C-0.999,-2.355 -1.045,-2.367 -1.092,-2.378" style="fill:rgb(170,42,30);fill-rule:nonzero;"/>
            </g>
            <g transform="matrix(1,0,0,1,105.919,683.956)">
                <path d="M0,-1.562C0.628,-1.161 0.524,-0.605 0.387,0C0.094,-0.356 -0.055,-0.979 0,-1.562" style="fill:rgb(170,42,30);fill-rule:nonzero;"/>
            </g>
            <g transform="matrix(1,0,0,1,119.398,697.187)">
                <path d="M0,-3.184C0.058,-1.908 -0.195,-0.678 -0.744,0.46C-1.181,1.364 -1.912,2.024 -2.909,2.325C-3.605,2.536 -3.804,2.458 -4.045,1.781C-4.164,1.445 -4.216,1.076 -4.238,0.718C-4.291,-0.149 -4.196,-0.985 -3.858,-1.814C-3.454,-2.807 -3.018,-3.774 -2.376,-4.634C-2.174,-4.903 -1.907,-5.128 -1.65,-5.349C-1.238,-5.703 -0.936,-5.72 -0.625,-5.282C-0.36,-4.909 -0.209,-4.443 -0.065,-3.999C0.017,-3.746 -0.018,-3.457 0,-3.184" style="fill:white;fill-rule:nonzero;"/>
            </g>
            <g transform="matrix(1,0,0,1,115.964,691.483)">
                <path d="M0,8.594C1.823,8.345 2.786,7.249 3.342,5.759C3.79,4.556 3.974,3.289 3.855,1.998C3.778,1.168 3.565,0.385 2.863,-0.157C2.904,-0.202 2.913,-0.222 2.929,-0.228C3.404,-0.421 3.839,-0.755 4.407,-0.426C4.995,-0.086 5.355,0.401 5.573,1.024C6.112,2.567 5.833,4.041 5.184,5.475C4.922,6.053 4.619,6.614 4.316,7.172C3.752,8.212 2.835,8.825 1.736,9.158C1.107,9.349 0.541,9.153 0,8.594" style="fill:rgb(96,97,100);fill-rule:nonzero;"/>
            </g>
            <g transform="matrix(1,0,0,1,144.489,691.04)">
                <path d="M0,-7.215C0.556,-7.613 1.161,-7.591 1.735,-7.65C2.029,-7.681 2.178,-7.433 2.237,-7.175C2.452,-6.231 2.559,-5.269 2.321,-4.325C2.008,-3.082 1.498,-1.915 0.681,-0.905C0.304,-0.438 -0.133,-0.054 -0.704,0.165C-1.485,0.466 -1.777,0.383 -2.373,-0.374C-1.903,-0.525 -1.441,-0.635 -1.067,-0.985C-0.564,-1.456 -0.125,-1.93 0.152,-2.59C0.521,-3.467 0.695,-4.372 0.773,-5.3C0.834,-6.032 0.591,-6.685 0,-7.215" style="fill:rgb(96,97,100);fill-rule:nonzero;"/>
            </g>
            <g transform="matrix(1,0,0,1,141.873,684.11)">
                <path d="M0,5.968C-0.349,5.368 -0.351,4.741 -0.264,4.138C-0.097,2.985 0.178,1.855 0.997,0.955C1.209,0.723 1.44,0.503 1.685,0.306C2.064,0 2.398,0.035 2.637,0.455C2.801,0.742 2.941,1.092 2.941,1.413C2.937,2.882 2.567,4.242 1.567,5.371C1.179,5.809 0.761,5.968 0,5.968" style="fill:white;fill-rule:nonzero;"/>
            </g>
            <g transform="matrix(1,0,0,1,107.001,681.69)">
                <path d="M0,-0.504C0,-0.504 2.398,-0.883 2.146,-0.504C1.893,-0.125 5.644,-0.507 5.644,-0.507L4.481,-0.062C4.481,-0.062 0.568,0.379 0.631,0.127C0.694,-0.125 -0.805,0.177 -0.805,0.177L0,-0.504Z" style="fill:white;fill-rule:nonzero;"/>
            </g>
            <g transform="matrix(1,0,0,1,115.08,671.467)">
                <path d="M0,2.398C0,2.398 4.607,0.505 4.544,1.262C4.481,2.019 10.413,0.883 10.413,0.883L12.941,0.617L11.823,0.324C11.823,0.324 6.158,1.629 6.014,0.814C5.869,0 4.544,0 4.291,0.126C4.039,0.252 -1.05,1.716 -1.05,1.716L0,2.398Z" style="fill:white;fill-rule:nonzero;"/>
            </g>
            <g transform="matrix(1,0,0,1,118.109,682.489)">
                <path d="M0,5.009C0,5.009 3.661,2.295 3.597,2.989C3.534,3.684 3.597,3.999 3.597,3.999L11.411,-0.425L11.423,0.213C11.423,0.213 4.229,5.072 3.787,4.504C3.345,3.936 3.282,3.558 2.84,3.747C2.398,3.936 0.772,5.434 0.772,5.434L0,5.009Z" style="fill:white;fill-rule:nonzero;"/>
            </g>
            <g transform="matrix(1,0,0,1,104.793,691.574)">
                <path d="M0,2.109C0.544,2.374 -0.123,1.764 -0.631,0.721C-1.005,-0.046 3.471,-0.604 3.471,-0.604L1.989,1.526L1.51,2.713L0,2.109Z" style="fill:rgb(255,242,0);fill-rule:nonzero;"/>
            </g>
            <g transform="matrix(1,0,0,1,99.3018,687.245)">
                <path d="M0,1.83L-0.063,0L-0.808,1.314L0,1.83Z" style="fill:rgb(255,242,0);fill-rule:nonzero;"/>
            </g>
        </g>
    </g>
</svg>
