<?xml version="1.0" encoding="UTF-8" standalone="no"?>
<!DOCTYPE svg PUBLIC "-//W3C//DTD SVG 1.1//EN" "http://www.w3.org/Graphics/SVG/1.1/DTD/svg11.dtd">
<svg width="100%" height="100%" viewBox="0 0 70 57" version="1.1" xmlns="http://www.w3.org/2000/svg" xmlns:xlink="http://www.w3.org/1999/xlink" xml:space="preserve" xmlns:serif="http://www.serif.com/" style="fill-rule:evenodd;clip-rule:evenodd;stroke-linejoin:round;stroke-miterlimit:2;">
    <g transform="matrix(1,0,0,1,-121,-231)">
        <g id="i8" transform="matrix(1,0,0,1,-138.129,-427.954)">
            <g transform="matrix(1,0,0,1,313.525,688.838)">
                <path d="M0,-20.469C-0.252,-20.96 -0.615,-20.991 -0.961,-21.002C-1.6,-21.025 -2.243,-21.054 -2.878,-21.004C-4.308,-20.894 -5.755,-20.874 -7.119,-20.333C-10.417,-19.027 -14.11,-15.692 -13.971,-10.344C-13.89,-7.269 -12.685,-4.784 -10.392,-2.829C-9.075,-1.706 -7.558,-0.866 -5.767,-0.756C-4.771,-0.695 -3.767,-0.692 -2.771,-0.746C-1.679,-0.805 -0.656,-1.15 0.233,-1.807C0.339,-1.885 0.356,-2.079 0.415,-2.219C0.277,-2.266 0.126,-2.374 0.005,-2.348C-0.697,-2.195 -1.394,-2.017 -2.088,-1.835C-3.081,-1.575 -4.073,-1.635 -5.316,-1.794C-2.65,-2.408 -0.949,-3.847 0.072,-6.102C0.203,-6.392 0.352,-6.675 0.492,-6.961C1.561,-9.138 1.679,-11.418 1.086,-13.721C0.521,-15.917 -0.58,-17.777 -2.742,-18.799C-3.246,-19.037 -3.774,-19.224 -4.29,-19.439C-4.673,-19.598 -5.052,-19.765 -5.433,-19.929C-5.418,-20.009 -5.402,-20.089 -5.388,-20.17C-3.624,-20.268 -1.86,-20.365 0,-20.469M10.058,-9.646C9.81,-5.463 7.985,-0.98 3.781,2.427C2.022,3.851 0.164,5.017 -1.954,5.828C-3.691,6.492 -5.443,6.606 -7.253,6.392C-7.768,6.331 -8.286,6.24 -8.8,6.254C-9.98,6.286 -11.1,6.038 -12.2,5.651C-12.69,5.48 -13.18,5.303 -13.677,5.158C-14.846,4.817 -15.893,4.255 -16.827,3.479C-16.92,3.403 -17.009,3.32 -17.11,3.258C-19.517,1.768 -20.998,-0.484 -22.202,-2.949C-22.531,-3.625 -22.807,-4.343 -22.992,-5.072C-23.316,-6.343 -23.522,-7.646 -23.832,-8.922C-24.17,-10.317 -24.073,-11.692 -23.767,-13.067C-23.533,-14.116 -23.266,-15.158 -23.017,-16.204C-22.736,-17.383 -22.243,-18.463 -21.55,-19.457C-21.23,-19.915 -20.909,-20.378 -20.646,-20.868C-19.387,-23.211 -17.379,-24.65 -14.951,-25.562C-12.847,-26.353 -10.665,-26.839 -8.421,-27.003C-7.425,-27.075 -6.442,-26.991 -5.449,-26.771C-4.093,-26.471 -2.697,-26.348 -1.321,-26.133C-0.969,-26.078 -0.607,-26.01 -0.282,-25.87C1.636,-25.049 3.45,-24.039 5.027,-22.661C5.471,-22.275 5.847,-21.788 6.172,-21.294C6.763,-20.395 7.26,-19.434 7.854,-18.537C9.426,-16.162 10.096,-13.545 10.058,-9.646" style="fill:rgb(0,174,239);fill-rule:nonzero;"/>
            </g>
            <g transform="matrix(1,0,0,1,304.198,693.641)">
                <path d="M0,-32.502C-1.286,-32.234 -2.572,-31.961 -3.86,-31.702C-4.094,-31.655 -4.337,-31.65 -4.576,-31.648C-7.65,-31.621 -10.383,-30.706 -12.655,-28.574C-12.855,-28.387 -13.092,-28.14 -13.333,-28.113C-14.892,-27.941 -15.771,-26.787 -16.665,-25.753C-18.3,-23.861 -19.085,-21.56 -19.486,-19.121C-19.596,-18.454 -19.67,-17.779 -19.74,-17.106C-20.027,-14.34 -19.097,-11.875 -17.962,-9.413C-16.874,-7.051 -15.203,-5.276 -12.93,-4.16C-11.674,-3.543 -10.77,-2.581 -9.711,-1.769C-8.702,-0.993 -7.695,-0.216 -6.447,0.745C-7.424,0.685 -8.159,0.762 -8.822,0.578C-12.08,-0.326 -15.176,-1.593 -17.76,-3.855C-18.389,-4.404 -19.026,-4.973 -19.53,-5.631C-21.263,-7.899 -22.71,-10.325 -23.216,-13.191C-23.552,-15.093 -23.408,-17.006 -23.278,-18.915C-23.248,-19.351 -23.144,-19.781 -23.077,-20.214C-22.739,-22.395 -21.889,-24.312 -20.394,-25.981C-19.253,-27.254 -18.347,-28.722 -16.977,-29.807C-15.705,-30.814 -14.282,-31.544 -12.79,-32.084C-9.526,-33.264 -6.127,-33.216 -2.723,-32.927C-2.205,-32.883 -1.686,-32.87 -1.168,-32.827C-0.782,-32.795 -0.398,-32.738 -0.014,-32.693C-0.01,-32.629 -0.005,-32.565 0,-32.502" style="fill:rgb(19,117,188);fill-rule:nonzero;"/>
            </g>
            <g transform="matrix(1,0,0,1,276.814,688.523)">
                <path d="M0,17.905C-0.936,17.107 -0.975,16.646 -0.08,15.846C1.463,14.467 3.325,13.756 5.336,13.485C7.947,13.134 10.566,12.766 13.194,12.638C15.421,12.529 17.671,12.675 19.901,12.843C23.009,13.078 26.102,13.377 29.23,13.052C31.851,12.78 34.495,12.724 37.121,12.493C38.347,12.385 39.589,12.2 40.769,11.859C43.118,11.179 45.334,10.157 47.449,8.926C47.792,8.726 48.112,8.481 48.428,8.238C50.008,7.019 49.81,5.445 48.782,4.149C48.125,3.319 47.223,2.775 46.255,2.375C45.631,2.117 44.967,1.953 44.322,1.747C44.062,1.664 43.802,1.582 43.554,1.503C43.573,1.371 43.557,1.28 43.596,1.231C44.552,0.026 44.559,0 46.062,0.325C46.836,0.493 47.594,0.754 48.343,1.02C49.334,1.372 50.019,2.122 50.51,2.998C50.792,3.499 50.876,4.117 51,4.693C51.134,5.311 51.286,5.941 51.296,6.568C51.314,7.598 50.912,8.467 50.201,9.258C48.844,10.766 47.116,11.632 45.278,12.347C44.609,12.608 43.927,12.843 43.275,13.141C40.707,14.312 37.992,14.964 35.216,15.348C34.116,15.501 32.981,15.437 31.863,15.432C29.063,15.42 26.263,15.407 23.464,15.349C21.907,15.317 20.351,15.19 18.794,15.115C15.763,14.967 12.731,14.751 9.698,14.706C6.939,14.665 4.34,15.509 1.841,16.605C1.171,16.899 0.619,17.459 0,17.905" style="fill:rgb(255,252,216);fill-rule:nonzero;"/>
            </g>
            <g transform="matrix(1,0,0,1,275.082,713.688)">
                <path d="M0,-5.036C-1.406,-3.721 -2.741,-2.472 -4.078,-1.223C-4.136,-1.168 -4.202,-1.122 -4.265,-1.073C-6.981,1.027 -9.045,1.394 -12.317,0.35C-12.621,0.252 -12.925,0.145 -13.209,0.003C-14.605,-0.69 -15,-2.257 -14.09,-3.527C-12.998,-5.05 -11.496,-5.862 -9.627,-5.963C-8.71,-6.012 -7.79,-6.001 -6.87,-6C-5,-5.998 -3.144,-6.141 -1.242,-6.43C-1.898,-6.002 -2.54,-5.549 -3.219,-5.16C-3.438,-5.035 -3.755,-5.046 -4.025,-5.054C-5.557,-5.098 -7.049,-4.924 -8.499,-4.388C-9.205,-4.126 -9.978,-4.031 -10.664,-3.73C-11.276,-3.462 -11.308,-3.865 -11.459,-4.255C-11.86,-4.133 -11.894,-3.811 -11.892,-3.502C-11.887,-2.774 -11.155,-1.695 -10.124,-1.479C-9,-1.245 -8.002,-1.634 -6.996,-2.028C-5.264,-2.707 -3.828,-3.865 -2.308,-4.889C-2.043,-5.067 -1.774,-5.239 -1.505,-5.411C-0.676,-5.938 -0.676,-5.937 0,-5.036" style="fill:rgb(255,252,216);fill-rule:nonzero;"/>
            </g>
            <g transform="matrix(1,0,0,1,291.462,666.368)">
                <path d="M0,22.125C-1.636,21.248 -3.02,20.123 -3.912,18.46C-4.724,16.947 -5.437,15.39 -5.888,13.733C-6.095,12.975 -6.262,12.17 -6.242,11.392C-6.185,9.119 -5.914,6.87 -5.073,4.728C-4.33,2.834 -3.298,1.167 -1.264,0C-1.485,0.428 -1.574,0.716 -1.753,0.93C-3.104,2.547 -3.695,4.474 -4.044,6.495C-4.389,8.494 -4.695,10.492 -4.632,12.54C-4.574,14.422 -4.05,16.146 -3.117,17.751C-2.845,18.22 -2.431,18.634 -2.006,18.979C-0.986,19.81 -0.501,20.959 0,22.125" style="fill:rgb(255,249,176);fill-rule:nonzero;"/>
            </g>
            <g transform="matrix(1,0,0,1,289.385,663.467)">
                <path d="M0,20.424C-0.926,19.216 -1.459,17.853 -1.604,16.376C-1.915,13.207 -1.617,10.055 -0.649,7.044C0.448,3.631 2.824,1.287 6.215,0.022C6.275,0 6.362,0.053 6.624,0.117C5.232,0.967 4.092,1.924 3.286,3.217C2.483,4.502 1.509,5.709 0.901,7.079C0.278,8.485 0.02,10.048 -0.419,11.536C-0.855,13.013 -0.994,14.518 -0.777,16.032C-0.567,17.5 -0.093,18.925 0,20.424" style="fill:rgb(255,252,216);fill-rule:nonzero;"/>
            </g>
            <g transform="matrix(1,0,0,1,270.43,711.623)">
                <path d="M0,-2.216C-0.08,-2.047 -0.094,-1.949 -0.147,-1.915C-1.35,-1.143 -2.594,-0.446 -3.994,-0.097C-4.612,0.057 -5.257,0.107 -5.836,-0.271C-6.225,-0.525 -6.236,-0.971 -5.822,-1.095C-3.94,-1.659 -2.069,-2.323 0,-2.216" style="fill:white;fill-rule:nonzero;"/>
            </g>
            <g transform="matrix(-0.958829,-0.283985,-0.283985,0.958829,274.271,708.064)">
                <path d="M-0.427,-4.448C0,-2.781 -0.573,-1.898 -2.289,-1.39C-1.828,-0.321 -1.294,-0.13 -0.427,-0.817C0.001,-1.157 0.388,-1.588 0.679,-2.051C1.169,-2.834 0.759,-3.741 -0.427,-4.448" style="fill:rgb(255,249,176);fill-rule:nonzero;"/>
            </g>
            <g transform="matrix(1,0,0,1,277.702,707.908)">
                <path d="M0,-1.494C0.252,-1.672 0.43,-1.83 0.636,-1.936C1.115,-2.184 1.311,-2.078 1.28,-1.543C1.253,-1.074 1.205,-0.587 1.048,-0.15C0.766,0.638 0.461,0.69 -0.42,0.17C0.043,-0.159 0.487,-0.473 1.055,-0.877C0.692,-1.089 0.416,-1.251 0,-1.494" style="fill:rgb(255,249,176);fill-rule:nonzero;"/>
            </g>
            <g transform="matrix(1,0,0,1,314.053,678.036)">
                <path d="M0,-0.388C0.167,2.126 -0.954,4.211 -2.375,6.107C-3.363,7.425 -4.869,8.059 -6.548,8.18C-7.094,8.22 -7.653,8.032 -8.191,8.349C-8.334,8.433 -8.655,8.306 -8.85,8.197C-11.838,6.508 -13.39,3.945 -13.548,0.519C-13.711,-3.012 -12.247,-5.723 -9.447,-7.795C-8.364,-8.596 -7.218,-8.821 -5.952,-8.3C-5.177,-7.982 -4.365,-7.731 -3.633,-7.332C-1.318,-6.075 -0.331,-3.975 -0.052,-1.464C-0.012,-1.108 -0.016,-0.746 0,-0.388" style="fill:rgb(241,120,167);fill-rule:nonzero;"/>
            </g>
            <g transform="matrix(1,0,0,1,294.76,683.566)">
                <path d="M0,-14.755C-2.402,-11.071 -3.081,-6.313 -1.805,-2.105C-1.189,-0.078 0.011,1.956 1.989,2.712C0.202,-0.173 -0.519,-3.702 -0.006,-7.057C0.506,-10.411 2.247,-13.565 4.813,-15.784C5.054,-15.993 5.328,-16.267 5.253,-16.575C5.112,-17.151 3.317,-17.467 2.861,-17.387C1.691,-17.18 0.595,-15.668 0,-14.755" style="fill:white;fill-rule:nonzero;"/>
            </g>
            <g transform="matrix(1,0,0,1,298.344,691.973)">
                <path d="M0,-3.85C-0.255,-4.108 -0.718,-4.023 -0.975,-3.767C-1.231,-3.511 -1.334,-3.142 -1.42,-2.789C-1.539,-2.301 -1.646,-1.797 -1.588,-1.297C-1.528,-0.797 -1.274,-0.294 -0.829,-0.06C-0.224,0.258 0.597,-0.048 0.929,-0.645C1.261,-1.243 1.135,-2.032 0.71,-2.567C0.284,-3.102 -0.395,-3.397 -1.075,-3.457" style="fill:white;fill-rule:nonzero;"/>
            </g>
            <g transform="matrix(1,0,0,1,318.131,679.122)">
                <path d="M0,-3.033C-0.105,-5.805 -1.344,-8.618 -3.63,-10.188C-5.917,-11.759 -9.28,-11.806 -11.345,-9.955C-10.059,-10.29 -8.657,-9.878 -7.587,-9.09C-6.517,-8.303 -5.74,-7.177 -5.125,-5.998C-4.531,-4.857 -4.067,-3.639 -3.866,-2.369C-3.492,0.001 -4.085,2.51 -5.479,4.462C-6.891,6.439 -8.992,7.662 -11.326,8.207C-9.095,8.697 -5.361,8.773 -3.6,7.048C-1.187,4.685 0.124,0.262 0,-3.033" style="fill:rgb(0,145,214);fill-rule:nonzero;"/>
            </g>
            <g transform="matrix(1,0,0,1,277.702,668.683)">
                <path d="M0,37.731C0.416,37.974 0.692,38.136 1.055,38.348C0.487,38.752 0.043,39.066 -0.42,39.395C0.461,39.915 0.766,39.863 1.048,39.075C1.205,38.638 1.253,38.151 1.28,37.682C1.311,37.147 1.115,37.041 0.636,37.289C0.43,37.395 0.252,37.553 0,37.731M-1.758,35.237C-3.096,35.578 -3.748,36.331 -3.499,37.221C-3.352,37.748 -3.104,38.271 -2.789,38.718C-2.153,39.623 -1.587,39.592 -0.842,38.698C-2.342,37.723 -2.642,36.713 -1.758,35.237M-7.271,40.724C-9.341,40.617 -11.212,41.281 -13.094,41.845C-13.508,41.969 -13.497,42.416 -13.107,42.669C-12.529,43.047 -11.884,42.998 -11.265,42.843C-9.866,42.494 -8.622,41.797 -7.419,41.025C-7.365,40.991 -7.352,40.893 -7.271,40.724M11.683,15.208C11.59,13.709 11.116,12.284 10.906,10.816C10.689,9.301 10.828,7.796 11.264,6.32C11.703,4.832 11.961,3.268 12.584,1.863C13.192,0.493 14.166,-0.714 14.969,-1.999C15.775,-3.292 16.915,-4.249 18.307,-5.099C18.045,-5.164 17.958,-5.216 17.898,-5.195C14.507,-3.929 12.131,-1.585 11.034,1.828C10.066,4.838 9.769,7.991 10.079,11.16C10.224,12.636 10.757,14 11.683,15.208M13.76,19.81C13.259,18.644 12.774,17.495 11.754,16.665C11.33,16.319 10.915,15.905 10.643,15.436C9.71,13.832 9.187,12.107 9.128,10.225C9.065,8.177 9.372,6.179 9.716,4.18C10.065,2.159 10.657,0.232 12.007,-1.385C12.186,-1.599 12.275,-1.887 12.496,-2.315C10.462,-1.148 9.431,0.519 8.688,2.413C7.846,4.555 7.576,6.804 7.518,9.077C7.499,9.855 7.666,10.66 7.872,11.419C8.323,13.075 9.037,14.632 9.848,16.145C10.74,17.808 12.124,18.933 13.76,19.81M-2.62,39.969C-3.295,39.068 -3.296,39.067 -4.125,39.594C-4.394,39.766 -4.663,39.938 -4.928,40.117C-6.447,41.14 -7.883,42.298 -9.615,42.977C-10.622,43.372 -11.62,43.76 -12.743,43.526C-13.774,43.31 -14.507,42.231 -14.511,41.503C-14.513,41.194 -14.48,40.873 -14.079,40.751C-13.928,41.14 -13.896,41.544 -13.283,41.275C-12.598,40.974 -11.824,40.879 -11.118,40.618C-9.668,40.082 -8.177,39.908 -6.645,39.952C-6.375,39.96 -6.057,39.97 -5.839,39.845C-5.16,39.457 -4.518,39.003 -3.861,38.576C-5.763,38.864 -7.619,39.007 -9.49,39.005C-10.409,39.004 -11.33,38.994 -12.247,39.043C-14.116,39.143 -15.618,39.956 -16.71,41.478C-17.62,42.749 -17.225,44.315 -15.829,45.008C-15.544,45.15 -15.24,45.257 -14.937,45.355C-11.665,46.399 -9.601,46.033 -6.885,43.932C-6.822,43.883 -6.756,43.837 -6.698,43.783C-5.361,42.534 -4.025,41.285 -2.62,39.969M-0.888,37.745C-0.269,37.298 0.283,36.739 0.953,36.445C3.452,35.348 6.051,34.504 8.81,34.545C11.843,34.59 14.875,34.807 17.906,34.955C19.463,35.03 21.019,35.157 22.576,35.189C25.375,35.247 28.175,35.259 30.975,35.272C32.093,35.277 33.228,35.34 34.328,35.188C37.104,34.803 39.818,34.152 42.387,32.981C43.039,32.683 43.721,32.448 44.39,32.187C46.228,31.471 47.956,30.606 49.313,29.097C50.023,28.306 50.426,27.438 50.408,26.408C50.397,25.781 50.246,25.151 50.112,24.533C49.988,23.957 49.903,23.338 49.622,22.837C49.131,21.961 48.446,21.211 47.455,20.86C46.706,20.593 45.948,20.333 45.174,20.165C43.671,19.839 43.664,19.866 42.708,21.071C42.669,21.12 42.685,21.21 42.666,21.342C42.914,21.421 43.174,21.503 43.434,21.586C44.079,21.793 44.743,21.957 45.367,22.214C46.335,22.615 47.236,23.159 47.894,23.989C48.922,25.285 49.12,26.859 47.54,28.078C47.224,28.321 46.904,28.566 46.561,28.766C44.446,29.997 42.229,31.019 39.881,31.699C38.701,32.04 37.459,32.225 36.232,32.333C33.606,32.564 30.963,32.62 28.342,32.892C25.214,33.216 22.121,32.918 19.013,32.683C16.783,32.514 14.533,32.369 12.306,32.478C9.678,32.606 7.059,32.973 4.448,33.325C2.437,33.595 0.575,34.307 -0.968,35.686C-1.863,36.486 -1.824,36.947 -0.888,37.745M26.496,-7.544C26.491,-7.608 26.486,-7.671 26.482,-7.736C26.098,-7.781 25.714,-7.837 25.328,-7.87C24.811,-7.913 24.291,-7.925 23.773,-7.969C20.369,-8.258 16.97,-8.306 13.707,-7.126C12.214,-6.586 10.791,-5.856 9.52,-4.849C8.149,-3.764 7.243,-2.296 6.103,-1.023C4.607,0.646 3.757,2.563 3.419,4.744C3.352,5.176 3.248,5.607 3.218,6.043C3.088,7.952 2.944,9.865 3.28,11.766C3.786,14.632 5.233,17.058 6.966,19.327C7.47,19.985 8.107,20.553 8.736,21.103C11.32,23.365 14.416,24.631 17.674,25.536C18.337,25.719 19.072,25.642 20.049,25.703C18.801,24.742 17.794,23.964 16.785,23.189C15.727,22.377 14.822,21.415 13.566,20.797C11.293,19.681 9.623,17.907 8.534,15.544C7.399,13.083 6.469,10.618 6.756,7.851C6.826,7.178 6.9,6.503 7.01,5.836C7.411,3.398 8.196,1.096 9.831,-0.795C10.725,-1.83 11.604,-2.984 13.163,-3.156C13.404,-3.182 13.641,-3.429 13.841,-3.617C16.113,-5.748 18.846,-6.664 21.92,-6.691C22.159,-6.693 22.402,-6.698 22.636,-6.745C23.924,-7.003 25.21,-7.277 26.496,-7.544M45.881,10.509C45.919,6.61 45.249,3.993 43.677,1.618C43.083,0.721 42.586,-0.24 41.995,-1.139C41.67,-1.633 41.294,-2.12 40.851,-2.506C39.273,-3.884 37.459,-4.894 35.541,-5.715C35.216,-5.855 34.854,-5.923 34.502,-5.978C33.126,-6.193 31.73,-6.316 30.374,-6.616C29.381,-6.836 28.398,-6.92 27.402,-6.848C25.158,-6.684 22.977,-6.198 20.872,-5.407C18.444,-4.495 16.437,-3.056 15.178,-0.713C14.914,-0.223 14.593,0.24 14.273,0.698C13.581,1.692 13.087,2.772 12.807,3.951C12.557,4.997 12.29,6.039 12.057,7.088C11.75,8.463 11.653,9.838 11.991,11.233C12.301,12.509 12.507,13.812 12.832,15.084C13.017,15.812 13.292,16.53 13.622,17.206C14.825,19.671 16.307,21.923 18.713,23.413C18.814,23.475 18.903,23.558 18.996,23.634C19.931,24.41 20.978,24.972 22.146,25.313C22.644,25.459 23.133,25.635 23.623,25.806C24.724,26.193 25.843,26.441 27.023,26.409C27.537,26.395 28.056,26.486 28.57,26.547C30.38,26.761 32.132,26.647 33.869,25.983C35.987,25.172 37.846,24.006 39.604,22.582C43.809,19.175 45.633,14.692 45.881,10.509M44.03,19.152C44.645,19.295 45.029,19.365 45.402,19.476C46.164,19.703 46.921,19.945 47.676,20.194C48.891,20.594 49.616,21.549 50.307,22.54C50.329,22.572 50.357,22.605 50.367,22.642C50.834,24.401 51.499,26.128 50.841,28.002C50.433,29.163 49.549,29.912 48.682,30.658C47.49,31.685 46.06,32.323 44.59,32.867C43.804,33.157 43.023,33.468 42.249,33.789C38.548,35.316 34.725,36.169 30.693,35.98C29.216,35.911 27.734,35.923 26.255,35.924C23.135,35.927 20.024,35.773 16.912,35.543C14.126,35.336 11.326,35.268 8.531,35.231C6.428,35.204 4.442,35.873 2.46,36.502C2.043,36.634 1.97,36.92 1.939,37.321C1.887,37.988 1.837,38.68 1.62,39.304C1.276,40.292 0.78,40.488 -0.259,40.243C-0.375,40.215 -0.491,40.177 -0.597,40.125C-1.134,39.852 -1.606,39.973 -2.024,40.364C-2.926,41.208 -3.843,42.038 -4.714,42.913C-6.113,44.316 -7.709,45.427 -9.513,46.235C-9.868,46.394 -10.279,46.484 -10.668,46.502C-12.32,46.577 -13.945,46.351 -15.511,45.832C-17.936,45.026 -18.563,42.656 -16.921,40.693C-15.631,39.15 -13.945,38.441 -11.982,38.368C-10.544,38.313 -9.102,38.39 -7.664,38.338C-6.75,38.305 -5.833,38.186 -4.931,38.025C-4.125,37.881 -4.132,37.832 -4.057,37.014C-3.93,35.659 -3.112,34.874 -1.757,34.727C-1.339,34.681 -0.884,34.568 -0.538,34.344C1.327,33.139 3.406,32.633 5.57,32.387C7.514,32.166 9.457,31.927 11.406,31.769C12.599,31.672 13.807,31.639 15,31.708C17.513,31.853 20.018,32.109 22.529,32.271C23.804,32.353 25.09,32.408 26.363,32.338C29.195,32.183 32.021,31.93 34.852,31.74C36.569,31.624 38.31,31.533 39.919,30.912C41.965,30.124 43.951,29.179 45.947,28.267C46.376,28.072 46.752,27.749 47.125,27.451C48.03,26.729 48.333,25.892 47.394,24.511C47.176,24.19 46.841,23.937 46.527,23.694C45.394,22.815 44.067,22.388 42.685,22.103C42.141,21.991 41.683,22.101 41.257,22.502C40.676,23.047 40.036,23.531 39.426,24.046C37.074,26.033 34.333,27.156 31.322,27.662C30.816,27.747 30.285,27.741 29.771,27.703C28.417,27.601 27.062,27.493 25.715,27.321C24.969,27.225 24.232,27.023 23.506,26.82C23.04,26.689 22.615,26.531 22.114,26.73C21.832,26.843 21.478,26.854 21.169,26.812C19.318,26.563 17.42,26.647 15.639,25.912C13.498,25.028 11.336,24.225 9.437,22.829C7.438,21.359 5.777,19.644 4.6,17.446C3.749,15.858 2.913,14.28 2.544,12.494C2.185,10.758 2.077,9.013 2.342,7.263C2.574,5.73 2.844,4.201 3.173,2.686C3.306,2.074 3.566,1.46 3.894,0.922C5.396,-1.547 7.138,-3.846 9.448,-5.614C11.638,-7.29 14.135,-8.369 16.913,-8.6C18.743,-8.752 20.59,-8.846 22.422,-8.782C24.769,-8.699 27.133,-8.584 29.34,-7.594C29.686,-7.439 30.121,-7.42 30.511,-7.436C32.087,-7.497 33.629,-7.23 35.129,-6.832C36.119,-6.569 37.085,-6.11 37.972,-5.587C39.239,-4.839 40.448,-3.984 41.634,-3.109C42.07,-2.787 42.418,-2.31 42.722,-1.849C43.423,-0.783 44.063,0.323 44.744,1.404C47.018,5.017 47.462,8.92 46.545,13.016C46.074,15.12 45.49,17.196 44.03,19.152" style="fill:rgb(35,31,32);fill-rule:nonzero;"/>
            </g>
            <g transform="matrix(1,0,0,1,314.053,678.284)">
                <path d="M0,-0.636C-0.016,-0.994 -0.012,-1.356 -0.052,-1.712C-0.331,-4.223 -1.318,-6.323 -3.633,-7.58C-4.365,-7.979 -5.177,-8.23 -5.952,-8.548C-7.218,-9.069 -8.364,-8.844 -9.447,-8.043C-12.247,-5.971 -13.711,-3.26 -13.548,0.271C-13.39,3.697 -11.838,6.26 -8.85,7.949C-8.655,8.058 -8.334,8.185 -8.191,8.101C-7.653,7.784 -7.094,7.972 -6.548,7.932C-4.869,7.811 -3.363,7.177 -2.375,5.859C-0.954,3.963 0.167,1.878 0,-0.636M-0.528,-9.914C-2.389,-9.811 -4.152,-9.713 -5.916,-9.615C-5.931,-9.534 -5.946,-9.454 -5.961,-9.374C-5.58,-9.21 -5.201,-9.043 -4.818,-8.884C-4.303,-8.669 -3.774,-8.483 -3.271,-8.244C-1.108,-7.222 -0.008,-5.363 0.558,-3.166C1.15,-0.864 1.032,1.417 -0.036,3.593C-0.177,3.88 -0.325,4.163 -0.456,4.453C-1.478,6.708 -3.179,8.146 -5.845,8.76C-4.602,8.92 -3.609,8.979 -2.616,8.719C-1.922,8.538 -1.226,8.36 -0.523,8.207C-0.402,8.18 -0.251,8.289 -0.113,8.336C-0.172,8.475 -0.189,8.67 -0.295,8.748C-1.185,9.405 -2.207,9.75 -3.3,9.808C-4.295,9.863 -5.3,9.86 -6.295,9.799C-8.086,9.688 -9.604,8.848 -10.92,7.725C-13.213,5.77 -14.418,3.286 -14.499,0.211C-14.639,-5.137 -10.945,-8.472 -7.647,-9.779C-6.283,-10.32 -4.836,-10.339 -3.406,-10.449C-2.771,-10.499 -2.128,-10.47 -1.489,-10.448C-1.144,-10.437 -0.78,-10.406 -0.528,-9.914" style="fill:rgb(35,31,32);fill-rule:nonzero;"/>
            </g>
            <g transform="matrix(1,0,0,1,308.577,674.78)">
                <path d="M0,6.605C2.958,5.128 4.564,-2.298 -0.229,-0.529C-3.958,0.848 -4.603,8.903 0,6.605" style="fill:white;fill-rule:nonzero;"/>
            </g>
        </g>
    </g>
</svg>
