<?xml version="1.0" encoding="UTF-8" standalone="no"?>
<!DOCTYPE svg PUBLIC "-//W3C//DTD SVG 1.1//EN" "http://www.w3.org/Graphics/SVG/1.1/DTD/svg11.dtd">
<svg width="100%" height="100%" viewBox="0 0 64 49" version="1.1" xmlns="http://www.w3.org/2000/svg" xmlns:xlink="http://www.w3.org/1999/xlink" xml:space="preserve" xmlns:serif="http://www.serif.com/" style="fill-rule:evenodd;clip-rule:evenodd;stroke-linejoin:round;stroke-miterlimit:2;">
    <g transform="matrix(1,0,0,1,-215,-235)">
        <g id="i9" transform="matrix(1,0,0,1,-220.86,-423.679)">
            <g transform="matrix(1,0,0,1,468.726,692.718)">
                <path d="M0,-21.326C-0.067,-20.634 0.29,-20.092 0.998,-19.809C1.772,-19.498 2.607,-19.689 3.108,-20.287C3.781,-21.094 3.482,-22.208 2.481,-22.519C2.159,-22.619 1.796,-22.611 1.452,-22.609C0.536,-22.601 0.083,-22.189 0,-21.326M11.574,-14.214C12.738,-14.225 13.873,-14.79 14.571,-15.707C15.4,-16.796 15.278,-18.348 14.209,-18.966C12.917,-19.712 11.57,-19.942 10.174,-19.068C9.043,-18.359 8.775,-17.346 9.072,-15.824C9.273,-14.797 10.288,-14.201 11.574,-14.214M22.661,-15.723C22.421,-15.695 22.031,-15.681 21.655,-15.599C20.501,-15.344 19.722,-14.53 19.53,-13.414C19.175,-11.366 20.63,-9.654 22.718,-9.63C23.862,-9.616 24.638,-10.154 25.093,-11.155C25.489,-12.025 25.562,-12.942 25.261,-13.864C24.854,-15.107 23.992,-15.754 22.661,-15.723M14.277,-5.907C16.57,-5.917 18.207,-8.143 17.341,-10.109C16.976,-10.941 16.383,-11.604 15.589,-12.072C14.811,-12.531 14.061,-12.542 13.317,-11.98C13.075,-11.797 12.8,-11.644 12.518,-11.531C11.349,-11.062 10.974,-10.493 10.895,-9.278C10.787,-7.627 12.418,-5.75 14.277,-5.907M20.21,-16.166C21.2,-16.262 22.562,-16.689 23.203,-18.188C23.834,-19.663 23.446,-20.754 22.178,-21.305C21.34,-21.668 20.424,-21.94 19.521,-22.04C18.28,-22.176 17.167,-21.462 16.801,-20.461C15.88,-17.946 17.47,-16.098 20.21,-16.166M5.129,-22.889C6.5,-22.805 8.052,-23.472 8.896,-23.954C9.626,-24.369 9.948,-25.017 9.749,-25.803C9.473,-26.896 8.744,-27.755 8.039,-28.603C7.908,-28.762 7.638,-28.825 7.418,-28.889C5.196,-29.535 3.297,-28.828 1.654,-27.372C0.583,-26.42 0.399,-24.536 2.155,-23.598C3.058,-23.115 4.023,-22.89 5.129,-22.889M3.659,-8.116C3.667,-8.163 3.675,-8.208 3.683,-8.255C4.109,-8.255 4.537,-8.222 4.959,-8.26C7.357,-8.474 8.523,-10.36 7.61,-12.499C7.512,-12.728 7.446,-13.026 7.505,-13.255C7.884,-14.741 7.226,-15.83 6.161,-16.717C4.335,-18.24 2.349,-17.937 0.381,-17.057C-1.517,-16.209 -1.919,-13.957 -0.64,-12.502C-0.29,-12.105 -0.243,-11.756 -0.366,-11.246C-0.686,-9.915 -0.229,-9.043 1.067,-8.623C1.899,-8.354 2.793,-8.279 3.659,-8.116M-6.966,-23.802C-6.521,-24.364 -6.069,-24.886 -5.673,-25.448C-5.102,-26.26 -5.253,-26.972 -6.066,-27.516C-6.813,-28.017 -7.626,-28.36 -8.511,-28.543C-10.725,-29.001 -10.02,-29.21 -11.577,-27.65C-12.061,-27.164 -12.545,-26.678 -13.03,-26.191C-13.656,-26.485 -14.291,-26.763 -14.909,-27.077C-15.871,-27.567 -16.062,-27.561 -16.852,-26.83C-18.118,-25.659 -18.983,-24.179 -19.919,-22.761C-20.32,-22.153 -20.075,-21.692 -19.337,-21.469C-18.747,-21.291 -18.136,-21.179 -17.536,-21.028C-17.171,-20.936 -16.811,-20.826 -16.366,-20.702C-16.695,-20.158 -17.015,-19.717 -17.245,-19.233C-17.641,-18.397 -18.03,-17.552 -18.327,-16.678C-18.532,-16.073 -18.304,-15.687 -17.686,-15.524C-16.528,-15.22 -15.353,-14.98 -14.181,-14.729C-13.623,-14.609 -13.243,-14.807 -12.961,-15.344C-12.439,-16.337 -11.848,-17.292 -11.282,-18.261C-10.851,-18.999 -10.816,-19.012 -9.994,-18.758C-9.773,-18.69 -9.558,-18.599 -9.339,-18.525C-8.203,-18.144 -7.072,-17.747 -5.928,-17.393C-5.353,-17.215 -4.74,-17.173 -4.367,-17.777C-3.736,-18.795 -3.149,-19.841 -2.547,-20.877C-2.335,-21.241 -2.442,-21.556 -2.749,-21.798C-2.992,-21.988 -3.247,-22.177 -3.525,-22.302C-4.613,-22.793 -5.712,-23.259 -6.966,-23.802M-8.93,-6.219C-10.417,-6.087 -11.612,-5.99 -12.804,-5.868C-13.069,-5.841 -13.351,-5.766 -13.57,-5.625C-13.725,-5.527 -13.915,-5.229 -13.867,-5.112C-13.709,-4.723 -13.949,-4.507 -14.144,-4.297C-15.574,-2.777 -16.942,-1.187 -18.478,0.219C-20.455,2.031 -22.7,3.469 -25.256,4.389C-26.385,4.795 -27.53,4.847 -28.69,4.751C-29.451,4.69 -30.113,4.324 -30.498,3.634C-30.894,2.926 -31.256,2.196 -31.574,1.451C-31.802,0.917 -31.888,0.346 -31.766,-0.253C-31.689,-0.628 -31.699,-1.024 -31.7,-1.411C-31.709,-4.273 -31.171,-7.018 -30.042,-9.656C-29.54,-10.828 -29.251,-12.101 -28.674,-13.23C-27.281,-15.95 -25.891,-18.684 -24.288,-21.281C-21.863,-25.209 -18.659,-28.34 -14.37,-30.279C-12.017,-31.342 -9.623,-32.131 -7.029,-32.24C-6.063,-32.28 -5.099,-32.382 -4.133,-32.404C-3.637,-32.415 -3.139,-32.293 -2.64,-32.263C-2.023,-32.227 -1.403,-32.179 -0.788,-32.215C0.93,-32.316 2.604,-32.127 4.246,-31.61C5.94,-31.074 7.653,-30.594 9.334,-30.018C10.575,-29.594 11.776,-29.048 13.001,-28.571C14.622,-27.939 16.27,-27.368 17.866,-26.679C18.816,-26.269 19.695,-25.69 20.596,-25.169C21.064,-24.897 21.506,-24.582 21.965,-24.295C22.26,-24.11 22.607,-23.987 22.858,-23.757C24.224,-22.502 25.607,-21.26 26.906,-19.938C27.785,-19.044 28.324,-17.92 28.601,-16.678C28.71,-16.19 28.864,-15.704 29.053,-15.24C29.715,-13.611 29.515,-11.971 29.126,-10.338C28.886,-9.328 28.569,-8.335 28.269,-7.34C28.216,-7.162 28.089,-7.001 27.972,-6.849C25.646,-3.819 22.939,-1.181 19.837,1.053C17.828,2.5 15.826,3.958 13.829,5.422C12.223,6.599 10.463,7.495 8.627,8.229C6.509,9.077 4.361,9.859 2.204,10.607C0.816,11.089 -0.625,11.003 -2.038,10.674C-2.793,10.498 -2.895,10.341 -2.685,9.611C-2.367,8.5 -2.059,7.37 -1.583,6.323C-0.54,4.03 0.475,1.736 1.143,-0.704C1.733,-2.858 1.462,-3.621 -0.459,-4.692C-0.889,-4.931 -1.386,-5.088 -1.872,-5.18C-2.972,-5.391 -4.082,-5.547 -5.19,-5.707C-6.526,-5.899 -7.864,-6.074 -8.93,-6.219" style="fill:white;fill-rule:nonzero;"/>
            </g>
            <g transform="matrix(1,0,0,1,466.261,679.153)">
                <path d="M0,-7.524C-0.018,-7.455 -0.038,-7.385 -0.081,-7.312C-0.683,-6.275 -1.271,-5.231 -1.902,-4.212C-2.276,-3.609 -2.888,-3.65 -3.463,-3.828C-4.607,-4.182 -5.738,-4.579 -6.874,-4.96C-7.094,-5.034 -7.308,-5.125 -7.529,-5.193C-8.351,-5.448 -8.386,-5.434 -8.816,-4.696C-9.382,-3.727 -9.974,-2.772 -10.496,-1.78C-10.778,-1.243 -11.159,-1.044 -11.717,-1.164C-12.408,-1.312 -13.1,-1.461 -13.791,-1.618C-13.52,-1.391 -13.253,-1.158 -12.956,-0.941C-11.669,0 -10.427,-0.428 -9.51,-1.578C-8.779,-2.496 -8.157,-3.923 -6.797,-3.956C-4.883,-4.004 -3.27,-1.303 -1.357,-2.42C-0.462,-2.941 0.281,-4.216 0.657,-5.137C0.963,-5.888 1.024,-6.726 0.368,-7.28C0.255,-7.375 0.131,-7.455 0,-7.524" style="fill:rgb(209,211,212);fill-rule:nonzero;"/>
            </g>
            <g transform="matrix(-0.310597,-0.950542,-0.950542,0.310597,481.566,684.948)">
                <path d="M-0.313,-4.854C-1.83,-4.343 -2.787,-2.556 -2.218,-0.787C-1.988,0.189 -1.214,0.908 -0.313,1.279C-2.318,1.256 -3.935,-1.04 -3.946,-3.053C-3.959,-5.763 -2.004,-5.737 -0.313,-4.854" style="fill:rgb(209,211,212);fill-rule:nonzero;"/>
            </g>
            <g transform="matrix(1,0,0,1,479.621,684.293)">
                <path d="M0,-0.853C0.052,-1.659 0.241,-2.178 0.699,-2.575C0.07,-3.873 -1.723,-4.49 -3.229,-3.892C-2.457,-1.83 -3.607,-0.043 -5.936,0.165C-6.358,0.202 -6.787,0.17 -7.213,0.17C-7.22,0.217 -7.229,0.262 -7.236,0.308C-8.023,0.161 -8.832,0.079 -9.597,-0.135C-9.287,2.362 -6.655,2.346 -4.519,1.739C-4.315,1.681 -4.101,1.856 -4.159,2.072C-4.569,3.637 -2.542,2.818 -1.848,2.4C-1.103,1.951 -0.353,1.252 0.183,0.479C0.183,0.401 0.174,0.327 0.178,0.248C0.049,-0.114 -0.024,-0.488 0,-0.853" style="fill:rgb(209,211,212);fill-rule:nonzero;"/>
            </g>
            <g transform="matrix(1,0,0,1,493.819,683.506)">
                <path d="M0,-1.943C-0.456,-0.942 -1.231,-0.405 -2.374,-0.418C-3.656,-0.432 -4.695,-1.087 -5.227,-2.061C-5.409,-1.588 -5.129,-0.909 -4.929,-0.512C-4.559,0.225 -3.88,0.791 -3.071,0.97C-2.026,1.202 -0.722,0.926 0.093,0.216C1.281,-0.82 1.101,-2.144 0.323,-3.145C0.281,-2.738 0.178,-2.336 0,-1.943" style="fill:rgb(209,211,212);fill-rule:nonzero;"/>
            </g>
            <g transform="matrix(1,0,0,1,491.057,673.968)">
                <path d="M0,3.058C1.744,2.288 1.826,0.837 1.149,-0.431C1.113,-0.124 1.023,0.207 0.872,0.562C0.231,2.061 -1.131,2.488 -2.121,2.584C-3.21,2.611 -4.105,2.327 -4.746,1.827C-4.008,2.896 -2.667,3.489 -1.302,3.382C-1.104,3.29 -0.904,3.202 -0.676,3.152C-0.437,3.099 -0.209,3.076 0,3.058" style="fill:rgb(209,211,212);fill-rule:nonzero;"/>
            </g>
            <g transform="matrix(1,0,0,1,482.714,676.513)">
                <path d="M0,2.884C1.622,2.163 1.781,0.619 1.065,-0.586C0.988,-0.208 0.835,0.167 0.583,0.499C-0.115,1.415 -1.251,1.98 -2.415,1.991C-3.016,1.997 -3.553,1.866 -3.98,1.623C-3.554,3.119 -1.317,3.47 0,2.884" style="fill:rgb(209,211,212);fill-rule:nonzero;"/>
            </g>
            <g transform="matrix(1,0,0,1,478.508,671.741)">
                <path d="M0,-4.478C0.035,-3.851 -0.269,-3.328 -0.886,-2.977C-1.729,-2.495 -3.281,-1.827 -4.653,-1.911C-5.597,-1.912 -6.433,-2.088 -7.22,-2.435C-6.538,-0.4 -3.561,0 -1.687,-0.797C-0.041,-1.496 0.487,-3.13 0,-4.478" style="fill:rgb(209,211,212);fill-rule:nonzero;"/>
            </g>
            <g transform="matrix(1,0,0,1,463.576,667.315)">
                <path d="M0,0.711C0.213,0.401 0.518,-0.012 0.518,-0.409C0.518,-0.855 0.165,-1.112 -0.232,-1.278C-0.121,-0.904 -0.209,-0.491 -0.524,-0.046C-0.919,0.517 -1.371,1.039 -1.816,1.601C-1.5,1.738 -1.218,1.859 -0.92,1.989C-0.635,1.549 -0.297,1.145 0,0.711" style="fill:rgb(209,211,212);fill-rule:nonzero;"/>
            </g>
            <g transform="matrix(1,0,0,1,497.852,680.909)">
                <path d="M0,1.471C-0.241,2.481 -0.556,3.474 -0.857,4.469C-0.91,4.647 -1.038,4.808 -1.153,4.959C-3.481,7.99 -6.188,10.628 -9.288,12.862C-11.298,14.309 -13.3,15.767 -15.298,17.231C-16.903,18.408 -18.664,19.304 -20.498,20.038C-22.618,20.886 -24.765,21.668 -26.922,22.416C-28.311,22.898 -29.75,22.811 -31.164,22.483C-31.92,22.307 -32.021,22.15 -31.811,21.42C-31.492,20.309 -31.186,19.179 -30.71,18.132C-29.666,15.839 -28.65,13.544 -27.983,11.105C-27.393,8.951 -27.663,8.188 -29.586,7.117C-30.015,6.878 -30.512,6.721 -30.997,6.628C-32.098,6.418 -33.208,6.262 -34.317,6.102C-35.653,5.909 -36.99,5.735 -38.057,5.589C-39.543,5.722 -40.738,5.818 -41.931,5.941C-42.194,5.968 -42.478,6.043 -42.696,6.184C-42.852,6.282 -43.042,6.58 -42.994,6.697C-42.835,7.085 -43.075,7.302 -43.271,7.511C-44.7,9.032 -46.068,10.622 -47.603,12.028C-49.582,13.839 -51.826,15.278 -54.382,16.198C-55.511,16.603 -56.657,16.655 -57.815,16.56C-58.577,16.498 -59.239,16.133 -59.625,15.442C-60.02,14.735 -60.381,14.005 -60.7,13.26C-60.928,12.726 -61.015,12.155 -60.892,11.556C-60.815,11.181 -60.825,10.785 -60.826,10.398C-60.835,7.536 -60.297,4.791 -59.168,2.153C-58.666,0.98 -58.378,-0.292 -57.799,-1.421C-56.407,-4.141 -55.018,-6.875 -53.414,-9.472C-50.989,-13.4 -47.785,-16.531 -43.495,-18.47C-41.144,-19.533 -38.749,-20.323 -36.154,-20.431C-35.188,-20.471 -34.225,-20.573 -33.259,-20.595C-32.762,-20.606 -32.265,-20.484 -31.766,-20.454C-31.149,-20.418 -30.528,-20.37 -29.914,-20.406C-28.197,-20.507 -26.521,-20.319 -24.88,-19.801C-23.185,-19.265 -21.473,-18.785 -19.792,-18.21C-18.55,-17.785 -17.35,-17.239 -16.125,-16.762C-14.504,-16.13 -12.857,-15.559 -11.261,-14.87C-10.31,-14.46 -9.43,-13.882 -8.53,-13.36C-8.062,-13.089 -7.62,-12.773 -7.161,-12.486C-6.866,-12.302 -6.519,-12.179 -6.268,-11.948C-4.902,-10.693 -3.519,-9.452 -2.22,-8.13C-1.342,-7.235 -0.801,-6.111 -0.525,-4.869C-0.416,-4.381 -0.263,-3.895 -0.073,-3.431C0.589,-1.802 0.388,-0.162 0,1.471M-5.409,14.11C-6.551,14.974 -7.762,15.738 -8.905,16.582C-11.565,18.55 -14.583,19.892 -17.33,21.701C-19.075,22.85 -21.058,23.579 -23.04,24.255C-23.771,24.505 -24.499,24.794 -25.252,24.947C-27.085,25.319 -28.924,25.495 -30.704,24.678C-31.296,24.408 -31.734,23.993 -31.907,23.348C-31.997,23.013 -31.813,22.829 -31.478,22.903C-30.84,23.044 -30.209,23.249 -29.564,23.319C-28.314,23.453 -27.096,23.249 -25.92,22.798C-23.393,21.831 -20.859,20.882 -18.338,19.898C-16.626,19.231 -15.144,18.177 -13.702,17.058C-13,16.514 -12.271,16.003 -11.534,15.507C-7.99,13.122 -4.648,10.503 -1.896,7.2C-1.75,7.024 -1.597,6.851 -1.446,6.677C-1.381,6.742 -1.316,6.806 -1.249,6.871C-1.894,9.702 -2.98,12.272 -5.409,14.11M-45.139,12.763C-46.971,14.119 -48.846,15.426 -50.777,16.635C-52.587,17.769 -54.59,18.062 -56.681,17.473C-56.75,17.454 -56.81,17.394 -56.864,17.342C-56.887,17.321 -56.883,17.271 -56.892,17.229C-56.109,17.11 -55.309,17.055 -54.547,16.856C-53.766,16.651 -53.008,16.337 -52.264,16.017C-50.472,15.246 -48.909,14.108 -47.413,12.881C-46.337,11.998 -45.345,11.026 -44.524,9.886C-44.233,9.483 -43.83,9.161 -43.482,8.799C-43.159,8.467 -42.734,8.184 -42.539,7.788C-41.93,6.553 -40.94,6.379 -39.643,6.645C-41.106,9.071 -42.919,11.117 -45.139,12.763M-43.613,-19.378C-44.772,-18.94 -45.817,-18.241 -46.874,-17.599C-50.034,-15.682 -52.314,-12.889 -54.241,-9.823C-55.576,-7.698 -56.706,-5.44 -57.857,-3.206C-58.457,-2.042 -58.915,-0.804 -59.417,0.409C-59.669,1.017 -59.849,1.653 -60.109,2.258C-60.723,3.694 -61.081,5.194 -61.234,6.742C-61.34,7.818 -61.269,8.931 -61.523,9.967C-61.981,11.83 -61.507,13.474 -60.722,15.114C-59.505,17.654 -56.575,18.816 -54.021,18.577C-52.55,18.438 -51.138,17.993 -49.894,17.134C-48.556,16.21 -47.216,15.291 -45.88,14.364C-43.61,12.787 -41.489,11.057 -39.989,8.679C-39.826,8.419 -39.577,8.209 -39.426,7.943C-38.563,6.425 -37.25,6.401 -35.75,6.718C-34.165,7.052 -32.55,7.257 -30.953,7.538C-29.092,7.866 -28.347,9.076 -28.87,10.881C-28.903,10.991 -28.931,11.105 -28.963,11.216C-29.633,13.571 -30.617,15.799 -31.664,18.006C-32.368,19.488 -32.781,21.057 -32.823,22.704C-32.856,24.005 -32.224,24.9 -31.055,25.451C-30.235,25.837 -29.387,26.038 -28.479,26.056C-26.879,26.088 -25.336,25.888 -23.8,25.383C-21.512,24.632 -19.275,23.773 -17.171,22.604C-15.447,21.646 -13.752,20.635 -12.071,19.603C-10.258,18.489 -8.437,17.381 -6.699,16.158C-5.44,15.272 -4.152,14.38 -3.183,13.147C-1.604,11.138 -0.652,8.837 -0.119,6.351C0.189,4.914 0.509,3.48 0.805,2.041C0.913,1.512 0.991,0.975 1.038,0.437C1.164,-1.022 1.281,-2.486 0.573,-4.018C0.573,-4.018 0.517,-8.629 -7.421,-13.646C-14.719,-18.26 -29.755,-24.617 -43.613,-19.378" style="fill:rgb(35,31,32);fill-rule:nonzero;"/>
            </g>
            <g transform="matrix(1,0,0,1,496.603,706.211)">
                <path d="M0,-18.431C-0.645,-15.6 -1.73,-13.03 -4.16,-11.191C-5.301,-10.327 -6.514,-9.563 -7.655,-8.719C-10.315,-6.752 -13.335,-5.409 -16.081,-3.6C-17.826,-2.452 -19.808,-1.723 -21.79,-1.047C-22.521,-0.797 -23.249,-0.508 -24.003,-0.355C-25.835,0.017 -27.674,0.193 -29.455,-0.623C-30.046,-0.894 -30.484,-1.309 -30.658,-1.954C-30.747,-2.288 -30.564,-2.473 -30.228,-2.399C-29.59,-2.257 -28.959,-2.052 -28.314,-1.983C-27.065,-1.849 -25.847,-2.053 -24.67,-2.503C-22.144,-3.471 -19.609,-4.419 -17.089,-5.403C-15.377,-6.071 -13.895,-7.124 -12.453,-8.243C-11.751,-8.787 -11.022,-9.299 -10.285,-9.795C-6.741,-12.18 -3.399,-14.798 -0.648,-18.102C-0.5,-18.278 -0.348,-18.45 -0.198,-18.624C-0.132,-18.56 -0.066,-18.496 0,-18.431" style="fill:rgb(64,63,65);fill-rule:nonzero;"/>
            </g>
            <g transform="matrix(1,0,0,1,458.208,698.704)">
                <path d="M0,-11.15C-1.462,-8.723 -3.275,-6.678 -5.496,-5.032C-7.328,-3.675 -9.203,-2.369 -11.134,-1.159C-12.944,-0.026 -14.947,0.267 -17.038,-0.322C-17.106,-0.342 -17.167,-0.401 -17.22,-0.452C-17.243,-0.474 -17.24,-0.524 -17.249,-0.566C-16.466,-0.685 -15.666,-0.74 -14.903,-0.94C-14.122,-1.143 -13.365,-1.457 -12.62,-1.778C-10.829,-2.548 -9.266,-3.686 -7.77,-4.914C-6.693,-5.797 -5.702,-6.769 -4.881,-7.909C-4.59,-8.312 -4.187,-8.635 -3.838,-8.995C-3.516,-9.328 -3.091,-9.611 -2.896,-10.007C-2.287,-11.243 -1.297,-11.417 0,-11.15" style="fill:rgb(64,63,65);fill-rule:nonzero;"/>
            </g>
            <g transform="matrix(1,0,0,1,449.244,671.191)">
                <path d="M0,-0.765C0.482,-0.601 0.762,-0.485 1.053,-0.411C1.915,-0.193 2.786,-0.013 3.643,0.223C4.164,0.366 4.188,0.507 3.853,0.927C2.999,1.999 2.439,3.226 1.987,4.504C1.744,5.193 1.794,5.261 2.525,5.451C3.385,5.675 4.254,5.866 5.116,6.08C5.53,6.183 5.76,5.998 5.951,5.651C6.381,4.872 6.835,4.107 7.284,3.34C7.538,2.906 7.785,2.466 8.066,2.049C8.248,1.78 8.49,1.65 8.861,1.779C10.462,2.336 12.075,2.857 13.677,3.408C14.013,3.524 14.297,3.53 14.491,3.215C15.054,2.302 15.6,1.378 16.169,0.43C15.123,-0.358 14.051,-0.779 12.935,-1.104C12.49,-1.234 12.027,-1.301 11.587,-1.445C11.088,-1.609 11.053,-1.868 11.395,-2.274C11.99,-2.982 12.57,-3.703 13.15,-4.423C13.423,-4.762 13.357,-5.03 12.996,-5.29C12.021,-5.992 10.887,-6.243 9.744,-6.44C9.498,-6.482 9.148,-6.297 8.939,-6.113C8.446,-5.678 8.006,-5.186 7.552,-4.71C6.617,-3.727 6.448,-3.69 5.266,-4.279C5.06,-4.382 4.867,-4.515 4.667,-4.632C3.622,-5.247 3.532,-5.282 2.728,-4.329C1.81,-3.24 0.99,-2.068 0,-0.765M12.515,-2.275C13.769,-1.731 14.869,-1.266 15.956,-0.775C16.235,-0.649 16.49,-0.461 16.732,-0.271C17.04,-0.029 17.147,0.286 16.935,0.651C16.333,1.687 15.745,2.732 15.115,3.751C14.741,4.354 14.128,4.312 13.553,4.135C12.409,3.78 11.278,3.383 10.143,3.003C9.922,2.929 9.709,2.838 9.487,2.77C8.666,2.515 8.63,2.528 8.2,3.266C7.634,4.235 7.042,5.19 6.521,6.183C6.238,6.72 5.857,6.918 5.299,6.799C4.129,6.548 2.954,6.308 1.796,6.003C1.178,5.84 0.95,5.455 1.155,4.849C1.451,3.976 1.841,3.13 2.237,2.295C2.466,1.81 2.786,1.369 3.116,0.826C2.671,0.701 2.31,0.591 1.945,0.5C1.346,0.349 0.735,0.237 0.144,0.058C-0.594,-0.165 -0.839,-0.626 -0.437,-1.234C0.498,-2.652 1.364,-4.132 2.629,-5.303C3.42,-6.034 3.611,-6.04 4.573,-5.55C5.19,-5.236 5.825,-4.958 6.452,-4.664C6.936,-5.15 7.42,-5.637 7.904,-6.123C9.461,-7.683 8.757,-7.475 10.971,-7.015C11.856,-6.832 12.667,-6.49 13.416,-5.989C14.229,-5.444 14.38,-4.733 13.808,-3.92C13.412,-3.359 12.96,-2.837 12.515,-2.275" style="fill:rgb(35,31,32);fill-rule:nonzero;"/>
            </g>
            <g transform="matrix(1,0,0,1,469.214,677.816)">
                <path d="M0,3.448C-0.342,4.672 -0.117,5.204 0.874,5.558C2.227,6.043 3.625,5.926 4.988,5.663C5.468,5.569 5.933,5.159 6.302,4.79C6.7,4.393 6.798,3.84 6.607,3.277C6.489,2.93 6.319,2.789 5.923,2.985C5.269,3.308 4.604,3.636 3.908,3.839C2.598,4.221 1.313,3.959 0,3.448M2.375,-1.969C2.121,-1.898 1.606,-1.761 1.096,-1.609C0.695,-1.489 0.305,-1.268 -0.1,-1.24C-0.582,-1.206 -0.805,-0.937 -0.941,-0.574C-1.265,0.285 -1.143,1.1 -0.563,1.819C-0.116,2.374 0.469,2.728 1.151,2.943C2.631,3.413 3.971,3.005 5.248,2.287C6.2,1.751 6.451,0.878 5.891,-0.071C5.176,-1.282 4.099,-1.949 2.375,-1.969M3.171,6.785C2.305,6.623 1.411,6.549 0.58,6.279C-0.717,5.859 -1.175,4.986 -0.854,3.657C-0.731,3.147 -0.779,2.797 -1.128,2.4C-2.407,0.945 -2.005,-1.307 -0.107,-2.155C1.862,-3.034 3.848,-3.337 5.673,-1.816C6.738,-0.928 7.397,0.161 7.017,1.646C6.958,1.877 7.024,2.175 7.122,2.403C8.036,4.542 6.87,6.428 4.471,6.642C4.049,6.679 3.621,6.647 3.195,6.647C3.187,6.693 3.179,6.739 3.171,6.785" style="fill:rgb(35,31,32);fill-rule:nonzero;"/>
            </g>
            <g transform="matrix(1,0,0,1,473.616,664.186)">
                <path d="M0,4.724C1.193,4.79 2.255,4.447 3.258,3.913C4.068,3.479 4.213,2.898 3.592,2.23C3.073,1.671 2.458,1.168 1.805,0.774C0.285,-0.143 -1.919,0.408 -2.913,1.882C-3.523,2.786 -3.356,3.586 -2.413,4.133C-1.661,4.57 -0.844,4.781 0,4.724M0.239,5.644C-0.867,5.643 -1.831,5.416 -2.735,4.934C-4.49,3.996 -4.307,2.111 -3.236,1.161C-1.592,-0.297 0.306,-1.003 2.528,-0.357C2.748,-0.293 3.018,-0.23 3.15,-0.071C3.855,0.777 4.583,1.636 4.859,2.729C5.058,3.516 4.736,4.162 4.007,4.579C3.162,5.059 1.61,5.727 0.239,5.644" style="fill:rgb(35,31,32);fill-rule:nonzero;"/>
            </g>
            <g transform="matrix(1,0,0,1,488.375,675.549)">
                <path d="M0,-3.935C-0.598,-3.826 -1.024,-3.787 -1.424,-3.661C-1.655,-3.589 -1.917,-3.422 -2.039,-3.221C-2.644,-2.23 -2.216,-0.733 -1.207,-0.188C-0.025,0.45 1.905,-0.087 2.586,-1.244C3.086,-2.098 2.933,-2.847 2.038,-3.275C1.357,-3.6 0.593,-3.749 0,-3.935M0.56,1.004C-2.18,1.072 -3.769,-0.776 -2.849,-3.292C-2.482,-4.292 -1.37,-5.007 -0.129,-4.87C0.774,-4.77 1.69,-4.498 2.528,-4.135C3.796,-3.585 4.184,-2.494 3.553,-1.018C2.912,0.48 1.55,0.907 0.56,1.004" style="fill:rgb(35,31,32);fill-rule:nonzero;"/>
            </g>
            <g transform="matrix(1,0,0,1,485.395,683.449)">
                <path d="M0,0.245C-0.017,-0.375 -0.779,-1.596 -1.318,-1.847C-1.416,-1.893 -1.538,-1.916 -1.646,-1.908C-2.297,-1.863 -2.949,-1.818 -3.598,-1.752C-4.277,-1.684 -4.72,-1.342 -4.914,-0.654C-5.29,0.682 -4.478,2.012 -3.134,2.535C-2.027,2.966 -0.016,1.75 0,0.245M-2.392,3.362C-4.251,3.519 -5.883,1.642 -5.774,-0.009C-5.695,-1.224 -5.32,-1.794 -4.152,-2.262C-3.87,-2.375 -3.595,-2.529 -3.352,-2.711C-2.609,-3.274 -1.858,-3.263 -1.08,-2.803C-0.287,-2.335 0.306,-1.672 0.671,-0.841C1.537,1.126 -0.1,3.351 -2.392,3.362" style="fill:rgb(35,31,32);fill-rule:nonzero;"/>
            </g>
            <g transform="matrix(1,0,0,1,493.173,679.975)">
                <path d="M0,0.116C0.055,-1.225 -0.685,-2.187 -1.826,-2.257C-3.13,-2.337 -3.996,-1.583 -4.056,-0.313C-4.124,1.088 -3.239,2.126 -1.923,2.192C-0.724,2.25 -0.057,1.53 0,0.116M-1.786,-2.98C-0.456,-3.011 0.406,-2.364 0.813,-1.121C1.115,-0.199 1.041,0.718 0.646,1.589C0.19,2.59 -0.586,3.127 -1.728,3.114C-3.818,3.089 -5.272,1.378 -4.918,-0.671C-4.724,-1.786 -3.947,-2.6 -2.792,-2.855C-2.417,-2.938 -2.026,-2.951 -1.786,-2.98" style="fill:rgb(35,31,32);fill-rule:nonzero;"/>
            </g>
            <g transform="matrix(1,0,0,1,480.65,677.335)">
                <path d="M0,-3.376C-0.005,-3.346 -0.01,-3.318 -0.015,-3.288C-0.284,-3.288 -0.559,-3.324 -0.822,-3.282C-1.8,-3.125 -2.296,-2.377 -2.206,-1.232C-2.132,-0.29 -1.496,0.341 -0.575,0.383C0.364,0.427 1.679,-0.363 2.074,-1.208C2.466,-2.049 2.211,-2.743 1.337,-3.063C0.91,-3.219 0.447,-3.275 0,-3.376M-0.35,1.169C-1.636,1.182 -2.651,0.586 -2.852,-0.441C-3.149,-1.962 -2.881,-2.976 -1.75,-3.684C-0.354,-4.558 0.993,-4.328 2.286,-3.582C3.355,-2.965 3.476,-1.412 2.647,-0.324C1.95,0.593 0.814,1.158 -0.35,1.169" style="fill:rgb(35,31,32);fill-rule:nonzero;"/>
            </g>
            <g transform="matrix(1,0,0,1,470.143,672.617)">
                <path d="M0,-1.916C-0.569,-1.972 -0.727,-1.844 -0.775,-1.385C-0.818,-0.969 -0.715,-0.63 -0.313,-0.421C0.1,-0.206 0.498,-0.206 0.884,-0.47C1.448,-0.856 1.413,-1.448 0.791,-1.716C0.514,-1.835 0.2,-1.868 0,-1.916M-1.417,-1.225C-1.334,-2.088 -0.881,-2.5 0.035,-2.508C0.379,-2.511 0.742,-2.518 1.064,-2.418C2.065,-2.108 2.364,-0.993 1.691,-0.187C1.191,0.412 0.355,0.602 -0.419,0.292C-1.126,0.008 -1.483,-0.534 -1.417,-1.225" style="fill:rgb(35,31,32);fill-rule:nonzero;"/>
            </g>
            <g transform="matrix(1,0,0,1,449.244,671.657)">
                <path d="M0,-1.231C0.99,-2.534 1.81,-3.706 2.728,-4.795C3.532,-5.748 3.622,-5.713 4.667,-5.098C4.867,-4.981 5.06,-4.848 5.266,-4.745C6.448,-4.156 6.617,-4.193 7.552,-5.176C8.006,-5.652 8.446,-6.144 8.939,-6.579C9.148,-6.763 9.498,-6.948 9.744,-6.906C10.887,-6.709 12.021,-6.458 12.996,-5.756C13.357,-5.496 13.423,-5.228 13.15,-4.889C12.57,-4.169 11.99,-3.448 11.395,-2.74C11.053,-2.334 11.088,-2.075 11.587,-1.911C12.027,-1.767 12.49,-1.7 12.935,-1.57C14.051,-1.245 15.123,-0.824 16.169,-0.036C15.6,0.912 15.054,1.836 14.491,2.749C14.297,3.064 14.013,3.058 13.677,2.942C12.075,2.391 10.462,1.87 8.861,1.313C8.49,1.184 8.248,1.314 8.066,1.583C7.785,2 7.538,2.44 7.284,2.874C6.835,3.641 6.381,4.406 5.951,5.185C5.76,5.532 5.53,5.717 5.116,5.614C4.254,5.4 3.385,5.209 2.525,4.985C1.794,4.795 1.744,4.727 1.987,4.038C2.439,2.76 2.999,1.533 3.853,0.461C4.188,0.041 4.164,-0.1 3.643,-0.243C2.786,-0.479 1.915,-0.659 1.053,-0.877C0.762,-0.951 0.482,-1.067 0,-1.231" style="fill:rgb(88,89,91);fill-rule:nonzero;"/>
            </g>
            <g transform="matrix(1,0,0,1,470.32,679.067)">
                <path d="M0,-1.059C-0.356,-0.776 -0.272,-0.469 -0.108,-0.205C0.452,0.7 2.435,0.841 3.091,0.013C3.206,-0.132 3.161,-0.405 3.19,-0.618C3.014,-0.614 2.812,-0.666 2.668,-0.596C1.661,-0.109 0.75,-0.139 0,-1.059M1.269,-3.22C2.993,-3.2 4.07,-2.533 4.785,-1.322C5.345,-0.373 5.093,0.5 4.141,1.035C2.864,1.754 1.524,2.161 0.045,1.692C-0.638,1.477 -1.222,1.123 -1.67,0.568C-2.25,-0.151 -2.372,-0.966 -2.048,-1.825C-1.911,-2.188 -1.689,-2.457 -1.207,-2.491C-0.801,-2.519 -0.411,-2.74 -0.01,-2.86C0.5,-3.012 1.015,-3.149 1.269,-3.22" style="fill:rgb(88,89,91);fill-rule:nonzero;"/>
            </g>
            <g transform="matrix(1,0,0,1,469.214,683.2)">
                <path d="M0,-1.936C1.313,-1.425 2.598,-1.163 3.908,-1.545C4.604,-1.748 5.269,-2.076 5.923,-2.399C6.319,-2.595 6.489,-2.454 6.607,-2.107C6.798,-1.544 6.7,-0.991 6.302,-0.594C5.933,-0.225 5.468,0.185 4.988,0.279C3.625,0.542 2.227,0.659 0.874,0.174C-0.117,-0.18 -0.342,-0.712 0,-1.936" style="fill:rgb(64,63,65);fill-rule:nonzero;"/>
            </g>
            <g transform="matrix(1,0,0,1,473.616,664.109)">
                <path d="M0,4.801C-0.844,4.858 -1.661,4.647 -2.413,4.21C-3.356,3.663 -3.523,2.863 -2.913,1.959C-1.919,0.485 0.285,-0.066 1.805,0.851C2.458,1.245 3.073,1.748 3.592,2.307C4.213,2.975 4.068,3.556 3.258,3.99C2.255,4.524 1.193,4.867 0,4.801" style="fill:rgb(140,198,63);fill-rule:nonzero;"/>
            </g>
            <g transform="matrix(1,0,0,1,488.375,675.999)">
                <path d="M0,-4.385C0.593,-4.199 1.357,-4.05 2.038,-3.725C2.933,-3.297 3.086,-2.548 2.586,-1.694C1.905,-0.537 -0.025,0 -1.207,-0.638C-2.216,-1.183 -2.644,-2.68 -2.039,-3.671C-1.917,-3.872 -1.655,-4.039 -1.424,-4.111C-1.024,-4.237 -0.598,-4.276 0,-4.385" style="fill:rgb(102,44,145);fill-rule:nonzero;"/>
            </g>
            <g transform="matrix(1,0,0,1,485.395,684.254)">
                <path d="M0,-0.56C-0.016,0.945 -2.027,2.161 -3.134,1.73C-4.478,1.207 -5.29,-0.123 -4.914,-1.459C-4.72,-2.147 -4.277,-2.489 -3.598,-2.557C-2.949,-2.623 -2.297,-2.668 -1.646,-2.713C-1.538,-2.721 -1.416,-2.698 -1.318,-2.652C-0.779,-2.401 -0.017,-1.18 0,-0.56" style="fill:rgb(255,221,24);fill-rule:nonzero;"/>
            </g>
            <g transform="matrix(0.105183,-0.994453,-0.994453,-0.105183,491.511,677.925)">
                <path d="M-1.979,-1.88C-3.391,-1.973 -4.177,-1.385 -4.246,-0.187C-4.319,1.129 -3.38,2.118 -1.979,2.198C-0.71,2.272 0.131,1.49 0.189,0.185C0.239,-0.957 -0.64,-1.794 -1.979,-1.88" style="fill:rgb(238,40,124);fill-rule:nonzero;"/>
            </g>
            <g transform="matrix(1,0,0,1,480.65,677.762)">
                <path d="M0,-3.803C0.447,-3.702 0.91,-3.646 1.337,-3.49C2.211,-3.17 2.466,-2.476 2.074,-1.635C1.679,-0.79 0.364,0 -0.575,-0.044C-1.496,-0.086 -2.132,-0.717 -2.206,-1.659C-2.296,-2.804 -1.8,-3.552 -0.822,-3.709C-0.559,-3.751 -0.284,-3.715 -0.015,-3.715C-0.01,-3.745 -0.005,-3.773 0,-3.803" style="fill:rgb(0,174,239);fill-rule:nonzero;"/>
            </g>
            <g transform="matrix(1,0,0,1,470.143,672.355)">
                <path d="M0,-1.654C0.2,-1.606 0.514,-1.573 0.791,-1.454C1.413,-1.186 1.448,-0.594 0.884,-0.208C0.498,0.056 0.1,0.056 -0.313,-0.159C-0.715,-0.368 -0.818,-0.707 -0.775,-1.123C-0.727,-1.582 -0.569,-1.71 0,-1.654" style="fill:rgb(88,89,91);fill-rule:nonzero;"/>
            </g>
            <g transform="matrix(1,0,0,1,470.32,679.908)">
                <path d="M0,-1.9C0.75,-0.98 1.661,-0.95 2.668,-1.437C2.812,-1.507 3.014,-1.455 3.19,-1.459C3.161,-1.246 3.206,-0.973 3.091,-0.828C2.435,0 0.452,-0.141 -0.108,-1.046C-0.272,-1.31 -0.356,-1.617 0,-1.9" style="fill:rgb(35,31,32);fill-rule:nonzero;"/>
            </g>
        </g>
    </g>
</svg>
