<?xml version="1.0" encoding="UTF-8" standalone="no"?>
<!DOCTYPE svg PUBLIC "-//W3C//DTD SVG 1.1//EN" "http://www.w3.org/Graphics/SVG/1.1/DTD/svg11.dtd">
<svg width="100%" height="100%" viewBox="0 0 500 500" version="1.1" xmlns="http://www.w3.org/2000/svg" xmlns:xlink="http://www.w3.org/1999/xlink" xml:space="preserve" xmlns:serif="http://www.serif.com/" style="fill-rule:evenodd;clip-rule:evenodd;">
    <g transform="matrix(1,0,0,1,-211,-1732)">
        <g transform="matrix(1,0,0,1,0,-184.944)">
            <g transform="matrix(4.16667,0,0,4.16667,460.857,1927.35)">
                <path d="M0,115.068C31.775,115.068 57.534,89.309 57.534,57.534C57.534,25.759 31.775,0 0,0C-31.775,0 -57.534,25.759 -57.534,57.534C-57.534,89.309 -31.775,115.068 0,115.068" style="fill:rgb(235,246,242);fill-rule:nonzero;"/>
            </g>
            <g transform="matrix(4.16667,0,0,4.16667,460.857,1927.35)">
                <path d="M0,115.068C31.775,115.068 57.534,89.309 57.534,57.534C57.534,25.759 31.775,0 0,0C-31.775,0 -57.534,25.759 -57.534,57.534C-57.534,89.309 -31.775,115.068 0,115.068Z" style="fill:none;fill-rule:nonzero;stroke:rgb(143,201,100);stroke-width:1.13px;"/>
            </g>
            <g transform="matrix(4.16667,0,0,4.16667,460.857,2010.64)">
                <path d="M0,75.584C20.872,75.584 37.792,58.664 37.792,37.792C37.792,16.92 20.872,0 0,0C-20.872,0 -37.792,16.92 -37.792,37.792C-37.792,58.664 -20.872,75.584 0,75.584" style="fill:rgb(255,240,225);fill-rule:nonzero;"/>
            </g>
            <g transform="matrix(4.16667,0,0,4.16667,460.857,2010.64)">
                <path d="M0,75.584C20.872,75.584 37.792,58.664 37.792,37.792C37.792,16.92 20.872,0 0,0C-20.872,0 -37.792,16.92 -37.792,37.792C-37.792,58.664 -20.872,75.584 0,75.584Z" style="fill:none;fill-rule:nonzero;stroke:rgb(246,139,30);stroke-width:1.13px;"/>
            </g>
            <g transform="matrix(0,4.16667,4.16667,0,698.245,2167.03)">
                <path d="M-56.973,-56.973L56.973,-56.973" style="fill:none;fill-rule:nonzero;stroke:rgb(143,201,100);stroke-width:1.13px;"/>
            </g>
            <g transform="matrix(4.16667,0,0,4.16667,0,0)">
                <g transform="matrix(11.276,0,0,11.276,116.065,498.712)">
                    <path d="M0.238,-0L0.387,-0L0.387,-0.74L0.106,-0.74L0.106,-0.614L0.238,-0.614L0.238,-0Z" style="fill:rgb(246,139,30);fill-rule:nonzero;"/>
                </g>
                <g transform="matrix(11.276,0,0,11.276,130.16,509.605)">
                    <path d="M0.053,-0L0.556,-0L0.556,-0.126L0.257,-0.126C0.316,-0.183 0.375,-0.239 0.433,-0.295C0.52,-0.378 0.551,-0.439 0.552,-0.525C0.552,-0.647 0.464,-0.754 0.309,-0.754C0.256,-0.754 0.16,-0.738 0.102,-0.655C0.061,-0.6 0.052,-0.539 0.05,-0.482L0.193,-0.482C0.194,-0.558 0.224,-0.623 0.296,-0.623C0.357,-0.623 0.403,-0.585 0.403,-0.512C0.402,-0.427 0.343,-0.376 0.269,-0.311C0.197,-0.246 0.125,-0.182 0.053,-0.117L0.053,-0Z" style="fill:rgb(246,139,30);fill-rule:nonzero;"/>
                </g>
            </g>
            <g transform="matrix(4.16667,0,0,4.16667,0,0)">
                <g transform="matrix(11.276,0,0,11.276,135.178,526.384)">
                    <path d="M0.211,-0.539C0.213,-0.572 0.228,-0.623 0.291,-0.623C0.339,-0.623 0.365,-0.583 0.365,-0.538C0.365,-0.475 0.305,-0.446 0.254,-0.446L0.221,-0.446L0.221,-0.335L0.281,-0.335C0.339,-0.335 0.408,-0.302 0.408,-0.229C0.408,-0.167 0.37,-0.117 0.298,-0.117C0.225,-0.118 0.189,-0.172 0.185,-0.219L0.035,-0.219C0.037,-0.185 0.045,-0.13 0.078,-0.085C0.124,-0.018 0.214,0.014 0.295,0.014C0.44,0.014 0.557,-0.086 0.557,-0.218C0.557,-0.251 0.55,-0.358 0.415,-0.404C0.453,-0.425 0.514,-0.468 0.514,-0.559C0.514,-0.666 0.427,-0.754 0.297,-0.754C0.201,-0.754 0.068,-0.7 0.064,-0.539L0.211,-0.539Z" style="fill:rgb(246,139,30);fill-rule:nonzero;"/>
                </g>
                <g transform="matrix(11.276,0,0,11.276,130.16,542.36)">
                    <path d="M0.354,-0L0.497,-0L0.497,-0.134L0.577,-0.134L0.577,-0.251L0.497,-0.251L0.497,-0.74L0.355,-0.74L0.012,-0.243L0.012,-0.134L0.354,-0.134L0.354,-0ZM0.163,-0.251L0.363,-0.559L0.363,-0.251L0.163,-0.251Z" style="fill:rgb(246,139,30);fill-rule:nonzero;"/>
                </g>
            </g>
            <g transform="matrix(46.9833,0,0,46.9833,483.603,2297.1)">
                <path d="M0.122,-0.74L0.057,-0.337L0.178,-0.307C0.211,-0.365 0.258,-0.377 0.293,-0.377C0.372,-0.377 0.424,-0.315 0.424,-0.247C0.424,-0.176 0.364,-0.117 0.294,-0.117C0.241,-0.117 0.191,-0.152 0.175,-0.203L0.025,-0.203C0.045,-0.075 0.155,0.014 0.298,0.014C0.48,0.014 0.573,-0.13 0.573,-0.251C0.573,-0.36 0.493,-0.499 0.326,-0.499C0.262,-0.499 0.233,-0.482 0.211,-0.468L0.237,-0.614L0.512,-0.614L0.512,-0.74L0.122,-0.74Z" style="fill:rgb(246,139,30);fill-rule:nonzero;"/>
            </g>
            <g transform="matrix(46.9833,0,0,46.9833,409.652,2297.1)">
                <path d="M0.285,-0.74L0.091,-0.456C0.056,-0.402 0.024,-0.339 0.024,-0.261C0.024,-0.205 0.041,-0.133 0.086,-0.082C0.133,-0.021 0.213,0.014 0.304,0.014C0.456,0.014 0.58,-0.101 0.58,-0.261C0.58,-0.424 0.458,-0.511 0.345,-0.511C0.322,-0.511 0.294,-0.504 0.286,-0.5C0.297,-0.516 0.308,-0.53 0.318,-0.545L0.457,-0.74L0.285,-0.74ZM0.171,-0.249C0.171,-0.33 0.234,-0.38 0.3,-0.38C0.375,-0.38 0.431,-0.322 0.431,-0.248C0.431,-0.174 0.373,-0.117 0.299,-0.117C0.231,-0.117 0.171,-0.169 0.171,-0.248L0.171,-0.249Z" style="fill:rgb(246,139,30);fill-rule:nonzero;"/>
            </g>
            <g transform="matrix(46.9833,0,0,46.9833,354.164,2258.52)">
                <path d="M0.071,-0.74L0.071,-0.614L0.376,-0.614L0.089,-0L0.253,-0L0.53,-0.625L0.53,-0.74L0.071,-0.74Z" style="fill:rgb(246,139,30);fill-rule:nonzero;"/>
            </g>
            <g transform="matrix(46.9833,0,0,46.9833,330.203,2188.61)">
                <path d="M0.068,-0.556C0.068,-0.476 0.116,-0.431 0.149,-0.41C0.074,-0.377 0.043,-0.306 0.042,-0.228C0.043,-0.089 0.151,0.014 0.301,0.014C0.451,0.014 0.559,-0.089 0.56,-0.228C0.559,-0.306 0.527,-0.377 0.453,-0.41C0.486,-0.431 0.534,-0.476 0.534,-0.556C0.534,-0.655 0.454,-0.754 0.301,-0.754C0.148,-0.754 0.068,-0.654 0.068,-0.557L0.068,-0.556ZM0.213,-0.544C0.213,-0.595 0.253,-0.632 0.301,-0.632C0.349,-0.632 0.389,-0.595 0.389,-0.544C0.389,-0.494 0.349,-0.456 0.301,-0.456C0.253,-0.456 0.213,-0.494 0.213,-0.543L0.213,-0.544ZM0.191,-0.229C0.191,-0.287 0.235,-0.342 0.301,-0.342C0.367,-0.342 0.411,-0.287 0.411,-0.229C0.411,-0.173 0.367,-0.117 0.301,-0.117C0.235,-0.117 0.191,-0.173 0.191,-0.228L0.191,-0.229Z" style="fill:rgb(246,139,30);fill-rule:nonzero;"/>
            </g>
            <g transform="matrix(46.9833,0,0,46.9833,349.748,2118.7)">
                <path d="M0.319,-0L0.513,-0.284C0.548,-0.338 0.58,-0.401 0.58,-0.479C0.58,-0.535 0.563,-0.607 0.518,-0.658C0.47,-0.719 0.391,-0.754 0.3,-0.754C0.147,-0.754 0.024,-0.639 0.024,-0.479C0.024,-0.316 0.145,-0.229 0.259,-0.229C0.282,-0.229 0.31,-0.236 0.318,-0.24C0.308,-0.225 0.297,-0.211 0.286,-0.195L0.147,-0L0.319,-0ZM0.433,-0.492C0.433,-0.41 0.37,-0.36 0.302,-0.36C0.228,-0.36 0.173,-0.418 0.173,-0.493C0.173,-0.567 0.231,-0.623 0.303,-0.623C0.373,-0.623 0.433,-0.571 0.433,-0.493L0.433,-0.492Z" style="fill:rgb(246,139,30);fill-rule:nonzero;"/>
            </g>
            <g transform="matrix(4.16667,0,0,4.16667,0,0)">
                <g transform="matrix(11.276,0,0,11.276,94.5051,498.712)">
                    <path d="M0.238,-0L0.387,-0L0.387,-0.74L0.106,-0.74L0.106,-0.614L0.238,-0.614L0.238,-0Z" style="fill:rgb(246,139,30);fill-rule:nonzero;"/>
                </g>
                <g transform="matrix(11.276,0,0,11.276,100.278,498.712)">
                    <path d="M0.035,-0.256C0.035,-0.054 0.2,0.014 0.304,0.014C0.407,0.014 0.567,-0.054 0.567,-0.256L0.567,-0.484C0.567,-0.684 0.406,-0.754 0.302,-0.754C0.21,-0.754 0.035,-0.696 0.035,-0.482L0.035,-0.256ZM0.184,-0.487C0.184,-0.552 0.217,-0.623 0.3,-0.623C0.402,-0.623 0.418,-0.53 0.418,-0.488L0.418,-0.252C0.418,-0.195 0.384,-0.117 0.301,-0.117C0.22,-0.117 0.184,-0.185 0.184,-0.252L0.184,-0.487Z" style="fill:rgb(246,139,30);fill-rule:nonzero;"/>
                </g>
            </g>
            <g transform="matrix(2.49303,3.33855,3.33855,-2.49303,526.259,1941.25)">
                <path d="M-22.908,-45.696L91.154,-45.696" style="fill:none;fill-rule:nonzero;stroke:rgb(143,201,100);stroke-width:1.13px;"/>
            </g>
            <g transform="matrix(-2.47844,3.34939,3.34939,2.47844,531.902,2395.44)">
                <path d="M-90.862,-45.798L23.084,-45.798" style="fill:none;fill-rule:nonzero;stroke:rgb(143,201,100);stroke-width:1.13px;"/>
            </g>
            <g transform="matrix(3.96832,1.27026,1.27026,-3.96832,265.711,2033.22)">
                <path d="M-2.715,-17.386L111.347,-17.387" style="fill:none;fill-rule:nonzero;stroke:rgb(143,201,100);stroke-width:1.13px;"/>
            </g>
            <g transform="matrix(-3.98988,1.20083,1.20083,3.98988,264.14,2302.15)">
                <path d="M-111.528,-16.42L2.417,-16.42" style="fill:none;fill-rule:nonzero;stroke:rgb(143,201,100);stroke-width:1.13px;"/>
            </g>
            <g transform="matrix(4.16667,0,0,4.16667,460.857,2090.55)">
                <path d="M0,37.228C10.28,37.228 18.614,28.894 18.614,18.614C18.614,8.333 10.28,0 0,0C-10.28,0 -18.614,8.333 -18.614,18.614C-18.614,28.894 -10.28,37.228 0,37.228" style="fill:rgb(0,171,188);fill-rule:nonzero;"/>
            </g>
            <g transform="matrix(56.3796,0,0,56.3796,440.877,2188.97)">
                <path d="M0.225,-0L0.414,-0L0.414,-0.74L0.104,-0.74L0.104,-0.581L0.225,-0.581L0.225,-0Z" style="fill:white;fill-rule:nonzero;"/>
            </g>
            <g transform="matrix(50,0,0,50,505.323,1993.75)">
                <path d="M0.385,-0.092C0.401,-0.087 0.414,-0.08 0.421,-0.071C0.428,-0.062 0.432,-0.052 0.432,-0.042C0.432,-0.032 0.428,-0.022 0.42,-0.013C0.412,-0.004 0.399,0.002 0.381,0.007L0.211,0.007C0.192,0.005 0.178,-0.001 0.169,-0.01C0.16,-0.02 0.156,-0.031 0.156,-0.042C0.156,-0.054 0.161,-0.065 0.17,-0.076C0.18,-0.086 0.195,-0.092 0.215,-0.092L0.236,-0.092L0.236,-0.524C0.231,-0.522 0.223,-0.52 0.214,-0.52C0.199,-0.52 0.187,-0.525 0.177,-0.534C0.168,-0.543 0.164,-0.553 0.164,-0.566C0.164,-0.572 0.165,-0.579 0.169,-0.586C0.172,-0.593 0.177,-0.6 0.183,-0.606L0.264,-0.659C0.275,-0.662 0.285,-0.664 0.293,-0.664C0.321,-0.664 0.338,-0.65 0.346,-0.623L0.346,-0.092L0.385,-0.092Z" style="fill:rgb(0,174,239);fill-rule:nonzero;"/>
            </g>
            <g transform="matrix(4.16667,0,0,4.16667,0,0)">
                <g transform="matrix(12,0,0,12,146.346,498.239)">
                    <path d="M0.314,-0.571C0.285,-0.571 0.259,-0.563 0.234,-0.547C0.21,-0.531 0.187,-0.512 0.166,-0.49C0.153,-0.479 0.139,-0.474 0.123,-0.474C0.108,-0.474 0.096,-0.479 0.086,-0.488C0.077,-0.497 0.072,-0.509 0.072,-0.524C0.072,-0.536 0.076,-0.547 0.083,-0.559C0.097,-0.574 0.112,-0.588 0.129,-0.603C0.145,-0.617 0.163,-0.63 0.181,-0.641C0.2,-0.652 0.219,-0.661 0.239,-0.667C0.259,-0.674 0.28,-0.677 0.302,-0.677C0.326,-0.677 0.349,-0.672 0.37,-0.662C0.392,-0.652 0.41,-0.638 0.426,-0.62C0.442,-0.602 0.454,-0.581 0.464,-0.556C0.473,-0.531 0.477,-0.503 0.477,-0.473C0.477,-0.449 0.473,-0.426 0.463,-0.406C0.453,-0.385 0.441,-0.366 0.427,-0.349C0.412,-0.332 0.395,-0.317 0.376,-0.303C0.357,-0.29 0.339,-0.277 0.32,-0.266C0.306,-0.257 0.291,-0.248 0.277,-0.239C0.263,-0.229 0.25,-0.218 0.238,-0.206C0.226,-0.193 0.215,-0.178 0.207,-0.161C0.198,-0.144 0.192,-0.124 0.188,-0.102L0.383,-0.102C0.39,-0.102 0.396,-0.104 0.4,-0.107C0.404,-0.11 0.408,-0.113 0.412,-0.117C0.415,-0.121 0.418,-0.125 0.422,-0.129C0.425,-0.133 0.429,-0.136 0.433,-0.138C0.438,-0.14 0.442,-0.142 0.448,-0.143C0.453,-0.143 0.458,-0.144 0.463,-0.144C0.478,-0.144 0.491,-0.139 0.501,-0.129C0.511,-0.119 0.516,-0.107 0.516,-0.094C0.516,-0.086 0.515,-0.08 0.513,-0.075C0.51,-0.071 0.508,-0.067 0.506,-0.064C0.491,-0.045 0.474,-0.029 0.455,-0.016C0.435,-0.003 0.413,0.003 0.387,0.003L0.127,0.003C0.094,-0 0.076,-0.019 0.072,-0.052C0.074,-0.076 0.077,-0.1 0.082,-0.123C0.086,-0.146 0.092,-0.169 0.101,-0.19C0.109,-0.211 0.119,-0.231 0.132,-0.25C0.145,-0.269 0.161,-0.286 0.18,-0.302C0.186,-0.307 0.195,-0.313 0.206,-0.319C0.217,-0.326 0.229,-0.333 0.241,-0.34C0.256,-0.349 0.271,-0.358 0.286,-0.367C0.301,-0.377 0.314,-0.387 0.327,-0.399C0.339,-0.412 0.348,-0.425 0.356,-0.44C0.363,-0.455 0.367,-0.472 0.367,-0.492C0.367,-0.508 0.362,-0.524 0.351,-0.541C0.341,-0.557 0.329,-0.568 0.314,-0.571Z" style="fill:rgb(0,174,239);fill-rule:nonzero;"/>
                </g>
                <g transform="matrix(12,0,0,12,153.534,526.819)">
                    <path d="M0.102,-0.069C0.092,-0.083 0.087,-0.094 0.087,-0.104C0.087,-0.118 0.092,-0.129 0.102,-0.138C0.112,-0.146 0.124,-0.15 0.139,-0.15C0.15,-0.15 0.161,-0.147 0.171,-0.141C0.181,-0.136 0.191,-0.129 0.201,-0.12L0.2,-0.12C0.212,-0.112 0.224,-0.104 0.235,-0.097C0.247,-0.089 0.26,-0.085 0.273,-0.085C0.291,-0.085 0.308,-0.089 0.322,-0.097C0.336,-0.105 0.347,-0.116 0.357,-0.129C0.366,-0.143 0.374,-0.157 0.379,-0.174C0.384,-0.191 0.387,-0.208 0.387,-0.225C0.387,-0.243 0.381,-0.258 0.369,-0.27C0.356,-0.281 0.342,-0.291 0.324,-0.298C0.307,-0.305 0.289,-0.31 0.27,-0.313C0.25,-0.316 0.234,-0.317 0.221,-0.317C0.204,-0.322 0.192,-0.328 0.185,-0.337C0.177,-0.346 0.173,-0.355 0.173,-0.366C0.173,-0.376 0.178,-0.386 0.186,-0.395C0.194,-0.404 0.206,-0.411 0.223,-0.414C0.235,-0.416 0.248,-0.418 0.262,-0.421C0.276,-0.424 0.29,-0.428 0.303,-0.433C0.316,-0.438 0.328,-0.445 0.339,-0.453C0.349,-0.461 0.358,-0.471 0.364,-0.482C0.369,-0.514 0.364,-0.536 0.349,-0.549C0.333,-0.561 0.311,-0.567 0.284,-0.567C0.268,-0.567 0.25,-0.565 0.232,-0.562C0.214,-0.559 0.199,-0.554 0.189,-0.548C0.181,-0.542 0.174,-0.538 0.167,-0.534C0.161,-0.531 0.153,-0.529 0.143,-0.529C0.129,-0.529 0.116,-0.534 0.106,-0.544C0.096,-0.554 0.091,-0.569 0.091,-0.588C0.096,-0.605 0.106,-0.618 0.123,-0.628C0.139,-0.638 0.157,-0.646 0.176,-0.651C0.195,-0.656 0.214,-0.659 0.233,-0.661C0.251,-0.662 0.266,-0.663 0.276,-0.663C0.303,-0.663 0.329,-0.66 0.353,-0.654C0.377,-0.647 0.398,-0.638 0.415,-0.625C0.433,-0.612 0.447,-0.595 0.457,-0.575C0.468,-0.555 0.473,-0.531 0.473,-0.504C0.473,-0.498 0.473,-0.49 0.472,-0.481C0.472,-0.471 0.47,-0.46 0.465,-0.449C0.461,-0.437 0.453,-0.424 0.443,-0.411C0.433,-0.398 0.418,-0.385 0.398,-0.371C0.425,-0.356 0.449,-0.334 0.47,-0.307C0.49,-0.28 0.501,-0.249 0.501,-0.213C0.501,-0.185 0.494,-0.157 0.481,-0.13C0.467,-0.103 0.45,-0.079 0.429,-0.057C0.408,-0.036 0.385,-0.019 0.359,-0.006C0.332,0.007 0.306,0.013 0.28,0.013C0.244,0.013 0.212,0.005 0.183,-0.011C0.154,-0.027 0.127,-0.046 0.102,-0.069Z" style="fill:rgb(0,174,239);fill-rule:nonzero;"/>
                </g>
            </g>
        </g>
    </g>
</svg>
