<?xml version="1.0" encoding="UTF-8" standalone="no"?>
<!DOCTYPE svg PUBLIC "-//W3C//DTD SVG 1.1//EN" "http://www.w3.org/Graphics/SVG/1.1/DTD/svg11.dtd">
<svg width="100%" height="100%" viewBox="0 0 500 499" version="1.1" xmlns="http://www.w3.org/2000/svg" xmlns:xlink="http://www.w3.org/1999/xlink" xml:space="preserve" xmlns:serif="http://www.serif.com/" style="fill-rule:evenodd;clip-rule:evenodd;">
    <g transform="matrix(1,0,0,1,-1715,-2428)">
        <g>
            <g transform="matrix(4.16667,0,0,4.16667,1965.08,2437.83)">
                <path d="M0,115.068C31.775,115.068 57.534,89.309 57.534,57.534C57.534,25.759 31.775,0 0,0C-31.775,0 -57.534,25.759 -57.534,57.534C-57.534,89.309 -31.775,115.068 0,115.068" style="fill:rgb(235,246,242);fill-rule:nonzero;"/>
            </g>
            <g transform="matrix(4.16667,0,0,4.16667,1965.08,2437.83)">
                <path d="M0,115.068C31.775,115.068 57.534,89.309 57.534,57.534C57.534,25.759 31.775,0 0,0C-31.775,0 -57.534,25.759 -57.534,57.534C-57.534,89.309 -31.775,115.068 0,115.068Z" style="fill:none;fill-rule:nonzero;stroke:rgb(143,201,100);stroke-width:1.13px;"/>
            </g>
            <g transform="matrix(4.16667,0,0,4.16667,1965.08,2521.12)">
                <path d="M0,75.584C20.872,75.584 37.792,58.664 37.792,37.792C37.792,16.92 20.872,0 0,0C-20.872,0 -37.792,16.92 -37.792,37.792C-37.792,58.664 -20.872,75.584 0,75.584" style="fill:rgb(255,240,225);fill-rule:nonzero;"/>
            </g>
            <g transform="matrix(4.16667,0,0,4.16667,1965.08,2521.12)">
                <path d="M0,75.584C20.872,75.584 37.792,58.664 37.792,37.792C37.792,16.92 20.872,0 0,0C-20.872,0 -37.792,16.92 -37.792,37.792C-37.792,58.664 -20.872,75.584 0,75.584Z" style="fill:none;fill-rule:nonzero;stroke:rgb(246,139,30);stroke-width:1.13px;"/>
            </g>
            <g transform="matrix(0,4.16667,4.16667,0,2202.47,2677.51)">
                <path d="M-56.973,-56.973L56.973,-56.973" style="fill:none;fill-rule:nonzero;stroke:rgb(143,201,100);stroke-width:1.13px;"/>
            </g>
            <g transform="matrix(4.16667,0,0,4.16667,0,0)">
                <g transform="matrix(11.276,0,0,11.276,477.078,621.227)">
                    <path d="M0.238,-0L0.387,-0L0.387,-0.74L0.106,-0.74L0.106,-0.614L0.238,-0.614L0.238,-0Z" style="fill:rgb(246,139,30);fill-rule:nonzero;"/>
                </g>
                <g transform="matrix(11.276,0,0,11.276,491.173,632.119)">
                    <path d="M0.053,-0L0.556,-0L0.556,-0.126L0.257,-0.126C0.316,-0.183 0.375,-0.239 0.433,-0.295C0.52,-0.378 0.551,-0.439 0.552,-0.525C0.552,-0.647 0.464,-0.754 0.309,-0.754C0.256,-0.754 0.16,-0.738 0.102,-0.655C0.061,-0.6 0.052,-0.539 0.05,-0.482L0.193,-0.482C0.194,-0.558 0.224,-0.623 0.296,-0.623C0.357,-0.623 0.403,-0.585 0.403,-0.512C0.402,-0.427 0.343,-0.376 0.269,-0.311C0.197,-0.246 0.125,-0.182 0.053,-0.117L0.053,-0Z" style="fill:rgb(246,139,30);fill-rule:nonzero;"/>
                </g>
            </g>
            <g transform="matrix(4.16667,0,0,4.16667,0,0)">
                <g transform="matrix(11.276,0,0,11.276,496.191,648.898)">
                    <path d="M0.211,-0.539C0.213,-0.572 0.228,-0.623 0.291,-0.623C0.339,-0.623 0.365,-0.583 0.365,-0.538C0.365,-0.475 0.305,-0.446 0.254,-0.446L0.221,-0.446L0.221,-0.335L0.281,-0.335C0.339,-0.335 0.408,-0.302 0.408,-0.229C0.408,-0.167 0.37,-0.117 0.298,-0.117C0.225,-0.118 0.189,-0.172 0.185,-0.219L0.035,-0.219C0.037,-0.185 0.045,-0.13 0.078,-0.085C0.124,-0.018 0.214,0.014 0.295,0.014C0.44,0.014 0.557,-0.086 0.557,-0.218C0.557,-0.251 0.55,-0.358 0.415,-0.404C0.453,-0.425 0.514,-0.468 0.514,-0.559C0.514,-0.666 0.427,-0.754 0.297,-0.754C0.201,-0.754 0.068,-0.7 0.064,-0.539L0.211,-0.539Z" style="fill:rgb(246,139,30);fill-rule:nonzero;"/>
                </g>
                <g transform="matrix(11.276,0,0,11.276,491.173,664.874)">
                    <path d="M0.354,-0L0.497,-0L0.497,-0.134L0.577,-0.134L0.577,-0.251L0.497,-0.251L0.497,-0.74L0.355,-0.74L0.012,-0.243L0.012,-0.134L0.354,-0.134L0.354,-0ZM0.163,-0.251L0.363,-0.559L0.363,-0.251L0.163,-0.251Z" style="fill:rgb(246,139,30);fill-rule:nonzero;"/>
                </g>
            </g>
            <g transform="matrix(46.9833,0,0,46.9833,1987.83,2807.58)">
                <path d="M0.122,-0.74L0.057,-0.337L0.178,-0.307C0.211,-0.365 0.258,-0.377 0.293,-0.377C0.372,-0.377 0.424,-0.315 0.424,-0.247C0.424,-0.176 0.364,-0.117 0.294,-0.117C0.241,-0.117 0.191,-0.152 0.175,-0.203L0.025,-0.203C0.045,-0.075 0.155,0.014 0.298,0.014C0.48,0.014 0.573,-0.13 0.573,-0.251C0.573,-0.36 0.493,-0.499 0.326,-0.499C0.262,-0.499 0.233,-0.482 0.211,-0.468L0.237,-0.614L0.512,-0.614L0.512,-0.74L0.122,-0.74Z" style="fill:rgb(246,139,30);fill-rule:nonzero;"/>
            </g>
            <g transform="matrix(46.9833,0,0,46.9833,1913.87,2807.58)">
                <path d="M0.285,-0.74L0.091,-0.456C0.056,-0.402 0.024,-0.339 0.024,-0.261C0.024,-0.205 0.041,-0.133 0.086,-0.082C0.133,-0.021 0.213,0.014 0.304,0.014C0.456,0.014 0.58,-0.101 0.58,-0.261C0.58,-0.424 0.458,-0.511 0.345,-0.511C0.322,-0.511 0.294,-0.504 0.286,-0.5C0.297,-0.516 0.308,-0.53 0.318,-0.545L0.457,-0.74L0.285,-0.74ZM0.171,-0.249C0.171,-0.33 0.234,-0.38 0.3,-0.38C0.375,-0.38 0.431,-0.322 0.431,-0.248C0.431,-0.174 0.373,-0.117 0.299,-0.117C0.231,-0.117 0.171,-0.169 0.171,-0.248L0.171,-0.249Z" style="fill:rgb(246,139,30);fill-rule:nonzero;"/>
            </g>
            <g transform="matrix(46.9833,0,0,46.9833,1858.39,2769)">
                <path d="M0.071,-0.74L0.071,-0.614L0.376,-0.614L0.089,-0L0.253,-0L0.53,-0.625L0.53,-0.74L0.071,-0.74Z" style="fill:rgb(246,139,30);fill-rule:nonzero;"/>
            </g>
            <g transform="matrix(46.9833,0,0,46.9833,1834.43,2699.09)">
                <path d="M0.068,-0.556C0.068,-0.476 0.116,-0.431 0.149,-0.41C0.074,-0.377 0.043,-0.306 0.042,-0.228C0.043,-0.089 0.151,0.014 0.301,0.014C0.451,0.014 0.559,-0.089 0.56,-0.228C0.559,-0.306 0.527,-0.377 0.453,-0.41C0.486,-0.431 0.534,-0.476 0.534,-0.556C0.534,-0.655 0.454,-0.754 0.301,-0.754C0.148,-0.754 0.068,-0.654 0.068,-0.557L0.068,-0.556ZM0.213,-0.544C0.213,-0.595 0.253,-0.632 0.301,-0.632C0.349,-0.632 0.389,-0.595 0.389,-0.544C0.389,-0.494 0.349,-0.456 0.301,-0.456C0.253,-0.456 0.213,-0.494 0.213,-0.543L0.213,-0.544ZM0.191,-0.229C0.191,-0.287 0.235,-0.342 0.301,-0.342C0.367,-0.342 0.411,-0.287 0.411,-0.229C0.411,-0.173 0.367,-0.117 0.301,-0.117C0.235,-0.117 0.191,-0.173 0.191,-0.228L0.191,-0.229Z" style="fill:rgb(246,139,30);fill-rule:nonzero;"/>
            </g>
            <g transform="matrix(46.9833,0,0,46.9833,1853.97,2629.18)">
                <path d="M0.319,-0L0.513,-0.284C0.548,-0.338 0.58,-0.401 0.58,-0.479C0.58,-0.535 0.563,-0.607 0.518,-0.658C0.47,-0.719 0.391,-0.754 0.3,-0.754C0.147,-0.754 0.024,-0.639 0.024,-0.479C0.024,-0.316 0.145,-0.229 0.259,-0.229C0.282,-0.229 0.31,-0.236 0.318,-0.24C0.308,-0.225 0.297,-0.211 0.286,-0.195L0.147,-0L0.319,-0ZM0.433,-0.492C0.433,-0.41 0.37,-0.36 0.302,-0.36C0.228,-0.36 0.173,-0.418 0.173,-0.493C0.173,-0.567 0.231,-0.623 0.303,-0.623C0.373,-0.623 0.433,-0.571 0.433,-0.493L0.433,-0.492Z" style="fill:rgb(246,139,30);fill-rule:nonzero;"/>
            </g>
            <g transform="matrix(4.16667,0,0,4.16667,0,0)">
                <g transform="matrix(11.276,0,0,11.276,455.519,621.227)">
                    <path d="M0.238,-0L0.387,-0L0.387,-0.74L0.106,-0.74L0.106,-0.614L0.238,-0.614L0.238,-0Z" style="fill:rgb(246,139,30);fill-rule:nonzero;"/>
                </g>
                <g transform="matrix(11.276,0,0,11.276,461.292,621.227)">
                    <path d="M0.035,-0.256C0.035,-0.054 0.2,0.014 0.304,0.014C0.407,0.014 0.567,-0.054 0.567,-0.256L0.567,-0.484C0.567,-0.684 0.406,-0.754 0.302,-0.754C0.21,-0.754 0.035,-0.696 0.035,-0.482L0.035,-0.256ZM0.184,-0.487C0.184,-0.552 0.217,-0.623 0.3,-0.623C0.402,-0.623 0.418,-0.53 0.418,-0.488L0.418,-0.252C0.418,-0.195 0.384,-0.117 0.301,-0.117C0.22,-0.117 0.184,-0.185 0.184,-0.252L0.184,-0.487Z" style="fill:rgb(246,139,30);fill-rule:nonzero;"/>
                </g>
            </g>
            <g transform="matrix(2.49303,3.33855,3.33855,-2.49303,2030.48,2451.73)">
                <path d="M-22.908,-45.696L91.154,-45.696" style="fill:none;fill-rule:nonzero;stroke:rgb(143,201,100);stroke-width:1.13px;"/>
            </g>
            <g transform="matrix(-2.47844,3.34939,3.34939,2.47844,2036.13,2905.92)">
                <path d="M-90.862,-45.798L23.084,-45.798" style="fill:none;fill-rule:nonzero;stroke:rgb(143,201,100);stroke-width:1.13px;"/>
            </g>
            <g transform="matrix(3.96832,1.27026,1.27026,-3.96832,1769.93,2543.7)">
                <path d="M-2.715,-17.386L111.347,-17.387" style="fill:none;fill-rule:nonzero;stroke:rgb(143,201,100);stroke-width:1.13px;"/>
            </g>
            <g transform="matrix(-3.98988,1.20083,1.20083,3.98988,1768.36,2812.63)">
                <path d="M-111.528,-16.42L2.417,-16.42" style="fill:none;fill-rule:nonzero;stroke:rgb(143,201,100);stroke-width:1.13px;"/>
            </g>
            <g transform="matrix(4.16667,0,0,4.16667,1965.08,2601.03)">
                <path d="M0,37.228C10.28,37.228 18.614,28.894 18.614,18.614C18.614,8.333 10.28,0 0,0C-10.28,0 -18.614,8.333 -18.614,18.614C-18.614,28.894 -10.28,37.228 0,37.228" style="fill:rgb(0,171,188);fill-rule:nonzero;"/>
            </g>
            <g transform="matrix(56.3796,0,0,56.3796,1945.1,2699.45)">
                <path d="M0.273,-0.74L0.089,-0.47C0.052,-0.413 0.021,-0.347 0.021,-0.272C0.021,-0.215 0.037,-0.139 0.084,-0.086C0.134,-0.02 0.22,0.014 0.313,0.014C0.469,0.014 0.6,-0.099 0.6,-0.268C0.6,-0.436 0.475,-0.519 0.367,-0.519C0.353,-0.519 0.33,-0.516 0.329,-0.517C0.339,-0.531 0.349,-0.544 0.358,-0.557L0.492,-0.74L0.273,-0.74ZM0.207,-0.255C0.207,-0.307 0.247,-0.353 0.307,-0.353C0.375,-0.353 0.411,-0.3 0.411,-0.252C0.411,-0.193 0.363,-0.152 0.307,-0.152C0.261,-0.152 0.207,-0.186 0.207,-0.254L0.207,-0.255Z" style="fill:white;fill-rule:nonzero;"/>
            </g>
        </g>
    </g>
</svg>
