<?xml version="1.0" encoding="UTF-8" standalone="no"?>
<!DOCTYPE svg PUBLIC "-//W3C//DTD SVG 1.1//EN" "http://www.w3.org/Graphics/SVG/1.1/DTD/svg11.dtd">
<svg width="100%" height="100%" viewBox="0 0 259 114" version="1.1" xmlns="http://www.w3.org/2000/svg" xmlns:xlink="http://www.w3.org/1999/xlink" xml:space="preserve" xmlns:serif="http://www.serif.com/" style="fill-rule:evenodd;clip-rule:evenodd;stroke-linejoin:round;stroke-miterlimit:2;">
    <g transform="matrix(1,0,0,1,-572,-1416)">
        <g>
            <g transform="matrix(4.16667,0,0,4.16667,621.557,1427.43)">
                <path d="M0,0.047C0.123,-0.491 0.246,-1.03 0.369,-1.569C0.766,-1.033 0.457,0.327 0.46,1.049C0.113,1.215 -0.231,1.408 -0.573,1.616C-0.573,1.614 -0.573,1.613 -0.574,1.611C-0.57,1.609 -0.564,1.61 -0.562,1.608C-0.131,1.226 -0.123,0.587 0,0.047" style="fill:rgb(195,154,107);fill-rule:nonzero;"/>
            </g>
            <g transform="matrix(4.16667,0,0,4.16667,639.112,1433.42)">
                <path d="M0,14.696C-2.536,17.094 -5.529,16.397 -8.556,16.347C-11.95,16.292 -13.545,14.497 -14.394,11.243C-14.96,9.072 -15.084,6.458 -14.573,4.254C-13.707,0.522 -8.747,-2.398 -5.621,0.547C-5.544,0.619 -5.461,0.651 -5.378,0.669C-5.363,0.767 -5.266,0.851 -5.141,0.797C-1.049,-1.012 3.315,-1.069 3.787,4.321C4.107,7.983 2.687,12.156 0,14.696" style="fill:rgb(182,32,46);fill-rule:nonzero;"/>
            </g>
            <g transform="matrix(4.16667,0,0,4.16667,0,0)">
                <g opacity="0.2">
                    <g transform="matrix(1,0,0,1,142.511,352.056)">
                        <path d="M0,-8.076C-0.423,-7.687 -0.844,-7.293 -1.216,-6.854C-1.59,-6.413 -1.863,-5.93 -2.126,-5.418C-2.403,-4.88 -2.639,-4.238 -2.514,-3.625C-2.473,-3.423 -2.398,-3.226 -2.252,-3.075C-2.126,-2.945 -1.965,-2.859 -1.804,-2.78C-1.418,-2.591 -0.993,-2.42 -0.769,-2.027C-0.557,-1.656 -0.609,-1.202 -0.5,-0.801C-0.386,-0.387 -0.185,-0.001 0.062,0.349C0.179,0.515 0.312,0.695 0.48,0.813C0.669,0.946 0.906,0.864 1.09,0.761C1.312,0.636 1.52,0.464 1.769,0.393C1.982,0.333 2.215,0.324 2.435,0.349C2.852,0.394 3.24,0.547 3.634,0.679C4,0.8 4.397,0.911 4.776,0.78C5.261,0.613 5.521,0.119 5.815,-0.263C6.028,-0.537 6.257,-0.782 6.583,-0.918C7.042,-1.109 7.561,-1.14 8.045,-1.232C8.333,-1.287 8.622,-1.354 8.888,-1.479C9.143,-1.599 9.383,-1.767 9.612,-1.932C10.021,-2.226 10.4,-2.565 10.838,-2.818C11.072,-2.952 11.321,-3.061 11.578,-3.139C11.853,-3.224 12.139,-3.251 12.42,-3.299C12.97,-3.392 13.502,-3.583 13.804,-4.084C14.059,-4.507 14.087,-5.017 14.087,-5.499C14.087,-5.678 14.084,-5.855 14.083,-6.033C12.681,-9.022 9.118,-8.735 5.734,-7.239C5.61,-7.184 5.513,-7.268 5.497,-7.367C5.415,-7.385 5.332,-7.417 5.254,-7.489C3.764,-8.893 1.859,-8.954 0.177,-8.239C0.118,-8.184 0.059,-8.13 0,-8.076" style="fill:white;fill-rule:nonzero;"/>
                    </g>
                </g>
            </g>
            <g transform="matrix(4.16667,0,0,4.16667,618.592,1498.07)">
                <path d="M0,-15.665C-2.294,-18.011 -5.473,-17.618 -7.922,-15.643C-10.537,-13.533 -11.1,-10.521 -10.973,-7.316C-10.858,-4.419 -10.01,-0.802 -7.515,0.999C-6.465,1.756 -5.463,1.928 -4.201,1.958C-2.482,1.999 -0.503,2.346 1.229,2.113C7.209,1.314 10.361,-6.341 9.671,-11.712C8.922,-17.552 3.854,-17.894 -0.385,-15.008C-0.566,-14.885 -0.412,-14.633 -0.216,-14.719C3.875,-16.527 8.24,-16.584 8.711,-11.194C9.032,-7.532 7.611,-3.359 4.925,-0.819C2.389,1.579 -0.604,0.882 -3.631,0.832C-7.025,0.776 -8.621,-1.019 -9.469,-4.272C-10.035,-6.443 -10.16,-9.058 -9.648,-11.262C-8.782,-14.993 -3.822,-17.913 -0.696,-14.969C-0.235,-14.535 0.444,-15.21 0,-15.665" style="fill:rgb(35,31,32);fill-rule:nonzero;"/>
            </g>
            <g transform="matrix(4.16667,0,0,4.16667,619.217,1417.52)">
                <path d="M0,3.987C0.43,3.605 0.438,2.966 0.562,2.426C0.721,1.728 0.88,1.029 1.04,0.331C0.889,0.416 0.739,0.502 0.588,0.587C1.577,0.741 0.905,2.943 1.033,3.666C1.116,4.134 1.831,3.936 1.748,3.468C1.559,2.399 2.495,0.115 0.784,-0.12C0.597,-0.147 0.377,-0.078 0.333,0.135C0.175,0.884 0.018,1.633 -0.139,2.383C-0.252,2.925 -0.474,3.433 -0.248,3.955C-0.204,4.054 -0.067,4.047 0,3.987" style="fill:rgb(35,31,32);fill-rule:nonzero;"/>
            </g>
            <g transform="matrix(4.16667,0,0,4.16667,698.152,1443.28)">
                <path d="M0,-3.827C0.235,-3.682 0.498,-3.583 0.784,-3.537C1.206,-3.469 1.404,-3.684 1.417,-3.217C1.437,-2.461 1.171,-2.041 1.17,-1.264C1.17,-1.091 1.384,-0.653 1.485,-0.566C1.044,-0.403 0.196,-0.213 -0.259,0C-0.497,-0.152 -0.736,-0.31 -0.969,-0.442C-0.681,-1.595 -0.395,-2.718 0,-3.827" style="fill:rgb(195,154,107);fill-rule:nonzero;"/>
            </g>
            <g transform="matrix(4.16667,0,0,4.16667,738.085,1454.98)">
                <path d="M0,8.986C-1.146,13.448 -3.418,16.488 -8.239,17.104C-11.427,17.512 -15.28,17.687 -17.923,15.557C-25.339,9.579 -21.047,-8.701 -9.939,-2.34C-9.594,-2.142 -9.288,-2.329 -9.169,-2.605C-5.538,-4.277 -1.395,-4.668 0.127,-0.16C1.096,2.71 0.737,6.114 0,8.986" style="fill:rgb(182,32,46);fill-rule:nonzero;"/>
            </g>
            <g transform="matrix(4.16667,0,0,4.16667,0,0)">
                <g opacity="0.2">
                    <g transform="matrix(1,0,0,1,160.35,355.207)">
                        <path d="M0,-7.809C-0.354,-7.247 -0.682,-6.594 -0.809,-5.938C-0.924,-5.345 -0.673,-4.824 -0.426,-4.3C-0.319,-4.073 -0.216,-3.855 -0.172,-3.606C-0.132,-3.373 -0.127,-3.137 -0.141,-2.902C-0.197,-1.95 -0.581,-0.864 -0.017,0.008C0.341,0.56 0.976,0.892 1.599,1.04C1.955,1.125 2.318,1.17 2.673,1.258C3.031,1.347 3.341,1.497 3.658,1.679C4.179,1.978 4.72,2.256 5.324,2.327C5.983,2.403 6.659,2.284 7.303,2.15C7.878,2.031 8.454,1.85 8.917,1.476C9.388,1.096 9.693,0.553 10.029,0.059C10.28,-0.311 10.554,-0.671 10.944,-0.905C11.436,-1.2 12.027,-1.278 12.589,-1.316C13.26,-1.36 13.947,-1.332 14.594,-1.545C15.22,-1.751 15.763,-2.18 16.203,-2.663C16.507,-2.997 16.746,-3.374 16.954,-3.768C16.866,-4.496 16.715,-5.208 16.486,-5.889C15.026,-10.212 11.052,-9.837 7.569,-8.233C7.455,-7.969 7.162,-7.789 6.83,-7.98C4.647,-9.229 2.744,-9.475 1.15,-9.046C0.692,-8.71 0.302,-8.288 0,-7.809" style="fill:white;fill-rule:nonzero;"/>
                    </g>
                </g>
            </g>
            <g transform="matrix(4.16667,0,0,4.16667,698.701,1504.27)">
                <path d="M0,-14.667C-9.863,-21.332 -14.902,-7.339 -11.666,0.341C-9.361,5.811 -4.058,6.665 1.355,5.935C8.327,4.994 10.779,-1.961 10.605,-8.313C10.415,-15.271 5.758,-17.774 -0.401,-14.834C-0.927,-14.583 -0.468,-13.805 0.056,-14.052C3.612,-15.73 7.725,-16.154 9.215,-11.726C10.146,-8.959 9.804,-5.682 9.093,-2.915C7.988,1.393 5.786,4.336 1.133,4.934C-1.948,5.329 -5.662,5.491 -8.215,3.434C-15.393,-2.35 -11.197,-20.083 -0.471,-13.862C0.054,-13.558 0.492,-14.334 0,-14.667" style="fill:rgb(35,31,32);fill-rule:nonzero;"/>
            </g>
            <g transform="matrix(4.16667,0,0,4.16667,694.66,1424.64)">
                <path d="M0,3.816C0.289,2.603 0.584,1.431 1.064,0.275C0.844,0.334 0.624,0.391 0.403,0.45C0.692,0.819 1.079,1.067 1.547,1.141C1.883,1.194 2.158,1.033 2.122,1.469C2.069,2.117 1.704,2.703 1.703,3.362C1.702,3.86 2.475,3.861 2.477,3.362C2.481,2.608 3.012,1.911 2.897,1.141C2.856,0.861 2.726,0.622 2.471,0.483C2.319,0.401 2.163,0.387 1.995,0.371C1.529,0.325 1.262,0.276 0.962,-0.11C0.757,-0.374 0.4,-0.171 0.301,0.065C-0.186,1.228 -0.563,2.463 -0.677,3.724C-0.711,4.113 -0.089,4.19 0,3.816" style="fill:rgb(35,31,32);fill-rule:nonzero;"/>
            </g>
            <g transform="matrix(4.16667,0,0,4.16667,785.153,1433.06)">
                <path d="M0,0.185C-0.089,-0.178 -0.173,-0.586 -0.366,-0.914C-0.268,-0.944 -0.168,-0.969 -0.071,-1.003C0,-1.029 0.071,-1.05 0.14,-1.073C0.424,-0.327 0.666,0.354 0.55,1.192C0.543,1.216 0.549,1.235 0.545,1.258C0.412,1.199 0.283,1.152 0.152,1.1C0.164,0.793 0.072,0.481 0,0.185" style="fill:rgb(195,154,107);fill-rule:nonzero;"/>
            </g>
            <g transform="matrix(4.16667,0,0,4.16667,783.137,1436.68)">
                <path d="M0,16.633C-0.105,16.551 -0.241,16.502 -0.405,16.525C-5.664,17.262 -8.613,13.17 -8.327,8.173C-8.206,6.068 -7.494,3.839 -5.904,2.376C-4.149,0.762 -2.135,0.805 -0.002,1.026C-0.471,1.319 -0.919,1.621 -1.336,1.919C-1.694,2.176 -1.361,2.772 -0.985,2.52C1.374,0.944 4.891,-1.061 7.718,0.576C9.864,1.819 10.501,4.599 10.472,6.902C10.396,12.923 6.199,17.694 0,16.633" style="fill:rgb(182,32,46);fill-rule:nonzero;"/>
            </g>
            <g transform="matrix(4.16667,0,0,4.16667,0,0)">
                <g opacity="0.2">
                    <g transform="matrix(1,0,0,1,195.671,352.78)">
                        <path d="M0,-7.4C-2.827,-9.038 -6.344,-7.033 -8.703,-5.457C-9.08,-5.205 -9.413,-5.8 -9.054,-6.057C-9.028,-6.076 -8.997,-6.094 -8.97,-6.113C-9.12,-6.401 -9.201,-6.727 -9.232,-7.055C-10.692,-7.086 -12.075,-6.846 -13.333,-5.829C-13.525,-5.656 -13.715,-5.482 -13.889,-5.293C-14.288,-4.858 -14.649,-4.362 -14.795,-3.782C-14.871,-3.482 -14.873,-3.189 -14.756,-2.899C-14.657,-2.651 -14.494,-2.432 -14.341,-2.215C-14.181,-1.988 -14.016,-1.754 -13.917,-1.493C-13.829,-1.263 -13.803,-1.011 -13.789,-0.768C-13.757,-0.246 -13.818,0.329 -13.602,0.821C-13.502,1.045 -13.328,1.251 -13.099,1.349C-12.881,1.443 -12.639,1.485 -12.405,1.511C-11.283,1.638 -10.161,1.432 -9.038,1.478C-8.39,1.504 -7.732,1.518 -7.083,1.5C-6.434,1.482 -5.737,1.424 -5.15,1.121C-4.871,0.976 -4.659,0.745 -4.519,0.466C-4.387,0.205 -4.312,-0.081 -4.208,-0.353C-3.996,-0.905 -3.646,-1.408 -3.06,-1.593C-2.473,-1.778 -1.825,-1.674 -1.223,-1.654C-0.953,-1.645 -0.688,-1.641 -0.419,-1.609C-0.131,-1.576 0.157,-1.535 0.446,-1.513C0.911,-1.479 1.537,-1.444 1.846,-1.868C2.137,-2.268 2.208,-2.828 2.26,-3.306C2.292,-3.604 2.309,-3.904 2.325,-4.203C1.922,-5.514 1.205,-6.702 0,-7.4" style="fill:white;fill-rule:nonzero;"/>
                    </g>
                </g>
            </g>
            <g transform="matrix(4.16667,0,0,4.16667,788.425,1499.45)">
                <path d="M0,-14.581C-12.77,-20.578 -14.578,5.997 -1.414,2.403C-0.789,2.232 -1.069,1.375 -1.674,1.46C-6.933,2.197 -9.882,-1.894 -9.596,-6.892C-9.475,-8.997 -8.763,-11.226 -7.173,-12.688C-5.121,-14.576 -2.715,-14.201 -0.179,-13.92C0.167,-13.882 0.31,-14.435 0,-14.581" style="fill:rgb(35,31,32);fill-rule:nonzero;"/>
            </g>
            <g transform="matrix(4.16667,0,0,4.16667,779.033,1499.2)">
                <path d="M0,-12.485C2.359,-14.061 5.876,-16.066 8.703,-14.428C10.849,-13.185 11.486,-10.406 11.457,-8.103C11.381,-2.049 7.14,2.746 0.885,1.616C0.319,1.514 0.076,2.323 0.644,2.49C7.681,4.557 12.63,-1.958 12.456,-8.488C12.388,-11.015 11.539,-13.936 9.187,-15.256C6.005,-17.042 2.246,-14.943 -0.351,-13.086C-0.709,-12.829 -0.376,-12.233 0,-12.485" style="fill:rgb(35,31,32);fill-rule:nonzero;"/>
            </g>
            <g transform="matrix(4.16667,0,0,4.16667,785.709,1428.45)">
                <path d="M0,2.409C0.082,2.04 -0.045,1.652 -0.133,1.292C-0.229,0.903 -0.307,0.458 -0.531,0.121C-0.78,-0.255 -1.302,-0.008 -1.232,0.417C-1.168,0.806 -0.946,1.184 -0.813,1.558C-0.695,1.891 -0.631,2.236 -0.411,2.517C-0.297,2.664 -0.037,2.576 0,2.409" style="fill:rgb(35,31,32);fill-rule:nonzero;"/>
            </g>
            <g transform="matrix(4.16667,0,0,4.16667,781.133,1425.59)">
                <path d="M0,1.063C0.302,0.98 0.598,0.892 0.894,0.789C1.171,0.691 1.437,0.645 1.615,0.399C1.719,0.254 1.612,0.027 1.449,-0.011C1.151,-0.08 0.889,0.087 0.617,0.198C0.336,0.311 0.065,0.439 -0.207,0.571C-0.485,0.706 -0.289,1.143 0,1.063" style="fill:rgb(35,31,32);fill-rule:nonzero;"/>
            </g>
            <g transform="matrix(4.16667,0,0,4.16667,785.403,1438.74)">
                <path d="M0,-2.649C0.318,-1.814 0.617,-1.089 0.49,-0.17C0.775,-0.132 1.061,-0.093 1.346,-0.055C1.325,-0.261 1.305,-0.397 1.146,-0.539C1.049,-0.627 0.898,-0.66 0.781,-0.586C0.603,-0.474 0.546,-0.37 0.49,-0.17C0.324,0.421 1.262,0.59 1.346,-0.055C1.475,-1.051 1.285,-2.228 0.587,-2.991C0.359,-3.239 -0.126,-2.98 0,-2.649" style="fill:rgb(35,31,32);fill-rule:nonzero;"/>
            </g>
        </g>
    </g>
</svg>
