<?xml version="1.0" encoding="UTF-8" standalone="no"?>
<!DOCTYPE svg PUBLIC "-//W3C//DTD SVG 1.1//EN" "http://www.w3.org/Graphics/SVG/1.1/DTD/svg11.dtd">
<svg width="100%" height="100%" viewBox="0 0 271 113" version="1.1" xmlns="http://www.w3.org/2000/svg" xmlns:xlink="http://www.w3.org/1999/xlink" xml:space="preserve" xmlns:serif="http://www.serif.com/" style="fill-rule:evenodd;clip-rule:evenodd;stroke-linejoin:round;stroke-miterlimit:2;">
    <g transform="matrix(1,0,0,1,-908,-1417)">
        <g>
            <g transform="matrix(4.16667,0,0,4.16667,1120.18,1433.93)">
                <path d="M0,1.155C0.125,1.265 0.335,1.193 0.336,1.015C0.337,0.504 -0.012,0.008 -0.322,-0.373C-0.568,-0.677 -0.866,-0.976 -1.208,-1.186C-1.042,-1.221 -0.877,-1.26 -0.711,-1.298C-0.493,-1.346 -0.262,-1.367 -0.059,-1.449C0.278,-0.82 0.754,-0.11 1.344,0.273C1.655,0.474 1.907,0.049 1.71,-0.2C1.706,-0.206 1.7,-0.21 1.696,-0.216C2.505,-0.725 3.258,-1.557 3.621,-2.479C3.747,-2.052 3.876,-1.625 3.832,-1.183C3.758,-0.455 3.334,-0.157 2.836,0.294C2.689,0.427 2.799,0.72 3.006,0.703C3.022,0.701 3.037,0.695 3.053,0.693C3.078,0.761 3.125,0.823 3.198,0.862C3.569,1.06 4.001,1.128 4.405,1.236C4.474,1.255 4.542,1.275 4.61,1.295C4.042,1.492 3.475,1.651 2.862,1.343C2.522,1.174 2.219,1.596 2.399,1.837C2.404,2.217 2.399,2.598 2.355,2.975C2.33,3.197 2.272,3.416 2.217,3.634C1.686,3.049 0.935,2.643 0.234,2.301C0.186,2.234 0.114,2.181 0.007,2.175C-1.516,2.071 -3.119,2.24 -4.612,2.638C-4.113,2.228 -3.471,1.978 -2.885,1.722C-2.061,1.363 -1.205,1.071 -0.387,0.7C-0.267,0.862 -0.147,1.024 0,1.155" style="fill:rgb(57,181,74);fill-rule:nonzero;"/>
            </g>
            <g transform="matrix(4.16667,0,0,4.16667,1139.19,1432.54)">
                <path d="M0,17.544C-4.187,18.437 -9.476,18.056 -13.069,15.513C-19.807,10.746 -14.387,-0.893 -6.596,0.955C-7.165,1.206 -7.723,1.485 -8.264,1.756C-9.021,2.134 -9.709,2.547 -10.091,3.328C-10.203,3.556 -9.941,3.734 -9.771,3.61C-9.748,3.613 -9.732,3.629 -9.706,3.625C-7.996,3.375 -6.394,3.149 -4.666,3.123C-3.941,3.626 -3.028,3.971 -2.571,4.764C-2.48,4.923 -2.325,4.949 -2.19,4.904C-2.103,4.899 -2.014,4.87 -1.958,4.793C-1.683,4.416 -1.649,3.853 -1.604,3.399C-1.571,3.07 -1.572,2.746 -1.589,2.421C-0.721,2.629 0.416,2.441 1.018,1.812C1.026,1.811 1.035,1.813 1.044,1.813C1.186,1.807 1.278,1.649 1.217,1.527C1.223,1.423 1.124,1.339 1.015,1.343C0.74,1.153 0.421,1.042 0.106,0.923C-0.176,0.815 -0.465,0.695 -0.761,0.618C-0.703,0.556 -0.648,0.489 -0.598,0.418C-0.529,0.442 -0.455,0.457 -0.37,0.444C4.67,-0.304 8.557,3.251 8.432,8.338C8.312,13.21 4.571,16.57 0,17.544" style="fill:rgb(239,56,35);fill-rule:nonzero;"/>
            </g>
            <g transform="matrix(4.16667,0,0,4.16667,0,0)">
                <g opacity="0.2">
                    <g transform="matrix(1,0,0,1,273.522,354.394)">
                        <path d="M0,-10.175C-0.082,-10.031 -0.17,-9.892 -0.271,-9.762C-0.183,-9.728 -0.095,-9.695 -0.008,-9.661C0.306,-9.542 0.625,-9.431 0.9,-9.241C1.009,-9.245 1.108,-9.161 1.102,-9.057C1.164,-8.935 1.071,-8.778 0.929,-8.772C0.92,-8.772 0.912,-8.774 0.903,-8.773C0.854,-8.722 0.783,-8.692 0.727,-8.646C0.821,-8.559 0.925,-8.483 1.01,-8.386C1.052,-8.339 1.049,-8.262 0.99,-8.23C0.155,-7.765 -0.786,-7.547 -1.716,-7.345C-1.72,-7.291 -1.713,-7.238 -1.719,-7.185C-1.764,-6.732 -1.797,-6.168 -2.072,-5.791C-2.128,-5.714 -2.217,-5.685 -2.305,-5.68C-2.439,-5.635 -2.595,-5.661 -2.686,-5.821C-2.703,-5.849 -2.728,-5.867 -2.746,-5.895C-2.835,-5.872 -2.931,-5.862 -3.041,-5.88C-3.354,-5.935 -3.642,-6.113 -3.896,-6.293C-4.095,-6.434 -4.272,-6.607 -4.477,-6.738C-4.67,-6.862 -4.882,-6.88 -5.106,-6.864C-5.417,-6.843 -5.727,-6.779 -6.032,-6.718C-6.707,-6.584 -7.376,-6.426 -8.057,-6.325C-8.669,-6.234 -9.314,-6.166 -9.924,-6.307C-9.975,-6.319 -10.01,-6.38 -9.994,-6.43C-9.938,-6.606 -9.903,-6.788 -9.859,-6.968C-9.868,-6.971 -9.876,-6.973 -9.886,-6.974C-10.056,-6.85 -10.317,-7.029 -10.206,-7.256C-9.837,-8.009 -9.183,-8.418 -8.458,-8.786C-8.272,-9.129 -8.083,-9.47 -7.877,-9.803C-10.988,-10.022 -13.608,-8.117 -15.047,-5.518C-15.151,-5.164 -15.214,-4.801 -15.211,-4.428C-15.208,-3.784 -15.006,-3.122 -14.619,-2.605C-14.306,-2.185 -13.91,-1.823 -13.509,-1.49C-13.044,-1.106 -12.548,-0.756 -12.027,-0.451C-11.592,-0.196 -11.132,0.043 -10.642,0.171C-10.027,0.332 -9.406,0.131 -8.833,-0.088C-8.526,-0.205 -8.222,-0.33 -7.906,-0.421C-7.597,-0.51 -7.274,-0.557 -6.954,-0.582C-6.394,-0.628 -5.835,-0.587 -5.298,-0.783C-4.943,-0.914 -4.636,-1.128 -4.321,-1.333C-4.019,-1.529 -3.711,-1.719 -3.396,-1.893C-2.792,-2.224 -2.129,-2.547 -1.442,-2.643C-0.764,-2.737 -0.081,-2.626 0.58,-2.475C1.27,-2.317 1.949,-2.109 2.649,-1.994C3.002,-1.937 3.36,-1.906 3.717,-1.922C4.056,-1.937 4.388,-1.95 4.715,-2.053C5.011,-2.146 5.329,-2.321 5.451,-2.624C5.538,-2.84 5.511,-3.082 5.538,-3.309C5.568,-3.562 5.662,-3.811 5.834,-4.001C6.001,-4.188 6.237,-4.301 6.459,-4.405C6.698,-4.518 6.959,-4.621 7.157,-4.802C7.299,-4.931 7.414,-5.104 7.494,-5.278C7.574,-5.45 7.623,-5.638 7.657,-5.828C6.412,-8.743 3.518,-10.507 0,-10.175" style="fill:white;fill-rule:nonzero;"/>
                    </g>
                </g>
            </g>
            <g transform="matrix(4.16667,0,0,4.16667,1098.78,1434.73)">
                <path d="M0,3.031C0.482,2.224 1.429,1.889 2.251,1.531C3.151,1.138 4.094,0.837 4.979,0.412C5.307,0.255 5.074,-0.254 4.737,-0.164C3.599,0.141 2.487,0.706 1.437,1.23C0.679,1.608 -0.008,2.021 -0.391,2.802C-0.518,3.062 -0.151,3.285 0,3.031" style="fill:rgb(35,31,32);fill-rule:nonzero;"/>
            </g>
            <g transform="matrix(0.882759,4.07208,4.07208,-0.882759,1104.72,1435.3)">
                <path d="M2.593,-2.026C2.712,-0.265 2.831,1.379 3.189,3.112C3.269,3.5 2.701,3.616 2.593,3.242C2.107,1.559 1.926,-0.309 2.101,-2.053C2.133,-2.376 2.572,-2.336 2.593,-2.026" style="fill:rgb(35,31,32);fill-rule:nonzero;"/>
            </g>
            <g transform="matrix(-1.84264,3.73708,3.73708,1.84264,1130.13,1444.43)">
                <path d="M1.326,-2.274C1.497,-1.363 1.35,-0.316 1.89,0.49C2.131,0.851 1.569,1.224 1.326,0.863C0.738,-0.015 0.753,-1.217 0.758,-2.234C0.76,-2.606 1.259,-2.63 1.326,-2.274" style="fill:rgb(35,31,32);fill-rule:nonzero;"/>
            </g>
            <g transform="matrix(4.16667,0,0,4.16667,1130.17,1451.79)">
                <path d="M0,-2.694C0.011,-2.233 0.01,-1.769 -0.043,-1.311C-0.096,-0.858 -0.282,-0.417 -0.299,0.035C-0.31,0.328 0.062,0.373 0.208,0.172C0.483,-0.205 0.517,-0.768 0.562,-1.221C0.614,-1.741 0.606,-2.25 0.528,-2.765C0.483,-3.067 -0.007,-2.992 0,-2.694" style="fill:rgb(35,31,32);fill-rule:nonzero;"/>
            </g>
            <g transform="matrix(-1.21751,-3.98482,-3.98482,1.21751,1132.2,1435.55)">
                <path d="M-1.372,-2.369C-1.274,-1.454 -1.639,-0.467 -0.908,0.301C-0.606,0.621 -1.074,1.124 -1.372,0.803C-2.084,0.03 -2.402,-1.624 -1.691,-2.489C-1.58,-2.622 -1.387,-2.517 -1.372,-2.369" style="fill:rgb(35,31,32);fill-rule:nonzero;"/>
            </g>
            <g transform="matrix(4.16667,0,0,4.16667,1144.13,1436.21)">
                <path d="M0,0.59C-0.306,0.312 -0.698,0.187 -1.079,0.042C-1.496,-0.117 -1.926,-0.31 -2.375,-0.338C-2.723,-0.36 -2.853,0.155 -2.552,0.316C-2.181,0.514 -1.749,0.581 -1.345,0.69C-0.95,0.795 -0.555,0.95 -0.142,0.932C0.022,0.925 0.134,0.712 0,0.59" style="fill:rgb(35,31,32);fill-rule:nonzero;"/>
            </g>
            <g transform="matrix(4.16667,0,0,4.16667,1134.59,1435.55)">
                <path d="M0,-3.487C0.122,-2.852 0.438,-2.228 0.372,-1.572C0.298,-0.844 -0.126,-0.547 -0.624,-0.095C-0.771,0.038 -0.661,0.331 -0.454,0.314C0.23,0.255 0.679,-0.42 0.855,-1.041C1.113,-1.95 0.712,-2.761 0.374,-3.59C0.28,-3.818 -0.048,-3.737 0,-3.487" style="fill:rgb(35,31,32);fill-rule:nonzero;"/>
            </g>
            <g transform="matrix(4.16667,0,0,4.16667,1121.58,1428.77)">
                <path d="M0,2.254C0.001,1.742 -0.348,1.246 -0.658,0.865C-0.998,0.446 -1.432,0.031 -1.952,-0.142C-2.272,-0.25 -2.523,0.196 -2.281,0.422C-1.938,0.742 -1.536,0.983 -1.208,1.325C-0.892,1.655 -0.675,2.093 -0.336,2.394C-0.211,2.504 0,2.432 0,2.254" style="fill:rgb(35,31,32);fill-rule:nonzero;"/>
            </g>
            <g transform="matrix(4.16667,0,0,4.16667,1112.87,1425.72)">
                <path d="M0,0.909C0.344,0.816 0.694,0.752 1.042,0.674C1.349,0.605 1.686,0.598 1.927,0.384C2.043,0.28 1.983,0.067 1.834,0.033C1.512,-0.042 1.163,0.124 0.854,0.223C0.519,0.331 0.201,0.482 -0.111,0.645C-0.258,0.722 -0.156,0.951 0,0.909" style="fill:rgb(35,31,32);fill-rule:nonzero;"/>
            </g>
            <g transform="matrix(4.16667,0,0,4.16667,1119.59,1433.87)">
                <path d="M0,-1.583C0.34,-0.92 0.85,-0.124 1.486,0.288C1.796,0.489 2.049,0.063 1.852,-0.186C1.633,-0.462 1.342,-0.686 1.106,-0.949C0.859,-1.227 0.631,-1.523 0.414,-1.825C0.235,-2.072 -0.143,-1.862 0,-1.583" style="fill:rgb(35,31,32);fill-rule:nonzero;"/>
            </g>
            <g transform="matrix(4.16667,0,0,4.16667,1134.16,1433.2)">
                <path d="M0,-3.179C-0.251,-2.662 -0.462,-2.15 -0.817,-1.692C-1.193,-1.207 -1.651,-0.845 -2.161,-0.513C-2.521,-0.279 -2.201,0.28 -1.824,0.065C-0.756,-0.543 0.267,-1.742 0.461,-2.984C0.502,-3.241 0.136,-3.459 0,-3.179" style="fill:rgb(35,31,32);fill-rule:nonzero;"/>
            </g>
            <g transform="matrix(4.16667,0,0,4.16667,1115.34,1502.66)">
                <path d="M0,-16.394C-6.783,-18.917 -13.692,-10.298 -10.769,-3.954C-8.273,1.462 -0.737,2.523 4.507,1.836C10.261,1.084 15.307,-2.903 15.068,-9.124C14.857,-14.645 10.472,-18.063 5.121,-17.24C4.558,-17.153 4.799,-16.302 5.356,-16.385C10.396,-17.133 14.283,-13.579 14.158,-8.492C14.038,-3.62 10.297,-0.259 5.726,0.714C1.539,1.607 -3.75,1.226 -7.343,-1.316C-14.273,-6.22 -8.341,-18.4 -0.195,-15.686C0.258,-15.535 0.437,-16.232 0,-16.394" style="fill:rgb(35,31,32);fill-rule:nonzero;"/>
            </g>
            <g transform="matrix(4.16667,0,0,4.16667,954.267,1431.75)">
                <path d="M0,-1.651C0.001,-1.65 0.001,-1.648 0.002,-1.647C0.16,-1.439 0.489,-1.499 0.503,-1.783C0.512,-1.943 0.48,-2.104 0.436,-2.263C0.653,-2.245 0.871,-2.225 1.089,-2.206C1.087,-2.093 1.094,-1.981 1.109,-1.867C1.135,-1.683 1.16,-1.468 1.27,-1.314C1.415,-1.11 1.799,-1.156 1.783,-1.453C1.783,-1.456 1.782,-1.459 1.782,-1.462C2.604,-1.427 3.514,-1.708 4.252,-2.177C4.131,-1.921 3.981,-1.679 3.77,-1.483C3.601,-1.327 3.4,-1.192 3.188,-1.098C2.993,-1.012 2.799,-1.005 2.651,-0.841C2.611,-0.797 2.593,-0.729 2.593,-0.666C2.357,-0.854 2.002,-0.658 2.058,-0.326C2.102,-0.063 2.208,0.21 2.327,0.475C2.276,0.466 2.226,0.462 2.175,0.449C2.065,0.419 1.551,0.277 1.544,0.159C1.543,0.138 1.528,0.123 1.521,0.104C1.519,0.099 1.518,0.094 1.515,0.089C1.485,0.019 1.431,-0.04 1.348,-0.038C1.335,-0.038 1.322,-0.038 1.309,-0.037C1.29,-0.037 1.28,-0.021 1.262,-0.017C1.23,-0.014 1.203,-0.026 1.169,-0.01C0.519,0.289 -0.106,0.639 -0.732,0.988C-0.694,0.551 -0.653,0.116 -0.616,-0.321C-0.602,-0.482 -0.741,-0.566 -0.879,-0.568C-1.229,-0.941 -1.664,-1.205 -2.084,-1.495C-2.535,-1.806 -2.875,-2.172 -3.08,-2.639C-2.153,-2.129 -1.019,-1.636 0,-1.651" style="fill:rgb(57,181,74);fill-rule:nonzero;"/>
            </g>
            <g transform="matrix(4.16667,0,0,4.16667,952.769,1426.98)">
                <path d="M0,17.698C-3.758,17.849 -8.022,16.466 -9.217,12.543C-10.766,7.46 -8.615,0.726 -2.525,-0.151C-1.983,0.32 -1.331,0.624 -0.855,1.174C-0.85,1.18 -0.844,1.181 -0.838,1.187C-0.913,1.672 -0.966,2.16 -1,2.649C-1.017,2.879 -0.744,2.999 -0.563,2.9C0.158,2.51 0.885,2.13 1.583,1.701C1.723,1.848 1.926,1.961 2.082,2.037C2.444,2.213 2.827,2.302 3.229,2.316C3.446,2.325 3.603,2.098 3.548,1.898C3.439,1.499 3.305,1.04 3.1,0.669C3.578,0.835 4.194,0.372 4.515,0.046C4.526,0.034 4.534,0.02 4.545,0.009C4.586,0.055 4.636,0.098 4.705,0.125C14.268,3.858 8.666,17.347 0,17.698" style="fill:rgb(239,56,35);fill-rule:nonzero;"/>
            </g>
            <g transform="matrix(4.16667,0,0,4.16667,0,0)">
                <g opacity="0.2">
                    <g transform="matrix(1,0,0,1,226.772,348.263)">
                        <path d="M0,-4.701C-0.254,-4.999 -0.623,-5.208 -0.944,-5.424C-1.106,-5.532 -1.277,-5.644 -1.438,-5.767C-3.038,-5.377 -4.332,-4.562 -5.324,-3.476C-5.319,-3.421 -5.322,-3.365 -5.311,-3.311C-5.221,-2.872 -4.881,-2.611 -4.468,-2.486C-4.402,-2.466 -4.381,-2.398 -4.409,-2.339C-4.509,-2.122 -4.615,-1.907 -4.71,-1.687C-4.905,-1.24 -5.085,-0.725 -4.973,-0.233C-4.895,0.111 -4.689,0.374 -4.373,0.526C-4.08,0.665 -3.745,0.705 -3.424,0.717C-3.062,0.73 -2.699,0.703 -2.339,0.666C-2,0.631 -1.662,0.583 -1.322,0.549C-0.876,0.503 -0.445,0.446 -0.01,0.334C0.495,0.203 0.99,0.036 1.498,-0.083C1.744,-0.14 1.993,-0.187 2.245,-0.213C2.519,-0.241 2.793,-0.223 3.066,-0.188C4.019,-0.066 4.885,0.341 5.781,0.66C6.21,0.814 6.652,0.954 7.104,1.013C7.51,1.066 7.94,1.058 8.261,0.772C8.537,0.525 8.685,0.17 8.938,-0.099C9.143,-0.319 9.401,-0.449 9.667,-0.578C9.842,-0.664 9.873,-0.753 9.861,-0.953C9.834,-1.399 9.707,-1.849 9.554,-2.267C9.231,-3.149 8.612,-3.934 7.771,-4.376C7.142,-4.706 6.438,-4.698 5.75,-4.628C6.048,-4.291 6.221,-3.834 5.918,-3.429C5.574,-2.969 4.964,-2.914 4.435,-2.917C3.919,-2.92 3.398,-2.994 2.886,-2.908C2.385,-2.823 1.945,-2.577 1.468,-2.416C1.052,-2.275 0.544,-2.133 0.114,-2.293C-0.209,-2.413 -0.578,-2.633 -0.534,-3.029C-0.498,-3.359 -0.258,-3.642 -0.093,-3.918C0.049,-4.157 0.208,-4.457 0,-4.701" style="fill:white;fill-rule:nonzero;"/>
                    </g>
                </g>
            </g>
            <g transform="matrix(4.16667,0,0,4.16667,939.191,1423.7)">
                <path d="M0,-1.017C1.083,-0.37 2.65,0.439 3.946,0.264C4.151,0.237 4.093,-0.038 3.946,-0.096C3.375,-0.323 2.712,-0.343 2.116,-0.521C1.443,-0.721 0.804,-1.002 0.188,-1.34C-0.022,-1.456 -0.207,-1.141 0,-1.017" style="fill:rgb(35,31,32);fill-rule:nonzero;"/>
            </g>
            <g transform="matrix(4.16667,0,0,4.16667,938.383,1431.01)">
                <path d="M0,-2.818C0.108,-2.157 0.415,-1.562 0.923,-1.119C1.466,-0.646 2.121,-0.342 2.597,0.209C2.876,0.533 3.322,0.068 3.061,-0.255C2.696,-0.708 2.2,-0.991 1.728,-1.317C1.125,-1.735 0.718,-2.247 0.569,-2.975C0.492,-3.351 -0.061,-3.187 0,-2.818" style="fill:rgb(35,31,32);fill-rule:nonzero;"/>
            </g>
            <g transform="matrix(4.16667,0,0,4.16667,949.553,1438.27)">
                <path d="M0,-1.956C-0.125,-1.33 -0.183,-0.695 -0.229,-0.06C-0.245,0.17 0.028,0.29 0.209,0.191C1,-0.236 1.803,-0.645 2.562,-1.129C2.848,-1.31 2.6,-1.715 2.3,-1.576C1.483,-1.198 0.704,-0.745 -0.084,-0.31C0.062,-0.227 0.207,-0.144 0.353,-0.06C0.392,-0.67 0.464,-1.277 0.516,-1.887C0.541,-2.18 0.058,-2.246 0,-1.956" style="fill:rgb(35,31,32);fill-rule:nonzero;"/>
            </g>
            <g transform="matrix(4.16667,0,0,4.16667,959.882,1432.93)">
                <path d="M0,-0.322C-0.013,-0.322 -0.026,-0.322 -0.039,-0.321C-0.177,-0.318 -0.262,-0.215 -0.276,-0.084C-0.312,0.264 0.113,0.482 0.375,0.61C0.737,0.786 1.12,0.874 1.522,0.889C1.739,0.898 1.896,0.671 1.841,0.471C1.722,0.032 1.583,-0.49 1.339,-0.876C1.122,-1.22 0.646,-0.986 0.71,-0.61C0.785,-0.163 1.035,0.32 1.236,0.726L1.522,0.228C1.285,0.24 1.057,0.227 0.827,0.164C0.718,0.135 0.203,-0.008 0.197,-0.126C0.191,-0.23 0.111,-0.325 0,-0.322" style="fill:rgb(35,31,32);fill-rule:nonzero;"/>
            </g>
            <g transform="matrix(4.16667,0,0,4.16667,956.364,1420.72)">
                <path d="M0,0.863C0.016,0.545 -0.124,0.222 -0.213,-0.078L-0.533,0.341L0.743,0.455C1.071,0.484 1.152,-0.077 0.822,-0.125C0.399,-0.187 -0.022,-0.248 -0.445,-0.31C-0.677,-0.344 -0.937,-0.168 -0.853,0.097C-0.757,0.394 -0.691,0.747 -0.501,0.999C-0.344,1.207 -0.014,1.147 0,0.863" style="fill:rgb(35,31,32);fill-rule:nonzero;"/>
            </g>
            <g transform="matrix(4.16667,0,0,4.16667,958.901,1426.1)">
                <path d="M0,-1.084C-0.045,-0.894 -0.03,-0.706 -0.003,-0.513C0.022,-0.329 0.047,-0.113 0.157,0.04C0.303,0.244 0.687,0.198 0.671,-0.099C0.662,-0.27 0.592,-0.427 0.558,-0.594C0.524,-0.757 0.522,-0.922 0.487,-1.084C0.434,-1.328 0.057,-1.322 0,-1.084" style="fill:rgb(35,31,32);fill-rule:nonzero;"/>
            </g>
            <g transform="matrix(4.16667,0,0,4.16667,960.804,1417.61)">
                <path d="M0,1.924C1.237,2.061 2.748,1.422 3.553,0.483C3.79,0.206 3.437,-0.137 3.159,0.088C2.648,0.5 2.169,0.88 1.547,1.114C1.022,1.312 0.486,1.366 -0.064,1.446C-0.357,1.489 -0.248,1.896 0,1.924" style="fill:rgb(35,31,32);fill-rule:nonzero;"/>
            </g>
            <g transform="matrix(4.16667,0,0,4.16667,972.803,1429.66)">
                <path d="M0,-2.193C-0.109,-1.734 -0.331,-1.306 -0.679,-0.982C-0.848,-0.826 -1.048,-0.691 -1.26,-0.597C-1.456,-0.511 -1.649,-0.505 -1.797,-0.34C-1.885,-0.244 -1.894,-0.047 -1.752,0.015C-1.268,0.226 -0.624,-0.26 -0.293,-0.596C0.123,-1.02 0.371,-1.547 0.406,-2.138C0.42,-2.371 0.054,-2.419 0,-2.193" style="fill:rgb(35,31,32);fill-rule:nonzero;"/>
            </g>
            <g transform="matrix(4.16667,0,0,4.16667,942.857,1504.39)">
                <path d="M0,-19.195C-5.144,-19.464 -8.427,-13.458 -8.11,-8.883C-7.718,-3.213 -4.651,-0.537 0.928,-0.112C5.931,0.269 10.675,-2.593 12.276,-7.43C13.914,-12.377 12.15,-17.317 7.29,-19.198C6.824,-19.379 6.625,-18.631 7.084,-18.452C16.647,-14.718 11.044,-1.229 2.379,-0.879C-1.379,-0.727 -5.644,-2.111 -6.838,-6.034C-8.399,-11.159 -6.206,-17.969 0,-18.756C0.274,-18.791 0.29,-19.18 0,-19.195" style="fill:rgb(35,31,32);fill-rule:nonzero;"/>
            </g>
            <g transform="matrix(4.16667,0,0,4.16667,1038.66,1452.42)">
                <path d="M0,-0.645C0.123,-0.583 0.284,-0.578 0.41,-0.678C0.834,-1.017 0.833,-1.719 0.894,-2.211C0.922,-2.439 0.929,-2.74 1.041,-2.945C1.128,-3.105 1.22,-3.111 1.353,-3.06C1.435,-2.373 1.495,-1.664 1.663,-0.997C1.678,-0.934 1.72,-0.901 1.758,-0.866C1.692,-0.742 1.694,-0.593 1.834,-0.482C2.557,0.092 3.393,-0.021 4.233,-0.236C3.62,0.112 2.976,0.381 2.18,0.45C2.132,0.454 2.106,0.486 2.07,0.506C1.975,0.506 1.88,0.544 1.838,0.667C1.699,1.079 1.629,1.521 1.565,1.95C1.539,2.12 1.509,2.293 1.49,2.466C1.044,2.049 0.658,1.537 0.432,0.992C0.411,0.942 0.383,0.904 0.352,0.874C0.324,0.718 0.197,0.59 0.001,0.66C-0.763,0.928 -1.498,1.258 -2.212,1.628C-2.002,1.429 -1.793,1.229 -1.585,1.027C-1.382,1.022 -1.216,0.834 -1.251,0.63C-1.229,0.494 -1.318,0.356 -1.45,0.334C-1.854,-0.1 -2.307,-0.489 -2.787,-0.843C-1.856,-0.823 -0.929,-0.766 0,-0.645" style="fill:rgb(57,181,74);fill-rule:nonzero;"/>
            </g>
            <g transform="matrix(4.16667,0,0,4.16667,1077.82,1472.44)">
                <path d="M0,6.897C-2.13,12.301 -7.7,13.105 -12.871,12.677C-18.021,12.251 -23.365,8.912 -23.145,3.224C-22.931,-2.339 -19.472,-6.208 -13.963,-5.992C-13.946,-5.886 -13.9,-5.786 -13.781,-5.718C-12.948,-5.249 -12.218,-4.679 -11.489,-4.075C-12.313,-3.436 -13.052,-2.683 -13.754,-1.919C-13.985,-1.668 -13.688,-1.236 -13.377,-1.431C-12.102,-2.233 -10.811,-2.91 -9.423,-3.485C-9.086,-2.771 -8.584,-2.237 -7.905,-1.88C-7.901,-1.84 -7.91,-1.8 -7.903,-1.761C-7.871,-1.582 -7.667,-1.599 -7.572,-1.708C-7.569,-1.707 -7.566,-1.706 -7.563,-1.705C-7.404,-1.641 -7.336,-1.876 -7.455,-1.962C-7.463,-1.969 -7.472,-1.977 -7.48,-1.984C-7.411,-2.278 -7.385,-2.589 -7.33,-2.884C-7.271,-3.193 -7.192,-3.496 -7.125,-3.801C-6.191,-3.871 -5.442,-4.178 -4.711,-4.578C-4.702,-4.575 -4.698,-4.569 -4.688,-4.567C1.11,-3.151 1.944,1.963 0,6.897" style="fill:rgb(239,56,35);fill-rule:nonzero;"/>
            </g>
            <g transform="matrix(4.16667,0,0,4.16667,0,0)">
                <g opacity="0.2">
                    <g transform="matrix(1,0,0,1,257.798,353.618)">
                        <path d="M0,-2.746C-0.898,-3.672 -2.143,-4.392 -3.81,-4.799C-3.819,-4.801 -3.823,-4.807 -3.832,-4.809C-3.905,-4.768 -3.981,-4.734 -4.055,-4.696C-3.764,-4.485 -3.479,-4.267 -3.203,-4.044C-3.149,-4 -3.176,-3.92 -3.223,-3.887C-3.667,-3.577 -4.23,-3.514 -4.758,-3.505C-5.283,-3.495 -5.809,-3.549 -6.334,-3.525C-6.355,-3.471 -6.375,-3.414 -6.396,-3.359C-6.414,-3.278 -6.436,-3.198 -6.451,-3.116C-6.506,-2.821 -6.532,-2.51 -6.601,-2.216C-6.593,-2.209 -6.584,-2.201 -6.576,-2.194C-6.458,-2.108 -6.525,-1.873 -6.685,-1.936C-6.687,-1.937 -6.69,-1.939 -6.693,-1.94C-6.788,-1.831 -6.992,-1.814 -7.024,-1.993C-7.031,-2.032 -7.022,-2.072 -7.026,-2.112C-7.104,-2.152 -7.171,-2.203 -7.244,-2.248C-7.861,-2.449 -8.445,-2.795 -8.873,-3.279C-9.634,-2.689 -10.421,-2.133 -11.278,-1.684C-11.359,-1.642 -11.441,-1.712 -11.425,-1.798C-11.388,-2.004 -11.313,-2.198 -11.233,-2.39C-11.656,-2.153 -12.081,-1.925 -12.499,-1.663C-12.809,-1.468 -13.106,-1.9 -12.875,-2.151C-12.265,-2.815 -11.616,-3.457 -10.919,-4.036C-11.673,-4.356 -12.464,-4.621 -13.08,-5.178C-13.117,-5.211 -13.121,-5.286 -13.08,-5.319C-12.883,-5.477 -12.657,-5.568 -12.421,-5.638C-12.583,-5.74 -12.733,-5.855 -12.902,-5.95C-13.021,-6.017 -13.067,-6.118 -13.084,-6.224C-15.974,-6.338 -18.292,-5.318 -19.882,-3.528C-20.027,-3.221 -20.133,-2.893 -20.209,-2.559C-20.355,-1.912 -20.355,-1.219 -20.045,-0.617C-19.893,-0.32 -19.681,-0.043 -19.472,0.217C-19.25,0.493 -19.01,0.754 -18.758,1.002C-17.85,1.895 -16.77,2.757 -15.529,3.12C-14.985,3.28 -14.42,3.328 -13.855,3.297C-13.55,3.28 -13.246,3.241 -12.945,3.189C-12.647,3.137 -12.35,3.145 -12.054,3.201C-11.776,3.254 -11.509,3.347 -11.238,3.423C-10.936,3.509 -10.63,3.568 -10.315,3.58C-10.032,3.592 -9.748,3.573 -9.476,3.488C-9.232,3.412 -9.011,3.285 -8.795,3.15C-8.521,2.98 -8.26,2.788 -7.961,2.661C-7.678,2.542 -7.38,2.474 -7.076,2.441C-6.404,2.367 -5.728,2.47 -5.058,2.513C-4.412,2.555 -3.754,2.542 -3.123,2.388C-2.521,2.239 -1.967,1.966 -1.426,1.669C-0.965,1.417 -0.505,1.14 -0.142,0.755C0.239,0.353 0.462,-0.165 0.45,-0.724C0.435,-1.421 0.266,-2.101 0,-2.746" style="fill:white;fill-rule:nonzero;"/>
                    </g>
                </g>
            </g>
            <g transform="matrix(4.16667,0,0,4.16667,1039.94,1455.21)">
                <path d="M0,-1.953C-1.353,-2.509 -3.046,-2.445 -4.479,-2.355C-4.873,-2.33 -5.066,-1.795 -4.689,-1.582C-3.758,-1.057 -2.953,-0.416 -2.138,0.269C-1.797,0.556 -1.345,0.114 -1.646,-0.223C-2.39,-1.056 -3.317,-1.724 -4.27,-2.299L-4.479,-1.525C-3.035,-1.574 -1.611,-1.495 -0.18,-1.301C0.251,-1.243 0.407,-1.786 0,-1.953" style="fill:rgb(35,31,32);fill-rule:nonzero;"/>
            </g>
            <g transform="matrix(4.16667,0,0,4.16667,1031.97,1466.61)">
                <path d="M0,-3.039C-1.027,-2.338 -1.91,-1.432 -2.749,-0.519C-2.98,-0.268 -2.683,0.164 -2.372,-0.031C-1.039,-0.869 0.305,-1.579 1.766,-2.17C2.114,-2.31 1.976,-2.876 1.607,-2.745C0.083,-2.208 -1.324,-1.433 -2.686,-0.568C-2.56,-0.405 -2.435,-0.242 -2.309,-0.08C-1.483,-0.986 -0.565,-1.784 0.302,-2.647C0.498,-2.842 0.239,-3.203 0,-3.039" style="fill:rgb(35,31,32);fill-rule:nonzero;"/>
            </g>
            <g transform="matrix(4.16667,0,0,4.16667,1047.74,1446.85)">
                <path d="M0,2.353C1.651,2.261 2.712,1.425 4.101,0.638C4.398,0.47 4.272,-0.021 3.925,-0.012C2.694,0.021 1.253,0.913 0.092,0.29C-0.251,0.107 -0.681,0.591 -0.346,0.857C0.924,1.866 2.542,0.765 3.925,0.686L3.749,0.036C2.494,0.798 1.524,1.657 0,1.789C-0.357,1.82 -0.366,2.374 0,2.353" style="fill:rgb(35,31,32);fill-rule:nonzero;"/>
            </g>
            <g transform="matrix(4.16667,0,0,4.16667,1048.17,1438.75)">
                <path d="M0,2.201C0.002,1.677 -0.086,1.142 -0.143,0.621C-0.188,0.205 -0.124,-0.215 -0.54,-0.416C-0.942,-0.611 -1.425,-0.629 -1.744,-0.277C-2.345,0.389 -1.956,1.457 -2.407,2.189C-2.625,2.543 -2.156,2.83 -1.871,2.603C-1.447,2.264 -1.449,1.562 -1.388,1.07C-1.359,0.843 -1.352,0.542 -1.24,0.337C-1.123,0.121 -0.998,0.183 -0.774,0.29C-0.835,0.183 -0.896,0.076 -0.958,-0.03C-0.857,0.734 -0.806,1.538 -0.619,2.285C-0.532,2.632 -0.001,2.555 0,2.201" style="fill:rgb(35,31,32);fill-rule:nonzero;"/>
            </g>
            <g transform="matrix(4.16667,0,0,4.16667,1021.94,1526.67)">
                <path d="M0,-19.563C-5.783,-20.765 -9.541,-16.471 -10.37,-11.047C-11.296,-4.983 -6.529,-0.482 -0.723,0.358C5.106,1.202 11.97,0.232 14.228,-5.892C16.271,-11.433 15.221,-16.987 8.947,-18.391C8.421,-18.508 8.196,-17.709 8.724,-17.581C14.523,-16.165 15.357,-11.05 13.412,-6.117C11.282,-0.712 5.712,0.091 0.541,-0.336C-4.609,-0.763 -9.953,-4.102 -9.733,-9.79C-9.512,-15.512 -5.865,-19.457 -0.078,-18.989C0.249,-18.962 0.322,-19.496 0,-19.563" style="fill:rgb(35,31,32);fill-rule:nonzero;"/>
            </g>
            <g transform="matrix(2.6142,-3.24455,-3.24455,-2.6142,1048.24,1459.43)">
                <path d="M-1.127,-0.453C-1.164,0.326 -1.009,1.199 -0.635,1.886C-0.441,2.24 -0.937,2.516 -1.127,2.151C-1.58,1.285 -1.683,0.401 -1.396,-0.531C-1.345,-0.694 -1.12,-0.6 -1.127,-0.453" style="fill:rgb(35,31,32);fill-rule:nonzero;"/>
            </g>
            <g transform="matrix(4.16667,0,0,4.16667,1046.45,1454.78)">
                <path d="M0,2.477C0.131,2.126 0.13,1.723 0.2,1.354C0.271,0.977 0.378,0.609 0.45,0.234C0.509,-0.081 0.073,-0.206 -0.031,0.101C-0.171,0.512 -0.241,0.955 -0.305,1.383C-0.359,1.744 -0.438,2.117 -0.374,2.477C-0.336,2.683 -0.06,2.637 0,2.477" style="fill:rgb(35,31,32);fill-rule:nonzero;"/>
            </g>
        </g>
    </g>
</svg>
