<?xml version="1.0" encoding="UTF-8" standalone="no"?><!DOCTYPE svg PUBLIC "-//W3C//DTD SVG 1.1//EN" "http://www.w3.org/Graphics/SVG/1.1/DTD/svg11.dtd"><svg width="100%" height="100%" viewBox="0 0 50 40" version="1.1" xmlns="http://www.w3.org/2000/svg" xmlns:xlink="http://www.w3.org/1999/xlink" xml:space="preserve" xmlns:serif="http://www.serif.com/" style="fill-rule:evenodd;clip-rule:evenodd;stroke-linejoin:round;stroke-miterlimit:2;"><g><path d="M0.164,6.117c16.347,-17.33 32.693,11.539 49.041,-5.792l0,32.777c-16.348,17.33 -32.694,-11.538 -49.041,5.792l0,-32.777Z" style="fill:#05090b;fill-rule:nonzero;"/><path d="M49.326,0.072c-0.092,0.098 -0.183,0.195 -0.274,0.29c-16.265,16.959 -32.53,-11.536 -48.795,5.534c-0.072,0.075 -0.143,0.151 -0.215,0.227l0,33.023c0.092,-0.098 0.183,-0.195 0.274,-0.29c16.265,-16.958 32.531,11.536 48.795,-5.534c0.071,-0.075 0.143,-0.15 0.215,-0.228l0,-33.022Zm-0.245,0.505l0,32.531c-16.265,17.013 -32.529,-11.481 -48.795,5.533l0,-32.53c16.266,-17.015 32.53,11.48 48.795,-5.534" style="fill:#d0d3d5;fill-rule:nonzero;"/><path d="M0.286,16.955c16.265,-17.014 32.53,11.48 48.794,-5.533l0,21.686c-16.264,17.014 -32.529,-11.48 -48.794,5.534l0,-21.687Z" style="fill:#ee2a28;fill-rule:nonzero;"/><path d="M0.286,27.798c16.265,-17.014 32.53,11.48 48.794,-5.533l0,10.843c-16.264,17.013 -32.529,-11.481 -48.794,5.533l0,-10.843Z" style="fill:#ffe30f;fill-rule:nonzero;"/></g></svg>