<?xml version="1.0" encoding="UTF-8" standalone="no"?><!DOCTYPE svg PUBLIC "-//W3C//DTD SVG 1.1//EN" "http://www.w3.org/Graphics/SVG/1.1/DTD/svg11.dtd"><svg width="100%" height="100%" viewBox="0 0 50 40" version="1.1" xmlns="http://www.w3.org/2000/svg" xmlns:xlink="http://www.w3.org/1999/xlink" xml:space="preserve" xmlns:serif="http://www.serif.com/" style="fill-rule:evenodd;clip-rule:evenodd;stroke-linejoin:round;stroke-miterlimit:2;"><g><path d="M0.27,6.117c16.347,-17.328 32.693,11.538 49.039,-5.791l0,32.777c-16.346,17.328 -32.692,-11.538 -49.039,5.79l0,-32.776Z" style="fill:#ee2a30;fill-rule:nonzero;"/><path d="M49.431,0.073c-0.091,0.098 -0.183,0.195 -0.273,0.29c-16.266,16.959 -32.531,-11.536 -48.795,5.534c-0.073,0.075 -0.144,0.151 -0.215,0.227l0,33.023c0.092,-0.098 0.182,-0.195 0.273,-0.29c16.266,-16.959 32.531,11.536 48.796,-5.534c0.071,-0.075 0.143,-0.151 0.214,-0.228l0,-33.022Zm-0.244,0.505l0,32.531c-16.265,17.013 -32.53,-11.481 -48.795,5.533l0,-32.53c16.266,-17.015 32.53,11.48 48.795,-5.534" style="fill:#d0d3d5;fill-rule:nonzero;"/><path d="M12.591,0.462c2.711,0.009 5.422,0.649 8.133,1.5l-0,32.531c-2.711,-0.851 -5.422,-1.492 -8.133,-1.5l-0,-32.531Z" style="fill:#fff;fill-rule:nonzero;"/><path d="M0.392,18.311c16.266,-17.014 32.53,11.48 48.795,-5.534l0,8.133c-16.265,17.014 -32.53,-11.481 -48.795,5.533l0,-8.132Z" style="fill:#fff;fill-rule:nonzero;"/><path d="M14.625,0.581c1.355,0.149 2.71,0.43 4.065,0.79l-0,32.53c-1.355,-0.36 -2.71,-0.64 -4.065,-0.79l-0,-32.53Z" style="fill:#365ba9;fill-rule:nonzero;"/><path d="M0.392,20.344c16.266,-17.014 32.53,11.48 48.795,-5.534l0,4.067c-16.265,17.014 -32.53,-11.481 -48.795,5.533l0,-4.066Z" style="fill:#365ba9;fill-rule:nonzero;"/></g></svg>