<?xml version="1.0" encoding="UTF-8" standalone="no"?><!DOCTYPE svg PUBLIC "-//W3C//DTD SVG 1.1//EN" "http://www.w3.org/Graphics/SVG/1.1/DTD/svg11.dtd"><svg width="100%" height="100%" viewBox="0 0 50 40" version="1.1" xmlns="http://www.w3.org/2000/svg" xmlns:xlink="http://www.w3.org/1999/xlink" xml:space="preserve" xmlns:serif="http://www.serif.com/" style="fill-rule:evenodd;clip-rule:evenodd;stroke-linejoin:round;stroke-miterlimit:2;"><g><path d="M0.134,6.151c16.346,-17.329 32.692,11.539 49.039,-5.79l-0,32.778c-16.347,17.329 -32.693,-11.538 -49.039,5.79l-0,-32.778Z" style="fill:#365ba9;fill-rule:nonzero;"/><path d="M49.295,0.107c-0.091,0.099 -0.183,0.195 -0.274,0.29c-16.265,16.96 -32.53,-11.537 -48.795,5.534c-0.072,0.074 -0.143,0.151 -0.215,0.228l-0,33.024c0.092,-0.097 0.183,-0.194 0.274,-0.289c16.265,-16.96 32.531,11.536 48.796,-5.534c0.071,-0.075 0.142,-0.15 0.214,-0.228l-0,-33.025Zm-0.244,0.505l-0,32.533c-16.265,17.015 -32.53,-11.481 -48.796,5.533l-0,-32.532c16.266,-17.016 32.531,11.482 48.796,-5.534" style="fill:#d0d3d5;fill-rule:nonzero;"/><path d="M14.895,16.934l0,-6.695c-1.627,-0.21 -3.254,-0.238 -4.881,0.007l0,6.695c1.627,-0.245 3.254,-0.218 4.881,-0.007" style="fill:#fff;fill-rule:nonzero;"/><path d="M0.255,22.406c0.89,-0.931 1.779,-1.725 2.668,-2.397c3.087,-4.545 6.175,-7.629 9.262,-9.875c-0.889,-0.626 -1.778,-1.182 -2.666,-1.655c-3.088,2.781 -6.176,6.579 -9.264,12.017l0,1.91Z" style="fill:#fff;fill-rule:nonzero;"/><path d="M2.035,20.722c2.651,-4.147 5.302,-7.175 7.954,-9.476c-0.594,0.091 -1.187,0.218 -1.78,0.385c-2.651,2.646 -5.302,6.107 -7.953,10.776c0.593,-0.621 1.186,-1.181 1.779,-1.685" style="fill:#ee222c;fill-rule:nonzero;"/><path d="M21.985,18.715c0.889,0.299 1.777,0.612 2.667,0.926l-0,-1.907c-3.086,-3.297 -6.171,-6.595 -9.257,-9.27c-0.889,0.501 -1.777,1.054 -2.666,1.674c3.086,2.265 6.171,5.332 9.256,8.577" style="fill:#fff;fill-rule:nonzero;"/><path d="M24.651,19.641l0,-1.271c-2.057,-2.198 -4.113,-4.396 -6.17,-6.41c-0.593,-0.156 -1.185,-0.297 -1.778,-0.418c2.65,2.438 5.299,5.268 7.948,8.099" style="fill:#ee222c;fill-rule:nonzero;"/><path d="M24.651,3.38c-0.89,-0.314 -1.779,-0.628 -2.668,-0.927c-3.087,1.17 -6.175,2.52 -9.262,4.671c0.889,0.652 1.779,1.372 2.668,2.144c3.088,-1.742 6.175,-2.86 9.262,-3.978l0,-1.91Z" style="fill:#fff;fill-rule:nonzero;"/><path d="M22.872,2.756c-2.651,0.98 -5.302,2.049 -7.953,3.6c0.593,0.077 1.186,0.178 1.779,0.299c2.652,-1.354 5.302,-2.315 7.954,-3.275c-0.593,-0.21 -1.187,-0.419 -1.78,-0.624" style="fill:#ee222c;fill-rule:nonzero;"/><path d="M2.922,3.749c-0.889,0.673 -1.778,1.467 -2.667,2.396l-0,1.908c3.086,-1.021 6.172,-0.403 9.258,1.233c0.888,-0.802 1.777,-1.518 2.665,-2.166c-3.086,-2.168 -6.171,-3.499 -9.256,-3.371" style="fill:#fff;fill-rule:nonzero;"/><path d="M0.255,11.838l0,4.881c3.312,-3.464 6.623,-5.042 9.935,-5.501l0,-4.881c-3.311,0.459 -6.623,2.037 -9.935,5.501" style="fill:#fff;fill-rule:nonzero;"/><path d="M10.013,0.675l0,6.662c1.626,-0.245 3.252,-0.217 4.878,-0.008l0,-6.662c-1.626,-0.209 -3.252,-0.237 -4.878,0.008" style="fill:#fff;fill-rule:nonzero;"/><path d="M0.255,6.146l0,1.271c2.057,-0.679 4.113,-0.631 6.17,-0.04c0.593,-0.253 1.186,-0.461 1.779,-0.629c-2.649,-1.147 -5.299,-1.478 -7.949,-0.602" style="fill:#ee222c;fill-rule:nonzero;"/><path d="M24.651,13.954l0,-4.882c-3.313,-1.169 -6.627,-2.339 -9.941,-2.738l0,4.882c3.314,0.399 6.627,1.568 9.941,2.738" style="fill:#fff;fill-rule:nonzero;"/><path d="M13.917,7.233l-0,-6.668c-0.977,-0.08 -1.953,-0.088 -2.929,-0.004l-0,6.662c-3.578,0.308 -7.155,1.848 -10.733,5.59l-0,2.929c3.578,-3.742 7.155,-5.283 10.733,-5.59l-0,0.004l0.004,-0l-0,6.67c0.975,-0.084 1.951,-0.076 2.927,0.005l-0,-6.67c3.578,0.294 7.155,1.555 10.732,2.818l-0,-2.928c-3.578,-1.262 -7.156,-2.525 -10.734,-2.818" style="fill:#ee222c;fill-rule:nonzero;"/><path d="M12.447,20.013c0.314,0.977 0.628,1.962 0.942,2.954c0.958,-0.31 1.916,-0.548 2.874,-0.731c-0.567,0.747 -1.134,1.513 -1.701,2.302c0.881,0.623 1.762,1.301 2.643,2.02c-1.02,-0.138 -2.04,-0.222 -3.061,-0.229c0.141,1.029 0.282,2.058 0.422,3.089c-0.706,-0.823 -1.413,-1.61 -2.119,-2.354c-0.706,0.74 -1.412,1.523 -2.117,2.357c0.14,-1.033 0.281,-2.064 0.421,-3.094c-1.02,0.016 -2.04,0.132 -3.061,0.373c0.882,-0.807 1.762,-1.522 2.644,-2.159c-0.568,-0.78 -1.135,-1.528 -1.702,-2.24c0.959,0.123 1.917,0.351 2.875,0.662c0.313,-0.992 0.627,-1.975 0.94,-2.95" style="fill:#fff;fill-rule:nonzero;"/><path d="M37.309,31.043c0.149,0.461 0.299,0.92 0.448,1.376c0.456,-0.195 0.912,-0.41 1.368,-0.647c-0.27,0.445 -0.539,0.88 -0.809,1.31c0.42,0.213 0.839,0.409 1.259,0.586c-0.487,0.126 -0.973,0.227 -1.459,0.305c0.067,0.478 0.133,0.956 0.2,1.433c-0.336,-0.325 -0.671,-0.66 -1.007,-1.006c-0.336,0.362 -0.673,0.713 -1.009,1.055c0.067,-0.48 0.134,-0.962 0.2,-1.443c-0.485,-0.055 -0.971,-0.128 -1.457,-0.219c0.42,-0.207 0.839,-0.427 1.259,-0.662c-0.27,-0.415 -0.54,-0.837 -0.81,-1.264c0.456,0.208 0.912,0.4 1.369,0.573c0.149,-0.463 0.299,-0.929 0.448,-1.397" style="fill:#fff;fill-rule:nonzero;"/><path d="M29.175,16.809c0.149,0.511 0.299,1.02 0.448,1.528c0.456,-0.038 0.911,-0.084 1.367,-0.138c-0.269,0.337 -0.539,0.67 -0.808,1c0.42,0.367 0.839,0.727 1.259,1.079c-0.487,-0.077 -0.973,-0.165 -1.459,-0.262c0.067,0.502 0.133,1.005 0.2,1.507c-0.336,-0.448 -0.672,-0.901 -1.007,-1.357c-0.336,0.251 -0.673,0.498 -1.009,0.744c0.067,-0.462 0.134,-0.924 0.2,-1.386c-0.485,-0.198 -0.971,-0.402 -1.457,-0.611c0.42,-0.105 0.839,-0.213 1.259,-0.327c-0.27,-0.494 -0.541,-0.989 -0.811,-1.486c0.457,0.326 0.913,0.648 1.37,0.964c0.149,-0.417 0.298,-0.836 0.448,-1.255" style="fill:#fff;fill-rule:nonzero;"/><path d="M37.309,9.353c0.149,0.461 0.299,0.92 0.448,1.376c0.456,-0.195 0.912,-0.411 1.368,-0.647c-0.27,0.444 -0.539,0.88 -0.809,1.31c0.42,0.213 0.839,0.409 1.259,0.587c-0.487,0.125 -0.973,0.225 -1.459,0.303c0.067,0.478 0.133,0.956 0.2,1.433c-0.336,-0.324 -0.671,-0.66 -1.007,-1.006c-0.336,0.362 -0.673,0.713 -1.009,1.055c0.067,-0.48 0.134,-0.962 0.2,-1.443c-0.485,-0.054 -0.971,-0.127 -1.457,-0.217c0.42,-0.208 0.839,-0.428 1.259,-0.662c-0.27,-0.416 -0.54,-0.838 -0.81,-1.266c0.456,0.208 0.912,0.401 1.369,0.574c0.149,-0.463 0.299,-0.929 0.448,-1.397" style="fill:#fff;fill-rule:nonzero;"/><path d="M44.54,13.974c0.149,0.378 0.299,0.754 0.448,1.126c0.456,-0.456 0.912,-0.94 1.367,-1.457c-0.269,0.61 -0.539,1.208 -0.808,1.797c0.42,-0.034 0.839,-0.094 1.259,-0.181c-0.487,0.432 -0.973,0.826 -1.459,1.187c0.067,0.439 0.133,0.879 0.2,1.316c-0.336,-0.127 -0.672,-0.271 -1.007,-0.432c-0.336,0.548 -0.673,1.08 -1.009,1.596c0.067,-0.515 0.134,-1.031 0.2,-1.548c-0.485,0.201 -0.971,0.372 -1.457,0.513c0.42,-0.407 0.839,-0.836 1.259,-1.289c-0.27,-0.275 -0.54,-0.561 -0.811,-0.855c0.457,-0.016 0.913,-0.059 1.37,-0.13c0.149,-0.544 0.299,-1.092 0.448,-1.643" style="fill:#fff;fill-rule:nonzero;"/><path d="M40.563,22.104c0.118,0.261 0.235,0.521 0.353,0.777c0.312,-0.06 0.624,-0.132 0.936,-0.216c-0.239,0.283 -0.478,0.559 -0.717,0.83c0.074,0.282 0.149,0.563 0.223,0.844c-0.265,-0.084 -0.53,-0.176 -0.795,-0.277c-0.266,0.229 -0.532,0.45 -0.797,0.663c0.074,-0.317 0.148,-0.635 0.223,-0.953c-0.239,-0.154 -0.478,-0.314 -0.718,-0.48c0.313,-0.069 0.625,-0.149 0.937,-0.239c0.119,-0.315 0.237,-0.632 0.355,-0.949" style="fill:#fff;fill-rule:nonzero;"/></g></svg>