<?xml version="1.0" encoding="UTF-8" standalone="no"?><!DOCTYPE svg PUBLIC "-//W3C//DTD SVG 1.1//EN" "http://www.w3.org/Graphics/SVG/1.1/DTD/svg11.dtd"><svg width="100%" height="100%" viewBox="0 0 50 40" version="1.1" xmlns="http://www.w3.org/2000/svg" xmlns:xlink="http://www.w3.org/1999/xlink" xml:space="preserve" xmlns:serif="http://www.serif.com/" style="fill-rule:evenodd;clip-rule:evenodd;stroke-linejoin:round;stroke-miterlimit:2;"><g><path d="M0.187,6.107c16.346,-17.328 32.693,11.538 49.039,-5.79l0,32.776c-16.346,17.329 -32.693,-11.538 -49.039,5.791l0,-32.777Z" style="fill:#fff;"/><path d="M49.349,0.063c-0.092,0.099 -0.183,0.195 -0.274,0.29c-16.265,16.959 -32.53,-11.536 -48.795,5.534c-0.072,0.074 -0.143,0.151 -0.215,0.228l0,33.022c0.092,-0.097 0.183,-0.194 0.274,-0.29c16.265,-16.958 32.531,11.536 48.795,-5.533c0.071,-0.075 0.144,-0.151 0.215,-0.228l0,-33.023Zm-0.244,0.505l0,32.531c-16.266,17.015 -32.53,-11.48 -48.796,5.533l0,-32.53c16.266,-17.015 32.53,11.481 48.796,-5.534" style="fill:#888d93;fill-rule:nonzero;"/><path d="M0.309,27.789c16.265,-17.015 32.53,11.48 48.795,-5.534l0,10.844c-16.265,17.014 -32.53,-11.481 -48.795,5.533l0,-10.843Z" style="fill:#010406;"/><path d="M0.309,6.102c16.265,-17.015 32.53,11.48 48.795,-5.534l0,10.844c-16.265,17.014 -32.53,-11.481 -48.795,5.534l0,-10.844Z" style="fill:#ec1c24;"/><path d="M24.733,19.755c1.213,1.554 2.427,3.108 3.64,4.624c-0.086,-2.072 -0.173,-4.145 -0.259,-6.22c-0.038,-0.941 -0.847,-0.994 -1.433,-0.861c-0.594,0.177 -1.274,-0.063 -1.991,-0.567c-0.717,-0.001 -1.394,-0.24 -1.989,-0.826c-0.588,-0.539 -1.394,-1.017 -1.433,-0.098c-0.087,2.016 -0.174,4.034 -0.26,6.052c1.242,-0.729 2.483,-1.417 3.725,-2.104" style="fill:#fff;"/><path d="M21.301,15.819c-0.085,1.99 -0.17,3.981 -0.255,5.973c3.846,-2.184 3.661,-2.101 3.711,-2.053c1.193,1.528 2.386,3.057 3.579,4.549c-0.085,-2.046 -0.171,-4.092 -0.256,-6.138c-0.018,-0.427 -0.196,-0.698 -0.534,-0.81c-0.868,-0.292 -1.206,0.582 -2.856,-0.573c-0.772,-0.006 -1.446,-0.288 -2.006,-0.839c-0.693,-0.633 -1.349,-0.909 -1.383,-0.109m3.432,3.982c-3.655,2.016 -3.763,2.195 -3.758,2.045c0.086,-2.017 0.173,-4.035 0.259,-6.051c0.036,-0.855 0.736,-0.596 1.484,0.088c0.948,0.933 1.909,0.773 1.984,0.82c0.757,0.533 1.415,0.722 1.961,0.56c0.751,-0.167 1.449,0.03 1.485,0.907c0.086,2.07 0.172,4.139 0.259,6.209c-0,0.003 0.001,0.008 0.002,0.012c-0,0.019 -0.015,0.03 -0.034,0.024c-0.374,-0.434 -0.885,-1.083 -3.642,-4.614" style="fill:#d7a327;fill-rule:nonzero;"/><path d="M25.75,18.163c0.041,1 0.081,2 0.122,3c0.114,0.152 0.229,0.304 0.343,0.455c-0.044,-1.1 -0.087,-2.199 -0.13,-3.3c-0.084,-0.029 -0.297,-0.103 -0.335,-0.155" style="fill:#d7a327;"/><path d="M24.858,20.472l0.511,2.505c-0.056,0.036 -0.112,0.072 -0.168,0.108c-0.058,-0.063 -0.117,-0.127 -0.175,-0.19c-0.097,-0.726 -0.193,-1.451 -0.29,-2.176c0.04,0.705 0.081,1.411 0.122,2.116c-0.056,0.051 -0.112,0.103 -0.168,0.154c-0.056,-0.091 -0.111,-0.181 -0.167,-0.272c0.041,-0.677 0.081,-1.353 0.121,-2.03c-0.096,0.657 -0.193,1.313 -0.289,1.971c-0.059,0.022 -0.118,0.044 -0.176,0.066c-0.056,-0.074 -0.112,-0.15 -0.167,-0.226c0.171,-0.714 0.341,-1.429 0.511,-2.144c0.112,0.04 0.223,0.079 0.335,0.118" style="fill:#d7a327;"/><path d="M24.552,22.718c0.046,0.074 0.092,0.149 0.138,0.225c0.047,-0.042 0.093,-0.085 0.139,-0.127c-0.04,-0.702 -0.08,-1.404 -0.121,-2.106c0.019,0.005 0.038,0.009 0.057,0.014c0.096,0.722 0.192,1.442 0.287,2.164c0.049,0.053 0.098,0.105 0.146,0.159c0.047,-0.03 0.093,-0.06 0.139,-0.091c-0.167,-0.821 -0.335,-1.642 -0.502,-2.464l-0.29,-0.102c-0.167,0.704 -0.334,1.407 -0.501,2.11c0.046,0.063 0.092,0.126 0.139,0.189c0.049,-0.019 0.097,-0.038 0.146,-0.057c0.096,-0.653 0.192,-1.307 0.289,-1.96c0.018,0.009 0.037,0.017 0.055,0.025c-0.04,0.674 -0.081,1.347 -0.121,2.021m0.138,0.317c-0.065,-0.106 -0.131,-0.213 -0.196,-0.32c0.018,-0.308 0.085,-1.414 0.082,-1.344c-0.065,0.438 -0.129,0.874 -0.194,1.312l-0.205,0.079c-0.065,-0.089 -0.131,-0.177 -0.196,-0.266c0.015,-0.063 0.535,-2.247 0.519,-2.179c0.127,0.045 0.254,0.089 0.381,0.134c0.122,0.6 0.546,2.679 0.519,2.545c-0.065,0.043 -0.131,0.085 -0.196,0.128c-0.068,-0.075 -0.136,-0.149 -0.205,-0.223c-0.064,-0.484 -0.128,-0.966 -0.193,-1.449c0.028,0.467 0.055,0.935 0.081,1.402c-0.065,0.06 -0.131,0.121 -0.197,0.181" style="fill:#d7a327;fill-rule:nonzero;"/><path d="M21.686,15.731c-0.084,1.961 -0.168,3.923 -0.252,5.885c-0.142,0.08 -0.284,0.161 -0.426,0.243c0.086,-2.018 0.172,-4.035 0.259,-6.053c0.122,-0.045 0.335,-0.103 0.419,-0.075" style="fill:#d7a327;"/><path d="M21.983,21.249c-0.142,0.098 -0.285,0.196 -0.427,0.295c0.087,-1.894 0.174,-3.786 0.26,-5.679c0.084,0.112 0.335,0.403 0.381,0.464c-0.127,2.922 -0.09,2.052 -0.214,4.92" style="fill:#d7a327;"/><path d="M22.663,16.868c-0.056,1.368 -0.112,2.737 -0.168,4.106c-0.114,0.074 -0.228,0.147 -0.343,0.219l0.214,-4.679c0.084,0.113 0.251,0.292 0.297,0.354" style="fill:#d7a327;"/><path d="M23.166,17.255c-0.056,1.164 -0.112,2.327 -0.168,3.49c-0.112,0.053 -0.224,0.105 -0.335,0.157c0.056,-1.296 0.111,-2.594 0.168,-3.891c0.084,0.066 0.251,0.215 0.335,0.244" style="fill:#d7a327;"/><path d="M23.631,17.418c-0.041,0.971 -0.082,1.942 -0.123,2.914c-0.114,0.071 -0.228,0.144 -0.342,0.216c0.043,-1.069 0.086,-2.14 0.13,-3.209c0.083,0.028 0.296,0.102 0.335,0.079" style="fill:#d7a327;"/><path d="M27.694,17.808c0.084,2.018 0.168,4.034 0.252,6.052c0.143,0.174 0.284,0.346 0.427,0.519c-0.086,-2.072 -0.173,-4.145 -0.259,-6.219c-0.122,-0.124 -0.336,-0.324 -0.42,-0.352" style="fill:#d7a327;"/><path d="M27.396,23.128c0.143,0.193 0.285,0.387 0.428,0.579c-0.087,-1.95 -0.173,-3.9 -0.26,-5.85c-0.084,0.055 -0.336,0.177 -0.381,0.207c0.127,3.007 0.089,2.113 0.213,5.064" style="fill:#d7a327;"/><path d="M26.718,18.286l0.167,4.222c0.114,0.15 0.229,0.301 0.344,0.452c-0.072,-1.609 -0.143,-3.216 -0.214,-4.824c-0.084,0.055 -0.252,0.12 -0.297,0.15" style="fill:#d7a327;"/><path d="M26.215,18.325c0.055,1.202 0.11,2.404 0.166,3.606l0.337,0.39l-0.168,-4.008c-0.085,0.009 -0.252,0.041 -0.335,0.012" style="fill:#d7a327;"/><path d="M23.547,18.989c-0.338,1.081 -0.676,2.162 -1.015,3.246c0.465,0.23 0.93,0.463 1.395,0.697c0.199,-0.832 0.397,-1.664 0.596,-2.496c-0.326,-0.482 -0.651,-0.966 -0.976,-1.447" style="fill:#fff;"/><path d="M22.573,22.223c0.443,0.221 0.887,0.443 1.331,0.667c0.194,-0.818 0.389,-1.638 0.584,-2.456c-0.31,-0.459 -0.618,-0.918 -0.927,-1.376c-0.33,1.054 -0.659,2.109 -0.988,3.165m1.354,0.742c-0.002,-0.001 -0.003,-0.001 -0.004,-0.002c-1.326,-0.692 -1.441,-0.677 -1.421,-0.747c1.02,-3.243 1,-3.34 1.068,-3.239c0.325,0.482 0.65,0.965 0.976,1.448c0.006,0.009 0.009,0.021 0.007,0.03c-0.636,2.618 -0.575,2.528 -0.626,2.51" style="fill:#d7a327;fill-rule:nonzero;"/><path d="M25.834,19.794c0.338,1.317 0.675,2.634 1.013,3.948c-0.465,-0.088 -0.93,-0.178 -1.394,-0.271c-0.199,-0.972 -0.397,-1.944 -0.596,-2.916c0.326,-0.253 0.652,-0.507 0.977,-0.761" style="fill:#fff;"/><path d="M24.892,20.576l0.584,2.868c0.444,0.088 0.888,0.175 1.331,0.258c-0.329,-1.281 -0.658,-2.565 -0.988,-3.85c-0.309,0.243 -0.618,0.483 -0.927,0.724m0.561,2.926c-0.05,-0.018 0.011,0.124 -0.626,-2.95c-0.002,-0.012 0.001,-0.022 0.008,-0.026c0.877,-0.676 1.003,-0.842 1.029,-0.73c0.338,1.317 0.675,2.634 1.013,3.948c0.003,0.01 0.002,0.019 -0.004,0.024c-0.004,0.006 -0.011,0.009 -0.02,0.007c-0.353,-0.064 -1.471,-0.287 -1.4,-0.273" style="fill:#d7a327;fill-rule:nonzero;"/><path d="M27.1,23.744c-0.084,-0.028 -0.207,-0.032 -0.253,-0.002c0.084,0.001 0.169,0.001 0.253,0.002" style="fill:#fff;"/><path d="M26.681,23.731c-0.046,-0.016 -0.215,-0.035 -0.298,-0.019c0.1,0.007 0.199,0.013 0.298,0.019" style="fill:#fff;"/><path d="M25.155,23.366c0.084,0.029 0.252,0.089 0.298,0.143c-0.099,-0.048 -0.199,-0.095 -0.298,-0.143" style="fill:#fff;"/><path d="M25.62,23.529c0.046,-0.029 0.215,0.029 0.298,0.104c-0.1,-0.035 -0.198,-0.069 -0.298,-0.104" style="fill:#fff;"/><path d="M25.344,17.351c0.035,0.014 -0.047,-0.207 -0.048,-0.207c0.094,0.129 0.448,0.277 0.448,0.277c-0.213,-0.169 -0.424,-0.953 -0.4,-1.508c0.023,-0.559 -0.081,-0.819 -0.164,-0.93c-0.107,-0.145 -0.448,-0.359 -0.673,-0.45c-0.127,-0.051 -0.107,0.058 -0.107,0.058c-0.235,-0.144 -0.472,-0.25 -0.576,-0.217c-0.1,0.033 -0.122,0.358 -0.049,0.326c0.177,-0.079 0.331,0.103 0.438,0.296c0.093,0.167 0.088,0.548 -0.048,0.95c-0.142,0.421 -0.529,0.756 -0.529,0.756c0.209,0.073 0.506,-0.01 0.506,-0.01c-0.024,0.089 -0.048,0.178 -0.071,0.267c0.223,-0.026 0.4,-0.129 0.4,-0.129c0.071,0.099 0.142,0.199 0.213,0.297c0.071,-0.068 0.213,-0.146 0.213,-0.146c0,-0 0.176,0.25 0.447,0.37" style="fill:#fff;"/><path d="M24.192,16.638c-0.025,0.093 -0.049,0.186 -0.074,0.277c0.144,-0.027 0.267,-0.08 0.354,-0.13c0.07,0.098 0.139,0.196 0.209,0.292c0.064,-0.053 0.142,-0.1 0.217,-0.141c0.164,0.227 0.342,0.33 0.419,0.369c-0.007,-0.035 -0.03,-0.103 -0.05,-0.159c0.017,-0.005 0.034,-0.011 0.052,-0.017c0.051,0.071 0.204,0.155 0.321,0.211c-0.191,-0.286 -0.351,-0.948 -0.328,-1.44c0.023,-0.573 -0.086,-0.811 -0.155,-0.903c-0.1,-0.135 -0.433,-0.343 -0.653,-0.433c-0.002,-0.001 -0.005,-0.003 -0.008,-0.004c-0.018,-0.007 -0.043,-0.012 -0.056,-0.002c-0.012,0.012 -0.008,0.037 -0.008,0.037c0.003,0.019 0.007,0.036 0.01,0.055c-0.049,-0.027 -0.452,-0.288 -0.601,-0.241c-0.057,0.017 -0.088,0.181 -0.072,0.255c0.17,-0.077 0.343,0.093 0.47,0.322c0.151,0.272 0.101,1.099 -0.531,1.701c0.185,0.032 0.386,-0.022 0.484,-0.049m-0.169,0.363c0.023,-0.087 0.046,-0.174 0.07,-0.261c-0.354,0.075 -0.477,-0.025 -0.526,-0.03c0.224,-0.196 0.466,-0.483 0.566,-0.786c0.141,-0.414 0.133,-0.776 0.053,-0.921c-0.232,-0.416 -0.375,-0.253 -0.426,-0.27c-0.113,-0.039 -0.054,-0.36 0.045,-0.392c0.099,-0.031 0.302,0.042 0.564,0.197c0.014,-0.057 0.063,-0.064 0.127,-0.042c0.004,0.001 0.008,0.003 0.012,0.004c0.237,0.097 0.584,0.317 0.695,0.467c0.092,0.125 0.196,0.392 0.173,0.959c-0.024,0.57 0.196,1.323 0.381,1.469c-0.005,0.018 -0.01,0.038 -0.015,0.056c-0.03,-0.011 -0.243,-0.102 -0.38,-0.207c0.035,0.11 0.022,0.125 0.016,0.133c-0.003,0.004 -0.006,0.007 -0.009,0.011l-0.025,-0.006c-0.228,-0.1 -0.39,-0.285 -0.448,-0.357c-0.162,0.095 -0.166,0.121 -0.21,0.154c-0.072,-0.102 -0.144,-0.203 -0.217,-0.305c-0.233,0.119 -0.398,0.116 -0.446,0.127" style="fill:#d7a327;fill-rule:nonzero;"/><path d="M24.167,16.722c-0.017,-0.021 -0.034,-0.042 -0.051,-0.062c0.215,-0.163 0.333,-0.977 0.334,-0.986c0.023,0.011 0.045,0.022 0.068,0.033c-0.006,0.035 -0.124,0.843 -0.351,1.015" style="fill:#d7a327;fill-rule:nonzero;"/><path d="M24.501,16.857c-0.02,-0.018 -0.039,-0.035 -0.059,-0.053c0.149,-0.221 0.195,-1.076 0.196,-1.084c0.022,0.009 0.045,0.019 0.067,0.028c-0.002,0.035 -0.047,0.878 -0.204,1.109" style="fill:#d7a327;fill-rule:nonzero;"/><path d="M24.864,16.979c-0.058,-0.188 -0.06,-1.123 -0.06,-1.163c0.023,0.008 0.045,0.016 0.067,0.023c-0,0.268 0.012,0.994 0.057,1.141c-0.021,-0 -0.043,-0 -0.064,-0.001" style="fill:#d7a327;fill-rule:nonzero;"/><path d="M25.269,17.154c-0.203,-0.37 -0.253,-1.179 -0.255,-1.213c0.023,0.006 0.046,0.013 0.069,0.02c-0.001,0.007 0.049,0.824 0.242,1.174c-0.019,0.006 -0.037,0.013 -0.056,0.019" style="fill:#d7a327;fill-rule:nonzero;"/><path d="M24.269,15.192c-0.011,-0.081 -0.028,-0.146 -0.056,-0.196c-0.107,-0.193 -0.26,-0.375 -0.438,-0.296c0,-0 0.06,-0.166 0.19,-0.128c0.099,0.029 0.327,0.191 0.526,0.602c0,-0 -0.148,-0.084 -0.183,-0.066c-0.066,0.035 -0.039,0.084 -0.039,0.084" style="fill:#d7a327;"/><path d="M24.268,15.126c0.041,-0.055 0.098,-0.028 0.207,0.028c-0.267,-0.534 -0.557,-0.591 -0.508,-0.572c-0.092,-0.028 -0.148,0.054 -0.171,0.098c0.201,-0.063 0.428,0.237 0.472,0.446m-0.007,0.068c-0,-0.002 -0.009,-0.018 -0.006,-0.038c-0.01,-0.064 -0.027,-0.118 -0.049,-0.159c-0.14,-0.251 -0.285,-0.351 -0.424,-0.289c-0.008,0.004 -0.016,0.008 -0.024,0.012c0.054,-0.149 0.133,-0.18 0.208,-0.157c0.004,0.001 0.007,0.001 0.01,0.002c0.129,0.046 0.342,0.232 0.524,0.607l0.012,0.023c-0.103,-0.059 -0.22,-0.124 -0.237,-0.032c0.002,0.01 0.003,0.021 0.004,0.03c-0.006,0 -0.011,0.001 -0.018,0.001" style="fill:#d7a327;fill-rule:nonzero;"/><path d="M23.757,14.462c0.015,-0.043 0.037,-0.079 0.067,-0.088c0.105,-0.033 0.341,0.072 0.576,0.217c0,0 -0.02,-0.109 0.107,-0.059c0.225,0.092 0.566,0.306 0.673,0.451c0.025,0.036 0.054,0.084 0.078,0.154c-0.001,-0.001 -0.002,-0.001 -0.004,-0.002c-0.084,-0.146 -0.454,-0.211 -0.52,-0.184c-0.023,0.012 -0.042,0.073 -0.077,0.062c-0.057,-0.021 -0.052,-0.034 -0.067,-0.056c-0.019,-0.029 -0.029,-0.066 -0.048,-0.071c-0.058,-0.01 -0.152,-0.089 -0.27,-0.224c-0.12,-0.137 -0.166,-0.175 -0.32,-0.22c-0.151,-0.041 -0.198,0.029 -0.199,0.029c0.002,-0.003 0.003,-0.006 0.004,-0.009" style="fill:#d7a327;"/><path d="M24.543,14.876c0.027,0.01 0.037,0.052 0.055,0.077c0.002,0.005 0.005,0.01 0.008,0.015c0.007,0.012 0.011,0.02 0.052,0.035c0.015,0.005 0.03,-0.014 0.044,-0.032c0.03,-0.04 0.045,-0.041 0.137,-0.032c0.116,0.02 0.297,0.051 0.393,0.154c-0.016,-0.038 -0.037,-0.074 -0.06,-0.108c-0.169,-0.229 -0.724,-0.474 -0.675,-0.448c-0.034,-0.012 -0.059,-0.012 -0.074,0c-0.019,0.018 -0.013,0.054 -0.013,0.055c0.001,0.005 0.002,0.011 0.004,0.015c-0.198,-0.11 -0.558,-0.332 -0.636,-0.17c0.065,-0.032 0.151,-0.014 0.235,0.015c0.113,0.039 0.165,0.09 0.265,0.204c0.055,0.063 0.197,0.216 0.262,0.219c0.001,0.001 0.002,0.001 0.003,0.001m0.115,0.146c-0.053,-0.019 -0.057,-0.028 -0.092,-0.093c-0.007,-0.015 -0.015,-0.031 -0.023,-0.033c-0.084,-0.016 -0.212,-0.153 -0.277,-0.23c-0.132,-0.149 -0.169,-0.17 -0.312,-0.214c-0.145,-0.039 -0.193,0.026 -0.193,0.027c-0.006,-0.005 -0.011,-0.01 -0.017,-0.014c0.001,-0.003 0.003,-0.007 0.004,-0.01c0.032,-0.088 0.076,-0.133 0.276,-0.062c0.1,0.034 0.226,0.097 0.367,0.181c-0.002,-0.055 0.032,-0.085 0.116,-0.052c0.232,0.096 0.572,0.31 0.679,0.456c0.051,0.073 0.063,0.115 0.087,0.173l-0.023,-0.008c-0.001,-0.001 -0.002,-0.003 -0.003,-0.005c-0.069,-0.122 -0.292,-0.159 -0.403,-0.177c-0.068,-0.01 -0.103,-0.015 -0.126,0.025c-0.016,0.021 -0.033,0.045 -0.06,0.036" style="fill:#d7a327;fill-rule:nonzero;"/><path d="M24.69,14.865c-0,-0.084 -0.124,-0.127 -0.124,-0.044c-0,0.082 0.124,0.127 0.124,0.044" style="fill:#fff;"/><path d="M25.569,21.512c0.046,-0.167 0.092,-0.334 0.138,-0.502c0.126,0.185 0.253,0.369 0.379,0.554c0.03,-0.114 0.061,-0.227 0.091,-0.339c-0.012,-0.05 -0.025,-0.099 -0.038,-0.148c-0.029,0.112 -0.059,0.223 -0.089,0.334c-0.127,-0.184 -0.253,-0.368 -0.379,-0.552c-0.046,0.167 -0.091,0.334 -0.137,0.501c-0.126,-0.185 -0.252,-0.369 -0.379,-0.554c-0.04,0.147 -0.08,0.295 -0.12,0.443c0.011,0.054 0.022,0.108 0.033,0.162c0.041,-0.151 0.081,-0.302 0.122,-0.453c0.127,0.185 0.253,0.369 0.379,0.554" style="fill:#d7a327;fill-rule:nonzero;"/><path d="M25.622,21.737l0.381,0.554c0.045,-0.168 0.09,-0.336 0.134,-0.503c0.097,0.14 0.194,0.28 0.291,0.421c-0.013,-0.053 -0.027,-0.106 -0.04,-0.159c-0.095,-0.138 -0.191,-0.277 -0.287,-0.415c-0.044,0.167 -0.089,0.335 -0.134,0.503c-0.127,-0.184 -0.253,-0.369 -0.38,-0.553c-0.045,0.167 -0.091,0.335 -0.135,0.503c-0.118,-0.171 -0.234,-0.342 -0.351,-0.512l0.029,0.143c0.119,0.174 0.239,0.347 0.357,0.521c0.045,-0.168 0.09,-0.335 0.135,-0.503" style="fill:#d7a327;fill-rule:nonzero;"/><path d="M25.788,20.283c0.079,0.115 0.159,0.23 0.238,0.346c-0.013,-0.054 -0.027,-0.107 -0.041,-0.16c-0.077,-0.113 -0.155,-0.226 -0.232,-0.338c-0.045,0.167 -0.09,0.335 -0.135,0.502c-0.092,-0.133 -0.184,-0.267 -0.275,-0.401c-0.015,0.012 -0.03,0.024 -0.045,0.035l0.354,0.519c0.046,-0.168 0.091,-0.335 0.136,-0.503" style="fill:#d7a327;fill-rule:nonzero;"/><path d="M25.254,20.301c-0.032,0.025 -0.063,0.05 -0.095,0.075c-0.019,0.069 -0.037,0.138 -0.055,0.206c-0.025,-0.035 -0.049,-0.071 -0.074,-0.107c-0.015,0.012 -0.03,0.023 -0.045,0.035c0.051,0.075 0.102,0.149 0.154,0.225c0.038,-0.145 0.077,-0.289 0.115,-0.434" style="fill:#d7a327;fill-rule:nonzero;"/><path d="M25.538,22.464c0.127,0.185 0.253,0.369 0.38,0.553c0.045,-0.167 0.09,-0.335 0.136,-0.503c0.126,0.184 0.253,0.369 0.379,0.553c0.036,-0.135 0.072,-0.27 0.108,-0.406c-0.012,-0.048 -0.024,-0.095 -0.036,-0.143c-0.035,0.132 -0.071,0.264 -0.108,0.396c-0.126,-0.183 -0.252,-0.368 -0.379,-0.552c-0.044,0.167 -0.09,0.334 -0.136,0.502c-0.127,-0.184 -0.253,-0.369 -0.38,-0.553c-0.045,0.168 -0.09,0.335 -0.135,0.503c-0.009,-0.012 -0.017,-0.024 -0.025,-0.037c0.009,0.048 0.019,0.096 0.029,0.144c0.011,0.015 0.021,0.03 0.032,0.045c0.045,-0.167 0.09,-0.335 0.135,-0.502" style="fill:#d7a327;fill-rule:nonzero;"/><path d="M25.821,23.512c0.024,0.005 0.049,0.01 0.072,0.015c0.027,-0.096 0.052,-0.191 0.077,-0.286c0.08,0.116 0.159,0.232 0.239,0.347c0.026,0.006 0.053,0.012 0.081,0.017c-0.119,-0.172 -0.238,-0.344 -0.357,-0.517c-0.037,0.142 -0.074,0.282 -0.112,0.424" style="fill:#d7a327;fill-rule:nonzero;"/><path d="M25.652,23.478c0.027,0.006 0.055,0.011 0.081,0.017c-0.104,-0.153 -0.209,-0.305 -0.314,-0.457l-0.014,0.049c0.011,0.055 0.022,0.109 0.033,0.163c0.006,-0.019 0.011,-0.04 0.017,-0.059c0.066,0.096 0.132,0.191 0.197,0.287" style="fill:#d7a327;fill-rule:nonzero;"/><path d="M26.323,23.612c0.024,0.005 0.048,0.01 0.072,0.014c0.031,-0.112 0.06,-0.223 0.09,-0.335c0.094,0.135 0.188,0.272 0.281,0.408c0.014,0.002 0.028,0.005 0.041,0.007c-0.006,-0.026 -0.012,-0.051 -0.019,-0.077c-0.113,-0.163 -0.226,-0.328 -0.339,-0.491c-0.042,0.159 -0.084,0.317 -0.126,0.474" style="fill:#d7a327;fill-rule:nonzero;"/><path d="M23.682,20.297c0.045,0.199 0.091,0.399 0.137,0.599c0.126,-0.096 0.253,-0.192 0.379,-0.287c0.041,0.179 0.081,0.359 0.122,0.538c0.01,-0.046 0.021,-0.093 0.032,-0.139c-0.04,-0.176 -0.079,-0.352 -0.119,-0.527c-0.126,0.095 -0.252,0.191 -0.379,0.287c-0.045,-0.2 -0.09,-0.399 -0.136,-0.597l-0.379,0.287c-0.031,-0.132 -0.061,-0.265 -0.091,-0.396l-0.038,0.12c0.031,0.135 0.062,0.269 0.093,0.404c0.127,-0.097 0.253,-0.192 0.379,-0.289" style="fill:#d7a327;fill-rule:nonzero;"/><path d="M23.386,21.37c0.127,-0.096 0.254,-0.191 0.38,-0.287l0.135,0.598l0.358,-0.27c0.009,-0.041 0.019,-0.082 0.028,-0.123c-0.117,0.088 -0.234,0.177 -0.351,0.265c-0.045,-0.2 -0.089,-0.399 -0.134,-0.598c-0.127,0.096 -0.254,0.191 -0.38,0.287c-0.046,-0.199 -0.091,-0.397 -0.136,-0.597c-0.095,0.073 -0.19,0.144 -0.285,0.217c-0.013,0.043 -0.027,0.087 -0.04,0.131c0.097,-0.073 0.194,-0.146 0.291,-0.22c0.045,0.2 0.09,0.399 0.134,0.597" style="fill:#d7a327;fill-rule:nonzero;"/><path d="M23.734,20.111c0.119,-0.09 0.237,-0.179 0.356,-0.269c-0.015,-0.022 -0.03,-0.044 -0.045,-0.066c-0.092,0.068 -0.184,0.138 -0.275,0.206c-0.045,-0.198 -0.09,-0.397 -0.135,-0.597c-0.078,0.059 -0.155,0.118 -0.233,0.176c-0.013,0.044 -0.027,0.088 -0.041,0.132c0.08,-0.061 0.159,-0.12 0.238,-0.18c0.045,0.2 0.09,0.399 0.135,0.598" style="fill:#d7a327;fill-rule:nonzero;"/><path d="M24.403,20.305c-0.015,-0.022 -0.03,-0.045 -0.044,-0.067c-0.025,0.018 -0.05,0.037 -0.074,0.056c-0.019,-0.082 -0.037,-0.164 -0.055,-0.246c-0.033,-0.048 -0.065,-0.095 -0.097,-0.142c0.039,0.171 0.078,0.343 0.117,0.514c0.051,-0.038 0.102,-0.077 0.153,-0.115" style="fill:#d7a327;fill-rule:nonzero;"/><path d="M23.335,21.559c0.045,0.199 0.09,0.398 0.135,0.598c0.127,-0.097 0.253,-0.193 0.379,-0.288c0.046,0.199 0.091,0.398 0.136,0.597c0.011,-0.008 0.021,-0.015 0.032,-0.022c0.009,-0.041 0.019,-0.082 0.028,-0.123c-0.008,0.006 -0.016,0.011 -0.024,0.018c-0.045,-0.2 -0.091,-0.399 -0.136,-0.598c-0.126,0.095 -0.253,0.192 -0.379,0.288c-0.046,-0.199 -0.091,-0.399 -0.137,-0.599c-0.126,0.097 -0.252,0.193 -0.378,0.29c-0.036,-0.157 -0.073,-0.314 -0.109,-0.472c-0.012,0.04 -0.024,0.08 -0.036,0.12l0.11,0.48c0.126,-0.097 0.253,-0.193 0.379,-0.289" style="fill:#d7a327;fill-rule:nonzero;"/><path d="M23.95,22.726l0.032,-0.141l-0.013,-0.058c-0.104,0.079 -0.208,0.157 -0.313,0.236c0.027,0.014 0.053,0.027 0.08,0.04c0.066,-0.05 0.132,-0.098 0.197,-0.148c0.006,0.023 0.011,0.048 0.017,0.071" style="fill:#d7a327;fill-rule:nonzero;"/><path d="M23.099,22.486c0.027,0.014 0.054,0.026 0.081,0.039c0.079,-0.06 0.158,-0.12 0.238,-0.181c0.026,0.113 0.051,0.226 0.077,0.339c0.024,0.012 0.048,0.024 0.072,0.035c-0.037,-0.167 -0.075,-0.334 -0.113,-0.502c-0.118,0.09 -0.237,0.18 -0.355,0.27" style="fill:#d7a327;fill-rule:nonzero;"/><path d="M22.6,22.164l-0.019,0.064c0.014,0.007 0.028,0.014 0.042,0.021l0.281,-0.214c0.03,0.133 0.061,0.266 0.091,0.398c0.023,0.012 0.047,0.024 0.071,0.036c-0.042,-0.187 -0.084,-0.374 -0.127,-0.562c-0.112,0.086 -0.226,0.171 -0.339,0.257" style="fill:#d7a327;fill-rule:nonzero;"/><path d="M24.69,24.597c1.061,0.376 2.073,0.645 2.668,0.677c0.252,0.039 0.252,-0.092 0.252,-0.26c0.252,-0 0.122,-0.34 0.298,-0.282c-0.176,-0.012 -0.214,-0.368 -0.428,-0.394c-0,-0.298 -0.297,-0.435 -0.548,-0.437c-0.905,-0.003 -3.737,-1.072 -4.483,-1.565c-0.252,-0.17 -0.55,-0.231 -0.55,0.067c-0.213,-0.118 -0.251,0.214 -0.426,0.11c0.175,0.058 0.046,0.312 0.297,0.479c-0,0.168 -0,0.297 0.259,0.43c0.588,0.363 1.603,0.801 2.661,1.175" style="fill:#fff;"/><path d="M21.618,22.587c0.051,0.124 0.026,0.254 0.173,0.352c0.122,0.08 -0.088,0.252 0.25,0.424c0.553,0.342 1.54,0.778 2.649,1.17c1.123,0.398 2.09,0.643 2.651,0.674c0.336,0.051 0.125,-0.263 0.25,-0.26c0.147,0 0.119,-0.149 0.171,-0.237c-0.104,-0.115 -0.155,-0.292 -0.269,-0.306c-0.036,-0.003 -0.076,-0.046 -0.076,-0.088c0,-0.242 -0.251,-0.346 -0.466,-0.348c-0.666,-0.003 -2,-0.48 -2.719,-0.761c-2.106,-0.815 -1.628,-0.79 -2.008,-0.923c-0.119,-0.04 -0.262,-0.049 -0.262,0.14c0,0.018 -0.007,0.034 -0.022,0.042c-0.061,0.027 -0.079,-0.092 -0.225,0.049c-0.029,0.027 -0.06,0.056 -0.097,0.072m3.072,2.073c-1.137,-0.402 -2.114,-0.834 -2.678,-1.183c-0.28,-0.144 -0.303,-0.305 -0.305,-0.463c-0.194,-0.16 -0.168,-0.382 -0.214,-0.428c-0.125,-0.046 -0.101,-0.183 0.018,-0.12c0.034,0.006 0.068,-0.027 0.105,-0.062c0.053,-0.05 0.119,-0.114 0.225,-0.088c0.043,-0.274 0.352,-0.22 0.628,-0.033c0.411,0.274 1.07,0.529 1.769,0.8c2.358,0.923 2.584,0.677 2.919,0.792c0.216,0.073 0.356,0.226 0.382,0.416c0.107,0.045 0.172,0.151 0.225,0.237c0.038,0.06 0.072,0.115 0.105,0.131c0.119,0.015 0.145,0.168 0.018,0.133c-0.048,0.015 -0.018,0.255 -0.214,0.285c-0.002,0.157 -0.025,0.304 -0.304,0.261c-0.566,-0.028 -1.544,-0.276 -2.679,-0.678" style="fill:#d7a327;fill-rule:nonzero;"/><path d="M23.25,22.483c0.342,0.165 0.723,0.337 1.021,0.404c0.167,0.059 0.289,0.392 -0.046,0.32c-0.547,-0.124 -1.464,-0.617 -1.99,-0.943c-0.297,-0.23 -0.084,-0.41 0.084,-0.314c0.26,0.171 0.596,0.371 0.931,0.533" style="fill:#fff;"/><path d="M22.248,22.237c0.393,0.24 2.182,1.237 2.155,0.857c-0.005,-0.068 -0.066,-0.149 -0.132,-0.172c-0.525,-0.12 -1.412,-0.58 -1.962,-0.944c-0.154,-0.077 -0.3,0.075 -0.061,0.259m-0.022,0.057c-0.336,-0.259 -0.111,-0.496 0.101,-0.374c1.182,0.785 2.075,0.968 1.94,0.932c0.106,0.037 0.197,0.156 0.204,0.262c0.033,0.49 -1.785,-0.539 -2.245,-0.82" style="fill:#d7a327;fill-rule:nonzero;"/><path d="M25.117,23.185c-0.175,-0.062 -0.297,0.186 0.038,0.35c0.547,0.262 1.461,0.409 1.99,0.438c0.298,-0.029 0.084,-0.352 -0.084,-0.371c-0.746,-0.012 -1.578,-0.24 -1.944,-0.417" style="fill:#fff;"/><path d="M25.113,23.218c-0.072,-0.025 -0.131,0.021 -0.135,0.08c-0.025,0.367 1.757,0.62 2.158,0.64c0.249,-0.027 0.061,-0.286 -0.068,-0.301c-0.532,-0.007 -1.422,-0.164 -1.955,-0.419m-0.204,0.052c0.007,-0.102 0.103,-0.156 0.208,-0.118c0.305,0.146 0.702,0.242 1.009,0.308c0.57,0.12 0.903,0.093 0.971,0.116c0.218,0.075 0.354,0.404 0.06,0.432c-0.432,-0.019 -2.281,-0.268 -2.248,-0.738" style="fill:#d7a327;fill-rule:nonzero;"/><path d="M22.197,21.953c-0.259,-0.134 -0.38,0.124 -0.298,0.319c0.039,-0.071 0.214,-0.011 0.252,-0.083c0.046,-0.114 -0.038,-0.142 0.046,-0.236" style="fill:#fff;"/><path d="M22.142,21.964c-0.165,-0.053 -0.26,0.092 -0.229,0.247c0.109,-0.044 0.245,0.034 0.215,-0.142c-0.006,-0.036 -0.007,-0.067 0.014,-0.105m-0.243,0.342c-0.013,-0.004 -0.023,-0.015 -0.03,-0.029c-0.099,-0.233 0.057,-0.501 0.334,-0.354c0.024,0.012 0.037,0.045 0.023,0.059c-0.039,0.044 -0.036,0.066 -0.031,0.098c0.042,0.268 -0.225,0.144 -0.265,0.216c-0.005,0.011 -0.016,0.015 -0.029,0.011c-0.001,0 -0.001,-0.001 -0.002,-0.001" style="fill:#d7a327;fill-rule:nonzero;"/><path d="M23.212,23.081c-0,-0.168 0.168,-0.088 0.167,-0.256c0.001,-0.084 -0.045,-0.229 -0.129,-0.259c-0.084,-0.029 -0.168,0.026 -0.168,0.11c-0.038,0.154 0.13,0.238 0.13,0.405" style="fill:#fff;"/><path d="M23.25,22.601c-0.066,-0.022 -0.134,0.022 -0.134,0.087c-0.026,0.106 0.048,0.163 0.098,0.272c0.054,-0.057 0.132,-0.042 0.131,-0.146c-0,-0.072 -0.04,-0.193 -0.095,-0.213m-0.072,0.469c-0,-0.162 -0.174,-0.233 -0.129,-0.412c-0.001,-0.095 0.099,-0.16 0.201,-0.124c0.106,0.037 0.162,0.199 0.162,0.303c-0,0.173 -0.167,0.118 -0.167,0.256c-0,0.02 -0.067,0.021 -0.067,-0.023" style="fill:#d7a327;fill-rule:nonzero;"/><path d="M24.418,23.023c0.252,0.089 0.226,0.415 0.105,0.54c-0,-0.122 -0.214,-0.243 -0.214,-0.327c-0.001,-0.13 0.192,-0.062 0.109,-0.213" style="fill:#fff;"/><path d="M24.473,23.082c0.015,0.11 -0.13,0.072 -0.13,0.165c0.001,0.021 0.042,0.063 0.078,0.101c0.039,0.041 0.082,0.087 0.11,0.137c0.063,-0.109 0.081,-0.314 -0.058,-0.403m0.05,0.514c-0.004,-0.001 -0.006,-0.003 -0.01,-0.004c-0.014,-0.01 -0.025,-0.027 -0.025,-0.042c-0,-0.099 -0.212,-0.22 -0.211,-0.326c-0,-0.075 0.049,-0.099 0.086,-0.116c0.092,-0.043 0.002,-0.072 0.026,-0.112c0.005,-0.009 0.017,-0.012 0.029,-0.007c0.271,0.095 0.284,0.447 0.132,0.603c-0.007,0.007 -0.017,0.008 -0.027,0.004" style="fill:#d7a327;fill-rule:nonzero;"/><path d="M27.183,23.689c0.259,0.042 0.381,0.38 0.297,0.52c-0.038,-0.097 -0.213,-0.156 -0.251,-0.252c-0.046,-0.146 0.038,-0.118 -0.046,-0.268" style="fill:#fff;"/><path d="M27.239,23.737c0.021,0.052 0.019,0.081 0.013,0.113c-0.028,0.162 0.11,0.173 0.216,0.287c0.03,-0.137 -0.066,-0.342 -0.229,-0.4m0.241,0.504l-0.001,0c-0.011,-0.004 -0.023,-0.016 -0.029,-0.03c-0.014,-0.033 -0.062,-0.069 -0.107,-0.102c-0.107,-0.077 -0.185,-0.143 -0.158,-0.293c0.005,-0.028 0.009,-0.048 -0.03,-0.118c-0.015,-0.023 -0.002,-0.049 0.022,-0.044c0.282,0.043 0.432,0.415 0.334,0.579c-0.005,0.01 -0.017,0.013 -0.031,0.008" style="fill:#d7a327;fill-rule:nonzero;"/><path d="M26.169,24.12c-0.001,-0.168 -0.168,-0.205 -0.168,-0.373c0,-0.084 0.046,-0.197 0.13,-0.169c0.084,0.029 0.168,0.143 0.168,0.227c0.038,0.18 -0.13,0.147 -0.13,0.315" style="fill:#fff;"/><path d="M26.131,23.613c-0.056,-0.02 -0.096,0.073 -0.096,0.146c0,0.105 0.076,0.144 0.131,0.238c0.049,-0.073 0.124,-0.081 0.099,-0.197c0,-0.072 -0.069,-0.165 -0.134,-0.187m0.005,0.495c-0.001,-0.141 -0.168,-0.19 -0.168,-0.373c0,-0.103 0.057,-0.226 0.163,-0.19c0.102,0.035 0.201,0.17 0.201,0.271c0.042,0.192 -0.13,0.165 -0.13,0.316c0,0.044 -0.066,0.021 -0.066,-0.024" style="fill:#d7a327;fill-rule:nonzero;"/><path d="M24.962,23.214c-0.251,-0.089 -0.226,0.256 -0.104,0.467c-0,-0.122 0.213,-0.093 0.213,-0.177c-0,-0.129 -0.192,-0.197 -0.109,-0.29" style="fill:#fff;"/><path d="M24.907,23.236c-0.138,-0.009 -0.121,0.207 -0.057,0.362c0.088,-0.101 0.291,-0.027 0.124,-0.22c-0.03,-0.038 -0.074,-0.088 -0.067,-0.142m-0.049,0.479c-0.057,-0.02 -0.181,-0.347 -0.093,-0.491c0.076,-0.118 0.275,-0.036 0.225,0.02c-0.027,0.03 -0.019,0.043 0.028,0.096c0.263,0.306 -0.126,0.228 -0.126,0.354c0,0.015 -0.011,0.023 -0.025,0.023c-0.003,-0.002 -0.006,-0.002 -0.009,-0.002" style="fill:#d7a327;fill-rule:nonzero;"/><path d="M22.533,22.259c-0.049,-0.033 -0.309,-0.206 -0.259,-0.173c-0.025,-0.018 -0.019,-0.053 0.008,-0.043c0.082,0.028 0.276,0.148 0.276,0.2c-0,0.014 -0.01,0.021 -0.023,0.017c-0.001,-0 -0.001,-0.001 -0.002,-0.001" style="fill:#d7a327;fill-rule:nonzero;"/><path d="M22.997,22.549c-0.049,-0.032 -0.354,-0.221 -0.304,-0.19c-0.01,-0.006 -0.018,-0.021 -0.016,-0.032c0.007,-0.055 0.278,0.133 0.329,0.178c0.023,0.014 0.021,0.054 -0.008,0.044l-0.001,0Z" style="fill:#d7a327;fill-rule:nonzero;"/><path d="M23.927,22.994c-0.022,-0.008 -0.032,-0.038 -0.014,-0.046c0.048,-0.024 0.186,0.022 0.311,0.066c0.031,0.01 0.033,0.055 0.004,0.047c-0.099,-0.021 -0.198,-0.044 -0.298,-0.066c-0.002,0 -0.002,0 -0.003,-0.001" style="fill:#d7a327;fill-rule:nonzero;"/><path d="M23.761,22.899c-0.099,-0.034 -0.198,-0.069 -0.297,-0.104c-0.012,-0.004 -0.021,-0.015 -0.024,-0.026c-0.018,-0.088 0.371,0.043 0.342,0.123c-0.004,0.006 -0.012,0.011 -0.021,0.007" style="fill:#d7a327;fill-rule:nonzero;"/><path d="M26.847,23.766c-0.008,-0.003 -0.015,-0.01 -0.02,-0.018c-0.034,-0.063 0.169,-0.061 0.273,-0.026c0.025,0.009 0.033,0.047 0.007,0.048c-0.084,-0.001 -0.168,-0.001 -0.252,-0.002c-0.002,-0.001 -0.004,-0 -0.008,-0.002" style="fill:#d7a327;fill-rule:nonzero;"/><path d="M26.383,23.737c-0.009,-0.004 -0.019,-0.013 -0.022,-0.022c-0.022,-0.06 0.263,-0.026 0.32,-0.006c0.012,0.004 0.02,0.015 0.022,0.027c0.003,0.013 -0.006,0.022 -0.016,0.021c-0.1,-0.006 -0.199,-0.013 -0.298,-0.019c-0.002,-0 -0.004,-0.001 -0.006,-0.001" style="fill:#d7a327;fill-rule:nonzero;"/><path d="M25.151,23.388c-0.027,-0.013 -0.025,-0.056 0.004,-0.046c0.122,0.044 0.256,0.093 0.308,0.149c0.022,0.018 0.016,0.05 -0.009,0.042c-0.055,-0.026 -0.352,-0.168 -0.303,-0.145" style="fill:#d7a327;fill-rule:nonzero;"/><path d="M25.918,23.658c-0.049,-0.018 -0.348,-0.122 -0.299,-0.104c-0.009,-0.003 -0.018,-0.014 -0.021,-0.023c-0.034,-0.102 0.343,0.041 0.343,0.111c0,0.014 -0.009,0.02 -0.023,0.016" style="fill:#d7a327;fill-rule:nonzero;"/><path d="M22.174,22.646c0.009,-0.029 0.035,-0.039 0.059,-0.022c0.015,0.01 0.044,0.049 0.045,0.059c0,0.012 -0.015,0.035 -0.022,0.032c-0.002,-0.001 -0.008,-0 -0.009,0.003c-0.019,0.016 -0.086,-0.027 -0.073,-0.072m2.955,1.293c-0.011,-0.007 -0.027,-0.037 -0.027,-0.049c-0.001,-0.019 0.03,-0.043 0.049,-0.036c0.01,0.003 0.035,0.025 0.044,0.039c0.017,0.024 0.014,0.051 -0.007,0.061c-0.011,0.004 -0.043,-0.003 -0.059,-0.015m-0.012,0.084c-0.002,-0.026 0,-0.03 0.027,-0.035c0.006,-0.001 0.013,-0.003 0.02,-0.004c0.006,0.005 0.011,0.011 0.018,0.016c0.055,0.042 0.045,0.084 0.004,0.087c-0.019,0.002 -0.067,-0.022 -0.069,-0.064m-2.851,-1.114c0.021,-0.011 0.007,-0.04 -0.03,-0.034c-0.016,0.001 -0.02,0.003 -0.019,0.011c0.001,0.01 0.009,0.016 0.033,0.026c0.003,0.002 0.01,0.001 0.016,-0.003m0.381,0.348c-0.29,-0.157 -0.434,-0.269 -0.477,-0.288c-0.048,-0.02 -0.086,-0.06 -0.064,-0.098c0.005,-0.01 0.005,-0.026 0.015,-0.03c0.004,-0.002 0.007,-0.006 0.007,-0.008c0,-0.004 0.019,-0.025 0.03,-0.033c0.014,-0.009 0.044,-0.012 0.06,-0.008c0.01,0.002 0.019,0.002 0.023,-0c0.006,-0.002 0.016,-0.001 0.036,0.004c0.009,0.002 0.018,0.004 0.027,0.006c0.003,-0.005 0.007,-0.01 0.011,-0.015c0.005,-0.009 0.049,-0.148 0.051,-0.151c0.014,-0.006 -0.012,-0.041 -0.024,-0.045c-0.035,-0.011 -0.059,0.019 -0.088,0.009c-0.018,-0.006 -0.042,-0.027 -0.051,-0.046c-0.008,-0.014 -0.008,-0.015 0.001,-0.03c0.006,-0.008 0.012,-0.015 0.02,-0.014c0.016,-0.001 0.057,0.017 0.067,0.028c0.019,0.021 0.06,0.016 0.082,0.02c0.02,0.004 0.02,-0.007 0.036,-0.004c0.019,0.002 0.019,-0.007 0.035,-0.002c0.033,0.012 0.02,0.065 0.008,0.092c-0.009,0.013 -0.006,0.041 -0.015,0.047c-0.004,0.004 -0.008,0.011 -0.008,0.016c-0.001,0.004 -0.004,0.01 -0.006,0.012c-0.003,0.002 -0.009,0.014 -0.011,0.027c-0.003,0.023 -0.014,0.035 -0.015,0.051c-0.002,0.009 -0.006,0.019 -0.01,0.021c-0.047,0.151 -0.045,0.142 -0.045,0.144c-0.025,0.028 0.128,0.124 0.135,0.048c0.006,-0.034 0.03,-0.061 -0.001,-0.093c-0.012,-0.016 -0.014,-0.018 -0.009,-0.026c0.01,-0.018 0.05,0.009 0.098,-0.017c0.017,-0.01 0.027,-0.007 0.036,0.01c0.006,0.011 0.006,0.014 0,0.03c-0.004,0.007 -0.007,0.022 -0.008,0.032c0,0.023 -0.007,0.018 -0.014,0.042c-0.003,0.009 -0.007,0.021 -0.01,0.028c-0.008,0.021 -0.002,0.042 -0.014,0.057c-0.017,0.03 -0.004,0.035 0.021,0.056c0.008,0.008 0.043,0.022 0.059,0.035c0.01,0.006 0.029,0.017 0.042,0.023c0.025,0.011 0.027,0.011 0.037,0.002c0.019,-0.013 0.037,-0.069 0.009,-0.106c-0.023,-0.029 -0.013,-0.052 0.015,-0.042c0.013,0.003 0.046,0.001 0.056,-0.003c0.024,-0.014 0.038,-0.016 0.053,-0.004c0.012,0.01 0.015,0.028 0.008,0.038c-0.006,0.007 -0.021,0.065 -0.024,0.074c-0.006,0.018 -0.035,0.137 -0.043,0.153c-0.013,0.026 -0.061,-0 -0.141,-0.042m-0.448,-0.135c-0.027,-0.035 -0.023,-0.05 0.017,-0.067c0.017,-0.006 0.027,-0.001 0.046,0.023c0.028,0.036 0.03,0.054 0.004,0.068c-0.012,0.008 -0.018,0.008 -0.033,0.002c-0.016,-0.005 -0.02,-0.008 -0.034,-0.026m0.129,0.036c0.006,-0.022 0.01,-0.023 0.044,-0.012c0.038,0.013 0.046,0.022 0.046,0.056c0,0.019 -0.002,0.022 -0.011,0.027c-0.033,0.022 -0.094,-0.028 -0.079,-0.071m4.793,1.654c0.036,-0.005 0.051,0.002 0.065,0.031c0.017,0.038 0.017,0.052 -0.005,0.066c-0.012,0.008 -0.014,0.007 -0.041,-0.001c-0.074,-0.026 -0.076,-0.09 -0.019,-0.096m-4.561,-1.525c0.047,-0.024 0.112,0.056 0.08,0.083c-0.054,0.04 -0.131,-0.064 -0.08,-0.083m1.18,0.535c-0.004,-0.006 -0.009,-0.013 -0.013,-0.019c0,-0.011 0.001,-0.02 0.002,-0.031c0.001,-0.034 0.056,-0.357 0.057,-0.397c0,-0.02 0.001,-0.042 0.004,-0.048c0.002,-0.007 0.003,-0.017 0.003,-0.022c0,-0.01 0.014,-0.026 0.02,-0.024c0.019,0.029 0.033,0.054 0.054,0.079c0.067,0.088 0.045,0.054 0.001,0.081c-0.015,0.01 -0.006,0.04 -0.016,0.061c-0.006,0.013 -0.011,0.063 -0.013,0.117c-0.001,0.011 -0.002,0.023 -0.005,0.025c-0.003,0.002 -0.005,0.028 -0.005,0.061c-0.002,0.029 -0.003,0.056 -0.005,0.058c-0.002,0.002 -0.004,0.011 -0.004,0.02c0,0.031 -0.007,0.056 -0.017,0.062c-0.007,0.005 -0.014,0.005 -0.029,-0c-0.015,-0.005 -0.021,-0.01 -0.034,-0.023m1.545,0.508c0.007,0.001 0.014,0.001 0.021,0.002c-0.001,-0.007 -0.002,-0.014 -0.002,-0.021c-0.001,-0.007 -0.002,-0.015 -0.002,-0.021c-0.006,-0.002 -0.012,-0.004 -0.017,-0.007c-0.012,-0.005 -0.017,-0.005 -0.026,0.002c-0.017,0.009 -0.018,0.021 -0.006,0.033l0.011,0.011c0,-0 0.01,0.001 0.021,0.001m-0.121,0.04c-0.009,-0.015 -0.009,-0.017 -0.005,-0.037c0.002,-0.012 0.003,-0.033 0.004,-0.047c0.001,-0.013 0.004,-0.027 0.006,-0.031c0.002,-0.004 0.004,-0.012 0.004,-0.019c-0.001,-0.011 0.003,-0.015 0.016,-0.023c0.008,-0.005 0.016,-0.01 0.016,-0.013c0,-0.005 0.031,-0.019 0.036,-0.017c0.004,0.001 0.009,-0 0.013,-0.004c0.008,-0.005 0.026,0.004 0.038,-0.002c0.017,-0.009 0.011,-0.073 0.004,-0.092c-0.008,-0.023 -0.005,-0.051 -0.008,-0.078c-0.003,-0.036 -0.005,-0.042 -0.014,-0.055c-0.005,-0.006 -0.012,-0.014 -0.016,-0.015c-0.005,-0.002 -0.023,-0.03 -0.021,-0.032c0.028,-0.02 0.077,-0.049 0.082,-0.05c0.012,0.002 0.029,0.017 0.033,0.027c0.003,0.007 0.038,0.361 0.037,0.368c0.003,0.033 0.006,0.067 0.008,0.077c0.008,0.03 0.039,0.057 0.063,0.054c0.004,-0.001 0.021,-0 0.037,0.004c0.039,0.007 0.04,0.007 0.037,-0.052c-0.003,-0.039 -0.004,-0.044 -0.012,-0.06c-0.02,-0.027 -0.039,-0.029 -0.039,-0.053c-0.001,-0.017 0.045,-0.025 0.059,-0.03c0.023,-0.011 0.037,-0.007 0.052,0.013c0.009,0.013 0.011,0.019 0.013,0.07c0.002,0.041 0.005,0.061 0.008,0.071c0.005,0.01 0.007,0.025 0.007,0.052c0.001,0.027 0.004,0.045 0.008,0.056c0.006,0.014 0.006,0.018 0.001,0.026c-0.003,0.007 -0.007,0.014 -0.009,0.018c-0.004,0.009 -0.01,0.009 -0.046,-0.002c-0.016,-0.006 -0.036,-0.01 -0.046,-0.012c-0.008,-0 -0.031,-0.006 -0.05,-0.013c-0.085,-0.027 -0.201,-0.057 -0.207,-0.054c-0.004,0.002 -0.017,-0.001 -0.053,-0.014c-0.016,-0.005 -0.032,-0.011 -0.048,-0.016c-0.002,-0.005 -0.006,-0.01 -0.008,-0.015m-1.796,-0.948c0.011,-0.004 0.012,-0.012 0.002,-0.019c-0.011,-0.007 -0.021,-0.028 -0.023,-0.047c-0.001,-0.062 -0.042,-0.023 -0.091,-0.001c0.003,0.005 0.006,0.009 0.01,0.014c0.016,0.022 0.035,0.036 0.066,0.047c0.019,0.006 0.03,0.008 0.036,0.006m0.124,0.422c-0.006,-0.004 -0.01,-0.008 -0.009,-0.01c-0.002,-0.003 -0.039,-0.04 -0.044,-0.042c-0.003,-0 -0.006,-0.005 -0.008,-0.013c-0.004,-0.021 -0.03,-0.082 -0.011,-0.086c0.007,-0.002 0.004,-0.015 -0.003,-0.025c-0.005,-0.004 -0.018,-0.011 -0.035,-0.02c-0.042,-0.016 -0.063,-0.027 -0.07,-0.072c-0.003,-0.017 -0.007,-0.032 -0.011,-0.036c-0.007,-0.011 -0.019,-0.017 -0.023,-0.012c-0.001,0.001 -0.007,0.001 -0.015,-0c-0.007,-0.002 -0.012,0.002 -0.015,0.008c-0.002,0.004 -0.009,0.011 -0.014,0.017c-0.011,0.01 -0.012,0.01 -0.036,0.001c-0.015,-0.004 -0.032,-0.013 -0.038,-0.018c-0.017,-0.012 -0.034,-0.021 -0.078,-0.038c-0.061,-0.027 -0.09,-0.031 -0.096,-0.018c-0.005,0.019 -0.057,0.044 -0.078,0.04c-0.009,-0.002 -0.024,-0.003 -0.032,-0.003c-0.01,-0 -0.019,-0.002 -0.022,-0.004c-0.003,-0.003 -0.023,-0.013 -0.047,-0.023c-0.044,-0.021 -0.061,-0.035 -0.061,-0.049c0,-0.009 0.028,-0.014 0.038,-0.006c0.012,0.008 0.031,0.014 0.031,0.011c0,-0.003 0.009,-0.004 0.021,-0.002c0.011,0.002 0.023,0.001 0.026,-0c0.002,-0.002 0.01,-0.003 0.016,-0.001c0.009,0.004 0.013,0.001 0.023,-0.01c0.007,-0.008 0.012,-0.016 0.012,-0.019c0,-0.003 0.003,-0.009 0.009,-0.013c0.007,-0.009 0.006,-0.033 0.012,-0.051c0.007,-0.013 0.006,-0.016 -0.003,-0.044c-0.006,-0.017 -0.011,-0.032 -0.013,-0.034c-0.004,-0.003 -0.008,-0.012 -0.011,-0.021c-0.015,-0.043 0.028,-0.039 0.037,-0.072c0.002,-0.012 0.012,-0.016 0.025,-0.012c0.01,0.004 0.029,0.031 0.029,0.042c0,0.004 0.004,0.014 0.007,0.02c0.006,0.011 0.02,0.121 0.025,0.14c0.01,0.032 0.042,0.043 0.072,0.059c0.069,0.039 0.077,0.026 0.093,0.015c0.013,-0.01 0.024,-0.019 0.024,-0.021c-0.002,-0.016 -0.052,-0.061 -0.093,-0.082c-0.042,-0.022 -0.029,-0.095 0.072,-0.087c0.013,0.001 0.026,0.002 0.039,0.003c0.004,-0.006 0.008,-0.011 0.012,-0.017c0.024,-0.041 0.098,-0.068 0.136,-0.007c0.016,0.026 0.042,0.064 0.039,0.091c-0.004,0.013 0.003,0.037 0.009,0.039c0.005,0.002 0.063,0.078 0.067,0.088c0.001,0.005 0.003,0.008 0.006,0.009c0.004,0.001 0.011,0.03 0.011,0.048c0.001,0.053 -0.053,0.001 -0.103,0.003c-0.006,-0.001 -0.011,-0.001 -0.017,-0.002l0,0.022c-0.002,0.028 0.005,0.039 0.036,0.054c0.012,0.005 0.025,0.014 0.027,0.016c0.004,0.003 0.009,0.008 0.015,0.011c0.031,0.011 0.027,0.036 0.027,0.068l0,0.048c0.041,0.03 0.028,0.022 0.032,0.024c0.009,0.012 0.021,0.012 0.026,0.001c0.003,-0.006 0.006,-0.013 0.008,-0.016c0.002,-0.007 0.01,-0.105 0.017,-0.117c0.002,-0.008 0.006,-0.035 0.008,-0.059c0.002,-0.023 0.006,-0.045 0.008,-0.049c0.003,-0.001 0.005,-0.024 0.007,-0.052c0.001,-0.038 0.003,-0.048 0.009,-0.052c0.006,-0.004 0.006,-0.014 0.007,-0.053c-0.001,-0.017 -0.001,-0.032 -0.001,-0.049c-0.006,-0.006 -0.011,-0.012 -0.017,-0.017c-0.041,-0.052 -0.003,-0.043 0.042,-0.046c0.008,-0.001 0.017,-0.002 0.02,-0.003c0.007,-0.007 0.028,-0.013 0.034,-0.012c0.004,0.002 0.009,0.007 0.013,0.012c0.008,0.011 0.01,0.049 0.001,0.061c-0.006,0.007 -0.006,0.058 -0.012,0.074c-0.003,0.009 -0.024,0.181 -0.023,0.182c0,0.079 -0.028,0.155 -0.033,0.202c-0.002,0.015 -0.005,0.032 -0.009,0.037c-0.004,0.007 -0.007,0.014 -0.007,0.018c0,0.01 -0.02,0.038 -0.026,0.036c-0.003,-0.001 -0.007,0.001 -0.009,0.004c-0.002,0.004 -0.009,0.006 -0.015,0.005c-0.008,-0.001 -0.017,-0 -0.024,0.001c-0.013,0.005 -0.051,-0.004 -0.066,-0.015m3.353,0.873c0.024,-0.002 0.032,-0.012 0.022,-0.033c-0.026,-0.058 -0.119,-0.042 -0.064,0.016c0.01,0.009 0.018,0.017 0.018,0.017c0.002,0.002 0.014,0.002 0.024,-0m-0.317,-0.106c0.057,-0.007 -0.04,-0.121 -0.065,-0.093c-0.009,0.009 -0.009,0.009 -0.003,0.028c0.004,0.011 0.007,0.024 0.007,0.026c0,0.007 0.024,0.035 0.033,0.039c0.005,0.001 0.017,0.001 0.028,-0m-0.143,-0.069c-0.002,-0.017 -0.006,-0.025 -0.015,-0.037c-0.014,-0.016 -0.021,-0.018 -0.038,-0.006c-0.012,0.006 -0.013,0.01 -0.013,0.03c-0.001,0.031 0.003,0.038 0.037,0.049c0.023,0.006 0.035,0.016 0.029,-0.036m-0.316,-0.018c0.014,-0.001 0.017,-0.008 0.013,-0.026c-0.005,-0.028 -0.037,-0.046 -0.053,-0.031c-0.004,0.004 -0.008,0.01 -0.008,0.012c0,0.002 -0.002,0.005 -0.006,0.006c-0.004,0.002 -0.003,0.005 -0.001,0.013c0.004,0.004 0.007,0.011 0.009,0.013c0.007,0.008 0.034,0.015 0.046,0.013m0.503,0.221c0.011,-0.005 0.013,-0.017 0.003,-0.029c-0.03,-0.037 -0.097,-0.015 -0.062,0.009c0.014,0.01 0.053,0.023 0.059,0.02m-0.618,-0.031c-0.004,-0.005 -0.003,-0.024 0.003,-0.025c0.003,-0.002 0.01,-0.003 0.015,-0.002c0.006,-0 0.013,-0.001 0.015,-0.002c0.003,-0.003 0.015,-0.002 0.026,-0c0.04,0.008 0.074,-0.012 0.074,-0.041c-0.001,-0.009 -0.001,-0.018 -0.003,-0.019c-0.004,-0.009 -0.072,-0.029 -0.11,-0.034c-0.008,-0 -0.014,-0.004 -0.025,-0.017c-0.004,-0.006 -0.007,-0.012 -0.012,-0.018c-0.001,-0.037 -0.002,-0.075 -0.004,-0.113c0.006,-0.004 0.012,-0.009 0.017,-0.014c0.01,-0.007 0.022,-0.016 0.027,-0.024c0.016,-0.021 0.059,-0.036 0.093,-0.032c0.019,0.002 0.01,-0.009 0.031,-0.005c0.029,0.007 0.046,0.095 0.05,0.126c0.002,0.012 0.005,0.026 0.007,0.029c0.006,0.01 0.054,0.03 0.063,0.027c0.005,-0.002 0.007,-0.012 0.008,-0.038c0.006,-0.086 0.062,-0.134 0.105,-0.132c0.013,-0 0.015,-0.004 0.015,-0.019c0,-0.062 -0.091,-0.068 -0.019,-0.127c0.017,-0.013 0.031,-0.037 0.055,-0.022c0.021,0.016 0.04,0.114 0.043,0.137c0.005,0.035 0.003,0.034 0.045,0.058c0.019,0.01 0.096,0.058 0.096,0.076l0.001,0.006c0.006,0.002 0.027,0.038 0.045,0.077c0.021,0.044 0.02,0.044 0.052,0.055c0.028,0.008 0.031,0.008 0.038,0.002c0.004,-0.004 0.008,-0.013 0.008,-0.019c0,-0.021 0.045,-0.038 0.062,-0.049c0.036,-0.021 0.042,-0.014 0.084,0.018c0.03,0.023 0.038,0.031 0.047,0.047c0.021,0.034 0.063,0.059 0.083,0.05c0.005,-0.003 0.012,-0.003 0.014,-0.003c0.003,-0 0.005,-0 0.005,-0.004c0,-0.008 -0.017,-0.058 -0.022,-0.065c-0.001,-0.004 -0.005,-0.02 -0.007,-0.037c-0.009,-0.059 -0.02,-0.047 -0.024,-0.108c-0.002,-0.034 -0.018,-0.111 -0.018,-0.111c-0.001,-0.063 -0.087,-0.137 -0.112,-0.121c-0.003,0.003 -0.008,0.005 -0.014,0.003c-0.008,-0.002 -0.034,0.009 -0.034,0.016c0,0.002 -0.006,0.002 -0.013,-0c-0.026,-0.009 -0.035,-0.05 -0.057,-0.073c-0.02,-0.026 -0.017,-0.045 -0.005,-0.047c0.016,-0.001 0.003,-0.01 0.025,-0.006c0.009,0.002 0.029,0.004 0.048,0.005c0.044,0.005 0.122,0.031 0.14,0.048c0.008,0.005 0.019,0.014 0.024,0.017c0.018,0.01 0.067,0.075 0.07,0.108c0.012,0.053 0.014,0.004 0.025,0.144c0.002,0.015 0.031,0.149 0.037,0.161c0.004,0.005 0.007,0.012 0.007,0.016c0,0.015 0.042,0.054 0.067,0.062c0.02,0.007 0.05,0.003 0.071,-0.008c0.011,-0.006 0.023,-0.012 0.029,-0.011c0.012,0.001 0.03,0.015 0.034,0.028c0.018,0.035 0.072,0.066 0.056,0.088c-0.003,0.004 -0.008,0.005 -0.012,0.004c-0.087,0.004 -0.389,-0.026 -0.339,-0.019c-0.029,-0.004 -0.031,-0.004 -0.033,0.01c-0.004,0.016 -0.04,0.042 -0.066,0.047c-0.02,0.003 -0.023,0.003 -0.069,-0.014c-0.028,-0.008 -0.053,-0.018 -0.057,-0.02c-0.004,-0.004 -0.01,-0.012 -0.011,-0.018c-0.001,-0.007 -0.007,-0.017 -0.013,-0.024c-0.014,-0.013 -0.028,-0.018 -0.06,-0.019c-0.005,-0.001 -0.01,-0.001 -0.015,-0.002c-0.017,0.108 0.015,0.075 -0.079,0.132c-0.018,0.011 -0.034,0.007 -0.045,-0.008c-0.011,-0.019 -0.03,-0.007 -0.082,-0.062c-0.026,-0.027 -0.033,-0.073 -0.046,-0.089c-0.019,-0.023 -0.102,-0.032 -0.129,-0.039c-0.06,-0.013 -0.039,-0.003 -0.077,-0.009c-0.025,-0.005 -0.032,0.001 -0.032,0.027c0,0.012 -0.002,0.022 -0.005,0.024c-0.003,0.001 -0.007,0.007 -0.009,0.012c-0.003,0.015 -0.036,0.035 -0.059,0.038c-0.01,0.001 -0.026,0.002 -0.034,0.004c-0.011,0.003 -0.023,-0 -0.06,-0.013c-0.024,-0.008 -0.047,-0.018 -0.049,-0.02m-0.315,-0.076l-0.009,-0.009c0.002,-0.003 0.005,-0.005 0.008,-0.008c0.005,-0.004 0.015,-0.007 0.022,-0.007c0.03,-0 0.047,-0.004 0.07,-0.019c0.012,-0.008 0.022,-0.016 0.022,-0.02c0,-0.003 0.005,-0.011 0.011,-0.016c0.01,-0.009 0.011,-0.011 0.01,-0.049c-0.001,-0.04 -0.003,-0.048 -0.017,-0.076c-0.024,-0.046 -0.094,-0.071 -0.069,-0.102c0.03,-0.036 0.048,-0.119 0.084,-0.065c0.027,0.039 0.028,0.067 0.039,0.078c0.024,0.032 0.024,0.058 0.039,0.085c0.006,0.015 0.01,0.027 0.01,0.039c0,0.011 0.003,0.027 0.006,0.036c0.011,0.026 0.007,0.1 -0.004,0.119c-0.005,0.006 -0.009,0.012 -0.012,0.011c-0.001,-0.001 -0.008,0.004 -0.014,0.012c-0.013,0.011 -0.055,0.026 -0.066,0.022c-0.004,-0.001 -0.009,0.001 -0.013,0.004c-0.006,0.006 -0.009,0.006 -0.058,-0.009c-0.041,-0.014 -0.052,-0.018 -0.059,-0.026m-0.364,-0.103c-0.013,-0.019 -0.015,-0.026 -0.015,-0.037c-0.001,-0.014 0.002,-0.018 0.014,-0.027c0.023,-0.015 0.036,-0.012 0.076,0.023c0.037,0.032 0.051,0.039 0.054,0.026c0.003,-0.012 0.025,-0.016 0.047,-0.008c0.013,0.005 0.021,0.009 0.031,0.021c0.012,0.015 0.014,0.017 0.014,0.041c0,0.025 0,0.025 -0.015,0.033c-0.015,0.009 -0.017,0.009 -0.036,-0c-0.023,-0.01 -0.036,-0.025 -0.04,-0.045c-0.004,-0.015 -0.008,-0.02 -0.012,-0.012c-0.001,0.002 -0.007,0.004 -0.013,0.004c-0.01,-0.001 -0.028,0.004 -0.042,0.012c-0.005,0.002 -0.013,0.002 -0.026,-0.003c-0.02,-0.006 -0.023,-0.009 -0.037,-0.028m-0.335,-0.327c0.009,0.001 0.011,-0 0.009,-0.008c-0.002,-0.005 -0.004,-0.018 -0.007,-0.029c-0.004,-0.016 -0.006,-0.02 -0.015,-0.023c-0.008,-0.003 -0.026,0.001 -0.041,0.009c-0.007,0.005 -0.013,0.019 -0.008,0.026c0.008,0.016 0.035,0.027 0.062,0.025m-0.308,0.007c0.008,-0.003 0.008,-0.004 0.008,-0.075l0,-0.072c-0.004,-0.004 -0.008,-0.009 -0.011,-0.013c-0.01,-0.013 -0.014,-0.014 -0.087,-0.043c-0.042,-0.016 -0.083,-0.035 -0.093,-0.04c-0.011,-0.008 -0.02,-0.011 -0.034,-0.014c-0.013,-0.001 -0.029,-0.007 -0.046,-0.016c-0.059,-0.03 -0.099,-0.037 -0.113,-0.018c-0.007,0.008 -0.007,0.01 -0.001,0.022c0.009,0.018 0.028,0.024 0.045,0.036c0.012,0.007 0.037,0.018 0.063,0.026c0.024,0.009 0.064,0.025 0.089,0.035c0.026,0.01 0.06,0.025 0.078,0.031c0.023,0.009 0.036,0.015 0.044,0.023l0.011,0.012c-0.001,0.012 -0.001,0.023 -0.002,0.036c-0.003,0.033 -0.003,0.036 0.006,0.047c0.011,0.013 0.024,0.025 0.03,0.027c0.002,-0 0.008,-0.001 0.013,-0.004m-0.034,0.112c0,-0.002 -0.009,-0.011 -0.022,-0.021c-0.024,-0.019 -0.045,-0.043 -0.056,-0.065c-0.008,-0.016 -0.019,-0.052 -0.019,-0.068c0,-0.007 -0.002,-0.01 -0.01,-0.015c-0.026,-0.016 -0.095,-0.047 -0.146,-0.069c-0.134,-0.052 -0.245,-0.112 -0.268,-0.098c-0.007,0.005 -0.021,0.032 -0.03,0.042c-0.009,0.008 -0.016,0.017 -0.015,0.019c-0.001,0.002 -0.002,0.003 -0.004,0.002c-0.003,-0.001 -0.008,0.001 -0.012,0.004c-0.009,0.005 -0.03,0.012 -0.042,0.013c-0.004,0.001 -0.012,0.002 -0.017,0.004c-0.015,0.003 -0.115,-0.033 -0.131,-0.046c-0.024,-0.022 -0.06,-0.018 -0.047,-0.043c0.005,-0.011 0.018,-0.009 0.069,0.008c0.029,0.009 0.036,0.01 0.054,0.007c0.02,-0.003 0.054,-0.016 0.057,-0.021c0.001,-0.002 0.004,-0.005 0.009,-0.006c0.004,-0.003 0.008,-0.01 0.008,-0.016c0.01,-0.046 0.031,-0.013 0.004,-0.1c-0.015,-0.049 -0.021,-0.062 -0.038,-0.082c-0.036,-0.043 -0.008,-0.036 0.036,-0.081c0.019,-0.022 0.034,-0.016 0.051,0.019c0.015,0.034 0.035,0.088 0.035,0.096c0,0.002 0.003,0.012 0.006,0.019c0.003,0.007 0.007,0.021 0.011,0.031c0.006,0.02 0.01,0.023 0.042,0.037c0.035,0.017 0.036,0.016 0.038,-0.03c0.002,-0.017 0.004,-0.033 0.007,-0.034c0.002,-0.001 0.004,-0.005 0.004,-0.01c-0.001,-0.009 -0.02,-0.071 -0.025,-0.077c-0.007,-0.01 -0.004,-0.029 0.006,-0.041c0.014,-0.021 0.074,-0.026 0.096,-0.001c0.023,0.026 0.002,0.066 0.025,0.092c0.006,0.008 0.015,0.015 0.021,0.017c0.049,0.034 0.013,0.017 0.101,0.049c0.124,0.046 0.17,0.069 0.179,0.072c0.023,0.007 0.122,0.043 0.141,0.067c0.004,0.005 0.008,0.01 0.012,0.015l0,0.051c0.002,0.06 0.006,0.068 0.031,0.077c0.022,0.008 0.029,0.004 0.031,-0.022c0.001,-0.012 0.004,-0.023 0.007,-0.024c0.002,-0.002 0.007,-0.009 0.011,-0.014c0.006,-0.014 0.034,-0.033 0.047,-0.032c0.005,0.001 0.012,-0.001 0.016,-0.003c0.011,-0.009 0.073,0.008 0.088,-0.002c0.008,-0.005 0.04,0.001 0.053,0.02c0.01,0.014 0.011,0.022 0.015,0.077c0.002,0.023 0.005,0.045 0.008,0.052c0.002,0.007 0.006,0.034 0.007,0.062l0.001,0.05c-0.004,0.004 -0.008,0.009 -0.012,0.013c-0.004,0.003 -0.009,0.007 -0.013,0.011c-0.043,-0.015 -0.085,-0.03 -0.128,-0.044c-0.072,-0.025 -0.135,-0.045 -0.143,-0.046c-0.015,-0.002 -0.019,0.004 -0.019,0.033c0.001,0.01 -0.002,0.016 -0.008,0.017c-0.002,0.004 -0.007,0.009 -0.008,0.015c-0.002,0.008 -0.03,0.018 -0.045,0.019c-0.006,-0 -0.014,-0 -0.017,0.001c-0.01,0.005 -0.038,0.007 -0.046,0.005c-0.003,-0.001 -0.006,-0.003 -0.006,-0.005" style="fill:#d7a327;"/><path d="M24.689,21.058c1.734,-0.721 1.586,-2.732 1.586,-2.731c-0.334,-0.046 -1.356,-0.655 -1.569,-1.008c-0.228,0.169 -1.268,0.083 -1.6,-0.105c-0,0.002 -0.151,1.9 1.583,3.844" style="fill:#fff;"/><path d="M23.267,17.439c0.008,1.021 0.46,2.293 1.422,3.408c0.918,-0.414 1.415,-1.343 1.424,-2.408c-0.294,-0.079 -1.107,-0.555 -1.413,-0.912c-0.319,0.115 -1.137,0.035 -1.433,-0.088m1.422,3.471c-0.102,-0.148 -0.971,-1.048 -1.329,-2.467c-0.16,-0.636 -0.137,-1.027 -0.14,-1.077c0.282,0.142 1.155,0.231 1.466,0.105c0.005,-0.002 0.01,-0.004 0.016,-0.006c0.004,0.007 0.01,0.013 0.015,0.02c0.288,0.35 1.089,0.811 1.41,0.911c0.011,0.003 0.022,0.006 0.034,0.01l0,0.024c0.007,1.074 -0.5,2.049 -1.457,2.473c-0.005,0.002 -0.01,0.005 -0.015,0.007" style="fill:#d7a327;fill-rule:nonzero;"/><path d="M23.134,17.26c-0.008,0.263 -0.003,1.998 1.555,3.76c1.56,-0.663 1.567,-2.402 1.558,-2.667c-0.318,-0.058 -1.286,-0.627 -1.543,-0.99c-0.273,0.156 -1.252,0.059 -1.57,-0.103m1.555,3.837c-0.006,-0.007 -0.012,-0.014 -0.018,-0.021c-1.142,-1.282 -1.665,-2.851 -1.592,-3.908c0.048,0.026 0.082,0.049 0.162,0.077c0.366,0.126 1.235,0.2 1.442,0.044c0.008,-0.006 0.017,-0.011 0.025,-0.017c0.008,0.011 0.015,0.023 0.022,0.036c0.204,0.337 1.213,0.94 1.539,0.986c0.012,0.002 0.024,0.004 0.034,0.006c0.073,1.121 -0.464,2.319 -1.595,2.79c-0.006,0.002 -0.012,0.005 -0.019,0.007" style="fill:#d7a327;fill-rule:nonzero;"/><path d="M26.136,18.421c-0.367,-0.113 -1.146,-0.575 -1.435,-0.925c-0.327,0.131 -1.244,0.023 -1.457,-0.094c-0.002,0.074 0.002,0.152 0.008,0.223c0.065,1.036 0.536,2.216 1.437,3.254c0.946,-0.42 1.454,-1.38 1.447,-2.458" style="fill:#fff;"/></g></svg>