<?xml version="1.0" encoding="UTF-8" standalone="no"?><!DOCTYPE svg PUBLIC "-//W3C//DTD SVG 1.1//EN" "http://www.w3.org/Graphics/SVG/1.1/DTD/svg11.dtd"><svg width="100%" height="100%" viewBox="0 0 50 44" version="1.1" xmlns="http://www.w3.org/2000/svg" xmlns:xlink="http://www.w3.org/1999/xlink" xml:space="preserve" xmlns:serif="http://www.serif.com/" style="fill-rule:evenodd;clip-rule:evenodd;stroke-linejoin:round;stroke-miterlimit:2;"><g><path d="M0.267,6.092c16.346,-17.328 32.692,11.538 49.038,-5.79l0,32.775c-16.346,17.328 -32.692,-11.537 -49.038,5.791l0,-32.776Z" style="fill:#ee2a27;fill-rule:nonzero;"/><path d="M49.428,0.048c-0.092,0.099 -0.183,0.195 -0.274,0.29c-16.265,16.959 -32.531,-11.536 -48.795,5.534c-0.072,0.074 -0.143,0.151 -0.215,0.228l0,33.021c0.092,-0.097 0.182,-0.194 0.274,-0.289c16.265,-16.959 32.531,11.535 48.795,-5.534c0.071,-0.075 0.143,-0.15 0.215,-0.228l0,-33.022Zm-0.244,0.505l0,32.53c-16.266,17.015 -32.53,-11.48 -48.796,5.534l0,-32.53c16.266,-17.015 32.53,11.48 48.796,-5.534" style="fill:#d2d4d6;fill-rule:nonzero;"/><path d="M10.295,9.299c0.955,-0.829 1.911,-1.565 2.867,-2.226c-1.181,-0.042 -2.363,0.031 -3.545,0.253c-0.365,-1.055 -0.73,-2.096 -1.095,-3.122c-0.366,1.222 -0.731,2.459 -1.096,3.713c-1.182,0.42 -2.363,1.011 -3.545,1.808c0.956,0.05 1.912,0.234 2.868,0.536c-0.365,1.274 -0.729,2.565 -1.095,3.874c0.956,-1.18 1.912,-2.235 2.868,-3.188c0.956,0.438 1.912,0.981 2.869,1.609c-0.366,-1.099 -0.731,-2.185 -1.096,-3.257" style="fill:#f3ea0d;fill-rule:nonzero;"/><path d="M17.123,4.629c0.384,-0.006 0.768,-0.004 1.151,0.005c-0.362,-0.246 -0.724,-0.485 -1.087,-0.718c0.035,-0.386 0.069,-0.77 0.103,-1.155c-0.258,0.24 -0.517,0.484 -0.774,0.731c-0.364,-0.223 -0.726,-0.439 -1.089,-0.647c0.203,0.367 0.406,0.737 0.608,1.11c-0.259,0.252 -0.517,0.509 -0.776,0.77c0.385,-0.034 0.768,-0.059 1.152,-0.075c0.203,0.375 0.405,0.753 0.608,1.134c0.035,-0.385 0.069,-0.77 0.104,-1.155" style="fill:#f3ea0d;fill-rule:nonzero;"/><path d="M20.18,8.837c0.388,0.185 0.776,0.374 1.164,0.567c-0.274,-0.371 -0.548,-0.741 -0.822,-1.108c0.183,-0.292 0.368,-0.582 0.552,-0.871c-0.354,0.059 -0.707,0.123 -1.062,0.191c-0.273,-0.365 -0.548,-0.727 -0.821,-1.087c0.055,0.406 0.111,0.812 0.167,1.217c-0.355,0.073 -0.708,0.152 -1.062,0.236c0.388,0.166 0.777,0.337 1.164,0.516c0.056,0.406 0.113,0.813 0.168,1.219c0.184,-0.295 0.368,-0.588 0.552,-0.88" style="fill:#f3ea0d;fill-rule:nonzero;"/><path d="M20.504,13.427c0.311,-0.147 0.621,-0.291 0.932,-0.433c-0.395,-0.114 -0.787,-0.224 -1.181,-0.33c-0.136,-0.411 -0.271,-0.822 -0.406,-1.232c-0.108,0.347 -0.217,0.694 -0.324,1.041c-0.395,-0.099 -0.788,-0.192 -1.181,-0.278c0.326,0.303 0.653,0.612 0.979,0.924c-0.107,0.348 -0.215,0.697 -0.324,1.045c0.311,-0.158 0.62,-0.311 0.931,-0.463c0.326,0.318 0.653,0.639 0.979,0.962c-0.134,-0.413 -0.269,-0.825 -0.405,-1.236" style="fill:#f3ea0d;fill-rule:nonzero;"/><path d="M17.139,15.999c0.38,-0.022 0.76,-0.037 1.14,-0.045c-0.369,-0.232 -0.738,-0.458 -1.107,-0.677l0.056,-1.169c-0.246,0.254 -0.493,0.511 -0.739,0.772c-0.369,-0.21 -0.737,-0.411 -1.106,-0.604c0.217,0.361 0.434,0.725 0.65,1.091c-0.247,0.265 -0.493,0.533 -0.738,0.807c0.379,-0.051 0.76,-0.092 1.139,-0.124c0.217,0.37 0.434,0.743 0.649,1.118l0.056,-1.169Z" style="fill:#f3ea0d;fill-rule:nonzero;"/><path d="M19.007,43.425c-0,0.115 -0.069,0.206 -0.196,0.206c-0.106,0 -0.182,-0.091 -0.182,-0.206c-0,-0.113 0.081,-0.207 0.19,-0.207c0.115,0 0.188,0.091 0.188,0.207" style="fill:#6c6e70;fill-rule:nonzero;"/></g></svg>