<?xml version="1.0" encoding="UTF-8" standalone="no"?>
<!DOCTYPE svg PUBLIC "-//W3C//DTD SVG 1.1//EN" "http://www.w3.org/Graphics/SVG/1.1/DTD/svg11.dtd">
<svg width="100%" height="100%" viewBox="0 0 433 385" version="1.1" xmlns="http://www.w3.org/2000/svg" xmlns:xlink="http://www.w3.org/1999/xlink" xml:space="preserve" xmlns:serif="http://www.serif.com/" style="fill-rule:evenodd;clip-rule:evenodd;stroke-miterlimit:10;">
    <g transform="matrix(1,0,0,1,-722,-1839)">
        <g transform="matrix(1,0,0,1,0,-712.392)">
            <g transform="matrix(297.805,-297.805,-297.805,-297.805,766.766,2919.13)">
                <path d="M0.58,0.575C0.562,0.594 0.544,0.595 0.528,0.579C0.521,0.572 0.434,0.488 0.332,0.391C0.191,0.257 0.032,0.105 0.017,0.09C-0.011,0.062 -0.004,0.026 0.035,-0.014L0.617,-0.595C0.62,-0.598 0.622,-0.599 0.623,-0.599C0.624,-0.6 0.625,-0.599 0.625,-0.599C0.626,-0.598 0.626,-0.592 0.622,-0.587L0.04,-0.006C0.012,0.022 0.006,0.054 0.025,0.072C0.039,0.087 0.068,0.078 0.094,0.052L0.478,-0.332C0.5,-0.327 0.52,-0.319 0.541,-0.312C0.483,-0.265 0.436,-0.204 0.425,-0.129C0.418,-0.073 0.428,-0.047 0.486,-0.034C0.488,-0.018 0.495,-0.004 0.508,0.007C0.545,0.039 0.591,0.01 0.624,-0.014C0.636,-0.023 0.65,-0.033 0.663,-0.044C0.664,-0.044 0.664,-0.044 0.664,-0.044C0.666,-0.044 0.667,-0.046 0.666,-0.047C0.673,-0.053 0.68,-0.06 0.685,-0.067C0.697,-0.083 0.694,-0.101 0.704,-0.119C0.704,-0.12 0.705,-0.121 0.706,-0.123C0.718,-0.12 0.731,-0.12 0.743,-0.118C0.76,-0.114 0.772,-0.105 0.783,-0.092C0.783,-0.092 0.783,-0.092 0.783,-0.092C0.787,-0.074 0.79,-0.057 0.797,-0.045C0.813,-0.018 0.836,0.005 0.864,0.02C0.887,0.031 0.905,0.033 0.925,0.052C0.951,0.075 0.941,0.09 0.952,0.117C0.961,0.139 0.978,0.151 1,0.155L0.58,0.575Z" style="fill:url(#_Linear1);fill-rule:nonzero;"/>
            </g>
            <g transform="matrix(4.16667,0,0,4.16667,1127.89,2879.36)">
                <path d="M0,6.098C-0.077,6.09 -0.154,6.077 -0.233,6.077L-83.414,6.077C-86.784,6.077 -89.047,4.67 -89.047,2.576C-89.047,1.163 -86.753,0.099 -83.711,0.099L-2.757,0.099C-1.808,0.099 -1.001,0.097 -0.341,0C-1.406,1.72 -0.848,4.287 0,6.098" style="fill:rgb(230,231,232);fill-rule:nonzero;"/>
            </g>
            <g transform="matrix(4.16667,0,0,4.16667,1016.18,2794.97)">
                <path d="M0,-11.091C-1.67,-11.351 -2.359,-12.075 -3.796,-12.668C-5.522,-13.38 -7.527,-13.614 -9.563,-13.576C-9.599,-13.539 -9.635,-13.502 -9.672,-13.465C-7.086,-13.681 -4.203,-12.905 -2.122,-11.367C-0.616,-10.254 1.099,-7.882 0.22,-5.857C-0.666,-3.818 -3.976,-3.102 -5.874,-2.974C-8.775,-2.778 -12.037,-3.41 -14.483,-5.022C-14.551,-5.067 -14.561,-5.126 -14.55,-5.182C-14.563,-5.189 -14.576,-5.196 -14.589,-5.202C-14.677,-4.902 -14.766,-4.6 -14.856,-4.298C-14.952,-3.981 -15.42,-4.113 -15.35,-4.434C-14.539,-8.133 -12.755,-10.933 -10.214,-13.549C-12.147,-13.458 -14.084,-13.146 -15.815,-12.754C-18.598,-12.124 -22.036,-11.326 -23.111,-8.172C-23.773,-6.229 -23.251,-4.49 -22.25,-3.001C-22.114,-2.988 -22.004,-2.872 -22.06,-2.726C-21.161,-1.489 -19.945,-0.437 -18.834,0.401C-18.808,0.421 -18.805,0.449 -18.79,0.473C-11.438,2.59 -4.816,0.121 2.2,-1.98C2.438,-2.051 2.582,-1.846 2.562,-1.657C4.577,-5.091 8.216,-7.442 12.106,-8.309C8.198,-11.07 4.474,-10.394 0,-11.091" style="fill:rgb(255,216,125);fill-rule:nonzero;"/>
            </g>
            <g transform="matrix(4.16667,0,0,4.16667,955.625,2754.61)">
                <path d="M0,4.288C0.058,4.317 0.115,4.348 0.171,4.38C0.187,4.382 0.199,4.375 0.215,4.382C3.802,5.91 10.122,7.614 13.339,4.371C15.802,1.889 12.624,-0.968 10.4,-2.026C8.566,-2.899 6.56,-3.239 4.544,-3.278C4.492,-3.279 4.463,-3.305 4.429,-3.326C3.452,-2.286 2.513,-1.174 1.756,-0.007C0.893,1.323 0.437,2.795 0,4.288" style="fill:rgb(253,206,174);fill-rule:nonzero;"/>
            </g>
            <g transform="matrix(4.16667,0,0,4.16667,1047.87,2698.06)">
                <path d="M0,-21.397C4.164,-19.41 9.052,-19.041 13.735,-19.29C12.922,-15.731 12.212,-11.989 13.372,-8.431C13.827,-7.034 14.497,-5.814 15.056,-4.511C15.042,-4.505 15.027,-4.513 15.013,-4.504C11.901,-2.469 8.461,0 4.622,-2.027C1.476,-3.687 0.328,-6.962 -0.518,-10.169C-0.153,-11.072 0.214,-12.015 0.487,-13.041C1.242,-15.875 1.006,-18.719 0,-21.397" style="fill:rgb(253,206,174);fill-rule:nonzero;"/>
            </g>
            <g transform="matrix(4.16667,0,0,4.16667,1107.73,2685.13)">
                <path d="M0,8.669C-0.05,8.596 -0.127,8.539 -0.243,8.563C-1.442,8.804 -2.612,9.077 -3.832,9.21C-4.457,9.278 -6.089,9.611 -6.766,9.149C-5.654,7.051 -5.616,4.657 -6.651,2.515C-3.885,2.475 -1.291,0.803 0.886,-0.942C1.086,-0.438 1.266,0.083 1.404,0.634C2.155,3.639 1.361,6.181 0,8.669" style="fill:rgb(253,206,174);fill-rule:nonzero;"/>
            </g>
            <g transform="matrix(4.16667,0,0,4.16667,1044.89,2726.01)">
                <path d="M0,-16.391C0.545,-12.816 2.309,-9.132 5.865,-7.754C6.555,-7.487 7.239,-7.346 7.914,-7.305C8.875,-5.361 8.875,-3.196 7.962,-1.277C7.947,-1.28 7.933,-1.286 7.916,-1.283C7.21,-1.154 6.555,-0.737 5.863,-0.527C5.305,-0.357 4.727,-0.224 4.187,0C3.095,-2.85 1.289,-5.484 -0.267,-8.358C-1.945,-11.461 -1.056,-13.787 0,-16.391" style="fill:rgb(138,93,59);fill-rule:nonzero;"/>
            </g>
            <g transform="matrix(4.16667,0,0,4.16667,1071.17,2779.13)">
                <path d="M0,-12.835C0.457,-12.992 0.954,-13.168 1.354,-13.458C1.333,-13.423 1.319,-13.387 1.298,-13.352C1.1,-13.028 1.591,-12.734 1.802,-13.028C2.233,-12.718 2.921,-12.758 3.457,-12.763C5.164,-12.78 6.927,-12.984 8.559,-13.503C8.214,-12.9 7.839,-12.299 7.448,-11.694C7.388,-11.602 7.398,-11.516 7.44,-11.45C6.277,-9.933 5.527,-8.144 5.825,-6.167C5.98,-5.136 6.453,-4.349 7.047,-3.507C8.061,-2.07 8.38,-0.599 8.098,0.668C6.315,-0.459 4.732,-1.855 3.011,-3.067C2.999,-3.076 2.986,-3.069 2.973,-3.074C2.876,-3.614 2.711,-4.166 2.454,-4.731C2.409,-4.827 2.285,-4.886 2.183,-4.886C1.414,-4.884 0.64,-4.814 -0.13,-4.692C-0.528,-5 -0.927,-5.26 -1.326,-5.495C-0.893,-7.979 -1.22,-10.165 -1.938,-12.229C-1.287,-12.398 -0.631,-12.617 0,-12.835" style="fill:rgb(153,109,144);fill-rule:nonzero;"/>
            </g>
            <g transform="matrix(4.16667,0,0,4.16667,1083.75,2819.33)">
                <path d="M0,-5.536C-0.352,-5.519 -0.339,-5.034 0,-4.998C0.025,-4.995 0.049,-4.999 0.074,-4.997C0.061,-4.435 0.427,-4.055 0.827,-3.551C1.461,-2.75 2.056,-1.899 3.073,-1.597C4.657,-1.125 7.244,-1.29 8.413,-2.566C8.435,-2.591 8.432,-2.62 8.443,-2.647C8.652,-2.385 9.009,-2.186 9.264,-2.076C9.836,-1.83 10.462,-1.758 11.076,-1.703C11.096,-1.701 11.109,-1.708 11.127,-1.709C11.167,0.631 11.202,2.767 11.231,4.618C11.17,4.555 11.079,4.517 10.958,4.529C10.013,4.63 9.215,4.228 8.359,3.896C7.934,3.731 7.392,3.513 6.909,3.558C6.849,3.51 6.775,3.497 6.7,3.517C3.979,0.249 -0.371,-1.432 -4.6,-1.056C-5.749,-0.953 -7.018,-0.933 -7.294,0.338C-7.401,0.832 -6.863,1.752 -6.706,2.134C-6.123,3.553 -5.548,4.991 -4.819,6.34C-4.747,6.474 -4.615,6.516 -4.49,6.497C-4.525,6.527 -4.557,6.562 -4.592,6.592C-4.637,6.564 -4.673,6.526 -4.737,6.517C-7.136,6.212 -9.324,6.238 -11.535,5.094C-11.543,5.089 -11.552,5.09 -11.56,5.086C-11.345,2.58 -12.333,-0.159 -13.017,-2.765C-7.669,-2.32 0.487,-6.366 0.031,-12.128C1.58,-10.812 3.145,-9.424 4.898,-8.397C4.268,-6.811 2.587,-5.66 0,-5.536" style="fill:rgb(255,216,125);fill-rule:nonzero;"/>
            </g>
            <g transform="matrix(4.16667,0,0,4.16667,1107.31,2818.77)">
                <path d="M0,10.007C-1.289,9.912 -2.335,10.163 -3.538,9.439C-4.015,9.151 -4.423,8.76 -4.939,8.672C-4.627,8.164 -4.397,7.611 -4.321,7.018C-4.274,6.657 -4.217,6.328 -4.475,6.047C-4.745,5.751 -5.264,5.885 -5.502,5.573C-5.506,5.564 -5.513,5.558 -5.519,5.549C-5.531,5.53 -5.546,5.518 -5.557,5.496C-5.614,5.378 -5.763,5.365 -5.869,5.423C-7.292,5.161 -8.73,5.576 -9.857,6.413C-9.835,6.354 -9.826,6.288 -9.85,6.214C-10.269,4.891 -11.422,3.279 -11.563,1.935C-11.682,1.651 -11.802,1.367 -11.921,1.083C-11.37,0.309 -10.685,-0.07 -9.868,-0.054C-9.271,-0.156 -8.525,-0.088 -7.935,-0.042C-4.618,0.217 -1.723,1.751 0.747,3.91C0.705,3.98 0.696,4.072 0.78,4.111C0.817,4.127 0.856,4.129 0.894,4.143C0.985,5.664 0.947,7.14 0.531,8.63C0.398,9.106 0.227,9.568 0.035,10.021C0.022,10.018 0.014,10.008 0,10.007" style="fill:rgb(253,206,174);fill-rule:nonzero;"/>
            </g>
            <g transform="matrix(4.16667,0,0,4.16667,1082.35,2866.36)">
                <path d="M0,-5.563C0.028,-5.419 0.127,-5.337 0.316,-5.168C0.826,-4.713 1.088,-5.14 1.009,-4.176C0.97,-3.692 0.631,-3.168 0.354,-2.779C-0.883,-1.038 -3.561,0.349 -5.634,-0.682C-5.485,-3.713 -3.018,-5.912 0,-5.563" style="fill:rgb(247,172,188);fill-rule:nonzero;"/>
            </g>
            <g transform="matrix(4.16667,0,0,4.16667,1110.92,2852.1)">
                <path d="M0,1.919C0.675,0.115 0.898,-1.832 0.556,-3.724C0.658,-3.706 0.759,-3.691 0.863,-3.664C1.359,-3.534 1.816,-3.292 2.28,-3.081C2.987,-2.76 3.648,-2.487 4.437,-2.56C4.564,-2.571 4.657,-2.632 4.719,-2.714C4.777,0.907 4.812,3.339 4.812,3.884C4.812,5.577 4.416,5.643 1.315,5.643L-2.156,5.643C-1.172,4.932 -0.292,2.7 0,1.919" style="fill:rgb(180,121,166);fill-rule:nonzero;"/>
            </g>
            <g transform="matrix(4.16667,0,0,4.16667,1068.82,2804.44)">
                <path d="M0,-10.207C0.207,-10.069 0.449,-10.17 0.554,-10.336C1.161,-10.455 1.712,-10.489 2.062,-10.33C3.716,-9.577 3.264,-6.925 2.635,-5.664C0.415,-1.212 -5.269,-0.596 -9.565,0.282C-9.833,-0.809 -10.029,-1.872 -10.034,-2.877C-8.341,-5.826 -5.847,-7.992 -2.687,-9.264C-2.135,-9.485 -1.041,-9.933 0,-10.207" style="fill:rgb(253,206,174);fill-rule:nonzero;"/>
            </g>
            <g transform="matrix(4.16667,0,0,4.16667,936.787,2839.53)">
                <path d="M0,-9.921C0.08,-9.874 0.146,-9.89 0.202,-9.924C7.329,-7.348 14.533,-9.751 21.412,-12.1C21.451,-12.113 21.481,-12.134 21.508,-12.155C21.393,-11.95 21.275,-11.745 21.172,-11.532C21.126,-11.439 21.146,-11.356 21.187,-11.284C21.107,-6.795 23.42,-2.728 22.728,1.79C22.713,1.791 22.702,1.786 22.687,1.788C22.019,1.892 21.347,1.979 20.674,2.058C20.591,1.99 20.477,1.977 20.413,2.089C13.529,2.861 6.416,2.229 0.454,-1.619C-1.198,-2.686 -2.826,-3.994 -4.054,-5.55C-5.953,-7.955 -4.919,-10.249 -3.381,-12.782C-2.476,-11.637 -1.28,-10.679 0,-9.921" style="fill:rgb(180,121,166);fill-rule:nonzero;"/>
            </g>
            <g transform="matrix(4.16667,0,0,4.16667,1031.15,2869.8)">
                <path d="M0,-4.852C0.013,-4.623 0.329,-4.471 0.451,-4.719C0.694,-5.212 0.854,-5.723 0.958,-6.246C2.847,-5.154 5.255,-4.818 7.43,-4.89C6.656,-3.941 6.205,-2.739 6.308,-1.45C6.199,-1.331 6.179,-1.135 6.362,-1.038C8.399,0.053 10.904,-0.941 12.452,-2.456C12.674,-2.674 12.876,-2.915 13.065,-3.167C14.473,-2.313 16.319,-0.944 18.015,-1.586C17.967,-1.492 17.931,-1.392 17.88,-1.298C17.666,-0.903 16.28,0.693 16.612,0.971C16.314,0.722 15.888,1.028 16.071,1.388C16.072,1.39 16.073,1.392 16.074,1.394L-4.626,1.394C-3.449,-0.416 -2.443,-2.498 -1.98,-4.592C-1.318,-4.667 -0.657,-4.752 0,-4.852" style="fill:rgb(153,109,144);fill-rule:nonzero;"/>
            </g>
            <g transform="matrix(4.16667,0,0,4.16667,1125.66,2796.82)">
                <path d="M0,-49.883C0.017,-49.493 0.035,-49.081 0.061,-48.651C0.176,-46.685 0.742,-15.77 1.059,3.014C1.045,3.012 1.035,3.004 1.02,3.003C0.524,2.976 0.02,2.936 -0.453,2.773C-0.673,2.697 -0.879,2.588 -1.065,2.448C-1.244,2.313 -1.336,2.17 -1.55,2.097C-1.672,2.054 -1.772,2.163 -1.782,2.274C-1.785,2.308 -1.778,2.34 -1.775,2.373C-1.836,2.356 -1.904,2.363 -1.974,2.409C-3.089,3.144 -4.173,3.336 -5.489,3.331C-6.413,3.327 -6.994,3.321 -7.869,2.642C-8.35,2.269 -9.386,1.135 -9.545,0.414C-6.801,0.481 -4.386,-1.266 -3.958,-4.122C-3.801,-5.16 -3.945,-5.979 -4.452,-6.895C-4.837,-7.59 -5.543,-8.094 -5.935,-8.78C-7.293,-11.154 -6.387,-13.419 -5.341,-15.583C-5.284,-15.596 -5.229,-15.626 -5.187,-15.682C-3.063,-18.476 -1.298,-21.917 -1.808,-25.548C-2.046,-27.245 -2.986,-28.557 -3.682,-30.081C-5.687,-34.469 -5.279,-38.421 -4.394,-43.023C-3.988,-43.049 -3.584,-43.077 -3.183,-43.111C-2.776,-43.144 -2.763,-43.752 -3.183,-43.754C-10.939,-43.784 -17.07,-44.017 -23.42,-48.931C-23.573,-49.049 -23.777,-48.862 -23.638,-48.713C-22.297,-47.269 -20.771,-46.162 -19.124,-45.318C-18.317,-42.512 -17.967,-39.82 -18.76,-36.904C-19.307,-34.89 -20.518,-33.272 -21.155,-31.325C-21.723,-29.591 -21.739,-28.498 -21.108,-26.764C-18.908,-20.721 -14.307,-17.031 -14.79,-9.968C-18.485,-11.955 -22.223,-11.233 -26.291,-12.163C-24.773,-14.466 -22.522,-16.603 -23.224,-19.534C-21.633,-17.154 -20.106,-14.722 -20.81,-12.615C-20.898,-12.35 -20.478,-12.167 -20.354,-12.423C-19.662,-13.86 -19.313,-15.011 -20.112,-16.545C-21.051,-18.349 -23.049,-19.529 -24.072,-21.383C-25.644,-24.23 -26.109,-27.69 -25.704,-30.868C-25.259,-34.354 -22.12,-37.488 -22.276,-40.93C-22.491,-45.662 -28.569,-47.708 -25.124,-53.219L-1.004,-53.219C-0.22,-53.219 -0.105,-52.304 0,-49.883" style="fill:rgb(168,123,80);fill-rule:nonzero;"/>
            </g>
            <g transform="matrix(4.16667,0,0,4.16667,867.335,2767.3)">
                <path d="M0,-2.83C1.574,-4.195 3.16,-4.529 4.98,-3.661C4.883,-3.521 4.875,-3.307 5.056,-3.226C5.953,-2.831 7.583,-2.102 6.946,-0.88C6.444,0.081 4.951,0.639 4.011,0.969C2.82,1.386 1.552,1.649 0.289,1.676C-0.796,1.699 -1.533,1.411 -2.467,1.026C-2.084,-0.473 -1.165,-1.819 0,-2.83" style="fill:rgb(247,172,188);fill-rule:nonzero;"/>
            </g>
            <g transform="matrix(4.16667,0,0,4.16667,911.775,2855.98)">
                <path d="M0,-3.951C0.022,-3.998 0.013,-4.041 0.007,-4.083C0.8,-5.009 1.885,-5.477 3.093,-5.043C4.114,-4.675 4.385,-3.889 4.801,-2.978C4.991,-2.561 5.173,-2.193 5.549,-1.919C5.799,-1.735 6.12,-1.735 6.372,-1.572C7.211,-1.032 7.181,0.043 6.542,0.682C5.698,1.526 3.645,1.351 2.565,1.113C0.614,0.686 -0.848,-2.152 0,-3.951" style="fill:rgb(247,172,188);fill-rule:nonzero;"/>
            </g>
            <g transform="matrix(4.16667,0,0,4.16667,769.47,2754.11)">
                <path d="M0,0.654C0.748,0.527 1.502,0.459 2.238,0.265C3.608,-0.095 4.675,-0.799 5.447,-1.929C5.489,-1.92 5.535,-1.923 5.58,-1.95C7.119,-2.864 6.896,0.666 6.601,1.157C6.116,1.964 5.222,2.471 4.359,2.781C2.879,3.31 0.201,3.518 -0.912,2.099C-1.741,1.041 -0.938,0.811 0,0.654" style="fill:rgb(247,172,188);fill-rule:nonzero;"/>
            </g>
            <g transform="matrix(4.16667,0,0,4.16667,815.935,2763.88)">
                <path d="M0,-4.084C0.068,-4.136 0.244,-4.059 0.323,-4.103C0.52,-4.211 0.69,-4.262 0.773,-4.39C3.031,-4.226 4.499,-2.401 4.321,-0.153C2.729,0.306 0.996,-0.934 0.266,-2.292C0.078,-2.643 -0.079,-3.031 -0.109,-3.431C-0.124,-3.626 -0.192,-3.937 0,-4.084" style="fill:rgb(247,172,188);fill-rule:nonzero;"/>
            </g>
            <g transform="matrix(4.16667,0,0,4.16667,809.493,2653.71)">
                <path d="M0,-12.78C0.04,-12.84 0.14,-12.835 0.3,-12.765C0.459,-12.695 0.62,-12.588 0.78,-12.442C0.939,-12.298 1.072,-12.13 1.177,-11.94C1.282,-11.75 1.305,-11.57 1.245,-11.4C0.815,-10.87 0.39,-10.3 -0.03,-9.69C-0.45,-9.08 -0.853,-8.45 -1.238,-7.801C-1.623,-7.15 -1.988,-6.485 -2.333,-5.805C-2.678,-5.125 -2.995,-4.455 -3.285,-3.795C-2.985,-3.724 -2.67,-3.695 -2.34,-3.705C-1.8,-3.705 -1.23,-3.787 -0.63,-3.952C-0.03,-4.117 0.562,-4.351 1.147,-4.656C1.732,-4.961 2.29,-5.325 2.82,-5.75C3.35,-6.174 3.815,-6.643 4.215,-7.157C4.615,-7.672 4.937,-8.22 5.182,-8.804C5.427,-9.388 5.555,-9.996 5.565,-10.625C5.565,-10.914 5.535,-11.231 5.475,-11.575C5.415,-11.92 5.255,-12.239 4.995,-12.534C4.735,-12.829 4.345,-13.071 3.825,-13.26C3.305,-13.45 2.595,-13.54 1.695,-13.53C1.185,-13.52 0.667,-13.41 0.142,-13.2C-0.383,-12.99 -0.9,-12.71 -1.41,-12.36C-1.92,-12.009 -2.415,-11.605 -2.895,-11.145C-3.375,-10.685 -3.825,-10.197 -4.245,-9.682C-4.665,-9.168 -5.05,-8.642 -5.4,-8.107C-5.75,-7.572 -6.045,-7.055 -6.285,-6.555C-6.525,-6.054 -6.708,-5.59 -6.833,-5.16C-6.958,-4.73 -7.01,-4.36 -6.99,-4.051C-6.98,-3.86 -7.05,-3.788 -7.2,-3.833C-7.35,-3.878 -7.51,-3.998 -7.68,-4.192C-7.851,-4.387 -7.99,-4.635 -8.1,-4.935C-8.21,-5.235 -8.22,-5.545 -8.13,-5.865C-7.851,-6.875 -7.405,-7.862 -6.795,-8.828C-6.186,-9.793 -5.45,-10.658 -4.59,-11.423C-3.73,-12.187 -2.771,-12.812 -1.71,-13.298C-0.65,-13.783 0.47,-14.055 1.65,-14.115C2.649,-14.245 3.495,-14.227 4.185,-14.062C4.875,-13.897 5.435,-13.64 5.865,-13.29C6.294,-12.94 6.602,-12.527 6.787,-12.052C6.972,-11.578 7.065,-11.09 7.065,-10.59C7.065,-9.82 6.912,-9.097 6.607,-8.423C6.302,-7.748 5.9,-7.128 5.4,-6.562C4.899,-5.998 4.325,-5.498 3.675,-5.062C3.024,-4.628 2.355,-4.262 1.665,-3.967C0.975,-3.673 0.29,-3.453 -0.39,-3.307C-1.07,-3.163 -1.695,-3.1 -2.265,-3.12C-2.715,-3.131 -3.12,-3.192 -3.48,-3.304C-3.86,-2.391 -4.17,-1.535 -4.41,-0.735C-4.65,0.065 -4.81,0.775 -4.89,1.395C-4.9,1.465 -4.95,1.455 -5.04,1.365C-5.13,1.275 -5.228,1.155 -5.333,1.005C-5.437,0.855 -5.53,0.699 -5.61,0.54C-5.69,0.38 -5.72,0.265 -5.7,0.195C-5.68,-0.345 -5.578,-0.965 -5.393,-1.665C-5.208,-2.365 -4.965,-3.115 -4.665,-3.915C-5.175,-4.335 -5.47,-4.86 -5.55,-5.49C-5.601,-5.679 -5.475,-5.84 -5.175,-5.97C-4.985,-5.32 -4.74,-4.82 -4.44,-4.47C-4.14,-5.22 -3.805,-5.977 -3.435,-6.743C-3.065,-7.508 -2.685,-8.255 -2.295,-8.985C-1.905,-9.715 -1.513,-10.402 -1.118,-11.048C-0.723,-11.692 -0.351,-12.27 0,-12.78" style="fill:rgb(145,38,143);fill-rule:nonzero;"/>
            </g>
            <g transform="matrix(4.16667,0,0,4.16667,862.18,2617.68)">
                <path d="M0,-1.497C-0.04,-1.507 -0.067,-1.55 -0.083,-1.624C-0.098,-1.699 -0.11,-1.784 -0.12,-1.879C-0.13,-1.975 -0.133,-2.077 -0.127,-2.186C-0.123,-2.297 -0.12,-2.392 -0.12,-2.472C-0.11,-2.561 -0.07,-2.652 0,-2.742C0.07,-2.832 0.147,-2.912 0.232,-2.981C0.317,-3.052 0.4,-3.109 0.48,-3.154C0.56,-3.199 0.615,-3.231 0.645,-3.252C0.765,-3.311 0.885,-3.342 1.005,-3.342C0.985,-3.481 0.92,-3.601 0.81,-3.702C0.7,-3.802 0.5,-3.842 0.21,-3.822C-0.03,-3.802 -0.3,-3.714 -0.6,-3.56C-0.9,-3.404 -1.175,-3.207 -1.425,-2.967C-1.695,-2.686 -1.937,-2.369 -2.152,-2.015C-2.368,-1.659 -2.545,-1.297 -2.685,-0.927C-2.825,-0.557 -2.917,-0.194 -2.962,0.16C-3.007,0.516 -2.998,0.836 -2.933,1.121C-2.868,1.405 -2.74,1.638 -2.55,1.818C-2.36,1.998 -2.1,2.099 -1.77,2.118C-1.38,2.139 -0.993,2.003 -0.607,1.713C-0.223,1.423 0.123,1.059 0.427,0.618C0.732,0.178 0.978,-0.294 1.163,-0.8C1.347,-1.305 1.435,-1.767 1.425,-2.186C1.425,-2.396 1.355,-2.517 1.215,-2.547C1.105,-2.566 0.982,-2.542 0.848,-2.472C0.712,-2.401 0.585,-2.311 0.465,-2.202C0.345,-2.092 0.24,-1.972 0.15,-1.842C0.06,-1.712 0.01,-1.597 0,-1.497M0.255,-4.512C0.495,-4.481 0.697,-4.422 0.862,-4.332C1.027,-4.242 1.16,-4.132 1.26,-4.002C1.36,-3.872 1.433,-3.726 1.478,-3.566C1.522,-3.407 1.55,-3.247 1.56,-3.087C1.74,-2.867 1.855,-2.577 1.905,-2.217C1.975,-1.656 1.913,-1.064 1.717,-0.439C1.522,0.186 1.237,0.758 0.862,1.278C0.487,1.798 0.05,2.226 -0.45,2.561C-0.95,2.896 -1.465,3.064 -1.995,3.064C-2.565,3.054 -3.07,2.876 -3.51,2.53C-3.95,2.186 -4.245,1.658 -4.395,0.948C-4.485,0.568 -4.493,0.163 -4.417,-0.267C-4.342,-0.696 -4.205,-1.122 -4.005,-1.542C-3.805,-1.962 -3.553,-2.361 -3.248,-2.742C-2.942,-3.122 -2.603,-3.452 -2.228,-3.731C-1.853,-4.012 -1.455,-4.225 -1.035,-4.369C-0.615,-4.515 -0.185,-4.561 0.255,-4.512" style="fill:rgb(145,38,143);fill-rule:nonzero;"/>
            </g>
            <g transform="matrix(4.16667,0,0,4.16667,879.18,2611.15)">
                <path d="M0,1.765C-0.01,1.786 -0.015,1.805 -0.015,1.825C0.795,1.595 1.525,1.228 2.175,0.722C2.825,0.217 3.35,-0.415 3.75,-1.175C3.89,-1.465 3.925,-1.713 3.855,-1.918C3.785,-2.123 3.61,-2.2 3.33,-2.15C2.91,-2.07 2.515,-1.881 2.145,-1.58C1.775,-1.28 1.445,-0.935 1.155,-0.546C0.865,-0.155 0.62,0.247 0.42,0.662C0.22,1.078 0.08,1.445 0,1.765M4.11,-0.875C3.66,-0.065 3.07,0.608 2.34,1.142C1.61,1.677 0.805,2.065 -0.075,2.305C-0.085,2.475 -0.075,2.645 -0.045,2.815C-0.015,2.985 0.035,3.145 0.105,3.295C0.175,3.445 0.27,3.575 0.39,3.685C0.51,3.795 0.66,3.87 0.84,3.91C1.06,3.96 1.312,3.953 1.597,3.887C1.882,3.823 2.182,3.693 2.498,3.497C2.813,3.302 3.135,3.045 3.465,2.725C3.795,2.405 4.12,2.015 4.44,1.555C4.6,1.325 4.745,1.1 4.875,0.88C5.005,0.661 5.125,0.45 5.235,0.25C5.275,0.2 5.322,0.172 5.377,0.167C5.432,0.162 5.482,0.175 5.527,0.204C5.572,0.235 5.604,0.275 5.625,0.325C5.645,0.375 5.635,0.435 5.595,0.505C5.455,0.725 5.305,0.965 5.145,1.225C4.985,1.485 4.807,1.757 4.612,2.042C4.417,2.327 4.202,2.613 3.967,2.898C3.732,3.182 3.47,3.455 3.18,3.715C2.89,3.975 2.61,4.172 2.34,4.307C2.07,4.443 1.815,4.537 1.575,4.592C1.335,4.647 1.12,4.677 0.93,4.682C0.74,4.687 0.585,4.69 0.465,4.69C-0.215,4.69 -0.745,4.51 -1.125,4.15C-1.505,3.789 -1.71,3.3 -1.74,2.68C-1.76,2.11 -1.658,1.542 -1.433,0.977C-1.208,0.412 -0.845,-0.2 -0.345,-0.86C-0.186,-1.07 0.03,-1.298 0.3,-1.543C0.57,-1.788 0.87,-2.015 1.2,-2.225C1.53,-2.435 1.88,-2.605 2.25,-2.735C2.62,-2.865 2.99,-2.925 3.36,-2.915C3.6,-2.915 3.807,-2.86 3.982,-2.75C4.157,-2.64 4.285,-2.493 4.365,-2.307C4.445,-2.123 4.467,-1.908 4.432,-1.663C4.397,-1.418 4.29,-1.155 4.11,-0.875" style="fill:rgb(145,38,143);fill-rule:nonzero;"/>
            </g>
            <g transform="matrix(4.16667,0,0,4.16667,943.898,2607.39)">
                <path d="M0,3.53C-0.235,3.855 -0.498,4.168 -0.788,4.467C-1.078,4.767 -1.38,5.025 -1.695,5.24C-2.01,5.455 -2.323,5.562 -2.632,5.562C-2.803,5.562 -2.97,5.533 -3.135,5.472C-3.3,5.413 -3.442,5.323 -3.563,5.203C-3.683,5.083 -3.778,4.927 -3.848,4.738C-3.917,4.548 -3.948,4.323 -3.938,4.062C-3.928,3.802 -3.893,3.545 -3.833,3.29C-3.772,3.035 -3.695,2.765 -3.6,2.48C-3.505,2.195 -3.388,1.885 -3.248,1.551C-3.107,1.216 -2.953,0.842 -2.783,0.432C-2.673,0.173 -2.587,-0.065 -2.527,-0.28C-2.468,-0.494 -2.458,-0.653 -2.498,-0.752C-2.538,-0.852 -2.64,-0.869 -2.805,-0.805C-2.97,-0.74 -3.228,-0.558 -3.578,-0.257C-3.968,0.083 -4.312,0.41 -4.613,0.725C-4.913,1.04 -5.208,1.387 -5.498,1.767C-5.578,1.938 -5.653,2.11 -5.723,2.285C-5.792,2.46 -5.863,2.642 -5.933,2.833C-6.073,3.253 -6.193,3.68 -6.292,4.115C-6.393,4.551 -6.458,4.998 -6.488,5.458C-6.488,5.528 -6.542,5.548 -6.652,5.517C-6.763,5.488 -6.885,5.435 -7.02,5.36C-7.155,5.285 -7.278,5.198 -7.388,5.097C-7.498,4.998 -7.558,4.908 -7.567,4.828C-7.538,4.107 -7.413,3.395 -7.192,2.69C-6.973,1.985 -6.718,1.272 -6.428,0.552C-6.277,0.163 -6.172,-0.159 -6.113,-0.415C-6.053,-0.67 -6.083,-0.813 -6.203,-0.842C-6.283,-0.852 -6.403,-0.815 -6.562,-0.73C-6.723,-0.645 -6.937,-0.488 -7.208,-0.257C-7.598,0.092 -7.942,0.427 -8.243,0.748C-8.542,1.068 -8.853,1.423 -9.172,1.812C-9.423,2.392 -9.633,2.98 -9.803,3.575C-9.973,4.171 -10.083,4.798 -10.132,5.458C-10.132,5.528 -10.188,5.548 -10.297,5.517C-10.408,5.488 -10.53,5.435 -10.665,5.36C-10.8,5.285 -10.923,5.198 -11.033,5.097C-11.143,4.998 -11.203,4.908 -11.212,4.828C-11.183,4.238 -11.09,3.66 -10.935,3.095C-10.78,2.53 -10.603,1.966 -10.402,1.4C-10.203,0.836 -9.993,0.273 -9.772,-0.287C-9.553,-0.847 -9.358,-1.412 -9.188,-1.983C-9.088,-2.032 -8.955,-2.025 -8.79,-1.96C-8.625,-1.895 -8.468,-1.797 -8.317,-1.667C-8.167,-1.537 -8.047,-1.387 -7.958,-1.217C-7.868,-1.047 -7.848,-0.882 -7.897,-0.722C-7.928,-0.613 -7.968,-0.507 -8.018,-0.408C-8.068,-0.307 -8.123,-0.202 -8.183,-0.092C-7.973,-0.323 -7.748,-0.547 -7.507,-0.768C-7.268,-0.988 -7.022,-1.185 -6.772,-1.36C-6.523,-1.534 -6.268,-1.677 -6.007,-1.787C-5.748,-1.898 -5.482,-1.962 -5.212,-1.983C-5.103,-1.983 -4.985,-1.94 -4.86,-1.855C-4.735,-1.77 -4.625,-1.665 -4.53,-1.54C-4.435,-1.414 -4.363,-1.282 -4.312,-1.143C-4.263,-1.002 -4.258,-0.877 -4.297,-0.768C-4.348,-0.637 -4.402,-0.512 -4.462,-0.393C-4.522,-0.273 -4.583,-0.148 -4.643,-0.018C-4.433,-0.257 -4.208,-0.492 -3.968,-0.722C-3.728,-0.952 -3.478,-1.157 -3.218,-1.337C-2.958,-1.518 -2.69,-1.665 -2.415,-1.78C-2.14,-1.895 -1.863,-1.962 -1.583,-1.983C-1.483,-1.983 -1.37,-1.94 -1.245,-1.855C-1.12,-1.77 -1.01,-1.665 -0.915,-1.54C-0.82,-1.414 -0.748,-1.282 -0.698,-1.143C-0.647,-1.002 -0.647,-0.877 -0.698,-0.768C-0.948,-0.087 -1.175,0.485 -1.38,0.95C-1.585,1.415 -1.768,1.83 -1.928,2.195C-2.087,2.56 -2.218,2.91 -2.317,3.245C-2.417,3.58 -2.482,3.958 -2.513,4.378C-2.513,4.408 -2.508,4.443 -2.498,4.482C-2.488,4.522 -2.465,4.557 -2.43,4.588C-2.395,4.618 -2.345,4.633 -2.28,4.633C-2.215,4.633 -2.128,4.608 -2.018,4.557C-1.708,4.418 -1.353,4.173 -0.953,3.823C-0.553,3.472 -0.158,3.008 0.232,2.427C0.382,2.208 0.52,1.99 0.645,1.775C0.77,1.56 0.887,1.352 0.998,1.153C1.037,1.102 1.085,1.075 1.14,1.07C1.195,1.065 1.245,1.078 1.29,1.107C1.335,1.137 1.367,1.177 1.387,1.227C1.407,1.278 1.397,1.338 1.357,1.408L0.562,2.713C0.422,2.932 0.235,3.205 0,3.53" style="fill:rgb(145,38,143);fill-rule:nonzero;"/>
            </g>
            <g transform="matrix(4.16667,0,0,4.16667,972.304,2621.76)">
                <path d="M0,-3.407C0,-3.337 -0.025,-3.282 -0.075,-3.242C-0.125,-3.202 -0.178,-3.179 -0.232,-3.175C-0.288,-3.17 -0.335,-3.187 -0.375,-3.227C-0.415,-3.267 -0.435,-3.327 -0.435,-3.407C-0.455,-3.507 -0.473,-3.635 -0.487,-3.79C-0.502,-3.944 -0.538,-4.094 -0.592,-4.24C-0.647,-4.385 -0.735,-4.511 -0.855,-4.622C-0.975,-4.732 -1.15,-4.792 -1.38,-4.803C-1.66,-4.812 -1.933,-4.758 -2.198,-4.637C-2.462,-4.517 -2.715,-4.352 -2.955,-4.142C-3.195,-3.932 -3.42,-3.689 -3.63,-3.415C-3.84,-3.139 -4.03,-2.854 -4.2,-2.559C-4.37,-2.264 -4.518,-1.97 -4.643,-1.675C-4.768,-1.38 -4.865,-1.107 -4.935,-0.857C-4.985,-0.687 -5.025,-0.482 -5.055,-0.242C-5.085,-0.002 -5.075,0.221 -5.025,0.425C-4.975,0.63 -4.87,0.788 -4.71,0.898C-4.55,1.008 -4.3,1.023 -3.96,0.943C-3.8,0.903 -3.605,0.788 -3.375,0.598C-3.145,0.408 -2.913,0.186 -2.678,-0.07C-2.443,-0.325 -2.22,-0.592 -2.01,-0.872C-1.8,-1.152 -1.63,-1.397 -1.5,-1.607C-1.39,-1.897 -1.297,-2.178 -1.223,-2.447C-1.147,-2.718 -1.1,-2.952 -1.08,-3.152C-0.98,-3.202 -0.845,-3.192 -0.675,-3.122C-0.505,-3.053 -0.345,-2.952 -0.195,-2.822C-0.045,-2.692 0.075,-2.542 0.165,-2.372C0.255,-2.202 0.275,-2.037 0.225,-1.877C0.165,-1.727 0.092,-1.547 0.007,-1.337C-0.078,-1.127 -0.163,-0.912 -0.248,-0.692C-0.333,-0.472 -0.413,-0.255 -0.487,-0.04C-0.562,0.176 -0.613,0.37 -0.638,0.545C-0.663,0.721 -0.663,0.863 -0.638,0.973C-0.613,1.083 -0.545,1.143 -0.435,1.153L-0.255,1.153C0.085,1.053 0.402,0.873 0.697,0.613C0.992,0.353 1.268,0.058 1.522,-0.272C1.777,-0.602 2.012,-0.947 2.228,-1.307C2.442,-1.667 2.64,-1.997 2.82,-2.297C2.85,-2.347 2.895,-2.375 2.955,-2.38C3.015,-2.385 3.067,-2.372 3.112,-2.343C3.158,-2.312 3.19,-2.272 3.21,-2.222C3.23,-2.172 3.22,-2.112 3.18,-2.042C2.98,-1.732 2.785,-1.417 2.595,-1.097C2.405,-0.777 2.205,-0.468 1.995,-0.167C1.785,0.133 1.562,0.423 1.328,0.703C1.092,0.983 0.835,1.238 0.555,1.468C0.485,1.528 0.397,1.598 0.292,1.678C0.187,1.758 0.067,1.833 -0.067,1.903C-0.203,1.973 -0.348,2.03 -0.502,2.075C-0.658,2.12 -0.825,2.138 -1.005,2.128C-1.285,2.108 -1.513,2.038 -1.687,1.918C-1.863,1.798 -1.995,1.643 -2.085,1.453C-2.175,1.263 -2.223,1.048 -2.228,0.808C-2.233,0.568 -2.2,0.322 -2.13,0.072C-2.33,0.322 -2.542,0.568 -2.768,0.808C-2.993,1.048 -3.225,1.263 -3.465,1.453C-3.705,1.643 -3.95,1.795 -4.2,1.91C-4.45,2.026 -4.695,2.073 -4.935,2.053C-5.365,2.033 -5.698,1.931 -5.933,1.745C-6.167,1.561 -6.34,1.343 -6.45,1.093C-6.56,0.843 -6.623,0.583 -6.638,0.313C-6.652,0.043 -6.645,-0.182 -6.615,-0.362C-6.565,-0.712 -6.455,-1.097 -6.285,-1.517C-6.115,-1.937 -5.895,-2.354 -5.625,-2.769C-5.355,-3.184 -5.042,-3.58 -4.687,-3.955C-4.333,-4.33 -3.953,-4.644 -3.547,-4.899C-3.143,-5.155 -2.72,-5.335 -2.28,-5.439C-1.84,-5.545 -1.39,-5.537 -0.93,-5.417C-0.73,-5.357 -0.568,-5.26 -0.442,-5.125C-0.317,-4.99 -0.22,-4.83 -0.15,-4.644C-0.08,-4.46 -0.035,-4.26 -0.015,-4.045C0.005,-3.83 0.01,-3.617 0,-3.407" style="fill:rgb(145,38,143);fill-rule:nonzero;"/>
            </g>
            <g transform="matrix(4.16667,0,0,4.16667,991.741,2621.21)">
                <path d="M0,-4.025C-0.3,-3.665 -0.595,-3.254 -0.885,-2.796C-1.175,-2.335 -1.445,-1.905 -1.695,-1.505C-1.625,-1.505 -1.555,-1.495 -1.485,-1.475C-1.416,-1.455 -1.34,-1.43 -1.26,-1.4C-1.23,-1.36 -1.183,-1.28 -1.118,-1.16C-1.053,-1.04 -0.99,-0.913 -0.93,-0.778C-0.87,-0.642 -0.823,-0.517 -0.788,-0.403C-0.753,-0.288 -0.75,-0.215 -0.78,-0.185C-0.9,-0.285 -1.045,-0.347 -1.215,-0.373C-1.385,-0.397 -1.553,-0.39 -1.718,-0.35C-1.883,-0.31 -2.04,-0.248 -2.19,-0.163C-2.34,-0.078 -2.46,0.03 -2.55,0.16C-2.64,0.29 -2.69,0.437 -2.7,0.602C-2.71,0.767 -2.655,0.94 -2.535,1.12C-2.415,1.32 -2.258,1.467 -2.063,1.562C-1.868,1.658 -1.675,1.71 -1.485,1.72C-1.275,1.74 -1.095,1.712 -0.945,1.637C-0.795,1.562 -0.67,1.455 -0.57,1.315C-0.47,1.175 -0.397,1.012 -0.353,0.828C-0.308,0.642 -0.285,0.45 -0.285,0.249C-0.285,-0.06 -0.308,-0.385 -0.353,-0.725C-0.397,-1.065 -0.425,-1.415 -0.435,-1.775C-0.445,-2.135 -0.425,-2.503 -0.375,-2.878C-0.325,-3.253 -0.2,-3.635 0,-4.025M-3.36,0.505C-3.36,0.155 -3.272,-0.187 -3.098,-0.523C-2.923,-0.858 -2.705,-1.115 -2.445,-1.296C-2.125,-1.805 -1.803,-2.312 -1.478,-2.818C-1.153,-3.323 -0.795,-3.83 -0.405,-4.34C-0.285,-4.51 -0.17,-4.675 -0.06,-4.836C0.05,-4.995 0.165,-5.158 0.285,-5.323C0.405,-5.488 0.545,-5.655 0.705,-5.825C0.865,-5.995 1.06,-6.18 1.29,-6.38C1.4,-6.33 1.535,-6.26 1.695,-6.171C1.854,-6.08 2,-5.98 2.13,-5.87C2.26,-5.76 2.352,-5.653 2.407,-5.547C2.462,-5.443 2.439,-5.35 2.34,-5.27C2.22,-5.16 2.127,-5.07 2.063,-5.001C1.997,-4.93 1.94,-4.863 1.89,-4.797C1.84,-4.732 1.79,-4.66 1.74,-4.58C1.689,-4.5 1.62,-4.395 1.53,-4.265C1.32,-3.945 1.172,-3.613 1.087,-3.267C1.002,-2.922 0.957,-2.57 0.952,-2.211C0.947,-1.85 0.96,-1.488 0.99,-1.123C1.02,-0.757 1.044,-0.395 1.065,-0.035C1.075,0.325 1.025,0.655 0.915,0.954C0.805,1.255 0.642,1.51 0.427,1.72C0.212,1.93 -0.043,2.09 -0.338,2.2C-0.633,2.31 -0.95,2.355 -1.29,2.335C-1.65,2.305 -1.96,2.238 -2.22,2.132C-2.48,2.028 -2.695,1.892 -2.865,1.727C-3.035,1.562 -3.16,1.374 -3.24,1.164C-3.32,0.954 -3.36,0.735 -3.36,0.505" style="fill:rgb(145,38,143);fill-rule:nonzero;"/>
            </g>
            <g transform="matrix(4.16667,0,0,4.16667,912.288,2662.75)">
                <path d="M0,-2.043C0,-2.001 -0.015,-1.968 -0.045,-1.944C-0.075,-1.92 -0.106,-1.906 -0.139,-1.903C-0.172,-1.9 -0.201,-1.911 -0.225,-1.936C-0.249,-1.959 -0.261,-1.995 -0.261,-2.043C-0.273,-2.104 -0.283,-2.18 -0.292,-2.272C-0.301,-2.365 -0.322,-2.456 -0.355,-2.543C-0.388,-2.63 -0.441,-2.706 -0.513,-2.772C-0.585,-2.838 -0.69,-2.874 -0.828,-2.88C-0.996,-2.886 -1.159,-2.854 -1.318,-2.781C-1.478,-2.709 -1.629,-2.61 -1.773,-2.484C-1.917,-2.358 -2.052,-2.213 -2.178,-2.048C-2.304,-1.883 -2.418,-1.712 -2.52,-1.535C-2.622,-1.357 -2.71,-1.181 -2.785,-1.004C-2.86,-0.827 -2.919,-0.663 -2.961,-0.514C-2.991,-0.411 -3.015,-0.288 -3.033,-0.145C-3.051,0 -3.045,0.134 -3.015,0.256C-2.985,0.379 -2.922,0.474 -2.826,0.54C-2.73,0.605 -2.58,0.615 -2.376,0.566C-2.28,0.543 -2.163,0.474 -2.025,0.359C-1.887,0.246 -1.748,0.112 -1.606,-0.041C-1.465,-0.193 -1.332,-0.355 -1.206,-0.522C-1.08,-0.69 -0.978,-0.837 -0.9,-0.963C-0.834,-1.137 -0.778,-1.306 -0.733,-1.467C-0.688,-1.629 -0.66,-1.771 -0.648,-1.891C-0.588,-1.92 -0.507,-1.914 -0.405,-1.872C-0.303,-1.83 -0.207,-1.771 -0.117,-1.692C-0.027,-1.614 0.045,-1.524 0.099,-1.422C0.153,-1.32 0.165,-1.221 0.135,-1.125C0.099,-1.035 0.056,-0.927 0.005,-0.801C-0.046,-0.675 -0.097,-0.546 -0.148,-0.414C-0.199,-0.282 -0.248,-0.151 -0.292,-0.022C-0.337,0.106 -0.367,0.224 -0.382,0.328C-0.397,0.434 -0.397,0.519 -0.382,0.585C-0.367,0.65 -0.327,0.686 -0.261,0.692L-0.153,0.692C0.051,0.633 0.242,0.524 0.418,0.369C0.596,0.213 0.761,0.036 0.914,-0.162C1.067,-0.36 1.208,-0.567 1.337,-0.783C1.466,-0.999 1.584,-1.197 1.692,-1.377C1.71,-1.407 1.737,-1.424 1.773,-1.427C1.809,-1.43 1.841,-1.422 1.868,-1.404C1.895,-1.387 1.914,-1.362 1.926,-1.332C1.938,-1.302 1.932,-1.267 1.908,-1.225C1.788,-1.038 1.671,-0.85 1.557,-0.657C1.443,-0.465 1.323,-0.279 1.197,-0.1C1.071,0.081 0.937,0.255 0.797,0.423C0.656,0.591 0.501,0.744 0.333,0.882C0.291,0.918 0.239,0.96 0.176,1.008C0.113,1.056 0.041,1.101 -0.041,1.143C-0.121,1.185 -0.208,1.22 -0.301,1.246C-0.395,1.273 -0.495,1.283 -0.603,1.277C-0.771,1.266 -0.907,1.224 -1.012,1.151C-1.117,1.08 -1.197,0.986 -1.251,0.873C-1.305,0.759 -1.333,0.63 -1.336,0.485C-1.339,0.342 -1.32,0.194 -1.278,0.045C-1.398,0.194 -1.525,0.342 -1.66,0.485C-1.795,0.63 -1.935,0.759 -2.079,0.873C-2.223,0.986 -2.37,1.078 -2.52,1.147C-2.67,1.217 -2.817,1.245 -2.961,1.232C-3.219,1.221 -3.418,1.159 -3.559,1.048C-3.7,0.937 -3.804,0.807 -3.87,0.657C-3.936,0.507 -3.973,0.351 -3.982,0.188C-3.991,0.026 -3.987,-0.108 -3.969,-0.216C-3.939,-0.426 -3.873,-0.657 -3.771,-0.909C-3.669,-1.161 -3.537,-1.412 -3.375,-1.661C-3.213,-1.909 -3.025,-2.147 -2.813,-2.372C-2.6,-2.597 -2.371,-2.786 -2.128,-2.939C-1.885,-3.092 -1.632,-3.2 -1.368,-3.263C-1.104,-3.326 -0.834,-3.321 -0.558,-3.249C-0.438,-3.213 -0.34,-3.154 -0.265,-3.074C-0.19,-2.993 -0.132,-2.897 -0.09,-2.786C-0.048,-2.675 -0.021,-2.555 -0.009,-2.426C0.003,-2.297 0.006,-2.169 0,-2.043" style="fill:rgb(145,38,143);fill-rule:nonzero;"/>
            </g>
            <g transform="matrix(4.16667,0,0,4.16667,953.444,2654.14)">
                <path d="M0,2.117C-0.141,2.312 -0.298,2.5 -0.472,2.679C-0.646,2.86 -0.828,3.014 -1.017,3.143C-1.206,3.272 -1.394,3.337 -1.579,3.337C-1.682,3.337 -1.782,3.319 -1.881,3.283C-1.98,3.247 -2.065,3.193 -2.137,3.121C-2.209,3.049 -2.267,2.956 -2.308,2.842C-2.351,2.728 -2.368,2.593 -2.362,2.437C-2.356,2.281 -2.335,2.127 -2.299,1.973C-2.263,1.82 -2.217,1.658 -2.16,1.487C-2.103,1.316 -2.032,1.131 -1.948,0.93C-1.864,0.728 -1.771,0.505 -1.669,0.259C-1.604,0.103 -1.552,-0.039 -1.516,-0.168C-1.48,-0.297 -1.475,-0.392 -1.499,-0.452C-1.522,-0.512 -1.584,-0.523 -1.683,-0.484C-1.782,-0.445 -1.937,-0.335 -2.146,-0.155C-2.38,0.049 -2.587,0.246 -2.768,0.434C-2.947,0.624 -3.125,0.832 -3.298,1.06C-3.346,1.162 -3.392,1.265 -3.433,1.371C-3.476,1.475 -3.518,1.585 -3.56,1.699C-3.644,1.951 -3.715,2.208 -3.775,2.469C-3.835,2.729 -3.875,2.998 -3.893,3.274C-3.893,3.316 -3.925,3.328 -3.991,3.31C-4.058,3.292 -4.131,3.261 -4.212,3.216C-4.293,3.171 -4.366,3.118 -4.432,3.058C-4.499,2.998 -4.535,2.944 -4.541,2.896C-4.522,2.464 -4.447,2.037 -4.315,1.613C-4.184,1.19 -4.03,0.763 -3.856,0.331C-3.766,0.096 -3.703,-0.097 -3.667,-0.249C-3.631,-0.403 -3.649,-0.488 -3.721,-0.506C-3.77,-0.512 -3.841,-0.489 -3.938,-0.439C-4.033,-0.388 -4.162,-0.293 -4.324,-0.155C-4.558,0.055 -4.765,0.256 -4.945,0.448C-5.125,0.64 -5.312,0.853 -5.503,1.087C-5.653,1.435 -5.779,1.788 -5.881,2.144C-5.983,2.502 -6.049,2.878 -6.079,3.274C-6.079,3.316 -6.112,3.328 -6.178,3.31C-6.245,3.292 -6.318,3.261 -6.399,3.216C-6.48,3.171 -6.553,3.118 -6.619,3.058C-6.685,2.998 -6.721,2.944 -6.728,2.896C-6.709,2.542 -6.654,2.195 -6.561,1.856C-6.468,1.517 -6.361,1.179 -6.241,0.84C-6.122,0.501 -5.996,0.163 -5.863,-0.173C-5.731,-0.509 -5.614,-0.848 -5.512,-1.19C-5.453,-1.22 -5.373,-1.215 -5.274,-1.177C-5.175,-1.138 -5.081,-1.079 -4.99,-1.001C-4.9,-0.923 -4.828,-0.833 -4.774,-0.731C-4.72,-0.629 -4.708,-0.529 -4.738,-0.434C-4.756,-0.368 -4.78,-0.305 -4.811,-0.245C-4.84,-0.185 -4.874,-0.122 -4.909,-0.056C-4.783,-0.194 -4.648,-0.329 -4.504,-0.461C-4.36,-0.593 -4.213,-0.711 -4.063,-0.817C-3.914,-0.921 -3.76,-1.007 -3.604,-1.073C-3.448,-1.139 -3.29,-1.178 -3.127,-1.19C-3.062,-1.19 -2.991,-1.164 -2.916,-1.113C-2.841,-1.063 -2.775,-0.999 -2.718,-0.925C-2.661,-0.85 -2.618,-0.77 -2.587,-0.686C-2.558,-0.602 -2.554,-0.527 -2.578,-0.461C-2.608,-0.383 -2.641,-0.308 -2.677,-0.237C-2.713,-0.164 -2.75,-0.089 -2.785,-0.011C-2.659,-0.155 -2.524,-0.296 -2.38,-0.434C-2.236,-0.572 -2.086,-0.696 -1.93,-0.803C-1.774,-0.911 -1.614,-0.999 -1.449,-1.069C-1.284,-1.138 -1.117,-1.178 -0.949,-1.19C-0.89,-1.19 -0.822,-1.164 -0.747,-1.113C-0.672,-1.063 -0.606,-0.999 -0.549,-0.925C-0.492,-0.85 -0.448,-0.77 -0.418,-0.686C-0.388,-0.602 -0.388,-0.527 -0.418,-0.461C-0.568,-0.053 -0.705,0.291 -0.828,0.569C-0.951,0.848 -1.061,1.097 -1.156,1.316C-1.252,1.536 -1.331,1.746 -1.39,1.946C-1.45,2.147 -1.489,2.374 -1.507,2.626C-1.507,2.644 -1.504,2.665 -1.499,2.689C-1.493,2.713 -1.479,2.734 -1.458,2.752C-1.437,2.77 -1.407,2.779 -1.368,2.779C-1.329,2.779 -1.276,2.764 -1.21,2.734C-1.024,2.65 -0.812,2.503 -0.571,2.293C-0.332,2.083 -0.094,1.804 0.14,1.456C0.229,1.324 0.312,1.193 0.387,1.064C0.462,0.935 0.533,0.811 0.599,0.691C0.623,0.661 0.651,0.644 0.684,0.641C0.717,0.638 0.747,0.646 0.774,0.664C0.801,0.681 0.821,0.706 0.833,0.736C0.845,0.766 0.838,0.802 0.814,0.844L0.338,1.627C0.253,1.759 0.141,1.923 0,2.117" style="fill:rgb(145,38,143);fill-rule:nonzero;"/>
            </g>
            <g transform="matrix(4.16667,0,0,4.16667,962.988,2668.05)">
                <path d="M0,-7.014C0.054,-7.02 0.126,-6.99 0.216,-6.924C0.306,-6.858 0.395,-6.78 0.481,-6.69C0.568,-6.6 0.642,-6.508 0.702,-6.415C0.762,-6.323 0.792,-6.258 0.792,-6.222C0.762,-6.108 0.718,-5.993 0.662,-5.875C0.604,-5.758 0.544,-5.638 0.481,-5.516C0.418,-5.393 0.357,-5.271 0.297,-5.151C0.237,-5.031 0.192,-4.911 0.162,-4.791C0.114,-4.797 0.062,-4.824 0.004,-4.872C-0.053,-4.92 -0.105,-4.976 -0.153,-5.038C-0.201,-5.102 -0.242,-5.164 -0.274,-5.228C-0.308,-5.29 -0.324,-5.346 -0.324,-5.394C-0.318,-5.496 -0.3,-5.613 -0.27,-5.745C-0.24,-5.877 -0.206,-6.015 -0.167,-6.16C-0.127,-6.303 -0.092,-6.449 -0.059,-6.596C-0.025,-6.743 -0.006,-6.882 0,-7.014M-0.864,-4.53C-0.804,-4.56 -0.725,-4.555 -0.625,-4.517C-0.526,-4.478 -0.437,-4.419 -0.355,-4.341C-0.274,-4.263 -0.211,-4.173 -0.167,-4.071C-0.122,-3.969 -0.12,-3.869 -0.162,-3.774C-0.198,-3.69 -0.271,-3.555 -0.382,-3.369C-0.494,-3.183 -0.614,-2.971 -0.743,-2.735C-0.872,-2.497 -1.002,-2.253 -1.134,-2.001C-1.266,-1.749 -1.373,-1.518 -1.454,-1.308C-1.535,-1.098 -1.583,-0.925 -1.598,-0.79C-1.613,-0.656 -1.566,-0.585 -1.458,-0.579L-1.359,-0.579C-1.143,-0.639 -0.942,-0.743 -0.756,-0.89C-0.57,-1.036 -0.395,-1.203 -0.229,-1.389C-0.064,-1.575 0.091,-1.77 0.238,-1.974C0.385,-2.178 0.522,-2.37 0.648,-2.55C0.672,-2.58 0.702,-2.596 0.738,-2.6C0.774,-2.603 0.804,-2.596 0.828,-2.581C0.852,-2.567 0.867,-2.542 0.873,-2.509C0.879,-2.477 0.864,-2.439 0.828,-2.397C0.576,-2.007 0.318,-1.646 0.054,-1.313C-0.21,-0.98 -0.525,-0.672 -0.891,-0.39C-0.939,-0.354 -0.996,-0.312 -1.062,-0.264C-1.128,-0.216 -1.203,-0.172 -1.287,-0.133C-1.371,-0.094 -1.462,-0.062 -1.562,-0.035C-1.661,-0.007 -1.761,0.006 -1.863,0.006C-1.989,0 -2.091,-0.035 -2.169,-0.102C-2.247,-0.168 -2.304,-0.255 -2.34,-0.363C-2.376,-0.471 -2.391,-0.594 -2.385,-0.732C-2.379,-0.87 -2.352,-1.017 -2.304,-1.173C-2.244,-1.389 -2.151,-1.644 -2.025,-1.938C-1.899,-2.232 -1.764,-2.534 -1.62,-2.842C-1.476,-3.152 -1.335,-3.454 -1.197,-3.751C-1.059,-4.048 -0.948,-4.308 -0.864,-4.53" style="fill:rgb(145,38,143);fill-rule:nonzero;"/>
            </g>
            <g transform="matrix(4.16667,0,0,4.16667,849.43,2734.28)">
                <path d="M0,-15.992C0.04,-16.062 0.115,-16.052 0.225,-15.962C0.335,-15.872 0.445,-15.75 0.555,-15.595C0.665,-15.439 0.76,-15.277 0.84,-15.107C0.92,-14.937 0.95,-14.802 0.93,-14.702C0.56,-13.772 0.208,-12.92 -0.127,-12.144C-0.462,-11.37 -0.785,-10.642 -1.095,-9.962C-1.405,-9.282 -1.702,-8.635 -1.987,-8.019C-2.272,-7.404 -2.55,-6.795 -2.82,-6.189C-3.09,-5.585 -3.35,-4.97 -3.6,-4.345C-3.85,-3.72 -4.095,-3.056 -4.335,-2.357C-4.425,-2.117 -4.47,-1.952 -4.47,-1.862C-4.47,-1.772 -4.447,-1.734 -4.402,-1.75C-4.357,-1.764 -4.295,-1.819 -4.215,-1.915C-4.135,-2.01 -4.052,-2.117 -3.967,-2.237C-3.882,-2.357 -3.802,-2.474 -3.728,-2.59C-3.652,-2.704 -3.595,-2.792 -3.555,-2.852C-3.225,-3.442 -2.88,-4.016 -2.52,-4.577C-2.16,-5.137 -1.805,-5.702 -1.455,-6.272C-0.435,-7.931 0.618,-9.557 1.703,-11.147C2.788,-12.737 3.98,-14.262 5.28,-15.722C5.34,-15.772 5.42,-15.772 5.52,-15.722C5.62,-15.672 5.715,-15.602 5.805,-15.513C5.895,-15.431 5.987,-15.342 6.083,-15.242C6.178,-15.142 6.26,-15.045 6.33,-14.95C6.4,-14.854 6.455,-14.764 6.495,-14.68C6.535,-14.595 6.55,-14.532 6.54,-14.492C6.37,-14.322 6.135,-14.007 5.835,-13.547C5.535,-13.087 5.205,-12.535 4.845,-11.889C4.485,-11.245 4.112,-10.534 3.728,-9.76C3.343,-8.984 2.982,-8.2 2.647,-7.404C2.313,-6.609 2.018,-5.832 1.763,-5.072C1.508,-4.312 1.33,-3.622 1.23,-3.002C1.13,-2.382 1.123,-1.862 1.208,-1.442C1.292,-1.022 1.51,-0.752 1.86,-0.632C2.16,-0.522 2.49,-0.474 2.85,-0.489C3.21,-0.505 3.55,-0.567 3.87,-0.677C3.94,-0.677 3.962,-0.644 3.938,-0.58C3.913,-0.514 3.86,-0.439 3.78,-0.354C3.7,-0.269 3.607,-0.189 3.502,-0.114C3.397,-0.04 3.31,0.003 3.24,0.013C2.92,0.043 2.595,0.061 2.265,0.066C1.935,0.07 1.61,0.028 1.29,-0.062C0.8,-0.182 0.45,-0.444 0.24,-0.849C0.03,-1.255 -0.073,-1.752 -0.067,-2.342C-0.062,-2.932 0.027,-3.596 0.203,-4.337C0.377,-5.077 0.61,-5.845 0.9,-6.639C1.19,-7.434 1.515,-8.237 1.875,-9.047C2.235,-9.857 2.6,-10.632 2.97,-11.372C1.76,-9.812 0.627,-8.239 -0.427,-6.654C-1.482,-5.069 -2.485,-3.502 -3.435,-1.952C-3.525,-1.812 -3.643,-1.667 -3.788,-1.517C-3.933,-1.367 -4.087,-1.239 -4.252,-1.135C-4.417,-1.029 -4.587,-0.96 -4.762,-0.925C-4.937,-0.889 -5.105,-0.917 -5.265,-1.007C-5.515,-1.138 -5.635,-1.422 -5.625,-1.862C-5.615,-2.302 -5.518,-2.845 -5.333,-3.489C-5.147,-4.135 -4.893,-4.857 -4.567,-5.657C-4.243,-6.457 -3.887,-7.29 -3.502,-8.154C-3.118,-9.019 -2.722,-9.888 -2.317,-10.757C-1.913,-11.627 -1.53,-12.457 -1.17,-13.247C-1.87,-12.197 -2.578,-11.162 -3.292,-10.142C-4.007,-9.122 -4.755,-8.117 -5.535,-7.127C-5.835,-6.727 -6.137,-6.335 -6.442,-5.95C-6.748,-5.564 -7.065,-5.197 -7.395,-4.847C-7.585,-4.647 -7.797,-4.412 -8.032,-4.142C-8.268,-3.872 -8.518,-3.59 -8.782,-3.295C-9.047,-3 -9.328,-2.707 -9.623,-2.417C-9.917,-2.127 -10.217,-1.87 -10.522,-1.644C-10.828,-1.42 -11.137,-1.237 -11.452,-1.097C-11.768,-0.957 -12.08,-0.892 -12.39,-0.902C-12.84,-0.912 -13.198,-1.067 -13.462,-1.367C-13.728,-1.667 -13.922,-2.027 -14.047,-2.447C-14.172,-2.867 -14.242,-3.307 -14.257,-3.767C-14.272,-4.227 -14.26,-4.627 -14.22,-4.967C-14.16,-5.527 -14.005,-6.182 -13.755,-6.932C-13.505,-7.682 -13.18,-8.457 -12.78,-9.257C-12.38,-10.057 -11.92,-10.842 -11.4,-11.612C-10.88,-12.382 -10.32,-13.069 -9.72,-13.675C-9.12,-14.279 -8.49,-14.764 -7.83,-15.13C-7.17,-15.495 -6.5,-15.672 -5.82,-15.662C-5.51,-15.652 -5.24,-15.547 -5.01,-15.347C-4.78,-15.147 -4.6,-14.907 -4.47,-14.627C-4.34,-14.346 -4.26,-14.055 -4.23,-13.75C-4.2,-13.444 -4.225,-13.187 -4.305,-12.977C-4.385,-12.787 -4.513,-12.592 -4.687,-12.392C-4.862,-12.192 -5.038,-12.029 -5.212,-11.904C-5.387,-11.779 -5.53,-11.715 -5.64,-11.71C-5.75,-11.704 -5.775,-11.807 -5.715,-12.017C-5.695,-12.107 -5.665,-12.229 -5.625,-12.385C-5.585,-12.54 -5.547,-12.712 -5.512,-12.902C-5.478,-13.092 -5.458,-13.285 -5.452,-13.479C-5.447,-13.675 -5.462,-13.854 -5.498,-14.019C-5.533,-14.184 -5.598,-14.322 -5.692,-14.432C-5.788,-14.542 -5.92,-14.607 -6.09,-14.627C-6.62,-14.687 -7.172,-14.557 -7.748,-14.237C-8.323,-13.917 -8.887,-13.474 -9.442,-12.91C-9.998,-12.345 -10.527,-11.702 -11.032,-10.982C-11.538,-10.263 -11.985,-9.529 -12.375,-8.785C-12.765,-8.04 -13.087,-7.327 -13.342,-6.647C-13.597,-5.967 -13.75,-5.388 -13.8,-4.907C-13.82,-4.667 -13.835,-4.42 -13.845,-4.165C-13.855,-3.91 -13.84,-3.652 -13.8,-3.392C-13.77,-3.192 -13.725,-3.005 -13.665,-2.83C-13.605,-2.654 -13.522,-2.497 -13.417,-2.357C-13.313,-2.217 -13.172,-2.102 -12.998,-2.013C-12.823,-1.922 -12.605,-1.857 -12.345,-1.817C-12.035,-1.777 -11.677,-1.875 -11.272,-2.109C-10.867,-2.345 -10.432,-2.681 -9.967,-3.122C-9.502,-3.562 -9.007,-4.085 -8.482,-4.689C-7.958,-5.295 -7.417,-5.952 -6.862,-6.662C-6.307,-7.372 -5.743,-8.114 -5.167,-8.889C-4.592,-9.665 -4.022,-10.437 -3.458,-11.207C-2.893,-11.977 -2.335,-12.729 -1.785,-13.465C-1.235,-14.2 -0.705,-14.877 -0.195,-15.497C-0.155,-15.577 -0.12,-15.659 -0.09,-15.745C-0.06,-15.829 -0.03,-15.912 0,-15.992" style="fill:rgb(145,38,143);fill-rule:nonzero;"/>
            </g>
            <g transform="matrix(4.16667,0,0,4.16667,890.679,2721.76)">
                <path d="M0,-3.407C0,-3.337 -0.025,-3.282 -0.075,-3.242C-0.125,-3.202 -0.178,-3.179 -0.232,-3.175C-0.288,-3.17 -0.335,-3.187 -0.375,-3.227C-0.415,-3.267 -0.435,-3.327 -0.435,-3.407C-0.455,-3.507 -0.473,-3.635 -0.487,-3.79C-0.502,-3.944 -0.538,-4.094 -0.592,-4.24C-0.647,-4.385 -0.735,-4.511 -0.855,-4.622C-0.975,-4.732 -1.15,-4.792 -1.38,-4.803C-1.66,-4.812 -1.933,-4.758 -2.198,-4.637C-2.462,-4.517 -2.715,-4.352 -2.955,-4.142C-3.195,-3.932 -3.42,-3.689 -3.63,-3.415C-3.84,-3.139 -4.03,-2.854 -4.2,-2.559C-4.37,-2.264 -4.518,-1.97 -4.643,-1.675C-4.768,-1.38 -4.865,-1.107 -4.935,-0.857C-4.985,-0.687 -5.025,-0.482 -5.055,-0.242C-5.085,-0.002 -5.075,0.221 -5.025,0.425C-4.975,0.63 -4.87,0.788 -4.71,0.898C-4.55,1.008 -4.3,1.023 -3.96,0.943C-3.8,0.903 -3.605,0.788 -3.375,0.598C-3.145,0.408 -2.913,0.186 -2.678,-0.07C-2.443,-0.325 -2.22,-0.592 -2.01,-0.872C-1.8,-1.152 -1.63,-1.397 -1.5,-1.607C-1.39,-1.897 -1.297,-2.178 -1.223,-2.447C-1.147,-2.718 -1.1,-2.952 -1.08,-3.152C-0.98,-3.202 -0.845,-3.192 -0.675,-3.122C-0.505,-3.053 -0.345,-2.952 -0.195,-2.822C-0.045,-2.692 0.075,-2.542 0.165,-2.372C0.255,-2.202 0.275,-2.037 0.225,-1.877C0.165,-1.727 0.092,-1.547 0.007,-1.337C-0.078,-1.127 -0.163,-0.912 -0.248,-0.692C-0.333,-0.472 -0.413,-0.255 -0.487,-0.04C-0.562,0.176 -0.613,0.37 -0.638,0.545C-0.663,0.721 -0.663,0.863 -0.638,0.973C-0.613,1.083 -0.545,1.143 -0.435,1.153L-0.255,1.153C0.085,1.053 0.402,0.873 0.697,0.613C0.992,0.353 1.268,0.058 1.522,-0.272C1.777,-0.602 2.012,-0.947 2.228,-1.307C2.442,-1.667 2.64,-1.997 2.82,-2.297C2.85,-2.347 2.895,-2.375 2.955,-2.38C3.015,-2.385 3.067,-2.372 3.112,-2.343C3.158,-2.312 3.19,-2.272 3.21,-2.222C3.23,-2.172 3.22,-2.112 3.18,-2.042C2.98,-1.732 2.785,-1.417 2.595,-1.097C2.405,-0.777 2.205,-0.468 1.995,-0.167C1.785,0.133 1.562,0.423 1.328,0.703C1.092,0.983 0.835,1.238 0.555,1.468C0.485,1.528 0.397,1.598 0.292,1.678C0.187,1.758 0.067,1.833 -0.067,1.903C-0.203,1.973 -0.348,2.03 -0.502,2.075C-0.658,2.12 -0.825,2.138 -1.005,2.128C-1.285,2.108 -1.513,2.038 -1.687,1.918C-1.863,1.798 -1.995,1.643 -2.085,1.453C-2.175,1.263 -2.223,1.048 -2.228,0.808C-2.233,0.568 -2.2,0.322 -2.13,0.072C-2.33,0.322 -2.542,0.568 -2.768,0.808C-2.993,1.048 -3.225,1.263 -3.465,1.453C-3.705,1.643 -3.95,1.795 -4.2,1.91C-4.45,2.026 -4.695,2.073 -4.935,2.053C-5.365,2.033 -5.698,1.931 -5.933,1.745C-6.167,1.561 -6.34,1.343 -6.45,1.093C-6.56,0.843 -6.623,0.583 -6.638,0.313C-6.652,0.043 -6.645,-0.182 -6.615,-0.362C-6.565,-0.712 -6.455,-1.097 -6.285,-1.517C-6.115,-1.937 -5.895,-2.354 -5.625,-2.769C-5.355,-3.184 -5.042,-3.58 -4.687,-3.955C-4.333,-4.33 -3.953,-4.644 -3.547,-4.899C-3.143,-5.155 -2.72,-5.335 -2.28,-5.439C-1.84,-5.545 -1.39,-5.537 -0.93,-5.417C-0.73,-5.357 -0.568,-5.26 -0.442,-5.125C-0.317,-4.99 -0.22,-4.83 -0.15,-4.644C-0.08,-4.46 -0.035,-4.26 -0.015,-4.045C0.005,-3.83 0.01,-3.617 0,-3.407" style="fill:rgb(145,38,143);fill-rule:nonzero;"/>
            </g>
            <g transform="matrix(4.16667,0,0,4.16667,910.054,2684.77)">
                <path d="M0,9.82C0.16,9.78 0.355,9.666 0.585,9.475C0.815,9.286 1.047,9.063 1.282,8.807C1.517,8.552 1.74,8.286 1.95,8.006C2.16,7.725 2.33,7.48 2.46,7.27L2.61,6.82C2.73,6.51 2.862,6.203 3.007,5.898C3.152,5.592 3.3,5.28 3.45,4.961C3.42,4.76 3.347,4.568 3.232,4.383C3.117,4.198 2.9,4.095 2.58,4.075C2.3,4.065 2.027,4.12 1.762,4.24C1.498,4.36 1.245,4.525 1.005,4.735C0.765,4.945 0.54,5.188 0.33,5.463C0.12,5.738 -0.07,6.023 -0.24,6.318C-0.41,6.613 -0.558,6.908 -0.683,7.203C-0.808,7.498 -0.905,7.77 -0.975,8.02C-1.025,8.19 -1.065,8.395 -1.095,8.635C-1.125,8.876 -1.115,9.098 -1.065,9.302C-1.015,9.508 -0.91,9.666 -0.75,9.775C-0.59,9.885 -0.34,9.9 0,9.82M3.72,7.885C3.61,8.126 3.515,8.373 3.435,8.628C3.355,8.883 3.3,9.113 3.27,9.318C3.24,9.523 3.242,9.69 3.277,9.82C3.313,9.95 3.395,10.02 3.525,10.03L3.705,10.03C4.045,9.93 4.362,9.751 4.657,9.49C4.952,9.23 5.228,8.935 5.482,8.605C5.737,8.275 5.972,7.93 6.187,7.57C6.402,7.211 6.6,6.881 6.78,6.581C6.81,6.53 6.855,6.503 6.915,6.498C6.975,6.493 7.027,6.506 7.072,6.535C7.118,6.565 7.15,6.605 7.17,6.655C7.19,6.706 7.18,6.765 7.14,6.836C6.94,7.145 6.745,7.461 6.555,7.78C6.365,8.1 6.165,8.41 5.955,8.711C5.745,9.01 5.522,9.3 5.288,9.581C5.052,9.86 4.795,10.115 4.515,10.345C4.445,10.405 4.357,10.475 4.252,10.555C4.147,10.635 4.027,10.711 3.893,10.78C3.757,10.85 3.612,10.908 3.458,10.953C3.302,10.998 3.135,11.015 2.955,11.006C2.675,10.985 2.447,10.916 2.272,10.796C2.097,10.675 1.965,10.52 1.875,10.331C1.785,10.14 1.737,9.925 1.732,9.685C1.727,9.445 1.76,9.2 1.83,8.95C1.63,9.2 1.417,9.445 1.192,9.685C0.967,9.925 0.735,10.14 0.495,10.331C0.255,10.52 0.01,10.673 -0.24,10.788C-0.49,10.903 -0.735,10.951 -0.975,10.93C-1.405,10.911 -1.738,10.808 -1.973,10.623C-2.208,10.438 -2.38,10.22 -2.49,9.97C-2.6,9.72 -2.663,9.461 -2.678,9.19C-2.692,8.921 -2.685,8.695 -2.655,8.515C-2.605,8.166 -2.495,7.78 -2.325,7.36C-2.155,6.94 -1.935,6.523 -1.665,6.108C-1.395,5.693 -1.083,5.298 -0.728,4.923C-0.373,4.548 0.007,4.233 0.413,3.978C0.817,3.722 1.24,3.543 1.68,3.438C2.12,3.333 2.57,3.341 3.03,3.461C3.23,3.52 3.392,3.621 3.518,3.76C3.643,3.9 3.74,4.065 3.81,4.256L4.59,2.785C4.78,2.445 4.958,2.098 5.123,1.743C5.288,1.388 5.442,1.038 5.587,0.693C5.732,0.347 5.857,0.02 5.962,-0.289C6.067,-0.6 6.155,-0.884 6.225,-1.145C6.325,-1.195 6.458,-1.187 6.623,-1.122C6.788,-1.057 6.942,-0.962 7.087,-0.837C7.232,-0.712 7.35,-0.565 7.44,-0.395C7.53,-0.225 7.55,-0.06 7.5,0.1C7.46,0.22 7.382,0.403 7.268,0.648C7.152,0.893 7.018,1.171 6.862,1.48C6.708,1.791 6.542,2.118 6.368,2.463C6.192,2.807 6.02,3.14 5.85,3.461C5.48,4.18 5.105,4.905 4.725,5.635C4.345,6.365 4.01,7.126 3.72,7.916L3.72,7.885Z" style="fill:rgb(145,38,143);fill-rule:nonzero;"/>
            </g>
            <g transform="matrix(4.16667,0,0,4.16667,960.054,2704.65)">
                <path d="M0,3.64C-0.21,3.941 -0.45,4.245 -0.72,4.555C-0.99,4.866 -1.28,5.146 -1.59,5.396C-1.9,5.646 -2.23,5.848 -2.58,6.003C-2.93,6.159 -3.291,6.225 -3.66,6.205C-4.041,6.186 -4.32,6.045 -4.5,5.786C-4.68,5.526 -4.765,5.226 -4.755,4.885C-4.745,4.576 -4.69,4.286 -4.59,4.015C-4.49,3.745 -4.363,3.483 -4.208,3.228C-4.053,2.973 -3.883,2.72 -3.698,2.47C-3.513,2.221 -3.32,1.96 -3.12,1.691C-2.99,1.51 -2.86,1.333 -2.73,1.158C-2.601,0.983 -2.49,0.827 -2.4,0.693C-2.31,0.558 -2.245,0.451 -2.205,0.37C-2.166,0.29 -2.166,0.255 -2.205,0.265C-2.355,0.286 -2.483,0.308 -2.588,0.333C-2.693,0.358 -2.79,0.383 -2.88,0.408C-2.97,0.433 -3.065,0.451 -3.165,0.46C-3.265,0.47 -3.385,0.475 -3.525,0.475L-3.675,0.475C-3.726,0.475 -3.775,0.47 -3.825,0.46C-4.055,0.781 -4.275,1.101 -4.485,1.42C-4.695,1.741 -4.896,2.05 -5.085,2.35C-5.115,2.401 -5.158,2.428 -5.213,2.433C-5.268,2.438 -5.315,2.428 -5.355,2.403C-5.396,2.378 -5.425,2.338 -5.445,2.283C-5.465,2.228 -5.45,2.165 -5.4,2.095C-5.2,1.776 -5.013,1.468 -4.838,1.173C-4.663,0.878 -4.476,0.58 -4.275,0.281C-4.455,0.13 -4.521,-0.072 -4.47,-0.327C-4.42,-0.582 -4.32,-0.852 -4.17,-1.137C-4.02,-1.422 -3.86,-1.694 -3.69,-1.955C-3.521,-2.214 -3.405,-2.424 -3.345,-2.585C-3.225,-2.535 -3.103,-2.472 -2.978,-2.397C-2.853,-2.322 -2.75,-2.232 -2.67,-2.127C-2.59,-2.022 -2.541,-1.892 -2.52,-1.737C-2.5,-1.582 -2.535,-1.394 -2.625,-1.174L-3.255,-0.259C-3.295,-0.2 -3.26,-0.179 -3.15,-0.2C-3.04,-0.219 -2.885,-0.262 -2.685,-0.327C-2.485,-0.392 -2.263,-0.472 -2.018,-0.567C-1.773,-0.662 -1.535,-0.759 -1.305,-0.86C-1.075,-0.96 -0.873,-1.057 -0.698,-1.152C-0.523,-1.247 -0.41,-1.325 -0.36,-1.384C-0.33,-1.384 -0.288,-1.365 -0.233,-1.325C-0.178,-1.285 -0.118,-1.24 -0.053,-1.189C0.012,-1.139 0.07,-1.089 0.12,-1.04C0.17,-0.99 0.2,-0.96 0.21,-0.95C0.31,-0.799 0.307,-0.602 0.202,-0.357C0.097,-0.112 -0.065,0.17 -0.285,0.491C-0.505,0.811 -0.765,1.153 -1.065,1.518C-1.365,1.883 -1.66,2.26 -1.95,2.651C-2.05,2.771 -2.16,2.912 -2.28,3.078C-2.4,3.243 -2.515,3.413 -2.625,3.588C-2.735,3.763 -2.83,3.936 -2.91,4.106C-2.99,4.276 -3.04,4.43 -3.06,4.571C-3.081,4.71 -3.058,4.823 -2.993,4.908C-2.928,4.993 -2.8,5.04 -2.61,5.05C-2.48,5.061 -2.323,5.023 -2.138,4.938C-1.953,4.853 -1.755,4.733 -1.545,4.577C-1.335,4.423 -1.125,4.241 -0.915,4.031C-0.705,3.821 -0.515,3.595 -0.345,3.356C-0.146,3.066 0.037,2.786 0.202,2.515C0.367,2.245 0.505,2.01 0.615,1.811C0.655,1.76 0.702,1.733 0.757,1.728C0.812,1.723 0.862,1.736 0.907,1.765C0.952,1.795 0.982,1.835 0.997,1.885C1.012,1.936 1,1.995 0.96,2.066C0.79,2.326 0.63,2.59 0.48,2.861C0.33,3.13 0.17,3.391 0,3.64" style="fill:rgb(145,38,143);fill-rule:nonzero;"/>
            </g>
            <g transform="matrix(4.16667,0,0,4.16667,966.554,2711.15)">
                <path d="M0,1.765C-0.01,1.786 -0.015,1.805 -0.015,1.825C0.795,1.595 1.525,1.228 2.175,0.722C2.825,0.217 3.35,-0.415 3.75,-1.175C3.89,-1.465 3.925,-1.713 3.855,-1.918C3.785,-2.123 3.61,-2.2 3.33,-2.15C2.91,-2.07 2.515,-1.881 2.145,-1.58C1.775,-1.28 1.445,-0.935 1.155,-0.546C0.865,-0.155 0.62,0.247 0.42,0.662C0.22,1.078 0.08,1.445 0,1.765M4.11,-0.875C3.66,-0.065 3.07,0.608 2.34,1.142C1.61,1.677 0.805,2.065 -0.075,2.305C-0.085,2.475 -0.075,2.645 -0.045,2.815C-0.015,2.985 0.035,3.145 0.105,3.295C0.175,3.445 0.27,3.575 0.39,3.685C0.51,3.795 0.66,3.87 0.84,3.91C1.06,3.96 1.312,3.953 1.597,3.887C1.882,3.823 2.182,3.693 2.498,3.497C2.813,3.302 3.135,3.045 3.465,2.725C3.795,2.405 4.12,2.015 4.44,1.555C4.6,1.325 4.745,1.1 4.875,0.88C5.005,0.661 5.125,0.45 5.235,0.25C5.275,0.2 5.322,0.172 5.377,0.167C5.432,0.162 5.482,0.175 5.527,0.204C5.572,0.235 5.604,0.275 5.625,0.325C5.645,0.375 5.635,0.435 5.595,0.505C5.455,0.725 5.305,0.965 5.145,1.225C4.985,1.485 4.807,1.757 4.612,2.042C4.417,2.327 4.202,2.613 3.967,2.898C3.732,3.182 3.47,3.455 3.18,3.715C2.89,3.975 2.61,4.172 2.34,4.307C2.07,4.443 1.815,4.537 1.575,4.592C1.335,4.647 1.12,4.677 0.93,4.682C0.74,4.687 0.585,4.69 0.465,4.69C-0.215,4.69 -0.745,4.51 -1.125,4.15C-1.505,3.789 -1.71,3.3 -1.74,2.68C-1.76,2.11 -1.658,1.542 -1.433,0.977C-1.208,0.412 -0.845,-0.2 -0.345,-0.86C-0.186,-1.07 0.03,-1.298 0.3,-1.543C0.57,-1.788 0.87,-2.015 1.2,-2.225C1.53,-2.435 1.88,-2.605 2.25,-2.735C2.62,-2.865 2.99,-2.925 3.36,-2.915C3.6,-2.915 3.807,-2.86 3.982,-2.75C4.157,-2.64 4.285,-2.493 4.365,-2.307C4.445,-2.123 4.467,-1.908 4.432,-1.663C4.397,-1.418 4.29,-1.155 4.11,-0.875" style="fill:rgb(145,38,143);fill-rule:nonzero;"/>
            </g>
            <g transform="matrix(-4.15913,0.250543,0.250543,4.15913,1123.58,2908.6)">
                <path d="M-2.015,-7.837C0.454,-6.241 -0.319,-2.344 -1.388,-0.167C-1.551,0.163 -2.134,-0.018 -2.015,-0.387C-1.283,-2.642 -0.581,-5.588 -2.272,-7.548C-2.401,-7.698 -2.179,-7.944 -2.015,-7.837" style="fill:rgb(35,31,32);fill-rule:nonzero;"/>
            </g>
            <g transform="matrix(4.16667,0,0,4.16667,0,0)">
                <g opacity="0.5">
                    <g transform="matrix(0.0162133,0.999869,0.999869,-0.0162133,218.891,682.14)">
                        <path d="M10.921,-10.867C11.431,-3.645 11.372,3.72 11.362,10.959C11.36,11.242 10.931,11.249 10.921,10.966C10.679,3.73 10.413,-3.628 10.692,-10.864C10.697,-11.012 10.911,-11.015 10.921,-10.867" style="fill:rgb(35,31,32);fill-rule:nonzero;"/>
                    </g>
                </g>
            </g>
            <g transform="matrix(4.16667,0,0,4.16667,0,0)">
                <g opacity="0.5">
                    <g transform="matrix(0.00685776,0.999976,0.999976,-0.00685776,205.511,676.6)">
                        <path d="M19.124,-19.075C19.717,-6.415 19.743,6.457 19.505,19.128C19.501,19.373 19.133,19.375 19.124,19.13C18.71,6.465 18.524,-6.407 18.94,-19.073C18.944,-19.191 19.118,-19.194 19.124,-19.075" style="fill:rgb(35,31,32);fill-rule:nonzero;"/>
                    </g>
                </g>
            </g>
            <g transform="matrix(4.16667,0,0,4.16667,0,0)">
                <g opacity="0.5">
                    <g transform="matrix(0.00640253,0.99998,0.99998,-0.00640253,252.642,677.81)">
                        <path d="M15.652,-15.595C16.285,-5.313 16.434,5.342 16.072,15.64C16.061,15.91 15.665,15.913 15.652,15.642C15.141,5.35 14.913,-5.302 15.403,-15.594C15.411,-15.754 15.642,-15.756 15.652,-15.595" style="fill:rgb(35,31,32);fill-rule:nonzero;"/>
                    </g>
                </g>
            </g>
            <g transform="matrix(4.16667,0,0,4.16667,0,0)">
                <g transform="matrix(9,0,0,9,183.09,675.523)">
                    <path d="M0.093,-0L0.093,-0.723L0.235,-0.723L0.436,-0.164L0.642,-0.723L0.769,-0.723L0.769,-0L0.673,-0L0.673,-0.588L0.474,-0.048L0.375,-0.048L0.181,-0.589L0.181,-0L0.093,-0Z" style="fill:rgb(35,31,32);fill-rule:nonzero;"/>
                </g>
                <g transform="matrix(9,0,0,9,189.686,675.523)">
                    <path d="M0.255,0.012C0.207,0.012 0.168,-0.002 0.141,-0.03C0.114,-0.058 0.1,-0.097 0.1,-0.146L0.1,-0.458L0.034,-0.458L0.034,-0.53L0.1,-0.53L0.1,-0.626L0.196,-0.636L0.196,-0.53L0.335,-0.53L0.335,-0.458L0.196,-0.458L0.196,-0.164C0.196,-0.095 0.226,-0.06 0.286,-0.06C0.299,-0.06 0.314,-0.062 0.333,-0.066L0.333,-0C0.303,0.008 0.277,0.012 0.255,0.012Z" style="fill:rgb(35,31,32);fill-rule:nonzero;"/>
                </g>
                <g transform="matrix(9,0,0,9,191.897,675.523)">
                    <path d="M0.096,-0L0.096,-0.53L0.192,-0.53L0.192,-0.431C0.23,-0.505 0.286,-0.542 0.358,-0.542C0.368,-0.542 0.378,-0.541 0.389,-0.54L0.389,-0.45C0.373,-0.455 0.358,-0.458 0.345,-0.458C0.284,-0.458 0.233,-0.422 0.192,-0.35L0.192,-0L0.096,-0Z" style="fill:rgb(35,31,32);fill-rule:nonzero;"/>
                </g>
                <g transform="matrix(9,0,0,9,194.423,675.523)">
                    <path d="M0.37,-0.067C0.312,-0.014 0.257,0.012 0.203,0.012C0.159,0.012 0.123,-0.002 0.094,-0.029C0.065,-0.057 0.05,-0.091 0.05,-0.133C0.05,-0.191 0.075,-0.236 0.123,-0.267C0.172,-0.298 0.242,-0.313 0.333,-0.313L0.355,-0.313L0.355,-0.377C0.355,-0.439 0.324,-0.47 0.261,-0.47C0.21,-0.47 0.155,-0.454 0.096,-0.423L0.096,-0.502C0.161,-0.529 0.222,-0.542 0.278,-0.542C0.338,-0.542 0.381,-0.529 0.409,-0.502C0.438,-0.475 0.452,-0.434 0.452,-0.377L0.452,-0.137C0.452,-0.082 0.469,-0.055 0.502,-0.055C0.507,-0.055 0.513,-0.055 0.521,-0.057L0.528,-0.003C0.506,0.007 0.482,0.012 0.456,0.012C0.411,0.012 0.382,-0.014 0.37,-0.067ZM0.355,-0.12L0.355,-0.257L0.323,-0.258C0.271,-0.258 0.228,-0.248 0.195,-0.228C0.163,-0.208 0.146,-0.181 0.146,-0.149C0.146,-0.126 0.155,-0.106 0.171,-0.09C0.187,-0.074 0.207,-0.066 0.23,-0.066C0.271,-0.066 0.312,-0.084 0.355,-0.12Z" style="fill:rgb(35,31,32);fill-rule:nonzero;"/>
                </g>
                <g transform="matrix(9,0,0,9,198.238,675.523)">
                    <rect x="0.098" y="-0.121" width="0.121" height="0.121" style="fill:rgb(35,31,32);fill-rule:nonzero;"/>
                </g>
                <g transform="matrix(9,0,0,9,201.621,675.523)">
                    <path d="M0.459,-0.276L0.336,-0.588L0.213,-0.276L0.459,-0.276ZM0.568,-0L0.489,-0.2L0.183,-0.2L0.104,-0L0.008,-0L0.295,-0.723L0.396,-0.723L0.679,-0L0.568,-0Z" style="fill:rgb(35,31,32);fill-rule:nonzero;"/>
                </g>
                <g transform="matrix(9,0,0,9,206.675,675.523)">
                    <rect x="0.096" y="-0.771" width="0.096" height="0.771" style="fill:rgb(35,31,32);fill-rule:nonzero;"/>
                </g>
                <g transform="matrix(9,0,0,9,208.121,675.523)">
                    <path d="M0.096,-0L0.096,-0.53L0.192,-0.53L0.192,-0L0.096,-0ZM0.096,-0.626L0.096,-0.723L0.192,-0.723L0.192,-0.626L0.096,-0.626Z" style="fill:rgb(35,31,32);fill-rule:nonzero;"/>
                </g>
                <g transform="matrix(9,0,0,9,209.566,675.523)">
                    <path d="M0.096,-0L0.096,-0.53L0.192,-0.53L0.192,-0.431C0.243,-0.505 0.305,-0.542 0.379,-0.542C0.425,-0.542 0.461,-0.527 0.489,-0.498C0.516,-0.469 0.53,-0.43 0.53,-0.381L0.53,-0L0.434,-0L0.434,-0.35C0.434,-0.389 0.428,-0.417 0.416,-0.434C0.405,-0.451 0.386,-0.459 0.359,-0.459C0.3,-0.459 0.244,-0.42 0.192,-0.343L0.192,-0L0.096,-0Z" style="fill:rgb(35,31,32);fill-rule:nonzero;"/>
                </g>
                <g transform="matrix(9,0,0,9,213.996,675.523)">
                    <path d="M0.37,-0.067C0.312,-0.014 0.257,0.012 0.203,0.012C0.159,0.012 0.123,-0.002 0.094,-0.029C0.065,-0.057 0.05,-0.091 0.05,-0.133C0.05,-0.191 0.075,-0.236 0.123,-0.267C0.172,-0.298 0.242,-0.313 0.333,-0.313L0.355,-0.313L0.355,-0.377C0.355,-0.439 0.324,-0.47 0.261,-0.47C0.21,-0.47 0.155,-0.454 0.096,-0.423L0.096,-0.502C0.161,-0.529 0.222,-0.542 0.278,-0.542C0.338,-0.542 0.381,-0.529 0.409,-0.502C0.438,-0.475 0.452,-0.434 0.452,-0.377L0.452,-0.137C0.452,-0.082 0.469,-0.055 0.502,-0.055C0.507,-0.055 0.513,-0.055 0.521,-0.057L0.528,-0.003C0.506,0.007 0.482,0.012 0.456,0.012C0.411,0.012 0.382,-0.014 0.37,-0.067ZM0.355,-0.12L0.355,-0.257L0.323,-0.258C0.271,-0.258 0.228,-0.248 0.195,-0.228C0.163,-0.208 0.146,-0.181 0.146,-0.149C0.146,-0.126 0.155,-0.106 0.171,-0.09C0.187,-0.074 0.207,-0.066 0.23,-0.066C0.271,-0.066 0.312,-0.084 0.355,-0.12Z" style="fill:rgb(35,31,32);fill-rule:nonzero;"/>
                </g>
                <g transform="matrix(9,0,0,9,183.09,685.523)">
                    <path d="M0.093,-0L0.093,-0.723L0.29,-0.723C0.377,-0.723 0.44,-0.708 0.478,-0.678C0.516,-0.649 0.535,-0.601 0.535,-0.533C0.535,-0.456 0.509,-0.396 0.457,-0.353C0.405,-0.309 0.333,-0.287 0.24,-0.287L0.195,-0.287L0.195,-0L0.093,-0ZM0.195,-0.365L0.236,-0.365C0.297,-0.365 0.344,-0.379 0.377,-0.407C0.411,-0.435 0.427,-0.474 0.427,-0.525C0.427,-0.569 0.414,-0.6 0.388,-0.618C0.362,-0.637 0.319,-0.646 0.258,-0.646L0.195,-0.646L0.195,-0.365Z" style="fill:rgb(35,31,32);fill-rule:nonzero;"/>
                </g>
                <g transform="matrix(9,0,0,9,187.076,685.523)">
                    <path d="M0.485,-0.017C0.42,0.002 0.365,0.012 0.319,0.012C0.241,0.012 0.177,-0.014 0.128,-0.066C0.079,-0.118 0.054,-0.185 0.054,-0.268C0.054,-0.348 0.076,-0.414 0.119,-0.465C0.163,-0.517 0.218,-0.542 0.286,-0.542C0.35,-0.542 0.4,-0.52 0.435,-0.474C0.47,-0.429 0.487,-0.364 0.487,-0.28L0.487,-0.25L0.152,-0.25C0.166,-0.124 0.228,-0.061 0.337,-0.061C0.377,-0.061 0.427,-0.072 0.485,-0.093L0.485,-0.017ZM0.157,-0.322L0.391,-0.322C0.391,-0.421 0.354,-0.47 0.28,-0.47C0.206,-0.47 0.165,-0.421 0.157,-0.322ZM0.206,-0.626L0.323,-0.783L0.435,-0.783L0.278,-0.626L0.206,-0.626Z" style="fill:rgb(35,31,32);fill-rule:nonzero;"/>
                </g>
                <g transform="matrix(9,0,0,9,191.101,685.523)">
                    <path d="M0.096,-0L0.096,-0.53L0.192,-0.53L0.192,-0.431C0.23,-0.505 0.286,-0.542 0.358,-0.542C0.368,-0.542 0.378,-0.541 0.389,-0.54L0.389,-0.45C0.373,-0.455 0.358,-0.458 0.345,-0.458C0.284,-0.458 0.233,-0.422 0.192,-0.35L0.192,-0L0.096,-0Z" style="fill:rgb(35,31,32);fill-rule:nonzero;"/>
                </g>
                <g transform="matrix(9,0,0,9,193.795,685.523)">
                    <path d="M0.485,-0.017C0.42,0.002 0.365,0.012 0.319,0.012C0.241,0.012 0.177,-0.014 0.128,-0.066C0.079,-0.118 0.054,-0.185 0.054,-0.268C0.054,-0.348 0.076,-0.414 0.119,-0.465C0.163,-0.517 0.218,-0.542 0.286,-0.542C0.35,-0.542 0.4,-0.52 0.435,-0.474C0.47,-0.429 0.487,-0.364 0.487,-0.28L0.487,-0.25L0.152,-0.25C0.166,-0.124 0.228,-0.061 0.337,-0.061C0.377,-0.061 0.427,-0.072 0.485,-0.093L0.485,-0.017ZM0.157,-0.322L0.391,-0.322C0.391,-0.421 0.354,-0.47 0.28,-0.47C0.206,-0.47 0.165,-0.421 0.157,-0.322Z" style="fill:rgb(35,31,32);fill-rule:nonzero;"/>
                </g>
                <g transform="matrix(9,0,0,9,197.82,685.523)">
                    <path d="M0.06,-0L0.06,-0.072L0.388,-0.458L0.075,-0.458L0.075,-0.53L0.507,-0.53L0.507,-0.458L0.179,-0.072L0.513,-0.072L0.513,-0L0.06,-0Z" style="fill:rgb(35,31,32);fill-rule:nonzero;"/>
                </g>
                <g transform="matrix(9,0,0,9,203.849,685.523)">
                    <path d="M0.636,-0.02C0.549,0.006 0.472,0.018 0.407,0.018C0.292,0.018 0.204,-0.015 0.143,-0.08C0.081,-0.146 0.051,-0.239 0.051,-0.361C0.051,-0.481 0.082,-0.574 0.144,-0.641C0.206,-0.707 0.293,-0.741 0.406,-0.741C0.479,-0.741 0.556,-0.73 0.635,-0.708L0.635,-0.613C0.536,-0.647 0.459,-0.664 0.406,-0.664C0.328,-0.664 0.267,-0.638 0.224,-0.584C0.181,-0.531 0.16,-0.457 0.16,-0.36C0.16,-0.265 0.183,-0.191 0.229,-0.138C0.275,-0.085 0.34,-0.059 0.423,-0.059C0.458,-0.059 0.494,-0.065 0.534,-0.077L0.534,-0.312L0.636,-0.312L0.636,-0.02Z" style="fill:rgb(35,31,32);fill-rule:nonzero;"/>
                </g>
                <g transform="matrix(9,0,0,9,209.364,685.523)">
                    <path d="M0.096,-0L0.096,-0.53L0.192,-0.53L0.192,-0L0.096,-0ZM0.096,-0.626L0.096,-0.723L0.192,-0.723L0.192,-0.626L0.096,-0.626Z" style="fill:rgb(35,31,32);fill-rule:nonzero;"/>
                </g>
                <g transform="matrix(9,0,0,9,210.977,685.523)">
                    <rect x="0.096" y="-0.771" width="0.096" height="0.771" style="fill:rgb(35,31,32);fill-rule:nonzero;"/>
                </g>
            </g>
            <g transform="matrix(4.16667,0,0,4.16667,781.361,2573)">
                <path d="M0,82.018C-6.603,82.018 -9.209,79.238 -9.209,75.414C-9.209,71.591 -7.646,6.081 -7.646,3.997C-7.646,1.911 -6.603,0 -3.128,0L81.626,0C83.19,0 83.017,2.085 83.19,5.039C83.364,7.993 84.407,68.61 84.407,70.869C84.407,73.127 83.364,73.127 80.41,73.127L-0.544,73.127C-3.809,73.127 -6.38,74.324 -6.38,76.104C-6.38,78.537 -3.896,80.106 -0.247,80.106L82.934,80.106C84.498,80.106 85.367,82.018 83.108,82.018L0,82.018Z" style="fill:none;fill-rule:nonzero;stroke:rgb(35,31,32);stroke-width:1px;"/>
            </g>
            <g transform="matrix(-0.981706,4.04937,4.04937,0.981706,1092.43,2566.98)">
                <path d="M9.958,-13.703C14.197,-7.298 12.87,0.63 10.583,7.496C10.455,7.883 9.861,7.754 9.958,7.345C11.756,-0.201 12.975,-6.214 9.695,-13.542C9.617,-13.719 9.845,-13.873 9.958,-13.703" style="fill:rgb(35,31,32);fill-rule:nonzero;"/>
            </g>
            <g transform="matrix(4.16667,0,0,4.16667,1045.12,2756.22)">
                <path d="M0,-36.277C0.953,-33.214 1.429,-30.319 0.57,-27.159C0.023,-25.146 -1.188,-23.527 -1.826,-21.58C-2.394,-19.846 -2.41,-18.753 -1.778,-17.019C0.441,-10.922 5.112,-7.226 4.532,-0.039C4.515,0.183 4.887,0.237 4.926,0.015C6.006,-6.146 2.444,-10.496 -0.321,-15.608C-2.678,-19.964 0.026,-22.787 1.147,-27C1.999,-30.198 1.595,-33.409 0.24,-36.378C0.178,-36.514 -0.044,-36.418 0,-36.277" style="fill:rgb(35,31,32);fill-rule:nonzero;"/>
            </g>
            <g transform="matrix(4.16667,0,0,4.16667,1044.42,2699.19)">
                <path d="M0,-10.819C0.38,-6.99 2.132,-2.805 5.977,-1.316C9.723,0.135 13.3,-2.076 16.151,-4.373C16.376,-4.555 16.082,-4.933 15.84,-4.775C12.728,-2.74 9.289,-0.271 5.449,-2.298C2.171,-4.028 1.058,-7.514 0.2,-10.846C0.172,-10.954 -0.011,-10.936 0,-10.819" style="fill:rgb(35,31,32);fill-rule:nonzero;"/>
            </g>
            <g transform="matrix(4.16667,0,0,4.16667,1105.5,2731.19)">
                <path d="M0,-27.671C-0.851,-23.986 -1.666,-20.085 -0.459,-16.384C0.223,-14.29 1.393,-12.598 1.937,-10.422C2.911,-6.532 1.297,-3.417 -0.791,-0.189C-0.975,0.094 -0.542,0.324 -0.349,0.069C1.775,-2.725 3.539,-6.166 3.03,-9.797C2.792,-11.494 1.852,-12.806 1.155,-14.33C-0.888,-18.802 -0.426,-22.819 0.494,-27.535C0.556,-27.855 0.075,-27.995 0,-27.671" style="fill:rgb(35,31,32);fill-rule:nonzero;"/>
            </g>
            <g transform="matrix(-4.16419,0.143552,0.143552,4.16419,1083.16,2723.98)">
                <path d="M1.064,-6.93C0.027,-4.701 0.225,-2.221 1.575,-0.171C1.788,0.155 1.275,0.479 1.064,0.152C-0.381,-2.082 -0.526,-4.769 0.654,-7.151C0.788,-7.421 1.189,-7.201 1.064,-6.93" style="fill:rgb(35,31,32);fill-rule:nonzero;"/>
            </g>
            <g transform="matrix(4.16667,0,0,4.16667,1026.92,2776.99)">
                <path d="M0,3.746C1.693,0.779 4.196,-1.399 7.37,-2.675C8.355,-3.071 11.087,-4.21 12.118,-3.741C13.772,-2.988 13.32,-0.336 12.691,0.925C10.42,5.478 4.521,6.018 0.194,6.931C-0.07,6.986 0.027,7.334 0.253,7.362C6.241,8.117 16.304,2.85 13.075,-4.216C13.03,-4.313 12.906,-4.371 12.804,-4.371C7.482,-4.359 1.919,-1.403 -0.459,3.478C-0.607,3.782 -0.172,4.047 0,3.746" style="fill:rgb(35,31,32);fill-rule:nonzero;"/>
            </g>
            <g transform="matrix(-4.12757,0.569474,0.569474,4.12757,1045.1,2848.64)">
                <path d="M2.919,-14.022C3.65,-9.395 1.719,-4.869 3.35,-0.297C3.441,-0.042 3.089,0.21 2.919,-0.04C0.304,-3.91 3.03,-9.688 2.458,-13.959C2.419,-14.256 2.872,-14.319 2.919,-14.022" style="fill:rgb(35,31,32);fill-rule:nonzero;"/>
            </g>
            <g transform="matrix(0.527441,4.13315,4.13315,-0.527441,975.897,2753.19)">
                <path d="M9.484,-10.616C13.031,-3.836 11.544,3.668 10.075,10.837C9.999,11.211 9.42,11.135 9.484,10.753C10.686,3.485 12.312,-3.434 9.211,-10.502C9.133,-10.679 9.397,-10.782 9.484,-10.616" style="fill:rgb(35,31,32);fill-rule:nonzero;"/>
            </g>
            <g transform="matrix(4.16667,0,0,4.16667,1019.52,2745.04)">
                <path d="M0,-41.215C-1.489,-39.225 -1.976,-37.007 -1.002,-34.662C0.131,-31.932 1.898,-31.545 1.756,-28.038C1.646,-25.295 0.467,-23.844 -0.318,-21.366C-1.273,-18.353 -1.296,-15.069 -0.482,-12.025C0.487,-8.399 5.873,-3.812 4.663,-0.188C4.574,0.077 4.995,0.261 5.119,0.005C5.811,-1.433 6.159,-2.584 5.36,-4.117C4.421,-5.922 2.423,-7.102 1.4,-8.956C-0.171,-11.803 -0.637,-15.263 -0.231,-18.441C0.214,-21.926 3.353,-25.06 3.196,-28.503C2.98,-33.281 -3.223,-35.319 0.448,-40.953C0.633,-41.239 0.195,-41.476 0,-41.215" style="fill:rgb(35,31,32);fill-rule:nonzero;"/>
            </g>
            <g transform="matrix(4.16667,0,0,4.16667,1077.19,2724.16)">
                <path d="M0,-0.348C0.245,0.519 1.275,0.438 2.011,0.43C3.752,0.413 5.555,0.206 7.214,-0.337C7.512,-0.435 7.391,-0.867 7.084,-0.806C5.886,-0.564 4.716,-0.291 3.496,-0.158C2.776,-0.08 0.716,0.353 0.324,-0.485C0.238,-0.669 -0.054,-0.538 0,-0.348" style="fill:rgb(35,31,32);fill-rule:nonzero;"/>
            </g>
            <g transform="matrix(4.16667,0,0,4.16667,1104.12,2799.54)">
                <path d="M0,-16.923C-1.422,-15.291 -2.419,-13.298 -2.083,-11.066C-1.928,-10.034 -1.455,-9.247 -0.86,-8.405C1.66,-4.834 -0.046,-1.019 -4.888,-0.786C-5.24,-0.77 -5.227,-0.284 -4.888,-0.248C-1.936,0.069 0.756,-1.74 1.211,-4.775C1.368,-5.813 1.224,-6.632 0.717,-7.547C0.332,-8.242 -0.374,-8.747 -0.766,-9.433C-2.25,-12.026 -1.032,-14.488 0.118,-16.832C0.154,-16.904 0.06,-16.992 0,-16.923" style="fill:rgb(35,31,32);fill-rule:nonzero;"/>
            </g>
            <g transform="matrix(4.16667,0,0,4.16667,1084.32,2813.67)">
                <path d="M0,-4.033C-0.244,-3.233 0.204,-2.806 0.691,-2.192C1.326,-1.391 1.92,-0.541 2.938,-0.238C4.521,0.234 7.108,0.069 8.277,-1.208C8.477,-1.427 8.217,-1.813 7.947,-1.636C6.832,-0.9 5.748,-0.708 4.432,-0.713C3.508,-0.717 2.927,-0.723 2.052,-1.402C1.496,-1.834 0.196,-3.28 0.367,-3.932C0.43,-4.17 0.071,-4.267 0,-4.033" style="fill:rgb(35,31,32);fill-rule:nonzero;"/>
            </g>
            <g transform="matrix(4.16667,0,0,4.16667,1118.23,2811.49)">
                <path d="M0,-1.245C-0.046,-0.741 0.595,-0.362 0.99,-0.192C1.562,0.054 2.188,0.126 2.802,0.181C3.245,0.22 3.251,-0.489 2.802,-0.515C2.307,-0.543 1.802,-0.583 1.33,-0.746C1.109,-0.822 0.903,-0.931 0.717,-1.071C0.539,-1.206 0.446,-1.349 0.233,-1.422C0.11,-1.465 0.01,-1.355 0,-1.245" style="fill:rgb(35,31,32);fill-rule:nonzero;"/>
            </g>
            <g transform="matrix(4.16667,0,0,4.16667,1077.87,2728.68)">
                <path d="M0,-1.921C-0.706,-1.793 -1.36,-1.376 -2.052,-1.166C-2.716,-0.964 -3.412,-0.824 -4.032,-0.506C-4.298,-0.37 -4.108,0.024 -3.834,-0.038C-3.089,-0.209 -2.332,-0.475 -1.608,-0.725C-0.989,-0.939 -0.293,-1.182 0.128,-1.702C0.211,-1.805 0.134,-1.945 0,-1.921" style="fill:rgb(35,31,32);fill-rule:nonzero;"/>
            </g>
            <g transform="matrix(4.16667,0,0,4.16667,937.699,2735.55)">
                <path d="M0,14.662C-2.5,12.776 -5.542,9.803 -4.276,6.089C-3.202,2.935 0.236,2.137 3.019,1.507C6.771,0.658 11.492,0.131 15.038,1.593C16.475,2.185 17.165,2.91 18.834,3.17C23.499,3.897 27.348,3.12 31.442,6.314C31.804,6.597 32.318,6.09 31.952,5.804C27.404,2.25 22.855,3.805 17.766,2.268C15.843,1.687 14.75,0.204 12.741,-0.116C10.209,-0.52 7.043,0.098 4.54,0.492C0.514,1.127 -4.856,2.275 -5.22,7.206C-5.479,10.719 -3.047,13.362 -0.219,15.036C0.028,15.182 0.216,14.825 0,14.662" style="fill:rgb(35,31,32);fill-rule:nonzero;"/>
            </g>
            <g transform="matrix(-2.23933,3.51376,3.51376,2.23933,1107.35,2769.79)">
                <path d="M2.775,-5.264C3.062,-3.104 3.454,-0.872 3.358,1.313C3.342,1.691 2.769,1.667 2.775,1.291C2.808,-0.893 2.456,-3.049 2.354,-5.226C2.342,-5.466 2.743,-5.505 2.775,-5.264" style="fill:rgb(35,31,32);fill-rule:nonzero;"/>
            </g>
            <g transform="matrix(4.16667,0,0,4.16667,977.773,2777.6)">
                <path d="M0,-10.368C-3.076,-7.46 -5.219,-4.432 -6.133,-0.265C-6.204,0.055 -5.735,0.188 -5.64,-0.13C-5.078,-1.994 -4.634,-3.868 -3.56,-5.525C-2.498,-7.163 -1.084,-8.696 0.301,-10.067C0.497,-10.26 0.199,-10.556 0,-10.368" style="fill:rgb(35,31,32);fill-rule:nonzero;"/>
            </g>
            <g transform="matrix(4.16667,0,0,4.16667,955.828,2749.94)">
                <path d="M0,5.784C2.446,7.395 5.708,8.028 8.609,7.832C10.508,7.704 13.817,6.988 14.703,4.949C15.583,2.924 13.867,0.552 12.362,-0.561C10.196,-2.162 7.159,-2.949 4.496,-2.638C4.197,-2.604 4.179,-2.165 4.496,-2.159C6.511,-2.12 8.517,-1.779 10.351,-0.907C12.575,0.151 15.753,3.008 13.291,5.49C10.073,8.733 3.753,7.029 0.166,5.501C-0.024,5.42 -0.181,5.665 0,5.784" style="fill:rgb(35,31,32);fill-rule:nonzero;"/>
            </g>
            <g transform="matrix(4.16667,0,0,4.16667,922.603,2853.82)">
                <path d="M0,-17.038C-3.568,-11.704 -2.478,-9.062 2.226,-5.506C9.121,-0.291 17.997,0.24 26.255,-1.046C26.646,-1.107 26.48,-1.702 26.091,-1.642C18.521,-0.462 10.479,-0.775 3.858,-5.049C2.206,-6.115 0.579,-7.424 -0.649,-8.979C-2.696,-11.573 -1.336,-14.035 0.391,-16.809C0.546,-17.059 0.161,-17.278 0,-17.038" style="fill:rgb(35,31,32);fill-rule:nonzero;"/>
            </g>
            <g transform="matrix(4.16667,0,0,4.16667,1027.34,2748.06)">
                <path d="M0,-8.278C0.155,-6.559 -0.037,-5.094 -1.038,-3.637C-1.783,-2.552 -2.696,-1.604 -3.41,-0.494C-3.625,-0.159 -3.088,0.154 -2.877,-0.182C-1.288,-2.718 1.368,-5.006 0.238,-8.311C0.197,-8.432 -0.013,-8.423 0,-8.278" style="fill:rgb(35,31,32);fill-rule:nonzero;"/>
            </g>
            <g transform="matrix(4.16667,0,0,4.16667,890.116,2759.82)">
                <path d="M0,-2.004C-3.072,-5.624 -8.036,0.155 -8.547,3.146C-8.603,3.476 -8.099,3.62 -8.041,3.286C-7.745,1.6 -6.751,0.08 -5.467,-1.034C-3.812,-2.47 -2.147,-2.781 -0.207,-1.736C-0.031,-1.642 0.124,-1.858 0,-2.004" style="fill:rgb(35,31,32);fill-rule:nonzero;"/>
            </g>
            <g transform="matrix(4.16667,0,0,4.16667,855.533,2755.42)">
                <path d="M0,4.112C0.551,5.15 2.539,5.133 3.518,5.082C5.153,4.995 6.826,4.584 8.298,3.863C9.201,3.421 10.467,2.681 10.573,1.551C10.699,0.201 9.135,-0.496 8.116,-0.913C7.809,-1.038 7.583,-0.508 7.889,-0.373C8.786,0.022 10.416,0.751 9.778,1.973C9.277,2.934 7.784,3.492 6.844,3.822C5.653,4.239 4.385,4.502 3.122,4.529C1.979,4.553 1.229,4.238 0.222,3.822C0.052,3.752 -0.072,3.975 0,4.112" style="fill:rgb(35,31,32);fill-rule:nonzero;"/>
            </g>
            <g transform="matrix(4.16667,0,0,4.16667,910.17,2855.24)">
                <path d="M0,-4C-0.961,-2.082 0.322,0.88 2.333,1.699C3.672,2.244 6.593,2.297 7.546,0.997C8.037,0.327 8.188,-0.719 7.653,-1.399C7.382,-1.744 7.044,-1.822 6.69,-2.052C5.728,-2.678 5.757,-3.226 5.314,-4.088C4.179,-6.297 1.241,-5.795 0.012,-4.018C-0.103,-3.851 0.167,-3.638 0.296,-3.799C1.096,-4.799 2.222,-5.318 3.478,-4.865C4.5,-4.498 4.771,-3.713 5.186,-2.802C5.376,-2.385 5.559,-2.017 5.935,-1.742C6.184,-1.559 6.505,-1.559 6.757,-1.396C7.597,-0.855 7.566,0.22 6.927,0.858C6.083,1.702 4.03,1.527 2.951,1.29C0.999,0.862 -0.462,-1.976 0.385,-3.774C0.506,-4.031 0.129,-4.259 0,-4" style="fill:rgb(35,31,32);fill-rule:nonzero;"/>
            </g>
            <g transform="matrix(4.16667,0,0,4.16667,792.185,2768.08)">
                <path d="M0,-5.897C-1.057,-4.038 -2.833,-3.497 -4.816,-3.199C-5.443,-3.105 -6.694,-3.138 -7.124,-2.529C-8.218,-0.974 -4.73,0.16 -3.778,0.235C-1.754,0.396 1.023,-0.38 1.842,-2.462C2.193,-3.356 2.104,-4.574 1.483,-5.332C1.046,-5.865 0.287,-6.293 -0.137,-5.566C-0.234,-5.399 -0.039,-5.202 0.128,-5.301C1.667,-6.215 1.444,-2.685 1.149,-2.195C0.665,-1.388 -0.229,-0.88 -1.092,-0.571C-2.572,-0.042 -5.251,0.166 -6.363,-1.252C-7.192,-2.31 -6.39,-2.541 -5.452,-2.698C-4.704,-2.825 -3.95,-2.893 -3.214,-3.086C-1.665,-3.494 -0.479,-4.306 0.3,-5.721C0.408,-5.918 0.111,-6.092 0,-5.897" style="fill:rgb(35,31,32);fill-rule:nonzero;"/>
            </g>
            <g transform="matrix(2.77613,3.10713,3.10713,-2.77613,1053.64,2850.94)">
                <path d="M3.137,-1.127C0.868,1.056 0.908,4.52 3.376,6.535C3.59,6.71 3.374,7.071 3.137,6.904C0.437,5.014 0.244,0.632 2.91,-1.381C3.083,-1.513 3.298,-1.282 3.137,-1.127" style="fill:rgb(35,31,32);fill-rule:nonzero;"/>
            </g>
            <g transform="matrix(4.16667,0,0,4.16667,1057.65,2845.48)">
                <path d="M0,4.799C2.038,5.89 4.542,4.896 6.09,3.38C6.849,2.637 7.46,1.676 7.598,0.606C7.644,0.245 7.701,-0.084 7.444,-0.365C7.152,-0.684 6.566,-0.496 6.362,-0.916C6.276,-1.091 5.982,-1.049 5.942,-0.861C5.855,-0.455 5.954,-0.416 6.243,-0.157C6.753,0.298 7.016,-0.129 6.937,0.835C6.897,1.32 6.558,1.843 6.282,2.233C5.041,3.978 2.354,5.368 0.278,4.323C-0.037,4.164 -0.314,4.631 0,4.799" style="fill:rgb(35,31,32);fill-rule:nonzero;"/>
            </g>
            <g transform="matrix(3.05788,-2.83028,-2.83028,-3.05788,840.198,2756)">
                <path d="M-2.163,-0.616C0.003,0.741 0.125,4.198 -1.864,5.767C-2.084,5.94 -2.37,5.643 -2.163,5.444C-0.402,3.752 -0.562,1.224 -2.378,-0.354C-2.525,-0.483 -2.322,-0.715 -2.163,-0.616" style="fill:rgb(35,31,32);fill-rule:nonzero;"/>
            </g>
            <g transform="matrix(4.16667,0,0,4.16667,834.183,2747.87)">
                <path d="M0,3.679C-1.607,4.186 -3.375,2.924 -4.114,1.549C-4.302,1.2 -4.458,0.811 -4.488,0.411C-4.503,0.215 -4.571,-0.095 -4.38,-0.242C-4.312,-0.295 -4.136,-0.218 -4.056,-0.261C-3.741,-0.435 -3.462,-0.435 -3.571,-0.896C-3.609,-1.058 -3.842,-1.125 -3.955,-0.997C-4.379,-0.519 -4.959,-1.067 -5.102,-0.185C-5.245,0.7 -4.831,1.644 -4.324,2.342C-3.348,3.686 -1.541,4.804 0.146,4.21C0.478,4.094 0.342,3.571 0,3.679" style="fill:rgb(35,31,32);fill-rule:nonzero;"/>
            </g>
            <g transform="matrix(-0.451636,4.14212,4.14212,0.451636,1052.37,2830.02)">
                <path d="M3.625,-4.007C4.681,-1.829 4.71,0.935 4.311,3.283C4.234,3.73 3.633,3.643 3.625,3.208C3.584,0.79 3.846,-1.382 2.948,-3.703C2.777,-4.148 3.416,-4.438 3.625,-4.007" style="fill:rgb(35,31,32);fill-rule:nonzero;"/>
            </g>
            <g transform="matrix(4.16667,0,0,4.16667,1111.75,2826.45)">
                <path d="M0,1.827C-2.719,-1.453 -7.08,-3.142 -11.318,-2.764C-12.467,-2.661 -13.736,-2.642 -14.012,-1.37C-14.119,-0.876 -13.581,0.044 -13.424,0.426C-12.841,1.845 -12.266,3.283 -11.538,4.632C-11.355,4.969 -10.796,4.74 -10.914,4.369C-11.333,3.046 -12.486,1.434 -12.626,0.09C-12.746,-0.194 -12.866,-0.478 -12.985,-0.762C-12.434,-1.536 -11.749,-1.915 -10.932,-1.899C-10.334,-2.001 -9.589,-1.933 -8.999,-1.887C-5.663,-1.627 -2.752,-0.077 -0.273,2.101C-0.084,2.267 0.158,2.018 0,1.827" style="fill:rgb(35,31,32);fill-rule:nonzero;"/>
            </g>
            <g transform="matrix(4.16667,0,0,4.16667,1084.77,2865.2)">
                <path d="M0,-2.181C1.535,-1.281 3.663,0.426 5.539,-0.666C5.767,-0.799 5.652,-1.119 5.412,-1.137C4.123,-1.232 3.076,-0.981 1.873,-1.705C1.271,-2.07 0.781,-2.607 0.039,-2.475C-0.103,-2.45 -0.112,-2.246 0,-2.181" style="fill:rgb(35,31,32);fill-rule:nonzero;"/>
            </g>
            <g transform="matrix(4.16667,0,0,4.16667,1110.98,2875.31)">
                <path d="M0,-9.711C0.114,-8.088 0.092,-6.523 -0.35,-4.941C-0.575,-4.136 -0.881,-3.357 -1.281,-2.621C-1.495,-2.226 -2.881,-0.63 -2.549,-0.352C-2.846,-0.601 -3.273,-0.295 -3.09,0.065C-3.08,0.085 -3.07,0.104 -3.061,0.124C-2.982,0.279 -2.809,0.31 -2.656,0.288C-1.488,0.132 -0.354,-2.744 -0.014,-3.652C0.717,-5.607 0.927,-7.733 0.451,-9.773C0.393,-10.021 -0.019,-9.972 0,-9.711" style="fill:rgb(35,31,32);fill-rule:nonzero;"/>
            </g>
            <g transform="matrix(4.16667,0,0,4.16667,1110.56,2839.15)">
                <path d="M0,-0.783C0.31,-0.643 0.623,-0.642 0.95,-0.556C1.446,-0.427 1.903,-0.183 2.367,0.027C3.074,0.348 3.735,0.62 4.524,0.548C5.019,0.502 5.018,-0.279 4.524,-0.226C3.579,-0.126 2.781,-0.528 1.925,-0.86C1.352,-1.083 0.569,-1.403 0,-1.043C-0.087,-0.988 -0.109,-0.832 0,-0.783" style="fill:rgb(35,31,32);fill-rule:nonzero;"/>
            </g>
            <g transform="matrix(-3.87593,-1.52914,-1.52914,3.87593,1002.58,2875.71)">
                <path d="M-1.873,-7.813C-1.742,-5.182 -1.659,-2.675 -1.16,-0.076C-1.07,0.386 -1.766,0.48 -1.873,0.034C-2.469,-2.444 -2.757,-5.283 -2.264,-7.805C-2.224,-8.006 -1.886,-8.052 -1.873,-7.813" style="fill:rgb(35,31,32);fill-rule:nonzero;"/>
            </g>
        </g>
    </g>
    <defs>
        <linearGradient id="_Linear1" x1="0" y1="0" x2="1" y2="0" gradientUnits="userSpaceOnUse" gradientTransform="matrix(1,0,0,-1,0,-0.00477439)"><stop offset="0" style="stop-color:rgb(223,204,228);stop-opacity:1"/><stop offset="0" style="stop-color:rgb(223,204,228);stop-opacity:1"/><stop offset="1" style="stop-color:rgb(255,229,203);stop-opacity:1"/></linearGradient>
    </defs>
</svg>
