<?xml version="1.0" encoding="UTF-8" standalone="no"?>
<!DOCTYPE svg PUBLIC "-//W3C//DTD SVG 1.1//EN" "http://www.w3.org/Graphics/SVG/1.1/DTD/svg11.dtd">
<svg width="100%" height="100%" viewBox="0 0 481 385" version="1.1" xmlns="http://www.w3.org/2000/svg" xmlns:xlink="http://www.w3.org/1999/xlink" xml:space="preserve" xmlns:serif="http://www.serif.com/" style="fill-rule:evenodd;clip-rule:evenodd;stroke-miterlimit:10;">
    <g transform="matrix(1,0,0,1,-1188,-1839)">
        <g transform="matrix(1,0,0,1,0,-712.392)">
            <g transform="matrix(0,-337.573,-337.573,0,1428.57,2912.65)">
                <path d="M1,0.573C1,0.606 0.985,0.623 0.957,0.623C0.946,0.623 0.794,0.626 0.618,0.63C0.377,0.636 0.102,0.642 0.075,0.642C0.026,0.642 0,0.605 0,0.535L0,-0.631C0,-0.637 0.001,-0.64 0.002,-0.641C0.003,-0.642 0.003,-0.642 0.003,-0.642C0.006,-0.642 0.011,-0.637 0.011,-0.629L0.011,0.538C0.011,0.587 0.034,0.619 0.067,0.619C0.092,0.619 0.11,0.587 0.11,0.541L0.11,-0.598C0.11,-0.636 0.111,-0.641 0.131,-0.641C0.168,-0.641 0.909,-0.628 0.944,-0.626C0.949,-0.626 0.954,-0.626 0.959,-0.625C0.989,-0.624 1,-0.623 1,-0.613L1,0.573Z" style="fill:url(#_Linear1);fill-rule:nonzero;"/>
            </g>
            <g transform="matrix(4.16667,0,0,4.16667,1641.91,2879.36)">
                <path d="M0,6.099C-0.078,6.091 -0.154,6.078 -0.233,6.078L-94.754,6.078C-98.123,6.078 -100.387,4.671 -100.387,2.577C-100.387,1.164 -98.093,0.099 -95.051,0.099L-2.758,0.099C-1.809,0.099 -1.001,0.097 -0.342,0C-1.407,1.72 -0.849,4.288 0,6.099" style="fill:rgb(255,229,203);fill-rule:nonzero;"/>
            </g>
            <g transform="matrix(0,-42.2784,-42.2784,0,1275.52,2844.71)">
                <path d="M0.957,-0.192C0.946,-0.187 0.936,-0.182 0.926,-0.176C0.916,-0.181 0.903,-0.179 0.896,-0.166C0.87,-0.119 0.815,-0.025 0.822,0.03C0.828,0.082 0.881,0.138 0.913,0.176C0.919,0.183 0.926,0.186 0.932,0.185C0.939,0.272 0.959,0.358 0.957,0.445C0.956,0.501 0.948,0.523 0.917,0.562C0.885,0.603 0.838,0.634 0.804,0.675C0.8,0.68 0.799,0.687 0.798,0.693C0.791,0.697 0.784,0.704 0.786,0.715C0.792,0.781 0.815,0.844 0.828,0.91C0.841,0.98 0.851,1.051 0.858,1.122C0.811,1.103 0.761,1.092 0.713,1.079C0.657,1.064 0.595,1.043 0.536,1.049C0.529,1.049 0.513,1.057 0.5,1.066C0.498,1.065 0.497,1.062 0.494,1.061C0.237,0.975 0.094,0.649 0.035,0.403C-0.029,0.131 0.008,-0.094 0.038,-0.358C0.192,-0.147 0.378,0.044 0.589,0.203C0.6,0.211 0.611,0.204 0.615,0.194C0.62,0.193 0.625,0.19 0.628,0.184C0.723,0.025 0.705,-0.129 0.626,-0.294C0.505,-0.548 0.383,-0.607 0.389,-0.937C0.389,-0.944 0.39,-0.951 0.39,-0.958C0.391,-0.959 0.393,-0.958 0.394,-0.959C0.422,-0.996 0.452,-1.033 0.484,-1.066C0.505,-1.086 0.527,-1.104 0.55,-1.122C0.552,-1.104 0.555,-1.086 0.558,-1.069C0.623,-0.712 0.791,-0.461 1,-0.214C0.986,-0.206 0.972,-0.198 0.957,-0.192Z" style="fill:url(#_Linear2);fill-rule:nonzero;"/>
            </g>
            <g transform="matrix(4.16667,0,0,4.16667,1349.43,2831.21)">
                <path d="M0,-1.578C-0.074,-1.356 -0.195,-1.286 -0.248,-1.068C-0.275,-0.953 -0.295,-0.835 -0.31,-0.717C-0.342,-0.444 -0.357,-0.164 -0.351,0.112C-0.895,-0.001 -1.369,-0.219 -1.874,-0.41C-1.808,-0.843 -1.749,-1.265 -1.62,-1.69C-1.081,-1.64 -0.54,-1.607 0.002,-1.579C0.001,-1.578 0,-1.579 0,-1.578" style="fill:rgb(255,226,146);fill-rule:nonzero;"/>
            </g>
            <g transform="matrix(0,-41.4497,-41.4497,0,1329.19,2859.01)">
                <path d="M0.954,1.457C0.062,0.777 -0.357,-0.505 0.374,-1.457C0.564,-1.337 0.706,-1.149 0.667,-0.916C0.647,-0.797 0.601,-0.686 0.577,-0.568C0.544,-0.405 0.627,-0.313 0.704,-0.175C0.699,-0.169 0.695,-0.161 0.695,-0.15C0.698,-0.06 0.688,0.038 0.677,0.138C0.661,0.294 0.644,0.454 0.681,0.591C0.75,0.847 1,1.003 1,1.259C1,1.319 0.986,1.384 0.954,1.457Z" style="fill:url(#_Linear3);fill-rule:nonzero;"/>
            </g>
            <g transform="matrix(4.16667,0,0,4.16667,1427.57,2829.83)">
                <path d="M0,-1.861C-0.225,-2.088 -0.541,-2.263 -0.9,-2.37C-2.955,-2.978 -5.183,-1.978 -6.678,-0.594C-6.994,-0.3 -6.521,0.168 -6.204,-0.122C-5.397,-0.859 -4.444,-1.422 -3.373,-1.674C-2.811,-1.806 -0.369,-2.088 -0.406,-1.059C-0.441,-0.085 -2.632,0.201 -3.317,0.359C-4.965,0.74 -7.676,0.951 -8.708,2.531C-8.961,2.13 -9.231,1.764 -9.516,1.422C-9.364,0.214 -10.09,-1.26 -11.113,-1.882C-11.14,-1.898 -11.169,-1.898 -11.197,-1.896C-10.943,-1.964 -10.683,-2.013 -10.433,-2.091C-10.172,-2.173 -9.938,-2.281 -9.688,-2.374C-9.134,-1.789 -8.578,-1.205 -8.023,-0.62C-7.73,-0.311 -7.254,-0.786 -7.556,-1.089C-7.557,-1.089 -7.558,-1.09 -7.559,-1.09C-6.646,-1.688 -5.903,-2.689 -4.983,-3.291C-3.919,-3.986 -2.859,-4.392 -1.706,-4.267C-2.751,-3.961 -3.777,-3.437 -4.67,-2.97C-5.053,-2.77 -4.715,-2.199 -4.333,-2.392C-3.268,-2.931 -2.137,-3.421 -0.968,-3.679C-0.637,-3.753 0.178,-3.972 0.468,-3.673C0.873,-3.255 0.2,-2.243 0,-1.861" style="fill:rgb(255,226,146);fill-rule:nonzero;"/>
            </g>
            <g transform="matrix(0,-49.4727,-49.4727,0,1444.65,2817.66)">
                <path d="M0.91,0.382C0.91,0.383 0.91,0.384 0.91,0.385C0.59,0.454 0.301,0.606 0.107,0.872C0.106,0.868 0.105,0.863 0.103,0.858C0.099,0.834 0.097,0.81 0.091,0.787C0.09,0.784 0.088,0.783 0.086,0.781C0.097,0.764 0.106,0.747 0.115,0.732C0.175,0.622 0.205,0.493 0.139,0.379C0.138,0.377 0.136,0.375 0.134,0.374C0.135,0.366 0.136,0.358 0.136,0.35C0.135,0.249 0.071,0.229 -0,0.243C-0,-0.036 0.054,-0.274 0.136,-0.542C0.141,-0.542 0.147,-0.544 0.15,-0.55C0.199,-0.664 0.261,-0.765 0.342,-0.856C0.354,-0.817 0.374,-0.775 0.408,-0.773C0.423,-0.773 0.43,-0.783 0.442,-0.791C0.477,-0.816 0.506,-0.847 0.541,-0.872C0.544,-0.856 0.547,-0.839 0.55,-0.823C0.552,-0.81 0.561,-0.804 0.57,-0.803C0.577,-0.789 0.584,-0.782 0.603,-0.767C0.646,-0.732 0.664,-0.716 0.674,-0.656C0.691,-0.552 0.686,-0.441 0.686,-0.335C0.67,-0.344 0.65,-0.322 0.66,-0.307C0.703,-0.243 0.762,-0.209 0.829,-0.175C0.882,-0.147 0.913,-0.132 0.899,-0.065C0.892,-0.03 0.885,0.006 0.886,0.042C0.886,0.044 0.884,0.045 0.884,0.047C0.884,0.076 0.912,0.104 0.931,0.123C0.943,0.134 0.956,0.145 0.969,0.154C0.981,0.162 0.992,0.168 0.998,0.181C0.999,0.182 0.999,0.182 1,0.182C0.95,0.239 0.916,0.307 0.91,0.382Z" style="fill:url(#_Linear4);fill-rule:nonzero;"/>
            </g>
            <g transform="matrix(4.16667,0,0,4.16667,1477.1,2767.45)">
                <path d="M0,-19.941C0.824,-19.773 2.268,-19.443 2.555,-18.5C2.956,-17.184 0.875,-15.891 0.063,-15.306C-0.159,-15.145 -0.103,-14.852 0.062,-14.73C0.698,-12.093 -1.65,-9.041 -4.406,-9.401C-4.407,-9.406 -4.407,-9.411 -4.408,-9.416C-4.461,-9.777 -5.098,-9.695 -5.051,-9.329C-5.041,-9.245 -5.047,-9.163 -5.041,-9.079C-5.041,-9.071 -5.041,-9.063 -5.04,-9.055C-4.973,-8.06 -5.206,-7.083 -5.852,-6.293C-6.611,-5.363 -7.554,-5.145 -8.652,-4.859C-8.669,-4.855 -8.672,-4.841 -8.686,-4.836C-8.74,-4.82 -8.785,-4.79 -8.818,-4.743C-8.837,-4.717 -8.841,-4.691 -8.849,-4.662C-8.854,-4.64 -8.872,-4.627 -8.872,-4.602C-8.849,-3.404 -8.922,-2.282 -9.636,-1.263C-10.306,-0.306 -11.179,0.069 -12.191,0.47C-11.613,-2.761 -11.711,-6.206 -12.269,-9.408C-11.15,-10.036 -10.164,-10.955 -9.408,-12.099C-9.39,-12.128 -9.384,-12.154 -9.374,-12.182C-8.91,-12.165 -8.443,-12.172 -7.976,-12.217C-6.895,-12.32 -5.542,-12.429 -4.855,-13.34C-4.778,-13.37 -4.715,-13.434 -4.717,-13.537C-4.738,-14.812 -5.497,-15.913 -6.247,-16.898C-6.514,-17.249 -6.796,-17.632 -7.114,-17.971C-7.044,-18.434 -6.993,-18.893 -6.96,-19.35C-4.774,-20.193 -2.298,-20.411 0,-19.941" style="fill:rgb(253,186,17);fill-rule:nonzero;"/>
            </g>
            <g transform="matrix(4.16667,0,0,4.16667,1425.01,2693.67)">
                <path d="M0,4.006C0.297,2.068 2.317,-1.45 4.641,0.369C5.777,1.258 6.436,2.716 7.163,3.948C7.156,3.953 7.147,3.955 7.141,3.962C5.506,5.456 2.088,4.88 0.072,4.306C0.072,4.302 0.073,4.298 0.074,4.295C0.093,4.187 0.056,4.089 0,4.006" style="fill:rgb(255,226,146);fill-rule:nonzero;"/>
            </g>
            <g transform="matrix(4.16667,0,0,4.16667,1259.43,2676.27)">
                <path d="M0,24.475C0.049,24.113 0.48,23.611 0.638,23.265C0.715,23.096 0.649,22.945 0.537,22.863C0.552,22.712 0.484,22.558 0.294,22.51C-0.615,22.284 -2.153,21.9 -1.784,20.681C-1.526,19.831 -1.033,19.193 -0.507,18.498C-0.471,18.451 -0.456,18.404 -0.451,18.358C-0.395,18.207 -0.43,18.027 -0.648,17.959C-2.094,17.511 -1.194,15.892 -0.19,15.598C0.193,15.486 0.604,15.459 0.997,15.393C1.957,15.232 2.908,15.004 3.814,14.646C3.871,14.624 3.912,14.59 3.946,14.551C4.04,15.118 4.243,15.663 4.531,16.098C4.984,16.78 5.657,17.29 6.41,17.601C6.773,17.75 7.151,17.852 7.54,17.908C7.824,17.949 8.874,17.79 9.203,17.911C8.991,21.651 15.778,20.747 17.786,20.186C18.187,20.074 18.017,19.45 17.613,19.561C16.157,19.964 14.686,20.022 13.183,20.007C11.351,19.99 10.59,19.389 9.676,18.072C9.821,18.011 9.919,17.848 9.822,17.651C9.624,17.246 9.357,17.241 8.931,17.249C7.961,17.267 7.128,17.305 6.229,16.802C4.263,15.701 4.305,13.746 5.07,11.923C5.094,11.869 5.083,11.826 5.06,11.789C5.112,11.574 4.958,11.312 4.693,11.408C0.972,12.744 -2.454,8.312 -0.408,4.968C-0.274,4.749 -0.452,4.547 -0.648,4.524C-4.354,-1.508 7.354,-1.009 10.586,-0.567C16.347,0.223 23.215,2.43 26.232,7.815C26.353,8.03 26.654,7.842 26.557,7.626C25.03,4.257 21.992,1.999 18.477,0.547C18.504,0.527 18.532,0.507 18.546,0.468C20.931,-6.187 25.688,-10.624 33.181,-10.307C41.05,-9.975 45.256,-4.222 44.408,3.301C44.038,3.065 43.622,2.922 43.139,2.947C40.593,3.079 38.9,6.274 38.804,8.484C38.792,8.736 39.004,8.901 39.231,8.918C39.253,8.934 39.273,8.952 39.302,8.963C40.216,9.323 41.168,9.54 42.134,9.642C40.092,12.22 37.112,13.574 33.831,12.442C33.597,12.361 33.428,12.749 33.66,12.848C35.571,13.654 37.548,13.568 39.277,12.817C39.795,17.529 40.488,22.228 38.043,26.606C35.543,31.079 31.7,33.969 26.558,34.61C22.637,35.099 18.052,34.775 14.179,33.933C9.446,32.904 6.557,29.857 3.055,26.763C3.028,26.676 2.977,26.597 2.865,26.567C2.046,26.342 1.299,26.171 0.618,25.622C0.248,25.324 -0.07,25.008 0,24.475" style="fill:rgb(255,194,13);fill-rule:nonzero;"/>
            </g>
            <g transform="matrix(0,-23.8336,-23.8336,0,1456.37,2847.82)">
                <path d="M0.681,0.188C0.682,0.191 0.684,0.191 0.685,0.194C0.678,0.198 0.67,0.202 0.665,0.211C0.425,0.645 0.444,1.199 0.204,1.622C0.258,1.315 0.153,1.058 0.067,0.756C-0.103,0.155 0.068,-0.317 0.363,-0.84C0.372,-0.857 0.373,-0.873 0.371,-0.888C0.374,-0.901 0.373,-0.916 0.363,-0.93C0.289,-1.031 0.237,-1.228 0.271,-1.354C0.298,-1.455 0.379,-1.546 0.458,-1.622C0.485,-1.558 0.521,-1.496 0.549,-1.435C0.587,-1.351 0.62,-1.266 0.659,-1.182C0.657,-1.179 0.654,-1.176 0.653,-1.173C0.645,-1.143 0.668,-1.118 0.696,-1.116C0.701,-1.116 0.706,-1.118 0.711,-1.118C0.718,-1.118 0.726,-1.118 0.733,-1.122C0.787,-1.137 0.837,-1.185 0.883,-1.214C0.921,-1.238 0.961,-1.259 1,-1.281C0.766,-0.825 0.567,-0.33 0.681,0.188Z" style="fill:url(#_Linear5);fill-rule:nonzero;"/>
            </g>
            <g transform="matrix(4.16667,0,0,4.16667,0,0)">
                <g opacity="0.35">
                    <g transform="matrix(1,0,0,1,357.058,651.256)">
                        <path d="M0,-5.568C-0.287,-6.511 -1.73,-6.84 -2.555,-7.009C-4.853,-7.479 -7.329,-7.261 -9.515,-6.418C-9.548,-5.961 -9.599,-5.502 -9.669,-5.039C-9.351,-4.7 -9.068,-4.317 -8.802,-3.966C-8.728,-3.869 -8.654,-3.771 -8.582,-3.672C-7.852,-4.026 -7.052,-4.267 -6.251,-4.372C-5.534,-4.466 -4.673,-4.478 -4.059,-4.033C-3.779,-3.831 -3.584,-3.543 -3.491,-3.21C-3.361,-2.746 -3.448,-2.311 -3.671,-1.89C-3.912,-1.436 -4.254,-1.044 -4.508,-0.598C-4.619,-0.401 -4.722,-0.184 -4.738,0.045C-4.755,0.27 -4.687,0.494 -4.58,0.689C-4.339,1.129 -3.932,1.463 -3.553,1.78C-3.501,1.823 -3.449,1.869 -3.397,1.911C-2.585,0.872 -2.182,-0.511 -2.492,-1.797C-2.657,-1.92 -2.714,-2.213 -2.491,-2.374C-1.68,-2.959 0.401,-4.252 0,-5.568" style="fill:white;fill-rule:nonzero;"/>
                    </g>
                </g>
            </g>
            <g transform="matrix(4.16667,0,0,4.16667,0,0)">
                <g opacity="0.35">
                    <g transform="matrix(1,0,0,1,301.854,645.395)">
                        <path d="M0,1.878C-0.933,3.403 -0.721,5.149 0.131,6.476C0.257,6.233 0.398,5.999 0.548,5.778C0.873,5.295 1.24,4.841 1.599,4.382C1.953,3.929 2.305,3.484 2.411,2.904C2.605,1.838 2.095,0.67 2.784,-0.289C3.357,-1.086 4.355,-1.352 5.28,-1.479C6.36,-1.627 7.463,-1.597 8.548,-1.52C9.531,-1.451 10.51,-1.33 11.487,-1.21C12.093,-1.136 12.699,-1.083 13.302,-0.981C13.962,-0.869 14.615,-0.72 15.259,-0.539C16.517,-0.184 17.735,0.296 18.929,0.827C21.361,1.909 23.709,3.177 26.227,4.064C23.032,-0.837 16.511,-2.901 10.994,-3.657C7.762,-4.1 -3.945,-4.598 -0.24,1.434C-0.044,1.457 0.134,1.659 0,1.878" style="fill:white;fill-rule:nonzero;"/>
                    </g>
                </g>
            </g>
            <g transform="matrix(4.16667,0,0,4.16667,0,0)">
                <g opacity="0.35">
                    <g transform="matrix(1,0,0,1,334.795,670.85)">
                        <path d="M0,-14.01C-0.002,-14.01 -0.003,-14.012 -0.006,-14.012C-0.105,-14.036 -0.202,-14.071 -0.304,-14.09C-1.647,-14.341 -3.093,-14.256 -4.415,-13.924C-5.662,-13.61 -7.03,-12.994 -7.625,-11.778C-7.907,-11.199 -8.019,-10.438 -7.755,-9.833C-7.514,-9.279 -6.948,-9.065 -6.397,-8.947C-5.798,-8.818 -5.171,-8.783 -4.594,-8.565C-4.322,-8.462 -4.064,-8.317 -3.861,-8.105C-3.731,-7.968 -3.61,-7.806 -3.57,-7.619C-3.528,-7.423 -3.572,-7.227 -3.635,-7.04C-3.697,-6.849 -3.783,-6.654 -3.77,-6.45C-3.756,-6.243 -3.604,-6.048 -3.492,-5.88C-3.334,-5.64 -3.135,-5.487 -2.892,-5.341C-2.493,-5.099 -2.103,-4.852 -1.721,-4.587C-1.448,-4.396 -1.174,-4.203 -0.933,-3.973C-0.574,-3.634 -0.4,-3.224 -0.301,-2.748C-0.23,-2.409 -0.178,-2.065 -0.115,-1.725C-0.036,-1.293 0.032,-0.848 0.197,-0.439C0.3,-0.184 0.453,0.073 0.704,0.204C0.945,0.331 1.232,0.303 1.486,0.237C1.903,0.127 2.291,-0.084 2.66,-0.302C3.051,-0.531 3.391,-0.815 3.691,-1.154C4.887,-2.504 5.293,-4.406 5.42,-6.155C5.484,-7.043 5.475,-7.935 5.412,-8.823C5.348,-9.739 5.106,-10.605 4.624,-11.391C3.743,-12.824 2.227,-13.784 0.567,-13.97C0.559,-13.917 0.517,-13.871 0.451,-13.894C0.306,-13.945 0.154,-13.973 0.005,-14.01L0,-14.01" style="fill:white;fill-rule:nonzero;"/>
                    </g>
                </g>
            </g>
            <g transform="matrix(4.16667,0,0,4.16667,0,0)">
                <g opacity="0.35">
                    <g transform="matrix(1,0,0,1,301.526,656.974)">
                        <path d="M0,6.701C0.483,6.556 0.917,6.285 1.35,6.034C1.758,5.798 2.175,5.579 2.602,5.379C2.907,5.236 3.22,5.122 3.551,5.057C4.382,4.895 5.237,4.906 6.077,4.816C6.845,4.733 7.647,4.595 8.33,4.213C8.642,4.039 8.926,3.807 9.132,3.513C9.199,3.417 9.239,3.306 9.29,3.201C8.89,3.217 8.446,3.263 8.276,3.238C7.888,3.182 7.51,3.081 7.146,2.931C6.394,2.62 5.721,2.11 5.268,1.429C4.979,0.994 4.776,0.448 4.683,-0.119C4.648,-0.08 4.607,-0.045 4.551,-0.023C3.645,0.334 2.693,0.563 1.733,0.723C1.341,0.789 0.93,0.816 0.546,0.929C-0.458,1.222 -1.357,2.842 0.088,3.29C0.307,3.357 0.342,3.538 0.285,3.688C0.28,3.734 0.266,3.781 0.229,3.829C-0.297,4.523 -0.79,5.162 -1.048,6.012C-1.144,6.329 -1.107,6.587 -0.989,6.803C-0.657,6.82 -0.325,6.799 0,6.701" style="fill:white;fill-rule:nonzero;"/>
                    </g>
                </g>
            </g>
            <g transform="matrix(4.16667,0,0,4.16667,0,0)">
                <g opacity="0.35">
                    <g transform="matrix(1,0,0,1,335.443,645.289)">
                        <path d="M0,-13.292C-7.492,-13.608 -12.25,-9.172 -14.635,-2.517C-14.648,-2.478 -14.677,-2.458 -14.704,-2.438C-13.932,-2.118 -13.188,-1.753 -12.472,-1.353C-12.397,-1.561 -12.325,-1.771 -12.234,-1.973C-11.78,-2.983 -11.092,-3.855 -10.271,-4.594C-9.467,-5.317 -8.567,-5.922 -7.702,-6.569C-7.266,-6.895 -6.853,-7.24 -6.452,-7.609C-6.134,-7.903 -5.805,-8.175 -5.418,-8.374C-5.156,-8.507 -4.859,-8.65 -4.571,-8.712C-4.256,-8.781 -3.945,-8.699 -3.63,-8.676C-3.348,-8.655 -3.122,-8.746 -2.914,-8.935C-2.725,-9.107 -2.559,-9.313 -2.335,-9.444C-2.091,-9.585 -1.777,-9.592 -1.502,-9.583C-1.194,-9.574 -0.89,-9.52 -0.592,-9.447C0.016,-9.298 0.604,-9.059 1.227,-8.973C1.832,-8.889 2.427,-9.028 3.024,-9.105C3.64,-9.183 4.233,-9.126 4.827,-8.953C6.677,-8.413 7.979,-6.92 8.771,-5.22C9.523,-3.6 9.887,-1.812 10.038,-0.035C10.486,-0.041 10.879,0.094 11.228,0.316C12.075,-7.207 7.869,-12.96 0,-13.292" style="fill:white;fill-rule:nonzero;"/>
                    </g>
                </g>
            </g>
            <g transform="matrix(4.16667,0,0,4.16667,1410.83,2597.35)">
                <path d="M0,3.767L0,5.496L-5.237,5.496L-5.237,4.907C-5.237,4.737 -5.157,4.637 -4.987,4.597C-4.977,4.597 -4.957,4.597 -4.927,4.587C-4.897,4.577 -4.847,4.567 -4.777,4.557C-4.707,4.547 -4.598,4.527 -4.478,4.507L-4.478,-0.74C-4.598,-0.76 -4.707,-0.78 -4.777,-0.79C-4.847,-0.8 -4.897,-0.82 -4.927,-0.82C-4.957,-0.83 -4.977,-0.83 -4.987,-0.83C-5.157,-0.87 -5.237,-0.97 -5.237,-1.14L-5.237,-1.729L-2.379,-1.729L-2.379,-1.14C-2.379,-0.97 -2.458,-0.87 -2.628,-0.83C-2.639,-0.83 -2.658,-0.83 -2.688,-0.82C-2.718,-0.81 -2.769,-0.8 -2.838,-0.79C-2.908,-0.78 -3.019,-0.76 -3.138,-0.74L-3.138,4.387L-0.81,4.387C-0.789,4.137 -0.779,3.997 -0.77,3.957C-0.739,3.837 -0.669,3.767 -0.539,3.767L0,3.767Z" style="fill:rgb(46,48,146);fill-rule:nonzero;"/>
            </g>
            <g transform="matrix(4.16667,0,0,4.16667,1425.79,2604.31)">
                <path d="M0,2.517C0.199,2.228 0.31,1.808 0.31,1.258C0.31,0.708 0.199,0.288 0,-0.002C-0.2,-0.292 -0.51,-0.441 -0.939,-0.441C-1.37,-0.441 -1.689,-0.292 -1.899,-0.002C-2.109,0.288 -2.219,0.718 -2.219,1.268C-2.219,1.818 -2.109,2.228 -1.899,2.517C-1.689,2.807 -1.37,2.947 -0.939,2.947C-0.51,2.947 -0.2,2.807 0,2.517M0.1,-1.191C0.409,-1.071 0.68,-0.901 0.899,-0.671C1.119,-0.441 1.279,-0.171 1.398,0.159C1.519,0.489 1.579,0.848 1.579,1.248C1.579,1.658 1.519,2.018 1.398,2.347C1.279,2.677 1.119,2.957 0.899,3.187C0.68,3.416 0.409,3.597 0.1,3.716C-0.21,3.836 -0.561,3.897 -0.939,3.897C-1.319,3.897 -1.68,3.836 -1.989,3.716C-2.299,3.597 -2.569,3.416 -2.789,3.187C-3.009,2.957 -3.188,2.677 -3.309,2.347C-3.429,2.018 -3.488,1.658 -3.488,1.248C-3.488,0.848 -3.429,0.489 -3.309,0.159C-3.188,-0.171 -3.009,-0.441 -2.789,-0.671C-2.569,-0.901 -2.299,-1.071 -1.989,-1.191C-1.68,-1.31 -1.319,-1.38 -0.939,-1.38C-0.561,-1.38 -0.21,-1.31 0.1,-1.191" style="fill:rgb(46,48,146);fill-rule:nonzero;"/>
            </g>
            <g transform="matrix(4.16667,0,0,4.16667,1449.25,2605.68)">
                <path d="M0,1.869C0,2.119 -0.05,2.348 -0.14,2.558C-0.229,2.768 -0.359,2.948 -0.529,3.098C-0.699,3.248 -0.909,3.368 -1.169,3.448C-1.419,3.538 -1.719,3.578 -2.049,3.578C-2.688,3.578 -3.308,3.438 -3.678,3.298L-3.678,1.848L-3.098,1.848C-2.968,1.848 -2.898,1.919 -2.868,2.039C-2.858,2.089 -2.838,2.228 -2.798,2.629C-2.528,2.708 -2.208,2.708 -1.988,2.708C-1.839,2.708 -1.709,2.688 -1.608,2.658C-1.499,2.618 -1.419,2.578 -1.349,2.518C-1.279,2.459 -1.229,2.408 -1.199,2.329C-1.169,2.249 -1.159,2.169 -1.159,2.089C-1.159,1.969 -1.188,1.879 -1.259,1.799C-1.329,1.719 -1.429,1.659 -1.549,1.598C-1.669,1.539 -1.799,1.489 -1.948,1.449C-2.099,1.399 -2.259,1.349 -2.418,1.299C-2.578,1.249 -2.729,1.18 -2.878,1.109C-3.028,1.039 -3.168,0.949 -3.288,0.84C-3.407,0.729 -3.498,0.599 -3.567,0.439C-3.638,0.28 -3.678,0.09 -3.678,-0.14C-3.678,-0.35 -3.638,-0.55 -3.558,-0.739C-3.478,-0.93 -3.348,-1.1 -3.188,-1.239C-3.028,-1.379 -2.818,-1.499 -2.578,-1.579C-2.338,-1.659 -2.068,-1.709 -1.749,-1.709C-1.249,-1.709 -0.969,-1.659 -0.249,-1.44L-0.26,-1.44L-0.26,0.01L-0.829,0.01C-0.959,0.01 -1.029,-0.06 -1.059,-0.18C-1.069,-0.23 -1.089,-0.35 -1.129,-0.739C-1.259,-0.779 -1.499,-0.81 -1.729,-0.81C-1.969,-0.81 -2.158,-0.76 -2.298,-0.659C-2.438,-0.56 -2.508,-0.42 -2.508,-0.25C-2.508,-0.14 -2.468,-0.05 -2.398,0.03C-2.328,0.11 -2.238,0.16 -2.118,0.22C-1.998,0.28 -1.868,0.34 -1.719,0.38C-1.568,0.42 -1.419,0.47 -1.259,0.519C-1.099,0.569 -0.939,0.64 -0.789,0.71C-0.64,0.779 -0.51,0.859 -0.39,0.97C-0.27,1.069 -0.18,1.189 -0.109,1.339C-0.04,1.489 0,1.659 0,1.869" style="fill:rgb(46,48,146);fill-rule:nonzero;"/>
            </g>
            <g transform="matrix(4.16667,0,0,4.16667,1472.75,2607.85)">
                <path d="M0,0.79C-0.359,0.79 -0.659,0.81 -0.899,0.859C-1.139,0.909 -1.339,0.97 -1.489,1.04C-1.639,1.109 -1.739,1.189 -1.799,1.279C-1.858,1.369 -1.889,1.479 -1.889,1.589C-1.889,1.81 -1.829,1.969 -1.699,2.059C-1.569,2.149 -1.409,2.199 -1.199,2.199C-1.069,2.199 -0.959,2.188 -0.85,2.169C-0.739,2.149 -0.63,2.109 -0.539,2.059C-0.449,2.009 -0.359,1.959 -0.27,1.889C-0.18,1.819 -0.09,1.739 0,1.649L0,0.79ZM1.829,2.379L1.829,2.969L0.649,2.969C0.53,2.969 0.44,2.959 0.37,2.919C0.3,2.889 0.25,2.809 0.22,2.698L0.11,2.339C-0.02,2.459 -0.14,2.559 -0.27,2.648C-0.39,2.738 -0.529,2.809 -0.659,2.868C-0.789,2.929 -0.93,2.969 -1.079,2.998C-1.229,3.028 -1.399,3.049 -1.579,3.049C-1.799,3.049 -1.999,3.019 -2.179,2.959C-2.358,2.898 -2.519,2.818 -2.648,2.698C-2.778,2.579 -2.888,2.429 -2.958,2.259C-3.028,2.089 -3.068,1.889 -3.068,1.659C-3.068,1.47 -3.019,1.269 -2.918,1.079C-2.818,0.89 -2.648,0.72 -2.408,0.57C-2.169,0.42 -1.858,0.29 -1.469,0.19C-1.079,0.09 -0.579,0.04 0,0.04L0,-0.26C0,-0.609 -0.08,-0.859 -0.22,-1.029C-0.359,-1.199 -0.569,-1.279 -0.85,-1.279C-1.049,-1.279 -1.219,-1.259 -1.349,-1.209C-1.479,-1.159 -1.599,-1.109 -1.699,-1.049C-1.799,-0.989 -1.889,-0.949 -1.969,-0.899C-2.049,-0.85 -2.139,-0.829 -2.238,-0.829C-2.318,-0.829 -2.398,-0.85 -2.458,-0.89C-2.519,-0.93 -2.559,-0.989 -2.599,-1.049L-2.828,-1.439C-2.238,-1.979 -1.529,-2.259 -0.699,-2.259C-0.399,-2.259 -0.13,-2.209 0.11,-2.108C0.34,-2.009 0.54,-1.869 0.7,-1.699C0.859,-1.519 1,-1.31 1.08,-1.069C1.159,-0.829 1.199,-0.56 1.199,-0.27L1.199,1.999C1.31,2.019 1.409,2.039 1.47,2.049C1.529,2.059 1.569,2.069 1.579,2.069C1.749,2.109 1.829,2.209 1.829,2.379" style="fill:rgb(46,48,146);fill-rule:nonzero;"/>
            </g>
            <g transform="matrix(4.16667,0,0,4.16667,1506.87,2601.02)">
                <path d="M0,4.027L0,4.617L-1.989,4.617L-1.989,1.359C-1.989,1.048 -2.068,0.798 -2.209,0.629C-2.349,0.46 -2.568,0.369 -2.858,0.369C-3.068,0.369 -3.269,0.42 -3.458,0.519C-3.647,0.619 -3.817,0.739 -3.987,0.909L-3.987,3.628C-3.868,3.647 -3.768,3.668 -3.698,3.677C-3.628,3.687 -3.578,3.697 -3.548,3.708C-3.518,3.717 -3.498,3.717 -3.488,3.717C-3.318,3.757 -3.238,3.857 -3.238,4.027L-3.238,4.617L-5.977,4.617L-5.977,4.027C-5.977,3.857 -5.896,3.757 -5.727,3.717C-5.717,3.717 -5.696,3.708 -5.667,3.708C-5.637,3.697 -5.587,3.687 -5.517,3.677C-5.447,3.668 -5.347,3.647 -5.227,3.628L-5.227,0.479C-5.347,0.46 -5.447,0.439 -5.517,0.429C-5.587,0.42 -5.637,0.399 -5.667,0.399C-5.696,0.389 -5.717,0.389 -5.727,0.389C-5.896,0.349 -5.977,0.25 -5.977,0.08L-5.977,-0.51L-4.468,-0.51C-4.308,-0.51 -4.208,-0.43 -4.157,-0.281L-4.067,0.12C-3.968,0.009 -3.868,-0.08 -3.748,-0.17C-3.638,-0.26 -3.508,-0.33 -3.378,-0.39C-3.248,-0.451 -3.118,-0.51 -2.969,-0.54C-2.818,-0.571 -2.658,-0.59 -2.488,-0.59C-2.209,-0.59 -1.959,-0.55 -1.739,-0.451C-1.52,-0.361 -1.35,-0.22 -1.199,-0.05C-1.06,0.12 -0.949,0.329 -0.869,0.569C-0.789,0.809 -0.76,1.069 -0.76,1.359L-0.76,3.628C-0.64,3.647 -0.529,3.668 -0.46,3.677C-0.39,3.687 -0.34,3.708 -0.31,3.708C-0.279,3.708 -0.26,3.717 -0.25,3.717C-0.08,3.757 0,3.857 0,4.027" style="fill:rgb(46,48,146);fill-rule:nonzero;"/>
            </g>
            <g transform="matrix(4.16667,0,0,4.16667,1517.17,2615.71)">
                <path d="M0,-5.236C-0.04,-5.146 -0.1,-5.056 -0.17,-4.987C-0.239,-4.917 -0.319,-4.856 -0.419,-4.817C-0.52,-4.777 -0.619,-4.757 -0.729,-4.757C-0.839,-4.757 -0.939,-4.777 -1.039,-4.817C-1.139,-4.856 -1.209,-4.917 -1.279,-4.987C-1.349,-5.056 -1.409,-5.146 -1.449,-5.236C-1.488,-5.326 -1.509,-5.426 -1.509,-5.536C-1.509,-5.646 -1.488,-5.746 -1.449,-5.846C-1.409,-5.946 -1.349,-6.026 -1.279,-6.096C-1.209,-6.166 -1.139,-6.215 -1.039,-6.256C-0.939,-6.296 -0.839,-6.326 -0.729,-6.326C-0.619,-6.326 -0.52,-6.296 -0.419,-6.256C-0.319,-6.215 -0.239,-6.166 -0.17,-6.096C-0.1,-6.026 -0.04,-5.946 0,-5.846C0.04,-5.746 0.07,-5.646 0.07,-5.536C0.07,-5.426 0.04,-5.326 0,-5.236M0.64,0.5L0.64,1.09L-2.108,1.09L-2.108,0.5C-2.108,0.33 -2.028,0.231 -1.858,0.191C-1.849,0.191 -1.828,0.181 -1.799,0.181C-1.769,0.17 -1.719,0.16 -1.648,0.151C-1.579,0.141 -1.469,0.12 -1.349,0.101L-1.349,-3.048C-1.469,-3.067 -1.579,-3.088 -1.648,-3.097C-1.719,-3.107 -1.769,-3.128 -1.799,-3.128C-1.828,-3.128 -1.849,-3.137 -1.858,-3.137C-2.028,-3.177 -2.108,-3.277 -2.108,-3.447L-2.108,-4.037L-0.119,-4.037L-0.119,0.101C0,0.12 0.11,0.141 0.181,0.151C0.25,0.16 0.3,0.181 0.33,0.181C0.36,0.181 0.38,0.191 0.391,0.191C0.561,0.231 0.64,0.33 0.64,0.5" style="fill:rgb(46,48,146);fill-rule:nonzero;"/>
            </g>
            <g transform="matrix(4.16667,0,0,4.16667,1557.65,2601.02)">
                <path d="M0,4.027L0,4.617L-1.989,4.617L-1.989,1.359C-1.989,1.029 -2.059,0.779 -2.198,0.619C-2.339,0.449 -2.549,0.369 -2.828,0.369C-2.958,0.369 -3.078,0.399 -3.188,0.439C-3.298,0.479 -3.388,0.539 -3.468,0.619C-3.548,0.699 -3.608,0.809 -3.658,0.929C-3.708,1.048 -3.728,1.199 -3.728,1.359L-3.728,3.628C-3.598,3.647 -3.508,3.668 -3.438,3.677C-3.368,3.687 -3.318,3.697 -3.288,3.708C-3.258,3.717 -3.238,3.717 -3.229,3.717C-3.059,3.757 -2.979,3.857 -2.979,4.027L-2.979,4.617L-4.967,4.617L-4.967,1.359C-4.967,1.019 -5.037,0.769 -5.177,0.609C-5.317,0.449 -5.517,0.369 -5.787,0.369C-5.967,0.369 -6.127,0.409 -6.286,0.499C-6.446,0.589 -6.586,0.719 -6.716,0.869L-6.716,3.628C-6.597,3.647 -6.496,3.668 -6.427,3.677C-6.356,3.687 -6.307,3.697 -6.276,3.708C-6.246,3.717 -6.227,3.717 -6.217,3.717C-6.047,3.757 -5.967,3.857 -5.967,4.027L-5.967,4.617L-8.705,4.617L-8.705,4.027C-8.705,3.857 -8.625,3.757 -8.455,3.717C-8.445,3.717 -8.425,3.708 -8.396,3.708C-8.365,3.708 -8.315,3.687 -8.245,3.677C-8.176,3.668 -8.075,3.647 -7.955,3.628L-7.955,0.479C-8.075,0.46 -8.176,0.439 -8.245,0.429C-8.315,0.42 -8.365,0.399 -8.396,0.399C-8.425,0.399 -8.445,0.389 -8.455,0.389C-8.625,0.349 -8.715,0.25 -8.715,0.08L-8.715,-0.51L-7.196,-0.51C-7.036,-0.51 -6.937,-0.43 -6.886,-0.281L-6.807,0.099C-6.716,0 -6.626,-0.101 -6.526,-0.181C-6.427,-0.26 -6.316,-0.33 -6.206,-0.39C-6.097,-0.451 -5.977,-0.5 -5.847,-0.54C-5.717,-0.58 -5.577,-0.59 -5.427,-0.59C-5.107,-0.59 -4.837,-0.51 -4.627,-0.33C-4.418,-0.151 -4.258,0.08 -4.157,0.369C-4.078,0.199 -3.978,0.049 -3.857,-0.071C-3.738,-0.191 -3.608,-0.281 -3.468,-0.361C-3.328,-0.441 -3.168,-0.491 -3.008,-0.531C-2.849,-0.571 -2.679,-0.59 -2.519,-0.59C-2.238,-0.59 -1.989,-0.55 -1.769,-0.46C-1.549,-0.37 -1.359,-0.25 -1.209,-0.08C-1.06,0.089 -0.949,0.29 -0.869,0.529C-0.789,0.769 -0.749,1.048 -0.749,1.359L-0.749,3.628C-0.63,3.647 -0.529,3.668 -0.46,3.677C-0.39,3.687 -0.34,3.708 -0.31,3.708C-0.279,3.708 -0.26,3.717 -0.25,3.717C-0.08,3.757 0,3.857 0,4.027" style="fill:rgb(46,48,146);fill-rule:nonzero;"/>
            </g>
            <g transform="matrix(4.16667,0,0,4.16667,1571.79,2607.85)">
                <path d="M0,0.79C-0.36,0.79 -0.66,0.81 -0.899,0.859C-1.14,0.909 -1.34,0.97 -1.489,1.04C-1.64,1.109 -1.739,1.189 -1.799,1.279C-1.859,1.369 -1.89,1.479 -1.89,1.589C-1.89,1.81 -1.829,1.969 -1.699,2.059C-1.569,2.149 -1.409,2.199 -1.199,2.199C-1.069,2.199 -0.96,2.188 -0.85,2.169C-0.74,2.149 -0.63,2.109 -0.54,2.059C-0.45,2.009 -0.36,1.959 -0.271,1.889C-0.18,1.819 -0.09,1.739 0,1.649L0,0.79ZM1.829,2.379L1.829,2.969L0.649,2.969C0.529,2.969 0.439,2.959 0.369,2.919C0.3,2.889 0.25,2.809 0.22,2.698L0.109,2.339C-0.021,2.459 -0.141,2.559 -0.271,2.648C-0.39,2.738 -0.53,2.809 -0.66,2.868C-0.79,2.929 -0.93,2.969 -1.08,2.998C-1.229,3.028 -1.399,3.049 -1.579,3.049C-1.799,3.049 -1.999,3.019 -2.179,2.959C-2.359,2.898 -2.519,2.818 -2.648,2.698C-2.778,2.579 -2.889,2.429 -2.959,2.259C-3.028,2.089 -3.068,1.889 -3.068,1.659C-3.068,1.47 -3.019,1.269 -2.919,1.079C-2.818,0.89 -2.648,0.72 -2.409,0.57C-2.169,0.42 -1.859,0.29 -1.47,0.19C-1.08,0.09 -0.58,0.04 0,0.04L0,-0.26C0,-0.609 -0.08,-0.859 -0.22,-1.029C-0.36,-1.199 -0.57,-1.279 -0.85,-1.279C-1.05,-1.279 -1.22,-1.259 -1.35,-1.209C-1.479,-1.159 -1.6,-1.109 -1.699,-1.049C-1.799,-0.989 -1.89,-0.949 -1.969,-0.899C-2.049,-0.85 -2.139,-0.829 -2.239,-0.829C-2.319,-0.829 -2.398,-0.85 -2.459,-0.89C-2.519,-0.93 -2.559,-0.989 -2.599,-1.049L-2.829,-1.439C-2.239,-1.979 -1.529,-2.259 -0.7,-2.259C-0.4,-2.259 -0.13,-2.209 0.109,-2.108C0.34,-2.009 0.539,-1.869 0.699,-1.699C0.859,-1.519 0.999,-1.31 1.079,-1.069C1.159,-0.829 1.199,-0.56 1.199,-0.27L1.199,1.999C1.309,2.019 1.409,2.039 1.469,2.049C1.529,2.059 1.569,2.069 1.579,2.069C1.749,2.109 1.829,2.209 1.829,2.379" style="fill:rgb(46,48,146);fill-rule:nonzero;"/>
            </g>
            <g transform="matrix(4.16667,0,0,4.16667,1592.42,2591.77)">
                <path d="M0,6.246L0,6.836L-2.749,6.836L-2.749,6.246C-2.749,6.076 -2.669,5.976 -2.499,5.936C-2.489,5.936 -2.469,5.936 -2.439,5.927C-2.409,5.916 -2.359,5.906 -2.289,5.896C-2.219,5.887 -2.109,5.866 -1.989,5.847L-1.989,0.399C-2.109,0.38 -2.219,0.359 -2.289,0.35C-2.359,0.34 -2.409,0.319 -2.439,0.319C-2.469,0.319 -2.489,0.309 -2.499,0.309C-2.669,0.269 -2.749,0.17 -2.749,0L-2.749,-0.59L-0.76,-0.59L-0.76,5.847C-0.64,5.866 -0.53,5.887 -0.46,5.896C-0.39,5.906 -0.34,5.916 -0.311,5.927C-0.28,5.936 -0.26,5.936 -0.25,5.936C-0.08,5.976 0,6.076 0,6.246" style="fill:rgb(46,48,146);fill-rule:nonzero;"/>
            </g>
            <g transform="matrix(4.16667,0,0,4.16667,1600.63,2615.6)">
                <path d="M0,-2.899C-0.199,-2.7 -0.329,-2.41 -0.39,-2.04L1.93,-2.04C1.93,-2.2 1.899,-2.349 1.859,-2.49C1.819,-2.629 1.75,-2.75 1.66,-2.859C1.569,-2.969 1.46,-3.049 1.32,-3.109C1.18,-3.17 1.02,-3.209 0.84,-3.209C0.48,-3.209 0.2,-3.099 0,-2.899M1.71,-3.939C1.979,-3.838 2.209,-3.679 2.409,-3.479C2.609,-3.279 2.759,-3.039 2.869,-2.75C2.979,-2.46 3.039,-2.139 3.039,-1.77C3.039,-1.68 3.029,-1.59 3.019,-1.53C3.009,-1.47 2.999,-1.42 2.979,-1.39C2.959,-1.35 2.929,-1.33 2.889,-1.31C2.849,-1.29 2.81,-1.29 2.749,-1.29L-0.419,-1.29C-0.379,-0.76 -0.239,-0.38 0.011,-0.13C0.261,0.12 0.58,0.239 0.99,0.239C1.19,0.239 1.36,0.219 1.5,0.169C1.649,0.12 1.77,0.069 1.88,0.009C1.989,-0.05 2.09,-0.09 2.17,-0.141C2.249,-0.191 2.319,-0.211 2.399,-0.211C2.449,-0.211 2.499,-0.201 2.539,-0.18C2.579,-0.161 2.6,-0.141 2.629,-0.101L2.989,0.349C2.849,0.509 2.699,0.649 2.529,0.759C2.359,0.869 2.18,0.958 2,1.019C1.81,1.079 1.62,1.119 1.43,1.149C1.24,1.178 1.05,1.189 0.87,1.189C0.51,1.189 0.19,1.138 -0.119,1.019C-0.43,0.899 -0.689,0.719 -0.919,0.489C-1.149,0.259 -1.329,-0.031 -1.459,-0.371C-1.589,-0.711 -1.648,-1.11 -1.648,-1.56C-1.648,-1.91 -1.589,-2.23 -1.479,-2.54C-1.369,-2.849 -1.199,-3.119 -0.989,-3.349C-0.779,-3.579 -0.52,-3.758 -0.22,-3.888C0.08,-4.018 0.44,-4.088 0.82,-4.088C1.14,-4.088 1.439,-4.039 1.71,-3.939" style="fill:rgb(46,48,146);fill-rule:nonzero;"/>
            </g>
            <g transform="matrix(4.16667,0,0,4.16667,1630.12,2605.68)">
                <path d="M0,1.869C0,2.119 -0.05,2.348 -0.14,2.558C-0.229,2.768 -0.359,2.948 -0.529,3.098C-0.699,3.248 -0.909,3.368 -1.169,3.448C-1.419,3.538 -1.719,3.578 -2.049,3.578C-2.688,3.578 -3.308,3.438 -3.678,3.298L-3.678,1.848L-3.098,1.848C-2.968,1.848 -2.898,1.919 -2.868,2.039C-2.858,2.089 -2.838,2.228 -2.798,2.629C-2.528,2.708 -2.209,2.708 -1.988,2.708C-1.839,2.708 -1.709,2.688 -1.609,2.658C-1.499,2.618 -1.419,2.578 -1.349,2.518C-1.279,2.459 -1.229,2.408 -1.199,2.329C-1.169,2.249 -1.159,2.169 -1.159,2.089C-1.159,1.969 -1.189,1.879 -1.259,1.799C-1.329,1.719 -1.429,1.659 -1.549,1.598C-1.669,1.539 -1.799,1.489 -1.949,1.449C-2.099,1.399 -2.259,1.349 -2.419,1.299C-2.578,1.249 -2.729,1.18 -2.878,1.109C-3.028,1.039 -3.168,0.949 -3.288,0.84C-3.408,0.729 -3.498,0.599 -3.567,0.439C-3.638,0.28 -3.678,0.09 -3.678,-0.14C-3.678,-0.35 -3.638,-0.55 -3.558,-0.739C-3.478,-0.93 -3.348,-1.1 -3.188,-1.239C-3.028,-1.379 -2.818,-1.499 -2.578,-1.579C-2.339,-1.659 -2.068,-1.709 -1.749,-1.709C-1.249,-1.709 -0.97,-1.659 -0.25,-1.44L-0.26,-1.44L-0.26,0.01L-0.829,0.01C-0.959,0.01 -1.029,-0.06 -1.06,-0.18C-1.069,-0.23 -1.089,-0.35 -1.129,-0.739C-1.259,-0.779 -1.499,-0.81 -1.729,-0.81C-1.969,-0.81 -2.158,-0.76 -2.299,-0.659C-2.438,-0.56 -2.509,-0.42 -2.509,-0.25C-2.509,-0.14 -2.469,-0.05 -2.398,0.03C-2.328,0.11 -2.238,0.16 -2.119,0.22C-1.999,0.28 -1.869,0.34 -1.719,0.38C-1.569,0.42 -1.419,0.47 -1.259,0.519C-1.1,0.569 -0.939,0.64 -0.789,0.71C-0.64,0.779 -0.51,0.859 -0.39,0.97C-0.27,1.069 -0.18,1.189 -0.109,1.339C-0.04,1.489 0,1.659 0,1.869" style="fill:rgb(46,48,146);fill-rule:nonzero;"/>
            </g>
            <g transform="matrix(4.16667,0,0,4.16667,1483.21,2654.31)">
                <path d="M0,2.517C0.199,2.228 0.31,1.808 0.31,1.258C0.31,0.708 0.199,0.288 0,-0.002C-0.2,-0.292 -0.51,-0.441 -0.939,-0.441C-1.37,-0.441 -1.689,-0.292 -1.899,-0.002C-2.109,0.288 -2.219,0.718 -2.219,1.268C-2.219,1.818 -2.109,2.228 -1.899,2.517C-1.689,2.807 -1.37,2.947 -0.939,2.947C-0.51,2.947 -0.2,2.807 0,2.517M0.1,-1.191C0.409,-1.071 0.68,-0.901 0.899,-0.671C1.119,-0.441 1.279,-0.171 1.398,0.159C1.519,0.489 1.579,0.848 1.579,1.248C1.579,1.658 1.519,2.018 1.398,2.347C1.279,2.677 1.119,2.957 0.899,3.187C0.68,3.416 0.409,3.597 0.1,3.716C-0.21,3.836 -0.561,3.897 -0.939,3.897C-1.319,3.897 -1.68,3.836 -1.989,3.716C-2.299,3.597 -2.569,3.416 -2.789,3.187C-3.009,2.957 -3.188,2.677 -3.309,2.347C-3.429,2.018 -3.488,1.658 -3.488,1.248C-3.488,0.848 -3.429,0.489 -3.309,0.159C-3.188,-0.171 -3.009,-0.441 -2.789,-0.671C-2.569,-0.901 -2.299,-1.071 -1.989,-1.191C-1.68,-1.31 -1.319,-1.38 -0.939,-1.38C-0.561,-1.38 -0.21,-1.31 0.1,-1.191" style="fill:rgb(46,48,146);fill-rule:nonzero;"/>
            </g>
            <g transform="matrix(4.16667,0,0,4.16667,1514.37,2670.26)">
                <path d="M0,-5.127L0,-4.537C0,-4.367 -0.08,-4.268 -0.25,-4.228C-0.33,-4.218 -0.3,-4.208 -0.72,-4.138L-2.369,0L-3.488,0L-5.138,-4.138C-5.567,-4.218 -5.527,-4.218 -5.607,-4.228C-5.777,-4.268 -5.857,-4.367 -5.857,-4.537L-5.857,-5.127L-3.358,-5.127L-3.358,-4.537C-3.358,-4.367 -3.438,-4.268 -3.608,-4.228C-3.668,-4.218 -3.688,-4.218 -3.889,-4.178L-3.158,-2.159C-3.099,-1.999 -3.059,-1.839 -3.019,-1.689C-2.979,-1.539 -2.938,-1.379 -2.909,-1.23C-2.879,-1.379 -2.849,-1.539 -2.809,-1.689C-2.769,-1.839 -2.719,-1.999 -2.659,-2.159L-1.919,-4.168C-2.169,-4.208 -2.189,-4.218 -2.249,-4.228C-2.419,-4.268 -2.499,-4.367 -2.499,-4.537L-2.499,-5.127L0,-5.127Z" style="fill:rgb(46,48,146);fill-rule:nonzero;"/>
            </g>
            <g transform="matrix(4.16667,0,0,4.16667,1523.71,2664.84)">
                <path d="M0,-4.708C-0.061,-4.638 -0.12,-4.588 -0.18,-4.568C-0.24,-4.548 -0.32,-4.528 -0.41,-4.528L-1.149,-4.528L-0.44,-5.747C-0.39,-5.837 -0.33,-5.897 -0.26,-5.937C-0.19,-5.978 -0.09,-6.007 0.04,-6.007L1.239,-6.007L0,-4.708ZM0.839,0.709L0.839,1.299L-1.899,1.299L-1.899,0.709C-1.899,0.539 -1.819,0.439 -1.649,0.399C-1.64,0.399 -1.619,0.39 -1.59,0.39C-1.56,0.379 -1.51,0.369 -1.439,0.359C-1.369,0.35 -1.27,0.329 -1.149,0.31L-1.149,-2.839C-1.27,-2.858 -1.369,-2.879 -1.439,-2.889C-1.51,-2.898 -1.56,-2.919 -1.59,-2.919C-1.619,-2.919 -1.64,-2.929 -1.649,-2.929C-1.819,-2.969 -1.899,-3.068 -1.899,-3.238L-1.899,-3.828L0.09,-3.828L0.09,0.31C0.21,0.329 0.31,0.35 0.38,0.359C0.449,0.369 0.499,0.39 0.529,0.39C0.56,0.39 0.579,0.399 0.59,0.399C0.76,0.439 0.839,0.539 0.839,0.709" style="fill:rgb(46,48,146);fill-rule:nonzero;"/>
            </g>
            <g transform="matrix(4.16667,0,0,4.16667,1547.37,2666.3)">
                <path d="M0,-1.65C0,-1.95 -0.021,-2.21 -0.07,-2.42C-0.12,-2.629 -0.19,-2.79 -0.28,-2.92C-0.37,-3.049 -0.48,-3.149 -0.61,-3.209C-0.74,-3.269 -0.88,-3.299 -1.04,-3.299C-1.3,-3.299 -1.52,-3.249 -1.699,-3.139C-1.879,-3.029 -2.049,-2.879 -2.209,-2.679L-2.209,-0.38C-2.069,-0.211 -1.909,-0.09 -1.749,-0.021C-1.59,0.049 -1.409,0.079 -1.22,0.079C-1.029,0.079 -0.859,0.049 -0.71,-0.021C-0.56,-0.09 -0.44,-0.201 -0.33,-0.34C-0.23,-0.481 -0.141,-0.661 -0.08,-0.88C-0.021,-1.1 0,-1.35 0,-1.65M1.279,-1.66C1.279,-1.28 1.219,-0.921 1.119,-0.59C1.02,-0.26 0.869,0.019 0.68,0.259C0.489,0.498 0.26,0.679 -0.01,0.819C-0.28,0.958 -0.59,1.019 -0.93,1.019C-1.22,1.019 -1.459,0.979 -1.659,0.889C-1.859,0.798 -2.049,0.679 -2.209,0.519L-2.209,1.628C-2.079,1.648 -1.979,1.678 -1.909,1.688C-1.839,1.699 -1.789,1.699 -1.76,1.708C-1.729,1.718 -1.709,1.718 -1.699,1.718C-1.529,1.758 -1.449,1.869 -1.449,2.038L-1.449,2.618L-4.198,2.618L-4.198,2.038C-4.198,1.869 -4.118,1.758 -3.948,1.718C-3.938,1.718 -3.918,1.708 -3.888,1.708C-3.858,1.708 -3.809,1.699 -3.738,1.688C-3.668,1.678 -3.559,1.648 -3.438,1.628L-3.438,-3.189C-3.559,-3.209 -3.668,-3.229 -3.738,-3.239C-3.809,-3.249 -3.858,-3.269 -3.888,-3.269C-3.918,-3.269 -3.938,-3.279 -3.948,-3.279C-4.118,-3.319 -4.198,-3.419 -4.198,-3.588L-4.198,-4.178L-2.688,-4.178C-2.608,-4.178 -2.539,-4.159 -2.479,-4.119C-2.419,-4.079 -2.389,-4.029 -2.369,-3.949L-2.269,-3.479C-2.06,-3.718 -1.829,-3.899 -1.56,-4.048C-1.289,-4.199 -0.979,-4.268 -0.62,-4.268C-0.34,-4.268 -0.08,-4.218 0.149,-4.098C0.38,-3.979 0.579,-3.809 0.749,-3.588C0.919,-3.369 1.049,-3.089 1.139,-2.769C1.229,-2.439 1.279,-2.08 1.279,-1.66" style="fill:rgb(46,48,146);fill-rule:nonzero;"/>
            </g>
            <g transform="matrix(4.16667,0,0,4.16667,1566.71,2657.85)">
                <path d="M0,0.79C-0.36,0.79 -0.66,0.81 -0.899,0.859C-1.14,0.909 -1.34,0.97 -1.489,1.04C-1.64,1.109 -1.739,1.189 -1.799,1.279C-1.859,1.369 -1.89,1.479 -1.89,1.589C-1.89,1.81 -1.829,1.969 -1.699,2.059C-1.569,2.149 -1.409,2.199 -1.199,2.199C-1.069,2.199 -0.96,2.188 -0.85,2.169C-0.74,2.149 -0.63,2.109 -0.54,2.059C-0.45,2.009 -0.36,1.959 -0.271,1.889C-0.18,1.819 -0.09,1.739 0,1.649L0,0.79ZM1.829,2.379L1.829,2.969L0.649,2.969C0.529,2.969 0.439,2.959 0.369,2.919C0.3,2.889 0.25,2.809 0.22,2.698L0.109,2.339C-0.021,2.459 -0.141,2.559 -0.271,2.648C-0.39,2.738 -0.53,2.809 -0.66,2.868C-0.79,2.929 -0.93,2.969 -1.08,2.998C-1.229,3.028 -1.399,3.049 -1.579,3.049C-1.799,3.049 -1.999,3.019 -2.179,2.959C-2.359,2.898 -2.519,2.818 -2.648,2.698C-2.778,2.579 -2.889,2.429 -2.959,2.259C-3.028,2.089 -3.068,1.889 -3.068,1.659C-3.068,1.47 -3.019,1.269 -2.919,1.079C-2.818,0.89 -2.648,0.72 -2.409,0.57C-2.169,0.42 -1.859,0.29 -1.47,0.19C-1.08,0.09 -0.58,0.04 0,0.04L0,-0.26C0,-0.609 -0.08,-0.859 -0.22,-1.029C-0.36,-1.199 -0.57,-1.279 -0.85,-1.279C-1.05,-1.279 -1.22,-1.259 -1.35,-1.209C-1.479,-1.159 -1.6,-1.109 -1.699,-1.049C-1.799,-0.989 -1.89,-0.949 -1.969,-0.899C-2.049,-0.85 -2.139,-0.829 -2.239,-0.829C-2.319,-0.829 -2.398,-0.85 -2.459,-0.89C-2.519,-0.93 -2.559,-0.989 -2.599,-1.049L-2.829,-1.439C-2.239,-1.979 -1.529,-2.259 -0.7,-2.259C-0.4,-2.259 -0.13,-2.209 0.109,-2.108C0.34,-2.009 0.539,-1.869 0.699,-1.699C0.859,-1.519 0.999,-1.31 1.079,-1.069C1.159,-0.829 1.199,-0.56 1.199,-0.27L1.199,1.999C1.309,2.019 1.409,2.039 1.469,2.049C1.529,2.059 1.569,2.069 1.579,2.069C1.749,2.109 1.829,2.209 1.829,2.379" style="fill:rgb(46,48,146);fill-rule:nonzero;"/>
            </g>
            <g transform="matrix(4.16667,0,0,4.16667,1592.66,2669.55)">
                <path d="M0,-4.877L-0.16,-3.948C-0.17,-3.888 -0.19,-3.848 -0.22,-3.828C-0.25,-3.808 -0.3,-3.788 -0.36,-3.788C-0.41,-3.788 -0.47,-3.798 -0.56,-3.818C-0.65,-3.838 -0.77,-3.857 -0.91,-3.857C-1.17,-3.857 -1.39,-3.788 -1.569,-3.648C-1.749,-3.508 -1.899,-3.288 -2.029,-3.019L-2.029,-0.819C-1.6,-0.739 -1.609,-0.739 -1.529,-0.73C-1.359,-0.69 -1.279,-0.59 -1.279,-0.42L-1.279,0.17L-4.019,0.17L-4.019,-0.42C-4.019,-0.59 -3.938,-0.69 -3.769,-0.73C-3.688,-0.739 -3.698,-0.739 -3.269,-0.819L-3.269,-3.968C-3.698,-4.048 -3.688,-4.048 -3.769,-4.058C-3.938,-4.098 -4.019,-4.197 -4.019,-4.367L-4.019,-4.957L-2.539,-4.957C-2.409,-4.957 -2.329,-4.938 -2.279,-4.888C-2.229,-4.837 -2.199,-4.758 -2.179,-4.648L-2.1,-4.027C-1.919,-4.348 -1.709,-4.598 -1.46,-4.777C-1.21,-4.957 -0.939,-5.047 -0.63,-5.047C-0.38,-5.047 -0.17,-4.997 0,-4.877" style="fill:rgb(46,48,146);fill-rule:nonzero;"/>
            </g>
            <g transform="matrix(4.16667,0,0,4.16667,1606.66,2654.31)">
                <path d="M0,2.517C0.199,2.228 0.31,1.808 0.31,1.258C0.31,0.708 0.199,0.288 0,-0.002C-0.2,-0.292 -0.51,-0.441 -0.939,-0.441C-1.37,-0.441 -1.689,-0.292 -1.899,-0.002C-2.109,0.288 -2.219,0.718 -2.219,1.268C-2.219,1.818 -2.109,2.228 -1.899,2.517C-1.689,2.807 -1.37,2.947 -0.939,2.947C-0.51,2.947 -0.2,2.807 0,2.517M0.1,-1.191C0.409,-1.071 0.68,-0.901 0.899,-0.671C1.119,-0.441 1.279,-0.171 1.399,0.159C1.519,0.489 1.579,0.848 1.579,1.248C1.579,1.658 1.519,2.018 1.399,2.347C1.279,2.677 1.119,2.957 0.899,3.187C0.68,3.416 0.409,3.597 0.1,3.716C-0.21,3.836 -0.561,3.897 -0.939,3.897C-1.319,3.897 -1.68,3.836 -1.989,3.716C-2.299,3.597 -2.569,3.416 -2.789,3.187C-3.009,2.957 -3.188,2.677 -3.309,2.347C-3.429,2.018 -3.488,1.658 -3.488,1.248C-3.488,0.848 -3.429,0.489 -3.309,0.159C-3.188,-0.171 -3.009,-0.441 -2.789,-0.671C-2.569,-0.901 -2.299,-1.071 -1.989,-1.191C-1.68,-1.31 -1.319,-1.38 -0.939,-1.38C-0.561,-1.38 -0.21,-1.31 0.1,-1.191" style="fill:rgb(46,48,146);fill-rule:nonzero;"/>
            </g>
            <g transform="matrix(4.16667,0,0,4.16667,1630.12,2655.68)">
                <path d="M0,1.869C0,2.119 -0.05,2.348 -0.14,2.558C-0.229,2.768 -0.359,2.948 -0.529,3.098C-0.699,3.248 -0.909,3.368 -1.169,3.448C-1.419,3.538 -1.719,3.578 -2.049,3.578C-2.688,3.578 -3.308,3.438 -3.678,3.298L-3.678,1.848L-3.098,1.848C-2.968,1.848 -2.898,1.919 -2.868,2.039C-2.858,2.089 -2.838,2.228 -2.798,2.629C-2.528,2.708 -2.209,2.708 -1.988,2.708C-1.839,2.708 -1.709,2.688 -1.609,2.658C-1.499,2.618 -1.419,2.578 -1.349,2.518C-1.279,2.459 -1.229,2.408 -1.199,2.329C-1.169,2.249 -1.159,2.169 -1.159,2.089C-1.159,1.969 -1.189,1.879 -1.259,1.799C-1.329,1.719 -1.429,1.659 -1.549,1.598C-1.669,1.539 -1.799,1.489 -1.949,1.449C-2.099,1.399 -2.259,1.349 -2.419,1.299C-2.578,1.249 -2.729,1.18 -2.878,1.109C-3.028,1.039 -3.168,0.949 -3.288,0.84C-3.408,0.729 -3.498,0.599 -3.567,0.439C-3.638,0.28 -3.678,0.09 -3.678,-0.14C-3.678,-0.35 -3.638,-0.55 -3.558,-0.739C-3.478,-0.93 -3.348,-1.1 -3.188,-1.239C-3.028,-1.379 -2.818,-1.499 -2.578,-1.579C-2.339,-1.659 -2.068,-1.709 -1.749,-1.709C-1.249,-1.709 -0.97,-1.659 -0.25,-1.44L-0.26,-1.44L-0.26,0.01L-0.829,0.01C-0.959,0.01 -1.029,-0.06 -1.06,-0.18C-1.069,-0.23 -1.089,-0.35 -1.129,-0.739C-1.259,-0.779 -1.499,-0.81 -1.729,-0.81C-1.969,-0.81 -2.158,-0.76 -2.299,-0.659C-2.438,-0.56 -2.509,-0.42 -2.509,-0.25C-2.509,-0.14 -2.469,-0.05 -2.398,0.03C-2.328,0.11 -2.238,0.16 -2.119,0.22C-1.999,0.28 -1.869,0.34 -1.719,0.38C-1.569,0.42 -1.419,0.47 -1.259,0.519C-1.1,0.569 -0.939,0.64 -0.789,0.71C-0.64,0.779 -0.51,0.859 -0.39,0.97C-0.27,1.069 -0.18,1.189 -0.109,1.339C-0.04,1.489 0,1.659 0,1.869" style="fill:rgb(46,48,146);fill-rule:nonzero;"/>
            </g>
            <g transform="matrix(-4.15913,0.250543,0.250543,4.15913,1637.6,2908.6)">
                <path d="M-2.014,-7.838C0.455,-6.241 -0.32,-2.345 -1.388,-0.168C-1.55,0.162 -2.134,-0.019 -2.014,-0.388C-1.282,-2.642 -0.58,-5.588 -2.271,-7.548C-2.4,-7.698 -2.178,-7.944 -2.014,-7.838" style="fill:rgb(35,31,32);fill-rule:nonzero;"/>
            </g>
            <g transform="matrix(4.16667,0,0,4.16667,0,0)">
                <g opacity="0.5">
                    <g transform="matrix(0.0161676,0.999869,0.999869,-0.0161676,381.837,683.951)">
                        <path d="M10.921,-10.867C11.431,-3.645 11.373,3.721 11.361,10.959C11.361,11.242 10.931,11.249 10.921,10.966C10.678,3.73 10.413,-3.628 10.692,-10.864C10.697,-11.011 10.911,-11.015 10.921,-10.867" style="fill:rgb(35,31,32);fill-rule:nonzero;"/>
                    </g>
                </g>
            </g>
            <g transform="matrix(4.16667,0,0,4.16667,0,0)">
                <g opacity="0.5">
                    <g transform="matrix(0.00685776,0.999976,0.999976,-0.00685776,342.872,673.832)">
                        <path d="M19.125,-19.075C19.717,-6.416 19.744,6.456 19.506,19.127C19.501,19.372 19.133,19.375 19.125,19.13C18.712,6.464 18.524,-6.408 18.941,-19.074C18.945,-19.192 19.12,-19.193 19.125,-19.075" style="fill:rgb(35,31,32);fill-rule:nonzero;"/>
                    </g>
                </g>
            </g>
            <g transform="matrix(4.16667,0,0,4.16667,0,0)">
                <g opacity="0.5">
                    <g transform="matrix(0.00643454,0.999979,0.999979,-0.00643454,311.977,679.623)">
                        <path d="M15.652,-15.595C16.286,-5.314 16.434,5.343 16.073,15.64C16.062,15.91 15.665,15.914 15.652,15.643C15.141,5.35 14.912,-5.302 15.403,-15.593C15.41,-15.753 15.642,-15.756 15.652,-15.595" style="fill:rgb(35,31,32);fill-rule:nonzero;"/>
                    </g>
                </g>
            </g>
            <g transform="matrix(4.16667,0,0,4.16667,0,0)">
                <g transform="matrix(8,0,0,8,371.341,656.668)">
                    <path d="M0.151,-0L0.149,-0.658L0.437,-0L0.49,-0L0.777,-0.658L0.775,-0L0.853,-0L0.853,-0.74L0.737,-0.74L0.464,-0.119L0.19,-0.74L0.074,-0.74L0.074,-0L0.151,-0Z" style="fill:rgb(35,31,32);fill-rule:nonzero;"/>
                </g>
                <g transform="matrix(8,0,0,8,378.757,656.668)">
                    <rect x="0.106" y="-0.11" width="0.078" height="0.11" style="fill:rgb(35,31,32);fill-rule:nonzero;"/>
                </g>
                <g transform="matrix(8,0,0,8,381.069,656.668)">
                    <path d="M0.677,-0.199C0.659,-0.171 0.58,-0.06 0.425,-0.06C0.253,-0.06 0.122,-0.196 0.122,-0.371C0.122,-0.543 0.252,-0.68 0.425,-0.68C0.568,-0.68 0.652,-0.581 0.677,-0.537L0.766,-0.537C0.723,-0.631 0.608,-0.753 0.425,-0.753C0.203,-0.753 0.04,-0.581 0.04,-0.37C0.04,-0.156 0.207,0.013 0.426,0.013C0.589,0.013 0.718,-0.085 0.766,-0.199L0.677,-0.199Z" style="fill:rgb(35,31,32);fill-rule:nonzero;"/>
                </g>
                <g transform="matrix(8,0,0,8,387.373,656.668)">
                    <rect x="0.106" y="-0.11" width="0.078" height="0.11" style="fill:rgb(35,31,32);fill-rule:nonzero;"/>
                </g>
                <g transform="matrix(8,0,0,8,360.341,665.668)">
                    <path d="M0.074,-0L0.484,-0L0.484,-0.073L0.156,-0.073L0.156,-0.337L0.482,-0.337L0.482,-0.41L0.156,-0.41L0.156,-0.667L0.484,-0.667L0.484,-0.74L0.074,-0.74L0.074,-0Z" style="fill:rgb(35,31,32);fill-rule:nonzero;"/>
                </g>
                <g transform="matrix(8,0,0,8,364.668,665.668)">
                    <path d="M0.072,-0L0.146,-0L0.146,-0.304C0.146,-0.416 0.21,-0.483 0.321,-0.484C0.442,-0.486 0.494,-0.407 0.494,-0.291L0.494,-0L0.567,-0L0.567,-0.306C0.567,-0.437 0.508,-0.551 0.341,-0.553C0.245,-0.555 0.172,-0.512 0.141,-0.442C0.142,-0.478 0.142,-0.508 0.142,-0.538L0.072,-0.538L0.072,-0Z" style="fill:rgb(35,31,32);fill-rule:nonzero;"/>
                </g>
                <g transform="matrix(8,0,0,8,369.772,665.668)">
                    <path d="M0.072,-0L0.145,-0L0.145,-0.293C0.145,-0.415 0.203,-0.48 0.307,-0.48L0.314,-0.48L0.314,-0.553C0.251,-0.551 0.181,-0.53 0.142,-0.45L0.142,-0.538L0.072,-0.538L0.072,-0Z" style="fill:rgb(35,31,32);fill-rule:nonzero;"/>
                </g>
                <g transform="matrix(8,0,0,8,372.349,665.668)">
                    <path d="M0.072,-0.637L0.146,-0.637L0.146,-0.74L0.072,-0.74L0.072,-0.637ZM0.072,-0L0.146,-0L0.146,-0.538L0.072,-0.538L0.072,-0Z" style="fill:rgb(35,31,32);fill-rule:nonzero;"/>
                </g>
                <g transform="matrix(8,0,0,8,374.093,665.668)">
                    <path d="M0.61,-0.538L0.539,-0.538L0.539,-0.43C0.502,-0.497 0.428,-0.553 0.318,-0.553C0.151,-0.553 0.039,-0.425 0.039,-0.266C0.039,-0.115 0.148,0.015 0.314,0.015C0.435,0.015 0.511,-0.054 0.536,-0.109L0.536,0.204L0.61,0.204L0.61,-0.538ZM0.112,-0.268C0.113,-0.372 0.184,-0.485 0.328,-0.485C0.387,-0.485 0.442,-0.461 0.48,-0.421C0.519,-0.382 0.542,-0.328 0.54,-0.268C0.54,-0.208 0.517,-0.154 0.479,-0.116C0.44,-0.077 0.387,-0.054 0.327,-0.054C0.203,-0.054 0.112,-0.149 0.112,-0.267L0.112,-0.268Z" style="fill:rgb(35,31,32);fill-rule:nonzero;"/>
                </g>
                <g transform="matrix(8,0,0,8,379.549,665.668)">
                    <path d="M0.567,-0.538L0.493,-0.538L0.493,-0.234C0.493,-0.122 0.429,-0.055 0.317,-0.054C0.196,-0.053 0.144,-0.131 0.144,-0.247L0.144,-0.538L0.071,-0.538L0.071,-0.233C0.071,-0.102 0.13,0.012 0.298,0.015C0.394,0.016 0.467,-0.026 0.497,-0.096L0.497,-0L0.567,-0L0.567,-0.538Z" style="fill:rgb(35,31,32);fill-rule:nonzero;"/>
                </g>
                <g transform="matrix(8,0,0,8,384.661,665.668)">
                    <path d="M0.595,-0.248C0.603,-0.334 0.573,-0.417 0.511,-0.477C0.46,-0.526 0.39,-0.553 0.314,-0.553C0.153,-0.553 0.031,-0.426 0.031,-0.268C0.031,-0.134 0.128,0.015 0.315,0.015C0.37,0.015 0.423,-0 0.468,-0.029C0.514,-0.058 0.552,-0.102 0.577,-0.16L0.5,-0.16C0.465,-0.09 0.398,-0.049 0.315,-0.049C0.224,-0.048 0.109,-0.113 0.105,-0.248L0.595,-0.248ZM0.106,-0.307C0.113,-0.405 0.199,-0.49 0.315,-0.49C0.426,-0.493 0.517,-0.401 0.522,-0.307L0.106,-0.307Z" style="fill:rgb(35,31,32);fill-rule:nonzero;"/>
                </g>
                <g transform="matrix(8,0,0,8,367.3,674.668)">
                    <path d="M0.075,-0L0.44,-0L0.44,-0.073L0.158,-0.073L0.158,-0.74L0.075,-0.74L0.075,-0Z" style="fill:rgb(35,31,32);fill-rule:nonzero;"/>
                </g>
                <g transform="matrix(8,0,0,8,370.639,674.668)">
                    <path d="M0.039,-0.269C0.039,-0.118 0.151,0.014 0.324,0.014C0.498,0.014 0.61,-0.118 0.61,-0.269C0.61,-0.42 0.498,-0.553 0.324,-0.553C0.151,-0.553 0.039,-0.42 0.039,-0.27L0.039,-0.269ZM0.112,-0.269C0.112,-0.392 0.205,-0.484 0.324,-0.484C0.444,-0.484 0.536,-0.392 0.536,-0.269C0.536,-0.146 0.444,-0.054 0.324,-0.054C0.205,-0.054 0.112,-0.146 0.112,-0.268L0.112,-0.269ZM0.201,-0.648L0.225,-0.6L0.466,-0.729L0.439,-0.783L0.201,-0.648Z" style="fill:rgb(35,31,32);fill-rule:nonzero;"/>
                </g>
                <g transform="matrix(8,0,0,8,375.833,674.668)">
                    <path d="M0.072,0.204L0.146,0.204L0.146,-0.11C0.171,-0.054 0.248,0.015 0.367,0.015C0.534,0.015 0.643,-0.117 0.643,-0.267C0.643,-0.406 0.548,-0.553 0.367,-0.553C0.264,-0.553 0.186,-0.504 0.142,-0.426L0.142,-0.538L0.072,-0.538L0.072,0.204ZM0.569,-0.269C0.569,-0.146 0.476,-0.054 0.355,-0.054C0.295,-0.054 0.241,-0.077 0.203,-0.115C0.164,-0.154 0.141,-0.208 0.141,-0.268C0.141,-0.329 0.164,-0.383 0.201,-0.422C0.24,-0.461 0.293,-0.485 0.353,-0.485C0.498,-0.485 0.569,-0.371 0.569,-0.27L0.569,-0.269Z" style="fill:rgb(35,31,32);fill-rule:nonzero;"/>
                </g>
                <g transform="matrix(8,0,0,8,381.307,674.668)">
                    <path d="M0.595,-0.248C0.603,-0.334 0.573,-0.417 0.511,-0.477C0.46,-0.526 0.39,-0.553 0.314,-0.553C0.153,-0.553 0.031,-0.426 0.031,-0.268C0.031,-0.134 0.128,0.015 0.315,0.015C0.37,0.015 0.423,-0 0.468,-0.029C0.514,-0.058 0.552,-0.102 0.577,-0.16L0.5,-0.16C0.465,-0.09 0.398,-0.049 0.315,-0.049C0.224,-0.048 0.109,-0.113 0.105,-0.248L0.595,-0.248ZM0.106,-0.307C0.113,-0.405 0.199,-0.49 0.315,-0.49C0.426,-0.493 0.517,-0.401 0.522,-0.307L0.106,-0.307Z" style="fill:rgb(35,31,32);fill-rule:nonzero;"/>
                </g>
                <g transform="matrix(8,0,0,8,386.333,674.668)">
                    <path d="M0.013,-0L0.405,-0L0.405,-0.059L0.102,-0.059L0.394,-0.478L0.394,-0.538L0.025,-0.538L0.025,-0.479L0.311,-0.479L0.013,-0.054L0.013,-0Z" style="fill:rgb(35,31,32);fill-rule:nonzero;"/>
                </g>
                <g transform="matrix(8,0,0,8,372.236,683.668)">
                    <path d="M0.677,-0.199C0.659,-0.171 0.58,-0.06 0.425,-0.06C0.253,-0.06 0.122,-0.196 0.122,-0.371C0.122,-0.543 0.252,-0.68 0.425,-0.68C0.568,-0.68 0.652,-0.581 0.677,-0.537L0.766,-0.537C0.723,-0.631 0.608,-0.753 0.425,-0.753C0.203,-0.753 0.04,-0.581 0.04,-0.37C0.04,-0.156 0.207,0.013 0.426,0.013C0.589,0.013 0.718,-0.085 0.766,-0.199L0.677,-0.199Z" style="fill:rgb(35,31,32);fill-rule:nonzero;"/>
                </g>
                <g transform="matrix(8,0,0,8,378.644,683.668)">
                    <path d="M0.072,-0L0.145,-0L0.145,-0.293C0.145,-0.415 0.203,-0.48 0.307,-0.48L0.314,-0.48L0.314,-0.553C0.251,-0.551 0.181,-0.53 0.142,-0.45L0.142,-0.538L0.072,-0.538L0.072,-0Z" style="fill:rgb(35,31,32);fill-rule:nonzero;"/>
                </g>
                <g transform="matrix(8,0,0,8,381.221,683.668)">
                    <path d="M0.567,-0.538L0.493,-0.538L0.493,-0.234C0.493,-0.122 0.429,-0.055 0.317,-0.054C0.196,-0.053 0.144,-0.131 0.144,-0.247L0.144,-0.538L0.071,-0.538L0.071,-0.233C0.071,-0.102 0.13,0.012 0.298,0.015C0.394,0.016 0.467,-0.026 0.497,-0.096L0.497,-0L0.567,-0L0.567,-0.538Z" style="fill:rgb(35,31,32);fill-rule:nonzero;"/>
                </g>
                <g transform="matrix(8,0,0,8,386.333,683.668)">
                    <path d="M0.013,-0L0.405,-0L0.405,-0.059L0.102,-0.059L0.394,-0.478L0.394,-0.538L0.025,-0.538L0.025,-0.479L0.311,-0.479L0.013,-0.054L0.013,-0Z" style="fill:rgb(35,31,32);fill-rule:nonzero;"/>
                </g>
            </g>
            <g transform="matrix(4.16667,0,0,4.16667,1248.14,2572.99)">
                <path d="M0,82.018C-6.604,82.018 -9.21,79.238 -9.21,75.414C-9.21,71.592 -7.646,6.082 -7.646,3.997C-7.646,1.912 -6.604,0 -3.128,0L92.965,0C94.528,0 94.354,2.085 94.528,5.039C94.702,7.994 95.745,68.61 95.745,70.869C95.745,73.127 94.702,73.127 91.748,73.127L-0.545,73.127C-3.809,73.127 -6.381,74.324 -6.381,76.105C-6.381,78.538 -3.896,80.107 -0.248,80.107L94.272,80.107C95.836,80.107 96.705,82.018 94.446,82.018L0,82.018Z" style="fill:none;fill-rule:nonzero;stroke:rgb(35,31,32);stroke-width:1px;"/>
            </g>
            <g transform="matrix(-0.776399,4.09369,4.09369,0.776399,1369.56,2791.78)">
                <path d="M11.196,-22.942C19.027,-14.352 21.258,-0.488 11.568,7.68C11.24,7.957 10.882,7.409 11.196,7.133C20.275,-0.842 18.503,-14.315 10.937,-22.643C10.768,-22.829 11.025,-23.13 11.196,-22.942" style="fill:rgb(35,31,32);fill-rule:nonzero;"/>
            </g>
            <g transform="matrix(4.16667,0,0,4.16667,1268.55,2825.87)">
                <path d="M0,-1.513C3.894,-3.293 5.518,0.329 8.675,1.18C10.9,1.78 13.718,0.959 16.05,1.036C16.498,1.051 16.495,0.361 16.05,0.34C14.395,0.263 12.812,0.538 11.177,0.571C7.831,0.638 7.228,-0.602 4.652,-1.833C2.983,-2.631 1.412,-2.819 -0.199,-1.855C-0.423,-1.722 -0.228,-1.409 0,-1.513" style="fill:rgb(35,31,32);fill-rule:nonzero;"/>
            </g>
            <g transform="matrix(4.16667,0,0,4.16667,1335.88,2844.08)">
                <path d="M0,-3.499C1.452,-2.712 2.37,-1.812 4.05,-2.158C5.216,-2.397 6.322,-2.856 7.509,-3.053C9.987,-3.463 11.956,-1.832 13.137,0.244C13.365,0.646 13.981,0.286 13.756,-0.117C12.484,-2.389 10.957,-4.145 8.224,-3.896C6.812,-3.768 5.508,-3.144 4.136,-2.938C2.428,-2.684 1.629,-3.687 0.086,-3.817C-0.085,-3.832 -0.144,-3.577 0,-3.499" style="fill:rgb(35,31,32);fill-rule:nonzero;"/>
            </g>
            <g transform="matrix(4.16667,0,0,4.16667,1336.7,2642.07)">
                <path d="M0,8.675C2.385,2.021 7.143,-2.416 14.635,-2.1C22.662,-1.761 26.892,4.214 25.818,11.962C25.75,12.452 26.497,12.672 26.575,12.17C27.684,5.042 24.419,-1.511 16.979,-2.679C8.588,-3.997 1.691,0.488 -0.335,8.583C-0.391,8.802 -0.074,8.884 0,8.675" style="fill:rgb(35,31,32);fill-rule:nonzero;"/>
            </g>
            <g transform="matrix(1.52393,3.87798,3.87798,-1.52393,1407.44,2709.05)">
                <path d="M3.954,-3.556C6.581,-0.868 6.573,3.092 4.458,6.101C4.216,6.446 3.745,6.046 3.954,5.704C5.717,2.814 5.946,-0.546 3.64,-3.249C3.479,-3.437 3.778,-3.737 3.954,-3.556" style="fill:rgb(35,31,32);fill-rule:nonzero;"/>
            </g>
            <g transform="matrix(4.16667,0,0,4.16667,1423.18,2712.78)">
                <path d="M0,0.199C1.582,0.822 3.269,1.065 4.964,0.903C6.05,0.8 7.409,0.691 8.093,-0.23C8.323,-0.54 7.84,-0.866 7.578,-0.627C5.85,0.954 2.107,0.219 0.159,-0.38C-0.218,-0.496 -0.352,0.061 0,0.199" style="fill:rgb(35,31,32);fill-rule:nonzero;"/>
            </g>
            <g transform="matrix(4.16667,0,0,4.16667,1457.44,2689.85)">
                <path d="M0,5.087C-0.021,3.812 -0.78,2.711 -1.53,1.726C-2.241,0.79 -3.067,-0.382 -4.386,-0.313C-6.932,-0.181 -8.624,3.014 -8.721,5.224C-8.734,5.528 -8.424,5.72 -8.152,5.658C-8.109,5.648 -8.066,5.638 -8.024,5.629C-7.895,5.599 -7.758,5.472 -7.733,5.338C-7.727,5.295 -7.719,5.253 -7.711,5.21C-7.659,4.916 -7.949,4.635 -8.237,4.806C-8.209,4.8 -8.181,4.795 -8.152,4.791C-8.042,4.935 -7.932,5.08 -7.822,5.224C-7.709,3.383 -5.594,-0.633 -3.145,1.284C-1.903,2.256 -1.233,3.909 -0.419,5.201C-0.304,5.384 0.004,5.317 0,5.087" style="fill:rgb(35,31,32);fill-rule:nonzero;"/>
            </g>
            <g transform="matrix(-1.53322,3.87432,3.87432,1.53322,1438.29,2701.7)">
                <path d="M1.845,-2.702C2.372,-1.492 2.632,-0.117 2.434,1.2C2.378,1.579 1.823,1.518 1.845,1.135C1.912,-0.128 1.801,-1.295 1.344,-2.485C1.218,-2.812 1.704,-3.026 1.845,-2.702" style="fill:rgb(35,31,32);fill-rule:nonzero;"/>
            </g>
            <g transform="matrix(4.16667,0,0,4.16667,1425.07,2682.61)">
                <path d="M0,-2.432C-0.355,-1.637 -0.45,-0.805 -0.26,0.047C-0.193,0.343 0.263,0.337 0.334,0.047C0.493,-0.607 0.568,-1.268 0.556,-1.941C0.55,-2.251 0.132,-2.37 -0.028,-2.099C-0.271,-1.692 -0.332,-1.268 -0.235,-0.805C-0.153,-0.406 0.462,-0.575 0.376,-0.974C0.313,-1.267 0.363,-1.526 0.514,-1.783C0.318,-1.836 0.123,-1.889 -0.071,-1.941C-0.056,-1.322 -0.116,-0.72 -0.26,-0.117L0.334,-0.117C0.176,-0.801 0.224,-1.491 0.5,-2.139C0.645,-2.477 0.152,-2.775 0,-2.432" style="fill:rgb(35,31,32);fill-rule:nonzero;"/>
            </g>
            <g transform="matrix(4.16667,0,0,4.16667,1439.79,2679.26)">
                <path d="M0,-1.414C-0.187,-0.962 -0.222,-0.422 -0.217,0.062C-0.214,0.372 0.223,0.423 0.315,0.134C0.429,-0.22 0.471,-0.59 0.483,-0.96C0.498,-1.369 -0.147,-1.37 -0.152,-0.96C-0.155,-0.704 -0.158,-0.448 -0.161,-0.192C-0.166,0.237 0.451,0.218 0.493,-0.192C0.533,-0.58 0.562,-0.978 0.531,-1.367C0.495,-1.836 -0.162,-1.837 -0.198,-1.367C-0.229,-0.978 -0.201,-0.58 -0.161,-0.192L0.493,-0.192C0.49,-0.448 0.487,-0.704 0.483,-0.96C0.275,-0.932 0.067,-0.904 -0.141,-0.876C-0.086,-0.579 -0.127,-0.299 -0.207,-0.01C-0.029,0.014 0.147,0.038 0.325,0.062C0.298,-0.422 0.369,-0.879 0.409,-1.358C0.43,-1.613 0.082,-1.611 0,-1.414" style="fill:rgb(35,31,32);fill-rule:nonzero;"/>
            </g>
            <g transform="matrix(4.16667,0,0,4.16667,1370.08,2670.96)">
                <path d="M0,8.901C-3.191,1.859 -12.963,-0.372 -19.972,-0.393C-23.644,-0.404 -31.691,0.976 -27.674,6.256C-27.435,6.571 -26.899,6.288 -27.126,5.936C-31.098,-0.244 -19.228,0.262 -15.971,0.709C-10.21,1.498 -3.342,3.705 -0.324,9.09C-0.204,9.305 0.098,9.117 0,8.901" style="fill:rgb(35,31,32);fill-rule:nonzero;"/>
            </g>
            <g transform="matrix(4.16667,0,0,4.16667,1446.94,2698.7)">
                <path d="M0,-2.747C2.251,-3.682 4.844,-3.932 7.239,-3.442C8.063,-3.273 9.507,-2.944 9.794,-2.001C10.195,-0.684 8.114,0.608 7.303,1.193C6.96,1.441 7.274,2.01 7.641,1.771C9.627,0.474 12.128,-2.274 8.833,-3.678C6.3,-4.757 2.173,-4.709 -0.192,-3.202C-0.417,-3.059 -0.272,-2.634 0,-2.747" style="fill:rgb(35,31,32);fill-rule:nonzero;"/>
            </g>
            <g transform="matrix(-3.27655,-2.57397,-2.57397,3.27655,1454.79,2725.2)">
                <path d="M-1.271,-7.082C-3.616,-5.431 -3.663,-1.239 -1.012,0.111C-0.631,0.305 -0.864,0.884 -1.271,0.728C-4.583,-0.543 -4.218,-5.793 -1.64,-7.582C-1.312,-7.809 -0.943,-7.314 -1.271,-7.082" style="fill:rgb(35,31,32);fill-rule:nonzero;"/>
            </g>
            <g transform="matrix(-3.19991,2.66865,2.66865,3.19991,1280.98,2722.1)">
                <path d="M0.629,-8.777C4.865,-7.386 5.13,-0.967 0.889,0.579C0.512,0.717 0.248,0.147 0.629,0.007C4.343,-1.351 4.136,-6.947 0.424,-8.206C0.052,-8.332 0.258,-8.899 0.629,-8.777" style="fill:rgb(35,31,32);fill-rule:nonzero;"/>
            </g>
            <g transform="matrix(4.16667,0,0,4.16667,1279.27,2751.97)">
                <path d="M0,-6.425C-1.222,-5.394 -1.046,-3.298 -0.231,-2.071C0.222,-1.389 0.895,-0.879 1.647,-0.568C2.011,-0.419 2.389,-0.317 2.777,-0.261C3.094,-0.217 4.369,-0.421 4.529,-0.208C4.764,0.104 5.237,-0.156 5.06,-0.518C4.861,-0.923 4.595,-0.928 4.168,-0.92C3.198,-0.903 2.365,-0.864 1.467,-1.367C-0.5,-2.468 -0.458,-4.423 0.308,-6.246C0.387,-6.433 0.123,-6.529 0,-6.425" style="fill:rgb(35,31,32);fill-rule:nonzero;"/>
            </g>
            <g transform="matrix(4.16667,0,0,4.16667,1297.77,2765.82)">
                <path d="M0,-3.684C-0.351,0.182 6.558,-0.74 8.585,-1.307C8.986,-1.419 8.815,-2.043 8.412,-1.932C6.956,-1.529 5.484,-1.471 3.981,-1.486C1.999,-1.505 1.273,-2.196 0.248,-3.75C0.172,-3.866 0.012,-3.815 0,-3.684" style="fill:rgb(35,31,32);fill-rule:nonzero;"/>
            </g>
            <g transform="matrix(4.16667,0,0,4.16667,1274.62,2754.29)">
                <path d="M0,-4.685C-1.007,-4.4 -1.994,-4.143 -3.028,-3.976C-3.728,-3.862 -4.502,-3.782 -5.022,-3.243C-6.013,-2.218 -5.513,-1.037 -4.604,-0.236C-4.208,0.112 -3.806,-0.615 -4.296,-0.767C-5.741,-1.215 -4.842,-2.834 -3.838,-3.128C-3.454,-3.24 -3.043,-3.267 -2.65,-3.333C-1.69,-3.494 -0.739,-3.722 0.167,-4.08C0.534,-4.224 0.398,-4.797 0,-4.685" style="fill:rgb(35,31,32);fill-rule:nonzero;"/>
            </g>
            <g transform="matrix(4.16667,0,0,4.16667,1255.24,2772.43)">
                <path d="M0,-4.965C-0.821,-4.271 -1.684,-2.841 -1.633,-1.728C-1.58,-0.555 0.204,-0.111 1.112,0.109C1.551,0.216 1.738,-0.458 1.299,-0.569C0.39,-0.795 -1.148,-1.179 -0.779,-2.398C-0.521,-3.247 -0.028,-3.886 0.498,-4.58C0.729,-4.885 0.255,-5.181 0,-4.965" style="fill:rgb(35,31,32);fill-rule:nonzero;"/>
            </g>
            <g transform="matrix(4.16667,0,0,4.16667,1259.83,2788.13)">
                <path d="M0,-3.898C-0.657,-2.897 -1.281,-2.043 -0.325,-1.056C0.423,-0.286 1.596,0.344 2.688,0.324C3.03,0.317 3.108,-0.187 2.77,-0.28C1.95,-0.504 1.203,-0.675 0.522,-1.224C0.152,-1.523 -0.166,-1.838 -0.096,-2.372C-0.047,-2.734 0.385,-3.236 0.542,-3.582C0.708,-3.945 0.226,-4.242 0,-3.898" style="fill:rgb(35,31,32);fill-rule:nonzero;"/>
            </g>
            <g transform="matrix(4.16667,0,0,4.16667,1270.03,2764.01)">
                <path d="M0,6.099C3.887,9.598 6.88,12.745 12.168,13.703C16.994,14.577 22.617,15.198 27.378,13.706C37.115,10.657 38.966,0.041 37.411,-8.699C37.34,-9.099 36.649,-9.012 36.693,-8.602C37.213,-3.77 38.007,1.059 35.499,5.548C32.999,10.022 29.156,12.911 24.014,13.552C20.093,14.041 15.508,13.717 11.635,12.875C6.873,11.839 3.979,8.763 0.449,5.65C0.145,5.381 -0.305,5.825 0,6.099" style="fill:rgb(35,31,32);fill-rule:nonzero;"/>
            </g>
            <g transform="matrix(4.16667,0,0,4.16667,1456.05,2749.02)">
                <path d="M0,-4.905C0.137,-3.816 -0.096,-2.732 -0.801,-1.869C-1.561,-0.939 -2.503,-0.721 -3.602,-0.435C-3.961,-0.342 -3.852,0.142 -3.52,0.174C-0.765,0.448 0.996,-2.605 0.644,-4.992C0.59,-5.353 -0.047,-5.272 0,-4.905" style="fill:rgb(35,31,32);fill-rule:nonzero;"/>
            </g>
            <g transform="matrix(4.16667,0,0,4.16667,1440.13,2771.34)">
                <path d="M0,-5.536C0.023,-4.338 -0.05,-3.216 -0.764,-2.198C-1.483,-1.169 -2.435,-0.814 -3.544,-0.375C-3.879,-0.243 -3.88,0.351 -3.45,0.315C-0.772,0.089 1.239,-3.083 0.517,-5.606C0.437,-5.887 -0.005,-5.838 0,-5.536" style="fill:rgb(35,31,32);fill-rule:nonzero;"/>
            </g>
            <g transform="matrix(-4.14453,0.428979,0.428979,4.14453,1341.68,2830.69)">
                <path d="M0.043,-1.906C0.34,-1.413 0.623,-0.797 0.62,-0.21C0.619,0.098 0.142,0.284 0.043,-0.07C-0.11,-0.609 -0.201,-1.127 -0.438,-1.642C-0.566,-1.924 -0.12,-2.176 0.043,-1.906" style="fill:rgb(35,31,32);fill-rule:nonzero;"/>
            </g>
            <g transform="matrix(4.16667,0,0,4.16667,1349.43,2833.56)">
                <path d="M0,-2.141C-0.074,-1.919 -0.195,-1.849 -0.248,-1.632C-0.275,-1.516 -0.295,-1.398 -0.31,-1.28C-0.349,-0.956 -0.37,-0.62 -0.351,-0.296C-0.326,0.094 0.234,0.095 0.257,-0.296C0.274,-0.599 0.271,-0.906 0.281,-1.209C0.286,-1.347 0.297,-1.492 0.285,-1.629C0.271,-1.79 0.179,-1.964 0.174,-2.118C0.172,-2.219 0.031,-2.236 0,-2.141" style="fill:rgb(35,31,32);fill-rule:nonzero;"/>
            </g>
            <g transform="matrix(-2.15693,3.56493,3.56493,2.15693,1396.5,2820.37)">
                <path d="M1.064,-1.974C1.278,-1.192 1.493,-0.41 1.707,0.371C1.819,0.782 1.167,0.943 1.064,0.53L0.481,-1.83C0.389,-2.207 0.962,-2.346 1.064,-1.974" style="fill:rgb(35,31,32);fill-rule:nonzero;"/>
            </g>
            <g transform="matrix(4.16667,0,0,4.16667,1380.29,2836.53)">
                <path d="M0,-3.256C0.313,-2.837 0.652,-2.422 0.864,-1.94C1.119,-1.36 1.125,-0.766 1.205,-0.152C1.246,0.161 1.755,0.316 1.822,-0.068C2.036,-1.296 1.289,-2.848 0.233,-3.489C0.096,-3.572 -0.105,-3.397 0,-3.256" style="fill:rgb(35,31,32);fill-rule:nonzero;"/>
            </g>
            <g transform="matrix(4.16667,0,0,4.16667,1391.99,2817.86)">
                <path d="M0,5.717C1.426,4.684 3.243,4.43 4.928,4.066C6.041,3.824 7.916,3.613 8.625,2.564C9.284,1.588 8.616,0.794 7.639,0.504C5.584,-0.104 3.356,0.896 1.861,2.279C1.545,2.573 2.018,3.042 2.335,2.752C3.142,2.015 4.095,1.452 5.166,1.2C5.729,1.068 8.17,0.786 8.133,1.815C8.098,2.789 5.907,3.074 5.222,3.234C3.544,3.62 0.756,3.823 -0.233,5.484C-0.315,5.622 -0.143,5.821 0,5.717" style="fill:rgb(35,31,32);fill-rule:nonzero;"/>
            </g>
            <g transform="matrix(4.16667,0,0,4.16667,1409.52,2816.39)">
                <path d="M0,0.834C1.065,0.295 2.196,-0.194 3.365,-0.453C3.696,-0.526 4.511,-0.746 4.801,-0.446C5.211,-0.023 4.516,1.011 4.324,1.382C4.111,1.795 4.702,2.145 4.949,1.747C5.633,0.642 6.201,-1.299 4.274,-1.306C2.701,-1.311 1.025,-0.457 -0.337,0.256C-0.72,0.456 -0.383,1.027 0,0.834" style="fill:rgb(35,31,32);fill-rule:nonzero;"/>
            </g>
            <g transform="matrix(4.16667,0,0,4.16667,1394.67,2807.79)">
                <path d="M0,4.4C1.074,3.853 1.881,2.673 2.912,2C4.296,1.096 5.67,0.671 7.253,1.283C7.586,1.411 7.792,0.886 7.492,0.714C6.138,-0.06 4.613,0.291 3.305,1.008C2.108,1.664 0.268,2.899 -0.246,4.212C-0.304,4.358 -0.117,4.46 0,4.4" style="fill:rgb(35,31,32);fill-rule:nonzero;"/>
            </g>
            <g transform="matrix(4.16667,0,0,4.16667,1229.02,2848.54)">
                <path d="M0,-5.827C1.693,0.351 10.525,-0.032 15.298,-0.654C15.74,-0.712 15.757,-1.412 15.298,-1.364C12.392,-1.058 10.003,-0.583 7.064,-1.28C4.574,-1.872 1.266,-3.322 0.388,-5.934C0.306,-6.178 -0.069,-6.08 0,-5.827" style="fill:rgb(35,31,32);fill-rule:nonzero;"/>
            </g>
            <g transform="matrix(4.16667,0,0,4.16667,1269.65,2828.79)">
                <path d="M0,0.997C-0.498,0.493 -1.104,-0.087 -1.802,-0.294C-2.516,-0.507 -3.287,-0.027 -3.997,0.044C-4.183,0.062 -4.279,0.265 -4.149,0.411C-3.749,0.859 -3.251,0.651 -2.743,0.503C-2.205,0.346 -1.868,0.408 -1.379,0.659C-0.99,0.858 -0.625,1.093 -0.272,1.351C-0.062,1.504 0.176,1.174 0,0.997" style="fill:rgb(35,31,32);fill-rule:nonzero;"/>
            </g>
            <g transform="matrix(4.16667,0,0,4.16667,1254.45,2822.26)">
                <path d="M0,1.629C-0.19,1.095 -0.452,0.587 -0.714,0.085C-0.848,-0.172 -0.971,-0.472 -1.305,-0.492C-1.739,-0.518 -2.301,-0.047 -2.682,0.103C-3.166,0.291 -3.713,0.349 -4.154,0.62C-4.334,0.731 -4.332,1.075 -4.091,1.113C-3.404,1.221 -2.68,0.896 -2.056,0.628C-1.884,0.555 -1.668,0.404 -1.492,0.364C-1.487,0.317 -1.481,0.268 -1.476,0.219C-1.415,0.339 -1.354,0.458 -1.292,0.578C-1.067,1.019 -0.853,1.462 -0.574,1.871C-0.386,2.147 0.126,1.984 0,1.629" style="fill:rgb(35,31,32);fill-rule:nonzero;"/>
            </g>
            <g transform="matrix(4.16667,0,0,4.16667,1238.02,2819.17)">
                <path d="M0,1.602C-0.002,1.285 -0.212,0.978 -0.353,0.701C-0.472,0.466 -0.592,0.184 -0.837,0.052C-1.387,-0.242 -1.864,0.465 -2.108,0.856C-2.319,1.194 -1.796,1.493 -1.578,1.166C-1.478,1.016 -1.363,0.848 -1.222,0.734C-1.058,0.602 -1.027,0.741 -0.931,0.897C-0.749,1.192 -0.589,1.579 -0.287,1.767C-0.164,1.844 0.001,1.744 0,1.602" style="fill:rgb(35,31,32);fill-rule:nonzero;"/>
            </g>
            <g transform="matrix(4.16667,0,0,4.16667,1231.18,2807.43)">
                <path d="M0,3.505C0.06,2.906 -0.158,2.285 -0.311,1.711C-0.466,1.129 -0.582,0.498 -0.87,-0.034C-0.986,-0.247 -1.371,-0.162 -1.348,0.096C-1.291,0.7 -1.057,1.287 -0.897,1.873C-0.742,2.447 -0.649,3.086 -0.33,3.595C-0.231,3.752 -0.017,3.676 0,3.505" style="fill:rgb(35,31,32);fill-rule:nonzero;"/>
            </g>
            <g transform="matrix(4.16667,0,0,4.16667,1227.44,2808.67)">
                <path d="M0,-0.068C0.777,0.002 1.54,0.103 2.307,0.25C2.97,0.378 3.615,0.609 4.285,0.679C4.578,0.709 4.651,0.286 4.428,0.152C3.68,-0.3 2.7,-0.389 1.85,-0.528C1.176,-0.637 0.525,-0.777 -0.104,-0.449C-0.299,-0.347 -0.187,-0.085 0,-0.068" style="fill:rgb(35,31,32);fill-rule:nonzero;"/>
            </g>
            <g transform="matrix(4.16667,0,0,4.16667,1246.97,2801.21)">
                <path d="M0,2.276C0.418,1.935 0.729,1.464 1.145,1.135C1.548,0.815 1.771,0.735 2.333,0.724C3.226,0.708 4.094,0.913 4.979,0.983C5.34,1.011 5.361,0.496 5.059,0.386C4.053,0.022 2.575,-0.181 1.521,0.011C0.686,0.165 0.015,1.271 -0.424,1.949C-0.601,2.224 -0.223,2.457 0,2.276" style="fill:rgb(35,31,32);fill-rule:nonzero;"/>
            </g>
            <g transform="matrix(4.16667,0,0,4.16667,1268.06,2807.77)">
                <path d="M0,-0.399C0.391,-0.069 0.955,0.469 1.481,0.53C2.04,0.593 3.001,0.036 3.479,-0.228C3.727,-0.365 3.556,-0.742 3.289,-0.677C2.771,-0.55 2.272,-0.242 1.759,-0.137C1.268,-0.038 0.752,-0.485 0.381,-0.78C0.114,-0.992 -0.269,-0.626 0,-0.399" style="fill:rgb(35,31,32);fill-rule:nonzero;"/>
            </g>
            <g transform="matrix(4.16667,0,0,4.16667,1282.31,2799.43)">
                <path d="M0,1.662C0.174,1.526 0.231,1.349 0.315,1.151C0.398,0.955 0.509,0.775 0.615,0.592C0.825,0.227 0.281,-0.084 0.055,0.264C-0.186,0.634 -0.48,1.19 -0.289,1.625C-0.236,1.746 -0.082,1.726 0,1.662" style="fill:rgb(35,31,32);fill-rule:nonzero;"/>
            </g>
            <g transform="matrix(3.16311,2.71217,2.71217,-3.16311,1301.26,2819.5)">
                <path d="M0.694,-0.245C0.939,0.397 1.46,1.059 1.297,1.778C1.211,2.166 0.644,2.06 0.694,1.668C0.777,1.025 0.225,0.49 0.13,-0.128C0.081,-0.463 0.58,-0.542 0.694,-0.245" style="fill:rgb(35,31,32);fill-rule:nonzero;"/>
            </g>
            <g transform="matrix(4.16667,0,0,4.16667,1317.19,2819.13)">
                <path d="M0,2.485C0.834,2.039 1.687,1.298 2.16,0.469C2.311,0.206 1.936,-0.112 1.727,0.134C1.418,0.498 1.148,0.881 0.811,1.221C0.478,1.555 0.106,1.85 -0.265,2.142C-0.466,2.3 -0.209,2.597 0,2.485" style="fill:rgb(35,31,32);fill-rule:nonzero;"/>
            </g>
            <g transform="matrix(4.16667,0,0,4.16667,1416.31,2829.91)">
                <path d="M0,3.313C2.455,1.728 5.812,1.931 8.411,0.497C8.694,0.34 8.503,-0.122 8.19,-0.028C6.592,0.454 5.074,1.155 3.46,1.602C2.16,1.961 0.924,2.197 -0.173,3.018C-0.344,3.147 -0.189,3.435 0,3.313" style="fill:rgb(35,31,32);fill-rule:nonzero;"/>
            </g>
            <g transform="matrix(4.16667,0,0,4.16667,1416.7,2845.73)">
                <path d="M0,-0.312C2.888,-0.298 5.29,1.473 8.109,1.505C10.432,1.532 12.8,0.318 14.759,-0.831C15.236,-1.11 14.809,-1.844 14.325,-1.573C11.333,0.112 8.635,1.086 5.194,0.115C3.373,-0.4 1.846,-1.054 -0.042,-0.621C-0.217,-0.581 -0.175,-0.313 0,-0.312" style="fill:rgb(35,31,32);fill-rule:nonzero;"/>
            </g>
            <g transform="matrix(1.29708,3.95963,3.95963,-1.29708,1460.72,2809.2)">
                <path d="M4.446,-3.686C6.197,-0.725 5.703,2.8 5.133,6.025C5.054,6.471 4.366,6.323 4.446,5.877C5.026,2.646 5.296,-0.359 3.941,-3.442C3.812,-3.733 4.284,-3.96 4.446,-3.686" style="fill:rgb(35,31,32);fill-rule:nonzero;"/>
            </g>
            <g transform="matrix(4.16667,0,0,4.16667,1488.17,2831.4)">
                <path d="M0,-2.316C-0.225,-1.913 -0.437,-1.504 -0.685,-1.112C-0.888,-0.79 -1.276,-0.439 -1.247,-0.043C-1.235,0.12 -1.093,0.251 -0.924,0.204C-0.503,0.085 -0.324,-0.429 -0.132,-0.789C0.098,-1.218 0.309,-1.659 0.468,-2.119C0.562,-2.395 0.14,-2.567 0,-2.316" style="fill:rgb(35,31,32);fill-rule:nonzero;"/>
            </g>
            <g transform="matrix(4.16667,0,0,4.16667,1483.48,2835.64)">
                <path d="M0,-0.959C0.554,-0.685 1.138,-0.473 1.7,-0.216C2.207,0.015 2.71,0.342 3.252,0.47C3.475,0.522 3.7,0.221 3.495,0.054C3.035,-0.321 2.425,-0.523 1.882,-0.755C1.328,-0.99 0.769,-1.244 0.189,-1.408C-0.072,-1.481 -0.255,-1.085 0,-0.959" style="fill:rgb(35,31,32);fill-rule:nonzero;"/>
            </g>
            <g transform="matrix(4.16667,0,0,4.16667,1476.83,2837.73)">
                <path d="M0,0.875C0.708,1.456 1.747,1.708 2.657,1.645C3.658,1.575 4.506,0.562 5.124,-0.132C5.376,-0.415 4.966,-0.833 4.704,-0.552C4.211,-0.021 3.567,0.673 2.835,0.872C2.115,1.067 0.988,0.77 0.409,0.345C0.103,0.12 -0.296,0.632 0,0.875" style="fill:rgb(35,31,32);fill-rule:nonzero;"/>
            </g>
            <g transform="matrix(4.16667,0,0,4.16667,1398.33,2813.65)">
                <path d="M0,0.104C0.239,0.256 0.54,0.321 0.814,0.382C1.097,0.445 1.391,0.513 1.681,0.516C2.042,0.52 2.126,-0.032 1.767,-0.121C1.494,-0.187 1.21,-0.208 0.935,-0.266C0.674,-0.321 0.407,-0.406 0.14,-0.411C-0.145,-0.416 -0.225,-0.039 0,0.104" style="fill:rgb(35,31,32);fill-rule:nonzero;"/>
            </g>
            <g transform="matrix(0.827649,4.08364,4.08364,-0.827649,1443.89,2796.11)">
                <path d="M4.798,-4.329C5.999,-1.184 6.311,2.77 5.136,5.963C5.07,6.143 4.778,6.098 4.798,5.895C5.142,2.357 5.221,-0.695 4.428,-4.2C4.379,-4.413 4.717,-4.542 4.798,-4.329" style="fill:rgb(35,31,32);fill-rule:nonzero;"/>
            </g>
            <g transform="matrix(4.16667,0,0,4.16667,1472.57,2787.89)">
                <path d="M0,5.761C1.613,5.184 3.063,4.259 4.363,3.148C4.544,2.993 4.447,2.661 4.222,2.612C3.978,2.558 3.521,2.524 3.339,2.372C3.066,2.375 3.028,2.318 3.227,2.198C3.354,2.084 3.474,1.964 3.587,1.837C3.91,1.479 4.167,1.077 4.395,0.654C4.48,0.492 4.409,0.268 4.219,0.223C3.893,0.146 3.567,0.069 3.238,0.001C2.835,-0.082 2.664,0.542 3.068,0.619C3.399,0.682 3.73,0.735 4.062,0.788C4.005,0.645 3.946,0.501 3.888,0.358C3.567,0.964 3.067,1.362 2.69,1.904C2.6,2.034 2.474,2.119 2.481,2.304C2.506,2.908 3.623,3.148 4.051,3.231C4.003,3.052 3.956,2.873 3.909,2.695C2.718,3.87 1.364,4.699 -0.166,5.368C-0.388,5.465 -0.229,5.843 0,5.761" style="fill:rgb(35,31,32);fill-rule:nonzero;"/>
            </g>
            <g transform="matrix(4.16667,0,0,4.16667,1486.33,2782.44)">
                <path d="M0,1.276C-0.629,0.584 -0.67,-0.106 -1.677,-0.299C-3.244,-0.601 -4.954,-0.475 -6.544,-0.496C-7.066,-0.503 -7.066,0.308 -6.544,0.316C-5.131,0.335 -3.614,0.222 -2.215,0.453C-1.499,0.571 -1.315,0.778 -0.897,1.299C-0.672,1.581 -0.604,1.632 -0.282,1.761C0.007,1.877 0.176,1.47 0,1.276" style="fill:rgb(35,31,32);fill-rule:nonzero;"/>
            </g>
            <g transform="matrix(4.16667,0,0,4.16667,1461.2,2771.12)">
                <path d="M0,3.001C-0.377,2.507 -0.695,1.973 -0.982,1.421C-1.228,0.948 -1.412,0.299 -1.77,-0.104C-2.043,-0.411 -2.36,-0.452 -2.753,-0.386C-3.362,-0.282 -4.093,-0.085 -4.662,0.148C-4.927,0.258 -4.894,0.625 -4.594,0.651C-4.12,0.692 -3.659,0.588 -3.195,0.491C-2.403,0.328 -2.219,0.69 -1.896,1.324C-1.491,2.119 -1.082,2.826 -0.326,3.327C-0.137,3.453 0.146,3.192 0,3.001" style="fill:rgb(35,31,32);fill-rule:nonzero;"/>
            </g>
            <g transform="matrix(4.16667,0,0,4.16667,1443.18,2766.37)">
                <path d="M0,1.547C-0.034,1.356 -0.199,1.178 -0.317,1.026C-0.447,0.857 -0.576,0.689 -0.701,0.517C-0.933,0.197 -1.139,-0.269 -1.604,-0.238C-1.943,-0.216 -2.152,0.283 -1.793,0.457C-1.642,0.531 -1.571,0.668 -1.477,0.801C-1.361,0.961 -1.242,1.117 -1.104,1.257C-0.876,1.486 -0.547,1.814 -0.204,1.815C-0.057,1.816 0.023,1.68 0,1.547" style="fill:rgb(35,31,32);fill-rule:nonzero;"/>
            </g>
            <g transform="matrix(1.00176,4.04445,4.04445,-1.00176,1448.34,2783.81)">
                <path d="M4.663,-3.718C5.529,-0.744 5.792,2.906 5.071,5.929C5.016,6.161 4.657,6.097 4.663,5.865C4.749,2.595 4.755,-0.366 4.279,-3.623C4.243,-3.872 4.591,-3.967 4.663,-3.718" style="fill:rgb(35,31,32);fill-rule:nonzero;"/>
            </g>
        </g>
    </g>
    <defs>
        <linearGradient id="_Linear1" x1="0" y1="0" x2="1" y2="0" gradientUnits="userSpaceOnUse" gradientTransform="matrix(1,0,0,-1,0,-5.33711e-06)"><stop offset="0" style="stop-color:rgb(225,244,253);stop-opacity:1"/><stop offset="0" style="stop-color:rgb(225,244,253);stop-opacity:1"/><stop offset="1" style="stop-color:rgb(146,197,235);stop-opacity:1"/></linearGradient>
        <linearGradient id="_Linear2" x1="0" y1="0" x2="1" y2="0" gradientUnits="userSpaceOnUse" gradientTransform="matrix(1,0,0,-1,0,0.000165944)"><stop offset="0" style="stop-color:rgb(233,233,233);stop-opacity:1"/><stop offset="0" style="stop-color:rgb(233,233,233);stop-opacity:1"/><stop offset="0.72" style="stop-color:white;stop-opacity:1"/><stop offset="1" style="stop-color:white;stop-opacity:1"/></linearGradient>
        <linearGradient id="_Linear3" x1="0" y1="0" x2="1" y2="0" gradientUnits="userSpaceOnUse" gradientTransform="matrix(1,0,0,-1,0,7.57745e-05)"><stop offset="0" style="stop-color:rgb(233,233,233);stop-opacity:1"/><stop offset="0" style="stop-color:rgb(233,233,233);stop-opacity:1"/><stop offset="0.72" style="stop-color:white;stop-opacity:1"/><stop offset="1" style="stop-color:white;stop-opacity:1"/></linearGradient>
        <linearGradient id="_Linear4" x1="0" y1="0" x2="1" y2="0" gradientUnits="userSpaceOnUse" gradientTransform="matrix(1,0,0,-1,0,6.3722e-05)"><stop offset="0" style="stop-color:rgb(233,233,233);stop-opacity:1"/><stop offset="0" style="stop-color:rgb(233,233,233);stop-opacity:1"/><stop offset="0.72" style="stop-color:white;stop-opacity:1"/><stop offset="1" style="stop-color:white;stop-opacity:1"/></linearGradient>
        <linearGradient id="_Linear5" x1="0" y1="0" x2="1" y2="0" gradientUnits="userSpaceOnUse" gradientTransform="matrix(1,0,0,-1,0,-9.83555e-05)"><stop offset="0" style="stop-color:rgb(233,233,233);stop-opacity:1"/><stop offset="0" style="stop-color:rgb(233,233,233);stop-opacity:1"/><stop offset="0.72" style="stop-color:white;stop-opacity:1"/><stop offset="1" style="stop-color:white;stop-opacity:1"/></linearGradient>
    </defs>
</svg>
