<?xml version="1.0" encoding="UTF-8" standalone="no"?>
<!DOCTYPE svg PUBLIC "-//W3C//DTD SVG 1.1//EN" "http://www.w3.org/Graphics/SVG/1.1/DTD/svg11.dtd">
<svg width="100%" height="100%" viewBox="0 0 437 299" version="1.1" xmlns="http://www.w3.org/2000/svg" xmlns:xlink="http://www.w3.org/1999/xlink" xml:space="preserve" xmlns:serif="http://www.serif.com/" style="fill-rule:evenodd;clip-rule:evenodd;stroke-linejoin:round;stroke-miterlimit:2;">
    <g transform="matrix(1,0,0,1,-116,-758)">
        <g transform="matrix(1,0,0,1,-450.923,-1491.74)">
            <g transform="matrix(4.16667,0,0,4.16667,748.602,2395.55)">
                <path d="M0,1.841L2.054,1.841C1.196,0.713 1.137,0.714 0,1.841M26.834,-2.803C25.228,-3.661 24.998,-3.585 24.183,-2.025C25.07,-2.285 25.863,-2.518 26.834,-2.803M-20.67,1.555C-19.634,1.626 -18.822,1.815 -17.892,1.514C-19.245,0.349 -19.508,0.348 -20.67,1.555M32.911,-4.464C33.664,-4.751 34.231,-4.942 34.777,-5.182C35.339,-5.43 35.881,-5.727 36.586,-6.08C35.53,-6.848 34.51,-7.195 33.641,-6.805C32.925,-6.482 32.84,-5.484 32.911,-4.464M-29.121,-4.545C-31.031,-4.178 -32.754,-3.873 -34.2,-2.482C-32.342,-1.563 -30.625,-0.641 -28.421,-0.505C-28.666,-1.921 -28.886,-3.193 -29.121,-4.545M-3.4,23.983L-3.4,23.995C-2.568,23.995 -1.737,24 -0.905,23.994C-0.266,23.989 0.138,23.728 0.206,23.031C0.271,22.351 0.169,21.772 -0.602,21.629C-1.958,21.377 -3.317,21.103 -4.686,20.97C-6.226,20.82 -7.78,20.797 -9.329,20.754C-10.484,20.722 -11.642,20.715 -12.798,20.754C-13.845,20.79 -14.717,21.712 -14.696,22.675C-14.674,23.669 -14.261,23.976 -12.856,23.98C-9.704,23.989 -6.552,23.983 -3.4,23.983M15.753,-8.187C15.031,-8.451 14.518,-8.791 14,-8.803C11.348,-8.862 8.693,-8.87 6.041,-8.829C4.166,-8.801 2.29,-8.567 0.418,-8.598C-4.306,-8.677 -9.008,-8.614 -13.615,-7.393C-13.95,-7.304 -14.261,-7.121 -14.781,-6.897C-7.114,-5.57 10.741,-6.296 15.753,-8.187M21.258,32.172C21.604,33.624 21.622,33.755 22.689,33.607C25.041,33.279 27.366,32.757 29.716,32.409C31.548,32.138 32.384,30.885 32.787,29.338C33.721,25.748 34.382,22.144 33.902,18.366C33.51,15.266 32.748,12.288 31.798,9.338C31.646,8.866 31.43,8.41 31.206,7.965C30.241,6.035 29.2,5.563 27.156,6.201C25.835,6.613 24.525,7.07 23.241,7.584C22.268,7.974 21.324,8.448 20.405,8.955C19.65,9.37 19.266,9.99 19.746,10.89C20.786,11.031 21.343,10.351 21.823,9.662C22.682,9.758 23.191,10.079 23.539,10.852C25.458,15.101 25.787,19.624 25.762,24.169C25.747,26.687 25.202,29.182 24.086,31.528C23.184,31.734 22.276,31.94 21.258,32.172M10.439,-9.949C10.441,-10.076 10.443,-10.202 10.446,-10.329C9.865,-10.486 9.248,-10.565 8.709,-10.813C5.736,-12.179 2.502,-12.469 -0.649,-13.037C-4.137,-13.664 -7.675,-14.01 -11.193,-14.477C-12.633,-14.668 -13.811,-15.241 -14.638,-16.52C-15.661,-18.101 -16.786,-19.617 -17.85,-21.173C-18.53,-22.169 -18.572,-22.258 -19.734,-21.791C-21.733,-20.988 -23.792,-20.257 -25.638,-19.176C-27.04,-18.355 -28.194,-17.081 -29.371,-15.92C-30.033,-15.268 -30.126,-14.433 -29.821,-13.465C-29.325,-11.892 -28.262,-10.964 -26.846,-10.315C-24.167,-9.09 -21.366,-8.25 -18.51,-7.553C-17.649,-7.342 -16.9,-7.469 -16.082,-7.717C-14.178,-8.293 -12.273,-8.975 -10.317,-9.254C-7.139,-9.709 -3.941,-10.057 -0.705,-9.972C3.007,-9.874 6.724,-9.949 10.439,-9.949M15.601,-27.349C17.477,-26.398 19.045,-25.582 20.633,-24.806C21.926,-24.174 23.204,-23.479 24.558,-23.009C27.15,-22.11 29.539,-20.88 31.793,-19.313C33.696,-17.989 34.338,-16.26 34.064,-14.029C33.842,-12.23 33.74,-10.415 33.587,-8.634C34.782,-8.214 35.93,-7.947 36.937,-7.414C37.807,-6.954 38.482,-7.005 39.237,-7.52C41.658,-9.172 44.093,-10.804 46.509,-12.463C46.917,-12.743 47.298,-13.087 47.623,-13.46C49.547,-15.665 49.723,-18.027 47.465,-20.187C45.631,-21.941 43.472,-22.963 41.171,-23.765C38.661,-24.641 36.083,-25.205 33.406,-25.458C30.606,-25.722 27.842,-26.363 25.065,-26.848C22.054,-27.373 19.022,-27.425 15.601,-27.349M-11.311,19.685C-11.15,18.124 -11.047,16.859 -10.883,15.603C-10.654,13.842 -10.158,13.285 -8.411,13.003C-5.124,12.472 -1.809,12.25 1.52,12.347C2.678,12.38 3.834,12.643 4.987,12.623C7.09,12.587 9.19,12.416 11.291,12.301C11.402,12.295 11.516,12.296 11.622,12.269C12.3,12.095 12.537,11.361 12.045,10.859C11.82,10.629 11.51,10.448 11.205,10.339C9.853,9.856 8.52,9.24 7.122,8.985C5.114,8.618 3.061,8.44 1.018,8.328C-2.514,8.134 -6.05,7.641 -9.591,8.277C-9.858,8.325 -10.145,8.285 -10.421,8.266C-13.416,8.063 -16.238,8.712 -18.918,10.015C-19.298,10.2 -19.682,10.51 -19.903,10.863C-20.762,12.229 -21.431,13.688 -21.449,15.341C-21.474,17.82 -21.654,20.32 -21.397,22.773C-21.145,25.179 -20.496,27.554 -19.891,29.908C-19.454,31.615 -18.208,32.796 -16.681,33.549C-14.43,34.658 -12.044,35.355 -9.491,35.334C-8.382,35.324 -7.265,35.307 -6.165,35.42C-1.731,35.875 2.686,35.801 7.082,35.067C8.389,34.848 9.682,34.541 10.969,34.223C11.59,34.068 12.145,33.754 12.402,32.954C11.893,32.954 11.511,32.941 11.131,32.956C7.808,33.083 4.486,33.212 1.164,33.347C0.776,33.362 0.386,33.383 0.003,33.44C-2.734,33.855 -5.418,33.391 -8.083,32.878C-9.51,32.603 -10.398,31.551 -10.754,30.181C-10.988,29.285 -10.995,28.326 -11.074,27.393C-11.138,26.639 -11.158,25.88 -11.199,25.097C-12.148,25.097 -12.914,25.091 -13.678,25.099C-14.699,25.11 -15.251,24.767 -15.626,23.873C-16.426,21.967 -15.25,19.925 -13.193,19.695C-12.6,19.628 -11.993,19.685 -11.311,19.685M33.4,10.041C33.766,11.648 34.246,13.411 34.557,15.202C34.858,16.939 35.07,18.703 35.17,20.463C35.274,22.251 35.194,24.05 35.194,26.093C37.954,25.015 40.554,24.195 42.97,23.003C45.292,21.858 47.402,20.291 49.644,18.978C51.953,17.625 53.642,15.671 55.129,13.516C55.496,12.985 55.743,12.337 55.906,11.707C56.405,9.783 56.836,7.84 57.294,5.905C58.329,1.518 59.398,-2.863 59.761,-7.591C57.952,-4.877 56.149,-2.528 53.666,-0.609C51.191,1.304 48.657,3.087 45.889,4.454C41.83,6.459 37.626,8.168 33.4,10.041M32.89,-15.163C32.39,-14.794 32.141,-14.601 31.882,-14.422C30.022,-13.129 28.233,-11.713 26.282,-10.577C23.642,-9.041 20.711,-8.165 17.75,-7.464C15.87,-7.02 13.966,-6.639 12.05,-6.39C9.583,-6.07 7.072,-6.049 4.621,-5.647C1.76,-5.178 -1.101,-4.964 -3.984,-5.03C-6.973,-5.1 -9.968,-5.165 -12.945,-5.422C-15.084,-5.608 -17.231,-5.975 -19.313,-6.503C-21.498,-7.058 -23.622,-7.869 -25.751,-8.632C-26.955,-9.063 -28.114,-9.621 -29.434,-10.182C-28.502,-6.6 -27.614,-3.193 -26.734,0.19C-25.177,0.51 -23.783,0.797 -22.433,1.075C-21.141,-1.692 -17.461,-0.805 -16.222,1.766C-11.244,2.815 -6.29,2.057 -1.557,1.909C-1.033,1.183 -0.742,0.437 -0.199,0.095C1.222,-0.799 1.926,-0.723 3.382,0.884C4.004,1.571 4.602,1.729 5.402,1.629C8.091,1.291 10.798,1.051 13.465,0.587C16.67,0.031 19.827,-0.777 22.894,-1.769C22.95,-3.579 23.725,-4.527 25.364,-4.905C26.732,-5.219 27.123,-4.971 28.15,-3.085C29.127,-3.339 30.128,-3.598 31.042,-3.836C32.35,-7.517 32.524,-11.207 32.89,-15.163M-10.238,19.639C-9.166,19.766 -8.41,19.904 -7.65,19.935C-5.054,20.043 -2.44,19.814 0.106,20.616C0.855,20.853 1.522,21.12 1.677,21.895C2.053,23.783 0.878,25.14 -1.051,25.12C-3.491,25.095 -5.931,25.041 -8.371,25.015C-8.798,25.011 -9.226,25.091 -9.654,25.131C-9.766,25.882 -9.928,26.53 -9.942,27.181C-9.959,27.89 -9.912,28.617 -9.762,29.307C-9.485,30.573 -8.834,31.628 -7.446,31.835C-5.316,32.151 -3.173,32.513 -1.028,32.561C1.733,32.623 4.5,32.4 7.265,32.286C7.817,32.263 8.366,32.179 8.917,32.126C11.779,31.847 14.642,31.567 17.504,31.295C18.828,31.169 20.163,31.125 21.474,30.92C22.139,30.816 22.95,30.746 23.21,29.869C23.805,27.855 24.667,25.898 24.53,23.728C24.439,22.292 24.242,20.858 24.25,19.424C24.266,17.111 23.802,14.914 22.99,12.77C22.803,12.279 22.626,11.786 22.416,11.216C21.707,11.439 21.19,11.617 20.664,11.765C19.599,12.067 18.545,12.515 17.46,12.614C14.21,12.913 10.95,13.164 7.687,13.265C3.694,13.389 -0.307,13.293 -4.302,13.394C-5.67,13.428 -7.037,13.739 -8.393,13.984C-9.012,14.096 -9.587,14.447 -9.691,15.125C-9.907,16.533 -10.039,17.953 -10.238,19.639M-5.171,-31.189C-6.234,-31.105 -7.748,-31.247 -9.086,-30.826C-11.774,-29.982 -14.369,-28.837 -16.995,-27.798C-17.353,-27.657 -17.694,-27.45 -18.006,-27.223C-18.922,-26.556 -19.137,-25.926 -18.662,-24.921C-18.002,-23.528 -17.321,-22.136 -16.526,-20.817C-15.753,-19.538 -14.796,-18.372 -13.972,-17.121C-13.304,-16.107 -12.432,-15.597 -11.202,-15.589C-9.544,-15.578 -7.85,-15.689 -6.235,-15.393C-1.711,-14.565 2.79,-13.597 7.282,-12.603C10.598,-11.869 13.77,-10.703 16.819,-9.189C17.382,-8.909 18.174,-8.641 18.704,-8.822C21.259,-9.697 23.89,-10.492 26.24,-11.778C28.134,-12.814 29.958,-14.136 31.376,-15.9C32.261,-17.002 32.318,-17.816 31.146,-18.637C29.418,-19.846 27.615,-20.909 25.616,-21.661C23.65,-22.401 21.76,-23.345 19.845,-24.218C18.533,-24.817 17.27,-25.542 15.924,-26.045C12.547,-27.305 9.137,-28.477 5.735,-29.673C2.327,-30.871 -1.261,-30.782 -5.171,-31.189M-29.513,-6.119C-30.077,-8.278 -30.622,-10.585 -31.296,-12.853C-31.613,-13.917 -31.406,-14.839 -30.918,-15.721C-29.924,-17.517 -28.354,-18.819 -26.658,-19.842C-25.111,-20.776 -23.342,-21.348 -21.657,-22.043C-20.76,-22.413 -19.833,-22.709 -18.881,-23.051C-19.258,-24.039 -19.567,-24.92 -19.934,-25.777C-20.243,-26.503 -20.042,-27.096 -19.51,-27.577C-19.062,-27.984 -18.574,-28.373 -18.044,-28.658C-16.92,-29.261 -15.791,-29.881 -14.602,-30.334C-11.225,-31.622 -7.802,-32.744 -4.09,-32.285C-3.266,-32.182 -2.433,-32.054 -1.605,-32.069C2.079,-32.133 5.554,-31.23 8.886,-29.765C10.945,-28.859 12.95,-28.337 15.29,-28.465C18.3,-28.63 21.345,-28.201 24.372,-27.998C25.084,-27.95 25.789,-27.79 26.497,-27.677C27.638,-27.493 28.782,-27.322 29.919,-27.113C30.626,-26.985 31.317,-26.757 32.025,-26.642C34.097,-26.308 36.198,-26.115 38.244,-25.669C41.93,-24.866 45.42,-23.691 48.373,-21.077C50.022,-19.617 50.618,-18.108 50.485,-16.018C50.226,-11.985 50.102,-7.942 49.902,-3.905C49.853,-2.911 49.706,-1.923 49.639,-0.929C49.601,-0.361 49.633,0.211 49.633,0.964C50.34,0.449 50.886,0.08 51.4,-0.329C52.222,-0.985 52.952,-1.781 53.842,-2.315C56.2,-3.728 57.638,-5.866 58.658,-8.297C59.694,-10.77 59.798,-13.298 58.69,-15.84C58.239,-16.873 57.916,-17.891 56.754,-18.394C56.411,-18.544 56.183,-19.037 55.977,-19.413C54.482,-22.138 52.05,-23.938 49.539,-25.533C47.881,-26.588 45.922,-27.209 44.042,-27.869C41.065,-28.914 38.043,-29.84 35.034,-30.794C34.298,-31.028 33.543,-31.221 32.784,-31.357C29.843,-31.885 26.91,-32.476 23.95,-32.868C20.274,-33.356 16.584,-33.795 12.858,-33.59C12.138,-33.55 11.418,-33.509 10.697,-33.479C5.322,-33.251 -0.057,-33.589 -5.438,-33.072C-12.412,-32.401 -19.298,-31.465 -25.907,-28.991C-29.688,-27.576 -33.246,-25.819 -36.122,-22.927C-37.528,-21.513 -38.782,-19.949 -40.173,-18.519C-41.894,-16.749 -42.096,-14.598 -41.827,-12.339C-41.697,-11.245 -41.442,-10.153 -41.115,-9.101C-40.22,-6.219 -38.416,-4.197 -35.846,-3.439C-33.6,-4.39 -31.682,-5.201 -29.513,-6.119M-41.925,-8.127C-42.016,-8.078 -42.106,-8.029 -42.197,-7.981C-41.9,-6.527 -41.561,-5.08 -41.314,-3.617C-40.427,1.629 -39.376,6.835 -37.831,11.936C-37.31,13.654 -36.43,15.054 -34.961,16.083C-32.577,17.752 -29.9,18.844 -27.202,19.842C-25.889,20.328 -24.433,20.427 -22.966,20.715C-22.837,20.147 -22.69,19.778 -22.681,19.405C-22.65,18.089 -22.698,16.771 -22.658,15.456C-22.55,12.021 -21.396,9.606 -18.5,8.507C-16.022,7.566 -13.424,6.967 -10.722,6.938C-5.224,6.879 0.26,7.141 5.73,7.651C8.158,7.877 10.535,8.419 12.725,9.605C13.323,9.93 13.67,10.336 13.772,10.988C13.82,11.295 13.887,11.598 13.978,12.071C15.117,11.948 16.15,11.843 17.183,11.723C17.843,11.645 18.314,11.179 18.122,10.602C17.557,8.895 18.6,8.322 19.858,7.809C20.518,7.54 21.149,7.191 21.819,6.955C23.858,6.235 25.921,5.586 27.95,4.845C29.295,4.354 30.355,4.675 31.166,5.792C31.778,6.637 32.306,7.543 32.92,8.497C33.424,8.398 33.994,8.378 34.487,8.175C38.373,6.567 42.254,4.949 46.111,3.275C47.01,2.883 47.813,2.305 47.867,1.109C47.905,0.291 48.166,-0.517 48.245,-1.337C48.46,-3.59 48.647,-5.847 48.816,-8.105C48.933,-9.66 49,-11.219 49.093,-12.834C47.057,-11.321 45.204,-9.829 43.233,-8.515C41.486,-7.351 39.658,-6.28 37.77,-5.362C35.887,-4.448 33.932,-3.625 31.929,-3.026C27.689,-1.757 23.402,-0.645 19.127,0.507C15.053,1.605 10.892,2.258 6.702,2.635C3.338,2.937 -0.049,3.001 -3.426,3.147C-5.471,3.235 -7.551,3.076 -9.557,3.397C-11.459,3.702 -13.306,3.484 -15.162,3.381C-17.583,3.246 -19.983,2.978 -22.334,2.174C-24.674,1.374 -27.118,0.811 -29.558,0.381C-32.422,-0.125 -34.86,-1.532 -37.338,-2.88C-39.287,-3.94 -40.83,-5.417 -41.614,-7.565C-41.686,-7.764 -41.82,-7.941 -41.925,-8.127M20.019,32.116C18.462,32.207 17.029,32.287 15.597,32.379C14.902,32.423 14.494,32.698 14.074,33.383C13.013,35.118 11.146,35.663 9.252,35.943C2.914,36.879 -3.478,36.805 -9.846,36.563C-13.23,36.434 -16.502,35.363 -19.294,33.266C-20.973,32.004 -21.433,30.079 -21.8,28.162C-22.175,26.209 -22.452,24.237 -22.785,22.191C-23.738,21.907 -24.668,21.556 -25.629,21.358C-29.27,20.607 -32.549,18.999 -35.653,17.047C-37.54,15.862 -38.727,14.127 -39.162,11.825C-40.014,7.31 -41.034,2.827 -41.977,-1.672C-42.454,-3.946 -42.994,-6.212 -43.365,-8.505C-44.03,-12.621 -43.337,-16.493 -40.747,-19.849C-38.141,-23.225 -34.804,-25.715 -31.075,-27.792C-26.29,-30.457 -21.154,-31.959 -15.817,-32.837C-11.71,-33.512 -7.575,-34.039 -3.438,-34.503C-1.349,-34.737 0.772,-34.699 2.88,-34.761C5.765,-34.847 8.65,-34.942 11.534,-34.977C16.49,-35.038 21.402,-34.567 26.271,-33.641C27.144,-33.475 28.017,-33.299 28.898,-33.193C32.786,-32.72 36.462,-31.474 40.136,-30.193C41.703,-29.648 43.342,-29.306 44.902,-28.74C46.616,-28.117 48.338,-27.458 49.939,-26.596C51.14,-25.949 52.148,-24.949 53.252,-24.12C55.583,-22.37 57.171,-19.918 59.164,-17.848C59.49,-17.509 59.627,-16.977 59.821,-16.521C60.995,-13.764 61.535,-10.937 60.994,-7.925C60.624,-5.857 60.464,-3.752 60.154,-1.672C60.023,-0.798 59.734,0.05 59.542,0.915C58.882,3.887 58.144,6.845 57.602,9.839C56.91,13.66 54.887,16.613 51.854,18.861C49.049,20.939 46.127,22.876 42.914,24.291C41.448,24.938 39.917,25.437 38.416,26.003C37.742,26.257 37.078,26.543 36.391,26.758C35.179,27.135 34.336,27.802 34.234,29.169C34.215,29.439 34.073,29.697 34,29.964C33.454,31.979 32.256,33.127 30.083,33.429C27.462,33.793 24.881,34.439 22.278,34.942C21.092,35.171 20.502,34.783 20.208,33.597C20.103,33.172 20.094,32.724 20.019,32.116" style="fill:rgb(35,31,32);fill-rule:nonzero;"/>
            </g>
            <g transform="matrix(4.16667,0,0,4.16667,573.915,2462.26)">
                <path d="M0,-24.136C0.105,-23.95 0.238,-23.773 0.311,-23.574C1.095,-21.425 2.638,-19.949 4.587,-18.888C7.066,-17.541 9.502,-16.134 12.367,-15.628C14.807,-15.198 17.251,-14.635 19.592,-13.835C21.942,-13.03 24.342,-12.762 26.762,-12.628C28.619,-12.525 30.466,-12.307 32.368,-12.611C34.374,-12.932 36.454,-12.774 38.499,-12.862C41.877,-13.008 45.263,-13.072 48.627,-13.374C52.817,-13.75 56.978,-14.404 61.052,-15.502C65.326,-16.653 69.614,-17.765 73.854,-19.035C75.857,-19.634 77.813,-20.456 79.695,-21.371C81.582,-22.288 83.41,-23.359 85.158,-24.523C87.13,-25.837 88.982,-27.33 91.018,-28.843C90.925,-27.227 90.858,-25.669 90.741,-24.114C90.572,-21.855 90.385,-19.599 90.17,-17.346C90.091,-16.525 89.83,-15.718 89.793,-14.899C89.738,-13.704 88.935,-13.125 88.036,-12.734C84.179,-11.059 80.298,-9.442 76.413,-7.834C75.918,-7.63 75.349,-7.61 74.845,-7.512C74.231,-8.466 73.703,-9.372 73.09,-10.217C72.28,-11.333 71.22,-11.655 69.875,-11.164C67.846,-10.422 65.782,-9.774 63.744,-9.054C63.074,-8.818 62.443,-8.469 61.783,-8.2C60.525,-7.687 59.482,-7.114 60.047,-5.406C60.238,-4.83 59.768,-4.364 59.108,-4.286C58.075,-4.166 57.042,-4.061 55.903,-3.938C55.813,-4.411 55.746,-4.714 55.698,-5.02C55.595,-5.672 55.249,-6.079 54.65,-6.403C52.461,-7.59 50.083,-8.131 47.654,-8.358C42.185,-8.867 36.701,-9.13 31.202,-9.07C28.501,-9.042 25.903,-8.442 23.425,-7.502C20.529,-6.403 19.374,-3.987 19.267,-0.553C19.227,0.763 19.275,2.081 19.244,3.396C19.235,3.769 19.088,4.138 18.96,4.707C17.493,4.418 16.036,4.319 14.723,3.834C12.025,2.835 9.348,1.744 6.964,0.074C5.495,-0.954 4.614,-2.354 4.094,-4.073C2.549,-9.174 1.498,-14.379 0.611,-19.626C0.364,-21.088 0.025,-22.536 -0.272,-23.99C-0.182,-24.038 -0.09,-24.087 0,-24.136" style="fill:rgb(188,116,79);fill-rule:nonzero;"/>
            </g>
            <g transform="matrix(4.16667,0,0,4.16667,625.632,2284.25)">
                <path d="M0,20.593C-2.17,21.511 -4.087,22.323 -6.334,23.273C-8.903,22.515 -10.707,20.493 -11.602,17.611C-11.929,16.559 -12.183,15.467 -12.314,14.374C-12.583,12.114 -12.382,9.963 -10.66,8.193C-9.269,6.763 -8.015,5.199 -6.609,3.785C-3.733,0.893 -0.175,-0.863 3.606,-2.278C10.215,-4.753 17.101,-5.689 24.075,-6.36C29.456,-6.877 34.835,-6.539 40.21,-6.767C40.93,-6.797 41.651,-6.838 42.371,-6.877C46.098,-7.083 49.787,-6.644 53.462,-6.156C56.422,-5.763 59.356,-5.173 62.297,-4.645C63.056,-4.509 63.811,-4.316 64.546,-4.082C67.556,-3.127 70.578,-2.202 73.555,-1.157C75.434,-0.497 77.394,0.125 79.052,1.179C81.564,2.774 83.994,4.574 85.49,7.299C85.696,7.675 85.924,8.168 86.267,8.318C87.429,8.822 87.752,9.839 88.202,10.873C89.31,13.414 89.207,15.943 88.17,18.415C87.151,20.846 85.713,22.984 83.355,24.397C82.465,24.931 81.734,25.727 80.914,26.383C80.4,26.793 79.853,27.161 79.146,27.676C79.146,26.923 79.114,26.351 79.152,25.783C79.219,24.79 79.366,23.801 79.415,22.807C79.615,18.77 79.739,14.727 79.998,10.694C80.131,8.605 79.535,7.095 77.886,5.635C74.934,3.022 71.443,1.846 67.757,1.043C65.71,0.597 63.61,0.405 61.538,0.07C60.83,-0.045 60.139,-0.273 59.433,-0.401C58.295,-0.609 57.151,-0.781 56.01,-0.965C55.302,-1.078 54.598,-1.238 53.885,-1.286C50.858,-1.489 47.813,-1.918 44.802,-1.753C42.464,-1.624 40.458,-2.146 38.398,-3.053C35.067,-4.518 31.592,-5.421 27.908,-5.357C27.081,-5.341 26.248,-5.47 25.422,-5.573C21.711,-6.032 18.288,-4.91 14.91,-3.622C13.722,-3.169 12.593,-2.549 11.469,-1.945C10.938,-1.661 10.451,-1.272 10.002,-0.865C9.47,-0.384 9.27,0.209 9.58,0.935C9.946,1.792 10.254,2.673 10.633,3.661C9.68,4.003 8.753,4.299 7.856,4.669C6.17,5.364 4.402,5.936 2.854,6.87C1.158,7.893 -0.411,9.195 -1.406,10.992C-1.894,11.873 -2.1,12.795 -1.783,13.859C-1.109,16.127 -0.564,18.434 0,20.593" style="fill:rgb(204,156,140);fill-rule:nonzero;"/>
            </g>
            <g transform="matrix(4.16667,0,0,4.16667,854.313,2289)">
                <path d="M0,11.256C0.016,9.922 -0.869,8.973 -2.11,8.992C-3.406,9.014 -4.221,9.96 -4.221,11.445C-4.221,12.766 -3.445,13.742 -2.36,13.784C-1.178,13.83 -0.016,12.585 0,11.256M-30.542,-5.617C-26.632,-5.21 -23.044,-5.299 -19.635,-4.101C-16.234,-2.906 -12.824,-1.734 -9.447,-0.473C-8.1,0.03 -6.838,0.756 -5.526,1.354C-3.611,2.227 -1.721,3.171 0.246,3.911C2.244,4.664 4.048,5.726 5.775,6.935C6.948,7.756 6.89,8.57 6.005,9.672C4.588,11.437 2.762,12.758 0.869,13.794C-1.482,15.08 -4.112,15.875 -6.666,16.75C-7.197,16.931 -7.988,16.662 -8.551,16.382C-11.6,14.87 -14.773,13.702 -18.088,12.969C-22.581,11.974 -27.082,11.006 -31.606,10.178C-33.22,9.883 -34.915,9.994 -36.574,9.983C-37.802,9.975 -38.674,9.465 -39.342,8.451C-40.166,7.201 -41.124,6.034 -41.896,4.754C-42.692,3.437 -43.372,2.044 -44.032,0.651C-44.508,-0.354 -44.293,-0.983 -43.377,-1.65C-43.065,-1.878 -42.723,-2.085 -42.366,-2.226C-39.739,-3.264 -37.145,-4.41 -34.457,-5.254C-33.118,-5.675 -31.604,-5.534 -30.542,-5.617" style="fill:rgb(204,156,140);fill-rule:nonzero;"/>
            </g>
            <g transform="matrix(4.16667,0,0,4.16667,705.943,2496.39)">
                <path d="M0,-4.561C0.199,-6.247 0.331,-7.667 0.547,-9.075C0.65,-9.753 1.226,-10.104 1.846,-10.216C3.202,-10.462 4.567,-10.772 5.935,-10.807C9.931,-10.907 13.932,-10.811 17.926,-10.935C21.187,-11.036 24.448,-11.287 27.698,-11.587C28.783,-11.686 29.838,-12.134 30.902,-12.435C31.428,-12.583 31.946,-12.761 32.654,-12.984C32.865,-12.415 33.042,-11.921 33.228,-11.431C34.04,-9.287 34.504,-7.089 34.489,-4.777C34.48,-3.343 34.678,-1.908 34.768,-0.472C34.906,1.697 34.043,3.655 33.448,5.669C33.188,6.545 32.378,6.616 31.712,6.72C30.401,6.925 29.066,6.969 27.742,7.094C24.88,7.366 22.018,7.647 19.155,7.925C18.605,7.979 18.054,8.063 17.502,8.085C14.738,8.2 11.971,8.423 9.21,8.361C7.066,8.313 4.922,7.951 2.792,7.634C1.405,7.428 0.754,6.373 0.477,5.106C0.326,4.417 0.279,3.689 0.296,2.981C0.31,2.329 0.472,1.681 0.585,0.93C1.013,0.889 1.441,0.811 1.867,0.815C4.307,0.84 6.747,0.894 9.186,0.92C11.116,0.939 12.291,-0.417 11.915,-2.305C11.76,-3.08 11.094,-3.347 10.344,-3.584C7.798,-4.387 5.184,-4.157 2.589,-4.265C1.829,-4.296 1.072,-4.435 0,-4.561" style="fill:rgb(188,116,79);fill-rule:nonzero;"/>
            </g>
            <g transform="matrix(4.16667,0,0,4.16667,885.646,2407.29)">
                <path d="M0,-17.979C-0.366,-14.022 -0.541,-10.332 -1.849,-6.651C-2.763,-6.414 -3.763,-6.155 -4.74,-5.901C-5.767,-7.787 -6.159,-8.034 -7.526,-7.72C-9.166,-7.343 -9.94,-6.395 -9.998,-4.585C-13.064,-3.593 -16.22,-2.785 -19.426,-2.229C-22.094,-1.765 -24.799,-1.524 -27.489,-1.187C-28.289,-1.086 -28.886,-1.245 -29.508,-1.931C-30.965,-3.539 -31.669,-3.614 -33.09,-2.721C-33.633,-2.379 -33.923,-1.633 -34.448,-0.906C-39.181,-0.759 -44.134,0 -49.113,-1.049C-50.351,-3.62 -54.031,-4.507 -55.323,-1.741C-56.674,-2.019 -58.067,-2.305 -59.624,-2.626C-60.505,-6.009 -61.392,-9.415 -62.326,-12.997C-61.005,-12.437 -59.846,-11.879 -58.642,-11.448C-56.514,-10.685 -54.389,-9.873 -52.203,-9.319C-50.122,-8.79 -47.975,-8.424 -45.835,-8.238C-42.859,-7.98 -39.864,-7.916 -36.875,-7.846C-33.992,-7.779 -31.13,-7.994 -28.27,-8.462C-25.818,-8.864 -23.307,-8.886 -20.84,-9.206C-18.926,-9.454 -17.021,-9.835 -15.142,-10.28C-12.18,-10.98 -9.249,-11.857 -6.61,-13.393C-4.658,-14.529 -2.868,-15.945 -1.008,-17.237C-0.75,-17.417 -0.5,-17.61 0,-17.979" style="fill:rgb(188,116,79);fill-rule:nonzero;"/>
            </g>
            <g transform="matrix(4.16667,0,0,4.16667,887.767,2430.81)">
                <path d="M0,1.579C4.226,-0.293 8.43,-2.003 12.49,-4.008C15.257,-5.375 17.792,-7.158 20.266,-9.071C22.749,-10.989 24.553,-13.338 26.362,-16.052C25.998,-11.324 24.93,-6.943 23.894,-2.556C23.437,-0.621 23.006,1.321 22.506,3.245C22.343,3.876 22.096,4.524 21.73,5.055C20.243,7.209 18.553,9.163 16.244,10.516C14.002,11.83 11.892,13.397 9.571,14.541C7.154,15.733 4.555,16.554 1.794,17.631C1.794,15.589 1.874,13.789 1.771,12.001C1.67,10.241 1.459,8.478 1.157,6.741C0.846,4.949 0.367,3.187 0,1.579" style="fill:rgb(188,116,79);fill-rule:nonzero;"/>
            </g>
            <g transform="matrix(4.16667,0,0,4.16667,701.473,2494.85)">
                <path d="M0,-4.146C-0.682,-4.146 -1.289,-4.202 -1.882,-4.136C-3.94,-3.905 -5.115,-1.864 -4.316,0.042C-3.941,0.936 -3.388,1.279 -2.367,1.268C-1.602,1.26 -0.837,1.267 0.112,1.267C0.153,2.049 0.173,2.808 0.237,3.563C0.316,4.496 0.322,5.454 0.556,6.351C0.914,7.72 1.801,8.772 3.228,9.047C5.893,9.561 8.577,10.024 11.314,9.609C11.697,9.552 12.087,9.532 12.474,9.516C15.797,9.382 19.119,9.252 22.442,9.125C22.822,9.111 23.203,9.123 23.714,9.123C23.455,9.923 22.902,10.237 22.28,10.392C20.993,10.71 19.7,11.018 18.393,11.236C13.997,11.971 9.58,12.044 5.146,11.589C4.046,11.476 2.929,11.494 1.82,11.503C-0.733,11.524 -3.119,10.827 -5.37,9.718C-6.897,8.966 -8.142,7.784 -8.581,6.078C-9.185,3.723 -9.834,1.348 -10.086,-1.058C-10.343,-3.511 -10.164,-6.011 -10.138,-8.489C-10.12,-10.143 -9.451,-11.602 -8.593,-12.968C-8.371,-13.321 -7.986,-13.631 -7.607,-13.816C-4.928,-15.119 -2.105,-15.768 0.89,-15.564C1.166,-15.546 1.452,-15.505 1.72,-15.553C5.26,-16.19 8.798,-15.697 12.33,-15.503C14.372,-15.391 16.426,-15.213 18.434,-14.846C19.831,-14.591 21.164,-13.975 22.516,-13.492C22.821,-13.382 23.131,-13.201 23.356,-12.972C23.848,-12.47 23.611,-11.736 22.933,-11.562C22.826,-11.535 22.713,-11.536 22.602,-11.53C20.501,-11.414 18.4,-11.244 16.298,-11.208C15.145,-11.187 13.989,-11.451 12.831,-11.484C9.502,-11.581 6.186,-11.359 2.9,-10.828C1.153,-10.546 0.657,-9.989 0.427,-8.228C0.264,-6.972 0.161,-5.707 0,-4.146" style="fill:rgb(228,184,113);fill-rule:nonzero;"/>
            </g>
            <g transform="matrix(4.16667,0,0,4.16667,813.607,2366.26)">
                <path d="M0,-20.318C3.42,-20.394 6.453,-20.342 9.463,-19.817C12.241,-19.333 15.005,-18.692 17.804,-18.428C20.482,-18.174 23.059,-17.61 25.57,-16.735C27.871,-15.933 30.03,-14.911 31.864,-13.156C34.122,-10.996 33.946,-8.635 32.022,-6.43C31.697,-6.056 31.316,-5.713 30.908,-5.433C28.492,-3.773 26.057,-2.141 23.636,-0.489C22.881,0.026 22.206,0.076 21.336,-0.384C20.329,-0.916 19.182,-1.184 17.986,-1.604C18.138,-3.384 18.241,-5.2 18.462,-7C18.737,-9.23 18.095,-10.958 16.191,-12.282C13.938,-13.849 11.55,-15.08 8.957,-15.98C7.603,-16.449 6.325,-17.144 5.032,-17.776C3.444,-18.552 1.875,-19.368 0,-20.318" style="fill:rgb(188,116,79);fill-rule:nonzero;"/>
            </g>
            <g transform="matrix(4.16667,0,0,4.16667,792.098,2313.67)">
                <path d="M0,9.703C-3.715,9.703 -7.432,9.778 -11.144,9.681C-14.38,9.596 -17.578,9.944 -20.755,10.397C-22.712,10.677 -24.617,11.358 -26.522,11.935C-27.339,12.182 -28.088,12.309 -28.95,12.099C-31.805,11.402 -34.606,10.561 -37.284,9.337C-38.702,8.688 -39.764,7.761 -40.26,6.187C-40.565,5.22 -40.472,4.385 -39.81,3.732C-38.634,2.571 -37.479,1.297 -36.078,0.476C-34.231,-0.606 -32.172,-1.336 -30.173,-2.139C-29.011,-2.606 -28.969,-2.517 -28.288,-1.521C-27.225,0.036 -26.1,1.551 -25.077,3.132C-24.25,4.411 -23.072,4.984 -21.632,5.175C-18.114,5.641 -14.576,5.988 -11.087,6.616C-7.937,7.182 -4.703,7.473 -1.73,8.838C-1.191,9.086 -0.574,9.166 0.006,9.323C0.004,9.45 0.002,9.577 0,9.703" style="fill:rgb(204,156,140);fill-rule:nonzero;"/>
            </g>
            <g transform="matrix(4.16667,0,0,4.16667,837.175,2425.33)">
                <path d="M0,25.026C1.018,24.794 1.926,24.588 2.829,24.382C3.944,22.036 4.49,19.542 4.504,17.023C4.53,12.479 4.201,7.955 2.282,3.706C1.934,2.934 1.425,2.612 0.566,2.516C0.086,3.205 -0.47,3.885 -1.512,3.744C-1.992,2.844 -1.606,2.224 -0.852,1.808C0.066,1.302 1.01,0.828 1.983,0.438C3.267,-0.076 4.578,-0.532 5.899,-0.944C7.942,-1.583 8.983,-1.111 9.95,0.82C10.172,1.264 10.389,1.72 10.541,2.192C11.49,5.143 12.252,8.12 12.646,11.22C13.124,14.998 12.464,18.603 11.53,22.192C11.127,23.739 10.29,24.992 8.458,25.263C6.108,25.611 3.783,26.134 1.431,26.46C0.366,26.609 0.347,26.478 0,25.026" style="fill:rgb(188,116,79);fill-rule:nonzero;"/>
            </g>
            <g transform="matrix(4.16667,0,0,4.16667,734.434,2481.93)">
                <path d="M0,3.252C-3.152,3.252 -6.304,3.258 -9.456,3.25C-10.861,3.246 -11.274,2.938 -11.296,1.944C-11.317,0.981 -10.444,0.058 -9.397,0.022C-8.242,-0.017 -7.084,-0.01 -5.929,0.022C-4.38,0.066 -2.826,0.089 -1.286,0.238C0.083,0.372 1.442,0.646 2.798,0.898C3.57,1.041 3.671,1.62 3.606,2.299C3.539,2.998 3.134,3.258 2.495,3.262C1.664,3.269 0.832,3.264 0,3.264L0,3.252" style="fill:rgb(228,184,113);fill-rule:nonzero;"/>
            </g>
            <g transform="matrix(4.16667,0,0,4.16667,841.68,2336.62)">
                <path d="M0,-0.053C-0.022,0.746 0.35,1.193 1.015,1.165C1.667,1.138 2.109,0.564 2.101,-0.251C2.094,-0.997 1.681,-1.483 1.046,-1.494C0.422,-1.504 0.026,-0.958 0,-0.053M3.032,-0.171C3.016,1.157 1.854,2.402 0.672,2.357C-0.413,2.314 -1.189,1.338 -1.189,0.017C-1.189,-1.467 -0.374,-2.414 0.922,-2.435C2.163,-2.455 3.048,-1.506 3.032,-0.171" style="fill:rgb(35,31,32);fill-rule:nonzero;"/>
            </g>
            <g transform="matrix(0.390938,4.14829,4.14829,-0.390938,845.195,2331.68)">
                <path d="M1.048,-0.946C0.149,-0.835 -0.357,-0.39 -0.289,0.231C-0.218,0.862 0.304,1.227 1.048,1.164C1.86,1.096 2.39,0.602 2.356,-0.05C2.321,-0.714 1.841,-1.043 1.048,-0.946" style="fill:rgb(188,116,79);fill-rule:nonzero;"/>
            </g>
            <g transform="matrix(4.16667,0,0,4.16667,0,0)">
                <g opacity="0.64">
                    <g transform="matrix(1,0,0,1,165.36,593.252)">
                        <path d="M0,-4.951C1.601,-6.138 3.502,-6.849 5.414,-7.416C6.69,-7.795 8.038,-8.146 9.019,-9.047C6.498,-9.379 3.941,-9.077 1.416,-8.777C-0.018,-8.605 -1.505,-8.417 -2.733,-7.655C-4.338,-6.659 -5.255,-4.804 -5.554,-2.937C-5.823,-1.26 -5.75,0.621 -5.43,2.29C-5.022,4.428 -4.366,3.262 -4.127,1.847C-3.674,-0.828 -2.183,-3.332 0,-4.951" style="fill:white;fill-rule:nonzero;"/>
                    </g>
                </g>
            </g>
            <g transform="matrix(4.16667,0,0,4.16667,0,0)">
                <g opacity="0.64">
                    <g transform="matrix(1,0,0,1,176.003,595.866)">
                        <path d="M0,2.155L-8.8,2.155C-9.392,2.155 -9.878,1.67 -9.878,1.077C-9.878,0.485 -9.392,0 -8.8,0L0,0C0.593,0 1.078,0.485 1.078,1.077C1.078,1.67 0.593,2.155 0,2.155" style="fill:white;fill-rule:nonzero;"/>
                    </g>
                </g>
            </g>
            <g transform="matrix(4.16667,0,0,4.16667,0,0)">
                <g opacity="0.31">
                    <g transform="matrix(1,0,0,1,146.256,575.798)">
                        <path d="M0,-0.796C-3.11,-1.75 -6.588,-3.019 -7.861,-6.014C-7.037,-2.322 -6.213,1.37 -5.389,5.062C-5.661,3.357 -5.718,1.618 -5.558,-0.102C-5.539,-0.31 -5.513,-0.527 -5.395,-0.7C-5.054,-1.197 -4.288,-0.988 -3.741,-0.735C5.606,3.576 16.167,5.218 26.382,3.95C26.292,3.403 25.602,3.23 25.05,3.177C20.606,2.754 15.91,1.837 11.449,2.017C7.639,2.17 3.594,0.402 0,-0.796" style="fill:white;fill-rule:nonzero;"/>
                    </g>
                </g>
            </g>
        </g>
    </g>
</svg>
