<?xml version="1.0" encoding="UTF-8" standalone="no"?>
<!DOCTYPE svg PUBLIC "-//W3C//DTD SVG 1.1//EN" "http://www.w3.org/Graphics/SVG/1.1/DTD/svg11.dtd">
<svg width="100%" height="100%" viewBox="0 0 391 334" version="1.1" xmlns="http://www.w3.org/2000/svg" xmlns:xlink="http://www.w3.org/1999/xlink" xml:space="preserve" xmlns:serif="http://www.serif.com/" style="fill-rule:evenodd;clip-rule:evenodd;stroke-linejoin:round;stroke-miterlimit:2;">
    <g transform="matrix(1,0,0,1,-820,-758)">
        <g transform="matrix(1,0,0,1,-667.536,-1511.87)">
            <g transform="matrix(4.16667,0,0,4.16667,1604.84,2420.78)">
                <path d="M0,-3.35C-7.292,-2.45 -14.868,-4.046 -21.177,-7.81C-23.834,-9.396 -26.457,-11.663 -26.887,-14.728C-26.953,-9.317 -25.999,-3.896 -24.088,1.167C-23.63,2.379 -23.094,3.608 -22.159,4.506C-21.239,5.391 -20.016,5.878 -18.816,6.316C-11.216,9.095 -3.224,10.804 4.849,11.378" style="fill:rgb(47,191,197);fill-rule:nonzero;"/>
            </g>
            <g transform="matrix(4.16667,0,0,4.16667,1701.03,2373.41)">
                <path d="M0,31.283C-1.779,31.881 -1.779,31.881 -1.273,33.827C0.615,33.58 0.615,33.58 0,31.283M-20.803,16.629C-20.798,16.672 -20.794,16.715 -20.789,16.758C-18.898,16.56 -17.007,16.371 -15.117,16.162C-14.194,16.06 -13.606,15.571 -13.745,14.59C-13.885,13.592 -14.74,13.717 -15.433,13.724C-18.194,13.754 -20.956,13.813 -23.717,13.864C-23.874,13.866 -24.046,13.865 -24.186,13.925C-24.933,14.244 -25.72,14.6 -25.543,15.604C-25.391,16.471 -24.686,16.645 -23.903,16.633C-22.87,16.617 -21.836,16.629 -20.803,16.629M-5.496,21.765C-4.685,21.6 -3.86,21.485 -3.065,21.261C-1.255,20.75 -0.474,20.897 0.344,21.997C1.446,23.479 1.559,24.947 0.667,26.192C-0.278,27.512 -1.585,28.056 -3.08,27.33C-4.58,26.601 -5.625,27.082 -6.859,28.148C-5.962,28.606 -5.167,29.111 -4.303,29.434C-1.438,30.507 2.716,29.041 4.202,26.363C4.645,25.565 4.929,24.543 4.889,23.642C4.784,21.26 3.072,19.458 0.634,18.863C-2.129,18.189 -4.176,18.967 -5.496,21.765M-19.862,12.065C-19.931,11.41 -19.954,10.862 -20.05,10.328C-20.458,8.069 -20.11,7.531 -17.867,7.029C-17.325,6.908 -16.776,6.691 -16.236,6.707C-12.159,6.835 -8.151,6.244 -4.143,5.63C-2.564,5.388 -0.99,5.121 0.586,4.865C0.583,4.66 0.579,4.455 0.575,4.251C-0.558,4.053 -1.684,3.721 -2.822,3.679C-8.493,3.469 -14.086,4.263 -19.652,5.218C-22.475,5.701 -23.19,6.689 -23.232,9.643C-23.27,12.318 -22.863,12.647 -19.862,12.065M10.993,21.808C12.076,21.491 12.901,21.391 13.561,21.007C14.032,20.732 14.571,20.08 14.581,19.586C14.68,14.523 15.25,9.43 13.263,4.518C12.059,1.539 11.753,1.274 8.64,2.381C8.293,2.504 7.992,2.757 7.728,2.915C12.299,8.539 12.43,14.852 10.993,21.808M-22.308,18.409C-23.067,20.327 -22.048,21.829 -21.662,23.405C-21.242,25.116 -20.095,25.957 -18.288,26.303C-14.538,27.021 -10.819,26.921 -7.117,26.244C-4.975,25.853 -2.773,25.517 -0.784,24.513C-1.415,22.935 -1.73,22.7 -3.042,23C-6.729,23.841 -10.45,24 -14.146,23.296C-16.171,22.91 -18.257,22.296 -18.545,19.635C-18.671,18.469 -19.443,18.011 -20.575,18.147C-21.187,18.221 -21.794,18.33 -22.308,18.409M16.613,17.531C16.851,17.542 17.288,17.694 17.594,17.556C20.348,16.316 23.187,15.211 25.782,13.691C27.955,12.419 29.385,10.365 29.89,7.764C30.341,5.439 29.454,3.951 27.185,3.199C24.758,2.393 22.3,2.398 19.874,2.934C18.207,3.303 16.383,3.301 15.196,4.207C15.674,8.702 16.125,12.943 16.613,17.531M40.093,-10.956C35.45,-5.155 29.128,-2.702 23.538,0.956C24.488,1.21 25.407,1.257 26.321,1.343C30.357,1.723 32.028,3.729 31.488,7.755C31.333,8.912 30.779,10.021 30.368,11.136C30.187,11.625 29.904,12.075 29.518,12.84C30.268,12.72 30.765,12.758 31.133,12.56C32.532,11.807 34.027,11.144 35.235,10.143C38.317,7.59 40.857,4.667 40.417,0.226C40.378,-0.158 40.537,-0.559 40.522,-0.949C40.398,-4.092 40.255,-7.233 40.093,-10.956M-16.824,18.186C-16.691,20.406 -16.283,20.968 -14.416,21.384C-13.176,21.661 -11.88,21.692 -10.646,21.985C-9.14,22.342 -8.276,21.944 -7.291,20.611C-4.057,16.236 0.398,15.906 4.385,19.474C4.738,19.79 5.129,20.097 5.555,20.293C8.04,21.439 9.901,20.361 9.975,17.678C10.025,15.844 10.012,13.996 9.845,12.171C9.633,9.866 8.75,7.742 7.797,5.628C6.957,5.628 6.237,5.561 5.533,5.64C2.68,5.959 -0.173,6.285 -3.017,6.678C-7.042,7.235 -11.061,7.838 -15.076,8.459C-15.85,8.579 -16.676,8.74 -17.33,9.131C-17.776,9.399 -18.249,10.134 -18.191,10.595C-18.131,11.079 -17.529,11.706 -17.028,11.881C-16.146,12.188 -15.16,12.202 -14.216,12.335C-12.472,12.58 -11.625,13.539 -11.687,15.204C-11.75,16.937 -12.591,17.855 -14.29,18.016C-15.071,18.09 -15.856,18.122 -16.824,18.186M22.686,30.272C22.47,28.519 22.074,27.358 21.011,26.559C20.543,26.209 19.808,25.846 19.308,25.966C15.692,26.832 12.439,28.349 11.136,32.175C10.762,33.271 10.297,33.545 9.313,33.507C8.84,33.488 8.357,33.546 7.887,33.619C3.095,34.367 -1.697,35.12 -6.486,35.888C-7.201,36.002 -7.795,36.082 -8.488,35.566C-11.169,33.569 -14.303,32.655 -17.557,32.154C-19.875,31.797 -22.447,33.781 -22.422,35.968C-22.402,37.725 -22.227,39.504 -20.349,40.507C-19.73,40.837 -19.226,41.402 -18.711,41.904C-16.953,43.621 -16.918,44.812 -18.486,46.648C-19.054,47.311 -19.626,47.99 -20.066,48.739C-20.953,50.245 -20.728,51.216 -19.323,52.215C-16.99,53.874 -12.699,54.311 -10.533,51.239C-10.004,50.488 -9.278,49.687 -8.462,49.366C-6.768,48.698 -4.972,48.248 -3.184,47.865C1.482,46.863 6.159,45.913 10.846,45.015C12.1,44.776 13.505,44.669 14.414,45.826C15.725,47.495 17.462,47.959 19.45,48.115C21.656,48.288 23.276,47.509 24.336,45.521C25.395,43.538 25.057,42.124 23.209,40.829C22.882,40.6 22.521,40.417 22.207,40.173C19.936,38.411 19.672,37.278 20.902,34.618C21.137,34.111 21.426,33.627 21.633,33.11C22.007,32.173 22.337,31.219 22.686,30.272M-49.752,-0.694C-48.882,3.957 -48.363,8.082 -46.732,12.048C-45.429,15.217 -43.317,17.147 -40.181,18.145C-38.434,18.7 -36.587,19.013 -34.93,19.756C-31.542,21.274 -27.961,21.036 -24.376,21.415L-24.376,18.193C-26.074,18.04 -27.03,17.189 -27.306,15.669C-27.643,13.815 -26.43,12.914 -25.06,12.284C-25.06,11.206 -25.055,10.265 -25.061,9.324C-25.081,6.37 -23.504,4.545 -20.641,4.167C-17.323,3.73 -14.017,3.179 -10.688,2.842C-7.683,2.537 -4.655,2.349 -1.636,2.332C-0.527,2.325 1.035,2.616 1.601,3.366C2.754,4.893 3.848,4.859 5.262,4.225C6.141,1.49 6.142,1.493 9.168,0.707C9.63,0.587 10.105,0.478 10.536,0.28C12.018,-0.401 13.144,-0.008 14.018,1.323C14.227,1.641 14.509,1.91 14.711,2.146C20.42,1.114 25.01,-1.938 30.048,-4.798C24.421,-8.101 18.66,-9.519 12.709,-10.273C9.622,-10.664 6.526,-10.724 3.399,-10.42C-1.588,-9.934 -6.619,-9.863 -11.595,-9.3C-19.645,-8.39 -27.361,-6.239 -34.622,-2.528C-37.451,-1.082 -39.348,1.138 -41.101,3.895C-38.408,4.887 -36.109,6.244 -33.336,6.593C-30.743,6.918 -28.211,7.739 -25.652,8.341C-26.091,8.911 -26.522,9.129 -26.921,9.082C-28.184,8.933 -29.443,8.726 -30.688,8.468C-32.789,8.033 -34.907,7.639 -36.965,7.047C-38.949,6.476 -40.852,5.628 -42.818,4.99C-44.938,4.303 -46.67,3.125 -48.006,1.341C-48.425,0.78 -48.917,0.274 -49.752,-0.694M-43.184,3.265C-42.939,2.999 -42.697,2.793 -42.525,2.54C-40.216,-0.859 -37.134,-3.254 -33.346,-4.854C-28.85,-6.755 -24.216,-8.223 -19.463,-9.239C-15.507,-10.085 -11.488,-10.695 -7.469,-11.173C-3.848,-11.605 -0.19,-11.753 3.455,-11.96C8.083,-12.222 12.711,-12.209 17.235,-11.037C20.381,-10.222 23.695,-10.031 26.636,-8.418C28.3,-7.505 30.072,-6.789 32.032,-5.874C33.985,-7.561 35.99,-9.134 37.802,-10.905C39.388,-12.456 39.059,-14.348 37.08,-15.451C34.315,-16.991 31.512,-18.472 28.667,-19.859C22.113,-23.055 15.035,-23.53 7.91,-23.667C5.595,-23.712 3.27,-23.79 0.963,-23.644C-3.884,-23.337 -8.741,-23.041 -13.56,-22.455C-17.502,-21.976 -21.42,-21.198 -25.304,-20.349C-32.509,-18.773 -39.434,-16.533 -45.282,-11.718C-48.05,-9.439 -48.983,-6.51 -48.603,-3.213C-48.237,-0.05 -46.253,2.094 -43.184,3.265M-24.152,23.152C-27.332,22.722 -30.472,22.565 -33.468,21.823C-36.852,20.985 -40.272,19.952 -43.363,18.385C-45.979,17.058 -47.98,14.765 -48.593,11.583C-48.907,9.95 -49.71,8.406 -49.981,6.769C-50.489,3.709 -50.934,0.619 -51.075,-2.474C-51.144,-4.002 -50.614,-5.608 -50.118,-7.1C-48.223,-12.796 -43.357,-15.22 -38.375,-17.393C-33.613,-19.47 -28.63,-20.966 -23.561,-22.045C-19.913,-22.821 -16.172,-23.198 -12.459,-23.634C-8.425,-24.109 -4.379,-24.494 -0.33,-24.816C0.92,-24.915 2.195,-24.623 3.459,-24.61C7.056,-24.571 10.662,-24.73 14.249,-24.531C17.172,-24.37 20.154,-24.11 22.967,-23.357C28.364,-21.912 33.472,-19.686 38.268,-16.744C39.697,-15.868 40.444,-14.699 40.98,-13.259C41.174,-12.738 41.317,-12.189 41.408,-11.64C42.193,-6.906 42.673,-2.146 42.465,2.657C42.398,4.198 41.925,5.615 40.794,6.777C39.515,8.093 38.411,9.596 37.045,10.807C35.319,12.337 33.396,13.522 31.042,14.1C28.035,14.839 25.062,15.794 22.36,17.421C21.41,17.992 20.376,18.549 19.309,18.774C17.7,19.114 16.53,19.674 16.036,21.418C15.879,21.971 15.055,22.503 14.424,22.72C13.15,23.159 11.806,23.413 10.477,23.67C9.818,23.797 9.226,23.637 8.962,22.858C8.445,21.328 7.6,21.985 6.608,22.594C7.59,25.666 5.706,27.519 3.651,29.256C1.947,30.697 1.921,30.666 2.394,33.277C4.621,32.825 6.846,32.373 9.167,31.902C9.462,31.361 9.767,30.81 10.064,30.256C12.012,26.63 15.438,25.144 19.136,24.212C21.196,23.693 23.649,25.799 24.205,28.351C24.569,30.021 24.538,31.69 23.574,33.217C23.276,33.689 22.983,34.167 22.728,34.664C22.043,35.999 22.038,37.266 23.175,38.388C23.686,38.892 24.119,39.549 24.728,39.867C28.045,41.604 26.711,47.03 24.104,48.624C21.194,50.403 18.058,50.456 15.508,48.591C12.622,46.479 9.748,46.562 6.692,47.235C2.344,48.192 -1.965,49.331 -6.28,50.433C-7.461,50.735 -8.416,51.376 -9.165,52.428C-11.577,55.818 -17.898,56.198 -21.55,52.536C-22.642,51.442 -22.843,49.974 -21.946,48.57C-21.303,47.563 -20.563,46.62 -19.895,45.629C-19.014,44.323 -19.101,43.58 -20.228,42.481C-20.456,42.259 -20.684,42.008 -20.961,41.868C-23.37,40.656 -23.887,38.376 -24.088,36.04C-24.25,34.164 -23.387,32.566 -21.754,31.619C-20.817,31.076 -19.666,30.624 -18.608,30.616C-15.231,30.592 -11.867,30.981 -9.243,33.408C-8.141,34.427 -7.05,34.543 -5.738,34.265C-4.885,34.085 -4.024,33.947 -3.071,33.773C-2.822,32.434 -3.327,31.603 -4.668,31.116C-6.088,30.601 -7.476,30.015 -8.361,28.612C-8.577,28.271 -9.338,28.171 -9.857,28.149C-10.893,28.105 -11.955,28.07 -12.968,28.249C-15.569,28.707 -18.029,27.956 -20.488,27.406C-21.314,27.221 -22.098,26.428 -22.689,25.732C-23.292,25.025 -23.634,24.097 -24.152,23.152" style="fill:rgb(35,31,32);fill-rule:nonzero;"/>
            </g>
            <g transform="matrix(4.16667,0,0,4.16667,1521.09,2274.28)">
                <path d="M0,27.056C-3.069,25.885 -5.053,23.741 -5.418,20.578C-5.799,17.281 -4.866,14.351 -2.098,12.073C3.75,7.258 10.675,5.017 17.88,3.442C21.764,2.592 25.682,1.814 29.624,1.335C34.443,0.749 39.3,0.454 44.147,0.147C46.454,0 48.779,0.079 51.094,0.124C58.219,0.261 65.297,0.736 71.852,3.932C74.696,5.319 77.499,6.799 80.264,8.34C82.243,9.443 82.572,11.334 80.986,12.886C79.174,14.657 77.169,16.23 75.216,17.916C73.256,17.001 71.484,16.286 69.82,15.373C66.879,13.759 63.565,13.568 60.419,12.753C55.896,11.581 51.267,11.568 46.639,11.831C42.994,12.038 39.336,12.186 35.715,12.618C31.696,13.096 27.677,13.705 23.721,14.551C18.968,15.567 14.334,17.036 9.838,18.936C6.05,20.536 2.968,22.931 0.659,26.331C0.487,26.584 0.245,26.789 0,27.056" style="fill:rgb(0,139,127);fill-rule:nonzero;"/>
            </g>
            <g transform="matrix(4.16667,0,0,4.16667,1795.55,2581.26)">
                <path d="M0,-19.612C-0.349,-18.665 -0.679,-17.711 -1.053,-16.775C-1.26,-16.257 -1.549,-15.773 -1.784,-15.266C-3.014,-12.607 -2.75,-11.473 -0.479,-9.712C-0.165,-9.467 0.196,-9.284 0.523,-9.055C2.371,-7.76 2.708,-6.346 1.65,-4.363C0.59,-2.375 -1.03,-1.596 -3.236,-1.77C-5.224,-1.925 -6.961,-2.389 -8.272,-4.058C-9.181,-5.215 -10.586,-5.109 -11.84,-4.869C-16.527,-3.971 -21.204,-3.021 -25.87,-2.02C-27.658,-1.636 -29.454,-1.187 -31.148,-0.519C-31.964,-0.197 -32.69,0.604 -33.219,1.355C-35.385,4.427 -39.676,3.99 -42.009,2.33C-43.414,1.332 -43.639,0.361 -42.752,-1.146C-42.313,-1.894 -41.74,-2.573 -41.172,-3.237C-39.604,-5.072 -39.639,-6.263 -41.397,-7.98C-41.912,-8.482 -42.416,-9.048 -43.035,-9.378C-44.913,-10.38 -45.088,-12.159 -45.108,-13.917C-45.133,-16.103 -42.561,-18.088 -40.243,-17.731C-36.989,-17.229 -33.855,-16.315 -31.174,-14.319C-30.481,-13.802 -29.887,-13.882 -29.172,-13.996C-24.383,-14.764 -19.591,-15.517 -14.799,-16.265C-14.329,-16.339 -13.846,-16.396 -13.373,-16.378C-12.389,-16.34 -11.924,-16.613 -11.55,-17.71C-10.247,-21.535 -6.994,-23.052 -3.378,-23.919C-2.878,-24.039 -2.143,-23.675 -1.675,-23.325C-0.612,-22.526 -0.216,-21.365 0,-19.612" style="fill:rgb(186,188,190);fill-rule:nonzero;"/>
            </g>
            <g transform="matrix(4.16667,0,0,4.16667,1711.02,2426.61)">
                <path d="M0,2.364C1.229,2.524 2.612,1.612 2.714,0.575C2.817,-0.474 1.75,-1.597 0.454,-1.803C-0.961,-2.028 -2.411,-1.178 -2.524,-0.058C-2.633,1.017 -1.421,2.179 0,2.364M-19.222,5.416C-18.254,5.353 -17.469,5.32 -16.688,5.246C-14.989,5.086 -14.148,4.167 -14.084,2.434C-14.022,0.769 -14.87,-0.189 -16.614,-0.435C-17.558,-0.568 -18.543,-0.581 -19.426,-0.889C-19.927,-1.064 -20.529,-1.69 -20.589,-2.175C-20.646,-2.636 -20.174,-3.371 -19.728,-3.638C-19.074,-4.03 -18.248,-4.191 -17.474,-4.31C-13.458,-4.931 -9.439,-5.534 -5.415,-6.092C-2.571,-6.485 0.282,-6.811 3.135,-7.13C3.839,-7.208 4.559,-7.141 5.399,-7.141C6.352,-5.027 7.235,-2.904 7.447,-0.598C7.614,1.227 7.627,3.074 7.577,4.908C7.503,7.592 5.642,8.67 3.157,7.524C2.731,7.327 2.34,7.021 1.987,6.705C-2,3.136 -6.455,3.467 -9.688,7.841C-10.674,9.174 -11.538,9.572 -13.043,9.216C-14.278,8.923 -15.574,8.891 -16.814,8.614C-18.681,8.198 -19.089,7.636 -19.222,5.416" style="fill:rgb(47,191,197);fill-rule:nonzero;"/>
            </g>
            <g transform="matrix(4.16667,0,0,4.16667,1868.08,2426.91)">
                <path d="M0,-23.796C0.162,-20.073 0.305,-16.931 0.429,-13.789C0.444,-13.399 0.285,-12.998 0.323,-12.613C0.764,-8.173 -1.776,-5.25 -4.858,-2.696C-6.066,-1.696 -7.561,-1.033 -8.96,-0.28C-9.329,-0.082 -9.825,-0.12 -10.576,0C-10.189,-0.764 -9.906,-1.215 -9.726,-1.704C-9.314,-2.819 -8.76,-3.928 -8.605,-5.085C-8.065,-9.111 -9.736,-11.117 -13.772,-11.497C-14.687,-11.583 -15.605,-11.629 -16.556,-11.884C-10.965,-15.542 -4.644,-17.995 0,-23.796" style="fill:rgb(47,191,197);fill-rule:nonzero;"/>
            </g>
            <g transform="matrix(4.16667,0,0,4.16667,1770.25,2384.06)">
                <path d="M0,14.975C-0.488,10.387 -0.939,6.146 -1.417,1.651C-0.23,0.745 1.594,0.746 3.261,0.378C5.687,-0.158 8.145,-0.163 10.571,0.642C12.841,1.395 13.728,2.883 13.277,5.208C12.772,7.808 11.341,9.863 9.169,11.135C6.574,12.655 3.734,13.76 0.98,15C0.674,15.138 0.238,14.986 0,14.975" style="fill:rgb(47,191,197);fill-rule:nonzero;"/>
            </g>
            <g transform="matrix(4.16667,0,0,4.16667,1608.07,2484.34)">
                <path d="M0,-8.214C0.514,-8.293 1.121,-8.402 1.733,-8.476C2.865,-8.612 3.637,-8.154 3.763,-6.988C4.051,-4.327 6.137,-3.713 8.163,-3.327C11.858,-2.623 15.58,-2.782 19.266,-3.623C20.578,-3.922 20.893,-3.688 21.524,-2.11C19.535,-1.106 17.333,-0.77 15.191,-0.379C11.489,0.298 7.77,0.398 4.02,-0.32C2.213,-0.666 1.066,-1.506 0.646,-3.218C0.26,-4.794 -0.759,-6.296 0,-8.214" style="fill:rgb(238,198,79);fill-rule:nonzero;"/>
            </g>
            <g transform="matrix(4.16667,0,0,4.16667,1746.83,2378.72)">
                <path d="M0,20.534C1.437,13.577 1.307,7.265 -3.265,1.641C-3.001,1.483 -2.7,1.23 -2.353,1.106C0.761,0 1.066,0.265 2.271,3.243C4.257,8.156 3.687,13.249 3.588,18.312C3.579,18.805 3.039,19.457 2.568,19.732C1.909,20.117 1.083,20.216 0,20.534" style="fill:rgb(47,191,197);fill-rule:nonzero;"/>
            </g>
            <g transform="matrix(4.16667,0,0,4.16667,1618.27,2390.28)">
                <path d="M0,8.015C-3,8.597 -3.407,8.268 -3.37,5.593C-3.328,2.639 -2.613,1.651 0.21,1.167C5.776,0.213 11.369,-0.582 17.041,-0.372C18.178,-0.33 19.305,0.002 20.437,0.201C20.441,0.405 20.445,0.61 20.449,0.815C18.873,1.071 17.298,1.338 15.719,1.58C11.711,2.194 7.703,2.785 3.626,2.657C3.086,2.64 2.538,2.858 1.996,2.979C-0.248,3.48 -0.595,4.019 -0.188,6.278C-0.092,6.812 -0.069,7.36 0,8.015" style="fill:rgb(238,198,79);fill-rule:nonzero;"/>
            </g>
            <g transform="matrix(4.16667,0,0,4.16667,1678.12,2485.62)">
                <path d="M0,-5.166C1.32,-7.964 3.367,-8.742 6.13,-8.068C8.568,-7.473 10.28,-5.671 10.385,-3.289C10.425,-2.388 10.141,-1.366 9.698,-0.568C8.212,2.11 4.058,3.576 1.193,2.503C0.33,2.18 -0.466,1.675 -1.363,1.217C-0.129,0.151 0.916,-0.33 2.416,0.399C3.911,1.126 5.218,0.581 6.163,-0.739C7.055,-1.984 6.942,-3.452 5.84,-4.934C5.022,-6.034 4.241,-6.181 2.431,-5.67C1.636,-5.446 0.811,-5.331 0,-5.166" style="fill:rgb(186,188,190);fill-rule:nonzero;"/>
            </g>
            <g transform="matrix(4.16667,0,0,4.16667,1614.35,2430.58)">
                <path d="M0,2.909C-1.034,2.909 -2.067,2.897 -3.101,2.913C-3.883,2.925 -4.588,2.751 -4.741,1.884C-4.917,0.88 -4.13,0.524 -3.383,0.205C-3.244,0.145 -3.071,0.146 -2.914,0.143C-0.153,0.093 2.608,0.034 5.37,0.004C6.063,-0.003 6.917,-0.128 7.058,0.87C7.196,1.851 6.609,2.34 5.686,2.442C3.796,2.651 1.904,2.84 0.014,3.037C0.009,2.994 0.004,2.951 0,2.909" style="fill:rgb(238,198,79);fill-rule:nonzero;"/>
            </g>
            <g transform="matrix(4.16667,0,0,4.16667,1701.03,2514.35)">
                <path d="M0,-2.544C0.615,-0.247 0.615,-0.247 -1.273,0C-1.779,-1.946 -1.779,-1.946 0,-2.544" style="fill:rgb(186,188,190);fill-rule:nonzero;"/>
            </g>
            <g transform="matrix(4.16667,0,0,4.16667,1559.58,2431.98)">
                <path d="M0,2.397C0.423,1.886 0.902,1.561 0.894,1.248C0.885,0.939 0.384,0.644 0.099,0.343C-0.197,0.63 -0.679,0.888 -0.732,1.215C-0.779,1.504 -0.348,1.871 0,2.397M2.437,1.947C2.229,2.209 1.97,2.722 1.556,3.019C0.653,3.664 -1.058,3.117 -1.772,2.04C-2.332,1.195 -2.069,-0.423 -1.184,-0.972C-0.819,-1.198 -0.261,-1.267 0.174,-1.194C1.043,-1.048 2.43,0.817 2.437,1.947" style="fill:rgb(35,31,32);fill-rule:nonzero;"/>
            </g>
            <g transform="matrix(4.16667,0,0,4.16667,1522.84,2415.52)">
                <path d="M0,0.587C-0.86,-0.091 -1.143,-0.314 -1.425,-0.537C-1.659,-0.204 -1.993,0.106 -2.077,0.473C-2.109,0.612 -1.581,1.032 -1.286,1.056C-0.944,1.083 -0.579,0.815 0,0.587M-2.351,-1.958C-1.199,-1.851 -0.26,-1.356 0.381,-0.34C0.979,0.608 0.914,1.509 0.209,2.004C-0.559,2.545 -2.419,2.341 -2.87,1.668C-3.585,0.599 -3.405,-0.723 -2.351,-1.958" style="fill:rgb(35,31,32);fill-rule:nonzero;"/>
            </g>
            <g transform="matrix(4.16667,0,0,4.16667,1715.64,2427.43)">
                <path d="M0,0.106C-0.442,-0.307 -0.768,-0.795 -0.954,-0.747C-1.341,-0.646 -1.655,-0.261 -2,0.007C-1.771,0.283 -1.529,0.795 -1.318,0.783C-0.937,0.76 -0.575,0.424 0,0.106M-1.109,2.169C-2.53,1.984 -3.742,0.822 -3.633,-0.253C-3.52,-1.373 -2.07,-2.223 -0.655,-1.998C0.641,-1.792 1.708,-0.669 1.605,0.38C1.503,1.417 0.12,2.329 -1.109,2.169" style="fill:rgb(35,31,32);fill-rule:nonzero;"/>
            </g>
            <g transform="matrix(4.16184,0.200595,0.200595,-4.16184,1559.38,2441.95)">
                <path d="M0.05,-0.002C-0.323,0.507 -0.772,0.853 -0.739,1.144C-0.701,1.473 -0.232,1.754 0.05,2.055C0.349,1.768 0.863,1.497 0.887,1.189C0.91,0.877 0.447,0.529 0.05,-0.002" style="fill:rgb(130,81,42);fill-rule:nonzero;"/>
            </g>
            <g transform="matrix(0.228352,-4.1604,-4.1604,-0.228352,1520,2412.34)">
                <path d="M-1.31,-0.756C-1.57,-0.19 -1.857,0.159 -1.849,0.502C-1.841,0.798 -1.451,1.348 -1.31,1.324C-0.939,1.26 -0.611,0.944 -0.266,0.728C-0.473,0.435 -0.68,0.14 -1.31,-0.756" style="fill:rgb(130,81,42);fill-rule:nonzero;"/>
            </g>
            <g transform="matrix(0.205998,-4.16157,-4.16157,-0.205998,1712.12,2423.29)">
                <path d="M-1.056,-0.898C-1.402,-0.339 -1.756,0.006 -1.798,0.385C-1.82,0.595 -1.321,0.862 -1.056,1.104C-0.772,0.773 -0.372,0.479 -0.252,0.097C-0.195,-0.086 -0.666,-0.436 -1.056,-0.898" style="fill:rgb(130,81,42);fill-rule:nonzero;"/>
            </g>
            <g transform="matrix(4.16667,0,0,4.16667,1635.94,2538.72)">
                <path d="M0,6.023C0.224,4.102 -1.2,2.442 -2.276,0.836C-3.354,-0.77 -4.068,-3.131 -2.681,-4.478C-1.662,-5.466 0.026,-5.345 1.309,-4.736C2.59,-4.127 3.647,-3.127 4.891,-2.444C7.117,-1.219 9.814,-1.091 12.308,-1.577C14.801,-2.063 17.143,-3.117 19.458,-4.163C13.468,-2.817 7.108,-3.161 1.299,-5.144C-0.081,-5.616 -1.481,-6.185 -2.938,-6.109C-4.394,-6.033 -5.933,-5.072 -6.098,-3.623C-6.258,-2.223 -5.152,-1.039 -4.199,-0.001C-2.464,1.89 -0.895,4.506 -1.833,6.895C-2.202,7.834 -2.92,8.596 -3.347,9.51C-3.763,10.4 -3.813,11.533 -3.042,12.208C-3.001,9.377 -0.306,8.644 0,6.023" style="fill:white;fill-rule:nonzero;"/>
            </g>
            <g transform="matrix(4.16667,0,0,4.16667,1698.91,2470.06)">
                <path d="M0,-2.492C1.054,-1.991 1.865,-1.007 2.156,0.123C2.258,0.523 2.305,0.952 2.54,1.291C2.775,1.63 3.293,1.822 3.604,1.55C3.826,1.356 3.846,1.02 3.829,0.725C3.729,-1.027 2.821,-2.794 1.265,-3.603C-0.103,-4.314 -2.354,-4.146 -3.153,-2.713C-2.089,-2.876 -1.022,-2.978 0,-2.492" style="fill:white;fill-rule:nonzero;"/>
            </g>
            <g transform="matrix(4.16667,0,0,4.16667,1611.68,2403.68)">
                <path d="M0,1.597C0.101,0.834 0.448,0.069 1.084,-0.363C1.596,-0.711 2.231,-0.81 2.843,-0.899C4.175,-1.094 5.508,-1.29 6.84,-1.485C6.955,-1.697 6.796,-1.975 6.576,-2.075C6.355,-2.174 6.101,-2.146 5.861,-2.114C4.315,-1.914 2.773,-1.681 1.238,-1.416C0.673,-1.318 0.076,-1.2 -0.346,-0.811C-0.885,-0.314 -0.993,0.49 -1.004,1.223C-1.018,2.044 -1.068,3.116 -0.647,3.771C0.237,3.289 -0.115,2.469 0,1.597" style="fill:white;fill-rule:nonzero;"/>
            </g>
            <g transform="matrix(4.16667,0,0,4.16667,1620.89,2438.98)">
                <path d="M0,-1.364C-1.744,-1.284 -3.474,-0.906 -5.092,-0.251C-5.167,0.109 -4.661,0.275 -4.293,0.274C-2.763,0.266 -1.233,0.095 0.261,-0.234C0.639,-0.317 1.068,-0.456 1.208,-0.817C1.348,-1.177 0.83,-1.639 0.591,-1.335" style="fill:white;fill-rule:nonzero;"/>
            </g>
        </g>
    </g>
</svg>
