<?xml version="1.0" encoding="UTF-8" standalone="no"?>
<!DOCTYPE svg PUBLIC "-//W3C//DTD SVG 1.1//EN" "http://www.w3.org/Graphics/SVG/1.1/DTD/svg11.dtd">
<svg width="100%" height="100%" viewBox="0 0 173 272" version="1.1" xmlns="http://www.w3.org/2000/svg" xmlns:xlink="http://www.w3.org/1999/xlink" xml:space="preserve" xmlns:serif="http://www.serif.com/" style="fill-rule:evenodd;clip-rule:evenodd;stroke-miterlimit:10;">
    <g transform="matrix(1,0,0,1,-227,-1493)">
        <g>
            <g transform="matrix(4.16667,0,0,4.16667,388.123,1514.09)">
                <path d="M0,58.731C0,58.731 -17.702,60.087 -33.9,59.519C-35.896,56.256 -37.674,51.296 -37.674,51.296C-37.674,51.296 -38.073,11.121 -36.907,-0.143C-31.816,-0.578 -11.116,-1.356 -1.933,0.057C-0.215,2.263 0.742,4.797 1.241,6.21C1.84,23.501 0.699,45.137 0,58.731" style="fill:rgb(180,213,229);fill-rule:nonzero;"/>
            </g>
            <g transform="matrix(0.703391,-4.10687,-4.10687,-0.703391,339.737,1451.17)">
                <path d="M-18.821,-16.295C-18.821,-16.295 -23.757,2.921 -24.672,17.045C-22.481,18.801 -19.411,22.001 -18.821,22.405C-16.152,12.032 -13.346,-2.975 -13.093,-11.862C-13.804,-12.933 -16.789,-15.257 -18.821,-16.295" style="fill:rgb(19,117,188);fill-rule:nonzero;"/>
            </g>
            <g transform="matrix(4.16667,0,0,4.16667,234.963,1761.75)">
                <path d="M0,-59.521C0,-59.521 -1.999,-54.836 -0.667,-48.369C-1.4,-40.878 -2.131,-16.706 -0.848,-8.116C0.263,-5.692 1.809,-1.498 2.726,0C2.302,-6.4 1.636,-32.531 4.18,-53.054C2.121,-55.957 0.666,-59.191 0,-59.521" style="fill:rgb(42,56,144);fill-rule:nonzero;"/>
            </g>
            <g transform="matrix(4.16667,0,0,4.16667,245.482,1613.73)">
                <path d="M0,6.842C0.069,6.026 0.151,5.209 0.161,4.386C0.171,3.606 0.116,2.799 -0.121,2.087C-0.234,1.748 -0.388,1.427 -0.563,1.15C-0.737,0.877 -0.932,0.636 -1.117,0.381C-1.298,0.131 -1.475,-0.135 -1.605,-0.445C-1.744,-0.776 -1.797,-1.142 -1.796,-1.526C-1.793,-2.389 -1.551,-3.201 -1.504,-4.054C-1.463,-4.797 -1.618,-5.516 -1.883,-6.145C-2.265,-7.049 -2.817,-7.759 -3.384,-8.434C-3.495,-0.598 -3.513,8.305 -3.503,15.276C-3.248,14.612 -2.975,13.965 -2.629,13.393C-2.332,12.901 -1.962,12.47 -1.515,12.308C-1.025,12.131 -0.528,12.314 -0.083,12.621C-0.053,12.43 -0.028,12.237 -0.015,12.04C0.047,11.127 -0.026,10.208 -0.069,9.297C-0.088,8.877 -0.104,8.459 -0.084,8.039C-0.065,7.639 -0.034,7.24 0,6.842" style="fill:rgb(19,117,188);fill-rule:nonzero;"/>
            </g>
            <g transform="matrix(0.99223,4.0468,4.0468,-0.99223,279.566,1491.43)">
                <path d="M8.351,-6.698C10.475,-3.822 5.546,-0.194 11.778,8.616C13.1,10.484 8.351,13.526 8.351,13.526C7.028,8.394 4.6,0.369 3.382,-7.68C3.359,-8.308 7.324,-8.074 8.351,-6.698" style="fill:rgb(36,170,225);fill-rule:nonzero;"/>
            </g>
            <g transform="matrix(4.16667,0,0,4.16667,231.08,1762)">
                <path d="M0,-8.039C-0.272,-7.647 0.165,-7.014 0.309,-6.624C0.667,-5.655 1.021,-4.685 1.393,-3.722C1.889,-2.435 2.406,-0.529 3.553,0.33C3.95,0.628 4.291,0.024 4.039,-0.299C2.785,-1.906 2.141,-4.009 1.391,-5.882C1.31,-6.085 0.435,-8.667 0,-8.039" style="fill:rgb(35,31,32);fill-rule:nonzero;"/>
            </g>
            <g transform="matrix(0.17137,4.16314,4.16314,-0.17137,312.405,1692.42)">
                <path d="M16.464,-16.271C17.318,-5.177 17.922,5.981 17.316,17.102C17.287,17.645 16.433,17.685 16.464,17.137C17.078,5.983 16.282,-5.105 15.678,-16.238C15.65,-16.745 16.425,-16.774 16.464,-16.271" style="fill:rgb(35,31,32);fill-rule:nonzero;"/>
            </g>
            <g transform="matrix(4.16667,0,0,4.16667,383.49,1519.96)">
                <path d="M0,0.882C0,2.167 -2.212,3.029 -4.787,3.029C-7.36,3.029 -9.546,2.065 -9.546,0.873C-9.546,0.519 -9.547,0.211 -9.539,-0.059C-9.479,-1.946 -8.885,-1.817 -4.787,-1.817C-0.632,-1.817 -0.055,-2.147 -0.006,-0.224C0,0.001 0,0.605 0,0.882" style="fill:rgb(220,221,222);fill-rule:nonzero;"/>
            </g>
            <g transform="matrix(4.16667,0,0,4.16667,383.49,1519.96)">
                <path d="M0,0.882C0,2.167 -2.212,3.029 -4.787,3.029C-7.36,3.029 -9.546,2.065 -9.546,0.873C-9.546,0.519 -9.547,0.211 -9.539,-0.059C-9.479,-1.946 -8.885,-1.817 -4.787,-1.817C-0.632,-1.817 -0.055,-2.147 -0.006,-0.224C0,0.001 0,0.605 0,0.882Z" style="fill:none;fill-rule:nonzero;stroke:rgb(35,31,32);stroke-width:0.75px;"/>
            </g>
            <g transform="matrix(0,-4.16667,-4.16667,0,363.547,1496.29)">
                <path d="M-4.661,-4.661C-5.574,-4.661 -6.313,-2.575 -6.313,0C-6.313,2.574 -5.574,4.661 -4.661,4.661C-3.747,4.661 -3.008,2.574 -3.008,0C-3.008,-2.575 -3.747,-4.661 -4.661,-4.661" style="fill:white;fill-rule:nonzero;"/>
            </g>
            <g transform="matrix(0,-4.16667,-4.16667,0,363.547,1496.29)">
                <ellipse cx="-4.661" cy="0" rx="1.653" ry="4.661" style="fill:none;stroke:rgb(35,31,32);stroke-width:0.75px;"/>
            </g>
            <g transform="matrix(0,-4.16667,-4.16667,0,321.214,1591.54)">
                <path d="M-14.207,-14.207C-22.054,-14.207 -28.414,-7.846 -28.414,-0C-28.414,7.846 -22.054,14.207 -14.207,14.207C-6.361,14.207 -0,7.846 -0,-0C-0,-7.846 -6.361,-14.207 -14.207,-14.207" style="fill:rgb(36,170,225);fill-rule:nonzero;"/>
            </g>
            <g transform="matrix(4.16667,0,0,4.16667,0,0)">
                <g opacity="0.2">
                    <g transform="matrix(1,0,0,1,85.3019,375.795)">
                        <path d="M0,43.666C0.864,42.541 1.624,41.32 2.26,40.028C2.894,38.741 3.404,37.381 3.759,35.973C4.106,34.593 4.301,33.167 4.305,31.735C4.308,30.299 4.115,28.864 3.71,27.496C3.51,26.818 3.241,26.182 2.97,25.536C2.762,25.039 2.574,24.531 2.434,24.007C2.171,23.023 2.013,21.735 2.775,20.957C2.96,20.768 3.192,20.611 3.434,20.523C3.649,20.445 3.887,20.437 4.112,20.452C4.687,20.489 5.253,20.672 5.797,20.869C6.349,21.068 6.888,21.304 7.432,21.524C7.917,21.722 8.417,21.866 8.917,22.006C9.21,13.482 9.367,4.5 9.156,-3.829C8.715,-3.613 8.274,-3.398 7.835,-3.177C5.138,-1.815 2.475,-0.333 -0.294,0.853C-2.918,1.976 -5.612,2.914 -8.165,4.226C-9.375,4.847 -10.645,5.517 -11.653,6.488C-12.688,7.483 -13.478,8.782 -14.294,9.984C-14.759,10.668 -15.217,11.356 -15.675,12.046C-16.008,12.549 -16.349,13.044 -16.641,13.578C-17.189,14.581 -17.605,15.667 -17.897,16.79C-18.495,19.094 -18.589,21.606 -17.965,23.917C-17.653,25.076 -17.151,26.182 -16.454,27.125C-16.118,27.579 -15.731,27.947 -15.312,28.307C-14.925,28.637 -14.545,28.981 -14.282,29.44C-13.671,30.504 -13.865,31.809 -14.401,32.854C-14.69,33.419 -15.063,33.928 -15.453,34.411C-15.817,34.861 -16.192,35.293 -16.619,35.674C-18.301,37.17 -20.464,38.105 -21.858,39.969C-22.57,40.921 -22.926,42.126 -23.139,43.316C-23.366,44.582 -23.432,45.883 -23.403,47.172C-15.935,47.296 -8.538,47.495 -2.722,47.03C-1.795,46.202 -0.77,44.668 0,43.666" style="fill:white;fill-rule:nonzero;"/>
                    </g>
                </g>
            </g>
            <g transform="matrix(0.143865,4.16418,4.16418,-0.143865,287.368,1453.13)">
                <path d="M14.049,-13.21C14.025,-4.06 14.196,5.06 14.804,14.192C14.835,14.676 14.081,14.702 14.049,14.218C13.444,5.074 13.024,-4.058 13.787,-13.201C13.801,-13.364 14.05,-13.383 14.049,-13.21" style="fill:rgb(35,31,32);fill-rule:nonzero;"/>
            </g>
            <g transform="matrix(4.16393,-0.151112,-0.151112,-4.16393,237.251,1578.09)">
                <path d="M-0.288,-0.037C-0.885,4.734 -1.585,10.886 0.291,15.439C0.428,15.772 -0.129,16.036 -0.288,15.707C-2.37,11.397 -1.92,4.394 -0.543,-0.098C-0.493,-0.262 -0.267,-0.204 -0.288,-0.037" style="fill:rgb(35,31,32);fill-rule:nonzero;"/>
            </g>
            <g transform="matrix(4.16667,0,0,4.16667,235.901,1540.48)">
                <path d="M0,9.284C1.053,8.812 1.537,6.662 1.867,5.672C2.438,3.956 2.905,2.201 3.4,0.462C3.51,0.078 2.946,-0.063 2.812,0.3C2.263,1.783 1.942,3.358 1.477,4.868C1.023,6.339 0.199,7.653 -0.284,9.065C-0.345,9.242 -0.14,9.347 0,9.284" style="fill:rgb(35,31,32);fill-rule:nonzero;"/>
            </g>
            <g transform="matrix(-4.16631,0.0547316,0.0547316,4.16631,229.48,1730.35)">
                <path d="M-0.949,-42.586C0.077,-28.573 0.84,-14.38 -0.102,-0.345C-0.139,0.194 -0.986,0.21 -0.949,-0.334C-0,-14.455 -1.512,-28.472 -1.258,-42.582C-1.253,-42.782 -0.963,-42.784 -0.949,-42.586" style="fill:rgb(35,31,32);fill-rule:nonzero;"/>
            </g>
            <g transform="matrix(-4.16578,-0.0859793,-0.0859793,4.16578,240.457,1738.85)">
                <path d="M-1.535,-46.805C0.482,-31.528 0.123,-15.716 -0.688,-0.361C-0.716,0.182 -1.563,0.167 -1.535,-0.379C-0.716,-15.873 -1.168,-31.284 -1.839,-46.77C-1.846,-46.941 -1.558,-46.978 -1.535,-46.805" style="fill:rgb(35,31,32);fill-rule:nonzero;"/>
            </g>
            <g transform="matrix(4.16667,0,0,4.16667,382.562,1540.17)">
                <path d="M0,-5.338C-0.016,-4.632 0.764,-3.635 1.053,-3.001C1.479,-2.066 1.904,-1.12 2.226,-0.143C2.36,0.265 3.007,0.09 2.871,-0.32C2.558,-1.264 2.151,-2.183 1.733,-3.084C1.426,-3.744 1.014,-5.183 0.331,-5.527C0.182,-5.603 0.004,-5.511 0,-5.338" style="fill:rgb(35,31,32);fill-rule:nonzero;"/>
            </g>
            <g transform="matrix(-4.16645,-0.042949,-0.042949,4.16645,391.011,1759.64)">
                <path d="M0.323,-52.685C-0.196,-35.111 1.052,-17.652 1.116,-0.095C1.119,0.42 0.352,0.402 0.323,-0.104C-0.68,-17.527 -1.252,-35.259 -0.307,-52.692C-0.285,-53.095 0.335,-53.092 0.323,-52.685" style="fill:rgb(35,31,32);fill-rule:nonzero;"/>
            </g>
            <g transform="matrix(4.16667,0,0,4.16667,238.538,1539.9)">
                <path d="M0,-5.422C0.09,-3.495 2.032,-1.891 2.783,-0.187C2.964,0.225 3.569,-0.131 3.389,-0.542C2.991,-1.444 2.404,-2.228 1.84,-3.031C1.276,-3.835 0.827,-4.675 0.318,-5.508C0.233,-5.647 -0.008,-5.597 0,-5.422" style="fill:rgb(35,31,32);fill-rule:nonzero;"/>
            </g>
            <g transform="matrix(0.0996101,4.16548,4.16548,-0.0996101,319.636,1479.31)">
                <path d="M14.773,-15.516C16.142,-5.459 15.5,4.878 15.461,15.003C15.459,15.446 14.77,15.465 14.773,15.02C14.808,4.856 15.245,-5.372 14.3,-15.505C14.271,-15.812 14.732,-15.811 14.773,-15.516" style="fill:rgb(35,31,32);fill-rule:nonzero;"/>
            </g>
            <g transform="matrix(4.16667,0,0,4.16667,0,0)">
                <g transform="matrix(11.8479,0,0,11.8479,69.6275,400.51)">
                    <path d="M0.225,-0L0.414,-0L0.414,-0.74L0.104,-0.74L0.104,-0.581L0.225,-0.581L0.225,-0Z" style="fill:rgb(35,31,32);fill-rule:nonzero;"/>
                </g>
                <g transform="matrix(11.8479,0,0,11.8479,80.3617,400.51)">
                    <path d="M0.075,-0L0.44,-0L0.44,-0.073L0.158,-0.073L0.158,-0.74L0.075,-0.74L0.075,-0Z" style="fill:rgb(35,31,32);fill-rule:nonzero;"/>
                </g>
            </g>
        </g>
    </g>
</svg>
