<?xml version="1.0" encoding="UTF-8" standalone="no"?>
<!DOCTYPE svg PUBLIC "-//W3C//DTD SVG 1.1//EN" "http://www.w3.org/Graphics/SVG/1.1/DTD/svg11.dtd">
<svg width="100%" height="100%" viewBox="0 0 150 177" version="1.1" xmlns="http://www.w3.org/2000/svg" xmlns:xlink="http://www.w3.org/1999/xlink" xml:space="preserve" xmlns:serif="http://www.serif.com/" style="fill-rule:evenodd;clip-rule:evenodd;">
    <g transform="matrix(1,0,0,1,-1594,-1595)">
        <g>
            <g transform="matrix(4.16667,0,0,4.16667,0,0)">
                <g opacity="0.7">
                    <g transform="matrix(1,0,0,1,413.358,388.968)">
                        <path d="M0,30.161C-0.219,30.756 -0.46,31.323 -0.715,31.779C-0.715,31.781 -0.715,31.782 -0.716,31.784C-0.721,31.795 -0.726,31.806 -0.731,31.816C-0.734,31.823 -0.733,31.83 -0.736,31.837C-1.434,33.743 -6.577,35.224 -12.821,35.224C-18.984,35.224 -24.073,33.782 -24.876,31.912C-25.245,31.291 -25.59,30.42 -25.879,29.559C-29.105,20.866 -29.612,6.527 -29.685,1.493L-29.657,-0.25C-29.692,-2.899 -21.955,-5.063 -13.082,-5.063C-4.157,-5.063 3.895,-2.928 4.013,-0.21L4.072,0.761C3.99,6.043 3.399,21.623 0,30.161" style="fill:white;fill-rule:nonzero;"/>
                    </g>
                </g>
            </g>
            <g transform="matrix(4.16667,0,0,4.16667,1722.33,1620.7)">
                <path d="M0,30.16C-0.219,30.755 -0.46,31.322 -0.715,31.778C-0.715,31.78 -0.715,31.781 -0.716,31.783C-0.721,31.794 -0.726,31.805 -0.731,31.815C-0.734,31.822 -0.733,31.829 -0.736,31.836C-1.434,33.742 -6.577,35.223 -12.821,35.223C-18.984,35.223 -24.073,33.781 -24.876,31.911C-25.245,31.29 -25.59,30.419 -25.879,29.558C-29.105,20.865 -29.612,6.526 -29.685,1.492L-29.657,-0.251C-29.692,-2.9 -21.955,-5.064 -13.082,-5.064C-4.157,-5.064 3.895,-2.929 4.013,-0.211L4.072,0.76C3.99,6.042 3.399,21.622 0,30.16M4.987,-0.003C4.986,-0.051 4.973,-0.094 4.959,-0.138C4.961,-0.621 4.816,-1.23 4.289,-1.864C1.926,-4.712 -6.372,-6.009 -13.082,-6.009C-16.869,-6.009 -20.632,-5.614 -23.677,-4.897C-25.922,-4.367 -28.849,-3.406 -30.039,-1.835C-30.501,-1.225 -30.618,-0.648 -30.598,-0.175C-30.62,-0.121 -30.636,-0.064 -30.636,-0.003C-30.646,0.891 -30.827,22.009 -25.769,32.237C-25.767,32.24 -25.764,32.243 -25.762,32.247C-24.681,34.825 -18.719,36.169 -12.821,36.169C-6.896,36.169 -0.906,34.812 0.133,32.209C5.178,21.972 4.997,0.89 4.987,-0.003" style="fill:rgb(35,31,32);fill-rule:nonzero;"/>
            </g>
            <g transform="matrix(4.16667,0,0,4.16667,0,0)">
                <g opacity="0.6">
                    <g transform="matrix(1,0,0,1,410.712,417.645)">
                        <path d="M0,1.785C-1.77,-0.059 -5.991,-0.542 -10.178,-0.542C-14.376,-0.542 -18.611,-0.053 -20.37,1.803C-20.275,2.135 -19.7,2.327 -19.439,2.122C-17.796,0.827 -14.268,0.403 -10.178,0.403C-6.144,0.403 -2.655,0.803 -0.984,2.069C-0.7,2.284 -0.094,2.116 0,1.785" style="fill:rgb(0,125,197);fill-rule:nonzero;"/>
                    </g>
                </g>
            </g>
            <g transform="matrix(4.16667,0,0,4.16667,0,0)">
                <g opacity="0.2">
                    <g transform="matrix(1,0,0,1,395.271,401.577)">
                        <path d="M0,-16.31C0,-16.31 1.445,-15.195 -1.982,-14.658C-5.135,-14.164 -8.509,-13.501 -8.179,-8.586C-7.848,-3.671 -8.497,0.206 -9.612,-0.993C-9.984,-3.347 -10.243,-10.527 -10.367,-12.551C-10.491,-14.575 -1.652,-16.516 0,-16.31" style="fill:rgb(0,125,197);fill-rule:nonzero;"/>
                    </g>
                </g>
            </g>
            <g transform="matrix(4.16667,0,0,4.16667,0,0)">
                <g opacity="0.3">
                    <g transform="matrix(1,0,0,1,413.546,402.011)">
                        <path d="M0,-5.765C-2.51,-4.835 -7.681,-4.21 -13.009,-4.21C-14.255,-4.21 -15.464,-4.244 -16.617,-4.309C-16.941,-4.006 -16.506,-3.644 -14.847,-3.552C-11.873,-3.387 -6.091,-3.139 -4.107,-3.222C-2.125,-3.304 0.129,-3.346 -0.077,-2.355C-0.284,-1.363 -0.325,-0.248 0.129,0C0.583,-1.405 1.285,-3.593 1.368,-4.378C1.434,-4.999 0.338,-5.285 0,-5.765" style="fill:rgb(0,125,197);fill-rule:nonzero;"/>
                    </g>
                </g>
            </g>
            <g transform="matrix(4.16667,0,0,4.16667,0,0)">
                <g opacity="0.4">
                    <g transform="matrix(1,0,0,1,387.612,397.923)">
                        <path d="M0,10.099C0,10.099 -2.105,5.549 -2.124,-1.962C-2.104,-2.313 1.927,-0.866 4.851,-0.309C5.718,-0.144 5.677,0.476 6.668,0.889C7.659,1.302 10.881,2.004 9.188,2.169C7.493,2.334 4.148,1.054 3.859,1.921C3.569,2.788 4.189,3.946 3.9,5.019C3.611,6.093 2.331,5.886 2.455,6.836C2.578,7.786 1.693,12.412 0,10.099" style="fill:rgb(0,125,197);fill-rule:nonzero;"/>
                    </g>
                </g>
            </g>
            <g transform="matrix(4.16667,0,0,4.16667,0,0)">
                <g opacity="0.7">
                    <g transform="matrix(1,0,0,1,410.013,417.163)">
                        <path d="M0,-2.209C-1.707,-2.365 -3.417,-2.213 -5.127,-2.154C-4.166,-2.314 -3.227,-2.559 -2.337,-3.03C-1.554,-3.445 -1.924,-4.692 -2.785,-4.682C-5.657,-4.646 -8.801,-4.047 -11.528,-5.235C-11.97,-5.428 -12.475,-5.361 -12.74,-4.917C-12.964,-4.544 -12.86,-3.896 -12.423,-3.704C-12.216,-3.614 -12.008,-3.534 -11.8,-3.46C-12.584,-3.484 -13.369,-3.509 -14.15,-3.472C-14.864,-3.438 -15.389,-2.493 -14.777,-1.959C-13.886,-1.181 -12.819,-0.998 -11.683,-0.84C-11.235,-0.777 -10.786,-0.72 -10.338,-0.664C-10.814,-0.64 -11.292,-0.624 -11.771,-0.621C-12.478,-0.615 -12.829,0.119 -12.536,0.713C-12.221,1.353 -11.582,1.656 -10.869,1.815C-10.932,2.218 -10.768,2.671 -10.283,2.851C-9.287,3.219 -7.975,2.912 -6.947,2.803C-5.771,2.677 -4.6,2.511 -3.434,2.31C-2.427,2.136 -2.698,0.58 -3.669,0.568C-4.145,0.562 -4.619,0.544 -5.094,0.526C-3.31,0.24 -1.533,-0.111 0.235,-0.468C1.28,-0.679 0.931,-2.123 0,-2.209" style="fill:white;fill-rule:nonzero;"/>
                    </g>
                </g>
            </g>
            <g transform="matrix(4.16667,0,0,4.16667,0,0)">
                <g opacity="0.7">
                    <g transform="matrix(0.00782665,0.999969,0.999969,-0.00782665,398.959,385.617)">
                        <path d="M7.707,-7.86C7.151,-7.876 6.457,-4.981 6.398,-2.212C6.261,4.289 7.063,7.794 7.707,7.344C8.844,6.549 8.792,0.835 8.619,-1.928C8.453,-4.6 9.341,-7.816 7.707,-7.86" style="fill:white;fill-rule:nonzero;"/>
                    </g>
                </g>
            </g>
            <g transform="matrix(4.16667,0,0,4.16667,0,0)">
                <g opacity="0.7">
                    <g transform="matrix(1,0,0,1,405.77,395.467)">
                        <path d="M0,-0.842C-0.494,-0.792 -0.722,-0.802 -1.363,-0.562C-2.005,-0.321 -2.406,0.08 -1.123,0.08C0.16,0.08 1.082,0 1.082,0C1.082,0 3.248,-0.08 3.168,-0.481C3.087,-0.882 0.802,-0.922 0,-0.842" style="fill:white;fill-rule:nonzero;"/>
                    </g>
                </g>
            </g>
            <g transform="matrix(4.16667,0,0,4.16667,0,0)">
                <g opacity="0.3">
                    <g transform="matrix(1,0,0,1,400.536,396.663)">
                        <path d="M0,-5.823C-7.899,-5.823 -15.242,-4.36 -15.242,-2.571C-15.242,-1.515 -12.069,-0.591 -8.616,0C-10.28,-0.466 -11.274,-1.052 -11.274,-1.69C-11.274,-2.226 -10.569,-2.727 -9.355,-3.15C-9.362,-3.193 -9.376,-3.231 -9.377,-3.278C-9.396,-3.834 -6.507,-4.551 -3.739,-4.631C-0.824,-4.716 1.484,-4.605 3.109,-4.4C9.105,-4.2 14.218,-3.062 14.218,-1.69C14.218,-1.677 14.214,-1.663 14.213,-1.649C14.607,-1.945 15.026,-2.427 15.026,-2.752C15.026,-4.541 7.898,-5.823 0,-5.823" style="fill:rgb(0,125,197);fill-rule:nonzero;"/>
                    </g>
                </g>
            </g>
            <g transform="matrix(4.16667,0,0,4.16667,0,0)">
                <g opacity="0.2">
                    <g transform="matrix(1,0,0,1,413.674,413.271)">
                        <path d="M0,-11.261C-0.454,-11.509 -0.413,-12.623 -0.206,-13.615C0,-14.607 -2.254,-14.565 -4.236,-14.483C-6.219,-14.4 -12.002,-14.648 -14.976,-14.813C-16.635,-14.905 -17.07,-15.267 -16.746,-15.57C-15.593,-15.505 -14.384,-15.471 -13.138,-15.471C-7.81,-15.471 -2.639,-16.096 -0.129,-17.026C0.209,-16.545 1.305,-16.26 1.239,-15.639C1.156,-14.854 0.454,-12.665 0,-11.261M-2.962,6.159C-3.056,6.49 -3.662,6.658 -3.946,6.443C-4.56,5.977 -5.421,5.631 -6.463,5.376C-6.444,5.754 -6.635,6.121 -7.095,6.201C-8.261,6.402 -9.433,6.568 -10.608,6.694C-11.636,6.803 -12.948,7.11 -13.944,6.742C-14.429,6.562 -14.593,6.109 -14.53,5.707C-15.14,5.571 -15.692,5.327 -16.038,4.861C-18.852,5.039 -21.162,5.519 -22.401,6.496C-22.662,6.701 -23.237,6.509 -23.333,6.176C-22.016,4.788 -19.311,4.164 -16.272,3.938C-16.184,3.571 -15.88,3.274 -15.433,3.27C-14.953,3.267 -14.476,3.252 -13.999,3.227C-14.447,3.172 -14.896,3.114 -15.344,3.052C-16.48,2.893 -17.547,2.711 -18.438,1.932C-19.05,1.397 -18.525,0.453 -17.812,0.42C-17.03,0.383 -16.245,0.407 -15.461,0.431C-15.669,0.357 -15.877,0.277 -16.084,0.187C-16.521,-0.004 -16.625,-0.653 -16.401,-1.026C-16.136,-1.47 -15.631,-1.536 -15.189,-1.344C-12.462,-0.156 -9.318,-0.754 -6.446,-0.79C-5.585,-0.801 -5.215,0.446 -5.998,0.861C-6.888,1.332 -7.827,1.577 -8.788,1.737C-7.078,1.678 -5.367,1.526 -3.661,1.682C-2.73,1.768 -2.381,3.213 -3.425,3.424C-4.821,3.705 -6.223,3.973 -7.628,4.218C-5.614,4.557 -3.924,5.156 -2.962,6.159M-9.268,-18.366C-8.627,-18.607 -8.398,-18.597 -7.904,-18.647C-7.103,-18.727 -4.817,-18.687 -4.736,-18.285C-4.656,-17.885 -6.822,-17.805 -6.822,-17.805C-6.822,-17.805 -7.744,-17.725 -9.027,-17.725C-10.311,-17.725 -9.909,-18.125 -9.268,-18.366M1.074,-18.257C1.075,-18.271 1.079,-18.284 1.079,-18.298C1.079,-19.67 -4.033,-20.808 -10.029,-21.008C-8.03,-20.757 -7.066,-20.362 -7.312,-20.005C-8.098,-18.862 -13.812,-18.869 -16.575,-19.02C-19.25,-19.165 -22.459,-18.252 -22.516,-19.886C-22.515,-19.839 -22.501,-19.801 -22.494,-19.758C-23.708,-19.335 -24.413,-18.834 -24.413,-18.298C-24.413,-17.659 -23.419,-17.073 -21.755,-16.608C-24.901,-17.146 -27.94,-17.961 -28.318,-18.901C-28.319,-18.807 -28.318,-18.706 -28.311,-18.59C-28.268,-17.89 -28.169,-16.986 -28.029,-15.966C-28.085,-16.402 -28.138,-16.849 -28.187,-17.31C-27.218,-17.361 -26.8,-16.79 -21.212,-15.657C-20.347,-15.482 -20.386,-14.872 -19.395,-14.459C-18.403,-14.046 -15.182,-13.344 -16.875,-13.179C-18.569,-13.014 -21.914,-14.294 -22.203,-13.427C-22.493,-12.56 -21.873,-11.403 -22.162,-10.329C-22.451,-9.255 -23.731,-9.462 -23.607,-8.512C-23.484,-7.562 -24.369,-2.936 -26.062,-5.249C-26.062,-5.249 -27.883,-10.249 -28.13,-14.624C-27.878,-10.159 -26.61,2.703 -24.104,6.815C-22.969,8.676 -19.602,9.747 -12.704,9.747C-5.807,9.747 -2.558,8.287 -2.172,7.228C0.711,-0.679 1.71,-12.199 1.888,-19.36C1.888,-19.034 1.469,-18.553 1.074,-18.257" style="fill:rgb(0,143,212);fill-rule:nonzero;"/>
                    </g>
                </g>
            </g>
            <g transform="matrix(4.16667,0,0,4.16667,1635.86,1603.83)">
                <path d="M0,7.331C-0.021,7.331 -0.044,7.329 -0.065,7.326C-2.93,6.929 -7.735,5.958 -7.735,3.915C-7.735,1.345 0.094,0 7.826,0C9.62,0 11.377,0.07 13.048,0.21C13.308,0.231 13.501,0.46 13.479,0.721C13.458,0.98 13.229,1.176 12.969,1.152C11.324,1.015 9.594,0.945 7.826,0.945C-1.229,0.945 -6.79,2.675 -6.79,3.915C-6.79,4.527 -4.965,5.692 0.064,6.39C0.323,6.426 0.504,6.664 0.468,6.923C0.435,7.159 0.232,7.331 0,7.331" style="fill:rgb(35,31,32);fill-rule:nonzero;"/>
            </g>
            <g transform="matrix(4.16667,0,0,4.16667,1668.47,1606.46)">
                <path d="M0,7.197C-1.689,7.197 -3.351,7.135 -4.937,7.01C-5.196,6.99 -5.391,6.762 -5.37,6.503C-5.35,6.242 -5.126,6.052 -4.862,6.068C-3.302,6.19 -1.665,6.252 0,6.252C9.057,6.252 14.617,4.522 14.617,3.283C14.617,2.819 13.415,1.741 8.865,0.976C8.607,0.933 8.434,0.689 8.478,0.432C8.521,0.175 8.764,0 9.021,0.044C12.006,0.546 15.563,1.514 15.563,3.283C15.563,5.853 7.733,7.197 0,7.197" style="fill:rgb(35,31,32);fill-rule:nonzero;"/>
            </g>
            <g transform="matrix(0,-4.16667,-4.16667,0,1641.63,1630.15)">
                <path d="M-0.702,-0.702C-1.033,-0.702 -1.301,-0.388 -1.301,0C-1.301,0.389 -1.033,0.702 -0.702,0.702C-0.371,0.702 -0.103,0.389 -0.103,0C-0.103,-0.388 -0.371,-0.702 -0.702,-0.702" style="fill:white;fill-rule:nonzero;"/>
            </g>
            <g transform="matrix(0.39986,-4.14744,-4.14744,-0.39986,1698.59,1603.6)">
                <path d="M-0.933,-0.848C-1.264,-0.848 -1.434,-0.613 -1.435,-0.096C-1.434,0.421 -1.263,1.027 -0.933,1.027C-0.602,1.027 -0.419,0.645 -0.418,0.127C-0.417,-0.392 -0.603,-0.848 -0.933,-0.848" style="fill:white;fill-rule:nonzero;"/>
            </g>
            <g transform="matrix(4.16667,0,0,4.16667,1636.85,1697.7)">
                <path d="M0,0L10.397,0" style="fill:none;fill-rule:nonzero;stroke:rgb(35,31,32);stroke-width:0.75px;"/>
            </g>
            <g transform="matrix(4.16667,0,0,4.16667,0,0)">
                <text x="406.378px" y="411.46px" style="font-family:'ITCAvantGardeStd-Bk', 'ITC Avant Garde Gothic Std', sans-serif;font-weight:300;font-size:12px;fill:rgb(35,31,32);">L</text>
            </g>
            <g transform="matrix(4.16667,0,0,4.16667,0,0)">
                <g transform="matrix(12,0,0,12,394.45,404.812)">
                    <path d="M0.225,-0L0.414,-0L0.414,-0.74L0.104,-0.74L0.104,-0.581L0.225,-0.581L0.225,-0Z" style="fill:rgb(35,31,32);fill-rule:nonzero;"/>
                </g>
                <g transform="matrix(12,0,0,12,394.45,419.212)">
                    <path d="M0.051,-0L0.573,-0L0.573,-0.159L0.31,-0.159C0.356,-0.201 0.401,-0.242 0.446,-0.283C0.541,-0.37 0.568,-0.435 0.568,-0.525C0.568,-0.644 0.481,-0.754 0.316,-0.754C0.262,-0.754 0.151,-0.739 0.088,-0.641C0.048,-0.58 0.046,-0.519 0.044,-0.471L0.224,-0.471C0.225,-0.525 0.235,-0.588 0.3,-0.588C0.345,-0.588 0.379,-0.564 0.379,-0.505C0.379,-0.425 0.328,-0.38 0.25,-0.315C0.184,-0.259 0.118,-0.203 0.051,-0.147L0.051,-0Z" style="fill:rgb(35,31,32);fill-rule:nonzero;"/>
                </g>
            </g>
        </g>
    </g>
</svg>
