<?xml version="1.0" encoding="UTF-8" standalone="no"?>
<!DOCTYPE svg PUBLIC "-//W3C//DTD SVG 1.1//EN" "http://www.w3.org/Graphics/SVG/1.1/DTD/svg11.dtd">
<svg width="100%" height="100%" viewBox="0 0 156 208" version="1.1" xmlns="http://www.w3.org/2000/svg" xmlns:xlink="http://www.w3.org/1999/xlink" xml:space="preserve" xmlns:serif="http://www.serif.com/" style="fill-rule:evenodd;clip-rule:evenodd;stroke-linecap:round;stroke-linejoin:round;stroke-miterlimit:10;">
    <g transform="matrix(1,0,0,1,-224,-2598)">
        <g>
            <g transform="matrix(4.16667,0,0,4.16667,361.719,2726.79)">
                <path d="M0,-12.848C0.005,-13.068 -0.355,-13.127 -0.393,-12.901C-1.107,-8.69 -0.833,-4.529 -0.257,-0.312C0.367,4.253 4.201,14.285 -2.085,16.557C-2.147,16.58 -2.196,16.613 -2.239,16.65C-8.311,14.072 -4.571,4.338 -3.935,-0.312C-3.358,-4.529 -3.086,-8.69 -3.798,-12.901C-3.828,-13.076 -4.048,-13.077 -4.144,-12.966C-9.655,-15.731 -9.532,-26.12 -3.297,-28.259C0.315,-29.498 2.515,-25.069 3.11,-22.098C3.828,-18.515 2.963,-14.919 0.001,-12.686C0.002,-12.741 -0.001,-12.793 0,-12.848" style="fill:rgb(167,189,200);fill-rule:nonzero;"/>
            </g>
            <g transform="matrix(4.16667,0,0,4.16667,0,0)">
                <g opacity="0.5">
                    <g transform="matrix(1,0,0,1,79.8317,629.654)">
                        <path d="M0,6.345C-0.007,5.086 0.099,3.816 0.41,2.594C0.695,1.475 1.167,0.376 1.94,-0.495C2.745,-1.399 3.976,-2.129 5.218,-2.069C6.517,-2.007 7.488,-1.048 7.947,0.113C8.184,0.711 8.282,1.361 8.299,2.001C8.316,2.596 8.267,3.271 7.932,3.783C7.771,4.031 7.539,4.213 7.265,4.321C6.944,4.447 6.598,4.426 6.268,4.354C5.935,4.282 5.612,4.159 5.274,4.107C4.951,4.056 4.643,4.102 4.358,4.265C4.074,4.428 3.835,4.683 3.807,5.022C3.78,5.353 3.933,5.671 4.122,5.933C4.618,6.619 5.466,7.081 6.294,7.206C6.735,7.272 7.196,7.233 7.609,7.06C8.089,6.859 8.466,6.489 8.739,6.052C8.794,5.964 8.918,6.005 8.926,6.103C8.979,6.765 8.971,7.472 8.69,8.088C8.319,8.906 7.489,9.224 6.674,9.431C5.782,9.658 4.869,9.838 4.093,10.355C4.161,10.408 4.229,10.463 4.3,10.512C4.678,10.77 5.107,10.955 5.564,11.013C5.992,11.067 6.425,11.009 6.834,10.875C7.788,10.563 8.597,9.883 9.283,9.172C9.374,9.078 9.448,8.97 9.535,8.873C10.369,7.004 10.524,4.841 10.091,2.678C9.496,-0.293 7.296,-4.722 3.684,-3.483C-1.328,-1.764 -2.383,5.28 0.255,9.415C0.104,8.398 0.006,7.372 0,6.345" style="fill:white;fill-rule:nonzero;"/>
                    </g>
                </g>
            </g>
            <g transform="matrix(4.16667,0,0,4.16667,0,0)">
                <g opacity="0.5">
                    <g transform="matrix(1,0,0,1,84.1227,651.476)">
                        <path d="M0,19.228C-0.401,18.869 -0.791,18.453 -1.006,17.952C-1.09,17.756 -1.163,17.532 -1.138,17.317C-1.11,17.075 -0.997,16.856 -0.881,16.645C-0.756,16.419 -0.607,16.183 -0.589,15.919C-0.571,15.655 -0.538,15.4 -0.586,15.135C-0.625,14.916 -0.699,14.706 -0.751,14.49C-0.781,14.366 -0.806,14.244 -0.812,14.117C-0.818,14.028 -0.834,13.937 -0.875,13.857C-0.932,13.743 -1.032,13.657 -1.089,13.541C-1.175,13.369 -1.183,13.15 -1.146,12.962C-1.061,12.531 -0.616,12.216 -0.314,11.936C-0.172,11.805 -0.017,11.66 0.056,11.476C0.135,11.277 0.163,11.034 0.16,10.821C0.156,10.48 0.01,10.193 -0.296,10.032C-0.655,9.842 -1.096,9.827 -1.492,9.826C-1.55,9.826 -1.587,9.78 -1.592,9.726C-1.691,8.547 -1.542,7.367 -1.359,6.204C-1.189,5.123 -0.981,4.047 -0.876,2.957C-0.775,1.91 -0.816,0.863 -0.882,-0.185C-0.886,-0.249 -0.891,-0.312 -0.895,-0.376C-0.988,0.628 -1.107,1.633 -1.245,2.642C-1.881,7.291 -5.621,17.026 0.451,19.604C0.453,19.603 0.455,19.602 0.457,19.601C0.302,19.48 0.146,19.359 0,19.228" style="fill:white;fill-rule:nonzero;"/>
                    </g>
                </g>
            </g>
            <g transform="matrix(4.16667,0,0,4.16667,259.96,2704.12)">
                <path d="M0,22.557L-4.496,22.557C-6.085,22.557 -7.78,21.146 -7.78,18.59L-7.374,2.819C-7.374,1.262 -6.085,0 -4.496,0L0,0C1.589,0 2.878,1.262 2.878,2.819L2.878,19.739C2.878,21.295 1.589,22.557 0,22.557" style="fill:rgb(231,230,216);fill-rule:nonzero;"/>
            </g>
            <g transform="matrix(4.16667,0,0,4.16667,271.511,2725.22)">
                <path d="M0,12.286L-10.239,12.286C-10.676,12.286 -11.03,11.932 -11.03,11.496L-11.03,0.791C-11.03,0.353 -10.676,0 -10.239,0L0,0C0.437,0 0.791,0.353 0.791,0.791L0.791,11.496C0.791,11.932 0.437,12.286 0,12.286Z" style="fill:rgb(140,198,63);fill-rule:nonzero;stroke:rgb(35,31,32);stroke-width:0.57px;"/>
            </g>
            <g transform="matrix(4.16667,0,0,4.16667,231.507,2717.89)">
                <path d="M0,-1.867C0.655,-1.83 1.263,-2.229 1.9,-2.321C2.573,-2.418 3.28,-2.34 3.913,-2.096C3.959,-2.079 4.003,-2.029 3.982,-1.975C3.895,-1.75 3.822,-1.456 4.129,-1.386C4.41,-1.322 4.731,-1.401 5.005,-1.464C5.349,-1.542 5.687,-1.656 6.038,-1.701C6.508,-1.76 6.983,-1.69 7.434,-1.554C7.708,-1.471 8.014,-1.358 8.18,-1.114C8.333,-0.888 8.335,-0.588 8.337,-0.326C8.34,-0.022 8.274,0.279 8.242,0.58C8.226,0.737 8.212,0.897 8.223,1.055C8.23,1.154 8.24,1.261 8.338,1.311C8.587,1.436 8.935,1.415 9.206,1.418C9.372,1.42 9.54,1.416 9.707,1.415L9.707,-0.484C9.707,-2.041 8.418,-3.303 6.828,-3.303L2.333,-3.303C1.611,-3.303 0.96,-3.033 0.455,-2.604C0.251,-2.394 0.093,-2.142 0,-1.867" style="fill:white;fill-rule:nonzero;"/>
            </g>
            <g transform="matrix(4.16667,0,0,4.16667,240.796,2788.63)">
                <path d="M0,0.03C-0.308,-0.162 -0.578,-0.415 -0.863,-0.638C-1.147,-0.86 -1.474,-1.131 -1.838,-1.21C-1.907,-1.225 -1.956,-1.21 -2.007,-1.198C-2.073,-0.88 -2.013,-0.483 -1.754,-0.26C-1.703,-0.216 -1.719,-0.159 -1.759,-0.125C-1.645,0.115 -1.49,0.335 -1.274,0.505C-0.682,0.971 0.127,1.166 0.873,1.214C1.509,1.255 2.225,1.201 2.8,0.898C2.464,0.446 1.878,0.375 1.337,0.331C0.889,0.296 0.391,0.274 0,0.03" style="fill:white;fill-rule:nonzero;"/>
            </g>
            <g transform="matrix(4.16667,0,0,4.16667,0,0)">
                <g opacity="0.25">
                    <g transform="matrix(1,0,0,1,64.8444,661.025)">
                        <path d="M0,-4.82C-0.016,-5.157 -0.042,-5.642 -0.379,-5.832C-0.731,-6.029 -1.213,-5.924 -1.594,-5.889C-2.163,-5.838 -2.742,-5.849 -3.313,-5.845C-3.962,-5.842 -4.611,-5.848 -5.26,-5.857C-6.559,-5.877 -7.856,-5.91 -9.155,-5.91C-9.197,-5.91 -9.22,-5.933 -9.234,-5.961C-9.315,-5.96 -9.396,-5.95 -9.478,-5.95C-9.361,-5.421 -8.979,-4.968 -8.512,-4.686C-8.211,-4.506 -7.875,-4.405 -7.534,-4.327C-7.132,-4.234 -6.723,-4.186 -6.311,-4.167C-5.953,-4.15 -5.596,-4.161 -5.237,-4.17C-4.953,-4.175 -4.654,-4.211 -4.385,-4.099C-4.134,-3.995 -4,-3.803 -3.937,-3.551C-3.879,-3.325 -3.879,-3.039 -3.704,-2.862C-3.538,-2.694 -3.284,-2.631 -3.059,-2.586C-2.805,-2.535 -2.547,-2.512 -2.292,-2.471C-1.926,-2.413 -1.589,-2.298 -1.368,-1.992C-1.181,-1.733 -1.11,-1.408 -1.066,-1.1C-1.016,-0.749 -1.003,-0.394 -0.966,-0.043C-0.935,0.261 -0.894,0.59 -0.73,0.857C-0.581,1.1 -0.335,1.196 -0.061,1.209C0.217,0.076 0.007,-1.131 -0.062,-2.276C-0.112,-3.127 0.04,-3.97 0,-4.82" style="fill:white;fill-rule:nonzero;"/>
                    </g>
                </g>
            </g>
            <g transform="matrix(4.16667,0,0,4.16667,229.731,2702.3)">
                <path d="M0,5.453C0.036,4.321 -0.027,2.772 0.645,1.782C1.519,0.495 3.356,0.644 4.728,0.617C6.407,0.583 8.347,0.246 9.302,1.973C9.873,3.004 9.761,4.263 9.876,5.394C9.918,5.806 10.483,5.81 10.519,5.394C10.643,3.956 10.503,2.109 9.52,0.963C8.326,-0.431 6.365,-0.14 4.728,-0.109C3.303,-0.082 1.452,-0.173 0.369,0.956C-0.729,2.1 -0.675,3.991 -0.669,5.453C-0.667,5.884 -0.014,5.883 0,5.453" style="fill:rgb(35,31,32);fill-rule:nonzero;"/>
            </g>
            <g transform="matrix(4.16667,0,0,4.16667,226.494,2799.39)">
                <path d="M0,-5.497C-0.216,-3.998 -0.051,-2.183 1.01,-1.002C2.303,0.437 4.433,0.168 6.163,0.034C7.661,-0.081 9.511,0.227 10.535,-1.126C11.429,-2.307 11.449,-4.151 11.235,-5.544C11.175,-5.934 10.585,-5.818 10.572,-5.454C10.537,-4.5 10.673,-3.457 10.361,-2.537C9.664,-0.479 7.612,-0.828 5.805,-0.685C4.313,-0.566 2.497,-0.362 1.447,-1.656C0.584,-2.721 0.645,-4.219 0.407,-5.497C0.37,-5.694 0.029,-5.703 0,-5.497" style="fill:rgb(35,31,32);fill-rule:nonzero;"/>
            </g>
            <g transform="matrix(4.16667,0,0,4.16667,259.96,2608.69)">
                <path d="M0,22.556L-4.496,22.556C-6.085,22.556 -7.78,21.145 -7.78,18.589L-7.374,2.818C-7.374,1.262 -6.085,0 -4.496,0L0,0C1.589,0 2.878,1.262 2.878,2.818L2.878,19.738C2.878,21.294 1.589,22.556 0,22.556" style="fill:rgb(231,230,216);fill-rule:nonzero;"/>
            </g>
            <g transform="matrix(4.16667,0,0,4.16667,271.511,2629.78)">
                <path d="M0,12.287L-10.239,12.287C-10.676,12.287 -11.03,11.933 -11.03,11.496L-11.03,0.791C-11.03,0.354 -10.676,0 -10.239,0L0,0C0.437,0 0.791,0.354 0.791,0.791L0.791,11.496C0.791,11.933 0.437,12.287 0,12.287Z" style="fill:rgb(140,198,63);fill-rule:nonzero;stroke:rgb(35,31,32);stroke-width:0.57px;"/>
            </g>
            <g transform="matrix(4.16667,0,0,4.16667,231.507,2622.44)">
                <path d="M0,-1.867C0.655,-1.83 1.263,-2.229 1.9,-2.321C2.573,-2.418 3.28,-2.34 3.913,-2.096C3.959,-2.078 4.003,-2.029 3.982,-1.975C3.895,-1.75 3.822,-1.455 4.129,-1.386C4.41,-1.321 4.731,-1.401 5.005,-1.464C5.349,-1.542 5.687,-1.656 6.038,-1.7C6.508,-1.76 6.983,-1.689 7.434,-1.554C7.708,-1.471 8.014,-1.358 8.18,-1.114C8.333,-0.888 8.335,-0.588 8.337,-0.326C8.34,-0.022 8.274,0.279 8.242,0.58C8.226,0.737 8.212,0.897 8.223,1.055C8.23,1.154 8.24,1.262 8.338,1.311C8.587,1.436 8.935,1.415 9.206,1.418C9.372,1.42 9.54,1.416 9.707,1.415L9.707,-0.484C9.707,-2.04 8.418,-3.303 6.828,-3.303L2.333,-3.303C1.611,-3.303 0.96,-3.033 0.455,-2.604C0.251,-2.393 0.093,-2.142 0,-1.867" style="fill:white;fill-rule:nonzero;"/>
            </g>
            <g transform="matrix(4.16667,0,0,4.16667,240.796,2693.19)">
                <path d="M0,0.03C-0.308,-0.162 -0.578,-0.415 -0.863,-0.638C-1.147,-0.86 -1.474,-1.131 -1.838,-1.21C-1.907,-1.225 -1.956,-1.21 -2.007,-1.198C-2.073,-0.88 -2.013,-0.483 -1.754,-0.26C-1.703,-0.216 -1.719,-0.159 -1.759,-0.125C-1.645,0.115 -1.49,0.335 -1.274,0.505C-0.682,0.972 0.127,1.166 0.873,1.214C1.509,1.255 2.225,1.201 2.8,0.898C2.464,0.446 1.878,0.375 1.337,0.332C0.889,0.296 0.391,0.274 0,0.03" style="fill:white;fill-rule:nonzero;"/>
            </g>
            <g transform="matrix(4.16667,0,0,4.16667,0,0)">
                <g opacity="0.25">
                    <g transform="matrix(1,0,0,1,64.8444,638.12)">
                        <path d="M0,-4.821C-0.016,-5.158 -0.042,-5.643 -0.379,-5.832C-0.731,-6.03 -1.213,-5.925 -1.594,-5.89C-2.163,-5.839 -2.742,-5.85 -3.313,-5.846C-3.962,-5.842 -4.611,-5.848 -5.26,-5.858C-6.559,-5.878 -7.856,-5.911 -9.155,-5.911C-9.197,-5.911 -9.22,-5.933 -9.234,-5.962C-9.315,-5.961 -9.396,-5.951 -9.478,-5.951C-9.361,-5.422 -8.979,-4.968 -8.512,-4.687C-8.211,-4.507 -7.875,-4.406 -7.534,-4.328C-7.132,-4.235 -6.723,-4.187 -6.311,-4.168C-5.953,-4.151 -5.596,-4.162 -5.237,-4.17C-4.953,-4.176 -4.654,-4.212 -4.385,-4.1C-4.134,-3.996 -4,-3.804 -3.937,-3.552C-3.879,-3.326 -3.879,-3.04 -3.704,-2.863C-3.538,-2.695 -3.284,-2.631 -3.059,-2.586C-2.805,-2.536 -2.547,-2.513 -2.292,-2.472C-1.926,-2.414 -1.589,-2.299 -1.368,-1.992C-1.181,-1.734 -1.11,-1.409 -1.066,-1.101C-1.016,-0.75 -1.003,-0.395 -0.966,-0.043C-0.935,0.26 -0.894,0.59 -0.73,0.856C-0.581,1.099 -0.335,1.196 -0.061,1.209C0.217,0.075 0.007,-1.131 -0.062,-2.276C-0.112,-3.127 0.04,-3.97 0,-4.821" style="fill:white;fill-rule:nonzero;"/>
                    </g>
                </g>
            </g>
            <g transform="matrix(4.16667,0,0,4.16667,229.731,2606.86)">
                <path d="M0,5.453C0.036,4.321 -0.027,2.772 0.645,1.782C1.519,0.495 3.356,0.644 4.728,0.617C6.407,0.584 8.347,0.246 9.302,1.973C9.873,3.004 9.761,4.263 9.876,5.395C9.918,5.806 10.483,5.811 10.519,5.395C10.643,3.956 10.503,2.109 9.52,0.963C8.326,-0.431 6.365,-0.14 4.728,-0.109C3.303,-0.082 1.452,-0.173 0.369,0.957C-0.729,2.1 -0.675,3.991 -0.669,5.453C-0.667,5.884 -0.014,5.883 0,5.453" style="fill:rgb(35,31,32);fill-rule:nonzero;"/>
            </g>
            <g transform="matrix(4.16667,0,0,4.16667,226.494,2703.95)">
                <path d="M0,-5.498C-0.216,-3.999 -0.051,-2.184 1.01,-1.003C2.303,0.437 4.433,0.167 6.163,0.033C7.661,-0.082 9.511,0.226 10.535,-1.127C11.429,-2.307 11.449,-4.151 11.235,-5.545C11.175,-5.935 10.585,-5.819 10.572,-5.455C10.537,-4.5 10.673,-3.458 10.361,-2.538C9.664,-0.48 7.612,-0.829 5.805,-0.686C4.313,-0.567 2.497,-0.363 1.447,-1.657C0.584,-2.722 0.645,-4.219 0.407,-5.498C0.37,-5.695 0.029,-5.703 0,-5.498" style="fill:rgb(35,31,32);fill-rule:nonzero;"/>
            </g>
            <g transform="matrix(4.16667,0,0,4.16667,345.063,2604.59)">
                <path d="M0,16.447C-5.668,13.801 -5.593,3.226 0.7,1.068C4.313,-0.171 6.512,4.259 7.107,7.229C7.842,10.891 6.937,14.578 3.813,16.797C3.493,17.025 3.764,17.473 4.118,17.318C7.867,15.678 8.708,10.991 8.076,7.339C7.552,4.31 5.095,-1.026 1.258,-0.153C-6.138,1.531 -7.62,14.447 -0.268,17.083C0.1,17.214 0.358,16.614 0,16.447" style="fill:rgb(35,31,32);fill-rule:nonzero;"/>
            </g>
            <g transform="matrix(4.16667,0,0,4.16667,344.255,2798.9)">
                <path d="M0,-30.155C0.192,-22.282 -1.771,-14.926 -2.349,-7.161C-2.619,-3.531 -1.769,-1.205 1.775,0.074C2.34,0.277 2.586,-0.626 2.023,-0.825C-4.188,-3.028 -0.357,-13.132 0.256,-17.619C0.833,-21.836 1.108,-25.997 0.393,-30.208C0.355,-30.432 -0.006,-30.378 0,-30.155" style="fill:rgb(35,31,32);fill-rule:nonzero;"/>
            </g>
            <g transform="matrix(4.16667,0,0,4.16667,360.082,2799.44)">
                <path d="M0,-30.336C-0.714,-26.125 -0.44,-21.964 0.136,-17.747C0.76,-13.183 4.594,-3.15 -1.692,-0.878C-2.253,-0.676 -2.008,0.227 -1.445,0.02C2.104,-1.283 2.965,-3.659 2.741,-7.289C2.262,-15.059 0.199,-22.401 0.393,-30.283C0.398,-30.503 0.038,-30.563 0,-30.336" style="fill:rgb(35,31,32);fill-rule:nonzero;"/>
            </g>
            <g transform="matrix(4.16667,0,0,4.16667,335.647,2604.42)">
                <path d="M0,7.653C0.292,6.25 0.484,4.972 1.586,3.931C3.012,2.585 4.7,2.279 6.285,3.559C6.402,3.654 6.612,3.532 6.512,3.384C4.167,-0.063 -0.844,4.507 -0.127,7.653C-0.113,7.715 -0.013,7.716 0,7.653" style="fill:rgb(35,31,32);fill-rule:nonzero;"/>
            </g>
            <g transform="matrix(4.16667,0,0,4.16667,341.195,2637.95)">
                <path d="M0,5.899C1.63,7.149 4.062,7.105 5.633,5.711C7.4,4.142 7.296,0.879 6.584,-1.144C6.547,-1.25 6.384,-1.208 6.414,-1.097C6.888,0.677 6.937,3.442 5.754,4.971C4.442,6.669 1.826,6.847 0.129,5.678C-0.009,5.583 -0.127,5.801 0,5.899" style="fill:rgb(35,31,32);fill-rule:nonzero;"/>
            </g>
            <g transform="matrix(4.16667,0,0,4.16667,350.818,2758.4)">
                <path d="M0,1.9C-1.195,3.472 0.279,6.796 1.224,3.726C1.484,2.879 1.914,0.512 0.788,-0.012C-0.325,-0.53 -1.333,1.532 -1.576,2.244C-2.166,3.981 -1.487,8.764 1.335,6.838C2.672,5.926 2.901,3.948 2.943,2.489C3.035,-0.686 1.384,-3.429 0.847,-6.496C0.783,-6.864 0.233,-6.704 0.29,-6.342C0.658,-4.008 1.848,-1.919 2.282,0.395C2.551,1.827 2.708,7.349 -0.086,6.676C-1.135,6.424 -1.377,5.115 -1.392,4.197C-1.409,3.129 -0.261,-0.704 0.862,1.376C1.164,1.934 0.969,4.129 0.368,4.287C-0.224,4.443 -0.001,4.018 0.028,3.499C0.054,3.023 0.122,2.532 0.374,2.118C0.523,1.874 0.164,1.684 0,1.9" style="fill:rgb(35,31,32);fill-rule:nonzero;"/>
            </g>
            <g transform="matrix(0,4.16667,4.16667,0,394.437,2701.87)">
                <path d="M-22.486,-22.486L22.486,-22.486" style="fill:none;fill-rule:nonzero;stroke:rgb(56,198,244);stroke-width:1px;stroke-linejoin:miter;stroke-miterlimit:4;"/>
            </g>
            <g transform="matrix(4.16667,0,0,4.16667,293.11,2607.23)">
                <path d="M0,0L3.666,0" style="fill:none;fill-rule:nonzero;stroke:rgb(56,198,244);stroke-width:1px;stroke-linejoin:miter;stroke-miterlimit:4;"/>
            </g>
            <g transform="matrix(4.16667,0,0,4.16667,293.11,2797.09)">
                <path d="M0,0L3.666,0" style="fill:none;fill-rule:nonzero;stroke:rgb(56,198,244);stroke-width:1px;stroke-linejoin:miter;stroke-miterlimit:4;"/>
            </g>
        </g>
    </g>
</svg>
