<?xml version="1.0" encoding="UTF-8" standalone="no"?>
<!DOCTYPE svg PUBLIC "-//W3C//DTD SVG 1.1//EN" "http://www.w3.org/Graphics/SVG/1.1/DTD/svg11.dtd">
<svg width="100%" height="100%" viewBox="0 0 337 588" version="1.1" xmlns="http://www.w3.org/2000/svg" xmlns:xlink="http://www.w3.org/1999/xlink" xml:space="preserve" xmlns:serif="http://www.serif.com/" style="fill-rule:evenodd;clip-rule:evenodd;stroke-linecap:round;stroke-linejoin:round;stroke-miterlimit:10;">
    <g transform="matrix(1,0,0,1,-1048,-2218)">
        <g>
            <g transform="matrix(-190.198,-102.931,-102.931,190.198,1341.41,2334.58)">
                <path d="M0.938,0.022C0.964,0.048 0.952,0.075 0.952,0.075C0.952,0.075 0.847,0.248 0.828,0.29C0.809,0.332 0.772,0.322 0.772,0.322C0.772,0.322 0.712,0.286 0.683,0.266C0.654,0.246 0.667,0.221 0.667,0.221C0.667,0.221 0.667,0.18 0.609,0.147C0.55,0.113 0.489,0.184 0.452,0.208C0.415,0.232 0.378,0.204 0.378,0.204C0.378,0.204 0.266,0.14 0.232,0.121C0.199,0.103 0.206,0.075 0.206,0.075C0.215,0.036 0.225,0.01 0.235,-0.016C0.246,-0.043 0.252,-0.091 0.233,-0.137C0.214,-0.183 0.157,-0.197 0.06,-0.179C-0.038,-0.16 -0.1,-0.11 -0.1,-0.11C-0.1,-0.11 -0.146,-0.084 -0.15,-0.093C-0.174,-0.141 -0.052,-0.232 0.053,-0.282C0.146,-0.326 0.281,-0.314 0.343,-0.296C0.405,-0.279 0.612,-0.163 0.634,-0.152C0.655,-0.14 0.658,-0.065 0.665,-0.049C0.673,-0.033 0.706,-0.009 0.73,0.004C0.755,0.017 0.784,-0.01 0.794,-0.028C0.804,-0.046 0.836,-0.045 0.836,-0.045C0.836,-0.045 0.913,-0.004 0.938,0.022Z" style="fill:url(#_Linear1);fill-rule:nonzero;"/>
            </g>
            <g transform="matrix(0.0708594,4.16606,4.16606,-0.0708594,1188.6,2281.71)">
                <path d="M-8.079,-5.264L7.856,-5.264C7.856,-5.264 8.231,-7.177 6.449,-7.828C4.668,-8.477 -7.858,-8.264 -7.858,-8.264C-7.858,-8.264 -10.936,-5.079 -8.079,-5.264" style="fill:rgb(220,221,222);fill-rule:nonzero;"/>
            </g>
            <g transform="matrix(4.16667,0,0,4.16667,1242.36,2314.24)">
                <path d="M0,-15.659C0,-15.659 -4.357,-11.574 -4.357,-7.762C-4.357,-3.949 -3.268,-1.361 0.681,-0.68C4.63,0 8.987,-0.272 10.485,-0.816C11.982,-1.361 10.894,-2.86 10.894,-2.86C10.894,-2.86 8.579,-3.404 5.719,-3.949C2.859,-4.493 -0.137,-4.221 -0.817,-8.306C-1.221,-10.728 1.634,-15.523 0,-15.659" style="fill:rgb(178,180,182);fill-rule:nonzero;"/>
            </g>
            <g transform="matrix(4.16667,0,0,4.16667,1306.47,2318.2)">
                <path d="M0,-7.624C0,-7.624 1.226,-11.982 4.494,-11.165C7.762,-10.348 10.485,-7.897 12.527,-5.582C14.57,-3.267 17.838,1.907 17.838,3.133C17.838,4.358 17.127,3.7 17.127,3.7C17.127,3.7 13.754,-2.178 11.847,-3.948C9.94,-5.718 5.175,-8.578 3.949,-8.578C2.724,-8.578 0,-7.624 0,-7.624" style="fill:rgb(178,180,182);fill-rule:nonzero;"/>
            </g>
            <g transform="matrix(-60.2317,2.27292,2.27292,60.2317,1302.06,2233.73)">
                <path d="M0.924,-0.108C0.975,-0.097 0.993,0.053 0.993,0.053L0.164,0.116L0.164,0.116C0.163,0.115 0.16,-0.054 0.209,-0.081C0.23,-0.092 0.352,-0.101 0.49,-0.106C0.678,-0.113 0.895,-0.114 0.924,-0.108Z" style="fill:url(#_Linear2);fill-rule:nonzero;"/>
            </g>
            <g transform="matrix(4.16667,0,0,4.16667,1238.57,2803.11)">
                <path d="M0,-113.198C0,-113.198 5.447,-112.654 7.444,-112.654C9.441,-112.654 13.072,-113.198 13.072,-113.198L14.853,-56.795C14.853,-56.795 18.833,-5.607 16.291,-3.428C13.192,-0.773 -2.622,0 -1.996,-7.963C-1.497,-14.322 -0.907,-60.646 -0.726,-65.729C-0.544,-70.813 0,-113.198 0,-113.198" style="fill:rgb(195,154,107);fill-rule:nonzero;"/>
            </g>
            <g transform="matrix(4.16667,0,0,4.16667,1238.87,2798.45)">
                <path d="M0,-111.941C0,-111.941 0.711,-80.064 0.293,-71.51C-0.127,-62.958 -1.311,-11.034 -1.407,-8.669C-1.504,-6.303 -1.122,-2.1 2.352,-1.499C5.825,-0.896 14.521,-1.221 15.927,-2.543C17.332,-3.865 16.714,-10.514 16.622,-13.054C16.531,-15.594 13.275,-69.884 13.047,-76.235C12.818,-82.586 12.174,-111.887 12.174,-111.887L13.263,-113.499C13.263,-113.499 14.254,-77.03 14.429,-71.755C14.967,-55.525 17.463,-19.011 17.878,-12.485C18.294,-5.96 18.174,-2.203 15.666,-1.205C13.158,-0.205 2.079,1.558 -0.592,-1.978C-3.262,-5.516 -2.521,-6.232 -2.496,-9.913C-2.46,-15.362 -0.89,-65.253 -0.702,-70.165C-0.516,-75.077 -1.16,-112.988 -1.16,-112.988L0,-111.941Z" style="fill:rgb(35,31,32);fill-rule:nonzero;"/>
            </g>
            <g transform="matrix(4.16667,0,0,4.16667,1190.29,2299.03)">
                <path d="M0,3.242C0,3.242 1.513,0.707 3.009,0.654C4.506,0.599 6.687,0.512 8.257,2.499C8.978,3.412 10.183,7.933 11.14,8.035C12.097,8.138 23.59,8.461 24.519,7.747C25.446,7.032 25.841,3.109 26.19,1.461C26.54,-0.187 28.976,-3.785 31.692,-4.019C34.409,-4.252 39.227,0.261 41.01,2.268C43.708,5.305 44.34,8.599 45.01,8.303C45.681,8.006 43.518,4.678 41.516,2.024C39.512,-0.629 34.573,-5.357 30.51,-4.666C26.447,-3.975 25.267,1.109 25.185,2.611C25.103,4.112 24.782,6.577 23.577,7.165C22.372,7.753 12.822,7.415 12.001,7.308C11.18,7.201 9.662,2.895 8.66,1.569C7.659,0.243 3.951,-0.578 2.469,-0.116C0.986,0.346 -0.22,1.75 -0.22,1.75L0,3.242Z" style="fill:rgb(35,31,32);fill-rule:nonzero;"/>
            </g>
            <g transform="matrix(4.16667,0,0,4.16667,1190.2,2324.98)">
                <path d="M0,-18.789C0,-18.789 1.409,-16.315 2.743,-16.011C4.762,-15.55 7.068,-16.818 7.068,-16.818C7.068,-16.818 8.283,-20.082 11.393,-20.739C14.503,-21.395 23.455,-20.792 25.925,-20.336C28.394,-19.88 36.35,-19.14 41.552,-10.879C46.754,-2.617 47.044,1.186 46.253,1.896C45.461,2.606 45.432,1.789 45.432,1.789C45.432,1.789 46.063,0.404 45.313,-1.477C44.564,-3.358 42.475,-8.461 39.057,-12.561C35.64,-16.663 29.535,-19.388 25.725,-19.577C20.946,-19.814 12.471,-20.6 10.469,-19.438C8.467,-18.276 8.394,-16.502 6.649,-15.759C4.904,-15.015 3.689,-14.698 1.896,-15.315C0.891,-15.661 -0.072,-17.016 -0.072,-17.016L0,-18.789Z" style="fill:rgb(35,31,32);fill-rule:nonzero;"/>
            </g>
            <g transform="matrix(4.16667,0,0,4.16667,1195.27,2254.02)">
                <path d="M0,11.592C0,11.592 -1.216,14.154 -1.872,14.859C-2.528,15.564 -7.12,15.633 -8.622,15.55C-10.124,15.469 -10.196,14.316 -10.231,13.363C-10.266,12.41 -10.741,-0.381 -10.504,-1.344C-10.266,-2.305 -10.304,-3.379 -8.68,-3.71C-7.058,-4.041 -2.414,-3.682 -1.314,-3.449C-0.217,-3.217 0.047,-0.381 -0.201,0.31C-0.449,1 -1.289,0.014 -1.289,0.014C-1.289,0.014 -0.907,-2.482 -1.457,-2.599C-2.006,-2.716 -7.354,-2.816 -8.172,-2.787C-8.988,-2.758 -10.188,-1.166 -10.14,0.196C-10.091,1.556 -9.738,11.354 -9.709,12.17C-9.68,12.988 -9.51,14.679 -8.149,14.63C-6.788,14.581 -3.381,14.594 -2.701,14.57C-2.021,14.545 -1.647,11.243 0,11.592" style="fill:rgb(35,31,32);fill-rule:nonzero;"/>
            </g>
            <g transform="matrix(4.16667,0,0,4.16667,1239.35,2225.79)">
                <path d="M0,3.353C0,3.353 0.178,0.53 0.994,0.121C1.812,-0.288 11.888,-0.288 12.296,0.257C12.704,0.801 13.32,3.641 13.32,3.641L12.109,3.468C12.109,3.468 12.109,1.219 11.302,0.874C10.025,0.327 2.469,0.853 1.787,0.989C1.107,1.124 1.038,2.892 1.038,2.892L0,3.353Z" style="fill:rgb(35,31,32);fill-rule:nonzero;"/>
            </g>
            <g transform="matrix(-3.79167,1.72752,1.72752,3.79167,1174.94,2263.35)">
                <path d="M1.542,12.27L2.669,12.27L-2.857,-0.09L-2.092,3.5L1.542,12.27Z" style="fill:rgb(35,31,32);fill-rule:nonzero;"/>
            </g>
            <g transform="matrix(4.16667,0,0,4.16667,1234.98,2310.83)">
                <path d="M0,-13.345C0,-13.345 -2.859,-10.757 -2.995,-7.08C-3.132,-3.405 -0.544,-1.09 0.953,-0.681C2.451,-0.273 8.579,0.272 9.532,-0.273C10.485,-0.817 1.993,-0.681 0.223,-1.77C-1.548,-2.86 -2.158,-6.324 -2.005,-7.548C-1.597,-10.816 1.227,-13.617 0,-13.345" style="fill:rgb(35,31,32);fill-rule:nonzero;"/>
            </g>
            <g transform="matrix(4.16667,0,0,4.16667,1297.68,2566.46)">
                <path d="M0,0.653L-1.936,-55.296C-1.936,-55.296 -5.2,-54.954 -6.891,-54.954C-8.581,-54.954 -13.141,-54.969 -13.141,-54.969C-13.141,-54.969 -13.145,-54.743 -13.15,-54.355C-12.877,-54.206 -12.742,-53.9 -12.444,-53.825C-11.144,-53.493 -9.775,-53.606 -8.453,-53.588C-7.378,-53.574 -6.077,-53.586 -5.149,-52.862C-4.14,-52.073 -4.197,-50.478 -4.215,-49.228C-4.227,-48.436 -4.277,-47.646 -4.304,-46.855C-4.34,-45.753 -4.279,-44.642 -4.27,-43.538C-4.227,-38.458 -4.273,-22.044 -4.106,-16.965C-3.937,-11.822 -3.717,-6.681 -3.503,-1.539C-3.287,3.643 -3.079,8.827 -2.938,14.013C-2.808,18.762 -2.648,34.881 -2.773,39.632C-2.858,42.866 -3.269,46.603 -5.509,48.879C-5.934,49.309 -6.378,49.671 -6.924,49.858C-7.479,50.048 -8.063,50.137 -8.639,50.196C-9.862,50.322 -11.248,50.351 -12.419,49.861C-13.676,49.335 -14.009,47.888 -14.233,46.512C-14.39,45.56 -14.733,44.017 -14.903,43.07C-14.987,45.873 -14.902,48.64 -14.988,49.787C-15.449,55.949 -1.115,55.005 1.507,52.429C3.658,50.316 0,0.653 0,0.653" style="fill:rgb(168,123,80);fill-rule:nonzero;"/>
            </g>
            <g transform="matrix(4.16667,0,0,4.16667,1084.36,2704.12)">
                <path d="M0,22.557L-4.496,22.557C-6.085,22.557 -7.78,21.146 -7.78,18.59L-7.374,2.819C-7.374,1.262 -6.085,0 -4.496,0L0,0C1.59,0 2.878,1.262 2.878,2.819L2.878,19.739C2.878,21.295 1.59,22.557 0,22.557" style="fill:rgb(231,230,216);fill-rule:nonzero;"/>
            </g>
            <g transform="matrix(4.16667,0,0,4.16667,1095.91,2725.22)">
                <path d="M0,12.286L-10.239,12.286C-10.676,12.286 -11.029,11.932 -11.029,11.496L-11.029,0.791C-11.029,0.353 -10.676,0 -10.239,0L0,0C0.437,0 0.791,0.353 0.791,0.791L0.791,11.496C0.791,11.932 0.437,12.286 0,12.286Z" style="fill:rgb(140,198,63);fill-rule:nonzero;stroke:rgb(35,31,32);stroke-width:0.57px;"/>
            </g>
            <g transform="matrix(4.16667,0,0,4.16667,1055.91,2717.89)">
                <path d="M0,-1.867C0.655,-1.83 1.263,-2.229 1.9,-2.321C2.572,-2.418 3.28,-2.34 3.912,-2.096C3.959,-2.079 4.003,-2.029 3.982,-1.975C3.895,-1.75 3.821,-1.456 4.129,-1.386C4.409,-1.322 4.73,-1.401 5.005,-1.464C5.349,-1.542 5.687,-1.656 6.038,-1.701C6.508,-1.76 6.983,-1.69 7.434,-1.554C7.708,-1.471 8.014,-1.358 8.18,-1.114C8.333,-0.888 8.335,-0.588 8.337,-0.326C8.34,-0.022 8.273,0.279 8.242,0.58C8.226,0.737 8.212,0.897 8.223,1.055C8.229,1.154 8.24,1.261 8.338,1.311C8.587,1.436 8.935,1.415 9.206,1.418C9.372,1.42 9.539,1.416 9.706,1.415L9.706,-0.484C9.706,-2.041 8.418,-3.303 6.828,-3.303L2.332,-3.303C1.611,-3.303 0.96,-3.033 0.455,-2.604C0.251,-2.394 0.093,-2.142 0,-1.867" style="fill:white;fill-rule:nonzero;"/>
            </g>
            <g transform="matrix(4.16667,0,0,4.16667,1065.2,2788.63)">
                <path d="M0,0.03C-0.309,-0.162 -0.578,-0.415 -0.863,-0.638C-1.147,-0.86 -1.475,-1.131 -1.838,-1.21C-1.907,-1.225 -1.956,-1.21 -2.007,-1.198C-2.073,-0.88 -2.013,-0.483 -1.754,-0.26C-1.703,-0.216 -1.72,-0.159 -1.76,-0.125C-1.645,0.115 -1.49,0.335 -1.274,0.505C-0.682,0.971 0.127,1.166 0.872,1.214C1.509,1.255 2.225,1.201 2.8,0.898C2.464,0.446 1.878,0.375 1.337,0.331C0.889,0.296 0.391,0.274 0,0.03" style="fill:white;fill-rule:nonzero;"/>
            </g>
            <g transform="matrix(4.16667,0,0,4.16667,0,0)">
                <g opacity="0.25">
                    <g transform="matrix(1,0,0,1,262.7,661.025)">
                        <path d="M0,-4.82C-0.016,-5.157 -0.042,-5.642 -0.379,-5.832C-0.731,-6.029 -1.213,-5.924 -1.594,-5.889C-2.162,-5.838 -2.742,-5.849 -3.313,-5.845C-3.962,-5.842 -4.611,-5.848 -5.26,-5.857C-6.559,-5.877 -7.856,-5.91 -9.154,-5.91C-9.196,-5.91 -9.22,-5.933 -9.234,-5.961C-9.315,-5.96 -9.396,-5.95 -9.478,-5.95C-9.36,-5.421 -8.979,-4.968 -8.512,-4.686C-8.211,-4.506 -7.875,-4.405 -7.533,-4.327C-7.132,-4.234 -6.723,-4.186 -6.311,-4.167C-5.952,-4.15 -5.596,-4.161 -5.237,-4.17C-4.952,-4.175 -4.653,-4.211 -4.385,-4.099C-4.134,-3.995 -4,-3.803 -3.937,-3.551C-3.879,-3.325 -3.879,-3.039 -3.703,-2.862C-3.538,-2.694 -3.284,-2.631 -3.059,-2.586C-2.805,-2.535 -2.547,-2.512 -2.292,-2.471C-1.926,-2.413 -1.589,-2.298 -1.367,-1.992C-1.181,-1.733 -1.109,-1.408 -1.066,-1.1C-1.016,-0.749 -1.003,-0.394 -0.966,-0.043C-0.935,0.261 -0.894,0.59 -0.729,0.857C-0.581,1.1 -0.335,1.196 -0.061,1.209C0.218,0.076 0.007,-1.131 -0.062,-2.276C-0.111,-3.127 0.04,-3.97 0,-4.82" style="fill:white;fill-rule:nonzero;"/>
                    </g>
                </g>
            </g>
            <g transform="matrix(4.16667,0,0,4.16667,1054.13,2702.3)">
                <path d="M0,5.453C0.036,4.321 -0.027,2.772 0.646,1.782C1.52,0.495 3.356,0.644 4.729,0.617C6.407,0.583 8.347,0.246 9.303,1.973C9.873,3.004 9.761,4.263 9.876,5.394C9.918,5.806 10.483,5.81 10.52,5.394C10.644,3.956 10.503,2.109 9.521,0.963C8.326,-0.431 6.365,-0.14 4.729,-0.109C3.303,-0.082 1.452,-0.173 0.369,0.956C-0.729,2.1 -0.675,3.991 -0.669,5.453C-0.667,5.884 -0.014,5.883 0,5.453" style="fill:rgb(35,31,32);fill-rule:nonzero;"/>
            </g>
            <g transform="matrix(4.16667,0,0,4.16667,1050.9,2799.39)">
                <path d="M0,-5.497C-0.216,-3.998 -0.052,-2.183 1.01,-1.002C2.303,0.437 4.433,0.168 6.163,0.034C7.66,-0.081 9.511,0.227 10.535,-1.126C11.429,-2.307 11.448,-4.151 11.235,-5.544C11.175,-5.934 10.585,-5.818 10.571,-5.454C10.536,-4.5 10.673,-3.457 10.361,-2.537C9.664,-0.479 7.611,-0.828 5.805,-0.685C4.312,-0.566 2.496,-0.362 1.447,-1.656C0.584,-2.721 0.645,-4.219 0.406,-5.497C0.37,-5.694 0.029,-5.703 0,-5.497" style="fill:rgb(35,31,32);fill-rule:nonzero;"/>
            </g>
            <g transform="matrix(4.16667,0,0,4.16667,1084.36,2608.69)">
                <path d="M0,22.556L-4.496,22.556C-6.085,22.556 -7.78,21.145 -7.78,18.589L-7.374,2.818C-7.374,1.262 -6.085,0 -4.496,0L0,0C1.59,0 2.878,1.262 2.878,2.818L2.878,19.738C2.878,21.294 1.59,22.556 0,22.556" style="fill:rgb(231,230,216);fill-rule:nonzero;"/>
            </g>
            <g transform="matrix(4.16667,0,0,4.16667,1095.91,2629.78)">
                <path d="M0,12.287L-10.239,12.287C-10.676,12.287 -11.029,11.933 -11.029,11.496L-11.029,0.791C-11.029,0.354 -10.676,0 -10.239,0L0,0C0.437,0 0.791,0.354 0.791,0.791L0.791,11.496C0.791,11.933 0.437,12.287 0,12.287Z" style="fill:rgb(140,198,63);fill-rule:nonzero;stroke:rgb(35,31,32);stroke-width:0.57px;"/>
            </g>
            <g transform="matrix(4.16667,0,0,4.16667,1055.91,2622.44)">
                <path d="M0,-1.867C0.655,-1.83 1.263,-2.229 1.9,-2.321C2.572,-2.418 3.28,-2.34 3.912,-2.096C3.959,-2.078 4.003,-2.029 3.982,-1.975C3.895,-1.75 3.821,-1.455 4.129,-1.386C4.409,-1.321 4.73,-1.401 5.005,-1.464C5.349,-1.542 5.687,-1.656 6.038,-1.7C6.508,-1.76 6.983,-1.689 7.434,-1.554C7.708,-1.471 8.014,-1.358 8.18,-1.114C8.333,-0.888 8.335,-0.588 8.337,-0.326C8.34,-0.022 8.273,0.279 8.242,0.58C8.226,0.737 8.212,0.897 8.223,1.055C8.229,1.154 8.24,1.262 8.338,1.311C8.587,1.436 8.935,1.415 9.206,1.418C9.372,1.42 9.539,1.416 9.706,1.415L9.706,-0.484C9.706,-2.04 8.418,-3.303 6.828,-3.303L2.332,-3.303C1.611,-3.303 0.96,-3.033 0.455,-2.604C0.251,-2.393 0.093,-2.142 0,-1.867" style="fill:white;fill-rule:nonzero;"/>
            </g>
            <g transform="matrix(4.16667,0,0,4.16667,1065.2,2693.19)">
                <path d="M0,0.03C-0.309,-0.162 -0.578,-0.415 -0.863,-0.638C-1.147,-0.86 -1.475,-1.131 -1.838,-1.21C-1.907,-1.225 -1.956,-1.21 -2.007,-1.198C-2.073,-0.88 -2.013,-0.483 -1.754,-0.26C-1.703,-0.216 -1.72,-0.159 -1.76,-0.125C-1.645,0.115 -1.49,0.335 -1.274,0.505C-0.682,0.972 0.127,1.166 0.872,1.214C1.509,1.255 2.225,1.201 2.8,0.898C2.464,0.446 1.878,0.375 1.337,0.332C0.889,0.296 0.391,0.274 0,0.03" style="fill:white;fill-rule:nonzero;"/>
            </g>
            <g transform="matrix(4.16667,0,0,4.16667,0,0)">
                <g opacity="0.25">
                    <g transform="matrix(1,0,0,1,262.7,638.12)">
                        <path d="M0,-4.821C-0.016,-5.158 -0.042,-5.643 -0.379,-5.832C-0.731,-6.03 -1.213,-5.925 -1.594,-5.89C-2.162,-5.839 -2.742,-5.85 -3.313,-5.846C-3.962,-5.842 -4.611,-5.848 -5.26,-5.858C-6.559,-5.878 -7.856,-5.911 -9.154,-5.911C-9.196,-5.911 -9.22,-5.933 -9.234,-5.962C-9.315,-5.961 -9.396,-5.951 -9.478,-5.951C-9.36,-5.422 -8.979,-4.968 -8.512,-4.687C-8.211,-4.507 -7.875,-4.406 -7.533,-4.328C-7.132,-4.235 -6.723,-4.187 -6.311,-4.168C-5.952,-4.151 -5.596,-4.162 -5.237,-4.17C-4.952,-4.176 -4.653,-4.212 -4.385,-4.1C-4.134,-3.996 -4,-3.804 -3.937,-3.552C-3.879,-3.326 -3.879,-3.04 -3.703,-2.863C-3.538,-2.695 -3.284,-2.631 -3.059,-2.586C-2.805,-2.536 -2.547,-2.513 -2.292,-2.472C-1.926,-2.414 -1.589,-2.299 -1.367,-1.992C-1.181,-1.734 -1.109,-1.409 -1.066,-1.101C-1.016,-0.75 -1.003,-0.395 -0.966,-0.043C-0.935,0.26 -0.894,0.59 -0.729,0.856C-0.581,1.099 -0.335,1.196 -0.061,1.209C0.218,0.075 0.007,-1.131 -0.062,-2.276C-0.111,-3.127 0.04,-3.97 0,-4.821" style="fill:white;fill-rule:nonzero;"/>
                    </g>
                </g>
            </g>
            <g transform="matrix(4.16667,0,0,4.16667,1054.13,2606.86)">
                <path d="M0,5.453C0.036,4.321 -0.027,2.772 0.646,1.782C1.52,0.495 3.356,0.644 4.729,0.617C6.407,0.584 8.347,0.246 9.303,1.973C9.873,3.004 9.761,4.263 9.876,5.395C9.918,5.806 10.483,5.811 10.52,5.395C10.644,3.956 10.503,2.109 9.521,0.963C8.326,-0.431 6.365,-0.14 4.729,-0.109C3.303,-0.082 1.452,-0.173 0.369,0.957C-0.729,2.1 -0.675,3.991 -0.669,5.453C-0.667,5.884 -0.014,5.883 0,5.453" style="fill:rgb(35,31,32);fill-rule:nonzero;"/>
            </g>
            <g transform="matrix(4.16667,0,0,4.16667,1050.9,2703.96)">
                <path d="M0,-5.498C-0.216,-3.999 -0.052,-2.184 1.01,-1.003C2.303,0.437 4.433,0.167 6.163,0.033C7.66,-0.082 9.511,0.226 10.535,-1.127C11.429,-2.307 11.448,-4.151 11.235,-5.545C11.175,-5.935 10.585,-5.819 10.571,-5.455C10.536,-4.5 10.673,-3.458 10.361,-2.538C9.664,-0.48 7.611,-0.829 5.805,-0.686C4.312,-0.567 2.496,-0.363 1.447,-1.657C0.584,-2.722 0.645,-4.219 0.406,-5.498C0.37,-5.695 0.029,-5.703 0,-5.498" style="fill:rgb(35,31,32);fill-rule:nonzero;"/>
            </g>
            <g transform="matrix(4.16667,0,0,4.16667,1084.36,2512.87)">
                <path d="M0,22.556L-4.496,22.556C-6.085,22.556 -7.78,21.145 -7.78,18.589L-7.374,2.819C-7.374,1.262 -6.085,0 -4.496,0L0,0C1.59,0 2.878,1.262 2.878,2.819L2.878,19.738C2.878,21.294 1.59,22.556 0,22.556" style="fill:rgb(231,230,216);fill-rule:nonzero;"/>
            </g>
            <g transform="matrix(4.16667,0,0,4.16667,1095.91,2533.96)">
                <path d="M0,12.287L-10.239,12.287C-10.676,12.287 -11.029,11.933 -11.029,11.496L-11.029,0.791C-11.029,0.354 -10.676,0 -10.239,0L0,0C0.437,0 0.791,0.354 0.791,0.791L0.791,11.496C0.791,11.933 0.437,12.287 0,12.287Z" style="fill:rgb(140,198,63);fill-rule:nonzero;stroke:rgb(35,31,32);stroke-width:0.57px;"/>
            </g>
            <g transform="matrix(4.16667,0,0,4.16667,1055.91,2526.63)">
                <path d="M0,-1.868C0.655,-1.831 1.263,-2.23 1.9,-2.322C2.572,-2.419 3.28,-2.341 3.912,-2.097C3.959,-2.079 4.003,-2.03 3.982,-1.976C3.895,-1.751 3.821,-1.456 4.129,-1.387C4.409,-1.322 4.73,-1.402 5.005,-1.465C5.349,-1.543 5.687,-1.657 6.038,-1.701C6.508,-1.761 6.983,-1.69 7.434,-1.555C7.708,-1.472 8.014,-1.359 8.18,-1.115C8.333,-0.889 8.335,-0.589 8.337,-0.327C8.34,-0.023 8.273,0.278 8.242,0.579C8.226,0.736 8.212,0.896 8.223,1.054C8.229,1.153 8.24,1.261 8.338,1.31C8.587,1.435 8.935,1.414 9.206,1.417C9.372,1.419 9.539,1.415 9.706,1.414L9.706,-0.485C9.706,-2.041 8.418,-3.303 6.828,-3.303L2.332,-3.303C1.611,-3.303 0.96,-3.034 0.455,-2.605C0.251,-2.394 0.093,-2.143 0,-1.868" style="fill:white;fill-rule:nonzero;"/>
            </g>
            <g transform="matrix(4.16667,0,0,4.16667,1065.2,2597.37)">
                <path d="M0,0.03C-0.309,-0.162 -0.578,-0.415 -0.863,-0.638C-1.147,-0.86 -1.475,-1.131 -1.838,-1.21C-1.907,-1.225 -1.956,-1.21 -2.007,-1.198C-2.073,-0.879 -2.013,-0.483 -1.754,-0.26C-1.703,-0.216 -1.72,-0.159 -1.76,-0.125C-1.645,0.115 -1.49,0.335 -1.274,0.505C-0.682,0.972 0.127,1.166 0.872,1.214C1.509,1.255 2.225,1.201 2.8,0.898C2.464,0.446 1.878,0.375 1.337,0.332C0.889,0.296 0.391,0.274 0,0.03" style="fill:white;fill-rule:nonzero;"/>
            </g>
            <g transform="matrix(4.16667,0,0,4.16667,0,0)">
                <g opacity="0.25">
                    <g transform="matrix(1,0,0,1,262.7,615.125)">
                        <path d="M0,-4.821C-0.016,-5.158 -0.042,-5.643 -0.379,-5.832C-0.731,-6.03 -1.213,-5.925 -1.594,-5.89C-2.162,-5.839 -2.742,-5.85 -3.313,-5.846C-3.962,-5.842 -4.611,-5.848 -5.26,-5.858C-6.559,-5.878 -7.856,-5.911 -9.154,-5.911C-9.196,-5.911 -9.22,-5.933 -9.234,-5.962C-9.315,-5.961 -9.396,-5.951 -9.478,-5.951C-9.36,-5.422 -8.979,-4.968 -8.512,-4.687C-8.211,-4.506 -7.875,-4.406 -7.533,-4.327C-7.132,-4.235 -6.723,-4.187 -6.311,-4.168C-5.952,-4.151 -5.596,-4.162 -5.237,-4.17C-4.952,-4.176 -4.653,-4.212 -4.385,-4.099C-4.134,-3.996 -4,-3.804 -3.937,-3.552C-3.879,-3.326 -3.879,-3.04 -3.703,-2.863C-3.538,-2.695 -3.284,-2.631 -3.059,-2.586C-2.805,-2.536 -2.547,-2.513 -2.292,-2.472C-1.926,-2.414 -1.589,-2.299 -1.367,-1.992C-1.181,-1.734 -1.109,-1.409 -1.066,-1.101C-1.016,-0.75 -1.003,-0.395 -0.966,-0.043C-0.935,0.26 -0.894,0.59 -0.729,0.856C-0.581,1.099 -0.335,1.196 -0.061,1.209C0.218,0.075 0.007,-1.131 -0.062,-2.276C-0.111,-3.127 0.04,-3.97 0,-4.821" style="fill:white;fill-rule:nonzero;"/>
                    </g>
                </g>
            </g>
            <g transform="matrix(4.16667,0,0,4.16667,1054.13,2511.04)">
                <path d="M0,5.453C0.036,4.321 -0.027,2.772 0.646,1.782C1.52,0.495 3.356,0.644 4.729,0.617C6.407,0.584 8.347,0.246 9.303,1.973C9.873,3.004 9.761,4.263 9.876,5.395C9.918,5.806 10.483,5.811 10.52,5.395C10.644,3.956 10.503,2.109 9.521,0.963C8.326,-0.431 6.365,-0.14 4.729,-0.109C3.303,-0.082 1.452,-0.173 0.369,0.957C-0.729,2.1 -0.675,3.991 -0.669,5.453C-0.667,5.884 -0.014,5.883 0,5.453" style="fill:rgb(35,31,32);fill-rule:nonzero;"/>
            </g>
            <g transform="matrix(4.16667,0,0,4.16667,1050.9,2608.14)">
                <path d="M0,-5.498C-0.216,-3.999 -0.052,-2.184 1.01,-1.003C2.303,0.437 4.433,0.167 6.163,0.033C7.66,-0.082 9.511,0.226 10.535,-1.127C11.429,-2.307 11.448,-4.151 11.235,-5.545C11.175,-5.935 10.585,-5.819 10.571,-5.455C10.536,-4.5 10.673,-3.458 10.361,-2.538C9.664,-0.48 7.611,-0.829 5.805,-0.686C4.312,-0.567 2.496,-0.363 1.447,-1.657C0.584,-2.722 0.645,-4.219 0.406,-5.498C0.37,-5.695 0.029,-5.703 0,-5.498" style="fill:rgb(35,31,32);fill-rule:nonzero;"/>
            </g>
            <g transform="matrix(4.16667,0,0,4.16667,1084.36,2417.43)">
                <path d="M0,22.556L-4.496,22.556C-6.085,22.556 -7.78,21.145 -7.78,18.589L-7.374,2.819C-7.374,1.262 -6.085,0 -4.496,0L0,0C1.59,0 2.878,1.262 2.878,2.819L2.878,19.738C2.878,21.294 1.59,22.556 0,22.556" style="fill:rgb(231,230,216);fill-rule:nonzero;"/>
            </g>
            <g transform="matrix(4.16667,0,0,4.16667,1095.91,2438.52)">
                <path d="M0,12.287L-10.239,12.287C-10.676,12.287 -11.029,11.933 -11.029,11.496L-11.029,0.791C-11.029,0.354 -10.676,0 -10.239,0L0,0C0.437,0 0.791,0.354 0.791,0.791L0.791,11.496C0.791,11.933 0.437,12.287 0,12.287Z" style="fill:rgb(140,198,63);fill-rule:nonzero;stroke:rgb(35,31,32);stroke-width:0.57px;"/>
            </g>
            <g transform="matrix(4.16667,0,0,4.16667,1055.91,2431.19)">
                <path d="M0,-1.868C0.655,-1.831 1.263,-2.229 1.9,-2.322C2.572,-2.419 3.28,-2.341 3.912,-2.097C3.959,-2.079 4.003,-2.029 3.982,-1.976C3.895,-1.751 3.821,-1.456 4.129,-1.387C4.409,-1.322 4.73,-1.402 5.005,-1.465C5.349,-1.543 5.687,-1.657 6.038,-1.701C6.508,-1.761 6.983,-1.69 7.434,-1.555C7.708,-1.472 8.014,-1.359 8.18,-1.115C8.333,-0.888 8.335,-0.589 8.337,-0.327C8.34,-0.023 8.273,0.278 8.242,0.579C8.226,0.736 8.212,0.896 8.223,1.054C8.229,1.153 8.24,1.261 8.338,1.31C8.587,1.435 8.935,1.415 9.206,1.417C9.372,1.419 9.539,1.415 9.706,1.415L9.706,-0.484C9.706,-2.041 8.418,-3.303 6.828,-3.303L2.332,-3.303C1.611,-3.303 0.96,-3.034 0.455,-2.604C0.251,-2.394 0.093,-2.143 0,-1.868" style="fill:white;fill-rule:nonzero;"/>
            </g>
            <g transform="matrix(4.16667,0,0,4.16667,1065.2,2501.93)">
                <path d="M0,0.03C-0.309,-0.161 -0.578,-0.415 -0.863,-0.638C-1.147,-0.86 -1.475,-1.131 -1.838,-1.21C-1.907,-1.225 -1.956,-1.21 -2.007,-1.197C-2.073,-0.879 -2.013,-0.482 -1.754,-0.26C-1.703,-0.216 -1.72,-0.159 -1.76,-0.125C-1.645,0.116 -1.49,0.335 -1.274,0.505C-0.682,0.972 0.127,1.166 0.872,1.214C1.509,1.255 2.225,1.201 2.8,0.898C2.464,0.446 1.878,0.375 1.337,0.332C0.889,0.296 0.391,0.274 0,0.03" style="fill:white;fill-rule:nonzero;"/>
            </g>
            <g transform="matrix(4.16667,0,0,4.16667,0,0)">
                <g opacity="0.25">
                    <g transform="matrix(1,0,0,1,262.7,592.219)">
                        <path d="M0,-4.822C-0.016,-5.159 -0.042,-5.644 -0.379,-5.833C-0.731,-6.03 -1.213,-5.926 -1.594,-5.891C-2.162,-5.84 -2.742,-5.851 -3.313,-5.847C-3.962,-5.843 -4.611,-5.849 -5.26,-5.859C-6.559,-5.878 -7.856,-5.911 -9.154,-5.912C-9.196,-5.912 -9.22,-5.934 -9.234,-5.963C-9.315,-5.961 -9.396,-5.952 -9.478,-5.952C-9.36,-5.423 -8.979,-4.969 -8.512,-4.688C-8.211,-4.507 -7.875,-4.407 -7.533,-4.328C-7.132,-4.236 -6.723,-4.187 -6.311,-4.169C-5.952,-4.151 -5.596,-4.163 -5.237,-4.171C-4.952,-4.177 -4.653,-4.213 -4.385,-4.1C-4.134,-3.997 -4,-3.805 -3.937,-3.553C-3.879,-3.327 -3.879,-3.041 -3.703,-2.863C-3.538,-2.696 -3.284,-2.632 -3.059,-2.587C-2.805,-2.537 -2.547,-2.514 -2.292,-2.473C-1.926,-2.414 -1.589,-2.3 -1.367,-1.993C-1.181,-1.735 -1.109,-1.41 -1.066,-1.102C-1.016,-0.751 -1.003,-0.396 -0.966,-0.044C-0.935,0.259 -0.894,0.589 -0.729,0.855C-0.581,1.098 -0.335,1.195 -0.061,1.208C0.218,0.074 0.007,-1.132 -0.062,-2.277C-0.111,-3.128 0.04,-3.971 0,-4.822" style="fill:white;fill-rule:nonzero;"/>
                    </g>
                </g>
            </g>
            <g transform="matrix(4.16667,0,0,4.16667,1054.13,2415.61)">
                <path d="M0,5.451C0.036,4.319 -0.027,2.77 0.646,1.78C1.52,0.493 3.356,0.642 4.729,0.615C6.407,0.582 8.347,0.245 9.303,1.971C9.873,3.002 9.761,4.262 9.876,5.393C9.918,5.804 10.483,5.809 10.52,5.393C10.644,3.954 10.503,2.107 9.521,0.961C8.326,-0.432 6.365,-0.142 4.729,-0.111C3.303,-0.084 1.452,-0.175 0.369,0.955C-0.729,2.098 -0.675,3.989 -0.669,5.451C-0.667,5.883 -0.014,5.881 0,5.451" style="fill:rgb(35,31,32);fill-rule:nonzero;"/>
            </g>
            <g transform="matrix(4.16667,0,0,4.16667,1050.9,2512.7)">
                <path d="M0,-5.498C-0.216,-3.999 -0.052,-2.184 1.01,-1.003C2.303,0.437 4.433,0.167 6.163,0.034C7.66,-0.081 9.511,0.227 10.535,-1.127C11.429,-2.307 11.448,-4.151 11.235,-5.545C11.175,-5.935 10.585,-5.819 10.571,-5.455C10.536,-4.5 10.673,-3.458 10.361,-2.538C9.664,-0.479 7.611,-0.829 5.805,-0.686C4.312,-0.567 2.496,-0.363 1.447,-1.657C0.584,-2.722 0.645,-4.219 0.406,-5.498C0.37,-5.695 0.029,-5.703 0,-5.498" style="fill:rgb(35,31,32);fill-rule:nonzero;"/>
            </g>
            <g transform="matrix(4.16667,0,0,4.16667,1084.36,2322.04)">
                <path d="M0,22.556L-4.496,22.556C-6.085,22.556 -7.78,21.145 -7.78,18.589L-7.374,2.819C-7.374,1.262 -6.085,0 -4.496,0L0,0C1.59,0 2.878,1.262 2.878,2.819L2.878,19.738C2.878,21.294 1.59,22.556 0,22.556" style="fill:rgb(231,230,216);fill-rule:nonzero;"/>
            </g>
            <g transform="matrix(4.16667,0,0,4.16667,1095.91,2343.13)">
                <path d="M0,12.287L-10.239,12.287C-10.676,12.287 -11.029,11.933 -11.029,11.496L-11.029,0.791C-11.029,0.354 -10.676,0 -10.239,0L0,0C0.437,0 0.791,0.354 0.791,0.791L0.791,11.496C0.791,11.933 0.437,12.287 0,12.287Z" style="fill:rgb(140,198,63);fill-rule:nonzero;stroke:rgb(35,31,32);stroke-width:0.57px;"/>
            </g>
            <g transform="matrix(4.16667,0,0,4.16667,1055.91,2335.8)">
                <path d="M0,-1.868C0.655,-1.831 1.263,-2.229 1.9,-2.322C2.572,-2.419 3.28,-2.341 3.912,-2.097C3.959,-2.079 4.003,-2.03 3.982,-1.976C3.895,-1.751 3.821,-1.456 4.129,-1.387C4.409,-1.322 4.73,-1.402 5.005,-1.465C5.349,-1.543 5.687,-1.657 6.038,-1.701C6.508,-1.761 6.983,-1.69 7.434,-1.555C7.708,-1.472 8.014,-1.359 8.18,-1.115C8.333,-0.888 8.335,-0.589 8.337,-0.327C8.34,-0.023 8.273,0.278 8.242,0.579C8.226,0.736 8.212,0.896 8.223,1.054C8.229,1.153 8.24,1.261 8.338,1.31C8.587,1.435 8.935,1.415 9.206,1.417C9.372,1.419 9.539,1.415 9.706,1.415L9.706,-0.484C9.706,-2.041 8.418,-3.303 6.828,-3.303L2.332,-3.303C1.611,-3.303 0.96,-3.034 0.455,-2.604C0.251,-2.394 0.093,-2.143 0,-1.868" style="fill:white;fill-rule:nonzero;"/>
            </g>
            <g transform="matrix(4.16667,0,0,4.16667,1065.2,2406.54)">
                <path d="M0,0.03C-0.309,-0.161 -0.578,-0.415 -0.863,-0.638C-1.147,-0.86 -1.475,-1.131 -1.838,-1.21C-1.907,-1.225 -1.956,-1.21 -2.007,-1.198C-2.073,-0.879 -2.013,-0.482 -1.754,-0.26C-1.703,-0.216 -1.72,-0.159 -1.76,-0.125C-1.645,0.116 -1.49,0.335 -1.274,0.505C-0.682,0.972 0.127,1.166 0.872,1.214C1.509,1.255 2.225,1.201 2.8,0.898C2.464,0.446 1.878,0.375 1.337,0.332C0.889,0.296 0.391,0.274 0,0.03" style="fill:white;fill-rule:nonzero;"/>
            </g>
            <g transform="matrix(4.16667,0,0,4.16667,0,0)">
                <g opacity="0.25">
                    <g transform="matrix(1,0,0,1,262.7,569.325)">
                        <path d="M0,-4.821C-0.016,-5.158 -0.042,-5.643 -0.379,-5.832C-0.731,-6.03 -1.213,-5.925 -1.594,-5.89C-2.162,-5.839 -2.742,-5.85 -3.313,-5.846C-3.962,-5.842 -4.611,-5.848 -5.26,-5.858C-6.559,-5.877 -7.856,-5.91 -9.154,-5.911C-9.196,-5.911 -9.22,-5.933 -9.234,-5.962C-9.315,-5.96 -9.396,-5.951 -9.478,-5.951C-9.36,-5.422 -8.979,-4.968 -8.512,-4.687C-8.211,-4.506 -7.875,-4.406 -7.533,-4.327C-7.132,-4.235 -6.723,-4.187 -6.311,-4.168C-5.952,-4.151 -5.596,-4.162 -5.237,-4.17C-4.952,-4.176 -4.653,-4.212 -4.385,-4.099C-4.134,-3.996 -4,-3.804 -3.937,-3.552C-3.879,-3.326 -3.879,-3.04 -3.703,-2.863C-3.538,-2.695 -3.284,-2.631 -3.059,-2.586C-2.805,-2.536 -2.547,-2.513 -2.292,-2.472C-1.926,-2.414 -1.589,-2.299 -1.367,-1.992C-1.181,-1.734 -1.109,-1.409 -1.066,-1.101C-1.016,-0.75 -1.003,-0.395 -0.966,-0.043C-0.935,0.26 -0.894,0.59 -0.729,0.856C-0.581,1.099 -0.335,1.196 -0.061,1.209C0.218,0.075 0.007,-1.131 -0.062,-2.276C-0.111,-3.127 0.04,-3.97 0,-4.821" style="fill:white;fill-rule:nonzero;"/>
                    </g>
                </g>
            </g>
            <g transform="matrix(4.16667,0,0,4.16667,1054.13,2320.22)">
                <path d="M0,5.452C0.036,4.32 -0.027,2.771 0.646,1.781C1.52,0.494 3.356,0.643 4.729,0.616C6.407,0.583 8.347,0.246 9.303,1.972C9.873,3.003 9.761,4.262 9.876,5.394C9.918,5.805 10.483,5.81 10.52,5.394C10.644,3.955 10.503,2.108 9.521,0.962C8.326,-0.432 6.365,-0.141 4.729,-0.11C3.303,-0.083 1.452,-0.174 0.369,0.956C-0.729,2.099 -0.675,3.99 -0.669,5.452C-0.667,5.884 -0.014,5.882 0,5.452" style="fill:rgb(35,31,32);fill-rule:nonzero;"/>
            </g>
            <g transform="matrix(4.16667,0,0,4.16667,1050.9,2417.31)">
                <path d="M0,-5.498C-0.216,-3.999 -0.052,-2.184 1.01,-1.003C2.303,0.437 4.433,0.167 6.163,0.034C7.66,-0.082 9.511,0.226 10.535,-1.127C11.429,-2.307 11.448,-4.151 11.235,-5.545C11.175,-5.935 10.585,-5.819 10.571,-5.455C10.536,-4.5 10.673,-3.458 10.361,-2.538C9.664,-0.479 7.611,-0.829 5.805,-0.686C4.312,-0.567 2.496,-0.363 1.447,-1.657C0.584,-2.722 0.645,-4.219 0.406,-5.498C0.37,-5.695 0.029,-5.703 0,-5.498" style="fill:rgb(35,31,32);fill-rule:nonzero;"/>
            </g>
            <g transform="matrix(4.16667,0,0,4.16667,1084.36,2226.6)">
                <path d="M0,22.557L-4.496,22.557C-6.085,22.557 -7.78,21.145 -7.78,18.589L-7.374,2.819C-7.374,1.262 -6.085,0 -4.496,0L0,0C1.59,0 2.878,1.262 2.878,2.819L2.878,19.739C2.878,21.294 1.59,22.557 0,22.557" style="fill:rgb(231,230,216);fill-rule:nonzero;"/>
            </g>
            <g transform="matrix(4.16667,0,0,4.16667,1095.91,2247.69)">
                <path d="M0,12.287L-10.239,12.287C-10.676,12.287 -11.029,11.933 -11.029,11.496L-11.029,0.791C-11.029,0.354 -10.676,0 -10.239,0L0,0C0.437,0 0.791,0.354 0.791,0.791L0.791,11.496C0.791,11.933 0.437,12.287 0,12.287Z" style="fill:rgb(140,198,63);fill-rule:nonzero;stroke:rgb(35,31,32);stroke-width:0.57px;"/>
            </g>
            <g transform="matrix(4.16667,0,0,4.16667,1055.91,2240.36)">
                <path d="M0,-1.869C0.655,-1.832 1.263,-2.23 1.9,-2.323C2.572,-2.42 3.28,-2.341 3.912,-2.098C3.959,-2.08 4.003,-2.03 3.982,-1.977C3.895,-1.752 3.821,-1.457 4.129,-1.388C4.409,-1.323 4.73,-1.403 5.005,-1.466C5.349,-1.543 5.687,-1.658 6.038,-1.702C6.508,-1.762 6.983,-1.691 7.434,-1.556C7.708,-1.473 8.014,-1.36 8.18,-1.115C8.333,-0.889 8.335,-0.59 8.337,-0.328C8.34,-0.024 8.273,0.277 8.242,0.578C8.226,0.735 8.212,0.895 8.223,1.053C8.229,1.152 8.24,1.26 8.338,1.309C8.587,1.435 8.935,1.414 9.206,1.416C9.372,1.418 9.539,1.414 9.706,1.414L9.706,-0.485C9.706,-2.042 8.418,-3.304 6.828,-3.304L2.332,-3.304C1.611,-3.304 0.96,-3.035 0.455,-2.605C0.251,-2.395 0.093,-2.144 0,-1.869" style="fill:white;fill-rule:nonzero;"/>
            </g>
            <g transform="matrix(4.16667,0,0,4.16667,1065.2,2311.09)">
                <path d="M0,0.032C-0.309,-0.16 -0.578,-0.414 -0.863,-0.637C-1.147,-0.859 -1.475,-1.13 -1.838,-1.209C-1.907,-1.224 -1.956,-1.209 -2.007,-1.196C-2.073,-0.878 -2.013,-0.481 -1.754,-0.259C-1.703,-0.215 -1.72,-0.157 -1.76,-0.124C-1.645,0.117 -1.49,0.336 -1.274,0.506C-0.682,0.973 0.127,1.167 0.872,1.215C1.509,1.256 2.225,1.203 2.8,0.899C2.464,0.448 1.878,0.376 1.337,0.333C0.889,0.297 0.391,0.275 0,0.032" style="fill:white;fill-rule:nonzero;"/>
            </g>
            <g transform="matrix(4.16667,0,0,4.16667,0,0)">
                <g opacity="0.25">
                    <g transform="matrix(1,0,0,1,262.7,546.419)">
                        <path d="M0,-4.82C-0.016,-5.158 -0.042,-5.643 -0.379,-5.832C-0.731,-6.029 -1.213,-5.924 -1.594,-5.89C-2.162,-5.839 -2.742,-5.849 -3.313,-5.846C-3.962,-5.842 -4.611,-5.848 -5.26,-5.858C-6.559,-5.877 -7.856,-5.91 -9.154,-5.911C-9.196,-5.911 -9.22,-5.933 -9.234,-5.961C-9.315,-5.96 -9.396,-5.951 -9.478,-5.951C-9.36,-5.422 -8.979,-4.968 -8.512,-4.687C-8.211,-4.506 -7.875,-4.406 -7.533,-4.327C-7.132,-4.235 -6.723,-4.186 -6.311,-4.168C-5.952,-4.15 -5.596,-4.162 -5.237,-4.17C-4.952,-4.176 -4.653,-4.212 -4.385,-4.099C-4.134,-3.996 -4,-3.804 -3.937,-3.552C-3.879,-3.326 -3.879,-3.04 -3.703,-2.862C-3.538,-2.695 -3.284,-2.631 -3.059,-2.586C-2.805,-2.535 -2.547,-2.513 -2.292,-2.472C-1.926,-2.413 -1.589,-2.299 -1.367,-1.992C-1.181,-1.733 -1.109,-1.409 -1.066,-1.1C-1.016,-0.75 -1.003,-0.395 -0.966,-0.043C-0.935,0.26 -0.894,0.59 -0.729,0.856C-0.581,1.099 -0.335,1.196 -0.061,1.209C0.218,0.076 0.007,-1.131 -0.062,-2.276C-0.111,-3.127 0.04,-3.97 0,-4.82" style="fill:white;fill-rule:nonzero;"/>
                    </g>
                </g>
            </g>
            <g transform="matrix(4.16667,0,0,4.16667,1054.13,2224.78)">
                <path d="M0,5.451C0.036,4.319 -0.027,2.77 0.646,1.78C1.52,0.493 3.356,0.642 4.729,0.615C6.407,0.582 8.347,0.245 9.303,1.971C9.873,3.002 9.761,4.262 9.876,5.393C9.918,5.804 10.483,5.809 10.52,5.393C10.644,3.954 10.503,2.107 9.521,0.961C8.326,-0.432 6.365,-0.142 4.729,-0.111C3.303,-0.084 1.452,-0.175 0.369,0.955C-0.729,2.098 -0.675,3.989 -0.669,5.451C-0.667,5.883 -0.014,5.881 0,5.451" style="fill:rgb(35,31,32);fill-rule:nonzero;"/>
            </g>
            <g transform="matrix(4.16667,0,0,4.16667,1050.9,2321.87)">
                <path d="M0,-5.499C-0.216,-4 -0.052,-2.185 1.01,-1.004C2.303,0.436 4.433,0.166 6.163,0.033C7.66,-0.082 9.511,0.226 10.535,-1.128C11.429,-2.308 11.448,-4.152 11.235,-5.546C11.175,-5.935 10.585,-5.819 10.571,-5.456C10.536,-4.501 10.673,-3.459 10.361,-2.538C9.664,-0.48 7.611,-0.83 5.805,-0.687C4.312,-0.568 2.496,-0.364 1.447,-1.658C0.584,-2.723 0.645,-4.22 0.406,-5.499C0.37,-5.696 0.029,-5.704 0,-5.499" style="fill:rgb(35,31,32);fill-rule:nonzero;"/>
            </g>
            <g transform="matrix(0,4.16667,4.16667,0,1408.21,2511.71)">
                <path d="M-68.124,-68.124L68.124,-68.124" style="fill:none;fill-rule:nonzero;stroke:rgb(56,198,244);stroke-width:1px;stroke-linejoin:miter;stroke-miterlimit:4;"/>
            </g>
            <g transform="matrix(4.16667,0,0,4.16667,1116.72,2226.91)">
                <path d="M0,0L3.666,0" style="fill:none;fill-rule:nonzero;stroke:rgb(56,198,244);stroke-width:1px;stroke-linejoin:miter;stroke-miterlimit:4;"/>
            </g>
            <g transform="matrix(4.16667,0,0,4.16667,1116.72,2797.09)">
                <path d="M0,0L3.666,0" style="fill:none;fill-rule:nonzero;stroke:rgb(56,198,244);stroke-width:1px;stroke-linejoin:miter;stroke-miterlimit:4;"/>
            </g>
        </g>
    </g>
    <defs>
        <linearGradient id="_Linear1" x1="0" y1="0" x2="1" y2="0" gradientUnits="userSpaceOnUse" gradientTransform="matrix(1,0,0,-1,0,0.00520437)"><stop offset="0" style="stop-color:rgb(105,103,103);stop-opacity:1"/><stop offset="1" style="stop-color:rgb(156,154,155);stop-opacity:1"/></linearGradient>
        <linearGradient id="_Linear2" x1="0" y1="0" x2="1" y2="0" gradientUnits="userSpaceOnUse" gradientTransform="matrix(1,6.93889e-18,6.93889e-18,-1,0,0.00203889)"><stop offset="0" style="stop-color:rgb(95,72,48);stop-opacity:1"/><stop offset="1" style="stop-color:rgb(189,146,106);stop-opacity:1"/></linearGradient>
    </defs>
</svg>
