<?xml version="1.0" encoding="UTF-8" standalone="no"?>
<!DOCTYPE svg PUBLIC "-//W3C//DTD SVG 1.1//EN" "http://www.w3.org/Graphics/SVG/1.1/DTD/svg11.dtd">
<svg width="100%" height="100%" viewBox="0 0 142 398" version="1.1" xmlns="http://www.w3.org/2000/svg" xmlns:xlink="http://www.w3.org/1999/xlink" xml:space="preserve" xmlns:serif="http://www.serif.com/" style="fill-rule:evenodd;clip-rule:evenodd;stroke-linecap:round;stroke-linejoin:round;stroke-miterlimit:10;">
    <g transform="matrix(1,0,0,1,-1570,-2408)">
        <g>
            <g transform="matrix(4.16667,0,0,4.16667,1702.98,2642.89)">
                <path d="M0,9.632C-0.07,13.761 -0.218,17.885 -0.544,22.002C-0.718,24.192 -0.493,34.546 -2.766,35.642C-2.777,35.637 -2.783,35.628 -2.795,35.624C-5.083,34.794 -5.27,23.628 -5.459,21.74C-5.84,17.956 -5.983,14.204 -5.952,10.402C-5.853,-1.735 -5.375,-13.908 -4.425,-26.01C-4.39,-25.999 -4.355,-25.982 -4.32,-25.972C-3.244,-25.675 -1.739,-25.573 -0.582,-25.993C0.308,-14.16 0.203,-2.224 0,9.632" style="fill:rgb(195,154,107);fill-rule:nonzero;"/>
            </g>
            <g transform="matrix(4.16667,0,0,4.16667,1702.8,2479.23)">
                <path d="M0,12.219C-0.009,12.24 -0.009,12.258 -0.015,12.279C-0.039,12.286 -0.063,12.29 -0.09,12.305C-0.809,12.724 -1.584,12.832 -2.407,12.823C-2.813,12.817 -3.224,12.785 -3.625,12.723C-3.906,12.679 -5.538,12.348 -4.323,11.622C-4.104,11.491 -4.154,11.233 -4.318,11.117C-4.314,11.101 -4.306,11.088 -4.304,11.07C-3.928,7.188 -3.533,3.285 -3.345,-0.613C-2.732,-0.131 -2.05,0.23 -1.312,0.399C-1.217,0.421 -1.138,0.395 -1.078,0.347C-0.963,3.886 -0.836,7.426 -0.726,10.966C-0.725,10.99 -0.706,10.998 -0.701,11.02C-0.822,11.077 -0.887,11.237 -0.854,11.362C-0.809,11.534 -0.646,11.592 -0.486,11.571C-0.19,11.53 0.122,11.947 0,12.219" style="fill:rgb(167,189,200);fill-rule:nonzero;"/>
            </g>
            <g transform="matrix(4.16667,0,0,4.16667,1700.88,2460.85)">
                <path d="M0,-6.688C1.944,-3.348 3.544,1.833 -1.062,4.102C-1.082,4.112 -1.093,4.126 -1.108,4.139C-4.75,2.967 -5.964,-2.144 -4.591,-5.238C-3.687,-7.274 -2.159,-9.001 -0.897,-10.827C-1.229,-9.263 -0.823,-8.101 0,-6.688" style="fill:rgb(155,133,121);fill-rule:nonzero;"/>
            </g>
            <g transform="matrix(4.16667,0,0,4.16667,0,0)">
                <g opacity="0.2">
                    <g transform="matrix(1,0,0,1,408.101,647.22)">
                        <path d="M0,-37.895C-0.332,-37.82 -0.681,-37.794 -1.004,-37.687C-1.333,-37.578 -1.535,-37.329 -1.671,-37.017C-2.1,-36.029 -1.958,-34.905 -1.828,-33.868C-1.759,-33.315 -1.694,-32.774 -1.672,-32.217C-1.642,-31.501 -1.611,-30.787 -1.579,-30.071C-1.514,-28.645 -1.439,-27.218 -1.336,-25.794C-1.232,-24.346 -1.081,-22.902 -1.003,-21.451C-0.924,-19.981 -0.886,-18.508 -0.866,-17.036C-0.828,-14.146 -0.895,-11.251 -0.803,-8.362C-0.715,-5.564 -0.794,-2.716 -0.167,0.029C0.112,-0.126 0.344,-0.346 0.555,-0.587C0.579,-1.49 0.6,-2.392 0.615,-3.295C0.813,-14.82 0.909,-26.417 0.098,-37.924C0.064,-37.916 0.033,-37.903 0,-37.895" style="fill:white;fill-rule:nonzero;"/>
                    </g>
                </g>
            </g>
            <g transform="matrix(4.16667,0,0,4.16667,0,0)">
                <g opacity="0.2">
                    <g transform="matrix(1,0,0,1,408.465,668.156)">
                        <path d="M0,-18.997C-0.061,-19.068 -0.126,-19.141 -0.204,-19.194C-0.254,-19.228 -0.318,-19.257 -0.365,-19.258C-0.408,-19.26 -0.445,-19.247 -0.49,-19.214C-0.594,-19.136 -0.664,-18.98 -0.711,-18.854C-0.872,-18.429 -0.932,-17.962 -0.979,-17.512C-1.108,-16.267 -1.05,-15.012 -1.027,-13.763C-1.008,-12.718 -0.993,-11.671 -1.03,-10.625C-1.066,-9.59 -1.146,-8.558 -1.245,-7.526C-1.344,-6.497 -1.456,-5.468 -1.531,-4.436C-1.595,-3.554 -1.614,-2.673 -1.618,-1.789C-1.621,-1.132 -1.615,-0.464 -1.488,0.184C-1.483,0.209 -1.475,0.236 -1.469,0.263C-0.314,-2.968 -0.434,-10.089 -0.293,-11.861C-0.105,-14.231 0.01,-16.603 0.099,-18.977C0.066,-18.963 0.03,-18.961 0,-18.997" style="fill:white;fill-rule:nonzero;"/>
                    </g>
                </g>
            </g>
            <g transform="matrix(4.16667,0,0,4.16667,0,0)">
                <g opacity="0.5">
                    <g transform="matrix(1,0,0,1,406.285,605.578)">
                        <path d="M0,-8.893C0.034,-8.694 0.099,-8.501 0.154,-8.307C0.226,-8.057 0.283,-7.804 0.313,-7.545C0.342,-7.308 0.381,-7.031 0.299,-6.8C0.228,-6.603 0.092,-6.44 -0.04,-6.281C-0.185,-6.105 -0.341,-5.922 -0.407,-5.7C-0.476,-5.468 -0.431,-5.214 -0.312,-5.007C-0.11,-4.659 0.276,-4.441 0.419,-4.055C0.615,-3.523 0.562,-2.922 0.435,-2.383C0.297,-1.799 0.107,-1.232 0.119,-0.624C0.127,-0.274 0.215,0.055 0.295,0.393C0.35,0.625 0.382,0.87 0.216,1.064C0.121,1.175 -0.013,1.25 -0.145,1.307C-0.222,1.341 -0.306,1.357 -0.386,1.384C-0.147,1.41 0.091,1.441 0.329,1.454C1.009,1.49 1.697,1.465 2.374,1.371C2.298,1.165 2.101,0.98 1.9,1.007C1.741,1.029 1.578,0.971 1.532,0.798C1.5,0.673 1.564,0.514 1.686,0.457C1.681,0.435 1.662,0.426 1.661,0.403C1.551,-3.137 1.424,-6.677 1.309,-10.216C1.249,-10.168 1.17,-10.142 1.074,-10.164C0.844,-10.217 0.62,-10.295 0.4,-10.383C0.137,-9.929 -0.094,-9.428 0,-8.893" style="fill:white;fill-rule:nonzero;"/>
                    </g>
                </g>
            </g>
            <g transform="matrix(4.16667,0,0,4.16667,0,0)">
                <g opacity="0.2">
                    <g transform="matrix(1,0,0,1,408.211,589.762)">
                        <path d="M0,-5.846C-0.823,-7.259 -1.229,-8.421 -0.897,-9.985C-0.937,-9.927 -0.979,-9.869 -1.021,-9.812C-1.187,-9.402 -1.351,-8.992 -1.514,-8.58C-2.062,-7.196 -2.59,-5.732 -2.557,-4.221C-2.54,-3.48 -2.376,-2.747 -2.068,-2.072C-1.727,-1.323 -1.226,-0.661 -0.659,-0.067C-0.644,-0.991 -0.559,-1.912 -0.557,-2.836C-0.557,-2.92 -0.445,-2.973 -0.386,-2.908C0.082,-2.388 0.407,-1.765 0.578,-1.087C0.887,0.138 0.731,1.436 0.497,2.661C0.401,3.156 0.284,3.647 0.167,4.139C3.192,1.61 1.742,-2.854 0,-5.846" style="fill:white;fill-rule:nonzero;"/>
                    </g>
                </g>
            </g>
            <g transform="matrix(4.16667,0,0,4.16667,1605.76,2704.12)">
                <path d="M0,22.557L-4.495,22.557C-6.085,22.557 -7.78,21.146 -7.78,18.59L-7.373,2.819C-7.373,1.262 -6.085,0 -4.495,0L0,0C1.59,0 2.879,1.262 2.879,2.819L2.879,19.739C2.879,21.295 1.59,22.557 0,22.557" style="fill:rgb(231,230,216);fill-rule:nonzero;"/>
            </g>
            <g transform="matrix(4.16667,0,0,4.16667,1617.32,2725.22)">
                <path d="M0,12.286L-10.238,12.286C-10.675,12.286 -11.029,11.932 -11.029,11.496L-11.029,0.791C-11.029,0.353 -10.675,0 -10.238,0L0,0C0.437,0 0.791,0.353 0.791,0.791L0.791,11.496C0.791,11.932 0.437,12.286 0,12.286Z" style="fill:rgb(140,198,63);fill-rule:nonzero;stroke:rgb(35,31,32);stroke-width:0.57px;"/>
            </g>
            <g transform="matrix(4.16667,0,0,4.16667,1577.31,2717.89)">
                <path d="M0,-1.867C0.655,-1.83 1.263,-2.229 1.9,-2.321C2.573,-2.418 3.28,-2.34 3.913,-2.096C3.959,-2.079 4.004,-2.029 3.982,-1.975C3.895,-1.75 3.822,-1.456 4.129,-1.386C4.41,-1.322 4.731,-1.401 5.005,-1.464C5.35,-1.542 5.687,-1.656 6.038,-1.701C6.508,-1.76 6.983,-1.69 7.434,-1.554C7.708,-1.471 8.015,-1.358 8.18,-1.114C8.334,-0.888 8.336,-0.588 8.338,-0.326C8.34,-0.022 8.274,0.279 8.242,0.58C8.226,0.737 8.212,0.897 8.224,1.055C8.23,1.154 8.24,1.261 8.338,1.311C8.588,1.436 8.935,1.415 9.206,1.418C9.372,1.42 9.539,1.416 9.707,1.415L9.707,-0.484C9.707,-2.041 8.418,-3.303 6.828,-3.303L2.333,-3.303C1.611,-3.303 0.96,-3.033 0.455,-2.604C0.252,-2.394 0.094,-2.142 0,-1.867" style="fill:white;fill-rule:nonzero;"/>
            </g>
            <g transform="matrix(4.16667,0,0,4.16667,1586.6,2788.63)">
                <path d="M0,0.03C-0.309,-0.162 -0.578,-0.415 -0.863,-0.638C-1.146,-0.86 -1.475,-1.131 -1.838,-1.21C-1.906,-1.225 -1.956,-1.21 -2.007,-1.198C-2.072,-0.88 -2.013,-0.483 -1.754,-0.26C-1.702,-0.216 -1.719,-0.159 -1.759,-0.125C-1.645,0.115 -1.49,0.335 -1.274,0.505C-0.682,0.971 0.127,1.166 0.872,1.214C1.509,1.255 2.225,1.201 2.8,0.898C2.464,0.446 1.878,0.375 1.337,0.331C0.889,0.296 0.391,0.274 0,0.03" style="fill:white;fill-rule:nonzero;"/>
            </g>
            <g transform="matrix(4.16667,0,0,4.16667,0,0)">
                <g opacity="0.25">
                    <g transform="matrix(1,0,0,1,387.838,661.025)">
                        <path d="M0,-4.82C-0.016,-5.157 -0.043,-5.642 -0.38,-5.832C-0.731,-6.029 -1.214,-5.924 -1.594,-5.889C-2.163,-5.838 -2.742,-5.849 -3.313,-5.845C-3.963,-5.842 -4.611,-5.848 -5.261,-5.857C-6.559,-5.877 -7.856,-5.91 -9.155,-5.91C-9.197,-5.91 -9.22,-5.933 -9.234,-5.961C-9.315,-5.96 -9.396,-5.95 -9.478,-5.95C-9.361,-5.421 -8.979,-4.968 -8.512,-4.686C-8.211,-4.506 -7.876,-4.405 -7.534,-4.327C-7.133,-4.234 -6.723,-4.186 -6.312,-4.167C-5.953,-4.15 -5.596,-4.161 -5.237,-4.17C-4.953,-4.175 -4.654,-4.211 -4.385,-4.099C-4.135,-3.995 -4.001,-3.803 -3.937,-3.551C-3.879,-3.325 -3.88,-3.039 -3.704,-2.862C-3.538,-2.694 -3.284,-2.631 -3.059,-2.586C-2.806,-2.535 -2.547,-2.512 -2.292,-2.471C-1.927,-2.413 -1.589,-2.298 -1.368,-1.992C-1.182,-1.733 -1.11,-1.408 -1.066,-1.1C-1.017,-0.749 -1.003,-0.394 -0.967,-0.043C-0.936,0.261 -0.894,0.59 -0.73,0.857C-0.581,1.1 -0.335,1.196 -0.061,1.209C0.217,0.076 0.007,-1.131 -0.062,-2.276C-0.112,-3.127 0.04,-3.97 0,-4.82" style="fill:white;fill-rule:nonzero;"/>
                    </g>
                </g>
            </g>
            <g transform="matrix(4.16667,0,0,4.16667,1575.54,2702.3)">
                <path d="M0,5.453C0.035,4.321 -0.027,2.772 0.645,1.782C1.519,0.495 3.356,0.644 4.728,0.617C6.407,0.583 8.347,0.246 9.302,1.973C9.873,3.004 9.761,4.263 9.876,5.394C9.918,5.806 10.482,5.81 10.519,5.394C10.643,3.956 10.503,2.109 9.52,0.963C8.325,-0.431 6.365,-0.14 4.728,-0.109C3.303,-0.082 1.451,-0.173 0.368,0.956C-0.729,2.1 -0.676,3.991 -0.669,5.453C-0.667,5.884 -0.014,5.883 0,5.453" style="fill:rgb(35,31,32);fill-rule:nonzero;"/>
            </g>
            <g transform="matrix(4.16667,0,0,4.16667,1572.3,2799.39)">
                <path d="M0,-5.497C-0.216,-3.998 -0.051,-2.183 1.01,-1.002C2.304,0.437 4.434,0.168 6.163,0.034C7.661,-0.081 9.511,0.227 10.535,-1.126C11.429,-2.307 11.449,-4.151 11.235,-5.544C11.176,-5.934 10.586,-5.818 10.572,-5.454C10.537,-4.5 10.674,-3.457 10.361,-2.537C9.664,-0.479 7.612,-0.828 5.806,-0.685C4.312,-0.566 2.497,-0.362 1.447,-1.656C0.585,-2.721 0.646,-4.219 0.407,-5.497C0.37,-5.694 0.029,-5.703 0,-5.497" style="fill:rgb(35,31,32);fill-rule:nonzero;"/>
            </g>
            <g transform="matrix(4.16667,0,0,4.16667,1605.76,2608.69)">
                <path d="M0,22.556L-4.495,22.556C-6.085,22.556 -7.78,21.145 -7.78,18.589L-7.373,2.818C-7.373,1.262 -6.085,0 -4.495,0L0,0C1.59,0 2.879,1.262 2.879,2.818L2.879,19.738C2.879,21.294 1.59,22.556 0,22.556" style="fill:rgb(231,230,216);fill-rule:nonzero;"/>
            </g>
            <g transform="matrix(4.16667,0,0,4.16667,1617.32,2629.78)">
                <path d="M0,12.287L-10.238,12.287C-10.675,12.287 -11.029,11.933 -11.029,11.496L-11.029,0.791C-11.029,0.354 -10.675,0 -10.238,0L0,0C0.437,0 0.791,0.354 0.791,0.791L0.791,11.496C0.791,11.933 0.437,12.287 0,12.287Z" style="fill:rgb(140,198,63);fill-rule:nonzero;stroke:rgb(35,31,32);stroke-width:0.57px;"/>
            </g>
            <g transform="matrix(4.16667,0,0,4.16667,1577.31,2622.44)">
                <path d="M0,-1.867C0.655,-1.83 1.263,-2.229 1.9,-2.321C2.573,-2.418 3.28,-2.34 3.913,-2.096C3.959,-2.078 4.004,-2.029 3.982,-1.975C3.895,-1.75 3.822,-1.455 4.129,-1.386C4.41,-1.321 4.731,-1.401 5.005,-1.464C5.35,-1.542 5.687,-1.656 6.038,-1.7C6.508,-1.76 6.983,-1.689 7.434,-1.554C7.708,-1.471 8.015,-1.358 8.18,-1.114C8.334,-0.888 8.336,-0.588 8.338,-0.326C8.34,-0.022 8.274,0.279 8.242,0.58C8.226,0.737 8.212,0.897 8.224,1.055C8.23,1.154 8.24,1.262 8.338,1.311C8.588,1.436 8.935,1.415 9.206,1.418C9.372,1.42 9.539,1.416 9.707,1.415L9.707,-0.484C9.707,-2.04 8.418,-3.303 6.828,-3.303L2.333,-3.303C1.611,-3.303 0.96,-3.033 0.455,-2.604C0.252,-2.393 0.094,-2.142 0,-1.867" style="fill:white;fill-rule:nonzero;"/>
            </g>
            <g transform="matrix(4.16667,0,0,4.16667,1586.6,2693.19)">
                <path d="M0,0.03C-0.309,-0.162 -0.578,-0.415 -0.863,-0.638C-1.146,-0.86 -1.475,-1.131 -1.838,-1.21C-1.906,-1.225 -1.956,-1.21 -2.007,-1.198C-2.072,-0.88 -2.013,-0.483 -1.754,-0.26C-1.702,-0.216 -1.719,-0.159 -1.759,-0.125C-1.645,0.115 -1.49,0.335 -1.274,0.505C-0.682,0.972 0.127,1.166 0.872,1.214C1.509,1.255 2.225,1.201 2.8,0.898C2.464,0.446 1.878,0.375 1.337,0.332C0.889,0.296 0.391,0.274 0,0.03" style="fill:white;fill-rule:nonzero;"/>
            </g>
            <g transform="matrix(4.16667,0,0,4.16667,0,0)">
                <g opacity="0.25">
                    <g transform="matrix(1,0,0,1,387.838,638.12)">
                        <path d="M0,-4.821C-0.016,-5.158 -0.043,-5.643 -0.38,-5.832C-0.731,-6.03 -1.214,-5.925 -1.594,-5.89C-2.163,-5.839 -2.742,-5.85 -3.313,-5.846C-3.963,-5.842 -4.611,-5.848 -5.261,-5.858C-6.559,-5.878 -7.856,-5.911 -9.155,-5.911C-9.197,-5.911 -9.22,-5.933 -9.234,-5.962C-9.315,-5.961 -9.396,-5.951 -9.478,-5.951C-9.361,-5.422 -8.979,-4.968 -8.512,-4.687C-8.211,-4.507 -7.876,-4.406 -7.534,-4.328C-7.133,-4.235 -6.723,-4.187 -6.312,-4.168C-5.953,-4.151 -5.596,-4.162 -5.237,-4.17C-4.953,-4.176 -4.654,-4.212 -4.385,-4.1C-4.135,-3.996 -4.001,-3.804 -3.937,-3.552C-3.879,-3.326 -3.88,-3.04 -3.704,-2.863C-3.538,-2.695 -3.284,-2.631 -3.059,-2.586C-2.806,-2.536 -2.547,-2.513 -2.292,-2.472C-1.927,-2.414 -1.589,-2.299 -1.368,-1.992C-1.182,-1.734 -1.11,-1.409 -1.066,-1.101C-1.017,-0.75 -1.003,-0.395 -0.967,-0.043C-0.936,0.26 -0.894,0.59 -0.73,0.856C-0.581,1.099 -0.335,1.196 -0.061,1.209C0.217,0.075 0.007,-1.131 -0.062,-2.276C-0.112,-3.127 0.04,-3.97 0,-4.821" style="fill:white;fill-rule:nonzero;"/>
                    </g>
                </g>
            </g>
            <g transform="matrix(4.16667,0,0,4.16667,1575.54,2606.86)">
                <path d="M0,5.453C0.035,4.321 -0.027,2.772 0.645,1.782C1.519,0.495 3.356,0.644 4.728,0.617C6.407,0.584 8.347,0.246 9.302,1.973C9.873,3.004 9.761,4.263 9.876,5.395C9.918,5.806 10.482,5.811 10.519,5.395C10.643,3.956 10.503,2.109 9.52,0.963C8.325,-0.431 6.365,-0.14 4.728,-0.109C3.303,-0.082 1.451,-0.173 0.368,0.957C-0.729,2.1 -0.676,3.991 -0.669,5.453C-0.667,5.884 -0.014,5.883 0,5.453" style="fill:rgb(35,31,32);fill-rule:nonzero;"/>
            </g>
            <g transform="matrix(4.16667,0,0,4.16667,1572.3,2703.96)">
                <path d="M0,-5.498C-0.216,-3.999 -0.051,-2.184 1.01,-1.003C2.304,0.437 4.434,0.167 6.163,0.033C7.661,-0.082 9.511,0.226 10.535,-1.127C11.429,-2.307 11.449,-4.151 11.235,-5.545C11.176,-5.935 10.586,-5.819 10.572,-5.455C10.537,-4.5 10.674,-3.458 10.361,-2.538C9.664,-0.48 7.612,-0.829 5.806,-0.686C4.312,-0.567 2.497,-0.363 1.447,-1.657C0.585,-2.722 0.646,-4.219 0.407,-5.498C0.37,-5.695 0.029,-5.703 0,-5.498" style="fill:rgb(35,31,32);fill-rule:nonzero;"/>
            </g>
            <g transform="matrix(4.16667,0,0,4.16667,1605.76,2512.87)">
                <path d="M0,22.556L-4.495,22.556C-6.085,22.556 -7.78,21.145 -7.78,18.589L-7.373,2.819C-7.373,1.262 -6.085,0 -4.495,0L0,0C1.59,0 2.879,1.262 2.879,2.819L2.879,19.738C2.879,21.294 1.59,22.556 0,22.556" style="fill:rgb(231,230,216);fill-rule:nonzero;"/>
            </g>
            <g transform="matrix(4.16667,0,0,4.16667,1617.32,2533.96)">
                <path d="M0,12.287L-10.238,12.287C-10.675,12.287 -11.029,11.933 -11.029,11.496L-11.029,0.791C-11.029,0.354 -10.675,0 -10.238,0L0,0C0.437,0 0.791,0.354 0.791,0.791L0.791,11.496C0.791,11.933 0.437,12.287 0,12.287Z" style="fill:rgb(140,198,63);fill-rule:nonzero;stroke:rgb(35,31,32);stroke-width:0.57px;"/>
            </g>
            <g transform="matrix(4.16667,0,0,4.16667,1577.31,2526.63)">
                <path d="M0,-1.868C0.655,-1.831 1.263,-2.23 1.9,-2.322C2.573,-2.419 3.28,-2.341 3.913,-2.097C3.959,-2.079 4.004,-2.03 3.982,-1.976C3.895,-1.751 3.822,-1.456 4.129,-1.387C4.41,-1.322 4.731,-1.402 5.005,-1.465C5.35,-1.543 5.687,-1.657 6.038,-1.701C6.508,-1.761 6.983,-1.69 7.434,-1.555C7.708,-1.472 8.015,-1.359 8.18,-1.115C8.334,-0.889 8.336,-0.589 8.338,-0.327C8.34,-0.023 8.274,0.278 8.242,0.579C8.226,0.736 8.212,0.896 8.224,1.054C8.23,1.153 8.24,1.261 8.338,1.31C8.588,1.435 8.935,1.414 9.206,1.417C9.372,1.419 9.539,1.415 9.707,1.414L9.707,-0.485C9.707,-2.041 8.418,-3.303 6.828,-3.303L2.333,-3.303C1.611,-3.303 0.96,-3.034 0.455,-2.605C0.252,-2.394 0.094,-2.143 0,-1.868" style="fill:white;fill-rule:nonzero;"/>
            </g>
            <g transform="matrix(4.16667,0,0,4.16667,1586.6,2597.37)">
                <path d="M0,0.03C-0.309,-0.162 -0.578,-0.415 -0.863,-0.638C-1.146,-0.86 -1.475,-1.131 -1.838,-1.21C-1.906,-1.225 -1.956,-1.21 -2.007,-1.198C-2.072,-0.879 -2.013,-0.483 -1.754,-0.26C-1.702,-0.216 -1.719,-0.159 -1.759,-0.125C-1.645,0.115 -1.49,0.335 -1.274,0.505C-0.682,0.972 0.127,1.166 0.872,1.214C1.509,1.255 2.225,1.201 2.8,0.898C2.464,0.446 1.878,0.375 1.337,0.332C0.889,0.296 0.391,0.274 0,0.03" style="fill:white;fill-rule:nonzero;"/>
            </g>
            <g transform="matrix(4.16667,0,0,4.16667,0,0)">
                <g opacity="0.25">
                    <g transform="matrix(1,0,0,1,387.838,615.125)">
                        <path d="M0,-4.821C-0.016,-5.158 -0.043,-5.643 -0.38,-5.832C-0.731,-6.03 -1.214,-5.925 -1.594,-5.89C-2.163,-5.839 -2.742,-5.85 -3.313,-5.846C-3.963,-5.842 -4.611,-5.848 -5.261,-5.858C-6.559,-5.878 -7.856,-5.911 -9.155,-5.911C-9.197,-5.911 -9.22,-5.933 -9.234,-5.962C-9.315,-5.961 -9.396,-5.951 -9.478,-5.951C-9.361,-5.422 -8.979,-4.968 -8.512,-4.687C-8.211,-4.506 -7.876,-4.406 -7.534,-4.327C-7.133,-4.235 -6.723,-4.187 -6.312,-4.168C-5.953,-4.151 -5.596,-4.162 -5.237,-4.17C-4.953,-4.176 -4.654,-4.212 -4.385,-4.099C-4.135,-3.996 -4.001,-3.804 -3.937,-3.552C-3.879,-3.326 -3.88,-3.04 -3.704,-2.863C-3.538,-2.695 -3.284,-2.631 -3.059,-2.586C-2.806,-2.536 -2.547,-2.513 -2.292,-2.472C-1.927,-2.414 -1.589,-2.299 -1.368,-1.992C-1.182,-1.734 -1.11,-1.409 -1.066,-1.101C-1.017,-0.75 -1.003,-0.395 -0.967,-0.043C-0.936,0.26 -0.894,0.59 -0.73,0.856C-0.581,1.099 -0.335,1.196 -0.061,1.209C0.217,0.075 0.007,-1.131 -0.062,-2.276C-0.112,-3.127 0.04,-3.97 0,-4.821" style="fill:white;fill-rule:nonzero;"/>
                    </g>
                </g>
            </g>
            <g transform="matrix(4.16667,0,0,4.16667,1575.54,2511.04)">
                <path d="M0,5.453C0.035,4.321 -0.027,2.772 0.645,1.782C1.519,0.495 3.356,0.644 4.728,0.617C6.407,0.584 8.347,0.246 9.302,1.973C9.873,3.004 9.761,4.263 9.876,5.395C9.918,5.806 10.482,5.811 10.519,5.395C10.643,3.956 10.503,2.109 9.52,0.963C8.325,-0.431 6.365,-0.14 4.728,-0.109C3.303,-0.082 1.451,-0.173 0.368,0.957C-0.729,2.1 -0.676,3.991 -0.669,5.453C-0.667,5.884 -0.014,5.883 0,5.453" style="fill:rgb(35,31,32);fill-rule:nonzero;"/>
            </g>
            <g transform="matrix(4.16667,0,0,4.16667,1572.3,2608.14)">
                <path d="M0,-5.498C-0.216,-3.999 -0.051,-2.184 1.01,-1.003C2.304,0.437 4.434,0.167 6.163,0.033C7.661,-0.082 9.511,0.226 10.535,-1.127C11.429,-2.307 11.449,-4.151 11.235,-5.545C11.176,-5.935 10.586,-5.819 10.572,-5.455C10.537,-4.5 10.674,-3.458 10.361,-2.538C9.664,-0.48 7.612,-0.829 5.806,-0.686C4.312,-0.567 2.497,-0.363 1.447,-1.657C0.585,-2.722 0.646,-4.219 0.407,-5.498C0.37,-5.695 0.029,-5.703 0,-5.498" style="fill:rgb(35,31,32);fill-rule:nonzero;"/>
            </g>
            <g transform="matrix(4.16667,0,0,4.16667,1605.76,2417.43)">
                <path d="M0,22.556L-4.495,22.556C-6.085,22.556 -7.78,21.145 -7.78,18.589L-7.373,2.819C-7.373,1.262 -6.085,0 -4.495,0L0,0C1.59,0 2.879,1.262 2.879,2.819L2.879,19.738C2.879,21.294 1.59,22.556 0,22.556" style="fill:rgb(231,230,216);fill-rule:nonzero;"/>
            </g>
            <g transform="matrix(4.16667,0,0,4.16667,1617.32,2438.52)">
                <path d="M0,12.287L-10.238,12.287C-10.675,12.287 -11.029,11.933 -11.029,11.496L-11.029,0.791C-11.029,0.354 -10.675,0 -10.238,0L0,0C0.437,0 0.791,0.354 0.791,0.791L0.791,11.496C0.791,11.933 0.437,12.287 0,12.287Z" style="fill:rgb(140,198,63);fill-rule:nonzero;stroke:rgb(35,31,32);stroke-width:0.57px;"/>
            </g>
            <g transform="matrix(4.16667,0,0,4.16667,1577.31,2431.19)">
                <path d="M0,-1.868C0.655,-1.831 1.263,-2.229 1.9,-2.322C2.573,-2.419 3.28,-2.341 3.913,-2.097C3.959,-2.079 4.004,-2.029 3.982,-1.976C3.895,-1.751 3.822,-1.456 4.129,-1.387C4.41,-1.322 4.731,-1.402 5.005,-1.465C5.35,-1.543 5.687,-1.657 6.038,-1.701C6.508,-1.761 6.983,-1.69 7.434,-1.555C7.708,-1.472 8.015,-1.359 8.18,-1.115C8.334,-0.888 8.336,-0.589 8.338,-0.327C8.34,-0.023 8.274,0.278 8.242,0.579C8.226,0.736 8.212,0.896 8.224,1.054C8.23,1.153 8.24,1.261 8.338,1.31C8.588,1.435 8.935,1.415 9.206,1.417C9.372,1.419 9.539,1.415 9.707,1.415L9.707,-0.484C9.707,-2.041 8.418,-3.303 6.828,-3.303L2.333,-3.303C1.611,-3.303 0.96,-3.034 0.455,-2.604C0.252,-2.394 0.094,-2.143 0,-1.868" style="fill:white;fill-rule:nonzero;"/>
            </g>
            <g transform="matrix(4.16667,0,0,4.16667,1586.6,2501.93)">
                <path d="M0,0.03C-0.309,-0.161 -0.578,-0.415 -0.863,-0.638C-1.146,-0.86 -1.475,-1.131 -1.838,-1.21C-1.906,-1.225 -1.956,-1.21 -2.007,-1.197C-2.072,-0.879 -2.013,-0.482 -1.754,-0.26C-1.702,-0.216 -1.719,-0.159 -1.759,-0.125C-1.645,0.116 -1.49,0.335 -1.274,0.505C-0.682,0.972 0.127,1.166 0.872,1.214C1.509,1.255 2.225,1.201 2.8,0.898C2.464,0.446 1.878,0.375 1.337,0.332C0.889,0.296 0.391,0.274 0,0.03" style="fill:white;fill-rule:nonzero;"/>
            </g>
            <g transform="matrix(4.16667,0,0,4.16667,0,0)">
                <g opacity="0.25">
                    <g transform="matrix(1,0,0,1,387.838,592.219)">
                        <path d="M0,-4.822C-0.016,-5.159 -0.043,-5.644 -0.38,-5.833C-0.731,-6.03 -1.214,-5.926 -1.594,-5.891C-2.163,-5.84 -2.742,-5.851 -3.313,-5.847C-3.963,-5.843 -4.611,-5.849 -5.261,-5.859C-6.559,-5.878 -7.856,-5.911 -9.155,-5.912C-9.197,-5.912 -9.22,-5.934 -9.234,-5.963C-9.315,-5.961 -9.396,-5.952 -9.478,-5.952C-9.361,-5.423 -8.979,-4.969 -8.512,-4.688C-8.211,-4.507 -7.876,-4.407 -7.534,-4.328C-7.133,-4.236 -6.723,-4.187 -6.312,-4.169C-5.953,-4.151 -5.596,-4.163 -5.237,-4.171C-4.953,-4.177 -4.654,-4.213 -4.385,-4.1C-4.135,-3.997 -4.001,-3.805 -3.937,-3.553C-3.879,-3.327 -3.88,-3.041 -3.704,-2.863C-3.538,-2.696 -3.284,-2.632 -3.059,-2.587C-2.806,-2.537 -2.547,-2.514 -2.292,-2.473C-1.927,-2.414 -1.589,-2.3 -1.368,-1.993C-1.182,-1.735 -1.11,-1.41 -1.066,-1.102C-1.017,-0.751 -1.003,-0.396 -0.967,-0.044C-0.936,0.259 -0.894,0.589 -0.73,0.855C-0.581,1.098 -0.335,1.195 -0.061,1.208C0.217,0.074 0.007,-1.132 -0.062,-2.277C-0.112,-3.128 0.04,-3.971 0,-4.822" style="fill:white;fill-rule:nonzero;"/>
                    </g>
                </g>
            </g>
            <g transform="matrix(4.16667,0,0,4.16667,1575.54,2415.61)">
                <path d="M0,5.451C0.035,4.319 -0.027,2.77 0.645,1.78C1.519,0.493 3.356,0.642 4.728,0.615C6.407,0.582 8.347,0.245 9.302,1.971C9.873,3.002 9.761,4.262 9.876,5.393C9.918,5.804 10.482,5.809 10.519,5.393C10.643,3.954 10.503,2.107 9.52,0.961C8.325,-0.432 6.365,-0.142 4.728,-0.111C3.303,-0.084 1.451,-0.175 0.368,0.955C-0.729,2.098 -0.676,3.989 -0.669,5.451C-0.667,5.883 -0.014,5.881 0,5.451" style="fill:rgb(35,31,32);fill-rule:nonzero;"/>
            </g>
            <g transform="matrix(4.16667,0,0,4.16667,1572.3,2512.7)">
                <path d="M0,-5.498C-0.216,-3.999 -0.051,-2.184 1.01,-1.003C2.304,0.437 4.434,0.167 6.163,0.034C7.661,-0.081 9.511,0.227 10.535,-1.127C11.429,-2.307 11.449,-4.151 11.235,-5.545C11.176,-5.935 10.586,-5.819 10.572,-5.455C10.537,-4.5 10.674,-3.458 10.361,-2.538C9.664,-0.479 7.612,-0.829 5.806,-0.686C4.312,-0.567 2.497,-0.363 1.447,-1.657C0.585,-2.722 0.646,-4.219 0.407,-5.498C0.37,-5.695 0.029,-5.703 0,-5.498" style="fill:rgb(35,31,32);fill-rule:nonzero;"/>
            </g>
            <g transform="matrix(4.16667,0,0,4.16667,1697.47,2481.03)">
                <path d="M0,-15.975C-2.252,-13.532 -5.386,-10.312 -5.066,-6.666C-4.826,-3.93 -2.801,-0.669 -0.033,-0.035C0.32,0.046 0.472,-0.497 0.117,-0.579C-3.846,-1.483 -5.195,-6.873 -3.771,-10.08C-2.828,-12.205 -1.204,-13.993 0.088,-15.908C0.123,-15.959 0.043,-16.021 0,-15.975" style="fill:rgb(35,31,32);fill-rule:nonzero;"/>
            </g>
            <g transform="matrix(4.16667,0,0,4.16667,1697.34,2479.74)">
                <path d="M0,-15.596C-0.428,-13.909 -0.014,-12.706 0.851,-11.222C2.795,-7.882 4.395,-2.7 -0.211,-0.432C-0.548,-0.266 -0.252,0.239 0.084,0.073C2.204,-0.974 3.255,-3.197 3.453,-5.516C3.777,-9.324 -0.221,-11.73 0.361,-15.496C0.396,-15.728 0.061,-15.835 0,-15.596" style="fill:rgb(35,31,32);fill-rule:nonzero;"/>
            </g>
            <g transform="matrix(-4.15979,-0.239358,-0.239358,4.15979,1681.87,2526.15)">
                <path d="M-0.706,-12.453C-0.35,-8.384 -0.231,-4.278 -0.09,-0.198C-0.077,0.2 -0.691,0.16 -0.706,-0.233C-0.864,-4.29 -1.047,-8.37 -0.992,-12.431C-0.99,-12.59 -0.721,-12.617 -0.706,-12.453" style="fill:rgb(35,31,32);fill-rule:nonzero;"/>
            </g>
            <g transform="matrix(4.16667,0,0,4.16667,1683.81,2536.25)">
                <path d="M0,-2.622C-0.558,-2.507 -0.925,-1.995 -0.852,-1.411C-0.777,-0.82 -0.24,-0.524 0.282,-0.381C1.623,-0.01 3.641,0.07 4.806,-0.804C5.142,-1.056 4.851,-1.604 4.468,-1.382C3.749,-0.963 2.974,-0.854 2.15,-0.864C1.744,-0.87 1.334,-0.901 0.933,-0.964C0.651,-1.008 -0.98,-1.339 0.234,-2.064C0.54,-2.247 0.333,-2.692 0,-2.622" style="fill:rgb(35,31,32);fill-rule:nonzero;"/>
            </g>
            <g transform="matrix(-4.15108,0.360013,0.360013,4.15108,1704.46,2524.9)">
                <path d="M0.513,-11.475C0.72,-7.683 0.911,-3.887 1.121,-0.093C1.143,0.296 0.545,0.351 0.513,-0.04C0.21,-3.816 -0.183,-7.71 0.039,-11.497C0.054,-11.769 0.499,-11.742 0.513,-11.475" style="fill:rgb(35,31,32);fill-rule:nonzero;"/>
            </g>
            <g transform="matrix(4.16667,0,0,4.16667,1700.77,2530.02)">
                <path d="M0,-0.622C0.296,-0.662 0.608,-0.245 0.486,0.027C0.3,0.445 0.89,0.699 1.068,0.273C1.395,-0.504 0.619,-1.321 -0.159,-1.197C-0.319,-1.172 -0.405,-0.974 -0.368,-0.83C-0.322,-0.657 -0.159,-0.6 0,-0.622" style="fill:rgb(35,31,32);fill-rule:nonzero;"/>
            </g>
            <g transform="matrix(4.16667,0,0,4.16667,1682.04,2794.06)">
                <path d="M0,-62.605C-1.135,-48.842 -1.731,-34.937 -1.624,-21.126C-1.59,-16.756 -1.124,-12.38 -0.512,-8.057C-0.259,-6.274 -0.197,-0.598 1.994,0.203C2.534,0.4 2.768,-0.463 2.231,-0.658C-0.057,-1.488 -0.243,-12.654 -0.433,-14.542C-0.813,-18.326 -0.957,-22.078 -0.926,-25.88C-0.825,-38.123 -0.344,-50.401 0.624,-62.605C0.655,-63.005 0.033,-63.002 0,-62.605" style="fill:rgb(35,31,32);fill-rule:nonzero;"/>
            </g>
            <g transform="matrix(4.16667,0,0,4.16667,1700.47,2793.99)">
                <path d="M0,-62.587C0.918,-50.646 0.81,-38.599 0.604,-26.632C0.534,-22.503 0.387,-18.379 0.061,-14.262C-0.114,-12.06 0.116,-1.588 -2.198,-0.595C-2.725,-0.369 -2.271,0.401 -1.748,0.176C0.167,-0.651 0.082,-5.919 0.29,-7.701C0.841,-12.418 1.124,-17.149 1.2,-21.894C1.417,-35.441 1.706,-49.068 0.624,-62.587C0.592,-62.984 -0.03,-62.988 0,-62.587" style="fill:rgb(35,31,32);fill-rule:nonzero;"/>
            </g>
            <g transform="matrix(0,4.16667,4.16667,0,1839.44,2606.79)">
                <path d="M-45.305,-45.305L45.305,-45.305" style="fill:none;fill-rule:nonzero;stroke:rgb(56,198,244);stroke-width:1px;stroke-linejoin:miter;stroke-miterlimit:4;"/>
            </g>
            <g transform="matrix(4.16667,0,0,4.16667,1643.04,2417.07)">
                <path d="M0,0L3.665,0" style="fill:none;fill-rule:nonzero;stroke:rgb(56,198,244);stroke-width:1px;stroke-linejoin:miter;stroke-miterlimit:4;"/>
            </g>
            <g transform="matrix(4.16667,0,0,4.16667,1643.04,2797.09)">
                <path d="M0,0L3.665,0" style="fill:none;fill-rule:nonzero;stroke:rgb(56,198,244);stroke-width:1px;stroke-linejoin:miter;stroke-miterlimit:4;"/>
            </g>
        </g>
    </g>
</svg>
