<?xml version="1.0" encoding="UTF-8" standalone="no"?>
<!DOCTYPE svg PUBLIC "-//W3C//DTD SVG 1.1//EN" "http://www.w3.org/Graphics/SVG/1.1/DTD/svg11.dtd">
<svg width="100%" height="100%" viewBox="0 0 641 383" version="1.1" xmlns="http://www.w3.org/2000/svg" xmlns:xlink="http://www.w3.org/1999/xlink" xml:space="preserve" xmlns:serif="http://www.serif.com/" style="fill-rule:evenodd;clip-rule:evenodd;stroke-linejoin:round;stroke-miterlimit:2;">
    <g transform="matrix(1,0,0,1,-1634,-992)">
        <g transform="matrix(4.16667,0,0,4.16667,0,0)">
            <g transform="matrix(130.186,0,0,-97.4185,521.688,315.225)">
                <rect x="-0.994" y="-0.152" width="1.181" height="0.941" style="fill:url(#_Radial1);"/>
            </g>
            <g transform="matrix(1,0,0,1,479.816,321.76)">
                <path d="M0,-74.424L-45.476,-62.422C-46.089,-62.257 -46.432,-61.603 -46.217,-61.005L-25.202,-1.101C-24.945,-0.386 -24.171,0 -23.445,-0.225L24.969,-12.98C25.469,-13.135 25.727,-13.687 25.523,-14.17L0,-74.424Z" style="fill:white;fill-rule:nonzero;"/>
            </g>
            <g transform="matrix(1,0,0,1,434.368,309.72)">
                <path d="M0,-50.377C-0.613,-50.212 -0.955,-49.559 -0.741,-48.961L20.261,10.919C20.516,11.628 21.299,12.007 22.019,11.784L70.403,-0.959C70.903,-1.114 71.161,-1.666 70.958,-2.149L45.448,-62.384L0,-50.377Z" style="fill:rgb(253,253,253);fill-rule:nonzero;"/>
            </g>
            <g transform="matrix(1,0,0,1,434.394,309.682)">
                <path d="M0,-50.333C-0.612,-50.168 -0.953,-49.517 -0.739,-48.919L20.249,10.938C20.501,11.641 21.294,12.013 22.008,11.792L70.363,-0.939C70.863,-1.094 71.121,-1.646 70.918,-2.129L45.422,-62.346L0,-50.333Z" style="fill:rgb(251,251,251);fill-rule:nonzero;"/>
            </g>
            <g transform="matrix(1,0,0,1,434.421,309.644)">
                <path d="M0,-50.29C-0.612,-50.125 -0.953,-49.474 -0.739,-48.878L20.236,10.956C20.486,11.653 21.289,12.018 21.996,11.799L70.322,-0.92C70.822,-1.075 71.08,-1.627 70.877,-2.11L45.395,-62.308L0,-50.29Z" style="fill:rgb(249,249,249);fill-rule:nonzero;"/>
            </g>
            <g transform="matrix(1,0,0,1,434.448,309.606)">
                <path d="M0,-50.247C-0.61,-50.083 -0.951,-49.433 -0.738,-48.837L20.225,10.974C20.473,11.666 21.284,12.023 21.986,11.805L70.282,-0.901C70.782,-1.056 71.04,-1.608 70.837,-2.091L45.368,-62.27L0,-50.247Z" style="fill:rgb(247,247,247);fill-rule:nonzero;"/>
            </g>
            <g transform="matrix(1,0,0,1,434.474,309.568)">
                <path d="M0,-50.204C-0.609,-50.04 -0.949,-49.391 -0.736,-48.796L20.213,10.992C20.458,11.677 21.28,12.028 21.976,11.812L70.242,-0.882C70.742,-1.037 71,-1.589 70.797,-2.072L45.342,-62.232L0,-50.204Z" style="fill:rgb(245,245,245);fill-rule:nonzero;"/>
            </g>
            <g transform="matrix(1,0,0,1,434.501,309.53)">
                <path d="M0,-50.161C-0.609,-49.997 -0.949,-49.349 -0.736,-48.755L20.199,11.01C20.443,11.69 21.274,12.033 21.964,11.819L70.201,-0.863C70.701,-1.018 70.959,-1.57 70.756,-2.053L45.314,-62.194L0,-50.161Z" style="fill:rgb(241,242,242);fill-rule:nonzero;"/>
            </g>
            <g transform="matrix(1,0,0,1,434.528,309.492)">
                <path d="M0,-50.117C-0.608,-49.953 -0.947,-49.306 -0.735,-48.713L20.187,11.029C20.43,11.703 21.27,12.039 21.953,11.827L70.161,-0.844C70.661,-0.998 70.919,-1.55 70.717,-2.033L45.288,-62.156L0,-50.117Z" style="fill:rgb(239,240,241);fill-rule:nonzero;"/>
            </g>
            <g transform="matrix(1,0,0,1,434.555,309.454)">
                <path d="M0,-50.074C-0.607,-49.911 -0.946,-49.264 -0.734,-48.672L20.175,11.047C20.415,11.715 21.265,12.044 21.942,11.834L70.12,-0.824C70.62,-0.979 70.878,-1.532 70.676,-2.014L45.261,-62.118L0,-50.074Z" style="fill:rgb(237,238,239);fill-rule:nonzero;"/>
            </g>
            <g transform="matrix(1,0,0,1,434.581,309.416)">
                <path d="M0,-50.031C-0.606,-49.868 -0.944,-49.222 -0.733,-48.631L20.163,11.065C20.4,11.727 21.26,12.049 21.932,11.841L70.08,-0.805C70.58,-0.96 70.838,-1.512 70.636,-1.994L45.234,-62.08L0,-50.031Z" style="fill:rgb(236,236,237);fill-rule:nonzero;"/>
            </g>
            <g transform="matrix(1,0,0,1,434.608,309.378)">
                <path d="M0,-49.988C-0.605,-49.825 -0.943,-49.18 -0.732,-48.59L20.151,11.083C20.387,11.739 21.256,12.054 21.921,11.847L70.04,-0.787C70.54,-0.941 70.798,-1.493 70.596,-1.976L45.208,-62.042L0,-49.988Z" style="fill:rgb(234,235,236);fill-rule:nonzero;"/>
            </g>
            <g transform="matrix(1,0,0,1,434.635,309.34)">
                <path d="M0,-49.945C-0.605,-49.782 -0.942,-49.138 -0.731,-48.548L20.139,11.101C20.372,11.752 21.25,12.059 21.909,11.854L69.999,-0.767C70.499,-0.922 70.757,-1.474 70.555,-1.956L45.181,-62.004L0,-49.945Z" style="fill:rgb(232,233,234);fill-rule:nonzero;"/>
            </g>
            <g transform="matrix(1,0,0,1,434.661,309.303)">
                <path d="M0,-49.902C-0.604,-49.739 -0.94,-49.096 -0.73,-48.507L20.127,11.119C20.357,11.764 21.245,12.064 21.899,11.861L69.959,-0.749C70.459,-0.903 70.717,-1.455 70.515,-1.938L45.154,-61.966L0,-49.902Z" style="fill:rgb(231,232,233);fill-rule:nonzero;"/>
            </g>
            <g transform="matrix(1,0,0,1,434.688,309.264)">
                <path d="M0,-49.858C-0.603,-49.696 -0.939,-49.053 -0.729,-48.465L20.115,11.138C20.344,11.777 21.241,12.07 21.889,11.869L69.919,-0.729C70.419,-0.883 70.677,-1.435 70.475,-1.918L45.128,-61.928L0,-49.858Z" style="fill:rgb(229,230,231);fill-rule:nonzero;"/>
            </g>
            <g transform="matrix(1,0,0,1,434.715,309.226)">
                <path d="M0,-49.815C-0.603,-49.653 -0.938,-49.011 -0.729,-48.424L20.103,11.157C20.329,11.789 21.235,12.075 21.877,11.876L69.878,-0.71C70.378,-0.864 70.636,-1.416 70.434,-1.898L45.101,-61.89L0,-49.815Z" style="fill:rgb(227,228,229);fill-rule:nonzero;"/>
            </g>
            <g transform="matrix(1,0,0,1,434.742,309.188)">
                <path d="M0,-49.772C-0.602,-49.61 -0.937,-48.97 -0.728,-48.383L20.09,11.174C20.315,11.801 21.23,12.08 21.866,11.882L69.838,-0.691C70.338,-0.845 70.596,-1.397 70.394,-1.879L45.074,-61.852L0,-49.772Z" style="fill:rgb(225,226,227);fill-rule:nonzero;"/>
            </g>
            <g transform="matrix(1,0,0,1,434.769,309.149)">
                <path d="M0,-49.728C-0.601,-49.566 -0.936,-48.927 -0.728,-48.341L20.077,11.193C20.3,11.814 21.226,12.085 21.855,11.89L69.797,-0.671C70.297,-0.825 70.555,-1.377 70.353,-1.859L45.047,-61.813L0,-49.728Z" style="fill:rgb(223,224,225);fill-rule:nonzero;"/>
            </g>
            <g transform="matrix(1,0,0,1,434.795,309.111)">
                <path d="M0,-49.685C-0.6,-49.523 -0.935,-48.885 -0.726,-48.3L20.065,11.212C20.286,11.826 21.221,12.09 21.845,11.898L69.757,-0.652C70.257,-0.806 70.515,-1.358 70.313,-1.84L45.021,-61.775L0,-49.685Z" style="fill:rgb(222,223,224);fill-rule:nonzero;"/>
            </g>
            <g transform="matrix(1,0,0,1,434.822,309.073)">
                <path d="M0,-49.641C-0.599,-49.48 -0.933,-48.842 -0.725,-48.258L20.054,11.231C20.272,11.839 21.217,12.096 21.834,11.905L69.717,-0.632C70.217,-0.787 70.475,-1.338 70.273,-1.82L44.994,-61.737L0,-49.641Z" style="fill:rgb(220,221,222);fill-rule:nonzero;"/>
            </g>
            <g transform="matrix(1,0,0,1,434.849,309.035)">
                <path d="M0,-49.599C-0.599,-49.437 -0.932,-48.801 -0.725,-48.217L20.041,11.248C20.257,11.851 21.211,12.101 21.823,11.911L69.676,-0.614C70.176,-0.768 70.434,-1.319 70.232,-1.802L44.967,-61.7L0,-49.599Z" style="fill:rgb(218,219,221);fill-rule:nonzero;"/>
            </g>
            <g transform="matrix(1,0,0,1,434.875,308.998)">
                <path d="M0,-49.556C-0.597,-49.395 -0.931,-48.759 -0.723,-48.176L20.029,11.266C20.243,11.863 21.206,12.106 21.812,11.918L69.636,-0.595C70.136,-0.749 70.394,-1.301 70.192,-1.783L44.94,-61.662L0,-49.556Z" style="fill:rgb(217,218,219);fill-rule:nonzero;"/>
            </g>
            <g transform="matrix(1,0,0,1,434.903,308.959)">
                <path d="M0,-49.512C-0.597,-49.351 -0.93,-48.716 -0.723,-48.135L20.017,11.285C20.229,11.876 21.201,12.111 21.801,11.926L69.595,-0.575C70.095,-0.729 70.353,-1.281 70.151,-1.763L44.913,-61.623L0,-49.512Z" style="fill:rgb(215,216,218);fill-rule:nonzero;"/>
            </g>
            <g transform="matrix(1,0,0,1,434.929,308.921)">
                <path d="M0,-49.469C-0.596,-49.308 -0.928,-48.674 -0.722,-48.093L20.005,11.303C20.215,11.888 21.196,12.116 21.79,11.932L69.555,-0.556C70.055,-0.71 70.313,-1.261 70.111,-1.744L44.887,-61.585L0,-49.469Z" style="fill:rgb(213,215,216);fill-rule:nonzero;"/>
            </g>
            <g transform="matrix(1,0,0,1,434.955,308.882)">
                <path d="M0,-49.425C-0.595,-49.264 -0.927,-48.632 -0.72,-48.051L19.993,11.322C20.2,11.901 21.192,12.122 21.78,11.94L69.515,-0.536C70.015,-0.69 70.272,-1.241 70.071,-1.724L44.86,-61.547L0,-49.425Z" style="fill:rgb(212,213,215);fill-rule:nonzero;"/>
            </g>
            <g transform="matrix(1,0,0,1,434.983,308.845)">
                <path d="M0,-49.382C-0.594,-49.222 -0.926,-48.59 -0.72,-48.01L19.979,11.34C20.186,11.913 21.187,12.127 21.769,11.947L69.474,-0.518C69.974,-0.672 70.232,-1.223 70.03,-1.705L44.833,-61.509L0,-49.382Z" style="fill:rgb(210,211,213);fill-rule:nonzero;"/>
            </g>
            <g transform="matrix(1,0,0,1,435.009,308.807)">
                <path d="M0,-49.339C-0.593,-49.179 -0.924,-48.547 -0.719,-47.968L19.968,11.358C20.172,11.926 21.182,12.132 21.758,11.954L69.434,-0.498C69.934,-0.652 70.192,-1.203 69.99,-1.686L44.807,-61.471L0,-49.339Z" style="fill:rgb(207,209,211);fill-rule:nonzero;"/>
            </g>
            <g transform="matrix(1,0,0,1,435.036,308.769)">
                <path d="M0,-49.296C-0.593,-49.136 -0.923,-48.506 -0.718,-47.928L19.955,11.376C20.156,11.937 21.177,12.137 21.746,11.96L69.393,-0.48C69.893,-0.633 70.151,-1.185 69.949,-1.667L44.779,-61.433L0,-49.296Z" style="fill:rgb(206,207,209);fill-rule:nonzero;"/>
            </g>
            <g transform="matrix(1,0,0,1,435.063,308.732)">
                <path d="M0,-49.254C-0.592,-49.094 -0.922,-48.464 -0.717,-47.887L19.943,11.393C20.143,11.949 21.172,12.142 21.736,11.967L69.353,-0.462C69.853,-0.615 70.111,-1.166 69.909,-1.649L44.753,-61.396L0,-49.254Z" style="fill:rgb(204,206,208);fill-rule:nonzero;"/>
            </g>
            <g transform="matrix(1,0,0,1,435.089,308.693)">
                <path d="M0,-49.21C-0.59,-49.05 -0.92,-48.422 -0.716,-47.845L19.932,11.413C20.129,11.962 21.168,12.147 21.726,11.975L69.313,-0.441C69.813,-0.595 70.071,-1.146 69.869,-1.629L44.727,-61.357L0,-49.21Z" style="fill:rgb(202,204,206);fill-rule:nonzero;"/>
            </g>
            <g transform="matrix(1,0,0,1,435.117,308.655)">
                <path d="M0,-49.166C-0.59,-49.007 -0.919,-48.379 -0.715,-47.803L19.919,11.431C20.114,11.975 21.162,12.153 21.714,11.982L69.271,-0.422C69.771,-0.576 70.03,-1.126 69.829,-1.609L44.699,-61.319L0,-49.166Z" style="fill:rgb(201,202,204);fill-rule:nonzero;"/>
            </g>
            <g transform="matrix(1,0,0,1,435.143,308.617)">
                <path d="M0,-49.123C-0.589,-48.964 -0.918,-48.337 -0.714,-47.762L19.907,11.45C20.1,11.987 21.157,12.158 21.703,11.989L69.231,-0.402C69.731,-0.556 69.99,-1.107 69.789,-1.589L44.673,-61.281L0,-49.123Z" style="fill:rgb(199,201,203);fill-rule:nonzero;"/>
            </g>
            <g transform="matrix(1,0,0,1,435.17,308.579)">
                <path d="M0,-49.08C-0.589,-48.921 -0.917,-48.295 -0.714,-47.721L19.895,11.467C20.085,12 21.152,12.163 21.692,11.996L69.19,-0.384C69.69,-0.538 69.949,-1.088 69.748,-1.571L44.646,-61.243L0,-49.08Z" style="fill:rgb(197,199,201);fill-rule:nonzero;"/>
            </g>
            <g transform="matrix(1,0,0,1,435.197,308.542)">
                <path d="M0,-49.038C-0.587,-48.879 -0.915,-48.254 -0.712,-47.681L19.883,11.485C20.071,12.011 21.147,12.168 21.682,12.002L69.151,-0.366C69.65,-0.519 69.909,-1.07 69.708,-1.552L44.619,-61.206L0,-49.038Z" style="fill:rgb(196,198,200);fill-rule:nonzero;"/>
            </g>
            <g transform="matrix(1,0,0,1,435.223,308.503)">
                <path d="M0,-48.994C-0.586,-48.835 -0.913,-48.211 -0.711,-47.639L19.87,11.504C20.057,12.024 21.144,12.173 21.671,12.009L69.111,-0.346C69.61,-0.499 69.869,-1.05 69.668,-1.533L44.593,-61.167L0,-48.994Z" style="fill:rgb(193,195,197);fill-rule:nonzero;"/>
            </g>
            <g transform="matrix(1,0,0,1,435.25,308.465)">
                <path d="M0,-48.95C-0.586,-48.792 -0.913,-48.169 -0.711,-47.596L19.857,11.523C20.042,12.037 21.138,12.179 21.659,12.017L69.07,-0.326C69.569,-0.479 69.828,-1.03 69.627,-1.512L44.565,-61.129L0,-48.95Z" style="fill:rgb(192,193,196);fill-rule:nonzero;"/>
            </g>
            <g transform="matrix(1,0,0,1,435.277,308.426)">
                <path d="M0,-48.907C-0.585,-48.749 -0.911,-48.126 -0.709,-47.555L19.846,11.541C20.028,12.049 21.133,12.184 21.649,12.024L69.03,-0.307C69.529,-0.46 69.788,-1.011 69.587,-1.493L44.539,-61.091L0,-48.907Z" style="fill:rgb(190,192,194);fill-rule:nonzero;"/>
            </g>
            <g transform="matrix(1,0,0,1,435.304,308.389)">
                <path d="M0,-48.864C-0.584,-48.706 -0.91,-48.085 -0.709,-47.514L19.833,11.559C20.014,12.061 21.128,12.189 21.638,12.031L68.989,-0.288C69.488,-0.442 69.747,-0.992 69.546,-1.474L44.512,-61.053L0,-48.864Z" style="fill:rgb(188,190,192);fill-rule:nonzero;"/>
            </g>
            <g transform="matrix(1,0,0,1,435.33,308.351)">
                <path d="M0,-48.821C-0.583,-48.663 -0.909,-48.043 -0.708,-47.473L19.821,11.577C19.999,12.073 21.123,12.194 21.627,12.037L68.949,-0.269C69.448,-0.423 69.707,-0.973 69.506,-1.455L44.485,-61.015L0,-48.821Z" style="fill:rgb(187,189,191);fill-rule:nonzero;"/>
            </g>
            <g transform="matrix(1,0,0,1,435.357,308.313)">
                <path d="M0,-48.778C-0.582,-48.62 -0.907,-48.001 -0.706,-47.432L19.81,11.595C19.985,12.086 21.119,12.199 21.616,12.045L68.909,-0.25C69.408,-0.403 69.667,-0.954 69.466,-1.436L44.459,-60.977L0,-48.778Z" style="fill:rgb(185,187,189);fill-rule:nonzero;"/>
            </g>
            <g transform="matrix(1,0,0,1,435.384,308.274)">
                <path d="M0,-48.734C-0.582,-48.577 -0.906,-47.958 -0.706,-47.39L19.797,11.614C19.971,12.099 21.113,12.205 21.605,12.052L68.868,-0.23C69.367,-0.383 69.626,-0.934 69.426,-1.416L44.432,-60.939L0,-48.734Z" style="fill:rgb(183,185,188);fill-rule:nonzero;"/>
            </g>
            <g transform="matrix(1,0,0,1,435.41,308.237)">
                <path d="M0,-48.692C-0.58,-48.534 -0.904,-47.917 -0.705,-47.35L19.785,11.631C19.957,12.11 21.108,12.209 21.595,12.058L68.828,-0.212C69.327,-0.365 69.586,-0.916 69.386,-1.398L44.405,-60.901L0,-48.692Z" style="fill:rgb(182,184,186);fill-rule:nonzero;"/>
            </g>
            <g transform="matrix(1,0,0,1,435.437,308.199)">
                <path d="M0,-48.648C-0.579,-48.491 -0.903,-47.874 -0.703,-47.308L19.772,11.65C19.942,12.123 21.104,12.215 21.584,12.066L68.788,-0.192C69.287,-0.345 69.546,-0.896 69.346,-1.378L44.379,-60.863L0,-48.648Z" style="fill:rgb(180,182,184);fill-rule:nonzero;"/>
            </g>
            <g transform="matrix(1,0,0,1,435.464,308.161)">
                <path d="M0,-48.605C-0.579,-48.448 -0.902,-47.833 -0.703,-47.267L19.76,11.668C19.928,12.135 21.099,12.22 21.572,12.073L68.747,-0.173C69.246,-0.327 69.505,-0.877 69.305,-1.359L44.352,-60.825L0,-48.605Z" style="fill:rgb(178,180,183);fill-rule:nonzero;"/>
            </g>
            <g transform="matrix(1,0,0,1,435.491,308.123)">
                <path d="M0,-48.562C-0.578,-48.405 -0.9,-47.79 -0.702,-47.225L19.748,11.687C19.914,12.147 21.095,12.225 21.562,12.08L68.707,-0.154C69.206,-0.307 69.465,-0.857 69.265,-1.34L44.325,-60.787L0,-48.562Z" style="fill:rgb(176,178,180);fill-rule:nonzero;"/>
            </g>
            <g transform="matrix(1,0,0,1,435.518,308.085)">
                <path d="M0,-48.519C-0.577,-48.362 -0.9,-47.748 -0.701,-47.185L19.735,11.704C19.898,12.159 21.089,12.23 21.551,12.086L68.666,-0.135C69.165,-0.289 69.424,-0.839 69.224,-1.321L44.298,-60.749L0,-48.519Z" style="fill:rgb(174,176,179);fill-rule:nonzero;"/>
            </g>
            <g transform="matrix(1,0,0,1,435.544,308.046)">
                <path d="M0,-48.474C-0.576,-48.318 -0.898,-47.705 -0.7,-47.141L19.724,11.724C19.885,12.173 21.084,12.236 21.54,12.095L68.626,-0.115C69.125,-0.268 69.384,-0.818 69.184,-1.3L44.271,-60.71L0,-48.474Z" style="fill:rgb(173,175,177);fill-rule:nonzero;"/>
            </g>
            <g transform="matrix(1,0,0,1,435.571,308.009)">
                <path d="M0,-48.432C-0.575,-48.276 -0.896,-47.663 -0.699,-47.101L19.712,11.742C19.871,12.185 21.08,12.241 21.529,12.101L68.586,-0.097C69.085,-0.249 69.344,-0.8 69.144,-1.282L44.245,-60.673L0,-48.432Z" style="fill:rgb(171,173,176);fill-rule:nonzero;"/>
            </g>
            <g transform="matrix(1,0,0,1,435.598,307.971)">
                <path d="M0,-48.389C-0.575,-48.233 -0.896,-47.622 -0.698,-47.06L19.699,11.759C19.856,12.197 21.074,12.246 21.519,12.108L68.545,-0.077C69.044,-0.231 69.303,-0.781 69.103,-1.263L44.218,-60.635L0,-48.389Z" style="fill:rgb(169,172,174);fill-rule:nonzero;"/>
            </g>
            <g transform="matrix(1,0,0,1,435.624,307.933)">
                <path d="M0,-48.346C-0.573,-48.19 -0.895,-47.579 -0.697,-47.019L19.687,11.778C19.842,12.209 21.07,12.251 21.508,12.115L68.505,-0.058C69.004,-0.211 69.263,-0.761 69.063,-1.243L44.191,-60.597L0,-48.346Z" style="fill:rgb(168,170,173);fill-rule:nonzero;"/>
            </g>
            <g transform="matrix(1,0,0,1,435.652,307.895)">
                <path d="M0,-48.303C-0.573,-48.147 -0.894,-47.538 -0.697,-46.978L19.675,11.796C19.827,12.221 21.064,12.256 21.496,12.122L68.464,-0.04C68.963,-0.193 69.222,-0.742 69.021,-1.225L44.164,-60.559L0,-48.303Z" style="fill:rgb(166,168,171);fill-rule:nonzero;"/>
            </g>
            <g transform="matrix(1,0,0,1,435.678,307.857)">
                <path d="M0,-48.259C-0.572,-48.104 -0.892,-47.495 -0.695,-46.936L19.662,11.815C19.813,12.234 21.06,12.262 21.485,12.129L68.424,-0.02C68.923,-0.173 69.182,-0.722 68.982,-1.205L44.138,-60.521L0,-48.259Z" style="fill:rgb(165,167,169);fill-rule:nonzero;"/>
            </g>
            <g transform="matrix(1,0,0,1,435.704,307.819)">
                <path d="M0,-48.216C-0.571,-48.061 -0.891,-47.453 -0.694,-46.894L19.65,11.833C19.799,12.247 21.056,12.267 21.476,12.137L68.384,-0.001C68.883,-0.153 69.143,-0.703 68.942,-1.186L44.111,-60.483L0,-48.216Z" style="fill:rgb(163,165,168);fill-rule:nonzero;"/>
            </g>
            <g transform="matrix(1,0,0,1,435.732,307.78)">
                <path d="M0,-48.172C-0.57,-48.017 -0.89,-47.41 -0.694,-46.852L19.638,11.852C19.784,12.26 21.05,12.272 21.464,12.144L68.343,0.019C68.842,-0.133 69.102,-0.683 68.901,-1.166L44.084,-60.444L0,-48.172Z" style="fill:rgb(161,163,165);fill-rule:nonzero;"/>
            </g>
            <g transform="matrix(1,0,0,1,435.758,307.743)">
                <path d="M0,-48.13C-0.569,-47.975 -0.888,-47.369 -0.692,-46.812L19.626,11.869C19.771,12.271 21.046,12.277 21.453,12.15L68.303,0.037C68.802,-0.115 69.062,-0.665 68.861,-1.147L44.058,-60.407L0,-48.13Z" style="fill:rgb(159,161,164);fill-rule:nonzero;"/>
            </g>
            <g transform="matrix(1,0,0,1,435.785,307.706)">
                <path d="M0,-48.088C-0.569,-47.933 -0.888,-47.328 -0.692,-46.772L19.613,11.886C19.756,12.282 21.04,12.281 21.441,12.156L68.262,0.055C68.761,-0.097 69.021,-0.647 68.82,-1.13L44.03,-60.37L0,-48.088Z" style="fill:rgb(158,160,162);fill-rule:nonzero;"/>
            </g>
            <g transform="matrix(1,0,0,1,435.812,307.674)">
                <path d="M0,-48.051C-0.568,-47.897 -0.886,-47.293 -0.691,-46.737L19.602,11.898C19.741,12.288 21.035,12.279 21.432,12.157L68.222,0.068C68.721,-0.085 68.98,-0.634 68.78,-1.116L44.004,-60.339L0,-48.051Z" style="fill:rgb(156,158,161);fill-rule:nonzero;"/>
            </g>
            <g transform="matrix(1,0,0,1,435.838,307.645)">
                <path d="M0,-48.017C-0.566,-47.862 -0.884,-47.259 -0.689,-46.705L19.59,11.907C19.728,12.292 21.031,12.275 21.421,12.155L68.182,0.078C68.681,-0.075 68.94,-0.624 68.74,-1.106L43.978,-60.309L0,-48.017Z" style="fill:rgb(155,157,159);fill-rule:nonzero;"/>
            </g>
            <g transform="matrix(1,0,0,1,435.866,307.613)">
                <path d="M0,-47.979C-0.566,-47.825 -0.883,-47.223 -0.689,-46.669L19.577,11.92C19.713,12.298 21.025,12.275 21.409,12.156L68.141,0.092C68.64,-0.061 68.899,-0.61 68.699,-1.092L43.95,-60.277L0,-47.979Z" style="fill:rgb(153,155,158);fill-rule:nonzero;"/>
            </g>
            <g transform="matrix(1,0,0,1,435.892,307.583)">
                <path d="M0,-47.944C-0.565,-47.79 -0.882,-47.189 -0.688,-46.636L19.565,11.93C19.698,12.303 21.021,12.272 21.398,12.155L68.101,0.103C68.6,-0.05 68.859,-0.599 68.659,-1.082L43.924,-60.247L0,-47.944Z" style="fill:rgb(151,154,156);fill-rule:nonzero;"/>
            </g>
            <g transform="matrix(1,0,0,1,435.919,307.552)">
                <path d="M0,-47.908C-0.565,-47.754 -0.881,-47.154 -0.687,-46.601L19.552,11.942C19.684,12.308 21.016,12.27 21.388,12.155L68.06,0.115C68.559,-0.037 68.818,-0.587 68.618,-1.069L43.896,-60.216L0,-47.908Z" style="fill:rgb(150,152,155);fill-rule:nonzero;"/>
            </g>
            <g transform="matrix(1,0,0,1,435.946,307.521)">
                <path d="M0,-47.872C-0.563,-47.719 -0.879,-47.119 -0.687,-46.567L19.54,11.952C19.67,12.313 21.011,12.268 21.377,12.155L68.02,0.127C68.519,-0.026 68.778,-0.575 68.578,-1.057L43.87,-60.185L0,-47.872Z" style="fill:rgb(148,150,153);fill-rule:nonzero;"/>
            </g>
            <g transform="matrix(1,0,0,1,435.972,307.49)">
                <path d="M0,-47.836C-0.562,-47.682 -0.878,-47.084 -0.686,-46.533L19.528,11.964C19.656,12.318 21.007,12.267 21.366,12.155L67.979,0.139C68.479,-0.013 68.738,-0.563 68.539,-1.045L43.844,-60.154L0,-47.836Z" style="fill:rgb(146,148,151);fill-rule:nonzero;"/>
            </g>
            <g transform="matrix(1,0,0,1,435.999,307.46)">
                <path d="M0,-47.8C-0.562,-47.647 -0.877,-47.049 -0.685,-46.499L19.516,11.974C19.641,12.324 21.001,12.264 21.354,12.155L67.938,0.151C68.438,-0.002 68.697,-0.551 68.498,-1.033L43.816,-60.124L0,-47.8Z" style="fill:rgb(145,147,149);fill-rule:nonzero;"/>
            </g>
            <g transform="matrix(1,0,0,1,436.026,307.428)">
                <path d="M0,-47.763C-0.562,-47.61 -0.875,-47.013 -0.684,-46.464L19.504,11.987C19.627,12.329 20.996,12.263 21.345,12.155L67.898,0.163C68.397,0.011 68.657,-0.538 68.458,-1.02L43.79,-60.092L0,-47.763Z" style="fill:rgb(143,145,148);fill-rule:nonzero;"/>
            </g>
            <g transform="matrix(1,0,0,1,436.052,307.398)">
                <path d="M0,-47.728C-0.56,-47.575 -0.874,-46.979 -0.683,-46.431L19.492,11.997C19.613,12.334 20.992,12.26 21.334,12.154L67.858,0.175C68.357,0.022 68.617,-0.527 68.418,-1.009L43.764,-60.062L0,-47.728Z" style="fill:rgb(142,144,146);fill-rule:nonzero;"/>
            </g>
            <g transform="matrix(1,0,0,1,436.079,307.367)">
                <path d="M0,-47.692C-0.56,-47.539 -0.873,-46.944 -0.682,-46.397L19.479,12.008C19.598,12.339 20.986,12.258 21.322,12.154L67.817,0.186C68.316,0.034 68.576,-0.515 68.377,-0.997L43.736,-60.031L0,-47.692Z" style="fill:rgb(140,142,145);fill-rule:nonzero;"/>
            </g>
            <g transform="matrix(1,0,0,1,436.106,307.336)">
                <path d="M0,-47.655C-0.559,-47.503 -0.871,-46.909 -0.681,-46.362L19.468,12.02C19.584,12.345 20.982,12.257 21.312,12.155L67.777,0.199C68.276,0.047 68.536,-0.502 68.337,-0.984L43.71,-60L0,-47.655Z" style="fill:rgb(139,141,143);fill-rule:nonzero;"/>
            </g>
            <g transform="matrix(1,0,0,1,436.133,307.305)">
                <path d="M0,-47.619C-0.559,-47.467 -0.87,-46.873 -0.681,-46.327L19.455,12.031C19.569,12.35 20.977,12.255 21.301,12.155L67.736,0.212C68.235,0.059 68.495,-0.49 68.296,-0.972L43.683,-59.969L0,-47.619Z" style="fill:rgb(137,139,142);fill-rule:nonzero;"/>
            </g>
            <g transform="matrix(1,0,0,1,436.16,307.274)">
                <path d="M0,-47.583C-0.557,-47.431 -0.869,-46.839 -0.679,-46.293L19.442,12.042C19.556,12.355 20.972,12.253 21.29,12.154L67.696,0.223C68.195,0.071 68.455,-0.478 68.256,-0.96L43.656,-59.938L0,-47.583Z" style="fill:rgb(136,138,140);fill-rule:nonzero;"/>
            </g>
            <g transform="matrix(1,0,0,1,436.186,307.244)">
                <path d="M0,-47.548C-0.556,-47.396 -0.867,-46.805 -0.678,-46.26L19.431,12.052C19.541,12.36 20.968,12.25 21.279,12.154L67.656,0.235C68.155,0.082 68.415,-0.466 68.216,-0.948L43.63,-59.908L0,-47.548Z" style="fill:rgb(134,136,139);fill-rule:nonzero;"/>
            </g>
            <g transform="matrix(1,0,0,1,436.213,307.212)">
                <path d="M0,-47.511C-0.556,-47.359 -0.866,-46.769 -0.678,-46.225L19.418,12.064C19.526,12.365 20.962,12.249 21.268,12.154L67.615,0.247C68.114,0.095 68.374,-0.453 68.175,-0.936L43.603,-59.876L0,-47.511Z" style="fill:rgb(132,134,136);fill-rule:nonzero;"/>
            </g>
            <g transform="matrix(1,0,0,1,436.24,307.182)">
                <path d="M0,-47.475C-0.555,-47.324 -0.865,-46.734 -0.676,-46.191L19.406,12.075C19.513,12.371 20.958,12.247 21.258,12.154L67.575,0.259C68.074,0.107 68.334,-0.442 68.136,-0.924L43.576,-59.846L0,-47.475Z" style="fill:rgb(130,132,135);fill-rule:nonzero;"/>
            </g>
            <g transform="matrix(1,0,0,1,436.267,307.151)">
                <path d="M0,-47.44C-0.554,-47.289 -0.864,-46.7 -0.676,-46.158L19.394,12.085C19.497,12.375 20.952,12.244 21.246,12.153L67.534,0.27C68.033,0.119 68.293,-0.43 68.095,-0.913L43.549,-59.815L0,-47.44Z" style="fill:rgb(129,131,133);fill-rule:nonzero;"/>
            </g>
            <g transform="matrix(1,0,0,1,436.293,307.12)">
                <path d="M0,-47.403C-0.553,-47.252 -0.862,-46.664 -0.675,-46.123L19.382,12.097C19.483,12.381 20.947,12.243 21.235,12.154L67.494,0.283C67.993,0.131 68.253,-0.418 68.055,-0.9L43.522,-59.784L0,-47.403Z" style="fill:rgb(127,129,132);fill-rule:nonzero;"/>
            </g>
            <g transform="matrix(1,0,0,1,436.32,307.089)">
                <path d="M0,-47.367C-0.552,-47.216 -0.86,-46.629 -0.673,-46.088L19.37,12.109C19.47,12.386 20.943,12.241 21.225,12.154L67.454,0.295C67.953,0.143 68.213,-0.405 68.015,-0.888L43.496,-59.753L0,-47.367Z" style="fill:rgb(126,128,130);fill-rule:nonzero;"/>
            </g>
            <g transform="matrix(1,0,0,1,436.347,307.058)">
                <path d="M0,-47.331C-0.552,-47.18 -0.86,-46.594 -0.673,-46.054L19.357,12.12C19.455,12.391 20.937,12.239 21.214,12.153L67.413,0.307C67.912,0.155 68.172,-0.393 67.974,-0.875L43.469,-59.722L0,-47.331Z" style="fill:rgb(124,126,129);fill-rule:nonzero;"/>
            </g>
            <g transform="matrix(1,0,0,1,436.373,307.027)">
                <path d="M0,-47.295C-0.55,-47.145 -0.858,-46.56 -0.672,-46.021L19.346,12.13C19.44,12.396 20.934,12.237 21.203,12.153L67.373,0.319C67.872,0.167 68.132,-0.381 67.934,-0.863L43.442,-59.691L0,-47.295Z" style="fill:rgb(123,125,127);fill-rule:nonzero;"/>
            </g>
            <g transform="matrix(1,0,0,1,436.401,306.997)">
                <path d="M0,-47.26C-0.55,-47.109 -0.857,-46.526 -0.671,-45.987L19.332,12.141C19.426,12.401 20.928,12.234 21.191,12.152L67.332,0.33C67.831,0.178 68.091,-0.37 67.893,-0.852L43.415,-59.661L0,-47.26Z" style="fill:rgb(121,123,126);fill-rule:nonzero;"/>
            </g>
            <g transform="matrix(1,0,0,1,436.427,306.966)">
                <path d="M0,-47.223C-0.549,-47.073 -0.856,-46.49 -0.67,-45.952L19.32,12.152C19.412,12.407 20.923,12.233 21.181,12.153L67.293,0.343C67.791,0.191 68.052,-0.357 67.853,-0.839L43.389,-59.63L0,-47.223Z" style="fill:rgb(120,122,124);fill-rule:nonzero;"/>
            </g>
            <g transform="matrix(1,0,0,1,436.453,306.935)">
                <path d="M0,-47.187C-0.548,-47.037 -0.854,-46.455 -0.669,-45.918L19.309,12.164C19.397,12.412 20.919,12.23 21.171,12.152L67.253,0.355C67.751,0.203 68.012,-0.345 67.813,-0.828L43.362,-59.599L0,-47.187Z" style="fill:rgb(118,119,122);fill-rule:nonzero;"/>
            </g>
            <g transform="matrix(1,0,0,1,436.481,306.904)">
                <path d="M0,-47.151C-0.547,-47.001 -0.854,-46.42 -0.668,-45.884L19.296,12.175C19.383,12.417 20.913,12.229 21.159,12.153L67.212,0.367C67.71,0.215 67.971,-0.333 67.771,-0.815L43.335,-59.568L0,-47.151Z" style="fill:rgb(116,118,120);fill-rule:nonzero;"/>
            </g>
            <g transform="matrix(1,0,0,1,436.507,306.873)">
                <path d="M0,-47.115C-0.546,-46.965 -0.852,-46.385 -0.667,-45.85L19.284,12.186C19.369,12.422 20.909,12.227 21.148,12.152L67.172,0.379C67.67,0.227 67.931,-0.321 67.731,-0.803L43.309,-59.537L0,-47.115Z" style="fill:rgb(115,116,119);fill-rule:nonzero;"/>
            </g>
            <g transform="matrix(1,0,0,1,436.535,306.842)">
                <path d="M0,-47.079C-0.546,-46.929 -0.852,-46.35 -0.667,-45.815L19.271,12.197C19.354,12.427 20.903,12.225 21.138,12.152L67.131,0.391C67.629,0.239 67.89,-0.309 67.691,-0.791L43.281,-59.506L0,-47.079Z" style="fill:rgb(113,115,117);fill-rule:nonzero;"/>
            </g>
            <g transform="matrix(1,0,0,1,436.561,306.812)">
                <path d="M0,-47.043C-0.545,-46.894 -0.85,-46.315 -0.665,-45.781L19.26,12.208C19.34,12.433 20.898,12.223 21.127,12.152L67.091,0.403C67.589,0.251 67.85,-0.297 67.651,-0.779L43.255,-59.476L0,-47.043Z" style="fill:rgb(112,113,116);fill-rule:nonzero;"/>
            </g>
            <g transform="matrix(1,0,0,1,436.587,306.78)">
                <path d="M0,-47.006C-0.543,-46.857 -0.848,-46.279 -0.664,-45.746L19.248,12.22C19.326,12.438 20.895,12.222 21.116,12.153L67.051,0.415C67.549,0.264 67.81,-0.284 67.611,-0.766L43.229,-59.444L0,-47.006Z" style="fill:rgb(110,112,114);fill-rule:nonzero;"/>
            </g>
            <g transform="matrix(1,0,0,1,436.615,306.75)">
                <path d="M0,-46.971C-0.543,-46.822 -0.848,-46.245 -0.664,-45.713L19.235,12.23C19.312,12.443 20.889,12.219 21.104,12.152L67.01,0.426C67.508,0.275 67.769,-0.273 67.57,-0.755L43.201,-59.414L0,-46.971Z" style="fill:rgb(108,110,112);fill-rule:nonzero;"/>
            </g>
            <g transform="matrix(1,0,0,1,436.641,306.719)">
                <path d="M0,-46.935C-0.542,-46.786 -0.846,-46.21 -0.662,-45.679L19.223,12.241C19.297,12.448 20.885,12.216 21.095,12.151L66.97,0.439C67.468,0.287 67.729,-0.261 67.53,-0.743L43.175,-59.383L0,-46.935Z" style="fill:rgb(107,108,111);fill-rule:nonzero;"/>
            </g>
            <g transform="matrix(1,0,0,1,436.667,306.688)">
                <path d="M0,-46.898C-0.541,-46.75 -0.844,-46.175 -0.661,-45.644L19.211,12.253C19.283,12.454 20.88,12.215 21.084,12.152L66.93,0.451C67.428,0.3 67.688,-0.248 67.49,-0.73L43.148,-59.352L0,-46.898Z" style="fill:rgb(105,107,109);fill-rule:nonzero;"/>
            </g>
            <g transform="matrix(1,0,0,1,436.695,306.657)">
                <path d="M0,-46.863C-0.54,-46.715 -0.844,-46.141 -0.661,-45.611L19.198,12.263C19.269,12.458 20.874,12.213 21.072,12.151L66.889,0.462C67.387,0.311 67.647,-0.237 67.449,-0.719L43.121,-59.321L0,-46.863Z" style="fill:rgb(104,105,107);fill-rule:nonzero;"/>
            </g>
            <g transform="matrix(1,0,0,1,436.721,306.627)">
                <path d="M0,-46.827C-0.539,-46.679 -0.842,-46.106 -0.659,-45.577L19.187,12.274C19.255,12.464 20.87,12.211 21.062,12.151L66.849,0.474C67.347,0.323 67.607,-0.225 67.409,-0.707L43.095,-59.291L0,-46.827Z" style="fill:rgb(101,103,105);fill-rule:nonzero;"/>
            </g>
            <g transform="matrix(1,0,0,1,436.748,306.596)">
                <path d="M0,-46.791C-0.539,-46.643 -0.841,-46.071 -0.659,-45.542L19.174,12.286C19.239,12.469 20.864,12.209 21.051,12.151L66.808,0.486C67.306,0.335 67.566,-0.212 67.368,-0.694L43.067,-59.26L0,-46.791Z" style="fill:rgb(100,101,103);fill-rule:nonzero;"/>
            </g>
            <g transform="matrix(1,0,0,1,436.775,306.565)">
                <path d="M0,-46.755C-0.538,-46.607 -0.839,-46.036 -0.658,-45.508L19.162,12.296C19.226,12.474 20.86,12.206 21.04,12.151L66.768,0.498C67.266,0.347 67.526,-0.201 67.328,-0.683L43.041,-59.229L0,-46.755Z" style="fill:rgb(98,99,102);fill-rule:nonzero;"/>
            </g>
            <g transform="matrix(1,0,0,1,436.801,306.534)">
                <path d="M0,-46.719C-0.536,-46.572 -0.838,-46.001 -0.656,-45.474L19.15,12.307C19.212,12.479 20.855,12.204 21.029,12.15L66.728,0.51C67.226,0.359 67.486,-0.189 67.288,-0.671L43.015,-59.198L0,-46.719Z" style="fill:rgb(96,97,100);fill-rule:nonzero;"/>
            </g>
            <g transform="matrix(1,0,0,1,436.828,306.503)">
                <path d="M0,-46.683C-0.536,-46.536 -0.837,-45.966 -0.656,-45.44L19.138,12.318C19.196,12.484 20.85,12.202 21.018,12.15L66.687,0.522C67.185,0.371 67.445,-0.177 67.248,-0.659L42.987,-59.167L0,-46.683Z" style="fill:rgb(95,96,98);fill-rule:nonzero;"/>
            </g>
            <g transform="matrix(1,0,0,1,436.855,306.472)">
                <path d="M0,-46.646C-0.535,-46.499 -0.835,-45.93 -0.655,-45.405L19.126,12.331C19.183,12.49 20.846,12.201 21.008,12.151L66.646,0.535C67.145,0.384 67.405,-0.164 67.208,-0.646L42.961,-59.136L0,-46.646Z" style="fill:rgb(93,94,96);fill-rule:nonzero;"/>
            </g>
            <g transform="matrix(1,0,0,1,436.882,306.44)">
                <path d="M0,-46.61C-0.535,-46.463 -0.835,-45.895 -0.654,-45.371L19.112,12.342C19.168,12.495 20.84,12.2 20.996,12.151L66.605,0.547C67.104,0.396 67.364,-0.151 67.167,-0.633L42.934,-59.105L0,-46.61Z" style="fill:rgb(91,92,94);fill-rule:nonzero;"/>
            </g>
            <g transform="matrix(1,0,0,1,436.909,306.411)">
                <path d="M0,-46.575C-0.533,-46.428 -0.833,-45.862 -0.653,-45.338L19.101,12.352C19.154,12.5 20.836,12.196 20.985,12.15L66.565,0.558C67.063,0.407 67.324,-0.14 67.127,-0.622L42.907,-59.075L0,-46.575Z" style="fill:rgb(90,90,93);fill-rule:nonzero;"/>
            </g>
            <g transform="matrix(1,0,0,1,436.935,306.379)">
                <path d="M0,-46.538C-0.532,-46.392 -0.831,-45.826 -0.652,-45.303L19.089,12.364C19.14,12.505 20.831,12.195 20.975,12.15L66.525,0.571C67.023,0.42 67.284,-0.127 67.087,-0.609L42.881,-59.043L0,-46.538Z" style="fill:rgb(87,88,90);fill-rule:nonzero;"/>
            </g>
            <g transform="matrix(1,0,0,1,436.962,306.349)">
                <path d="M0,-46.503C-0.532,-46.356 -0.83,-45.792 -0.651,-45.27L19.076,12.374C19.125,12.51 20.825,12.192 20.964,12.15L66.484,0.582C66.982,0.431 67.243,-0.116 67.046,-0.598L42.854,-59.013L0,-46.503Z" style="fill:rgb(85,86,88);fill-rule:nonzero;"/>
            </g>
            <g transform="matrix(1,0,0,1,436.989,306.318)">
                <path d="M0,-46.466C-0.531,-46.32 -0.829,-45.756 -0.65,-45.235L19.064,12.386C19.111,12.516 20.821,12.191 20.953,12.15L66.444,0.595C66.943,0.444 67.203,-0.103 67.006,-0.585L42.827,-58.982L0,-46.466Z" style="fill:rgb(84,84,86);fill-rule:nonzero;"/>
            </g>
            <g transform="matrix(1,0,0,1,437.016,306.287)">
                <path d="M0,-46.43C-0.53,-46.284 -0.828,-45.721 -0.65,-45.201L19.052,12.397C19.096,12.521 20.815,12.189 20.941,12.15L66.403,0.607C66.902,0.456 67.162,-0.092 66.965,-0.574L42.8,-58.951L0,-46.43Z" style="fill:rgb(82,82,84);fill-rule:nonzero;"/>
            </g>
            <g transform="matrix(1,0,0,1,437.042,306.256)">
                <path d="M0,-46.394C-0.529,-46.248 -0.826,-45.686 -0.648,-45.166L19.04,12.408C19.082,12.526 20.811,12.187 20.931,12.15L66.363,0.619C66.862,0.468 67.122,-0.079 66.925,-0.561L42.773,-58.92L0,-46.394Z" style="fill:rgb(80,80,82);fill-rule:nonzero;"/>
            </g>
            <g transform="matrix(1,0,0,1,437.069,306.225)">
                <path d="M0,-46.358C-0.528,-46.212 -0.825,-45.651 -0.647,-45.132L19.028,12.419C19.068,12.531 20.807,12.185 20.921,12.15L66.323,0.63C66.822,0.48 67.082,-0.067 66.885,-0.549L42.747,-58.889L0,-46.358Z" style="fill:rgb(78,78,80);fill-rule:nonzero;"/>
            </g>
            <g transform="matrix(1,0,0,1,437.096,306.195)">
                <path d="M0,-46.323C-0.528,-46.177 -0.824,-45.617 -0.647,-45.099L19.016,12.429C19.054,12.536 20.801,12.182 20.909,12.149L66.282,0.642C66.781,0.491 67.041,-0.056 66.844,-0.538L42.72,-58.859L0,-46.323Z" style="fill:rgb(76,76,78);fill-rule:nonzero;"/>
            </g>
            <g transform="matrix(1,0,0,1,437.122,306.163)">
                <path d="M0,-46.286C-0.526,-46.14 -0.822,-45.581 -0.646,-45.064L19.003,12.442C19.039,12.542 20.797,12.181 20.898,12.15L66.242,0.654C66.741,0.504 67.001,-0.043 66.805,-0.525L42.693,-58.828L0,-46.286Z" style="fill:rgb(74,75,76);fill-rule:nonzero;"/>
            </g>
            <g transform="matrix(1,0,0,1,437.15,306.133)">
                <path d="M0,-46.25C-0.526,-46.105 -0.821,-45.546 -0.646,-45.03L18.99,12.452C19.024,12.547 20.791,12.179 20.887,12.149L66.201,0.666C66.7,0.516 66.961,-0.031 66.764,-0.513L42.666,-58.797L0,-46.25Z" style="fill:rgb(73,73,74);fill-rule:nonzero;"/>
            </g>
            <g transform="matrix(1,0,0,1,437.176,306.102)">
                <path d="M0,-46.214C-0.525,-46.068 -0.82,-45.511 -0.645,-44.995L18.979,12.464C19.011,12.552 20.786,12.177 20.877,12.149L66.161,0.679C66.66,0.528 66.921,-0.019 66.724,-0.501L42.64,-58.766L0,-46.214Z" style="fill:rgb(71,71,73);fill-rule:nonzero;"/>
            </g>
            <g transform="matrix(1,0,0,1,437.202,306.071)">
                <path d="M0,-46.178C-0.524,-46.033 -0.818,-45.477 -0.643,-44.962L18.967,12.474C18.997,12.557 20.782,12.175 20.866,12.149L66.121,0.69C66.62,0.54 66.881,-0.007 66.684,-0.489L42.613,-58.735L0,-46.178Z" style="fill:rgb(69,68,70);fill-rule:nonzero;"/>
            </g>
            <g transform="matrix(1,0,0,1,437.23,306.039)">
                <path d="M0,-46.141C-0.523,-45.996 -0.817,-45.441 -0.643,-44.927L18.954,12.486C18.981,12.563 20.776,12.173 20.854,12.15L66.08,0.703C66.579,0.553 66.84,0.006 66.643,-0.476L42.586,-58.704L0,-46.141Z" style="fill:rgb(66,65,67);fill-rule:nonzero;"/>
            </g>
            <g transform="matrix(1,0,0,1,437.256,306.01)">
                <path d="M0,-46.107C-0.522,-45.962 -0.816,-45.408 -0.642,-44.894L18.942,12.496C18.968,12.567 20.772,12.17 20.844,12.148L66.04,0.713C66.539,0.563 66.8,0.016 66.603,-0.466L42.56,-58.674L0,-46.107Z" style="fill:rgb(64,63,65);fill-rule:nonzero;"/>
            </g>
            <g transform="matrix(1,0,0,1,437.284,305.979)">
                <path d="M0,-46.07C-0.522,-45.925 -0.815,-45.372 -0.641,-44.859L18.93,12.508C18.953,12.573 20.767,12.169 20.833,12.148L65.999,0.726C66.498,0.576 66.759,0.029 66.562,-0.453L42.532,-58.643L0,-46.07Z" style="fill:rgb(62,61,62);fill-rule:nonzero;"/>
            </g>
            <g transform="matrix(1,0,0,1,437.31,305.947)">
                <path d="M0,-46.034C-0.521,-45.889 -0.813,-45.337 -0.64,-44.825L18.918,12.519C18.938,12.578 20.762,12.167 20.822,12.149L65.959,0.738C66.458,0.588 66.719,0.041 66.521,-0.441L42.506,-58.612L0,-46.034Z" style="fill:rgb(59,59,60);fill-rule:nonzero;"/>
            </g>
            <g transform="matrix(1,0,0,1,437.336,305.917)">
                <path d="M0,-45.998C-0.52,-45.854 -0.812,-45.302 -0.639,-44.791L18.906,12.53C18.925,12.583 20.758,12.165 20.812,12.148L65.919,0.75C66.418,0.6 66.679,0.053 66.481,-0.429L42.479,-58.581L0,-45.998Z" style="fill:rgb(57,56,58);fill-rule:nonzero;"/>
            </g>
            <g transform="matrix(1,0,0,1,437.364,305.886)">
                <path d="M0,-45.962C-0.52,-45.818 -0.812,-45.267 -0.638,-44.757L18.893,12.54C18.91,12.588 20.752,12.163 20.8,12.148L65.878,0.762C66.377,0.612 66.638,0.065 66.44,-0.417L42.452,-58.55L0,-45.962Z" style="fill:rgb(55,54,56);fill-rule:nonzero;"/>
            </g>
            <g transform="matrix(1,0,0,1,437.39,305.856)">
                <path d="M0,-45.927C-0.519,-45.783 -0.81,-45.233 -0.637,-44.723L18.881,12.551C18.896,12.593 20.748,12.16 20.79,12.147L65.838,0.773C66.337,0.623 66.598,0.076 66.401,-0.406L42.426,-58.52L0,-45.927Z" style="fill:rgb(53,52,53);fill-rule:nonzero;"/>
            </g>
            <g transform="matrix(1,0,0,1,437.416,305.824)">
                <path d="M0,-45.889C-0.518,-45.745 -0.808,-45.197 -0.636,-44.687L18.869,12.564C18.882,12.599 20.743,12.16 20.779,12.149L65.798,0.787C66.297,0.637 66.558,0.09 66.361,-0.391L42.399,-58.488L0,-45.889Z" style="fill:rgb(51,49,50);fill-rule:nonzero;"/>
            </g>
            <g transform="matrix(1,0,0,1,437.444,305.793)">
                <path d="M0,-45.854C-0.517,-45.71 -0.808,-45.162 -0.635,-44.654L18.856,12.574C18.867,12.604 20.737,12.157 20.768,12.147L65.757,0.798C66.256,0.648 66.517,0.102 66.32,-0.38L42.372,-58.458L0,-45.854Z" style="fill:rgb(47,45,46);fill-rule:nonzero;"/>
            </g>
            <g transform="matrix(1,0,0,1,437.47,305.763)">
                <path d="M0,-45.818C-0.516,-45.675 -0.806,-45.128 -0.634,-44.62L18.845,12.585C18.854,12.609 20.733,12.155 20.757,12.147L65.717,0.81C66.216,0.66 66.477,0.114 66.28,-0.368L42.346,-58.427L0,-45.818Z" style="fill:rgb(45,42,43);fill-rule:nonzero;"/>
            </g>
            <g transform="matrix(1,0,0,1,437.497,305.732)">
                <path d="M0,-45.782C-0.516,-45.639 -0.805,-45.093 -0.634,-44.586L18.832,12.596C18.838,12.614 20.728,12.153 20.746,12.147L65.676,0.822C66.175,0.672 66.436,0.125 66.239,-0.357L42.318,-58.396L0,-45.782Z" style="fill:rgb(42,39,40);fill-rule:nonzero;"/>
            </g>
            <g transform="matrix(1,0,0,1,437.524,305.701)">
                <path d="M0,-45.746C-0.515,-45.603 -0.804,-45.058 -0.633,-44.552L18.82,12.608C18.824,12.619 20.724,12.151 20.735,12.147L65.636,0.834C66.135,0.684 66.396,0.138 66.199,-0.344L42.292,-58.365L0,-45.746Z" style="fill:rgb(40,36,37);fill-rule:nonzero;"/>
            </g>
            <g transform="matrix(1,0,0,1,437.55,305.669)">
                <path d="M0,-45.709C-0.513,-45.566 -0.802,-45.022 -0.631,-44.517L18.809,12.619C18.811,12.625 20.719,12.149 20.725,12.148L65.596,0.847C66.095,0.697 66.355,0.15 66.159,-0.331L42.266,-58.334L0,-45.709Z" style="fill:rgb(37,34,35);fill-rule:nonzero;"/>
            </g>
            <g transform="matrix(1,0,0,1,479.816,318.269)">
                <path d="M0,-70.933L-42.238,-58.303C-42.751,-58.161 -43.039,-57.617 -42.869,-57.113L-23.442,0L23.316,-11.772C23.815,-11.922 24.076,-12.468 23.88,-12.95L0,-70.933Z" style="fill:rgb(35,31,32);fill-rule:nonzero;"/>
            </g>
            <g transform="matrix(22.7652,65.913,65.913,-22.7652,458.671,250.936)">
                <path d="M-0.01,-0.353L0.91,-0.353L0.97,0.367L0.074,0.305L-0.01,-0.353Z" style="fill:url(#_Linear2);fill-rule:nonzero;"/>
            </g>
            <g transform="matrix(1,0,0,1,479.816,319.318)">
                <path d="M0,-71.982L-43.314,-60.876C-43.928,-60.711 -44.271,-60.057 -44.056,-59.459L-23.947,-1.102C-23.69,-0.386 -22.916,0 -22.19,-0.225L23.826,-12.784C24.326,-12.939 24.584,-13.491 24.381,-13.974L0,-71.982Z" style="fill:white;fill-rule:nonzero;"/>
            </g>
            <g transform="matrix(1,0,0,1,436.532,308.187)">
                <path d="M0,-49.734C-0.613,-49.569 -0.955,-48.916 -0.74,-48.318L19.354,10.03C19.609,10.739 20.392,11.117 21.111,10.894L67.095,-1.669C67.595,-1.824 67.853,-2.377 67.649,-2.859L43.284,-60.851L0,-49.734Z" style="fill:rgb(253,253,253);fill-rule:nonzero;"/>
            </g>
            <g transform="matrix(1,0,0,1,436.562,308.163)">
                <path d="M0,-49.699C-0.612,-49.534 -0.953,-48.882 -0.739,-48.285L19.342,10.054C19.594,10.757 20.386,11.128 21.1,10.906L67.049,-1.661C67.549,-1.816 67.807,-2.369 67.604,-2.851L43.254,-60.827L0,-49.699Z" style="fill:rgb(251,251,251);fill-rule:nonzero;"/>
            </g>
            <g transform="matrix(1,0,0,1,436.592,308.137)">
                <path d="M0,-49.661C-0.611,-49.497 -0.952,-48.846 -0.739,-48.249L19.329,10.081C19.579,10.778 20.38,11.14 21.088,10.921L67.002,-1.651C67.503,-1.806 67.76,-2.358 67.558,-2.841L43.224,-60.801L0,-49.661Z" style="fill:rgb(249,249,249);fill-rule:nonzero;"/>
            </g>
            <g transform="matrix(1,0,0,1,436.622,308.112)">
                <path d="M0,-49.625C-0.61,-49.461 -0.951,-48.811 -0.738,-48.215L19.316,10.106C19.564,10.797 20.374,11.151 21.076,10.934L66.956,-1.643C67.456,-1.797 67.714,-2.35 67.512,-2.833L43.193,-60.776L0,-49.625Z" style="fill:rgb(247,247,247);fill-rule:nonzero;"/>
            </g>
            <g transform="matrix(1,0,0,1,436.653,308.087)">
                <path d="M0,-49.589C-0.61,-49.425 -0.95,-48.776 -0.737,-48.181L19.304,10.131C19.549,10.816 20.368,11.163 21.063,10.947L66.91,-1.634C67.41,-1.789 67.668,-2.341 67.466,-2.823L43.163,-60.752L0,-49.589Z" style="fill:rgb(245,245,245);fill-rule:nonzero;"/>
            </g>
            <g transform="matrix(1,0,0,1,436.683,308.063)">
                <path d="M0,-49.553C-0.609,-49.389 -0.949,-48.741 -0.736,-48.147L19.29,10.155C19.534,10.835 20.362,11.174 21.052,10.96L66.864,-1.626C67.364,-1.781 67.622,-2.333 67.419,-2.815L43.133,-60.727L0,-49.553Z" style="fill:rgb(241,242,242);fill-rule:nonzero;"/>
            </g>
            <g transform="matrix(1,0,0,1,436.712,308.038)">
                <path d="M0,-49.516C-0.607,-49.352 -0.947,-48.705 -0.734,-48.112L19.278,10.182C19.521,10.856 20.357,11.186 21.041,10.974L66.819,-1.616C67.319,-1.771 67.577,-2.323 67.374,-2.806L43.104,-60.702L0,-49.516Z" style="fill:rgb(239,240,241);fill-rule:nonzero;"/>
            </g>
            <g transform="matrix(1,0,0,1,436.743,308.013)">
                <path d="M0,-49.48C-0.607,-49.317 -0.945,-48.67 -0.734,-48.078L19.266,10.207C19.506,10.875 20.352,11.197 21.029,10.987L66.772,-1.607C67.272,-1.762 67.53,-2.314 67.328,-2.797L43.073,-60.677L0,-49.48Z" style="fill:rgb(237,238,239);fill-rule:nonzero;"/>
            </g>
            <g transform="matrix(1,0,0,1,436.773,307.989)">
                <path d="M0,-49.445C-0.606,-49.282 -0.944,-48.636 -0.733,-48.045L19.253,10.231C19.49,10.893 20.345,11.208 21.017,10.999L66.727,-1.6C67.227,-1.755 67.484,-2.306 67.282,-2.789L43.043,-60.653L0,-49.445Z" style="fill:rgb(236,236,237);fill-rule:nonzero;"/>
            </g>
            <g transform="matrix(1,0,0,1,436.803,307.963)">
                <path d="M0,-49.407C-0.605,-49.244 -0.943,-48.599 -0.732,-48.009L19.24,10.258C19.476,10.914 20.339,11.22 21.005,11.014L66.681,-1.59C67.181,-1.744 67.438,-2.296 67.236,-2.779L43.013,-60.627L0,-49.407Z" style="fill:rgb(234,235,236);fill-rule:nonzero;"/>
            </g>
            <g transform="matrix(1,0,0,1,436.833,307.939)">
                <path d="M0,-49.372C-0.605,-49.209 -0.942,-48.565 -0.731,-47.976L19.228,10.282C19.461,10.932 20.333,11.231 20.993,11.026L66.635,-1.582C67.135,-1.736 67.393,-2.289 67.19,-2.771L42.982,-60.603L0,-49.372Z" style="fill:rgb(232,233,234);fill-rule:nonzero;"/>
            </g>
            <g transform="matrix(1,0,0,1,436.864,307.914)">
                <path d="M0,-49.336C-0.604,-49.173 -0.941,-48.53 -0.73,-47.941L19.215,10.308C19.446,10.952 20.327,11.242 20.98,11.039L66.589,-1.573C67.089,-1.728 67.347,-2.28 67.145,-2.762L42.952,-60.578L0,-49.336Z" style="fill:rgb(231,232,233);fill-rule:nonzero;"/>
            </g>
            <g transform="matrix(1,0,0,1,436.893,307.889)">
                <path d="M0,-49.3C-0.603,-49.137 -0.939,-48.495 -0.729,-47.907L19.203,10.333C19.432,10.971 20.322,11.253 20.97,11.053L66.544,-1.565C67.043,-1.719 67.302,-2.271 67.1,-2.754L42.923,-60.553L0,-49.3Z" style="fill:rgb(229,230,231);fill-rule:nonzero;"/>
            </g>
            <g transform="matrix(1,0,0,1,436.923,307.864)">
                <path d="M0,-49.263C-0.602,-49.101 -0.937,-48.46 -0.729,-47.872L19.19,10.359C19.417,10.991 20.316,11.265 20.958,11.066L66.497,-1.555C66.997,-1.71 67.255,-2.262 67.053,-2.744L42.893,-60.528L0,-49.263Z" style="fill:rgb(227,228,229);fill-rule:nonzero;"/>
            </g>
            <g transform="matrix(1,0,0,1,436.953,307.839)">
                <path d="M0,-49.227C-0.602,-49.065 -0.937,-48.425 -0.728,-47.838L19.178,10.383C19.402,11.01 20.311,11.276 20.946,11.08L66.451,-1.547C66.951,-1.701 67.209,-2.253 67.007,-2.735L42.862,-60.503L0,-49.227Z" style="fill:rgb(225,226,227);fill-rule:nonzero;"/>
            </g>
            <g transform="matrix(1,0,0,1,436.984,307.815)">
                <path d="M0,-49.191C-0.601,-49.029 -0.936,-48.39 -0.727,-47.804L19.164,10.409C19.387,11.029 20.305,11.288 20.934,11.093L66.405,-1.538C66.905,-1.692 67.163,-2.244 66.961,-2.727L42.832,-60.479L0,-49.191Z" style="fill:rgb(223,224,225);fill-rule:nonzero;"/>
            </g>
            <g transform="matrix(1,0,0,1,437.014,307.79)">
                <path d="M0,-49.155C-0.6,-48.993 -0.935,-48.355 -0.727,-47.769L19.151,10.434C19.372,11.049 20.298,11.299 20.922,11.106L66.359,-1.53C66.859,-1.684 67.117,-2.235 66.915,-2.718L42.802,-60.454L0,-49.155Z" style="fill:rgb(222,223,224);fill-rule:nonzero;"/>
            </g>
            <g transform="matrix(1,0,0,1,437.044,307.765)">
                <path d="M0,-49.118C-0.6,-48.957 -0.934,-48.319 -0.726,-47.735L19.139,10.46C19.357,11.069 20.292,11.311 20.91,11.119L66.313,-1.52C66.813,-1.675 67.071,-2.226 66.869,-2.709L42.771,-60.429L0,-49.118Z" style="fill:rgb(220,221,222);fill-rule:nonzero;"/>
            </g>
            <g transform="matrix(1,0,0,1,437.075,307.74)">
                <path d="M0,-49.082C-0.599,-48.921 -0.933,-48.284 -0.725,-47.701L19.126,10.485C19.343,11.088 20.286,11.322 20.898,11.133L66.267,-1.512C66.767,-1.666 67.024,-2.217 66.823,-2.7L42.741,-60.404L0,-49.082Z" style="fill:rgb(218,219,221);fill-rule:nonzero;"/>
            </g>
            <g transform="matrix(1,0,0,1,437.104,307.715)">
                <path d="M0,-49.046C-0.597,-48.885 -0.93,-48.249 -0.723,-47.666L19.114,10.51C19.328,11.107 20.281,11.333 20.887,11.146L66.222,-1.503C66.722,-1.657 66.979,-2.209 66.778,-2.691L42.712,-60.379L0,-49.046Z" style="fill:rgb(217,218,219);fill-rule:nonzero;"/>
            </g>
            <g transform="matrix(1,0,0,1,437.134,307.691)">
                <path d="M0,-49.011C-0.597,-48.85 -0.929,-48.215 -0.722,-47.633L19.102,10.534C19.313,11.125 20.275,11.344 20.875,11.158L66.176,-1.495C66.676,-1.649 66.934,-2.201 66.732,-2.683L42.682,-60.355L0,-49.011Z" style="fill:rgb(215,216,218);fill-rule:nonzero;"/>
            </g>
            <g transform="matrix(1,0,0,1,437.164,307.666)">
                <path d="M0,-48.974C-0.596,-48.813 -0.928,-48.18 -0.722,-47.598L19.089,10.56C19.299,11.145 20.27,11.356 20.863,11.172L66.13,-1.486C66.63,-1.64 66.888,-2.191 66.686,-2.674L42.651,-60.33L0,-48.974Z" style="fill:rgb(213,215,216);fill-rule:nonzero;"/>
            </g>
            <g transform="matrix(1,0,0,1,437.195,307.641)">
                <path d="M0,-48.938C-0.595,-48.777 -0.927,-48.145 -0.721,-47.564L19.076,10.585C19.284,11.165 20.264,11.367 20.852,11.185L66.084,-1.478C66.583,-1.631 66.842,-2.183 66.64,-2.666L42.621,-60.305L0,-48.938Z" style="fill:rgb(212,213,215);fill-rule:nonzero;"/>
            </g>
            <g transform="matrix(1,0,0,1,437.225,307.616)">
                <path d="M0,-48.902C-0.594,-48.741 -0.926,-48.11 -0.72,-47.529L19.063,10.61C19.269,11.183 20.258,11.378 20.839,11.198L66.037,-1.469C66.537,-1.623 66.796,-2.174 66.594,-2.656L42.591,-60.28L0,-48.902Z" style="fill:rgb(210,211,213);fill-rule:nonzero;"/>
            </g>
            <g transform="matrix(1,0,0,1,437.255,307.591)">
                <path d="M0,-48.865C-0.594,-48.705 -0.925,-48.073 -0.719,-47.494L19.051,10.636C19.254,11.204 20.251,11.39 20.827,11.212L65.991,-1.459C66.491,-1.613 66.749,-2.164 66.548,-2.647L42.561,-60.255L0,-48.865Z" style="fill:rgb(207,209,211);fill-rule:nonzero;"/>
            </g>
            <g transform="matrix(1,0,0,1,437.285,307.566)">
                <path d="M0,-48.829C-0.592,-48.669 -0.923,-48.039 -0.717,-47.461L19.038,10.661C19.24,11.223 20.246,11.401 20.816,11.225L65.946,-1.451C66.446,-1.605 66.704,-2.156 66.503,-2.639L42.531,-60.23L0,-48.829Z" style="fill:rgb(206,207,209);fill-rule:nonzero;"/>
            </g>
            <g transform="matrix(1,0,0,1,437.315,307.542)">
                <path d="M0,-48.793C-0.591,-48.633 -0.921,-48.004 -0.717,-47.426L19.025,10.686C19.225,11.242 20.24,11.413 20.804,11.238L65.9,-1.442C66.399,-1.596 66.658,-2.147 66.457,-2.63L42.501,-60.206L0,-48.793Z" style="fill:rgb(204,206,208);fill-rule:nonzero;"/>
            </g>
            <g transform="matrix(1,0,0,1,437.345,307.517)">
                <path d="M0,-48.757C-0.591,-48.597 -0.92,-47.969 -0.716,-47.392L19.013,10.712C19.21,11.262 20.234,11.424 20.792,11.251L65.854,-1.434C66.354,-1.588 66.612,-2.138 66.411,-2.621L42.471,-60.181L0,-48.757Z" style="fill:rgb(202,204,206);fill-rule:nonzero;"/>
            </g>
            <g transform="matrix(1,0,0,1,437.375,307.492)">
                <path d="M0,-48.72C-0.59,-48.561 -0.919,-47.933 -0.715,-47.357L19,10.738C19.195,11.281 20.229,11.436 20.78,11.265L65.808,-1.425C66.308,-1.578 66.566,-2.129 66.365,-2.612L42.44,-60.156L0,-48.72Z" style="fill:rgb(201,202,204);fill-rule:nonzero;"/>
            </g>
            <g transform="matrix(1,0,0,1,437.405,307.467)">
                <path d="M0,-48.684C-0.589,-48.525 -0.918,-47.898 -0.714,-47.323L18.987,10.763C19.181,11.3 20.223,11.447 20.769,11.278L65.762,-1.416C66.262,-1.57 66.52,-2.121 66.318,-2.603L42.41,-60.131L0,-48.684Z" style="fill:rgb(199,201,203);fill-rule:nonzero;"/>
            </g>
            <g transform="matrix(1,0,0,1,437.436,307.442)">
                <path d="M0,-48.648C-0.588,-48.489 -0.917,-47.863 -0.713,-47.289L18.975,10.788C19.165,11.32 20.217,11.458 20.756,11.291L65.716,-1.407C66.216,-1.561 66.474,-2.112 66.272,-2.594L42.38,-60.106L0,-48.648Z" style="fill:rgb(197,199,201);fill-rule:nonzero;"/>
            </g>
            <g transform="matrix(1,0,0,1,437.466,307.418)">
                <path d="M0,-48.613C-0.588,-48.454 -0.916,-47.829 -0.713,-47.256L18.962,10.812C19.15,11.338 20.211,11.469 20.744,11.304L65.67,-1.4C66.169,-1.553 66.428,-2.104 66.227,-2.587L42.35,-60.082L0,-48.613Z" style="fill:rgb(196,198,200);fill-rule:nonzero;"/>
            </g>
            <g transform="matrix(1,0,0,1,437.495,307.393)">
                <path d="M0,-48.576C-0.586,-48.417 -0.913,-47.793 -0.711,-47.221L18.95,10.838C19.137,11.358 20.205,11.481 20.733,11.317L65.625,-1.39C66.124,-1.544 66.383,-2.095 66.182,-2.577L42.32,-60.057L0,-48.576Z" style="fill:rgb(193,195,197);fill-rule:nonzero;"/>
            </g>
            <g transform="matrix(1,0,0,1,437.526,307.368)">
                <path d="M0,-48.54C-0.585,-48.382 -0.912,-47.758 -0.71,-47.186L18.937,10.863C19.122,11.377 20.199,11.492 20.722,11.33L65.578,-1.382C66.078,-1.535 66.337,-2.086 66.136,-2.568L42.29,-60.032L0,-48.54Z" style="fill:rgb(192,193,196);fill-rule:nonzero;"/>
            </g>
            <g transform="matrix(1,0,0,1,437.556,307.343)">
                <path d="M0,-48.504C-0.585,-48.346 -0.911,-47.723 -0.709,-47.152L18.924,10.888C19.106,11.396 20.193,11.503 20.709,11.343L65.532,-1.373C66.032,-1.526 66.291,-2.077 66.09,-2.56L42.26,-60.007L0,-48.504Z" style="fill:rgb(190,192,194);fill-rule:nonzero;"/>
            </g>
            <g transform="matrix(1,0,0,1,437.586,307.318)">
                <path d="M0,-48.467C-0.584,-48.309 -0.91,-47.687 -0.709,-47.117L18.911,10.914C19.092,11.417 20.187,11.515 20.697,11.358L65.486,-1.363C65.986,-1.517 66.244,-2.068 66.044,-2.55L42.229,-59.982L0,-48.467Z" style="fill:rgb(188,190,192);fill-rule:nonzero;"/>
            </g>
            <g transform="matrix(1,0,0,1,437.617,307.294)">
                <path d="M0,-48.432C-0.583,-48.274 -0.909,-47.654 -0.708,-47.084L18.898,10.938C19.077,11.435 20.182,11.526 20.686,11.369L65.44,-1.356C65.939,-1.51 66.198,-2.06 65.998,-2.542L42.199,-59.958L0,-48.432Z" style="fill:rgb(187,189,191);fill-rule:nonzero;"/>
            </g>
            <g transform="matrix(1,0,0,1,437.647,307.269)">
                <path d="M0,-48.395C-0.583,-48.237 -0.908,-47.618 -0.707,-47.049L18.886,10.964C19.062,11.455 20.176,11.538 20.674,11.383L65.395,-1.347C65.894,-1.5 66.152,-2.05 65.951,-2.533L42.169,-59.933L0,-48.395Z" style="fill:rgb(185,187,189);fill-rule:nonzero;"/>
            </g>
            <g transform="matrix(1,0,0,1,437.676,307.244)">
                <path d="M0,-48.359C-0.581,-48.201 -0.905,-47.583 -0.705,-47.015L18.874,10.99C19.048,11.474 20.171,11.549 20.662,11.396L65.349,-1.338C65.849,-1.491 66.107,-2.042 65.906,-2.524L42.14,-59.908L0,-48.359Z" style="fill:rgb(183,185,188);fill-rule:nonzero;"/>
            </g>
            <g transform="matrix(1,0,0,1,437.706,307.219)">
                <path d="M0,-48.323C-0.58,-48.165 -0.904,-47.548 -0.704,-46.981L18.861,11.015C19.033,11.493 20.165,11.56 20.65,11.409L65.303,-1.329C65.803,-1.483 66.062,-2.033 65.86,-2.515L42.109,-59.883L0,-48.323Z" style="fill:rgb(182,184,186);fill-rule:nonzero;"/>
            </g>
            <g transform="matrix(1,0,0,1,437.737,307.194)">
                <path d="M0,-48.286C-0.579,-48.129 -0.903,-47.512 -0.704,-46.946L18.849,11.041C19.019,11.513 20.158,11.572 20.639,11.423L65.257,-1.32C65.757,-1.473 66.016,-2.024 65.814,-2.506L42.079,-59.858L0,-48.286Z" style="fill:rgb(180,182,184);fill-rule:nonzero;"/>
            </g>
            <g transform="matrix(1,0,0,1,437.767,307.169)">
                <path d="M0,-48.25C-0.579,-48.093 -0.902,-47.477 -0.703,-46.912L18.836,11.065C19.003,11.533 20.152,11.583 20.626,11.437L65.211,-1.312C65.71,-1.464 65.969,-2.015 65.769,-2.497L42.049,-59.833L0,-48.25Z" style="fill:rgb(178,180,183);fill-rule:nonzero;"/>
            </g>
            <g transform="matrix(1,0,0,1,437.797,307.145)">
                <path d="M0,-48.215C-0.578,-48.058 -0.901,-47.443 -0.702,-46.878L18.823,11.09C18.988,11.551 20.146,11.594 20.614,11.449L65.165,-1.304C65.664,-1.457 65.923,-2.007 65.723,-2.489L42.019,-59.809L0,-48.215Z" style="fill:rgb(176,178,180);fill-rule:nonzero;"/>
            </g>
            <g transform="matrix(1,0,0,1,437.827,307.12)">
                <path d="M0,-48.179C-0.577,-48.022 -0.9,-47.408 -0.701,-46.844L18.811,11.115C18.974,11.57 20.141,11.605 20.603,11.462L65.118,-1.295C65.618,-1.448 65.877,-1.998 65.677,-2.481L41.988,-59.784L0,-48.179Z" style="fill:rgb(174,176,179);fill-rule:nonzero;"/>
            </g>
            <g transform="matrix(1,0,0,1,437.858,307.095)">
                <path d="M0,-48.142C-0.577,-47.986 -0.898,-47.372 -0.7,-46.809L18.797,11.141C18.959,11.59 20.135,11.617 20.591,11.476L65.072,-1.286C65.572,-1.439 65.831,-1.989 65.631,-2.472L41.958,-59.759L0,-48.142Z" style="fill:rgb(173,175,177);fill-rule:nonzero;"/>
            </g>
            <g transform="matrix(1,0,0,1,437.887,307.07)">
                <path d="M0,-48.106C-0.575,-47.95 -0.896,-47.337 -0.699,-46.775L18.785,11.166C18.944,11.609 20.13,11.628 20.579,11.489L65.027,-1.277C65.526,-1.43 65.786,-1.981 65.585,-2.462L41.929,-59.734L0,-48.106Z" style="fill:rgb(171,173,176);fill-rule:nonzero;"/>
            </g>
            <g transform="matrix(1,0,0,1,437.917,307.045)">
                <path d="M0,-48.069C-0.574,-47.913 -0.896,-47.301 -0.698,-46.74L18.772,11.192C18.93,11.63 20.124,11.64 20.567,11.503L64.981,-1.268C65.48,-1.421 65.739,-1.97 65.539,-2.453L41.898,-59.709L0,-48.069Z" style="fill:rgb(169,172,174);fill-rule:nonzero;"/>
            </g>
            <g transform="matrix(1,0,0,1,437.948,307.02)">
                <path d="M0,-48.033C-0.574,-47.877 -0.895,-47.267 -0.697,-46.706L18.76,11.217C18.915,11.648 20.118,11.651 20.556,11.515L64.936,-1.26C65.435,-1.412 65.693,-1.962 65.493,-2.445L41.868,-59.684L0,-48.033Z" style="fill:rgb(168,170,173);fill-rule:nonzero;"/>
            </g>
            <g transform="matrix(1,0,0,1,437.978,307)">
                <path d="M0,-48.002C-0.573,-47.846 -0.894,-47.237 -0.696,-46.677L18.747,11.237C18.899,11.663 20.111,11.658 20.544,11.524L64.89,-1.256C65.389,-1.409 65.647,-1.959 65.447,-2.441L41.838,-59.665L0,-48.002Z" style="fill:rgb(166,168,171);fill-rule:nonzero;"/>
            </g>
            <g transform="matrix(1,0,0,1,438.008,306.984)">
                <path d="M0,-47.974C-0.572,-47.818 -0.893,-47.21 -0.696,-46.651L18.734,11.255C18.885,11.674 20.105,11.661 20.531,11.529L64.843,-1.255C65.343,-1.408 65.602,-1.958 65.401,-2.44L41.808,-59.648L0,-47.974Z" style="fill:rgb(165,167,169);fill-rule:nonzero;"/>
            </g>
            <g transform="matrix(1,0,0,1,438.038,306.967)">
                <path d="M0,-47.946C-0.571,-47.791 -0.891,-47.183 -0.695,-46.624L18.722,11.271C18.87,11.685 20.1,11.664 20.52,11.534L64.797,-1.255C65.296,-1.407 65.556,-1.957 65.355,-2.439L41.777,-59.631L0,-47.946Z" style="fill:rgb(163,165,168);fill-rule:nonzero;"/>
            </g>
            <g transform="matrix(1,0,0,1,438.068,306.95)">
                <path d="M0,-47.917C-0.57,-47.762 -0.889,-47.155 -0.693,-46.598L18.71,11.289C18.856,11.697 20.095,11.668 20.509,11.54L64.752,-1.253C65.251,-1.406 65.511,-1.956 65.311,-2.438L41.748,-59.614L0,-47.917Z" style="fill:rgb(161,163,165);fill-rule:nonzero;"/>
            </g>
            <g transform="matrix(1,0,0,1,438.098,306.933)">
                <path d="M0,-47.889C-0.569,-47.734 -0.888,-47.128 -0.692,-46.571L18.697,11.306C18.841,11.708 20.089,11.671 20.497,11.545L64.706,-1.253C65.205,-1.405 65.464,-1.955 65.265,-2.437L41.718,-59.597L0,-47.889Z" style="fill:rgb(159,161,164);fill-rule:nonzero;"/>
            </g>
            <g transform="matrix(1,0,0,1,438.128,306.917)">
                <path d="M0,-47.862C-0.568,-47.707 -0.887,-47.102 -0.691,-46.546L18.685,11.323C18.826,11.719 20.083,11.674 20.484,11.549L64.66,-1.253C65.159,-1.405 65.418,-1.955 65.218,-2.438L41.688,-59.581L0,-47.862Z" style="fill:rgb(158,160,162);fill-rule:nonzero;"/>
            </g>
            <g transform="matrix(1,0,0,1,438.159,306.9)">
                <path d="M0,-47.834C-0.568,-47.679 -0.886,-47.075 -0.691,-46.52L18.671,11.34C18.812,11.73 20.077,11.677 20.473,11.554L64.613,-1.252C65.113,-1.405 65.372,-1.955 65.172,-2.437L41.657,-59.564L0,-47.834Z" style="fill:rgb(156,158,161);fill-rule:nonzero;"/>
            </g>
            <g transform="matrix(1,0,0,1,438.189,306.883)">
                <path d="M0,-47.805C-0.567,-47.651 -0.885,-47.048 -0.69,-46.493L18.658,11.358C18.797,11.742 20.071,11.681 20.461,11.56L64.567,-1.251C65.066,-1.404 65.326,-1.953 65.126,-2.435L41.627,-59.547L0,-47.805Z" style="fill:rgb(155,157,159);fill-rule:nonzero;"/>
            </g>
            <g transform="matrix(1,0,0,1,438.219,306.866)">
                <path d="M0,-47.777C-0.566,-47.623 -0.883,-47.021 -0.689,-46.467L18.646,11.375C18.781,11.753 20.064,11.684 20.449,11.565L64.521,-1.251C65.021,-1.403 65.28,-1.952 65.08,-2.435L41.597,-59.53L0,-47.777Z" style="fill:rgb(153,155,158);fill-rule:nonzero;"/>
            </g>
            <g transform="matrix(1,0,0,1,438.249,306.849)">
                <path d="M0,-47.748C-0.565,-47.594 -0.882,-46.993 -0.688,-46.439L18.633,11.393C18.767,11.765 20.059,11.689 20.437,11.571L64.476,-1.249C64.975,-1.401 65.233,-1.951 65.034,-2.433L41.566,-59.513L0,-47.748Z" style="fill:rgb(151,154,156);fill-rule:nonzero;"/>
            </g>
            <g transform="matrix(1,0,0,1,438.279,306.833)">
                <path d="M0,-47.721C-0.564,-47.567 -0.88,-46.967 -0.687,-46.414L18.621,11.409C18.753,11.776 20.054,11.691 20.426,11.575L64.431,-1.249C64.93,-1.402 65.188,-1.951 64.989,-2.433L41.537,-59.497L0,-47.721Z" style="fill:rgb(150,152,155);fill-rule:nonzero;"/>
            </g>
            <g transform="matrix(1,0,0,1,438.309,306.815)">
                <path d="M0,-47.691C-0.563,-47.538 -0.879,-46.938 -0.687,-46.386L18.608,11.428C18.737,11.788 20.048,11.695 20.414,11.582L64.384,-1.247C64.884,-1.399 65.143,-1.949 64.943,-2.431L41.507,-59.479L0,-47.691Z" style="fill:rgb(148,150,153);fill-rule:nonzero;"/>
            </g>
            <g transform="matrix(1,0,0,1,438.339,306.799)">
                <path d="M0,-47.664C-0.562,-47.511 -0.878,-46.912 -0.686,-46.361L18.596,11.444C18.723,11.799 20.042,11.698 20.401,11.586L64.338,-1.247C64.837,-1.4 65.097,-1.949 64.897,-2.431L41.477,-59.463L0,-47.664Z" style="fill:rgb(146,148,151);fill-rule:nonzero;"/>
            </g>
            <g transform="matrix(1,0,0,1,438.369,306.782)">
                <path d="M0,-47.636C-0.562,-47.483 -0.877,-46.885 -0.685,-46.335L18.583,11.461C18.708,11.81 20.036,11.701 20.39,11.592L64.292,-1.247C64.791,-1.399 65.051,-1.948 64.852,-2.43L41.446,-59.446L0,-47.636Z" style="fill:rgb(145,147,149);fill-rule:nonzero;"/>
            </g>
            <g transform="matrix(1,0,0,1,438.4,306.765)">
                <path d="M0,-47.608C-0.562,-47.455 -0.875,-46.858 -0.684,-46.309L18.57,11.478C18.693,11.821 20.03,11.705 20.378,11.597L64.246,-1.246C64.745,-1.398 65.005,-1.947 64.805,-2.43L41.416,-59.429L0,-47.608Z" style="fill:rgb(143,145,148);fill-rule:nonzero;"/>
            </g>
            <g transform="matrix(1,0,0,1,438.43,306.748)">
                <path d="M0,-47.579C-0.561,-47.426 -0.874,-46.83 -0.684,-46.282L18.558,11.496C18.678,11.833 20.024,11.708 20.366,11.602L64.2,-1.245C64.699,-1.397 64.958,-1.946 64.759,-2.428L41.386,-59.412L0,-47.579Z" style="fill:rgb(142,144,146);fill-rule:nonzero;"/>
            </g>
            <g transform="matrix(1,0,0,1,438.459,306.732)">
                <path d="M0,-47.552C-0.56,-47.399 -0.872,-46.804 -0.682,-46.257L18.545,11.512C18.664,11.844 20.019,11.71 20.354,11.606L64.154,-1.245C64.653,-1.397 64.913,-1.947 64.714,-2.428L41.356,-59.396L0,-47.552Z" style="fill:rgb(140,142,145);fill-rule:nonzero;"/>
            </g>
            <g transform="matrix(1,0,0,1,438.49,306.715)">
                <path d="M0,-47.524C-0.559,-47.371 -0.871,-46.777 -0.681,-46.231L18.532,11.53C18.649,11.855 20.013,11.714 20.343,11.612L64.108,-1.245C64.607,-1.397 64.867,-1.945 64.668,-2.428L41.326,-59.379L0,-47.524Z" style="fill:rgb(139,141,143);fill-rule:nonzero;"/>
            </g>
            <g transform="matrix(1,0,0,1,438.52,306.698)">
                <path d="M0,-47.495C-0.558,-47.342 -0.87,-46.749 -0.68,-46.203L18.52,11.548C18.635,11.867 20.007,11.718 20.331,11.618L64.063,-1.243C64.562,-1.395 64.821,-1.944 64.622,-2.426L41.296,-59.362L0,-47.495Z" style="fill:rgb(137,139,142);fill-rule:nonzero;"/>
            </g>
            <g transform="matrix(1,0,0,1,438.55,306.681)">
                <path d="M0,-47.467C-0.557,-47.315 -0.869,-46.723 -0.679,-46.177L18.507,11.565C18.619,11.878 20.001,11.721 20.319,11.622L64.017,-1.243C64.516,-1.395 64.775,-1.944 64.576,-2.426L41.266,-59.345L0,-47.467Z" style="fill:rgb(136,138,140);fill-rule:nonzero;"/>
            </g>
            <g transform="matrix(1,0,0,1,438.58,306.664)">
                <path d="M0,-47.438C-0.557,-47.286 -0.868,-46.695 -0.679,-46.15L18.494,11.583C18.604,11.89 19.995,11.725 20.307,11.628L63.971,-1.241C64.47,-1.393 64.729,-1.942 64.53,-2.424L41.235,-59.328L0,-47.438Z" style="fill:rgb(134,136,139);fill-rule:nonzero;"/>
            </g>
            <g transform="matrix(1,0,0,1,438.611,306.648)">
                <path d="M0,-47.411C-0.556,-47.259 -0.866,-46.669 -0.678,-46.125L18.481,11.599C18.59,11.901 19.989,11.728 20.295,11.632L63.924,-1.242C64.423,-1.393 64.683,-1.942 64.484,-2.424L41.205,-59.312L0,-47.411Z" style="fill:rgb(132,134,136);fill-rule:nonzero;"/>
            </g>
            <g transform="matrix(1,0,0,1,438.641,306.63)">
                <path d="M0,-47.381C-0.555,-47.23 -0.865,-46.64 -0.677,-46.097L18.469,11.618C18.574,11.913 19.983,11.732 20.283,11.64L63.878,-1.239C64.377,-1.391 64.637,-1.94 64.438,-2.422L41.175,-59.294L0,-47.381Z" style="fill:rgb(130,132,135);fill-rule:nonzero;"/>
            </g>
            <g transform="matrix(1,0,0,1,438.67,306.613)">
                <path d="M0,-47.353C-0.554,-47.202 -0.863,-46.613 -0.675,-46.071L18.457,11.635C18.561,11.924 19.979,11.735 20.272,11.645L63.833,-1.238C64.332,-1.39 64.592,-1.939 64.393,-2.421L41.146,-59.277L0,-47.353Z" style="fill:rgb(129,131,133);fill-rule:nonzero;"/>
            </g>
            <g transform="matrix(1,0,0,1,438.701,306.597)">
                <path d="M0,-47.326C-0.553,-47.175 -0.862,-46.587 -0.674,-46.046L18.444,11.651C18.546,11.935 19.972,11.738 20.26,11.649L63.787,-1.239C64.286,-1.39 64.546,-1.939 64.347,-2.422L41.115,-59.261L0,-47.326Z" style="fill:rgb(127,129,132);fill-rule:nonzero;"/>
            </g>
            <g transform="matrix(1,0,0,1,438.731,306.58)">
                <path d="M0,-47.298C-0.552,-47.147 -0.861,-46.56 -0.674,-46.019L18.432,11.668C18.531,11.946 19.966,11.741 20.248,11.654L63.741,-1.238C64.24,-1.39 64.5,-1.939 64.301,-2.421L41.085,-59.244L0,-47.298Z" style="fill:rgb(126,128,130);fill-rule:nonzero;"/>
            </g>
            <g transform="matrix(1,0,0,1,438.761,306.563)">
                <path d="M0,-47.269C-0.551,-47.118 -0.86,-46.533 -0.673,-45.993L18.418,11.686C18.516,11.958 19.96,11.745 20.236,11.66L63.694,-1.237C64.193,-1.389 64.453,-1.937 64.255,-2.419L41.055,-59.227L0,-47.269Z" style="fill:rgb(124,126,129);fill-rule:nonzero;"/>
            </g>
            <g transform="matrix(1,0,0,1,438.791,306.546)">
                <path d="M0,-47.241C-0.551,-47.091 -0.858,-46.506 -0.672,-45.967L18.405,11.703C18.501,11.969 19.954,11.748 20.224,11.665L63.648,-1.236C64.147,-1.388 64.407,-1.936 64.209,-2.419L41.024,-59.21L0,-47.241Z" style="fill:rgb(123,125,127);fill-rule:nonzero;"/>
            </g>
            <g transform="matrix(1,0,0,1,438.822,306.529)">
                <path d="M0,-47.213C-0.55,-47.063 -0.857,-46.479 -0.671,-45.94L18.393,11.721C18.486,11.98 19.948,11.752 20.212,11.67L63.603,-1.235C64.102,-1.387 64.361,-1.936 64.163,-2.418L40.994,-59.193L0,-47.213Z" style="fill:rgb(121,123,126);fill-rule:nonzero;"/>
            </g>
            <g transform="matrix(1,0,0,1,438.852,306.513)">
                <path d="M0,-47.185C-0.549,-47.035 -0.856,-46.452 -0.671,-45.914L18.38,11.738C18.472,11.992 19.942,11.755 20.2,11.675L63.557,-1.235C64.056,-1.387 64.315,-1.935 64.117,-2.417L40.964,-59.177L0,-47.185Z" style="fill:rgb(120,122,124);fill-rule:nonzero;"/>
            </g>
            <g transform="matrix(1,0,0,1,438.881,306.496)">
                <path d="M0,-47.157C-0.548,-47.007 -0.854,-46.425 -0.669,-45.888L18.368,11.754C18.457,12.003 19.937,11.758 20.189,11.68L63.512,-1.235C64.011,-1.386 64.271,-1.935 64.071,-2.417L40.935,-59.16L0,-47.157Z" style="fill:rgb(118,119,122);fill-rule:nonzero;"/>
            </g>
            <g transform="matrix(1,0,0,1,438.911,306.479)">
                <path d="M0,-47.128C-0.547,-46.978 -0.854,-46.397 -0.668,-45.861L18.355,11.772C18.442,12.015 19.932,11.762 20.177,11.686L63.465,-1.233C63.964,-1.385 64.225,-1.933 64.025,-2.415L40.904,-59.143L0,-47.128Z" style="fill:rgb(116,118,120);fill-rule:nonzero;"/>
            </g>
            <g transform="matrix(1,0,0,1,438.942,306.462)">
                <path d="M0,-47.1C-0.546,-46.95 -0.853,-46.37 -0.667,-45.834L18.343,11.79C18.428,12.026 19.925,11.765 20.165,11.691L63.419,-1.232C63.918,-1.384 64.178,-1.932 63.979,-2.414L40.874,-59.126L0,-47.1Z" style="fill:rgb(115,116,119);fill-rule:nonzero;"/>
            </g>
            <g transform="matrix(1,0,0,1,438.972,306.445)">
                <path d="M0,-47.072C-0.546,-46.922 -0.851,-46.343 -0.666,-45.808L18.33,11.807C18.412,12.037 19.919,11.769 20.153,11.696L63.373,-1.232C63.872,-1.383 64.132,-1.931 63.934,-2.414L40.844,-59.109L0,-47.072Z" style="fill:rgb(113,115,117);fill-rule:nonzero;"/>
            </g>
            <g transform="matrix(1,0,0,1,439.002,306.428)">
                <path d="M0,-47.043C-0.545,-46.894 -0.85,-46.315 -0.666,-45.782L18.317,11.825C18.397,12.049 19.913,11.772 20.142,11.702L63.327,-1.23C63.826,-1.382 64.086,-1.93 63.888,-2.412L40.813,-59.092L0,-47.043Z" style="fill:rgb(112,113,116);fill-rule:nonzero;"/>
            </g>
            <g transform="matrix(1,0,0,1,439.033,306.412)">
                <path d="M0,-47.016C-0.544,-46.867 -0.849,-46.289 -0.665,-45.756L18.305,11.841C18.383,12.06 19.907,11.775 20.129,11.706L63.281,-1.231C63.779,-1.382 64.04,-1.931 63.842,-2.412L40.783,-59.076L0,-47.016Z" style="fill:rgb(110,112,114);fill-rule:nonzero;"/>
            </g>
            <g transform="matrix(1,0,0,1,439.062,306.395)">
                <path d="M0,-46.988C-0.542,-46.839 -0.847,-46.262 -0.663,-45.73L18.292,11.858C18.369,12.071 19.902,11.778 20.118,11.711L63.236,-1.23C63.734,-1.382 63.995,-1.93 63.797,-2.412L40.754,-59.059L0,-46.988Z" style="fill:rgb(108,110,112);fill-rule:nonzero;"/>
            </g>
            <g transform="matrix(1,0,0,1,439.092,306.377)">
                <path d="M0,-46.959C-0.542,-46.81 -0.846,-46.234 -0.662,-45.703L18.279,11.876C18.354,12.083 19.896,11.782 20.106,11.717L63.189,-1.229C63.688,-1.38 63.948,-1.928 63.751,-2.41L40.724,-59.042L0,-46.959Z" style="fill:rgb(107,108,111);fill-rule:nonzero;"/>
            </g>
            <g transform="matrix(1,0,0,1,439.122,306.361)">
                <path d="M0,-46.931C-0.541,-46.783 -0.845,-46.208 -0.661,-45.677L18.267,11.893C18.339,12.094 19.891,11.785 20.095,11.722L63.144,-1.228C63.643,-1.38 63.902,-1.928 63.704,-2.41L40.693,-59.025L0,-46.931Z" style="fill:rgb(105,107,109);fill-rule:nonzero;"/>
            </g>
            <g transform="matrix(1,0,0,1,439.153,306.344)">
                <path d="M0,-46.903C-0.54,-46.755 -0.843,-46.181 -0.661,-45.651L18.254,11.91C18.324,12.105 19.885,11.788 20.082,11.727L63.098,-1.228C63.597,-1.379 63.856,-1.927 63.658,-2.409L40.663,-59.008L0,-46.903Z" style="fill:rgb(104,105,107);fill-rule:nonzero;"/>
            </g>
            <g transform="matrix(1,0,0,1,439.183,306.328)">
                <path d="M0,-46.875C-0.54,-46.727 -0.842,-46.154 -0.66,-45.625L18.241,11.927C18.31,12.117 19.878,11.792 20.07,11.732L63.052,-1.227C63.55,-1.378 63.811,-1.926 63.612,-2.408L40.633,-58.992L0,-46.875Z" style="fill:rgb(101,103,105);fill-rule:nonzero;"/>
            </g>
            <g transform="matrix(1,0,0,1,439.213,306.311)">
                <path d="M0,-46.847C-0.539,-46.699 -0.841,-46.127 -0.659,-45.598L18.229,11.945C18.294,12.128 19.872,11.795 20.059,11.737L63.006,-1.226C63.504,-1.378 63.765,-1.925 63.566,-2.408L40.603,-58.975L0,-46.847Z" style="fill:rgb(100,101,103);fill-rule:nonzero;"/>
            </g>
            <g transform="matrix(1,0,0,1,439.243,306.294)">
                <path d="M0,-46.818C-0.538,-46.67 -0.84,-46.099 -0.658,-45.571L18.216,11.962C18.279,12.14 19.866,11.799 20.046,11.743L62.959,-1.225C63.458,-1.377 63.719,-1.924 63.521,-2.406L40.572,-58.958L0,-46.818Z" style="fill:rgb(98,99,102);fill-rule:nonzero;"/>
            </g>
            <g transform="matrix(1,0,0,1,439.273,306.277)">
                <path d="M0,-46.79C-0.537,-46.642 -0.838,-46.072 -0.657,-45.545L18.204,11.98C18.266,12.151 19.861,11.802 20.035,11.749L62.914,-1.225C63.413,-1.376 63.673,-1.923 63.476,-2.405L40.543,-58.941L0,-46.79Z" style="fill:rgb(96,97,100);fill-rule:nonzero;"/>
            </g>
            <g transform="matrix(1,0,0,1,439.303,306.26)">
                <path d="M0,-46.762C-0.536,-46.615 -0.837,-46.045 -0.656,-45.519L18.191,11.997C18.25,12.162 19.855,11.805 20.023,11.754L62.868,-1.224C63.367,-1.375 63.627,-1.923 63.43,-2.405L40.513,-58.924L0,-46.762Z" style="fill:rgb(95,96,98);fill-rule:nonzero;"/>
            </g>
            <g transform="matrix(1,0,0,1,439.333,306.243)">
                <path d="M0,-46.733C-0.535,-46.586 -0.835,-46.018 -0.655,-45.492L18.179,12.015C18.235,12.174 19.85,11.809 20.012,11.759L62.822,-1.223C63.32,-1.374 63.581,-1.921 63.384,-2.403L40.482,-58.907L0,-46.733Z" style="fill:rgb(93,94,96);fill-rule:nonzero;"/>
            </g>
            <g transform="matrix(1,0,0,1,439.364,306.226)">
                <path d="M0,-46.705C-0.534,-46.558 -0.834,-45.991 -0.654,-45.466L18.165,12.032C18.221,12.185 19.844,11.813 19.999,11.764L62.776,-1.222C63.274,-1.373 63.535,-1.92 63.337,-2.403L40.452,-58.89L0,-46.705Z" style="fill:rgb(91,92,94);fill-rule:nonzero;"/>
            </g>
            <g transform="matrix(1,0,0,1,439.394,306.21)">
                <path d="M0,-46.678C-0.534,-46.531 -0.833,-45.965 -0.653,-45.441L18.152,12.048C18.206,12.196 19.838,11.815 19.987,11.769L62.729,-1.222C63.229,-1.373 63.489,-1.921 63.291,-2.403L40.422,-58.874L0,-46.678Z" style="fill:rgb(90,90,93);fill-rule:nonzero;"/>
            </g>
            <g transform="matrix(1,0,0,1,439.424,306.192)">
                <path d="M0,-46.649C-0.533,-46.502 -0.832,-45.937 -0.653,-45.414L18.14,12.066C18.19,12.208 19.832,11.819 19.976,11.775L62.684,-1.221C63.183,-1.372 63.442,-1.919 63.245,-2.401L40.392,-58.857L0,-46.649Z" style="fill:rgb(87,88,90);fill-rule:nonzero;"/>
            </g>
            <g transform="matrix(1,0,0,1,439.453,306.176)">
                <path d="M0,-46.621C-0.531,-46.475 -0.83,-45.91 -0.651,-45.388L18.128,12.083C18.177,12.219 19.826,11.822 19.965,11.779L62.639,-1.221C63.138,-1.371 63.397,-1.919 63.2,-2.401L40.362,-58.84L0,-46.621Z" style="fill:rgb(85,86,88);fill-rule:nonzero;"/>
            </g>
            <g transform="matrix(1,0,0,1,439.484,306.159)">
                <path d="M0,-46.593C-0.531,-46.447 -0.829,-45.883 -0.65,-45.362L18.115,12.1C18.162,12.23 19.82,11.825 19.952,11.784L62.593,-1.22C63.091,-1.371 63.352,-1.918 63.154,-2.4L40.332,-58.823L0,-46.593Z" style="fill:rgb(84,84,86);fill-rule:nonzero;"/>
            </g>
            <g transform="matrix(1,0,0,1,439.514,306.142)">
                <path d="M0,-46.564C-0.53,-46.418 -0.827,-45.855 -0.649,-45.335L18.103,12.118C18.147,12.242 19.814,11.83 19.94,11.79L62.547,-1.218C63.045,-1.369 63.306,-1.916 63.108,-2.398L40.302,-58.806L0,-46.564Z" style="fill:rgb(82,82,84);fill-rule:nonzero;"/>
            </g>
            <g transform="matrix(1,0,0,1,439.544,306.126)">
                <path d="M0,-46.537C-0.529,-46.391 -0.826,-45.829 -0.648,-45.309L18.09,12.134C18.132,12.253 19.809,11.832 19.929,11.795L62.5,-1.219C62.999,-1.37 63.26,-1.916 63.063,-2.398L40.271,-58.79L0,-46.537Z" style="fill:rgb(80,80,82);fill-rule:nonzero;"/>
            </g>
            <g transform="matrix(1,0,0,1,439.575,306.108)">
                <path d="M0,-46.507C-0.528,-46.361 -0.825,-45.8 -0.648,-45.281L18.077,12.153C18.117,12.265 19.803,11.837 19.917,11.802L62.454,-1.216C62.953,-1.367 63.214,-1.914 63.017,-2.396L40.241,-58.772L0,-46.507Z" style="fill:rgb(78,78,80);fill-rule:nonzero;"/>
            </g>
            <g transform="matrix(1,0,0,1,439.605,306.092)">
                <path d="M0,-46.48C-0.528,-46.334 -0.824,-45.774 -0.647,-45.256L18.064,12.169C18.103,12.276 19.797,11.839 19.904,11.806L62.408,-1.217C62.906,-1.367 63.167,-1.915 62.97,-2.397L40.211,-58.756L0,-46.48Z" style="fill:rgb(76,76,78);fill-rule:nonzero;"/>
            </g>
            <g transform="matrix(1,0,0,1,439.635,306.075)">
                <path d="M0,-46.452C-0.527,-46.306 -0.823,-45.747 -0.646,-45.23L18.052,12.187C18.087,12.287 19.791,11.842 19.893,11.811L62.362,-1.216C62.86,-1.367 63.121,-1.914 62.924,-2.396L40.181,-58.739L0,-46.452Z" style="fill:rgb(74,75,76);fill-rule:nonzero;"/>
            </g>
            <g transform="matrix(1,0,0,1,439.664,306.058)">
                <path d="M0,-46.424C-0.525,-46.278 -0.821,-45.72 -0.645,-45.203L18.039,12.204C18.073,12.298 19.786,11.846 19.882,11.816L62.317,-1.216C62.815,-1.366 63.076,-1.913 62.879,-2.395L40.151,-58.722L0,-46.424Z" style="fill:rgb(73,73,74);fill-rule:nonzero;"/>
            </g>
            <g transform="matrix(1,0,0,1,439.695,306.041)">
                <path d="M0,-46.395C-0.525,-46.25 -0.819,-45.692 -0.645,-45.177L18.026,12.222C18.059,12.31 19.779,11.85 19.87,11.822L62.271,-1.214C62.77,-1.365 63.03,-1.912 62.833,-2.394L40.121,-58.705L0,-46.395Z" style="fill:rgb(71,71,73);fill-rule:nonzero;"/>
            </g>
            <g transform="matrix(1,0,0,1,439.725,306.024)">
                <path d="M0,-46.367C-0.524,-46.222 -0.818,-45.665 -0.644,-45.151L18.014,12.238C18.044,12.321 19.773,11.853 19.857,11.827L62.225,-1.214C62.724,-1.364 62.984,-1.911 62.787,-2.393L40.091,-58.688L0,-46.367Z" style="fill:rgb(69,68,70);fill-rule:nonzero;"/>
            </g>
            <g transform="matrix(1,0,0,1,439.755,306.007)">
                <path d="M0,-46.339C-0.523,-46.194 -0.817,-45.638 -0.643,-45.124L18.001,12.256C18.028,12.333 19.768,11.856 19.846,11.832L62.179,-1.213C62.677,-1.363 62.938,-1.91 62.741,-2.392L40.061,-58.672L0,-46.339Z" style="fill:rgb(66,65,67);fill-rule:nonzero;"/>
            </g>
            <g transform="matrix(1,0,0,1,439.785,305.991)">
                <path d="M0,-46.311C-0.523,-46.166 -0.816,-45.611 -0.642,-45.098L17.988,12.273C18.014,12.344 19.762,11.859 19.834,11.837L62.133,-1.212C62.631,-1.363 62.892,-1.91 62.695,-2.392L40.03,-58.655L0,-46.311Z" style="fill:rgb(64,63,65);fill-rule:nonzero;"/>
            </g>
            <g transform="matrix(1,0,0,1,439.816,305.974)">
                <path d="M0,-46.283C-0.522,-46.139 -0.815,-45.585 -0.641,-45.072L17.976,12.29C17.999,12.355 19.756,11.863 19.821,11.842L62.087,-1.212C62.585,-1.363 62.846,-1.909 62.649,-2.391L40,-58.638L0,-46.283Z" style="fill:rgb(62,61,62);fill-rule:nonzero;"/>
            </g>
            <g transform="matrix(1,0,0,1,439.845,305.957)">
                <path d="M0,-46.254C-0.521,-46.11 -0.813,-45.557 -0.64,-45.045L17.964,12.308C17.985,12.367 19.751,11.867 19.811,11.848L62.041,-1.211C62.54,-1.361 62.801,-1.907 62.604,-2.389L39.971,-58.621L0,-46.254Z" style="fill:rgb(59,59,60);fill-rule:nonzero;"/>
            </g>
            <g transform="matrix(1,0,0,1,439.875,305.94)">
                <path d="M0,-46.226C-0.52,-46.082 -0.812,-45.53 -0.639,-45.018L17.951,12.325C17.97,12.378 19.745,11.87 19.799,11.853L61.995,-1.21C62.494,-1.36 62.755,-1.907 62.558,-2.389L39.94,-58.604L0,-46.226Z" style="fill:rgb(57,56,58);fill-rule:nonzero;"/>
            </g>
            <g transform="matrix(1,0,0,1,439.905,305.923)">
                <path d="M0,-46.197C-0.52,-46.053 -0.811,-45.502 -0.638,-44.992L17.938,12.343C17.955,12.39 19.739,11.874 19.787,11.859L61.949,-1.209C62.447,-1.359 62.709,-1.905 62.512,-2.387L39.91,-58.587L0,-46.197Z" style="fill:rgb(55,54,56);fill-rule:nonzero;"/>
            </g>
            <g transform="matrix(1,0,0,1,439.936,305.906)">
                <path d="M0,-46.169C-0.519,-46.025 -0.81,-45.475 -0.637,-44.966L17.925,12.36C17.94,12.401 19.732,11.877 19.774,11.864L61.903,-1.208C62.401,-1.358 62.662,-1.905 62.466,-2.387L39.88,-58.57L0,-46.169Z" style="fill:rgb(53,52,53);fill-rule:nonzero;"/>
            </g>
            <g transform="matrix(1,0,0,1,439.966,305.89)">
                <path d="M0,-46.142C-0.518,-45.998 -0.809,-45.449 -0.636,-44.94L17.912,12.377C17.925,12.412 19.727,11.879 19.763,11.868L61.857,-1.208C62.355,-1.358 62.616,-1.905 62.42,-2.387L39.85,-58.554L0,-46.142Z" style="fill:rgb(51,49,50);fill-rule:nonzero;"/>
            </g>
            <g transform="matrix(1,0,0,1,439.996,305.873)">
                <path d="M0,-46.114C-0.518,-45.97 -0.808,-45.422 -0.636,-44.914L17.899,12.393C17.91,12.423 19.721,11.883 19.751,11.873L61.811,-1.208C62.31,-1.358 62.57,-1.904 62.374,-2.386L39.819,-58.537L0,-46.114Z" style="fill:rgb(47,45,46);fill-rule:nonzero;"/>
            </g>
            <g transform="matrix(1,0,0,1,440.027,305.856)">
                <path d="M0,-46.085C-0.517,-45.942 -0.807,-45.395 -0.635,-44.887L17.887,12.411C17.896,12.435 19.715,11.887 19.739,11.879L61.765,-1.207C62.264,-1.356 62.524,-1.903 62.328,-2.385L39.789,-58.52L0,-46.085Z" style="fill:rgb(45,42,43);fill-rule:nonzero;"/>
            </g>
            <g transform="matrix(1,0,0,1,440.056,305.839)">
                <path d="M0,-46.057C-0.515,-45.914 -0.805,-45.368 -0.633,-44.861L17.875,12.428C17.882,12.446 19.71,11.89 19.728,11.884L61.72,-1.206C62.218,-1.356 62.479,-1.902 62.283,-2.384L39.76,-58.503L0,-46.057Z" style="fill:rgb(42,39,40);fill-rule:nonzero;"/>
            </g>
            <g transform="matrix(1,0,0,1,440.086,305.821)">
                <path d="M0,-46.028C-0.514,-45.885 -0.803,-45.34 -0.632,-44.834L17.862,12.447C17.866,12.458 19.704,11.894 19.716,11.89L61.674,-1.204C62.172,-1.354 62.434,-1.901 62.236,-2.382L39.729,-58.486L0,-46.028Z" style="fill:rgb(40,36,37);fill-rule:nonzero;"/>
            </g>
            <g transform="matrix(1,0,0,1,440.117,305.806)">
                <path d="M0,-46.001C-0.514,-45.858 -0.802,-45.314 -0.632,-44.809L17.85,12.463C17.852,12.469 19.698,11.896 19.704,11.895L61.628,-1.205C62.126,-1.355 62.387,-1.9 62.19,-2.382L39.699,-58.47L0,-46.001Z" style="fill:rgb(37,34,35);fill-rule:nonzero;"/>
            </g>
            <g transform="matrix(1,0,0,1,479.816,318.269)">
                <path d="M0,-70.933L-39.669,-58.453C-40.182,-58.31 -40.47,-57.766 -40.3,-57.263L-21.832,0L21.913,-13.684C22.411,-13.834 22.672,-14.38 22.476,-14.862L0,-70.933Z" style="fill:rgb(35,31,32);fill-rule:nonzero;"/>
            </g>
            <g transform="matrix(31.5214,91.2651,91.2651,-31.5214,454.418,241.663)">
                <path d="M0.098,-0.245L0.762,-0.245L0.783,0.278L0.136,0.234L0.098,-0.245Z" style="fill:url(#_Linear3);fill-rule:nonzero;"/>
            </g>
        </g>
    </g>
    <defs>
        <radialGradient id="_Radial1" cx="0" cy="0" r="1" gradientUnits="userSpaceOnUse" gradientTransform="matrix(1,0,0,-1,0,0.638284)"><stop offset="0" style="stop-color:rgb(251,250,231);stop-opacity:1"/><stop offset="1" style="stop-color:rgb(239,234,152);stop-opacity:1"/></radialGradient>
        <linearGradient id="_Linear2" x1="0" y1="0" x2="1" y2="0" gradientUnits="userSpaceOnUse" gradientTransform="matrix(0.32646,0.945211,0.945211,-0.32646,0.336771,-0.472607)"><stop offset="0" style="stop-color:white;stop-opacity:1"/><stop offset="0" style="stop-color:white;stop-opacity:1"/><stop offset="0.87" style="stop-color:rgb(178,182,186);stop-opacity:1"/><stop offset="1" style="stop-color:rgb(178,182,186);stop-opacity:1"/></linearGradient>
        <linearGradient id="_Linear3" x1="0" y1="0" x2="1" y2="0" gradientUnits="userSpaceOnUse" gradientTransform="matrix(0.659745,-0.751489,-0.751489,-0.659745,0.154854,0.342011)"><stop offset="0" style="stop-color:white;stop-opacity:1"/><stop offset="0" style="stop-color:white;stop-opacity:1"/><stop offset="0.87" style="stop-color:rgb(178,182,186);stop-opacity:1"/><stop offset="1" style="stop-color:rgb(178,182,186);stop-opacity:1"/></linearGradient>
    </defs>
</svg>
