<?xml version="1.0" encoding="UTF-8" standalone="no"?>
<!DOCTYPE svg PUBLIC "-//W3C//DTD SVG 1.1//EN" "http://www.w3.org/Graphics/SVG/1.1/DTD/svg11.dtd">
<svg width="100%" height="100%" viewBox="0 0 105 104" version="1.1" xmlns="http://www.w3.org/2000/svg" xmlns:xlink="http://www.w3.org/1999/xlink" xml:space="preserve" xmlns:serif="http://www.serif.com/" style="fill-rule:evenodd;clip-rule:evenodd;stroke-linejoin:round;stroke-miterlimit:2;">
    <g transform="matrix(1,0,0,1,-320,0)">
        <g id="agua" transform="matrix(1,0,0,1,-856.497,227.309)">
            <rect x="1177.43" y="-227.309" width="103.293" height="103.293" style="fill:none;"/>
            <g transform="matrix(2.64143,0,0,2.64143,1272.46,-185.063)">
                <path d="M0,-0.439L0,3.303C-1.383,3.705 -2.698,3.165 -4.012,2.969C-4.933,2.831 -5.864,2.499 -6.694,2.068C-9.496,0.613 -12.41,0.696 -15.325,1.437C-16.847,1.824 -18.34,2.437 -19.743,3.151C-21.907,4.252 -23.999,3.874 -25.972,2.913C-28.141,1.857 -30.17,0.516 -32.258,-0.706C-32.384,-0.78 -32.486,-0.894 -32.856,-1.202C-32.103,-1.202 -31.6,-1.272 -31.122,-1.191C-27.203,-0.528 -23.575,-1.575 -20.114,-3.217C-17.204,-4.599 -14.346,-4.691 -11.394,-3.549C-10.657,-3.264 -9.913,-2.981 -9.212,-2.62C-6.532,-1.243 -3.703,-0.556 -0.687,-0.658C-0.531,-0.664 -0.374,-0.624 -0.22,-0.594C-0.175,-0.585 -0.138,-0.538 0,-0.439" style="fill:rgb(0,187,242);fill-rule:nonzero;stroke:black;stroke-width:1.03px;"/>
            </g>
            <g transform="matrix(2.64143,0,0,2.64143,1272.46,-167.128)">
                <path d="M0,-3.025L0,2.841C-0.679,2.675 -1.246,2.611 -1.751,2.398C-3.352,1.726 -4.917,0.969 -6.519,0.299C-8.901,-0.698 -11.218,-0.713 -13.438,0.82C-13.991,1.203 -14.648,1.505 -15.302,1.658C-16.509,1.939 -17.723,1.924 -18.749,1.052C-20.139,-0.128 -21.52,-1.318 -22.981,-2.571C-22.691,-2.731 -22.543,-2.884 -22.434,-2.86C-21.075,-2.568 -19.99,-3.275 -18.845,-3.794C-16.586,-4.817 -14.346,-5.866 -11.763,-5.835C-10.355,-5.817 -9.006,-5.602 -7.785,-4.957C-5.688,-3.848 -3.499,-3.232 -1.124,-3.254C-0.769,-3.258 -0.411,-3.113 0,-3.025" style="fill:rgb(111,150,191);fill-rule:nonzero;stroke:black;stroke-width:1.03px;"/>
            </g>
            <g transform="matrix(2.64143,0,0,2.64143,1229.12,-152.442)">
                <path d="M0,-3.374C1.566,-4.106 2.942,-4.756 4.325,-5.394C5.987,-6.159 7.662,-6.198 9.338,-5.438C10.92,-4.722 12.487,-3.972 14.082,-3.288C14.799,-2.98 15.569,-2.798 16.413,-2.529L16.413,2.411C15.514,2.824 14.85,2.41 14.133,2.063C12.528,1.288 10.899,0.561 9.266,-0.152C7.735,-0.82 6.156,-0.742 4.641,-0.162C3.761,0.175 3.136,0.043 2.534,-0.63C1.705,-1.556 0.849,-2.458 0,-3.374" style="fill:rgb(0,187,242);fill-rule:nonzero;stroke:black;stroke-width:1.03px;"/>
            </g>
        </g>
    </g>
</svg>
