<?xml version="1.0" encoding="UTF-8" standalone="no"?>
<!DOCTYPE svg PUBLIC "-//W3C//DTD SVG 1.1//EN" "http://www.w3.org/Graphics/SVG/1.1/DTD/svg11.dtd">
<svg width="100%" height="100%" viewBox="0 0 104 104" version="1.1" xmlns="http://www.w3.org/2000/svg" xmlns:xlink="http://www.w3.org/1999/xlink" xml:space="preserve" xmlns:serif="http://www.serif.com/" style="fill-rule:evenodd;clip-rule:evenodd;stroke-linecap:round;stroke-miterlimit:2;">
    <g transform="matrix(1,0,0,1,-160,0)">
        <g id="aire" transform="matrix(1,0,0,1,-1017.32,227.309)">
            <rect x="1177.43" y="-227.309" width="103.293" height="103.293" style="fill:none;"/>
            <g transform="matrix(4.16667,0,0,4.16667,1103.87,-207.428)">
                <path d="M18.81,1.681C18.81,1.681 19.216,5.269 23.035,6.661C26.854,8.053 31.078,7.715 35.085,7.025C36.719,6.744 38.405,6.38 39.722,5.371C41.037,4.363 41.863,2.528 41.219,1.001C40.576,-0.522 38.595,-1.213 37.038,-0.656C35.482,-0.099 34.426,1.473 34.201,3.11C34.974,1.68 37.183,0.578 38.052,1.95C38.903,3.294 37.114,4.792 35.568,5.165C32.458,5.915 28.771,5.258 25.65,4.555C20.825,3.469 17.943,1.681 18.81,1.681Z" style="fill:rgb(240,250,255);fill-rule:nonzero;"/>
            </g>
            <g transform="matrix(-3.01276,-3.68957e-16,3.68957e-16,-3.01276,1313.18,-134.771)">
                <path d="M18.81,1.681C18.81,1.681 19.216,5.269 23.035,6.661C26.854,8.053 31.078,7.715 35.085,7.025C36.719,6.744 38.405,6.38 39.722,5.371C41.037,4.363 41.863,2.528 41.219,1.001C40.576,-0.522 38.595,-1.213 37.038,-0.656C35.482,-0.099 34.426,1.473 34.201,3.11C34.974,1.68 37.183,0.578 38.052,1.95C38.903,3.294 37.114,4.792 35.568,5.165C32.458,5.915 28.771,5.258 25.65,4.555C20.825,3.469 17.943,1.681 18.81,1.681Z" style="fill:rgb(240,250,255);fill-rule:nonzero;"/>
            </g>
            <g transform="matrix(3.19709,0.496694,-0.301023,5.27526,1270.27,-184.588)">
                <path d="M0,1.491C-1.498,1.402 -2.798,1.281 -4.099,1.256C-7.141,1.199 -10.038,1.828 -12.873,2.959C-14.361,3.553 -17.581,4.096 -17.581,4.096C-17.581,4.096 -15.642,0.559 -9.215,-0.57C-2.788,-1.699 0,1.491 0,1.491Z" style="fill:rgb(218,241,253);fill-rule:nonzero;stroke:black;stroke-width:0.73px;"/>
            </g>
            <g transform="matrix(3.21123,0,0,5.29859,1286.42,-176.795)">
                <path d="M-20.767,2.967C-9.032,0.473 -5.168,5.442 -5.168,5.442C-5.62,5.343 -10.285,3.127 -21.247,5.876C-25.522,6.948 -30.549,0.959 -30.549,0.959C-30.549,0.959 -24.018,3.658 -20.767,2.967Z" style="fill:rgb(218,241,253);fill-rule:nonzero;stroke:black;stroke-width:0.76px;stroke-linecap:butt;"/>
            </g>
        </g>
    </g>
</svg>
