<?xml version="1.0" encoding="UTF-8" standalone="no"?>
<!DOCTYPE svg PUBLIC "-//W3C//DTD SVG 1.1//EN" "http://www.w3.org/Graphics/SVG/1.1/DTD/svg11.dtd">
<svg width="100%" height="100%" viewBox="0 0 104 104" version="1.1" xmlns="http://www.w3.org/2000/svg" xmlns:xlink="http://www.w3.org/1999/xlink" xml:space="preserve" xmlns:serif="http://www.serif.com/" style="fill-rule:evenodd;clip-rule:evenodd;stroke-linejoin:round;stroke-miterlimit:2;">
    <g id="sol" transform="matrix(1,0,0,1,-1177.43,227.309)">
        <rect x="1177.43" y="-227.309" width="103.293" height="103.293" style="fill:none;"/>
        <g transform="matrix(0.804335,0,0,0.804335,240.487,-45.2296)">
            <g transform="matrix(2.19576,0,0,2.19576,1265.1,-162.696)">
                <path d="M0,0.319C0.151,-1.78 -0.59,-3.694 -1.258,-5.553C-3.245,-11.084 -7.393,-14.313 -12.992,-15.538C-18.222,-16.682 -23.017,-15.328 -27.207,-12.03C-28.522,-10.995 -29.81,-9.854 -30.507,-8.246C-30.886,-7.374 -31.263,-6.501 -31.608,-5.617C-32.421,-3.537 -32.868,-1.341 -32.743,0.853C-32.584,3.654 -31.816,6.358 -30.28,8.77C-27.683,12.849 -24.05,15.524 -19.256,16.282C-14.229,17.078 -9.618,15.967 -5.73,12.506C-3.326,10.365 -1.465,7.841 -0.688,4.669C-0.34,3.248 -0.223,1.771 0,0.319M0.853,1.209C0.725,2.053 0.66,3.715 0.2,5.258C-1.086,9.569 -3.717,12.857 -7.63,15.165C-10.833,17.055 -14.309,17.773 -17.921,17.588C-20.902,17.434 -23.698,16.378 -26.155,14.615C-27.217,13.853 -28.292,13.065 -29.189,12.124C-32.285,8.88 -33.598,4.92 -33.679,0.481C-33.729,-2.308 -33.327,-5.015 -31.93,-7.429C-29.952,-10.844 -27.442,-13.692 -23.737,-15.498C-20.163,-17.24 -16.528,-17.454 -12.801,-16.762C-9.672,-16.181 -6.933,-14.69 -4.548,-12.493C-2.466,-10.574 -1.273,-8.197 -0.092,-5.695C0.863,-3.672 0.903,-1.666 0.853,1.209" style="fill:rgb(35,31,32);fill-rule:nonzero;"/>
            </g>
            <g transform="matrix(2.19576,0,0,2.19576,1265.1,-162.527)">
                <path d="M0,0.242C-0.223,1.694 -0.34,3.171 -0.688,4.592C-1.465,7.764 -3.326,10.288 -5.73,12.429C-9.618,15.89 -14.229,17.001 -19.256,16.205C-24.05,15.447 -27.683,12.772 -30.28,8.693C-31.816,6.281 -32.584,3.577 -32.743,0.776C-32.868,-1.418 -32.421,-3.614 -31.608,-5.694C-31.263,-6.578 -30.886,-7.451 -30.507,-8.323C-29.81,-9.931 -28.522,-11.072 -27.207,-12.107C-23.017,-15.405 -18.222,-16.759 -12.992,-15.615C-7.393,-14.39 -3.245,-11.161 -1.258,-5.63C-0.59,-3.771 0.151,-1.857 0,0.242" style="fill:rgb(250,162,26);fill-rule:nonzero;"/>
            </g>
            <g transform="matrix(0,-2.19576,-2.19576,0,1229.34,-206.191)">
                <path d="M-9.588,-9.588C-12.185,-9.588 -14.29,-5.295 -14.29,0C-14.29,5.296 -12.185,9.588 -9.588,9.588C-6.991,9.588 -4.886,5.296 -4.886,0C-4.886,-5.295 -6.991,-9.588 -9.588,-9.588" style="fill:rgb(255,194,13);fill-rule:nonzero;"/>
            </g>
        </g>
    </g>
</svg>
