<?xml version="1.0" encoding="UTF-8" standalone="no"?>
<!DOCTYPE svg PUBLIC "-//W3C//DTD SVG 1.1//EN" "http://www.w3.org/Graphics/SVG/1.1/DTD/svg11.dtd">
<svg width="100%" height="100%" viewBox="0 0 104 104" version="1.1" xmlns="http://www.w3.org/2000/svg" xmlns:xlink="http://www.w3.org/1999/xlink" xml:space="preserve" xmlns:serif="http://www.serif.com/" style="fill-rule:evenodd;clip-rule:evenodd;stroke-linejoin:round;stroke-miterlimit:2;">
    <g transform="matrix(1,0,0,1,-491,0)">
        <g id="suelo" transform="matrix(1,0,0,1,-685.805,227.309)">
            <rect x="1177.43" y="-227.309" width="103.293" height="103.293" style="fill:none;"/>
            <g transform="matrix(3.56951,0,0,1.91546,1184.07,-145.173)">
                <path d="M0,-34.002C1.769,-33.81 2.932,-33.069 4.033,-32.256C6.077,-30.747 7.869,-28.965 9.48,-26.997C9.946,-26.428 10.467,-25.898 11.005,-25.395C13.89,-22.704 15.802,-19.247 18.268,-16.233C20.107,-13.985 21.028,-11.287 22.46,-8.848C23.489,-7.094 24.264,-5.19 25.217,-3.216C22.902,-2.199 20.781,-1.275 18.667,-0.333C17.921,0 17.656,-0.407 17.367,-1.009C15.816,-4.239 14.391,-7.544 12.613,-10.647C10.572,-14.208 8.194,-17.575 5.992,-21.046C4.736,-23.026 3.229,-24.76 1.36,-26.185C0.759,-26.644 0.396,-27.229 0.367,-28.062C0.301,-29.996 0.135,-31.926 0,-34.002" style="fill:rgb(202,157,72);fill-rule:nonzero;stroke:black;stroke-width:1.02px;"/>
            </g>
            <g transform="matrix(3.56951,0,0,1.91546,1245.62,-191.801)">
                <path d="M0,23.569C-2.981,24.81 -5.943,25.182 -8.97,25.725C-9.649,24.153 -10.247,22.646 -10.943,21.187C-12.349,18.24 -13.809,15.319 -15.245,12.387C-16.576,11.359 -16.232,9.898 -16.233,8.532C-16.235,5.42 -16.229,2.309 -16.218,-0.803C-16.216,-1.151 -16.164,-1.5 -16.11,-2.156C-15.204,-1.41 -14.349,-0.93 -13.794,-0.217C-9.617,5.152 -5.739,10.724 -2.846,16.912C-1.846,19.048 -0.986,21.25 0,23.569" style="fill:rgb(205,225,139);fill-rule:nonzero;stroke:black;stroke-width:1.02px;"/>
            </g>
            <g transform="matrix(-3.91496,0.000951034,0.00177228,2.10083,1210.53,-141.024)">
                <path d="M5.256,-13.255C3.029,-9.389 0.908,-5.474 -0.36,-0.999C1.457,-0.317 3.279,-0.275 5.256,-0.001C5.379,-4.476 5.499,-8.838 5.619,-13.2C5.498,-13.218 5.377,-13.237 5.256,-13.255" style="fill:rgb(202,157,72);fill-rule:nonzero;stroke:black;stroke-width:0.93px;"/>
            </g>
        </g>
    </g>
</svg>
