<?xml version="1.0" encoding="UTF-8" standalone="no"?>
<!DOCTYPE svg PUBLIC "-//W3C//DTD SVG 1.1//EN" "http://www.w3.org/Graphics/SVG/1.1/DTD/svg11.dtd">
<svg width="100%" height="100%" viewBox="0 0 263 159" version="1.1" xmlns="http://www.w3.org/2000/svg" xmlns:xlink="http://www.w3.org/1999/xlink" xml:space="preserve" xmlns:serif="http://www.serif.com/" style="fill-rule:evenodd;clip-rule:evenodd;">
    <g transform="matrix(1,0,0,1,-28,-270)">
        <g transform="matrix(1,0,0,1,8.3998,-16.1309)">
            <g transform="matrix(1,0,0,1,-72.5332,20.6517)">
                <g transform="matrix(13,0,0,13,92.707,339.84)">
                    <path d="M-0.008,-0.622C-0.007,-0.635 -0.004,-0.647 0.001,-0.659C0.006,-0.67 0.013,-0.681 0.022,-0.69C0.031,-0.699 0.042,-0.707 0.054,-0.712C0.065,-0.716 0.078,-0.719 0.091,-0.719L0.482,-0.72C0.495,-0.719 0.508,-0.716 0.52,-0.712C0.531,-0.707 0.542,-0.699 0.552,-0.689C0.561,-0.679 0.569,-0.668 0.574,-0.657C0.579,-0.645 0.581,-0.632 0.581,-0.618L0.581,-0.617C0.58,-0.603 0.578,-0.59 0.573,-0.579C0.568,-0.567 0.56,-0.556 0.551,-0.547C0.541,-0.538 0.53,-0.531 0.519,-0.526C0.508,-0.521 0.495,-0.519 0.482,-0.519L0.398,-0.52L0.398,-0.105C0.398,-0.089 0.395,-0.075 0.39,-0.062C0.384,-0.049 0.375,-0.036 0.364,-0.025C0.353,-0.014 0.341,-0.006 0.328,-0.001C0.314,0.004 0.299,0.007 0.284,0.007C0.268,0.007 0.253,0.004 0.24,-0.001C0.226,-0.006 0.213,-0.014 0.202,-0.025C0.191,-0.036 0.183,-0.049 0.178,-0.062C0.172,-0.075 0.169,-0.09 0.169,-0.106L0.169,-0.522L0.09,-0.522C0.076,-0.521 0.063,-0.523 0.052,-0.528C0.041,-0.533 0.03,-0.54 0.021,-0.55C0.012,-0.559 0.005,-0.57 0.001,-0.582C-0.004,-0.593 -0.006,-0.606 -0.006,-0.62L-0.006,-0.621L-0.008,-0.622Z" style="fill:rgb(116,72,157);fill-rule:nonzero;"/>
                </g>
                <g transform="matrix(13,0,0,13,100.156,339.84)">
                    <path d="M0.143,0.009C0.128,0.008 0.114,0.006 0.101,0.001C0.088,-0.005 0.075,-0.012 0.064,-0.023C0.053,-0.034 0.045,-0.046 0.04,-0.059C0.035,-0.071 0.032,-0.086 0.032,-0.101L0.032,-0.436C0.032,-0.451 0.035,-0.465 0.041,-0.478C0.046,-0.491 0.054,-0.503 0.065,-0.514C0.076,-0.525 0.089,-0.534 0.102,-0.539C0.115,-0.544 0.129,-0.546 0.144,-0.546C0.159,-0.545 0.173,-0.542 0.187,-0.537C0.2,-0.532 0.211,-0.523 0.222,-0.512C0.233,-0.501 0.242,-0.49 0.247,-0.477C0.252,-0.464 0.255,-0.449 0.255,-0.434L0.255,-0.103C0.255,-0.087 0.252,-0.073 0.247,-0.06C0.242,-0.047 0.233,-0.034 0.222,-0.023C0.211,-0.012 0.199,-0.005 0.186,0.001C0.173,0.006 0.158,0.008 0.143,0.008L0.143,0.009ZM0.06,-0.603C0.055,-0.608 0.05,-0.613 0.046,-0.62C0.042,-0.627 0.038,-0.634 0.035,-0.641C0.032,-0.648 0.03,-0.656 0.029,-0.663C0.027,-0.67 0.026,-0.678 0.026,-0.686C0.026,-0.694 0.027,-0.702 0.029,-0.71C0.03,-0.717 0.032,-0.725 0.035,-0.732C0.038,-0.739 0.042,-0.746 0.047,-0.753C0.051,-0.759 0.056,-0.765 0.061,-0.77C0.066,-0.775 0.072,-0.779 0.077,-0.783C0.082,-0.786 0.088,-0.789 0.094,-0.792C0.1,-0.795 0.106,-0.798 0.113,-0.8C0.119,-0.801 0.125,-0.802 0.132,-0.803L0.134,-0.803C0.134,-0.803 0.134,-0.803 0.135,-0.804L0.143,-0.804C0.15,-0.803 0.158,-0.802 0.166,-0.801C0.173,-0.8 0.18,-0.797 0.187,-0.794C0.194,-0.791 0.201,-0.788 0.208,-0.784C0.214,-0.779 0.22,-0.774 0.226,-0.768C0.231,-0.762 0.236,-0.756 0.241,-0.75C0.245,-0.743 0.248,-0.736 0.251,-0.729C0.254,-0.722 0.257,-0.714 0.258,-0.707C0.259,-0.699 0.26,-0.691 0.26,-0.684L0.26,-0.676C0.259,-0.675 0.259,-0.675 0.259,-0.675L0.259,-0.673C0.258,-0.666 0.257,-0.66 0.256,-0.654C0.254,-0.647 0.251,-0.641 0.248,-0.635C0.245,-0.629 0.242,-0.623 0.239,-0.618C0.235,-0.613 0.231,-0.607 0.226,-0.602C0.22,-0.596 0.214,-0.591 0.208,-0.587C0.201,-0.583 0.194,-0.579 0.187,-0.576C0.18,-0.573 0.172,-0.571 0.165,-0.57C0.157,-0.568 0.149,-0.567 0.142,-0.568L0.134,-0.568C0.133,-0.568 0.133,-0.568 0.133,-0.569C0.132,-0.569 0.132,-0.569 0.131,-0.569C0.124,-0.569 0.118,-0.57 0.112,-0.572C0.105,-0.573 0.099,-0.575 0.093,-0.578C0.087,-0.581 0.081,-0.585 0.076,-0.589C0.071,-0.593 0.065,-0.597 0.06,-0.602L0.06,-0.603Z" style="fill:rgb(116,72,157);fill-rule:nonzero;"/>
                </g>
                <g transform="matrix(13,0,0,13,105.382,339.84)">
                    <path d="M0.061,0.22C0.056,0.214 0.051,0.208 0.047,0.202C0.043,0.196 0.04,0.189 0.037,0.182C0.034,0.175 0.032,0.169 0.031,0.162C0.03,0.155 0.029,0.147 0.029,0.14L0.029,-0.437C0.029,-0.452 0.032,-0.466 0.037,-0.479C0.042,-0.492 0.05,-0.503 0.061,-0.514C0.072,-0.525 0.083,-0.533 0.096,-0.538C0.109,-0.543 0.122,-0.546 0.137,-0.546L0.142,-0.546L0.229,-0.497L0.229,-0.502C0.238,-0.509 0.248,-0.515 0.259,-0.521C0.269,-0.526 0.28,-0.531 0.291,-0.535C0.302,-0.538 0.314,-0.541 0.326,-0.543C0.337,-0.545 0.349,-0.546 0.362,-0.546C0.366,-0.546 0.37,-0.546 0.374,-0.546L0.398,-0.543C0.402,-0.542 0.406,-0.542 0.411,-0.541C0.419,-0.539 0.427,-0.537 0.435,-0.534C0.443,-0.531 0.451,-0.528 0.459,-0.525C0.467,-0.522 0.475,-0.518 0.483,-0.513C0.491,-0.508 0.499,-0.503 0.506,-0.498C0.519,-0.489 0.532,-0.478 0.543,-0.466C0.554,-0.453 0.564,-0.439 0.573,-0.424C0.582,-0.409 0.59,-0.393 0.597,-0.376C0.603,-0.358 0.608,-0.339 0.611,-0.32C0.611,-0.317 0.611,-0.315 0.612,-0.313C0.612,-0.31 0.612,-0.308 0.613,-0.306C0.613,-0.303 0.613,-0.301 0.614,-0.299C0.614,-0.296 0.614,-0.294 0.615,-0.292L0.615,-0.274C0.615,-0.273 0.615,-0.272 0.616,-0.271L0.616,-0.264C0.616,-0.259 0.616,-0.255 0.616,-0.25C0.615,-0.245 0.615,-0.239 0.614,-0.234C0.613,-0.229 0.613,-0.225 0.612,-0.22C0.611,-0.215 0.61,-0.209 0.609,-0.204C0.604,-0.179 0.596,-0.157 0.586,-0.136C0.576,-0.115 0.564,-0.095 0.55,-0.078C0.535,-0.061 0.519,-0.047 0.501,-0.034C0.483,-0.021 0.463,-0.011 0.442,-0.004C0.435,-0.001 0.427,0.001 0.42,0.002C0.413,0.003 0.405,0.004 0.398,0.005L0.377,0.008L0.355,0.009C0.348,0.009 0.34,0.009 0.333,0.008C0.326,0.007 0.318,0.006 0.311,0.005C0.304,0.004 0.298,0.002 0.291,0.001C0.284,-0 0.277,-0.002 0.27,-0.005L0.259,-0.01L0.249,-0.014L0.249,0.142C0.249,0.149 0.248,0.157 0.247,0.164C0.246,0.171 0.243,0.177 0.24,0.184C0.237,0.191 0.234,0.197 0.23,0.203C0.226,0.209 0.221,0.215 0.216,0.22C0.211,0.225 0.205,0.23 0.199,0.234C0.193,0.238 0.187,0.241 0.18,0.244C0.177,0.245 0.173,0.247 0.17,0.248C0.167,0.249 0.163,0.249 0.16,0.25C0.156,0.251 0.152,0.251 0.149,0.252C0.146,0.252 0.142,0.252 0.139,0.252C0.132,0.252 0.125,0.251 0.118,0.25C0.111,0.249 0.104,0.247 0.097,0.244C0.09,0.241 0.084,0.238 0.078,0.234C0.072,0.229 0.066,0.224 0.061,0.219L0.061,0.22ZM0.245,-0.262C0.245,-0.249 0.247,-0.237 0.251,-0.226C0.255,-0.215 0.26,-0.206 0.267,-0.198C0.274,-0.19 0.282,-0.184 0.291,-0.181C0.3,-0.177 0.309,-0.175 0.32,-0.175L0.322,-0.175C0.332,-0.175 0.342,-0.177 0.351,-0.181C0.36,-0.185 0.368,-0.191 0.375,-0.199C0.382,-0.207 0.388,-0.216 0.391,-0.227C0.394,-0.238 0.396,-0.249 0.396,-0.262L0.396,-0.276C0.395,-0.277 0.395,-0.277 0.395,-0.278L0.395,-0.28C0.394,-0.289 0.391,-0.298 0.388,-0.306C0.384,-0.313 0.379,-0.32 0.374,-0.326C0.368,-0.332 0.362,-0.337 0.355,-0.341C0.348,-0.344 0.341,-0.347 0.334,-0.348L0.332,-0.348C0.331,-0.348 0.331,-0.348 0.33,-0.349L0.319,-0.349C0.308,-0.349 0.299,-0.347 0.29,-0.343C0.281,-0.339 0.273,-0.333 0.266,-0.325C0.259,-0.317 0.253,-0.308 0.25,-0.297C0.246,-0.286 0.244,-0.274 0.245,-0.261L0.245,-0.262Z" style="fill:rgb(116,72,157);fill-rule:nonzero;"/>
                </g>
                <g transform="matrix(13,0,0,13,113.65,339.84)">
                    <path d="M0.316,0.011C0.274,0.01 0.236,0.003 0.201,-0.01C0.166,-0.023 0.134,-0.043 0.106,-0.07C0.077,-0.097 0.056,-0.127 0.042,-0.16C0.027,-0.192 0.02,-0.227 0.02,-0.266C0.019,-0.305 0.026,-0.341 0.04,-0.374C0.054,-0.407 0.075,-0.437 0.104,-0.465C0.132,-0.493 0.164,-0.514 0.199,-0.528C0.234,-0.542 0.273,-0.549 0.316,-0.549C0.335,-0.549 0.354,-0.548 0.372,-0.545C0.39,-0.542 0.407,-0.537 0.424,-0.531C0.441,-0.525 0.458,-0.518 0.473,-0.509C0.488,-0.5 0.502,-0.489 0.515,-0.478C0.53,-0.465 0.544,-0.45 0.556,-0.435C0.568,-0.42 0.578,-0.403 0.586,-0.386C0.594,-0.369 0.6,-0.351 0.605,-0.333C0.609,-0.315 0.611,-0.297 0.612,-0.279L0.612,-0.269C0.612,-0.245 0.609,-0.222 0.603,-0.199C0.596,-0.176 0.587,-0.154 0.575,-0.132C0.563,-0.11 0.548,-0.09 0.53,-0.073C0.512,-0.056 0.491,-0.04 0.468,-0.027C0.457,-0.02 0.446,-0.015 0.434,-0.01C0.422,-0.005 0.409,-0.002 0.396,-0C0.383,0.003 0.37,0.006 0.357,0.008C0.344,0.009 0.33,0.01 0.316,0.01L0.316,0.011ZM0.238,-0.268C0.237,-0.253 0.239,-0.24 0.243,-0.229C0.247,-0.218 0.253,-0.208 0.261,-0.199C0.269,-0.19 0.278,-0.184 0.287,-0.18C0.296,-0.176 0.305,-0.174 0.316,-0.174L0.323,-0.174C0.324,-0.174 0.326,-0.174 0.327,-0.175C0.328,-0.175 0.33,-0.175 0.331,-0.176C0.34,-0.177 0.347,-0.18 0.355,-0.184C0.362,-0.187 0.367,-0.192 0.372,-0.198C0.377,-0.204 0.382,-0.211 0.385,-0.219C0.388,-0.227 0.391,-0.236 0.392,-0.247L0.392,-0.249C0.392,-0.25 0.392,-0.251 0.393,-0.252L0.393,-0.26C0.393,-0.261 0.393,-0.262 0.394,-0.263L0.394,-0.268C0.394,-0.273 0.394,-0.277 0.393,-0.282C0.392,-0.286 0.391,-0.29 0.39,-0.294C0.389,-0.298 0.388,-0.302 0.387,-0.306C0.385,-0.31 0.383,-0.314 0.381,-0.317C0.377,-0.324 0.373,-0.33 0.368,-0.335C0.363,-0.339 0.357,-0.343 0.352,-0.346C0.347,-0.349 0.341,-0.352 0.335,-0.354C0.329,-0.355 0.323,-0.356 0.316,-0.356C0.309,-0.356 0.303,-0.355 0.297,-0.354C0.29,-0.352 0.284,-0.349 0.279,-0.346C0.274,-0.343 0.269,-0.339 0.264,-0.335C0.259,-0.33 0.255,-0.324 0.251,-0.317C0.249,-0.314 0.247,-0.31 0.246,-0.306C0.244,-0.302 0.242,-0.298 0.241,-0.294C0.24,-0.29 0.24,-0.286 0.239,-0.282C0.238,-0.277 0.238,-0.272 0.238,-0.267L0.238,-0.268Z" style="fill:rgb(116,72,157);fill-rule:nonzero;"/>
                </g>
                <g transform="matrix(13,0,0,13,121.866,339.84)">
                    <path d="M0.073,-0.03C0.062,-0.036 0.052,-0.043 0.044,-0.05C0.036,-0.056 0.029,-0.064 0.024,-0.071C0.019,-0.078 0.016,-0.086 0.013,-0.093C0.01,-0.1 0.009,-0.108 0.009,-0.115L0.009,-0.121C0.009,-0.123 0.009,-0.125 0.01,-0.127C0.01,-0.129 0.01,-0.131 0.011,-0.133C0.012,-0.135 0.012,-0.137 0.013,-0.139C0.016,-0.147 0.02,-0.155 0.025,-0.162C0.029,-0.169 0.036,-0.174 0.044,-0.179C0.051,-0.184 0.06,-0.188 0.07,-0.191C0.079,-0.194 0.089,-0.195 0.1,-0.195C0.103,-0.195 0.107,-0.195 0.111,-0.195C0.115,-0.194 0.119,-0.194 0.123,-0.193C0.127,-0.192 0.131,-0.191 0.136,-0.19C0.14,-0.189 0.144,-0.187 0.149,-0.186L0.169,-0.181L0.183,-0.176C0.19,-0.173 0.197,-0.17 0.203,-0.168C0.209,-0.166 0.214,-0.164 0.219,-0.163L0.243,-0.158L0.249,-0.159L0.261,-0.159C0.264,-0.158 0.266,-0.158 0.268,-0.159C0.27,-0.159 0.272,-0.159 0.273,-0.16C0.274,-0.161 0.276,-0.163 0.277,-0.164C0.278,-0.165 0.278,-0.166 0.279,-0.167L0.279,-0.168C0.279,-0.168 0.279,-0.168 0.28,-0.169L0.28,-0.172C0.28,-0.173 0.28,-0.175 0.28,-0.177C0.279,-0.178 0.278,-0.18 0.277,-0.181C0.276,-0.182 0.275,-0.184 0.274,-0.185C0.272,-0.186 0.27,-0.188 0.268,-0.189L0.266,-0.189C0.265,-0.189 0.265,-0.189 0.265,-0.19L0.265,-0.191L0.265,-0.191C0.264,-0.191 0.264,-0.191 0.264,-0.192L0.263,-0.192C0.262,-0.192 0.262,-0.192 0.262,-0.193L0.261,-0.193L0.252,-0.197L0.232,-0.202L0.206,-0.21L0.187,-0.215C0.164,-0.22 0.143,-0.227 0.127,-0.234C0.11,-0.241 0.096,-0.248 0.085,-0.256C0.074,-0.263 0.065,-0.272 0.058,-0.282C0.05,-0.292 0.043,-0.303 0.038,-0.316C0.036,-0.321 0.034,-0.325 0.033,-0.33C0.032,-0.335 0.03,-0.339 0.029,-0.344C0.028,-0.349 0.028,-0.353 0.028,-0.358C0.027,-0.363 0.027,-0.367 0.027,-0.372C0.027,-0.395 0.032,-0.417 0.043,-0.437C0.054,-0.457 0.07,-0.476 0.092,-0.494C0.113,-0.512 0.139,-0.526 0.169,-0.535C0.199,-0.544 0.233,-0.548 0.271,-0.548L0.282,-0.548C0.291,-0.548 0.299,-0.548 0.307,-0.547C0.315,-0.546 0.323,-0.545 0.331,-0.544C0.338,-0.543 0.345,-0.542 0.353,-0.541C0.36,-0.539 0.366,-0.537 0.373,-0.536C0.386,-0.533 0.397,-0.529 0.407,-0.525C0.417,-0.521 0.426,-0.517 0.434,-0.512C0.438,-0.509 0.442,-0.507 0.445,-0.505C0.448,-0.502 0.452,-0.5 0.455,-0.498C0.458,-0.495 0.46,-0.493 0.463,-0.491C0.465,-0.488 0.467,-0.486 0.469,-0.483C0.471,-0.48 0.473,-0.476 0.475,-0.473C0.477,-0.47 0.478,-0.466 0.479,-0.463C0.48,-0.46 0.481,-0.456 0.482,-0.453C0.482,-0.449 0.482,-0.445 0.482,-0.442C0.482,-0.434 0.481,-0.427 0.479,-0.42C0.476,-0.413 0.472,-0.405 0.467,-0.398C0.462,-0.391 0.456,-0.386 0.45,-0.381C0.443,-0.376 0.435,-0.373 0.426,-0.371C0.424,-0.37 0.422,-0.37 0.42,-0.37C0.418,-0.369 0.416,-0.369 0.414,-0.369C0.413,-0.369 0.412,-0.369 0.411,-0.369C0.41,-0.368 0.409,-0.368 0.408,-0.368L0.401,-0.368C0.398,-0.368 0.395,-0.368 0.392,-0.369C0.388,-0.369 0.384,-0.369 0.38,-0.37C0.376,-0.371 0.372,-0.372 0.367,-0.373C0.362,-0.374 0.357,-0.375 0.352,-0.376L0.307,-0.388L0.291,-0.391C0.29,-0.39 0.29,-0.39 0.29,-0.39L0.288,-0.39C0.287,-0.39 0.287,-0.39 0.287,-0.391L0.285,-0.391C0.284,-0.391 0.284,-0.391 0.284,-0.392L0.278,-0.392C0.277,-0.392 0.275,-0.392 0.274,-0.393L0.267,-0.393C0.266,-0.393 0.266,-0.393 0.265,-0.394L0.257,-0.394C0.256,-0.393 0.256,-0.393 0.255,-0.393L0.253,-0.393C0.252,-0.393 0.252,-0.393 0.251,-0.393L0.245,-0.39L0.242,-0.387C0.241,-0.385 0.24,-0.383 0.239,-0.382C0.238,-0.38 0.238,-0.378 0.239,-0.377C0.239,-0.376 0.239,-0.376 0.24,-0.375C0.241,-0.374 0.241,-0.373 0.242,-0.372C0.243,-0.371 0.244,-0.37 0.245,-0.369C0.246,-0.368 0.248,-0.367 0.249,-0.366L0.25,-0.366L0.25,-0.365L0.251,-0.365C0.251,-0.364 0.251,-0.364 0.252,-0.364L0.252,-0.364C0.252,-0.363 0.252,-0.363 0.253,-0.363C0.253,-0.362 0.253,-0.362 0.254,-0.362L0.256,-0.362L0.265,-0.36L0.28,-0.355L0.315,-0.344L0.34,-0.337L0.362,-0.329C0.368,-0.326 0.374,-0.324 0.38,-0.322C0.385,-0.319 0.391,-0.316 0.396,-0.313C0.401,-0.31 0.407,-0.308 0.413,-0.305C0.418,-0.302 0.423,-0.298 0.428,-0.295C0.439,-0.287 0.449,-0.278 0.458,-0.269C0.466,-0.259 0.473,-0.248 0.479,-0.237C0.484,-0.226 0.489,-0.215 0.492,-0.204C0.495,-0.192 0.496,-0.18 0.496,-0.169L0.496,-0.157C0.495,-0.146 0.493,-0.136 0.49,-0.126C0.486,-0.115 0.481,-0.105 0.476,-0.095C0.471,-0.085 0.464,-0.075 0.456,-0.066C0.448,-0.057 0.439,-0.048 0.428,-0.04C0.418,-0.032 0.407,-0.025 0.395,-0.019C0.383,-0.012 0.37,-0.007 0.356,-0.003C0.342,0 0.327,0.003 0.311,0.006C0.295,0.008 0.278,0.009 0.259,0.009L0.249,0.009C0.247,0.008 0.245,0.008 0.244,0.008L0.227,0.008C0.225,0.007 0.223,0.007 0.222,0.007L0.216,0.007C0.199,0.006 0.184,0.004 0.17,0.002C0.156,0 0.143,-0.003 0.131,-0.006C0.119,-0.009 0.108,-0.013 0.099,-0.017C0.089,-0.02 0.08,-0.024 0.073,-0.029L0.073,-0.03Z" style="fill:rgb(116,72,157);fill-rule:nonzero;"/>
                </g>
                <g transform="matrix(13,0,0,13,132.305,339.84)">
                    <path d="M0.371,-0.529C0.372,-0.528 0.374,-0.527 0.375,-0.527C0.376,-0.526 0.378,-0.526 0.379,-0.525L0.388,-0.521L0.388,-0.675C0.388,-0.69 0.391,-0.704 0.396,-0.717C0.401,-0.729 0.409,-0.741 0.42,-0.752C0.431,-0.763 0.444,-0.771 0.457,-0.776C0.47,-0.781 0.484,-0.784 0.499,-0.784C0.514,-0.783 0.529,-0.78 0.542,-0.775C0.555,-0.77 0.566,-0.762 0.577,-0.751C0.588,-0.74 0.596,-0.728 0.601,-0.715C0.606,-0.702 0.609,-0.687 0.609,-0.672L0.609,-0.104C0.609,-0.087 0.606,-0.071 0.601,-0.058C0.596,-0.045 0.588,-0.033 0.578,-0.023C0.568,-0.013 0.557,-0.006 0.546,-0.001C0.535,0.004 0.522,0.006 0.509,0.006L0.504,0.006C0.503,0.005 0.503,0.005 0.503,0.005L0.499,0.005L0.407,-0.049L0.407,-0.045C0.4,-0.036 0.392,-0.028 0.383,-0.022C0.374,-0.015 0.364,-0.01 0.353,-0.005C0.342,-0.002 0.331,0.001 0.32,0.004C0.308,0.006 0.295,0.007 0.282,0.007L0.276,0.007C0.274,0.007 0.272,0.007 0.271,0.006L0.247,0.004C0.244,0.003 0.242,0.003 0.24,0.003C0.238,0.002 0.236,0.002 0.234,0.002C0.208,-0.001 0.184,-0.009 0.162,-0.021C0.139,-0.033 0.118,-0.049 0.099,-0.069C0.08,-0.089 0.065,-0.111 0.052,-0.136C0.039,-0.161 0.03,-0.188 0.025,-0.217C0.024,-0.219 0.024,-0.221 0.024,-0.224C0.023,-0.226 0.023,-0.228 0.023,-0.231C0.022,-0.233 0.022,-0.235 0.022,-0.238L0.021,-0.252C0.02,-0.253 0.02,-0.254 0.02,-0.255L0.02,-0.289L0.021,-0.304C0.021,-0.307 0.021,-0.309 0.022,-0.312C0.023,-0.315 0.023,-0.317 0.023,-0.32C0.024,-0.322 0.024,-0.324 0.025,-0.327C0.026,-0.33 0.026,-0.332 0.027,-0.335C0.032,-0.354 0.038,-0.373 0.046,-0.391C0.054,-0.408 0.063,-0.424 0.074,-0.439C0.085,-0.454 0.097,-0.468 0.111,-0.481C0.124,-0.493 0.138,-0.503 0.154,-0.512C0.163,-0.517 0.173,-0.522 0.183,-0.527C0.193,-0.532 0.203,-0.535 0.214,-0.538C0.224,-0.541 0.234,-0.544 0.245,-0.545C0.255,-0.546 0.265,-0.546 0.276,-0.546C0.283,-0.546 0.291,-0.546 0.299,-0.545C0.306,-0.544 0.314,-0.542 0.322,-0.541C0.33,-0.54 0.338,-0.538 0.346,-0.536C0.354,-0.534 0.362,-0.531 0.371,-0.528L0.371,-0.529ZM0.241,-0.271C0.24,-0.257 0.242,-0.245 0.246,-0.234C0.249,-0.223 0.255,-0.213 0.262,-0.205C0.269,-0.197 0.278,-0.191 0.287,-0.187C0.296,-0.183 0.305,-0.181 0.316,-0.181L0.319,-0.181C0.328,-0.181 0.337,-0.183 0.345,-0.186C0.352,-0.189 0.359,-0.194 0.366,-0.2C0.373,-0.206 0.378,-0.214 0.383,-0.223C0.387,-0.232 0.39,-0.243 0.392,-0.255L0.392,-0.26C0.392,-0.26 0.392,-0.26 0.393,-0.261L0.393,-0.282C0.392,-0.282 0.392,-0.282 0.392,-0.283L0.392,-0.288C0.39,-0.297 0.387,-0.306 0.384,-0.314C0.381,-0.321 0.376,-0.328 0.371,-0.334C0.366,-0.339 0.361,-0.344 0.354,-0.348C0.347,-0.351 0.34,-0.354 0.333,-0.356L0.331,-0.356C0.33,-0.356 0.33,-0.356 0.329,-0.357L0.322,-0.357C0.321,-0.357 0.321,-0.357 0.32,-0.358L0.316,-0.358C0.307,-0.358 0.298,-0.356 0.29,-0.353C0.282,-0.35 0.275,-0.345 0.268,-0.339C0.261,-0.333 0.256,-0.326 0.252,-0.317C0.247,-0.308 0.244,-0.297 0.242,-0.286L0.242,-0.284C0.241,-0.283 0.241,-0.283 0.241,-0.283L0.241,-0.27L0.241,-0.271Z" style="fill:rgb(116,72,157);fill-rule:nonzero;"/>
                </g>
                <g transform="matrix(13,0,0,13,140.599,339.84)">
                    <path d="M0.604,-0.305L0.604,-0.294C0.604,-0.28 0.602,-0.268 0.599,-0.258C0.596,-0.248 0.59,-0.24 0.583,-0.234C0.576,-0.228 0.567,-0.224 0.555,-0.221C0.543,-0.218 0.529,-0.216 0.513,-0.216L0.253,-0.217C0.254,-0.216 0.254,-0.215 0.255,-0.214C0.255,-0.213 0.255,-0.213 0.256,-0.213C0.257,-0.212 0.257,-0.212 0.258,-0.211C0.258,-0.21 0.258,-0.21 0.259,-0.209C0.26,-0.208 0.262,-0.208 0.263,-0.207C0.264,-0.206 0.264,-0.204 0.265,-0.203C0.265,-0.202 0.265,-0.202 0.266,-0.202C0.267,-0.201 0.267,-0.201 0.268,-0.2L0.271,-0.197C0.276,-0.192 0.282,-0.188 0.289,-0.185C0.296,-0.182 0.303,-0.179 0.311,-0.176C0.318,-0.173 0.327,-0.172 0.337,-0.171C0.346,-0.17 0.357,-0.169 0.368,-0.169L0.375,-0.169C0.375,-0.169 0.375,-0.169 0.376,-0.17C0.376,-0.17 0.376,-0.17 0.377,-0.17L0.386,-0.17C0.391,-0.17 0.396,-0.171 0.401,-0.172C0.406,-0.173 0.412,-0.173 0.419,-0.174C0.425,-0.175 0.432,-0.177 0.439,-0.178C0.446,-0.179 0.454,-0.181 0.463,-0.184C0.469,-0.185 0.475,-0.187 0.48,-0.188C0.485,-0.189 0.489,-0.19 0.493,-0.191C0.497,-0.192 0.501,-0.192 0.504,-0.193L0.518,-0.193C0.53,-0.193 0.541,-0.191 0.551,-0.187C0.56,-0.183 0.569,-0.177 0.577,-0.169C0.585,-0.161 0.591,-0.153 0.595,-0.144C0.599,-0.135 0.601,-0.125 0.601,-0.114L0.601,-0.107C0.6,-0.106 0.6,-0.106 0.6,-0.106L0.6,-0.102C0.599,-0.101 0.599,-0.101 0.599,-0.101L0.599,-0.097C0.598,-0.096 0.598,-0.096 0.598,-0.096L0.598,-0.095C0.595,-0.086 0.592,-0.078 0.587,-0.07C0.582,-0.062 0.576,-0.055 0.569,-0.049C0.562,-0.042 0.552,-0.036 0.54,-0.03C0.528,-0.024 0.514,-0.018 0.498,-0.013C0.492,-0.011 0.486,-0.009 0.479,-0.008C0.472,-0.006 0.465,-0.004 0.458,-0.003C0.451,-0.002 0.444,-0.001 0.436,0.001C0.428,0.002 0.42,0.002 0.412,0.003L0.378,0.006L0.37,0.006C0.367,0.006 0.365,0.006 0.362,0.007L0.346,0.007C0.295,0.006 0.25,-0 0.211,-0.013C0.171,-0.026 0.136,-0.045 0.107,-0.072C0.078,-0.099 0.056,-0.129 0.041,-0.162C0.026,-0.195 0.019,-0.23 0.02,-0.269L0.02,-0.277C0.021,-0.314 0.029,-0.349 0.044,-0.381C0.058,-0.413 0.079,-0.442 0.107,-0.468C0.135,-0.494 0.167,-0.514 0.202,-0.527C0.237,-0.54 0.275,-0.546 0.318,-0.546C0.331,-0.545 0.345,-0.544 0.358,-0.543C0.371,-0.541 0.383,-0.538 0.396,-0.535C0.409,-0.532 0.421,-0.529 0.433,-0.524C0.445,-0.519 0.456,-0.513 0.467,-0.507C0.482,-0.498 0.496,-0.489 0.509,-0.478C0.522,-0.467 0.533,-0.455 0.544,-0.442C0.555,-0.429 0.564,-0.416 0.572,-0.403C0.58,-0.389 0.587,-0.375 0.592,-0.362L0.596,-0.348L0.6,-0.333C0.601,-0.328 0.602,-0.324 0.603,-0.319C0.603,-0.314 0.603,-0.309 0.604,-0.304L0.604,-0.305ZM0.255,-0.325L0.374,-0.325L0.374,-0.331C0.373,-0.332 0.373,-0.332 0.373,-0.333L0.373,-0.334C0.372,-0.341 0.369,-0.348 0.366,-0.354C0.363,-0.36 0.358,-0.365 0.353,-0.369C0.348,-0.373 0.342,-0.376 0.336,-0.379C0.33,-0.381 0.323,-0.382 0.316,-0.382L0.308,-0.382C0.307,-0.381 0.307,-0.381 0.307,-0.381L0.305,-0.381C0.3,-0.38 0.295,-0.378 0.29,-0.375C0.285,-0.372 0.28,-0.369 0.276,-0.365C0.272,-0.361 0.268,-0.357 0.265,-0.352C0.262,-0.347 0.259,-0.34 0.257,-0.333C0.257,-0.332 0.257,-0.332 0.257,-0.332C0.256,-0.331 0.256,-0.331 0.256,-0.331C0.255,-0.33 0.255,-0.33 0.255,-0.33L0.255,-0.324L0.255,-0.325Z" style="fill:rgb(116,72,157);fill-rule:nonzero;"/>
                </g>
                <g transform="matrix(13,0,0,13,94.072,353.84)">
                    <path d="M0.062,-0.023C0.057,-0.028 0.052,-0.033 0.048,-0.039C0.044,-0.045 0.04,-0.051 0.037,-0.058C0.034,-0.065 0.032,-0.073 0.031,-0.08C0.03,-0.087 0.029,-0.094 0.029,-0.101L0.029,-0.436C0.029,-0.451 0.032,-0.465 0.038,-0.478C0.043,-0.491 0.051,-0.503 0.062,-0.514C0.073,-0.525 0.086,-0.534 0.099,-0.539C0.112,-0.544 0.126,-0.546 0.141,-0.546L0.223,-0.505L0.224,-0.508L0.224,-0.507C0.224,-0.507 0.224,-0.507 0.225,-0.508L0.226,-0.508C0.227,-0.508 0.227,-0.508 0.228,-0.509C0.228,-0.509 0.228,-0.509 0.229,-0.51C0.233,-0.513 0.237,-0.515 0.242,-0.518C0.247,-0.52 0.251,-0.522 0.256,-0.524C0.258,-0.525 0.26,-0.526 0.263,-0.527C0.266,-0.528 0.268,-0.529 0.271,-0.53C0.274,-0.531 0.277,-0.532 0.28,-0.533C0.283,-0.534 0.287,-0.534 0.29,-0.535C0.297,-0.537 0.303,-0.539 0.31,-0.541C0.316,-0.542 0.322,-0.543 0.329,-0.544C0.336,-0.545 0.342,-0.546 0.349,-0.547C0.355,-0.547 0.361,-0.547 0.368,-0.547C0.379,-0.547 0.391,-0.546 0.402,-0.545C0.413,-0.543 0.423,-0.54 0.434,-0.537C0.445,-0.534 0.455,-0.53 0.466,-0.525C0.476,-0.52 0.486,-0.514 0.497,-0.507L0.508,-0.501L0.517,-0.495L0.526,-0.5L0.545,-0.51C0.551,-0.513 0.557,-0.515 0.563,-0.518L0.594,-0.53C0.598,-0.532 0.602,-0.534 0.607,-0.535C0.614,-0.537 0.62,-0.539 0.627,-0.541C0.634,-0.543 0.64,-0.544 0.647,-0.545C0.654,-0.546 0.661,-0.547 0.668,-0.548C0.674,-0.548 0.68,-0.548 0.687,-0.548C0.715,-0.548 0.741,-0.543 0.765,-0.534C0.789,-0.525 0.811,-0.511 0.83,-0.493C0.849,-0.475 0.864,-0.455 0.874,-0.433C0.884,-0.41 0.889,-0.386 0.889,-0.36L0.889,-0.102C0.889,-0.086 0.886,-0.071 0.881,-0.059C0.876,-0.046 0.868,-0.034 0.857,-0.023C0.846,-0.012 0.834,-0.005 0.822,0.001C0.809,0.006 0.794,0.008 0.779,0.008C0.764,0.008 0.749,0.006 0.736,0.001C0.723,-0.004 0.71,-0.011 0.699,-0.022C0.688,-0.033 0.68,-0.046 0.675,-0.059C0.669,-0.071 0.666,-0.086 0.666,-0.101L0.666,-0.306C0.666,-0.312 0.665,-0.318 0.663,-0.324C0.66,-0.329 0.656,-0.334 0.651,-0.339C0.646,-0.344 0.641,-0.348 0.636,-0.351C0.63,-0.353 0.624,-0.354 0.617,-0.354L0.615,-0.354C0.608,-0.354 0.602,-0.353 0.597,-0.351C0.592,-0.348 0.587,-0.345 0.582,-0.34C0.577,-0.335 0.574,-0.33 0.572,-0.325C0.569,-0.319 0.568,-0.313 0.568,-0.306L0.568,-0.101C0.568,-0.093 0.567,-0.086 0.566,-0.079C0.565,-0.072 0.562,-0.064 0.559,-0.057C0.556,-0.05 0.553,-0.044 0.549,-0.038C0.545,-0.031 0.54,-0.025 0.535,-0.02C0.53,-0.015 0.524,-0.01 0.518,-0.006C0.512,-0.002 0.506,0.001 0.499,0.002C0.496,0.003 0.492,0.004 0.489,0.005C0.486,0.006 0.482,0.006 0.479,0.007C0.475,0.008 0.471,0.008 0.468,0.009C0.465,0.009 0.461,0.009 0.458,0.009C0.451,0.009 0.444,0.008 0.437,0.007C0.43,0.006 0.423,0.004 0.416,0.001C0.409,-0.001 0.403,-0.004 0.397,-0.008C0.39,-0.012 0.384,-0.017 0.379,-0.022C0.374,-0.027 0.37,-0.033 0.366,-0.039C0.362,-0.045 0.359,-0.051 0.356,-0.058C0.353,-0.065 0.351,-0.073 0.35,-0.08C0.349,-0.087 0.348,-0.094 0.348,-0.101L0.348,-0.309C0.348,-0.315 0.347,-0.321 0.345,-0.327C0.342,-0.332 0.339,-0.337 0.334,-0.342C0.329,-0.347 0.324,-0.35 0.319,-0.353C0.314,-0.355 0.308,-0.356 0.301,-0.357L0.299,-0.357C0.292,-0.357 0.286,-0.356 0.281,-0.354C0.275,-0.351 0.269,-0.348 0.264,-0.343C0.259,-0.338 0.256,-0.333 0.253,-0.328C0.25,-0.322 0.249,-0.316 0.249,-0.309L0.249,-0.102C0.249,-0.094 0.248,-0.087 0.247,-0.08C0.246,-0.073 0.244,-0.065 0.241,-0.058C0.238,-0.051 0.235,-0.045 0.231,-0.039C0.227,-0.033 0.222,-0.027 0.217,-0.022C0.212,-0.017 0.206,-0.012 0.2,-0.008C0.194,-0.004 0.187,-0.001 0.18,-0C0.177,0.001 0.173,0.003 0.17,0.004C0.167,0.005 0.163,0.005 0.16,0.006C0.156,0.007 0.152,0.007 0.149,0.008C0.146,0.008 0.142,0.008 0.139,0.008C0.132,0.008 0.126,0.007 0.119,0.006C0.112,0.005 0.105,0.003 0.098,-0C0.091,-0.001 0.085,-0.004 0.079,-0.008C0.073,-0.012 0.067,-0.017 0.062,-0.022L0.062,-0.023Z" style="fill:rgb(116,72,157);fill-rule:nonzero;"/>
                </g>
                <g transform="matrix(13,0,0,13,106.006,353.84)">
                    <path d="M0.604,-0.305L0.604,-0.294C0.604,-0.28 0.602,-0.268 0.599,-0.258C0.596,-0.248 0.59,-0.24 0.583,-0.234C0.576,-0.228 0.567,-0.224 0.555,-0.221C0.543,-0.218 0.529,-0.216 0.513,-0.216L0.253,-0.217C0.254,-0.216 0.254,-0.215 0.255,-0.214C0.255,-0.213 0.255,-0.213 0.256,-0.213C0.257,-0.212 0.257,-0.212 0.258,-0.211C0.258,-0.21 0.258,-0.21 0.259,-0.209C0.26,-0.208 0.262,-0.208 0.263,-0.207C0.264,-0.206 0.264,-0.204 0.265,-0.203C0.265,-0.202 0.265,-0.202 0.266,-0.202C0.267,-0.201 0.267,-0.201 0.268,-0.2L0.271,-0.197C0.276,-0.192 0.282,-0.188 0.289,-0.185C0.296,-0.182 0.303,-0.179 0.311,-0.176C0.318,-0.173 0.327,-0.172 0.337,-0.171C0.346,-0.17 0.357,-0.169 0.368,-0.169L0.375,-0.169C0.375,-0.169 0.375,-0.169 0.376,-0.17C0.376,-0.17 0.376,-0.17 0.377,-0.17L0.386,-0.17C0.391,-0.17 0.396,-0.171 0.401,-0.172C0.406,-0.173 0.412,-0.173 0.419,-0.174C0.425,-0.175 0.432,-0.177 0.439,-0.178C0.446,-0.179 0.454,-0.181 0.463,-0.184C0.469,-0.185 0.475,-0.187 0.48,-0.188C0.485,-0.189 0.489,-0.19 0.493,-0.191C0.497,-0.192 0.501,-0.192 0.504,-0.193L0.518,-0.193C0.53,-0.193 0.541,-0.191 0.551,-0.187C0.56,-0.183 0.569,-0.177 0.577,-0.169C0.585,-0.161 0.591,-0.153 0.595,-0.144C0.599,-0.135 0.601,-0.125 0.601,-0.114L0.601,-0.107C0.6,-0.106 0.6,-0.106 0.6,-0.106L0.6,-0.102C0.599,-0.101 0.599,-0.101 0.599,-0.101L0.599,-0.097C0.598,-0.096 0.598,-0.096 0.598,-0.096L0.598,-0.095C0.595,-0.086 0.592,-0.078 0.587,-0.07C0.582,-0.062 0.576,-0.055 0.569,-0.049C0.562,-0.042 0.552,-0.036 0.54,-0.03C0.528,-0.024 0.514,-0.018 0.498,-0.013C0.492,-0.011 0.486,-0.009 0.479,-0.008C0.472,-0.006 0.465,-0.004 0.458,-0.003C0.451,-0.002 0.444,-0.001 0.436,0.001C0.428,0.002 0.42,0.002 0.412,0.003L0.378,0.006L0.37,0.006C0.367,0.006 0.365,0.006 0.362,0.007L0.346,0.007C0.295,0.006 0.25,-0 0.211,-0.013C0.171,-0.026 0.136,-0.045 0.107,-0.072C0.078,-0.099 0.056,-0.129 0.041,-0.162C0.026,-0.195 0.019,-0.23 0.02,-0.269L0.02,-0.277C0.021,-0.314 0.029,-0.349 0.044,-0.381C0.058,-0.413 0.079,-0.442 0.107,-0.468C0.135,-0.494 0.167,-0.514 0.202,-0.527C0.237,-0.54 0.275,-0.546 0.318,-0.546C0.331,-0.545 0.345,-0.544 0.358,-0.543C0.371,-0.541 0.383,-0.538 0.396,-0.535C0.409,-0.532 0.421,-0.529 0.433,-0.524C0.445,-0.519 0.456,-0.513 0.467,-0.507C0.482,-0.498 0.496,-0.489 0.509,-0.478C0.522,-0.467 0.533,-0.455 0.544,-0.442C0.555,-0.429 0.564,-0.416 0.572,-0.403C0.58,-0.389 0.587,-0.375 0.592,-0.362L0.596,-0.348L0.6,-0.333C0.601,-0.328 0.602,-0.324 0.603,-0.319C0.603,-0.314 0.603,-0.309 0.604,-0.304L0.604,-0.305ZM0.255,-0.325L0.374,-0.325L0.374,-0.331C0.373,-0.332 0.373,-0.332 0.373,-0.333L0.373,-0.334C0.372,-0.341 0.369,-0.348 0.366,-0.354C0.363,-0.36 0.358,-0.365 0.353,-0.369C0.348,-0.373 0.342,-0.376 0.336,-0.379C0.33,-0.381 0.323,-0.382 0.316,-0.382L0.308,-0.382C0.307,-0.381 0.307,-0.381 0.307,-0.381L0.305,-0.381C0.3,-0.38 0.295,-0.378 0.29,-0.375C0.285,-0.372 0.28,-0.369 0.276,-0.365C0.272,-0.361 0.268,-0.357 0.265,-0.352C0.262,-0.347 0.259,-0.34 0.257,-0.333C0.257,-0.332 0.257,-0.332 0.257,-0.332C0.256,-0.331 0.256,-0.331 0.256,-0.331C0.255,-0.33 0.255,-0.33 0.255,-0.33L0.255,-0.324L0.255,-0.325Z" style="fill:rgb(116,72,157);fill-rule:nonzero;"/>
                </g>
                <g transform="matrix(13,0,0,13,114.079,353.84)">
                    <path d="M0.013,-0.443C0.013,-0.456 0.015,-0.468 0.02,-0.48C0.025,-0.491 0.032,-0.502 0.041,-0.511C0.05,-0.52 0.061,-0.528 0.072,-0.533C0.083,-0.538 0.096,-0.54 0.109,-0.54L0.454,-0.541C0.455,-0.54 0.456,-0.54 0.458,-0.54L0.461,-0.54C0.462,-0.539 0.463,-0.539 0.464,-0.539L0.474,-0.539C0.475,-0.538 0.476,-0.538 0.477,-0.538L0.481,-0.538C0.49,-0.537 0.499,-0.534 0.506,-0.53C0.513,-0.525 0.52,-0.519 0.526,-0.512C0.532,-0.505 0.536,-0.498 0.539,-0.49C0.542,-0.482 0.543,-0.473 0.543,-0.464C0.543,-0.461 0.543,-0.459 0.543,-0.457C0.542,-0.454 0.542,-0.451 0.541,-0.448C0.54,-0.445 0.54,-0.443 0.539,-0.44C0.538,-0.437 0.537,-0.435 0.536,-0.432C0.535,-0.43 0.535,-0.428 0.534,-0.427C0.533,-0.425 0.531,-0.423 0.53,-0.422C0.529,-0.421 0.529,-0.419 0.528,-0.418C0.527,-0.416 0.525,-0.414 0.524,-0.413L0.34,-0.195L0.47,-0.195C0.483,-0.194 0.496,-0.192 0.508,-0.187C0.519,-0.182 0.53,-0.175 0.539,-0.166C0.548,-0.157 0.556,-0.146 0.561,-0.135C0.566,-0.123 0.568,-0.11 0.568,-0.097C0.568,-0.084 0.566,-0.071 0.561,-0.06C0.556,-0.048 0.549,-0.037 0.54,-0.028C0.531,-0.018 0.52,-0.011 0.509,-0.007C0.498,-0.002 0.485,-0 0.472,-0L0.081,-0C0.07,-0.001 0.061,-0.004 0.053,-0.008C0.044,-0.012 0.037,-0.017 0.03,-0.024C0.023,-0.031 0.018,-0.039 0.015,-0.048C0.012,-0.056 0.01,-0.065 0.011,-0.074L0.011,-0.084C0.011,-0.085 0.011,-0.087 0.012,-0.089C0.012,-0.09 0.012,-0.092 0.013,-0.093L0.02,-0.113C0.021,-0.114 0.022,-0.116 0.023,-0.118C0.024,-0.119 0.024,-0.12 0.025,-0.121C0.026,-0.122 0.028,-0.124 0.029,-0.125C0.029,-0.126 0.03,-0.128 0.031,-0.129L0.214,-0.346L0.11,-0.346C0.097,-0.345 0.084,-0.347 0.073,-0.352C0.061,-0.357 0.05,-0.364 0.041,-0.373C0.032,-0.382 0.025,-0.393 0.02,-0.405C0.015,-0.416 0.013,-0.429 0.013,-0.442L0.013,-0.443Z" style="fill:rgb(116,72,157);fill-rule:nonzero;"/>
                </g>
                <g transform="matrix(13,0,0,13,121.567,353.84)">
                    <path d="M0.076,-0.107C0.069,-0.116 0.063,-0.125 0.058,-0.134C0.052,-0.142 0.047,-0.152 0.043,-0.162C0.038,-0.171 0.035,-0.181 0.032,-0.191C0.028,-0.201 0.026,-0.211 0.024,-0.221C0.023,-0.223 0.023,-0.225 0.023,-0.227C0.022,-0.229 0.022,-0.231 0.022,-0.233C0.021,-0.234 0.021,-0.236 0.021,-0.238L0.021,-0.244C0.02,-0.247 0.02,-0.251 0.02,-0.255L0.02,-0.284C0.02,-0.286 0.02,-0.288 0.021,-0.291C0.021,-0.293 0.021,-0.295 0.022,-0.298C0.023,-0.311 0.026,-0.323 0.03,-0.336C0.033,-0.348 0.038,-0.36 0.044,-0.373C0.049,-0.386 0.056,-0.398 0.064,-0.41C0.071,-0.421 0.079,-0.432 0.088,-0.443L0.108,-0.464C0.11,-0.465 0.112,-0.467 0.114,-0.469C0.115,-0.47 0.117,-0.472 0.119,-0.474L0.131,-0.483C0.144,-0.492 0.157,-0.501 0.171,-0.509C0.185,-0.516 0.2,-0.522 0.216,-0.527C0.231,-0.532 0.248,-0.536 0.266,-0.538C0.283,-0.54 0.302,-0.541 0.321,-0.541L0.343,-0.541C0.347,-0.541 0.351,-0.541 0.355,-0.541C0.359,-0.54 0.363,-0.54 0.367,-0.539C0.396,-0.536 0.422,-0.532 0.443,-0.525C0.464,-0.518 0.481,-0.508 0.495,-0.497C0.508,-0.486 0.518,-0.474 0.525,-0.462C0.532,-0.448 0.535,-0.435 0.535,-0.42L0.535,-0.409C0.534,-0.408 0.534,-0.408 0.534,-0.408L0.534,-0.403C0.532,-0.39 0.528,-0.379 0.523,-0.37C0.518,-0.361 0.511,-0.352 0.502,-0.345C0.493,-0.338 0.484,-0.333 0.474,-0.33C0.463,-0.326 0.452,-0.324 0.439,-0.324L0.426,-0.324C0.425,-0.324 0.423,-0.324 0.422,-0.325C0.421,-0.325 0.419,-0.325 0.418,-0.326L0.413,-0.328L0.374,-0.337L0.353,-0.341L0.339,-0.342L0.335,-0.342C0.334,-0.342 0.333,-0.342 0.332,-0.343L0.325,-0.343C0.312,-0.342 0.3,-0.34 0.289,-0.337C0.278,-0.334 0.269,-0.328 0.262,-0.321C0.255,-0.314 0.249,-0.307 0.246,-0.298C0.242,-0.289 0.24,-0.279 0.24,-0.268L0.24,-0.262C0.241,-0.255 0.242,-0.249 0.244,-0.243C0.246,-0.237 0.248,-0.231 0.251,-0.226C0.254,-0.221 0.258,-0.217 0.263,-0.212C0.267,-0.207 0.272,-0.203 0.279,-0.2C0.282,-0.198 0.286,-0.197 0.289,-0.196C0.292,-0.195 0.296,-0.193 0.299,-0.192C0.302,-0.191 0.306,-0.191 0.31,-0.19C0.314,-0.189 0.318,-0.189 0.323,-0.189L0.331,-0.189C0.333,-0.189 0.335,-0.189 0.338,-0.19C0.341,-0.19 0.343,-0.19 0.347,-0.191C0.35,-0.191 0.352,-0.191 0.355,-0.192L0.358,-0.193L0.393,-0.201C0.394,-0.2 0.396,-0.2 0.398,-0.201C0.399,-0.201 0.401,-0.201 0.402,-0.202L0.404,-0.202C0.405,-0.202 0.406,-0.202 0.407,-0.203L0.414,-0.203C0.415,-0.203 0.416,-0.203 0.417,-0.204L0.423,-0.204C0.424,-0.204 0.425,-0.204 0.426,-0.205L0.44,-0.205C0.453,-0.205 0.466,-0.203 0.478,-0.198C0.489,-0.193 0.5,-0.186 0.509,-0.177C0.518,-0.168 0.525,-0.158 0.53,-0.147C0.535,-0.136 0.537,-0.123 0.537,-0.11L0.537,-0.1C0.536,-0.099 0.536,-0.099 0.536,-0.098L0.536,-0.096C0.533,-0.081 0.527,-0.067 0.518,-0.054C0.509,-0.041 0.496,-0.03 0.48,-0.02C0.463,-0.01 0.442,-0.003 0.416,0.001C0.39,0.005 0.359,0.007 0.324,0.007C0.296,0.006 0.27,0.004 0.246,-0.001C0.222,-0.005 0.2,-0.012 0.179,-0.022C0.158,-0.031 0.139,-0.043 0.122,-0.057C0.105,-0.071 0.089,-0.087 0.076,-0.106L0.076,-0.107Z" style="fill:rgb(116,72,157);fill-rule:nonzero;"/>
                </g>
                <g transform="matrix(13,0,0,13,128.717,353.84)">
                    <path d="M0.062,-0.023C0.057,-0.028 0.052,-0.033 0.048,-0.039C0.044,-0.045 0.04,-0.051 0.037,-0.058C0.034,-0.065 0.032,-0.073 0.031,-0.08C0.03,-0.087 0.029,-0.094 0.029,-0.101L0.029,-0.675C0.029,-0.69 0.032,-0.703 0.038,-0.716C0.043,-0.729 0.051,-0.74 0.062,-0.751C0.073,-0.762 0.086,-0.771 0.099,-0.776C0.112,-0.781 0.126,-0.783 0.142,-0.783C0.157,-0.782 0.171,-0.779 0.184,-0.774C0.197,-0.769 0.208,-0.76 0.219,-0.749C0.23,-0.738 0.238,-0.727 0.243,-0.714C0.248,-0.701 0.251,-0.687 0.251,-0.672L0.251,-0.103C0.251,-0.095 0.25,-0.088 0.249,-0.081C0.248,-0.074 0.246,-0.066 0.243,-0.059C0.24,-0.052 0.237,-0.046 0.233,-0.04C0.229,-0.033 0.224,-0.027 0.219,-0.022C0.214,-0.017 0.208,-0.012 0.202,-0.008C0.196,-0.004 0.189,-0.001 0.182,-0C0.179,0.001 0.175,0.003 0.172,0.004C0.168,0.005 0.164,0.005 0.161,0.006C0.157,0.007 0.153,0.007 0.15,0.008C0.146,0.008 0.142,0.008 0.139,0.008C0.132,0.008 0.126,0.007 0.119,0.006C0.112,0.005 0.105,0.003 0.098,-0C0.091,-0.001 0.085,-0.004 0.079,-0.008C0.073,-0.012 0.067,-0.017 0.062,-0.022L0.062,-0.023Z" style="fill:rgb(116,72,157);fill-rule:nonzero;"/>
                </g>
                <g transform="matrix(13,0,0,13,132.357,353.84)">
                    <path d="M0.233,-0.545C0.235,-0.544 0.237,-0.544 0.239,-0.545C0.241,-0.545 0.243,-0.545 0.246,-0.546L0.258,-0.547C0.262,-0.548 0.266,-0.548 0.27,-0.549C0.274,-0.549 0.278,-0.549 0.282,-0.549C0.295,-0.549 0.307,-0.548 0.318,-0.546C0.329,-0.544 0.34,-0.541 0.351,-0.537C0.362,-0.533 0.372,-0.528 0.381,-0.522C0.39,-0.516 0.398,-0.509 0.406,-0.502L0.406,-0.5L0.498,-0.549C0.499,-0.549 0.501,-0.549 0.502,-0.55C0.503,-0.55 0.503,-0.55 0.504,-0.551C0.505,-0.552 0.507,-0.552 0.508,-0.553C0.509,-0.553 0.511,-0.553 0.512,-0.553L0.514,-0.553C0.515,-0.553 0.515,-0.553 0.516,-0.554L0.521,-0.554C0.522,-0.554 0.522,-0.554 0.523,-0.555L0.526,-0.555C0.529,-0.555 0.533,-0.555 0.537,-0.554C0.54,-0.553 0.544,-0.551 0.547,-0.55C0.55,-0.549 0.554,-0.547 0.557,-0.545C0.56,-0.543 0.563,-0.541 0.566,-0.538C0.573,-0.531 0.579,-0.524 0.584,-0.517C0.588,-0.509 0.593,-0.501 0.596,-0.492C0.599,-0.483 0.602,-0.475 0.604,-0.466C0.606,-0.456 0.607,-0.447 0.607,-0.438L0.607,-0.103C0.607,-0.086 0.604,-0.07 0.6,-0.057C0.595,-0.044 0.587,-0.032 0.577,-0.022C0.567,-0.011 0.556,-0.004 0.545,0.001C0.533,0.006 0.52,0.008 0.507,0.008L0.502,0.008C0.501,0.007 0.501,0.007 0.501,0.007L0.497,0.007L0.406,-0.044L0.406,-0.039C0.399,-0.031 0.391,-0.024 0.382,-0.018C0.373,-0.012 0.363,-0.007 0.353,-0.003C0.343,-0 0.332,0.002 0.32,0.005C0.308,0.007 0.295,0.008 0.282,0.008C0.277,0.008 0.273,0.008 0.269,0.008C0.264,0.007 0.26,0.007 0.255,0.006C0.252,0.006 0.25,0.006 0.248,0.006C0.245,0.005 0.243,0.005 0.241,0.004C0.238,0.004 0.236,0.004 0.234,0.004C0.231,0.003 0.229,0.003 0.226,0.002C0.211,0 0.196,-0.004 0.181,-0.01C0.166,-0.016 0.151,-0.024 0.137,-0.034C0.123,-0.044 0.11,-0.055 0.098,-0.068C0.085,-0.081 0.074,-0.095 0.063,-0.111C0.056,-0.122 0.05,-0.134 0.045,-0.146C0.039,-0.157 0.034,-0.169 0.031,-0.182C0.027,-0.195 0.024,-0.209 0.023,-0.222C0.021,-0.235 0.02,-0.249 0.02,-0.263L0.02,-0.278C0.021,-0.312 0.027,-0.344 0.039,-0.373C0.049,-0.402 0.065,-0.429 0.086,-0.454C0.107,-0.479 0.129,-0.498 0.154,-0.514C0.178,-0.529 0.204,-0.539 0.233,-0.544L0.233,-0.545ZM0.241,-0.265C0.241,-0.258 0.241,-0.252 0.242,-0.247C0.243,-0.242 0.244,-0.237 0.246,-0.232C0.247,-0.227 0.249,-0.223 0.252,-0.218C0.255,-0.213 0.258,-0.209 0.261,-0.205C0.264,-0.2 0.268,-0.196 0.273,-0.193C0.277,-0.19 0.281,-0.187 0.286,-0.185C0.291,-0.182 0.297,-0.181 0.302,-0.18C0.307,-0.179 0.311,-0.178 0.316,-0.178L0.322,-0.178C0.327,-0.179 0.333,-0.18 0.339,-0.182C0.344,-0.184 0.35,-0.187 0.355,-0.19C0.36,-0.193 0.365,-0.197 0.37,-0.202C0.374,-0.207 0.378,-0.212 0.381,-0.219C0.382,-0.221 0.384,-0.223 0.385,-0.226C0.386,-0.228 0.386,-0.23 0.387,-0.233C0.388,-0.235 0.389,-0.237 0.39,-0.24C0.39,-0.243 0.39,-0.245 0.391,-0.248L0.391,-0.25C0.391,-0.251 0.391,-0.252 0.392,-0.253L0.392,-0.259C0.392,-0.26 0.392,-0.261 0.393,-0.262L0.393,-0.272C0.392,-0.273 0.392,-0.273 0.392,-0.274L0.392,-0.278C0.391,-0.287 0.389,-0.295 0.386,-0.302C0.383,-0.309 0.38,-0.315 0.376,-0.321C0.372,-0.326 0.368,-0.331 0.363,-0.336C0.358,-0.34 0.352,-0.343 0.346,-0.346C0.345,-0.347 0.343,-0.347 0.342,-0.348C0.341,-0.348 0.339,-0.348 0.338,-0.349C0.337,-0.349 0.335,-0.349 0.335,-0.35C0.334,-0.35 0.332,-0.35 0.331,-0.351L0.329,-0.351C0.328,-0.351 0.328,-0.351 0.327,-0.352L0.321,-0.352C0.32,-0.352 0.32,-0.352 0.319,-0.353L0.315,-0.353C0.306,-0.352 0.298,-0.35 0.291,-0.347C0.283,-0.344 0.276,-0.339 0.269,-0.333C0.262,-0.327 0.257,-0.32 0.253,-0.312C0.248,-0.303 0.245,-0.293 0.243,-0.282L0.243,-0.28C0.242,-0.279 0.242,-0.279 0.242,-0.279L0.242,-0.271C0.241,-0.27 0.241,-0.27 0.241,-0.27L0.241,-0.264L0.241,-0.265Z" style="fill:rgb(116,72,157);fill-rule:nonzero;"/>
                </g>
                <g transform="matrix(13,0,0,13,140.625,353.84)">
                    <path d="M0.073,-0.03C0.062,-0.036 0.052,-0.043 0.044,-0.05C0.036,-0.056 0.029,-0.064 0.024,-0.071C0.019,-0.078 0.016,-0.086 0.013,-0.093C0.01,-0.1 0.009,-0.108 0.009,-0.115L0.009,-0.121C0.009,-0.123 0.009,-0.125 0.01,-0.127C0.01,-0.129 0.01,-0.131 0.011,-0.133C0.012,-0.135 0.012,-0.137 0.013,-0.139C0.016,-0.147 0.02,-0.155 0.025,-0.162C0.029,-0.169 0.036,-0.174 0.044,-0.179C0.051,-0.184 0.06,-0.188 0.07,-0.191C0.079,-0.194 0.089,-0.195 0.1,-0.195C0.103,-0.195 0.107,-0.195 0.111,-0.195C0.115,-0.194 0.119,-0.194 0.123,-0.193C0.127,-0.192 0.131,-0.191 0.136,-0.19C0.14,-0.189 0.144,-0.187 0.149,-0.186L0.169,-0.181L0.183,-0.176C0.19,-0.173 0.197,-0.17 0.203,-0.168C0.209,-0.166 0.214,-0.164 0.219,-0.163L0.243,-0.158L0.249,-0.159L0.261,-0.159C0.264,-0.158 0.266,-0.158 0.268,-0.159C0.27,-0.159 0.272,-0.159 0.273,-0.16C0.274,-0.161 0.276,-0.163 0.277,-0.164C0.278,-0.165 0.278,-0.166 0.279,-0.167L0.279,-0.168C0.279,-0.168 0.279,-0.168 0.28,-0.169L0.28,-0.172C0.28,-0.173 0.28,-0.175 0.28,-0.177C0.279,-0.178 0.278,-0.18 0.277,-0.181C0.276,-0.182 0.275,-0.184 0.274,-0.185C0.272,-0.186 0.27,-0.188 0.268,-0.189L0.266,-0.189C0.265,-0.189 0.265,-0.189 0.265,-0.19L0.265,-0.191L0.265,-0.191C0.264,-0.191 0.264,-0.191 0.264,-0.192L0.263,-0.192C0.262,-0.192 0.262,-0.192 0.262,-0.193L0.261,-0.193L0.252,-0.197L0.232,-0.202L0.206,-0.21L0.187,-0.215C0.164,-0.22 0.143,-0.227 0.127,-0.234C0.11,-0.241 0.096,-0.248 0.085,-0.256C0.074,-0.263 0.065,-0.272 0.058,-0.282C0.05,-0.292 0.043,-0.303 0.038,-0.316C0.036,-0.321 0.034,-0.325 0.033,-0.33C0.032,-0.335 0.03,-0.339 0.029,-0.344C0.028,-0.349 0.028,-0.353 0.028,-0.358C0.027,-0.363 0.027,-0.367 0.027,-0.372C0.027,-0.395 0.032,-0.417 0.043,-0.437C0.054,-0.457 0.07,-0.476 0.092,-0.494C0.113,-0.512 0.139,-0.526 0.169,-0.535C0.199,-0.544 0.233,-0.548 0.271,-0.548L0.282,-0.548C0.291,-0.548 0.299,-0.548 0.307,-0.547C0.315,-0.546 0.323,-0.545 0.331,-0.544C0.338,-0.543 0.345,-0.542 0.353,-0.541C0.36,-0.539 0.366,-0.537 0.373,-0.536C0.386,-0.533 0.397,-0.529 0.407,-0.525C0.417,-0.521 0.426,-0.517 0.434,-0.512C0.438,-0.509 0.442,-0.507 0.445,-0.505C0.448,-0.502 0.452,-0.5 0.455,-0.498C0.458,-0.495 0.46,-0.493 0.463,-0.491C0.465,-0.488 0.467,-0.486 0.469,-0.483C0.471,-0.48 0.473,-0.476 0.475,-0.473C0.477,-0.47 0.478,-0.466 0.479,-0.463C0.48,-0.46 0.481,-0.456 0.482,-0.453C0.482,-0.449 0.482,-0.445 0.482,-0.442C0.482,-0.434 0.481,-0.427 0.479,-0.42C0.476,-0.413 0.472,-0.405 0.467,-0.398C0.462,-0.391 0.456,-0.386 0.45,-0.381C0.443,-0.376 0.435,-0.373 0.426,-0.371C0.424,-0.37 0.422,-0.37 0.42,-0.37C0.418,-0.369 0.416,-0.369 0.414,-0.369C0.413,-0.369 0.412,-0.369 0.411,-0.369C0.41,-0.368 0.409,-0.368 0.408,-0.368L0.401,-0.368C0.398,-0.368 0.395,-0.368 0.392,-0.369C0.388,-0.369 0.384,-0.369 0.38,-0.37C0.376,-0.371 0.372,-0.372 0.367,-0.373C0.362,-0.374 0.357,-0.375 0.352,-0.376L0.307,-0.388L0.291,-0.391C0.29,-0.39 0.29,-0.39 0.29,-0.39L0.288,-0.39C0.287,-0.39 0.287,-0.39 0.287,-0.391L0.285,-0.391C0.284,-0.391 0.284,-0.391 0.284,-0.392L0.278,-0.392C0.277,-0.392 0.275,-0.392 0.274,-0.393L0.267,-0.393C0.266,-0.393 0.266,-0.393 0.265,-0.394L0.257,-0.394C0.256,-0.393 0.256,-0.393 0.255,-0.393L0.253,-0.393C0.252,-0.393 0.252,-0.393 0.251,-0.393L0.245,-0.39L0.242,-0.387C0.241,-0.385 0.24,-0.383 0.239,-0.382C0.238,-0.38 0.238,-0.378 0.239,-0.377C0.239,-0.376 0.239,-0.376 0.24,-0.375C0.241,-0.374 0.241,-0.373 0.242,-0.372C0.243,-0.371 0.244,-0.37 0.245,-0.369C0.246,-0.368 0.248,-0.367 0.249,-0.366L0.25,-0.366L0.25,-0.365L0.251,-0.365C0.251,-0.364 0.251,-0.364 0.252,-0.364L0.252,-0.364C0.252,-0.363 0.252,-0.363 0.253,-0.363C0.253,-0.362 0.253,-0.362 0.254,-0.362L0.256,-0.362L0.265,-0.36L0.28,-0.355L0.315,-0.344L0.34,-0.337L0.362,-0.329C0.368,-0.326 0.374,-0.324 0.38,-0.322C0.385,-0.319 0.391,-0.316 0.396,-0.313C0.401,-0.31 0.407,-0.308 0.413,-0.305C0.418,-0.302 0.423,-0.298 0.428,-0.295C0.439,-0.287 0.449,-0.278 0.458,-0.269C0.466,-0.259 0.473,-0.248 0.479,-0.237C0.484,-0.226 0.489,-0.215 0.492,-0.204C0.495,-0.192 0.496,-0.18 0.496,-0.169L0.496,-0.157C0.495,-0.146 0.493,-0.136 0.49,-0.126C0.486,-0.115 0.481,-0.105 0.476,-0.095C0.471,-0.085 0.464,-0.075 0.456,-0.066C0.448,-0.057 0.439,-0.048 0.428,-0.04C0.418,-0.032 0.407,-0.025 0.395,-0.019C0.383,-0.012 0.37,-0.007 0.356,-0.003C0.342,0 0.327,0.003 0.311,0.006C0.295,0.008 0.278,0.009 0.259,0.009L0.249,0.009C0.247,0.008 0.245,0.008 0.244,0.008L0.227,0.008C0.225,0.007 0.223,0.007 0.222,0.007L0.216,0.007C0.199,0.006 0.184,0.004 0.17,0.002C0.156,0 0.143,-0.003 0.131,-0.006C0.119,-0.009 0.108,-0.013 0.099,-0.017C0.089,-0.02 0.08,-0.024 0.073,-0.029L0.073,-0.03Z" style="fill:rgb(116,72,157);fill-rule:nonzero;"/>
                </g>
            </g>
            <g transform="matrix(1,0,0,1,83.1459,320.146)">
                <path d="M0,43.506L19.843,43.506C24.539,43.506 28.346,39.698 28.346,35.002L28.346,7C28.346,3.133 31.48,0 35.346,0L42.646,0" style="fill:none;fill-rule:nonzero;stroke:rgb(35,31,32);stroke-width:1px;"/>
            </g>
            <g transform="matrix(1,0,0,1,125.792,318.145)">
                <path d="M0,4C1.105,4 2,3.104 2,2C2,0.896 1.105,0 0,0C-1.105,0 -2,0.896 -2,2C-2,3.104 -1.105,4 0,4" style="fill:rgb(35,31,32);fill-rule:nonzero;"/>
            </g>
            <g transform="matrix(1,0,0,1,82.9341,409.439)">
                <path d="M0,-43.506L19.843,-43.506C24.539,-43.506 28.346,-39.698 28.346,-35.002L28.346,-7C28.346,-3.133 31.48,0 35.346,0L42.646,0" style="fill:none;fill-rule:nonzero;stroke:rgb(35,31,32);stroke-width:1px;"/>
            </g>
            <g transform="matrix(-1,0,0,1,125.58,411.44)">
                <path d="M0,-4C-1.105,-4 -2,-3.104 -2,-2C-2,-0.896 -1.105,0 0,0C1.105,0 2,-0.896 2,-2C2,-3.104 1.105,-4 0,-4" style="fill:rgb(35,31,32);fill-rule:nonzero;"/>
            </g>
            <g transform="matrix(1,0,0,1,218.372,288.651)">
                <path d="M0,32.824L12.756,32.824C17.453,32.824 21.26,29.017 21.26,24.32L21.26,8.504C21.26,3.808 25.067,0 29.764,0L61.78,0" style="fill:none;fill-rule:nonzero;stroke:rgb(167,136,11);stroke-width:1px;"/>
            </g>
            <g transform="matrix(1,0,0,1,280.151,286.651)">
                <path d="M0,4C1.105,4 2,3.104 2,2C2,0.896 1.105,0 0,0C-1.105,0 -2,0.896 -2,2C-2,3.104 -1.105,4 0,4" style="fill:rgb(167,136,11);fill-rule:nonzero;"/>
            </g>
            <g transform="matrix(1,0,0,1,218.16,354.651)">
                <path d="M0,-32.824L12.756,-32.824C17.453,-32.824 21.26,-29.017 21.26,-24.32L21.26,-8.504C21.26,-3.808 25.067,0 29.764,0L61.78,0" style="fill:none;fill-rule:nonzero;stroke:rgb(167,136,11);stroke-width:1px;"/>
            </g>
            <g transform="matrix(-1,0,0,1,279.939,356.651)">
                <path d="M0,-4C-1.105,-4 -2,-3.104 -2,-2C-2,-0.896 -1.105,0 0,0C1.105,0 2,-0.896 2,-2C2,-3.104 1.105,-4 0,-4" style="fill:rgb(167,136,11);fill-rule:nonzero;"/>
            </g>
            <g transform="matrix(1,0,0,1,218.018,376.879)">
                <path d="M0,32.824L12.756,32.824C17.453,32.824 21.26,29.017 21.26,24.32L21.26,8.504C21.26,3.808 25.067,0 29.764,0L61.78,0" style="fill:none;fill-rule:nonzero;stroke:rgb(106,167,11);stroke-width:1px;"/>
            </g>
            <g transform="matrix(1,0,0,1,279.797,374.88)">
                <path d="M0,4C1.105,4 2,3.104 2,2C2,0.896 1.105,0 0,0C-1.105,0 -2,0.896 -2,2C-2,3.104 -1.105,4 0,4" style="fill:rgb(106,167,11);fill-rule:nonzero;"/>
            </g>
            <g transform="matrix(1,0,0,1,217.806,442.88)">
                <path d="M0,-32.824L12.756,-32.824C17.453,-32.824 21.26,-29.017 21.26,-24.32L21.26,-8.504C21.26,-3.808 25.067,0 29.764,0L61.78,0" style="fill:none;fill-rule:nonzero;stroke:rgb(106,167,11);stroke-width:1px;"/>
            </g>
            <g transform="matrix(-1,0,0,1,279.586,444.88)">
                <path d="M0,-4C-1.105,-4 -2,-3.104 -2,-2C-2,-0.896 -1.105,0 0,0C1.105,0 2,-0.896 2,-2C2,-3.104 1.105,-4 0,-4" style="fill:rgb(106,167,11);fill-rule:nonzero;"/>
            </g>
            <g transform="matrix(1,0,0,1,-72.5332,20.6517)">
                <g transform="matrix(11,0,0,11,212.202,303.912)">
                    <path d="M0.219,-0L0.219,-0.312L0.504,-0.312L0.504,-0L0.653,-0L0.653,-0.74L0.504,-0.74L0.504,-0.443L0.219,-0.443L0.219,-0.74L0.07,-0.74L0.07,-0L0.219,-0Z" style="fill:rgb(167,136,11);fill-rule:nonzero;"/>
                </g>
                <g transform="matrix(11,0,0,11,220.144,303.912)">
                    <path d="M0.036,-0.275C0.036,-0.133 0.139,0.016 0.33,0.016C0.521,0.016 0.624,-0.133 0.624,-0.275C0.624,-0.416 0.521,-0.565 0.33,-0.565C0.139,-0.565 0.036,-0.416 0.036,-0.276L0.036,-0.275ZM0.167,-0.275C0.167,-0.372 0.24,-0.443 0.33,-0.443C0.42,-0.443 0.492,-0.372 0.492,-0.275C0.492,-0.178 0.42,-0.107 0.33,-0.107C0.24,-0.107 0.167,-0.178 0.167,-0.274L0.167,-0.275Z" style="fill:rgb(167,136,11);fill-rule:nonzero;"/>
                </g>
                <g transform="matrix(11,0,0,11,227.404,303.912)">
                    <path d="M0.065,-0L0.196,-0L0.196,-0.297C0.196,-0.329 0.201,-0.363 0.217,-0.392C0.233,-0.42 0.263,-0.443 0.311,-0.443C0.358,-0.442 0.385,-0.421 0.401,-0.392C0.415,-0.364 0.418,-0.333 0.418,-0.301L0.418,-0L0.549,-0L0.549,-0.301C0.549,-0.334 0.551,-0.363 0.568,-0.393C0.585,-0.423 0.617,-0.443 0.663,-0.443C0.709,-0.443 0.735,-0.425 0.749,-0.398C0.768,-0.369 0.771,-0.331 0.771,-0.296L0.771,-0L0.902,-0L0.902,-0.301C0.902,-0.414 0.892,-0.459 0.842,-0.511C0.8,-0.554 0.742,-0.566 0.696,-0.566C0.638,-0.566 0.59,-0.544 0.556,-0.512C0.538,-0.495 0.526,-0.477 0.516,-0.46C0.509,-0.474 0.495,-0.497 0.483,-0.51C0.443,-0.553 0.393,-0.566 0.348,-0.566C0.253,-0.566 0.2,-0.505 0.188,-0.48L0.188,-0.549L0.065,-0.549L0.065,-0Z" style="fill:rgb(167,136,11);fill-rule:nonzero;"/>
                </g>
                <g transform="matrix(11,0,0,11,238.008,303.912)">
                    <path d="M0.036,-0.275C0.036,-0.133 0.139,0.016 0.33,0.016C0.521,0.016 0.624,-0.133 0.624,-0.275C0.624,-0.416 0.521,-0.565 0.33,-0.565C0.139,-0.565 0.036,-0.416 0.036,-0.276L0.036,-0.275ZM0.167,-0.275C0.167,-0.372 0.24,-0.443 0.33,-0.443C0.42,-0.443 0.492,-0.372 0.492,-0.275C0.492,-0.178 0.42,-0.107 0.33,-0.107C0.24,-0.107 0.167,-0.178 0.167,-0.274L0.167,-0.275Z" style="fill:rgb(167,136,11);fill-rule:nonzero;"/>
                </g>
                <g transform="matrix(11,0,0,11,245.268,303.912)">
                    <path d="M0.626,-0.549L0.494,-0.549L0.494,-0.475C0.463,-0.529 0.395,-0.565 0.316,-0.565C0.164,-0.565 0.036,-0.451 0.036,-0.272C0.036,-0.103 0.158,0.017 0.316,0.017C0.409,0.017 0.467,-0.032 0.494,-0.081L0.494,-0.035C0.494,0.076 0.409,0.13 0.331,0.13C0.315,0.13 0.286,0.126 0.259,0.111C0.235,0.099 0.214,0.08 0.202,0.055L0.05,0.055C0.07,0.14 0.152,0.242 0.323,0.242C0.436,0.242 0.528,0.192 0.575,0.129C0.609,0.083 0.626,0.025 0.626,-0.065L0.626,-0.549ZM0.167,-0.276C0.167,-0.374 0.242,-0.443 0.331,-0.443C0.388,-0.443 0.429,-0.421 0.455,-0.388C0.482,-0.356 0.495,-0.312 0.495,-0.27C0.494,-0.223 0.477,-0.182 0.448,-0.153C0.419,-0.123 0.38,-0.106 0.331,-0.106C0.236,-0.106 0.167,-0.179 0.167,-0.275L0.167,-0.276Z" style="fill:rgb(167,136,11);fill-rule:nonzero;"/>
                </g>
                <g transform="matrix(11,0,0,11,252.836,303.912)">
                    <path d="M0.604,-0.231C0.615,-0.327 0.59,-0.413 0.523,-0.482C0.472,-0.535 0.4,-0.566 0.318,-0.566C0.152,-0.566 0.03,-0.429 0.03,-0.273C0.03,-0.12 0.151,0.017 0.32,0.017C0.377,0.017 0.431,0.001 0.477,-0.031C0.523,-0.062 0.562,-0.108 0.588,-0.169L0.453,-0.169C0.428,-0.124 0.385,-0.095 0.321,-0.095C0.246,-0.094 0.168,-0.143 0.162,-0.231L0.604,-0.231ZM0.164,-0.331C0.169,-0.385 0.222,-0.455 0.319,-0.455C0.415,-0.456 0.47,-0.383 0.475,-0.331L0.164,-0.331ZM0.194,-0.692L0.233,-0.613L0.477,-0.729L0.434,-0.824L0.194,-0.692Z" style="fill:rgb(167,136,11);fill-rule:nonzero;"/>
                </g>
                <g transform="matrix(11,0,0,11,259.865,303.912)">
                    <path d="M0.065,-0L0.196,-0L0.196,-0.303C0.196,-0.38 0.228,-0.442 0.321,-0.443C0.413,-0.443 0.44,-0.38 0.44,-0.298L0.44,-0L0.571,-0L0.571,-0.331C0.571,-0.428 0.537,-0.565 0.358,-0.566C0.26,-0.567 0.211,-0.519 0.187,-0.476C0.188,-0.502 0.188,-0.525 0.188,-0.549L0.065,-0.549L0.065,-0Z" style="fill:rgb(167,136,11);fill-rule:nonzero;"/>
                </g>
                <g transform="matrix(11,0,0,11,266.839,303.912)">
                    <path d="M0.604,-0.231C0.615,-0.327 0.59,-0.413 0.523,-0.482C0.472,-0.535 0.4,-0.566 0.318,-0.566C0.152,-0.566 0.03,-0.429 0.03,-0.273C0.03,-0.12 0.151,0.017 0.32,0.017C0.377,0.017 0.431,0.001 0.477,-0.031C0.523,-0.062 0.562,-0.108 0.588,-0.169L0.453,-0.169C0.428,-0.124 0.385,-0.095 0.321,-0.095C0.246,-0.094 0.168,-0.143 0.162,-0.231L0.604,-0.231ZM0.164,-0.331C0.169,-0.385 0.222,-0.455 0.319,-0.455C0.415,-0.456 0.47,-0.383 0.475,-0.331L0.164,-0.331Z" style="fill:rgb(167,136,11);fill-rule:nonzero;"/>
                </g>
                <g transform="matrix(11,0,0,11,273.868,303.912)">
                    <path d="M0.631,-0.549L0.5,-0.549L0.5,-0.469C0.476,-0.513 0.415,-0.566 0.315,-0.566C0.161,-0.566 0.036,-0.448 0.036,-0.275C0.036,-0.12 0.139,0.017 0.315,0.017C0.392,0.017 0.465,-0.015 0.5,-0.079L0.5,-0L0.631,-0L0.631,-0.549ZM0.167,-0.273C0.167,-0.358 0.227,-0.444 0.333,-0.444C0.412,-0.444 0.463,-0.399 0.486,-0.347C0.497,-0.323 0.502,-0.296 0.501,-0.27C0.499,-0.243 0.493,-0.217 0.48,-0.193C0.455,-0.143 0.407,-0.105 0.334,-0.105C0.216,-0.105 0.167,-0.204 0.167,-0.272L0.167,-0.273Z" style="fill:rgb(167,136,11);fill-rule:nonzero;"/>
                </g>
                <g transform="matrix(11,0,0,11,281.524,303.912)">
                    <path d="M0.432,-0.401C0.421,-0.533 0.311,-0.566 0.237,-0.566C0.131,-0.566 0.04,-0.499 0.04,-0.391C0.041,-0.312 0.101,-0.271 0.175,-0.248C0.276,-0.213 0.317,-0.2 0.317,-0.153C0.318,-0.116 0.283,-0.089 0.242,-0.089C0.217,-0.089 0.166,-0.101 0.161,-0.16L0.03,-0.16C0.04,-0.027 0.155,0.017 0.24,0.017C0.355,0.017 0.45,-0.055 0.448,-0.168C0.447,-0.286 0.352,-0.312 0.264,-0.336C0.212,-0.351 0.172,-0.37 0.171,-0.405C0.171,-0.432 0.192,-0.46 0.236,-0.46C0.287,-0.46 0.302,-0.43 0.303,-0.401L0.432,-0.401Z" style="fill:rgb(167,136,11);fill-rule:nonzero;"/>
                </g>
            </g>
            <g transform="matrix(1,0,0,1,-72.5332,20.6517)">
                <g transform="matrix(11,0,0,11,210.607,392.132)">
                    <path d="M0.219,-0L0.219,-0.312L0.504,-0.312L0.504,-0L0.653,-0L0.653,-0.74L0.504,-0.74L0.504,-0.443L0.219,-0.443L0.219,-0.74L0.07,-0.74L0.07,-0L0.219,-0Z" style="fill:rgb(106,167,11);fill-rule:nonzero;"/>
                </g>
                <g transform="matrix(11,0,0,11,218.549,392.132)">
                    <path d="M0.604,-0.231C0.615,-0.327 0.59,-0.413 0.523,-0.482C0.472,-0.535 0.4,-0.566 0.318,-0.566C0.152,-0.566 0.03,-0.429 0.03,-0.273C0.03,-0.12 0.151,0.017 0.32,0.017C0.377,0.017 0.431,0.001 0.477,-0.031C0.523,-0.062 0.562,-0.108 0.588,-0.169L0.453,-0.169C0.428,-0.124 0.385,-0.095 0.321,-0.095C0.246,-0.094 0.168,-0.143 0.162,-0.231L0.604,-0.231ZM0.164,-0.331C0.169,-0.385 0.222,-0.455 0.319,-0.455C0.415,-0.456 0.47,-0.383 0.475,-0.331L0.164,-0.331Z" style="fill:rgb(106,167,11);fill-rule:nonzero;"/>
                </g>
                <g transform="matrix(11,0,0,11,225.578,392.132)">
                    <path d="M0.101,-0L0.232,-0L0.232,-0.448L0.326,-0.448L0.326,-0.549L0.232,-0.549L0.232,-0.74L0.101,-0.74L0.101,-0.549L0.01,-0.549L0.01,-0.448L0.101,-0.448L0.101,-0Z" style="fill:rgb(106,167,11);fill-rule:nonzero;"/>
                </g>
                <g transform="matrix(11,0,0,11,229.021,392.132)">
                    <path d="M0.604,-0.231C0.615,-0.327 0.59,-0.413 0.523,-0.482C0.472,-0.535 0.4,-0.566 0.318,-0.566C0.152,-0.566 0.03,-0.429 0.03,-0.273C0.03,-0.12 0.151,0.017 0.32,0.017C0.377,0.017 0.431,0.001 0.477,-0.031C0.523,-0.062 0.562,-0.108 0.588,-0.169L0.453,-0.169C0.428,-0.124 0.385,-0.095 0.321,-0.095C0.246,-0.094 0.168,-0.143 0.162,-0.231L0.604,-0.231ZM0.164,-0.331C0.169,-0.385 0.222,-0.455 0.319,-0.455C0.415,-0.456 0.47,-0.383 0.475,-0.331L0.164,-0.331Z" style="fill:rgb(106,167,11);fill-rule:nonzero;"/>
                </g>
                <g transform="matrix(11,0,0,11,236.05,392.132)">
                    <path d="M0.064,-0L0.195,-0L0.195,-0.296C0.195,-0.391 0.242,-0.434 0.334,-0.434L0.34,-0.434L0.34,-0.566C0.257,-0.565 0.212,-0.526 0.188,-0.477L0.188,-0.549L0.064,-0.549L0.064,-0Z" style="fill:rgb(106,167,11);fill-rule:nonzero;"/>
                </g>
                <g transform="matrix(11,0,0,11,239.603,392.132)">
                    <path d="M0.036,-0.275C0.036,-0.133 0.139,0.016 0.33,0.016C0.521,0.016 0.624,-0.133 0.624,-0.275C0.624,-0.416 0.521,-0.565 0.33,-0.565C0.139,-0.565 0.036,-0.416 0.036,-0.276L0.036,-0.275ZM0.167,-0.275C0.167,-0.372 0.24,-0.443 0.33,-0.443C0.42,-0.443 0.492,-0.372 0.492,-0.275C0.492,-0.178 0.42,-0.107 0.33,-0.107C0.24,-0.107 0.167,-0.178 0.167,-0.274L0.167,-0.275Z" style="fill:rgb(106,167,11);fill-rule:nonzero;"/>
                </g>
                <g transform="matrix(11,0,0,11,246.863,392.132)">
                    <path d="M0.626,-0.549L0.494,-0.549L0.494,-0.475C0.463,-0.529 0.395,-0.565 0.316,-0.565C0.164,-0.565 0.036,-0.451 0.036,-0.272C0.036,-0.103 0.158,0.017 0.316,0.017C0.409,0.017 0.467,-0.032 0.494,-0.081L0.494,-0.035C0.494,0.076 0.409,0.13 0.331,0.13C0.315,0.13 0.286,0.126 0.259,0.111C0.235,0.099 0.214,0.08 0.202,0.055L0.05,0.055C0.07,0.14 0.152,0.242 0.323,0.242C0.436,0.242 0.528,0.192 0.575,0.129C0.609,0.083 0.626,0.025 0.626,-0.065L0.626,-0.549ZM0.167,-0.276C0.167,-0.374 0.242,-0.443 0.331,-0.443C0.388,-0.443 0.429,-0.421 0.455,-0.388C0.482,-0.356 0.495,-0.312 0.495,-0.27C0.494,-0.223 0.477,-0.182 0.448,-0.153C0.419,-0.123 0.38,-0.106 0.331,-0.106C0.236,-0.106 0.167,-0.179 0.167,-0.275L0.167,-0.276Z" style="fill:rgb(106,167,11);fill-rule:nonzero;"/>
                </g>
                <g transform="matrix(11,0,0,11,254.431,392.132)">
                    <path d="M0.604,-0.231C0.615,-0.327 0.59,-0.413 0.523,-0.482C0.472,-0.535 0.4,-0.566 0.318,-0.566C0.152,-0.566 0.03,-0.429 0.03,-0.273C0.03,-0.12 0.151,0.017 0.32,0.017C0.377,0.017 0.431,0.001 0.477,-0.031C0.523,-0.062 0.562,-0.108 0.588,-0.169L0.453,-0.169C0.428,-0.124 0.385,-0.095 0.321,-0.095C0.246,-0.094 0.168,-0.143 0.162,-0.231L0.604,-0.231ZM0.164,-0.331C0.169,-0.385 0.222,-0.455 0.319,-0.455C0.415,-0.456 0.47,-0.383 0.475,-0.331L0.164,-0.331ZM0.194,-0.692L0.233,-0.613L0.477,-0.729L0.434,-0.824L0.194,-0.692Z" style="fill:rgb(106,167,11);fill-rule:nonzero;"/>
                </g>
                <g transform="matrix(11,0,0,11,261.46,392.132)">
                    <path d="M0.065,-0L0.196,-0L0.196,-0.303C0.196,-0.38 0.228,-0.442 0.321,-0.443C0.413,-0.443 0.44,-0.38 0.44,-0.298L0.44,-0L0.571,-0L0.571,-0.331C0.571,-0.428 0.537,-0.565 0.358,-0.566C0.26,-0.567 0.211,-0.519 0.187,-0.476C0.188,-0.502 0.188,-0.525 0.188,-0.549L0.065,-0.549L0.065,-0Z" style="fill:rgb(106,167,11);fill-rule:nonzero;"/>
                </g>
                <g transform="matrix(11,0,0,11,268.434,392.132)">
                    <path d="M0.604,-0.231C0.615,-0.327 0.59,-0.413 0.523,-0.482C0.472,-0.535 0.4,-0.566 0.318,-0.566C0.152,-0.566 0.03,-0.429 0.03,-0.273C0.03,-0.12 0.151,0.017 0.32,0.017C0.377,0.017 0.431,0.001 0.477,-0.031C0.523,-0.062 0.562,-0.108 0.588,-0.169L0.453,-0.169C0.428,-0.124 0.385,-0.095 0.321,-0.095C0.246,-0.094 0.168,-0.143 0.162,-0.231L0.604,-0.231ZM0.164,-0.331C0.169,-0.385 0.222,-0.455 0.319,-0.455C0.415,-0.456 0.47,-0.383 0.475,-0.331L0.164,-0.331Z" style="fill:rgb(106,167,11);fill-rule:nonzero;"/>
                </g>
                <g transform="matrix(11,0,0,11,275.463,392.132)">
                    <path d="M0.631,-0.549L0.5,-0.549L0.5,-0.469C0.476,-0.513 0.415,-0.566 0.315,-0.566C0.161,-0.566 0.036,-0.448 0.036,-0.275C0.036,-0.12 0.139,0.017 0.315,0.017C0.392,0.017 0.465,-0.015 0.5,-0.079L0.5,-0L0.631,-0L0.631,-0.549ZM0.167,-0.273C0.167,-0.358 0.227,-0.444 0.333,-0.444C0.412,-0.444 0.463,-0.399 0.486,-0.347C0.497,-0.323 0.502,-0.296 0.501,-0.27C0.499,-0.243 0.493,-0.217 0.48,-0.193C0.455,-0.143 0.407,-0.105 0.334,-0.105C0.216,-0.105 0.167,-0.204 0.167,-0.272L0.167,-0.273Z" style="fill:rgb(106,167,11);fill-rule:nonzero;"/>
                </g>
                <g transform="matrix(11,0,0,11,283.119,392.132)">
                    <path d="M0.432,-0.401C0.421,-0.533 0.311,-0.566 0.237,-0.566C0.131,-0.566 0.04,-0.499 0.04,-0.391C0.041,-0.312 0.101,-0.271 0.175,-0.248C0.276,-0.213 0.317,-0.2 0.317,-0.153C0.318,-0.116 0.283,-0.089 0.242,-0.089C0.217,-0.089 0.166,-0.101 0.161,-0.16L0.03,-0.16C0.04,-0.027 0.155,0.017 0.24,0.017C0.355,0.017 0.45,-0.055 0.448,-0.168C0.447,-0.286 0.352,-0.312 0.264,-0.336C0.212,-0.351 0.172,-0.37 0.171,-0.405C0.171,-0.432 0.192,-0.46 0.236,-0.46C0.287,-0.46 0.302,-0.43 0.303,-0.401L0.432,-0.401Z" style="fill:rgb(106,167,11);fill-rule:nonzero;"/>
                </g>
            </g>
        </g>
    </g>
</svg>
