<?xml version="1.0" encoding="UTF-8" standalone="no"?>
<!DOCTYPE svg PUBLIC "-//W3C//DTD SVG 1.1//EN" "http://www.w3.org/Graphics/SVG/1.1/DTD/svg11.dtd">
<svg width="100%" height="100%" viewBox="0 0 532 365" version="1.1" xmlns="http://www.w3.org/2000/svg" xmlns:xlink="http://www.w3.org/1999/xlink" xml:space="preserve" xmlns:serif="http://www.serif.com/" style="fill-rule:evenodd;clip-rule:evenodd;stroke-linejoin:round;stroke-miterlimit:2;">
    <g transform="matrix(1,0,0,1,-1006,-283)">
        <g transform="matrix(1,0,0,1,0,-447.552)">
            <g transform="matrix(4.16667,0,0,4.16667,1052.84,1056.97)">
                <path d="M0,-21.939C-0.245,-22.802 -0.448,-23.725 -0.777,-24.603C-0.986,-25.162 -1.345,-25.681 -1.707,-26.166C-1.931,-26.467 -2.257,-26.736 -2.595,-26.893C-2.863,-27.017 -3.268,-27.057 -3.524,-26.94C-3.778,-26.824 -4.11,-26.568 -4.003,-26.151C-3.921,-25.831 -3.874,-25.486 -3.72,-25.202C-3.368,-24.547 -2.942,-23.933 -2.581,-23.282C-2.236,-22.658 -1.949,-22.003 -1.615,-21.373C-1.34,-20.856 -0.823,-20.667 -0.302,-20.881C0.209,-21.089 -0.015,-21.526 0,-21.939M1.239,-21.121C2.24,-20.896 2.951,-21.114 3.431,-21.92C3.502,-22.038 3.618,-22.127 3.695,-22.242C4.155,-22.92 4.769,-23.513 4.767,-24.43C4.765,-25.067 4.874,-25.708 4.846,-26.342C4.791,-27.632 4.354,-28.777 3.429,-29.715C3.169,-29.978 2.885,-30.121 2.537,-30.01C1.343,-29.631 0.322,-29.011 -0.091,-27.751C-0.265,-27.221 -0.596,-26.619 -0.263,-26.074C0.46,-24.89 0.857,-23.621 0.987,-22.25C1.023,-21.869 1.152,-21.499 1.239,-21.121M-3.335,-22.307C-3.86,-22.255 -4.349,-22.115 -4.536,-21.643C-4.89,-20.754 -5.298,-19.891 -5.141,-18.845C-4.99,-17.842 -5.019,-16.803 -5.065,-15.784C-5.09,-15.217 -5.363,-14.663 -5.433,-14.093C-5.532,-13.3 -5.758,-12.591 -6.316,-11.998C-6.413,-11.896 -6.423,-11.71 -6.467,-11.561C-6.527,-11.359 -6.566,-11.151 -6.64,-10.955C-6.785,-10.571 -6.953,-10.195 -7.105,-9.813C-7.286,-9.357 -7.382,-8.844 -7.653,-8.451C-8.38,-7.398 -8.904,-6.283 -9.249,-5.04C-9.745,-3.249 -9.566,-1.502 -8.928,0.157C-8.275,1.851 -7.558,3.524 -6.133,4.822C-5.1,5.761 -3.955,6.398 -2.705,6.929C-1.509,7.438 -0.236,7.594 1.03,7.671C2.183,7.742 3.351,7.796 4.502,7.473C6.098,7.025 7.339,6.034 8.552,4.983C8.76,4.802 8.994,4.625 9.136,4.397C9.624,3.613 10.074,2.804 10.544,2.009C10.739,1.682 11.008,1.386 11.143,1.038C11.667,-0.311 11.944,-1.675 11.8,-3.168C11.677,-4.445 11.471,-5.666 11.151,-6.912C10.691,-8.704 9.83,-10.259 8.81,-11.734C8.001,-12.904 7.29,-14.124 6.752,-15.421C6.323,-16.458 5.624,-17.388 5.504,-18.562C5.433,-19.245 5.282,-19.929 5.082,-20.588C4.987,-20.901 4.746,-21.289 4.473,-21.398C4.116,-21.542 3.941,-21.114 3.766,-20.832C3.708,-20.739 3.624,-20.661 3.555,-20.574C3.261,-20.211 2.935,-20 2.415,-20.066C1.322,-20.205 0.274,-19.502 -0.842,-19.849C-0.885,-19.863 -0.946,-19.815 -1,-19.802C-1.534,-19.681 -2.035,-19.753 -2.407,-19.983C-2.742,-20.822 -3.037,-21.561 -3.335,-22.307M-3.926,-23.328C-4.105,-23.598 -4.26,-23.918 -4.493,-24.162C-5.026,-24.722 -5.352,-25.387 -5.578,-26.109C-5.78,-26.759 -5.679,-27.065 -5.147,-27.487C-4.995,-27.608 -4.838,-27.722 -4.692,-27.851C-3.637,-28.784 -2.783,-28.801 -1.678,-27.894C-1.512,-27.758 -1.381,-27.576 -1.261,-27.446C-0.687,-28.197 -0.256,-28.923 0.328,-29.49C1.199,-30.337 2.16,-31.099 3.511,-31.006C3.991,-30.972 4.289,-30.738 4.454,-30.315C4.885,-29.205 5.493,-28.139 5.568,-26.929C5.642,-25.726 5.768,-24.501 5.314,-23.332C5.217,-23.081 5.047,-22.857 4.814,-22.452C4.945,-22.395 5.13,-22.338 5.288,-22.238C6.153,-21.689 6.286,-20.761 6.51,-19.874C6.78,-18.801 7.008,-17.709 7.387,-16.676C7.646,-15.971 8.134,-15.35 8.519,-14.692C8.546,-14.643 8.569,-14.593 8.595,-14.543C9.669,-12.449 11.149,-10.572 11.959,-8.334C12.372,-7.19 12.866,-6.067 12.87,-4.81C12.872,-4.145 13.005,-3.478 12.975,-2.817C12.902,-1.188 12.584,0.387 12.023,1.936C11.683,2.874 11.004,3.55 10.545,4.387C9.852,5.646 8.648,6.488 7.559,7.337C6.422,8.224 5.034,8.837 3.523,8.976C3.025,9.022 2.524,9.16 2.033,9.125C0.33,9.009 -1.396,8.999 -3.03,8.428C-3.545,8.248 -3.984,7.863 -4.493,7.653C-6.129,6.976 -7.127,5.67 -8.136,4.292C-9.178,2.87 -9.777,1.217 -10.743,-0.234C-10.885,-0.448 -10.881,-0.767 -10.916,-1.041C-10.999,-1.69 -11.149,-2.309 -10.845,-2.987C-10.569,-3.603 -10.578,-4.343 -10.366,-4.997C-9.916,-6.387 -9.444,-7.772 -8.906,-9.129C-8.517,-10.107 -8.005,-11.037 -7.548,-11.99C-7.332,-12.44 -7.052,-12.871 -6.913,-13.344C-6.655,-14.232 -6.47,-15.14 -6.271,-16.043C-6.177,-16.474 -6.131,-16.917 -6.048,-17.351C-5.965,-17.786 -5.824,-18.212 -6.041,-18.654C-6.097,-18.77 -6.099,-18.934 -6.074,-19.065C-5.847,-20.217 -5.754,-21.423 -5.028,-22.405C-4.776,-22.746 -4.364,-22.97 -3.926,-23.328" style="fill:rgb(35,31,32);fill-rule:nonzero;"/>
            </g>
            <g transform="matrix(4.16667,0,0,4.16667,1038.94,1089.45)">
                <path d="M0,-30.103C0.298,-29.357 0.594,-28.618 0.929,-27.779C1.3,-27.549 1.801,-27.477 2.335,-27.598C2.389,-27.61 2.45,-27.659 2.494,-27.644C3.61,-27.298 4.658,-28 5.75,-27.862C6.27,-27.796 6.597,-28.006 6.89,-28.371C6.959,-28.457 7.043,-28.534 7.102,-28.628C7.276,-28.91 7.451,-29.338 7.809,-29.194C8.082,-29.084 8.322,-28.696 8.418,-28.384C8.618,-27.726 8.769,-27.041 8.84,-26.357C8.959,-25.185 9.658,-24.253 10.088,-23.217C10.626,-21.919 11.336,-20.701 12.145,-19.531C13.165,-18.055 14.027,-16.5 14.486,-14.707C14.807,-13.462 15.012,-12.24 15.136,-10.963C15.279,-9.472 15.003,-8.108 14.479,-6.758C14.344,-6.41 14.074,-6.115 13.88,-5.787C13.409,-4.991 12.96,-4.184 12.471,-3.4C12.329,-3.171 12.096,-2.994 11.888,-2.813C10.675,-1.762 9.433,-0.772 7.837,-0.323C6.687,0 5.518,-0.054 4.365,-0.125C3.1,-0.203 1.827,-0.358 0.63,-0.867C-0.619,-1.398 -1.765,-2.034 -2.797,-2.974C-4.223,-4.272 -4.94,-5.945 -5.593,-7.639C-6.231,-9.299 -6.409,-11.045 -5.913,-12.836C-5.568,-14.078 -5.045,-15.194 -4.317,-16.247C-4.046,-16.64 -3.95,-17.152 -3.769,-17.609C-3.618,-17.99 -3.449,-18.366 -3.304,-18.75C-3.23,-18.946 -3.191,-19.155 -3.131,-19.356C-3.087,-19.506 -3.077,-19.692 -2.981,-19.794C-2.422,-20.386 -2.196,-21.097 -2.098,-21.89C-2.027,-22.46 -1.755,-23.013 -1.73,-23.58C-1.683,-24.599 -1.655,-25.638 -1.806,-26.641C-1.963,-27.687 -1.555,-28.549 -1.201,-29.438C-1.013,-29.911 -0.525,-30.051 0,-30.103" style="fill:rgb(149,203,110);fill-rule:nonzero;"/>
            </g>
            <g transform="matrix(4.16667,0,0,4.16667,1058,932.402)">
                <path d="M0,8.775C-0.087,8.397 -0.216,8.027 -0.252,7.646C-0.382,6.275 -0.778,5.006 -1.502,3.823C-1.835,3.278 -1.504,2.676 -1.33,2.145C-0.917,0.886 0.104,0.265 1.297,-0.114C1.646,-0.225 1.93,-0.082 2.19,0.181C3.115,1.12 3.553,2.264 3.607,3.554C3.634,4.189 3.525,4.829 3.528,5.466C3.531,6.383 2.916,6.977 2.456,7.654C2.378,7.769 2.262,7.858 2.192,7.976C1.712,8.782 1.002,9 0,8.775" style="fill:rgb(57,181,74);fill-rule:nonzero;"/>
            </g>
            <g transform="matrix(4.16667,0,0,4.16667,1052.84,949.532)">
                <path d="M0,3.846C-0.015,4.259 0.209,4.696 -0.302,4.904C-0.823,5.118 -1.34,4.929 -1.615,4.412C-1.949,3.782 -2.236,3.127 -2.581,2.503C-2.942,1.852 -3.368,1.238 -3.72,0.583C-3.874,0.299 -3.921,-0.046 -4.003,-0.366C-4.11,-0.783 -3.778,-1.039 -3.524,-1.155C-3.268,-1.272 -2.863,-1.232 -2.595,-1.108C-2.257,-0.951 -1.931,-0.682 -1.707,-0.381C-1.345,0.104 -0.986,0.623 -0.777,1.182C-0.448,2.06 -0.245,2.983 0,3.846" style="fill:rgb(168,123,80);fill-rule:nonzero;"/>
            </g>
            <g transform="matrix(4.16667,0,0,4.16667,1021.58,1058.11)">
                <path d="M0,-6.303C0,-6.303 -0.08,3.356 5.142,3.874C10.364,4.392 2.614,-4.264 2.73,-6.573C2.848,-8.882 0.255,-10.695 0,-6.303" style="fill:rgb(176,213,124);fill-rule:nonzero;"/>
            </g>
            <g transform="matrix(4.16667,0,0,4.16667,1169.27,1041.43)">
                <path d="M0,-22.369C-0.13,-23.257 -0.21,-24.198 -0.422,-25.111C-0.556,-25.694 -0.844,-26.256 -1.141,-26.783C-1.324,-27.11 -1.611,-27.419 -1.926,-27.619C-2.175,-27.778 -2.573,-27.87 -2.841,-27.787C-3.108,-27.705 -3.47,-27.495 -3.419,-27.069C-3.38,-26.74 -3.377,-26.392 -3.262,-26.089C-2.998,-25.395 -2.655,-24.73 -2.384,-24.037C-2.123,-23.374 -1.925,-22.687 -1.675,-22.019C-1.47,-21.471 -0.982,-21.216 -0.437,-21.359C0.096,-21.5 -0.069,-21.962 0,-22.369M1.121,-21.397C2.086,-21.043 2.818,-21.166 3.399,-21.903C3.484,-22.01 3.611,-22.084 3.703,-22.187C4.248,-22.799 4.935,-23.307 5.051,-24.217C5.132,-24.849 5.324,-25.47 5.379,-26.103C5.494,-27.388 5.209,-28.581 4.414,-29.631C4.192,-29.926 3.929,-30.105 3.568,-30.041C2.336,-29.82 1.242,-29.339 0.669,-28.144C0.426,-27.64 0.019,-27.087 0.279,-26.504C0.842,-25.234 1.069,-23.926 1.019,-22.548C1.005,-22.167 1.085,-21.783 1.121,-21.397M-3.259,-23.169C-3.786,-23.187 -4.288,-23.112 -4.536,-22.667C-5.004,-21.832 -5.52,-21.031 -5.501,-19.972C-5.482,-18.959 -5.646,-17.933 -5.825,-16.928C-5.925,-16.368 -6.267,-15.856 -6.411,-15.299C-6.613,-14.527 -6.929,-13.852 -7.56,-13.338C-7.669,-13.249 -7.703,-13.066 -7.766,-12.924C-7.851,-12.732 -7.918,-12.53 -8.017,-12.346C-8.211,-11.983 -8.425,-11.633 -8.627,-11.274C-8.865,-10.845 -9.027,-10.35 -9.348,-9.996C-10.206,-9.046 -10.871,-8.009 -11.375,-6.822C-12.102,-5.11 -12.152,-3.357 -11.736,-1.628C-11.31,0.137 -10.817,1.889 -9.573,3.362C-8.672,4.429 -7.62,5.208 -6.45,5.898C-5.331,6.559 -4.089,6.88 -2.844,7.122C-1.711,7.343 -0.559,7.55 0.625,7.378C2.265,7.143 3.625,6.322 4.964,5.438C5.196,5.286 5.45,5.141 5.621,4.933C6.207,4.22 6.758,3.477 7.329,2.751C7.564,2.451 7.869,2.194 8.049,1.865C8.745,0.596 9.197,-0.72 9.249,-2.218C9.294,-3.5 9.249,-4.738 9.094,-6.016C8.873,-7.852 8.221,-9.506 7.402,-11.102C6.753,-12.367 6.208,-13.669 5.844,-15.026C5.553,-16.11 4.982,-17.124 5.015,-18.302C5.035,-18.989 4.975,-19.688 4.863,-20.367C4.809,-20.689 4.621,-21.105 4.364,-21.248C4.029,-21.438 3.799,-21.036 3.589,-20.78C3.52,-20.695 3.427,-20.629 3.346,-20.552C3.008,-20.23 2.657,-20.063 2.15,-20.197C1.085,-20.476 -0.046,-19.918 -1.108,-20.407C-1.149,-20.426 -1.215,-20.387 -1.271,-20.381C-1.816,-20.331 -2.303,-20.467 -2.641,-20.744C-2.864,-21.62 -3.061,-22.391 -3.259,-23.169M-3.711,-24.259C-3.854,-24.551 -3.965,-24.886 -4.164,-25.16C-4.62,-25.785 -4.856,-26.485 -4.985,-27.232C-5.102,-27.902 -4.961,-28.193 -4.38,-28.542C-4.212,-28.642 -4.041,-28.735 -3.88,-28.842C-2.712,-29.63 -1.864,-29.536 -0.887,-28.492C-0.74,-28.335 -0.634,-28.139 -0.531,-27.993C0.136,-28.664 0.659,-29.326 1.312,-29.813C2.286,-30.539 3.337,-31.169 4.665,-30.9C5.136,-30.805 5.401,-30.532 5.509,-30.092C5.792,-28.936 6.255,-27.8 6.172,-26.59C6.088,-25.388 6.054,-24.157 5.451,-23.057C5.321,-22.82 5.124,-22.621 4.84,-22.25C4.961,-22.175 5.139,-22.096 5.282,-21.975C6.068,-21.319 6.078,-20.38 6.184,-19.472C6.312,-18.373 6.396,-17.262 6.637,-16.186C6.802,-15.454 7.204,-14.775 7.5,-14.072C7.521,-14.02 7.537,-13.966 7.556,-13.914C8.348,-11.697 9.571,-9.643 10.081,-7.32C10.342,-6.132 10.685,-4.954 10.524,-3.707C10.44,-3.047 10.484,-2.369 10.367,-1.717C10.083,-0.111 9.562,1.409 8.804,2.871C8.345,3.756 7.584,4.338 7.019,5.107C6.168,6.266 4.863,6.943 3.673,7.643C2.43,8.374 0.973,8.8 -0.543,8.741C-1.043,8.722 -1.557,8.792 -2.039,8.695C-3.712,8.356 -5.422,8.122 -6.968,7.342C-7.455,7.097 -7.841,6.658 -8.317,6.383C-9.85,5.499 -10.669,4.073 -11.491,2.575C-12.338,1.029 -12.716,-0.687 -13.485,-2.253C-13.597,-2.483 -13.551,-2.799 -13.55,-3.076C-13.548,-3.73 -13.616,-4.362 -13.226,-4.995C-12.871,-5.57 -12.785,-6.304 -12.49,-6.925C-11.862,-8.244 -11.213,-9.557 -10.501,-10.832C-9.988,-11.751 -9.359,-12.606 -8.782,-13.49C-8.51,-13.908 -8.175,-14.299 -7.976,-14.751C-7.604,-15.596 -7.301,-16.473 -6.988,-17.342C-6.838,-17.758 -6.734,-18.191 -6.595,-18.61C-6.455,-19.03 -6.261,-19.435 -6.418,-19.901C-6.458,-20.024 -6.44,-20.186 -6.397,-20.313C-6.022,-21.425 -5.772,-22.609 -4.924,-23.487C-4.629,-23.793 -4.192,-23.961 -3.711,-24.259" style="fill:rgb(35,31,32);fill-rule:nonzero;"/>
            </g>
            <g transform="matrix(4.16667,0,0,4.16667,1155.69,1072.81)">
                <path d="M0,-30.702C0.198,-29.924 0.395,-29.152 0.617,-28.277C0.955,-28 1.443,-27.864 1.989,-27.914C2.043,-27.919 2.109,-27.959 2.151,-27.94C3.213,-27.45 4.343,-28.009 5.409,-27.729C5.916,-27.596 6.267,-27.763 6.604,-28.085C6.686,-28.162 6.779,-28.228 6.848,-28.313C7.058,-28.569 7.288,-28.97 7.623,-28.781C7.879,-28.637 8.068,-28.221 8.121,-27.899C8.233,-27.221 8.295,-26.522 8.275,-25.835C8.241,-24.657 8.812,-23.642 9.103,-22.558C9.466,-21.202 10.012,-19.9 10.661,-18.635C11.48,-17.039 12.131,-15.385 12.353,-13.548C12.508,-12.27 12.553,-11.033 12.508,-9.75C12.456,-8.253 12.004,-6.937 11.308,-5.667C11.128,-5.339 10.823,-5.082 10.587,-4.782C10.016,-4.055 9.466,-3.313 8.879,-2.599C8.709,-2.391 8.454,-2.247 8.223,-2.094C6.883,-1.211 5.524,-0.39 3.883,-0.154C2.699,0.017 1.548,-0.19 0.415,-0.41C-0.83,-0.653 -2.072,-0.974 -3.191,-1.634C-4.361,-2.325 -5.413,-3.104 -6.314,-4.171C-7.558,-5.643 -8.051,-7.396 -8.477,-9.16C-8.894,-10.889 -8.843,-12.643 -8.116,-14.354C-7.612,-15.541 -6.947,-16.579 -6.089,-17.528C-5.769,-17.882 -5.606,-18.378 -5.368,-18.807C-5.167,-19.166 -4.952,-19.516 -4.758,-19.878C-4.659,-20.063 -4.593,-20.264 -4.508,-20.456C-4.445,-20.599 -4.41,-20.782 -4.301,-20.871C-3.67,-21.385 -3.353,-22.06 -3.152,-22.832C-3.008,-23.389 -2.665,-23.901 -2.566,-24.461C-2.387,-25.465 -2.223,-26.492 -2.242,-27.505C-2.262,-28.563 -1.744,-29.365 -1.277,-30.2C-1.029,-30.644 -0.527,-30.719 0,-30.702" style="fill:rgb(149,203,110);fill-rule:nonzero;"/>
            </g>
            <g transform="matrix(4.16667,0,0,4.16667,1173.94,917.467)">
                <path d="M0,8.354C-0.037,7.968 -0.116,7.584 -0.102,7.202C-0.052,5.825 -0.28,4.517 -0.842,3.247C-1.102,2.664 -0.695,2.111 -0.453,1.607C0.121,0.411 1.215,-0.07 2.447,-0.29C2.807,-0.354 3.07,-0.176 3.293,0.12C4.088,1.17 4.372,2.363 4.258,3.648C4.202,4.281 4.011,4.902 3.93,5.534C3.813,6.443 3.126,6.952 2.581,7.564C2.49,7.667 2.363,7.741 2.278,7.848C1.696,8.584 0.964,8.708 0,8.354" style="fill:rgb(57,181,74);fill-rule:nonzero;"/>
            </g>
            <g transform="matrix(4.16667,0,0,4.16667,1169.27,930.107)">
                <path d="M0,4.348C-0.069,4.755 0.096,5.217 -0.437,5.358C-0.982,5.501 -1.47,5.246 -1.675,4.698C-1.925,4.03 -2.123,3.343 -2.384,2.68C-2.655,1.987 -2.998,1.322 -3.262,0.628C-3.377,0.325 -3.38,-0.023 -3.419,-0.352C-3.47,-0.778 -3.108,-0.988 -2.841,-1.07C-2.573,-1.153 -2.175,-1.061 -1.926,-0.902C-1.611,-0.702 -1.324,-0.393 -1.141,-0.066C-0.844,0.461 -0.556,1.023 -0.422,1.606C-0.21,2.519 -0.13,3.46 0,4.348" style="fill:rgb(168,123,80);fill-rule:nonzero;"/>
            </g>
            <g transform="matrix(4.16667,0,0,4.16667,1129.63,1041.68)">
                <path d="M0,-7.636C0,-7.636 -1.339,1.93 3.77,3.126C8.879,4.32 2.326,-5.273 2.743,-7.547C3.16,-9.821 0.827,-11.956 0,-7.636" style="fill:rgb(176,213,124);fill-rule:nonzero;"/>
            </g>
            <g transform="matrix(4.16667,0,0,4.16667,1381.52,1057.66)">
                <path d="M0,-22.369C-0.131,-23.257 -0.21,-24.199 -0.423,-25.111C-0.557,-25.694 -0.845,-26.256 -1.141,-26.783C-1.324,-27.11 -1.612,-27.419 -1.926,-27.619C-2.176,-27.778 -2.573,-27.87 -2.841,-27.787C-3.108,-27.705 -3.47,-27.495 -3.419,-27.069C-3.38,-26.739 -3.377,-26.392 -3.263,-26.089C-2.998,-25.395 -2.656,-24.73 -2.384,-24.037C-2.124,-23.374 -1.925,-22.687 -1.675,-22.019C-1.47,-21.471 -0.982,-21.215 -0.437,-21.359C0.095,-21.5 -0.069,-21.962 0,-22.369M1.121,-21.397C2.085,-21.043 2.817,-21.166 3.399,-21.902C3.484,-22.01 3.61,-22.084 3.703,-22.187C4.247,-22.799 4.935,-23.307 5.05,-24.217C5.132,-24.849 5.323,-25.47 5.379,-26.103C5.494,-27.388 5.208,-28.581 4.414,-29.631C4.191,-29.926 3.929,-30.105 3.567,-30.041C2.335,-29.82 1.241,-29.339 0.668,-28.144C0.426,-27.64 0.019,-27.087 0.279,-26.504C0.842,-25.234 1.069,-23.926 1.018,-22.548C1.005,-22.168 1.085,-21.783 1.121,-21.397M-3.259,-23.169C-3.786,-23.187 -4.288,-23.112 -4.537,-22.668C-5.003,-21.832 -5.52,-21.031 -5.501,-19.972C-5.482,-18.959 -5.647,-17.933 -5.825,-16.928C-5.926,-16.368 -6.268,-15.856 -6.412,-15.3C-6.612,-14.527 -6.929,-13.852 -7.561,-13.338C-7.67,-13.249 -7.704,-13.066 -7.767,-12.924C-7.852,-12.731 -7.918,-12.53 -8.017,-12.346C-8.212,-11.983 -8.426,-11.633 -8.627,-11.274C-8.865,-10.845 -9.027,-10.35 -9.348,-9.996C-10.206,-9.046 -10.871,-8.009 -11.375,-6.822C-12.102,-5.111 -12.152,-3.357 -11.736,-1.628C-11.31,0.137 -10.817,1.889 -9.573,3.362C-8.672,4.429 -7.62,5.208 -6.451,5.899C-5.331,6.559 -4.089,6.88 -2.844,7.122C-1.711,7.342 -0.559,7.549 0.625,7.379C2.265,7.143 3.625,6.322 4.964,5.438C5.195,5.286 5.449,5.141 5.621,4.933C6.206,4.22 6.758,3.477 7.328,2.751C7.564,2.451 7.869,2.194 8.049,1.866C8.745,0.596 9.197,-0.72 9.249,-2.218C9.294,-3.5 9.248,-4.739 9.094,-6.016C8.872,-7.852 8.22,-9.506 7.402,-11.102C6.752,-12.367 6.207,-13.669 5.844,-15.026C5.552,-16.11 4.982,-17.124 5.015,-18.302C5.036,-18.989 4.974,-19.688 4.862,-20.367C4.809,-20.689 4.62,-21.105 4.364,-21.249C4.028,-21.438 3.798,-21.037 3.589,-20.78C3.52,-20.695 3.426,-20.629 3.345,-20.552C3.008,-20.23 2.656,-20.063 2.15,-20.197C1.085,-20.476 -0.047,-19.918 -1.108,-20.407C-1.15,-20.426 -1.216,-20.387 -1.271,-20.381C-1.816,-20.331 -2.304,-20.467 -2.642,-20.744C-2.865,-21.62 -3.061,-22.391 -3.259,-23.169M-3.712,-24.26C-3.855,-24.551 -3.965,-24.887 -4.165,-25.16C-4.62,-25.785 -4.856,-26.485 -4.986,-27.232C-5.102,-27.902 -4.961,-28.193 -4.38,-28.542C-4.212,-28.642 -4.041,-28.734 -3.88,-28.843C-2.713,-29.63 -1.864,-29.536 -0.887,-28.492C-0.74,-28.335 -0.634,-28.139 -0.531,-27.993C0.135,-28.664 0.658,-29.326 1.312,-29.814C2.285,-30.539 3.337,-31.169 4.664,-30.9C5.136,-30.804 5.401,-30.532 5.508,-30.092C5.791,-28.936 6.255,-27.8 6.171,-26.589C6.087,-25.388 6.053,-24.157 5.451,-23.057C5.321,-22.821 5.124,-22.621 4.84,-22.25C4.961,-22.175 5.138,-22.096 5.282,-21.976C6.068,-21.319 6.078,-20.38 6.184,-19.472C6.312,-18.374 6.396,-17.262 6.637,-16.186C6.802,-15.454 7.203,-14.775 7.499,-14.072C7.521,-14.02 7.536,-13.967 7.556,-13.914C8.348,-11.697 9.571,-9.643 10.081,-7.32C10.342,-6.133 10.685,-4.954 10.524,-3.707C10.439,-3.047 10.483,-2.369 10.367,-1.716C10.082,-0.111 9.562,1.408 8.803,2.871C8.344,3.756 7.583,4.338 7.019,5.107C6.167,6.266 4.862,6.943 3.674,7.643C2.43,8.374 0.973,8.8 -0.544,8.741C-1.043,8.721 -1.558,8.792 -2.039,8.695C-3.713,8.356 -5.422,8.122 -6.968,7.342C-7.455,7.097 -7.841,6.658 -8.318,6.383C-9.851,5.499 -10.67,4.073 -11.492,2.575C-12.339,1.029 -12.716,-0.687 -13.485,-2.253C-13.598,-2.483 -13.551,-2.799 -13.55,-3.076C-13.549,-3.73 -13.617,-4.362 -13.227,-4.995C-12.871,-5.57 -12.785,-6.305 -12.49,-6.925C-11.863,-8.244 -11.214,-9.557 -10.501,-10.832C-9.989,-11.751 -9.359,-12.606 -8.783,-13.49C-8.51,-13.908 -8.176,-14.3 -7.976,-14.751C-7.604,-15.596 -7.301,-16.473 -6.988,-17.342C-6.838,-17.758 -6.734,-18.191 -6.595,-18.61C-6.456,-19.03 -6.261,-19.435 -6.418,-19.901C-6.459,-20.024 -6.44,-20.186 -6.398,-20.313C-6.022,-21.425 -5.773,-22.609 -4.925,-23.487C-4.63,-23.793 -4.192,-23.961 -3.712,-24.26" style="fill:rgb(35,31,32);fill-rule:nonzero;"/>
            </g>
            <g transform="matrix(4.16667,0,0,4.16667,1367.95,1089.05)">
                <path d="M0,-30.703C0.198,-29.925 0.394,-29.153 0.617,-28.277C0.955,-28 1.443,-27.865 1.989,-27.915C2.043,-27.92 2.109,-27.959 2.151,-27.94C3.212,-27.45 4.343,-28.01 5.408,-27.73C5.915,-27.597 6.267,-27.763 6.604,-28.086C6.685,-28.163 6.778,-28.228 6.848,-28.314C7.057,-28.57 7.288,-28.971 7.623,-28.782C7.878,-28.638 8.067,-28.222 8.121,-27.899C8.233,-27.221 8.294,-26.523 8.275,-25.835C8.241,-24.658 8.811,-23.643 9.102,-22.558C9.466,-21.202 10.011,-19.901 10.66,-18.635C11.479,-17.039 12.131,-15.385 12.353,-13.548C12.507,-12.271 12.553,-11.034 12.508,-9.751C12.455,-8.253 12.003,-6.938 11.307,-5.668C11.128,-5.34 10.822,-5.083 10.586,-4.783C10.016,-4.056 9.465,-3.314 8.879,-2.6C8.708,-2.392 8.453,-2.247 8.222,-2.095C6.883,-1.211 5.523,-0.391 3.883,-0.155C2.699,0.016 1.548,-0.191 0.414,-0.411C-0.83,-0.654 -2.073,-0.975 -3.191,-1.634C-4.361,-2.325 -5.414,-3.105 -6.314,-4.171C-7.559,-5.643 -8.052,-7.397 -8.478,-9.161C-8.894,-10.889 -8.844,-12.644 -8.116,-14.355C-7.612,-15.542 -6.948,-16.58 -6.089,-17.529C-5.769,-17.882 -5.607,-18.379 -5.368,-18.807C-5.167,-19.167 -4.953,-19.517 -4.758,-19.879C-4.66,-20.063 -4.593,-20.265 -4.509,-20.457C-4.445,-20.599 -4.411,-20.782 -4.302,-20.871C-3.671,-21.386 -3.353,-22.06 -3.153,-22.833C-3.009,-23.39 -2.666,-23.902 -2.567,-24.462C-2.387,-25.465 -2.224,-26.493 -2.242,-27.506C-2.262,-28.563 -1.744,-29.366 -1.278,-30.201C-1.03,-30.644 -0.527,-30.719 0,-30.703" style="fill:rgb(149,203,110);fill-rule:nonzero;"/>
            </g>
            <g transform="matrix(4.16667,0,0,4.16667,1386.19,933.702)">
                <path d="M0,8.354C-0.037,7.968 -0.116,7.583 -0.102,7.202C-0.052,5.825 -0.28,4.517 -0.842,3.247C-1.101,2.664 -0.695,2.11 -0.453,1.607C0.121,0.412 1.214,-0.07 2.447,-0.29C2.807,-0.354 3.07,-0.176 3.294,0.12C4.088,1.17 4.372,2.363 4.258,3.648C4.202,4.281 4.011,4.902 3.93,5.534C3.813,6.443 3.126,6.952 2.581,7.564C2.49,7.667 2.363,7.741 2.278,7.848C1.696,8.585 0.964,8.708 0,8.354" style="fill:rgb(57,181,74);fill-rule:nonzero;"/>
            </g>
            <g transform="matrix(4.16667,0,0,4.16667,1381.52,946.347)">
                <path d="M0,4.347C-0.069,4.754 0.095,5.216 -0.437,5.357C-0.982,5.501 -1.47,5.245 -1.675,4.697C-1.925,4.029 -2.124,3.342 -2.384,2.679C-2.656,1.986 -2.998,1.321 -3.263,0.627C-3.377,0.324 -3.38,-0.023 -3.419,-0.353C-3.47,-0.779 -3.108,-0.989 -2.841,-1.071C-2.573,-1.154 -2.176,-1.062 -1.926,-0.903C-1.612,-0.703 -1.324,-0.394 -1.141,-0.067C-0.845,0.46 -0.557,1.022 -0.423,1.605C-0.21,2.517 -0.131,3.459 0,4.347" style="fill:rgb(168,123,80);fill-rule:nonzero;"/>
            </g>
            <g transform="matrix(4.16667,0,0,4.16667,1341.88,1057.91)">
                <path d="M0,-7.636C0,-7.636 -1.34,1.93 3.769,3.126C8.878,4.32 2.325,-5.273 2.742,-7.547C3.159,-9.822 0.826,-11.956 0,-7.636" style="fill:rgb(176,213,124);fill-rule:nonzero;"/>
            </g>
            <g transform="matrix(4.16667,0,0,4.16667,1487.65,1057.66)">
                <path d="M0,-22.369C-0.131,-23.257 -0.21,-24.199 -0.422,-25.111C-0.556,-25.694 -0.844,-26.256 -1.141,-26.783C-1.324,-27.11 -1.612,-27.419 -1.925,-27.619C-2.176,-27.778 -2.573,-27.87 -2.841,-27.787C-3.108,-27.705 -3.47,-27.495 -3.419,-27.069C-3.379,-26.739 -3.377,-26.392 -3.262,-26.089C-2.998,-25.395 -2.655,-24.73 -2.384,-24.037C-2.123,-23.374 -1.925,-22.687 -1.675,-22.019C-1.47,-21.471 -0.982,-21.215 -0.437,-21.359C0.095,-21.5 -0.069,-21.962 0,-22.369M1.121,-21.397C2.085,-21.043 2.817,-21.166 3.399,-21.902C3.484,-22.01 3.61,-22.084 3.703,-22.187C4.248,-22.799 4.935,-23.307 5.051,-24.217C5.132,-24.849 5.323,-25.47 5.379,-26.103C5.494,-27.388 5.209,-28.581 4.414,-29.631C4.191,-29.926 3.929,-30.105 3.568,-30.041C2.336,-29.82 1.241,-29.339 0.668,-28.144C0.426,-27.64 0.019,-27.087 0.279,-26.504C0.842,-25.234 1.069,-23.926 1.019,-22.548C1.005,-22.168 1.085,-21.783 1.121,-21.397M-3.259,-23.169C-3.786,-23.187 -4.288,-23.112 -4.536,-22.668C-5.004,-21.832 -5.52,-21.031 -5.501,-19.972C-5.482,-18.959 -5.647,-17.933 -5.825,-16.928C-5.925,-16.368 -6.267,-15.856 -6.411,-15.3C-6.612,-14.527 -6.929,-13.852 -7.56,-13.338C-7.669,-13.249 -7.704,-13.066 -7.766,-12.924C-7.852,-12.731 -7.918,-12.53 -8.018,-12.346C-8.211,-11.983 -8.426,-11.633 -8.627,-11.274C-8.865,-10.845 -9.027,-10.35 -9.348,-9.996C-10.206,-9.046 -10.871,-8.009 -11.375,-6.822C-12.102,-5.111 -12.152,-3.357 -11.736,-1.628C-11.31,0.137 -10.817,1.889 -9.573,3.362C-8.672,4.429 -7.62,5.208 -6.451,5.899C-5.331,6.559 -4.089,6.88 -2.844,7.122C-1.711,7.342 -0.559,7.549 0.625,7.379C2.265,7.143 3.625,6.322 4.965,5.438C5.196,5.286 5.45,5.141 5.621,4.933C6.206,4.22 6.758,3.477 7.329,2.751C7.564,2.451 7.869,2.194 8.049,1.866C8.745,0.596 9.197,-0.72 9.249,-2.218C9.294,-3.5 9.249,-4.739 9.094,-6.016C8.872,-7.852 8.221,-9.506 7.402,-11.102C6.753,-12.367 6.207,-13.669 5.844,-15.026C5.553,-16.11 4.982,-17.124 5.015,-18.302C5.036,-18.989 4.974,-19.688 4.862,-20.367C4.809,-20.689 4.621,-21.105 4.364,-21.249C4.028,-21.438 3.799,-21.037 3.589,-20.78C3.52,-20.695 3.427,-20.629 3.345,-20.552C3.008,-20.23 2.657,-20.063 2.15,-20.197C1.085,-20.476 -0.046,-19.918 -1.108,-20.407C-1.149,-20.426 -1.215,-20.387 -1.271,-20.381C-1.816,-20.331 -2.304,-20.467 -2.642,-20.744C-2.864,-21.62 -3.061,-22.391 -3.259,-23.169M-3.711,-24.26C-3.854,-24.551 -3.965,-24.887 -4.165,-25.16C-4.62,-25.785 -4.856,-26.485 -4.985,-27.232C-5.102,-27.902 -4.961,-28.193 -4.38,-28.542C-4.212,-28.642 -4.041,-28.734 -3.88,-28.843C-2.712,-29.63 -1.864,-29.536 -0.887,-28.492C-0.74,-28.335 -0.634,-28.139 -0.531,-27.993C0.135,-28.664 0.659,-29.326 1.312,-29.814C2.285,-30.539 3.337,-31.169 4.665,-30.9C5.136,-30.804 5.401,-30.532 5.508,-30.092C5.792,-28.936 6.255,-27.8 6.172,-26.589C6.088,-25.388 6.053,-24.157 5.451,-23.057C5.321,-22.821 5.124,-22.621 4.84,-22.25C4.962,-22.175 5.138,-22.096 5.282,-21.976C6.068,-21.319 6.078,-20.38 6.184,-19.472C6.312,-18.374 6.396,-17.262 6.637,-16.186C6.802,-15.454 7.204,-14.775 7.499,-14.072C7.521,-14.02 7.537,-13.967 7.556,-13.914C8.349,-11.697 9.571,-9.643 10.081,-7.32C10.342,-6.133 10.685,-4.954 10.524,-3.707C10.439,-3.047 10.484,-2.369 10.367,-1.716C10.082,-0.111 9.562,1.408 8.803,2.871C8.344,3.756 7.583,4.338 7.019,5.107C6.168,6.266 4.863,6.943 3.673,7.643C2.429,8.374 0.973,8.8 -0.543,8.741C-1.043,8.721 -1.557,8.792 -2.039,8.695C-3.713,8.356 -5.422,8.122 -6.968,7.342C-7.455,7.097 -7.841,6.658 -8.318,6.383C-9.851,5.499 -10.669,4.073 -11.491,2.575C-12.338,1.029 -12.716,-0.687 -13.485,-2.253C-13.597,-2.483 -13.551,-2.799 -13.55,-3.076C-13.549,-3.73 -13.616,-4.362 -13.226,-4.995C-12.871,-5.57 -12.785,-6.305 -12.49,-6.925C-11.862,-8.244 -11.214,-9.557 -10.501,-10.832C-9.989,-11.751 -9.359,-12.606 -8.783,-13.49C-8.51,-13.908 -8.176,-14.3 -7.976,-14.751C-7.604,-15.596 -7.301,-16.473 -6.988,-17.342C-6.838,-17.758 -6.734,-18.191 -6.595,-18.61C-6.456,-19.03 -6.261,-19.435 -6.418,-19.901C-6.459,-20.024 -6.44,-20.186 -6.397,-20.313C-6.021,-21.425 -5.772,-22.609 -4.925,-23.487C-4.63,-23.793 -4.192,-23.961 -3.711,-24.26" style="fill:rgb(35,31,32);fill-rule:nonzero;"/>
            </g>
            <g transform="matrix(4.16667,0,0,4.16667,1474.07,1089.05)">
                <path d="M0,-30.703C0.198,-29.925 0.395,-29.153 0.617,-28.277C0.955,-28 1.443,-27.865 1.989,-27.915C2.043,-27.92 2.11,-27.959 2.151,-27.94C3.213,-27.45 4.343,-28.01 5.408,-27.73C5.916,-27.597 6.267,-27.763 6.604,-28.086C6.686,-28.163 6.778,-28.228 6.848,-28.314C7.058,-28.57 7.288,-28.971 7.623,-28.782C7.879,-28.638 8.067,-28.222 8.121,-27.899C8.233,-27.221 8.294,-26.523 8.275,-25.835C8.241,-24.658 8.812,-23.643 9.102,-22.558C9.466,-21.202 10.012,-19.901 10.66,-18.635C11.48,-17.039 12.131,-15.385 12.353,-13.548C12.508,-12.271 12.553,-11.034 12.508,-9.751C12.456,-8.253 12.003,-6.938 11.307,-5.668C11.128,-5.34 10.822,-5.083 10.587,-4.783C10.016,-4.056 9.465,-3.314 8.879,-2.6C8.709,-2.392 8.454,-2.247 8.223,-2.095C6.883,-1.211 5.523,-0.391 3.883,-0.155C2.699,0.016 1.548,-0.191 0.414,-0.411C-0.83,-0.654 -2.073,-0.975 -3.191,-1.634C-4.361,-2.325 -5.414,-3.105 -6.314,-4.171C-7.559,-5.643 -8.052,-7.397 -8.478,-9.161C-8.894,-10.889 -8.844,-12.644 -8.116,-14.355C-7.612,-15.542 -6.948,-16.58 -6.088,-17.529C-5.769,-17.882 -5.607,-18.379 -5.368,-18.807C-5.167,-19.167 -4.952,-19.517 -4.758,-19.879C-4.66,-20.063 -4.593,-20.265 -4.508,-20.457C-4.445,-20.599 -4.41,-20.782 -4.301,-20.871C-3.671,-21.386 -3.353,-22.06 -3.152,-22.833C-3.008,-23.39 -2.665,-23.902 -2.567,-24.462C-2.387,-25.465 -2.224,-26.493 -2.242,-27.506C-2.262,-28.563 -1.744,-29.366 -1.277,-30.201C-1.03,-30.644 -0.527,-30.719 0,-30.703" style="fill:rgb(149,203,110);fill-rule:nonzero;"/>
            </g>
            <g transform="matrix(4.16667,0,0,4.16667,1492.32,933.702)">
                <path d="M0,8.354C-0.037,7.968 -0.116,7.583 -0.102,7.202C-0.052,5.825 -0.28,4.517 -0.842,3.247C-1.101,2.664 -0.695,2.11 -0.453,1.607C0.121,0.412 1.215,-0.07 2.448,-0.29C2.807,-0.354 3.07,-0.176 3.294,0.12C4.089,1.17 4.372,2.363 4.258,3.648C4.202,4.281 4.012,4.902 3.931,5.534C3.813,6.443 3.126,6.952 2.581,7.564C2.49,7.667 2.363,7.741 2.278,7.848C1.696,8.585 0.964,8.708 0,8.354" style="fill:rgb(57,181,74);fill-rule:nonzero;"/>
            </g>
            <g transform="matrix(4.16667,0,0,4.16667,1487.65,946.347)">
                <path d="M0,4.347C-0.069,4.754 0.095,5.216 -0.437,5.357C-0.982,5.501 -1.47,5.245 -1.675,4.697C-1.925,4.029 -2.123,3.342 -2.384,2.679C-2.655,1.986 -2.998,1.321 -3.262,0.627C-3.377,0.324 -3.379,-0.023 -3.419,-0.353C-3.47,-0.779 -3.108,-0.989 -2.841,-1.071C-2.573,-1.154 -2.176,-1.062 -1.925,-0.903C-1.612,-0.703 -1.324,-0.394 -1.141,-0.067C-0.844,0.46 -0.556,1.022 -0.422,1.605C-0.21,2.517 -0.131,3.459 0,4.347" style="fill:rgb(168,123,80);fill-rule:nonzero;"/>
            </g>
            <g transform="matrix(4.16667,0,0,4.16667,1448.01,1057.91)">
                <path d="M0,-7.636C0,-7.636 -1.34,1.93 3.77,3.126C8.878,4.32 2.326,-5.273 2.742,-7.547C3.159,-9.822 0.826,-11.956 0,-7.636" style="fill:rgb(176,213,124);fill-rule:nonzero;"/>
            </g>
            <g transform="matrix(4.16667,0,0,4.16667,1275.39,1057.66)">
                <path d="M0,-22.369C-0.13,-23.257 -0.209,-24.199 -0.422,-25.111C-0.556,-25.694 -0.844,-26.256 -1.14,-26.783C-1.323,-27.11 -1.611,-27.419 -1.925,-27.619C-2.175,-27.778 -2.572,-27.87 -2.84,-27.787C-3.107,-27.705 -3.47,-27.495 -3.418,-27.069C-3.379,-26.739 -3.376,-26.392 -3.262,-26.089C-2.998,-25.395 -2.655,-24.73 -2.384,-24.037C-2.123,-23.374 -1.925,-22.687 -1.675,-22.019C-1.47,-21.471 -0.982,-21.215 -0.437,-21.359C0.096,-21.5 -0.068,-21.962 0,-22.369M1.122,-21.397C2.086,-21.043 2.818,-21.166 3.4,-21.902C3.485,-22.01 3.611,-22.084 3.704,-22.187C4.248,-22.799 4.935,-23.307 5.051,-24.217C5.133,-24.849 5.324,-25.47 5.38,-26.103C5.495,-27.388 5.209,-28.581 4.414,-29.631C4.192,-29.926 3.929,-30.105 3.568,-30.041C2.336,-29.82 1.242,-29.339 0.669,-28.144C0.427,-27.64 0.019,-27.087 0.279,-26.504C0.842,-25.234 1.069,-23.926 1.019,-22.548C1.005,-22.168 1.086,-21.783 1.122,-21.397M-3.259,-23.169C-3.786,-23.187 -4.287,-23.112 -4.536,-22.668C-5.003,-21.832 -5.52,-21.031 -5.501,-19.972C-5.481,-18.959 -5.646,-17.933 -5.824,-16.928C-5.925,-16.368 -6.267,-15.856 -6.411,-15.3C-6.612,-14.527 -6.928,-13.852 -7.56,-13.338C-7.669,-13.249 -7.703,-13.066 -7.766,-12.924C-7.851,-12.731 -7.917,-12.53 -8.017,-12.346C-8.211,-11.983 -8.425,-11.633 -8.627,-11.274C-8.865,-10.845 -9.027,-10.35 -9.347,-9.996C-10.205,-9.046 -10.87,-8.009 -11.375,-6.822C-12.101,-5.111 -12.152,-3.357 -11.735,-1.628C-11.31,0.137 -10.817,1.889 -9.573,3.362C-8.672,4.429 -7.62,5.208 -6.45,5.899C-5.33,6.559 -4.089,6.88 -2.843,7.122C-1.711,7.342 -0.559,7.549 0.625,7.379C2.266,7.143 3.625,6.322 4.965,5.438C5.196,5.286 5.45,5.141 5.621,4.933C6.207,4.22 6.758,3.477 7.329,2.751C7.565,2.451 7.87,2.194 8.05,1.866C8.746,0.596 9.198,-0.72 9.249,-2.218C9.294,-3.5 9.249,-4.739 9.094,-6.016C8.873,-7.852 8.221,-9.506 7.403,-11.102C6.753,-12.367 6.208,-13.669 5.845,-15.026C5.553,-16.11 4.982,-17.124 5.015,-18.302C5.036,-18.989 4.975,-19.688 4.863,-20.367C4.81,-20.689 4.621,-21.105 4.364,-21.249C4.029,-21.438 3.799,-21.037 3.59,-20.78C3.521,-20.695 3.427,-20.629 3.346,-20.552C3.008,-20.23 2.657,-20.063 2.151,-20.197C1.085,-20.476 -0.046,-19.918 -1.108,-20.407C-1.149,-20.426 -1.215,-20.387 -1.271,-20.381C-1.815,-20.331 -2.303,-20.467 -2.641,-20.744C-2.864,-21.62 -3.061,-22.391 -3.259,-23.169M-3.711,-24.26C-3.854,-24.551 -3.965,-24.887 -4.164,-25.16C-4.62,-25.785 -4.856,-26.485 -4.985,-27.232C-5.101,-27.902 -4.961,-28.193 -4.379,-28.542C-4.212,-28.642 -4.041,-28.734 -3.88,-28.843C-2.712,-29.63 -1.863,-29.536 -0.887,-28.492C-0.74,-28.335 -0.633,-28.139 -0.531,-27.993C0.136,-28.664 0.659,-29.326 1.312,-29.814C2.286,-30.539 3.337,-31.169 4.665,-30.9C5.136,-30.804 5.401,-30.532 5.509,-30.092C5.792,-28.936 6.256,-27.8 6.172,-26.589C6.088,-25.388 6.054,-24.157 5.451,-23.057C5.321,-22.821 5.125,-22.621 4.841,-22.25C4.962,-22.175 5.139,-22.096 5.282,-21.976C6.068,-21.319 6.079,-20.38 6.185,-19.472C6.312,-18.374 6.396,-17.262 6.637,-16.186C6.803,-15.454 7.204,-14.775 7.5,-14.072C7.522,-14.02 7.537,-13.967 7.556,-13.914C8.349,-11.697 9.571,-9.643 10.081,-7.32C10.343,-6.133 10.686,-4.954 10.525,-3.707C10.44,-3.047 10.484,-2.369 10.368,-1.716C10.083,-0.111 9.562,1.408 8.804,2.871C8.345,3.756 7.584,4.338 7.019,5.107C6.168,6.266 4.863,6.943 3.674,7.643C2.43,8.374 0.973,8.8 -0.543,8.741C-1.043,8.721 -1.557,8.792 -2.039,8.695C-3.712,8.356 -5.422,8.122 -6.968,7.342C-7.455,7.097 -7.84,6.658 -8.317,6.383C-9.85,5.499 -10.669,4.073 -11.491,2.575C-12.338,1.029 -12.715,-0.687 -13.485,-2.253C-13.597,-2.483 -13.55,-2.799 -13.55,-3.076C-13.548,-3.73 -13.616,-4.362 -13.226,-4.995C-12.871,-5.57 -12.785,-6.305 -12.489,-6.925C-11.862,-8.244 -11.213,-9.557 -10.501,-10.832C-9.988,-11.751 -9.358,-12.606 -8.782,-13.49C-8.51,-13.908 -8.175,-14.3 -7.976,-14.751C-7.604,-15.596 -7.301,-16.473 -6.988,-17.342C-6.837,-17.758 -6.734,-18.191 -6.595,-18.61C-6.455,-19.03 -6.261,-19.435 -6.418,-19.901C-6.458,-20.024 -6.44,-20.186 -6.397,-20.313C-6.021,-21.425 -5.772,-22.609 -4.924,-23.487C-4.629,-23.793 -4.192,-23.961 -3.711,-24.26" style="fill:rgb(35,31,32);fill-rule:nonzero;"/>
            </g>
            <g transform="matrix(4.16667,0,0,4.16667,1261.82,1089.05)">
                <path d="M0,-30.703C0.198,-29.925 0.395,-29.153 0.618,-28.277C0.956,-28 1.443,-27.865 1.989,-27.915C2.043,-27.92 2.11,-27.959 2.151,-27.94C3.213,-27.45 4.343,-28.01 5.409,-27.73C5.916,-27.597 6.267,-27.763 6.605,-28.086C6.686,-28.163 6.779,-28.228 6.848,-28.314C7.058,-28.57 7.288,-28.971 7.623,-28.782C7.879,-28.638 8.068,-28.222 8.122,-27.899C8.234,-27.221 8.295,-26.523 8.275,-25.835C8.241,-24.658 8.812,-23.643 9.103,-22.558C9.467,-21.202 10.012,-19.901 10.661,-18.635C11.48,-17.039 12.132,-15.385 12.353,-13.548C12.508,-12.271 12.553,-11.034 12.508,-9.751C12.456,-8.253 12.004,-6.938 11.308,-5.668C11.128,-5.34 10.823,-5.083 10.587,-4.783C10.016,-4.056 9.466,-3.314 8.879,-2.6C8.709,-2.392 8.454,-2.247 8.223,-2.095C6.883,-1.211 5.524,-0.391 3.883,-0.155C2.699,0.016 1.548,-0.191 0.415,-0.411C-0.83,-0.654 -2.072,-0.975 -3.191,-1.634C-4.361,-2.325 -5.413,-3.105 -6.314,-4.171C-7.558,-5.643 -8.051,-7.397 -8.477,-9.161C-8.894,-10.889 -8.843,-12.644 -8.116,-14.355C-7.611,-15.542 -6.947,-16.58 -6.088,-17.529C-5.769,-17.882 -5.606,-18.379 -5.368,-18.807C-5.166,-19.167 -4.952,-19.517 -4.757,-19.879C-4.659,-20.063 -4.593,-20.265 -4.508,-20.457C-4.444,-20.599 -4.41,-20.782 -4.301,-20.871C-3.67,-21.386 -3.353,-22.06 -3.152,-22.833C-3.008,-23.39 -2.665,-23.902 -2.566,-24.462C-2.387,-25.465 -2.223,-26.493 -2.242,-27.506C-2.262,-28.563 -1.744,-29.366 -1.277,-30.201C-1.029,-30.644 -0.527,-30.719 0,-30.703" style="fill:rgb(149,203,110);fill-rule:nonzero;"/>
            </g>
            <g transform="matrix(4.16667,0,0,4.16667,1280.07,933.702)">
                <path d="M0,8.354C-0.037,7.968 -0.117,7.583 -0.102,7.202C-0.053,5.825 -0.28,4.517 -0.843,3.247C-1.102,2.664 -0.695,2.11 -0.453,1.607C0.121,0.412 1.214,-0.07 2.447,-0.29C2.806,-0.354 3.07,-0.176 3.293,0.12C4.088,1.17 4.372,2.363 4.258,3.648C4.202,4.281 4.011,4.902 3.93,5.534C3.813,6.443 3.126,6.952 2.581,7.564C2.49,7.667 2.363,7.741 2.278,7.848C1.696,8.585 0.964,8.708 0,8.354" style="fill:rgb(57,181,74);fill-rule:nonzero;"/>
            </g>
            <g transform="matrix(4.16667,0,0,4.16667,1275.39,946.347)">
                <path d="M0,4.347C-0.068,4.754 0.096,5.216 -0.437,5.357C-0.982,5.501 -1.47,5.245 -1.675,4.697C-1.925,4.029 -2.123,3.342 -2.384,2.679C-2.655,1.986 -2.998,1.321 -3.262,0.627C-3.376,0.324 -3.379,-0.023 -3.418,-0.353C-3.47,-0.779 -3.107,-0.989 -2.84,-1.071C-2.572,-1.154 -2.175,-1.062 -1.925,-0.903C-1.611,-0.703 -1.323,-0.394 -1.14,-0.067C-0.844,0.46 -0.556,1.022 -0.422,1.605C-0.209,2.517 -0.13,3.459 0,4.347" style="fill:rgb(168,123,80);fill-rule:nonzero;"/>
            </g>
            <g transform="matrix(4.16667,0,0,4.16667,1235.75,1057.91)">
                <path d="M0,-7.636C0,-7.636 -1.339,1.93 3.77,3.126C8.879,4.32 2.326,-5.273 2.743,-7.547C3.16,-9.822 0.827,-11.956 0,-7.636" style="fill:rgb(176,213,124);fill-rule:nonzero;"/>
            </g>
            <g transform="matrix(4.16667,0,0,4.16667,1278.7,873.585)">
                <path d="M0,-22.369C-0.131,-23.257 -0.21,-24.199 -0.422,-25.111C-0.557,-25.694 -0.844,-26.256 -1.141,-26.783C-1.324,-27.11 -1.612,-27.419 -1.926,-27.619C-2.176,-27.778 -2.573,-27.87 -2.841,-27.787C-3.108,-27.705 -3.47,-27.495 -3.419,-27.069C-3.38,-26.74 -3.377,-26.392 -3.262,-26.089C-2.998,-25.395 -2.656,-24.73 -2.384,-24.037C-2.124,-23.374 -1.925,-22.687 -1.675,-22.019C-1.47,-21.471 -0.982,-21.216 -0.437,-21.359C0.095,-21.5 -0.069,-21.962 0,-22.369M1.121,-21.397C2.085,-21.043 2.817,-21.166 3.399,-21.903C3.484,-22.01 3.61,-22.084 3.703,-22.187C4.248,-22.799 4.935,-23.307 5.05,-24.217C5.132,-24.849 5.323,-25.47 5.379,-26.103C5.494,-27.388 5.208,-28.581 4.414,-29.631C4.191,-29.926 3.929,-30.105 3.567,-30.041C2.335,-29.82 1.241,-29.339 0.668,-28.144C0.426,-27.641 0.019,-27.087 0.279,-26.504C0.842,-25.234 1.069,-23.926 1.018,-22.548C1.005,-22.168 1.085,-21.783 1.121,-21.397M-3.259,-23.169C-3.786,-23.187 -4.288,-23.112 -4.536,-22.668C-5.004,-21.832 -5.52,-21.031 -5.501,-19.972C-5.482,-18.959 -5.647,-17.933 -5.825,-16.928C-5.926,-16.368 -6.268,-15.856 -6.412,-15.3C-6.613,-14.527 -6.929,-13.852 -7.56,-13.338C-7.67,-13.249 -7.704,-13.066 -7.767,-12.924C-7.852,-12.732 -7.918,-12.53 -8.018,-12.346C-8.212,-11.983 -8.426,-11.633 -8.627,-11.274C-8.865,-10.845 -9.027,-10.35 -9.348,-9.996C-10.206,-9.046 -10.871,-8.009 -11.375,-6.822C-12.102,-5.111 -12.152,-3.357 -11.736,-1.628C-11.31,0.137 -10.817,1.889 -9.573,3.362C-8.672,4.429 -7.62,5.208 -6.451,5.899C-5.331,6.559 -4.089,6.88 -2.844,7.121C-1.711,7.343 -0.559,7.55 0.625,7.378C2.265,7.143 3.625,6.322 4.964,5.438C5.195,5.286 5.45,5.141 5.621,4.933C6.206,4.22 6.758,3.477 7.328,2.751C7.564,2.451 7.869,2.194 8.049,1.865C8.745,0.596 9.197,-0.72 9.249,-2.218C9.294,-3.5 9.249,-4.738 9.094,-6.016C8.872,-7.852 8.22,-9.506 7.402,-11.102C6.752,-12.367 6.207,-13.669 5.844,-15.026C5.552,-16.11 4.982,-17.124 5.015,-18.302C5.035,-18.989 4.974,-19.688 4.862,-20.367C4.809,-20.689 4.62,-21.105 4.364,-21.249C4.028,-21.438 3.799,-21.037 3.589,-20.78C3.52,-20.695 3.426,-20.629 3.345,-20.552C3.008,-20.23 2.656,-20.063 2.15,-20.197C1.085,-20.476 -0.047,-19.918 -1.108,-20.407C-1.15,-20.426 -1.216,-20.387 -1.271,-20.381C-1.816,-20.331 -2.304,-20.467 -2.642,-20.744C-2.865,-21.62 -3.061,-22.391 -3.259,-23.169M-3.712,-24.26C-3.855,-24.551 -3.965,-24.886 -4.165,-25.16C-4.62,-25.785 -4.856,-26.485 -4.985,-27.232C-5.102,-27.902 -4.961,-28.193 -4.38,-28.542C-4.212,-28.642 -4.041,-28.735 -3.88,-28.843C-2.712,-29.63 -1.864,-29.536 -0.887,-28.492C-0.74,-28.335 -0.634,-28.139 -0.531,-27.993C0.135,-28.664 0.658,-29.326 1.312,-29.813C2.285,-30.539 3.337,-31.169 4.664,-30.9C5.136,-30.805 5.401,-30.532 5.508,-30.092C5.791,-28.936 6.255,-27.8 6.171,-26.59C6.088,-25.388 6.053,-24.157 5.451,-23.057C5.321,-22.821 5.124,-22.621 4.84,-22.25C4.961,-22.175 5.138,-22.096 5.282,-21.976C6.068,-21.319 6.078,-20.38 6.184,-19.472C6.312,-18.374 6.396,-17.262 6.637,-16.186C6.802,-15.454 7.203,-14.775 7.499,-14.072C7.521,-14.02 7.536,-13.967 7.556,-13.914C8.348,-11.697 9.571,-9.643 10.081,-7.32C10.342,-6.133 10.685,-4.954 10.524,-3.707C10.439,-3.047 10.484,-2.369 10.367,-1.717C10.082,-0.111 9.562,1.408 8.803,2.871C8.344,3.756 7.583,4.338 7.019,5.107C6.167,6.266 4.862,6.943 3.673,7.643C2.429,8.374 0.973,8.8 -0.544,8.741C-1.043,8.722 -1.558,8.792 -2.039,8.695C-3.713,8.356 -5.422,8.122 -6.968,7.342C-7.455,7.097 -7.841,6.658 -8.318,6.383C-9.851,5.499 -10.669,4.073 -11.491,2.575C-12.339,1.029 -12.716,-0.687 -13.485,-2.253C-13.598,-2.483 -13.551,-2.799 -13.55,-3.076C-13.549,-3.73 -13.617,-4.362 -13.227,-4.995C-12.871,-5.57 -12.785,-6.305 -12.49,-6.925C-11.863,-8.244 -11.214,-9.557 -10.501,-10.832C-9.989,-11.751 -9.359,-12.606 -8.783,-13.49C-8.51,-13.908 -8.176,-14.3 -7.976,-14.751C-7.604,-15.596 -7.301,-16.473 -6.988,-17.342C-6.838,-17.758 -6.734,-18.191 -6.595,-18.61C-6.456,-19.03 -6.261,-19.435 -6.418,-19.901C-6.459,-20.024 -6.44,-20.186 -6.397,-20.313C-6.022,-21.425 -5.773,-22.609 -4.925,-23.487C-4.63,-23.793 -4.192,-23.961 -3.712,-24.26" style="fill:rgb(35,31,32);fill-rule:nonzero;"/>
            </g>
            <g transform="matrix(4.16667,0,0,4.16667,1265.12,904.973)">
                <path d="M0,-30.703C0.198,-29.925 0.394,-29.153 0.617,-28.277C0.955,-28 1.443,-27.864 1.989,-27.915C2.043,-27.92 2.109,-27.959 2.151,-27.94C3.212,-27.45 4.343,-28.01 5.408,-27.73C5.915,-27.597 6.267,-27.763 6.604,-28.086C6.685,-28.163 6.778,-28.228 6.848,-28.314C7.058,-28.57 7.288,-28.971 7.623,-28.782C7.878,-28.638 8.067,-28.222 8.121,-27.899C8.233,-27.221 8.294,-26.523 8.275,-25.835C8.241,-24.658 8.811,-23.642 9.102,-22.558C9.466,-21.202 10.011,-19.901 10.66,-18.635C11.479,-17.039 12.131,-15.385 12.353,-13.548C12.508,-12.271 12.553,-11.034 12.508,-9.751C12.455,-8.253 12.003,-6.938 11.307,-5.668C11.128,-5.34 10.822,-5.082 10.586,-4.783C10.016,-4.056 9.465,-3.314 8.879,-2.6C8.709,-2.392 8.453,-2.247 8.222,-2.095C6.883,-1.211 5.523,-0.391 3.883,-0.155C2.699,0.016 1.548,-0.191 0.414,-0.411C-0.83,-0.654 -2.073,-0.975 -3.191,-1.634C-4.361,-2.325 -5.414,-3.105 -6.314,-4.171C-7.559,-5.643 -8.052,-7.397 -8.478,-9.161C-8.894,-10.889 -8.843,-12.644 -8.116,-14.355C-7.612,-15.542 -6.948,-16.58 -6.089,-17.529C-5.769,-17.882 -5.607,-18.379 -5.368,-18.807C-5.167,-19.166 -4.953,-19.517 -4.758,-19.879C-4.66,-20.063 -4.593,-20.265 -4.509,-20.456C-4.445,-20.599 -4.411,-20.782 -4.301,-20.871C-3.671,-21.386 -3.353,-22.06 -3.153,-22.833C-3.009,-23.39 -2.666,-23.902 -2.567,-24.462C-2.387,-25.465 -2.224,-26.493 -2.242,-27.506C-2.262,-28.563 -1.744,-29.366 -1.277,-30.201C-1.03,-30.644 -0.527,-30.719 0,-30.703" style="fill:rgb(149,203,110);fill-rule:nonzero;"/>
            </g>
            <g transform="matrix(4.16667,0,0,4.16667,1283.37,749.624)">
                <path d="M0,8.354C-0.037,7.968 -0.116,7.583 -0.102,7.202C-0.052,5.825 -0.28,4.517 -0.842,3.247C-1.101,2.664 -0.695,2.11 -0.453,1.607C0.121,0.411 1.214,-0.07 2.447,-0.29C2.807,-0.354 3.07,-0.176 3.294,0.12C4.088,1.17 4.372,2.363 4.258,3.648C4.202,4.281 4.011,4.902 3.93,5.534C3.813,6.443 3.126,6.952 2.581,7.564C2.49,7.667 2.363,7.741 2.278,7.848C1.696,8.584 0.964,8.708 0,8.354" style="fill:rgb(57,181,74);fill-rule:nonzero;"/>
            </g>
            <g transform="matrix(4.16667,0,0,4.16667,1278.7,762.264)">
                <path d="M0,4.348C-0.069,4.755 0.095,5.217 -0.437,5.358C-0.982,5.501 -1.47,5.246 -1.675,4.698C-1.925,4.03 -2.124,3.343 -2.384,2.68C-2.656,1.987 -2.998,1.322 -3.262,0.628C-3.377,0.325 -3.38,-0.023 -3.419,-0.352C-3.47,-0.778 -3.108,-0.988 -2.841,-1.07C-2.573,-1.153 -2.176,-1.061 -1.926,-0.902C-1.612,-0.702 -1.324,-0.393 -1.141,-0.066C-0.844,0.461 -0.557,1.023 -0.422,1.606C-0.21,2.518 -0.131,3.46 0,4.348" style="fill:rgb(168,123,80);fill-rule:nonzero;"/>
            </g>
            <g transform="matrix(4.16667,0,0,4.16667,1239.06,873.835)">
                <path d="M0,-7.636C0,-7.636 -1.34,1.93 3.77,3.126C8.878,4.32 2.325,-5.273 2.742,-7.547C3.159,-9.822 0.826,-11.956 0,-7.636" style="fill:rgb(176,213,124);fill-rule:nonzero;"/>
            </g>
            <g transform="matrix(4.16667,0,0,4.16667,1386.29,873.585)">
                <path d="M0,-22.369C-0.131,-23.257 -0.21,-24.199 -0.422,-25.111C-0.556,-25.694 -0.844,-26.256 -1.14,-26.783C-1.324,-27.11 -1.612,-27.419 -1.925,-27.619C-2.176,-27.778 -2.573,-27.87 -2.841,-27.787C-3.108,-27.705 -3.47,-27.495 -3.419,-27.069C-3.379,-26.74 -3.377,-26.392 -3.262,-26.089C-2.998,-25.395 -2.655,-24.73 -2.384,-24.037C-2.123,-23.374 -1.925,-22.687 -1.675,-22.019C-1.47,-21.471 -0.982,-21.216 -0.437,-21.359C0.095,-21.5 -0.069,-21.962 0,-22.369M1.122,-21.397C2.085,-21.043 2.817,-21.166 3.399,-21.903C3.484,-22.01 3.61,-22.084 3.703,-22.187C4.248,-22.799 4.935,-23.307 5.051,-24.217C5.132,-24.849 5.323,-25.47 5.379,-26.103C5.494,-27.388 5.209,-28.581 4.414,-29.631C4.191,-29.926 3.929,-30.105 3.568,-30.041C2.336,-29.82 1.241,-29.339 0.668,-28.144C0.427,-27.641 0.019,-27.087 0.279,-26.504C0.842,-25.234 1.069,-23.926 1.019,-22.548C1.005,-22.168 1.085,-21.783 1.122,-21.397M-3.259,-23.169C-3.786,-23.187 -4.288,-23.112 -4.536,-22.668C-5.004,-21.832 -5.52,-21.031 -5.501,-19.972C-5.482,-18.959 -5.647,-17.933 -5.825,-16.928C-5.925,-16.368 -6.267,-15.856 -6.411,-15.3C-6.612,-14.527 -6.929,-13.852 -7.56,-13.338C-7.669,-13.249 -7.704,-13.066 -7.766,-12.924C-7.852,-12.732 -7.918,-12.53 -8.017,-12.346C-8.211,-11.983 -8.426,-11.633 -8.627,-11.274C-8.865,-10.845 -9.027,-10.35 -9.348,-9.996C-10.206,-9.046 -10.871,-8.009 -11.375,-6.822C-12.102,-5.111 -12.152,-3.357 -11.736,-1.628C-11.31,0.137 -10.817,1.889 -9.573,3.362C-8.672,4.429 -7.62,5.208 -6.451,5.899C-5.331,6.559 -4.089,6.88 -2.844,7.121C-1.711,7.343 -0.559,7.55 0.625,7.378C2.265,7.143 3.625,6.322 4.965,5.438C5.196,5.286 5.45,5.141 5.621,4.933C6.206,4.22 6.758,3.477 7.329,2.751C7.564,2.451 7.869,2.194 8.049,1.865C8.746,0.596 9.197,-0.72 9.249,-2.218C9.294,-3.5 9.249,-4.738 9.094,-6.016C8.872,-7.852 8.221,-9.506 7.402,-11.102C6.753,-12.367 6.207,-13.669 5.844,-15.026C5.553,-16.11 4.982,-17.124 5.015,-18.302C5.036,-18.989 4.974,-19.688 4.862,-20.367C4.809,-20.689 4.621,-21.105 4.364,-21.249C4.028,-21.438 3.799,-21.037 3.589,-20.78C3.52,-20.695 3.427,-20.629 3.346,-20.552C3.008,-20.23 2.657,-20.063 2.15,-20.197C1.085,-20.476 -0.046,-19.918 -1.108,-20.407C-1.149,-20.426 -1.215,-20.387 -1.271,-20.381C-1.816,-20.331 -2.303,-20.467 -2.642,-20.744C-2.864,-21.62 -3.061,-22.391 -3.259,-23.169M-3.711,-24.26C-3.854,-24.551 -3.965,-24.886 -4.165,-25.16C-4.62,-25.785 -4.856,-26.485 -4.985,-27.232C-5.102,-27.902 -4.961,-28.193 -4.379,-28.542C-4.212,-28.642 -4.041,-28.735 -3.88,-28.843C-2.712,-29.63 -1.863,-29.536 -0.887,-28.492C-0.74,-28.335 -0.634,-28.139 -0.531,-27.993C0.135,-28.664 0.659,-29.326 1.312,-29.813C2.285,-30.539 3.337,-31.169 4.665,-30.9C5.136,-30.805 5.401,-30.532 5.508,-30.092C5.792,-28.936 6.255,-27.8 6.172,-26.59C6.088,-25.388 6.053,-24.157 5.451,-23.057C5.321,-22.821 5.124,-22.621 4.84,-22.25C4.962,-22.175 5.138,-22.096 5.282,-21.976C6.068,-21.319 6.078,-20.38 6.184,-19.472C6.312,-18.374 6.396,-17.262 6.637,-16.186C6.802,-15.454 7.204,-14.775 7.499,-14.072C7.521,-14.02 7.537,-13.967 7.556,-13.914C8.349,-11.697 9.571,-9.643 10.081,-7.32C10.342,-6.133 10.685,-4.954 10.524,-3.707C10.439,-3.047 10.484,-2.369 10.367,-1.717C10.083,-0.111 9.562,1.408 8.803,2.871C8.344,3.756 7.583,4.338 7.019,5.107C6.168,6.266 4.863,6.943 3.673,7.643C2.429,8.374 0.973,8.8 -0.543,8.741C-1.043,8.722 -1.557,8.792 -2.039,8.695C-3.713,8.356 -5.422,8.122 -6.968,7.342C-7.455,7.097 -7.841,6.658 -8.317,6.383C-9.851,5.499 -10.669,4.073 -11.491,2.575C-12.338,1.029 -12.716,-0.687 -13.485,-2.253C-13.597,-2.483 -13.551,-2.799 -13.55,-3.076C-13.549,-3.73 -13.616,-4.362 -13.226,-4.995C-12.871,-5.57 -12.785,-6.305 -12.49,-6.925C-11.862,-8.244 -11.214,-9.557 -10.501,-10.832C-9.989,-11.751 -9.359,-12.606 -8.783,-13.49C-8.51,-13.908 -8.176,-14.3 -7.976,-14.751C-7.604,-15.596 -7.301,-16.473 -6.988,-17.342C-6.838,-17.758 -6.734,-18.191 -6.595,-18.61C-6.456,-19.03 -6.261,-19.435 -6.418,-19.901C-6.459,-20.024 -6.44,-20.186 -6.397,-20.313C-6.021,-21.425 -5.772,-22.609 -4.925,-23.487C-4.63,-23.793 -4.192,-23.961 -3.711,-24.26" style="fill:rgb(35,31,32);fill-rule:nonzero;"/>
            </g>
            <g transform="matrix(4.16667,0,0,4.16667,1372.72,904.973)">
                <path d="M0,-30.703C0.198,-29.925 0.395,-29.153 0.617,-28.277C0.956,-28 1.443,-27.864 1.989,-27.915C2.043,-27.92 2.11,-27.959 2.151,-27.94C3.213,-27.45 4.343,-28.01 5.408,-27.73C5.916,-27.597 6.267,-27.763 6.605,-28.086C6.686,-28.163 6.778,-28.228 6.848,-28.314C7.058,-28.57 7.288,-28.971 7.623,-28.782C7.879,-28.638 8.067,-28.222 8.121,-27.899C8.233,-27.221 8.294,-26.523 8.275,-25.835C8.241,-24.658 8.812,-23.642 9.102,-22.558C9.466,-21.202 10.012,-19.901 10.66,-18.635C11.48,-17.039 12.131,-15.385 12.353,-13.548C12.508,-12.271 12.553,-11.034 12.508,-9.751C12.456,-8.253 12.004,-6.938 11.308,-5.668C11.128,-5.34 10.822,-5.082 10.587,-4.783C10.016,-4.056 9.465,-3.314 8.879,-2.6C8.709,-2.392 8.454,-2.247 8.223,-2.095C6.883,-1.211 5.523,-0.391 3.883,-0.155C2.699,0.016 1.548,-0.191 0.414,-0.411C-0.83,-0.654 -2.073,-0.975 -3.191,-1.634C-4.361,-2.325 -5.414,-3.105 -6.314,-4.171C-7.559,-5.643 -8.051,-7.397 -8.478,-9.161C-8.894,-10.889 -8.844,-12.644 -8.116,-14.355C-7.612,-15.542 -6.948,-16.58 -6.088,-17.529C-5.769,-17.882 -5.607,-18.379 -5.368,-18.807C-5.167,-19.166 -4.952,-19.517 -4.758,-19.879C-4.66,-20.063 -4.593,-20.265 -4.508,-20.456C-4.445,-20.599 -4.41,-20.782 -4.301,-20.871C-3.671,-21.386 -3.353,-22.06 -3.152,-22.833C-3.008,-23.39 -2.665,-23.902 -2.567,-24.462C-2.387,-25.465 -2.224,-26.493 -2.242,-27.506C-2.262,-28.563 -1.744,-29.366 -1.277,-30.201C-1.03,-30.644 -0.527,-30.719 0,-30.703" style="fill:rgb(149,203,110);fill-rule:nonzero;"/>
            </g>
            <g transform="matrix(4.16667,0,0,4.16667,1390.97,749.624)">
                <path d="M0,8.354C-0.038,7.968 -0.117,7.583 -0.102,7.202C-0.053,5.825 -0.281,4.517 -0.843,3.247C-1.102,2.664 -0.695,2.11 -0.454,1.607C0.12,0.411 1.214,-0.07 2.447,-0.29C2.806,-0.354 3.069,-0.176 3.293,0.12C4.088,1.17 4.371,2.363 4.257,3.648C4.201,4.281 4.011,4.902 3.93,5.534C3.813,6.443 3.126,6.952 2.58,7.564C2.489,7.667 2.362,7.741 2.277,7.848C1.696,8.584 0.963,8.708 0,8.354" style="fill:rgb(57,181,74);fill-rule:nonzero;"/>
            </g>
            <g transform="matrix(4.16667,0,0,4.16667,1386.29,762.264)">
                <path d="M0,4.348C-0.069,4.755 0.095,5.217 -0.437,5.358C-0.982,5.501 -1.47,5.246 -1.675,4.698C-1.925,4.03 -2.123,3.343 -2.384,2.68C-2.655,1.987 -2.998,1.322 -3.262,0.628C-3.377,0.325 -3.379,-0.023 -3.419,-0.352C-3.47,-0.778 -3.108,-0.988 -2.841,-1.07C-2.573,-1.153 -2.176,-1.061 -1.925,-0.902C-1.612,-0.702 -1.324,-0.393 -1.14,-0.066C-0.844,0.461 -0.556,1.023 -0.422,1.606C-0.21,2.518 -0.131,3.46 0,4.348" style="fill:rgb(168,123,80);fill-rule:nonzero;"/>
            </g>
            <g transform="matrix(4.16667,0,0,4.16667,1346.65,873.835)">
                <path d="M0,-7.636C0,-7.636 -1.34,1.93 3.77,3.126C8.878,4.32 2.326,-5.273 2.742,-7.547C3.159,-9.822 0.826,-11.956 0,-7.636" style="fill:rgb(176,213,124);fill-rule:nonzero;"/>
            </g>
            <g transform="matrix(4.16667,0,0,4.16667,1493.89,873.585)">
                <path d="M0,-22.369C-0.13,-23.257 -0.21,-24.199 -0.422,-25.111C-0.556,-25.694 -0.844,-26.256 -1.14,-26.783C-1.323,-27.11 -1.611,-27.419 -1.925,-27.619C-2.176,-27.778 -2.573,-27.87 -2.841,-27.787C-3.107,-27.705 -3.47,-27.495 -3.418,-27.069C-3.379,-26.74 -3.377,-26.392 -3.262,-26.089C-2.998,-25.395 -2.655,-24.73 -2.384,-24.037C-2.123,-23.374 -1.925,-22.687 -1.675,-22.019C-1.47,-21.471 -0.982,-21.216 -0.437,-21.359C0.096,-21.5 -0.068,-21.962 0,-22.369M1.122,-21.397C2.086,-21.043 2.818,-21.166 3.4,-21.903C3.485,-22.01 3.611,-22.084 3.703,-22.187C4.248,-22.799 4.935,-23.307 5.051,-24.217C5.132,-24.849 5.324,-25.47 5.38,-26.103C5.494,-27.388 5.209,-28.581 4.414,-29.631C4.191,-29.926 3.929,-30.105 3.568,-30.041C2.336,-29.82 1.242,-29.339 0.668,-28.144C0.427,-27.641 0.019,-27.087 0.279,-26.504C0.842,-25.234 1.069,-23.926 1.019,-22.548C1.005,-22.168 1.085,-21.783 1.122,-21.397M-3.259,-23.169C-3.786,-23.187 -4.287,-23.112 -4.536,-22.668C-5.003,-21.832 -5.52,-21.031 -5.501,-19.972C-5.481,-18.959 -5.647,-17.933 -5.825,-16.928C-5.925,-16.368 -6.267,-15.856 -6.411,-15.3C-6.612,-14.527 -6.928,-13.852 -7.56,-13.338C-7.669,-13.249 -7.703,-13.066 -7.766,-12.924C-7.852,-12.732 -7.917,-12.53 -8.017,-12.346C-8.211,-11.983 -8.426,-11.633 -8.627,-11.274C-8.865,-10.845 -9.027,-10.35 -9.347,-9.996C-10.206,-9.046 -10.871,-8.009 -11.375,-6.822C-12.101,-5.111 -12.152,-3.357 -11.735,-1.628C-11.31,0.137 -10.817,1.889 -9.573,3.362C-8.672,4.429 -7.62,5.208 -6.45,5.899C-5.33,6.559 -4.089,6.88 -2.843,7.121C-1.711,7.343 -0.559,7.55 0.625,7.378C2.265,7.143 3.625,6.322 4.965,5.438C5.196,5.286 5.45,5.141 5.621,4.933C6.206,4.22 6.758,3.477 7.329,2.751C7.565,2.451 7.869,2.194 8.049,1.865C8.746,0.596 9.197,-0.72 9.249,-2.218C9.294,-3.5 9.249,-4.738 9.094,-6.016C8.873,-7.852 8.221,-9.506 7.403,-11.102C6.753,-12.367 6.208,-13.669 5.844,-15.026C5.553,-16.11 4.982,-17.124 5.015,-18.302C5.036,-18.989 4.975,-19.688 4.862,-20.367C4.809,-20.689 4.621,-21.105 4.364,-21.249C4.029,-21.438 3.799,-21.037 3.589,-20.78C3.52,-20.695 3.427,-20.629 3.346,-20.552C3.008,-20.23 2.657,-20.063 2.15,-20.197C1.085,-20.476 -0.046,-19.918 -1.108,-20.407C-1.149,-20.426 -1.215,-20.387 -1.271,-20.381C-1.815,-20.331 -2.303,-20.467 -2.641,-20.744C-2.864,-21.62 -3.061,-22.391 -3.259,-23.169M-3.711,-24.26C-3.854,-24.551 -3.965,-24.886 -4.164,-25.16C-4.62,-25.785 -4.856,-26.485 -4.985,-27.232C-5.101,-27.902 -4.961,-28.193 -4.379,-28.542C-4.212,-28.642 -4.041,-28.735 -3.88,-28.843C-2.712,-29.63 -1.863,-29.536 -0.887,-28.492C-0.74,-28.335 -0.633,-28.139 -0.531,-27.993C0.136,-28.664 0.659,-29.326 1.312,-29.813C2.286,-30.539 3.337,-31.169 4.665,-30.9C5.136,-30.805 5.401,-30.532 5.509,-30.092C5.792,-28.936 6.256,-27.8 6.172,-26.59C6.088,-25.388 6.054,-24.157 5.451,-23.057C5.321,-22.821 5.125,-22.621 4.84,-22.25C4.962,-22.175 5.139,-22.096 5.282,-21.976C6.068,-21.319 6.079,-20.38 6.184,-19.472C6.312,-18.374 6.396,-17.262 6.637,-16.186C6.803,-15.454 7.204,-14.775 7.5,-14.072C7.522,-14.02 7.537,-13.967 7.556,-13.914C8.349,-11.697 9.571,-9.643 10.081,-7.32C10.343,-6.133 10.685,-4.954 10.525,-3.707C10.44,-3.047 10.484,-2.369 10.368,-1.717C10.083,-0.111 9.562,1.408 8.803,2.871C8.345,3.756 7.583,4.338 7.019,5.107C6.168,6.266 4.863,6.943 3.674,7.643C2.43,8.374 0.973,8.8 -0.543,8.741C-1.043,8.722 -1.557,8.792 -2.039,8.695C-3.712,8.356 -5.422,8.122 -6.968,7.342C-7.455,7.097 -7.841,6.658 -8.317,6.383C-9.851,5.499 -10.669,4.073 -11.491,2.575C-12.338,1.029 -12.715,-0.687 -13.485,-2.253C-13.597,-2.483 -13.551,-2.799 -13.55,-3.076C-13.549,-3.73 -13.616,-4.362 -13.226,-4.995C-12.871,-5.57 -12.785,-6.305 -12.489,-6.925C-11.862,-8.244 -11.214,-9.557 -10.501,-10.832C-9.988,-11.751 -9.359,-12.606 -8.783,-13.49C-8.51,-13.908 -8.175,-14.3 -7.976,-14.751C-7.604,-15.596 -7.301,-16.473 -6.988,-17.342C-6.837,-17.758 -6.734,-18.191 -6.595,-18.61C-6.456,-19.03 -6.261,-19.435 -6.418,-19.901C-6.459,-20.024 -6.44,-20.186 -6.397,-20.313C-6.021,-21.425 -5.772,-22.609 -4.924,-23.487C-4.629,-23.793 -4.192,-23.961 -3.711,-24.26" style="fill:rgb(35,31,32);fill-rule:nonzero;"/>
            </g>
            <g transform="matrix(4.16667,0,0,4.16667,1480.31,904.973)">
                <path d="M0,-30.703C0.198,-29.925 0.395,-29.153 0.618,-28.277C0.956,-28 1.443,-27.864 1.989,-27.915C2.043,-27.92 2.11,-27.959 2.151,-27.94C3.213,-27.45 4.343,-28.01 5.408,-27.73C5.916,-27.597 6.267,-27.763 6.605,-28.086C6.686,-28.163 6.778,-28.228 6.848,-28.314C7.058,-28.57 7.288,-28.971 7.623,-28.782C7.879,-28.638 8.067,-28.222 8.121,-27.899C8.234,-27.221 8.295,-26.523 8.275,-25.835C8.241,-24.658 8.812,-23.642 9.102,-22.558C9.467,-21.202 10.012,-19.901 10.661,-18.635C11.48,-17.039 12.132,-15.385 12.353,-13.548C12.508,-12.271 12.553,-11.034 12.508,-9.751C12.456,-8.253 12.004,-6.938 11.308,-5.668C11.128,-5.34 10.823,-5.082 10.587,-4.783C10.016,-4.056 9.466,-3.314 8.879,-2.6C8.709,-2.392 8.454,-2.247 8.223,-2.095C6.883,-1.211 5.523,-0.391 3.883,-0.155C2.699,0.016 1.548,-0.191 0.415,-0.411C-0.83,-0.654 -2.072,-0.975 -3.191,-1.634C-4.361,-2.325 -5.414,-3.105 -6.314,-4.171C-7.559,-5.643 -8.051,-7.397 -8.477,-9.161C-8.894,-10.889 -8.843,-12.644 -8.116,-14.355C-7.612,-15.542 -6.947,-16.58 -6.088,-17.529C-5.769,-17.882 -5.607,-18.379 -5.368,-18.807C-5.167,-19.166 -4.952,-19.517 -4.757,-19.879C-4.659,-20.063 -4.593,-20.265 -4.508,-20.456C-4.444,-20.599 -4.41,-20.782 -4.301,-20.871C-3.67,-21.386 -3.353,-22.06 -3.152,-22.833C-3.008,-23.39 -2.665,-23.902 -2.567,-24.462C-2.387,-25.465 -2.223,-26.493 -2.242,-27.506C-2.262,-28.563 -1.744,-29.366 -1.277,-30.201C-1.029,-30.644 -0.527,-30.719 0,-30.703" style="fill:rgb(149,203,110);fill-rule:nonzero;"/>
            </g>
            <g transform="matrix(4.16667,0,0,4.16667,1498.56,749.624)">
                <path d="M0,8.354C-0.038,7.968 -0.117,7.583 -0.102,7.202C-0.053,5.825 -0.28,4.517 -0.843,3.247C-1.102,2.664 -0.695,2.11 -0.454,1.607C0.121,0.411 1.214,-0.07 2.447,-0.29C2.806,-0.354 3.069,-0.176 3.293,0.12C4.088,1.17 4.371,2.363 4.258,3.648C4.202,4.281 4.011,4.902 3.93,5.534C3.813,6.443 3.126,6.952 2.58,7.564C2.49,7.667 2.363,7.741 2.278,7.848C1.696,8.584 0.964,8.708 0,8.354" style="fill:rgb(57,181,74);fill-rule:nonzero;"/>
            </g>
            <g transform="matrix(4.16667,0,0,4.16667,1493.89,762.264)">
                <path d="M0,4.348C-0.068,4.755 0.096,5.217 -0.437,5.358C-0.982,5.501 -1.47,5.246 -1.675,4.698C-1.925,4.03 -2.123,3.343 -2.384,2.68C-2.655,1.987 -2.998,1.322 -3.262,0.628C-3.377,0.325 -3.379,-0.023 -3.418,-0.352C-3.47,-0.778 -3.107,-0.988 -2.841,-1.07C-2.573,-1.153 -2.176,-1.061 -1.925,-0.902C-1.611,-0.702 -1.323,-0.393 -1.14,-0.066C-0.844,0.461 -0.556,1.023 -0.422,1.606C-0.21,2.518 -0.13,3.46 0,4.348" style="fill:rgb(168,123,80);fill-rule:nonzero;"/>
            </g>
            <g transform="matrix(4.16667,0,0,4.16667,1454.24,873.835)">
                <path d="M0,-7.636C0,-7.636 -1.34,1.93 3.77,3.126C8.879,4.32 2.326,-5.273 2.743,-7.547C3.159,-9.822 0.827,-11.956 0,-7.636" style="fill:rgb(176,213,124);fill-rule:nonzero;"/>
            </g>
            <g transform="matrix(4.16667,0,0,4.16667,1063.52,864.387)">
                <path d="M0,-22.368C-0.13,-23.256 -0.21,-24.197 -0.422,-25.11C-0.556,-25.693 -0.844,-26.255 -1.141,-26.782C-1.324,-27.109 -1.611,-27.418 -1.925,-27.618C-2.175,-27.777 -2.572,-27.869 -2.841,-27.786C-3.108,-27.704 -3.47,-27.494 -3.419,-27.067C-3.379,-26.739 -3.377,-26.391 -3.262,-26.088C-2.998,-25.394 -2.655,-24.729 -2.384,-24.036C-2.123,-23.373 -1.925,-22.685 -1.675,-22.018C-1.47,-21.47 -0.982,-21.215 -0.437,-21.358C0.096,-21.499 -0.069,-21.961 0,-22.368M1.121,-21.396C2.086,-21.042 2.818,-21.165 3.399,-21.902C3.484,-22.009 3.611,-22.083 3.703,-22.186C4.248,-22.798 4.935,-23.307 5.051,-24.216C5.132,-24.848 5.324,-25.468 5.379,-26.102C5.494,-27.387 5.209,-28.579 4.414,-29.63C4.192,-29.925 3.929,-30.104 3.568,-30.039C2.336,-29.819 1.242,-29.338 0.669,-28.143C0.427,-27.639 0.019,-27.086 0.279,-26.502C0.842,-25.233 1.069,-23.925 1.019,-22.547C1.005,-22.166 1.085,-21.782 1.121,-21.396M-3.259,-23.168C-3.786,-23.186 -4.288,-23.111 -4.536,-22.666C-5.004,-21.831 -5.52,-21.03 -5.5,-19.971C-5.482,-18.958 -5.646,-17.932 -5.825,-16.927C-5.925,-16.368 -6.267,-15.855 -6.411,-15.298C-6.613,-14.526 -6.929,-13.851 -7.56,-13.337C-7.669,-13.248 -7.703,-13.065 -7.766,-12.923C-7.851,-12.731 -7.918,-12.529 -8.017,-12.345C-8.211,-11.982 -8.425,-11.632 -8.627,-11.273C-8.865,-10.844 -9.027,-10.349 -9.348,-9.995C-10.206,-9.045 -10.87,-8.008 -11.375,-6.821C-12.102,-5.109 -12.152,-3.356 -11.736,-1.627C-11.31,0.138 -10.817,1.89 -9.573,3.363C-8.672,4.43 -7.62,5.21 -6.45,5.899C-5.331,6.56 -4.088,6.881 -2.844,7.123C-1.711,7.344 -0.559,7.551 0.625,7.379C2.265,7.143 3.625,6.323 4.965,5.439C5.196,5.287 5.45,5.142 5.621,4.934C6.207,4.221 6.758,3.478 7.329,2.752C7.564,2.452 7.869,2.195 8.049,1.866C8.745,0.597 9.197,-0.719 9.249,-2.217C9.294,-3.499 9.249,-4.737 9.094,-6.015C8.873,-7.851 8.221,-9.505 7.402,-11.101C6.753,-12.367 6.208,-13.668 5.844,-15.025C5.553,-16.109 4.982,-17.123 5.015,-18.301C5.036,-18.988 4.975,-19.687 4.863,-20.366C4.809,-20.688 4.621,-21.103 4.364,-21.248C4.029,-21.437 3.799,-21.035 3.589,-20.779C3.52,-20.694 3.427,-20.628 3.346,-20.551C3.008,-20.229 2.657,-20.062 2.15,-20.196C1.085,-20.475 -0.046,-19.917 -1.108,-20.406C-1.149,-20.425 -1.215,-20.386 -1.271,-20.38C-1.816,-20.33 -2.303,-20.466 -2.641,-20.743C-2.864,-21.619 -3.061,-22.39 -3.259,-23.168M-3.711,-24.258C-3.854,-24.549 -3.965,-24.885 -4.164,-25.159C-4.62,-25.784 -4.856,-26.484 -4.985,-27.231C-5.102,-27.901 -4.961,-28.192 -4.38,-28.541C-4.212,-28.641 -4.041,-28.734 -3.88,-28.842C-2.712,-29.629 -1.864,-29.535 -0.886,-28.491C-0.739,-28.334 -0.634,-28.138 -0.531,-27.992C0.136,-28.663 0.659,-29.325 1.312,-29.812C2.286,-30.538 3.337,-31.169 4.665,-30.899C5.136,-30.804 5.401,-30.531 5.509,-30.091C5.792,-28.935 6.255,-27.799 6.172,-26.589C6.088,-25.387 6.054,-24.155 5.451,-23.056C5.321,-22.819 5.124,-22.62 4.841,-22.249C4.962,-22.174 5.139,-22.095 5.282,-21.974C6.068,-21.317 6.078,-20.379 6.184,-19.471C6.312,-18.372 6.396,-17.26 6.637,-16.185C6.802,-15.453 7.204,-14.774 7.5,-14.071C7.521,-14.019 7.537,-13.965 7.556,-13.913C8.349,-11.696 9.571,-9.642 10.081,-7.319C10.342,-6.131 10.685,-4.953 10.524,-3.706C10.44,-3.046 10.484,-2.368 10.367,-1.716C10.083,-0.11 9.562,1.41 8.804,2.872C8.345,3.757 7.584,4.339 7.019,5.108C6.168,6.267 4.863,6.944 3.674,7.644C2.43,8.375 0.973,8.801 -0.543,8.742C-1.043,8.723 -1.557,8.793 -2.039,8.696C-3.712,8.357 -5.422,8.123 -6.968,7.343C-7.455,7.098 -7.841,6.659 -8.317,6.384C-9.85,5.5 -10.669,4.074 -11.491,2.576C-12.338,1.03 -12.716,-0.686 -13.485,-2.252C-13.597,-2.481 -13.551,-2.798 -13.55,-3.074C-13.548,-3.729 -13.616,-4.361 -13.226,-4.994C-12.871,-5.569 -12.785,-6.303 -12.49,-6.924C-11.862,-8.243 -11.213,-9.556 -10.501,-10.831C-9.988,-11.75 -9.359,-12.605 -8.782,-13.489C-8.509,-13.907 -8.175,-14.298 -7.976,-14.75C-7.604,-15.595 -7.301,-16.472 -6.988,-17.341C-6.838,-17.756 -6.734,-18.19 -6.595,-18.609C-6.455,-19.029 -6.261,-19.434 -6.418,-19.9C-6.458,-20.023 -6.44,-20.185 -6.397,-20.312C-6.021,-21.424 -5.772,-22.608 -4.924,-23.486C-4.629,-23.792 -4.192,-23.96 -3.711,-24.258" style="fill:rgb(35,31,32);fill-rule:nonzero;"/>
            </g>
            <g transform="matrix(4.16667,0,0,4.16667,1049.94,895.777)">
                <path d="M0,-30.702C0.198,-29.924 0.395,-29.152 0.617,-28.277C0.955,-28 1.443,-27.864 1.989,-27.914C2.043,-27.919 2.11,-27.959 2.151,-27.94C3.213,-27.45 4.343,-28.009 5.409,-27.729C5.916,-27.596 6.267,-27.763 6.604,-28.085C6.686,-28.162 6.779,-28.228 6.848,-28.313C7.058,-28.569 7.288,-28.97 7.623,-28.781C7.879,-28.637 8.068,-28.221 8.121,-27.899C8.233,-27.221 8.295,-26.522 8.275,-25.835C8.241,-24.657 8.812,-23.642 9.103,-22.558C9.466,-21.202 10.012,-19.9 10.661,-18.635C11.48,-17.039 12.131,-15.385 12.353,-13.548C12.508,-12.27 12.553,-11.033 12.508,-9.75C12.456,-8.253 12.004,-6.937 11.308,-5.667C11.128,-5.339 10.823,-5.082 10.587,-4.782C10.016,-4.055 9.465,-3.313 8.879,-2.599C8.709,-2.392 8.454,-2.247 8.223,-2.094C6.884,-1.211 5.524,-0.39 3.884,-0.154C2.699,0.017 1.548,-0.19 0.415,-0.41C-0.83,-0.653 -2.072,-0.974 -3.191,-1.634C-4.361,-2.324 -5.413,-3.104 -6.314,-4.171C-7.558,-5.643 -8.051,-7.396 -8.477,-9.16C-8.894,-10.889 -8.843,-12.643 -8.116,-14.354C-7.612,-15.541 -6.947,-16.579 -6.088,-17.528C-5.769,-17.882 -5.606,-18.378 -5.368,-18.807C-5.167,-19.166 -4.952,-19.516 -4.758,-19.878C-4.659,-20.063 -4.593,-20.264 -4.508,-20.456C-4.445,-20.599 -4.41,-20.782 -4.301,-20.871C-3.67,-21.385 -3.353,-22.06 -3.152,-22.832C-3.008,-23.389 -2.665,-23.901 -2.566,-24.461C-2.387,-25.465 -2.223,-26.492 -2.242,-27.505C-2.262,-28.563 -1.744,-29.365 -1.277,-30.2C-1.029,-30.644 -0.527,-30.719 0,-30.702" style="fill:rgb(149,203,110);fill-rule:nonzero;"/>
            </g>
            <g transform="matrix(4.16667,0,0,4.16667,1068.19,740.43)">
                <path d="M0,8.354C-0.037,7.968 -0.116,7.584 -0.102,7.202C-0.052,5.825 -0.28,4.517 -0.842,3.248C-1.102,2.664 -0.694,2.111 -0.453,1.607C0.121,0.411 1.215,-0.069 2.447,-0.289C2.807,-0.354 3.07,-0.176 3.293,0.12C4.088,1.171 4.372,2.363 4.258,3.648C4.202,4.282 4.011,4.902 3.93,5.534C3.813,6.443 3.126,6.952 2.581,7.564C2.49,7.667 2.363,7.741 2.278,7.848C1.696,8.585 0.964,8.708 0,8.354" style="fill:rgb(57,181,74);fill-rule:nonzero;"/>
            </g>
            <g transform="matrix(4.16667,0,0,4.16667,1063.52,753.071)">
                <path d="M0,4.348C-0.069,4.755 0.096,5.217 -0.437,5.358C-0.982,5.501 -1.47,5.246 -1.675,4.698C-1.925,4.031 -2.123,3.343 -2.384,2.68C-2.655,1.987 -2.998,1.322 -3.262,0.628C-3.377,0.325 -3.379,-0.023 -3.419,-0.351C-3.47,-0.778 -3.108,-0.988 -2.841,-1.07C-2.572,-1.153 -2.175,-1.061 -1.925,-0.902C-1.611,-0.702 -1.324,-0.393 -1.141,-0.066C-0.844,0.461 -0.556,1.023 -0.422,1.606C-0.21,2.519 -0.13,3.46 0,4.348" style="fill:rgb(168,123,80);fill-rule:nonzero;"/>
            </g>
            <g transform="matrix(4.16667,0,0,4.16667,1023.87,864.642)">
                <path d="M0,-7.636C0,-7.636 -1.339,1.93 3.77,3.126C8.879,4.32 2.326,-5.272 2.743,-7.547C3.16,-9.821 0.827,-11.956 0,-7.636" style="fill:rgb(176,213,124);fill-rule:nonzero;"/>
            </g>
            <g transform="matrix(4.16667,0,0,4.16667,1171.11,860.074)">
                <path d="M0,-22.369C-0.13,-23.257 -0.21,-24.198 -0.422,-25.111C-0.557,-25.694 -0.844,-26.256 -1.141,-26.783C-1.324,-27.11 -1.611,-27.419 -1.926,-27.619C-2.176,-27.778 -2.573,-27.87 -2.841,-27.787C-3.108,-27.705 -3.47,-27.495 -3.419,-27.069C-3.38,-26.739 -3.377,-26.392 -3.263,-26.089C-2.998,-25.395 -2.656,-24.73 -2.384,-24.037C-2.124,-23.374 -1.925,-22.687 -1.675,-22.019C-1.47,-21.471 -0.982,-21.215 -0.437,-21.359C0.096,-21.5 -0.069,-21.962 0,-22.369M1.121,-21.397C2.085,-21.043 2.818,-21.166 3.399,-21.902C3.484,-22.01 3.611,-22.084 3.703,-22.187C4.248,-22.799 4.935,-23.307 5.051,-24.217C5.132,-24.849 5.323,-25.47 5.379,-26.103C5.494,-27.388 5.209,-28.581 4.414,-29.631C4.191,-29.926 3.929,-30.105 3.568,-30.041C2.335,-29.82 1.241,-29.339 0.668,-28.144C0.426,-27.64 0.019,-27.087 0.279,-26.503C0.842,-25.234 1.069,-23.926 1.019,-22.548C1.005,-22.167 1.085,-21.783 1.121,-21.397M-3.259,-23.169C-3.786,-23.187 -4.288,-23.112 -4.536,-22.667C-5.004,-21.832 -5.52,-21.031 -5.501,-19.972C-5.482,-18.959 -5.647,-17.933 -5.825,-16.928C-5.925,-16.368 -6.267,-15.856 -6.411,-15.299C-6.612,-14.527 -6.929,-13.852 -7.56,-13.338C-7.669,-13.249 -7.703,-13.066 -7.767,-12.924C-7.852,-12.731 -7.918,-12.53 -8.017,-12.346C-8.211,-11.983 -8.426,-11.633 -8.627,-11.274C-8.865,-10.845 -9.027,-10.35 -9.348,-9.996C-10.206,-9.046 -10.871,-8.009 -11.375,-6.822C-12.102,-5.11 -12.152,-3.357 -11.736,-1.628C-11.31,0.137 -10.817,1.889 -9.573,3.362C-8.672,4.429 -7.62,5.208 -6.45,5.899C-5.331,6.559 -4.089,6.88 -2.844,7.122C-1.711,7.343 -0.559,7.55 0.625,7.379C2.265,7.143 3.625,6.322 4.964,5.438C5.195,5.286 5.45,5.141 5.621,4.933C6.206,4.22 6.758,3.477 7.328,2.751C7.564,2.451 7.869,2.194 8.049,1.866C8.745,0.596 9.197,-0.72 9.249,-2.218C9.294,-3.5 9.249,-4.738 9.094,-6.016C8.873,-7.852 8.221,-9.506 7.402,-11.102C6.752,-12.367 6.208,-13.669 5.844,-15.026C5.553,-16.11 4.982,-17.124 5.015,-18.302C5.036,-18.989 4.975,-19.688 4.862,-20.367C4.809,-20.689 4.62,-21.105 4.364,-21.248C4.029,-21.438 3.799,-21.036 3.589,-20.78C3.52,-20.695 3.427,-20.629 3.346,-20.552C3.008,-20.23 2.657,-20.063 2.15,-20.197C1.085,-20.476 -0.046,-19.918 -1.108,-20.407C-1.149,-20.426 -1.216,-20.387 -1.271,-20.381C-1.816,-20.331 -2.303,-20.467 -2.641,-20.744C-2.864,-21.62 -3.061,-22.391 -3.259,-23.169M-3.711,-24.259C-3.854,-24.551 -3.965,-24.886 -4.165,-25.16C-4.62,-25.785 -4.856,-26.485 -4.985,-27.232C-5.102,-27.902 -4.961,-28.193 -4.38,-28.542C-4.212,-28.642 -4.041,-28.734 -3.88,-28.842C-2.712,-29.63 -1.864,-29.536 -0.887,-28.492C-0.74,-28.335 -0.634,-28.139 -0.531,-27.993C0.136,-28.664 0.658,-29.326 1.312,-29.813C2.286,-30.539 3.337,-31.169 4.664,-30.9C5.136,-30.804 5.401,-30.532 5.509,-30.092C5.792,-28.936 6.255,-27.8 6.172,-26.589C6.088,-25.388 6.054,-24.157 5.451,-23.057C5.321,-22.82 5.124,-22.621 4.84,-22.25C4.961,-22.175 5.139,-22.095 5.282,-21.975C6.068,-21.319 6.078,-20.38 6.184,-19.472C6.312,-18.373 6.396,-17.262 6.637,-16.186C6.802,-15.454 7.203,-14.775 7.5,-14.072C7.521,-14.02 7.537,-13.966 7.556,-13.914C8.348,-11.697 9.571,-9.643 10.081,-7.32C10.342,-6.133 10.685,-4.954 10.524,-3.707C10.44,-3.047 10.483,-2.369 10.367,-1.716C10.083,-0.111 9.562,1.409 8.803,2.871C8.345,3.756 7.583,4.338 7.019,5.107C6.168,6.266 4.863,6.943 3.673,7.643C2.429,8.374 0.973,8.8 -0.543,8.741C-1.043,8.722 -1.558,8.792 -2.039,8.695C-3.712,8.356 -5.422,8.122 -6.968,7.342C-7.455,7.097 -7.841,6.658 -8.317,6.383C-9.851,5.499 -10.669,4.073 -11.491,2.575C-12.339,1.029 -12.716,-0.687 -13.485,-2.252C-13.598,-2.483 -13.551,-2.799 -13.55,-3.076C-13.549,-3.73 -13.616,-4.362 -13.226,-4.995C-12.871,-5.57 -12.785,-6.304 -12.49,-6.925C-11.862,-8.244 -11.214,-9.556 -10.501,-10.832C-9.988,-11.751 -9.359,-12.606 -8.783,-13.49C-8.51,-13.908 -8.176,-14.3 -7.976,-14.751C-7.604,-15.596 -7.301,-16.473 -6.988,-17.342C-6.838,-17.758 -6.734,-18.191 -6.595,-18.61C-6.456,-19.03 -6.261,-19.435 -6.418,-19.901C-6.459,-20.024 -6.44,-20.186 -6.397,-20.313C-6.022,-21.425 -5.772,-22.609 -4.924,-23.487C-4.629,-23.793 -4.192,-23.961 -3.711,-24.259" style="fill:rgb(35,31,32);fill-rule:nonzero;"/>
            </g>
            <g transform="matrix(4.16667,0,0,4.16667,1157.53,891.46)">
                <path d="M0,-30.702C0.199,-29.924 0.394,-29.152 0.617,-28.277C0.955,-28 1.443,-27.864 1.989,-27.914C2.043,-27.919 2.109,-27.959 2.151,-27.94C3.212,-27.45 4.343,-28.009 5.408,-27.729C5.915,-27.596 6.267,-27.763 6.604,-28.085C6.685,-28.162 6.778,-28.228 6.848,-28.313C7.057,-28.569 7.288,-28.97 7.623,-28.781C7.879,-28.637 8.067,-28.221 8.121,-27.899C8.233,-27.221 8.294,-26.522 8.275,-25.835C8.241,-24.657 8.811,-23.642 9.102,-22.558C9.466,-21.202 10.012,-19.9 10.661,-18.635C11.479,-17.039 12.131,-15.385 12.353,-13.548C12.507,-12.27 12.553,-11.033 12.508,-9.75C12.456,-8.253 12.004,-6.937 11.308,-5.667C11.128,-5.339 10.822,-5.082 10.587,-4.782C10.016,-4.055 9.466,-3.313 8.879,-2.599C8.708,-2.392 8.454,-2.247 8.223,-2.094C6.883,-1.211 5.523,-0.39 3.883,-0.154C2.699,0.017 1.548,-0.19 0.415,-0.41C-0.83,-0.653 -2.072,-0.974 -3.191,-1.634C-4.361,-2.325 -5.414,-3.104 -6.314,-4.171C-7.559,-5.643 -8.051,-7.396 -8.477,-9.16C-8.894,-10.889 -8.843,-12.643 -8.116,-14.354C-7.612,-15.541 -6.947,-16.579 -6.089,-17.528C-5.769,-17.882 -5.607,-18.378 -5.368,-18.807C-5.167,-19.166 -4.953,-19.516 -4.758,-19.878C-4.66,-20.063 -4.593,-20.264 -4.508,-20.456C-4.445,-20.599 -4.411,-20.782 -4.302,-20.871C-3.671,-21.385 -3.353,-22.06 -3.153,-22.832C-3.008,-23.389 -2.666,-23.901 -2.567,-24.461C-2.387,-25.465 -2.223,-26.492 -2.242,-27.505C-2.262,-28.563 -1.744,-29.365 -1.277,-30.2C-1.029,-30.644 -0.527,-30.719 0,-30.702" style="fill:rgb(149,203,110);fill-rule:nonzero;"/>
            </g>
            <g transform="matrix(4.16667,0,0,4.16667,1175.78,736.113)">
                <path d="M0,8.354C-0.038,7.968 -0.116,7.584 -0.102,7.202C-0.052,5.825 -0.28,4.517 -0.842,3.247C-1.102,2.664 -0.695,2.111 -0.454,1.607C0.12,0.412 1.214,-0.07 2.447,-0.29C2.807,-0.354 3.07,-0.176 3.293,0.12C4.088,1.17 4.372,2.363 4.258,3.648C4.201,4.281 4.011,4.902 3.93,5.534C3.813,6.443 3.126,6.952 2.581,7.564C2.49,7.667 2.363,7.741 2.278,7.848C1.696,8.585 0.963,8.708 0,8.354" style="fill:rgb(57,181,74);fill-rule:nonzero;"/>
            </g>
            <g transform="matrix(4.16667,0,0,4.16667,1171.11,748.757)">
                <path d="M0,4.347C-0.069,4.754 0.096,5.216 -0.437,5.357C-0.982,5.501 -1.47,5.245 -1.675,4.697C-1.925,4.029 -2.124,3.342 -2.384,2.679C-2.656,1.986 -2.998,1.321 -3.263,0.627C-3.377,0.324 -3.38,-0.023 -3.419,-0.353C-3.47,-0.779 -3.108,-0.989 -2.841,-1.071C-2.573,-1.154 -2.176,-1.062 -1.926,-0.903C-1.611,-0.703 -1.324,-0.394 -1.141,-0.067C-0.844,0.46 -0.557,1.022 -0.422,1.605C-0.21,2.518 -0.13,3.459 0,4.347" style="fill:rgb(168,123,80);fill-rule:nonzero;"/>
            </g>
            <g transform="matrix(4.16667,0,0,4.16667,1131.47,860.325)">
                <path d="M0,-7.636C0,-7.636 -1.34,1.93 3.77,3.126C8.879,4.32 2.325,-5.273 2.743,-7.547C3.159,-9.821 0.826,-11.956 0,-7.636" style="fill:rgb(176,213,124);fill-rule:nonzero;"/>
            </g>
        </g>
    </g>
</svg>
