<?xml version="1.0" encoding="UTF-8" standalone="no"?>
<!DOCTYPE svg PUBLIC "-//W3C//DTD SVG 1.1//EN" "http://www.w3.org/Graphics/SVG/1.1/DTD/svg11.dtd">
<svg width="100%" height="100%" viewBox="0 0 502 308" version="1.1" xmlns="http://www.w3.org/2000/svg" xmlns:xlink="http://www.w3.org/1999/xlink" xml:space="preserve" xmlns:serif="http://www.serif.com/" style="fill-rule:evenodd;clip-rule:evenodd;stroke-linejoin:round;stroke-miterlimit:2;">
    <g transform="matrix(1,0,0,1,-1704,-331)">
        <g transform="matrix(1,0,0,1,0,-447.552)">
            <g transform="matrix(4.16667,0,0,4.16667,1726.25,957.41)">
                <path d="M0,-13.871C-0.843,-13.196 -1.277,-12.41 -1.717,-11.666C-2.233,-10.792 -2.616,-9.838 -3.04,-8.911C-3.543,-7.814 -3.898,-6.691 -3.88,-5.45C-3.861,-4.179 -3.342,-3.114 -2.725,-2.069C-2.648,-1.94 -2.476,-1.871 -2.357,-1.764C-2.24,-1.658 -2.094,-1.556 -2.03,-1.42C-1.207,0.323 0.367,1.23 1.983,1.993C2.846,2.401 3.882,2.454 4.847,2.626C5.335,2.714 5.845,2.777 6.334,2.735C7.242,2.658 8.159,2.568 9.04,2.354C10.238,2.063 11.444,1.716 12.337,0.779C12.764,0.332 13.163,-0.151 13.509,-0.661C13.837,-1.145 14.198,-1.657 14.339,-2.209C14.651,-3.423 14.866,-4.666 15.05,-5.907C15.127,-6.427 15.125,-7.001 14.985,-7.502C14.684,-8.577 14.581,-9.717 13.982,-10.701C13.725,-11.124 13.642,-11.631 13.184,-11.955C12.868,-12.178 12.604,-12.524 12.417,-12.87C11.998,-13.644 11.351,-14.125 10.573,-14.448C9.58,-14.861 8.583,-15.267 7.564,-15.608C7.184,-15.735 6.74,-15.668 6.319,-15.69C6.331,-14.999 6.527,-14.359 5.81,-13.973C5.534,-14.44 5.143,-14.831 5.072,-15.275C4.936,-16.12 4.267,-16.226 3.697,-16.444C3.317,-16.59 2.838,-16.674 2.453,-16.58C1.334,-16.307 0.747,-14.592 1.478,-13.665C1.819,-13.234 1.701,-12.957 1.52,-12.617C0.519,-12.319 0.224,-12.973 0,-13.871M6.852,3.913C5.383,4.109 3.951,3.9 2.523,3.601C1.55,3.398 0.745,2.89 -0.017,2.287C-0.289,2.071 -0.546,1.818 -0.852,1.666C-1.743,1.22 -2.204,0.368 -2.792,-0.354C-3.449,-1.16 -4.237,-1.889 -4.525,-2.948C-4.629,-3.331 -4.748,-3.711 -4.868,-4.089C-5.534,-6.187 -4.832,-8.128 -4.155,-10.059C-3.818,-11.02 -3.443,-11.979 -2.965,-12.875C-2.494,-13.758 -1.783,-14.508 -0.856,-14.909C-0.303,-15.149 0.062,-15.449 0.22,-16.001C0.615,-17.388 2.228,-17.98 3.306,-17.777C3.944,-17.656 4.576,-17.342 5.135,-16.993C5.593,-16.706 6.002,-16.625 6.502,-16.762C7.603,-17.064 8.614,-16.68 9.598,-16.273C10.214,-16.019 10.808,-15.685 11.364,-15.314C11.941,-14.928 12.493,-14.49 12.998,-14.012C13.579,-13.462 14.16,-12.889 14.625,-12.243C14.993,-11.732 15.18,-11.092 15.461,-10.515C15.965,-9.476 16.085,-8.328 16.156,-7.227C16.256,-5.666 16.119,-4.083 16.004,-2.515C15.971,-2.054 15.678,-1.608 15.492,-1.161C14.828,0.431 13.792,1.693 12.219,2.462C11.493,2.817 10.791,3.262 10.025,3.48C9,3.773 7.922,3.885 6.868,4.075C6.863,4.021 6.857,3.967 6.852,3.913" style="fill:rgb(35,31,32);fill-rule:nonzero;"/>
            </g>
            <g transform="matrix(4.16667,0,0,4.16667,1726.25,957.302)">
                <path d="M0,-13.845C0.224,-12.947 0.519,-12.293 1.52,-12.591C1.701,-12.931 1.819,-13.208 1.478,-13.639C0.747,-14.566 1.334,-16.281 2.453,-16.554C2.838,-16.648 3.317,-16.564 3.697,-16.418C4.267,-16.2 4.936,-16.094 5.072,-15.249C5.143,-14.805 5.534,-14.414 5.81,-13.947C6.527,-14.333 6.331,-14.973 6.319,-15.664C6.74,-15.642 7.184,-15.709 7.564,-15.582C8.583,-15.241 9.58,-14.835 10.573,-14.422C11.351,-14.099 11.998,-13.618 12.417,-12.844C12.604,-12.498 12.868,-12.152 13.184,-11.929C13.642,-11.605 13.725,-11.098 13.982,-10.675C14.581,-9.691 14.684,-8.551 14.985,-7.476C15.125,-6.975 15.127,-6.401 15.05,-5.881C14.866,-4.64 14.651,-3.397 14.339,-2.183C14.198,-1.631 13.837,-1.119 13.509,-0.635C13.163,-0.125 12.764,0.358 12.337,0.805C11.444,1.742 10.238,2.089 9.04,2.38C8.159,2.594 7.242,2.684 6.334,2.761C5.845,2.803 5.335,2.74 4.847,2.652C3.882,2.48 2.846,2.427 1.983,2.019C0.367,1.256 -1.207,0.349 -2.03,-1.394C-2.094,-1.53 -2.24,-1.632 -2.357,-1.738C-2.476,-1.845 -2.648,-1.914 -2.725,-2.043C-3.342,-3.088 -3.861,-4.153 -3.88,-5.424C-3.898,-6.665 -3.543,-7.788 -3.04,-8.885C-2.616,-9.812 -2.233,-10.766 -1.717,-11.64C-1.277,-12.384 -0.843,-13.17 0,-13.845" style="fill:rgb(140,198,63);fill-rule:nonzero;"/>
            </g>
            <g transform="matrix(4.16667,0,0,4.16667,1773.81,953.104)">
                <path d="M0,-10.088C0,-10.088 3.634,-4.623 1.165,-0.304C-1.304,4.014 -1.565,-8.43 -2.448,-9.435C-3.332,-10.44 -2.643,-14.102 0,-10.088" style="fill:rgb(157,204,77);fill-rule:nonzero;"/>
            </g>
            <g transform="matrix(4.16667,0,0,4.16667,1764.08,1074.82)">
                <path d="M0,-17.44C-1.064,-17.246 -1.818,-16.76 -2.558,-16.313C-3.427,-15.789 -4.216,-15.13 -5.029,-14.516C-5.994,-13.788 -6.839,-12.968 -7.411,-11.867C-7.997,-10.74 -8.045,-9.556 -7.998,-8.343C-7.992,-8.192 -7.872,-8.051 -7.819,-7.9C-7.765,-7.75 -7.686,-7.593 -7.694,-7.442C-7.797,-5.518 -6.84,-3.971 -5.779,-2.534C-5.214,-1.765 -4.326,-1.227 -3.558,-0.618C-3.17,-0.309 -2.753,-0.012 -2.301,0.184C-1.466,0.547 -0.616,0.902 0.262,1.131C1.454,1.444 2.68,1.71 3.911,1.31C4.498,1.118 5.078,0.882 5.625,0.597C6.145,0.328 6.705,0.048 7.091,-0.371C7.941,-1.293 8.72,-2.284 9.471,-3.29C9.786,-3.711 10.056,-4.218 10.17,-4.725C10.415,-5.813 10.865,-6.866 10.805,-8.018C10.779,-8.511 10.947,-8.997 10.697,-9.499C10.524,-9.846 10.456,-10.276 10.456,-10.669C10.455,-11.548 10.112,-12.28 9.581,-12.934C8.903,-13.767 8.218,-14.598 7.483,-15.381C7.208,-15.672 6.786,-15.824 6.426,-16.043C6.108,-15.431 5.977,-14.774 5.164,-14.774C5.141,-15.316 4.983,-15.846 5.131,-16.269C5.412,-17.079 4.873,-17.489 4.476,-17.951C4.21,-18.261 3.828,-18.561 3.445,-18.661C2.329,-18.952 0.999,-17.72 1.204,-16.557C1.298,-16.017 1.065,-15.829 0.743,-15.615C-0.28,-15.828 -0.229,-16.542 0,-17.44M-2.405,1.466C-3.79,0.942 -4.952,0.079 -6.068,-0.862C-6.826,-1.502 -7.296,-2.331 -7.68,-3.223C-7.817,-3.542 -7.923,-3.887 -8.12,-4.167C-8.694,-4.982 -8.696,-5.95 -8.87,-6.865C-9.065,-7.886 -9.414,-8.902 -9.166,-9.971C-9.076,-10.357 -8.999,-10.747 -8.926,-11.138C-8.516,-13.3 -6.979,-14.677 -5.467,-16.055C-4.714,-16.742 -3.929,-17.407 -3.082,-17.969C-2.249,-18.524 -1.269,-18.846 -0.261,-18.76C0.338,-18.709 0.803,-18.799 1.203,-19.211C2.21,-20.244 3.91,-20 4.762,-19.311C5.268,-18.902 5.674,-18.324 6.001,-17.752C6.269,-17.283 6.59,-17.017 7.095,-16.9C8.207,-16.645 8.915,-15.827 9.588,-15.002C10.01,-14.485 10.374,-13.91 10.688,-13.32C11.013,-12.706 11.29,-12.059 11.509,-11.399C11.76,-10.638 11.998,-9.859 12.103,-9.069C12.184,-8.445 12.044,-7.792 12.018,-7.152C11.969,-5.998 11.53,-4.93 11.071,-3.927C10.418,-2.505 9.546,-1.177 8.702,0.149C8.453,0.539 7.984,0.792 7.608,1.097C6.269,2.185 4.759,2.804 3.008,2.735C2.202,2.703 1.373,2.762 0.594,2.59C-0.448,2.361 -1.449,1.949 -2.467,1.616C-2.446,1.566 -2.425,1.516 -2.405,1.466" style="fill:rgb(35,31,32);fill-rule:nonzero;"/>
            </g>
            <g transform="matrix(4.16667,0,0,4.16667,1764.08,1075.64)">
                <path d="M0,-17.638C-0.229,-16.74 -0.28,-16.026 0.743,-15.813C1.065,-16.027 1.298,-16.215 1.204,-16.755C0.999,-17.918 2.329,-19.15 3.445,-18.859C3.828,-18.759 4.21,-18.459 4.476,-18.149C4.873,-17.687 5.412,-17.277 5.131,-16.467C4.983,-16.044 5.141,-15.514 5.164,-14.972C5.977,-14.972 6.108,-15.629 6.426,-16.241C6.786,-16.022 7.208,-15.87 7.483,-15.579C8.218,-14.796 8.903,-13.965 9.581,-13.132C10.112,-12.478 10.455,-11.746 10.456,-10.867C10.456,-10.474 10.524,-10.044 10.697,-9.697C10.947,-9.195 10.779,-8.709 10.805,-8.216C10.865,-7.064 10.415,-6.011 10.17,-4.923C10.056,-4.416 9.786,-3.909 9.471,-3.488C8.72,-2.482 7.941,-1.491 7.091,-0.569C6.705,-0.15 6.145,0.13 5.625,0.399C5.078,0.684 4.498,0.92 3.911,1.112C2.68,1.512 1.454,1.246 0.262,0.933C-0.616,0.704 -1.466,0.349 -2.301,-0.014C-2.753,-0.21 -3.17,-0.507 -3.558,-0.816C-4.326,-1.425 -5.214,-1.963 -5.779,-2.732C-6.84,-4.169 -7.797,-5.716 -7.694,-7.64C-7.686,-7.791 -7.765,-7.948 -7.819,-8.098C-7.872,-8.249 -7.992,-8.39 -7.998,-8.541C-8.045,-9.754 -7.997,-10.938 -7.411,-12.065C-6.839,-13.166 -5.994,-13.986 -5.029,-14.714C-4.216,-15.328 -3.427,-15.987 -2.558,-16.511C-1.818,-16.958 -1.064,-17.444 0,-17.638" style="fill:rgb(140,198,63);fill-rule:nonzero;"/>
            </g>
            <g transform="matrix(4.16667,0,0,4.16667,1800.52,1064)">
                <path d="M0,-7.009C0,-7.009 0.607,-0.474 -3.615,2.157C-7.837,4.788 -2.165,-6.292 -2.464,-7.596C-2.765,-8.899 -0.422,-11.797 0,-7.009" style="fill:rgb(157,204,77);fill-rule:nonzero;"/>
            </g>
            <g transform="matrix(4.16667,0,0,4.16667,1734.61,853.967)">
                <path d="M0,-14.173C-0.868,-13.53 -1.331,-12.762 -1.8,-12.035C-2.349,-11.181 -2.767,-10.242 -3.228,-9.332C-3.771,-8.255 -4.168,-7.147 -4.198,-5.906C-4.228,-4.635 -3.749,-3.551 -3.172,-2.483C-3.101,-2.351 -2.931,-2.276 -2.817,-2.163C-2.704,-2.054 -2.562,-1.947 -2.503,-1.808C-1.747,-0.035 -0.208,0.931 1.377,1.755C2.224,2.196 3.258,2.288 4.215,2.497C4.7,2.603 5.207,2.686 5.698,2.662C6.607,2.62 7.528,2.565 8.417,2.384C9.624,2.139 10.843,1.838 11.77,0.937C12.213,0.506 12.63,0.039 12.995,-0.458C13.343,-0.929 13.723,-1.426 13.885,-1.973C14.242,-3.175 14.504,-4.408 14.735,-5.642C14.833,-6.158 14.852,-6.733 14.731,-7.238C14.471,-8.323 14.413,-9.467 13.851,-10.474C13.61,-10.905 13.547,-11.415 13.102,-11.756C12.794,-11.991 12.543,-12.347 12.37,-12.7C11.981,-13.489 11.352,-13.996 10.587,-14.348C9.611,-14.798 8.629,-15.241 7.624,-15.621C7.251,-15.762 6.804,-15.712 6.385,-15.749C6.369,-15.059 6.541,-14.411 5.81,-14.054C5.551,-14.531 5.176,-14.937 5.121,-15.382C5.019,-16.233 4.353,-16.363 3.794,-16.604C3.419,-16.764 2.943,-16.866 2.556,-16.787C1.426,-16.557 0.775,-14.864 1.469,-13.911C1.792,-13.468 1.665,-13.195 1.47,-12.861C0.459,-12.602 0.191,-13.266 0,-14.173M6.169,3.859C4.695,3.998 3.27,3.735 1.855,3.382C0.892,3.142 0.106,2.605 -0.632,1.973C-0.896,1.747 -1.143,1.484 -1.443,1.32C-2.317,0.84 -2.744,-0.028 -3.305,-0.772C-3.931,-1.603 -4.69,-2.361 -4.938,-3.43C-5.027,-3.817 -5.131,-4.201 -5.236,-4.584C-5.822,-6.705 -5.048,-8.618 -4.297,-10.522C-3.924,-11.469 -3.512,-12.414 -3.001,-13.291C-2.496,-14.155 -1.758,-14.877 -0.816,-15.243C-0.254,-15.462 0.123,-15.747 0.3,-16.293C0.749,-17.665 2.383,-18.194 3.451,-17.95C4.087,-17.805 4.705,-17.466 5.251,-17.097C5.697,-16.793 6.102,-16.696 6.608,-16.814C7.719,-17.074 8.714,-16.652 9.682,-16.207C10.289,-15.931 10.869,-15.574 11.41,-15.182C11.973,-14.775 12.507,-14.315 12.994,-13.819C13.555,-13.247 14.112,-12.652 14.552,-11.989C14.901,-11.464 15.064,-10.818 15.321,-10.231C15.786,-9.174 15.863,-8.022 15.892,-6.919C15.933,-5.354 15.734,-3.778 15.559,-2.216C15.509,-1.756 15.199,-1.322 14.996,-0.882C14.272,0.684 13.191,1.905 11.588,2.613C10.85,2.94 10.131,3.358 9.357,3.548C8.321,3.801 7.24,3.872 6.179,4.021C6.176,3.967 6.173,3.914 6.169,3.859" style="fill:rgb(35,31,32);fill-rule:nonzero;"/>
            </g>
            <g transform="matrix(4.16667,0,0,4.16667,1734.61,853.938)">
                <path d="M0,-14.166C0.191,-13.259 0.459,-12.595 1.47,-12.854C1.665,-13.188 1.792,-13.461 1.469,-13.904C0.775,-14.857 1.426,-16.55 2.556,-16.78C2.943,-16.859 3.419,-16.757 3.794,-16.597C4.353,-16.356 5.019,-16.226 5.121,-15.375C5.176,-14.93 5.551,-14.524 5.81,-14.047C6.541,-14.404 6.369,-15.052 6.385,-15.742C6.804,-15.705 7.251,-15.755 7.624,-15.614C8.629,-15.234 9.611,-14.791 10.587,-14.341C11.352,-13.989 11.981,-13.482 12.37,-12.693C12.543,-12.34 12.794,-11.984 13.102,-11.749C13.547,-11.408 13.61,-10.898 13.851,-10.467C14.413,-9.46 14.471,-8.316 14.731,-7.231C14.852,-6.726 14.833,-6.151 14.735,-5.635C14.504,-4.401 14.242,-3.168 13.885,-1.966C13.723,-1.419 13.343,-0.922 12.995,-0.451C12.63,0.046 12.213,0.513 11.77,0.944C10.843,1.845 9.624,2.146 8.417,2.391C7.528,2.572 6.607,2.627 5.698,2.669C5.207,2.693 4.7,2.61 4.215,2.504C3.258,2.295 2.224,2.203 1.377,1.762C-0.208,0.938 -1.747,-0.028 -2.503,-1.801C-2.562,-1.94 -2.704,-2.047 -2.817,-2.156C-2.931,-2.269 -3.101,-2.344 -3.172,-2.476C-3.749,-3.544 -4.228,-4.628 -4.198,-5.899C-4.168,-7.14 -3.771,-8.248 -3.228,-9.325C-2.767,-10.235 -2.349,-11.174 -1.8,-12.028C-1.331,-12.755 -0.868,-13.523 0,-14.166" style="fill:rgb(140,198,63);fill-rule:nonzero;"/>
            </g>
            <g transform="matrix(4.16667,0,0,4.16667,1781.71,849.553)">
                <path d="M0,-9.931C0,-9.931 3.423,-4.332 0.792,-0.11C-1.84,4.112 -1.627,-8.334 -2.472,-9.372C-3.315,-10.41 -2.489,-14.043 0,-9.931" style="fill:rgb(157,204,77);fill-rule:nonzero;"/>
            </g>
            <g transform="matrix(4.16667,0,0,4.16667,1829.16,957.41)">
                <path d="M0,-13.871C-0.843,-13.196 -1.277,-12.41 -1.717,-11.666C-2.234,-10.792 -2.616,-9.838 -3.04,-8.911C-3.543,-7.814 -3.899,-6.691 -3.881,-5.45C-3.861,-4.179 -3.342,-3.114 -2.725,-2.069C-2.648,-1.94 -2.477,-1.871 -2.357,-1.764C-2.24,-1.658 -2.095,-1.556 -2.031,-1.42C-1.207,0.323 0.367,1.23 1.982,1.993C2.846,2.401 3.882,2.454 4.847,2.626C5.335,2.714 5.845,2.777 6.334,2.735C7.241,2.658 8.159,2.568 9.04,2.354C10.237,2.063 11.444,1.716 12.337,0.779C12.764,0.332 13.162,-0.151 13.508,-0.661C13.837,-1.145 14.198,-1.657 14.339,-2.209C14.65,-3.423 14.866,-4.666 15.05,-5.907C15.127,-6.427 15.125,-7.001 14.985,-7.502C14.683,-8.577 14.58,-9.717 13.982,-10.701C13.725,-11.124 13.642,-11.631 13.183,-11.955C12.868,-12.178 12.603,-12.524 12.417,-12.87C11.998,-13.644 11.351,-14.125 10.573,-14.448C9.58,-14.861 8.583,-15.267 7.564,-15.608C7.183,-15.735 6.74,-15.668 6.319,-15.69C6.33,-14.999 6.526,-14.359 5.81,-13.973C5.534,-14.44 5.143,-14.831 5.072,-15.275C4.936,-16.12 4.266,-16.226 3.697,-16.444C3.317,-16.59 2.838,-16.674 2.453,-16.58C1.333,-16.307 0.747,-14.592 1.478,-13.665C1.819,-13.234 1.701,-12.957 1.519,-12.617C0.518,-12.319 0.224,-12.973 0,-13.871M6.852,3.913C5.382,4.109 3.95,3.9 2.523,3.601C1.55,3.398 0.744,2.89 -0.017,2.287C-0.29,2.071 -0.546,1.818 -0.852,1.666C-1.743,1.22 -2.204,0.368 -2.793,-0.354C-3.449,-1.16 -4.238,-1.889 -4.525,-2.948C-4.63,-3.331 -4.748,-3.711 -4.868,-4.089C-5.534,-6.187 -4.833,-8.128 -4.156,-10.059C-3.818,-11.02 -3.443,-11.979 -2.965,-12.875C-2.495,-13.758 -1.784,-14.508 -0.856,-14.909C-0.304,-15.149 0.062,-15.449 0.219,-16.001C0.615,-17.388 2.228,-17.98 3.305,-17.777C3.944,-17.656 4.576,-17.342 5.135,-16.993C5.593,-16.706 6.002,-16.625 6.501,-16.762C7.603,-17.064 8.613,-16.68 9.598,-16.273C10.214,-16.019 10.808,-15.685 11.364,-15.314C11.941,-14.928 12.492,-14.49 12.997,-14.012C13.579,-13.462 14.159,-12.889 14.624,-12.243C14.993,-11.732 15.18,-11.092 15.46,-10.515C15.965,-9.476 16.084,-8.328 16.156,-7.227C16.256,-5.666 16.118,-4.083 16.003,-2.515C15.97,-2.054 15.677,-1.608 15.491,-1.161C14.828,0.431 13.792,1.693 12.219,2.462C11.492,2.817 10.79,3.262 10.025,3.48C8.999,3.773 7.922,3.885 6.867,4.075C6.862,4.021 6.857,3.967 6.852,3.913" style="fill:rgb(35,31,32);fill-rule:nonzero;"/>
            </g>
            <g transform="matrix(4.16667,0,0,4.16667,1829.16,957.302)">
                <path d="M0,-13.845C0.224,-12.947 0.518,-12.293 1.519,-12.591C1.701,-12.931 1.819,-13.208 1.478,-13.639C0.747,-14.566 1.333,-16.281 2.453,-16.554C2.838,-16.648 3.317,-16.564 3.697,-16.418C4.266,-16.2 4.936,-16.094 5.072,-15.249C5.143,-14.805 5.534,-14.414 5.81,-13.947C6.526,-14.333 6.33,-14.973 6.319,-15.664C6.74,-15.642 7.183,-15.709 7.564,-15.582C8.583,-15.241 9.58,-14.835 10.573,-14.422C11.351,-14.099 11.998,-13.618 12.417,-12.844C12.603,-12.498 12.868,-12.152 13.183,-11.929C13.642,-11.605 13.725,-11.098 13.982,-10.675C14.58,-9.691 14.683,-8.551 14.985,-7.476C15.125,-6.975 15.127,-6.401 15.05,-5.881C14.866,-4.64 14.65,-3.397 14.339,-2.183C14.198,-1.631 13.837,-1.119 13.508,-0.635C13.162,-0.125 12.764,0.358 12.337,0.805C11.444,1.742 10.237,2.089 9.04,2.38C8.159,2.594 7.241,2.684 6.334,2.761C5.845,2.803 5.335,2.74 4.847,2.652C3.882,2.48 2.846,2.427 1.982,2.019C0.367,1.256 -1.207,0.349 -2.031,-1.394C-2.095,-1.53 -2.24,-1.632 -2.357,-1.738C-2.477,-1.845 -2.648,-1.914 -2.725,-2.043C-3.342,-3.088 -3.861,-4.153 -3.881,-5.424C-3.899,-6.665 -3.543,-7.788 -3.04,-8.885C-2.616,-9.812 -2.234,-10.766 -1.717,-11.64C-1.277,-12.384 -0.843,-13.17 0,-13.845" style="fill:rgb(140,198,63);fill-rule:nonzero;"/>
            </g>
            <g transform="matrix(4.16667,0,0,4.16667,1876.72,953.104)">
                <path d="M0,-10.088C0,-10.088 3.635,-4.623 1.166,-0.304C-1.303,4.014 -1.565,-8.43 -2.448,-9.435C-3.331,-10.44 -2.643,-14.102 0,-10.088" style="fill:rgb(157,204,77);fill-rule:nonzero;"/>
            </g>
            <g transform="matrix(4.16667,0,0,4.16667,1886.06,1074.87)">
                <path d="M0,-17.439C-1.063,-17.245 -1.817,-16.759 -2.557,-16.312C-3.426,-15.788 -4.215,-15.129 -5.028,-14.515C-5.993,-13.787 -6.838,-12.967 -7.411,-11.866C-7.997,-10.739 -8.044,-9.555 -7.997,-8.342C-7.991,-8.191 -7.872,-8.05 -7.818,-7.899C-7.765,-7.749 -7.685,-7.592 -7.693,-7.441C-7.796,-5.517 -6.839,-3.971 -5.78,-2.533C-5.213,-1.765 -4.325,-1.226 -3.557,-0.617C-3.17,-0.308 -2.752,-0.011 -2.3,0.185C-1.466,0.547 -0.615,0.903 0.262,1.132C1.455,1.445 2.681,1.711 3.912,1.31C4.499,1.119 5.078,0.883 5.626,0.598C6.145,0.328 6.706,0.049 7.092,-0.37C7.942,-1.292 8.72,-2.283 9.471,-3.289C9.786,-3.71 10.057,-4.217 10.171,-4.724C10.415,-5.813 10.865,-6.865 10.806,-8.017C10.78,-8.51 10.948,-8.996 10.698,-9.498C10.525,-9.845 10.457,-10.275 10.457,-10.668C10.456,-11.547 10.113,-12.279 9.582,-12.933C8.904,-13.766 8.218,-14.597 7.483,-15.38C7.208,-15.671 6.786,-15.824 6.426,-16.042C6.109,-15.43 5.977,-14.773 5.165,-14.773C5.142,-15.315 4.983,-15.845 5.131,-16.268C5.413,-17.078 4.873,-17.488 4.476,-17.95C4.211,-18.26 3.829,-18.56 3.446,-18.66C2.329,-18.951 1,-17.719 1.204,-16.556C1.299,-16.016 1.065,-15.828 0.743,-15.614C-0.28,-15.827 -0.228,-16.541 0,-17.439M-2.404,1.467C-3.789,0.943 -4.951,0.079 -6.068,-0.861C-6.826,-1.501 -7.295,-2.33 -7.679,-3.222C-7.817,-3.541 -7.922,-3.886 -8.119,-4.166C-8.693,-4.982 -8.695,-5.949 -8.869,-6.864C-9.065,-7.885 -9.413,-8.901 -9.165,-9.97C-9.075,-10.356 -8.999,-10.747 -8.925,-11.137C-8.515,-13.299 -6.978,-14.676 -5.466,-16.054C-4.714,-16.741 -3.928,-17.407 -3.082,-17.968C-2.249,-18.523 -1.268,-18.845 -0.261,-18.759C0.339,-18.708 0.804,-18.798 1.204,-19.21C2.21,-20.243 3.911,-19.999 4.762,-19.31C5.268,-18.901 5.675,-18.323 6.002,-17.751C6.27,-17.282 6.591,-17.016 7.096,-16.899C8.207,-16.644 8.915,-15.826 9.589,-15.002C10.011,-14.484 10.375,-13.909 10.689,-13.319C11.014,-12.705 11.29,-12.058 11.509,-11.398C11.761,-10.637 11.999,-9.858 12.103,-9.068C12.185,-8.444 12.045,-7.791 12.019,-7.151C11.97,-5.997 11.531,-4.93 11.072,-3.926C10.419,-2.504 9.547,-1.176 8.703,0.149C8.453,0.54 7.985,0.792 7.608,1.098C6.27,2.186 4.76,2.804 3.009,2.736C2.203,2.704 1.373,2.762 0.595,2.591C-0.447,2.362 -1.448,1.95 -2.466,1.617C-2.446,1.567 -2.425,1.517 -2.404,1.467" style="fill:rgb(35,31,32);fill-rule:nonzero;"/>
            </g>
            <g transform="matrix(4.16667,0,0,4.16667,1886.06,1075.69)">
                <path d="M0,-17.638C-0.228,-16.74 -0.28,-16.026 0.743,-15.813C1.065,-16.027 1.299,-16.215 1.204,-16.755C1,-17.918 2.329,-19.15 3.446,-18.859C3.829,-18.759 4.211,-18.459 4.476,-18.149C4.873,-17.687 5.413,-17.277 5.131,-16.467C4.983,-16.044 5.142,-15.514 5.165,-14.972C5.977,-14.972 6.109,-15.629 6.426,-16.241C6.786,-16.023 7.208,-15.87 7.483,-15.579C8.218,-14.796 8.904,-13.965 9.582,-13.132C10.113,-12.478 10.456,-11.746 10.457,-10.867C10.457,-10.474 10.525,-10.044 10.698,-9.697C10.948,-9.195 10.78,-8.709 10.806,-8.216C10.865,-7.064 10.415,-6.012 10.171,-4.923C10.057,-4.416 9.786,-3.909 9.471,-3.488C8.72,-2.482 7.942,-1.491 7.092,-0.569C6.706,-0.15 6.145,0.129 5.626,0.399C5.078,0.684 4.499,0.92 3.912,1.111C2.681,1.512 1.455,1.246 0.262,0.933C-0.615,0.704 -1.466,0.348 -2.3,-0.014C-2.752,-0.21 -3.17,-0.507 -3.557,-0.816C-4.325,-1.425 -5.213,-1.964 -5.78,-2.732C-6.839,-4.17 -7.796,-5.716 -7.693,-7.64C-7.685,-7.791 -7.765,-7.948 -7.818,-8.098C-7.872,-8.249 -7.991,-8.39 -7.997,-8.541C-8.044,-9.754 -7.997,-10.938 -7.411,-12.065C-6.838,-13.166 -5.993,-13.986 -5.028,-14.714C-4.215,-15.328 -3.426,-15.987 -2.557,-16.511C-1.817,-16.958 -1.063,-17.444 0,-17.638" style="fill:rgb(140,198,63);fill-rule:nonzero;"/>
            </g>
            <g transform="matrix(4.16667,0,0,4.16667,1922.5,1064.05)">
                <path d="M0,-7.009C0,-7.009 0.607,-0.474 -3.615,2.157C-7.837,4.788 -2.164,-6.292 -2.464,-7.596C-2.765,-8.9 -0.422,-11.797 0,-7.009" style="fill:rgb(157,204,77);fill-rule:nonzero;"/>
            </g>
            <g transform="matrix(4.16667,0,0,4.16667,1837.52,853.967)">
                <path d="M0,-14.173C-0.869,-13.53 -1.332,-12.762 -1.8,-12.035C-2.349,-11.181 -2.767,-10.242 -3.228,-9.332C-3.772,-8.255 -4.169,-7.147 -4.198,-5.906C-4.228,-4.635 -3.749,-3.551 -3.172,-2.483C-3.102,-2.351 -2.931,-2.276 -2.817,-2.163C-2.704,-2.054 -2.562,-1.947 -2.503,-1.808C-1.747,-0.035 -0.208,0.931 1.377,1.755C2.224,2.196 3.258,2.288 4.215,2.497C4.7,2.603 5.207,2.686 5.697,2.662C6.607,2.62 7.527,2.565 8.416,2.384C9.623,2.139 10.843,1.838 11.77,0.937C12.213,0.506 12.629,0.039 12.995,-0.458C13.343,-0.929 13.722,-1.426 13.884,-1.973C14.242,-3.175 14.504,-4.408 14.735,-5.642C14.833,-6.158 14.852,-6.733 14.73,-7.238C14.471,-8.323 14.412,-9.467 13.851,-10.474C13.61,-10.905 13.547,-11.415 13.101,-11.756C12.794,-11.991 12.542,-12.347 12.369,-12.7C11.981,-13.489 11.352,-13.996 10.586,-14.348C9.611,-14.798 8.629,-15.241 7.624,-15.621C7.25,-15.762 6.803,-15.712 6.384,-15.749C6.368,-15.059 6.54,-14.411 5.81,-14.054C5.551,-14.531 5.176,-14.937 5.121,-15.382C5.018,-16.233 4.353,-16.363 3.793,-16.604C3.418,-16.764 2.943,-16.866 2.556,-16.787C1.426,-16.557 0.774,-14.864 1.468,-13.911C1.792,-13.468 1.665,-13.195 1.47,-12.861C0.459,-12.602 0.19,-13.266 0,-14.173M6.169,3.859C4.694,3.998 3.27,3.735 1.855,3.382C0.891,3.142 0.105,2.605 -0.632,1.973C-0.896,1.747 -1.144,1.484 -1.443,1.32C-2.317,0.84 -2.745,-0.028 -3.306,-0.772C-3.931,-1.603 -4.69,-2.361 -4.938,-3.43C-5.027,-3.817 -5.131,-4.201 -5.236,-4.584C-5.822,-6.705 -5.048,-8.618 -4.297,-10.522C-3.924,-11.469 -3.512,-12.414 -3.001,-13.291C-2.496,-14.155 -1.758,-14.877 -0.816,-15.243C-0.254,-15.462 0.122,-15.747 0.3,-16.293C0.748,-17.665 2.383,-18.194 3.451,-17.95C4.086,-17.805 4.704,-17.466 5.25,-17.097C5.697,-16.793 6.102,-16.696 6.607,-16.814C7.719,-17.074 8.713,-16.652 9.682,-16.207C10.288,-15.931 10.869,-15.574 11.41,-15.182C11.973,-14.775 12.506,-14.315 12.994,-13.819C13.554,-13.247 14.112,-12.652 14.552,-11.989C14.9,-11.464 15.063,-10.818 15.321,-10.231C15.786,-9.174 15.863,-8.022 15.891,-6.919C15.932,-5.354 15.734,-3.778 15.559,-2.216C15.509,-1.756 15.199,-1.322 14.996,-0.882C14.272,0.684 13.19,1.905 11.588,2.613C10.849,2.94 10.13,3.358 9.356,3.548C8.321,3.801 7.24,3.872 6.178,4.021C6.176,3.967 6.173,3.914 6.169,3.859" style="fill:rgb(35,31,32);fill-rule:nonzero;"/>
            </g>
            <g transform="matrix(4.16667,0,0,4.16667,1837.52,853.938)">
                <path d="M0,-14.166C0.19,-13.259 0.459,-12.595 1.47,-12.854C1.665,-13.188 1.792,-13.461 1.468,-13.904C0.774,-14.857 1.426,-16.55 2.556,-16.78C2.943,-16.859 3.418,-16.757 3.793,-16.597C4.353,-16.356 5.018,-16.226 5.121,-15.375C5.176,-14.93 5.551,-14.524 5.81,-14.047C6.54,-14.404 6.368,-15.052 6.384,-15.742C6.803,-15.705 7.25,-15.755 7.624,-15.614C8.629,-15.234 9.611,-14.791 10.586,-14.341C11.352,-13.989 11.981,-13.482 12.369,-12.693C12.542,-12.34 12.794,-11.984 13.101,-11.749C13.547,-11.408 13.61,-10.898 13.851,-10.467C14.412,-9.46 14.471,-8.316 14.73,-7.231C14.852,-6.726 14.833,-6.151 14.735,-5.635C14.504,-4.401 14.242,-3.168 13.884,-1.966C13.722,-1.419 13.343,-0.922 12.995,-0.451C12.629,0.046 12.213,0.513 11.77,0.944C10.843,1.845 9.623,2.146 8.416,2.391C7.527,2.572 6.607,2.627 5.697,2.669C5.207,2.693 4.7,2.61 4.215,2.504C3.258,2.295 2.224,2.203 1.377,1.762C-0.208,0.938 -1.747,-0.028 -2.503,-1.801C-2.562,-1.94 -2.704,-2.047 -2.817,-2.156C-2.931,-2.269 -3.102,-2.344 -3.172,-2.476C-3.749,-3.544 -4.228,-4.628 -4.198,-5.899C-4.169,-7.14 -3.772,-8.248 -3.228,-9.325C-2.767,-10.235 -2.349,-11.174 -1.8,-12.028C-1.332,-12.755 -0.869,-13.523 0,-14.166" style="fill:rgb(140,198,63);fill-rule:nonzero;"/>
            </g>
            <g transform="matrix(4.16667,0,0,4.16667,1884.61,849.553)">
                <path d="M0,-9.931C0,-9.931 3.424,-4.332 0.792,-0.11C-1.839,4.112 -1.626,-8.334 -2.471,-9.372C-3.315,-10.41 -2.488,-14.043 0,-9.931" style="fill:rgb(157,204,77);fill-rule:nonzero;"/>
            </g>
            <g transform="matrix(4.16667,0,0,4.16667,1930.81,957.41)">
                <path d="M0,-13.871C-0.843,-13.196 -1.277,-12.41 -1.717,-11.666C-2.233,-10.792 -2.616,-9.838 -3.04,-8.911C-3.543,-7.814 -3.899,-6.691 -3.88,-5.45C-3.861,-4.179 -3.342,-3.114 -2.725,-2.069C-2.648,-1.94 -2.476,-1.871 -2.357,-1.764C-2.24,-1.658 -2.094,-1.556 -2.031,-1.42C-1.207,0.323 0.367,1.23 1.983,1.993C2.846,2.401 3.882,2.454 4.847,2.626C5.335,2.714 5.845,2.777 6.334,2.735C7.241,2.658 8.159,2.568 9.04,2.354C10.237,2.063 11.444,1.716 12.337,0.779C12.764,0.332 13.163,-0.151 13.509,-0.661C13.837,-1.145 14.198,-1.657 14.339,-2.209C14.65,-3.423 14.866,-4.666 15.05,-5.907C15.127,-6.427 15.125,-7.001 14.985,-7.502C14.684,-8.577 14.58,-9.717 13.982,-10.701C13.725,-11.124 13.642,-11.631 13.183,-11.955C12.868,-12.178 12.603,-12.524 12.417,-12.87C11.998,-13.644 11.351,-14.125 10.573,-14.448C9.58,-14.861 8.583,-15.267 7.564,-15.608C7.184,-15.735 6.74,-15.668 6.319,-15.69C6.331,-14.999 6.526,-14.359 5.81,-13.973C5.534,-14.44 5.143,-14.831 5.072,-15.275C4.936,-16.12 4.266,-16.226 3.697,-16.444C3.317,-16.59 2.838,-16.674 2.453,-16.58C1.334,-16.307 0.747,-14.592 1.478,-13.665C1.819,-13.234 1.701,-12.957 1.519,-12.617C0.519,-12.319 0.224,-12.973 0,-13.871M6.852,3.913C5.383,4.109 3.95,3.9 2.523,3.601C1.55,3.398 0.745,2.89 -0.017,2.287C-0.289,2.071 -0.546,1.818 -0.852,1.666C-1.743,1.22 -2.204,0.368 -2.792,-0.354C-3.449,-1.16 -4.238,-1.889 -4.525,-2.948C-4.63,-3.331 -4.748,-3.711 -4.868,-4.089C-5.534,-6.187 -4.832,-8.128 -4.155,-10.059C-3.818,-11.02 -3.443,-11.979 -2.965,-12.875C-2.494,-13.758 -1.783,-14.508 -0.856,-14.909C-0.303,-15.149 0.062,-15.449 0.22,-16.001C0.615,-17.388 2.228,-17.98 3.305,-17.777C3.944,-17.656 4.576,-17.342 5.135,-16.993C5.593,-16.706 6.002,-16.625 6.501,-16.762C7.603,-17.064 8.614,-16.68 9.598,-16.273C10.214,-16.019 10.808,-15.685 11.364,-15.314C11.941,-14.928 12.493,-14.49 12.997,-14.012C13.579,-13.462 14.16,-12.889 14.624,-12.243C14.993,-11.732 15.18,-11.092 15.46,-10.515C15.965,-9.476 16.085,-8.328 16.156,-7.227C16.256,-5.666 16.118,-4.083 16.003,-2.515C15.971,-2.054 15.678,-1.608 15.491,-1.161C14.828,0.431 13.792,1.693 12.219,2.462C11.493,2.817 10.791,3.262 10.025,3.48C9,3.773 7.922,3.885 6.867,4.075C6.863,4.021 6.857,3.967 6.852,3.913" style="fill:rgb(35,31,32);fill-rule:nonzero;"/>
            </g>
            <g transform="matrix(4.16667,0,0,4.16667,1930.81,957.302)">
                <path d="M0,-13.845C0.224,-12.947 0.519,-12.293 1.519,-12.591C1.701,-12.931 1.819,-13.208 1.478,-13.639C0.747,-14.566 1.334,-16.281 2.453,-16.554C2.838,-16.648 3.317,-16.564 3.697,-16.418C4.266,-16.2 4.936,-16.094 5.072,-15.249C5.143,-14.805 5.534,-14.414 5.81,-13.947C6.526,-14.333 6.331,-14.973 6.319,-15.664C6.74,-15.642 7.184,-15.709 7.564,-15.582C8.583,-15.241 9.58,-14.835 10.573,-14.422C11.351,-14.099 11.998,-13.618 12.417,-12.844C12.603,-12.498 12.868,-12.152 13.183,-11.929C13.642,-11.605 13.725,-11.098 13.982,-10.675C14.58,-9.691 14.684,-8.551 14.985,-7.476C15.125,-6.975 15.127,-6.401 15.05,-5.881C14.866,-4.64 14.65,-3.397 14.339,-2.183C14.198,-1.631 13.837,-1.119 13.509,-0.635C13.163,-0.125 12.764,0.358 12.337,0.805C11.444,1.742 10.237,2.089 9.04,2.38C8.159,2.594 7.241,2.684 6.334,2.761C5.845,2.803 5.335,2.74 4.847,2.652C3.882,2.48 2.846,2.427 1.983,2.019C0.367,1.256 -1.207,0.349 -2.031,-1.394C-2.094,-1.53 -2.24,-1.632 -2.357,-1.738C-2.476,-1.845 -2.648,-1.914 -2.725,-2.043C-3.342,-3.088 -3.861,-4.153 -3.88,-5.424C-3.899,-6.665 -3.543,-7.788 -3.04,-8.885C-2.616,-9.812 -2.233,-10.766 -1.717,-11.64C-1.277,-12.384 -0.843,-13.17 0,-13.845" style="fill:rgb(140,198,63);fill-rule:nonzero;"/>
            </g>
            <g transform="matrix(4.16667,0,0,4.16667,1978.37,953.104)">
                <path d="M0,-10.088C0,-10.088 3.634,-4.623 1.165,-0.304C-1.304,4.014 -1.565,-8.43 -2.448,-9.435C-3.332,-10.44 -2.644,-14.102 0,-10.088" style="fill:rgb(157,204,77);fill-rule:nonzero;"/>
            </g>
            <g transform="matrix(4.16667,0,0,4.16667,1989.28,1074.92)">
                <path d="M0,-17.44C-1.063,-17.246 -1.818,-16.759 -2.557,-16.312C-3.426,-15.789 -4.215,-15.13 -5.029,-14.516C-5.993,-13.788 -6.839,-12.967 -7.411,-11.867C-7.997,-10.739 -8.044,-9.555 -7.998,-8.342C-7.991,-8.192 -7.872,-8.05 -7.819,-7.899C-7.765,-7.75 -7.685,-7.593 -7.693,-7.442C-7.796,-5.517 -6.839,-3.971 -5.779,-2.533C-5.213,-1.765 -4.325,-1.227 -3.558,-0.617C-3.17,-0.309 -2.752,-0.012 -2.3,0.184C-1.466,0.547 -0.615,0.902 0.262,1.132C1.454,1.444 2.681,1.71 3.911,1.31C4.499,1.118 5.078,0.882 5.626,0.598C6.145,0.328 6.705,0.048 7.092,-0.371C7.942,-1.292 8.72,-2.284 9.471,-3.29C9.786,-3.711 10.057,-4.217 10.17,-4.725C10.415,-5.813 10.865,-6.866 10.805,-8.017C10.779,-8.511 10.947,-8.996 10.698,-9.499C10.525,-9.846 10.457,-10.276 10.456,-10.668C10.455,-11.548 10.112,-12.279 9.582,-12.933C8.903,-13.767 8.218,-14.598 7.483,-15.38C7.208,-15.672 6.786,-15.824 6.426,-16.043C6.108,-15.43 5.977,-14.773 5.164,-14.774C5.142,-15.315 4.983,-15.846 5.131,-16.269C5.413,-17.079 4.873,-17.489 4.476,-17.951C4.21,-18.26 3.829,-18.561 3.446,-18.66C2.329,-18.952 0.999,-17.72 1.204,-16.557C1.298,-16.017 1.065,-15.828 0.743,-15.615C-0.28,-15.827 -0.228,-16.542 0,-17.44M-2.404,1.467C-3.789,0.942 -4.951,0.079 -6.068,-0.862C-6.826,-1.501 -7.296,-2.331 -7.68,-3.222C-7.817,-3.542 -7.923,-3.887 -8.119,-4.167C-8.694,-4.982 -8.695,-5.95 -8.869,-6.864C-9.065,-7.885 -9.414,-8.901 -9.166,-9.97C-9.075,-10.357 -8.999,-10.747 -8.925,-11.138C-8.516,-13.3 -6.979,-14.676 -5.466,-16.055C-4.714,-16.741 -3.928,-17.407 -3.082,-17.969C-2.249,-18.523 -1.268,-18.846 -0.261,-18.76C0.339,-18.709 0.804,-18.799 1.204,-19.211C2.21,-20.244 3.91,-20 4.762,-19.311C5.268,-18.901 5.675,-18.324 6.002,-17.752C6.269,-17.282 6.59,-17.017 7.096,-16.9C8.207,-16.645 8.915,-15.827 9.588,-15.002C10.01,-14.485 10.375,-13.91 10.689,-13.32C11.014,-12.706 11.29,-12.059 11.509,-11.399C11.76,-10.638 11.999,-9.859 12.103,-9.069C12.185,-8.444 12.045,-7.792 12.018,-7.152C11.97,-5.998 11.531,-4.93 11.071,-3.927C10.419,-2.504 9.547,-1.176 8.702,0.149C8.453,0.539 7.985,0.792 7.608,1.098C6.27,2.186 4.759,2.804 3.009,2.735C2.203,2.703 1.373,2.762 0.595,2.59C-0.447,2.362 -1.449,1.95 -2.467,1.616C-2.446,1.567 -2.425,1.516 -2.404,1.467" style="fill:rgb(35,31,32);fill-rule:nonzero;"/>
            </g>
            <g transform="matrix(4.16667,0,0,4.16667,1989.28,1075.74)">
                <path d="M0,-17.638C-0.228,-16.74 -0.28,-16.025 0.743,-15.813C1.065,-16.026 1.298,-16.215 1.204,-16.755C0.999,-17.918 2.329,-19.15 3.446,-18.858C3.829,-18.759 4.21,-18.458 4.476,-18.149C4.873,-17.687 5.413,-17.277 5.131,-16.467C4.983,-16.044 5.142,-15.513 5.164,-14.972C5.977,-14.971 6.108,-15.628 6.426,-16.241C6.786,-16.022 7.208,-15.87 7.483,-15.578C8.218,-14.796 8.903,-13.965 9.582,-13.131C10.112,-12.477 10.455,-11.746 10.456,-10.866C10.457,-10.474 10.525,-10.044 10.698,-9.697C10.947,-9.194 10.779,-8.709 10.805,-8.215C10.865,-7.064 10.415,-6.011 10.17,-4.923C10.057,-4.415 9.786,-3.909 9.471,-3.488C8.72,-2.482 7.942,-1.49 7.092,-0.569C6.705,-0.15 6.145,0.13 5.626,0.4C5.078,0.684 4.499,0.92 3.911,1.112C2.681,1.512 1.454,1.246 0.262,0.934C-0.615,0.704 -1.466,0.349 -2.3,-0.014C-2.752,-0.21 -3.17,-0.507 -3.558,-0.815C-4.325,-1.425 -5.213,-1.963 -5.779,-2.731C-6.839,-4.169 -7.796,-5.715 -7.693,-7.64C-7.685,-7.791 -7.765,-7.948 -7.819,-8.097C-7.872,-8.248 -7.991,-8.39 -7.998,-8.54C-8.044,-9.753 -7.997,-10.937 -7.411,-12.065C-6.839,-13.165 -5.993,-13.986 -5.029,-14.714C-4.215,-15.328 -3.426,-15.987 -2.557,-16.51C-1.818,-16.957 -1.063,-17.444 0,-17.638" style="fill:rgb(140,198,63);fill-rule:nonzero;"/>
            </g>
            <g transform="matrix(4.16667,0,0,4.16667,2025.72,1064.1)">
                <path d="M0,-7.009C0,-7.009 0.607,-0.474 -3.615,2.157C-7.837,4.788 -2.164,-6.292 -2.464,-7.596C-2.765,-8.9 -0.422,-11.797 0,-7.009" style="fill:rgb(157,204,77);fill-rule:nonzero;"/>
            </g>
            <g transform="matrix(4.16667,0,0,4.16667,1939.17,853.967)">
                <path d="M0,-14.173C-0.868,-13.53 -1.332,-12.762 -1.8,-12.035C-2.349,-11.181 -2.767,-10.242 -3.228,-9.332C-3.772,-8.255 -4.169,-7.147 -4.198,-5.906C-4.228,-4.635 -3.749,-3.551 -3.172,-2.483C-3.102,-2.351 -2.931,-2.276 -2.816,-2.163C-2.704,-2.054 -2.562,-1.947 -2.503,-1.808C-1.747,-0.035 -0.208,0.931 1.377,1.755C2.224,2.196 3.258,2.288 4.215,2.497C4.7,2.603 5.207,2.686 5.697,2.662C6.607,2.62 7.528,2.565 8.416,2.384C9.624,2.139 10.843,1.838 11.77,0.937C12.213,0.506 12.629,0.039 12.995,-0.458C13.343,-0.929 13.723,-1.426 13.885,-1.973C14.242,-3.175 14.504,-4.408 14.735,-5.642C14.833,-6.158 14.852,-6.733 14.731,-7.238C14.471,-8.323 14.412,-9.467 13.851,-10.474C13.61,-10.905 13.547,-11.415 13.101,-11.756C12.794,-11.991 12.543,-12.347 12.37,-12.7C11.981,-13.489 11.352,-13.996 10.587,-14.348C9.611,-14.798 8.629,-15.241 7.624,-15.621C7.251,-15.762 6.803,-15.712 6.385,-15.749C6.369,-15.059 6.541,-14.411 5.81,-14.054C5.551,-14.531 5.176,-14.937 5.121,-15.382C5.019,-16.233 4.353,-16.363 3.793,-16.604C3.419,-16.764 2.943,-16.866 2.556,-16.787C1.426,-16.557 0.774,-14.864 1.469,-13.911C1.792,-13.468 1.665,-13.195 1.47,-12.861C0.459,-12.602 0.19,-13.266 0,-14.173M6.169,3.859C4.695,3.998 3.27,3.735 1.855,3.382C0.891,3.142 0.106,2.605 -0.632,1.973C-0.896,1.747 -1.143,1.484 -1.443,1.32C-2.317,0.84 -2.745,-0.028 -3.306,-0.772C-3.931,-1.603 -4.69,-2.361 -4.938,-3.43C-5.027,-3.817 -5.131,-4.201 -5.236,-4.584C-5.822,-6.705 -5.048,-8.618 -4.297,-10.522C-3.924,-11.469 -3.512,-12.414 -3.001,-13.291C-2.496,-14.155 -1.758,-14.877 -0.816,-15.243C-0.254,-15.462 0.123,-15.747 0.3,-16.293C0.749,-17.665 2.383,-18.194 3.451,-17.95C4.086,-17.805 4.705,-17.466 5.251,-17.097C5.697,-16.793 6.102,-16.696 6.607,-16.814C7.719,-17.074 8.714,-16.652 9.682,-16.207C10.288,-15.931 10.869,-15.574 11.41,-15.182C11.973,-14.775 12.506,-14.315 12.994,-13.819C13.555,-13.247 14.112,-12.652 14.552,-11.989C14.9,-11.464 15.063,-10.818 15.321,-10.231C15.786,-9.174 15.863,-8.022 15.892,-6.919C15.933,-5.354 15.734,-3.778 15.559,-2.216C15.509,-1.756 15.199,-1.322 14.996,-0.882C14.272,0.684 13.191,1.905 11.588,2.613C10.85,2.94 10.13,3.358 9.357,3.548C8.321,3.801 7.24,3.872 6.179,4.021C6.176,3.967 6.173,3.914 6.169,3.859" style="fill:rgb(35,31,32);fill-rule:nonzero;"/>
            </g>
            <g transform="matrix(4.16667,0,0,4.16667,1939.17,853.938)">
                <path d="M0,-14.166C0.19,-13.259 0.459,-12.595 1.47,-12.854C1.665,-13.188 1.792,-13.461 1.469,-13.904C0.774,-14.857 1.426,-16.55 2.556,-16.78C2.943,-16.859 3.419,-16.757 3.793,-16.597C4.353,-16.356 5.019,-16.226 5.121,-15.375C5.176,-14.93 5.551,-14.524 5.81,-14.047C6.541,-14.404 6.369,-15.052 6.385,-15.742C6.803,-15.705 7.251,-15.755 7.624,-15.614C8.629,-15.234 9.611,-14.791 10.587,-14.341C11.352,-13.989 11.981,-13.482 12.37,-12.693C12.543,-12.34 12.794,-11.984 13.101,-11.749C13.547,-11.408 13.61,-10.898 13.851,-10.467C14.412,-9.46 14.471,-8.316 14.731,-7.231C14.852,-6.726 14.833,-6.151 14.735,-5.635C14.504,-4.401 14.242,-3.168 13.885,-1.966C13.723,-1.419 13.343,-0.922 12.995,-0.451C12.629,0.046 12.213,0.513 11.77,0.944C10.843,1.845 9.624,2.146 8.416,2.391C7.528,2.572 6.607,2.627 5.697,2.669C5.207,2.693 4.7,2.61 4.215,2.504C3.258,2.295 2.224,2.203 1.377,1.762C-0.208,0.938 -1.747,-0.028 -2.503,-1.801C-2.562,-1.94 -2.704,-2.047 -2.816,-2.156C-2.931,-2.269 -3.102,-2.344 -3.172,-2.476C-3.749,-3.544 -4.228,-4.628 -4.198,-5.899C-4.169,-7.14 -3.772,-8.248 -3.228,-9.325C-2.767,-10.235 -2.349,-11.174 -1.8,-12.028C-1.332,-12.755 -0.868,-13.523 0,-14.166" style="fill:rgb(140,198,63);fill-rule:nonzero;"/>
            </g>
            <g transform="matrix(4.16667,0,0,4.16667,1986.26,849.553)">
                <path d="M0,-9.931C0,-9.931 3.424,-4.332 0.792,-0.11C-1.839,4.112 -1.626,-8.334 -2.471,-9.372C-3.315,-10.41 -2.488,-14.043 0,-9.931" style="fill:rgb(157,204,77);fill-rule:nonzero;"/>
            </g>
            <g transform="matrix(4.16667,0,0,4.16667,2030.88,957.41)">
                <path d="M0,-13.871C-0.843,-13.196 -1.277,-12.41 -1.717,-11.666C-2.234,-10.792 -2.616,-9.838 -3.04,-8.911C-3.543,-7.814 -3.898,-6.691 -3.88,-5.45C-3.861,-4.179 -3.342,-3.114 -2.725,-2.069C-2.648,-1.94 -2.476,-1.871 -2.357,-1.764C-2.24,-1.658 -2.094,-1.556 -2.03,-1.42C-1.207,0.323 0.367,1.23 1.983,1.993C2.846,2.401 3.882,2.454 4.847,2.626C5.335,2.714 5.845,2.777 6.334,2.735C7.242,2.658 8.159,2.568 9.04,2.354C10.238,2.063 11.443,1.716 12.337,0.779C12.763,0.332 13.163,-0.151 13.509,-0.661C13.837,-1.145 14.198,-1.657 14.339,-2.209C14.65,-3.423 14.866,-4.666 15.05,-5.907C15.127,-6.427 15.125,-7.001 14.985,-7.502C14.684,-8.577 14.581,-9.717 13.982,-10.701C13.725,-11.124 13.642,-11.631 13.183,-11.955C12.868,-12.178 12.604,-12.524 12.417,-12.87C11.998,-13.644 11.351,-14.125 10.573,-14.448C9.58,-14.861 8.583,-15.267 7.564,-15.608C7.184,-15.735 6.74,-15.668 6.319,-15.69C6.331,-14.999 6.527,-14.359 5.81,-13.973C5.534,-14.44 5.143,-14.831 5.072,-15.275C4.936,-16.12 4.266,-16.226 3.697,-16.444C3.317,-16.59 2.838,-16.674 2.453,-16.58C1.334,-16.307 0.747,-14.592 1.478,-13.665C1.819,-13.234 1.701,-12.957 1.52,-12.617C0.519,-12.319 0.224,-12.973 0,-13.871M6.852,3.913C5.383,4.109 3.951,3.9 2.523,3.601C1.55,3.398 0.745,2.89 -0.017,2.287C-0.289,2.071 -0.546,1.818 -0.852,1.666C-1.743,1.22 -2.204,0.368 -2.792,-0.354C-3.449,-1.16 -4.238,-1.889 -4.525,-2.948C-4.63,-3.331 -4.748,-3.711 -4.868,-4.089C-5.534,-6.187 -4.832,-8.128 -4.155,-10.059C-3.818,-11.02 -3.443,-11.979 -2.965,-12.875C-2.494,-13.758 -1.783,-14.508 -0.856,-14.909C-0.303,-15.149 0.062,-15.449 0.22,-16.001C0.615,-17.388 2.228,-17.98 3.306,-17.777C3.944,-17.656 4.576,-17.342 5.135,-16.993C5.593,-16.706 6.002,-16.625 6.502,-16.762C7.603,-17.064 8.614,-16.68 9.598,-16.273C10.214,-16.019 10.808,-15.685 11.364,-15.314C11.941,-14.928 12.493,-14.49 12.998,-14.012C13.579,-13.462 14.16,-12.889 14.624,-12.243C14.993,-11.732 15.18,-11.092 15.461,-10.515C15.965,-9.476 16.085,-8.328 16.156,-7.227C16.256,-5.666 16.119,-4.083 16.004,-2.515C15.971,-2.054 15.678,-1.608 15.491,-1.161C14.828,0.431 13.792,1.693 12.219,2.462C11.493,2.817 10.791,3.262 10.025,3.48C9,3.773 7.922,3.885 6.867,4.075C6.863,4.021 6.857,3.967 6.852,3.913" style="fill:rgb(35,31,32);fill-rule:nonzero;"/>
            </g>
            <g transform="matrix(4.16667,0,0,4.16667,2030.88,957.302)">
                <path d="M0,-13.845C0.224,-12.947 0.519,-12.293 1.52,-12.591C1.701,-12.931 1.819,-13.208 1.478,-13.639C0.747,-14.566 1.334,-16.281 2.453,-16.554C2.838,-16.648 3.317,-16.564 3.697,-16.418C4.266,-16.2 4.936,-16.094 5.072,-15.249C5.143,-14.805 5.534,-14.414 5.81,-13.947C6.527,-14.333 6.331,-14.973 6.319,-15.664C6.74,-15.642 7.184,-15.709 7.564,-15.582C8.583,-15.241 9.58,-14.835 10.573,-14.422C11.351,-14.099 11.998,-13.618 12.417,-12.844C12.604,-12.498 12.868,-12.152 13.183,-11.929C13.642,-11.605 13.725,-11.098 13.982,-10.675C14.581,-9.691 14.684,-8.551 14.985,-7.476C15.125,-6.975 15.127,-6.401 15.05,-5.881C14.866,-4.64 14.65,-3.397 14.339,-2.183C14.198,-1.631 13.837,-1.119 13.509,-0.635C13.163,-0.125 12.763,0.358 12.337,0.805C11.443,1.742 10.238,2.089 9.04,2.38C8.159,2.594 7.242,2.684 6.334,2.761C5.845,2.803 5.335,2.74 4.847,2.652C3.882,2.48 2.846,2.427 1.983,2.019C0.367,1.256 -1.207,0.349 -2.03,-1.394C-2.094,-1.53 -2.24,-1.632 -2.357,-1.738C-2.476,-1.845 -2.648,-1.914 -2.725,-2.043C-3.342,-3.088 -3.861,-4.153 -3.88,-5.424C-3.898,-6.665 -3.543,-7.788 -3.04,-8.885C-2.616,-9.812 -2.234,-10.766 -1.717,-11.64C-1.277,-12.384 -0.843,-13.17 0,-13.845" style="fill:rgb(140,198,63);fill-rule:nonzero;"/>
            </g>
            <g transform="matrix(4.16667,0,0,4.16667,2078.44,953.104)">
                <path d="M0,-10.088C0,-10.088 3.634,-4.623 1.165,-0.304C-1.304,4.014 -1.565,-8.43 -2.448,-9.435C-3.332,-10.44 -2.643,-14.102 0,-10.088" style="fill:rgb(157,204,77);fill-rule:nonzero;"/>
            </g>
            <g transform="matrix(4.16667,0,0,4.16667,2115.8,1057.34)">
                <path d="M0,-17.44C-1.064,-17.246 -1.818,-16.76 -2.558,-16.313C-3.427,-15.789 -4.216,-15.13 -5.029,-14.516C-5.994,-13.788 -6.839,-12.968 -7.411,-11.867C-7.997,-10.74 -8.044,-9.556 -7.998,-8.343C-7.992,-8.192 -7.872,-8.051 -7.819,-7.9C-7.765,-7.75 -7.686,-7.593 -7.693,-7.442C-7.796,-5.518 -6.84,-3.971 -5.779,-2.534C-5.214,-1.765 -4.326,-1.227 -3.558,-0.618C-3.17,-0.309 -2.752,-0.012 -2.301,0.184C-1.466,0.547 -0.615,0.902 0.262,1.131C1.454,1.444 2.68,1.709 3.911,1.31C4.498,1.118 5.078,0.882 5.625,0.597C6.145,0.328 6.705,0.048 7.091,-0.371C7.941,-1.293 8.72,-2.284 9.471,-3.29C9.785,-3.711 10.057,-4.218 10.17,-4.725C10.415,-5.813 10.865,-6.866 10.805,-8.018C10.779,-8.511 10.947,-8.997 10.697,-9.499C10.524,-9.846 10.456,-10.276 10.456,-10.669C10.455,-11.548 10.112,-12.28 9.582,-12.934C8.903,-13.767 8.218,-14.598 7.483,-15.381C7.208,-15.672 6.786,-15.824 6.426,-16.043C6.108,-15.431 5.977,-14.774 5.164,-14.774C5.141,-15.316 4.983,-15.846 5.131,-16.269C5.412,-17.079 4.873,-17.489 4.476,-17.951C4.21,-18.261 3.829,-18.561 3.446,-18.661C2.329,-18.952 0.999,-17.72 1.204,-16.557C1.298,-16.017 1.065,-15.829 0.743,-15.615C-0.28,-15.828 -0.229,-16.542 0,-17.44M-2.404,1.466C-3.789,0.942 -4.952,0.079 -6.068,-0.862C-6.826,-1.502 -7.296,-2.331 -7.68,-3.223C-7.817,-3.542 -7.923,-3.887 -8.12,-4.167C-8.694,-4.982 -8.696,-5.95 -8.87,-6.865C-9.065,-7.886 -9.414,-8.902 -9.166,-9.971C-9.076,-10.357 -8.999,-10.747 -8.926,-11.138C-8.516,-13.3 -6.979,-14.677 -5.466,-16.055C-4.714,-16.742 -3.929,-17.407 -3.082,-17.97C-2.249,-18.524 -1.269,-18.846 -0.261,-18.76C0.338,-18.709 0.803,-18.799 1.204,-19.211C2.21,-20.244 3.91,-20 4.762,-19.311C5.268,-18.902 5.674,-18.324 6.001,-17.752C6.269,-17.283 6.59,-17.017 7.095,-16.9C8.207,-16.645 8.915,-15.827 9.588,-15.002C10.01,-14.485 10.375,-13.91 10.688,-13.32C11.014,-12.706 11.29,-12.059 11.509,-11.399C11.76,-10.638 11.998,-9.859 12.103,-9.069C12.184,-8.445 12.044,-7.792 12.018,-7.152C11.97,-5.998 11.53,-4.93 11.071,-3.927C10.419,-2.505 9.546,-1.177 8.702,0.149C8.453,0.539 7.985,0.792 7.608,1.097C6.269,2.185 4.759,2.804 3.009,2.735C2.202,2.703 1.373,2.762 0.594,2.59C-0.448,2.361 -1.449,1.949 -2.467,1.616C-2.446,1.566 -2.425,1.516 -2.404,1.466" style="fill:rgb(35,31,32);fill-rule:nonzero;"/>
            </g>
            <g transform="matrix(4.16667,0,0,4.16667,2115.8,1058.16)">
                <path d="M0,-17.637C-0.229,-16.739 -0.28,-16.025 0.743,-15.812C1.065,-16.026 1.298,-16.214 1.204,-16.754C0.999,-17.917 2.329,-19.149 3.446,-18.858C3.829,-18.758 4.21,-18.458 4.476,-18.148C4.873,-17.686 5.412,-17.276 5.131,-16.466C4.983,-16.043 5.141,-15.513 5.164,-14.971C5.977,-14.971 6.108,-15.628 6.426,-16.24C6.786,-16.021 7.208,-15.869 7.483,-15.578C8.218,-14.795 8.903,-13.964 9.582,-13.131C10.112,-12.477 10.455,-11.745 10.456,-10.866C10.456,-10.473 10.524,-10.043 10.697,-9.696C10.947,-9.194 10.779,-8.708 10.805,-8.215C10.865,-7.063 10.415,-6.01 10.17,-4.922C10.057,-4.415 9.785,-3.908 9.471,-3.487C8.72,-2.481 7.941,-1.49 7.091,-0.568C6.705,-0.149 6.145,0.131 5.625,0.4C5.078,0.685 4.498,0.921 3.911,1.113C2.68,1.512 1.454,1.247 0.262,0.934C-0.615,0.705 -1.466,0.35 -2.301,-0.013C-2.752,-0.209 -3.17,-0.506 -3.558,-0.815C-4.326,-1.424 -5.214,-1.962 -5.779,-2.731C-6.84,-4.168 -7.796,-5.715 -7.693,-7.639C-7.686,-7.79 -7.765,-7.947 -7.819,-8.097C-7.872,-8.248 -7.992,-8.389 -7.998,-8.54C-8.044,-9.753 -7.997,-10.937 -7.411,-12.064C-6.839,-13.165 -5.994,-13.985 -5.029,-14.713C-4.216,-15.327 -3.427,-15.986 -2.558,-16.51C-1.818,-16.957 -1.064,-17.443 0,-17.637" style="fill:rgb(140,198,63);fill-rule:nonzero;"/>
            </g>
            <g transform="matrix(4.16667,0,0,4.16667,2152.24,1046.52)">
                <path d="M0,-7.009C0,-7.009 0.606,-0.474 -3.615,2.157C-7.837,4.788 -2.164,-6.292 -2.464,-7.596C-2.765,-8.899 -0.422,-11.797 0,-7.009" style="fill:rgb(157,204,77);fill-rule:nonzero;"/>
            </g>
            <g transform="matrix(4.16667,0,0,4.16667,2155.17,918.759)">
                <path d="M0,-17.44C-1.063,-17.246 -1.818,-16.759 -2.557,-16.313C-3.426,-15.789 -4.215,-15.13 -5.029,-14.516C-5.993,-13.788 -6.839,-12.968 -7.411,-11.867C-7.997,-10.739 -8.044,-9.556 -7.998,-8.343C-7.991,-8.192 -7.872,-8.051 -7.819,-7.9C-7.765,-7.75 -7.685,-7.593 -7.693,-7.442C-7.796,-5.517 -6.839,-3.971 -5.779,-2.534C-5.213,-1.765 -4.325,-1.227 -3.558,-0.618C-3.17,-0.309 -2.752,-0.012 -2.3,0.184C-1.466,0.547 -0.615,0.902 0.262,1.131C1.454,1.444 2.681,1.709 3.911,1.31C4.499,1.118 5.078,0.882 5.626,0.597C6.145,0.328 6.705,0.048 7.092,-0.371C7.942,-1.292 8.72,-2.284 9.471,-3.29C9.786,-3.711 10.057,-4.218 10.17,-4.725C10.415,-5.813 10.865,-6.866 10.805,-8.017C10.779,-8.511 10.947,-8.997 10.698,-9.499C10.525,-9.846 10.457,-10.276 10.456,-10.668C10.455,-11.548 10.112,-12.279 9.582,-12.934C8.903,-13.767 8.218,-14.598 7.483,-15.38C7.208,-15.672 6.786,-15.824 6.426,-16.043C6.108,-15.431 5.977,-14.774 5.164,-14.774C5.142,-15.316 4.983,-15.846 5.131,-16.269C5.413,-17.079 4.873,-17.489 4.476,-17.951C4.21,-18.261 3.829,-18.561 3.446,-18.66C2.329,-18.952 0.999,-17.72 1.204,-16.557C1.298,-16.017 1.065,-15.829 0.743,-15.615C-0.28,-15.828 -0.228,-16.542 0,-17.44M-2.404,1.466C-3.789,0.942 -4.951,0.079 -6.068,-0.862C-6.826,-1.502 -7.296,-2.331 -7.68,-3.222C-7.817,-3.542 -7.923,-3.887 -8.119,-4.167C-8.694,-4.982 -8.695,-5.95 -8.869,-6.865C-9.065,-7.885 -9.414,-8.902 -9.166,-9.97C-9.076,-10.357 -8.999,-10.747 -8.925,-11.138C-8.516,-13.3 -6.979,-14.677 -5.466,-16.055C-4.714,-16.741 -3.928,-17.407 -3.082,-17.969C-2.249,-18.524 -1.268,-18.846 -0.261,-18.76C0.339,-18.709 0.804,-18.799 1.204,-19.211C2.21,-20.244 3.91,-20 4.762,-19.311C5.268,-18.901 5.674,-18.324 6.002,-17.752C6.269,-17.283 6.59,-17.017 7.095,-16.9C8.207,-16.645 8.915,-15.827 9.588,-15.002C10.01,-14.485 10.375,-13.91 10.689,-13.32C11.014,-12.706 11.29,-12.059 11.509,-11.399C11.76,-10.638 11.999,-9.859 12.103,-9.069C12.185,-8.444 12.045,-7.792 12.018,-7.152C11.97,-5.998 11.531,-4.93 11.071,-3.927C10.419,-2.504 9.547,-1.177 8.702,0.149C8.453,0.539 7.985,0.792 7.608,1.097C6.27,2.185 4.759,2.804 3.009,2.735C2.203,2.703 1.373,2.762 0.595,2.59C-0.447,2.361 -1.449,1.949 -2.467,1.616C-2.446,1.566 -2.425,1.516 -2.404,1.466" style="fill:rgb(35,31,32);fill-rule:nonzero;"/>
            </g>
            <g transform="matrix(4.16667,0,0,4.16667,2155.17,919.58)">
                <path d="M0,-17.637C-0.228,-16.739 -0.28,-16.025 0.743,-15.812C1.065,-16.026 1.298,-16.214 1.204,-16.754C0.999,-17.917 2.329,-19.149 3.446,-18.857C3.829,-18.758 4.21,-18.458 4.476,-18.148C4.873,-17.686 5.413,-17.276 5.131,-16.466C4.983,-16.043 5.142,-15.513 5.164,-14.971C5.977,-14.971 6.108,-15.628 6.426,-16.24C6.786,-16.021 7.208,-15.869 7.483,-15.577C8.218,-14.795 8.903,-13.964 9.582,-13.131C10.112,-12.476 10.455,-11.745 10.456,-10.865C10.457,-10.473 10.525,-10.043 10.698,-9.696C10.947,-9.194 10.779,-8.708 10.805,-8.214C10.865,-7.063 10.415,-6.01 10.17,-4.922C10.057,-4.415 9.786,-3.908 9.471,-3.487C8.72,-2.481 7.942,-1.489 7.092,-0.568C6.705,-0.149 6.145,0.131 5.626,0.4C5.078,0.685 4.499,0.921 3.911,1.113C2.681,1.512 1.454,1.247 0.262,0.934C-0.615,0.705 -1.466,0.35 -2.3,-0.013C-2.752,-0.209 -3.17,-0.506 -3.558,-0.815C-4.325,-1.424 -5.213,-1.962 -5.779,-2.731C-6.839,-4.168 -7.796,-5.714 -7.693,-7.639C-7.685,-7.79 -7.765,-7.947 -7.819,-8.097C-7.872,-8.248 -7.991,-8.389 -7.998,-8.54C-8.044,-9.753 -7.997,-10.936 -7.411,-12.064C-6.839,-13.165 -5.993,-13.985 -5.029,-14.713C-4.215,-15.327 -3.426,-15.986 -2.557,-16.51C-1.818,-16.956 -1.063,-17.443 0,-17.637" style="fill:rgb(140,198,63);fill-rule:nonzero;"/>
            </g>
            <g transform="matrix(4.16667,0,0,4.16667,2191.61,907.941)">
                <path d="M0,-7.008C0,-7.008 0.607,-0.473 -3.615,2.158C-7.837,4.789 -2.164,-6.292 -2.464,-7.595C-2.765,-8.899 -0.422,-11.797 0,-7.008" style="fill:rgb(157,204,77);fill-rule:nonzero;"/>
            </g>
            <g transform="matrix(4.16667,0,0,4.16667,2039.24,853.967)">
                <path d="M0,-14.173C-0.868,-13.53 -1.331,-12.762 -1.8,-12.035C-2.349,-11.181 -2.767,-10.242 -3.228,-9.332C-3.772,-8.255 -4.168,-7.147 -4.198,-5.906C-4.228,-4.635 -3.749,-3.551 -3.172,-2.483C-3.101,-2.351 -2.931,-2.276 -2.817,-2.163C-2.704,-2.054 -2.562,-1.947 -2.503,-1.808C-1.747,-0.035 -0.208,0.931 1.377,1.755C2.224,2.196 3.258,2.288 4.215,2.497C4.7,2.603 5.207,2.686 5.698,2.662C6.607,2.62 7.528,2.565 8.416,2.384C9.624,2.139 10.843,1.838 11.77,0.937C12.213,0.506 12.629,0.039 12.995,-0.458C13.343,-0.929 13.723,-1.426 13.885,-1.973C14.242,-3.175 14.504,-4.408 14.735,-5.642C14.833,-6.158 14.852,-6.733 14.731,-7.238C14.471,-8.323 14.413,-9.467 13.851,-10.474C13.61,-10.905 13.547,-11.415 13.102,-11.756C12.794,-11.991 12.543,-12.347 12.37,-12.7C11.981,-13.489 11.352,-13.996 10.587,-14.348C9.611,-14.798 8.629,-15.241 7.624,-15.621C7.251,-15.762 6.804,-15.712 6.385,-15.749C6.369,-15.059 6.541,-14.411 5.81,-14.054C5.551,-14.531 5.176,-14.937 5.121,-15.382C5.019,-16.233 4.353,-16.363 3.794,-16.604C3.419,-16.764 2.943,-16.866 2.556,-16.787C1.426,-16.557 0.775,-14.864 1.469,-13.911C1.792,-13.468 1.665,-13.195 1.47,-12.861C0.459,-12.602 0.191,-13.266 0,-14.173M6.169,3.859C4.695,3.998 3.27,3.735 1.855,3.382C0.892,3.142 0.106,2.605 -0.632,1.973C-0.896,1.747 -1.143,1.484 -1.443,1.32C-2.317,0.84 -2.744,-0.028 -3.305,-0.772C-3.931,-1.603 -4.69,-2.361 -4.938,-3.43C-5.027,-3.817 -5.131,-4.201 -5.236,-4.584C-5.822,-6.705 -5.048,-8.618 -4.297,-10.522C-3.924,-11.469 -3.512,-12.414 -3.001,-13.291C-2.496,-14.155 -1.758,-14.877 -0.816,-15.243C-0.254,-15.462 0.123,-15.747 0.3,-16.293C0.749,-17.665 2.383,-18.194 3.451,-17.95C4.087,-17.805 4.705,-17.466 5.251,-17.097C5.697,-16.793 6.102,-16.696 6.608,-16.814C7.719,-17.074 8.714,-16.652 9.682,-16.207C10.288,-15.931 10.869,-15.574 11.41,-15.182C11.973,-14.775 12.507,-14.315 12.994,-13.819C13.555,-13.247 14.112,-12.652 14.552,-11.989C14.901,-11.464 15.064,-10.818 15.321,-10.231C15.786,-9.174 15.863,-8.022 15.892,-6.919C15.933,-5.354 15.734,-3.778 15.559,-2.216C15.509,-1.756 15.199,-1.322 14.996,-0.882C14.272,0.684 13.191,1.905 11.588,2.613C10.85,2.94 10.131,3.358 9.357,3.548C8.321,3.801 7.24,3.872 6.179,4.021C6.176,3.967 6.173,3.914 6.169,3.859" style="fill:rgb(35,31,32);fill-rule:nonzero;"/>
            </g>
            <g transform="matrix(4.16667,0,0,4.16667,2039.24,853.938)">
                <path d="M0,-14.166C0.191,-13.259 0.459,-12.595 1.47,-12.854C1.665,-13.188 1.792,-13.461 1.469,-13.904C0.775,-14.857 1.426,-16.55 2.556,-16.78C2.943,-16.859 3.419,-16.757 3.794,-16.597C4.353,-16.356 5.019,-16.226 5.121,-15.375C5.176,-14.93 5.551,-14.524 5.81,-14.047C6.541,-14.404 6.369,-15.052 6.385,-15.742C6.804,-15.705 7.251,-15.755 7.624,-15.614C8.629,-15.234 9.611,-14.791 10.587,-14.341C11.352,-13.989 11.981,-13.482 12.37,-12.693C12.543,-12.34 12.794,-11.984 13.102,-11.749C13.547,-11.408 13.61,-10.898 13.851,-10.467C14.413,-9.46 14.471,-8.316 14.731,-7.231C14.852,-6.726 14.833,-6.151 14.735,-5.635C14.504,-4.401 14.242,-3.168 13.885,-1.966C13.723,-1.419 13.343,-0.922 12.995,-0.451C12.629,0.046 12.213,0.513 11.77,0.944C10.843,1.845 9.624,2.146 8.416,2.391C7.528,2.572 6.607,2.627 5.698,2.669C5.207,2.693 4.7,2.61 4.215,2.504C3.258,2.295 2.224,2.203 1.377,1.762C-0.208,0.938 -1.747,-0.028 -2.503,-1.801C-2.562,-1.94 -2.704,-2.047 -2.817,-2.156C-2.931,-2.269 -3.101,-2.344 -3.172,-2.476C-3.749,-3.544 -4.228,-4.628 -4.198,-5.899C-4.168,-7.14 -3.772,-8.248 -3.228,-9.325C-2.767,-10.235 -2.349,-11.174 -1.8,-12.028C-1.331,-12.755 -0.868,-13.523 0,-14.166" style="fill:rgb(140,198,63);fill-rule:nonzero;"/>
            </g>
            <g transform="matrix(4.16667,0,0,4.16667,2086.33,849.553)">
                <path d="M0,-9.931C0,-9.931 3.423,-4.332 0.792,-0.11C-1.84,4.112 -1.627,-8.334 -2.472,-9.372C-3.315,-10.41 -2.489,-14.043 0,-9.931" style="fill:rgb(157,204,77);fill-rule:nonzero;"/>
            </g>
        </g>
    </g>
</svg>
