<?xml version="1.0" encoding="UTF-8" standalone="no"?>
<!DOCTYPE svg PUBLIC "-//W3C//DTD SVG 1.1//EN" "http://www.w3.org/Graphics/SVG/1.1/DTD/svg11.dtd">
<svg width="100%" height="100%" viewBox="0 0 133 112" version="1.1" xmlns="http://www.w3.org/2000/svg" xmlns:xlink="http://www.w3.org/1999/xlink" xml:space="preserve" xmlns:serif="http://www.serif.com/" style="fill-rule:evenodd;clip-rule:evenodd;stroke-linejoin:round;stroke-miterlimit:4.32;">
    <g transform="matrix(1,0,0,1,-932,-1230)">
        <g transform="matrix(1,0,0,1,-329.411,-242.285)">
            <g transform="matrix(4.16667,0,0,4.16667,0,0)">
                <path d="M304.984,377.964L304.984,375.796L309.32,375.796L309.32,358.687L304.984,359.771L304.984,357.544L312.22,355.742L312.22,375.796L316.556,375.796L316.556,377.964L304.984,377.964Z" style="fill:none;fill-rule:nonzero;stroke:rgb(116,73,157);stroke-width:4.32px;"/>
                <path d="M319.403,377.964L319.403,375.43C320.242,373.467 321.942,371.328 324.5,369.014L326.156,367.534C328.284,365.61 329.349,363.701 329.349,361.807C329.349,360.596 328.985,359.644 328.258,358.95C327.53,358.257 326.532,357.91 325.262,357.91C323.758,357.91 321.986,358.491 319.945,359.653L319.945,357.105C321.868,356.196 323.778,355.742 325.672,355.742C327.703,355.742 329.334,356.289 330.565,357.383C331.795,358.477 332.41,359.927 332.41,361.733C332.41,363.032 332.1,364.185 331.48,365.19C330.86,366.196 329.705,367.417 328.016,368.853L326.903,369.805C324.588,371.768 323.25,373.643 322.889,375.43L332.308,375.43L332.308,377.964L319.403,377.964Z" style="fill:none;fill-rule:nonzero;stroke:rgb(116,73,157);stroke-width:4.32px;"/>
            </g>
            <g transform="matrix(125,0,0,125,1251.97,1574.85)">
                <path d="M0.15,-0L0.15,-0.072L0.295,-0.072L0.295,-0.643L0.15,-0.606L0.15,-0.681L0.392,-0.741L0.392,-0.072L0.536,-0.072L0.536,-0L0.15,-0Z" style="fill:rgb(186,168,209);fill-rule:nonzero;"/>
            </g>
            <g transform="matrix(125,0,0,125,1322.84,1574.85)">
                <path d="M0.083,-0L0.083,-0.084C0.111,-0.15 0.168,-0.221 0.253,-0.298L0.308,-0.348C0.379,-0.412 0.415,-0.475 0.415,-0.539C0.415,-0.579 0.402,-0.611 0.378,-0.634C0.354,-0.657 0.321,-0.668 0.278,-0.668C0.228,-0.668 0.169,-0.649 0.101,-0.61L0.101,-0.695C0.165,-0.726 0.229,-0.741 0.292,-0.741C0.36,-0.741 0.414,-0.722 0.455,-0.686C0.496,-0.65 0.517,-0.601 0.517,-0.541C0.517,-0.498 0.506,-0.459 0.486,-0.426C0.465,-0.392 0.426,-0.352 0.37,-0.304L0.333,-0.272C0.256,-0.207 0.211,-0.144 0.199,-0.084L0.513,-0.084L0.513,-0L0.083,-0Z" style="fill:rgb(186,168,209);fill-rule:nonzero;"/>
            </g>
        </g>
    </g>
</svg>
