<?xml version="1.0" encoding="UTF-8" standalone="no"?>
<!DOCTYPE svg PUBLIC "-//W3C//DTD SVG 1.1//EN" "http://www.w3.org/Graphics/SVG/1.1/DTD/svg11.dtd">
<svg width="100%" height="100%" viewBox="0 0 147 114" version="1.1" xmlns="http://www.w3.org/2000/svg" xmlns:xlink="http://www.w3.org/1999/xlink" xml:space="preserve" xmlns:serif="http://www.serif.com/" style="fill-rule:evenodd;clip-rule:evenodd;stroke-linejoin:round;stroke-miterlimit:4.32;">
    <g transform="matrix(1,0,0,1,-1371,-1183)">
        <g transform="matrix(4.16667,0,0,4.16667,-205.729,-289.709)">
            <path d="M380.579,377.964L380.579,375.796L384.915,375.796L384.915,358.687L380.579,359.771L380.579,357.544L387.815,355.742L387.815,375.796L392.151,375.796L392.151,377.964L380.579,377.964Z" style="fill:none;fill-rule:nonzero;stroke:rgb(246,139,30);stroke-width:4.32px;"/>
            <path d="M403.682,378.506C401.445,378.506 399.636,377.454 398.254,375.349C396.873,373.245 396.182,370.498 396.182,367.109C396.182,363.691 396.877,360.942 398.269,358.862C399.661,356.782 401.494,355.742 403.77,355.742C406.045,355.742 407.878,356.782 409.27,358.862C410.662,360.942 411.357,363.677 411.357,367.065C411.357,370.542 410.662,373.318 409.27,375.393C407.878,377.468 406.016,378.506 403.682,378.506ZM403.711,376.338C406.768,376.338 408.296,373.232 408.296,367.022C408.296,360.947 406.787,357.91 403.77,357.91C400.762,357.91 399.258,360.977 399.258,367.109C399.258,373.262 400.742,376.338 403.711,376.338Z" style="fill:none;fill-rule:nonzero;stroke:rgb(246,139,30);stroke-width:4.32px;"/>
            <g>
                <g>
                    <g transform="matrix(30,0,0,30,376.068,377.964)">
                        <path d="M0.15,-0L0.15,-0.072L0.295,-0.072L0.295,-0.643L0.15,-0.606L0.15,-0.681L0.392,-0.741L0.392,-0.072L0.536,-0.072L0.536,-0L0.15,-0Z" style="fill:rgb(253,205,157);fill-rule:nonzero;"/>
                    </g>
                    <g transform="matrix(30,0,0,30,394.218,377.964)">
                        <path d="M0.313,0.018C0.239,0.018 0.179,-0.017 0.133,-0.087C0.087,-0.157 0.063,-0.249 0.063,-0.362C0.063,-0.476 0.087,-0.567 0.133,-0.637C0.179,-0.706 0.241,-0.741 0.316,-0.741C0.392,-0.741 0.453,-0.706 0.5,-0.637C0.546,-0.567 0.569,-0.476 0.569,-0.363C0.569,-0.247 0.546,-0.155 0.5,-0.086C0.453,-0.017 0.391,0.018 0.313,0.018ZM0.314,-0.054C0.416,-0.054 0.467,-0.158 0.467,-0.365C0.467,-0.567 0.417,-0.668 0.316,-0.668C0.216,-0.668 0.166,-0.566 0.166,-0.362C0.166,-0.157 0.215,-0.054 0.314,-0.054Z" style="fill:rgb(253,205,157);fill-rule:nonzero;"/>
                    </g>
                </g>
            </g>
        </g>
    </g>
</svg>
