<?xml version="1.0" encoding="UTF-8" standalone="no"?>
<!DOCTYPE svg PUBLIC "-//W3C//DTD SVG 1.1//EN" "http://www.w3.org/Graphics/SVG/1.1/DTD/svg11.dtd">
<svg width="100%" height="100%" viewBox="0 0 79 114" version="1.1" xmlns="http://www.w3.org/2000/svg" xmlns:xlink="http://www.w3.org/1999/xlink" xml:space="preserve" xmlns:serif="http://www.serif.com/" style="fill-rule:evenodd;clip-rule:evenodd;stroke-linejoin:round;stroke-miterlimit:4.32;">
    <g transform="matrix(1,0,0,1,-1823,-1278)">
        <g transform="matrix(1,0,0,1,-102.946,-194.8)">
            <g transform="matrix(4.16667,0,0,4.16667,2.36848e-13,2.36848e-13)">
                <path d="M468.783,366.157C466.664,364.683 465.604,363.052 465.604,361.265C465.604,359.624 466.205,358.291 467.406,357.266C468.607,356.24 470.174,355.728 472.108,355.728C473.895,355.728 475.343,356.162 476.451,357.031C477.56,357.9 478.114,359.028 478.114,360.415C478.114,362.515 476.766,364.429 474.071,366.157C477.342,367.759 478.978,369.824 478.978,372.354C478.978,374.17 478.292,375.649 476.92,376.792C475.548,377.935 473.778,378.506 471.61,378.506C469.481,378.506 467.76,377.966 466.446,376.887C465.133,375.808 464.476,374.39 464.476,372.632C464.476,370.034 465.912,367.876 468.783,366.157ZM472.46,365.249C474.481,363.921 475.492,362.441 475.492,360.811C475.492,359.941 475.155,359.241 474.481,358.709C473.807,358.176 472.919,357.91 471.815,357.91C470.751,357.91 469.886,358.171 469.222,358.694C468.558,359.216 468.226,359.893 468.226,360.723C468.226,361.533 468.526,362.258 469.127,362.898C469.728,363.538 470.838,364.321 472.46,365.249ZM470.35,367.329C469.188,368.228 468.4,369.011 467.984,369.68C467.569,370.349 467.362,371.182 467.362,372.178C467.362,373.418 467.762,374.421 468.563,375.188C469.364,375.955 470.419,376.338 471.727,376.338C472.987,376.338 474.015,376.011 474.811,375.356C475.607,374.702 476.004,373.853 476.004,372.808C476.004,371.968 475.758,371.257 475.265,370.676C474.772,370.095 473.817,369.385 472.401,368.545L470.35,367.329Z" style="fill:none;fill-rule:nonzero;stroke:rgb(113,191,68);stroke-width:4.32px;"/>
            </g>
            <g transform="matrix(125,0,0,125,1924.52,1574.85)">
                <path d="M0.23,-0.394C0.159,-0.443 0.124,-0.497 0.124,-0.557C0.124,-0.611 0.144,-0.656 0.184,-0.69C0.224,-0.724 0.276,-0.741 0.341,-0.741C0.4,-0.741 0.449,-0.727 0.486,-0.698C0.523,-0.669 0.541,-0.631 0.541,-0.585C0.541,-0.515 0.496,-0.451 0.406,-0.394C0.515,-0.34 0.57,-0.271 0.57,-0.187C0.57,-0.126 0.547,-0.077 0.501,-0.039C0.455,-0.001 0.396,0.018 0.324,0.018C0.253,0.018 0.196,0 0.152,-0.036C0.108,-0.072 0.086,-0.119 0.086,-0.178C0.086,-0.264 0.134,-0.336 0.23,-0.394ZM0.353,-0.424C0.42,-0.468 0.454,-0.517 0.454,-0.572C0.454,-0.601 0.442,-0.624 0.42,-0.642C0.397,-0.66 0.368,-0.668 0.331,-0.668C0.296,-0.668 0.267,-0.66 0.245,-0.642C0.222,-0.625 0.211,-0.602 0.211,-0.575C0.211,-0.548 0.221,-0.524 0.241,-0.502C0.261,-0.481 0.299,-0.455 0.353,-0.424ZM0.282,-0.354C0.243,-0.325 0.217,-0.298 0.203,-0.276C0.19,-0.254 0.183,-0.226 0.183,-0.193C0.183,-0.152 0.196,-0.118 0.223,-0.093C0.249,-0.067 0.285,-0.054 0.328,-0.054C0.37,-0.054 0.404,-0.065 0.431,-0.087C0.457,-0.109 0.471,-0.137 0.471,-0.172C0.471,-0.2 0.462,-0.224 0.446,-0.243C0.43,-0.262 0.398,-0.286 0.351,-0.314L0.282,-0.354Z" style="fill:rgb(197,225,174);fill-rule:nonzero;"/>
            </g>
        </g>
    </g>
</svg>
