<?xml version="1.0" encoding="UTF-8" standalone="no"?>
<!DOCTYPE svg PUBLIC "-//W3C//DTD SVG 1.1//EN" "http://www.w3.org/Graphics/SVG/1.1/DTD/svg11.dtd">
<svg width="100%" height="100%" viewBox="0 0 258 208" version="1.1" xmlns="http://www.w3.org/2000/svg" xmlns:xlink="http://www.w3.org/1999/xlink" xml:space="preserve" xmlns:serif="http://www.serif.com/" style="fill-rule:evenodd;clip-rule:evenodd;">
    <g transform="matrix(1,0,0,1,-302,-1742)">
        <g>
            <g transform="matrix(4.16667,0,0,4.16667,0,0)">
                <path d="M80.797,458.959L80.797,455.242L87.156,455.242L87.156,431.781L80.797,433.371L80.797,429.547L93.537,426.367L93.537,455.242L99.897,455.242L99.897,458.959L80.797,458.959Z" style="fill:none;fill-rule:nonzero;stroke:rgb(246,139,30);stroke-width:4px;"/>
                <path d="M113.667,459.754C110.057,459.754 107.125,458.207 104.869,455.113C102.613,452.02 101.485,448.002 101.485,443.061C101.485,438.062 102.617,434.03 104.88,430.965C107.143,427.9 110.122,426.367 113.817,426.367C117.484,426.367 120.452,427.896 122.722,430.954C124.992,434.012 126.128,438.019 126.128,442.975C126.128,448.059 124.992,452.127 122.722,455.178C120.452,458.229 117.434,459.754 113.667,459.754ZM113.731,455.779C117.498,455.779 119.381,451.54 119.381,443.061C119.381,434.581 117.527,430.342 113.817,430.342C110.107,430.342 108.253,434.574 108.253,443.039C108.253,451.533 110.079,455.779 113.731,455.779Z" style="fill:none;fill-rule:nonzero;stroke:rgb(246,139,30);stroke-width:4px;"/>
            </g>
            <g transform="matrix(4.16667,0,0,4.16667,0,0)">
                <g transform="matrix(44,0,0,44,74.6096,458.959)">
                    <path d="M0.141,-0L0.141,-0.084L0.285,-0.084L0.285,-0.618L0.141,-0.582L0.141,-0.668L0.43,-0.741L0.43,-0.084L0.575,-0.084L0.575,-0L0.141,-0Z" style="fill:rgb(254,228,202);fill-rule:nonzero;"/>
                </g>
                <g transform="matrix(44,0,0,44,99.2936,458.959)">
                    <path d="M0.327,0.018C0.245,0.018 0.178,-0.017 0.127,-0.087C0.075,-0.158 0.05,-0.249 0.05,-0.361C0.05,-0.475 0.076,-0.567 0.127,-0.636C0.178,-0.706 0.246,-0.741 0.33,-0.741C0.413,-0.741 0.481,-0.706 0.532,-0.636C0.584,-0.567 0.61,-0.476 0.61,-0.363C0.61,-0.248 0.584,-0.155 0.532,-0.086C0.481,-0.017 0.412,0.018 0.327,0.018ZM0.328,-0.072C0.414,-0.072 0.457,-0.169 0.457,-0.361C0.457,-0.554 0.414,-0.65 0.33,-0.65C0.246,-0.65 0.204,-0.554 0.204,-0.362C0.204,-0.169 0.245,-0.072 0.328,-0.072Z" style="fill:rgb(254,228,202);fill-rule:nonzero;"/>
                </g>
            </g>
        </g>
    </g>
</svg>
