<?xml version="1.0" encoding="UTF-8" standalone="no"?>
<!DOCTYPE svg PUBLIC "-//W3C//DTD SVG 1.1//EN" "http://www.w3.org/Graphics/SVG/1.1/DTD/svg11.dtd">
<svg width="100%" height="100%" viewBox="0 0 168 208" version="1.1" xmlns="http://www.w3.org/2000/svg" xmlns:xlink="http://www.w3.org/1999/xlink" xml:space="preserve" xmlns:serif="http://www.serif.com/" style="fill-rule:evenodd;clip-rule:evenodd;">
    <g transform="matrix(1,0,0,1,-911,-1742)">
        <g>
            <g transform="matrix(4.16667,0,0,4.16667,1.18424e-13,2.36848e-13)">
                <path d="M233.421,441.922C230.356,439.902 228.824,437.468 228.824,434.617C228.824,432.154 229.79,430.159 231.724,428.634C233.658,427.109 236.193,426.346 239.33,426.346C242.28,426.346 244.64,426.998 246.409,428.301C248.178,429.604 249.062,431.345 249.062,433.522C249.062,436.329 247.272,438.986 243.691,441.492C248.217,443.856 250.48,446.828 250.48,450.408C250.48,453.201 249.377,455.457 247.171,457.176C244.966,458.895 242.072,459.754 238.492,459.754C235.068,459.754 232.308,458.966 230.209,457.391C228.111,455.815 227.062,453.738 227.062,451.16C227.062,447.422 229.182,444.343 233.421,441.922ZM240.382,439.688C242.502,438.04 243.562,436.279 243.562,434.402C243.562,433.171 243.125,432.186 242.251,431.448C241.378,430.711 240.225,430.342 238.792,430.342C237.46,430.342 236.383,430.664 235.559,431.309C234.735,431.953 234.324,432.798 234.324,433.844C234.324,434.875 234.732,435.781 235.548,436.562C236.365,437.342 237.976,438.384 240.382,439.688ZM236.558,444.049C234.252,445.968 233.099,447.995 233.099,450.129C233.099,451.79 233.676,453.158 234.829,454.233C235.982,455.307 237.446,455.844 239.222,455.844C240.783,455.844 242.09,455.421 243.143,454.576C244.196,453.731 244.722,452.679 244.722,451.418C244.722,450.33 244.368,449.399 243.659,448.625C242.95,447.852 241.571,446.885 239.523,445.725L236.558,444.049Z" style="fill:none;fill-rule:nonzero;stroke:rgb(113,191,68);stroke-width:4px;"/>
            </g>
            <g transform="matrix(183.333,0,0,183.333,933.38,1912.33)">
                <path d="M0.214,-0.387C0.144,-0.433 0.109,-0.488 0.109,-0.553C0.109,-0.609 0.131,-0.655 0.175,-0.689C0.219,-0.724 0.277,-0.741 0.348,-0.741C0.415,-0.741 0.469,-0.726 0.509,-0.697C0.549,-0.667 0.569,-0.628 0.569,-0.578C0.569,-0.514 0.529,-0.454 0.447,-0.397C0.55,-0.343 0.602,-0.276 0.602,-0.194C0.602,-0.131 0.576,-0.08 0.526,-0.041C0.476,-0.001 0.41,0.018 0.329,0.018C0.251,0.018 0.189,0 0.141,-0.036C0.093,-0.071 0.069,-0.119 0.069,-0.177C0.069,-0.262 0.118,-0.332 0.214,-0.387ZM0.372,-0.438C0.42,-0.475 0.444,-0.515 0.444,-0.558C0.444,-0.586 0.434,-0.608 0.415,-0.625C0.395,-0.642 0.368,-0.65 0.336,-0.65C0.306,-0.65 0.281,-0.643 0.262,-0.628C0.244,-0.614 0.234,-0.595 0.234,-0.571C0.234,-0.547 0.244,-0.527 0.262,-0.509C0.281,-0.491 0.317,-0.468 0.372,-0.438ZM0.285,-0.339C0.233,-0.295 0.207,-0.249 0.207,-0.201C0.207,-0.163 0.22,-0.132 0.246,-0.107C0.272,-0.083 0.305,-0.071 0.346,-0.071C0.381,-0.071 0.411,-0.08 0.435,-0.1C0.459,-0.119 0.471,-0.143 0.471,-0.171C0.471,-0.196 0.463,-0.217 0.447,-0.235C0.43,-0.252 0.399,-0.274 0.353,-0.301L0.285,-0.339Z" style="fill:rgb(224,239,212);fill-rule:nonzero;"/>
            </g>
        </g>
    </g>
</svg>
