<?xml version="1.0" encoding="UTF-8" standalone="no"?>
<!DOCTYPE svg PUBLIC "-//W3C//DTD SVG 1.1//EN" "http://www.w3.org/Graphics/SVG/1.1/DTD/svg11.dtd">
<svg width="100%" height="100%" viewBox="0 0 170 208" version="1.1" xmlns="http://www.w3.org/2000/svg" xmlns:xlink="http://www.w3.org/1999/xlink" xml:space="preserve" xmlns:serif="http://www.serif.com/" style="fill-rule:evenodd;clip-rule:evenodd;">
    <g transform="matrix(1,0,0,1,-2052,-1742)">
        <g>
            <g transform="matrix(4.16667,0,0,4.16667,2.36848e-13,2.36848e-13)">
                <path d="M502.6,458.723L502.6,454.125C505.307,455.228 507.835,455.779 510.184,455.779C512.69,455.779 514.67,454.737 516.124,452.653C517.578,450.569 518.305,447.73 518.305,444.135C516.285,446.555 513.793,447.766 510.828,447.766C508.035,447.766 505.686,446.799 503.781,444.865C501.876,442.932 500.924,440.547 500.924,437.711C500.924,434.402 502.002,431.685 504.157,429.558C506.313,427.431 509.067,426.367 512.418,426.367C516.343,426.367 519.418,427.764 521.646,430.557C523.873,433.35 524.986,437.203 524.986,442.115C524.986,447.615 523.676,451.93 521.055,455.06C518.434,458.189 514.817,459.754 510.205,459.754C508.243,459.754 505.708,459.41 502.6,458.723ZM507.283,436.723C507.283,438.929 507.76,440.669 508.712,441.943C509.665,443.218 510.957,443.856 512.59,443.856C514.137,443.856 515.44,443.276 516.5,442.115C517.56,440.955 518.09,439.53 518.09,437.84C518.09,435.591 517.571,433.779 516.532,432.404C515.494,431.029 514.13,430.342 512.44,430.342C510.864,430.342 509.611,430.915 508.68,432.061C507.749,433.206 507.283,434.761 507.283,436.723Z" style="fill:none;fill-rule:nonzero;stroke:rgb(0,183,198);stroke-width:4px;"/>
            </g>
            <g transform="matrix(183.333,0,0,183.333,2075.55,1912.33)">
                <path d="M0.102,-0.005L0.102,-0.11C0.163,-0.085 0.221,-0.072 0.274,-0.072C0.331,-0.072 0.376,-0.096 0.409,-0.143C0.442,-0.191 0.458,-0.255 0.458,-0.337C0.413,-0.282 0.356,-0.254 0.289,-0.254C0.225,-0.254 0.172,-0.276 0.128,-0.32C0.085,-0.364 0.063,-0.418 0.063,-0.483C0.063,-0.558 0.088,-0.62 0.137,-0.668C0.186,-0.717 0.249,-0.741 0.325,-0.741C0.414,-0.741 0.484,-0.709 0.534,-0.646C0.585,-0.582 0.61,-0.494 0.61,-0.383C0.61,-0.258 0.581,-0.16 0.521,-0.089C0.461,-0.017 0.379,0.018 0.274,0.018C0.23,0.018 0.172,0.01 0.102,-0.005ZM0.208,-0.505C0.208,-0.455 0.219,-0.416 0.24,-0.387C0.262,-0.358 0.292,-0.343 0.329,-0.343C0.364,-0.343 0.393,-0.356 0.417,-0.383C0.442,-0.409 0.454,-0.442 0.454,-0.48C0.454,-0.531 0.442,-0.572 0.418,-0.604C0.395,-0.635 0.364,-0.65 0.325,-0.65C0.289,-0.65 0.261,-0.637 0.24,-0.611C0.219,-0.585 0.208,-0.55 0.208,-0.505Z" style="fill:rgb(211,237,241);fill-rule:nonzero;"/>
            </g>
        </g>
    </g>
</svg>
