<?xml version="1.0" encoding="UTF-8" standalone="no"?>
<!DOCTYPE svg PUBLIC "-//W3C//DTD SVG 1.1//EN" "http://www.w3.org/Graphics/SVG/1.1/DTD/svg11.dtd">
<svg width="100%" height="100%" viewBox="0 0 955 241" version="1.1" xmlns="http://www.w3.org/2000/svg" xmlns:xlink="http://www.w3.org/1999/xlink" xml:space="preserve" xmlns:serif="http://www.serif.com/" style="fill-rule:evenodd;clip-rule:evenodd;stroke-linecap:round;">
    <g transform="matrix(1,0,0,1,-269,-2320)">
        <g>
            <g transform="matrix(183.333,0,0,183.333,722.244,2491.56)">
                <path d="M0.355,-0L0.355,-0.247L0.108,-0.247L0.108,-0.332L0.355,-0.332L0.355,-0.578L0.44,-0.578L0.44,-0.332L0.687,-0.332L0.687,-0.247L0.44,-0.247L0.44,-0L0.355,-0Z" style="fill:rgb(173,155,113);fill-rule:nonzero;"/>
            </g>
            <g transform="matrix(4.16667,0,0,4.16667,503.688,2367.29)">
                <path d="M0,38.889C25.87,38.889 46.843,30.184 46.843,19.446C46.843,8.705 25.87,0 0,0C-25.87,0 -46.843,8.705 -46.843,19.446C-46.843,30.184 -25.87,38.889 0,38.889" style="fill:rgb(240,236,227);fill-rule:nonzero;"/>
            </g>
            <g transform="matrix(4.16667,0,0,4.16667,453.342,2476.59)">
                <path d="M0,-15.16C-1.048,-16.103 -3.397,-15.415 -5.248,-13.621C-5.802,-13.084 -6.246,-12.51 -6.571,-11.943L-18.042,-8.653C-18.619,-8.962 -19.3,-9.214 -20.054,-9.376C-22.574,-9.916 -24.931,-9.255 -25.319,-7.899C-25.708,-6.545 -23.979,-5.009 -21.459,-4.47C-21.347,-4.445 -21.235,-4.426 -21.124,-4.407C-23.021,-3.083 -23.979,-1.287 -23.28,-0.22C-22.519,0.943 -20.084,0.8 -17.843,-0.539C-16.543,-1.316 -15.598,-2.322 -15.178,-3.259L-6.142,-5.849C-5.29,-5.278 -3.954,-4.927 -2.441,-4.956C0.169,-5.008 2.31,-6.178 2.34,-7.566C2.367,-8.843 0.603,-9.857 -1.708,-9.974C-1.623,-10.05 -1.539,-10.126 -1.456,-10.205C0.395,-11.998 1.047,-14.216 0,-15.16" style="fill:rgb(232,207,228);fill-rule:nonzero;"/>
            </g>
            <g transform="matrix(4.16667,0,0,4.16667,453.342,2476.59)">
                <path d="M0,-15.16C-1.048,-16.103 -3.397,-15.415 -5.248,-13.621C-5.802,-13.084 -6.246,-12.51 -6.571,-11.943L-18.042,-8.653C-18.619,-8.962 -19.3,-9.214 -20.054,-9.376C-22.574,-9.916 -24.931,-9.255 -25.319,-7.899C-25.708,-6.545 -23.979,-5.009 -21.459,-4.47C-21.347,-4.445 -21.235,-4.426 -21.124,-4.407C-23.021,-3.083 -23.979,-1.287 -23.28,-0.22C-22.519,0.943 -20.084,0.8 -17.843,-0.539C-16.543,-1.316 -15.598,-2.322 -15.178,-3.259L-6.142,-5.849C-5.29,-5.278 -3.954,-4.927 -2.441,-4.956C0.169,-5.008 2.31,-6.178 2.34,-7.566C2.367,-8.843 0.603,-9.857 -1.708,-9.974C-1.623,-10.05 -1.539,-10.126 -1.456,-10.205C0.395,-11.998 1.047,-14.216 0,-15.16Z" style="fill:none;fill-rule:nonzero;stroke:rgb(215,165,203);stroke-width:1.44px;"/>
            </g>
            <g transform="matrix(4.16667,0,0,4.16667,584.342,2466.25)">
                <path d="M0,-3.578C-0.528,-4.885 -2.941,-5.296 -5.391,-4.495C-6.124,-4.256 -6.775,-3.934 -7.316,-3.567L-19.068,-5.64C-19.451,-6.17 -19.952,-6.694 -20.559,-7.17C-22.587,-8.76 -24.996,-9.199 -25.939,-8.151C-26.882,-7.103 -26.002,-4.967 -23.974,-3.377C-23.883,-3.307 -23.791,-3.238 -23.699,-3.173C-25.985,-2.815 -27.633,-1.621 -27.473,-0.354C-27.297,1.023 -25.047,1.962 -22.446,1.741C-20.937,1.612 -19.646,1.122 -18.858,0.465L-9.601,2.097C-9.085,2.984 -8.04,3.887 -6.667,4.524C-4.297,5.621 -1.861,5.508 -1.225,4.274C-0.641,3.138 -1.782,1.452 -3.807,0.334C-3.698,0.305 -3.589,0.273 -3.48,0.237C-1.03,-0.563 0.528,-2.27 0,-3.578" style="fill:rgb(232,207,228);fill-rule:nonzero;"/>
            </g>
            <g transform="matrix(4.16667,0,0,4.16667,584.342,2466.25)">
                <path d="M0,-3.578C-0.528,-4.885 -2.941,-5.296 -5.391,-4.495C-6.124,-4.256 -6.775,-3.934 -7.316,-3.567L-19.068,-5.64C-19.451,-6.17 -19.952,-6.694 -20.559,-7.17C-22.587,-8.76 -24.996,-9.199 -25.939,-8.151C-26.882,-7.103 -26.002,-4.967 -23.974,-3.377C-23.883,-3.307 -23.791,-3.238 -23.699,-3.173C-25.985,-2.815 -27.633,-1.621 -27.473,-0.354C-27.297,1.023 -25.047,1.962 -22.446,1.741C-20.937,1.612 -19.646,1.122 -18.858,0.465L-9.601,2.097C-9.085,2.984 -8.04,3.887 -6.667,4.524C-4.297,5.621 -1.861,5.508 -1.225,4.274C-0.641,3.138 -1.782,1.452 -3.807,0.334C-3.698,0.305 -3.589,0.273 -3.48,0.237C-1.03,-0.563 0.528,-2.27 0,-3.578Z" style="fill:none;fill-rule:nonzero;stroke:rgb(215,165,203);stroke-width:1.44px;"/>
            </g>
            <g transform="matrix(4.16667,0,0,4.16667,714.71,2376.05)">
                <path d="M0,19.228C0.705,18.007 -0.457,15.852 -2.597,14.415C-3.236,13.984 -3.891,13.669 -4.513,13.469L-10.115,2.933C-9.935,2.304 -9.829,1.586 -9.828,0.815C-9.823,-1.762 -10.96,-3.931 -12.366,-4.028C-13.772,-4.126 -14.915,-2.117 -14.92,0.46C-14.919,0.575 -14.915,0.688 -14.91,0.802C-16.6,-0.779 -18.555,-1.344 -19.454,-0.437C-20.432,0.549 -19.786,2.901 -18.011,4.815C-16.981,5.924 -15.8,6.64 -14.797,6.856L-10.384,15.156C-10.766,16.108 -10.833,17.488 -10.488,18.962C-9.895,21.504 -8.306,23.354 -6.941,23.095C-5.687,22.856 -5.062,20.92 -5.427,18.636C-5.336,18.703 -5.244,18.77 -5.15,18.834C-3.011,20.271 -0.705,20.448 0,19.228" style="fill:rgb(232,207,228);fill-rule:nonzero;"/>
            </g>
            <g transform="matrix(4.16667,0,0,4.16667,714.71,2376.05)">
                <path d="M0,19.228C0.705,18.007 -0.457,15.852 -2.597,14.415C-3.236,13.984 -3.891,13.669 -4.513,13.469L-10.115,2.933C-9.935,2.304 -9.829,1.586 -9.828,0.815C-9.823,-1.762 -10.96,-3.931 -12.366,-4.028C-13.772,-4.126 -14.915,-2.117 -14.92,0.46C-14.919,0.575 -14.915,0.688 -14.91,0.802C-16.6,-0.779 -18.555,-1.344 -19.454,-0.437C-20.432,0.549 -19.786,2.901 -18.011,4.815C-16.981,5.924 -15.8,6.64 -14.797,6.856L-10.384,15.156C-10.766,16.108 -10.833,17.488 -10.488,18.962C-9.895,21.504 -8.306,23.354 -6.941,23.095C-5.687,22.856 -5.062,20.92 -5.427,18.636C-5.336,18.703 -5.244,18.77 -5.15,18.834C-3.011,20.271 -0.705,20.448 0,19.228Z" style="fill:none;fill-rule:nonzero;stroke:rgb(215,165,203);stroke-width:1.44px;"/>
            </g>
            <g transform="matrix(4.16667,0,0,4.16667,513.815,2521.97)">
                <path d="M0,-3.578C-0.528,-4.885 -2.941,-5.296 -5.391,-4.495C-6.124,-4.256 -6.775,-3.934 -7.316,-3.567L-19.068,-5.64C-19.451,-6.17 -19.952,-6.694 -20.559,-7.17C-22.587,-8.76 -24.996,-9.199 -25.939,-8.151C-26.882,-7.103 -26.002,-4.967 -23.974,-3.377C-23.883,-3.307 -23.791,-3.238 -23.699,-3.173C-25.985,-2.815 -27.633,-1.621 -27.473,-0.354C-27.297,1.023 -25.047,1.962 -22.446,1.741C-20.937,1.612 -19.646,1.122 -18.858,0.465L-9.601,2.097C-9.085,2.984 -8.04,3.887 -6.667,4.524C-4.297,5.621 -1.861,5.508 -1.225,4.274C-0.641,3.138 -1.782,1.452 -3.807,0.334C-3.698,0.305 -3.589,0.273 -3.48,0.237C-1.03,-0.563 0.528,-2.27 0,-3.578" style="fill:rgb(232,207,228);fill-rule:nonzero;"/>
            </g>
            <g transform="matrix(4.16667,0,0,4.16667,513.815,2521.97)">
                <path d="M0,-3.578C-0.528,-4.885 -2.941,-5.296 -5.391,-4.495C-6.124,-4.256 -6.775,-3.934 -7.316,-3.567L-19.068,-5.64C-19.451,-6.17 -19.952,-6.694 -20.559,-7.17C-22.587,-8.76 -24.996,-9.199 -25.939,-8.151C-26.882,-7.103 -26.002,-4.967 -23.974,-3.377C-23.883,-3.307 -23.791,-3.238 -23.699,-3.173C-25.985,-2.815 -27.633,-1.621 -27.473,-0.354C-27.297,1.023 -25.047,1.962 -22.446,1.741C-20.937,1.612 -19.646,1.122 -18.858,0.465L-9.601,2.097C-9.085,2.984 -8.04,3.887 -6.667,4.524C-4.297,5.621 -1.861,5.508 -1.225,4.274C-0.641,3.138 -1.782,1.452 -3.807,0.334C-3.698,0.305 -3.589,0.273 -3.48,0.237C-1.03,-0.563 0.528,-2.27 0,-3.578Z" style="fill:none;fill-rule:nonzero;stroke:rgb(215,165,203);stroke-width:1.44px;"/>
            </g>
            <g transform="matrix(4.16667,0,0,4.16667,378.275,2451.19)">
                <path d="M0,15.006C0.46,13.673 -1.093,11.779 -3.467,10.776C-4.178,10.477 -4.879,10.292 -5.528,10.214L-13.038,0.941C-12.98,0.288 -13.014,-0.435 -13.16,-1.193C-13.647,-3.724 -15.177,-5.636 -16.576,-5.463C-17.975,-5.292 -18.713,-3.1 -18.226,-0.57C-18.204,-0.457 -18.178,-0.347 -18.151,-0.237C-20.111,-1.467 -22.139,-1.647 -22.849,-0.586C-23.62,0.569 -22.538,2.754 -20.43,4.295C-19.207,5.188 -17.91,5.664 -16.885,5.686L-10.969,12.99C-11.162,13.998 -10.965,15.365 -10.346,16.746C-9.278,19.129 -7.366,20.642 -6.075,20.127C-4.891,19.653 -4.645,17.633 -5.44,15.46C-5.338,15.509 -5.235,15.557 -5.13,15.602C-2.756,16.606 -0.459,16.339 0,15.006" style="fill:rgb(232,207,228);fill-rule:nonzero;"/>
            </g>
            <g transform="matrix(4.16667,0,0,4.16667,378.275,2451.19)">
                <path d="M0,15.006C0.46,13.673 -1.093,11.779 -3.467,10.776C-4.178,10.477 -4.879,10.292 -5.528,10.214L-13.038,0.941C-12.98,0.288 -13.014,-0.435 -13.16,-1.193C-13.647,-3.724 -15.177,-5.636 -16.576,-5.463C-17.975,-5.292 -18.713,-3.1 -18.226,-0.57C-18.204,-0.457 -18.178,-0.347 -18.151,-0.237C-20.111,-1.467 -22.139,-1.647 -22.849,-0.586C-23.62,0.569 -22.538,2.754 -20.43,4.295C-19.207,5.188 -17.91,5.664 -16.885,5.686L-10.969,12.99C-11.162,13.998 -10.965,15.365 -10.346,16.746C-9.278,19.129 -7.366,20.642 -6.075,20.127C-4.891,19.653 -4.645,17.633 -5.44,15.46C-5.338,15.509 -5.235,15.557 -5.13,15.602C-2.756,16.606 -0.459,16.339 0,15.006Z" style="fill:none;fill-rule:nonzero;stroke:rgb(215,165,203);stroke-width:1.44px;"/>
            </g>
            <g transform="matrix(4.16667,0,0,4.16667,562.744,2381.77)">
                <path d="M0,0.309C-0.34,-1.059 -2.673,-1.802 -5.211,-1.35C-5.97,-1.215 -6.659,-0.988 -7.246,-0.699L-18.595,-4.386C-18.901,-4.965 -19.324,-5.554 -19.859,-6.11C-21.646,-7.967 -23.97,-8.737 -25.05,-7.831C-26.13,-6.924 -25.556,-4.685 -23.768,-2.829C-23.688,-2.746 -23.607,-2.667 -23.525,-2.588C-25.838,-2.553 -27.637,-1.6 -27.654,-0.323C-27.672,1.065 -25.574,2.308 -22.967,2.453C-21.456,2.535 -20.109,2.229 -19.237,1.688L-10.297,4.592C-9.91,5.542 -9,6.581 -7.729,7.404C-5.536,8.819 -3.107,9.046 -2.306,7.913C-1.57,6.87 -2.465,5.041 -4.315,3.654C-4.203,3.638 -4.09,3.622 -3.977,3.602C-1.44,3.151 0.34,1.676 0,0.309" style="fill:rgb(232,207,228);fill-rule:nonzero;"/>
            </g>
            <g transform="matrix(4.16667,0,0,4.16667,562.744,2381.77)">
                <path d="M0,0.309C-0.34,-1.059 -2.673,-1.802 -5.211,-1.35C-5.97,-1.215 -6.659,-0.988 -7.246,-0.699L-18.595,-4.386C-18.901,-4.965 -19.324,-5.554 -19.859,-6.11C-21.646,-7.967 -23.97,-8.737 -25.05,-7.831C-26.13,-6.924 -25.556,-4.685 -23.768,-2.829C-23.688,-2.746 -23.607,-2.667 -23.525,-2.588C-25.838,-2.553 -27.637,-1.6 -27.654,-0.323C-27.672,1.065 -25.574,2.308 -22.967,2.453C-21.456,2.535 -20.109,2.229 -19.237,1.688L-10.297,4.592C-9.91,5.542 -9,6.581 -7.729,7.404C-5.536,8.819 -3.107,9.046 -2.306,7.913C-1.57,6.87 -2.465,5.041 -4.315,3.654C-4.203,3.638 -4.09,3.622 -3.977,3.602C-1.44,3.151 0.34,1.676 0,0.309Z" style="fill:none;fill-rule:nonzero;stroke:rgb(215,165,203);stroke-width:1.44px;"/>
            </g>
            <g transform="matrix(4.16667,0,0,4.16667,633.472,2383.61)">
                <path d="M0,24.325C1.015,23.346 0.492,20.954 -1.168,18.982C-1.665,18.393 -2.207,17.91 -2.75,17.545L-5.23,5.873C-4.883,5.319 -4.585,4.658 -4.371,3.917C-3.656,1.44 -4.151,-0.957 -5.477,-1.439C-6.801,-1.921 -8.452,-0.304 -9.167,2.172C-9.199,2.283 -9.227,2.393 -9.253,2.503C-10.44,0.517 -12.165,-0.564 -13.279,0.06C-14.491,0.738 -14.519,3.177 -13.34,5.506C-12.655,6.856 -11.718,7.87 -10.813,8.354L-8.858,17.549C-9.487,18.359 -9.933,19.667 -10.008,21.179C-10.138,23.786 -9.12,26.002 -7.738,26.129C-6.466,26.246 -5.331,24.556 -5.054,22.26C-4.984,22.35 -4.914,22.439 -4.841,22.527C-3.181,24.499 -1.014,25.304 0,24.325" style="fill:rgb(232,207,228);fill-rule:nonzero;"/>
            </g>
            <g transform="matrix(4.16667,0,0,4.16667,633.472,2383.61)">
                <path d="M0,24.325C1.015,23.346 0.492,20.954 -1.168,18.982C-1.665,18.393 -2.207,17.91 -2.75,17.545L-5.23,5.873C-4.883,5.319 -4.585,4.658 -4.371,3.917C-3.656,1.44 -4.151,-0.957 -5.477,-1.439C-6.801,-1.921 -8.452,-0.304 -9.167,2.172C-9.199,2.283 -9.227,2.393 -9.253,2.503C-10.44,0.517 -12.165,-0.564 -13.279,0.06C-14.491,0.738 -14.519,3.177 -13.34,5.506C-12.655,6.856 -11.718,7.87 -10.813,8.354L-8.858,17.549C-9.487,18.359 -9.933,19.667 -10.008,21.179C-10.138,23.786 -9.12,26.002 -7.738,26.129C-6.466,26.246 -5.331,24.556 -5.054,22.26C-4.984,22.35 -4.914,22.439 -4.841,22.527C-3.181,24.499 -1.014,25.304 0,24.325Z" style="fill:none;fill-rule:nonzero;stroke:rgb(215,165,203);stroke-width:1.44px;"/>
            </g>
            <g transform="matrix(4.16667,0,0,4.16667,536.855,2508.96)">
                <path d="M0,8.609C0.747,9.805 3.195,9.791 5.469,8.577C6.149,8.213 6.734,7.784 7.203,7.329L19.136,7.329C19.606,7.784 20.191,8.213 20.871,8.577C23.144,9.791 25.593,9.805 26.339,8.609C27.086,7.414 25.848,5.462 23.575,4.248C23.473,4.194 23.371,4.144 23.269,4.095C25.458,3.346 26.874,1.884 26.496,0.665C26.084,-0.662 23.705,-1.196 21.181,-0.527C19.718,-0.138 18.532,0.569 17.87,1.353L8.47,1.353C7.808,0.569 6.621,-0.138 5.158,-0.527C2.635,-1.196 0.255,-0.662 -0.156,0.665C-0.534,1.884 0.882,3.346 3.07,4.095C2.968,4.144 2.866,4.194 2.765,4.248C0.491,5.462 -0.747,7.414 0,8.609" style="fill:rgb(232,207,228);fill-rule:nonzero;"/>
            </g>
            <g transform="matrix(4.16667,0,0,4.16667,536.855,2508.96)">
                <path d="M0,8.609C0.747,9.805 3.195,9.791 5.469,8.577C6.149,8.213 6.734,7.784 7.203,7.329L19.136,7.329C19.606,7.784 20.191,8.213 20.871,8.577C23.144,9.791 25.593,9.805 26.339,8.609C27.086,7.414 25.848,5.462 23.575,4.248C23.473,4.194 23.371,4.144 23.269,4.095C25.458,3.346 26.874,1.884 26.496,0.665C26.084,-0.662 23.705,-1.196 21.181,-0.527C19.718,-0.138 18.532,0.569 17.87,1.353L8.47,1.353C7.808,0.569 6.621,-0.138 5.158,-0.527C2.635,-1.196 0.255,-0.662 -0.156,0.665C-0.534,1.884 0.882,3.346 3.07,4.095C2.968,4.144 2.866,4.194 2.765,4.248C0.491,5.462 -0.747,7.414 0,8.609Z" style="fill:none;fill-rule:nonzero;stroke:rgb(215,165,203);stroke-width:1.44px;"/>
            </g>
            <g transform="matrix(4.16667,0,0,4.16667,415.865,2426.33)">
                <path d="M0,-22.304C-1.308,-22.832 -3.279,-21.382 -4.406,-19.063C-4.742,-18.369 -4.962,-17.678 -5.074,-17.033L-14.729,-10.02C-15.376,-10.112 -16.103,-10.116 -16.866,-10.01C-19.419,-9.656 -21.408,-8.229 -21.31,-6.822C-21.21,-5.416 -19.062,-4.564 -16.509,-4.918C-16.396,-4.935 -16.284,-4.954 -16.172,-4.975C-17.502,-3.082 -17.788,-1.068 -16.766,-0.303C-15.653,0.528 -13.415,-0.438 -11.766,-2.463C-10.811,-3.638 -10.267,-4.907 -10.192,-5.93L-2.588,-11.455C-1.591,-11.209 -0.215,-11.335 1.196,-11.881C3.631,-12.823 5.242,-14.654 4.796,-15.969C4.386,-17.177 2.38,-17.528 0.169,-16.848C0.223,-16.947 0.275,-17.047 0.326,-17.151C1.453,-19.468 1.307,-21.776 0,-22.304" style="fill:rgb(232,207,228);fill-rule:nonzero;"/>
            </g>
            <g transform="matrix(4.16667,0,0,4.16667,415.865,2426.33)">
                <path d="M0,-22.304C-1.308,-22.832 -3.279,-21.382 -4.406,-19.063C-4.742,-18.369 -4.962,-17.678 -5.074,-17.033L-14.729,-10.02C-15.376,-10.112 -16.103,-10.116 -16.866,-10.01C-19.419,-9.656 -21.408,-8.229 -21.31,-6.822C-21.21,-5.416 -19.062,-4.564 -16.509,-4.918C-16.396,-4.935 -16.284,-4.954 -16.172,-4.975C-17.502,-3.082 -17.788,-1.068 -16.766,-0.303C-15.653,0.528 -13.415,-0.438 -11.766,-2.463C-10.811,-3.638 -10.267,-4.907 -10.192,-5.93L-2.588,-11.455C-1.591,-11.209 -0.215,-11.335 1.196,-11.881C3.631,-12.823 5.242,-14.654 4.796,-15.969C4.386,-17.177 2.38,-17.528 0.169,-16.848C0.223,-16.947 0.275,-17.047 0.326,-17.151C1.453,-19.468 1.307,-21.776 0,-22.304Z" style="fill:none;fill-rule:nonzero;stroke:rgb(215,165,203);stroke-width:1.44px;"/>
            </g>
            <g transform="matrix(4.16667,0,0,4.16667,1028.76,2369)">
                <path d="M0,38.889C25.87,38.889 46.842,30.184 46.842,19.446C46.842,8.705 25.87,0 0,0C-25.87,0 -46.843,8.705 -46.843,19.446C-46.843,30.184 -25.87,38.889 0,38.889" style="fill:rgb(240,236,227);fill-rule:nonzero;"/>
            </g>
            <g transform="matrix(-0.0694192,4.16609,4.16609,0.0694192,1015.34,2341.19)">
                <path d="M5.257,-16.954C-0.754,-11.486 5.141,-5.908 5.141,-5.908C5.141,-5.908 -1.581,-0.639 5.257,5.254C12.018,11.083 23.255,-5.553 23.255,-5.553C23.414,-5.306 11.722,-22.837 5.257,-16.954" style="fill:rgb(246,150,121);fill-rule:nonzero;"/>
            </g>
            <g transform="matrix(-0.0694192,4.16609,4.16609,0.0694192,1015.34,2341.19)">
                <path d="M5.257,-16.954C-0.754,-11.486 5.141,-5.908 5.141,-5.908C5.141,-5.908 -1.581,-0.639 5.257,5.254C12.018,11.083 23.255,-5.553 23.255,-5.553C23.414,-5.306 11.722,-22.837 5.257,-16.954Z" style="fill:none;fill-rule:nonzero;stroke:rgb(251,196,175);stroke-width:1.44px;"/>
            </g>
            <g transform="matrix(-0.0694192,4.16609,4.16609,0.0694192,1145.48,2331.93)">
                <path d="M5.257,-16.954C-0.754,-11.486 5.141,-5.908 5.141,-5.908C5.141,-5.908 -1.581,-0.639 5.257,5.254C12.018,11.083 23.255,-5.553 23.255,-5.553C23.414,-5.306 11.722,-22.837 5.257,-16.954" style="fill:rgb(246,150,121);fill-rule:nonzero;"/>
            </g>
            <g transform="matrix(-0.0694192,4.16609,4.16609,0.0694192,1145.48,2331.93)">
                <path d="M5.257,-16.954C-0.754,-11.486 5.141,-5.908 5.141,-5.908C5.141,-5.908 -1.581,-0.639 5.257,5.254C12.018,11.083 23.255,-5.553 23.255,-5.553C23.414,-5.306 11.722,-22.837 5.257,-16.954Z" style="fill:none;fill-rule:nonzero;stroke:rgb(251,196,175);stroke-width:1.44px;"/>
            </g>
            <g transform="matrix(-0.0694192,4.16609,4.16609,0.0694192,1103.97,2428.91)">
                <path d="M5.257,-16.954C-0.754,-11.486 5.141,-5.908 5.141,-5.908C5.141,-5.908 -1.581,-0.639 5.257,5.254C12.018,11.083 23.255,-5.553 23.255,-5.553C23.414,-5.306 11.722,-22.837 5.257,-16.954" style="fill:rgb(246,150,121);fill-rule:nonzero;"/>
            </g>
            <g transform="matrix(-0.0694192,4.16609,4.16609,0.0694192,1103.97,2428.91)">
                <path d="M5.257,-16.954C-0.754,-11.486 5.141,-5.908 5.141,-5.908C5.141,-5.908 -1.581,-0.639 5.257,5.254C12.018,11.083 23.255,-5.553 23.255,-5.553C23.414,-5.306 11.722,-22.837 5.257,-16.954Z" style="fill:none;fill-rule:nonzero;stroke:rgb(251,196,175);stroke-width:1.44px;"/>
            </g>
            <g transform="matrix(-0.0694192,4.16609,4.16609,0.0694192,954.028,2443.94)">
                <path d="M5.257,-16.954C-0.754,-11.486 5.141,-5.908 5.141,-5.908C5.141,-5.908 -1.581,-0.639 5.257,5.254C12.018,11.083 23.255,-5.553 23.255,-5.553C23.414,-5.306 11.722,-22.837 5.257,-16.954" style="fill:rgb(246,150,121);fill-rule:nonzero;"/>
            </g>
            <g transform="matrix(-0.0694192,4.16609,4.16609,0.0694192,954.028,2443.94)">
                <path d="M5.257,-16.954C-0.754,-11.486 5.141,-5.908 5.141,-5.908C5.141,-5.908 -1.581,-0.639 5.257,5.254C12.018,11.083 23.255,-5.553 23.255,-5.553C23.414,-5.306 11.722,-22.837 5.257,-16.954Z" style="fill:none;fill-rule:nonzero;stroke:rgb(251,196,175);stroke-width:1.44px;"/>
            </g>
        </g>
    </g>
</svg>
