<?xml version="1.0" encoding="UTF-8" standalone="no"?>
<!DOCTYPE svg PUBLIC "-//W3C//DTD SVG 1.1//EN" "http://www.w3.org/Graphics/SVG/1.1/DTD/svg11.dtd">
<svg width="100%" height="100%" viewBox="0 0 572 255" version="1.1" xmlns="http://www.w3.org/2000/svg" xmlns:xlink="http://www.w3.org/1999/xlink" xml:space="preserve" xmlns:serif="http://www.serif.com/" style="fill-rule:evenodd;clip-rule:evenodd;">
    <g transform="matrix(1,0,0,1,-1592,-2324)">
        <g transform="matrix(1,0,0,1,68.5996,11.2159)">
            <g transform="matrix(4.16667,0,0,4.16667,1971.01,2371.11)">
                <path d="M0,39.779C13.76,39.779 24.916,30.873 24.916,19.888C24.916,8.904 13.76,0 0,0C-13.76,0 -24.916,8.904 -24.916,19.888C-24.916,30.873 -13.76,39.779 0,39.779" style="fill:rgb(240,236,227);fill-rule:nonzero;"/>
            </g>
            <g transform="matrix(4.16667,0,0,4.16667,1933.83,2382.79)">
                <path d="M0,-3.069L3.062,-3.609L-4.027,-11.803L-7.885,-1.679L-4.823,-2.218L-8.041,8.734L6.77,6.122L0,-3.069Z" style="fill:rgb(183,218,155);fill-rule:nonzero;stroke:rgb(113,191,68);stroke-width:1.92px;"/>
            </g>
            <g transform="matrix(4.16667,0,0,4.16667,2027.63,2391.21)">
                <path d="M0,-1.41L3.052,-0.817L-0.629,-11.007L-7.86,-2.938L-4.808,-2.345L-11.737,6.727L3.026,9.597L0,-1.41Z" style="fill:rgb(183,218,155);fill-rule:nonzero;stroke:rgb(113,191,68);stroke-width:1.92px;"/>
            </g>
            <g transform="matrix(4.16667,0,0,4.16667,2065.77,2489.88)">
                <path d="M0,-1.41L3.052,-0.817L-0.629,-11.007L-7.86,-2.938L-4.808,-2.345L-11.737,6.727L3.026,9.597L0,-1.41Z" style="fill:rgb(183,218,155);fill-rule:nonzero;stroke:rgb(113,191,68);stroke-width:1.92px;"/>
            </g>
            <g transform="matrix(4.16667,0,0,4.16667,1892.36,2493.14)">
                <path d="M0,-5.898L2.84,-7.163L-6.02,-13.398L-7.315,-2.641L-4.474,-3.906L-4.947,7.5L8.793,1.383L0,-5.898Z" style="fill:rgb(183,218,155);fill-rule:nonzero;stroke:rgb(113,191,68);stroke-width:1.92px;"/>
            </g>
            <g transform="matrix(4.16667,0,0,4.16667,1970.96,2514.95)">
                <path d="M0,-3.903L3.017,-4.655L-4.626,-12.335L-7.769,-1.966L-4.752,-2.718L-7.198,8.432L7.395,4.794L0,-3.903Z" style="fill:rgb(183,218,155);fill-rule:nonzero;stroke:rgb(113,191,68);stroke-width:1.92px;"/>
            </g>
            <g transform="matrix(183.333,0,0,183.333,1752.76,2491.56)">
                <path d="M0.355,-0L0.355,-0.247L0.108,-0.247L0.108,-0.332L0.355,-0.332L0.355,-0.578L0.44,-0.578L0.44,-0.332L0.687,-0.332L0.687,-0.247L0.44,-0.247L0.44,-0L0.355,-0Z" style="fill:rgb(173,155,113);fill-rule:nonzero;"/>
            </g>
            <g transform="matrix(4.16667,0,0,4.16667,1637.94,2344.91)">
                <path d="M0,38.645C14.582,38.645 26.404,29.995 26.404,19.323C26.404,8.651 14.582,0 0,0C-14.582,0 -26.404,8.651 -26.404,19.323C-26.404,29.995 -14.582,38.645 0,38.645" style="fill:rgb(240,236,227);fill-rule:nonzero;"/>
            </g>
            <g transform="matrix(4.16667,0,0,4.16667,1597.14,2392.61)">
                <path d="M0,-14.18L-4.178,-12.053L-8.355,-14.18L-8.564,-9.571L-12.533,-7.09L-8.564,-4.608L-8.355,0L-4.178,-2.127L0,0L0.209,-4.608L4.178,-7.09L0.209,-9.571L0,-14.18Z" style="fill:rgb(255,231,148);fill-rule:nonzero;stroke:rgb(255,212,0);stroke-width:2.4px;"/>
            </g>
            <g transform="matrix(4.16667,0,0,4.16667,1698.83,2519.7)">
                <path d="M0,-16.068L-1.604,-11.663L-6.11,-10.37L-3.119,-6.856L-4.331,-2.335L0.266,-3.226L3.561,0L5.165,-4.404L9.671,-5.698L6.682,-9.21L7.891,-13.731L3.297,-12.839L0,-16.068Z" style="fill:rgb(255,231,148);fill-rule:nonzero;stroke:rgb(255,212,0);stroke-width:2.4px;"/>
            </g>
            <g transform="matrix(4.16667,0,0,4.16667,1645.21,2478.26)">
                <path d="M0,-14.18L-4.178,-12.053L-8.355,-14.18L-8.564,-9.571L-12.533,-7.09L-8.564,-4.608L-8.355,0L-4.178,-2.127L0,0L0.209,-4.608L4.178,-7.09L0.209,-9.571L0,-14.18Z" style="fill:rgb(255,231,148);fill-rule:nonzero;stroke:rgb(255,212,0);stroke-width:2.4px;"/>
            </g>
            <g transform="matrix(4.16667,0,0,4.16667,1686.08,2404.22)">
                <path d="M0,-16.352L-2.951,-12.71L-7.633,-12.954L-5.949,-8.658L-8.566,-4.778L-3.93,-4.124L-1.866,0L1.086,-3.642L5.768,-3.399L4.084,-7.693L6.7,-11.575L2.066,-12.226L0,-16.352Z" style="fill:rgb(255,231,148);fill-rule:nonzero;stroke:rgb(255,212,0);stroke-width:2.4px;"/>
            </g>
            <g transform="matrix(4.16667,0,0,4.16667,1587.44,2546.73)">
                <path d="M0,-16.352L-2.951,-12.71L-7.633,-12.954L-5.949,-8.658L-8.566,-4.778L-3.93,-4.124L-1.866,0L1.086,-3.642L5.768,-3.399L4.084,-7.693L6.7,-11.575L2.066,-12.226L0,-16.352Z" style="fill:rgb(255,231,148);fill-rule:nonzero;stroke:rgb(255,212,0);stroke-width:2.4px;"/>
            </g>
        </g>
    </g>
</svg>
