<?xml version="1.0" encoding="UTF-8" standalone="no"?>
<!DOCTYPE svg PUBLIC "-//W3C//DTD SVG 1.1//EN" "http://www.w3.org/Graphics/SVG/1.1/DTD/svg11.dtd">
<svg width="100%" height="100%" viewBox="0 0 505 552" version="1.1" xmlns="http://www.w3.org/2000/svg" xmlns:xlink="http://www.w3.org/1999/xlink" xml:space="preserve" xmlns:serif="http://www.serif.com/" style="fill-rule:evenodd;clip-rule:evenodd;stroke-linejoin:round;stroke-miterlimit:2;">
    <g transform="matrix(1,0,0,1,-239,-1558)">
        <g transform="matrix(4.16667,0,0,4.16667,0,0)">
            <g transform="matrix(1,0,0,1,70.5516,391.617)">
                <path d="M0,9.504C0.028,9.417 0.055,9.33 0.083,9.243C-0.357,8.853 -0.787,8.449 -1.243,8.078C-1.385,7.962 -1.683,7.818 -1.766,7.88C-2.398,8.352 -3.395,8.258 -3.807,9.279C-2.498,9.215 -1.261,9.527 0,9.504M6.444,-5.698C6.444,-6.156 6.475,-6.678 6.439,-7.194C6.209,-10.553 4.464,-12.984 1.594,-14.548C-1.218,-16.08 -4.129,-15.97 -7.053,-14.647C-9.836,-13.388 -11.502,-11.303 -11.937,-8.313C-12.089,-7.267 -11.982,-6.164 -11.858,-5.102C-11.256,0.066 -8.462,3.639 -3.79,5.819C-3.115,6.135 -2.413,6.309 -1.695,6.133C-0.048,5.731 1.519,5.177 2.567,3.691C3.142,2.876 3.848,2.153 4.41,1.331C4.901,0.612 5.35,-0.156 5.683,-0.958C6.302,-2.446 6.622,-4.008 6.444,-5.698M-2.765,7.076C-7.924,5.301 -11.237,1.969 -12.494,-3.24C-13.031,-5.465 -13.273,-7.722 -12.515,-9.972C-11.842,-11.967 -10.746,-13.587 -8.87,-14.686C-6.442,-16.107 -3.902,-16.848 -1.087,-16.38C2.214,-15.832 4.646,-13.978 6.253,-11.131C6.843,-10.086 7.153,-8.807 7.292,-7.6C7.593,-4.999 7.434,-2.403 6.239,0.003C5.816,0.854 5.235,1.627 4.717,2.429C4.587,2.629 4.404,2.793 4.27,2.991C2.949,4.938 1.296,6.434 -1.25,6.919C-0.609,7.496 -0.088,7.96 0.427,8.431C0.632,8.618 0.856,8.799 1.016,9.023C1.302,9.426 1.188,9.822 0.718,9.967C0.304,10.094 -0.139,10.161 -0.572,10.183C-1.034,10.206 -1.326,10.294 -1.319,10.852C-1.308,11.679 -1.802,12.273 -2.376,12.787C-2.882,13.24 -3.442,13.632 -3.95,14.081C-4.368,14.449 -4.797,14.824 -5.129,15.266C-5.862,16.239 -5.75,17.217 -4.859,18.038C-4.508,18.362 -4.124,18.653 -3.747,18.948C-2.973,19.557 -2.624,20.379 -2.526,21.33C-2.373,22.822 -3.328,25.162 -4.641,26.352C-4.657,26.062 -4.73,25.84 -4.669,25.664C-4.499,25.176 -4.276,24.706 -4.069,24.232C-3.7,23.387 -3.392,22.539 -3.396,21.587C-3.4,20.764 -3.679,20.111 -4.302,19.593C-4.639,19.312 -4.984,19.039 -5.323,18.759C-6.839,17.507 -6.803,15.888 -5.569,14.456C-5.079,13.888 -4.447,13.441 -3.873,12.946C-3.389,12.529 -2.873,12.148 -2.417,11.702C-2.202,11.491 -2.039,11.185 -1.955,10.892C-1.813,10.401 -2.003,10.138 -2.517,10.049C-3.146,9.941 -3.78,9.869 -4.412,9.779C-4.57,9.757 -4.751,9.769 -4.879,9.692C-5.032,9.601 -5.191,9.45 -5.248,9.29C-5.279,9.203 -5.132,9.006 -5.019,8.922C-4.443,8.496 -3.843,8.102 -3.271,7.671C-3.09,7.535 -2.969,7.321 -2.765,7.076" style="fill:rgb(35,31,32);fill-rule:nonzero;"/>
            </g>
            <g transform="matrix(1,0,0,1,76.996,387.544)">
                <path d="M0,-1.625C0.178,0.065 -0.142,1.627 -0.761,3.115C-1.095,3.917 -1.543,4.686 -2.034,5.404C-2.596,6.227 -3.303,6.949 -3.877,7.764C-4.926,9.25 -6.492,9.804 -8.14,10.206C-8.857,10.382 -9.56,10.208 -10.234,9.893C-14.906,7.712 -17.701,4.139 -18.303,-1.029C-18.427,-2.091 -18.533,-3.194 -18.381,-4.24C-17.947,-7.23 -16.281,-9.315 -13.498,-10.574C-10.574,-11.896 -7.663,-12.007 -4.85,-10.475C-1.98,-8.911 -0.235,-6.48 -0.005,-3.121C0.03,-2.604 0,-2.083 0,-1.625" style="fill:rgb(255,222,67);fill-rule:nonzero;"/>
            </g>
            <g opacity="0.2">
                <g transform="matrix(1,0,0,1,76.996,387.854)">
                    <path d="M0,-1.935C0,-2.393 0.03,-2.914 -0.005,-3.431C-0.235,-6.79 -1.98,-9.221 -4.85,-10.785C-6.294,-11.571 -7.764,-11.919 -9.248,-11.898C-8.647,-11.454 -8.1,-10.925 -7.619,-10.337C-6.281,-8.703 -5.382,-6.729 -4.763,-4.722C-4.149,-2.73 -3.794,-0.626 -3.818,1.461C-3.828,2.334 -3.909,3.211 -4.116,4.06C-4.407,5.257 -5.048,6.385 -5.824,7.335C-6.73,8.443 -7.894,9.348 -9.192,9.924C-8.846,9.984 -8.495,9.983 -8.14,9.896C-6.492,9.494 -4.926,8.94 -3.877,7.454C-3.303,6.639 -2.596,5.917 -2.034,5.094C-1.543,4.376 -1.095,3.607 -0.761,2.805C-0.142,1.317 0.178,-0.245 0,-1.935" style="fill:rgb(117,76,40);fill-rule:nonzero;"/>
                </g>
            </g>
            <g transform="matrix(1,0,0,1,60.2811,380.975)">
                <path d="M0,-0.551C-0.347,0.241 -0.323,1.158 -0.084,1.989C0.033,2.397 0.219,2.814 0.575,3.046C0.843,3.222 1.174,3.269 1.494,3.298C2.292,3.371 3.115,3.359 3.874,3.099C5.226,2.636 6.257,1.35 6.416,-0.071C6.845,-3.922 1.182,-3.244 0,-0.551" style="fill:white;fill-rule:nonzero;"/>
            </g>
            <g transform="matrix(1,0,0,1,61.8324,389.781)">
                <path d="M0,-3.23C-0.449,-3.405 -0.978,-3.279 -1.365,-2.992C-1.751,-2.705 -2.013,-2.276 -2.192,-1.829C-2.308,-1.543 -2.394,-1.228 -2.322,-0.929C-2.189,-0.38 -1.589,-0.089 -1.039,0.031C-0.446,0.161 0.197,0.175 0.742,-0.092C1.286,-0.36 1.693,-0.963 1.589,-1.561C1.479,-2.199 0.874,-2.612 0.322,-2.95" style="fill:white;fill-rule:nonzero;"/>
            </g>
            <g transform="matrix(1,0,0,1,70.5516,399.458)">
                <path d="M0,1.663C-1.261,1.686 -2.498,1.374 -3.807,1.438C-3.395,0.417 -2.398,0.511 -1.766,0.039C-1.683,-0.023 -1.385,0.121 -1.243,0.237C-0.787,0.608 -0.357,1.012 0.083,1.402C0.055,1.489 0.028,1.576 0,1.663" style="fill:rgb(255,222,67);fill-rule:nonzero;"/>
            </g>
            <g transform="matrix(1,0,0,1,154.408,391.617)">
                <path d="M0,9.504C0.027,9.417 0.055,9.33 0.083,9.243C-0.357,8.853 -0.787,8.449 -1.243,8.078C-1.385,7.962 -1.683,7.818 -1.766,7.88C-2.398,8.352 -3.395,8.258 -3.807,9.279C-2.498,9.215 -1.261,9.527 0,9.504M6.444,-5.698C6.444,-6.156 6.475,-6.678 6.439,-7.194C6.209,-10.553 4.464,-12.984 1.594,-14.548C-1.218,-16.08 -4.129,-15.97 -7.053,-14.647C-9.836,-13.388 -11.502,-11.303 -11.937,-8.313C-12.089,-7.267 -11.982,-6.164 -11.859,-5.102C-11.256,0.066 -8.462,3.639 -3.79,5.819C-3.115,6.135 -2.413,6.309 -1.695,6.133C-0.048,5.731 1.519,5.177 2.567,3.691C3.142,2.876 3.848,2.153 4.41,1.331C4.901,0.612 5.349,-0.156 5.683,-0.958C6.302,-2.446 6.622,-4.008 6.444,-5.698M-2.765,7.076C-7.924,5.301 -11.238,1.969 -12.495,-3.24C-13.031,-5.465 -13.273,-7.722 -12.515,-9.972C-11.842,-11.967 -10.747,-13.587 -8.87,-14.686C-6.442,-16.107 -3.902,-16.848 -1.087,-16.38C2.214,-15.832 4.646,-13.978 6.253,-11.131C6.843,-10.086 7.153,-8.807 7.292,-7.6C7.593,-4.999 7.434,-2.403 6.239,0.003C5.816,0.854 5.235,1.627 4.716,2.429C4.587,2.629 4.404,2.793 4.27,2.991C2.949,4.938 1.296,6.434 -1.25,6.919C-0.609,7.496 -0.088,7.96 0.427,8.431C0.632,8.618 0.856,8.799 1.016,9.023C1.302,9.426 1.188,9.822 0.718,9.967C0.304,10.094 -0.139,10.161 -0.572,10.183C-1.034,10.206 -1.326,10.294 -1.319,10.852C-1.308,11.679 -1.802,12.273 -2.376,12.787C-2.882,13.24 -3.442,13.632 -3.95,14.081C-4.368,14.449 -4.797,14.824 -5.129,15.266C-5.862,16.239 -5.75,17.217 -4.859,18.038C-4.508,18.362 -4.124,18.653 -3.747,18.948C-2.973,19.557 -2.624,20.379 -2.526,21.33C-2.373,22.822 -3.328,25.162 -4.641,26.352C-4.657,26.062 -4.73,25.84 -4.669,25.664C-4.499,25.176 -4.276,24.706 -4.069,24.232C-3.7,23.387 -3.392,22.539 -3.396,21.587C-3.4,20.764 -3.679,20.111 -4.302,19.593C-4.639,19.312 -4.984,19.039 -5.323,18.759C-6.839,17.507 -6.803,15.888 -5.569,14.456C-5.079,13.888 -4.447,13.441 -3.873,12.946C-3.389,12.529 -2.873,12.148 -2.417,11.702C-2.202,11.491 -2.039,11.185 -1.955,10.892C-1.813,10.401 -2.003,10.138 -2.517,10.049C-3.146,9.941 -3.78,9.869 -4.412,9.779C-4.57,9.757 -4.751,9.769 -4.879,9.692C-5.033,9.601 -5.191,9.45 -5.248,9.29C-5.279,9.203 -5.132,9.006 -5.019,8.922C-4.443,8.496 -3.843,8.102 -3.271,7.671C-3.09,7.535 -2.969,7.321 -2.765,7.076" style="fill:rgb(35,31,32);fill-rule:nonzero;"/>
            </g>
            <g transform="matrix(1,0,0,1,160.852,387.544)">
                <path d="M0,-1.625C0.178,0.065 -0.142,1.627 -0.761,3.115C-1.095,3.917 -1.543,4.686 -2.034,5.404C-2.596,6.227 -3.303,6.949 -3.877,7.764C-4.926,9.25 -6.492,9.804 -8.14,10.206C-8.857,10.382 -9.56,10.208 -10.234,9.893C-14.906,7.712 -17.701,4.139 -18.303,-1.029C-18.427,-2.091 -18.533,-3.194 -18.381,-4.24C-17.947,-7.23 -16.281,-9.315 -13.498,-10.574C-10.574,-11.896 -7.663,-12.007 -4.85,-10.475C-1.98,-8.911 -0.235,-6.48 -0.005,-3.121C0.03,-2.604 0,-2.083 0,-1.625" style="fill:rgb(255,222,67);fill-rule:nonzero;"/>
            </g>
            <g opacity="0.2">
                <g transform="matrix(1,0,0,1,160.852,387.854)">
                    <path d="M0,-1.935C0,-2.393 0.03,-2.914 -0.005,-3.431C-0.235,-6.79 -1.98,-9.221 -4.85,-10.785C-6.294,-11.571 -7.764,-11.919 -9.248,-11.898C-8.647,-11.454 -8.1,-10.925 -7.619,-10.337C-6.281,-8.703 -5.382,-6.729 -4.763,-4.722C-4.149,-2.73 -3.794,-0.626 -3.818,1.461C-3.828,2.334 -3.91,3.211 -4.116,4.06C-4.408,5.257 -5.048,6.385 -5.824,7.335C-6.73,8.443 -7.894,9.348 -9.192,9.924C-8.846,9.984 -8.495,9.983 -8.14,9.896C-6.492,9.494 -4.926,8.94 -3.877,7.454C-3.303,6.639 -2.596,5.917 -2.034,5.094C-1.543,4.376 -1.095,3.607 -0.761,2.805C-0.142,1.317 0.178,-0.245 0,-1.935" style="fill:rgb(117,76,40);fill-rule:nonzero;"/>
                </g>
            </g>
            <g transform="matrix(1,0,0,1,144.137,380.975)">
                <path d="M0,-0.551C-0.348,0.241 -0.323,1.158 -0.084,1.989C0.033,2.397 0.219,2.814 0.575,3.046C0.843,3.222 1.174,3.269 1.494,3.298C2.292,3.371 3.115,3.359 3.874,3.099C5.226,2.636 6.257,1.35 6.416,-0.071C6.845,-3.922 1.182,-3.244 0,-0.551" style="fill:white;fill-rule:nonzero;"/>
            </g>
            <g transform="matrix(1,0,0,1,145.688,389.781)">
                <path d="M0,-3.23C-0.449,-3.405 -0.977,-3.279 -1.364,-2.992C-1.751,-2.705 -2.012,-2.276 -2.192,-1.829C-2.307,-1.543 -2.394,-1.228 -2.321,-0.929C-2.189,-0.38 -1.589,-0.089 -1.039,0.031C-0.446,0.161 0.198,0.175 0.742,-0.092C1.286,-0.36 1.693,-0.963 1.59,-1.561C1.479,-2.199 0.874,-2.612 0.322,-2.95" style="fill:white;fill-rule:nonzero;"/>
            </g>
            <g transform="matrix(1,0,0,1,154.408,399.458)">
                <path d="M0,1.663C-1.261,1.686 -2.498,1.374 -3.807,1.438C-3.395,0.417 -2.398,0.511 -1.766,0.039C-1.683,-0.023 -1.385,0.121 -1.243,0.237C-0.787,0.608 -0.357,1.012 0.083,1.402C0.055,1.489 0.027,1.576 0,1.663" style="fill:rgb(255,222,67);fill-rule:nonzero;"/>
            </g>
            <g transform="matrix(1,0,0,1,93.7816,411.93)">
                <path d="M0,9.504C0.027,9.417 0.055,9.33 0.083,9.243C-0.357,8.853 -0.787,8.449 -1.243,8.078C-1.385,7.962 -1.684,7.818 -1.767,7.88C-2.399,8.352 -3.395,8.258 -3.807,9.279C-2.498,9.215 -1.261,9.527 0,9.504M6.444,-5.699C6.444,-6.157 6.475,-6.678 6.439,-7.194C6.209,-10.554 4.464,-12.984 1.594,-14.548C-1.218,-16.081 -4.13,-15.97 -7.053,-14.647C-9.836,-13.389 -11.502,-11.304 -11.937,-8.313C-12.089,-7.267 -11.982,-6.164 -11.859,-5.102C-11.256,0.066 -8.462,3.639 -3.79,5.819C-3.115,6.135 -2.413,6.309 -1.695,6.133C-0.048,5.731 1.518,5.177 2.567,3.691C3.142,2.876 3.848,2.153 4.41,1.331C4.901,0.612 5.349,-0.156 5.683,-0.958C6.302,-2.446 6.622,-4.009 6.444,-5.699M-2.765,7.076C-7.924,5.301 -11.238,1.969 -12.495,-3.24C-13.031,-5.465 -13.273,-7.723 -12.515,-9.972C-11.842,-11.968 -10.747,-13.587 -8.87,-14.686C-6.442,-16.107 -3.902,-16.848 -1.087,-16.381C2.214,-15.832 4.645,-13.978 6.252,-11.132C6.843,-10.087 7.152,-8.808 7.292,-7.6C7.593,-4.999 7.434,-2.403 6.238,0.002C5.816,0.854 5.235,1.626 4.716,2.429C4.587,2.628 4.404,2.793 4.27,2.99C2.949,4.937 1.296,6.434 -1.25,6.918C-0.609,7.495 -0.088,7.959 0.427,8.431C0.632,8.618 0.856,8.799 1.015,9.023C1.302,9.426 1.188,9.821 0.718,9.967C0.304,10.094 -0.139,10.161 -0.572,10.183C-1.034,10.206 -1.326,10.294 -1.319,10.852C-1.308,11.679 -1.802,12.273 -2.376,12.787C-2.882,13.24 -3.442,13.631 -3.95,14.08C-4.368,14.449 -4.797,14.824 -5.129,15.266C-5.862,16.239 -5.75,17.217 -4.859,18.038C-4.508,18.362 -4.124,18.652 -3.747,18.948C-2.973,19.556 -2.624,20.378 -2.526,21.329C-2.373,22.822 -3.328,25.161 -4.641,26.352C-4.657,26.062 -4.73,25.839 -4.669,25.663C-4.499,25.176 -4.276,24.706 -4.069,24.232C-3.7,23.387 -3.392,22.538 -3.396,21.587C-3.4,20.764 -3.679,20.111 -4.302,19.593C-4.639,19.312 -4.984,19.039 -5.323,18.759C-6.839,17.506 -6.803,15.887 -5.569,14.456C-5.079,13.888 -4.447,13.441 -3.873,12.945C-3.389,12.529 -2.873,12.148 -2.418,11.702C-2.202,11.491 -2.039,11.185 -1.955,10.892C-1.813,10.4 -2.003,10.137 -2.517,10.049C-3.146,9.941 -3.78,9.868 -4.412,9.779C-4.57,9.757 -4.751,9.769 -4.879,9.692C-5.033,9.601 -5.191,9.45 -5.248,9.29C-5.279,9.203 -5.132,9.006 -5.019,8.922C-4.443,8.495 -3.843,8.102 -3.271,7.671C-3.09,7.535 -2.969,7.321 -2.765,7.076" style="fill:rgb(35,31,32);fill-rule:nonzero;"/>
            </g>
            <g transform="matrix(1,0,0,1,100.226,407.857)">
                <path d="M0,-1.626C0.178,0.064 -0.142,1.627 -0.761,3.115C-1.095,3.917 -1.543,4.686 -2.034,5.404C-2.597,6.227 -3.303,6.949 -3.877,7.764C-4.926,9.25 -6.492,9.804 -8.14,10.206C-8.857,10.382 -9.56,10.208 -10.234,9.893C-14.906,7.712 -17.701,4.139 -18.303,-1.029C-18.427,-2.091 -18.533,-3.194 -18.381,-4.24C-17.947,-7.23 -16.281,-9.315 -13.498,-10.574C-10.574,-11.897 -7.663,-12.008 -4.85,-10.475C-1.98,-8.911 -0.235,-6.48 -0.005,-3.121C0.03,-2.605 0,-2.084 0,-1.626" style="fill:rgb(255,222,67);fill-rule:nonzero;"/>
            </g>
            <g opacity="0.2">
                <g transform="matrix(1,0,0,1,100.226,408.167)">
                    <path d="M0,-1.936C0,-2.394 0.03,-2.915 -0.005,-3.431C-0.235,-6.79 -1.98,-9.221 -4.85,-10.785C-6.294,-11.572 -7.764,-11.919 -9.248,-11.898C-8.647,-11.455 -8.101,-10.925 -7.619,-10.337C-6.281,-8.703 -5.382,-6.729 -4.763,-4.722C-4.149,-2.73 -3.794,-0.626 -3.818,1.46C-3.829,2.334 -3.91,3.21 -4.116,4.06C-4.408,5.257 -5.048,6.385 -5.824,7.335C-6.73,8.442 -7.894,9.348 -9.192,9.924C-8.846,9.983 -8.495,9.983 -8.14,9.896C-6.492,9.494 -4.926,8.94 -3.877,7.454C-3.303,6.639 -2.597,5.917 -2.034,5.094C-1.543,4.376 -1.095,3.607 -0.761,2.805C-0.142,1.317 0.178,-0.246 0,-1.936" style="fill:rgb(117,76,40);fill-rule:nonzero;"/>
                </g>
            </g>
            <g transform="matrix(1,0,0,1,83.5111,401.287)">
                <path d="M0,-0.551C-0.348,0.241 -0.323,1.158 -0.084,1.989C0.033,2.397 0.219,2.814 0.575,3.047C0.843,3.222 1.174,3.269 1.494,3.299C2.292,3.371 3.115,3.358 3.873,3.098C5.226,2.637 6.257,1.35 6.416,-0.071C6.845,-3.922 1.182,-3.243 0,-0.551" style="fill:white;fill-rule:nonzero;"/>
            </g>
            <g transform="matrix(1,0,0,1,85.0619,410.094)">
                <path d="M0,-3.23C-0.449,-3.405 -0.977,-3.28 -1.364,-2.992C-1.751,-2.705 -2.012,-2.277 -2.192,-1.83C-2.307,-1.543 -2.394,-1.229 -2.321,-0.929C-2.189,-0.381 -1.589,-0.09 -1.039,0.031C-0.446,0.161 0.198,0.175 0.742,-0.092C1.286,-0.36 1.693,-0.964 1.59,-1.561C1.479,-2.2 0.874,-2.612 0.322,-2.95" style="fill:white;fill-rule:nonzero;"/>
            </g>
            <g transform="matrix(1,0,0,1,93.7816,419.771)">
                <path d="M0,1.663C-1.261,1.686 -2.498,1.374 -3.807,1.438C-3.395,0.417 -2.399,0.511 -1.767,0.039C-1.684,-0.023 -1.385,0.121 -1.243,0.237C-0.787,0.608 -0.357,1.012 0.083,1.402C0.055,1.489 0.027,1.576 0,1.663" style="fill:rgb(255,222,67);fill-rule:nonzero;"/>
            </g>
            <g transform="matrix(1,0,0,1,70.9999,439.211)">
                <path d="M0,9.504C0.027,9.417 0.055,9.33 0.083,9.243C-0.357,8.853 -0.787,8.449 -1.243,8.078C-1.385,7.962 -1.684,7.818 -1.766,7.881C-2.398,8.352 -3.395,8.259 -3.807,9.28C-2.498,9.216 -1.261,9.527 0,9.504M6.444,-5.698C6.444,-6.156 6.475,-6.678 6.439,-7.194C6.209,-10.553 4.464,-12.984 1.594,-14.548C-1.218,-16.08 -4.129,-15.97 -7.053,-14.646C-9.836,-13.388 -11.502,-11.303 -11.937,-8.313C-12.089,-7.267 -11.982,-6.163 -11.859,-5.101C-11.256,0.066 -8.462,3.639 -3.79,5.82C-3.115,6.135 -2.413,6.309 -1.695,6.134C-0.048,5.731 1.518,5.177 2.567,3.691C3.142,2.876 3.848,2.153 4.41,1.332C4.901,0.613 5.349,-0.156 5.683,-0.958C6.302,-2.446 6.622,-4.008 6.444,-5.698M-2.765,7.076C-7.924,5.301 -11.238,1.969 -12.495,-3.24C-13.031,-5.465 -13.273,-7.722 -12.515,-9.972C-11.842,-11.967 -10.747,-13.587 -8.87,-14.685C-6.442,-16.107 -3.902,-16.848 -1.087,-16.38C2.214,-15.832 4.645,-13.977 6.252,-11.131C6.843,-10.086 7.153,-8.807 7.292,-7.6C7.593,-4.999 7.434,-2.403 6.239,0.003C5.816,0.854 5.235,1.627 4.716,2.429C4.587,2.629 4.404,2.794 4.27,2.991C2.949,4.938 1.296,6.435 -1.25,6.919C-0.609,7.496 -0.088,7.96 0.427,8.431C0.632,8.619 0.856,8.799 1.015,9.024C1.302,9.426 1.188,9.822 0.718,9.967C0.304,10.095 -0.139,10.161 -0.572,10.183C-1.034,10.206 -1.326,10.295 -1.319,10.853C-1.308,11.679 -1.802,12.273 -2.376,12.788C-2.882,13.24 -3.442,13.632 -3.95,14.081C-4.368,14.45 -4.797,14.825 -5.129,15.267C-5.862,16.239 -5.75,17.217 -4.859,18.038C-4.508,18.363 -4.124,18.653 -3.747,18.949C-2.973,19.557 -2.624,20.379 -2.526,21.33C-2.373,22.822 -3.328,25.162 -4.641,26.352C-4.657,26.062 -4.73,25.84 -4.669,25.664C-4.499,25.176 -4.276,24.706 -4.069,24.232C-3.7,23.388 -3.392,22.539 -3.396,21.588C-3.4,20.764 -3.679,20.111 -4.302,19.594C-4.639,19.313 -4.984,19.039 -5.323,18.76C-6.839,17.507 -6.803,15.888 -5.569,14.456C-5.079,13.888 -4.447,13.441 -3.873,12.946C-3.389,12.529 -2.873,12.148 -2.417,11.702C-2.202,11.491 -2.039,11.185 -1.955,10.892C-1.813,10.401 -2.003,10.138 -2.517,10.05C-3.146,9.941 -3.78,9.869 -4.412,9.779C-4.57,9.757 -4.751,9.769 -4.879,9.692C-5.033,9.602 -5.191,9.451 -5.248,9.291C-5.279,9.204 -5.132,9.006 -5.019,8.922C-4.443,8.496 -3.843,8.102 -3.271,7.671C-3.09,7.535 -2.969,7.322 -2.765,7.076" style="fill:rgb(35,31,32);fill-rule:nonzero;"/>
            </g>
            <g transform="matrix(1,0,0,1,77.4442,435.138)">
                <path d="M0,-1.625C0.178,0.065 -0.142,1.627 -0.761,3.115C-1.095,3.917 -1.543,4.687 -2.034,5.405C-2.596,6.227 -3.303,6.949 -3.877,7.764C-4.926,9.25 -6.492,9.804 -8.14,10.207C-8.857,10.382 -9.56,10.208 -10.234,9.894C-14.906,7.712 -17.701,4.139 -18.303,-1.028C-18.427,-2.09 -18.533,-3.194 -18.381,-4.24C-17.947,-7.229 -16.281,-9.314 -13.498,-10.573C-10.574,-11.896 -7.663,-12.007 -4.85,-10.475C-1.98,-8.911 -0.235,-6.479 -0.005,-3.121C0.03,-2.604 0,-2.083 0,-1.625" style="fill:rgb(159,207,110);fill-rule:nonzero;"/>
            </g>
            <g opacity="0.2">
                <g transform="matrix(1,0,0,1,77.4442,435.449)">
                    <path d="M0,-1.936C0,-2.394 0.03,-2.915 -0.005,-3.432C-0.235,-6.79 -1.98,-9.222 -4.85,-10.786C-6.294,-11.573 -7.764,-11.919 -9.248,-11.899C-8.647,-11.456 -8.101,-10.925 -7.619,-10.337C-6.281,-8.704 -5.382,-6.73 -4.763,-4.722C-4.149,-2.731 -3.794,-0.627 -3.818,1.46C-3.828,2.333 -3.91,3.21 -4.116,4.06C-4.408,5.257 -5.048,6.384 -5.824,7.334C-6.73,8.442 -7.894,9.347 -9.192,9.923C-8.846,9.983 -8.495,9.983 -8.14,9.896C-6.492,9.493 -4.926,8.939 -3.877,7.453C-3.303,6.638 -2.596,5.916 -2.034,5.094C-1.543,4.376 -1.095,3.606 -0.761,2.804C-0.142,1.316 0.178,-0.246 0,-1.936" style="fill:rgb(117,76,40);fill-rule:nonzero;"/>
                </g>
            </g>
            <g transform="matrix(1,0,0,1,60.7294,428.568)">
                <path d="M0,-0.55C-0.348,0.241 -0.323,1.159 -0.084,1.989C0.033,2.397 0.219,2.815 0.575,3.048C0.843,3.222 1.174,3.269 1.494,3.299C2.292,3.372 3.115,3.359 3.873,3.099C5.226,2.637 6.257,1.35 6.416,-0.071C6.845,-3.922 1.182,-3.243 0,-0.55" style="fill:white;fill-rule:nonzero;"/>
            </g>
            <g transform="matrix(1,0,0,1,62.2802,437.375)">
                <path d="M0,-3.23C-0.449,-3.405 -0.977,-3.279 -1.364,-2.992C-1.751,-2.705 -2.012,-2.276 -2.192,-1.829C-2.307,-1.543 -2.394,-1.228 -2.321,-0.928C-2.189,-0.38 -1.589,-0.089 -1.039,0.031C-0.446,0.161 0.198,0.175 0.742,-0.092C1.286,-0.36 1.693,-0.963 1.59,-1.561C1.479,-2.199 0.874,-2.612 0.322,-2.95" style="fill:white;fill-rule:nonzero;"/>
            </g>
            <g transform="matrix(1,0,0,1,70.9999,447.052)">
                <path d="M0,1.663C-1.261,1.686 -2.498,1.375 -3.807,1.439C-3.395,0.418 -2.398,0.511 -1.766,0.04C-1.684,-0.023 -1.385,0.121 -1.243,0.237C-0.787,0.608 -0.357,1.012 0.083,1.402C0.055,1.489 0.027,1.576 0,1.663" style="fill:rgb(159,207,110);fill-rule:nonzero;"/>
            </g>
            <g transform="matrix(1,0,0,1,98.6014,456.729)">
                <path d="M0,9.504C0.028,9.417 0.055,9.33 0.083,9.243C-0.357,8.853 -0.787,8.449 -1.243,8.078C-1.385,7.962 -1.683,7.818 -1.766,7.881C-2.398,8.352 -3.395,8.259 -3.807,9.28C-2.498,9.216 -1.261,9.527 0,9.504M6.444,-5.698C6.444,-6.156 6.475,-6.678 6.439,-7.194C6.209,-10.553 4.464,-12.984 1.594,-14.548C-1.218,-16.081 -4.129,-15.97 -7.053,-14.647C-9.836,-13.388 -11.502,-11.304 -11.937,-8.313C-12.089,-7.267 -11.982,-6.164 -11.859,-5.102C-11.256,0.066 -8.462,3.639 -3.79,5.819C-3.115,6.135 -2.413,6.309 -1.695,6.133C-0.048,5.731 1.519,5.177 2.567,3.691C3.142,2.876 3.848,2.153 4.41,1.331C4.901,0.612 5.349,-0.156 5.683,-0.958C6.302,-2.446 6.622,-4.008 6.444,-5.698M-2.765,7.076C-7.924,5.301 -11.237,1.969 -12.495,-3.24C-13.031,-5.465 -13.273,-7.722 -12.515,-9.972C-11.842,-11.967 -10.746,-13.587 -8.87,-14.685C-6.442,-16.107 -3.902,-16.848 -1.087,-16.38C2.214,-15.832 4.646,-13.977 6.253,-11.131C6.843,-10.086 7.153,-8.808 7.292,-7.6C7.593,-4.999 7.434,-2.403 6.239,0.003C5.816,0.854 5.235,1.627 4.716,2.429C4.587,2.629 4.404,2.793 4.27,2.991C2.949,4.938 1.296,6.435 -1.25,6.919C-0.609,7.496 -0.088,7.96 0.427,8.431C0.632,8.618 0.856,8.799 1.016,9.024C1.302,9.426 1.188,9.822 0.718,9.967C0.304,10.094 -0.139,10.161 -0.572,10.183C-1.034,10.206 -1.326,10.294 -1.319,10.852C-1.308,11.679 -1.802,12.273 -2.376,12.788C-2.882,13.24 -3.442,13.632 -3.95,14.081C-4.368,14.449 -4.797,14.825 -5.129,15.266C-5.862,16.239 -5.75,17.217 -4.859,18.038C-4.508,18.362 -4.124,18.653 -3.747,18.949C-2.973,19.557 -2.624,20.379 -2.526,21.33C-2.373,22.822 -3.328,25.162 -4.641,26.352C-4.657,26.062 -4.73,25.84 -4.669,25.664C-4.499,25.176 -4.276,24.706 -4.069,24.232C-3.7,23.387 -3.392,22.539 -3.396,21.587C-3.4,20.764 -3.679,20.111 -4.302,19.593C-4.639,19.313 -4.984,19.039 -5.323,18.76C-6.839,17.507 -6.803,15.888 -5.569,14.456C-5.079,13.888 -4.447,13.441 -3.873,12.946C-3.389,12.529 -2.873,12.148 -2.417,11.702C-2.202,11.491 -2.039,11.185 -1.955,10.892C-1.813,10.401 -2.003,10.138 -2.517,10.049C-3.146,9.941 -3.78,9.869 -4.412,9.779C-4.57,9.757 -4.751,9.769 -4.879,9.692C-5.033,9.601 -5.191,9.451 -5.248,9.29C-5.279,9.203 -5.132,9.006 -5.019,8.922C-4.443,8.496 -3.843,8.102 -3.271,7.671C-3.09,7.535 -2.969,7.322 -2.765,7.076" style="fill:rgb(35,31,32);fill-rule:nonzero;"/>
            </g>
            <g transform="matrix(1,0,0,1,105.046,452.655)">
                <path d="M0,-1.624C0.178,0.066 -0.142,1.628 -0.761,3.116C-1.095,3.918 -1.543,4.687 -2.034,5.405C-2.596,6.228 -3.303,6.95 -3.877,7.765C-4.926,9.251 -6.492,9.805 -8.14,10.207C-8.857,10.383 -9.56,10.209 -10.234,9.894C-14.906,7.713 -17.701,4.14 -18.303,-1.028C-18.427,-2.09 -18.533,-3.193 -18.381,-4.239C-17.947,-7.229 -16.281,-9.313 -13.498,-10.573C-10.574,-11.895 -7.663,-12.007 -4.85,-10.474C-1.98,-8.91 -0.235,-6.478 -0.005,-3.12C0.03,-2.603 0,-2.082 0,-1.624" style="fill:rgb(77,193,180);fill-rule:nonzero;"/>
            </g>
            <g opacity="0.2">
                <g transform="matrix(1,0,0,1,105.046,452.967)">
                    <path d="M0,-1.936C0,-2.394 0.03,-2.915 -0.005,-3.432C-0.235,-6.79 -1.98,-9.222 -4.85,-10.786C-6.294,-11.573 -7.764,-11.919 -9.248,-11.899C-8.647,-11.456 -8.1,-10.926 -7.619,-10.338C-6.281,-8.704 -5.382,-6.73 -4.763,-4.722C-4.149,-2.731 -3.794,-0.627 -3.818,1.46C-3.828,2.333 -3.91,3.21 -4.116,4.059C-4.408,5.257 -5.048,6.384 -5.824,7.334C-6.73,8.442 -7.894,9.347 -9.192,9.923C-8.846,9.983 -8.495,9.982 -8.14,9.895C-6.492,9.493 -4.926,8.939 -3.877,7.453C-3.303,6.638 -2.596,5.916 -2.034,5.093C-1.543,4.375 -1.095,3.606 -0.761,2.804C-0.142,1.316 0.178,-0.246 0,-1.936" style="fill:rgb(117,76,40);fill-rule:nonzero;"/>
                </g>
            </g>
            <g transform="matrix(1,0,0,1,88.3309,446.085)">
                <path d="M0,-0.55C-0.347,0.241 -0.323,1.159 -0.084,1.989C0.033,2.397 0.219,2.815 0.575,3.047C0.843,3.222 1.174,3.269 1.494,3.299C2.292,3.372 3.115,3.359 3.874,3.099C5.226,2.637 6.257,1.35 6.416,-0.071C6.845,-3.922 1.182,-3.243 0,-0.55" style="fill:white;fill-rule:nonzero;"/>
            </g>
            <g transform="matrix(1,0,0,1,89.8817,454.892)">
                <path d="M0,-3.23C-0.449,-3.405 -0.977,-3.279 -1.364,-2.992C-1.751,-2.705 -2.012,-2.276 -2.192,-1.829C-2.307,-1.543 -2.394,-1.228 -2.321,-0.928C-2.189,-0.38 -1.589,-0.089 -1.038,0.031C-0.446,0.161 0.198,0.175 0.742,-0.092C1.286,-0.36 1.693,-0.963 1.59,-1.561C1.479,-2.199 0.874,-2.612 0.322,-2.95" style="fill:white;fill-rule:nonzero;"/>
            </g>
            <g transform="matrix(1,0,0,1,98.6014,464.57)">
                <path d="M0,1.663C-1.261,1.686 -2.498,1.375 -3.807,1.439C-3.395,0.418 -2.398,0.511 -1.766,0.04C-1.683,-0.023 -1.385,0.121 -1.243,0.237C-0.787,0.608 -0.357,1.012 0.083,1.402C0.055,1.489 0.028,1.576 0,1.663" style="fill:rgb(77,193,180);fill-rule:nonzero;"/>
            </g>
            <g transform="matrix(1,0,0,1,124.813,479.875)">
                <path d="M0,9.504C0.028,9.417 0.055,9.33 0.083,9.243C-0.357,8.853 -0.787,8.449 -1.243,8.078C-1.385,7.962 -1.683,7.818 -1.766,7.881C-2.398,8.352 -3.395,8.259 -3.807,9.28C-2.498,9.216 -1.261,9.527 0,9.504M6.444,-5.698C6.444,-6.156 6.475,-6.678 6.439,-7.194C6.209,-10.553 4.464,-12.984 1.594,-14.548C-1.218,-16.081 -4.129,-15.97 -7.053,-14.647C-9.836,-13.388 -11.502,-11.303 -11.937,-8.313C-12.089,-7.267 -11.982,-6.164 -11.859,-5.102C-11.256,0.066 -8.462,3.639 -3.79,5.819C-3.115,6.135 -2.413,6.309 -1.695,6.134C-0.048,5.731 1.519,5.177 2.567,3.691C3.142,2.876 3.848,2.153 4.41,1.331C4.901,0.612 5.349,-0.156 5.683,-0.958C6.302,-2.446 6.622,-4.008 6.444,-5.698M-2.765,7.076C-7.924,5.301 -11.237,1.969 -12.495,-3.24C-13.031,-5.465 -13.273,-7.722 -12.515,-9.972C-11.842,-11.967 -10.746,-13.587 -8.87,-14.685C-6.442,-16.107 -3.902,-16.848 -1.087,-16.38C2.214,-15.832 4.646,-13.977 6.253,-11.131C6.843,-10.086 7.153,-8.808 7.292,-7.6C7.593,-4.999 7.434,-2.403 6.239,0.003C5.816,0.854 5.235,1.627 4.717,2.429C4.587,2.629 4.404,2.793 4.27,2.991C2.949,4.938 1.296,6.435 -1.25,6.919C-0.609,7.496 -0.088,7.96 0.427,8.431C0.632,8.619 0.856,8.799 1.016,9.024C1.302,9.426 1.188,9.822 0.718,9.967C0.304,10.094 -0.139,10.161 -0.572,10.183C-1.034,10.206 -1.326,10.294 -1.319,10.853C-1.308,11.679 -1.802,12.273 -2.376,12.788C-2.882,13.24 -3.442,13.632 -3.95,14.081C-4.368,14.449 -4.797,14.825 -5.129,15.266C-5.862,16.239 -5.75,17.217 -4.859,18.038C-4.508,18.362 -4.124,18.653 -3.747,18.949C-2.973,19.557 -2.624,20.379 -2.526,21.33C-2.373,22.822 -3.328,25.162 -4.641,26.352C-4.657,26.062 -4.73,25.84 -4.669,25.664C-4.499,25.176 -4.276,24.706 -4.069,24.232C-3.7,23.388 -3.392,22.539 -3.396,21.588C-3.4,20.764 -3.679,20.111 -4.302,19.593C-4.639,19.313 -4.984,19.039 -5.323,18.76C-6.839,17.507 -6.803,15.888 -5.569,14.456C-5.079,13.888 -4.447,13.441 -3.873,12.946C-3.389,12.529 -2.873,12.148 -2.417,11.702C-2.202,11.491 -2.039,11.185 -1.955,10.892C-1.813,10.401 -2.003,10.138 -2.517,10.049C-3.146,9.941 -3.78,9.869 -4.412,9.779C-4.57,9.757 -4.751,9.769 -4.879,9.692C-5.033,9.601 -5.191,9.451 -5.248,9.291C-5.279,9.204 -5.132,9.006 -5.019,8.922C-4.443,8.496 -3.843,8.102 -3.271,7.671C-3.09,7.535 -2.969,7.322 -2.765,7.076" style="fill:rgb(35,31,32);fill-rule:nonzero;"/>
            </g>
            <g transform="matrix(1,0,0,1,131.257,475.801)">
                <path d="M0,-1.624C0.178,0.066 -0.142,1.628 -0.761,3.116C-1.095,3.918 -1.543,4.687 -2.034,5.405C-2.596,6.228 -3.303,6.95 -3.877,7.765C-4.926,9.251 -6.492,9.805 -8.14,10.208C-8.857,10.383 -9.56,10.209 -10.234,9.894C-14.906,7.713 -17.701,4.14 -18.303,-1.028C-18.427,-2.09 -18.533,-3.193 -18.381,-4.239C-17.947,-7.228 -16.281,-9.313 -13.498,-10.573C-10.574,-11.895 -7.663,-12.007 -4.85,-10.474C-1.98,-8.91 -0.235,-6.478 -0.005,-3.12C0.03,-2.603 0,-2.082 0,-1.624" style="fill:rgb(0,183,212);fill-rule:nonzero;"/>
            </g>
            <g opacity="0.2">
                <g transform="matrix(1,0,0,1,131.257,476.113)">
                    <path d="M0,-1.936C0,-2.394 0.03,-2.915 -0.005,-3.432C-0.235,-6.79 -1.98,-9.222 -4.85,-10.786C-6.294,-11.573 -7.764,-11.919 -9.248,-11.899C-8.647,-11.456 -8.1,-10.926 -7.619,-10.338C-6.281,-8.704 -5.382,-6.73 -4.763,-4.722C-4.149,-2.731 -3.794,-0.627 -3.818,1.46C-3.828,2.333 -3.91,3.21 -4.116,4.059C-4.408,5.257 -5.048,6.384 -5.824,7.334C-6.73,8.442 -7.894,9.347 -9.192,9.923C-8.846,9.983 -8.495,9.983 -8.14,9.896C-6.492,9.493 -4.926,8.939 -3.877,7.453C-3.303,6.638 -2.596,5.916 -2.034,5.093C-1.543,4.375 -1.095,3.606 -0.761,2.804C-0.142,1.316 0.178,-0.246 0,-1.936" style="fill:rgb(117,76,40);fill-rule:nonzero;"/>
                </g>
            </g>
            <g transform="matrix(1,0,0,1,114.542,469.232)">
                <path d="M0,-0.55C-0.347,0.241 -0.323,1.159 -0.084,1.989C0.033,2.397 0.219,2.815 0.575,3.047C0.843,3.222 1.174,3.269 1.494,3.299C2.292,3.372 3.115,3.359 3.874,3.099C5.226,2.637 6.257,1.35 6.416,-0.071C6.845,-3.922 1.182,-3.243 0,-0.55" style="fill:white;fill-rule:nonzero;"/>
            </g>
            <g transform="matrix(1,0,0,1,116.093,478.039)">
                <path d="M0,-3.23C-0.449,-3.405 -0.977,-3.279 -1.364,-2.992C-1.751,-2.705 -2.012,-2.276 -2.192,-1.829C-2.307,-1.543 -2.394,-1.228 -2.321,-0.928C-2.189,-0.38 -1.589,-0.089 -1.038,0.031C-0.446,0.161 0.198,0.175 0.742,-0.092C1.286,-0.36 1.693,-0.963 1.59,-1.561C1.479,-2.199 0.874,-2.612 0.322,-2.95" style="fill:white;fill-rule:nonzero;"/>
            </g>
            <g transform="matrix(1,0,0,1,124.813,487.716)">
                <path d="M0,1.663C-1.261,1.686 -2.498,1.375 -3.807,1.439C-3.395,0.418 -2.398,0.511 -1.766,0.04C-1.683,-0.023 -1.385,0.121 -1.243,0.237C-0.787,0.608 -0.357,1.012 0.083,1.402C0.055,1.489 0.028,1.576 0,1.663" style="fill:rgb(0,183,212);fill-rule:nonzero;"/>
            </g>
            <g transform="matrix(1,0,0,1,151.024,458.44)">
                <path d="M0,9.504C0.028,9.417 0.055,9.33 0.083,9.243C-0.357,8.853 -0.787,8.449 -1.243,8.078C-1.385,7.962 -1.683,7.818 -1.766,7.88C-2.398,8.352 -3.395,8.258 -3.807,9.279C-2.498,9.215 -1.261,9.527 0,9.504M6.444,-5.698C6.444,-6.156 6.475,-6.678 6.439,-7.194C6.209,-10.553 4.464,-12.984 1.594,-14.548C-1.218,-16.081 -4.129,-15.97 -7.053,-14.647C-9.836,-13.389 -11.502,-11.304 -11.937,-8.313C-12.089,-7.267 -11.982,-6.164 -11.859,-5.102C-11.256,0.066 -8.462,3.639 -3.79,5.819C-3.115,6.135 -2.413,6.309 -1.695,6.133C-0.048,5.731 1.519,5.177 2.567,3.691C3.142,2.876 3.848,2.153 4.41,1.331C4.901,0.612 5.349,-0.156 5.683,-0.958C6.302,-2.446 6.622,-4.009 6.444,-5.698M-2.765,7.076C-7.924,5.301 -11.237,1.969 -12.494,-3.24C-13.031,-5.465 -13.273,-7.723 -12.515,-9.972C-11.842,-11.967 -10.746,-13.587 -8.87,-14.686C-6.442,-16.107 -3.902,-16.848 -1.087,-16.381C2.214,-15.832 4.646,-13.978 6.253,-11.132C6.843,-10.087 7.153,-8.808 7.292,-7.6C7.593,-4.999 7.434,-2.403 6.239,0.003C5.816,0.854 5.235,1.626 4.717,2.429C4.587,2.629 4.404,2.793 4.27,2.991C2.949,4.937 1.296,6.434 -1.25,6.918C-0.609,7.495 -0.088,7.96 0.427,8.431C0.632,8.618 0.856,8.799 1.016,9.023C1.302,9.426 1.188,9.822 0.718,9.967C0.304,10.094 -0.139,10.161 -0.572,10.183C-1.034,10.206 -1.326,10.294 -1.319,10.852C-1.308,11.679 -1.802,12.273 -2.376,12.787C-2.882,13.24 -3.442,13.631 -3.95,14.081C-4.368,14.449 -4.797,14.824 -5.129,15.266C-5.862,16.239 -5.75,17.217 -4.859,18.038C-4.508,18.362 -4.124,18.652 -3.747,18.948C-2.973,19.556 -2.624,20.378 -2.526,21.329C-2.373,22.822 -3.328,25.161 -4.641,26.352C-4.657,26.062 -4.73,25.839 -4.669,25.663C-4.499,25.176 -4.276,24.706 -4.069,24.232C-3.7,23.387 -3.392,22.539 -3.396,21.587C-3.4,20.764 -3.679,20.111 -4.302,19.593C-4.639,19.312 -4.984,19.039 -5.323,18.759C-6.839,17.506 -6.803,15.887 -5.569,14.456C-5.079,13.888 -4.447,13.441 -3.873,12.945C-3.389,12.529 -2.873,12.148 -2.417,11.702C-2.202,11.491 -2.039,11.185 -1.955,10.892C-1.813,10.4 -2.003,10.138 -2.517,10.049C-3.146,9.941 -3.78,9.868 -4.412,9.779C-4.57,9.757 -4.751,9.769 -4.879,9.692C-5.032,9.601 -5.191,9.45 -5.248,9.29C-5.279,9.203 -5.132,9.006 -5.019,8.922C-4.443,8.495 -3.843,8.102 -3.271,7.671C-3.09,7.535 -2.969,7.321 -2.765,7.076" style="fill:rgb(35,31,32);fill-rule:nonzero;"/>
            </g>
            <g transform="matrix(1,0,0,1,157.469,454.366)">
                <path d="M0,-1.624C0.178,0.065 -0.142,1.628 -0.761,3.116C-1.095,3.918 -1.543,4.687 -2.034,5.405C-2.596,6.228 -3.303,6.95 -3.877,7.765C-4.926,9.251 -6.492,9.805 -8.14,10.207C-8.857,10.383 -9.56,10.209 -10.234,9.894C-14.906,7.713 -17.701,4.14 -18.303,-1.028C-18.427,-2.09 -18.533,-3.193 -18.381,-4.239C-17.947,-7.229 -16.281,-9.314 -13.498,-10.573C-10.574,-11.895 -7.663,-12.007 -4.85,-10.474C-1.98,-8.91 -0.235,-6.478 -0.005,-3.12C0.03,-2.603 0,-2.082 0,-1.624" style="fill:rgb(0,147,216);fill-rule:nonzero;"/>
            </g>
            <g opacity="0.2">
                <g transform="matrix(1,0,0,1,157.469,454.677)">
                    <path d="M0,-1.935C0,-2.393 0.03,-2.914 -0.005,-3.431C-0.235,-6.789 -1.98,-9.221 -4.85,-10.785C-6.294,-11.572 -7.764,-11.919 -9.248,-11.898C-8.647,-11.455 -8.1,-10.925 -7.619,-10.337C-6.281,-8.703 -5.382,-6.729 -4.763,-4.721C-4.149,-2.73 -3.794,-0.626 -3.818,1.461C-3.828,2.334 -3.91,3.211 -4.116,4.06C-4.408,5.257 -5.048,6.385 -5.824,7.335C-6.73,8.442 -7.894,9.348 -9.192,9.924C-8.846,9.984 -8.495,9.983 -8.14,9.896C-6.492,9.494 -4.926,8.94 -3.877,7.454C-3.303,6.639 -2.596,5.917 -2.034,5.094C-1.543,4.376 -1.095,3.607 -0.761,2.805C-0.142,1.317 0.178,-0.246 0,-1.935" style="fill:rgb(117,76,40);fill-rule:nonzero;"/>
                </g>
            </g>
            <g transform="matrix(1,0,0,1,140.754,447.796)">
                <path d="M0,-0.55C-0.347,0.241 -0.323,1.158 -0.084,1.989C0.033,2.397 0.219,2.814 0.575,3.047C0.843,3.222 1.174,3.269 1.494,3.299C2.292,3.372 3.115,3.358 3.874,3.099C5.226,2.637 6.257,1.35 6.416,-0.071C6.845,-3.922 1.182,-3.243 0,-0.55" style="fill:white;fill-rule:nonzero;"/>
            </g>
            <g transform="matrix(1,0,0,1,142.305,456.603)">
                <path d="M0,-3.23C-0.449,-3.405 -0.978,-3.28 -1.365,-2.992C-1.751,-2.705 -2.013,-2.276 -2.192,-1.83C-2.308,-1.543 -2.394,-1.228 -2.322,-0.929C-2.189,-0.38 -1.589,-0.089 -1.039,0.031C-0.446,0.161 0.197,0.175 0.742,-0.092C1.286,-0.36 1.693,-0.964 1.589,-1.561C1.479,-2.199 0.874,-2.612 0.322,-2.95" style="fill:white;fill-rule:nonzero;"/>
            </g>
            <g transform="matrix(1,0,0,1,151.024,466.281)">
                <path d="M0,1.663C-1.261,1.686 -2.498,1.374 -3.807,1.438C-3.395,0.417 -2.398,0.511 -1.766,0.039C-1.683,-0.023 -1.385,0.121 -1.243,0.237C-0.787,0.608 -0.357,1.012 0.083,1.402C0.055,1.489 0.028,1.576 0,1.663" style="fill:rgb(0,147,216);fill-rule:nonzero;"/>
            </g>
            <g transform="matrix(1,0,0,1,171.032,428.736)">
                <path d="M0,9.504C0.028,9.417 0.055,9.33 0.083,9.243C-0.357,8.853 -0.787,8.449 -1.243,8.078C-1.385,7.962 -1.683,7.818 -1.766,7.88C-2.398,8.352 -3.395,8.258 -3.807,9.279C-2.498,9.215 -1.261,9.527 0,9.504M6.444,-5.699C6.444,-6.156 6.475,-6.678 6.439,-7.194C6.209,-10.554 4.464,-12.984 1.594,-14.548C-1.218,-16.081 -4.129,-15.97 -7.053,-14.647C-9.836,-13.389 -11.502,-11.304 -11.937,-8.313C-12.089,-7.267 -11.982,-6.164 -11.859,-5.102C-11.256,0.066 -8.462,3.639 -3.79,5.819C-3.115,6.135 -2.413,6.309 -1.695,6.133C-0.048,5.731 1.519,5.177 2.567,3.691C3.142,2.876 3.848,2.153 4.41,1.331C4.901,0.612 5.349,-0.156 5.683,-0.958C6.302,-2.446 6.622,-4.009 6.444,-5.699M-2.765,7.076C-7.924,5.301 -11.237,1.969 -12.495,-3.24C-13.031,-5.465 -13.273,-7.723 -12.515,-9.972C-11.842,-11.967 -10.746,-13.587 -8.87,-14.686C-6.442,-16.107 -3.902,-16.848 -1.087,-16.381C2.214,-15.832 4.646,-13.978 6.253,-11.132C6.843,-10.087 7.153,-8.808 7.292,-7.6C7.593,-4.999 7.434,-2.403 6.239,0.002C5.816,0.854 5.235,1.626 4.716,2.429C4.587,2.628 4.404,2.793 4.27,2.99C2.949,4.937 1.296,6.434 -1.25,6.918C-0.609,7.495 -0.088,7.959 0.427,8.431C0.632,8.618 0.856,8.799 1.016,9.023C1.302,9.426 1.188,9.821 0.718,9.967C0.304,10.094 -0.139,10.161 -0.572,10.183C-1.034,10.206 -1.326,10.294 -1.319,10.852C-1.308,11.679 -1.802,12.273 -2.376,12.787C-2.882,13.24 -3.442,13.631 -3.95,14.08C-4.368,14.449 -4.797,14.824 -5.129,15.266C-5.862,16.239 -5.75,17.217 -4.859,18.038C-4.508,18.362 -4.124,18.652 -3.747,18.948C-2.973,19.556 -2.624,20.378 -2.526,21.329C-2.373,22.822 -3.328,25.161 -4.641,26.352C-4.657,26.062 -4.73,25.839 -4.669,25.663C-4.499,25.176 -4.276,24.706 -4.069,24.232C-3.7,23.387 -3.392,22.539 -3.396,21.587C-3.4,20.764 -3.679,20.111 -4.302,19.593C-4.639,19.312 -4.984,19.039 -5.323,18.759C-6.839,17.506 -6.803,15.887 -5.569,14.456C-5.079,13.888 -4.447,13.441 -3.873,12.945C-3.389,12.529 -2.873,12.148 -2.417,11.702C-2.202,11.491 -2.039,11.185 -1.955,10.892C-1.813,10.4 -2.003,10.137 -2.517,10.049C-3.146,9.941 -3.78,9.868 -4.412,9.779C-4.57,9.757 -4.751,9.769 -4.879,9.692C-5.033,9.601 -5.191,9.45 -5.248,9.29C-5.279,9.203 -5.132,9.006 -5.019,8.922C-4.443,8.495 -3.843,8.102 -3.271,7.671C-3.09,7.535 -2.969,7.321 -2.765,7.076" style="fill:rgb(35,31,32);fill-rule:nonzero;"/>
            </g>
            <g transform="matrix(1,0,0,1,177.476,424.662)">
                <path d="M0,-1.626C0.178,0.064 -0.142,1.627 -0.761,3.115C-1.095,3.917 -1.543,4.686 -2.034,5.404C-2.596,6.227 -3.303,6.949 -3.877,7.764C-4.926,9.25 -6.492,9.804 -8.14,10.206C-8.857,10.382 -9.56,10.208 -10.234,9.893C-14.906,7.712 -17.701,4.139 -18.303,-1.029C-18.427,-2.091 -18.533,-3.194 -18.381,-4.24C-17.947,-7.23 -16.281,-9.315 -13.498,-10.574C-10.574,-11.897 -7.663,-12.008 -4.85,-10.475C-1.98,-8.911 -0.235,-6.48 -0.005,-3.121C0.03,-2.605 0,-2.083 0,-1.626" style="fill:rgb(157,130,188);fill-rule:nonzero;"/>
            </g>
            <g opacity="0.2">
                <g transform="matrix(1,0,0,1,177.476,424.972)">
                    <path d="M0,-1.936C0,-2.394 0.03,-2.915 -0.005,-3.431C-0.235,-6.79 -1.98,-9.221 -4.85,-10.785C-6.294,-11.572 -7.764,-11.919 -9.248,-11.898C-8.647,-11.455 -8.1,-10.925 -7.619,-10.337C-6.281,-8.703 -5.382,-6.729 -4.763,-4.722C-4.149,-2.73 -3.794,-0.626 -3.818,1.46C-3.828,2.334 -3.91,3.21 -4.116,4.06C-4.408,5.257 -5.048,6.385 -5.824,7.335C-6.73,8.442 -7.894,9.348 -9.192,9.924C-8.846,9.983 -8.495,9.983 -8.14,9.896C-6.492,9.494 -4.926,8.94 -3.877,7.454C-3.303,6.639 -2.596,5.917 -2.034,5.094C-1.543,4.376 -1.095,3.607 -0.761,2.805C-0.142,1.317 0.178,-0.246 0,-1.936" style="fill:rgb(117,76,40);fill-rule:nonzero;"/>
                </g>
            </g>
            <g transform="matrix(1,0,0,1,160.762,418.092)">
                <path d="M0,-0.551C-0.347,0.241 -0.323,1.158 -0.084,1.989C0.033,2.397 0.219,2.814 0.575,3.047C0.843,3.222 1.174,3.269 1.494,3.299C2.292,3.371 3.115,3.358 3.874,3.098C5.226,2.637 6.257,1.35 6.416,-0.071C6.845,-3.922 1.182,-3.243 0,-0.551" style="fill:white;fill-rule:nonzero;"/>
            </g>
            <g transform="matrix(1,0,0,1,162.312,426.899)">
                <path d="M0,-3.23C-0.449,-3.405 -0.977,-3.28 -1.364,-2.992C-1.751,-2.705 -2.012,-2.277 -2.192,-1.83C-2.307,-1.543 -2.394,-1.229 -2.321,-0.929C-2.189,-0.381 -1.589,-0.089 -1.038,0.031C-0.446,0.161 0.198,0.175 0.742,-0.092C1.286,-0.36 1.693,-0.964 1.59,-1.561C1.479,-2.2 0.874,-2.612 0.322,-2.95" style="fill:white;fill-rule:nonzero;"/>
            </g>
            <g transform="matrix(1,0,0,1,171.032,436.577)">
                <path d="M0,1.663C-1.261,1.686 -2.498,1.374 -3.807,1.438C-3.395,0.417 -2.398,0.511 -1.766,0.039C-1.683,-0.023 -1.385,0.121 -1.243,0.237C-0.787,0.608 -0.357,1.012 0.083,1.402C0.055,1.489 0.028,1.576 0,1.663" style="fill:rgb(157,130,188);fill-rule:nonzero;"/>
            </g>
            <g transform="matrix(1,0,0,1,114.215,390.494)">
                <path d="M0,9.504C0.027,9.417 0.055,9.33 0.083,9.242C-0.357,8.852 -0.787,8.448 -1.243,8.077C-1.386,7.961 -1.684,7.818 -1.767,7.88C-2.399,8.352 -3.395,8.258 -3.807,9.279C-2.499,9.215 -1.262,9.527 0,9.504M6.444,-5.699C6.444,-6.157 6.475,-6.678 6.439,-7.195C6.209,-10.554 4.464,-12.985 1.594,-14.548C-1.219,-16.081 -4.13,-15.97 -7.054,-14.647C-9.836,-13.389 -11.503,-11.304 -11.937,-8.313C-12.089,-7.268 -11.982,-6.164 -11.859,-5.102C-11.256,0.066 -8.462,3.638 -3.79,5.819C-3.115,6.134 -2.413,6.309 -1.695,6.133C-0.048,5.73 1.518,5.176 2.567,3.691C3.142,2.876 3.848,2.153 4.41,1.331C4.901,0.612 5.349,-0.156 5.683,-0.958C6.302,-2.446 6.622,-4.009 6.444,-5.699M-2.765,7.075C-7.925,5.3 -11.238,1.969 -12.495,-3.24C-13.031,-5.466 -13.273,-7.723 -12.515,-9.972C-11.842,-11.968 -10.747,-13.587 -8.87,-14.686C-6.442,-16.108 -3.902,-16.848 -1.087,-16.381C2.214,-15.832 4.645,-13.978 6.252,-11.132C6.843,-10.087 7.152,-8.808 7.292,-7.601C7.593,-4.999 7.434,-2.403 6.238,0.002C5.815,0.853 5.235,1.626 4.716,2.428C4.587,2.628 4.403,2.793 4.27,2.99C2.949,4.937 1.296,6.434 -1.25,6.918C-0.609,7.495 -0.088,7.959 0.427,8.43C0.632,8.618 0.856,8.799 1.015,9.023C1.302,9.426 1.188,9.821 0.718,9.966C0.304,10.094 -0.139,10.161 -0.573,10.183C-1.034,10.205 -1.327,10.294 -1.319,10.852C-1.308,11.679 -1.802,12.273 -2.377,12.787C-2.882,13.239 -3.442,13.631 -3.951,14.08C-4.368,14.449 -4.797,14.824 -5.129,15.266C-5.862,16.239 -5.75,17.216 -4.859,18.038C-4.508,18.362 -4.124,18.652 -3.747,18.948C-2.973,19.556 -2.624,20.378 -2.526,21.329C-2.373,22.821 -3.328,25.161 -4.641,26.352C-4.658,26.062 -4.73,25.839 -4.669,25.663C-4.499,25.176 -4.276,24.706 -4.069,24.232C-3.7,23.387 -3.392,22.538 -3.396,21.587C-3.4,20.764 -3.679,20.111 -4.302,19.593C-4.64,19.312 -4.984,19.039 -5.323,18.759C-6.839,17.506 -6.803,15.887 -5.569,14.456C-5.079,13.887 -4.447,13.441 -3.873,12.945C-3.389,12.528 -2.873,12.148 -2.418,11.702C-2.202,11.491 -2.039,11.184 -1.955,10.892C-1.813,10.4 -2.003,10.137 -2.517,10.049C-3.146,9.941 -3.78,9.868 -4.412,9.779C-4.57,9.757 -4.751,9.768 -4.879,9.692C-5.033,9.601 -5.191,9.45 -5.249,9.29C-5.279,9.203 -5.133,9.006 -5.019,8.922C-4.443,8.495 -3.843,8.101 -3.271,7.67C-3.091,7.535 -2.969,7.321 -2.765,7.075" style="fill:rgb(35,31,32);fill-rule:nonzero;"/>
            </g>
            <g transform="matrix(1,0,0,1,120.659,386.421)">
                <path d="M0,-1.626C0.178,0.064 -0.142,1.627 -0.761,3.115C-1.095,3.917 -1.542,4.686 -2.034,5.404C-2.596,6.227 -3.302,6.949 -3.877,7.764C-4.926,9.249 -6.492,9.803 -8.139,10.206C-8.857,10.382 -9.559,10.207 -10.234,9.893C-14.906,7.711 -17.7,4.139 -18.303,-1.029C-18.426,-2.091 -18.533,-3.195 -18.381,-4.24C-17.947,-7.23 -16.28,-9.315 -13.498,-10.574C-10.574,-11.897 -7.663,-12.008 -4.85,-10.475C-1.98,-8.912 -0.234,-6.48 -0.005,-3.122C0.031,-2.605 0,-2.084 0,-1.626" style="fill:rgb(237,28,36);fill-rule:nonzero;"/>
            </g>
            <g opacity="0.2">
                <g transform="matrix(1,0,0,1,120.659,386.731)">
                    <path d="M0,-1.936C0,-2.394 0.031,-2.915 -0.005,-3.432C-0.234,-6.79 -1.98,-9.222 -4.85,-10.785C-6.293,-11.572 -7.763,-11.919 -9.248,-11.898C-8.647,-11.455 -8.1,-10.925 -7.619,-10.337C-6.281,-8.703 -5.382,-6.729 -4.763,-4.722C-4.148,-2.731 -3.794,-0.627 -3.818,1.46C-3.828,2.333 -3.909,3.21 -4.116,4.06C-4.407,5.257 -5.048,6.385 -5.824,7.334C-6.73,8.442 -7.894,9.347 -9.192,9.924C-8.846,9.983 -8.495,9.983 -8.139,9.896C-6.492,9.493 -4.926,8.939 -3.877,7.454C-3.302,6.639 -2.596,5.917 -2.034,5.094C-1.542,4.376 -1.095,3.607 -0.761,2.805C-0.142,1.317 0.178,-0.246 0,-1.936" style="fill:rgb(117,76,40);fill-rule:nonzero;"/>
                </g>
            </g>
            <g transform="matrix(1,0,0,1,103.944,379.851)">
                <path d="M0,-0.551C-0.347,0.241 -0.323,1.158 -0.084,1.989C0.033,2.397 0.22,2.814 0.575,3.047C0.844,3.222 1.174,3.269 1.494,3.298C2.293,3.371 3.115,3.358 3.874,3.098C5.226,2.636 6.258,1.349 6.416,-0.071C6.846,-3.922 1.182,-3.244 0,-0.551" style="fill:white;fill-rule:nonzero;"/>
            </g>
            <g transform="matrix(1,0,0,1,105.495,388.656)">
                <path d="M0,-3.228C-0.449,-3.404 -0.978,-3.278 -1.364,-2.991C-1.751,-2.704 -2.012,-2.275 -2.192,-1.828C-2.308,-1.541 -2.394,-1.227 -2.321,-0.927C-2.189,-0.379 -1.589,-0.088 -1.039,0.033C-0.446,0.163 0.198,0.176 0.742,-0.091C1.286,-0.359 1.693,-0.962 1.59,-1.56C1.479,-2.198 0.874,-2.61 0.322,-2.949" style="fill:white;fill-rule:nonzero;"/>
            </g>
            <g transform="matrix(1,0,0,1,114.215,398.335)">
                <path d="M0,1.663C-1.262,1.686 -2.499,1.374 -3.807,1.438C-3.395,0.417 -2.399,0.511 -1.767,0.039C-1.684,-0.023 -1.386,0.12 -1.243,0.236C-0.787,0.607 -0.357,1.011 0.083,1.401C0.055,1.489 0.027,1.576 0,1.663" style="fill:rgb(237,28,36);fill-rule:nonzero;"/>
            </g>
            <g transform="matrix(1,0,0,1,131.759,420.887)">
                <path d="M0,9.504C0.027,9.417 0.055,9.33 0.083,9.243C-0.357,8.853 -0.787,8.449 -1.243,8.078C-1.386,7.962 -1.684,7.818 -1.767,7.881C-2.399,8.352 -3.395,8.259 -3.807,9.28C-2.499,9.216 -1.262,9.527 0,9.504M6.444,-5.698C6.444,-6.156 6.475,-6.678 6.439,-7.194C6.209,-10.553 4.464,-12.984 1.594,-14.548C-1.219,-16.081 -4.13,-15.97 -7.054,-14.647C-9.836,-13.388 -11.503,-11.303 -11.938,-8.313C-12.089,-7.267 -11.983,-6.164 -11.859,-5.102C-11.256,0.066 -8.462,3.639 -3.79,5.819C-3.115,6.135 -2.413,6.309 -1.695,6.133C-0.048,5.731 1.518,5.177 2.567,3.691C3.142,2.876 3.848,2.153 4.41,1.331C4.901,0.612 5.349,-0.156 5.683,-0.958C6.302,-2.446 6.622,-4.008 6.444,-5.698M-2.765,7.076C-7.925,5.301 -11.238,1.969 -12.495,-3.24C-13.031,-5.465 -13.273,-7.722 -12.515,-9.972C-11.842,-11.967 -10.747,-13.587 -8.87,-14.685C-6.442,-16.107 -3.902,-16.848 -1.087,-16.38C2.214,-15.832 4.645,-13.977 6.252,-11.131C6.842,-10.086 7.152,-8.808 7.292,-7.6C7.593,-4.999 7.434,-2.403 6.238,0.003C5.815,0.854 5.235,1.627 4.716,2.429C4.587,2.629 4.403,2.793 4.27,2.991C2.949,4.938 1.295,6.435 -1.25,6.919C-0.609,7.496 -0.088,7.96 0.427,8.431C0.632,8.619 0.856,8.799 1.015,9.024C1.302,9.426 1.188,9.822 0.718,9.967C0.304,10.094 -0.139,10.161 -0.573,10.183C-1.034,10.206 -1.327,10.294 -1.319,10.853C-1.308,11.679 -1.802,12.273 -2.377,12.788C-2.882,13.24 -3.442,13.632 -3.951,14.081C-4.368,14.449 -4.797,14.825 -5.129,15.266C-5.862,16.239 -5.75,17.217 -4.859,18.038C-4.508,18.362 -4.124,18.653 -3.747,18.949C-2.973,19.557 -2.624,20.379 -2.526,21.33C-2.373,22.822 -3.328,25.162 -4.641,26.352C-4.658,26.062 -4.73,25.84 -4.669,25.664C-4.499,25.176 -4.276,24.706 -4.069,24.232C-3.7,23.387 -3.392,22.539 -3.396,21.588C-3.4,20.764 -3.679,20.111 -4.302,19.593C-4.64,19.313 -4.984,19.039 -5.323,18.76C-6.839,17.507 -6.803,15.888 -5.569,14.456C-5.079,13.888 -4.447,13.441 -3.873,12.946C-3.389,12.529 -2.873,12.148 -2.418,11.702C-2.202,11.491 -2.04,11.185 -1.955,10.892C-1.813,10.401 -2.003,10.138 -2.517,10.049C-3.146,9.941 -3.78,9.869 -4.412,9.779C-4.57,9.757 -4.751,9.769 -4.879,9.692C-5.033,9.601 -5.191,9.451 -5.249,9.291C-5.279,9.204 -5.133,9.006 -5.019,8.922C-4.443,8.496 -3.843,8.102 -3.271,7.671C-3.091,7.535 -2.97,7.322 -2.765,7.076" style="fill:rgb(35,31,32);fill-rule:nonzero;"/>
            </g>
            <g transform="matrix(1,0,0,1,138.202,416.813)">
                <path d="M0,-1.624C0.178,0.066 -0.142,1.628 -0.761,3.116C-1.095,3.918 -1.542,4.687 -2.034,5.405C-2.596,6.228 -3.302,6.95 -3.877,7.765C-4.926,9.251 -6.492,9.805 -8.139,10.207C-8.857,10.383 -9.559,10.209 -10.234,9.894C-14.906,7.713 -17.7,4.14 -18.303,-1.028C-18.427,-2.09 -18.533,-3.193 -18.381,-4.239C-17.947,-7.228 -16.28,-9.313 -13.498,-10.573C-10.574,-11.895 -7.663,-12.007 -4.85,-10.474C-1.98,-8.91 -0.234,-6.478 -0.005,-3.12C0.031,-2.603 0,-2.082 0,-1.624" style="fill:rgb(243,121,129);fill-rule:nonzero;"/>
            </g>
            <g opacity="0.2">
                <g transform="matrix(1,0,0,1,138.202,417.125)">
                    <path d="M0,-1.936C0,-2.394 0.031,-2.915 -0.005,-3.432C-0.234,-6.79 -1.98,-9.222 -4.85,-10.786C-6.293,-11.573 -7.764,-11.919 -9.248,-11.899C-8.647,-11.456 -8.1,-10.926 -7.619,-10.338C-6.281,-8.704 -5.382,-6.73 -4.763,-4.722C-4.148,-2.731 -3.794,-0.627 -3.818,1.46C-3.828,2.333 -3.909,3.21 -4.116,4.059C-4.407,5.257 -5.048,6.384 -5.824,7.334C-6.73,8.442 -7.894,9.347 -9.192,9.923C-8.846,9.983 -8.495,9.983 -8.139,9.896C-6.492,9.493 -4.926,8.939 -3.877,7.453C-3.302,6.638 -2.596,5.916 -2.034,5.093C-1.542,4.375 -1.095,3.606 -0.761,2.804C-0.142,1.316 0.178,-0.246 0,-1.936" style="fill:rgb(117,76,40);fill-rule:nonzero;"/>
                </g>
            </g>
            <g transform="matrix(1,0,0,1,121.488,410.244)">
                <path d="M0,-0.55C-0.347,0.241 -0.323,1.159 -0.084,1.989C0.033,2.397 0.22,2.815 0.575,3.047C0.844,3.222 1.174,3.269 1.494,3.299C2.293,3.372 3.115,3.359 3.874,3.099C5.226,2.637 6.258,1.35 6.416,-0.071C6.846,-3.922 1.182,-3.243 0,-0.55" style="fill:white;fill-rule:nonzero;"/>
            </g>
            <g transform="matrix(1,0,0,1,123.039,419.051)">
                <path d="M0,-3.23C-0.449,-3.405 -0.978,-3.279 -1.364,-2.992C-1.751,-2.705 -2.012,-2.276 -2.192,-1.829C-2.308,-1.543 -2.394,-1.228 -2.322,-0.928C-2.189,-0.38 -1.589,-0.089 -1.039,0.031C-0.446,0.161 0.198,0.175 0.742,-0.092C1.286,-0.36 1.693,-0.963 1.59,-1.561C1.479,-2.199 0.874,-2.612 0.322,-2.95" style="fill:white;fill-rule:nonzero;"/>
            </g>
            <g transform="matrix(1,0,0,1,131.759,428.728)">
                <path d="M0,1.663C-1.262,1.686 -2.499,1.375 -3.807,1.439C-3.395,0.418 -2.399,0.511 -1.767,0.04C-1.684,-0.023 -1.386,0.121 -1.243,0.237C-0.787,0.608 -0.357,1.012 0.083,1.402C0.055,1.489 0.027,1.576 0,1.663" style="fill:rgb(243,121,129);fill-rule:nonzero;"/>
            </g>
        </g>
    </g>
</svg>
