<?xml version="1.0" encoding="UTF-8" standalone="no"?>
<!DOCTYPE svg PUBLIC "-//W3C//DTD SVG 1.1//EN" "http://www.w3.org/Graphics/SVG/1.1/DTD/svg11.dtd">
<svg width="100%" height="100%" viewBox="0 0 295 440" version="1.1" xmlns="http://www.w3.org/2000/svg" xmlns:xlink="http://www.w3.org/1999/xlink" xml:space="preserve" xmlns:serif="http://www.serif.com/" style="fill-rule:evenodd;clip-rule:evenodd;stroke-linejoin:round;stroke-miterlimit:2;">
    <g transform="matrix(1,0,0,1,-229,-2345)">
        <g>
            <g transform="matrix(4.16667,0,0,4.16667,352.388,2521.42)">
                <path d="M0,20.855C-0.432,21.009 -0.623,21.042 -0.767,21.143C-0.854,21.205 -0.907,21.375 -0.899,21.49C-0.894,21.576 -0.766,21.718 -0.69,21.72C-0.571,21.722 -0.412,21.658 -0.337,21.567C-0.229,21.435 -0.182,21.254 0,20.855M-2.26,29.115C-2.203,28.745 -3.082,27.771 -3.354,27.808C-3.421,27.818 -3.52,27.865 -3.539,27.917C-3.637,28.192 -3.869,28.573 -3.767,28.732C-3.555,29.06 -3.187,29.326 -2.827,29.501C-2.715,29.554 -2.42,29.229 -2.26,29.115M6.084,53.865C5.898,53.839 5.743,53.828 5.591,53.797C5.131,53.704 5.078,53.994 5.066,54.336C5.055,54.658 5.189,54.867 5.521,54.884C5.868,54.902 6.218,54.91 6.563,54.881C6.945,54.849 7.082,54.527 7.104,54.223C7.134,53.814 6.77,53.89 6.517,53.867C6.363,53.853 6.207,53.865 6.084,53.865M21.417,40.916C21.302,40.501 21.203,40.129 21.094,39.759C20.979,39.368 20.673,39.34 20.351,39.415C19.971,39.502 20.026,39.814 20.106,40.066C20.258,40.542 20.437,41.01 20.651,41.46C20.686,41.533 21.029,41.563 21.105,41.488C21.258,41.338 21.323,41.102 21.417,40.916M18.98,38.245C18.533,38.884 18.503,39.407 18.597,39.951C18.688,40.481 18.771,41.014 18.896,41.536C18.933,41.69 19.104,41.811 19.212,41.947C19.353,41.793 19.532,41.659 19.621,41.479C19.68,41.36 19.628,41.173 19.596,41.023C19.408,40.154 19.212,39.287 18.98,38.245M15.521,39.686C16.134,39.713 16.925,38.74 16.758,38.163C16.625,37.7 16.125,37.55 15.796,37.901C15.506,38.21 15.215,38.537 15.009,38.903C14.78,39.308 15.044,39.666 15.521,39.686M17.781,38.163C17.153,39.076 16.738,39.882 16.814,40.86C16.837,41.159 16.928,41.483 17.089,41.731C17.183,41.876 17.482,41.956 17.678,41.939C17.789,41.929 17.924,41.677 17.965,41.513C18.012,41.332 17.968,41.126 17.956,40.932C17.904,40.092 17.85,39.253 17.781,38.163M-5.527,55.085C-5.19,55.109 -4.82,54.953 -4.65,54.484C-4.479,54.012 -4.328,53.535 -4.172,53.058C-4.081,52.778 -4.224,52.635 -4.47,52.532C-6.063,51.861 -6.292,51.978 -6.708,53.699C-6.898,54.491 -6.489,55.031 -5.527,55.085M7.474,15.773C8.199,15.781 8.644,15.622 8.769,14.938C8.859,14.445 9.06,13.973 9.199,13.488C9.354,12.942 9.297,12.861 8.792,12.788C7.874,12.654 6.957,12.51 6.039,12.376C5.929,12.36 5.803,12.342 5.704,12.378C5.404,12.487 4.689,14.164 4.822,14.436C4.871,14.538 4.951,14.633 5.038,14.707C5.773,15.321 6.619,15.678 7.474,15.773M18.251,37.55C18.38,37.512 18.713,37.424 19.04,37.319C19.467,37.182 19.714,37.33 19.792,37.765C19.812,37.879 19.805,37.999 19.827,38.112C19.894,38.464 20.11,38.68 20.47,38.641C20.843,38.601 20.987,38.32 20.958,37.97C20.876,36.97 20.611,36.062 19.665,35.511C18.783,34.999 18.024,34.344 17.433,33.508C17.251,33.252 17.057,33.129 16.762,33.341C16.505,33.527 16.18,33.726 16.438,34.077C16.906,34.711 16.805,35.352 16.669,36.062C16.476,37.079 16.963,37.56 18.251,37.55M3.57,39.96C3.405,40.292 3.306,40.458 3.235,40.635C1.859,44.092 1.29,47.745 0.64,51.377C0.585,51.682 0.553,51.997 0.449,52.284C0.203,52.963 -0.082,53.13 -0.783,53.071C-1.442,53.015 -2.1,52.952 -2.759,52.897C-3.324,52.85 -3.445,52.994 -3.58,53.708C-3.67,54.191 -3.439,54.338 -3.02,54.366C-1.83,54.441 -0.755,54.896 0.318,55.365C0.959,55.644 1.622,55.876 2.269,56.144C2.537,56.254 2.773,56.322 3.018,56.088C3.383,55.74 3.844,55.461 4.116,55.054C4.331,54.733 4.382,54.263 4.396,53.856C4.411,53.441 3.994,53.477 3.708,53.379C2.951,53.121 2.779,52.894 2.821,52.093C2.893,50.734 2.999,49.377 3.094,48.02C3.272,45.46 3.454,42.901 3.631,40.341C3.637,40.266 3.608,40.189 3.57,39.96M-4.371,35.187C-4.232,34.888 -4.156,34.713 -4.071,34.544C-3.636,33.677 -3.212,32.804 -2.751,31.952C-2.662,31.787 -2.424,31.703 -2.254,31.581C-2.233,31.797 -2.158,32.027 -2.205,32.228C-2.264,32.488 -2.429,32.721 -2.533,32.973C-2.844,33.727 -3.174,34.475 -3.44,35.245C-3.564,35.604 -3.584,36.007 -3.601,36.393C-3.618,36.778 -3.32,36.947 -3,36.988C-2.592,37.04 -2.615,36.703 -2.597,36.434C-2.502,35.027 -2.204,33.665 -1.676,32.357C-1.562,32.073 -1.396,31.805 -1.221,31.553C-1.174,31.485 -0.987,31.45 -0.905,31.488C-0.83,31.522 -0.762,31.682 -0.775,31.775C-0.8,31.964 -0.889,32.145 -0.94,32.332C-1.164,33.157 -1.43,33.973 -1.59,34.811C-1.713,35.455 -1.739,36.124 -1.737,36.782C-1.735,37.186 -1.417,37.366 -0.993,37.306C-0.528,37.242 -0.228,36.923 -0.354,36.53C-0.89,34.865 -0.427,33.306 0.122,31.756C0.187,31.572 0.356,31.424 0.478,31.26C0.62,31.699 0.557,32.065 0.499,32.431C0.351,33.35 0.164,34.266 0.07,35.192C-0.007,35.963 0.602,36.383 1.357,36.17C1.815,36.042 2.118,35.741 2.226,35.306C2.375,34.707 2.486,34.091 2.549,33.476C2.695,32.047 2.776,30.611 2.936,29.184C3.066,28.011 3.477,27.66 4.667,27.554C4.977,27.527 5.297,27.556 5.598,27.491C6.394,27.316 6.879,26.773 7.125,26.028C7.313,25.455 7.122,24.958 6.683,24.552C6.271,24.172 6.035,24.013 5.555,24.607C4.909,25.408 4.106,26.081 3.003,26.044C2.304,26.022 1.912,26.313 1.612,26.873C1.273,27.507 0.813,28.147 0.141,28.309C-1.215,28.636 -2.065,29.477 -2.773,30.586C-3.064,31.043 -3.493,31.41 -3.792,31.862C-4.155,32.41 -4.464,32.996 -4.767,33.581C-5.051,34.132 -4.902,34.621 -4.371,35.187M9.694,60.789L9.694,60.717C10.705,60.717 11.717,60.688 12.727,60.726C13.795,60.766 14.812,60.537 15.825,60.255C16.545,60.055 16.724,59.783 16.537,59.078C16.461,58.792 16.285,58.512 16.095,58.277C15.076,57.015 13.73,56.29 12.156,55.981C10.938,55.743 9.711,55.542 8.487,55.334C8.259,55.296 7.993,55.236 7.795,55.314C6.86,55.684 5.916,55.684 4.933,55.576C4.266,55.501 3.917,56.079 3.576,56.54C3.259,56.966 3.679,57.253 3.881,57.557C4.399,58.334 4.916,59.108 5.085,60.053C5.213,60.766 5.218,60.779 5.96,60.786C7.205,60.796 8.449,60.789 9.694,60.789M-2.045,62.212C0.031,62.154 1.674,62.227 3.26,61.716C4.167,61.423 4.387,61.213 4.223,60.288C3.944,58.724 3.161,57.457 1.654,56.764C1.018,56.472 0.365,56.21 -0.298,55.988C-1.216,55.678 -2.146,55.402 -3.08,55.144C-3.498,55.028 -3.913,55.045 -4.301,55.334C-5.122,55.947 -5.981,55.918 -6.787,55.322C-7.248,54.982 -7.656,55.034 -8.069,55.326C-8.353,55.526 -8.645,55.744 -8.854,56.014C-9.911,57.378 -10.142,58.987 -10.101,60.645C-10.095,60.878 -9.805,61.235 -9.574,61.31C-8.837,61.548 -8.073,61.764 -7.306,61.837C-5.41,62.017 -3.506,62.113 -2.045,62.212M1.449,25.519C-0.151,23.636 -1.739,21.769 -3.324,19.901C-3.503,19.69 -3.714,19.425 -3.448,19.192C-3.16,18.94 -2.967,19.261 -2.779,19.437C-2.357,19.832 -1.98,20.495 -1.513,20.564C-0.974,20.645 -0.363,20.182 0.229,19.997C1.007,19.751 1.793,19.527 2.587,19.34C2.756,19.3 2.973,19.459 3.167,19.526C3.029,19.691 2.923,19.927 2.746,20.005C2.433,20.145 2.074,20.182 1.738,20.276C1.103,20.452 0.038,22.004 0.141,22.648C0.176,22.864 0.307,23.088 0.454,23.258C0.937,23.817 1.432,24.368 1.951,24.893C2.518,25.467 3.042,25.588 3.721,25.213C4.187,24.956 4.585,24.565 4.99,24.207C5.221,24.002 5.375,23.702 5.621,23.526C5.779,23.413 6.089,23.352 6.251,23.431C7.851,24.207 8.383,25.617 7.412,27.063C7.009,27.662 6.444,28.081 5.709,28.203C5.289,28.273 4.862,28.31 4.437,28.354C4.093,28.389 3.822,28.54 3.753,28.886C3.625,29.535 3.53,30.189 3.433,30.842C3.383,31.181 3.567,31.349 3.89,31.379C4.201,31.409 4.511,31.441 4.822,31.455C6.643,31.532 8.357,30.991 10.087,30.543C10.387,30.464 10.682,30.354 10.969,30.234C11.758,29.904 11.782,29.805 11.47,29.022C11.197,28.336 10.905,27.651 10.722,26.94C10.069,24.403 9.818,21.811 9.786,19.197C9.784,19.002 9.875,18.807 9.955,18.479C10.366,18.953 10.389,19.382 10.433,19.792C10.533,20.72 10.598,21.652 10.695,22.581C10.929,24.831 11.208,27.07 12.313,29.106C12.501,29.452 12.582,29.798 12.48,30.222C12.408,30.525 12.486,30.918 12.628,31.206C13.04,32.043 13.522,32.846 13.965,33.669C14.131,33.978 14.351,34.046 14.629,33.851C15.457,33.269 16.271,32.668 17.102,32.091C17.377,31.9 17.438,31.691 17.294,31.399C17.208,31.224 17.135,31.043 17.059,30.864C15.538,27.322 14.031,23.775 12.885,20.086C12.748,19.648 12.503,19.241 12.291,18.829C12.079,18.418 11.822,18.031 11.623,17.615C11.155,16.636 10.617,15.722 9.664,15.096C9.071,16.391 8.78,16.557 7.402,16.509C6.425,16.475 5.585,16.112 4.837,15.51C4.16,14.966 3.454,14.819 2.564,15.005C0.342,15.473 -1.772,16.263 -3.896,17.023C-4.661,17.296 -5.395,17.688 -6.097,18.102C-7.473,18.913 -7.964,20.724 -7.097,22.053C-6.4,23.124 -5.581,24.124 -4.739,25.087C-4.049,25.876 -3.247,26.569 -2.492,27.301C-1.528,28.235 -0.953,28.28 0.084,27.431C0.408,27.167 0.662,26.805 0.906,26.459C1.127,26.147 1.292,25.795 1.449,25.519M-4.146,37.378C-4.229,37.584 -4.29,37.725 -4.343,37.868C-5.194,40.168 -6.037,42.472 -6.899,44.769C-7.337,45.934 -7.848,47.073 -8.26,48.246C-8.715,49.542 -8.466,50.167 -7.286,50.87C-6.957,51.066 -6.579,51.197 -6.207,51.303C-5.421,51.528 -4.633,51.762 -3.83,51.911C-2.913,52.081 -1.982,52.192 -1.053,52.271C-0.401,52.327 -0.322,52.252 -0.189,51.602C-0.081,51.071 -0.096,50.512 0.025,49.984C0.773,46.727 1.213,43.394 2.488,40.266C2.838,39.406 3.022,38.479 3.283,37.583C3.359,37.321 3.396,37.035 3.531,36.807C3.636,36.628 3.846,36.442 4.041,36.399C4.876,36.216 5.72,36.069 6.566,35.943C6.909,35.891 7.268,35.903 7.614,35.937C7.724,35.949 7.891,36.122 7.898,36.23C7.905,36.34 7.772,36.53 7.661,36.567C7.332,36.677 6.985,36.743 6.642,36.801C6.259,36.867 5.865,36.876 5.488,36.962C4.508,37.188 4.506,37.2 4.465,38.19C4.356,40.794 4.256,43.398 4.145,46.002C4.128,46.39 4.053,46.776 4.024,47.164C3.907,48.714 3.805,50.267 3.681,51.818C3.643,52.295 3.856,52.525 4.297,52.642C6.188,53.143 8.061,53.151 9.924,52.496C10.313,52.359 10.489,52.124 10.479,51.718C10.458,50.862 10.519,49.996 10.418,49.149C10.156,46.942 9.983,44.733 10.01,42.508C10.022,41.535 10.032,40.557 9.955,39.587C9.76,37.134 9.752,34.687 9.978,32.237C9.997,32.025 9.936,31.805 9.907,31.546C9.413,31.643 8.994,31.728 8.574,31.807C7.05,32.095 5.544,32.573 3.959,32.184C3.515,32.076 3.341,32.346 3.298,32.77C3.22,33.543 3.123,34.315 3.01,35.084C2.862,36.084 2.274,36.687 1.286,36.899C0.822,36.999 0.423,37.159 0.105,37.568C-0.248,38.022 -0.801,38.215 -1.364,38.097C-2.266,37.909 -3.15,37.64 -4.146,37.378M-13.849,-13.148C-14.887,-12.827 -15.6,-13.03 -16.279,-13.596C-18.311,-15.288 -18.214,-18.129 -17.015,-19.843C-15.971,-21.334 -14.579,-22.359 -12.803,-22.803C-11.974,-23.011 -11.124,-23.135 -10.281,-23.29C-9.316,-23.467 -8.387,-23.738 -7.565,-24.303C-6.825,-24.813 -6.457,-25.483 -6.605,-26.399C-6.66,-26.743 -6.636,-27.193 -7.048,-27.25C-7.294,-27.286 -7.664,-27.084 -7.839,-26.874C-8.777,-25.747 -9.871,-25.717 -11.09,-26.312C-11.159,-26.346 -11.238,-26.36 -11.313,-26.381C-12.519,-26.736 -13.712,-26.735 -14.824,-26.106C-15.538,-25.702 -16.271,-25.555 -17.069,-25.643C-18.142,-25.76 -19.177,-25.6 -20.15,-25.151C-21.173,-24.678 -22.228,-24.237 -23.169,-23.628C-25.903,-21.86 -27.779,-19.465 -28.271,-16.152C-28.49,-14.675 -28.13,-13.352 -27.075,-12.286C-26.56,-11.763 -25.939,-11.343 -25.351,-10.896C-25.01,-10.637 -24.619,-10.443 -24.288,-10.173C-23.449,-9.493 -23.454,-8.727 -24.306,-8.038C-24.699,-7.72 -25.15,-7.475 -25.55,-7.166C-27.426,-5.715 -28.609,-3.884 -28.749,-1.449C-28.832,-0.021 -28.326,1.096 -27.085,1.777C-26.345,2.183 -25.508,2.419 -24.702,2.697C-24.337,2.822 -23.936,2.839 -23.562,2.948C-23.225,3.046 -23.176,3.314 -23.329,3.597C-23.399,3.728 -23.547,3.816 -23.654,3.928C-24.733,5.074 -25.049,7.201 -24.352,8.614C-23.32,10.706 -20.679,11.505 -18.528,10.378C-18.222,10.218 -17.917,10.044 -17.593,9.931C-17.489,9.894 -17.269,9.995 -17.202,10.098C-17.135,10.201 -17.138,10.428 -17.211,10.525C-17.397,10.77 -17.647,10.964 -17.858,11.192C-19.529,12.994 -19.075,15.481 -16.866,16.5C-16.304,16.759 -15.696,16.926 -15.1,17.101C-14.279,17.341 -13.563,17.197 -13.021,16.469C-12.765,16.126 -12.472,15.812 -12.193,15.486C-11.558,14.74 -11.282,14.764 -10.854,15.602C-10.836,15.636 -10.831,15.676 -10.813,15.711C-10.198,16.923 -9.329,17.156 -8.275,16.292C-7.681,15.803 -7.196,15.178 -6.683,14.595C-6.329,14.194 -6.012,13.759 -5.505,13.122C-5.543,13.701 -5.503,14.014 -5.592,14.286C-5.899,15.227 -5.333,15.749 -4.501,16.012C-4.02,16.165 -3.596,16.053 -3.137,15.919C-1.344,15.396 0.433,14.726 2.267,14.468C3.56,14.288 4.221,13.751 4.595,12.626C4.644,12.48 4.687,12.332 4.759,12.103C1.288,11.426 -1.97,10.227 -5.087,8.583C-5.161,8.649 -5.27,8.711 -5.326,8.805C-6.021,9.972 -7.107,10.637 -8.323,11.12C-9.996,11.783 -11.709,11.38 -12.908,10.044C-14.08,8.74 -14.644,7.213 -14.57,5.445C-14.487,3.457 -13.049,2.036 -11.042,1.981C-10.078,1.955 -9.203,2.206 -8.348,2.633C-7.985,2.814 -7.52,2.981 -7.146,2.912C-5.765,2.656 -5.039,1.024 -5.722,-0.204C-5.967,-0.643 -6.269,-1.062 -6.604,-1.438C-7.431,-2.37 -8.289,-3.275 -9.143,-4.183C-9.645,-4.716 -10.053,-5.317 -9.845,-6.063C-9.715,-6.526 -9.425,-6.976 -9.106,-7.346C-8.6,-7.935 -7.981,-8.426 -7.462,-9.005C-6.804,-9.741 -6.614,-10.568 -7.168,-11.47C-7.392,-11.834 -7.571,-12.23 -7.819,-12.577C-8.454,-13.463 -9.125,-14.322 -9.763,-15.206C-10.658,-16.443 -10.583,-17.678 -9.574,-18.823C-8.756,-19.751 -7.747,-20.254 -6.493,-20.233C-5.869,-20.222 -5.243,-20.189 -4.622,-20.228C-3.274,-20.313 -2.065,-21.503 -2.168,-22.714C-2.332,-24.646 -3.19,-26.212 -4.872,-27.249C-5.302,-27.514 -5.805,-27.606 -6.3,-27.356C-5.84,-24.718 -6.452,-23.713 -9.009,-22.901C-9.453,-22.76 -9.914,-22.67 -10.371,-22.578C-10.829,-22.484 -11.292,-22.414 -11.752,-22.338C-13.925,-21.981 -15.616,-20.894 -16.661,-18.943C-17.822,-16.775 -16.892,-14.369 -14.609,-13.47C-14.408,-13.391 -14.21,-13.301 -13.849,-13.148M22.409,-21.153C22.627,-20.782 22.821,-20.452 23.015,-20.122C23.588,-19.146 24.155,-18.168 24.4,-17.044C24.947,-14.538 25.59,-12.047 26.019,-9.521C26.383,-7.377 26.692,-5.205 26.572,-3.014C26.475,-1.229 26.405,0.579 25.79,2.278C25.138,4.077 24.27,5.78 23.176,7.358C22.062,8.963 20.657,10.246 18.824,10.958C17.484,11.477 16.113,11.944 14.719,12.286C13.516,12.58 12.261,12.666 11.028,12.842C10.551,12.911 10.068,12.806 9.899,13.55C9.753,14.194 9.878,14.501 10.357,14.92C10.962,15.449 11.435,16.134 11.934,16.776C12.171,17.082 12.323,17.452 12.541,17.775C13.108,18.616 14.111,18.883 14.999,18.376C15.43,18.128 15.84,17.793 16.159,17.414C16.633,16.85 17.028,16.219 17.437,15.603C17.806,15.047 17.823,15.028 18.458,15.273C18.639,15.343 18.81,15.449 18.996,15.498C19.729,15.689 20.187,15.522 20.606,14.893C20.754,14.669 20.856,14.412 20.957,14.161C21.17,13.63 21.296,13.58 21.778,13.854C22.08,14.025 22.365,14.25 22.689,14.355C24.13,14.822 25.368,14.454 26.421,13.382C27.458,12.328 28.214,11.242 27.457,9.651C27.086,8.873 27.31,8.637 28.188,8.535C28.343,8.516 28.5,8.516 28.654,8.491C30.333,8.217 31.649,7.417 32.429,5.859C32.992,4.734 32.75,3.828 31.712,3.132C31.55,3.024 31.337,2.971 31.214,2.834C31.045,2.643 30.858,2.409 30.826,2.173C30.776,1.8 31.105,1.65 31.411,1.553C31.968,1.376 32.535,1.232 33.089,1.049C35.055,0.401 36.288,-0.949 36.895,-2.912C37.344,-4.363 37.366,-5.856 37.1,-7.308C36.847,-8.695 36.314,-10.002 34.85,-10.663C34.274,-10.922 34.254,-11.291 34.672,-11.776C34.849,-11.982 35.062,-12.158 35.262,-12.343C37.182,-14.116 38.563,-16.283 39.743,-18.579C40.575,-20.198 40.275,-21.564 38.942,-22.797C38.245,-23.442 37.43,-23.894 36.519,-24.166C36.183,-24.266 35.838,-24.338 35.504,-24.444C34.762,-24.68 34.588,-24.968 34.984,-25.638C35.751,-26.937 35.39,-28.105 34.727,-29.274C34.669,-29.375 34.601,-29.472 34.529,-29.564C32.912,-31.639 30.896,-32.69 28.203,-32.051C27.97,-31.996 27.593,-32.01 27.466,-32.154C27.204,-32.452 27.465,-32.73 27.72,-32.928C28.279,-33.362 28.402,-33.968 28.334,-34.607C28.273,-35.181 28.196,-35.778 27.983,-36.308C26.838,-39.168 24.608,-40.732 21.66,-41.262C20.525,-41.466 19.321,-41.476 18.194,-41.032C17.723,-40.846 17.285,-40.627 17.053,-40.105C16.703,-39.316 16.687,-39.347 15.875,-39.695C14.764,-40.17 13.646,-40.629 12.519,-41.061C11.131,-41.592 9.7,-41.676 8.268,-41.279C6.982,-40.922 5.717,-40.499 5.035,-39.188C4.783,-38.703 4.381,-38.731 3.929,-38.87C1.691,-39.557 -0.61,-39.569 -2.912,-39.436C-4.926,-39.32 -6.821,-38.728 -8.545,-37.672C-9.069,-37.351 -9.548,-36.925 -9.969,-36.474C-10.508,-35.896 -10.452,-35.413 -9.893,-34.842C-9.812,-34.759 -9.685,-34.714 -9.621,-34.624C-9.475,-34.417 -9.224,-34.174 -9.252,-33.981C-9.309,-33.598 -9.704,-33.63 -10.014,-33.624C-10.716,-33.609 -11.42,-33.629 -12.12,-33.584C-14.38,-33.443 -16.146,-32.433 -17.308,-30.475C-18.015,-29.284 -17.756,-28.226 -16.639,-27.416C-16.45,-27.28 -16.24,-27.172 -16.048,-27.04C-15.668,-26.778 -15.309,-26.713 -14.854,-26.93C-13.908,-27.381 -12.882,-27.392 -11.87,-27.256C-11.337,-27.184 -10.815,-26.987 -10.305,-26.798C-9.691,-26.572 -9.15,-26.608 -8.714,-27.127C-7.795,-28.224 -6.563,-28.289 -5.291,-28.145C-4.931,-28.105 -4.54,-27.939 -4.254,-27.715C-3.348,-27.001 -2.5,-26.215 -1.597,-25.499C-1.34,-25.294 -0.971,-25.112 -0.661,-25.124C-0.13,-25.147 0.441,-25.235 0.911,-25.466C1.923,-25.962 2.882,-26.567 3.862,-27.127C4.876,-27.708 5.854,-28.369 6.913,-28.847C7.716,-29.21 8.61,-29.441 9.486,-29.558C10.757,-29.727 11.151,-29.441 11.514,-28.187C11.801,-27.196 12.439,-26.722 13.398,-26.509C14.62,-26.237 15.803,-26.334 16.96,-26.769C18.273,-27.262 19.561,-27.828 20.889,-28.275C22.242,-28.73 22.784,-28.461 23.256,-27.194C23.898,-25.47 25.183,-24.625 26.944,-24.388C27.252,-24.346 27.571,-24.33 27.862,-24.232C28.102,-24.152 28.09,-23.88 27.916,-23.773C27.699,-23.639 27.415,-23.55 27.16,-23.551C26.284,-23.557 25.473,-23.833 24.725,-24.281C23.651,-24.923 22.892,-25.817 22.465,-27.014C22.211,-27.725 22.02,-27.814 21.312,-27.569C20.246,-27.201 19.205,-26.756 18.155,-26.338C17.807,-26.2 17.704,-25.956 17.828,-25.589C18.125,-24.709 18.647,-24.006 19.417,-23.483C20.302,-22.879 21.281,-22.511 22.332,-22.339C23.368,-22.169 24.41,-22.032 25.45,-21.881C25.855,-21.822 26.256,-21.756 26.583,-21.309C26.291,-21.241 26.106,-21.161 25.921,-21.159C24.799,-21.147 23.676,-21.153 22.409,-21.153M-1.622,-24.632C-1.545,-23.78 -1.45,-23.09 -1.435,-22.399C-1.427,-22.063 -1.479,-21.665 -1.656,-21.395C-2.369,-20.314 -3.293,-19.505 -4.685,-19.486C-5.269,-19.477 -5.854,-19.53 -6.438,-19.528C-7.616,-19.524 -8.537,-19.01 -9.218,-18.061C-9.784,-17.271 -9.79,-16.59 -9.229,-15.8C-9.049,-15.546 -8.811,-15.334 -8.633,-15.08C-7.92,-14.061 -7.202,-13.043 -6.526,-11.999C-6.322,-11.683 -6.198,-11.291 -6.126,-10.916C-5.928,-9.879 -6.278,-8.996 -7.011,-8.261C-7.534,-7.737 -8.104,-7.258 -8.606,-6.715C-9.262,-6.007 -9.264,-5.601 -8.645,-4.881C-8.239,-4.41 -7.761,-4 -7.353,-3.53C-6.638,-2.707 -5.915,-1.888 -5.272,-1.01C-4.987,-0.621 -4.804,-0.107 -4.724,0.375C-4.501,1.704 -5.18,2.628 -6.263,3.266C-6.677,3.51 -6.899,3.767 -6.712,4.429C-7.465,4 -8.018,3.645 -8.604,3.36C-9.125,3.106 -9.666,2.839 -10.227,2.734C-12.23,2.357 -13.945,3.814 -13.836,5.814C-13.753,7.346 -13.158,8.696 -12.022,9.751C-11.307,10.417 -10.43,10.777 -9.445,10.565C-8.15,10.287 -7.077,9.602 -6.216,8.584C-5.915,8.228 -5.857,7.921 -6.245,7.589C-6.6,7.286 -6.912,6.929 -7.281,6.645C-8.167,5.959 -9.221,5.943 -10.282,5.913C-11.041,5.89 -11.509,6.314 -11.985,6.784C-12.02,6.817 -12.122,6.781 -12.214,6.776C-12.247,6.676 -12.327,6.563 -12.311,6.465C-12.18,5.628 -11.578,5.116 -10.574,5.053C-8.984,4.954 -7.612,5.45 -6.393,6.508C-4.949,7.761 -3.383,8.829 -1.495,9.368C-0.45,9.666 0.543,10.14 1.567,10.516C1.967,10.664 2.381,10.779 2.797,10.873C4.124,11.173 5.451,11.48 6.786,11.738C7.547,11.884 8.322,11.993 9.095,12.029C11.774,12.157 14.365,11.675 16.898,10.827C19.133,10.078 21.068,8.931 22.433,6.933C24.577,3.793 25.859,0.391 25.696,-3.46C25.632,-4.974 25.545,-6.49 25.384,-7.996C25.251,-9.23 25.029,-10.458 24.779,-11.676C24.499,-13.047 24.113,-14.396 23.828,-15.766C23.539,-17.155 23.084,-18.462 22.29,-19.648C22.052,-20.001 21.78,-20.373 21.689,-20.774C21.55,-21.388 21.203,-21.639 20.64,-21.843C18.952,-22.456 17.622,-23.47 17.17,-25.328C17.069,-25.742 16.881,-25.872 16.426,-25.813C15.582,-25.705 14.724,-25.645 13.874,-25.666C13.381,-25.677 12.877,-25.839 12.407,-26.011C11.477,-26.351 11.06,-27.116 10.801,-28.025C10.592,-28.759 10.35,-28.892 9.626,-28.845C9.471,-28.834 9.319,-28.789 9.165,-28.769C7.937,-28.616 6.856,-28.083 5.817,-27.454C4.684,-26.768 3.57,-26.049 2.433,-25.371C1.202,-24.636 -0.083,-24.109 -1.622,-24.632M31.866,2.201C33.3,3.165 33.72,4.293 33.372,5.627C33.043,6.885 32.221,7.855 31.097,8.479C30.431,8.849 29.656,9.036 28.913,9.246C28.486,9.367 28.315,9.522 28.458,9.979C29.045,11.853 27.976,13.108 26.773,14.274C25.575,15.437 24.103,15.717 22.545,15.251C21.864,15.046 21.492,15.114 21.101,15.717C20.619,16.461 19.796,16.633 19.018,16.393C18.247,16.156 17.882,16.423 17.522,17.036C17.27,17.466 16.913,17.844 16.563,18.209C15.894,18.908 15.112,19.384 14.085,19.296C13.938,19.284 13.785,19.327 13.549,19.354C13.567,19.568 13.55,19.754 13.602,19.918C14.783,23.638 16.322,27.217 17.884,30.788C17.931,30.895 17.955,31.039 18.038,31.099C18.722,31.591 18.629,32.103 18.104,32.642C17.896,32.856 17.958,33.084 18.137,33.261C18.552,33.669 18.929,34.164 19.424,34.434C21.179,35.393 21.874,36.836 21.707,38.792C21.669,39.237 21.817,39.709 21.938,40.153C22.344,41.633 21.895,42.204 20.412,42.444C19.57,42.581 18.745,42.666 17.898,42.679C16.807,42.697 16.411,42.425 16.193,41.369C16.123,41.03 16.113,40.678 16.069,40.267C15.837,40.267 15.62,40.282 15.405,40.264C14.472,40.189 14.009,39.439 14.445,38.623C14.68,38.184 15,37.758 15.374,37.435C16.129,36.782 15.979,35.88 16.105,35.064C16.137,34.856 15.917,34.509 15.716,34.396C15.553,34.304 15.244,34.457 15.004,34.52C14.781,34.579 14.569,34.695 14.344,34.729C13.923,34.793 13.603,34.664 13.398,34.235C12.962,33.322 12.491,32.426 12.024,31.528C11.889,31.267 11.818,30.884 11.385,30.999C11.003,31.098 10.626,31.24 10.559,31.71C10.526,31.942 10.496,32.176 10.5,32.409C10.543,34.745 10.593,37.081 10.643,39.417C10.661,40.275 10.664,41.133 10.714,41.989C10.841,44.164 11.01,46.336 11.122,48.512C11.184,49.718 11.166,50.928 11.184,52.136C11.192,52.679 10.899,53.018 10.417,53.188C9.903,53.37 9.375,53.511 8.853,53.666C8.629,53.731 8.395,53.769 8.179,53.852C8.086,53.888 7.951,54.03 7.967,54.084C8.005,54.213 8.1,54.36 8.214,54.422C8.38,54.514 8.58,54.556 8.771,54.588C9.805,54.765 10.846,54.911 11.876,55.109C13.845,55.487 15.56,56.308 16.831,57.936C17.396,58.662 17.366,59.467 17.246,60.272C17.213,60.491 16.849,60.766 16.593,60.827C15.572,61.065 14.54,61.345 13.501,61.396C11.01,61.52 8.513,61.537 6.019,61.564C5.457,61.57 4.981,61.594 4.532,62.033C4.25,62.309 3.776,62.451 3.365,62.525C2.257,62.724 1.141,62.907 0.021,63.002C-2.639,63.229 -5.266,62.77 -7.901,62.526C-8.591,62.461 -9.272,62.235 -9.939,62.025C-10.519,61.843 -10.819,61.373 -10.845,60.782C-10.914,59.241 -10.673,57.747 -9.965,56.363C-9.603,55.653 -9.047,55.076 -8.3,54.783C-7.666,54.535 -7.394,54.093 -7.294,53.475C-7.275,53.361 -7.239,53.249 -7.211,53.135C-7.121,52.759 -6.895,52.348 -6.983,52.021C-7.049,51.774 -7.547,51.667 -7.799,51.44C-8.231,51.049 -8.668,50.647 -9.007,50.181C-9.188,49.932 -9.288,49.511 -9.219,49.215C-8.991,48.234 -8.729,47.251 -8.373,46.311C-7.42,43.798 -6.417,41.305 -5.421,38.809C-5.191,38.231 -4.901,37.677 -4.652,37.106C-4.321,36.351 -4.38,36.047 -4.976,35.499C-5.548,34.971 -5.817,34.331 -5.487,33.61C-5.119,32.802 -4.652,32.039 -4.198,31.273C-4.042,31.009 -3.794,30.799 -3.591,30.564C-3.368,30.306 -3.4,30.075 -3.667,29.87C-3.697,29.846 -3.724,29.817 -3.751,29.789C-4.649,28.855 -4.664,28.847 -4.024,27.648C-3.84,27.303 -3.889,27.08 -4.151,26.832C-4.605,26.404 -5.039,25.955 -5.492,25.526C-6.465,24.604 -7.217,23.512 -7.885,22.367C-8.764,20.86 -8.206,18.558 -6.755,17.584C-6.339,17.304 -5.893,17.07 -5.359,16.755C-5.706,16.434 -6,16.161 -6.311,15.873C-6.893,16.358 -7.413,16.824 -7.966,17.245C-8.475,17.631 -9.076,17.889 -9.711,17.763C-10.148,17.676 -10.568,17.424 -10.953,17.179C-11.206,17.018 -11.383,16.739 -11.668,16.434C-11.924,16.694 -12.179,16.912 -12.384,17.168C-13.07,18.027 -13.979,18.307 -14.997,18.045C-15.934,17.805 -16.902,17.54 -17.733,17.069C-19.642,15.986 -19.983,14.849 -19.589,12.751C-19.525,12.411 -19.392,12.084 -19.252,11.625C-21.521,11.848 -23.556,11.536 -24.827,9.477C-26.039,7.514 -25.659,5.536 -24.678,3.593C-25.42,3.32 -26.126,3.108 -26.791,2.806C-28.961,1.822 -29.848,0.147 -29.471,-2.209C-29.057,-4.789 -27.661,-6.724 -25.52,-8.163C-25.229,-8.358 -24.923,-8.534 -24.652,-8.752C-24.343,-9.001 -24.365,-9.299 -24.665,-9.539C-24.968,-9.782 -25.312,-9.973 -25.62,-10.21C-26.266,-10.709 -26.945,-11.178 -27.529,-11.743C-28.865,-13.037 -29.279,-14.653 -28.968,-16.457C-28.441,-19.506 -26.712,-21.796 -24.311,-23.63C-23.096,-24.557 -21.737,-25.238 -20.313,-25.795C-19.208,-26.229 -18.064,-26.389 -16.689,-26.314C-17.006,-26.607 -17.182,-26.775 -17.364,-26.936C-18.656,-28.086 -18.878,-29.416 -17.969,-30.908C-16.756,-32.899 -14.984,-34.038 -12.648,-34.275C-12.108,-34.33 -11.567,-34.391 -11.064,-34.446C-10.998,-34.567 -10.917,-34.646 -10.933,-34.692C-11.396,-36.004 -10.865,-36.95 -9.844,-37.738C-8.065,-39.111 -6.016,-39.787 -3.828,-40.123C-1.366,-40.5 1.07,-40.343 3.484,-39.779C3.945,-39.67 4.255,-39.68 4.592,-40.102C5.742,-41.542 7.38,-42.037 9.123,-42.218C10.616,-42.374 12.077,-42.173 13.473,-41.579C14.19,-41.273 14.924,-41.008 15.645,-40.71C15.915,-40.598 16.147,-40.534 16.382,-40.789C17.487,-41.987 18.969,-42.224 20.458,-42.173C23.51,-42.07 26.052,-40.855 27.828,-38.3C28.879,-36.788 29.491,-35.132 29.007,-33.124C31.176,-33.157 33.022,-32.414 34.476,-30.877C35.954,-29.314 36.771,-27.53 35.824,-25.283C36.216,-25.149 36.569,-25.018 36.927,-24.905C37.833,-24.621 38.647,-24.167 39.362,-23.548C41.05,-22.085 41.51,-20.174 40.503,-18.175C39.361,-15.908 37.993,-13.774 36.137,-12C35.941,-11.814 35.696,-11.68 35.402,-11.47C38.027,-9.235 38.386,-6.482 37.836,-3.504C37.247,-0.32 35.227,1.527 31.866,2.201" style="fill:rgb(35,31,32);fill-rule:nonzero;"/>
            </g>
            <g transform="matrix(4.16667,0,0,4.16667,343.455,2507.47)">
                <path d="M0,-10.039C0.096,-10.005 0.191,-9.97 0.288,-9.935C0.385,-10.09 0.506,-10.233 0.576,-10.399C1.492,-12.589 3.106,-14.173 5.009,-15.504C5.207,-15.643 5.47,-15.774 5.304,-16.017C5.224,-16.132 4.895,-16.097 4.681,-16.088C4.578,-16.083 4.472,-15.99 4.38,-15.92C2.777,-14.676 1.274,-13.338 0.439,-11.427C0.246,-10.984 0.144,-10.502 0,-10.039M16.549,-17.784C16.488,-17.747 16.335,-17.653 16.182,-17.56C16.336,-17.433 16.472,-17.267 16.648,-17.187C16.818,-17.111 17.03,-17.13 17.221,-17.099C18.891,-16.822 20.324,-16.121 21.403,-14.779C21.525,-14.628 21.643,-14.458 21.801,-14.358C21.945,-14.267 22.142,-14.259 22.314,-14.214C22.325,-14.423 22.37,-14.639 22.332,-14.839C22.306,-14.977 22.169,-15.099 22.073,-15.22C20.696,-16.966 18.812,-17.651 16.549,-17.784M15.098,11.735C14.832,11.905 14.582,12.002 14.42,12.18C13.757,12.912 12.91,12.985 12.066,12.742C11.373,12.542 10.73,12.156 10.079,11.824C9.842,11.703 9.659,11.48 9.427,11.344C9.316,11.278 9.149,11.31 9.007,11.297C9.012,11.471 8.952,11.685 9.031,11.811C9.844,13.103 12.198,14.036 13.65,13.665C14.503,13.447 14.981,12.841 15.098,11.735M17.667,-7.684C17.814,-7.149 17.908,-6.487 18.181,-5.91C18.46,-5.318 19.085,-5.316 19.523,-5.806C20.243,-6.608 20.396,-8.668 19.806,-9.571C19.579,-9.918 19.289,-10.149 18.845,-10.111C18.4,-10.072 18.112,-9.802 18.002,-9.409C17.856,-8.893 17.792,-8.353 17.667,-7.684M5.18,-5.887C5.159,-6.816 4.815,-7.57 4.148,-8.179C3.688,-8.6 3.208,-8.589 2.821,-8.18C1.758,-7.056 2.042,-4.754 3.343,-3.94C3.957,-3.557 4.603,-3.738 4.848,-4.424C5.016,-4.891 5.073,-5.397 5.18,-5.887M10.792,-2.539C10.935,-2.894 11.029,-3.057 11.064,-3.23C11.21,-3.951 11.641,-4.5 12.133,-5.003C13.158,-6.053 14.399,-6.115 15.585,-5.199C16.66,-4.369 16.942,-3.061 16.249,-1.877C15.549,-0.683 14.516,0.102 13.155,0.42C12.712,0.524 12.261,0.593 11.742,0.69C12.373,1.274 12.515,1.352 13.01,1.3C15.011,1.093 17.589,-0.97 17.347,-3.517C17.139,-5.703 14.559,-7.29 12.607,-6.287C11.723,-5.832 11.072,-5.097 10.64,-4.198C10.416,-3.733 10.373,-3.235 10.792,-2.539M4.75,6.751C4.839,6.798 4.881,6.809 4.908,6.835C4.991,6.916 5.075,6.999 5.149,7.089C7.128,9.467 9.665,10.55 12.756,10.472C16.603,10.374 19.445,7.435 19.329,3.582C19.326,3.49 19.231,3.35 19.153,3.328C19.081,3.308 18.912,3.399 18.89,3.473C18.743,3.954 18.638,4.449 18.494,4.933C17.775,7.343 16.235,8.925 13.728,9.378C10.343,9.99 7.627,8.743 5.437,6.185C5.18,5.885 5.185,5.627 5.488,5.392C5.856,5.106 6.25,4.853 6.608,4.555C6.695,4.482 6.714,4.286 6.698,4.155C6.691,4.102 6.501,4.025 6.405,4.038C6.215,4.063 6.012,4.108 5.85,4.205C4.917,4.759 4.191,5.488 3.898,6.574C3.802,6.929 3.726,7.283 4.105,7.488C4.141,7.508 4.427,7.063 4.601,6.836C4.622,6.809 4.666,6.798 4.75,6.751M0.522,-21.284C2.061,-20.761 3.346,-21.288 4.577,-22.022C5.714,-22.701 6.828,-23.42 7.961,-24.105C9,-24.734 10.081,-25.268 11.309,-25.421C11.463,-25.44 11.615,-25.486 11.77,-25.497C12.494,-25.544 12.736,-25.411 12.945,-24.677C13.204,-23.768 13.621,-23.003 14.551,-22.663C15.021,-22.491 15.525,-22.329 16.018,-22.317C16.868,-22.297 17.726,-22.356 18.57,-22.465C19.025,-22.523 19.213,-22.393 19.314,-21.979C19.766,-20.122 21.096,-19.107 22.784,-18.495C23.347,-18.291 23.694,-18.04 23.833,-17.426C23.924,-17.024 24.196,-16.653 24.434,-16.3C25.228,-15.114 25.683,-13.807 25.972,-12.418C26.257,-11.048 26.643,-9.699 26.923,-8.328C27.173,-7.11 27.396,-5.882 27.528,-4.647C27.689,-3.142 27.776,-1.626 27.84,-0.112C28.003,3.739 26.721,7.142 24.577,10.281C23.212,12.279 21.277,13.426 19.042,14.175C16.509,15.023 13.918,15.505 11.239,15.377C10.466,15.341 9.691,15.232 8.93,15.086C7.595,14.828 6.268,14.522 4.941,14.221C4.525,14.127 4.111,14.012 3.711,13.864C2.687,13.488 1.694,13.014 0.649,12.716C-1.239,12.177 -2.805,11.109 -4.249,9.857C-5.468,8.798 -6.84,8.302 -8.43,8.401C-9.434,8.464 -10.036,8.977 -10.167,9.814C-10.183,9.911 -10.103,10.024 -10.07,10.124C-9.978,10.129 -9.875,10.165 -9.841,10.132C-9.365,9.662 -8.897,9.238 -8.138,9.261C-7.077,9.291 -6.023,9.308 -5.137,9.993C-4.768,10.277 -4.456,10.634 -4.101,10.938C-3.713,11.27 -3.771,11.576 -4.072,11.933C-4.933,12.95 -6.006,13.635 -7.301,13.913C-8.286,14.125 -9.163,13.765 -9.878,13.1C-11.014,12.044 -11.609,10.694 -11.692,9.162C-11.801,7.162 -10.086,5.705 -8.083,6.082C-7.521,6.188 -6.98,6.454 -6.46,6.708C-5.874,6.993 -5.321,7.348 -4.568,7.777C-4.755,7.115 -4.533,6.858 -4.119,6.614C-3.036,5.977 -2.357,5.052 -2.58,3.723C-2.66,3.241 -2.843,2.728 -3.128,2.338C-3.771,1.46 -4.494,0.641 -5.208,-0.182C-5.617,-0.652 -6.095,-1.061 -6.501,-1.533C-7.12,-2.253 -7.118,-2.659 -6.462,-3.367C-5.959,-3.91 -5.39,-4.389 -4.867,-4.913C-4.134,-5.647 -3.784,-6.531 -3.982,-7.568C-4.054,-7.943 -4.178,-8.335 -4.382,-8.651C-5.058,-9.695 -5.776,-10.713 -6.489,-11.731C-6.667,-11.986 -6.905,-12.198 -7.085,-12.452C-7.646,-13.242 -7.64,-13.923 -7.074,-14.713C-6.393,-15.662 -5.472,-16.176 -4.294,-16.18C-3.709,-16.182 -3.125,-16.129 -2.541,-16.138C-1.149,-16.157 -0.225,-16.966 0.488,-18.047C0.666,-18.316 0.717,-18.715 0.709,-19.051C0.694,-19.742 0.599,-20.432 0.522,-21.284" style="fill:rgb(254,220,196);fill-rule:nonzero;"/>
            </g>
            <g transform="matrix(4.16667,0,0,4.16667,419.209,2509.85)">
                <path d="M0,-6.48C-0.023,-6.527 -0.038,-6.578 -0.058,-6.626C-0.081,-6.636 -0.094,-6.652 -0.118,-6.661C-1.015,-6.998 -2.073,-7.179 -2.995,-6.889C-1.869,-6.41 -0.955,-5.35 -0.834,-4.086C-0.621,-1.84 -2.6,0.027 -4.442,0.58C-3.479,0.699 -2.493,0.654 -1.576,0.322C-0.655,-0.012 0.134,-0.635 0.603,-1.503C1.094,-2.416 1.21,-3.555 1.187,-4.578C1.173,-5.149 1.017,-5.648 0.708,-6.043C0.426,-6.019 0.158,-6.146 0,-6.48" style="fill:rgb(253,203,165);fill-rule:nonzero;"/>
            </g>
            <g transform="matrix(4.16667,0,0,4.16667,436.431,2521.81)">
                <path d="M0,-17.655C-0.173,-17.7 -0.37,-17.708 -0.513,-17.8C-0.671,-17.899 -0.79,-18.069 -0.911,-18.22C-1.99,-19.562 -3.423,-20.263 -5.093,-20.54C-5.285,-20.571 -5.496,-20.552 -5.666,-20.629C-5.842,-20.708 -5.979,-20.874 -6.133,-21.002C-5.979,-21.094 -5.826,-21.188 -5.766,-21.225C-3.502,-21.093 -1.619,-20.407 -0.241,-18.661C-0.145,-18.54 -0.008,-18.419 0.018,-18.28C0.056,-18.08 0.01,-17.864 0,-17.655M5.213,-8.089C5.081,-9.323 4.858,-10.551 4.609,-11.769C4.328,-13.14 3.942,-14.489 3.657,-15.859C3.368,-17.248 2.914,-18.555 2.119,-19.741C1.882,-20.094 1.609,-20.466 1.519,-20.867C1.379,-21.481 1.033,-21.732 0.47,-21.936C-1.218,-22.549 -2.548,-23.563 -3,-25.421C-3.101,-25.835 -3.289,-25.965 -3.745,-25.906C-4.589,-25.798 -5.447,-25.738 -6.296,-25.759C-6.789,-25.77 -7.293,-25.932 -7.764,-26.104C-8.693,-26.444 -9.11,-27.209 -9.369,-28.118C-9.578,-28.852 -9.821,-28.985 -10.544,-28.938C-10.699,-28.927 -10.851,-28.882 -11.005,-28.862C-12.234,-28.709 -13.314,-28.176 -14.353,-27.547C-15.487,-26.861 -16.6,-26.142 -17.738,-25.464C-18.969,-24.729 -20.253,-24.202 -21.792,-24.725C-21.715,-23.873 -21.621,-23.183 -21.605,-22.492C-21.597,-22.156 -21.649,-21.758 -21.827,-21.488C-22.54,-20.407 -23.463,-19.597 -24.855,-19.579C-25.016,-19.576 -25.177,-19.585 -25.338,-19.589C-25.292,-19.561 -25.249,-19.53 -25.203,-19.503C-24.102,-18.849 -22.886,-18.624 -21.627,-18.901C-20.417,-19.168 -19.352,-19.856 -18.31,-20.494C-17.315,-21.102 -16.282,-21.735 -15.129,-21.989C-14.352,-22.16 -13.668,-21.996 -13.103,-21.427C-12.784,-21.107 -12.53,-20.724 -12.279,-20.351C-11.958,-19.874 -11.604,-19.417 -11.186,-19.02C-10.413,-18.286 -9.452,-17.853 -8.397,-17.723C-7.372,-17.597 -6.347,-17.736 -5.335,-17.905C-4.466,-18.051 -3.588,-18.229 -2.703,-18.183C-1.884,-18.14 -1.125,-17.826 -0.575,-17.208C0.194,-16.344 0.527,-15.096 0.733,-13.987C0.979,-12.664 1.022,-11.311 1.055,-9.968C1.09,-8.513 1.147,-7.059 1.159,-5.604C1.184,-2.689 1.055,0.238 0.043,3C-0.428,4.286 -1.037,5.521 -1.728,6.702C-2.399,7.849 -3.137,8.982 -4,9.992C-4.413,10.476 -4.857,10.921 -5.327,11.33C-4.638,11.16 -3.953,10.961 -3.272,10.734C-1.038,9.985 0.897,8.838 2.262,6.84C4.406,3.7 5.689,0.298 5.526,-3.553C5.462,-5.067 5.375,-6.583 5.213,-8.089" style="fill:rgb(253,203,165);fill-rule:nonzero;"/>
            </g>
            <g transform="matrix(4.16667,0,0,4.16667,469.614,2504.91)">
                <path d="M0,-14.868C-0.574,-14.448 -0.483,-14.022 -0.139,-13.645C0.2,-13.274 0.613,-12.972 0.971,-12.617C1.438,-12.154 1.937,-11.709 2.327,-11.184C3.003,-10.278 3.128,-9.269 2.649,-8.213C2.457,-7.789 2.25,-7.367 2.108,-6.925C1.803,-5.979 1.705,-5.018 2.141,-4.081C2.237,-3.875 2.437,-3.718 2.628,-3.492C2.688,-3.684 2.744,-3.766 2.727,-3.827C2.28,-5.324 2.586,-6.701 3.196,-8.114C3.757,-9.412 3.501,-10.728 2.574,-11.827C2.126,-12.357 1.582,-12.81 1.048,-13.261C0.542,-13.688 -0.001,-14.071 0,-14.868M-4.283,-28.001C-4.238,-28.082 -4.193,-28.164 -4.149,-28.246C-4.439,-28.408 -4.712,-28.634 -5.024,-28.718C-5.697,-28.899 -6.383,-29.056 -7.075,-29.136C-8.617,-29.311 -10.079,-29.006 -11.505,-28.378C-12.467,-27.954 -12.767,-28.144 -12.937,-29.183C-13.184,-30.704 -14.125,-31.464 -15.547,-31.793C-16.822,-32.089 -18.026,-31.791 -19.205,-31.37C-20.62,-30.864 -21.798,-29.985 -22.896,-28.965C-23.661,-28.254 -24.478,-27.579 -25.35,-27.006C-26.574,-26.202 -27.966,-26.049 -29.393,-26.313C-29.805,-26.389 -30.195,-26.579 -30.777,-26.779C-30.073,-25.922 -29.289,-25.74 -28.462,-25.669C-26.726,-25.517 -25.255,-26.175 -23.945,-27.23C-23.128,-27.889 -22.397,-28.654 -21.579,-29.311C-20.123,-30.481 -18.503,-31.276 -16.576,-31.277C-14.682,-31.278 -13.878,-30.647 -13.466,-28.817C-13.206,-27.663 -12.679,-27.348 -11.541,-27.677C-11.317,-27.742 -11.091,-27.813 -10.884,-27.918C-9.304,-28.717 -7.652,-28.65 -5.979,-28.334C-5.413,-28.226 -4.848,-28.112 -4.283,-28.001M-5.726,-17.19C-4.458,-17.19 -3.335,-17.184 -2.213,-17.196C-2.028,-17.198 -1.843,-17.278 -1.552,-17.347C-1.878,-17.794 -2.279,-17.859 -2.685,-17.919C-3.724,-18.069 -4.766,-18.207 -5.803,-18.377C-6.853,-18.549 -7.833,-18.917 -8.718,-19.52C-9.487,-20.044 -10.009,-20.747 -10.307,-21.627C-10.431,-21.993 -10.327,-22.237 -9.979,-22.376C-8.929,-22.794 -7.889,-23.238 -6.822,-23.606C-6.114,-23.851 -5.923,-23.763 -5.669,-23.052C-5.242,-21.854 -4.483,-20.961 -3.409,-20.318C-2.661,-19.871 -1.85,-19.595 -0.974,-19.589C-0.719,-19.588 -0.436,-19.677 -0.218,-19.81C-0.044,-19.918 -0.032,-20.189 -0.272,-20.269C-0.563,-20.367 -0.882,-20.384 -1.19,-20.426C-2.952,-20.663 -4.236,-21.508 -4.878,-23.231C-5.35,-24.499 -5.893,-24.767 -7.246,-24.312C-8.573,-23.865 -9.861,-23.3 -11.174,-22.806C-12.332,-22.372 -13.515,-22.274 -14.736,-22.547C-15.695,-22.76 -16.333,-23.233 -16.621,-24.224C-16.983,-25.478 -17.377,-25.764 -18.648,-25.596C-19.524,-25.478 -20.418,-25.248 -21.221,-24.885C-22.28,-24.406 -23.258,-23.746 -24.272,-23.165C-25.252,-22.604 -26.211,-22 -27.223,-21.504C-27.693,-21.272 -28.265,-21.184 -28.795,-21.162C-29.105,-21.149 -29.475,-21.332 -29.731,-21.536C-30.634,-22.253 -31.482,-23.039 -32.389,-23.753C-32.674,-23.976 -33.065,-24.142 -33.425,-24.182C-34.697,-24.326 -35.93,-24.262 -36.848,-23.165C-37.284,-22.645 -37.826,-22.609 -38.439,-22.836C-38.949,-23.024 -39.471,-23.222 -40.004,-23.294C-41.016,-23.43 -42.042,-23.419 -42.988,-22.968C-43.443,-22.751 -43.802,-22.815 -44.182,-23.077C-44.375,-23.21 -44.584,-23.317 -44.773,-23.454C-45.891,-24.264 -46.149,-25.321 -45.442,-26.513C-44.28,-28.471 -42.515,-29.48 -40.254,-29.622C-39.554,-29.667 -38.851,-29.646 -38.148,-29.661C-37.838,-29.668 -37.443,-29.636 -37.387,-30.018C-37.358,-30.212 -37.609,-30.455 -37.755,-30.661C-37.819,-30.752 -37.946,-30.797 -38.027,-30.88C-38.586,-31.45 -38.643,-31.933 -38.104,-32.512C-37.683,-32.963 -37.204,-33.389 -36.679,-33.71C-34.956,-34.765 -33.061,-35.357 -31.046,-35.473C-28.745,-35.606 -26.443,-35.595 -24.206,-34.907C-23.753,-34.768 -23.351,-34.74 -23.099,-35.225C-22.417,-36.537 -21.152,-36.96 -19.866,-37.316C-18.435,-37.714 -17.003,-37.63 -15.615,-37.098C-14.488,-36.667 -13.37,-36.208 -12.26,-35.732C-11.447,-35.385 -11.432,-35.353 -11.082,-36.142C-10.85,-36.665 -10.411,-36.884 -9.94,-37.069C-8.813,-37.514 -7.609,-37.504 -6.475,-37.3C-3.526,-36.769 -1.296,-35.206 -0.151,-32.346C0.062,-31.815 0.139,-31.219 0.2,-30.644C0.268,-30.006 0.145,-29.399 -0.414,-28.966C-0.669,-28.767 -0.931,-28.489 -0.668,-28.191C-0.542,-28.048 -0.165,-28.033 0.068,-28.089C2.761,-28.727 4.777,-27.677 6.395,-25.601C6.467,-25.51 6.535,-25.413 6.593,-25.311C7.255,-24.142 7.617,-22.974 6.85,-21.676C6.454,-21.006 6.627,-20.718 7.37,-20.481C7.704,-20.376 8.048,-20.304 8.384,-20.204C9.296,-19.931 10.11,-19.479 10.808,-18.835C12.141,-17.601 12.441,-16.235 11.608,-14.616C10.428,-12.32 9.047,-10.153 7.127,-8.381C6.927,-8.195 6.715,-8.019 6.538,-7.813C6.12,-7.328 6.14,-6.96 6.716,-6.7C8.18,-6.04 8.712,-4.732 8.966,-3.346C9.232,-1.893 9.21,-0.4 8.761,1.051C8.153,3.014 6.921,4.363 4.955,5.012C4.401,5.194 3.833,5.339 3.276,5.516C2.971,5.612 2.642,5.763 2.692,6.136C2.724,6.371 2.911,6.606 3.08,6.796C3.203,6.934 3.416,6.986 3.578,7.095C4.616,7.79 4.858,8.696 4.294,9.821C3.515,11.379 2.199,12.18 0.52,12.453C0.366,12.479 0.209,12.479 0.054,12.497C-0.824,12.6 -1.048,12.835 -0.678,13.613C0.08,15.204 -0.676,16.29 -1.713,17.345C-2.767,18.416 -4.004,18.784 -5.445,18.318C-5.769,18.212 -6.054,17.987 -6.356,17.817C-6.838,17.542 -6.964,17.593 -7.178,18.123C-7.278,18.374 -7.38,18.632 -7.528,18.856C-7.947,19.485 -8.406,19.652 -9.139,19.46C-9.325,19.411 -9.495,19.306 -9.676,19.236C-10.311,18.99 -10.329,19.01 -10.698,19.566C-11.106,20.182 -11.501,20.813 -11.975,21.376C-12.294,21.756 -12.705,22.091 -13.136,22.338C-14.023,22.846 -15.026,22.578 -15.594,21.737C-15.812,21.414 -15.963,21.044 -16.2,20.738C-16.699,20.097 -17.172,19.411 -17.777,18.883C-18.256,18.464 -18.381,18.156 -18.235,17.513C-18.066,16.769 -17.583,16.873 -17.106,16.805C-15.874,16.628 -14.619,16.542 -13.416,16.248C-12.021,15.906 -10.65,15.44 -9.31,14.92C-7.477,14.208 -6.072,12.926 -4.958,11.32C-3.865,9.742 -2.997,8.039 -2.345,6.24C-1.729,4.541 -1.66,2.734 -1.562,0.948C-1.442,-1.242 -1.751,-3.415 -2.115,-5.558C-2.544,-8.085 -3.188,-10.575 -3.734,-13.082C-3.979,-14.206 -4.546,-15.183 -5.119,-16.159C-5.313,-16.489 -5.507,-16.819 -5.726,-17.19" style="fill:rgb(147,83,56);fill-rule:nonzero;"/>
            </g>
            <g transform="matrix(4.16667,0,0,4.16667,400.362,2489.67)">
                <path d="M0,-20.567C0.287,-19.576 0.926,-19.102 1.884,-18.889C3.106,-18.617 4.289,-18.714 5.447,-19.149C6.76,-19.642 8.047,-20.208 9.375,-20.655C10.728,-21.11 11.271,-20.841 11.743,-19.574C12.385,-17.85 13.669,-17.005 15.431,-16.768C15.739,-16.726 16.058,-16.71 16.348,-16.612C16.588,-16.532 16.577,-16.26 16.402,-16.153C16.185,-16.019 15.901,-15.93 15.646,-15.931C14.771,-15.937 13.959,-16.213 13.211,-16.661C12.137,-17.303 11.378,-18.197 10.951,-19.394C10.697,-20.105 10.506,-20.194 9.799,-19.949C8.732,-19.581 7.691,-19.136 6.642,-18.718C6.293,-18.58 6.19,-18.336 6.314,-17.969C6.612,-17.089 7.134,-16.386 7.903,-15.863C8.788,-15.259 9.768,-14.891 10.818,-14.719C11.854,-14.549 12.896,-14.412 13.936,-14.261C14.342,-14.202 14.743,-14.136 15.069,-13.689C14.777,-13.621 14.593,-13.541 14.408,-13.539C13.285,-13.527 12.163,-13.533 10.895,-13.533C11.113,-13.162 11.308,-12.832 11.501,-12.502C12.074,-11.526 12.641,-10.548 12.886,-9.424C13.433,-6.918 14.076,-4.427 14.505,-1.901C14.87,0.243 15.178,2.415 15.059,4.606C15.027,5.169 14.993,5.736 14.95,6.3C15.658,5.52 16.173,4.555 16.587,3.599C17.082,2.459 17.447,1.267 17.693,0.05C17.967,-1.304 18.05,-2.703 17.817,-4.069C17.698,-4.771 17.503,-5.461 17.243,-6.124C16.989,-6.771 16.647,-7.376 16.38,-8.016C16.009,-8.902 15.731,-9.921 16.053,-10.866C16.398,-11.878 17.31,-12.47 18.201,-12.963C19.072,-13.444 20.049,-13.963 20.653,-14.78C20.933,-15.159 21.093,-15.608 20.985,-16.079C20.854,-16.652 20.425,-17.135 19.93,-17.43C19.389,-17.754 18.766,-17.914 18.182,-18.142C17.598,-18.371 17.065,-18.713 16.57,-19.097C16.049,-19.5 15.574,-19.97 15.193,-20.509C14.868,-20.967 14.605,-21.469 14.328,-21.958C13.951,-22.62 13.545,-23.373 12.81,-23.688C11.819,-24.113 10.575,-23.856 9.57,-23.628C8.326,-23.345 7.088,-22.909 5.802,-22.881C4.496,-22.853 3.319,-23.34 2.378,-24.243C1.561,-25.027 1.007,-26.19 -0.1,-26.62C-0.737,-26.867 -1.481,-26.73 -2.124,-26.57C-2.788,-26.404 -3.441,-26.18 -4.074,-25.922C-4.492,-25.753 -4.894,-25.546 -5.301,-25.352C-5.982,-24.768 -6.625,-24.136 -7.324,-23.573C-8.301,-22.785 -9.369,-22.22 -10.568,-22.046C-10.883,-21.799 -11.201,-21.556 -11.514,-21.305C-12.421,-20.573 -13.388,-19.803 -14.515,-19.445C-14.636,-19.407 -14.756,-19.379 -14.877,-19.353C-14.292,-18.857 -13.71,-18.355 -13.11,-17.879C-12.854,-17.674 -12.484,-17.492 -12.175,-17.504C-11.644,-17.527 -11.073,-17.615 -10.603,-17.846C-9.59,-18.342 -8.631,-18.947 -7.651,-19.507C-6.638,-20.088 -5.66,-20.749 -4.601,-21.227C-3.798,-21.59 -2.904,-21.821 -2.028,-21.938C-0.756,-22.107 -0.362,-21.821 0,-20.567" style="fill:rgb(170,96,67);fill-rule:nonzero;"/>
            </g>
            <g transform="matrix(4.16667,0,0,4.16667,300.148,2523.49)">
                <path d="M0,-11.258C-0.416,-10.925 -0.754,-10.6 -1.142,-10.35C-3.166,-9.048 -3.692,-7.115 -3.427,-4.881C-3.24,-3.314 -1.727,-1.94 -0.18,-1.845C0.289,-1.817 0.737,-1.867 1.05,-2.445C0.606,-2.536 0.237,-2.651 -0.139,-2.684C-1.414,-2.794 -2.533,-3.892 -2.701,-5.321C-2.887,-6.907 -2.454,-8.321 -1.214,-9.417C-0.923,-9.674 -0.622,-9.922 -0.348,-10.196C-0.073,-10.472 0.199,-10.767 0,-11.258M-1.312,-13.645C-1.672,-13.798 -1.87,-13.888 -2.071,-13.967C-4.354,-14.865 -5.285,-17.272 -4.124,-19.44C-3.079,-21.391 -1.388,-22.478 0.785,-22.835C1.246,-22.91 1.708,-22.981 2.167,-23.074C2.624,-23.167 3.084,-23.257 3.528,-23.398C6.086,-24.21 6.698,-25.215 6.237,-27.853C6.733,-28.103 7.235,-28.011 7.666,-27.746C9.348,-26.709 10.206,-25.143 10.369,-23.211C10.472,-22 9.264,-20.81 7.916,-20.725C7.294,-20.686 6.668,-20.719 6.044,-20.73C4.791,-20.751 3.782,-20.248 2.963,-19.32C1.955,-18.175 1.88,-16.94 2.774,-15.702C3.412,-14.819 4.084,-13.96 4.718,-13.073C4.966,-12.727 5.146,-12.331 5.37,-11.967C5.924,-11.065 5.734,-10.237 5.076,-9.502C4.557,-8.923 3.938,-8.432 3.431,-7.843C3.113,-7.473 2.822,-7.023 2.693,-6.56C2.484,-5.814 2.893,-5.213 3.395,-4.68C4.249,-3.772 5.106,-2.866 5.934,-1.935C6.269,-1.559 6.571,-1.14 6.815,-0.7C7.499,0.527 6.772,2.159 5.392,2.415C5.018,2.484 4.552,2.317 4.19,2.137C3.334,1.709 2.459,1.458 1.496,1.484C-0.512,1.539 -1.949,2.96 -2.032,4.948C-2.106,6.717 -1.542,8.243 -0.371,9.548C0.829,10.884 2.542,11.286 4.214,10.623C5.43,10.14 6.517,9.475 7.212,8.308C7.268,8.215 7.377,8.152 7.45,8.086C10.567,9.73 13.825,10.929 17.297,11.606C17.225,11.835 17.181,11.983 17.132,12.129C16.758,13.254 16.097,13.791 14.804,13.971C12.971,14.229 11.193,14.899 9.4,15.423C8.941,15.556 8.518,15.668 8.037,15.515C7.204,15.252 6.639,14.73 6.946,13.789C7.034,13.517 6.995,13.204 7.032,12.625C6.526,13.263 6.208,13.697 5.855,14.098C5.342,14.681 4.857,15.306 4.262,15.795C3.209,16.659 2.339,16.427 1.724,15.215C1.707,15.179 1.701,15.139 1.684,15.105C1.256,14.267 0.98,14.243 0.344,14.989C0.066,15.315 -0.228,15.63 -0.483,15.972C-1.026,16.7 -1.741,16.845 -2.562,16.604C-3.159,16.429 -3.767,16.263 -4.329,16.003C-6.537,14.984 -6.992,12.497 -5.321,10.695C-5.11,10.468 -4.859,10.273 -4.673,10.028C-4.6,9.931 -4.598,9.704 -4.664,9.601C-4.731,9.498 -4.951,9.397 -5.056,9.434C-5.38,9.548 -5.684,9.721 -5.99,9.882C-8.141,11.009 -10.783,10.209 -11.814,8.117C-12.511,6.704 -12.195,4.577 -11.116,3.431C-11.01,3.319 -10.861,3.231 -10.791,3.1C-10.638,2.817 -10.688,2.55 -11.025,2.451C-11.398,2.343 -11.799,2.325 -12.165,2.2C-12.97,1.923 -13.807,1.686 -14.547,1.28C-15.788,0.599 -16.294,-0.518 -16.211,-1.945C-16.071,-4.381 -14.889,-6.212 -13.012,-7.662C-12.612,-7.972 -12.161,-8.217 -11.769,-8.534C-10.916,-9.224 -10.911,-9.989 -11.75,-10.67C-12.082,-10.94 -12.473,-11.134 -12.813,-11.393C-13.401,-11.84 -14.022,-12.26 -14.538,-12.782C-15.592,-13.849 -15.953,-15.172 -15.733,-16.649C-15.242,-19.962 -13.366,-22.357 -10.632,-24.125C-9.69,-24.734 -8.636,-25.175 -7.612,-25.648C-6.64,-26.097 -5.604,-26.257 -4.531,-26.14C-3.734,-26.052 -3,-26.198 -2.286,-26.603C-1.175,-27.232 0.019,-27.233 1.224,-26.878C1.299,-26.857 1.378,-26.843 1.448,-26.809C2.667,-26.214 3.761,-26.243 4.698,-27.37C4.874,-27.581 5.244,-27.782 5.49,-27.747C5.901,-27.69 5.877,-27.239 5.933,-26.896C6.081,-25.98 5.713,-25.31 4.972,-24.8C4.15,-24.235 3.222,-23.964 2.256,-23.786C1.414,-23.632 0.564,-23.508 -0.266,-23.3C-2.041,-22.856 -3.434,-21.831 -4.477,-20.34C-5.676,-18.626 -5.773,-15.784 -3.742,-14.093C-3.063,-13.527 -2.349,-13.323 -1.312,-13.645" style="fill:rgb(147,83,56);fill-rule:nonzero;"/>
            </g>
            <g transform="matrix(4.16667,0,0,4.16667,326.259,2532.07)">
                <path d="M0,-29.735C0,-29.722 -0.001,-29.71 -0.001,-29.697C0.207,-28.367 0.106,-27.468 -0.411,-26.803C-0.667,-26.194 -1.064,-25.658 -1.667,-25.246C-2.985,-24.347 -4.646,-24.33 -6.016,-23.56C-7.376,-22.797 -7.732,-21.174 -7.374,-19.741C-7.207,-19.076 -6.891,-18.446 -6.443,-17.924C-6.026,-17.44 -5.517,-17.046 -5.067,-16.593C-4.683,-16.207 -4.31,-15.745 -4.214,-15.192C-4.104,-14.548 -4.391,-13.95 -4.784,-13.457C-5.646,-12.375 -7,-11.704 -7.51,-10.355C-8.13,-8.716 -7.467,-6.892 -6.461,-5.574C-6.198,-5.229 -5.904,-4.912 -5.611,-4.593C-5.482,-4.562 -5.357,-4.532 -5.216,-4.503C-5.261,-4.421 -5.313,-4.371 -5.363,-4.309C-5.02,-3.942 -4.673,-3.578 -4.351,-3.192C-3.791,-2.523 -3.082,-1.627 -3.188,-0.692C-3.201,-0.581 -3.234,-0.481 -3.268,-0.381C-2.863,-0.269 -2.467,-0.117 -2.077,0.078C-1.714,0.259 -1.249,0.426 -0.875,0.357C0.506,0.101 1.232,-1.531 0.549,-2.758C0.304,-3.198 0.002,-3.617 -0.333,-3.993C-1.16,-4.924 -2.018,-5.83 -2.872,-6.738C-3.374,-7.271 -3.782,-7.872 -3.574,-8.618C-3.444,-9.081 -3.154,-9.531 -2.835,-9.901C-2.329,-10.49 -1.71,-10.981 -1.191,-11.56C-0.533,-12.296 -0.343,-13.123 -0.897,-14.025C-1.121,-14.389 -1.3,-14.785 -1.548,-15.131C-2.183,-16.018 -2.854,-16.877 -3.492,-17.76C-4.387,-18.998 -4.312,-20.233 -3.303,-21.378C-2.485,-22.306 -1.476,-22.809 -0.222,-22.788C0.402,-22.777 1.028,-22.744 1.649,-22.783C2.997,-22.868 4.206,-24.058 4.103,-25.269C3.939,-27.201 3.081,-28.767 1.399,-29.803C0.969,-30.069 0.466,-30.161 -0.029,-29.911C-0.019,-29.854 -0.017,-29.809 -0.008,-29.754C-0.008,-29.747 0,-29.743 0,-29.735" style="fill:rgb(170,96,67);fill-rule:nonzero;"/>
            </g>
            <g transform="matrix(4.16667,0,0,4.16667,335.111,2718.58)">
                <path d="M0,-9.94C0.996,-9.678 1.881,-9.41 2.782,-9.221C3.346,-9.103 3.899,-9.296 4.251,-9.751C4.57,-10.16 4.968,-10.32 5.433,-10.419C6.42,-10.631 7.008,-11.234 7.156,-12.235C7.27,-13.003 7.367,-13.775 7.445,-14.548C7.487,-14.972 7.661,-15.243 8.106,-15.134C9.69,-14.746 11.196,-15.223 12.721,-15.511C13.141,-15.59 13.559,-15.675 14.054,-15.772C14.082,-15.513 14.144,-15.294 14.124,-15.082C13.899,-12.631 13.906,-10.184 14.102,-7.731C14.179,-6.761 14.169,-5.784 14.157,-4.81C14.129,-2.586 14.303,-0.377 14.564,1.831C14.665,2.677 14.604,3.543 14.625,4.4C14.635,4.805 14.46,5.04 14.07,5.177C12.208,5.832 10.335,5.825 8.443,5.324C8.002,5.206 7.789,4.977 7.827,4.499C7.951,2.949 8.054,1.396 8.17,-0.155C8.2,-0.543 8.274,-0.928 8.291,-1.316C8.403,-3.92 8.503,-6.524 8.611,-9.128C8.652,-10.119 8.654,-10.13 9.635,-10.356C10.012,-10.443 10.405,-10.452 10.788,-10.517C11.132,-10.576 11.479,-10.641 11.808,-10.752C11.919,-10.789 12.052,-10.978 12.044,-11.088C12.037,-11.197 11.871,-11.37 11.76,-11.381C11.414,-11.416 11.056,-11.427 10.713,-11.376C9.867,-11.25 9.022,-11.102 8.187,-10.919C7.993,-10.877 7.782,-10.69 7.677,-10.511C7.543,-10.284 7.506,-9.998 7.43,-9.736C7.168,-8.839 6.984,-7.913 6.634,-7.052C5.36,-3.924 4.92,-0.591 4.171,2.665C4.05,3.194 4.066,3.752 3.958,4.284C3.824,4.934 3.745,5.008 3.094,4.953C2.164,4.873 1.233,4.762 0.316,4.592C-0.486,4.444 -1.274,4.209 -2.061,3.985C-2.432,3.878 -2.811,3.748 -3.14,3.551C-4.319,2.849 -4.568,2.223 -4.114,0.927C-3.702,-0.246 -3.191,-1.384 -2.753,-2.549C-1.89,-4.846 -1.048,-7.15 -0.196,-9.451C-0.143,-9.593 -0.083,-9.734 0,-9.94" style="fill:rgb(254,202,107);fill-rule:nonzero;"/>
            </g>
            <g transform="matrix(4.16667,0,0,4.16667,358.426,2618.7)">
                <path d="M0,2.173C-0.157,2.449 -0.322,2.801 -0.543,3.113C-0.788,3.459 -1.042,3.82 -1.365,4.085C-2.402,4.934 -2.977,4.889 -3.941,3.955C-4.696,3.223 -5.499,2.53 -6.188,1.741C-7.03,0.777 -7.849,-0.223 -8.546,-1.293C-9.413,-2.622 -8.922,-4.433 -7.546,-5.244C-6.844,-5.658 -6.11,-6.05 -5.345,-6.323C-3.221,-7.083 -1.107,-7.873 1.115,-8.341C2.005,-8.527 2.71,-8.38 3.388,-7.836C4.136,-7.234 4.976,-6.871 5.953,-6.837C7.331,-6.789 7.622,-6.955 8.215,-8.25C9.167,-7.624 9.706,-6.71 10.174,-5.731C10.373,-5.315 10.63,-4.928 10.841,-4.517C11.054,-4.105 11.299,-3.698 11.436,-3.26C12.582,0.429 14.089,3.976 15.609,7.518C15.686,7.697 15.758,7.878 15.845,8.053C15.989,8.345 15.928,8.554 15.653,8.745C14.822,9.322 14.007,9.923 13.18,10.505C12.901,10.7 12.682,10.632 12.516,10.323C12.073,9.5 11.59,8.697 11.179,7.86C11.037,7.571 10.958,7.179 11.031,6.876C11.132,6.452 11.052,6.106 10.864,5.76C9.759,3.724 9.48,1.485 9.246,-0.765C9.149,-1.694 9.084,-2.626 8.984,-3.555C8.94,-3.964 8.917,-4.393 8.505,-4.867C8.425,-4.539 8.335,-4.344 8.337,-4.149C8.369,-1.535 8.62,1.057 9.272,3.594C9.456,4.305 9.748,4.99 10.021,5.676C10.333,6.459 10.309,6.558 9.52,6.888C9.232,7.008 8.938,7.118 8.638,7.196C6.908,7.645 5.193,8.186 3.373,8.109C3.062,8.095 2.751,8.063 2.441,8.033C2.118,8.003 1.934,7.835 1.984,7.496C2.081,6.843 2.176,6.189 2.304,5.54C2.373,5.194 2.644,5.043 2.987,5.008C3.413,4.964 3.839,4.927 4.26,4.857C4.995,4.735 5.56,4.316 5.962,3.717C6.934,2.271 6.401,0.861 4.802,0.085C4.64,0.006 4.33,0.067 4.172,0.18C3.926,0.356 3.772,0.656 3.541,0.861C3.136,1.219 2.738,1.61 2.271,1.867C1.593,2.242 1.068,2.121 0.502,1.547C-0.017,1.022 -0.512,0.471 -0.996,-0.088C-1.142,-0.258 -1.273,-0.482 -1.308,-0.698C-1.411,-1.342 -0.346,-2.894 0.289,-3.07C0.625,-3.164 0.983,-3.201 1.297,-3.341C1.474,-3.419 1.58,-3.655 1.718,-3.82C1.523,-3.888 1.307,-4.046 1.138,-4.006C0.344,-3.819 -0.442,-3.595 -1.22,-3.349C-1.812,-3.164 -2.423,-2.701 -2.962,-2.782C-3.43,-2.851 -3.806,-3.514 -4.228,-3.909C-4.417,-4.085 -4.609,-4.406 -4.897,-4.154C-5.164,-3.921 -4.953,-3.656 -4.773,-3.445C-3.188,-1.577 -1.601,0.29 0,2.173" style="fill:rgb(137,196,234);fill-rule:nonzero;"/>
            </g>
            <g transform="matrix(4.16667,0,0,4.16667,343.865,2750.58)">
                <path d="M0,7.215C-1.46,7.115 -3.364,7.02 -5.26,6.84C-6.028,6.767 -6.792,6.551 -7.528,6.313C-7.759,6.237 -8.049,5.881 -8.055,5.648C-8.096,3.989 -7.865,2.381 -6.809,1.017C-6.599,0.746 -6.307,0.528 -6.023,0.328C-5.61,0.036 -5.202,-0.015 -4.742,0.324C-3.936,0.92 -3.076,0.949 -2.255,0.337C-1.867,0.048 -1.452,0.03 -1.035,0.147C-0.101,0.404 0.83,0.681 1.748,0.99C2.411,1.213 3.063,1.475 3.699,1.767C5.206,2.459 5.99,3.727 6.268,5.29C6.433,6.216 6.213,6.426 5.306,6.719C3.72,7.23 2.077,7.156 0,7.215" style="fill:rgb(219,84,102);fill-rule:nonzero;"/>
            </g>
            <g transform="matrix(4.16667,0,0,4.16667,392.781,2751.6)">
                <path d="M0,5.545C-1.245,5.545 -2.49,5.553 -3.734,5.542C-4.476,5.535 -4.481,5.523 -4.609,4.81C-4.778,3.864 -5.295,3.091 -5.813,2.314C-6.015,2.01 -6.435,1.723 -6.119,1.296C-5.778,0.835 -5.429,0.258 -4.762,0.332C-3.779,0.441 -2.834,0.441 -1.899,0.07C-1.702,-0.008 -1.435,0.053 -1.208,0.091C0.017,0.298 1.243,0.499 2.462,0.737C4.036,1.046 5.382,1.772 6.401,3.033C6.591,3.269 6.767,3.548 6.843,3.834C7.029,4.539 6.851,4.812 6.13,5.012C5.118,5.293 4.101,5.523 3.032,5.483C2.023,5.444 1.011,5.474 0,5.474L0,5.545" style="fill:rgb(219,84,102);fill-rule:nonzero;"/>
            </g>
            <g transform="matrix(4.16667,0,0,4.16667,334.177,2630.56)">
                <path d="M0,8.995C-0.532,8.429 -0.681,7.94 -0.396,7.389C-0.094,6.804 0.215,6.218 0.579,5.67C0.878,5.218 1.307,4.85 1.598,4.394C2.305,3.285 3.155,2.444 4.512,2.117C5.184,1.955 5.644,1.315 5.983,0.681C6.283,0.121 6.674,-0.17 7.374,-0.148C8.477,-0.111 9.28,-0.784 9.926,-1.585C10.405,-2.179 10.642,-2.02 11.053,-1.64C11.493,-1.234 11.684,-0.737 11.495,-0.164C11.25,0.581 10.764,1.124 9.968,1.299C9.668,1.364 9.348,1.335 9.038,1.362C7.848,1.468 7.437,1.819 7.306,2.992C7.147,4.419 7.066,5.855 6.919,7.284C6.856,7.899 6.746,8.515 6.597,9.114C6.489,9.549 6.186,9.849 5.728,9.978C4.973,10.191 4.363,9.771 4.441,9C4.534,8.074 4.721,7.158 4.869,6.239C4.928,5.873 4.99,5.507 4.848,5.068C4.727,5.232 4.558,5.38 4.493,5.564C3.944,7.114 3.481,8.673 4.017,10.338C4.143,10.731 3.843,11.05 3.377,11.114C2.954,11.174 2.635,10.994 2.634,10.59C2.631,9.932 2.657,9.263 2.78,8.619C2.941,7.781 3.207,6.965 3.431,6.14C3.481,5.953 3.57,5.772 3.596,5.583C3.608,5.49 3.541,5.33 3.466,5.296C3.384,5.258 3.197,5.293 3.15,5.361C2.975,5.613 2.809,5.881 2.694,6.165C2.167,7.473 1.868,8.835 1.774,10.242C1.756,10.511 1.779,10.848 1.371,10.796C1.05,10.755 0.753,10.586 0.77,10.201C0.786,9.815 0.807,9.412 0.931,9.053C1.196,8.283 1.527,7.535 1.838,6.781C1.941,6.529 2.107,6.296 2.166,6.036C2.212,5.835 2.137,5.605 2.116,5.389C1.947,5.511 1.708,5.595 1.619,5.76C1.158,6.612 0.734,7.485 0.3,8.352C0.215,8.521 0.139,8.696 0,8.995" style="fill:rgb(254,220,196);fill-rule:nonzero;"/>
            </g>
            <g transform="matrix(4.16667,0,0,4.16667,428.434,2664.17)">
                <path d="M0,3.291C-1.288,3.301 -1.775,2.819 -1.582,1.803C-1.446,1.093 -1.345,0.452 -1.813,-0.183C-2.071,-0.533 -1.746,-0.732 -1.489,-0.918C-1.194,-1.13 -1,-1.007 -0.818,-0.751C-0.227,0.085 0.532,0.739 1.414,1.252C2.36,1.803 2.625,2.711 2.708,3.711C2.736,4.061 2.592,4.342 2.219,4.382C1.859,4.421 1.643,4.205 1.576,3.853C1.554,3.739 1.561,3.62 1.541,3.506C1.463,3.07 1.216,2.923 0.789,3.06C0.462,3.165 0.129,3.253 0,3.291" style="fill:rgb(254,220,196);fill-rule:nonzero;"/>
            </g>
            <g transform="matrix(4.16667,0,0,4.16667,383.528,2572.88)">
                <path d="M0,3.423C-0.854,3.328 -1.701,2.971 -2.436,2.357C-2.523,2.283 -2.603,2.188 -2.652,2.086C-2.784,1.814 -2.069,0.137 -1.77,0.028C-1.671,-0.008 -1.545,0.01 -1.435,0.026C-0.517,0.16 0.4,0.304 1.319,0.438C1.824,0.511 1.88,0.592 1.725,1.138C1.586,1.623 1.386,2.095 1.295,2.588C1.17,3.272 0.726,3.431 0,3.423" style="fill:rgb(254,220,196);fill-rule:nonzero;"/>
            </g>
            <g transform="matrix(4.16667,0,0,4.16667,329.36,2737.6)">
                <path d="M0,3.202C-0.962,3.147 -1.371,2.607 -1.181,1.815C-0.766,0.095 -0.536,-0.023 1.057,0.648C1.303,0.752 1.446,0.894 1.355,1.175C1.199,1.651 1.047,2.129 0.876,2.6C0.707,3.069 0.336,3.225 0,3.202" style="fill:rgb(254,220,196);fill-rule:nonzero;"/>
            </g>
            <g transform="matrix(4.16667,0,0,4.16667,426.477,2696.24)">
                <path d="M0,-3.793C0.069,-2.702 0.123,-1.863 0.174,-1.023C0.187,-0.829 0.23,-0.624 0.184,-0.442C0.143,-0.278 0.008,-0.026 -0.104,-0.017C-0.299,0 -0.599,-0.08 -0.692,-0.225C-0.853,-0.473 -0.944,-0.797 -0.967,-1.096C-1.043,-2.073 -0.628,-2.88 0,-3.793" style="fill:rgb(254,220,196);fill-rule:nonzero;"/>
            </g>
            <g transform="matrix(4.11808,0.634438,0.634438,-4.11808,416.408,2686.52)">
                <path d="M0.164,-0.038C-0.311,-0.09 -0.625,0.223 -0.462,0.658C-0.313,1.051 -0.076,1.418 0.164,1.768C0.436,2.165 0.952,2.093 1.155,1.655C1.407,1.11 0.774,0.029 0.164,-0.038" style="fill:rgb(254,220,196);fill-rule:nonzero;"/>
            </g>
            <g transform="matrix(4.16667,0,0,4.16667,431.471,2696.2)">
                <path d="M0,-3.702C0.232,-2.66 0.428,-1.793 0.616,-0.924C0.648,-0.773 0.7,-0.587 0.641,-0.468C0.552,-0.288 0.373,-0.153 0.232,0C0.124,-0.136 -0.047,-0.257 -0.084,-0.411C-0.209,-0.932 -0.292,-1.466 -0.383,-1.996C-0.477,-2.54 -0.447,-3.062 0,-3.702" style="fill:rgb(254,220,196);fill-rule:nonzero;"/>
            </g>
            <g transform="matrix(4.16667,0,0,4.16667,441.628,2688.04)">
                <path d="M0,0.928C-0.094,1.115 -0.16,1.351 -0.312,1.5C-0.389,1.575 -0.732,1.545 -0.766,1.473C-0.98,1.023 -1.159,0.554 -1.311,0.078C-1.392,-0.174 -1.447,-0.485 -1.066,-0.573C-0.745,-0.647 -0.438,-0.62 -0.323,-0.228C-0.214,0.142 -0.115,0.514 0,0.928" style="fill:rgb(254,220,196);fill-rule:nonzero;"/>
            </g>
            <g transform="matrix(4.16667,0,0,4.16667,377.738,2749.54)">
                <path d="M0,-0.884C0.123,-0.884 0.279,-0.896 0.433,-0.882C0.686,-0.859 1.05,-0.935 1.02,-0.526C0.998,-0.222 0.861,0.1 0.479,0.133C0.134,0.161 -0.216,0.153 -0.563,0.136C-0.895,0.118 -1.029,-0.091 -1.018,-0.412C-1.006,-0.755 -0.953,-1.045 -0.493,-0.951C-0.341,-0.921 -0.186,-0.909 0,-0.884" style="fill:rgb(254,220,196);fill-rule:nonzero;"/>
            </g>
            <g transform="matrix(4.16667,0,0,4.16667,342.973,2638.96)">
                <path d="M0,0.905C-0.16,1.019 -0.456,1.344 -0.567,1.291C-0.927,1.116 -1.295,0.85 -1.507,0.522C-1.609,0.363 -1.377,-0.018 -1.279,-0.292C-1.26,-0.345 -1.162,-0.392 -1.094,-0.402C-0.822,-0.439 0.057,0.535 0,0.905" style="fill:rgb(137,196,234);fill-rule:nonzero;"/>
            </g>
            <g transform="matrix(4.16667,0,0,4.16667,352.388,2611.93)">
                <path d="M0,-0.867C-0.182,-0.468 -0.229,-0.287 -0.337,-0.155C-0.412,-0.064 -0.571,0 -0.69,-0.002C-0.766,-0.004 -0.894,-0.146 -0.899,-0.232C-0.907,-0.347 -0.854,-0.517 -0.767,-0.579C-0.623,-0.68 -0.432,-0.713 0,-0.867" style="fill:white;fill-rule:nonzero;"/>
            </g>
            <g transform="matrix(4.16667,0,0,4.16667,363.246,2537.08)">
                <path d="M0,-0.356C-0.084,-0.309 -0.128,-0.298 -0.149,-0.271C-0.323,-0.044 -0.609,0.401 -0.645,0.381C-1.024,0.176 -0.948,-0.178 -0.852,-0.533C-0.559,-1.619 0.167,-2.348 1.1,-2.902C1.262,-2.999 1.465,-3.044 1.655,-3.069C1.751,-3.082 1.941,-3.005 1.948,-2.952C1.964,-2.821 1.945,-2.625 1.858,-2.552C1.5,-2.254 1.106,-2.002 0.738,-1.715C0.435,-1.48 0.43,-1.222 0.687,-0.922C2.877,1.636 5.593,2.883 8.978,2.271C11.485,1.818 13.025,0.236 13.744,-2.174C13.888,-2.658 13.993,-3.153 14.14,-3.634C14.162,-3.709 14.331,-3.799 14.403,-3.779C14.481,-3.757 14.576,-3.617 14.579,-3.525C14.695,0.328 11.853,3.267 8.006,3.365C4.915,3.443 2.378,2.36 0.399,-0.018C0.325,-0.108 0.241,-0.191 0.158,-0.272C0.131,-0.298 0.089,-0.309 0,-0.356" style="fill:rgb(35,31,32);fill-rule:nonzero;"/>
            </g>
            <g transform="matrix(4.16667,0,0,4.16667,388.421,2493.31)">
                <path d="M0,0.86C-0.419,0.164 -0.376,-0.334 -0.152,-0.799C0.28,-1.698 0.931,-2.433 1.815,-2.888C3.767,-3.891 6.347,-2.304 6.555,-0.118C6.797,2.429 4.219,4.492 2.218,4.699C1.723,4.751 1.581,4.673 0.95,4.089C1.469,3.992 1.92,3.923 2.363,3.819C3.724,3.501 4.757,2.716 5.457,1.522C6.15,0.338 5.868,-0.97 4.793,-1.8C3.607,-2.716 2.366,-2.654 1.341,-1.604C0.849,-1.101 0.418,-0.552 0.272,0.169C0.237,0.342 0.143,0.505 0,0.86" style="fill:rgb(35,31,32);fill-rule:nonzero;"/>
            </g>
            <g transform="matrix(4.16667,0,0,4.16667,365.037,2481.35)">
                <path d="M0,0.383C-0.107,0.872 -0.164,1.379 -0.332,1.846C-0.577,2.531 -1.223,2.713 -1.837,2.329C-3.138,1.516 -3.421,-0.786 -2.359,-1.91C-1.972,-2.319 -1.492,-2.33 -1.031,-1.909C-0.365,-1.301 -0.021,-0.547 0,0.383" style="fill:rgb(35,31,32);fill-rule:nonzero;"/>
            </g>
            <g transform="matrix(4.16667,0,0,4.16667,417.069,2475.04)">
                <path d="M0,0.099C0.125,-0.571 0.189,-1.11 0.334,-1.627C0.444,-2.019 0.733,-2.29 1.177,-2.329C1.621,-2.367 1.911,-2.135 2.138,-1.789C2.729,-0.885 2.575,1.174 1.856,1.977C1.417,2.466 0.793,2.464 0.514,1.872C0.241,1.295 0.147,0.633 0,0.099" style="fill:rgb(35,31,32);fill-rule:nonzero;"/>
            </g>
            <g transform="matrix(4.16667,0,0,4.16667,406.361,2564.05)">
                <path d="M0,-1.844C-0.117,-0.739 -0.595,-0.132 -1.447,0.086C-2.899,0.457 -5.254,-0.477 -6.066,-1.769C-6.146,-1.895 -6.086,-2.109 -6.091,-2.282C-5.949,-2.27 -5.782,-2.301 -5.671,-2.236C-5.439,-2.1 -5.256,-1.876 -5.019,-1.755C-4.368,-1.423 -3.725,-1.037 -3.031,-0.837C-2.188,-0.594 -1.34,-0.667 -0.677,-1.4C-0.516,-1.577 -0.266,-1.674 0,-1.844" style="fill:rgb(35,31,32);fill-rule:nonzero;"/>
            </g>
            <g transform="matrix(4.16667,0,0,4.16667,412.408,2448.25)">
                <path d="M0,-3.57C2.263,-3.437 4.147,-2.752 5.524,-1.006C5.621,-0.884 5.757,-0.763 5.783,-0.625C5.821,-0.424 5.776,-0.209 5.766,0C5.593,-0.045 5.396,-0.052 5.252,-0.144C5.094,-0.244 4.976,-0.414 4.854,-0.565C3.775,-1.907 2.342,-2.608 0.672,-2.884C0.481,-2.916 0.27,-2.897 0.1,-2.973C-0.077,-3.052 -0.213,-3.218 -0.367,-3.346C-0.214,-3.439 -0.061,-3.533 0,-3.57" style="fill:rgb(35,31,32);fill-rule:nonzero;"/>
            </g>
            <g transform="matrix(4.16667,0,0,4.16667,343.455,2440.69)">
                <path d="M0,5.989C0.144,5.526 0.246,5.044 0.439,4.601C1.274,2.69 2.777,1.352 4.38,0.108C4.472,0.038 4.578,-0.055 4.681,-0.06C4.895,-0.069 5.224,-0.104 5.304,0.011C5.47,0.254 5.207,0.385 5.009,0.524C3.106,1.855 1.492,3.439 0.576,5.629C0.506,5.795 0.385,5.938 0.288,6.093C0.191,6.058 0.096,6.023 0,5.989" style="fill:rgb(35,31,32);fill-rule:nonzero;"/>
            </g>
            <g transform="matrix(4.16667,0,0,4.16667,451.77,2381.55)">
                <path d="M0,1.605C-0.565,1.494 -1.13,1.379 -1.696,1.272C-3.37,0.956 -5.021,0.889 -6.602,1.688C-6.809,1.792 -7.035,1.864 -7.258,1.929C-8.396,2.257 -8.923,1.943 -9.183,0.789C-9.595,-1.041 -10.399,-1.672 -12.293,-1.671C-14.22,-1.67 -15.84,-0.875 -17.296,0.294C-18.114,0.952 -18.845,1.716 -19.662,2.376C-20.972,3.431 -22.443,4.088 -24.179,3.937C-25.006,3.866 -25.79,3.684 -26.495,2.827C-25.913,3.027 -25.522,3.216 -25.11,3.292C-23.684,3.557 -22.291,3.404 -21.067,2.6C-20.195,2.027 -19.378,1.352 -18.613,0.641C-17.516,-0.379 -16.337,-1.258 -14.922,-1.764C-13.744,-2.185 -12.54,-2.483 -11.264,-2.187C-9.842,-1.858 -8.901,-1.098 -8.654,0.422C-8.484,1.461 -8.184,1.652 -7.222,1.228C-5.796,0.6 -4.334,0.294 -2.792,0.47C-2.101,0.549 -1.414,0.707 -0.741,0.888C-0.43,0.972 -0.157,1.198 0.134,1.36C0.089,1.442 0.044,1.524 0,1.605" style="fill:rgb(35,31,32);fill-rule:nonzero;"/>
            </g>
            <g transform="matrix(4.16667,0,0,4.16667,469.614,2490.36)">
                <path d="M0,-11.376C-0.001,-10.579 0.542,-10.196 1.048,-9.769C1.582,-9.318 2.126,-8.865 2.574,-8.335C3.501,-7.236 3.757,-5.92 3.196,-4.622C2.586,-3.209 2.28,-1.832 2.727,-0.335C2.744,-0.274 2.688,-0.192 2.628,0C2.437,-0.226 2.237,-0.383 2.141,-0.589C1.705,-1.526 1.803,-2.487 2.108,-3.433C2.25,-3.875 2.457,-4.297 2.649,-4.721C3.128,-5.777 3.003,-6.786 2.327,-7.692C1.937,-8.217 1.438,-8.662 0.971,-9.125C0.613,-9.48 0.2,-9.782 -0.139,-10.153C-0.483,-10.53 -0.574,-10.956 0,-11.376" style="fill:rgb(35,31,32);fill-rule:nonzero;"/>
            </g>
            <g transform="matrix(4.16667,0,0,4.16667,300.148,2515.92)">
                <path d="M0,-9.441C0.199,-8.95 -0.073,-8.655 -0.348,-8.379C-0.622,-8.105 -0.923,-7.857 -1.214,-7.6C-2.454,-6.504 -2.887,-5.09 -2.701,-3.504C-2.533,-2.075 -1.414,-0.977 -0.139,-0.867C0.237,-0.834 0.606,-0.719 1.05,-0.628C0.737,-0.05 0.289,0 -0.18,-0.028C-1.727,-0.123 -3.24,-1.497 -3.427,-3.064C-3.692,-5.298 -3.166,-7.231 -1.142,-8.533C-0.754,-8.783 -0.416,-9.108 0,-9.441" style="fill:rgb(35,31,32);fill-rule:nonzero;"/>
            </g>
        </g>
    </g>
</svg>
