<?xml version="1.0" encoding="UTF-8" standalone="no"?>
<!DOCTYPE svg PUBLIC "-//W3C//DTD SVG 1.1//EN" "http://www.w3.org/Graphics/SVG/1.1/DTD/svg11.dtd">
<svg width="100%" height="100%" viewBox="0 0 237 426" version="1.1" xmlns="http://www.w3.org/2000/svg" xmlns:xlink="http://www.w3.org/1999/xlink" xml:space="preserve" xmlns:serif="http://www.serif.com/" style="fill-rule:evenodd;clip-rule:evenodd;stroke-linejoin:round;stroke-miterlimit:2;">
    <g transform="matrix(1,0,0,1,-524,-2359)">
        <g>
            <g transform="matrix(4.16667,0,0,4.16667,577.86,2502.86)">
                <path d="M0,32.939C0.23,31.302 0.422,29.932 0.627,28.472C-0.023,28.58 -0.494,28.84 -1.076,28.624C-1.583,28.435 -1.848,29.037 -2.121,29.371C-2.221,29.494 -2.112,29.883 -1.985,30.077C-1.396,30.972 -0.767,31.841 0,32.939M7.161,18.086C6.663,17.991 6.554,18.09 6.618,18.638C6.689,19.253 6.775,19.868 6.878,20.478C6.999,21.191 7.225,21.387 7.948,21.465C9.048,21.585 10.277,20.954 10.801,19.999C11.135,19.391 10.936,18.844 10.242,18.682C9.224,18.444 8.189,18.281 7.161,18.086M-8.839,0.088C-8.835,0.089 -8.832,0.089 -8.828,0.089C-8.813,-0.065 -8.792,-0.219 -8.786,-0.374C-8.762,-1.01 -8.88,-1.104 -9.521,-1.055C-10.292,-0.996 -10.832,-0.566 -11.204,0.052C-12.41,2.05 -11.929,4.148 -10.395,5.532C-10.143,5.759 -9.817,5.944 -9.493,6.045C-8.82,6.258 -8.398,5.851 -8.522,5.146C-8.628,4.536 -8.801,3.933 -8.864,3.319C-8.97,2.275 -9.431,1.661 -10.553,1.706C-10.629,1.709 -10.724,1.705 -10.778,1.663C-10.86,1.601 -10.972,1.498 -10.965,1.421C-10.956,1.329 -10.843,1.172 -10.768,1.168C-10.309,1.141 -9.847,1.134 -9.386,1.152C-9.102,1.164 -8.942,1.062 -8.907,0.784C-8.877,0.553 -8.861,0.321 -8.839,0.088M7.907,23.845C8.58,23.803 9.192,23.88 9.723,23.708C10.613,23.418 11.394,22.882 12.03,22.172C12.671,21.46 12.835,20.582 12.804,19.673C12.795,19.399 12.581,19.109 12.4,18.871C12.248,18.669 11.927,18.795 11.883,19.061C11.821,19.442 11.868,19.861 11.723,20.202C11.071,21.726 8.896,22.693 7.276,22.222C6.677,22.048 6.299,21.626 5.98,21.113C5.735,20.718 5.76,20.382 5.874,19.922C6.006,19.388 5.856,18.779 5.793,18.205C5.781,18.09 5.615,17.916 5.511,17.909C5.4,17.902 5.206,18.042 5.174,18.153C4.996,18.783 4.849,19.422 4.706,20.062C4.376,21.532 5.047,22.578 6.23,23.302C6.736,23.611 7.386,23.684 7.907,23.845M16.073,35.303C17.609,35.041 18.232,33.84 18.955,32.741C19.573,31.798 20.222,30.876 20.82,29.921C21.151,29.392 21.117,29.371 20.518,28.826C20.46,28.876 20.394,28.919 20.346,28.978C19.564,29.948 19.506,29.954 18.515,29.154C17.788,28.568 17.07,27.97 16.328,27.405C15.908,27.084 15.458,26.786 14.881,26.768C14.955,29.598 15.521,33.611 16.073,35.303M-3.415,25.41C-4.66,26.861 -5.432,28.338 -6.186,29.827C-6.365,30.18 -6.285,30.517 -6.076,30.82C-5.767,31.268 -5.463,31.725 -5.106,32.134C-4.236,33.13 -3.331,34.097 -2.45,35.085C-1.98,35.611 -1.989,35.669 -2.453,36.251C-2.525,36.342 -2.616,36.42 -2.676,36.519C-3.348,37.618 -3.27,39.205 -1.597,39.705C-1.448,39.749 -1.276,39.743 -1.146,39.816C-1.027,39.883 -0.856,40.045 -0.875,40.13C-0.908,40.291 -1.047,40.533 -1.169,40.549C-1.463,40.591 -1.786,40.567 -2.074,40.488C-2.482,40.376 -2.868,40.379 -3.178,40.651C-3.364,40.813 -3.574,41.104 -3.547,41.306C-3.522,41.49 -3.206,41.743 -2.991,41.772C-2.26,41.872 -1.517,41.885 -0.779,41.933C-0.301,41.964 -0.057,41.739 -0.007,41.267C0.067,40.57 0.188,39.876 0.221,39.177C0.234,38.898 0.151,38.517 -0.037,38.344C-0.451,37.963 -0.444,37.55 -0.381,37.069C-0.274,36.258 -0.22,35.441 -0.107,34.631C-0.038,34.134 -0.154,33.761 -0.484,33.357C-1.296,32.363 -2.042,31.315 -2.796,30.275C-3.287,29.598 -3.254,29.368 -2.666,28.769C-2.475,28.575 -2.275,28.389 -2.072,28.207C-1.866,28.022 -1.835,27.819 -1.986,27.588C-2.431,26.91 -2.876,26.232 -3.415,25.41M21.99,26.311C21.863,26.445 21.801,26.495 21.759,26.558C21.651,26.719 21.55,26.886 21.449,27.052C21.019,27.755 21.019,27.755 21.567,28.374C22.163,29.044 22.201,29.336 21.669,30.123C20.862,31.314 20.052,32.503 19.187,33.652C18.562,34.482 18.155,35.486 16.952,35.835C16.218,36.046 16.173,36.472 16.374,37.251C16.508,37.777 16.69,38.293 16.862,38.808C17.171,39.732 17.176,39.785 16.221,40.156C15.796,40.32 15.669,40.542 15.787,40.941C16.029,41.759 16.258,42.585 16.547,43.387C16.626,43.608 16.874,43.869 17.09,43.92C17.762,44.081 18.454,44.2 19.142,44.224C19.38,44.233 19.774,43.956 19.833,43.737C19.895,43.513 19.676,43.168 19.5,42.939C19.37,42.77 19.121,42.675 18.906,42.594C18.58,42.472 18.24,42.383 17.901,42.295C17.635,42.226 17.332,42.196 17.347,41.827C17.362,41.466 17.659,41.43 17.932,41.385C18.162,41.347 18.421,41.363 18.614,41.256C18.976,41.056 19.376,40.846 19.624,40.533C20.13,39.89 20.105,39.188 19.663,38.475C19.232,37.783 19.258,37.764 19.792,37.187C19.951,37.016 20.127,36.861 20.282,36.687C21.858,34.908 23.371,33.095 24.306,30.859C24.708,29.899 24.609,29.143 23.922,28.41C23.287,27.733 22.664,27.044 21.99,26.311M-0.003,60.542C-1.16,60.623 -2.591,60.703 -4.018,60.831C-4.595,60.882 -5.176,60.992 -5.733,61.153C-7.395,61.633 -8.236,62.945 -8.801,64.431C-9.146,65.339 -8.834,65.894 -7.92,66.118C-6.905,66.366 -5.858,66.622 -4.825,66.626C-2.495,66.634 -0.163,66.529 2.164,66.393C3.363,66.323 4.554,66.097 5.746,65.925C6.172,65.864 6.606,65.783 6.681,65.223C6.815,64.21 6.799,63.199 6.504,62.221C6.431,61.975 6.135,61.669 5.895,61.621C4.028,61.246 2.15,60.927 -0.003,60.542M17.861,66.029C19.752,66.334 21.644,66.512 23.553,66.129C24.426,65.955 25.334,65.958 26.223,65.853C26.763,65.791 27.312,65.726 27.83,65.572C28.636,65.331 28.947,64.727 28.707,63.946C28.452,63.119 28.059,62.385 27.393,61.778C26.035,60.54 24.493,60.016 22.667,60.286C22.25,60.347 21.765,60.395 21.4,60.241C20.849,60.008 20.35,60.065 19.811,60.168C17.749,60.558 15.722,61.168 13.595,61.191C13.435,61.193 13.216,61.41 13.127,61.58C12.607,62.577 12.676,63.687 12.567,64.762C12.534,65.086 12.698,65.265 13.015,65.335C13.583,65.46 14.143,65.647 14.718,65.722C15.762,65.858 16.813,65.93 17.861,66.029M0.976,39.296C0.918,39.668 0.859,39.964 0.829,40.263C0.71,41.463 0.633,42.668 0.48,43.863C0.148,46.45 -0.122,49.05 -0.603,51.61C-1.062,54.051 -1.755,56.448 -2.344,58.865C-2.518,59.576 -2.453,59.674 -1.728,59.735C0.523,59.922 2.782,60.044 4.992,60.574C5.406,60.673 5.841,60.698 6.268,60.726C7.088,60.78 7.136,60.736 7.027,59.885C6.783,57.984 6.767,56.087 6.983,54.18C7.092,53.215 7.123,52.24 7.151,51.268C7.199,49.636 7.215,48.003 7.247,46.372C7.266,45.439 7.308,44.507 7.305,43.576C7.302,42.843 7.278,42.847 6.457,42.791C6.322,42.781 6.19,42.719 6.057,42.682C6.085,42.461 6.19,42.401 6.3,42.386C7.373,42.245 8.445,42.092 9.522,41.994C9.654,41.982 9.917,42.251 9.942,42.417C10.067,43.22 10.144,44.032 10.215,44.842C10.412,47.049 10.571,49.26 10.794,51.465C10.993,53.438 11.273,55.402 11.487,57.373C11.58,58.223 11.598,59.081 11.648,59.935C11.673,60.37 11.849,60.497 12.322,60.476C15.059,60.351 17.714,59.738 20.382,59.199C20.914,59.092 20.967,58.969 20.745,58.49C20.68,58.349 20.581,58.223 20.518,58.082C19.617,56.055 18.593,54.085 18.037,51.914C17.429,49.54 16.753,47.182 16.083,44.825C15.753,43.666 15.354,42.527 15.011,41.372C14.77,40.557 14.722,40.528 13.889,40.548C12.605,40.579 11.313,40.675 10.041,40.558C7.026,40.282 3.966,40.322 0.976,39.296M4.165,18.627C1.529,19.628 -0.854,20.763 -3.136,22.106C-3.788,22.49 -3.808,22.696 -3.571,23.483C-3.12,24.978 -1.974,26.045 -1.179,27.329C-0.958,27.684 -0.644,28.038 -0.12,27.845C0.404,27.652 0.862,27.427 0.892,26.735C0.928,25.88 1.038,25.028 1.146,24.177C1.185,23.877 1.295,23.582 1.407,23.297C1.431,23.238 1.604,23.215 1.708,23.217C1.756,23.219 1.837,23.319 1.841,23.377C1.856,23.61 1.864,23.844 1.845,24.076C1.742,25.279 1.659,26.484 1.517,27.682C1.163,30.66 0.799,33.636 0.4,36.608C0.301,37.347 0.497,37.93 1.059,38.356C1.391,38.607 1.805,38.788 2.21,38.896C2.923,39.087 3.652,39.276 4.384,39.333C7.102,39.543 9.822,39.743 12.545,39.854C13.465,39.892 14.403,39.695 15.32,39.537C16.113,39.4 16.099,39.359 15.896,38.641C15.047,35.639 14.545,32.576 14.198,29.478C14.055,28.2 14.293,26.811 13.306,25.715C13.132,25.523 13.325,25.212 13.583,25.235C13.772,25.252 13.967,25.302 14.142,25.377C15.508,25.955 16.854,26.566 17.962,27.592C18.304,27.91 18.699,28.168 19.048,28.478C19.36,28.754 19.58,28.723 19.789,28.366C20.319,27.458 20.894,26.575 21.386,25.647C21.73,24.999 22.017,24.308 22.241,23.608C22.492,22.827 22.339,22.464 21.653,22.027C20.536,21.317 19.408,20.627 18.109,20.267C17.173,20.007 16.256,19.676 15.327,19.385C14.994,19.281 14.658,19.17 14.315,19.117C13.737,19.028 13.704,19.079 13.666,19.711C13.582,21.12 13.166,22.346 12.022,23.304C10.331,24.722 8.481,24.992 6.45,24.269C4.754,23.667 3.826,22.147 4.004,20.332C4.053,19.834 4.099,19.335 4.165,18.627M12.176,-29.947C11.814,-29.216 11.372,-28.603 11.205,-27.921C10.908,-26.71 10.844,-25.458 11.093,-24.212C11.552,-21.907 12.584,-19.947 14.585,-18.619C16.072,-17.631 16.676,-17.827 17.28,-19.484C17.746,-20.762 18.111,-22.077 18.533,-23.371C18.702,-23.888 18.886,-24.402 19.094,-24.905C19.215,-25.199 19.416,-25.483 19.796,-25.372C20.139,-25.27 20.069,-24.949 20.062,-24.68C20.047,-24.137 19.979,-23.589 20.025,-23.051C20.208,-20.939 21.08,-19.069 22.211,-17.321C22.892,-16.27 23.713,-15.327 24.92,-14.816C25.77,-14.456 26.1,-14.494 26.606,-15.249C26.993,-15.827 27.261,-16.483 27.594,-17.097C27.786,-17.453 27.862,-18.076 28.406,-17.908C29.011,-17.722 28.646,-17.216 28.536,-16.823C27.976,-14.829 28.332,-13.055 29.787,-11.525C30.159,-11.134 30.775,-11.128 31.059,-10.807C31.446,-10.368 31.861,-10.082 32.381,-9.937C33.014,-9.761 33.67,-9.667 34.311,-9.513C34.469,-9.475 34.603,-9.338 34.749,-9.248C34.644,-9.096 34.561,-8.839 34.432,-8.814C34.062,-8.741 33.653,-8.678 33.296,-8.764C32.619,-8.928 31.958,-9.176 31.306,-9.43C30.501,-9.745 30.463,-9.789 30.022,-9.013C29.602,-8.274 29.212,-7.499 28.945,-6.694C28.3,-4.751 28.205,-2.716 28.155,-0.692C28.139,-0.048 28.329,0.619 28.528,1.243C28.724,1.854 29.052,1.908 29.599,1.523C29.79,1.389 29.941,1.182 30.147,1.09C30.337,1.006 30.714,0.943 30.767,1.026C30.89,1.217 30.888,1.502 30.893,1.75C30.895,1.848 30.771,1.944 30.724,2.05C30.023,3.637 30.06,5.278 30.261,6.852C31.071,6.928 31.793,6.888 32.441,7.088C33.088,7.288 33.417,7.175 33.776,6.615C35.435,4.024 37.12,1.449 38.826,-1.111C40.221,-3.204 41.085,-5.548 42.074,-7.832C42.442,-8.681 42.732,-9.6 42.852,-10.514C43.211,-13.26 42.539,-15.762 40.807,-17.953C40.662,-18.135 40.485,-18.296 40.356,-18.49C40.059,-18.936 40.144,-19.213 40.633,-19.386C40.926,-19.49 41.245,-19.523 41.53,-19.641C42.27,-19.949 42.477,-20.434 42.046,-21.126C41.682,-21.712 41.24,-22.299 40.7,-22.713C39.999,-23.25 39.167,-23.621 38.389,-24.058C37.644,-24.477 37.621,-24.845 38.314,-25.341C38.377,-25.387 38.452,-25.415 38.517,-25.458C39.054,-25.826 39.099,-25.996 38.668,-26.439C36.829,-28.338 34.797,-29.949 32.174,-30.638C30.593,-31.054 29.005,-31.445 27.425,-31.864C24.408,-32.664 21.36,-33.298 18.241,-33.529C17.153,-33.609 16.059,-33.608 14.972,-33.696C12.94,-33.858 10.92,-33.723 8.91,-33.47C7.677,-33.315 6.381,-33.218 5.317,-32.524C3.529,-31.357 1.804,-30.092 0.07,-28.843C-0.507,-28.427 -0.731,-27.807 -0.689,-27.096C-0.678,-26.902 -0.685,-26.706 -0.674,-26.511C-0.646,-25.958 -0.87,-25.608 -1.345,-25.266C-2.192,-24.656 -3.001,-23.969 -3.724,-23.215C-5.36,-21.506 -6.435,-19.428 -7.456,-17.316C-8.384,-15.397 -8.764,-13.33 -9.182,-11.272C-9.392,-10.244 -9.554,-9.203 -9.688,-8.162C-9.946,-6.167 -9.662,-4.202 -9.287,-2.248C-9.257,-2.096 -9.042,-1.852 -8.956,-1.869C-8.769,-1.904 -8.577,-2.055 -8.449,-2.209C-8.362,-2.315 -8.384,-2.508 -8.348,-2.66C-7.87,-4.707 -7.381,-6.752 -6.481,-8.666C-6.271,-9.112 -6.188,-9.422 -6.752,-9.691C-7.144,-9.877 -7.514,-10.212 -7.266,-10.806C-5.952,-9.502 -5.474,-10.034 -4.571,-10.818C-3.636,-11.63 -2.989,-12.659 -2.612,-13.82C-2.277,-14.851 -2.068,-15.923 -1.818,-16.98C-1.732,-17.346 -1.819,-17.869 -1.308,-17.902C-0.822,-17.933 -0.909,-17.445 -0.833,-17.117C-0.719,-16.629 -0.462,-16.53 -0.113,-16.916C0.455,-17.546 1.034,-18.201 1.438,-18.938C2.091,-20.13 2.621,-21.392 3.17,-22.639C3.361,-23.074 3.617,-23.298 4.063,-23.087C4.551,-22.857 4.978,-22.986 5.398,-23.212C6.806,-23.969 8.204,-24.729 9.371,-25.864C9.828,-26.309 10.177,-26.703 10.292,-27.375C10.401,-28.008 10.739,-28.611 11.028,-29.202C11.241,-29.633 11.61,-29.909 12.176,-29.947M10.095,-25.228C9.828,-25.069 9.699,-24.999 9.576,-24.918C8.369,-24.136 7.182,-23.318 5.945,-22.586C5.533,-22.343 4.989,-22.21 4.511,-22.223C3.964,-22.237 3.746,-22 3.555,-21.574C3.174,-20.72 2.818,-19.85 2.359,-19.039C1.903,-18.231 1.367,-17.46 0.798,-16.727C0.547,-16.403 0.117,-15.985 -0.214,-15.999C-1.298,-16.045 -1.309,-15.257 -1.518,-14.589C-1.576,-14.403 -1.609,-14.209 -1.671,-14.026C-2.214,-12.403 -3.008,-10.929 -4.489,-9.986C-5.191,-9.54 -5.674,-8.977 -5.93,-8.227C-6.358,-6.977 -6.775,-5.72 -7.119,-4.445C-8.021,-1.105 -8.565,2.257 -7.558,5.686C-7.427,6.132 -7.348,6.597 -7.284,7.059C-7.078,8.553 -6.355,9.792 -5.316,10.828C-3.863,12.279 -2.539,13.898 -0.583,14.75C-0.478,14.795 -0.395,14.892 -0.291,14.942C0.44,15.296 1.142,15.788 1.915,15.969C4.829,16.653 7.767,17.238 10.697,17.852C10.923,17.9 11.163,17.902 11.396,17.9C13.521,17.89 15.583,17.512 17.554,16.725C18.855,16.206 20.153,15.663 21.401,15.029C22.818,14.309 24.288,13.617 25.123,12.128C25.192,12.005 25.359,11.936 25.483,11.845C25.792,11.621 26.142,11.438 26.403,11.168C27.58,9.956 29.104,9.69 30.672,9.653C31.76,9.627 32.392,10.2 32.722,11.238C32.873,11.711 32.756,12.188 32.514,12.12C32.308,12.061 32.159,11.786 31.996,11.597C31.948,11.542 31.942,11.452 31.906,11.382C31.417,10.43 31.112,10.338 30.034,10.418C28.076,10.564 26.896,11.823 25.784,13.214C25.514,13.552 25.673,13.873 25.847,14.19C26.764,15.86 28.685,16.554 30.464,15.842C31.806,15.305 32.875,14.4 33.703,13.239C34.591,11.994 34.519,10.606 34.089,9.219C34.014,8.978 33.814,8.724 33.602,8.585C32.114,7.601 30.712,7.158 28.78,8.604C28.739,8.635 28.645,8.596 28.554,8.587C28.381,8.168 28.692,7.95 28.952,7.734C29.223,7.509 29.269,7.246 29.259,6.908C29.221,5.595 29.218,4.282 29.201,2.927C27.922,2.447 27.57,2.034 27.343,0.547C27.262,0.012 27.212,-0.539 27.235,-1.079C27.368,-4.173 27.633,-7.24 29.594,-9.844C29.839,-10.17 29.736,-10.408 29.471,-10.648C28.364,-11.653 27.722,-12.915 27.412,-14.363C27.4,-14.416 27.293,-14.45 27.194,-14.518C26.321,-13.473 25.279,-13.67 24.247,-14.227C23.739,-14.5 23.269,-14.866 22.837,-15.252C21.804,-16.178 21.077,-17.34 20.531,-18.597C20.019,-19.775 19.612,-20.998 19.124,-22.295C18.993,-21.902 18.889,-21.574 18.774,-21.249C18.424,-20.26 18.136,-19.243 17.7,-18.292C17.197,-17.196 16.424,-16.933 15.288,-17.313C13.9,-17.777 12.879,-18.723 12.021,-19.861C10.866,-21.394 10.314,-23.163 10.095,-25.228M15.087,18.653C16.298,19.035 17.499,19.456 18.723,19.788C20.068,20.152 21.214,20.876 22.356,21.624C22.939,22.005 23.192,22.553 23.04,23.232C22.897,23.875 22.734,24.518 22.501,25.131C22.355,25.518 22.39,25.792 22.663,26.081C23.064,26.505 23.446,26.948 23.84,27.379C24.05,27.609 24.266,27.835 24.483,28.057C25.382,28.979 25.454,29.988 24.973,31.167C24.042,33.448 22.53,35.317 20.94,37.143C20.812,37.291 20.622,37.401 20.544,37.567C20.458,37.752 20.371,38.03 20.448,38.185C21.185,39.656 20.706,40.817 19.526,41.836C19.793,42.103 20.065,42.324 20.273,42.593C21.09,43.649 20.614,44.831 19.284,44.974C18.752,45.032 18.201,44.908 17.659,44.875C17.474,44.864 17.287,44.88 17.048,44.885C17.646,47.127 18.268,49.293 18.797,51.482C19.316,53.626 20.342,55.556 21.215,57.551C21.401,57.978 21.666,58.37 21.894,58.778C22.122,59.187 22.407,59.335 22.93,59.302C24.921,59.179 26.692,59.722 28.141,61.187C28.879,61.932 29.384,62.78 29.639,63.783C29.939,64.964 29.432,66.01 28.283,66.406C27.666,66.618 26.994,66.689 26.34,66.773C25.183,66.921 24.022,67.05 22.86,67.151C22.126,67.214 21.381,67.284 20.651,67.227C18.166,67.035 15.669,66.912 13.24,66.279C13.014,66.219 12.787,66.161 12.569,66.078C11.861,65.808 11.764,65.715 11.81,64.963C11.879,63.843 12.012,62.727 12.122,61.555C11.928,61.509 11.784,61.482 11.644,61.441C10.953,61.237 10.902,61.184 10.857,60.494C10.805,59.68 10.8,58.863 10.719,58.053C10.507,55.925 10.24,53.802 10.043,51.673C9.835,49.428 9.69,47.177 9.501,44.929C9.453,44.349 9.356,43.772 9.264,43.197C9.212,42.872 8.979,42.701 8.678,42.805C8.5,42.867 8.346,43.071 8.245,43.247C8.176,43.368 8.214,43.551 8.208,43.708C8.144,45.145 8.065,46.584 8.022,48.022C7.991,49.033 8.028,50.045 8,51.057C7.964,52.339 7.963,53.629 7.821,54.903C7.629,56.623 7.737,58.322 7.925,60.026C7.992,60.633 8.221,61.254 7.574,61.74C7.46,61.826 7.526,62.167 7.531,62.388C7.549,63.32 7.628,64.253 7.584,65.182C7.533,66.249 7.269,66.548 6.216,66.76C5.225,66.96 4.219,67.129 3.212,67.187C0.493,67.343 -2.229,67.497 -4.951,67.518C-6.022,67.527 -7.121,67.271 -8.163,66.979C-9.676,66.555 -10.231,65.435 -9.613,63.985C-8.764,61.993 -7.445,60.391 -5.104,60.227C-3.745,60.132 -3.192,59.623 -2.949,58.256C-2.52,55.85 -1.715,53.51 -1.27,51.106C-0.795,48.543 -0.543,45.939 -0.219,43.35C-0.145,42.75 -0.245,42.668 -0.849,42.655C-1.315,42.645 -1.782,42.686 -2.25,42.699C-2.366,42.702 -2.483,42.683 -2.599,42.668C-3.354,42.576 -4.142,42.442 -4.371,41.594C-4.587,40.797 -4.049,40.29 -3.419,39.896C-3.389,39.876 -3.37,39.837 -3.351,39.812C-3.343,39.734 -3.302,39.635 -3.334,39.591C-4.171,38.475 -4.111,37.335 -3.36,36.23C-3.073,35.808 -3.159,35.567 -3.468,35.235C-4.237,34.408 -4.978,33.554 -5.718,32.701C-5.973,32.408 -6.183,32.076 -6.431,31.776C-7.17,30.883 -7.185,29.977 -6.625,28.967C-5.924,27.704 -5.241,26.435 -4.26,25.361C-3.965,25.038 -3.833,24.746 -4.067,24.329C-4.197,24.094 -4.262,23.819 -4.329,23.556C-4.593,22.518 -4.384,21.941 -3.454,21.409C-1.148,20.089 1.258,18.985 3.775,18.129C4.023,18.044 4.267,17.945 4.71,17.777C4.396,17.625 4.258,17.529 4.105,17.487C3.167,17.228 2.223,16.994 1.289,16.723C0.917,16.615 0.545,16.471 0.211,16.279C-0.802,15.697 -1.907,15.21 -2.776,14.456C-4.448,13.006 -6.17,11.56 -7.282,9.595C-7.659,8.93 -7.853,8.153 -8.069,7.409C-8.172,7.053 -8.287,6.83 -8.687,6.916C-9.936,7.185 -10.837,6.524 -11.526,5.665C-13.05,3.764 -13.129,1.789 -11.962,-0.322C-11.636,-0.912 -11.146,-1.374 -10.518,-1.643C-10.064,-1.836 -9.973,-2.136 -10.099,-2.578C-10.987,-5.68 -10.498,-8.754 -9.895,-11.824C-9.693,-12.854 -9.557,-13.908 -9.244,-14.905C-8.208,-18.209 -6.643,-21.245 -4.3,-23.826C-3.625,-24.569 -2.817,-25.197 -2.038,-25.839C-1.725,-26.098 -1.455,-26.267 -1.536,-26.772C-1.742,-28.063 -1.158,-29.033 -0.137,-29.777C0.146,-29.983 0.417,-30.208 0.711,-30.399C1.95,-31.203 3.24,-31.92 4.412,-32.832C5.626,-33.774 7.121,-33.999 8.589,-34.199C11.221,-34.555 13.87,-34.588 16.518,-34.407C17.879,-34.314 19.252,-34.254 20.593,-34.022C23.008,-33.604 25.411,-33.103 27.803,-32.567C29.472,-32.192 31.125,-31.735 32.769,-31.256C35.399,-30.491 37.454,-28.829 39.299,-26.887C40.021,-26.127 39.956,-25.708 39.134,-24.663C39.696,-24.314 40.313,-24.033 40.802,-23.605C41.47,-23.022 42.154,-22.401 42.626,-21.665C43.439,-20.398 43.149,-19.462 41.873,-18.913C41.733,-18.852 41.601,-18.775 41.37,-18.657C41.503,-18.443 41.608,-18.258 41.729,-18.084C43.705,-15.224 44.37,-12.087 43.345,-8.76C42.194,-5.024 40.459,-1.543 38.2,1.669C37.305,2.943 36.504,4.284 35.654,5.589C35.251,6.209 34.836,6.82 34.419,7.43C34.222,7.718 34.227,7.942 34.433,8.265C35.635,10.16 35.482,12.494 34.098,14.235C33.258,15.292 32.241,16.119 31.008,16.675C28.856,17.645 26.716,17.074 25.312,15.163C25.088,14.857 24.868,14.377 24.588,14.332C24.295,14.284 23.936,14.668 23.6,14.852C20.998,16.277 18.353,17.599 15.442,18.296C15.333,18.323 15.231,18.382 15.125,18.426C15.113,18.501 15.1,18.578 15.087,18.653" style="fill:rgb(35,31,32);fill-rule:nonzero;"/>
            </g>
            <g transform="matrix(4.16667,0,0,4.16667,624.135,2548.41)">
                <path d="M0,-29.192C-1.325,-28.925 -2.509,-28.509 -3.357,-27.443C-3.405,-27.383 -3.467,-27.302 -3.459,-27.239C-3.433,-27.03 -3.444,-26.757 -3.319,-26.633C-3.096,-26.412 -2.873,-26.612 -2.772,-26.827C-2.383,-27.663 -1.56,-27.852 -0.822,-28.165C-0.539,-28.285 -0.219,-28.322 0.058,-28.453C0.203,-28.52 0.394,-28.723 0.377,-28.838C0.359,-28.971 0.134,-29.076 0,-29.192M7.053,-26.671C8.035,-25.904 8.498,-24.932 8.857,-23.907C9.011,-23.47 9.059,-22.997 9.224,-22.566C9.283,-22.411 9.545,-22.334 9.715,-22.22C9.806,-22.374 9.99,-22.539 9.973,-22.678C9.79,-24.133 9.284,-25.457 8.248,-26.531C7.967,-26.822 7.623,-26.992 7.053,-26.671M-1.737,-22.22C-1.604,-23.476 -2.414,-24.188 -3.279,-23.727C-4.253,-23.208 -4.831,-22.331 -5.05,-21.252C-5.136,-20.827 -4.709,-20.17 -4.323,-20.017C-3.907,-19.852 -3.556,-20.006 -3.264,-20.299C-2.852,-20.712 -2.434,-21.122 -2.065,-21.57C-1.876,-21.799 -1.79,-22.111 -1.737,-22.22M3.883,-19.14C3.76,-17.897 4.263,-17.295 5.25,-17.476C5.538,-17.53 5.848,-17.694 6.057,-17.9C6.83,-18.664 7.133,-19.584 6.856,-20.668C6.731,-21.156 6.487,-21.541 5.989,-21.673C5.477,-21.811 5.069,-21.539 4.759,-21.176C4.243,-20.573 3.916,-19.873 3.883,-19.14M2.178,-16.243C2.693,-17.007 2.585,-17.563 2.167,-18.094C1.276,-19.229 0.113,-19.797 -1.334,-19.952C-2.746,-20.102 -3.946,-19.39 -4.43,-18.163C-4.722,-17.421 -4.858,-16.584 -4.896,-15.781C-4.997,-13.689 -3.374,-11.688 -1.328,-11.343C-0.888,-11.269 -0.407,-11.398 0.047,-11.478C0.149,-11.497 0.238,-11.695 0.29,-11.827C0.302,-11.859 0.151,-11.993 0.057,-12.022C-0.39,-12.159 -0.845,-12.269 -1.293,-12.403C-3.54,-13.073 -4.574,-15.833 -3.362,-17.946C-2.924,-18.711 -2.254,-19.125 -1.322,-19.017C0.328,-18.827 1.516,-18.031 2.178,-16.243M3.981,-5.325C3.899,-2.833 2.93,-1.074 0.819,0.019C-1.547,1.245 -4.788,1.1 -6.208,-2.249C-6.343,-2.57 -6.501,-2.896 -6.72,-3.161C-6.832,-3.296 -7.108,-3.348 -7.301,-3.332C-7.372,-3.326 -7.506,-2.984 -7.459,-2.847C-7.22,-2.151 -6.987,-1.441 -6.646,-0.792C-6.002,0.435 -4.992,1.298 -3.643,1.639C-1.48,2.185 0.532,1.772 2.354,0.48C3.77,-0.525 4.566,-1.898 4.751,-3.623C4.824,-4.3 4.88,-4.98 4.954,-5.763C5.393,-5.722 5.857,-5.713 6.306,-5.624C6.605,-5.565 6.873,-5.357 7.171,-5.288C7.318,-5.254 7.542,-5.344 7.655,-5.456C7.722,-5.521 7.694,-5.795 7.611,-5.876C7.394,-6.088 7.147,-6.315 6.869,-6.415C6.044,-6.711 5.175,-6.8 4.352,-6.47C3.785,-6.243 3.273,-5.874 2.757,-5.537C2.669,-5.48 2.611,-5.224 2.666,-5.144C2.729,-5.049 2.939,-4.991 3.067,-5.015C3.33,-5.066 3.579,-5.183 3.981,-5.325M-1.011,-36.161C-0.792,-34.095 -0.24,-32.327 0.916,-30.794C1.773,-29.656 2.794,-28.71 4.182,-28.246C5.318,-27.866 6.091,-28.129 6.594,-29.225C7.03,-30.175 7.318,-31.193 7.668,-32.182C7.783,-32.506 7.887,-32.835 8.018,-33.228C8.506,-31.93 8.913,-30.708 9.425,-29.53C9.971,-28.273 10.698,-27.111 11.731,-26.185C12.163,-25.798 12.633,-25.433 13.141,-25.16C14.173,-24.603 15.215,-24.406 16.088,-25.451C16.187,-25.382 16.294,-25.349 16.306,-25.296C16.616,-23.848 17.258,-22.586 18.365,-21.581C18.63,-21.34 18.733,-21.103 18.488,-20.777C16.527,-18.172 16.262,-15.106 16.129,-12.011C16.106,-11.471 16.156,-10.921 16.237,-10.385C16.464,-8.899 16.816,-8.486 18.095,-8.005C18.112,-6.651 18.115,-5.338 18.153,-4.025C18.163,-3.687 18.117,-3.423 17.846,-3.199C17.586,-2.983 17.275,-2.765 17.448,-2.345C17.539,-2.337 17.633,-2.297 17.674,-2.329C19.606,-3.775 21.008,-3.332 22.496,-2.348C22.708,-2.209 22.908,-1.955 22.983,-1.713C23.413,-0.327 23.485,1.061 22.597,2.306C21.769,3.467 20.7,4.372 19.358,4.91C17.579,5.621 15.658,4.927 14.741,3.257C14.567,2.94 14.408,2.62 14.678,2.282C15.79,0.89 16.97,-0.369 18.928,-0.514C20.006,-0.594 20.311,-0.503 20.8,0.45C20.836,0.519 20.842,0.609 20.89,0.664C21.053,0.853 21.202,1.128 21.408,1.187C21.65,1.255 21.767,0.779 21.616,0.305C21.286,-0.733 20.654,-1.306 19.566,-1.28C17.999,-1.243 16.474,-0.977 15.297,0.236C15.036,0.505 14.686,0.688 14.377,0.912C14.253,1.003 14.086,1.073 14.017,1.196C13.182,2.684 11.712,3.376 10.295,4.096C9.047,4.73 7.75,5.273 6.448,5.792C4.477,6.579 2.416,6.957 0.29,6.967C0.057,6.969 -0.183,6.967 -0.409,6.919C-3.339,6.305 -6.277,5.72 -9.191,5.037C-9.964,4.855 -10.666,4.364 -11.397,4.009C-11.501,3.959 -11.583,3.863 -11.689,3.817C-13.645,2.965 -14.969,1.346 -16.422,-0.105C-17.461,-1.141 -18.184,-2.38 -18.39,-3.874C-18.454,-4.336 -18.533,-4.8 -18.664,-5.247C-19.671,-8.675 -19.126,-12.038 -18.225,-15.378C-17.881,-16.653 -17.464,-17.91 -17.036,-19.16C-16.78,-19.91 -16.297,-20.472 -15.595,-20.919C-14.114,-21.862 -13.32,-23.336 -12.777,-24.959C-12.715,-25.142 -12.682,-25.336 -12.624,-25.522C-12.415,-26.19 -12.404,-26.978 -11.32,-26.931C-10.989,-26.918 -10.559,-27.336 -10.308,-27.66C-9.739,-28.393 -9.203,-29.164 -8.747,-29.971C-8.288,-30.783 -7.932,-31.653 -7.551,-32.506C-7.36,-32.933 -7.142,-33.17 -6.595,-33.156C-6.117,-33.143 -5.573,-33.276 -5.161,-33.519C-3.924,-34.251 -2.737,-35.069 -1.53,-35.851C-1.407,-35.931 -1.278,-36.002 -1.011,-36.161" style="fill:rgb(237,171,122);fill-rule:nonzero;"/>
            </g>
            <g transform="matrix(4.16667,0,0,4.16667,719.897,2445.84)">
                <path d="M0,22.904C-0.075,22.663 -0.274,22.409 -0.487,22.269C-1.975,21.286 -3.376,20.842 -5.309,22.289C-5.35,22.32 -5.444,22.281 -5.535,22.272C-5.708,21.852 -5.397,21.634 -5.137,21.419C-4.866,21.194 -4.82,20.93 -4.83,20.592C-4.868,19.28 -4.871,17.967 -4.888,16.612C-6.167,16.132 -6.519,15.718 -6.746,14.232C-6.827,13.697 -6.877,13.146 -6.854,12.606C-6.721,9.511 -6.456,6.445 -4.495,3.841C-4.25,3.514 -4.353,3.277 -4.618,3.037C-5.725,2.032 -6.367,0.769 -6.677,-0.678C-6.689,-0.732 -6.795,-0.765 -6.895,-0.833C-7.768,0.212 -8.81,0.014 -9.842,-0.542C-10.35,-0.816 -10.82,-1.181 -11.251,-1.568C-12.285,-2.493 -13.012,-3.656 -13.558,-4.912C-14.07,-6.09 -14.477,-7.313 -14.965,-8.611C-15.096,-8.217 -15.2,-7.889 -15.315,-7.565C-15.665,-6.575 -15.953,-5.558 -16.389,-4.608C-16.892,-3.511 -17.665,-3.248 -18.801,-3.628C-19.974,-4.021 -20.876,-4.767 -21.647,-5.672C-21.255,-4.463 -20.8,-3.274 -20.235,-2.136C-19.664,-0.988 -19.012,0.174 -18.236,1.199C-17.583,2.062 -16.492,3.348 -15.26,2.94C-14.648,2.737 -14.243,2.175 -13.914,1.652C-13.903,1.636 -13.895,1.619 -13.885,1.603C-13.959,1.303 -14.023,1.001 -14.125,0.711C-14.485,-0.315 -14.948,-1.286 -15.93,-2.053C-15.36,-2.374 -15.016,-2.204 -14.735,-1.913C-14.029,-1.181 -13.584,-0.327 -13.305,0.599C-13.192,0.399 -13.083,0.199 -12.957,0.008C-12.814,-0.21 -12.528,-0.003 -12.514,0.19C-12.47,0.803 -12.413,1.415 -12.335,2.024C-12.165,3.356 -11.918,4.715 -11.408,5.964C-10.998,6.968 -10.335,8.102 -9.163,8.28C-9.021,8.301 -8.891,8.456 -8.944,8.603C-9.553,10.282 -9.875,12.029 -9.957,13.811C-9.997,14.684 -10.042,15.599 -9.901,16.465C-9.771,17.271 -9.519,18.051 -9.322,18.843C-9.019,20.062 -8.872,21.318 -9.417,22.492C-9.909,23.555 -10.719,24.446 -11.553,25.254C-12.44,26.113 -13.406,26.885 -14.375,27.649C-15.356,28.422 -16.318,29.208 -17.391,29.853C-18.611,30.588 -19.914,31.134 -21.265,31.515C-19.643,31.378 -18.062,31.019 -16.535,30.41C-15.233,29.89 -13.936,29.347 -12.688,28.714C-11.271,27.994 -9.801,27.301 -8.966,25.813C-8.897,25.69 -8.73,25.621 -8.605,25.53C-8.297,25.305 -7.947,25.123 -7.686,24.853C-6.509,23.64 -4.984,23.375 -3.417,23.338C-2.329,23.311 -1.697,23.884 -1.367,24.923C-1.216,25.396 -1.333,25.873 -1.575,25.804C-1.781,25.746 -1.93,25.47 -2.093,25.282C-2.141,25.226 -2.147,25.136 -2.183,25.067C-2.672,24.115 -2.977,24.023 -4.055,24.103C-6.013,24.249 -7.193,25.508 -8.305,26.899C-8.575,27.237 -8.416,27.557 -8.242,27.875C-7.325,29.545 -5.404,30.239 -3.625,29.527C-2.283,28.99 -1.214,28.085 -0.386,26.924C0.502,25.678 0.43,24.291 0,22.904" style="fill:rgb(221,151,106);fill-rule:nonzero;"/>
            </g>
            <g transform="matrix(4.16667,0,0,4.16667,628.593,2516.93)">
                <path d="M0,-33.323C-0.565,-33.285 -0.935,-33.01 -1.147,-32.578C-1.437,-31.987 -1.775,-31.385 -1.883,-30.752C-1.999,-30.079 -2.348,-29.685 -2.805,-29.24C-3.972,-28.105 -5.37,-27.345 -6.777,-26.589C-7.198,-26.362 -7.625,-26.233 -8.113,-26.464C-8.559,-26.675 -8.814,-26.45 -9.006,-26.015C-9.555,-24.768 -10.084,-23.507 -10.738,-22.314C-11.142,-21.577 -11.721,-20.923 -12.289,-20.293C-12.638,-19.906 -12.895,-20.006 -13.008,-20.493C-13.084,-20.821 -12.998,-21.309 -13.483,-21.278C-13.995,-21.245 -13.908,-20.722 -13.994,-20.356C-14.244,-19.3 -14.453,-18.227 -14.788,-17.196C-15.165,-16.035 -15.812,-15.007 -16.747,-14.194C-17.65,-13.41 -18.127,-12.879 -19.441,-14.182C-19.689,-13.589 -19.32,-13.254 -18.928,-13.067C-18.364,-12.799 -18.447,-12.488 -18.657,-12.043C-19.557,-10.129 -20.046,-8.083 -20.524,-6.036C-20.56,-5.885 -20.538,-5.691 -20.625,-5.586C-20.753,-5.431 -20.945,-5.28 -21.131,-5.245C-21.218,-5.228 -21.433,-5.472 -21.462,-5.624C-21.837,-7.578 -22.122,-9.544 -21.864,-11.538C-21.73,-12.579 -21.567,-13.62 -21.358,-14.648C-20.94,-16.706 -20.56,-18.773 -19.631,-20.692C-18.611,-22.804 -17.536,-24.883 -15.899,-26.592C-15.177,-27.345 -14.368,-28.032 -13.521,-28.642C-13.045,-28.984 -12.821,-29.335 -12.85,-29.887C-12.86,-30.082 -12.854,-30.278 -12.865,-30.472C-12.907,-31.183 -12.683,-31.803 -12.105,-32.219C-10.372,-33.469 -8.647,-34.733 -6.858,-35.9C-5.794,-36.594 -4.499,-36.691 -3.266,-36.846C-1.255,-37.099 0.765,-37.234 2.796,-37.072C3.883,-36.984 4.978,-36.985 6.065,-36.905C9.185,-36.675 12.232,-36.04 15.25,-35.24C16.83,-34.821 18.417,-34.43 19.999,-34.014C22.621,-33.325 24.653,-31.715 26.493,-29.815C26.923,-29.372 26.878,-29.202 26.341,-28.835C26.276,-28.791 26.201,-28.763 26.138,-28.718C25.445,-28.221 25.468,-27.853 26.213,-27.434C26.991,-26.997 27.823,-26.627 28.524,-26.09C29.064,-25.676 29.506,-25.089 29.87,-24.503C30.301,-23.81 30.094,-23.325 29.354,-23.017C29.069,-22.899 28.75,-22.866 28.457,-22.762C27.968,-22.59 27.883,-22.312 28.181,-21.866C28.31,-21.673 28.486,-21.511 28.631,-21.329C30.363,-19.138 31.035,-16.636 30.676,-13.89C30.557,-12.976 30.267,-12.057 29.898,-11.208C28.909,-8.925 28.045,-6.58 26.65,-4.487C24.944,-1.927 23.259,0.648 21.6,3.239C21.241,3.799 20.912,3.911 20.266,3.712C19.617,3.512 18.895,3.552 18.085,3.476C17.884,1.902 17.847,0.261 18.548,-1.326C18.595,-1.432 18.719,-1.528 18.717,-1.627C18.712,-1.875 18.714,-2.159 18.591,-2.35C18.538,-2.433 18.162,-2.37 17.971,-2.286C17.766,-2.194 17.614,-1.987 17.423,-1.853C16.876,-1.469 16.548,-1.522 16.353,-2.134C16.153,-2.758 15.963,-3.425 15.979,-4.068C16.029,-6.093 16.124,-8.128 16.769,-10.07C17.037,-10.875 17.426,-11.65 17.846,-12.389C18.287,-13.165 18.325,-13.121 19.13,-12.806C19.782,-12.552 20.443,-12.304 21.121,-12.14C21.477,-12.054 21.886,-12.117 22.256,-12.19C22.385,-12.216 22.468,-12.472 22.573,-12.624C22.427,-12.715 22.293,-12.851 22.135,-12.889C21.495,-13.044 20.838,-13.137 20.205,-13.313C19.685,-13.459 19.27,-13.744 18.883,-14.183C18.6,-14.505 17.983,-14.511 17.611,-14.901C16.156,-16.431 15.8,-18.205 16.36,-20.199C16.471,-20.593 16.835,-21.098 16.23,-21.284C15.686,-21.452 15.61,-20.829 15.418,-20.473C15.085,-19.859 14.817,-19.203 14.43,-18.626C13.924,-17.87 13.594,-17.832 12.744,-18.192C11.538,-18.703 10.716,-19.646 10.036,-20.697C8.904,-22.445 8.033,-24.315 7.85,-26.427C7.803,-26.966 7.871,-27.513 7.886,-28.056C7.894,-28.325 7.963,-28.646 7.62,-28.748C7.24,-28.859 7.04,-28.575 6.918,-28.281C6.71,-27.778 6.526,-27.264 6.357,-26.747C5.935,-25.453 5.57,-24.138 5.104,-22.86C4.5,-21.203 3.896,-21.008 2.41,-21.995C0.409,-23.323 -0.624,-25.283 -1.083,-27.589C-1.332,-28.835 -1.268,-30.087 -0.971,-31.298C-0.804,-31.979 -0.361,-32.593 0,-33.323" style="fill:rgb(89,74,66);fill-rule:nonzero;"/>
            </g>
            <g transform="matrix(4.16667,0,0,4.16667,549.597,2395)">
                <path d="M0,16.178C-0.38,15.989 -0.724,15.657 -0.482,15.079C-0.335,15.225 -0.202,15.34 -0.074,15.443C-0.122,14.642 -0.078,13.834 0.058,13.04C0.508,10.414 1.737,8.057 3.168,5.842C3.663,5.077 4.181,4.188 4.997,3.725C5.348,3.526 5.765,3.435 6.115,3.681C6.466,3.927 6.657,4.341 6.97,4.621C7.521,3.929 7.854,3.098 8.178,2.282C8.538,1.377 8.941,0.497 9.43,-0.344C10.333,-1.904 11.482,-3.259 12.9,-4.371C14.266,-5.442 15.741,-6.376 17.294,-7.152C17.803,-7.406 18.329,-7.637 18.86,-7.855C17.802,-7.814 16.746,-7.718 15.693,-7.585C14.46,-7.429 13.165,-7.333 12.101,-6.638C10.312,-5.471 8.587,-4.207 6.854,-2.958C6.276,-2.542 6.052,-1.922 6.094,-1.211C6.105,-1.016 6.099,-0.82 6.109,-0.626C6.138,-0.073 5.914,0.278 5.438,0.619C4.591,1.23 3.782,1.916 3.06,2.67C1.423,4.379 0.348,6.457 -0.672,8.57C-1.601,10.489 -1.981,12.556 -2.399,14.614C-2.608,15.642 -2.771,16.683 -2.905,17.724C-3.163,19.718 -2.878,21.684 -2.503,23.638C-2.474,23.789 -2.259,24.033 -2.172,24.017C-1.986,23.982 -1.794,23.83 -1.666,23.676C-1.579,23.571 -1.601,23.377 -1.565,23.226C-1.098,21.228 -0.615,19.233 0.245,17.359C0.134,16.97 0.056,16.575 0,16.178" style="fill:rgb(117,97,87);fill-rule:nonzero;"/>
            </g>
            <g transform="matrix(4.16667,0,0,4.16667,657.326,2418.39)">
                <path d="M0,-5.869C-0.793,-5.177 -1.525,-4.414 -2.339,-3.743C-2.958,-3.233 -3.853,-2.425 -4.727,-2.587C-5.69,-2.765 -6.352,-3.522 -6.752,-4.373C-7.208,-5.343 -7.399,-6.426 -7.482,-7.486C-7.508,-7.824 -7.52,-8.167 -7.52,-8.51C-7.666,-8.225 -7.794,-7.944 -7.867,-7.649C-8.164,-6.438 -8.228,-5.186 -7.979,-3.94C-7.52,-1.635 -6.487,0.325 -4.486,1.653C-3,2.641 -2.396,2.445 -1.792,0.788C-1.326,-0.49 -0.961,-1.805 -0.539,-3.098C-0.37,-3.616 -0.186,-4.13 0.022,-4.633C0.079,-4.769 0.155,-4.901 0.256,-4.995C0.169,-5.289 0.083,-5.582 0,-5.869" style="fill:rgb(117,97,87);fill-rule:nonzero;"/>
            </g>
            <g transform="matrix(4.16667,0,0,4.16667,684.692,2415.68)">
                <path d="M0,4.292C-3.088,3.379 -4.596,0.685 -5.615,-2.175C-5.614,-2.159 -5.616,-2.144 -5.614,-2.129C-5.431,-0.017 -4.56,1.854 -3.428,3.602C-2.748,4.652 -1.926,5.596 -0.72,6.106C0.13,6.467 0.46,6.429 0.966,5.673C1.223,5.29 1.43,4.873 1.636,4.456C1.094,4.517 0.534,4.449 0,4.292" style="fill:rgb(117,97,87);fill-rule:nonzero;"/>
            </g>
            <g transform="matrix(4.16667,0,0,4.16667,595.214,2669.08)">
                <path d="M0,-21.265C-0.066,-20.557 -0.112,-20.059 -0.161,-19.561C-0.339,-17.745 0.589,-16.226 2.285,-15.623C4.316,-14.901 6.166,-15.17 7.857,-16.588C9.001,-17.546 9.417,-18.773 9.501,-20.181C9.539,-20.814 9.572,-20.865 10.15,-20.776C10.493,-20.722 10.829,-20.612 11.162,-20.507C12.091,-20.216 13.008,-19.885 13.944,-19.625C15.243,-19.265 16.371,-18.576 17.488,-17.866C18.174,-17.428 18.327,-17.066 18.076,-16.285C17.852,-15.584 17.565,-14.894 17.221,-14.245C16.729,-13.318 16.154,-12.435 15.624,-11.527C15.415,-11.169 15.195,-11.138 14.883,-11.414C14.534,-11.724 14.139,-11.983 13.797,-12.3C12.688,-13.327 11.343,-13.938 9.977,-14.516C9.802,-14.59 9.607,-14.641 9.418,-14.658C9.16,-14.68 8.967,-14.369 9.141,-14.177C10.128,-13.081 9.89,-11.693 10.033,-10.414C10.38,-7.317 10.882,-4.253 11.731,-1.251C11.934,-0.534 11.948,-0.493 11.155,-0.356C10.238,-0.198 9.3,0 8.38,-0.038C5.657,-0.15 2.937,-0.349 0.219,-0.56C-0.513,-0.617 -1.242,-0.805 -1.955,-0.996C-2.36,-1.105 -2.774,-1.286 -3.106,-1.536C-3.668,-1.962 -3.864,-2.545 -3.765,-3.285C-3.366,-6.256 -3.002,-9.233 -2.648,-12.21C-2.506,-13.409 -2.423,-14.614 -2.32,-15.817C-2.301,-16.048 -2.309,-16.283 -2.324,-16.515C-2.328,-16.574 -2.409,-16.673 -2.457,-16.675C-2.561,-16.677 -2.734,-16.655 -2.758,-16.595C-2.87,-16.311 -2.98,-16.015 -3.019,-15.715C-3.127,-14.865 -3.237,-14.012 -3.273,-13.158C-3.303,-12.465 -3.761,-12.241 -4.285,-12.047C-4.809,-11.855 -5.124,-12.208 -5.344,-12.564C-6.139,-13.847 -7.285,-14.914 -7.736,-16.41C-7.973,-17.197 -7.953,-17.403 -7.301,-17.786C-5.019,-19.129 -2.636,-20.264 0,-21.265" style="fill:rgb(211,226,120);fill-rule:nonzero;"/>
            </g>
            <g transform="matrix(4.16667,0,0,4.16667,581.925,2756.11)">
                <path d="M0,-21.483C2.99,-20.458 6.051,-20.498 9.065,-20.221C10.337,-20.104 11.63,-20.201 12.913,-20.231C13.746,-20.252 13.794,-20.222 14.036,-19.408C14.379,-18.253 14.777,-17.114 15.107,-15.955C15.778,-13.597 16.453,-11.24 17.062,-8.866C17.618,-6.695 18.642,-4.724 19.542,-2.698C19.605,-2.556 19.705,-2.43 19.77,-2.29C19.992,-1.81 19.938,-1.687 19.407,-1.581C16.739,-1.042 14.083,-0.428 11.347,-0.303C10.874,-0.283 10.697,-0.41 10.672,-0.844C10.623,-1.699 10.604,-2.556 10.512,-3.407C10.297,-5.378 10.018,-7.341 9.818,-9.314C9.595,-11.519 9.436,-13.73 9.24,-15.937C9.168,-16.748 9.091,-17.559 8.967,-18.363C8.941,-18.529 8.679,-18.797 8.547,-18.786C7.47,-18.687 6.397,-18.535 5.325,-18.393C5.214,-18.379 5.109,-18.318 5.082,-18.097C5.215,-18.06 5.346,-17.999 5.481,-17.989C6.303,-17.932 6.327,-17.936 6.329,-17.204C6.333,-16.272 6.29,-15.34 6.271,-14.408C6.239,-12.776 6.224,-11.143 6.176,-9.511C6.147,-8.54 6.117,-7.564 6.007,-6.599C5.791,-4.692 5.807,-2.796 6.051,-0.894C6.16,-0.044 6.112,0 5.292,-0.053C4.865,-0.082 4.43,-0.106 4.016,-0.206C1.806,-0.735 -0.452,-0.857 -2.704,-1.045C-3.428,-1.105 -3.493,-1.204 -3.32,-1.915C-2.731,-4.332 -2.037,-6.728 -1.579,-9.17C-1.098,-11.729 -0.827,-14.33 -0.496,-16.917C-0.342,-18.112 -0.266,-19.316 -0.146,-20.516C-0.117,-20.815 -0.057,-21.111 0,-21.483" style="fill:rgb(194,181,155);fill-rule:nonzero;"/>
            </g>
            <g transform="matrix(4.16667,0,0,4.16667,652.282,2754.91)">
                <path d="M0,5.538C-1.048,5.439 -2.1,5.367 -3.143,5.231C-3.718,5.156 -4.278,4.969 -4.847,4.844C-5.163,4.774 -5.328,4.596 -5.294,4.271C-5.185,3.196 -5.254,2.086 -4.734,1.089C-4.646,0.919 -4.427,0.702 -4.266,0.7C-2.14,0.677 -0.113,0.067 1.95,-0.323C2.488,-0.426 2.987,-0.483 3.539,-0.25C3.904,-0.096 4.389,-0.144 4.805,-0.205C6.631,-0.475 8.174,0.049 9.532,1.287C10.198,1.894 10.591,2.628 10.846,3.455C11.085,4.236 10.775,4.84 9.969,5.081C9.451,5.235 8.901,5.3 8.361,5.362C7.473,5.467 6.565,5.464 5.692,5.639C3.783,6.021 1.891,5.843 0,5.538" style="fill:rgb(113,94,84);fill-rule:nonzero;"/>
            </g>
            <g transform="matrix(4.16667,0,0,4.16667,577.848,2780.5)">
                <path d="M0,-6.093C2.153,-5.707 4.031,-5.389 5.897,-5.014C6.138,-4.965 6.434,-4.659 6.507,-4.413C6.802,-3.436 6.818,-2.425 6.684,-1.411C6.609,-0.852 6.175,-0.771 5.749,-0.709C4.557,-0.537 3.366,-0.312 2.167,-0.241C-0.16,-0.106 -2.492,0 -4.822,-0.009C-5.855,-0.013 -6.902,-0.269 -7.917,-0.517C-8.831,-0.74 -9.144,-1.295 -8.798,-2.203C-8.233,-3.69 -7.392,-5.001 -5.73,-5.482C-5.173,-5.643 -4.592,-5.752 -4.015,-5.804C-2.588,-5.932 -1.157,-6.012 0,-6.093" style="fill:rgb(113,94,84);fill-rule:nonzero;"/>
            </g>
            <g transform="matrix(4.16667,0,0,4.16667,669.484,2687.16)">
                <path d="M0,-17.922C0.674,-17.189 1.297,-16.5 1.932,-15.823C2.62,-15.09 2.718,-14.334 2.316,-13.374C1.381,-11.138 -0.131,-9.325 -1.708,-7.546C-1.862,-7.372 -2.039,-7.217 -2.197,-7.046C-2.732,-6.469 -2.757,-6.45 -2.327,-5.758C-1.884,-5.045 -1.86,-4.343 -2.366,-3.7C-2.613,-3.387 -3.014,-3.177 -3.376,-2.977C-3.568,-2.87 -3.828,-2.886 -4.058,-2.848C-4.331,-2.803 -4.628,-2.767 -4.643,-2.406C-4.658,-2.037 -4.354,-2.007 -4.088,-1.938C-3.75,-1.85 -3.41,-1.761 -3.083,-1.639C-2.869,-1.558 -2.62,-1.463 -2.49,-1.294C-2.313,-1.065 -2.095,-0.72 -2.156,-0.496C-2.216,-0.277 -2.61,0 -2.848,-0.009C-3.536,-0.033 -4.228,-0.152 -4.899,-0.313C-5.116,-0.364 -5.363,-0.625 -5.443,-0.846C-5.732,-1.649 -5.96,-2.474 -6.203,-3.292C-6.321,-3.692 -6.193,-3.913 -5.769,-4.077C-4.813,-4.448 -4.818,-4.501 -5.127,-5.425C-5.3,-5.941 -5.481,-6.456 -5.616,-6.982C-5.816,-7.761 -5.771,-8.187 -5.038,-8.399C-3.834,-8.747 -3.428,-9.751 -2.803,-10.581C-1.938,-11.73 -1.127,-12.919 -0.321,-14.11C0.211,-14.897 0.173,-15.189 -0.422,-15.859C-0.971,-16.478 -0.971,-16.478 -0.541,-17.181C-0.439,-17.347 -0.339,-17.514 -0.23,-17.675C-0.188,-17.738 -0.127,-17.788 0,-17.922" style="fill:rgb(237,171,122);fill-rule:nonzero;"/>
            </g>
            <g transform="matrix(4.16667,0,0,4.16667,563.631,2677.71)">
                <path d="M0,-16.555C0.539,-15.733 0.984,-15.055 1.429,-14.376C1.58,-14.146 1.549,-13.943 1.343,-13.758C1.14,-13.576 0.94,-13.39 0.75,-13.196C0.161,-12.597 0.128,-12.367 0.619,-11.69C1.373,-10.65 2.119,-9.602 2.931,-8.608C3.261,-8.203 3.377,-7.83 3.308,-7.333C3.195,-6.524 3.141,-5.706 3.034,-4.896C2.971,-4.414 2.964,-4.001 3.378,-3.62C3.566,-3.448 3.649,-3.067 3.636,-2.787C3.603,-2.088 3.482,-1.395 3.408,-0.698C3.358,-0.226 3.114,0 2.636,-0.032C1.898,-0.079 1.155,-0.093 0.424,-0.193C0.209,-0.222 -0.107,-0.475 -0.132,-0.659C-0.159,-0.861 0.051,-1.152 0.237,-1.314C0.547,-1.585 0.933,-1.589 1.341,-1.477C1.629,-1.398 1.952,-1.373 2.246,-1.415C2.368,-1.432 2.507,-1.674 2.541,-1.834C2.559,-1.919 2.388,-2.081 2.269,-2.149C2.139,-2.222 1.967,-2.216 1.818,-2.26C0.145,-2.76 0.067,-4.347 0.739,-5.446C0.799,-5.544 0.89,-5.622 0.962,-5.714C1.426,-6.295 1.435,-6.354 0.965,-6.879C0.084,-7.867 -0.821,-8.834 -1.691,-9.83C-2.048,-10.24 -2.352,-10.697 -2.661,-11.145C-2.87,-11.448 -2.95,-11.784 -2.771,-12.138C-2.017,-13.626 -1.245,-15.104 0,-16.555" style="fill:rgb(237,171,122);fill-rule:nonzero;"/>
            </g>
            <g transform="matrix(4.16667,0,0,4.16667,610.807,2577.6)">
                <path d="M0,5.908C-0.521,5.747 -1.171,5.674 -1.677,5.365C-2.86,4.64 -3.531,3.595 -3.202,2.125C-3.059,1.485 -2.911,0.846 -2.733,0.216C-2.702,0.104 -2.507,-0.035 -2.396,-0.029C-2.292,-0.022 -2.126,0.153 -2.114,0.267C-2.051,0.842 -1.901,1.451 -2.033,1.985C-2.147,2.445 -2.172,2.781 -1.927,3.176C-1.608,3.688 -1.23,4.111 -0.631,4.285C0.989,4.756 3.164,3.789 3.815,2.264C3.961,1.924 3.914,1.505 3.976,1.124C4.02,0.858 4.341,0.732 4.493,0.933C4.673,1.172 4.888,1.462 4.897,1.736C4.928,2.644 4.764,3.522 4.123,4.235C3.486,4.945 2.706,5.48 1.816,5.77C1.285,5.943 0.673,5.866 0,5.908" style="fill:white;fill-rule:nonzero;"/>
            </g>
            <g transform="matrix(4.16667,0,0,4.16667,541.029,2523.97)">
                <path d="M0,-4.978C-0.022,-4.746 -0.038,-4.513 -0.067,-4.283C-0.103,-4.004 -0.263,-3.903 -0.547,-3.915C-1.007,-3.932 -1.469,-3.925 -1.929,-3.898C-2.004,-3.894 -2.117,-3.738 -2.125,-3.645C-2.132,-3.569 -2.021,-3.465 -1.939,-3.404C-1.884,-3.362 -1.79,-3.358 -1.714,-3.361C-0.592,-3.406 -0.131,-2.791 -0.024,-1.748C0.038,-1.133 0.211,-0.531 0.317,0.08C0.441,0.785 0.019,1.192 -0.654,0.979C-0.978,0.877 -1.303,0.693 -1.556,0.465C-3.089,-0.918 -3.57,-3.016 -2.365,-5.014C-1.992,-5.632 -1.453,-6.062 -0.681,-6.122C-0.041,-6.17 0.077,-6.077 0.054,-5.44C0.048,-5.286 0.026,-5.131 0.011,-4.977C0.007,-4.977 0.004,-4.977 0,-4.978" style="fill:rgb(237,171,122);fill-rule:nonzero;"/>
            </g>
            <g transform="matrix(4.16667,0,0,4.16667,607.698,2592.4)">
                <path d="M0,-3.403C1.028,-3.209 2.063,-3.046 3.081,-2.807C3.775,-2.645 3.974,-2.098 3.64,-1.491C3.116,-0.536 1.887,0.096 0.787,-0.024C0.064,-0.102 -0.163,-0.299 -0.283,-1.011C-0.386,-1.622 -0.472,-2.236 -0.543,-2.851C-0.607,-3.399 -0.498,-3.499 0,-3.403" style="fill:rgb(237,171,122);fill-rule:nonzero;"/>
            </g>
            <g transform="matrix(4.16667,0,0,4.16667,640.724,2551.37)">
                <path d="M0,-6.034C-0.403,-5.892 -0.652,-5.775 -0.914,-5.724C-1.042,-5.7 -1.252,-5.759 -1.316,-5.853C-1.37,-5.933 -1.312,-6.189 -1.225,-6.246C-0.708,-6.583 -0.196,-6.952 0.37,-7.18C1.194,-7.51 2.063,-7.42 2.887,-7.124C3.166,-7.024 3.412,-6.798 3.629,-6.585C3.712,-6.504 3.74,-6.23 3.674,-6.165C3.561,-6.054 3.336,-5.963 3.19,-5.997C2.891,-6.066 2.624,-6.274 2.325,-6.333C1.876,-6.422 1.411,-6.431 0.973,-6.472C0.899,-5.689 0.842,-5.01 0.77,-4.332C0.584,-2.607 -0.212,-1.234 -1.627,-0.229C-3.449,1.063 -5.461,1.476 -7.624,0.93C-8.974,0.589 -9.983,-0.274 -10.628,-1.501C-10.969,-2.15 -11.201,-2.86 -11.44,-3.556C-11.488,-3.693 -11.354,-4.035 -11.282,-4.041C-11.09,-4.057 -10.813,-4.005 -10.702,-3.87C-10.482,-3.605 -10.325,-3.279 -10.189,-2.958C-8.769,0.391 -5.529,0.535 -3.163,-0.69C-1.052,-1.783 -0.083,-3.542 0,-6.034" style="fill:rgb(35,31,32);fill-rule:nonzero;"/>
            </g>
            <g transform="matrix(4.16667,0,0,4.16667,633.209,2485.38)">
                <path d="M0,-1.115C-0.662,-2.903 -1.85,-3.699 -3.5,-3.889C-4.432,-3.997 -5.102,-3.583 -5.54,-2.818C-6.751,-0.705 -5.718,2.055 -3.471,2.725C-3.023,2.859 -2.568,2.969 -2.121,3.106C-2.027,3.135 -1.875,3.269 -1.888,3.301C-1.939,3.433 -2.028,3.631 -2.131,3.65C-2.585,3.73 -3.066,3.859 -3.506,3.784C-5.552,3.44 -7.175,1.439 -7.074,-0.653C-7.036,-1.456 -6.9,-2.293 -6.607,-3.035C-6.124,-4.262 -4.923,-4.974 -3.512,-4.824C-2.065,-4.67 -0.902,-4.101 -0.01,-2.967C0.407,-2.435 0.516,-1.88 0,-1.115" style="fill:rgb(35,31,32);fill-rule:nonzero;"/>
            </g>
            <g transform="matrix(4.16667,0,0,4.16667,640.315,2465.22)">
                <path d="M0,0.825C0.032,0.093 0.359,-0.608 0.876,-1.211C1.186,-1.573 1.593,-1.846 2.106,-1.708C2.604,-1.575 2.848,-1.191 2.973,-0.702C3.25,0.382 2.946,1.302 2.173,2.065C1.965,2.271 1.655,2.435 1.367,2.489C0.38,2.671 -0.124,2.068 0,0.825" style="fill:rgb(35,31,32);fill-rule:nonzero;"/>
            </g>
            <g transform="matrix(4.16667,0,0,4.16667,616.898,2457.49)">
                <path d="M0,-0.4C-0.053,-0.291 -0.14,0.021 -0.328,0.25C-0.697,0.699 -1.115,1.109 -1.527,1.521C-1.819,1.814 -2.17,1.968 -2.586,1.803C-2.972,1.651 -3.399,0.994 -3.313,0.569C-3.094,-0.51 -2.517,-1.387 -1.542,-1.907C-0.677,-2.368 0.133,-1.656 0,-0.4" style="fill:rgb(35,31,32);fill-rule:nonzero;"/>
            </g>
            <g transform="matrix(4.16667,0,0,4.16667,653.521,2454.49)">
                <path d="M0,-4.129C0.57,-4.45 0.914,-4.28 1.195,-3.989C2.231,-2.915 2.737,-1.592 2.92,-0.137C2.938,0.003 2.753,0.168 2.663,0.321C2.493,0.208 2.23,0.131 2.171,-0.025C2.006,-0.455 1.958,-0.929 1.805,-1.365C1.445,-2.391 0.982,-3.362 0,-4.129" style="fill:rgb(35,31,32);fill-rule:nonzero;"/>
            </g>
            <g transform="matrix(4.16667,0,0,4.16667,624.135,2438.36)">
                <path d="M0,-2.78C0.134,-2.664 0.359,-2.559 0.377,-2.426C0.394,-2.311 0.203,-2.108 0.058,-2.041C-0.219,-1.91 -0.539,-1.873 -0.822,-1.753C-1.56,-1.44 -2.383,-1.251 -2.772,-0.415C-2.873,-0.2 -3.096,0 -3.319,-0.221C-3.444,-0.345 -3.433,-0.618 -3.459,-0.827C-3.467,-0.89 -3.405,-0.971 -3.357,-1.031C-2.509,-2.097 -1.325,-2.513 0,-2.78" style="fill:rgb(35,31,32);fill-rule:nonzero;"/>
            </g>
        </g>
    </g>
</svg>
