<?xml version="1.0" encoding="UTF-8" standalone="no"?>
<!DOCTYPE svg PUBLIC "-//W3C//DTD SVG 1.1//EN" "http://www.w3.org/Graphics/SVG/1.1/DTD/svg11.dtd">
<svg width="100%" height="100%" viewBox="0 0 477 449" version="1.1" xmlns="http://www.w3.org/2000/svg" xmlns:xlink="http://www.w3.org/1999/xlink" xml:space="preserve" xmlns:serif="http://www.serif.com/" style="fill-rule:evenodd;clip-rule:evenodd;stroke-linejoin:round;stroke-miterlimit:2;">
    <g transform="matrix(1,0,0,1,-933,-1594)">
        <g transform="matrix(4.16667,0,0,4.16667,-32.722,-33.759)">
            <g transform="matrix(1,0,0,1,244.931,407.299)">
                <path d="M0,9.505C0.027,9.418 0.055,9.331 0.083,9.243C-0.357,8.853 -0.787,8.449 -1.243,8.078C-1.386,7.962 -1.684,7.819 -1.767,7.881C-2.399,8.353 -3.395,8.259 -3.807,9.28C-2.498,9.216 -1.261,9.528 0,9.505M6.444,-5.698C6.444,-6.156 6.475,-6.677 6.439,-7.194C6.209,-10.553 4.464,-12.983 1.594,-14.548C-1.219,-16.08 -4.13,-15.97 -7.054,-14.646C-9.836,-13.388 -11.502,-11.303 -11.937,-8.312C-12.089,-7.266 -11.982,-6.163 -11.859,-5.101C-11.256,0.067 -8.462,3.639 -3.79,5.82C-3.115,6.135 -2.413,6.31 -1.695,6.134C-0.048,5.731 1.518,5.177 2.567,3.692C3.142,2.877 3.848,2.154 4.41,1.332C4.901,0.613 5.349,-0.155 5.683,-0.957C6.302,-2.445 6.622,-4.008 6.444,-5.698M-2.765,7.076C-7.925,5.301 -11.238,1.97 -12.495,-3.239C-13.031,-5.465 -13.273,-7.722 -12.515,-9.971C-11.842,-11.967 -10.747,-13.587 -8.87,-14.685C-6.442,-16.107 -3.902,-16.848 -1.087,-16.38C2.214,-15.832 4.645,-13.977 6.252,-11.131C6.843,-10.086 7.152,-8.807 7.292,-7.599C7.593,-4.998 7.434,-2.402 6.238,0.003C5.816,0.854 5.235,1.627 4.716,2.429C4.587,2.629 4.404,2.794 4.27,2.991C2.949,4.938 1.296,6.435 -1.25,6.919C-0.609,7.496 -0.088,7.96 0.427,8.431C0.632,8.619 0.856,8.8 1.015,9.024C1.302,9.427 1.188,9.822 0.718,9.967C0.304,10.095 -0.139,10.162 -0.572,10.184C-1.034,10.206 -1.327,10.295 -1.319,10.853C-1.308,11.68 -1.802,12.274 -2.376,12.788C-2.882,13.24 -3.442,13.632 -3.95,14.081C-4.368,14.45 -4.797,14.825 -5.129,15.267C-5.862,16.24 -5.75,17.217 -4.859,18.039C-4.508,18.363 -4.124,18.653 -3.747,18.949C-2.973,19.557 -2.624,20.379 -2.526,21.33C-2.373,22.822 -3.328,25.162 -4.641,26.353C-4.658,26.063 -4.73,25.84 -4.669,25.664C-4.499,25.177 -4.276,24.707 -4.069,24.233C-3.7,23.388 -3.392,22.539 -3.396,21.588C-3.4,20.765 -3.679,20.112 -4.302,19.594C-4.64,19.313 -4.984,19.04 -5.323,18.76C-6.839,17.507 -6.803,15.888 -5.569,14.457C-5.079,13.888 -4.447,13.442 -3.873,12.946C-3.389,12.529 -2.873,12.149 -2.418,11.703C-2.202,11.492 -2.039,11.185 -1.955,10.893C-1.813,10.401 -2.003,10.138 -2.517,10.05C-3.146,9.942 -3.78,9.869 -4.412,9.78C-4.57,9.758 -4.751,9.769 -4.879,9.693C-5.033,9.602 -5.191,9.451 -5.248,9.291C-5.279,9.204 -5.132,9.007 -5.019,8.923C-4.443,8.496 -3.843,8.102 -3.271,7.671C-3.09,7.536 -2.969,7.322 -2.765,7.076" style="fill:rgb(35,31,32);fill-rule:nonzero;"/>
            </g>
            <g transform="matrix(1,0,0,1,251.375,403.227)">
                <path d="M0,-1.626C0.178,0.064 -0.142,1.627 -0.761,3.115C-1.095,3.917 -1.542,4.686 -2.034,5.404C-2.596,6.227 -3.302,6.949 -3.877,7.764C-4.926,9.249 -6.492,9.803 -8.139,10.206C-8.857,10.382 -9.559,10.207 -10.233,9.893C-14.906,7.711 -17.7,4.139 -18.303,-1.029C-18.426,-2.091 -18.533,-3.194 -18.381,-4.24C-17.946,-7.23 -16.28,-9.315 -13.498,-10.574C-10.574,-11.897 -7.663,-12.008 -4.85,-10.476C-1.98,-8.911 -0.234,-6.48 -0.005,-3.122C0.031,-2.605 0,-2.084 0,-1.626" style="fill:rgb(255,222,67);fill-rule:nonzero;"/>
            </g>
            <g opacity="0.2">
                <g transform="matrix(1,0,0,1,251.375,403.537)">
                    <path d="M0,-1.936C0,-2.394 0.03,-2.915 -0.005,-3.432C-0.235,-6.79 -1.98,-9.221 -4.85,-10.786C-6.294,-11.572 -7.764,-11.919 -9.248,-11.899C-8.647,-11.455 -8.101,-10.925 -7.619,-10.337C-6.281,-8.703 -5.382,-6.729 -4.763,-4.722C-4.149,-2.731 -3.794,-0.627 -3.818,1.46C-3.829,2.333 -3.91,3.21 -4.116,4.06C-4.408,5.257 -5.048,6.385 -5.824,7.334C-6.73,8.442 -7.894,9.347 -9.192,9.924C-8.846,9.983 -8.495,9.983 -8.14,9.896C-6.492,9.493 -4.926,8.939 -3.877,7.454C-3.303,6.639 -2.597,5.917 -2.034,5.094C-1.543,4.376 -1.095,3.607 -0.761,2.805C-0.142,1.317 0.178,-0.246 0,-1.936" style="fill:rgb(117,76,40);fill-rule:nonzero;"/>
                </g>
            </g>
            <g transform="matrix(1,0,0,1,234.66,396.657)">
                <path d="M0,-0.551C-0.348,0.241 -0.323,1.158 -0.084,1.989C0.033,2.396 0.219,2.814 0.575,3.047C0.843,3.222 1.174,3.269 1.494,3.299C2.292,3.371 3.114,3.358 3.873,3.098C5.226,2.636 6.257,1.349 6.416,-0.071C6.845,-3.922 1.182,-3.244 0,-0.551" style="fill:white;fill-rule:nonzero;"/>
            </g>
            <g transform="matrix(1,0,0,1,236.211,405.462)">
                <path d="M0,-3.228C-0.449,-3.404 -0.978,-3.278 -1.364,-2.991C-1.751,-2.704 -2.012,-2.275 -2.192,-1.828C-2.307,-1.541 -2.394,-1.227 -2.321,-0.927C-2.189,-0.379 -1.589,-0.088 -1.039,0.033C-0.446,0.163 0.198,0.176 0.742,-0.091C1.286,-0.359 1.693,-0.962 1.59,-1.56C1.479,-2.198 0.874,-2.61 0.322,-2.949" style="fill:white;fill-rule:nonzero;"/>
            </g>
            <g transform="matrix(1,0,0,1,244.931,415.141)">
                <path d="M0,1.663C-1.261,1.686 -2.498,1.374 -3.807,1.438C-3.395,0.417 -2.399,0.511 -1.767,0.039C-1.684,-0.023 -1.386,0.12 -1.243,0.236C-0.787,0.607 -0.357,1.011 0.083,1.401C0.055,1.489 0.027,1.576 0,1.663" style="fill:rgb(255,222,67);fill-rule:nonzero;"/>
            </g>
            <g transform="matrix(1,0,0,1,294.426,408.157)">
                <path d="M0,9.504C0.027,9.417 0.056,9.33 0.083,9.243C-0.356,8.853 -0.786,8.449 -1.242,8.078C-1.385,7.962 -1.684,7.818 -1.766,7.88C-2.398,8.352 -3.395,8.258 -3.807,9.279C-2.498,9.215 -1.261,9.527 0,9.504M6.444,-5.698C6.444,-6.156 6.475,-6.678 6.439,-7.194C6.21,-10.553 4.464,-12.984 1.595,-14.548C-1.218,-16.081 -4.129,-15.97 -7.053,-14.647C-9.836,-13.388 -11.502,-11.304 -11.937,-8.313C-12.089,-7.267 -11.982,-6.164 -11.858,-5.102C-11.256,0.066 -8.462,3.639 -3.79,5.819C-3.115,6.135 -2.413,6.309 -1.695,6.133C-0.048,5.731 1.519,5.177 2.567,3.691C3.142,2.876 3.849,2.153 4.41,1.331C4.901,0.612 5.35,-0.156 5.684,-0.958C6.303,-2.446 6.622,-4.008 6.444,-5.698M-2.765,7.076C-7.924,5.301 -11.237,1.969 -12.494,-3.24C-13.031,-5.465 -13.272,-7.722 -12.514,-9.972C-11.842,-11.967 -10.746,-13.587 -8.87,-14.685C-6.441,-16.107 -3.901,-16.848 -1.087,-16.38C2.214,-15.832 4.646,-13.977 6.253,-11.131C6.843,-10.087 7.152,-8.808 7.292,-7.6C7.594,-4.999 7.435,-2.403 6.238,0.003C5.816,0.854 5.235,1.627 4.717,2.429C4.587,2.629 4.404,2.793 4.27,2.991C2.949,4.938 1.296,6.434 -1.25,6.919C-0.609,7.496 -0.088,7.96 0.427,8.431C0.633,8.618 0.856,8.799 1.016,9.023C1.302,9.426 1.188,9.822 0.719,9.967C0.305,10.094 -0.139,10.161 -0.572,10.183C-1.034,10.206 -1.326,10.294 -1.318,10.852C-1.308,11.679 -1.802,12.273 -2.376,12.787C-2.882,13.24 -3.441,13.632 -3.95,14.081C-4.368,14.449 -4.797,14.824 -5.129,15.266C-5.861,16.239 -5.75,17.217 -4.859,18.038C-4.507,18.362 -4.124,18.653 -3.747,18.948C-2.973,19.557 -2.624,20.379 -2.526,21.33C-2.373,22.822 -3.328,25.162 -4.641,26.352C-4.657,26.062 -4.73,25.84 -4.669,25.664C-4.499,25.176 -4.276,24.706 -4.069,24.232C-3.7,23.387 -3.392,22.539 -3.396,21.587C-3.4,20.764 -3.679,20.111 -4.301,19.593C-4.639,19.312 -4.984,19.039 -5.323,18.759C-6.838,17.507 -6.803,15.888 -5.569,14.456C-5.079,13.888 -4.446,13.441 -3.873,12.946C-3.389,12.529 -2.872,12.148 -2.417,11.702C-2.202,11.491 -2.039,11.185 -1.954,10.892C-1.813,10.401 -2.003,10.138 -2.517,10.049C-3.145,9.941 -3.78,9.869 -4.412,9.779C-4.57,9.757 -4.751,9.769 -4.878,9.692C-5.032,9.601 -5.19,9.45 -5.248,9.29C-5.279,9.203 -5.132,9.006 -5.019,8.922C-4.443,8.496 -3.843,8.102 -3.27,7.671C-3.09,7.535 -2.969,7.321 -2.765,7.076" style="fill:rgb(35,31,32);fill-rule:nonzero;"/>
            </g>
            <g transform="matrix(1,0,0,1,300.87,404.083)">
                <path d="M0,-1.624C0.178,0.066 -0.142,1.628 -0.761,3.116C-1.095,3.918 -1.543,4.687 -2.034,5.405C-2.596,6.228 -3.303,6.95 -3.877,7.765C-4.926,9.251 -6.492,9.805 -8.14,10.207C-8.857,10.383 -9.559,10.209 -10.234,9.894C-14.906,7.713 -17.701,4.14 -18.303,-1.028C-18.427,-2.09 -18.533,-3.193 -18.381,-4.239C-17.947,-7.229 -16.281,-9.313 -13.498,-10.573C-10.574,-11.895 -7.662,-12.007 -4.85,-10.474C-1.98,-8.91 -0.234,-6.478 -0.005,-3.12C0.03,-2.603 0,-2.082 0,-1.624" style="fill:rgb(255,222,67);fill-rule:nonzero;"/>
            </g>
            <g opacity="0.2">
                <g transform="matrix(1,0,0,1,300.87,404.394)">
                    <path d="M0,-1.935C0,-2.393 0.03,-2.914 -0.005,-3.431C-0.234,-6.789 -1.98,-9.221 -4.85,-10.785C-6.294,-11.572 -7.764,-11.919 -9.248,-11.898C-8.647,-11.455 -8.101,-10.925 -7.619,-10.337C-6.281,-8.703 -5.382,-6.729 -4.763,-4.721C-4.148,-2.73 -3.794,-0.626 -3.818,1.461C-3.828,2.334 -3.909,3.211 -4.116,4.06C-4.407,5.257 -5.048,6.385 -5.824,7.335C-6.729,8.443 -7.894,9.348 -9.192,9.924C-8.846,9.984 -8.495,9.983 -8.14,9.896C-6.492,9.494 -4.926,8.94 -3.877,7.454C-3.303,6.639 -2.596,5.917 -2.034,5.094C-1.543,4.376 -1.095,3.607 -0.761,2.805C-0.142,1.317 0.178,-0.245 0,-1.935" style="fill:rgb(117,76,40);fill-rule:nonzero;"/>
                </g>
            </g>
            <g transform="matrix(1,0,0,1,284.155,397.514)">
                <path d="M0,-0.55C-0.347,0.241 -0.323,1.159 -0.084,1.989C0.033,2.397 0.219,2.814 0.575,3.047C0.844,3.222 1.174,3.269 1.494,3.299C2.292,3.372 3.115,3.359 3.874,3.099C5.226,2.637 6.257,1.35 6.416,-0.071C6.845,-3.922 1.182,-3.243 0,-0.55" style="fill:white;fill-rule:nonzero;"/>
            </g>
            <g transform="matrix(1,0,0,1,285.706,406.321)">
                <path d="M0,-3.23C-0.449,-3.405 -0.978,-3.279 -1.364,-2.992C-1.751,-2.705 -2.012,-2.276 -2.192,-1.829C-2.308,-1.543 -2.394,-1.228 -2.322,-0.929C-2.189,-0.38 -1.589,-0.089 -1.039,0.031C-0.446,0.161 0.198,0.175 0.742,-0.092C1.286,-0.36 1.693,-0.963 1.589,-1.561C1.479,-2.199 0.874,-2.612 0.322,-2.95" style="fill:white;fill-rule:nonzero;"/>
            </g>
            <g transform="matrix(1,0,0,1,294.426,415.998)">
                <path d="M0,1.663C-1.261,1.686 -2.498,1.374 -3.807,1.438C-3.395,0.417 -2.398,0.511 -1.766,0.039C-1.684,-0.023 -1.385,0.121 -1.242,0.237C-0.786,0.608 -0.356,1.012 0.083,1.402C0.056,1.489 0.027,1.576 0,1.663" style="fill:rgb(255,222,67);fill-rule:nonzero;"/>
            </g>
            <g transform="matrix(1,0,0,1,247.017,468.267)">
                <path d="M0,9.504C0.027,9.417 0.055,9.33 0.083,9.243C-0.357,8.853 -0.787,8.449 -1.243,8.078C-1.385,7.962 -1.684,7.818 -1.766,7.88C-2.399,8.352 -3.395,8.258 -3.807,9.279C-2.498,9.215 -1.261,9.527 0,9.504M6.444,-5.698C6.444,-6.156 6.475,-6.678 6.439,-7.194C6.209,-10.553 4.464,-12.984 1.594,-14.548C-1.218,-16.081 -4.129,-15.97 -7.053,-14.647C-9.836,-13.388 -11.502,-11.304 -11.937,-8.313C-12.089,-7.267 -11.982,-6.164 -11.859,-5.102C-11.256,0.066 -8.462,3.639 -3.79,5.819C-3.115,6.135 -2.413,6.309 -1.695,6.133C-0.048,5.731 1.518,5.177 2.567,3.691C3.142,2.876 3.848,2.153 4.41,1.331C4.901,0.612 5.349,-0.156 5.683,-0.958C6.302,-2.446 6.622,-4.008 6.444,-5.698M-2.765,7.076C-7.924,5.301 -11.238,1.969 -12.495,-3.24C-13.031,-5.465 -13.273,-7.722 -12.515,-9.972C-11.842,-11.967 -10.747,-13.587 -8.87,-14.685C-6.442,-16.107 -3.902,-16.848 -1.087,-16.38C2.214,-15.832 4.645,-13.977 6.252,-11.131C6.843,-10.087 7.152,-8.808 7.292,-7.6C7.593,-4.999 7.434,-2.403 6.238,0.003C5.816,0.854 5.235,1.627 4.716,2.429C4.587,2.629 4.404,2.793 4.27,2.991C2.949,4.938 1.296,6.434 -1.25,6.919C-0.609,7.496 -0.088,7.96 0.427,8.431C0.632,8.618 0.856,8.799 1.015,9.024C1.302,9.426 1.188,9.822 0.718,9.967C0.304,10.094 -0.139,10.161 -0.572,10.183C-1.034,10.206 -1.326,10.294 -1.319,10.852C-1.308,11.679 -1.802,12.273 -2.376,12.787C-2.882,13.24 -3.442,13.632 -3.95,14.081C-4.368,14.449 -4.797,14.824 -5.129,15.266C-5.862,16.239 -5.75,17.217 -4.859,18.038C-4.508,18.362 -4.124,18.653 -3.747,18.948C-2.973,19.557 -2.624,20.379 -2.526,21.33C-2.373,22.822 -3.328,25.162 -4.641,26.352C-4.657,26.062 -4.73,25.84 -4.669,25.664C-4.499,25.176 -4.276,24.706 -4.069,24.232C-3.7,23.387 -3.392,22.539 -3.396,21.587C-3.4,20.764 -3.679,20.111 -4.302,19.593C-4.639,19.312 -4.984,19.039 -5.323,18.759C-6.839,17.507 -6.803,15.888 -5.569,14.456C-5.079,13.888 -4.447,13.441 -3.873,12.946C-3.389,12.529 -2.873,12.148 -2.417,11.702C-2.202,11.491 -2.039,11.185 -1.955,10.892C-1.813,10.401 -2.003,10.138 -2.517,10.049C-3.146,9.941 -3.78,9.869 -4.412,9.779C-4.57,9.757 -4.751,9.769 -4.879,9.692C-5.033,9.601 -5.191,9.45 -5.248,9.29C-5.279,9.203 -5.132,9.006 -5.019,8.922C-4.443,8.496 -3.843,8.102 -3.271,7.671C-3.09,7.535 -2.969,7.321 -2.765,7.076" style="fill:rgb(35,31,32);fill-rule:nonzero;"/>
            </g>
            <g transform="matrix(1,0,0,1,253.461,464.193)">
                <path d="M0,-1.624C0.178,0.066 -0.142,1.628 -0.761,3.116C-1.095,3.918 -1.543,4.687 -2.034,5.405C-2.596,6.228 -3.303,6.95 -3.877,7.765C-4.926,9.251 -6.492,9.805 -8.14,10.207C-8.857,10.383 -9.56,10.209 -10.234,9.894C-14.906,7.713 -17.701,4.14 -18.303,-1.028C-18.427,-2.09 -18.533,-3.193 -18.381,-4.239C-17.947,-7.229 -16.281,-9.313 -13.498,-10.573C-10.574,-11.895 -7.663,-12.007 -4.85,-10.474C-1.98,-8.91 -0.235,-6.478 -0.005,-3.12C0.03,-2.603 0,-2.082 0,-1.624" style="fill:rgb(159,207,110);fill-rule:nonzero;"/>
            </g>
            <g opacity="0.2">
                <g transform="matrix(1,0,0,1,253.461,464.504)">
                    <path d="M0,-1.935C0,-2.393 0.03,-2.914 -0.005,-3.431C-0.235,-6.789 -1.98,-9.221 -4.85,-10.785C-6.294,-11.572 -7.764,-11.919 -9.248,-11.898C-8.647,-11.455 -8.101,-10.925 -7.619,-10.337C-6.281,-8.703 -5.382,-6.729 -4.763,-4.721C-4.149,-2.73 -3.794,-0.626 -3.818,1.461C-3.828,2.334 -3.91,3.211 -4.116,4.06C-4.408,5.257 -5.048,6.385 -5.824,7.335C-6.73,8.443 -7.894,9.348 -9.192,9.924C-8.846,9.984 -8.495,9.983 -8.14,9.896C-6.492,9.494 -4.926,8.94 -3.877,7.454C-3.303,6.639 -2.596,5.917 -2.034,5.094C-1.543,4.376 -1.095,3.607 -0.761,2.805C-0.142,1.317 0.178,-0.245 0,-1.935" style="fill:rgb(117,76,40);fill-rule:nonzero;"/>
                </g>
            </g>
            <g transform="matrix(1,0,0,1,236.746,457.624)">
                <path d="M0,-0.55C-0.348,0.241 -0.323,1.159 -0.084,1.989C0.033,2.397 0.219,2.814 0.575,3.047C0.843,3.222 1.174,3.269 1.494,3.299C2.292,3.372 3.115,3.359 3.873,3.099C5.226,2.637 6.257,1.35 6.416,-0.071C6.845,-3.922 1.182,-3.243 0,-0.55" style="fill:white;fill-rule:nonzero;"/>
            </g>
            <g transform="matrix(1,0,0,1,238.297,466.43)">
                <path d="M0,-3.23C-0.449,-3.405 -0.977,-3.279 -1.364,-2.992C-1.751,-2.705 -2.012,-2.276 -2.192,-1.829C-2.307,-1.543 -2.394,-1.228 -2.321,-0.928C-2.189,-0.38 -1.589,-0.089 -1.039,0.031C-0.446,0.161 0.198,0.175 0.742,-0.092C1.286,-0.36 1.693,-0.963 1.59,-1.561C1.479,-2.199 0.874,-2.612 0.322,-2.95" style="fill:white;fill-rule:nonzero;"/>
            </g>
            <g transform="matrix(1,0,0,1,247.017,476.108)">
                <path d="M0,1.663C-1.261,1.686 -2.498,1.374 -3.807,1.438C-3.395,0.417 -2.399,0.511 -1.766,0.039C-1.684,-0.023 -1.385,0.121 -1.243,0.237C-0.787,0.608 -0.357,1.012 0.083,1.402C0.055,1.489 0.027,1.576 0,1.663" style="fill:rgb(159,207,110);fill-rule:nonzero;"/>
            </g>
            <g transform="matrix(1,0,0,1,293.745,465.354)">
                <path d="M0,9.506C0.028,9.419 0.056,9.331 0.083,9.244C-0.356,8.854 -0.786,8.45 -1.242,8.079C-1.385,7.963 -1.683,7.82 -1.766,7.882C-2.398,8.354 -3.394,8.26 -3.807,9.281C-2.498,9.217 -1.261,9.529 0,9.506M6.444,-5.697C6.444,-6.155 6.475,-6.677 6.439,-7.193C6.21,-10.552 4.464,-12.982 1.595,-14.547C-1.218,-16.079 -4.129,-15.969 -7.053,-14.645C-9.836,-13.387 -11.502,-11.302 -11.937,-8.311C-12.089,-7.266 -11.982,-6.162 -11.858,-5.1C-11.256,0.068 -8.461,3.64 -3.79,5.821C-3.115,6.136 -2.413,6.311 -1.695,6.135C-0.048,5.732 1.519,5.178 2.567,3.693C3.142,2.878 3.849,2.155 4.41,1.333C4.901,0.614 5.35,-0.154 5.684,-0.956C6.303,-2.444 6.622,-4.007 6.444,-5.697M-2.764,7.077C-7.924,5.302 -11.237,1.971 -12.494,-3.238C-13.031,-5.464 -13.272,-7.721 -12.514,-9.97C-11.842,-11.966 -10.746,-13.586 -8.869,-14.684C-6.441,-16.106 -3.901,-16.847 -1.087,-16.379C2.214,-15.831 4.646,-13.976 6.253,-11.13C6.843,-10.085 7.153,-8.806 7.293,-7.599C7.594,-4.997 7.435,-2.401 6.239,0.004C5.816,0.855 5.235,1.628 4.717,2.43C4.588,2.63 4.404,2.795 4.27,2.992C2.949,4.939 1.296,6.436 -1.25,6.92C-0.608,7.497 -0.088,7.961 0.427,8.432C0.633,8.62 0.856,8.801 1.016,9.025C1.302,9.428 1.188,9.823 0.719,9.968C0.305,10.096 -0.139,10.163 -0.572,10.185C-1.034,10.207 -1.326,10.296 -1.318,10.854C-1.308,11.68 -1.801,12.275 -2.376,12.789C-2.881,13.241 -3.441,13.633 -3.95,14.082C-4.367,14.451 -4.797,14.826 -5.129,15.268C-5.861,16.241 -5.75,17.218 -4.859,18.04C-4.507,18.364 -4.124,18.654 -3.747,18.95C-2.973,19.558 -2.624,20.38 -2.526,21.331C-2.372,22.823 -3.327,25.163 -4.64,26.353C-4.657,26.064 -4.73,25.841 -4.668,25.665C-4.499,25.178 -4.276,24.708 -4.068,24.234C-3.7,23.389 -3.392,22.54 -3.396,21.589C-3.4,20.766 -3.679,20.113 -4.301,19.595C-4.639,19.314 -4.984,19.041 -5.322,18.761C-6.838,17.508 -6.803,15.889 -5.569,14.458C-5.079,13.889 -4.446,13.443 -3.873,12.947C-3.389,12.53 -2.872,12.15 -2.417,11.704C-2.202,11.493 -2.039,11.186 -1.955,10.893C-1.813,10.402 -2.003,10.139 -2.517,10.051C-3.145,9.943 -3.78,9.87 -4.412,9.781C-4.57,9.759 -4.751,9.77 -4.878,9.694C-5.032,9.603 -5.19,9.452 -5.248,9.292C-5.279,9.205 -5.132,9.008 -5.019,8.924C-4.442,8.497 -3.843,8.103 -3.27,7.672C-3.09,7.537 -2.969,7.323 -2.764,7.077" style="fill:rgb(35,31,32);fill-rule:nonzero;"/>
            </g>
            <g transform="matrix(1,0,0,1,300.189,461.283)">
                <path d="M0,-1.626C0.178,0.064 -0.142,1.627 -0.761,3.115C-1.095,3.917 -1.543,4.686 -2.034,5.404C-2.596,6.227 -3.303,6.949 -3.877,7.764C-4.926,9.249 -6.492,9.803 -8.139,10.206C-8.857,10.382 -9.559,10.207 -10.234,9.893C-14.906,7.711 -17.7,4.139 -18.303,-1.029C-18.426,-2.091 -18.533,-3.195 -18.381,-4.24C-17.947,-7.23 -16.28,-9.315 -13.498,-10.574C-10.574,-11.897 -7.662,-12.008 -4.85,-10.476C-1.98,-8.911 -0.234,-6.48 -0.005,-3.122C0.03,-2.605 0,-2.084 0,-1.626" style="fill:rgb(77,193,180);fill-rule:nonzero;"/>
            </g>
            <g opacity="0.2">
                <g transform="matrix(1,0,0,1,300.189,461.593)">
                    <path d="M0,-1.936C0,-2.394 0.03,-2.915 -0.005,-3.432C-0.234,-6.79 -1.98,-9.221 -4.85,-10.786C-6.294,-11.572 -7.764,-11.919 -9.248,-11.899C-8.647,-11.455 -8.1,-10.925 -7.619,-10.337C-6.281,-8.703 -5.382,-6.73 -4.763,-4.722C-4.148,-2.731 -3.794,-0.627 -3.818,1.46C-3.828,2.333 -3.909,3.21 -4.116,4.06C-4.407,5.257 -5.048,6.385 -5.824,7.334C-6.729,8.442 -7.894,9.347 -9.192,9.924C-8.846,9.983 -8.495,9.983 -8.139,9.896C-6.492,9.493 -4.926,8.939 -3.877,7.454C-3.303,6.639 -2.596,5.917 -2.034,5.094C-1.543,4.376 -1.095,3.607 -0.761,2.804C-0.142,1.317 0.178,-0.246 0,-1.936" style="fill:rgb(117,76,40);fill-rule:nonzero;"/>
                </g>
            </g>
            <g transform="matrix(1,0,0,1,283.474,454.712)">
                <path d="M0,-0.551C-0.347,0.241 -0.323,1.158 -0.084,1.989C0.033,2.396 0.22,2.814 0.575,3.047C0.844,3.222 1.174,3.269 1.494,3.299C2.293,3.371 3.115,3.358 3.874,3.098C5.226,2.636 6.258,1.349 6.416,-0.071C6.846,-3.922 1.182,-3.244 0,-0.551" style="fill:white;fill-rule:nonzero;"/>
            </g>
            <g transform="matrix(1,0,0,1,285.026,463.517)">
                <path d="M0,-3.228C-0.449,-3.404 -0.978,-3.278 -1.364,-2.991C-1.751,-2.704 -2.012,-2.275 -2.192,-1.828C-2.308,-1.541 -2.394,-1.227 -2.321,-0.927C-2.189,-0.379 -1.589,-0.088 -1.039,0.033C-0.446,0.163 0.198,0.176 0.742,-0.091C1.286,-0.359 1.693,-0.962 1.59,-1.56C1.479,-2.198 0.874,-2.611 0.322,-2.949" style="fill:white;fill-rule:nonzero;"/>
            </g>
            <g transform="matrix(1,0,0,1,293.745,473.197)">
                <path d="M0,1.663C-1.261,1.686 -2.498,1.374 -3.807,1.438C-3.394,0.417 -2.398,0.511 -1.766,0.039C-1.683,-0.023 -1.385,0.12 -1.242,0.236C-0.786,0.607 -0.356,1.011 0.083,1.401C0.056,1.488 0.028,1.576 0,1.663" style="fill:rgb(77,193,180);fill-rule:nonzero;"/>
            </g>
            <g transform="matrix(1,0,0,1,338.674,472.036)">
                <path d="M0,9.504L0.082,9.243C-0.357,8.853 -0.787,8.449 -1.243,8.078C-1.386,7.962 -1.684,7.818 -1.767,7.881C-2.399,8.352 -3.396,8.259 -3.808,9.28C-2.499,9.216 -1.262,9.527 0,9.504M6.443,-5.698C6.443,-6.156 6.475,-6.678 6.438,-7.194C6.209,-10.553 4.464,-12.984 1.594,-14.548C-1.219,-16.081 -4.13,-15.97 -7.054,-14.647C-9.837,-13.388 -11.503,-11.303 -11.938,-8.313C-12.09,-7.267 -11.982,-6.164 -11.859,-5.102C-11.257,0.066 -8.462,3.639 -3.79,5.819C-3.115,6.135 -2.413,6.309 -1.695,6.133C-0.049,5.731 1.518,5.177 2.566,3.691C3.142,2.876 3.848,2.153 4.409,1.331C4.901,0.612 5.349,-0.156 5.683,-0.958C6.302,-2.446 6.622,-4.008 6.443,-5.698M-2.765,7.076C-7.925,5.301 -11.238,1.969 -12.495,-3.24C-13.031,-5.465 -13.273,-7.722 -12.515,-9.972C-11.843,-11.967 -10.747,-13.587 -8.87,-14.685C-6.442,-16.107 -3.902,-16.848 -1.087,-16.38C2.214,-15.832 4.645,-13.977 6.252,-11.131C6.842,-10.086 7.152,-8.808 7.292,-7.6C7.593,-4.999 7.434,-2.403 6.238,0.003C5.815,0.854 5.234,1.627 4.716,2.429C4.587,2.629 4.403,2.793 4.27,2.991C2.949,4.938 1.295,6.435 -1.251,6.919C-0.609,7.496 -0.089,7.96 0.427,8.431C0.632,8.619 0.855,8.799 1.015,9.024C1.302,9.426 1.187,9.822 0.718,9.967C0.304,10.094 -0.139,10.161 -0.573,10.183C-1.034,10.206 -1.327,10.294 -1.319,10.852C-1.308,11.679 -1.802,12.273 -2.377,12.788C-2.882,13.24 -3.442,13.632 -3.951,14.081C-4.368,14.449 -4.798,14.825 -5.13,15.266C-5.862,16.239 -5.75,17.217 -4.859,18.038C-4.508,18.362 -4.124,18.653 -3.747,18.949C-2.974,19.557 -2.624,20.379 -2.526,21.33C-2.373,22.822 -3.328,25.162 -4.641,26.352C-4.658,26.062 -4.73,25.84 -4.67,25.664C-4.499,25.176 -4.276,24.706 -4.069,24.232C-3.7,23.387 -3.393,22.539 -3.396,21.587C-3.4,20.764 -3.68,20.111 -4.302,19.593C-4.64,19.313 -4.984,19.039 -5.323,18.76C-6.839,17.507 -6.804,15.888 -5.569,14.456C-5.079,13.888 -4.447,13.441 -3.873,12.946C-3.39,12.529 -2.873,12.148 -2.418,11.702C-2.202,11.491 -2.04,11.185 -1.955,10.892C-1.813,10.401 -2.004,10.138 -2.518,10.049C-3.146,9.941 -3.78,9.869 -4.412,9.779C-4.57,9.757 -4.752,9.769 -4.879,9.692C-5.033,9.601 -5.191,9.451 -5.249,9.291C-5.279,9.203 -5.133,9.006 -5.02,8.922C-4.443,8.496 -3.844,8.102 -3.271,7.671C-3.091,7.535 -2.97,7.322 -2.765,7.076" style="fill:rgb(35,31,32);fill-rule:nonzero;"/>
            </g>
            <g transform="matrix(1,0,0,1,345.117,467.962)">
                <path d="M0,-1.624C0.179,0.066 -0.142,1.628 -0.761,3.116C-1.095,3.918 -1.542,4.687 -2.034,5.405C-2.596,6.228 -3.302,6.95 -3.877,7.765C-4.926,9.251 -6.492,9.805 -8.139,10.207C-8.856,10.383 -9.559,10.209 -10.233,9.894C-14.905,7.713 -17.7,4.14 -18.303,-1.028C-18.426,-2.09 -18.533,-3.193 -18.381,-4.239C-17.946,-7.228 -16.28,-9.313 -13.497,-10.573C-10.573,-11.895 -7.662,-12.007 -4.85,-10.474C-1.979,-8.91 -0.234,-6.478 -0.005,-3.12C0.031,-2.603 0,-2.082 0,-1.624" style="fill:rgb(0,183,212);fill-rule:nonzero;"/>
            </g>
            <g opacity="0.2">
                <g transform="matrix(1,0,0,1,345.117,468.274)">
                    <path d="M0,-1.936C0,-2.394 0.031,-2.915 -0.005,-3.432C-0.234,-6.79 -1.979,-9.222 -4.85,-10.786C-6.293,-11.573 -7.764,-11.919 -9.247,-11.899C-8.646,-11.456 -8.1,-10.926 -7.619,-10.338C-6.28,-8.704 -5.382,-6.73 -4.763,-4.722C-4.148,-2.731 -3.794,-0.627 -3.817,1.46C-3.828,2.333 -3.909,3.21 -4.115,4.059C-4.407,5.257 -5.048,6.384 -5.823,7.334C-6.729,8.442 -7.894,9.347 -9.192,9.923C-8.846,9.983 -8.494,9.983 -8.139,9.896C-6.492,9.493 -4.926,8.939 -3.877,7.453C-3.302,6.638 -2.596,5.916 -2.034,5.093C-1.542,4.375 -1.095,3.606 -0.761,2.804C-0.142,1.316 0.179,-0.246 0,-1.936" style="fill:rgb(117,76,40);fill-rule:nonzero;"/>
                </g>
            </g>
            <g transform="matrix(1,0,0,1,328.402,461.393)">
                <path d="M0,-0.55C-0.347,0.241 -0.322,1.159 -0.084,1.989C0.033,2.397 0.22,2.815 0.575,3.047C0.844,3.222 1.175,3.269 1.494,3.299C2.293,3.372 3.115,3.359 3.874,3.099C5.226,2.637 6.258,1.35 6.416,-0.071C6.846,-3.922 1.183,-3.243 0,-0.55" style="fill:white;fill-rule:nonzero;"/>
            </g>
            <g transform="matrix(1,0,0,1,329.954,470.2)">
                <path d="M0,-3.23C-0.449,-3.405 -0.978,-3.279 -1.364,-2.992C-1.752,-2.705 -2.013,-2.276 -2.192,-1.829C-2.308,-1.543 -2.395,-1.228 -2.322,-0.928C-2.189,-0.38 -1.59,-0.089 -1.039,0.031C-0.446,0.161 0.197,0.175 0.741,-0.092C1.285,-0.36 1.693,-0.963 1.59,-1.561C1.479,-2.199 0.874,-2.612 0.321,-2.95" style="fill:white;fill-rule:nonzero;"/>
            </g>
            <g transform="matrix(1,0,0,1,338.674,479.877)">
                <path d="M0,1.663C-1.262,1.686 -2.499,1.375 -3.808,1.439C-3.396,0.418 -2.399,0.511 -1.767,0.04C-1.684,-0.023 -1.386,0.121 -1.243,0.237C-0.787,0.608 -0.357,1.012 0.082,1.402L0,1.663Z" style="fill:rgb(0,183,212);fill-rule:nonzero;"/>
            </g>
            <g transform="matrix(1,0,0,1,337.974,408.665)">
                <path d="M0,9.504L0.082,9.243C-0.357,8.852 -0.787,8.449 -1.243,8.078C-1.386,7.962 -1.684,7.818 -1.767,7.88C-2.398,8.352 -3.395,8.258 -3.807,9.279C-2.498,9.215 -1.262,9.527 0,9.504M6.444,-5.699C6.444,-6.157 6.475,-6.678 6.439,-7.194C6.209,-10.554 4.464,-12.984 1.594,-14.548C-1.219,-16.081 -4.13,-15.97 -7.054,-14.647C-9.837,-13.389 -11.503,-11.304 -11.938,-8.313C-12.089,-7.267 -11.982,-6.164 -11.858,-5.102C-11.257,0.066 -8.462,3.639 -3.79,5.819C-3.115,6.134 -2.413,6.309 -1.695,6.133C-0.048,5.73 1.519,5.177 2.566,3.691C3.142,2.876 3.848,2.153 4.41,1.331C4.901,0.612 5.35,-0.156 5.683,-0.958C6.302,-2.446 6.622,-4.009 6.444,-5.699M-2.765,7.076C-7.925,5.301 -11.237,1.969 -12.494,-3.24C-13.031,-5.465 -13.273,-7.723 -12.515,-9.972C-11.842,-11.968 -10.746,-13.587 -8.87,-14.686C-6.442,-16.107 -3.902,-16.848 -1.087,-16.381C2.214,-15.832 4.646,-13.978 6.253,-11.132C6.843,-10.087 7.152,-8.808 7.292,-7.6C7.593,-4.999 7.434,-2.403 6.238,0.002C5.815,0.854 5.235,1.626 4.717,2.428C4.587,2.628 4.403,2.793 4.27,2.99C2.949,4.937 1.296,6.434 -1.251,6.918C-0.609,7.495 -0.088,7.959 0.427,8.431C0.632,8.618 0.856,8.799 1.016,9.023C1.302,9.426 1.188,9.821 0.718,9.967C0.304,10.094 -0.139,10.161 -0.572,10.183C-1.034,10.206 -1.326,10.294 -1.319,10.852C-1.308,11.679 -1.802,12.273 -2.377,12.787C-2.882,13.24 -3.442,13.631 -3.95,14.08C-4.368,14.449 -4.797,14.824 -5.129,15.266C-5.862,16.239 -5.75,17.217 -4.859,18.038C-4.508,18.362 -4.124,18.652 -3.747,18.948C-2.973,19.556 -2.624,20.378 -2.526,21.329C-2.373,22.822 -3.328,25.161 -4.641,26.352C-4.657,26.062 -4.73,25.839 -4.669,25.663C-4.499,25.176 -4.276,24.706 -4.069,24.232C-3.7,23.387 -3.393,22.538 -3.396,21.587C-3.4,20.764 -3.68,20.111 -4.302,19.593C-4.64,19.312 -4.984,19.039 -5.323,18.759C-6.839,17.506 -6.803,15.887 -5.569,14.456C-5.079,13.888 -4.447,13.441 -3.873,12.945C-3.39,12.529 -2.873,12.148 -2.418,11.702C-2.202,11.491 -2.039,11.185 -1.955,10.892C-1.813,10.4 -2.004,10.137 -2.517,10.049C-3.146,9.941 -3.78,9.868 -4.412,9.779C-4.57,9.757 -4.751,9.769 -4.879,9.692C-5.032,9.601 -5.191,9.45 -5.248,9.29C-5.279,9.203 -5.133,9.006 -5.019,8.922C-4.443,8.495 -3.843,8.102 -3.271,7.67C-3.091,7.535 -2.97,7.321 -2.765,7.076" style="fill:rgb(35,31,32);fill-rule:nonzero;"/>
            </g>
            <g transform="matrix(1,0,0,1,344.419,404.592)">
                <path d="M0,-1.626C0.178,0.064 -0.143,1.627 -0.762,3.115C-1.095,3.917 -1.543,4.686 -2.034,5.404C-2.597,6.227 -3.303,6.949 -3.878,7.764C-4.926,9.25 -6.492,9.803 -8.14,10.206C-8.857,10.382 -9.56,10.207 -10.234,9.893C-14.906,7.712 -17.701,4.139 -18.303,-1.029C-18.427,-2.091 -18.533,-3.194 -18.382,-4.24C-17.947,-7.23 -16.281,-9.315 -13.498,-10.574C-10.574,-11.897 -7.663,-12.008 -4.851,-10.475C-1.98,-8.911 -0.235,-6.48 -0.005,-3.121C0.03,-2.605 0,-2.084 0,-1.626" style="fill:rgb(237,28,36);fill-rule:nonzero;"/>
            </g>
            <g opacity="0.2">
                <g transform="matrix(1,0,0,1,344.419,404.902)">
                    <path d="M0,-1.936C0,-2.394 0.03,-2.915 -0.005,-3.431C-0.235,-6.79 -1.98,-9.221 -4.851,-10.785C-6.294,-11.572 -7.764,-11.919 -9.248,-11.898C-8.647,-11.455 -8.101,-10.925 -7.619,-10.337C-6.281,-8.703 -5.382,-6.729 -4.764,-4.722C-4.149,-2.73 -3.795,-0.626 -3.818,1.46C-3.828,2.334 -3.909,3.21 -4.116,4.06C-4.407,5.257 -5.049,6.385 -5.824,7.335C-6.73,8.442 -7.895,9.348 -9.192,9.924C-8.847,9.983 -8.495,9.983 -8.14,9.896C-6.492,9.493 -4.926,8.94 -3.878,7.454C-3.303,6.639 -2.597,5.917 -2.034,5.094C-1.543,4.376 -1.095,3.607 -0.762,2.805C-0.143,1.317 0.178,-0.246 0,-1.936" style="fill:rgb(117,76,40);fill-rule:nonzero;"/>
                </g>
            </g>
            <g transform="matrix(1,0,0,1,327.704,398.022)">
                <path d="M0,-0.551C-0.348,0.241 -0.323,1.158 -0.084,1.989C0.033,2.397 0.219,2.814 0.574,3.047C0.843,3.222 1.174,3.269 1.494,3.299C2.292,3.371 3.114,3.358 3.873,3.098C5.226,2.637 6.257,1.349 6.416,-0.071C6.845,-3.922 1.182,-3.244 0,-0.551" style="fill:white;fill-rule:nonzero;"/>
            </g>
            <g transform="matrix(1,0,0,1,329.255,406.829)">
                <path d="M0,-3.23C-0.449,-3.405 -0.978,-3.28 -1.364,-2.993C-1.751,-2.705 -2.013,-2.277 -2.192,-1.83C-2.308,-1.543 -2.394,-1.229 -2.321,-0.929C-2.189,-0.381 -1.589,-0.09 -1.038,0.031C-0.446,0.161 0.197,0.175 0.742,-0.092C1.286,-0.36 1.693,-0.964 1.59,-1.562C1.479,-2.2 0.874,-2.612 0.322,-2.95" style="fill:white;fill-rule:nonzero;"/>
            </g>
            <g transform="matrix(1,0,0,1,337.974,416.506)">
                <path d="M0,1.663C-1.262,1.686 -2.498,1.374 -3.807,1.438C-3.395,0.417 -2.398,0.511 -1.767,0.039C-1.684,-0.023 -1.386,0.121 -1.243,0.237C-0.787,0.608 -0.357,1.011 0.082,1.402L0,1.663Z" style="fill:rgb(237,28,36);fill-rule:nonzero;"/>
            </g>
        </g>
    </g>
</svg>
