<?xml version="1.0" encoding="UTF-8" standalone="no"?>
<!DOCTYPE svg PUBLIC "-//W3C//DTD SVG 1.1//EN" "http://www.w3.org/Graphics/SVG/1.1/DTD/svg11.dtd">
<svg width="100%" height="100%" viewBox="0 0 274 442" version="1.1" xmlns="http://www.w3.org/2000/svg" xmlns:xlink="http://www.w3.org/1999/xlink" xml:space="preserve" xmlns:serif="http://www.serif.com/" style="fill-rule:evenodd;clip-rule:evenodd;stroke-linejoin:round;stroke-miterlimit:2;">
    <g transform="matrix(1,0,0,1,-785,-2343)">
        <g>
            <g transform="matrix(4.16667,0,0,4.16667,932.198,2504.34)">
                <path d="M0,28.557C-1.491,29.279 -2.709,29.873 -3.933,30.456C-4.262,30.613 -4.32,30.838 -4.105,31.1C-3.404,31.953 -2.685,32.793 -1.836,33.799C-1.208,32.006 -0.648,30.409 0,28.557M12.749,20.536C11.735,20.723 10.868,20.889 9.999,21.039C9.289,21.162 9.183,21.257 9.438,21.952C9.852,23.083 10.333,24.191 10.806,25.3C10.883,25.481 11.058,25.62 11.287,25.903C12.056,24.12 12.443,22.409 12.749,20.536M8.204,21.308C7.203,21.355 6.396,21.392 5.588,21.433C4.766,21.475 3.943,21.521 3.042,21.57C3.576,23.201 4.297,24.562 5.26,25.793C5.546,26.16 5.735,26.14 5.945,25.755C6.594,24.566 7.243,23.376 7.879,22.18C8.001,21.95 8.065,21.688 8.204,21.308M23.063,29.488C20.589,28.756 18.345,28.093 15.925,27.378C16.102,28.19 16.243,28.819 16.376,29.449C16.577,30.396 16.776,31.343 16.97,32.291C17.118,33.009 17.191,33.05 17.878,32.903C18.406,32.789 18.947,32.734 19.474,32.614C19.725,32.557 20.007,32.464 20.187,32.295C21.089,31.448 21.962,30.57 23.063,29.488M15.601,50.83C15.082,50.92 14.739,50.996 14.392,51.036C14.006,51.078 13.617,51.095 13.229,51.108C12.386,51.136 12.332,51.133 12.35,51.948C12.393,53.93 12.47,55.912 12.578,57.893C12.624,58.742 13.285,59.194 14.134,58.982C14.619,58.86 15.091,58.647 15.537,58.414C16.354,57.99 16.397,57.842 16.306,56.93C16.19,55.77 16.117,54.605 15.989,53.447C15.895,52.604 15.742,51.767 15.601,50.83M1.725,58.497C1.967,58.506 2.161,58.514 2.355,58.52C2.434,58.522 2.512,58.527 2.589,58.521C3.183,58.473 3.328,58.362 3.417,57.756C3.735,55.567 4.038,53.374 4.347,51.182C4.399,50.811 4.274,50.597 3.865,50.561C2.82,50.467 1.778,50.353 0.734,50.246C0.397,50.211 0.236,50.35 0.221,50.702C0.137,52.765 -0.13,54.802 -0.683,56.799C-0.735,56.989 -0.693,57.354 -0.575,57.417C0.184,57.828 0.709,58.761 1.725,58.497M-14.567,14.293C-14.893,13.624 -15.124,13.05 -15.446,12.533C-15.589,12.302 -15.896,12.09 -16.164,12.035C-17.479,11.762 -18.68,12.019 -19.837,12.756C-21.64,13.905 -21.383,16.19 -20.215,17.163C-19.713,17.581 -19.144,17.95 -18.55,18.22C-16.69,19.067 -14.631,18.422 -13.563,16.716C-13.17,16.088 -13.424,15.281 -14.121,15.116C-15.141,14.873 -16.175,14.692 -17.206,14.499C-17.845,14.381 -18.354,14.63 -18.743,15.13C-18.909,15.344 -19.05,15.579 -19.191,15.812C-19.307,16.002 -19.379,16.325 -19.672,16.122C-19.822,16.019 -19.915,15.736 -19.913,15.535C-19.911,15.318 -19.798,15.085 -19.682,14.89C-19.043,13.82 -18.031,13.38 -16.787,13.663C-16.08,13.825 -15.39,14.057 -14.567,14.293M25.662,26.613C25.305,27.399 25.033,27.911 24.836,28.452C24.602,29.09 24.219,29.56 23.7,30.014C22.595,30.98 21.595,32.066 20.527,33.076C20.355,33.239 20.061,33.299 19.812,33.347C19.165,33.472 18.509,33.554 17.861,33.672C17.488,33.741 17.352,33.966 17.448,34.353C17.588,34.918 17.682,35.496 17.824,36.062C18.054,36.98 18.19,37.891 17.812,38.807C17.756,38.943 17.751,39.109 17.758,39.259C17.812,40.362 18.399,41.242 18.992,42.109C19.078,42.235 19.338,42.333 19.492,42.305C20.216,42.172 20.94,42.023 21.643,41.808C21.862,41.741 22.187,41.416 22.158,41.271C22.108,41.024 21.845,40.677 21.621,40.634C20.947,40.504 20.242,40.42 19.562,40.473C18.967,40.52 18.795,40.272 18.708,39.71C20.052,39.546 20.435,38.594 20.584,37.42C20.625,37.098 20.783,36.735 21.005,36.5C21.994,35.457 22.97,34.389 24.057,33.453C25.288,32.391 26.249,31.154 27.062,29.764C27.341,29.288 27.346,28.879 27.065,28.469C26.675,27.9 26.234,27.364 25.662,26.613M-7.356,26.959C-8.334,27.726 -8.92,28.594 -9.491,29.472C-9.815,29.97 -9.828,30.505 -9.532,31.021C-9.222,31.56 -8.911,32.101 -8.554,32.609C-7.616,33.944 -6.652,35.261 -5.7,36.586C-5.586,36.744 -5.459,36.895 -5.368,37.065C-5.2,37.378 -5.177,37.68 -5.597,37.803C-6.18,37.974 -6.208,38.438 -6.226,38.916C-6.252,39.603 -5.851,39.998 -5.275,40.241C-4.739,40.466 -4.18,40.641 -3.643,40.864C-3.521,40.914 -3.444,41.074 -3.346,41.183C-3.481,41.303 -3.604,41.499 -3.756,41.526C-3.97,41.564 -4.21,41.493 -4.433,41.441C-4.924,41.326 -5.406,41.159 -5.903,41.078C-6.572,40.971 -7.056,41.146 -7.156,41.456C-7.251,41.755 -6.78,42.329 -6.199,42.491C-5.603,42.658 -4.985,42.78 -4.369,42.829C-2.647,42.968 -2.646,42.949 -2,41.39C-1.94,41.246 -1.891,41.097 -1.815,40.961C-1.453,40.307 -1.486,40.087 -2.211,39.685C-3.153,39.161 -3.249,38.839 -3.021,37.766C-2.884,37.12 -2.788,36.449 -2.532,35.849C-2.137,34.925 -2.35,34.224 -3.011,33.531C-4.418,32.057 -5.521,30.373 -6.388,28.528C-6.632,28.007 -6.992,27.541 -7.356,26.959M1.891,59.458C1.936,59.662 1.974,59.838 2.012,60.015C1.833,60.007 1.643,60.036 1.481,59.979C1.345,59.931 1.244,59.786 1.126,59.683C0.581,59.207 0.103,58.588 -0.526,58.286C-1.745,57.701 -3.028,57.166 -4.433,57.282C-5.119,57.337 -5.834,57.435 -6.465,57.691C-7.325,58.037 -8.135,58.523 -8.933,59.004C-10.624,60.024 -11.524,61.513 -11.581,63.517C-11.613,64.673 -11.623,64.807 -10.554,65.132C-9.068,65.583 -7.557,65.954 -6.05,66.33C-5.717,66.414 -5.351,66.408 -5.003,66.386C-2.87,66.257 -0.732,66.166 1.393,65.947C2.385,65.844 3.372,65.542 4.324,65.221C5.342,64.876 5.531,64.514 5.268,63.44C5.056,62.578 4.71,61.747 4.398,60.911C4.197,60.371 3.951,59.847 3.725,59.316C3.115,59.363 2.505,59.411 1.891,59.458M15.914,65.488L15.917,65.409C17.355,65.458 18.802,65.624 20.229,65.525C21.589,65.431 22.938,65.31 24.304,65.368C25.079,65.401 25.864,65.389 26.636,65.311C27.724,65.201 27.946,64.944 28.041,63.832C28.094,63.212 28.054,62.584 28.119,61.966C28.269,60.526 27.634,59.374 26.736,58.372C25.689,57.203 24.414,56.48 22.74,56.549C21.591,56.597 20.523,56.935 19.426,57.18C18.58,57.37 17.836,57.765 17.114,58.251C16.378,58.747 15.574,59.149 14.776,59.543C14.181,59.838 13.573,59.75 12.979,59.453C12.648,59.286 12.177,58.984 11.96,59.1C11.635,59.275 11.465,59.755 11.254,60.12C11.159,60.285 11.09,60.481 11.069,60.668C10.938,61.828 10.832,62.989 10.7,64.147C10.636,64.703 10.868,65.05 11.389,65.19C11.722,65.279 12.068,65.344 12.412,65.361C13.578,65.417 14.746,65.448 15.914,65.488M8.187,43.535C8.188,43.508 8.188,43.481 8.189,43.453C8.89,43.478 9.592,43.483 10.29,43.539C10.479,43.555 10.655,43.732 10.836,43.833C10.661,43.954 10.494,44.092 10.306,44.188C10.21,44.236 10.075,44.2 9.959,44.211C9.671,44.241 9.583,44.412 9.584,44.689C9.588,46.166 9.581,47.644 9.575,49.121C9.571,50.18 9.645,50.267 10.652,50.35C10.807,50.363 10.964,50.359 11.119,50.368C14.266,50.552 17.204,49.675 20.1,48.597C20.74,48.359 20.854,48.143 20.484,47.538C19.577,46.051 19.197,44.294 18.093,42.913C18.048,42.858 18.022,42.768 18.027,42.696C18.083,41.743 17.371,41.054 17.168,40.19C17.08,39.815 16.841,39.683 16.471,39.793C15.875,39.972 15.257,40.097 14.689,40.338C13.081,41.021 11.41,41.29 9.674,41.232C8.896,41.205 8.113,41.123 7.339,41.17C4.76,41.328 2.199,41.329 -0.292,40.526C-0.76,40.374 -0.935,40.576 -1.071,40.946C-1.165,41.202 -1.25,41.459 -1.355,41.711C-1.649,42.42 -1.772,43.175 -2.154,43.875C-2.766,44.997 -3.25,46.201 -3.673,47.41C-4.018,48.392 -3.84,48.619 -2.855,48.942C-2.524,49.051 -2.183,49.155 -1.839,49.194C-0.409,49.356 1.023,49.507 2.457,49.633C3.454,49.721 4.453,49.779 5.453,49.805C5.634,49.81 5.904,49.638 5.987,49.474C6.159,49.132 6.27,48.748 6.34,48.369C6.523,47.376 6.657,46.374 6.835,45.38C7.042,44.229 7.052,44.239 5.868,43.983C5.72,43.951 5.604,43.779 5.472,43.671C5.599,43.599 5.726,43.463 5.852,43.464C6.63,43.471 7.408,43.508 8.187,43.535M18.211,-30.347C16.183,-30.256 14.312,-30.274 12.466,-30.067C7.83,-29.547 3.428,-28.089 -0.926,-26.489C-4.375,-25.222 -7.633,-23.531 -10.804,-21.706C-17.432,-17.89 -23.431,-13.276 -28.334,-7.343C-28.83,-6.744 -29.314,-6.134 -29.8,-5.526C-30.025,-5.246 -30.06,-4.969 -29.761,-4.708C-29.175,-4.195 -28.589,-3.68 -28.006,-3.165C-27.717,-2.91 -27.518,-3.088 -27.312,-3.293C-26.51,-4.088 -25.728,-4.904 -24.896,-5.668C-23.691,-6.773 -22.44,-7.828 -21.227,-8.925C-19.667,-10.337 -18.111,-11.753 -16.578,-13.193C-12.803,-16.74 -8.276,-19.093 -3.662,-21.289C-1.367,-22.381 1.131,-22.922 3.596,-23.482C6.591,-24.163 9.606,-24.775 12.638,-25.263C14.163,-25.509 15.743,-25.42 17.299,-25.475C18.003,-25.501 18.034,-25.508 18.063,-26.184C18.121,-27.505 18.159,-28.824 18.211,-30.347M-29.383,0.18C-28.292,1.078 -27.309,1.894 -26.317,2.701C-25.66,3.236 -25.548,3.236 -24.981,2.601C-23.658,1.12 -22.355,-0.381 -21.031,-1.863C-20.539,-2.414 -20.056,-2.988 -19.488,-3.454C-18.164,-4.541 -16.808,-5.591 -15.43,-6.611C-14.523,-7.282 -13.587,-7.924 -12.612,-8.489C-8.727,-10.741 -4.661,-12.593 -0.457,-14.191C5.172,-16.33 10.99,-17.11 16.958,-17.029C18.317,-17.01 19.674,-16.804 21.033,-16.705C21.572,-16.666 21.597,-16.741 21.598,-17.287C21.601,-18.883 21.619,-20.479 21.644,-22.075C21.652,-22.581 21.688,-23.088 21.738,-23.591C21.787,-24.084 21.532,-24.326 21.096,-24.4C20.713,-24.464 20.322,-24.499 19.933,-24.512C18.569,-24.558 17.204,-24.61 15.839,-24.623C14.084,-24.64 12.338,-24.523 10.614,-24.164C9.547,-23.941 8.47,-23.758 7.413,-23.494C4.504,-22.766 1.595,-22.04 -1.296,-21.249C-4.071,-20.489 -6.458,-18.876 -8.978,-17.571C-12.009,-16.002 -14.617,-13.82 -17.135,-11.537C-19.243,-9.626 -21.306,-7.665 -23.454,-5.799C-25.579,-3.956 -27.423,-1.849 -29.383,0.18M8.638,22.582C8.454,22.814 8.341,22.92 8.271,23.049C7.696,24.11 7.123,25.171 6.562,26.24C6.044,27.229 5.562,27.289 4.809,26.44C4.731,26.353 4.646,26.267 4.59,26.166C3.928,24.978 3.2,23.82 2.633,22.587C2.032,21.284 2.087,21.245 0.689,21.402C0.534,21.419 0.374,21.424 0.226,21.469C-2.121,22.189 -4.472,22.898 -6.809,23.649C-7.604,23.905 -7.632,24.049 -7.362,24.86C-7.3,25.044 -7.246,25.236 -7.153,25.405C-6.492,26.597 -5.833,27.789 -5.152,28.97C-4.673,29.8 -4.547,29.858 -3.667,29.421C-2.621,28.903 -1.648,28.221 -0.575,27.778C0.206,27.455 0.579,26.957 0.798,26.208C0.905,25.841 1.114,25.497 1.317,25.168C1.376,25.073 1.599,25.003 1.708,25.038C1.797,25.067 1.848,25.266 1.881,25.398C1.897,25.459 1.833,25.541 1.808,25.615C0.712,28.779 -0.391,31.94 -1.474,35.108C-1.751,35.916 -2.022,36.735 -2.194,37.57C-2.422,38.679 -2.338,38.811 -1.316,39.289C0.666,40.217 2.783,40.486 4.945,40.488C6.464,40.488 7.983,40.454 9.502,40.473C11.12,40.492 12.683,40.253 14.189,39.654C14.695,39.453 15.206,39.231 15.736,39.129C16.998,38.888 17.485,38.071 17.141,36.819C16.854,35.771 16.64,34.703 16.407,33.641C16.057,32.045 15.688,30.453 15.387,28.847C15.171,27.703 15.048,26.539 14.895,25.383C14.858,25.111 14.853,24.751 15.211,24.761C15.393,24.766 15.573,25.081 15.737,25.27C15.78,25.319 15.775,25.421 15.77,25.497C15.715,26.243 16.197,26.514 16.803,26.695C18.894,27.316 20.984,27.936 23.069,28.577C23.515,28.713 23.809,28.668 23.986,28.194C24.609,26.515 25.245,24.842 25.878,23.167C26.041,22.736 25.838,22.505 25.455,22.367C25.345,22.327 25.233,22.293 25.12,22.262C22.156,21.443 19.191,20.624 16.226,19.806C16.113,19.775 15.987,19.715 15.884,19.74C15.246,19.892 14.545,19.951 14.003,20.272C13.688,20.459 13.587,21.068 13.465,21.507C13.131,22.705 12.86,23.922 12.516,25.118C12.367,25.636 12.137,26.142 11.876,26.617C11.505,27.291 11.073,27.316 10.632,26.709C10.405,26.396 10.21,26.051 10.046,25.7C9.586,24.715 9.15,23.72 8.638,22.582M-15.794,11.45C-16.231,9.686 -16.418,8.106 -16.257,6.507C-16.101,4.958 -15.915,3.413 -15.722,1.87C-15.67,1.452 -15.726,1.194 -16.224,1.168C-16.538,1.153 -17.053,1.259 -17.012,0.754C-16.978,0.328 -16.461,0.438 -16.147,0.338C-16.074,0.316 -15.992,0.319 -15.915,0.316C-14.766,0.275 -13.677,-0.029 -12.649,-0.515C-11.629,-0.998 -10.626,-1.522 -9.64,-2.073C-5.229,-4.537 -1.059,-7.321 2.35,-11.116C2.765,-11.578 3.236,-11.998 3.729,-12.377C3.907,-12.514 4.222,-12.472 4.476,-12.513C4.503,-12.261 4.623,-11.976 4.546,-11.762C3.937,-10.075 3.292,-8.401 2.178,-6.959C2.008,-6.739 1.888,-6.48 1.709,-6.179C1.923,-6.199 2.011,-6.181 2.069,-6.215C4.123,-7.413 6.193,-8.585 8.219,-9.829C9.287,-10.485 10.193,-11.361 10.89,-12.417C11.425,-13.228 11.9,-14.081 12.426,-14.899C12.538,-15.072 12.756,-15.177 12.925,-15.313C13.015,-15.123 13.194,-14.925 13.181,-14.742C13.107,-13.698 13.405,-12.733 13.76,-11.782C14.33,-10.248 14.903,-8.714 15.511,-7.196C16.44,-4.869 17.943,-3.042 20.228,-1.913C20.601,-1.729 20.943,-1.482 21.503,-1.139C20.771,-1.049 20.527,-0.767 20.618,-0.257C20.899,1.308 21.166,2.877 21.474,4.438C21.516,4.651 21.759,4.824 21.854,4.945C22.697,4.017 23.459,3.14 24.268,2.308C24.606,1.959 24.656,1.577 24.671,1.139C24.736,-0.762 24.39,-2.577 23.568,-4.3C23.248,-4.971 23.336,-5.162 24.021,-5.449C26.052,-6.298 27.327,-7.852 28.107,-9.853C28.361,-10.504 28.449,-11.183 28.264,-11.909C27.975,-11.834 27.745,-11.79 27.525,-11.714C26.191,-11.256 24.824,-11.424 23.467,-11.519C23.241,-11.535 22.904,-11.733 22.844,-11.92C22.741,-12.239 23.076,-12.336 23.343,-12.431C24.04,-12.68 24.745,-12.914 25.419,-13.216C26.57,-13.732 27.208,-14.684 27.503,-15.88C27.631,-16.397 27.482,-16.55 27.004,-16.464C25.973,-16.278 24.939,-16.103 23.908,-15.915C23.762,-15.888 23.583,-15.849 23.492,-15.75C23.128,-15.347 22.697,-15.458 22.302,-15.605C20.738,-16.185 19.106,-16.346 17.469,-16.303C15.173,-16.244 12.876,-16.122 10.588,-15.927C7.428,-15.66 4.364,-14.889 1.379,-13.841C-1.97,-12.666 -5.244,-11.305 -8.412,-9.691C-10.672,-8.539 -12.925,-7.377 -14.939,-5.819C-17.062,-4.176 -19.308,-2.685 -20.988,-0.517C-22.035,0.835 -23.371,1.972 -24.357,3.362C-25.186,4.531 -26.258,5.019 -27.547,5.266C-28.115,5.374 -28.693,5.428 -29.365,5.521C-28.93,6.23 -28.431,6.742 -27.649,6.889C-27.076,6.996 -26.496,7.075 -25.915,7.127C-25.411,7.174 -24.898,7.136 -24.396,7.198C-24.116,7.232 -23.851,7.394 -23.579,7.497C-23.684,7.735 -23.76,7.992 -23.901,8.205C-24.115,8.53 -24.391,8.813 -24.609,9.134C-24.9,9.563 -24.876,9.71 -24.37,9.916C-23.578,10.24 -22.773,10.546 -21.95,10.775C-20.899,11.067 -19.832,11.324 -18.728,10.982C-18.552,10.927 -18.338,10.957 -18.15,10.992C-17.43,11.121 -16.713,11.269 -15.794,11.45M-30.479,-5.358C-28.708,-7.993 -26.76,-10.224 -24.663,-12.31C-23.257,-13.709 -21.706,-14.965 -20.17,-16.226C-14.859,-20.589 -8.928,-23.916 -2.653,-26.677C-0.11,-27.797 2.552,-28.551 5.183,-29.403C7.935,-30.295 10.77,-30.808 13.653,-31.019C14.895,-31.11 16.144,-31.086 17.389,-31.125C18.102,-31.147 18.204,-31.263 18.177,-31.957C18.15,-32.617 18.136,-33.279 18.089,-33.939C18.033,-34.714 17.956,-35.49 17.871,-36.263C17.819,-36.739 17.576,-37.052 17.066,-37.112C16.486,-37.179 15.906,-37.248 15.328,-37.332C11.561,-37.883 7.78,-37.845 4.023,-37.361C0.734,-36.937 -2.497,-36.118 -5.585,-34.92C-8.56,-33.764 -11.454,-32.391 -14.341,-31.025C-16.562,-29.974 -18.712,-28.77 -20.668,-27.27C-23.303,-25.25 -25.732,-23.003 -27.959,-20.534C-30.565,-17.643 -32.72,-14.481 -34.164,-10.841C-34.525,-9.93 -34.393,-9.272 -33.748,-8.627C-33.032,-7.91 -32.321,-7.187 -31.605,-6.469C-31.254,-6.118 -30.897,-5.77 -30.479,-5.358M3.019,-10.647C2.196,-9.82 1.391,-8.975 0.548,-8.169C-2.177,-5.561 -5.348,-3.578 -8.589,-1.694C-10.376,-0.655 -12.141,0.44 -14.185,0.909C-14.784,1.045 -15.039,1.328 -15.078,1.914C-15.196,3.7 -15.317,5.486 -15.474,7.268C-15.589,8.573 -15.41,9.843 -15.037,11.076C-14.255,13.658 -12.727,15.729 -10.526,17.288C-9.597,17.948 -8.579,18.427 -7.439,18.62C-7.135,18.672 -6.847,18.813 -6.548,18.899C-5.316,19.253 -4.103,19.735 -2.846,19.927C0.855,20.493 4.568,20.802 8.326,20.337C11.402,19.955 14.364,19.203 17.244,18.098C18.373,17.664 19.51,17.161 20.269,16.174C21.074,15.125 21.774,13.995 22.511,12.896C22.722,12.581 22.817,12.29 22.382,12.024C22.061,11.827 21.626,11.479 21.854,11.112C22.089,10.734 22.454,11.219 22.767,11.294C24.317,11.665 25.866,11.923 27.207,10.76C28.914,9.28 30.458,5.829 28.7,3.285C28.065,2.366 27.064,1.836 26.027,2.31C25.027,2.768 23.962,3.195 23.343,4.227C23.125,4.592 22.839,4.919 22.568,5.251C21.94,6.022 21.212,5.926 20.775,5.019C20.691,4.844 20.624,4.658 20.577,4.469C20.158,2.807 19.773,1.136 19.788,-0.589C19.792,-1.079 19.665,-1.371 19.214,-1.609C17.424,-2.552 16.131,-4.008 15.314,-5.825C14.5,-7.633 13.829,-9.506 13.115,-11.359C12.882,-11.963 12.711,-12.59 12.507,-13.221C11.268,-11.772 10.075,-10.375 8.848,-8.939C9.005,-8.861 9.209,-8.762 9.412,-8.659C10.266,-8.222 10.915,-7.552 11.473,-6.794C11.563,-6.671 11.509,-6.443 11.522,-6.263C11.346,-6.276 11.142,-6.237 11.001,-6.314C10.802,-6.422 10.649,-6.616 10.477,-6.773C10.189,-7.035 9.885,-7.281 9.616,-7.561C9.081,-8.12 8.323,-8.089 7.663,-8.238C7.334,-8.311 6.889,-7.963 6.523,-7.757C5.131,-6.972 3.751,-6.165 2.363,-5.372C1.923,-5.121 1.48,-4.873 1.024,-4.653C0.702,-4.499 0.286,-4.373 0.078,-4.732C-0.04,-4.936 0.029,-5.351 0.167,-5.579C0.529,-6.176 0.972,-6.726 1.387,-7.291C2.126,-8.295 2.775,-9.346 3.019,-10.647M17.128,57.085C18.483,56.709 19.782,56.322 21.096,55.994C22.005,55.767 22.936,55.642 23.875,55.847C26.303,56.378 27.811,57.938 28.69,60.179C28.801,60.46 28.834,60.788 28.83,61.094C28.814,62.107 28.792,63.121 28.722,64.132C28.632,65.439 28.132,65.944 26.844,66.074C26.146,66.144 25.445,66.219 24.746,66.212C21.008,66.178 17.268,66.397 13.532,66.121C12.949,66.079 12.362,66.09 11.778,66.057C10.797,66.002 10.297,65.668 10.201,64.692C10.088,63.538 10.132,62.363 10.202,61.203C10.239,60.59 10.429,59.974 10.641,59.392C10.796,58.965 11.013,58.478 11.355,58.222C11.887,57.824 11.918,57.35 11.906,56.795C11.87,55.121 11.833,53.448 11.821,51.774C11.818,51.347 11.704,51.113 11.239,51.106C10.811,51.1 10.38,51.069 9.955,51.018C9.049,50.908 8.865,50.74 8.862,49.84C8.859,48.593 8.923,47.346 8.947,46.099C8.956,45.632 8.946,45.164 8.92,44.699C8.903,44.404 8.768,44.186 8.428,44.152C8.044,44.114 7.841,44.285 7.782,44.654C7.617,45.692 7.472,46.733 7.277,47.764C7.155,48.411 6.974,49.047 6.788,49.679C6.624,50.239 6.318,50.663 5.644,50.651C5.242,50.644 5.124,50.936 5.069,51.263C4.865,52.492 4.663,53.719 4.467,54.949C4.345,55.717 4.225,56.486 4.125,57.257C4.096,57.48 4.059,57.755 4.158,57.933C4.884,59.23 5.127,60.709 5.754,62.048C6.059,62.698 6.094,63.479 6.215,64.206C6.314,64.81 6.06,65.239 5.514,65.549C4.092,66.359 2.541,66.7 0.94,66.84C-0.3,66.95 -1.55,66.948 -2.792,67.05C-4.79,67.215 -6.757,67.192 -8.671,66.473C-9.25,66.255 -9.879,66.17 -10.475,65.991C-10.882,65.868 -11.279,65.702 -11.667,65.525C-12.218,65.274 -12.488,64.839 -12.466,64.221C-12.378,61.796 -11.666,59.693 -9.432,58.392C-8.59,57.903 -7.739,57.424 -6.863,57.001C-5.333,56.264 -3.772,56.361 -2.206,56.919C-1.527,57.161 -1.492,57.148 -1.315,56.484C-1.086,55.619 -0.866,54.748 -0.716,53.869C-0.539,52.833 -0.448,51.785 -0.306,50.744C-0.252,50.351 -0.402,50.201 -0.79,50.125C-1.742,49.939 -2.707,49.77 -3.623,49.463C-4.7,49.103 -4.868,48.771 -4.555,47.699C-4.284,46.768 -3.883,45.874 -3.525,44.97C-3.385,44.615 -3.208,44.274 -2.996,43.812C-3.874,43.678 -4.642,43.61 -5.384,43.432C-5.979,43.289 -6.615,43.12 -7.104,42.779C-8.257,41.973 -8.192,41.24 -7.008,40.48C-6.944,40.439 -6.892,40.379 -6.765,40.268C-6.807,40.13 -6.853,39.954 -6.913,39.784C-7.178,39.033 -7.122,38.3 -6.627,37.68C-6.301,37.27 -6.436,37.025 -6.693,36.671C-7.702,35.286 -8.677,33.877 -9.665,32.477C-9.732,32.381 -9.793,32.281 -9.857,32.183C-10.696,30.908 -10.833,29.671 -9.707,28.465C-9.203,27.926 -8.786,27.303 -8.26,26.789C-7.859,26.399 -7.786,26.048 -8.003,25.548C-8.173,25.16 -8.269,24.736 -8.367,24.32C-8.481,23.835 -8.291,23.468 -7.833,23.283C-7.256,23.048 -6.672,22.827 -6.079,22.641C-4.592,22.178 -3.097,21.738 -1.435,21.238C-1.841,21.103 -2.099,20.964 -2.369,20.936C-4.72,20.689 -6.881,19.751 -9.092,19.029C-10.136,18.687 -11.044,17.917 -11.996,17.314C-12.556,16.959 -12.542,16.934 -13.025,17.415C-13.219,17.608 -13.432,17.786 -13.596,18.001C-14.796,19.581 -16.443,19.593 -18.148,19.248C-19.113,19.053 -19.973,18.545 -20.707,17.89C-21.853,16.866 -22.249,15.546 -21.873,14.078C-21.737,13.549 -21.3,13.084 -20.949,12.63C-20.748,12.369 -20.444,12.186 -20.228,12.003C-21.483,11.629 -22.709,11.266 -23.935,10.897C-24.121,10.841 -24.302,10.766 -24.48,10.686C-25.783,10.104 -25.886,9.774 -25.139,8.587C-25.038,8.427 -24.942,8.263 -24.776,7.988C-25.162,7.928 -25.448,7.879 -25.735,7.84C-26.429,7.747 -27.133,7.703 -27.816,7.558C-28.985,7.311 -29.663,6.459 -30.176,5.46C-30.356,5.108 -30.201,4.829 -29.816,4.79C-29.43,4.75 -29.038,4.768 -28.648,4.773C-27.775,4.783 -26.968,4.532 -26.007,4.194C-27.066,3.281 -27.917,2.346 -29,1.671C-29.332,1.465 -29.681,1.285 -29.991,1.051C-30.571,0.615 -30.606,0.251 -30.118,-0.314C-29.634,-0.874 -29.111,-1.399 -28.621,-1.953C-28.208,-2.419 -28.215,-2.43 -28.706,-2.854C-29.06,-3.161 -29.411,-3.471 -29.781,-3.756C-31.48,-5.064 -32.81,-6.749 -34.353,-8.214C-35.226,-9.046 -35.307,-9.951 -34.853,-11.077C-33.346,-14.81 -31.2,-18.116 -28.508,-21.097C-26.333,-23.506 -23.983,-25.719 -21.425,-27.714C-19.229,-29.427 -16.791,-30.738 -14.303,-31.957C-12.378,-32.899 -10.422,-33.778 -8.475,-34.675C-6.522,-35.575 -4.498,-36.265 -2.408,-36.775C-0.176,-37.321 2.026,-37.998 4.327,-38.216C7.592,-38.527 10.858,-38.658 14.127,-38.296C15.211,-38.176 16.293,-38.042 17.374,-37.892C18.305,-37.764 18.515,-37.59 18.63,-36.657C18.782,-35.422 18.926,-34.18 18.956,-32.939C19.007,-30.798 18.969,-28.656 18.968,-26.513C18.967,-26.357 18.971,-26.201 18.956,-26.046C18.913,-25.596 19.128,-25.431 19.561,-25.397C20.141,-25.351 20.727,-25.293 21.29,-25.158C22.517,-24.863 22.742,-24.509 22.589,-23.252C22.537,-22.827 22.389,-22.407 22.387,-21.984C22.377,-20.429 22.409,-18.874 22.429,-17.318C22.435,-16.838 22.689,-16.628 23.166,-16.618C24.748,-16.585 26.269,-16.816 27.691,-17.559C27.905,-17.671 28.169,-17.689 28.411,-17.751C28.437,-17.492 28.521,-17.221 28.475,-16.976C28.374,-16.442 28.195,-15.923 28.066,-15.394C27.762,-14.142 27.008,-13.247 25.895,-12.632C25.692,-12.52 25.488,-12.411 25.259,-12.287C26.219,-12.057 27.577,-12.339 28.283,-12.909C28.403,-13.006 28.479,-13.169 28.609,-13.239C28.763,-13.321 28.962,-13.386 29.124,-13.358C29.209,-13.343 29.312,-13.116 29.314,-12.982C29.366,-10.518 28.828,-8.252 26.979,-6.478C26.392,-5.915 25.751,-5.394 25.078,-4.939C24.661,-4.656 24.461,-4.452 24.677,-3.921C25.284,-2.429 25.61,-0.877 25.582,0.748C25.57,1.449 25.615,1.451 26.32,1.471C26.477,1.476 26.633,1.474 26.789,1.463C28.097,1.37 28.922,1.897 29.584,3.099C30.695,5.115 30.581,7.026 29.605,8.985C29.329,9.54 29.021,10.095 28.642,10.582C27.685,11.808 26.483,12.64 24.842,12.466C24.06,12.383 23.684,12.668 23.302,13.35C22.659,14.501 21.851,15.563 21.084,16.643C20.354,17.67 19.228,18.162 18.153,18.713C17.813,18.887 17.46,19.035 16.882,19.301C18.298,19.647 19.489,19.913 20.666,20.23C22.357,20.686 24.046,21.156 25.723,21.663C26.849,22.004 26.991,22.327 26.67,23.483C26.545,23.933 26.444,24.398 26.254,24.821C25.902,25.604 26.061,26.206 26.667,26.812C27.125,27.271 27.479,27.844 27.832,28.398C28.174,28.936 28.124,29.488 27.807,30.054C26.98,31.527 26.001,32.853 24.693,33.958C23.655,34.834 22.742,35.861 21.79,36.835C21.635,36.994 21.527,37.221 21.46,37.436C21.241,38.139 21.051,38.851 20.842,39.586C21.247,39.717 21.702,39.817 22.112,40.01C22.633,40.256 22.972,40.672 22.959,41.297C22.947,41.885 22.586,42.274 22.108,42.452C21.458,42.694 20.761,42.813 20.08,42.963C19.473,43.097 19.371,43.184 19.609,43.732C20.058,44.766 20.563,45.778 21.06,46.791C21.912,48.535 21.771,48.9 19.957,49.501C18.921,49.844 17.883,50.18 16.838,50.493C16.492,50.595 16.273,50.742 16.32,51.131C16.535,52.906 16.748,54.681 16.971,56.454C16.999,56.678 17.08,56.895 17.128,57.085" style="fill:rgb(35,31,32);fill-rule:nonzero;"/>
            </g>
            <g transform="matrix(4.16667,0,0,4.16667,1027.7,2505.38)">
                <path d="M0,7.082C0.003,7.147 -0.022,7.277 0.021,7.377C0.091,7.538 0.207,7.68 0.303,7.829C0.426,7.706 0.594,7.603 0.661,7.455C0.737,7.286 0.684,7.061 0.755,6.887C1.146,5.919 1.699,5.116 2.811,4.854C3.313,4.737 3.716,4.906 4.147,5.102C4.27,5.158 4.474,5.034 4.641,4.993C4.594,4.82 4.602,4.575 4.489,4.49C4.251,4.311 3.962,4.147 3.673,4.096C2.026,3.798 0.096,5.356 0,7.082M-25.336,-0.824C-25.44,-1.297 -25.485,-1.85 -25.697,-2.33C-25.815,-2.599 -26.185,-2.854 -26.485,-2.922C-26.913,-3.02 -27.203,-2.669 -27.373,-2.301C-27.725,-1.54 -27.887,-0.724 -27.688,0.09C-27.584,0.52 -27.319,0.951 -27.019,1.286C-26.585,1.77 -26.058,1.669 -25.83,1.064C-25.613,0.488 -25.512,-0.131 -25.336,-0.824M-13.88,-1.668C-13.886,-2.13 -13.823,-2.536 -13.914,-2.903C-14.013,-3.3 -14.19,-3.719 -14.453,-4.024C-14.856,-4.495 -15.361,-4.438 -15.724,-3.934C-16.417,-2.969 -16.445,-1.901 -16.055,-0.83C-15.945,-0.529 -15.654,-0.251 -15.377,-0.064C-14.811,0.321 -14.184,0.078 -14.008,-0.583C-13.909,-0.954 -13.915,-1.353 -13.88,-1.668M-17.945,5.827C-18.373,5.943 -18.59,5.994 -18.801,6.062C-19.06,6.147 -19.309,6.263 -19.568,6.34C-20.879,6.729 -21.862,6.363 -22.546,5.186C-23.382,3.747 -23.448,2.22 -22.868,0.69C-22.397,-0.551 -21.268,-1.025 -20.014,-0.598C-19.222,-0.327 -18.535,0.087 -18.118,0.859C-18.058,0.971 -17.885,1.021 -17.765,1.101C-17.689,0.938 -17.526,0.758 -17.556,0.619C-17.619,0.326 -17.711,-0.031 -17.92,-0.206C-18.421,-0.624 -18.951,-1.098 -19.552,-1.289C-21.419,-1.885 -22.907,-1.468 -23.705,0.411C-24.401,2.048 -24.336,3.757 -23.549,5.39C-23.127,6.262 -22.479,6.912 -21.553,7.254C-20.138,7.776 -18.813,7.31 -17.945,5.827M-24.051,13.312C-23.348,14.483 -22.411,15.237 -21.175,15.62C-17.736,16.686 -13.589,14.769 -11.957,12.527C-11.396,11.759 -11.088,10.897 -11.045,9.927C-10.996,8.794 -10.99,7.669 -11.281,6.567C-11.397,6.126 -11.214,5.975 -10.829,5.997C-10.481,6.019 -10.135,6.144 -9.792,6.13C-9.618,6.123 -9.4,5.943 -9.304,5.781C-9.262,5.711 -9.439,5.419 -9.578,5.347C-10.58,4.829 -12.552,5.202 -13.275,6.047C-13.443,6.242 -13.549,6.51 -13.616,6.763C-13.643,6.862 -13.505,7.035 -13.4,7.125C-13.354,7.165 -13.172,7.114 -13.104,7.049C-12.887,6.845 -12.695,6.614 -12.357,6.244C-12.202,7.063 -12.035,7.696 -11.968,8.339C-11.739,10.549 -12.485,12.343 -14.438,13.484C-15.336,14.009 -16.31,14.477 -17.31,14.741C-19.347,15.278 -21.327,15.201 -22.98,13.614C-23.217,13.387 -23.468,13.085 -24.051,13.312M-19.9,-10.897C-20.145,-9.596 -20.793,-8.544 -21.532,-7.54C-21.948,-6.976 -22.391,-6.426 -22.752,-5.828C-22.89,-5.601 -22.959,-5.186 -22.841,-4.981C-22.633,-4.622 -22.218,-4.748 -21.896,-4.902C-21.439,-5.122 -20.996,-5.37 -20.556,-5.621C-19.168,-6.414 -17.789,-7.222 -16.396,-8.007C-16.031,-8.212 -15.585,-8.561 -15.256,-8.487C-14.597,-8.339 -13.839,-8.369 -13.303,-7.811C-13.035,-7.53 -12.73,-7.284 -12.442,-7.022C-12.27,-6.865 -12.118,-6.672 -11.918,-6.564C-11.777,-6.486 -11.573,-6.525 -11.397,-6.513C-11.41,-6.692 -11.356,-6.92 -11.447,-7.043C-12.004,-7.802 -12.653,-8.472 -13.508,-8.908C-13.71,-9.012 -13.915,-9.11 -14.072,-9.189C-12.845,-10.624 -11.651,-12.022 -10.413,-13.471C-10.208,-12.84 -10.037,-12.212 -9.804,-11.608C-9.09,-9.756 -8.419,-7.883 -7.605,-6.074C-6.788,-4.258 -5.495,-2.802 -3.706,-1.858C-3.255,-1.62 -3.128,-1.328 -3.132,-0.839C-3.146,0.887 -2.761,2.558 -2.343,4.22C-2.295,4.408 -2.228,4.595 -2.144,4.769C-1.707,5.677 -0.979,5.772 -0.351,5.002C-0.08,4.67 0.205,4.343 0.424,3.978C1.043,2.945 2.107,2.519 3.107,2.061C4.145,1.587 5.146,2.116 5.78,3.035C7.539,5.58 5.994,9.03 4.288,10.511C2.947,11.674 1.398,11.416 -0.152,11.045C-0.465,10.97 -0.831,10.484 -1.066,10.862C-1.293,11.229 -0.858,11.577 -0.538,11.774C-0.102,12.041 -0.198,12.332 -0.408,12.646C-1.145,13.746 -1.845,14.876 -2.65,15.925C-3.409,16.912 -4.547,17.415 -5.676,17.849C-8.555,18.954 -11.518,19.706 -14.593,20.088C-18.351,20.553 -22.064,20.243 -25.765,19.678C-27.022,19.485 -28.236,19.004 -29.468,18.649C-29.767,18.563 -30.055,18.423 -30.358,18.371C-31.499,18.178 -32.517,17.698 -33.446,17.039C-35.646,15.479 -37.174,13.408 -37.956,10.826C-38.329,9.594 -38.509,8.323 -38.394,7.019C-38.237,5.236 -38.116,3.45 -37.997,1.665C-37.958,1.078 -37.704,0.796 -37.104,0.659C-35.061,0.19 -33.296,-0.904 -31.508,-1.943C-28.267,-3.827 -25.097,-5.811 -22.372,-8.418C-21.529,-9.225 -20.723,-10.069 -19.9,-10.897" style="fill:rgb(254,220,196);fill-rule:nonzero;"/>
            </g>
            <g transform="matrix(4.16667,0,0,4.16667,906.266,2473.3)">
                <path d="M0,5.799C-0.426,6.439 -0.922,6.996 -1.486,7.518C-1.945,7.943 -2.418,8.353 -2.863,8.794C-1.376,8.997 0.127,8.455 1.507,7.945C1.489,7.894 1.467,7.841 1.455,7.788C1.256,6.975 1.418,6.158 1.77,5.398C1.94,5.029 2.23,4.679 2.658,4.777C2.958,4.845 3.328,5.1 3.446,5.368C3.658,5.849 3.703,6.402 3.807,6.874C3.785,6.964 3.768,7.043 3.747,7.13C5.968,6.32 8.183,5.47 10.236,4.304C12.343,3.106 14.277,1.637 16.304,0.313C16.146,0.174 15.984,0.038 15.84,-0.112C15.304,-0.671 14.546,-0.64 13.887,-0.789C13.558,-0.862 13.112,-0.513 12.747,-0.308C11.354,0.477 9.975,1.284 8.587,2.077C8.147,2.328 7.704,2.576 7.248,2.796C6.925,2.95 6.51,3.076 6.302,2.716C6.184,2.513 6.253,2.098 6.391,1.87C6.752,1.273 7.195,0.723 7.611,0.158C8.35,-0.846 8.999,-1.897 9.243,-3.198C8.42,-2.371 7.614,-1.526 6.771,-0.72C5.072,0.906 3.199,2.29 1.244,3.558C0.867,4.325 0.475,5.085 0,5.799" style="fill:rgb(253,203,165);fill-rule:nonzero;"/>
            </g>
            <g transform="matrix(4.16667,0,0,4.16667,1044.97,2503.47)">
                <path d="M0,5.561C-0.431,5.366 -0.834,5.197 -1.336,5.314C-2.448,5.576 -3,6.378 -3.393,7.346C-3.463,7.52 -3.41,7.746 -3.486,7.915C-3.553,8.063 -3.721,8.165 -3.844,8.289C-3.94,8.139 -4.056,7.998 -4.126,7.836C-4.169,7.737 -4.144,7.607 -4.147,7.541C-4.051,5.816 -2.121,4.257 -0.474,4.555C-0.185,4.607 0.104,4.77 0.341,4.95C0.455,5.035 0.447,5.28 0.494,5.453C0.327,5.494 0.123,5.618 0,5.561M1.633,3.495C0.999,2.576 -0.002,2.046 -1.04,2.52C-2.04,2.978 -3.104,3.405 -3.723,4.437C-3.942,4.802 -4.227,5.129 -4.498,5.461C-5.126,6.232 -5.854,6.136 -6.291,5.229C-6.375,5.054 -6.442,4.868 -6.49,4.679C-6.908,3.017 -7.293,1.346 -7.279,-0.379C-7.275,-0.869 -7.402,-1.162 -7.853,-1.399C-9.642,-2.342 -10.935,-3.798 -11.752,-5.615C-12.566,-7.423 -13.237,-9.296 -13.952,-11.149C-14.184,-11.752 -14.355,-12.38 -14.56,-13.011C-15.798,-11.562 -16.992,-10.165 -18.219,-8.729C-18.062,-8.651 -17.857,-8.552 -17.655,-8.449C-17.117,-8.173 -16.667,-7.8 -16.264,-7.377C-15.952,-7.573 -15.646,-7.778 -15.327,-7.962C-15.189,-8.043 -14.95,-7.985 -14.932,-7.796C-14.754,-5.994 -14.254,-4.24 -13.396,-2.643C-12.969,-1.849 -12.46,-1.103 -11.881,-0.413C-11.349,0.224 -10.765,0.861 -10.097,1.355C-9.583,1.735 -8.995,2.091 -8.642,2.638C-8.316,3.14 -8.472,3.734 -8.575,4.285C-8.634,4.602 -8.711,4.926 -8.719,5.249C-8.728,5.675 -8.631,6.123 -8.555,6.54C-8.396,7.402 -8.168,8.249 -7.958,9.098C-7.551,10.737 -7.209,12.432 -7.566,14.113C-7.898,15.673 -8.86,17.024 -10.013,18.094C-10.193,18.262 -10.384,18.416 -10.575,18.572C-10.325,18.481 -10.071,18.404 -9.823,18.308C-8.694,17.874 -7.556,17.372 -6.798,16.384C-5.992,15.335 -5.292,14.206 -4.555,13.106C-4.345,12.791 -4.249,12.5 -4.685,12.234C-5.005,12.037 -5.44,11.689 -5.213,11.322C-4.978,10.944 -4.612,11.429 -4.299,11.504C-2.749,11.875 -1.2,12.133 0.141,10.97C1.847,9.49 3.392,6.04 1.633,3.495" style="fill:rgb(253,203,165);fill-rule:nonzero;"/>
            </g>
            <g transform="matrix(4.16667,0,0,4.16667,805.202,2346.5)">
                <path d="M0,32.525C-0.418,32.113 -0.775,31.765 -1.126,31.414C-1.842,30.696 -2.553,29.973 -3.269,29.256C-3.914,28.611 -4.046,27.953 -3.685,27.042C-2.241,23.402 -0.086,20.24 2.52,17.349C4.747,14.88 7.176,12.633 9.811,10.613C11.767,9.113 13.917,7.909 16.138,6.858C19.025,5.492 21.919,4.119 24.894,2.963C27.982,1.765 31.213,0.946 34.502,0.522C38.259,0.038 42.04,0 45.807,0.551C46.385,0.635 46.965,0.704 47.545,0.771C48.055,0.831 48.298,1.144 48.35,1.62C48.435,2.393 48.512,3.169 48.568,3.944C48.615,4.604 48.629,5.266 48.656,5.926C48.683,6.62 48.581,6.736 47.868,6.758C46.623,6.797 45.374,6.773 44.132,6.864C41.249,7.075 38.414,7.588 35.662,8.48C33.031,9.332 30.369,10.086 27.826,11.206C21.551,13.967 15.62,17.295 10.309,21.657C8.773,22.918 7.222,24.174 5.816,25.573C3.719,27.659 1.771,29.89 0,32.525" style="fill:rgb(171,219,201);fill-rule:nonzero;"/>
            </g>
            <g transform="matrix(4.16667,0,0,4.16667,866.388,2435.38)">
                <path d="M0,28C-0.918,27.819 -1.635,27.672 -2.355,27.542C-2.544,27.508 -2.758,27.478 -2.933,27.532C-4.037,27.874 -5.105,27.617 -6.156,27.325C-6.979,27.097 -7.784,26.79 -8.576,26.467C-9.082,26.261 -9.106,26.113 -8.814,25.685C-8.596,25.363 -8.32,25.08 -8.106,24.756C-7.966,24.542 -7.889,24.285 -7.784,24.048C-8.056,23.944 -8.321,23.782 -8.602,23.748C-9.104,23.687 -9.617,23.725 -10.121,23.678C-10.701,23.625 -11.282,23.547 -11.854,23.439C-12.637,23.292 -13.136,22.78 -13.57,22.071C-12.899,21.979 -12.32,21.925 -11.752,21.816C-10.464,21.569 -9.392,21.081 -8.563,19.912C-7.577,18.522 -6.241,17.386 -5.193,16.033C-3.513,13.865 -1.268,12.374 0.855,10.731C2.869,9.174 5.122,8.012 7.383,6.859C10.55,5.245 13.825,3.885 17.174,2.709C20.159,1.661 23.223,0.891 26.383,0.623C28.671,0.429 30.968,0.307 33.263,0.247C34.901,0.204 36.533,0.365 38.096,0.945C38.492,1.093 38.922,1.203 39.287,0.801C39.377,0.701 39.556,0.662 39.702,0.636C40.733,0.447 41.767,0.272 42.799,0.086C43.277,0 43.426,0.153 43.298,0.671C43.002,1.866 42.365,2.818 41.213,3.334C40.54,3.637 39.834,3.87 39.138,4.119C38.871,4.215 38.535,4.312 38.638,4.631C38.698,4.817 39.036,5.016 39.261,5.031C40.619,5.126 41.986,5.295 43.319,4.836C43.539,4.761 43.77,4.717 44.059,4.642C44.243,5.367 44.155,6.047 43.902,6.697C43.121,8.698 41.846,10.252 39.816,11.102C39.13,11.389 39.042,11.579 39.362,12.25C40.185,13.974 40.531,15.788 40.466,17.689C40.451,18.127 40.401,18.51 40.062,18.858C39.253,19.69 38.492,20.567 37.648,21.495C37.553,21.374 37.31,21.201 37.268,20.988C36.96,19.428 36.693,17.858 36.413,16.293C36.322,15.783 36.565,15.501 37.298,15.411C36.737,15.068 36.396,14.821 36.022,14.638C33.737,13.509 32.235,11.682 31.305,9.354C30.698,7.836 30.125,6.303 29.554,4.769C29.2,3.817 28.902,2.853 28.976,1.809C28.989,1.625 28.81,1.428 28.719,1.237C28.55,1.373 28.332,1.479 28.221,1.651C27.694,2.47 27.22,3.322 26.684,4.134C25.988,5.189 25.082,6.065 24.013,6.722C21.988,7.966 19.917,9.138 17.863,10.335C17.805,10.369 17.718,10.352 17.503,10.371C17.682,10.07 17.802,9.812 17.972,9.592C19.086,8.149 19.731,6.476 20.34,4.788C20.417,4.574 20.298,4.289 20.27,4.037C20.017,4.078 19.701,4.036 19.523,4.174C19.031,4.553 18.559,4.973 18.144,5.435C14.735,9.229 10.565,12.014 6.154,14.478C5.168,15.028 4.166,15.553 3.145,16.035C2.117,16.521 1.028,16.825 -0.12,16.866C-0.198,16.869 -0.28,16.866 -0.353,16.889C-0.667,16.988 -1.184,16.879 -1.218,17.305C-1.258,17.81 -0.744,17.703 -0.429,17.719C0.068,17.744 0.124,18.002 0.072,18.42C-0.12,19.964 -0.307,21.509 -0.462,23.058C-0.624,24.656 -0.437,26.236 0,28" style="fill:rgb(168,123,80);fill-rule:nonzero;"/>
            </g>
            <g transform="matrix(4.16667,0,0,4.16667,864.365,2525.3)">
                <path d="M0,1.953C-1.073,2.391 -2.182,2.724 -3.36,2.814C-3.513,2.825 -3.654,2.702 -3.652,2.547C-3.628,1.184 -2.749,0.037 -2.57,-1.29C-3.445,-1.425 -4.333,-1.712 -4.944,-2.38C-5.481,-2.968 -5.653,-3.707 -5.631,-4.466C-6.469,-3.548 -7.364,-2.674 -8.077,-1.669C-8.906,-0.5 -9.979,-0.012 -11.268,0.235C-11.835,0.344 -12.414,0.397 -13.085,0.49C-12.65,1.199 -12.151,1.711 -11.369,1.858C-10.796,1.966 -10.216,2.044 -9.635,2.098C-9.131,2.143 -8.618,2.105 -8.117,2.167C-7.836,2.201 -7.571,2.363 -7.299,2.467C-7.404,2.704 -7.48,2.961 -7.621,3.175C-7.835,3.499 -8.111,3.782 -8.329,4.103C-8.621,4.532 -8.596,4.68 -8.09,4.886C-7.298,5.209 -6.494,5.516 -5.67,5.744C-4.62,6.036 -3.552,6.293 -2.448,5.951C-2.272,5.896 -2.059,5.927 -1.87,5.961C-1.15,6.091 -0.433,6.238 0.485,6.419C0.092,4.83 -0.083,3.391 0,1.953" style="fill:rgb(185,135,88);fill-rule:nonzero;"/>
            </g>
            <g transform="matrix(4.16667,0,0,4.16667,968.19,2661.11)">
                <path d="M0,-15.042C0.512,-13.904 0.948,-12.909 1.408,-11.925C1.572,-11.573 1.767,-11.229 1.994,-10.915C2.435,-10.309 2.867,-10.333 3.238,-11.008C3.499,-11.482 3.729,-11.988 3.878,-12.507C4.222,-13.702 4.493,-14.919 4.827,-16.117C4.949,-16.557 5.05,-17.165 5.365,-17.353C5.907,-17.674 6.608,-17.732 7.246,-17.885C7.349,-17.909 7.475,-17.85 7.587,-17.818C10.553,-17 13.518,-16.182 16.482,-15.362C16.595,-15.331 16.707,-15.298 16.817,-15.258C17.2,-15.119 17.403,-14.889 17.24,-14.457C16.606,-12.782 15.971,-11.109 15.348,-9.431C15.171,-8.956 14.877,-8.911 14.431,-9.048C12.346,-9.688 10.255,-10.309 8.165,-10.93C7.559,-11.11 7.077,-11.382 7.131,-12.127C7.137,-12.203 7.142,-12.306 7.099,-12.354C6.935,-12.543 6.755,-12.858 6.573,-12.863C6.215,-12.873 6.22,-12.514 6.257,-12.241C6.41,-11.085 6.533,-9.922 6.749,-8.777C7.05,-7.172 7.419,-5.579 7.769,-3.983C8.001,-2.922 8.215,-1.854 8.503,-0.806C8.847,0.446 8.36,1.264 7.098,1.505C6.568,1.606 6.057,1.828 5.551,2.029C4.044,2.629 2.481,2.867 0.864,2.849C-0.655,2.83 -2.174,2.863 -3.693,2.863C-5.855,2.861 -7.972,2.593 -9.954,1.665C-10.977,1.187 -11.06,1.055 -10.832,-0.055C-10.661,-0.89 -10.389,-1.708 -10.112,-2.517C-9.029,-5.685 -7.926,-8.846 -6.831,-12.01C-6.805,-12.083 -6.741,-12.165 -6.757,-12.227C-6.791,-12.358 -6.841,-12.558 -6.93,-12.586C-7.04,-12.621 -7.262,-12.552 -7.321,-12.456C-7.524,-12.127 -7.733,-11.783 -7.84,-11.416C-8.059,-10.667 -8.433,-10.169 -9.213,-9.847C-10.287,-9.403 -11.259,-8.722 -12.305,-8.203C-13.185,-7.767 -13.312,-7.824 -13.791,-8.654C-14.471,-9.835 -15.13,-11.027 -15.791,-12.22C-15.884,-12.389 -15.938,-12.58 -16,-12.765C-16.271,-13.575 -16.243,-13.72 -15.447,-13.976C-13.11,-14.727 -10.759,-15.436 -8.412,-16.155C-8.265,-16.2 -8.104,-16.205 -7.949,-16.223C-6.551,-16.38 -6.606,-16.341 -6.005,-15.037C-5.438,-13.805 -4.71,-12.646 -4.048,-11.458C-3.993,-11.357 -3.907,-11.271 -3.83,-11.185C-3.076,-10.335 -2.594,-10.396 -2.076,-11.385C-1.516,-12.453 -0.942,-13.515 -0.367,-14.575C-0.297,-14.704 -0.184,-14.811 0,-15.042" style="fill:white;fill-rule:nonzero;"/>
            </g>
            <g transform="matrix(4.16667,0,0,4.16667,809.769,2414.41)">
                <path d="M0,21.764C1.96,19.735 3.804,17.628 5.929,15.785C8.077,13.919 10.14,11.958 12.248,10.047C14.766,7.764 17.374,5.582 20.405,4.013C22.925,2.708 25.312,1.095 28.087,0.335C30.978,-0.456 33.887,-1.182 36.795,-1.91C37.853,-2.174 38.93,-2.357 39.997,-2.58C41.721,-2.939 43.467,-3.056 45.222,-3.039C46.587,-3.026 47.952,-2.974 49.316,-2.928C49.705,-2.915 50.096,-2.881 50.479,-2.816C50.915,-2.742 51.17,-2.5 51.121,-2.007C51.071,-1.504 51.035,-0.997 51.027,-0.491C51.001,1.105 50.984,2.701 50.981,4.297C50.98,4.843 50.955,4.918 50.416,4.879C49.057,4.78 47.7,4.574 46.341,4.555C40.373,4.474 34.555,5.254 28.926,7.393C24.722,8.991 20.656,10.843 16.771,13.095C15.796,13.66 14.859,14.302 13.953,14.973C12.575,15.993 11.219,17.043 9.895,18.13C9.327,18.596 8.844,19.17 8.352,19.721C7.028,21.202 5.725,22.703 4.402,24.185C3.835,24.82 3.723,24.82 3.065,24.285C2.074,23.478 1.09,22.661 0,21.764" style="fill:rgb(171,219,201);fill-rule:nonzero;"/>
            </g>
            <g transform="matrix(4.16667,0,0,4.16667,1008.08,2492.22)">
                <path d="M0,-27.437C-0.053,-25.914 -0.091,-24.594 -0.148,-23.274C-0.177,-22.598 -0.208,-22.59 -0.913,-22.565C-2.468,-22.509 -4.048,-22.599 -5.574,-22.353C-8.605,-21.865 -11.621,-21.252 -14.616,-20.572C-17.081,-20.011 -19.579,-19.47 -21.873,-18.378C-26.487,-16.183 -31.015,-13.83 -34.789,-10.283C-36.322,-8.842 -37.878,-7.426 -39.438,-6.015C-40.651,-4.917 -41.903,-3.863 -43.108,-2.757C-43.939,-1.994 -44.722,-1.177 -45.523,-0.382C-45.729,-0.177 -45.929,0 -46.217,-0.254C-46.801,-0.77 -47.386,-1.285 -47.973,-1.797C-48.271,-2.059 -48.236,-2.335 -48.012,-2.616C-47.526,-3.224 -47.041,-3.833 -46.545,-4.433C-41.642,-10.366 -35.644,-14.98 -29.016,-18.795C-25.844,-20.621 -22.586,-22.312 -19.137,-23.579C-14.783,-25.179 -10.381,-26.636 -5.745,-27.157C-3.899,-27.364 -2.028,-27.345 0,-27.437" style="fill:rgb(108,203,218);fill-rule:nonzero;"/>
            </g>
            <g transform="matrix(4.16667,0,0,4.16667,966.308,2698.93)">
                <path d="M0,-3.166C-0.778,-3.192 -1.556,-3.229 -2.335,-3.236C-2.46,-3.237 -2.588,-3.102 -2.714,-3.029C-2.583,-2.922 -2.466,-2.75 -2.319,-2.718C-1.135,-2.462 -1.145,-2.472 -1.351,-1.32C-1.529,-0.326 -1.663,0.676 -1.846,1.669C-1.917,2.048 -2.028,2.432 -2.2,2.773C-2.282,2.938 -2.553,3.109 -2.734,3.105C-3.733,3.078 -4.733,3.021 -5.729,2.933C-7.163,2.807 -8.595,2.655 -10.025,2.493C-10.37,2.454 -10.71,2.351 -11.042,2.241C-12.027,1.918 -12.204,1.691 -11.859,0.709C-11.436,-0.5 -10.952,-1.703 -10.341,-2.825C-9.959,-3.525 -9.836,-4.28 -9.542,-4.989C-9.437,-5.241 -9.351,-5.499 -9.257,-5.755C-9.122,-6.125 -8.946,-6.326 -8.478,-6.175C-5.987,-5.371 -3.426,-5.372 -0.848,-5.53C-0.073,-5.577 0.709,-5.495 1.488,-5.469C3.223,-5.41 4.894,-5.68 6.502,-6.362C7.071,-6.604 7.689,-6.729 8.285,-6.907C8.655,-7.018 8.894,-6.886 8.981,-6.511C9.184,-5.646 9.896,-4.958 9.84,-4.005C9.836,-3.933 9.862,-3.843 9.906,-3.787C11.011,-2.406 11.39,-0.649 12.298,0.838C12.667,1.442 12.553,1.658 11.913,1.896C9.018,2.975 6.079,3.852 2.933,3.667C2.777,3.658 2.621,3.662 2.465,3.649C1.458,3.566 1.384,3.48 1.388,2.421C1.394,0.943 1.402,-0.534 1.398,-2.012C1.397,-2.288 1.485,-2.46 1.773,-2.489C1.889,-2.501 2.024,-2.465 2.119,-2.513C2.308,-2.608 2.474,-2.746 2.65,-2.867C2.468,-2.969 2.292,-3.145 2.104,-3.161C1.406,-3.218 0.704,-3.223 0.003,-3.247C0.002,-3.22 0.001,-3.192 0,-3.166" style="fill:rgb(108,203,218);fill-rule:nonzero;"/>
            </g>
            <g transform="matrix(4.16667,0,0,4.16667,998.504,2740.24)">
                <path d="M0,8.871C-1.167,8.831 -2.335,8.801 -3.502,8.744C-3.845,8.727 -4.192,8.662 -4.524,8.573C-5.045,8.434 -5.278,8.087 -5.214,7.53C-5.082,6.372 -4.976,5.211 -4.845,4.052C-4.824,3.864 -4.754,3.668 -4.659,3.504C-4.449,3.139 -4.279,2.658 -3.953,2.483C-3.737,2.367 -3.266,2.67 -2.934,2.836C-2.34,3.134 -1.733,3.222 -1.138,2.927C-0.34,2.532 0.464,2.131 1.201,1.635C1.923,1.148 2.666,0.754 3.513,0.563C4.609,0.318 5.677,-0.02 6.826,-0.067C8.5,-0.137 9.775,0.587 10.823,1.756C11.72,2.758 12.355,3.909 12.205,5.35C12.141,5.968 12.18,6.596 12.127,7.216C12.033,8.327 11.811,8.584 10.722,8.694C9.95,8.772 9.166,8.784 8.39,8.751C7.025,8.693 5.676,8.814 4.316,8.908C2.888,9.008 1.441,8.842 0.003,8.792L0,8.871Z" style="fill:rgb(89,74,66);fill-rule:nonzero;"/>
            </g>
            <g transform="matrix(4.16667,0,0,4.16667,940.077,2771.52)">
                <path d="M0,-4.664C0.614,-4.712 1.224,-4.76 1.833,-4.807C2.06,-4.275 2.306,-3.751 2.507,-3.211C2.819,-2.375 3.165,-1.545 3.376,-0.683C3.64,0.392 3.451,0.754 2.433,1.099C1.481,1.42 0.494,1.722 -0.499,1.824C-2.623,2.044 -4.761,2.135 -6.895,2.264C-7.242,2.285 -7.608,2.292 -7.941,2.208C-9.448,1.832 -10.959,1.461 -12.445,1.01C-13.514,0.685 -13.504,0.551 -13.472,-0.605C-13.415,-2.609 -12.515,-4.099 -10.824,-5.118C-10.026,-5.6 -9.216,-6.085 -8.356,-6.432C-7.726,-6.687 -7.01,-6.785 -6.324,-6.841C-4.919,-6.956 -3.636,-6.422 -2.417,-5.836C-1.788,-5.534 -1.311,-4.915 -0.765,-4.439C-0.647,-4.337 -0.546,-4.191 -0.41,-4.143C-0.249,-4.087 -0.058,-4.115 0.121,-4.107C0.083,-4.284 0.044,-4.46 0,-4.664" style="fill:rgb(89,74,66);fill-rule:nonzero;"/>
            </g>
            <g transform="matrix(4.16667,0,0,4.16667,901.546,2683.38)">
                <path d="M0,-16.009C0.364,-15.427 0.725,-14.961 0.969,-14.441C1.836,-12.595 2.938,-10.911 4.345,-9.438C5.006,-8.744 5.22,-8.043 4.825,-7.119C4.568,-6.52 4.473,-5.848 4.335,-5.202C4.107,-4.129 4.203,-3.807 5.146,-3.283C5.871,-2.881 5.904,-2.661 5.541,-2.007C5.466,-1.871 5.417,-1.722 5.357,-1.578C4.71,-0.02 4.709,0 2.988,-0.139C2.372,-0.189 1.753,-0.311 1.158,-0.478C0.576,-0.639 0.105,-1.213 0.201,-1.512C0.3,-1.822 0.785,-1.997 1.454,-1.89C1.95,-1.81 2.432,-1.643 2.923,-1.528C3.146,-1.476 3.386,-1.405 3.601,-1.443C3.753,-1.469 3.875,-1.665 4.011,-1.785C3.913,-1.895 3.836,-2.054 3.714,-2.105C3.176,-2.327 2.618,-2.502 2.082,-2.728C1.505,-2.97 1.104,-3.365 1.13,-4.052C1.149,-4.53 1.176,-4.994 1.759,-5.165C2.179,-5.288 2.157,-5.59 1.989,-5.904C1.897,-6.073 1.77,-6.225 1.657,-6.382C0.704,-7.707 -0.259,-9.025 -1.197,-10.36C-1.554,-10.867 -1.866,-11.408 -2.175,-11.947C-2.471,-12.463 -2.459,-12.998 -2.135,-13.496C-1.564,-14.374 -0.978,-15.242 0,-16.009" style="fill:rgb(254,220,196);fill-rule:nonzero;"/>
            </g>
            <g transform="matrix(4.16667,0,0,4.16667,1039.12,2680.73)">
                <path d="M0,-15.721C0.572,-14.97 1.013,-14.434 1.403,-13.865C1.684,-13.454 1.679,-13.045 1.4,-12.57C0.586,-11.18 -0.375,-9.943 -1.605,-8.881C-2.692,-7.945 -3.668,-6.876 -4.657,-5.833C-4.879,-5.599 -5.037,-5.236 -5.078,-4.913C-5.227,-3.74 -5.61,-2.787 -6.954,-2.623C-6.867,-2.062 -6.695,-1.814 -6.101,-1.861C-5.42,-1.913 -4.715,-1.829 -4.042,-1.7C-3.817,-1.657 -3.554,-1.31 -3.504,-1.063C-3.475,-0.917 -3.8,-0.593 -4.019,-0.526C-4.722,-0.311 -5.446,-0.161 -6.17,-0.029C-6.324,0 -6.584,-0.099 -6.67,-0.225C-7.263,-1.092 -7.851,-1.972 -7.904,-3.075C-7.911,-3.225 -7.906,-3.391 -7.85,-3.527C-7.472,-4.443 -7.608,-5.354 -7.838,-6.272C-7.98,-6.837 -8.074,-7.415 -8.214,-7.981C-8.311,-8.367 -8.174,-8.593 -7.801,-8.661C-7.153,-8.78 -6.498,-8.862 -5.851,-8.987C-5.602,-9.034 -5.307,-9.095 -5.135,-9.258C-4.067,-10.268 -3.067,-11.354 -1.962,-12.32C-1.443,-12.774 -1.06,-13.243 -0.826,-13.882C-0.629,-14.422 -0.357,-14.935 0,-15.721" style="fill:rgb(254,220,196);fill-rule:nonzero;"/>
            </g>
            <g transform="matrix(4.16667,0,0,4.16667,871.502,2573.24)">
                <path d="M0,-2.242C-0.823,-2.478 -1.513,-2.711 -2.22,-2.872C-3.464,-3.155 -4.476,-2.716 -5.115,-1.645C-5.231,-1.45 -5.344,-1.218 -5.346,-1.001C-5.348,-0.8 -5.255,-0.516 -5.105,-0.413C-4.812,-0.211 -4.74,-0.533 -4.625,-0.723C-4.483,-0.956 -4.342,-1.191 -4.176,-1.405C-3.788,-1.905 -3.278,-2.154 -2.639,-2.036C-1.608,-1.844 -0.574,-1.662 0.446,-1.42C1.143,-1.255 1.397,-0.447 1.004,0.181C-0.064,1.887 -2.124,2.531 -3.983,1.685C-4.577,1.414 -5.146,1.046 -5.648,0.628C-6.816,-0.346 -7.073,-2.631 -5.271,-3.779C-4.113,-4.516 -2.912,-4.773 -1.597,-4.501C-1.33,-4.445 -1.022,-4.233 -0.879,-4.003C-0.557,-3.485 -0.326,-2.911 0,-2.242" style="fill:rgb(254,220,196);fill-rule:nonzero;"/>
            </g>
            <g transform="matrix(4.16667,0,0,4.16667,939.383,2714.66)">
                <path d="M0,8.022C-1.016,8.286 -1.541,7.352 -2.3,6.942C-2.417,6.878 -2.46,6.513 -2.407,6.324C-1.854,4.327 -1.588,2.29 -1.503,0.226C-1.489,-0.125 -1.327,-0.264 -0.99,-0.229C0.053,-0.123 1.096,-0.008 2.14,0.085C2.549,0.122 2.674,0.335 2.622,0.707C2.313,2.899 2.011,5.091 1.692,7.281C1.604,7.886 1.458,7.998 0.864,8.045C0.787,8.051 0.709,8.046 0.631,8.044C0.437,8.039 0.242,8.031 0,8.022" style="fill:rgb(254,220,196);fill-rule:nonzero;"/>
            </g>
            <g transform="matrix(4.16667,0,0,4.16667,997.2,2750.98)">
                <path d="M0,-8.363C0.141,-7.426 0.294,-6.59 0.388,-5.747C0.517,-4.589 0.589,-3.424 0.706,-2.263C0.797,-1.351 0.753,-1.204 -0.063,-0.779C-0.51,-0.547 -0.981,-0.334 -1.467,-0.212C-2.315,0 -2.977,-0.452 -3.022,-1.301C-3.13,-3.281 -3.208,-5.263 -3.251,-7.246C-3.269,-8.06 -3.215,-8.057 -2.372,-8.086C-1.983,-8.098 -1.594,-8.116 -1.208,-8.158C-0.862,-8.197 -0.519,-8.273 0,-8.363" style="fill:rgb(254,220,196);fill-rule:nonzero;"/>
            </g>
            <g transform="matrix(4.16667,0,0,4.16667,966.381,2613.34)">
                <path d="M0,-4.852C-0.139,-4.472 -0.203,-4.21 -0.325,-3.98C-0.961,-2.784 -1.61,-1.594 -2.259,-0.405C-2.469,-0.02 -2.658,0 -2.944,-0.367C-3.907,-1.598 -4.628,-2.959 -5.162,-4.59C-4.261,-4.639 -3.438,-4.685 -2.616,-4.727C-1.808,-4.768 -1.001,-4.805 0,-4.852" style="fill:rgb(108,203,218);fill-rule:nonzero;"/>
            </g>
            <g transform="matrix(4.16667,0,0,4.16667,985.317,2612.27)">
                <path d="M0,-5.366C-0.305,-3.494 -0.693,-1.783 -1.461,0C-1.691,-0.282 -1.866,-0.422 -1.942,-0.602C-2.415,-1.712 -2.896,-2.819 -3.311,-3.951C-3.565,-4.645 -3.46,-4.74 -2.75,-4.863C-1.88,-5.013 -1.014,-5.179 0,-5.366" style="fill:rgb(108,203,218);fill-rule:nonzero;"/>
            </g>
            <g transform="matrix(4.16667,0,0,4.16667,927.484,2539.56)">
                <path d="M0,5.11C0.583,4.882 0.834,5.184 1.07,5.412C2.724,6.999 4.704,7.076 6.741,6.539C7.741,6.274 8.715,5.806 9.613,5.282C11.565,4.14 12.312,2.346 12.083,0.136C12.016,-0.506 11.849,-1.139 11.693,-1.958C11.355,-1.588 11.164,-1.358 10.947,-1.154C10.878,-1.088 10.697,-1.037 10.65,-1.077C10.545,-1.167 10.408,-1.34 10.435,-1.44C10.501,-1.693 10.608,-1.96 10.776,-2.156C11.499,-3 13.471,-3.373 14.473,-2.856C14.612,-2.784 14.789,-2.492 14.747,-2.421C14.65,-2.259 14.433,-2.079 14.259,-2.073C13.916,-2.059 13.57,-2.184 13.222,-2.205C12.836,-2.228 12.654,-2.077 12.77,-1.635C13.061,-0.534 13.055,0.591 13.005,1.724C12.963,2.695 12.654,3.556 12.094,4.325C10.461,6.567 6.315,8.483 2.876,7.418C1.64,7.035 0.703,6.281 0,5.11" style="fill:rgb(35,31,32);fill-rule:nonzero;"/>
            </g>
            <g transform="matrix(4.16667,0,0,4.16667,952.925,2505.65)">
                <path d="M0,5.763C-0.869,7.245 -2.193,7.712 -3.608,7.19C-4.534,6.848 -5.183,6.198 -5.604,5.326C-6.392,3.693 -6.456,1.984 -5.76,0.347C-4.962,-1.532 -3.475,-1.949 -1.607,-1.353C-1.006,-1.162 -0.477,-0.688 0.024,-0.27C0.234,-0.095 0.326,0.262 0.389,0.555C0.418,0.694 0.256,0.874 0.18,1.036C0.06,0.957 -0.113,0.907 -0.173,0.795C-0.59,0.023 -1.277,-0.391 -2.069,-0.662C-3.323,-1.09 -4.452,-0.615 -4.923,0.626C-5.503,2.156 -5.437,3.683 -4.602,5.121C-3.917,6.299 -2.935,6.665 -1.624,6.276C-1.364,6.199 -1.115,6.083 -0.856,5.998C-0.646,5.93 -0.428,5.879 0,5.763" style="fill:rgb(35,31,32);fill-rule:nonzero;"/>
            </g>
            <g transform="matrix(4.16667,0,0,4.16667,969.86,2494.94)">
                <path d="M0,0.838C-0.034,1.153 -0.029,1.552 -0.127,1.923C-0.303,2.584 -0.93,2.827 -1.497,2.442C-1.773,2.255 -2.065,1.977 -2.174,1.676C-2.564,0.605 -2.537,-0.463 -1.844,-1.428C-1.481,-1.932 -0.976,-1.989 -0.572,-1.518C-0.31,-1.213 -0.133,-0.794 -0.034,-0.397C0.058,-0.03 -0.006,0.376 0,0.838" style="fill:rgb(35,31,32);fill-rule:nonzero;"/>
            </g>
            <g transform="matrix(4.16667,0,0,4.16667,922.129,2503.61)">
                <path d="M0,-0.399C-0.176,0.294 -0.277,0.913 -0.494,1.49C-0.722,2.094 -1.249,2.195 -1.683,1.711C-1.983,1.376 -2.248,0.946 -2.353,0.515C-2.551,-0.298 -2.389,-1.115 -2.037,-1.876C-1.867,-2.244 -1.577,-2.594 -1.149,-2.497C-0.849,-2.428 -0.479,-2.173 -0.361,-1.905C-0.149,-1.424 -0.104,-0.872 0,-0.399" style="fill:rgb(35,31,32);fill-rule:nonzero;"/>
            </g>
            <g transform="matrix(4.16667,0,0,4.16667,1027.7,2524.32)">
                <path d="M0,2.537C0.096,0.811 2.026,-0.747 3.673,-0.449C3.962,-0.398 4.251,-0.234 4.489,-0.055C4.602,0.03 4.594,0.275 4.641,0.448C4.474,0.489 4.27,0.613 4.147,0.557C3.716,0.361 3.313,0.192 2.811,0.309C1.699,0.571 1.146,1.374 0.755,2.342C0.684,2.516 0.737,2.741 0.661,2.91C0.594,3.058 0.426,3.161 0.303,3.284C0.207,3.135 0.091,2.993 0.021,2.832C-0.022,2.732 0.003,2.602 0,2.537" style="fill:rgb(35,31,32);fill-rule:nonzero;"/>
            </g>
        </g>
    </g>
</svg>
