<?xml version="1.0" encoding="UTF-8" standalone="no"?>
<!DOCTYPE svg PUBLIC "-//W3C//DTD SVG 1.1//EN" "http://www.w3.org/Graphics/SVG/1.1/DTD/svg11.dtd">
<svg width="100%" height="100%" viewBox="0 0 241 412" version="1.1" xmlns="http://www.w3.org/2000/svg" xmlns:xlink="http://www.w3.org/1999/xlink" xml:space="preserve" xmlns:serif="http://www.serif.com/" style="fill-rule:evenodd;clip-rule:evenodd;stroke-linejoin:round;stroke-miterlimit:2;">
    <g transform="matrix(1,0,0,1,-1067,-2372)">
        <g>
            <g transform="matrix(4.16667,0,0,4.16667,1212.08,2489.39)">
                <path d="M0,42.201C-0.135,42.362 -0.27,42.457 -0.257,42.522C-0.226,42.69 -0.128,42.846 -0.057,43.006C0.022,42.932 0.17,42.855 0.167,42.787C0.156,42.616 0.077,42.45 0,42.201M-16.071,44.899C-16.055,44.114 -16.034,43.508 -16.04,42.901C-16.04,42.815 -16.179,42.654 -16.238,42.661C-16.364,42.677 -16.53,42.75 -16.591,42.851C-17.004,43.542 -16.917,43.919 -16.071,44.899M5.283,47.511C3.878,47.472 3.835,47.507 3.692,48.727C4.703,48.735 4.757,48.695 5.283,47.511M-20.68,50.825C-21.038,50.928 -21.336,50.998 -21.62,51.107C-21.696,51.137 -21.793,51.318 -21.766,51.373C-21.549,51.806 -21.36,52.274 -21.044,52.626C-20.91,52.776 -20.447,52.767 -20.223,52.654C-20.076,52.58 -20.018,52.18 -20.049,51.941C-20.088,51.649 -20.247,51.367 -20.386,51.097C-20.446,50.981 -20.588,50.906 -20.68,50.825M-7.557,23.523C-7.674,23.52 -7.79,23.516 -7.906,23.516C-8.853,23.515 -9.193,24.074 -8.752,24.917C-8.682,25.052 -8.57,25.167 -8.465,25.28C-8.254,25.507 -8.037,25.728 -7.817,25.947C-7.325,26.437 -7.307,26.414 -6.74,26.11C-6.211,25.825 -6.068,25.417 -6.155,24.858C-6.358,23.558 -5.94,23.551 -7.557,23.523M-11.389,26.122C-11.354,26.126 -11.32,26.131 -11.285,26.135C-11.294,26.562 -11.376,27.005 -11.296,27.414C-11.155,28.13 -10.996,28.865 -10.691,29.52C-10.369,30.212 -9.79,30.225 -9.3,29.655C-9.124,29.45 -8.98,29.215 -8.835,28.985C-7.985,27.635 -8.031,26.95 -9.132,25.832C-9.495,25.463 -9.652,25.081 -9.605,24.585C-9.587,24.391 -9.605,24.196 -9.597,24.002C-9.579,23.587 -9.82,23.485 -10.182,23.465C-10.644,23.438 -10.953,23.63 -11.044,24.068C-11.185,24.747 -11.276,25.436 -11.389,26.122M-3.311,26.706C-3.229,25.819 -3.373,24.912 -3.855,24.078C-4.156,23.557 -4.443,23.449 -5.008,23.581C-5.511,23.699 -5.385,24.106 -5.392,24.426C-5.399,24.771 -5.373,25.127 -5.294,25.462C-5.175,25.966 -5.38,26.274 -5.783,26.526C-6.144,26.752 -6.501,26.986 -6.837,27.246C-7.101,27.45 -7.201,27.726 -7.079,28.072C-6.73,29.059 -6.173,29.873 -5.204,30.34C-4.539,30.659 -4.317,30.59 -4.028,29.918C-3.598,28.916 -3.286,27.879 -3.311,26.706M-27.893,10.307C-27.658,8.87 -27.808,8.522 -28.809,8.163C-30.321,7.619 -31.995,8.263 -32.646,9.719C-33.655,11.979 -32.758,13.95 -30.631,15.25C-29.468,15.961 -27.765,15.701 -26.82,14.859C-26.619,14.68 -26.527,14.538 -26.627,14.272C-26.902,13.547 -27.128,12.802 -27.437,12.091C-27.551,11.828 -27.806,11.58 -28.06,11.434C-28.774,11.024 -29.518,10.68 -30.375,11.077C-30.478,11.125 -30.712,11.066 -30.772,10.979C-30.836,10.888 -30.811,10.677 -30.746,10.562C-30.515,10.158 -30.13,9.943 -29.677,9.989C-29.106,10.048 -28.543,10.187 -27.893,10.307M13.29,9.397C13.668,9.347 13.964,9.266 14.256,9.279C14.792,9.304 15.332,9.348 15.854,9.461C15.997,9.491 16.082,9.789 16.193,9.965C16.026,10.019 15.858,10.121 15.691,10.121C15.23,10.12 14.769,10.043 14.309,10.06C13.557,10.089 13.121,10.476 12.956,11.246C12.803,11.961 12.54,12.653 12.308,13.349C12.147,13.828 12.207,14.035 12.68,14.086C14.949,14.332 17.017,13.911 18.634,12.147C18.785,11.982 18.948,11.766 18.977,11.556C19.155,10.235 19.246,8.92 18.359,7.766C17.235,6.302 15.683,5.858 14.142,6.428C13.763,6.567 13.452,6.781 13.428,7.249C13.393,7.936 13.341,8.624 13.29,9.397M0.429,47.448C0.649,47.035 0.739,46.83 0.86,46.645C1.073,46.325 1.288,46.002 1.539,45.713C1.608,45.634 1.855,45.611 1.942,45.674C2.029,45.735 2.076,45.957 2.035,46.07C1.958,46.285 1.792,46.466 1.687,46.673C1.513,47.019 1.332,47.366 1.202,47.729C1.092,48.036 1.094,48.414 1.449,48.525C1.704,48.605 2.041,48.521 2.311,48.426C2.468,48.37 2.577,48.155 2.687,47.996C3.09,47.411 3.298,46.787 3.352,46.052C3.396,45.44 3.509,44.995 2.861,44.591C2.415,44.312 2.2,43.729 2.306,43.143C2.329,43.014 2.474,42.847 2.594,42.814C2.678,42.791 2.853,42.942 2.925,43.055C3.147,43.404 3.29,43.817 3.562,44.118C3.772,44.351 4.287,44.392 4.378,44.63C4.479,44.892 4.255,45.282 4.167,45.615C4.137,45.728 4.081,45.834 4.056,45.947C3.919,46.561 4.203,46.845 4.812,46.683C4.995,46.635 5.166,46.53 5.332,46.432C6.148,45.949 6.428,45.182 6.51,44.283C6.631,42.932 5.979,41.943 4.638,41.815C3.804,41.735 3.482,41.302 3.276,40.631C2.797,39.071 2.322,37.51 1.853,35.946C1.538,34.899 1.544,34.898 0.433,34.915C0.355,34.916 0.277,34.91 0.199,34.915C-0.341,34.951 -0.406,35.014 -0.347,35.548C-0.261,36.319 -0.109,37.086 -0.066,37.858C0.015,39.345 0.335,40.777 0.793,42.184C1.056,42.992 1.093,43.031 0.384,43.488C-0.065,43.777 -0.179,44.081 -0.011,44.55C0.045,44.707 0.075,44.873 0.105,44.988C0.404,44.764 0.64,44.464 0.92,44.415C1.175,44.37 1.132,44.914 0.743,45.505C0.7,45.569 0.656,45.638 0.599,45.687C0.11,46.121 0.165,46.633 0.429,47.448M-16.001,48.99C-15.881,47.562 -15.642,46.237 -16.847,45.227C-16.905,45.179 -16.938,45.1 -16.988,45.042C-17.508,44.425 -17.665,43.755 -17.36,42.976C-17.269,42.743 -17.209,42.407 -17.31,42.203C-17.597,41.62 -17.469,41.051 -17.347,40.49C-16.992,38.856 -16.599,37.231 -16.22,35.603C-16.124,35.186 -16.011,34.773 -15.939,34.352C-15.917,34.219 -15.958,34.021 -16.049,33.93C-16.554,33.422 -17.253,33.571 -17.497,34.225C-17.565,34.408 -17.614,34.597 -17.666,34.785C-18.391,37.45 -19.167,40.103 -19.814,42.788C-20.071,43.855 -20.3,44.811 -21.498,45.153C-21.568,45.173 -21.626,45.239 -21.688,45.287C-22.625,46.005 -22.915,46.943 -22.498,48.067C-22.328,48.527 -22.291,48.946 -22.437,49.426C-22.602,49.97 -22.479,50.119 -21.959,50.269C-21.365,50.44 -20.958,50.262 -20.768,49.671C-20.662,49.345 -20.604,48.976 -20.636,48.638C-20.682,48.15 -21.052,47.554 -20.875,47.22C-20.661,46.815 -20.02,46.637 -19.565,46.357C-19.5,46.317 -19.447,46.226 -19.381,46.219C-19.213,46.2 -19.041,46.214 -18.87,46.215C-18.891,46.392 -18.861,46.6 -18.945,46.739C-19.062,46.932 -19.243,47.11 -19.436,47.23C-19.852,47.487 -20.023,47.805 -19.915,48.302C-19.858,48.561 -19.939,48.847 -19.906,49.115C-19.789,50.09 -19.56,51.036 -18.943,51.826C-18.792,52.019 -18.512,52.112 -18.292,52.251C-18.195,51.974 -18.053,51.704 -18.017,51.421C-17.988,51.201 -18.066,50.955 -18.143,50.737C-18.285,50.334 -18.467,49.944 -18.621,49.545C-18.728,49.269 -18.756,48.956 -18.408,48.882C-18.246,48.847 -17.947,49.007 -17.856,49.163C-17.564,49.666 -17.355,50.217 -17.082,50.732C-16.927,51.024 -16.776,51.535 -16.394,51.36C-16.128,51.24 -16.003,50.74 -15.896,50.385C-15.856,50.256 -16.025,50.034 -16.144,49.892C-16.417,49.565 -16.73,49.271 -17.001,48.942C-17.145,48.768 -17.27,48.561 -17.332,48.348C-17.364,48.234 -17.282,48.015 -17.183,47.956C-17.083,47.895 -16.84,47.918 -16.763,48.001C-16.508,48.274 -16.3,48.592 -16.001,48.99M4.692,68.338C6.312,68.316 7.881,68.008 9.447,67.718C9.895,67.635 10.324,67.408 10.733,67.192C10.921,67.094 11.158,66.866 11.164,66.69C11.186,66.042 11.302,65.359 10.895,64.77C9.94,63.394 9.007,62.002 7.478,61.162C7.105,60.957 6.799,60.636 6.431,60.421C5.358,59.795 4.269,59.198 3.189,58.584C2.694,58.303 2.232,58.369 1.761,58.653C0.298,59.535 -1.273,59.822 -2.95,59.466C-3.456,59.358 -3.775,59.576 -3.982,60.012C-4.083,60.222 -4.188,60.432 -4.26,60.654C-4.825,62.404 -5.192,64.187 -5.113,66.04C-5.08,66.804 -5.034,66.871 -4.317,67.132C-4.098,67.212 -3.875,67.305 -3.647,67.333C-0.868,67.674 1.912,68.005 4.692,68.338M-19.146,69.724C-18.054,69.648 -16.889,69.587 -15.728,69.479C-14.411,69.358 -13.086,69.263 -11.786,69.035C-10.451,68.8 -9.108,68.538 -7.919,67.793C-7.29,67.398 -7.013,66.888 -6.998,66.159C-6.954,64.046 -7.402,62.067 -8.484,60.237C-8.706,59.861 -8.945,59.612 -9.41,59.739C-10.756,60.108 -12.122,59.909 -13.48,59.875C-14.851,59.841 -16.221,59.887 -17.526,60.321C-20.014,61.149 -21.987,62.692 -23.439,64.868C-23.757,65.344 -23.959,65.912 -24.136,66.463C-24.39,67.255 -24.138,68.006 -23.773,68.708C-23.455,69.32 -22.817,69.327 -22.246,69.398C-21.243,69.524 -20.235,69.612 -19.146,69.724M-7.558,46.442C-7.558,46.452 -7.558,46.461 -7.557,46.47C-7.05,46.458 -6.544,46.444 -6.037,46.433C-5.688,46.427 -5.472,46.52 -5.41,46.939C-4.995,49.747 -4.563,52.553 -4.111,55.354C-3.962,56.275 -3.732,57.181 -3.545,58.096C-3.475,58.437 -3.301,58.664 -2.935,58.699C-1.681,58.82 -0.438,58.839 0.729,58.258C1.45,57.899 1.542,57.719 1.281,56.973C0.44,54.573 0.063,52.076 -0.282,49.573C-0.574,47.455 -0.842,45.334 -1.109,43.213C-1.161,42.805 -1.355,42.678 -1.742,42.77C-2.007,42.835 -2.275,42.885 -2.544,42.928C-3.542,43.09 -4.538,43.351 -5.54,43.384C-8.54,43.478 -11.54,43.439 -14.515,42.948C-15.136,42.846 -15.174,42.872 -15.168,43.532C-15.157,44.894 -15.032,46.261 -15.085,47.62C-15.229,51.264 -14.431,54.815 -14.095,58.411C-14.067,58.706 -13.937,58.918 -13.609,58.977C-12.249,59.222 -10.899,59.171 -9.555,58.861C-9.164,58.771 -9.07,58.513 -9.129,58.163C-9.161,57.972 -9.204,57.781 -9.254,57.594C-10.067,54.6 -10.187,51.526 -10.315,48.454C-10.332,48.065 -10.303,47.675 -10.281,47.286C-10.256,46.826 -9.999,46.568 -9.543,46.538C-8.882,46.495 -8.22,46.473 -7.558,46.442M-7.86,29.009C-8.187,29.436 -8.48,29.899 -8.852,30.287C-9.676,31.149 -10.686,31.081 -11.274,30.039C-11.647,29.379 -11.893,28.602 -11.997,27.85C-12.113,27.012 -12.01,26.142 -11.99,25.287C-11.975,24.603 -12.088,24.505 -12.707,24.804C-14.312,25.582 -15.638,26.73 -16.789,28.066C-17.42,28.8 -17.964,29.621 -18.458,30.455C-18.869,31.147 -18.774,31.506 -18.13,31.952C-17.59,32.326 -16.996,32.638 -16.393,32.902C-15.862,33.136 -15.652,32.994 -15.466,32.388C-15.329,31.942 -15.23,31.484 -15.114,31.032C-14.833,29.94 -14.56,28.846 -14.26,27.759C-14.229,27.645 -14.043,27.574 -13.929,27.484C-13.847,27.598 -13.702,27.71 -13.695,27.829C-13.682,28.056 -13.729,28.293 -13.782,28.518C-14.208,30.336 -14.644,32.15 -15.073,33.967C-15.6,36.2 -16.129,38.433 -16.646,40.67C-16.846,41.535 -16.772,41.658 -15.904,41.92C-15.572,42.02 -15.221,42.063 -14.875,42.109C-14.296,42.186 -13.716,42.259 -13.135,42.308C-11.624,42.437 -10.113,42.601 -8.599,42.659C-7.513,42.7 -6.41,42.68 -5.337,42.526C-3.881,42.318 -2.436,41.998 -1.007,41.642C-0.366,41.482 -0.371,41.357 -0.501,40.694C-0.583,40.275 -0.709,39.86 -0.755,39.437C-0.934,37.775 -1.129,36.113 -1.244,34.446C-1.37,32.623 -1.418,30.794 -1.49,28.968C-1.5,28.697 -1.487,28.418 -1.425,28.157C-1.397,28.04 -1.229,27.888 -1.115,27.88C-1,27.871 -0.791,28.001 -0.767,28.104C-0.681,28.477 -0.628,28.864 -0.61,29.248C-0.543,30.645 -0.484,32.043 -0.447,33.441C-0.435,33.894 -0.235,34.052 0.197,34.062C1.461,34.097 2.681,33.974 3.812,33.327C4.855,32.729 4.874,32.745 4.196,31.692C3.901,31.234 3.573,30.798 3.261,30.35C2.322,29.013 1.362,27.691 0.454,26.334C-0.266,25.258 -1.265,24.76 -2.546,24.599C-2.551,24.847 -2.584,25.004 -2.553,25.146C-2.15,26.982 -2.58,28.706 -3.3,30.372C-3.726,31.357 -4.248,31.556 -5.272,31.222C-5.564,31.128 -5.872,30.992 -6.092,30.788C-6.684,30.241 -7.232,29.648 -7.86,29.009M-24.01,-4.45C-23.934,-4.04 -23.862,-3.585 -23.763,-3.136C-23.513,-2.007 -23.837,-1.027 -24.644,-0.255C-25.265,0.34 -25.603,1.056 -25.875,1.832C-26.842,4.592 -27.089,7.458 -26.895,10.34C-26.785,11.969 -26.165,13.515 -25.402,14.976C-24.781,16.165 -24.002,17.239 -22.931,18.054C-21.216,19.358 -19.406,20.497 -17.272,21.015C-16.705,21.153 -16.161,21.391 -15.592,21.516C-13.997,21.868 -12.406,22.296 -10.789,22.482C-9.168,22.668 -7.518,22.613 -5.88,22.632C-5.379,22.638 -4.869,22.578 -4.376,22.479C-1.144,21.833 1.919,20.711 4.812,19.131C5.016,19.019 5.197,18.868 5.384,18.727C5.94,18.307 6.47,17.843 7.056,17.467C9.841,15.679 11.832,13.362 12.178,9.926C12.44,7.315 12.393,4.716 11.823,2.144C11.678,1.484 11.649,1.49 10.947,1.639C10.681,1.697 10.417,1.783 10.147,1.811C8.884,1.947 7.535,1.116 7.512,-0.365C7.51,-0.522 7.509,-0.678 7.505,-0.833C7.484,-1.598 7.483,-1.592 6.779,-1.698C6.474,-1.745 6.163,-1.796 5.871,-1.895C4.87,-2.234 4.19,-2.898 4.048,-3.969C3.973,-4.537 3.945,-5.143 4.06,-5.697C4.236,-6.554 4.555,-7.38 4.829,-8.275C4.062,-8.436 3.258,-8.479 2.571,-8.785C1.899,-9.086 1.347,-9.654 0.741,-10.107C-1.891,-6.473 -6.926,-7.668 -7.603,-11.513C-8.804,-10.737 -10.086,-10.631 -11.429,-10.979C-12.749,-11.32 -13.303,-11.941 -13.489,-13.32C-13.509,-13.466 -13.558,-13.608 -13.597,-13.768C-13.753,-13.731 -13.872,-13.722 -13.974,-13.676C-14.906,-13.251 -15.088,-13.432 -14.947,-12.291C-14.854,-11.548 -15.166,-10.931 -15.681,-10.396C-16.402,-9.647 -17.273,-9.148 -18.238,-8.8C-18.64,-8.655 -19.057,-8.55 -19.47,-8.435C-19.759,-8.354 -19.945,-8.207 -19.965,-7.876C-20.04,-6.643 -20.839,-5.9 -21.815,-5.354C-22.482,-4.981 -23.236,-4.762 -24.01,-4.45M-12.604,-21.199C-13.887,-21.598 -14.239,-21.654 -15.056,-21.303C-15.657,-21.045 -16.26,-20.722 -16.758,-20.304C-18.067,-19.203 -18.511,-16.902 -17.783,-15.361C-17.486,-14.733 -17.058,-14.19 -16.343,-14.112C-15.039,-13.971 -13.868,-14.269 -13.061,-15.429C-12.907,-15.65 -12.734,-15.868 -12.526,-16.033C-12.439,-16.102 -12.2,-16.077 -12.099,-16.003C-12.001,-15.932 -11.936,-15.73 -11.958,-15.604C-11.991,-15.42 -12.087,-15.231 -12.204,-15.081C-12.589,-14.584 -12.613,-14.002 -12.652,-13.416C-12.703,-12.651 -12.357,-12.143 -11.65,-11.886C-10.368,-11.42 -9.151,-11.427 -8,-12.298C-7.063,-13.009 -6.89,-12.918 -6.731,-11.806C-6.709,-11.652 -6.68,-11.498 -6.643,-11.348C-6.261,-9.79 -5.257,-9.013 -3.653,-8.869C-2.17,-8.737 -1.074,-9.32 -0.242,-10.479C0.144,-11.015 0.443,-11.612 0.825,-12.153C0.938,-12.314 1.215,-12.472 1.387,-12.445C1.521,-12.422 1.652,-12.123 1.706,-11.926C1.755,-11.748 1.687,-11.54 1.688,-11.346C1.698,-10.403 2.127,-9.736 3.03,-9.541C3.78,-9.38 4.574,-9.321 5.34,-9.363C6.873,-9.448 7.846,-10.317 8.314,-11.762C8.411,-12.058 8.478,-12.363 8.587,-12.653C8.622,-12.744 8.782,-12.872 8.839,-12.853C8.963,-12.809 9.133,-12.696 9.153,-12.587C9.28,-11.916 9.167,-11.271 8.86,-10.659C8.442,-9.827 7.782,-9.238 6.982,-8.79C5.246,-7.814 4.868,-6.186 4.956,-4.395C5.009,-3.311 5.688,-2.727 6.768,-2.611C7.297,-2.554 7.756,-2.635 8.159,-3.04C8.265,-3.148 8.644,-3.139 8.766,-3.032C8.892,-2.923 8.866,-2.63 8.883,-2.415C8.888,-2.353 8.816,-2.278 8.768,-2.218C8.301,-1.645 8.384,-0.967 8.442,-0.314C8.499,0.316 8.845,0.685 9.468,0.791C9.802,0.847 10.17,0.829 10.502,0.751C11.03,0.628 11.535,0.402 12.062,0.268C12.297,0.209 12.581,0.22 12.803,0.304C12.87,0.329 12.876,0.743 12.786,0.914C12.577,1.309 12.679,1.65 12.803,2.033C12.935,2.436 13.016,2.861 13.075,3.282C13.168,3.936 13.223,4.597 13.298,5.253C13.342,5.643 13.54,5.805 13.937,5.679C14.879,5.379 15.82,5.23 16.81,5.506C17.064,5.577 17.453,5.475 17.671,5.309C18.351,4.791 18.999,4.225 19.619,3.636C20.191,3.091 20.372,2.404 20.258,1.606C20.147,0.832 19.776,0.24 19.257,-0.322C18.633,-0.997 18.711,-1.429 19.475,-1.929C19.898,-2.206 20.357,-2.429 20.778,-2.71C22.243,-3.687 22.506,-4.616 21.727,-6.188C21.505,-6.636 21.215,-7.07 20.872,-7.432C20.557,-7.764 20.132,-7.993 19.75,-8.262C19.207,-8.645 19.165,-8.87 19.584,-9.398C19.777,-9.641 20.015,-9.848 20.22,-10.083C21.86,-11.968 21.68,-14.581 19.798,-16.228C19.183,-16.766 18.503,-17.103 17.657,-16.865C17.394,-16.791 17.065,-16.647 16.942,-16.967C16.871,-17.154 17.038,-17.446 17.13,-17.679C17.186,-17.82 17.318,-17.928 17.392,-18.065C18.132,-19.445 18.105,-21.55 16.213,-22.643C15.279,-23.182 14.277,-23.517 13.215,-23.515C12.044,-23.512 10.768,-23.743 9.913,-22.547C9.833,-22.436 9.435,-22.425 9.291,-22.523C9.161,-22.611 9.074,-22.963 9.146,-23.112C9.466,-23.771 9.146,-24.234 8.762,-24.697C8.202,-25.375 7.491,-25.831 6.687,-26.172C5.646,-26.612 4.553,-26.621 3.463,-26.571C2.057,-26.506 0.75,-26.223 0.109,-24.716C-0.07,-24.296 -0.496,-24.327 -0.629,-24.789C-0.84,-25.524 -1.435,-25.816 -1.986,-26.161C-3.763,-27.274 -5.736,-27.471 -7.739,-27.159C-9.067,-26.952 -10.444,-26.694 -11.31,-25.424C-11.411,-25.276 -11.807,-25.242 -12.038,-25.289C-12.333,-25.351 -12.594,-25.562 -12.88,-25.686C-13.923,-26.136 -14.981,-26.542 -16.148,-26.462C-17.72,-26.355 -19.231,-25.981 -20.648,-25.291C-21.819,-24.722 -22.323,-24.289 -21.49,-23.072C-21.153,-22.582 -21.43,-22.197 -22.001,-22.32C-24.195,-22.792 -25.862,-21.763 -27.429,-20.465C-28.286,-19.755 -28.752,-18.835 -28.627,-17.688C-28.545,-16.939 -28.36,-16.228 -27.739,-15.718C-27.496,-15.519 -27.168,-15.294 -27.377,-14.96C-27.623,-14.568 -27.981,-14.836 -28.315,-14.93C-28.721,-15.044 -29.155,-15.143 -29.569,-15.118C-31.276,-15.017 -32.46,-14.077 -33.298,-12.652C-33.669,-12.02 -33.727,-11.348 -33.575,-10.62C-33.249,-9.058 -32.351,-8.053 -30.823,-7.597C-30.528,-7.509 -30.229,-7.413 -29.961,-7.266C-29.75,-7.151 -29.807,-6.771 -30.042,-6.704C-30.417,-6.6 -30.808,-6.556 -31.187,-6.467C-32.028,-6.27 -32.518,-5.805 -32.582,-4.955C-32.675,-3.705 -32.414,-2.545 -31.367,-1.702C-31.155,-1.532 -30.91,-1.401 -30.702,-1.226C-30.304,-0.891 -30.346,-0.561 -30.839,-0.347C-31.374,-0.114 -31.944,0.037 -32.476,0.274C-33.346,0.661 -33.803,1.328 -33.732,2.309C-33.652,3.414 -33.405,4.466 -32.771,5.396C-32.412,5.924 -31.96,6.343 -31.344,6.555C-30.186,6.953 -29.027,7.349 -27.782,7.776C-27.474,5.475 -27.217,3.175 -26.265,0.925C-26.974,0.91 -27.519,0.937 -28.053,0.877C-28.591,0.816 -28.89,0.488 -28.757,0.155C-28.577,-0.299 -28.249,-0.006 -27.973,0.057C-25.969,0.513 -24.092,-1.311 -24.56,-3.294C-24.682,-3.815 -24.957,-4.3 -25.17,-4.799C-25.31,-5.127 -25.205,-5.343 -24.867,-5.401C-24.601,-5.445 -24.322,-5.41 -24.051,-5.434C-22.923,-5.532 -21.905,-5.904 -21.173,-6.799C-20.92,-7.11 -20.715,-7.54 -20.686,-7.931C-20.65,-8.42 -21.195,-8.273 -21.482,-8.416C-21.603,-8.476 -21.77,-8.648 -21.752,-8.736C-21.719,-8.898 -21.588,-9.132 -21.457,-9.162C-21.163,-9.232 -20.844,-9.206 -20.536,-9.197C-18.89,-9.15 -17.491,-9.747 -16.271,-10.816C-15.805,-11.225 -15.572,-11.73 -15.601,-12.365C-15.633,-13.058 -15.665,-13.234 -16.349,-13.328C-17.874,-13.539 -18.938,-15.245 -18.831,-16.691C-18.796,-17.156 -18.819,-17.628 -18.76,-18.091C-18.498,-20.143 -16.062,-22.124 -14,-21.978C-13.457,-21.939 -12.96,-21.803 -12.604,-21.199M18.295,-17.859C19.32,-17.555 20.138,-17.023 20.835,-16.241C22.204,-14.707 22.732,-11.595 21.017,-9.675C20.99,-9.646 20.966,-9.615 20.942,-9.585C20.436,-8.912 20.44,-8.918 21.027,-8.389C21.315,-8.128 21.64,-7.879 21.841,-7.559C22.189,-7.002 22.566,-6.424 22.734,-5.802C23.119,-4.385 22.9,-3.088 21.605,-2.16C21.072,-1.778 20.533,-1.403 19.947,-0.989C20.14,-0.709 20.312,-0.457 20.484,-0.206C20.869,0.352 21.045,0.965 21.101,1.649C21.201,2.885 20.785,3.854 19.834,4.631C19.264,5.097 18.719,5.594 17.944,6.265C18.281,6.493 18.582,6.626 18.788,6.846C19.868,8.003 20.215,9.408 20.084,10.95C19.923,12.847 18.597,13.793 17.049,14.47C15.477,15.157 13.817,15.321 12.138,14.856C11.691,14.732 11.402,14.854 11.142,15.219C10.118,16.646 8.661,17.564 7.225,18.504C7.094,18.59 6.944,18.651 6.828,18.752C4.377,20.874 1.417,21.927 -1.637,22.783C-2.146,22.926 -2.646,23.092 -3.185,23.257C-2.938,23.754 -2.499,23.735 -2.156,23.871C-1.686,24.056 -1.193,24.187 -0.725,24.38C0.09,24.714 0.709,25.268 1.21,26.007C2.106,27.328 3.073,28.599 3.993,29.905C4.509,30.637 5.012,31.381 5.475,32.147C5.865,32.794 5.802,33.099 5.139,33.495C4.406,33.932 3.635,34.316 2.849,34.648C2.453,34.814 2.252,34.98 2.39,35.41C2.933,37.117 3.479,38.822 4.019,40.53C4.15,40.95 4.401,41.092 4.854,41.18C6.679,41.531 7.502,42.722 7.25,44.554C7.154,45.248 6.983,45.912 6.503,46.488C6.248,46.795 6.132,47.236 6.013,47.635C5.64,48.881 4.895,49.552 3.81,49.534C3.546,49.53 3.285,49.42 3.02,49.374C2.802,49.337 2.549,49.242 2.365,49.312C1.789,49.533 1.294,49.363 0.789,49.046C0.719,49.182 0.624,49.279 0.633,49.365C0.884,51.805 1.313,54.21 2.034,56.561C2.217,57.158 2.608,57.389 3.135,57.635C4.364,58.211 5.556,58.87 6.736,59.541C7.275,59.847 7.732,60.295 8.265,60.616C9.822,61.556 10.82,63.005 11.746,64.49C12.287,65.357 12.102,66.368 11.882,67.321C11.844,67.483 11.656,67.653 11.495,67.737C10.945,68.023 10.4,68.388 9.809,68.515C8.095,68.885 6.35,69.202 4.595,69.084C2.383,68.935 0.181,68.637 -2.024,68.384C-2.757,68.299 -3.496,68.207 -4.21,68.028C-5.477,67.713 -5.785,67.261 -5.78,65.966C-5.771,63.679 -5.38,61.478 -4.349,59.41C-4.224,59.159 -4.212,58.807 -4.259,58.521C-4.805,55.143 -5.358,51.766 -5.94,48.394C-6.221,46.77 -5.857,46.951 -7.531,47.061C-7.997,47.092 -8.467,47.061 -8.935,47.081C-9.524,47.105 -9.598,47.183 -9.571,47.789C-9.404,51.566 -9.073,55.324 -8.067,58.988C-7.924,59.508 -7.704,60.018 -7.443,60.491C-6.365,62.443 -6.136,64.54 -6.265,66.72C-6.301,67.322 -6.533,67.801 -7.009,68.101C-7.662,68.515 -8.338,68.939 -9.063,69.185C-10.391,69.636 -11.776,69.859 -13.185,69.959C-14.659,70.064 -16.129,70.246 -17.597,70.428C-19.323,70.641 -21.026,70.407 -22.718,70.147C-24.214,69.918 -24.928,68.896 -25.004,67.233C-25.066,65.888 -24.449,64.801 -23.672,63.822C-22.168,61.928 -20.331,60.456 -17.969,59.72C-17.136,59.46 -16.301,59.365 -15.434,59.386C-14.789,59.401 -14.781,59.326 -14.864,58.725C-15.053,57.344 -15.208,55.957 -15.379,54.572C-15.456,53.955 -15.532,53.337 -15.618,52.721C-15.66,52.418 -15.779,52.213 -16.158,52.29C-16.34,52.326 -16.561,52.316 -16.73,52.246C-17.053,52.112 -17.244,52.202 -17.39,52.494C-17.698,53.108 -18.216,53.183 -18.774,52.942C-19.127,52.789 -19.298,52.873 -19.57,53.12C-20.305,53.788 -21.04,53.742 -21.717,53.037C-21.928,52.817 -22.107,52.549 -22.24,52.273C-22.572,51.585 -22.587,50.772 -23.147,50.156C-23.299,49.989 -23.239,49.545 -23.152,49.266C-23.04,48.91 -23.04,48.616 -23.166,48.26C-23.677,46.81 -23.145,45.257 -21.759,44.596C-21.014,44.239 -20.809,43.763 -20.625,43.04C-19.867,40.06 -19.048,37.095 -18.195,34.14C-18.002,33.472 -17.871,32.953 -18.624,32.597C-18.758,32.534 -18.85,32.386 -18.968,32.284C-19.544,31.792 -19.652,31.24 -19.367,30.512C-18.884,29.282 -18.057,28.302 -17.217,27.333C-16.267,26.236 -15.146,25.319 -13.874,24.615C-13.369,24.337 -12.787,24.201 -12.248,23.979C-12.018,23.884 -11.631,23.747 -11.623,23.609C-11.595,23.176 -12.028,23.252 -12.307,23.184C-13.783,22.83 -15.265,22.501 -16.736,22.128C-19.148,21.516 -21.336,20.459 -23.287,18.889C-24.308,18.067 -25.126,17.101 -25.801,15.995C-25.901,15.831 -26.008,15.67 -26.167,15.421C-27.298,16.528 -28.635,16.607 -30.057,16.343C-31.435,16.086 -32.28,15.148 -33.083,14.113C-34.526,12.251 -34.129,8.984 -31.615,7.461C-33.602,6.503 -34.31,4.773 -34.558,2.755C-34.756,1.149 -34.217,0.135 -32.764,-0.552C-32.486,-0.684 -32.198,-0.795 -31.903,-0.92C-33.871,-3.445 -33.956,-5.375 -32.138,-7.112C-32.325,-7.284 -32.501,-7.463 -32.692,-7.623C-34.895,-9.464 -34.987,-12.517 -32.892,-14.47C-32.106,-15.203 -31.198,-15.713 -30.129,-15.907C-29.829,-15.962 -29.529,-16.011 -29.183,-16.07C-29.256,-16.467 -29.304,-16.805 -29.38,-17.137C-29.708,-18.558 -29.3,-19.784 -28.29,-20.771C-26.986,-22.043 -25.496,-23.008 -23.609,-23.202C-22.721,-23.293 -22.689,-23.319 -22.651,-24.208C-22.622,-24.884 -22.249,-25.278 -21.732,-25.599C-20.625,-26.286 -19.403,-26.689 -18.142,-26.964C-16.266,-27.374 -14.422,-27.305 -12.67,-26.426C-12.214,-26.197 -11.884,-26.195 -11.412,-26.528C-10.726,-27.014 -9.938,-27.442 -9.13,-27.657C-6.207,-28.44 -3.401,-28.171 -0.889,-26.337C-0.422,-25.997 -0.148,-26.059 0.323,-26.336C2.95,-27.882 5.604,-27.756 8.171,-26.202C8.779,-25.834 9.303,-25.236 9.698,-24.633C10.047,-24.101 10.368,-24.033 10.943,-24.131C12.336,-24.367 13.74,-24.37 15.11,-23.962C15.936,-23.715 16.707,-23.355 17.346,-22.741C18.52,-21.612 18.899,-20.267 18.521,-18.695C18.459,-18.437 18.383,-18.182 18.295,-17.859" style="fill:rgb(35,31,32);fill-rule:nonzero;"/>
            </g>
            <g transform="matrix(4.16667,0,0,4.16667,1159.56,2495.66)">
                <path d="M0,-22.705C-0.355,-23.309 -0.852,-23.444 -1.396,-23.483C-3.458,-23.63 -5.894,-21.648 -6.155,-19.597C-6.214,-19.134 -6.191,-18.662 -6.226,-18.196C-6.334,-16.751 -5.27,-15.045 -3.744,-14.834C-3.06,-14.739 -3.028,-14.563 -2.997,-13.871C-2.968,-13.235 -3.2,-12.73 -3.667,-12.321C-4.887,-11.253 -6.286,-10.655 -7.932,-10.703C-8.24,-10.712 -8.559,-10.737 -8.852,-10.668C-8.983,-10.638 -9.114,-10.403 -9.147,-10.241C-9.166,-10.153 -8.999,-9.981 -8.878,-9.922C-8.59,-9.778 -8.046,-9.926 -8.082,-9.436C-8.11,-9.046 -8.315,-8.615 -8.569,-8.305C-9.3,-7.41 -10.318,-7.038 -11.446,-6.939C-11.717,-6.916 -11.996,-6.951 -12.262,-6.906C-12.6,-6.849 -12.706,-6.633 -12.565,-6.305C-12.353,-5.806 -12.078,-5.32 -11.955,-4.8C-11.487,-2.816 -13.364,-0.993 -15.368,-1.448C-15.644,-1.512 -15.973,-1.805 -16.153,-1.351C-16.285,-1.018 -15.987,-0.689 -15.449,-0.629C-14.914,-0.568 -14.37,-0.596 -13.661,-0.581C-14.612,1.669 -14.87,3.97 -15.177,6.271C-16.422,5.844 -17.582,5.447 -18.739,5.049C-19.356,4.837 -19.808,4.418 -20.167,3.891C-20.801,2.96 -21.047,1.908 -21.127,0.804C-21.199,-0.178 -20.742,-0.845 -19.872,-1.231C-19.339,-1.469 -18.769,-1.62 -18.234,-1.852C-17.741,-2.066 -17.7,-2.396 -18.098,-2.731C-18.306,-2.906 -18.55,-3.038 -18.762,-3.208C-19.809,-4.051 -20.071,-5.211 -19.977,-6.461C-19.913,-7.31 -19.423,-7.775 -18.582,-7.973C-18.203,-8.061 -17.812,-8.105 -17.438,-8.21C-17.202,-8.276 -17.146,-8.656 -17.357,-8.771C-17.624,-8.919 -17.924,-9.015 -18.218,-9.102C-19.746,-9.559 -20.645,-10.563 -20.971,-12.126C-21.122,-12.853 -21.065,-13.525 -20.694,-14.157C-19.855,-15.583 -18.671,-16.522 -16.965,-16.624C-16.551,-16.648 -16.116,-16.55 -15.711,-16.435C-15.376,-16.342 -15.018,-16.073 -14.772,-16.466C-14.563,-16.8 -14.891,-17.024 -15.135,-17.224C-15.755,-17.733 -15.941,-18.444 -16.022,-19.193C-16.148,-20.341 -15.682,-21.261 -14.825,-21.971C-13.257,-23.268 -11.59,-24.298 -9.396,-23.826C-8.825,-23.703 -8.549,-24.088 -8.885,-24.578C-9.719,-25.795 -9.214,-26.227 -8.043,-26.797C-6.626,-27.486 -5.115,-27.86 -3.543,-27.968C-2.377,-28.048 -1.319,-27.642 -0.276,-27.191C0.01,-27.067 0.271,-26.856 0.566,-26.795C0.798,-26.748 1.193,-26.781 1.294,-26.93C2.161,-28.199 3.538,-28.458 4.866,-28.665C6.868,-28.976 8.841,-28.779 10.618,-27.667C11.17,-27.321 11.764,-27.029 11.976,-26.295C12.109,-25.833 12.535,-25.802 12.713,-26.222C13.355,-27.728 14.661,-28.012 16.067,-28.077C17.157,-28.127 18.251,-28.118 19.291,-27.678C20.096,-27.337 20.807,-26.881 21.366,-26.203C21.751,-25.739 22.07,-25.276 21.751,-24.618C21.679,-24.469 21.766,-24.116 21.896,-24.028C22.039,-23.931 22.437,-23.941 22.518,-24.053C23.372,-25.249 24.648,-25.018 25.819,-25.02C26.882,-25.022 27.884,-24.687 28.817,-24.148C30.71,-23.056 30.736,-20.95 29.996,-19.57C29.923,-19.434 29.79,-19.325 29.734,-19.184C29.643,-18.952 29.476,-18.66 29.547,-18.473C29.67,-18.152 29.998,-18.297 30.262,-18.371C31.107,-18.608 31.787,-18.271 32.402,-17.733C34.284,-16.087 34.465,-13.474 32.824,-11.589C32.619,-11.353 32.382,-11.146 32.188,-10.903C31.77,-10.376 31.812,-10.15 32.354,-9.767C32.736,-9.499 33.161,-9.269 33.477,-8.937C33.819,-8.576 34.109,-8.142 34.331,-7.693C35.11,-6.122 34.848,-5.192 33.383,-4.216C32.962,-3.934 32.503,-3.712 32.079,-3.434C31.315,-2.934 31.237,-2.503 31.861,-1.828C32.381,-1.266 32.752,-0.674 32.862,0.101C32.977,0.899 32.796,1.585 32.224,2.13C31.604,2.72 30.955,3.285 30.275,3.804C30.058,3.97 29.669,4.071 29.414,4C28.425,3.725 27.483,3.873 26.541,4.173C26.145,4.299 25.946,4.138 25.902,3.747C25.827,3.091 25.772,2.431 25.68,1.776C25.62,1.356 25.539,0.931 25.407,0.527C25.283,0.145 25.182,-0.196 25.391,-0.592C25.48,-0.763 25.475,-1.177 25.407,-1.202C25.186,-1.286 24.901,-1.297 24.667,-1.237C24.14,-1.103 23.635,-0.878 23.106,-0.755C22.774,-0.677 22.406,-0.658 22.072,-0.715C21.449,-0.82 21.104,-1.189 21.047,-1.819C20.988,-2.473 20.905,-3.15 21.372,-3.724C21.421,-3.783 21.492,-3.858 21.487,-3.921C21.471,-4.136 21.496,-4.429 21.37,-4.538C21.248,-4.644 20.869,-4.653 20.764,-4.546C20.36,-4.141 19.901,-4.059 19.372,-4.116C18.293,-4.232 17.613,-4.816 17.561,-5.9C17.473,-7.691 17.851,-9.319 19.587,-10.296C20.387,-10.744 21.047,-11.333 21.465,-12.165C21.771,-12.776 21.885,-13.422 21.758,-14.093C21.737,-14.202 21.567,-14.314 21.443,-14.358C21.387,-14.378 21.227,-14.25 21.191,-14.158C21.082,-13.869 21.016,-13.563 20.919,-13.267C20.45,-11.822 19.478,-10.954 17.944,-10.869C17.179,-10.827 16.385,-10.886 15.635,-11.047C14.731,-11.241 14.303,-11.909 14.293,-12.851C14.291,-13.046 14.359,-13.254 14.311,-13.432C14.257,-13.629 14.126,-13.928 13.991,-13.95C13.82,-13.977 13.543,-13.819 13.429,-13.658C13.047,-13.118 12.748,-12.52 12.362,-11.984C11.53,-10.825 10.434,-10.243 8.952,-10.375C7.347,-10.518 6.344,-11.296 5.961,-12.853C5.924,-13.004 5.896,-13.157 5.874,-13.311C5.715,-14.424 5.542,-14.515 4.604,-13.804C3.453,-12.933 2.236,-12.926 0.955,-13.392C0.247,-13.648 -0.098,-14.156 -0.047,-14.922C-0.008,-15.508 0.016,-16.09 0.401,-16.587C0.518,-16.736 0.614,-16.926 0.646,-17.109C0.668,-17.235 0.603,-17.437 0.506,-17.509C0.404,-17.583 0.166,-17.607 0.078,-17.539C-0.129,-17.374 -0.303,-17.155 -0.456,-16.934C-1.263,-15.774 -2.434,-15.476 -3.738,-15.617C-4.454,-15.695 -4.882,-16.238 -5.178,-16.866C-5.906,-18.407 -5.463,-20.709 -4.153,-21.809C-3.656,-22.227 -3.053,-22.551 -2.451,-22.809C-1.635,-23.16 -1.282,-23.103 0,-22.705" style="fill:rgb(89,74,66);fill-rule:nonzero;"/>
            </g>
            <g transform="matrix(4.16667,0,0,4.16667,1242.26,2405.24)">
                <path d="M0,10.125C-0.271,10.194 -0.549,10.23 -0.821,10.232C-2.678,10.239 -4.165,8.801 -5.113,7.339C-5.956,6.039 -6.633,4.363 -6.495,2.771C-7.237,3.23 -8.04,3.597 -8.877,3.842C-10.502,4.318 -12.486,4.433 -14.002,3.553C-14.591,3.211 -15.089,2.682 -15.257,2.008C-15.379,1.521 -15.291,1.042 -15.106,0.595C-15.808,0.939 -16.51,1.284 -17.25,1.543C-18.584,2.008 -20.751,2.334 -21.496,0.756C-21.795,0.121 -21.826,-0.756 -21.479,-1.334C-21.737,-1.316 -21.984,-1.244 -22.301,-1.107C-22.902,-0.85 -23.505,-0.526 -24.003,-0.108C-25.312,0.992 -25.756,3.294 -25.028,4.835C-24.731,5.463 -24.303,6.006 -23.588,6.084C-22.284,6.225 -21.113,5.927 -20.306,4.767C-20.152,4.546 -19.979,4.327 -19.771,4.162C-19.684,4.094 -19.445,4.118 -19.344,4.192C-19.247,4.264 -19.181,4.466 -19.203,4.592C-19.236,4.775 -19.332,4.965 -19.449,5.114C-19.834,5.611 -19.858,6.193 -19.897,6.779C-19.948,7.545 -19.603,8.053 -18.895,8.31C-17.613,8.775 -16.396,8.769 -15.246,7.897C-14.308,7.187 -14.135,7.277 -13.976,8.39C-13.955,8.544 -13.925,8.697 -13.888,8.848C-13.506,10.405 -12.502,11.183 -10.898,11.326C-9.416,11.459 -8.319,10.876 -7.487,9.717C-7.102,9.181 -6.802,8.583 -6.421,8.043C-6.307,7.882 -6.03,7.724 -5.858,7.751C-5.724,7.773 -5.593,8.072 -5.539,8.27C-5.49,8.447 -5.559,8.655 -5.557,8.85C-5.547,9.792 -5.118,10.461 -4.215,10.654C-3.465,10.815 -2.671,10.874 -1.905,10.832C-1.129,10.789 -0.497,10.543 0,10.125" style="fill:rgb(105,87,78);fill-rule:nonzero;"/>
            </g>
            <g transform="matrix(4.16667,0,0,4.16667,1092.25,2410.67)">
                <path d="M0,19.047C0.18,18.593 0.509,18.886 0.785,18.949C1.328,19.072 1.856,19.018 2.336,18.849C2.043,18.399 1.911,17.821 1.887,17.294C1.846,16.403 2.072,15.436 2.571,14.677C1.642,14.342 0.953,13.601 0.542,12.696C0.14,11.813 -0.057,10.813 -0.01,9.842C0.031,8.982 0.191,8.035 0.783,7.368C1.27,6.82 1.958,6.552 2.65,6.365C3.451,6.15 4.264,5.989 5.057,5.748C4.596,4.86 4.152,3.952 3.921,2.975C3.704,2.051 3.708,1.063 4.134,0.196C4.488,-0.521 5.088,-1.051 5.789,-1.421C7.086,-2.105 8.669,-2.285 10.124,-2.138C10.493,-4.431 12.391,-7.019 14.705,-7.243C14.033,-7.469 13.344,-7.621 12.609,-7.57C11.038,-7.462 9.526,-7.089 8.109,-6.399C6.938,-5.83 6.434,-5.397 7.268,-4.181C7.604,-3.69 7.328,-3.306 6.756,-3.429C4.562,-3.9 2.896,-2.871 1.328,-1.573C0.471,-0.863 0.005,0.057 0.13,1.204C0.212,1.953 0.397,2.664 1.018,3.174C1.262,3.373 1.589,3.598 1.38,3.932C1.135,4.324 0.776,4.056 0.442,3.962C0.037,3.848 -0.398,3.749 -0.812,3.774C-2.519,3.875 -3.703,4.815 -4.541,6.24C-4.912,6.872 -4.969,7.544 -4.818,8.272C-4.492,9.834 -3.593,10.839 -2.066,11.295C-1.771,11.383 -1.471,11.479 -1.204,11.626C-0.993,11.741 -1.049,12.121 -1.285,12.188C-1.66,12.292 -2.05,12.336 -2.429,12.425C-3.271,12.622 -3.76,13.087 -3.824,13.937C-3.918,15.187 -3.656,16.347 -2.609,17.19C-2.397,17.36 -2.153,17.491 -1.945,17.666C-1.547,18.001 -1.588,18.331 -2.082,18.545C-2.616,18.777 -3.187,18.929 -3.719,19.166C-4.589,19.553 -5.046,20.22 -4.975,21.202C-4.895,22.306 -4.648,23.358 -4.015,24.288C-3.655,24.816 -3.203,25.234 -2.587,25.446C-1.429,25.845 -0.27,26.241 0.976,26.668C1.283,24.367 1.541,22.067 2.492,19.817C1.783,19.802 1.239,19.829 0.704,19.769C0.166,19.708 -0.133,19.38 0,19.047" style="fill:rgb(105,87,78);fill-rule:nonzero;"/>
            </g>
            <g transform="matrix(4.16667,0,0,4.16667,1156.8,2556.89)">
                <path d="M0,-23.502C-0.272,-23.411 -0.772,-23.358 -1.128,-23.106C-1.975,-22.503 -2.768,-21.823 -3.549,-21.138C-3.824,-20.898 -4.206,-20.481 -3.809,-20.172C-3.479,-19.916 -3.261,-20.434 -3.034,-20.664C-2.055,-21.659 -1.106,-22.698 0.421,-22.816C0.493,-22.821 0.583,-22.859 0.624,-22.913C0.688,-22.998 0.764,-23.116 0.75,-23.206C0.736,-23.291 0.624,-23.384 0.533,-23.425C0.432,-23.471 0.307,-23.462 0,-23.502M10.009,-22.976C9.833,-22.924 9.532,-22.854 9.249,-22.741C9.167,-22.709 9.084,-22.553 9.092,-22.461C9.1,-22.367 9.203,-22.239 9.293,-22.205C9.433,-22.153 9.6,-22.146 9.751,-22.158C10.902,-22.254 11.782,-21.753 12.542,-20.946C12.781,-20.694 13.06,-20.474 13.348,-20.279C13.439,-20.217 13.618,-20.284 13.757,-20.292C13.751,-20.403 13.786,-20.543 13.732,-20.621C12.855,-21.884 11.762,-22.823 10.009,-22.976M0.214,-17.437C0.219,-17.668 0.244,-17.902 0.225,-18.132C0.177,-18.704 -0.094,-19.074 -0.527,-19.182C-1.008,-19.301 -1.375,-19.083 -1.624,-18.71C-2.454,-17.462 -2.847,-16.135 -2.243,-14.664C-2.092,-14.297 -1.897,-13.957 -1.44,-13.925C-0.978,-13.893 -0.749,-14.217 -0.557,-14.562C-0.061,-15.454 0.221,-16.408 0.214,-17.437M9.252,-16.381C9.337,-15.757 9.323,-15.195 9.5,-14.701C9.801,-13.855 10.612,-13.701 11.261,-14.295C12.148,-15.106 12.452,-17.323 11.811,-18.308C11.204,-19.239 10.183,-19.22 9.725,-18.207C9.462,-17.624 9.394,-16.953 9.252,-16.381M0.685,-12.641C0.766,-11.598 0.877,-11.142 1.405,-10.409C2.223,-9.274 3.366,-8.64 4.729,-8.46C5.162,-8.402 5.632,-8.603 6.082,-8.699C6.137,-8.711 6.217,-8.83 6.205,-8.879C6.181,-8.976 6.117,-9.116 6.041,-9.138C5.781,-9.213 5.504,-9.23 5.241,-9.294C4.246,-9.537 3.308,-9.901 2.573,-10.651C1.639,-11.603 1.466,-12.804 2.08,-13.974C2.552,-14.872 3.405,-15.305 4.415,-15.11C5.227,-14.955 5.983,-14.668 6.584,-14.054C6.742,-13.893 6.925,-13.484 7.201,-13.841C7.296,-13.964 7.14,-14.339 7.019,-14.555C6.91,-14.749 6.701,-14.892 6.521,-15.039C5.693,-15.717 4.72,-15.885 3.679,-15.893C2.585,-15.9 1.79,-15.407 1.305,-14.488C1.005,-13.921 0.886,-13.26 0.685,-12.641M8.566,-4.014C8.815,-3.895 8.914,-3.82 9.023,-3.801C10.069,-3.61 10.133,-3.542 9.843,-2.579C9.734,-2.217 9.583,-1.819 9.33,-1.554C7.879,-0.028 4.635,1.365 2.277,-0.683C1.956,-0.962 1.597,-1.206 1.227,-1.418C1.089,-1.497 0.871,-1.436 0.689,-1.438C0.703,-1.263 0.65,-1.029 0.743,-0.92C1.556,0.033 2.427,0.898 3.711,1.235C5.874,1.802 7.694,1.043 9.395,-0.169C10.202,-0.744 10.55,-1.613 10.659,-2.579C10.681,-2.772 10.687,-2.969 10.677,-3.162C10.654,-3.598 10.826,-3.816 11.287,-3.789C11.636,-3.769 11.995,-3.743 12.335,-3.8C12.518,-3.83 12.672,-4.031 12.839,-4.154C12.686,-4.308 12.544,-4.574 12.375,-4.592C11.759,-4.659 11.126,-4.71 10.514,-4.639C9.887,-4.565 9.202,-4.573 8.566,-4.014M-10.745,-20.651C-9.971,-20.963 -9.217,-21.182 -8.55,-21.555C-7.574,-22.101 -6.774,-22.844 -6.7,-24.077C-6.68,-24.408 -6.494,-24.555 -6.205,-24.636C-5.792,-24.751 -5.375,-24.856 -4.972,-25.001C-4.007,-25.349 -3.136,-25.848 -2.416,-26.597C-1.9,-27.132 -1.589,-27.749 -1.681,-28.492C-1.822,-29.633 -1.64,-29.452 -0.708,-29.877C-0.606,-29.923 -0.487,-29.932 -0.331,-29.969C-0.292,-29.809 -0.243,-29.667 -0.223,-29.522C-0.037,-28.142 0.517,-27.522 1.836,-27.18C3.18,-26.832 4.462,-26.938 5.663,-27.714C6.34,-23.869 11.375,-22.674 14.006,-26.308C14.612,-25.856 15.165,-25.287 15.837,-24.986C16.523,-24.68 17.327,-24.637 18.095,-24.476C17.82,-23.581 17.502,-22.755 17.325,-21.898C17.211,-21.344 17.238,-20.738 17.313,-20.17C17.456,-19.099 18.136,-18.435 19.137,-18.096C19.429,-17.997 19.739,-17.946 20.045,-17.899C20.749,-17.793 20.75,-17.799 20.771,-17.034C20.774,-16.879 20.775,-16.723 20.777,-16.566C20.801,-15.085 22.149,-14.254 23.413,-14.39C23.683,-14.418 23.946,-14.504 24.213,-14.562C24.915,-14.711 24.943,-14.717 25.089,-14.057C25.658,-11.485 25.706,-8.886 25.443,-6.275C25.098,-2.839 23.106,-0.523 20.321,1.266C19.735,1.642 19.206,2.106 18.649,2.526C18.463,2.667 18.281,2.818 18.078,2.93C15.185,4.51 12.122,5.632 8.89,6.278C8.397,6.377 7.887,6.436 7.386,6.431C5.748,6.412 4.098,6.467 2.477,6.281C0.859,6.095 -0.731,5.667 -2.326,5.315C-2.896,5.19 -3.439,4.952 -4.006,4.814C-6.141,4.296 -7.95,3.157 -9.665,1.852C-10.736,1.038 -11.516,-0.036 -12.136,-1.225C-12.899,-2.686 -13.52,-4.232 -13.629,-5.861C-13.824,-8.743 -13.576,-11.609 -12.609,-14.369C-12.337,-15.145 -12,-15.861 -11.378,-16.456C-10.571,-17.228 -10.247,-18.208 -10.498,-19.337C-10.597,-19.786 -10.668,-20.241 -10.745,-20.651" style="fill:rgb(253,203,165);fill-rule:nonzero;"/>
            </g>
            <g transform="matrix(4.16667,0,0,4.16667,1214.12,2531.9)">
                <path d="M0,-14.294C-0.139,-14.286 -0.318,-14.219 -0.41,-14.281C-0.697,-14.476 -0.977,-14.695 -1.215,-14.948C-1.976,-15.755 -2.855,-16.256 -4.006,-16.16C-4.158,-16.148 -4.324,-16.155 -4.464,-16.207C-4.555,-16.241 -4.657,-16.369 -4.666,-16.463C-4.673,-16.555 -4.59,-16.711 -4.509,-16.743C-4.225,-16.856 -3.925,-16.926 -3.748,-16.978C-1.996,-16.825 -0.902,-15.886 -0.025,-14.623C0.028,-14.545 -0.006,-14.405 0,-14.294M11.332,-8.059C11.186,-8.719 11.158,-8.713 10.456,-8.564C10.189,-8.506 9.925,-8.42 9.656,-8.392C8.392,-8.256 7.043,-9.087 7.02,-10.568C7.018,-10.725 7.017,-10.881 7.013,-11.036C6.993,-11.801 6.992,-11.795 6.288,-11.901C5.982,-11.948 5.671,-11.999 5.379,-12.098C4.378,-12.437 3.699,-13.101 3.556,-14.172C3.48,-14.74 3.454,-15.346 3.568,-15.9C3.745,-16.757 4.063,-17.583 4.337,-18.478C3.57,-18.639 2.766,-18.682 2.08,-18.988C1.408,-19.289 0.855,-19.857 0.249,-20.31C-2.383,-16.676 -7.417,-17.871 -8.095,-21.716C-9.295,-20.94 -10.578,-20.834 -11.921,-21.182C-13.24,-21.523 -13.794,-22.144 -13.981,-23.523C-14,-23.669 -14.049,-23.811 -14.089,-23.971C-14.245,-23.934 -14.364,-23.925 -14.465,-23.879C-15.397,-23.454 -15.58,-23.635 -15.438,-22.494C-15.346,-21.751 -15.658,-21.134 -16.173,-20.599C-16.557,-20.199 -16.986,-19.876 -17.448,-19.604C-17.319,-19.407 -17.178,-19.219 -17.01,-19.048C-16.024,-18.047 -14.613,-18.056 -13.38,-18.555C-13.235,-18.614 -13.071,-18.503 -13.036,-18.36C-12.767,-17.275 -12.61,-15.794 -11.575,-15.137C-10.077,-14.185 -8.548,-15.501 -7.174,-16.009C-7.024,-16.065 -6.796,-15.933 -6.825,-15.755C-7.114,-13.945 -6.671,-12.02 -5.151,-10.872C-4.942,-10.714 -4.72,-10.574 -4.49,-10.452C-4.359,-11.009 -4.286,-11.648 -4.032,-12.209C-3.575,-13.222 -2.553,-13.241 -1.946,-12.31C-1.604,-11.783 -1.538,-10.907 -1.68,-10.079C-0.711,-10.309 0.186,-10.814 1.05,-11.286C1.231,-11.385 1.442,-11.271 1.451,-11.061C1.504,-9.811 1.585,-8.407 2.295,-7.331C3.123,-6.077 5.082,-5.602 6.18,-6.787C6.312,-6.929 6.586,-6.873 6.618,-6.663C6.973,-4.286 7.384,-1.881 7.233,0.532C7.166,1.592 6.985,2.648 6.65,3.657C6.331,4.618 5.847,5.523 5.366,6.412C4.903,7.266 4.385,8.097 3.733,8.819C3.455,9.129 3.141,9.407 2.82,9.677C3.323,9.434 3.828,9.196 4.321,8.928C4.524,8.816 4.706,8.665 4.892,8.524C5.449,8.104 5.978,7.64 6.564,7.264C9.349,5.476 11.34,3.159 11.686,-0.277C11.949,-2.888 11.901,-5.487 11.332,-8.059" style="fill:rgb(231,177,136);fill-rule:nonzero;"/>
            </g>
            <g transform="matrix(4.16667,0,0,4.16667,1179.32,2648.54)">
                <path d="M0,-9.187C0.628,-8.547 1.177,-7.955 1.769,-7.408C1.989,-7.204 2.296,-7.068 2.588,-6.973C3.613,-6.639 4.134,-6.838 4.56,-7.824C5.28,-9.49 5.71,-11.213 5.307,-13.049C5.276,-13.192 5.309,-13.348 5.314,-13.596C6.596,-13.436 7.595,-12.938 8.314,-11.862C9.223,-10.504 10.183,-9.182 11.121,-7.845C11.434,-7.398 11.762,-6.961 12.057,-6.503C12.734,-5.451 12.716,-5.466 11.672,-4.869C10.541,-4.221 9.321,-4.099 8.057,-4.133C7.625,-4.144 7.426,-4.301 7.414,-4.754C7.376,-6.153 7.317,-7.55 7.25,-8.948C7.232,-9.332 7.18,-9.718 7.093,-10.091C7.069,-10.195 6.86,-10.325 6.745,-10.316C6.631,-10.307 6.463,-10.156 6.435,-10.039C6.374,-9.778 6.36,-9.499 6.371,-9.228C6.442,-7.402 6.491,-5.573 6.617,-3.75C6.731,-2.083 6.926,-0.42 7.105,1.242C7.151,1.665 7.277,2.08 7.359,2.499C7.49,3.162 7.494,3.287 6.854,3.447C5.424,3.802 3.979,4.123 2.523,4.331C1.451,4.484 0.347,4.504 -0.738,4.463C-2.252,4.406 -3.763,4.242 -5.274,4.113C-5.856,4.063 -6.436,3.991 -7.015,3.914C-7.36,3.868 -7.712,3.825 -8.044,3.724C-8.912,3.462 -8.986,3.339 -8.786,2.474C-8.269,0.238 -7.74,-1.996 -7.212,-4.229C-6.784,-6.045 -6.348,-7.86 -5.921,-9.677C-5.869,-9.903 -5.821,-10.139 -5.834,-10.367C-5.842,-10.486 -5.986,-10.597 -6.069,-10.711C-6.183,-10.622 -6.369,-10.55 -6.4,-10.437C-6.699,-9.35 -6.973,-8.255 -7.253,-7.164C-7.37,-6.711 -7.468,-6.253 -7.605,-5.807C-7.792,-5.202 -8.002,-5.06 -8.533,-5.293C-9.136,-5.557 -9.729,-5.87 -10.27,-6.244C-10.914,-6.69 -11.009,-7.048 -10.598,-7.741C-10.104,-8.575 -9.56,-9.396 -8.928,-10.129C-7.778,-11.465 -6.451,-12.614 -4.846,-13.392C-4.228,-13.691 -4.114,-13.592 -4.13,-12.909C-4.149,-12.053 -4.252,-11.184 -4.136,-10.345C-4.032,-9.593 -3.787,-8.817 -3.414,-8.157C-2.825,-7.115 -1.816,-7.046 -0.991,-7.909C-0.62,-8.296 -0.327,-8.759 0,-9.187" style="fill:rgb(245,150,155);fill-rule:nonzero;"/>
            </g>
            <g transform="matrix(4.16667,0,0,4.16667,1180.58,2720.46)">
                <path d="M0,-9.014C-0.662,-8.983 -1.324,-8.961 -1.985,-8.918C-2.44,-8.888 -2.698,-8.63 -2.723,-8.17C-2.745,-7.782 -2.774,-7.391 -2.757,-7.002C-2.629,-3.93 -2.509,-0.856 -1.696,2.137C-1.646,2.325 -1.603,2.515 -1.571,2.707C-1.512,3.057 -1.605,3.315 -1.997,3.405C-3.341,3.715 -4.69,3.765 -6.051,3.521C-6.379,3.462 -6.509,3.25 -6.537,2.955C-6.873,-0.641 -7.671,-4.192 -7.527,-7.836C-7.474,-9.196 -7.599,-10.562 -7.61,-11.924C-7.616,-12.584 -7.578,-12.611 -6.957,-12.508C-3.981,-12.017 -0.981,-11.978 2.018,-12.073C3.021,-12.105 4.016,-12.367 5.014,-12.529C5.283,-12.572 5.551,-12.621 5.816,-12.686C6.203,-12.779 6.397,-12.652 6.449,-12.243C6.716,-10.122 6.984,-8.001 7.276,-5.883C7.621,-3.38 7.998,-0.883 8.839,1.517C9.1,2.262 9.008,2.443 8.287,2.801C7.12,3.382 5.877,3.364 4.623,3.243C4.257,3.208 4.083,2.981 4.013,2.639C3.826,1.725 3.596,0.819 3.447,-0.102C2.995,-2.904 2.563,-5.709 2.148,-8.517C2.086,-8.936 1.87,-9.03 1.521,-9.023C1.014,-9.012 0.508,-8.998 0.001,-8.987C0,-8.995 0,-9.004 0,-9.014" style="fill:rgb(142,198,236);fill-rule:nonzero;"/>
            </g>
            <g transform="matrix(4.16667,0,0,4.16667,1132.3,2737.78)">
                <path d="M0,10.112C-1.089,10 -2.097,9.912 -3.099,9.786C-3.671,9.715 -4.309,9.708 -4.626,9.095C-4.991,8.393 -5.244,7.642 -4.99,6.85C-4.813,6.299 -4.61,5.731 -4.292,5.256C-2.84,3.08 -0.868,1.537 1.62,0.709C2.925,0.274 4.296,0.228 5.666,0.262C7.025,0.297 8.391,0.496 9.737,0.127C10.202,0 10.44,0.249 10.663,0.625C11.744,2.455 12.193,4.433 12.149,6.547C12.134,7.276 11.857,7.786 11.228,8.18C10.038,8.925 8.696,9.187 7.36,9.423C6.061,9.651 4.736,9.746 3.419,9.867C2.258,9.974 1.092,10.036 0,10.112" style="fill:rgb(19,117,188);fill-rule:nonzero;"/>
            </g>
            <g transform="matrix(4.16667,0,0,4.16667,1231.63,2732.32)">
                <path d="M0,10.035C-2.78,9.702 -5.561,9.371 -8.339,9.03C-8.568,9.002 -8.79,8.909 -9.009,8.829C-9.727,8.568 -9.772,8.501 -9.805,7.737C-9.885,5.885 -9.517,4.101 -8.952,2.351C-8.881,2.13 -8.775,1.919 -8.675,1.709C-8.467,1.273 -8.148,1.056 -7.643,1.163C-5.966,1.519 -4.395,1.232 -2.932,0.35C-2.46,0.066 -1.998,0 -1.503,0.281C-0.424,0.895 0.666,1.492 1.738,2.118C2.106,2.333 2.413,2.654 2.785,2.859C4.314,3.699 5.248,5.092 6.202,6.468C6.609,7.056 6.493,7.739 6.472,8.388C6.466,8.563 6.229,8.791 6.041,8.889C5.632,9.105 5.202,9.332 4.755,9.415C3.188,9.705 1.62,10.014 0,10.035" style="fill:rgb(19,117,188);fill-rule:nonzero;"/>
            </g>
            <g transform="matrix(4.16667,0,0,4.16667,1145.41,2642.24)">
                <path d="M0,12.307C-0.299,11.909 -0.507,11.591 -0.762,11.318C-0.839,11.235 -1.082,11.212 -1.182,11.273C-1.281,11.332 -1.363,11.551 -1.331,11.665C-1.269,11.878 -1.144,12.085 -1,12.259C-0.729,12.588 -0.416,12.882 -0.143,13.209C-0.024,13.351 0.145,13.573 0.105,13.702C-0.002,14.057 -0.127,14.557 -0.393,14.677C-0.775,14.852 -0.926,14.341 -1.081,14.049C-1.354,13.534 -1.563,12.983 -1.855,12.48C-1.946,12.324 -2.245,12.164 -2.407,12.199C-2.755,12.273 -2.727,12.586 -2.62,12.862C-2.466,13.261 -2.284,13.651 -2.142,14.054C-2.065,14.272 -1.987,14.518 -2.016,14.738C-2.052,15.021 -2.194,15.291 -2.291,15.568C-2.511,15.429 -2.791,15.336 -2.942,15.143C-3.559,14.353 -3.788,13.407 -3.905,12.432C-3.938,12.164 -3.857,11.878 -3.914,11.619C-4.022,11.122 -3.851,10.804 -3.435,10.547C-3.242,10.427 -3.061,10.249 -2.944,10.056C-2.86,9.917 -2.89,9.709 -2.869,9.532C-3.04,9.531 -3.212,9.517 -3.38,9.536C-3.446,9.543 -3.499,9.634 -3.564,9.674C-4.019,9.953 -4.66,10.132 -4.875,10.536C-5.051,10.87 -4.681,11.467 -4.635,11.955C-4.604,12.293 -4.661,12.661 -4.767,12.988C-4.957,13.578 -5.364,13.757 -5.958,13.586C-6.478,13.436 -6.601,13.286 -6.436,12.743C-6.29,12.263 -6.327,11.844 -6.497,11.384C-6.914,10.26 -6.624,9.322 -5.687,8.604C-5.625,8.556 -5.567,8.49 -5.497,8.47C-4.299,8.128 -4.07,7.172 -3.813,6.105C-3.166,3.42 -2.39,0.767 -1.665,-1.898C-1.613,-2.086 -1.564,-2.275 -1.496,-2.458C-1.252,-3.112 -0.553,-3.261 -0.048,-2.753C0.042,-2.662 0.084,-2.464 0.062,-2.331C-0.01,-1.91 -0.123,-1.497 -0.219,-1.08C-0.598,0.548 -0.991,2.173 -1.346,3.807C-1.468,4.368 -1.596,4.937 -1.309,5.52C-1.208,5.724 -1.268,6.06 -1.359,6.293C-1.664,7.072 -1.507,7.742 -0.987,8.359C-0.937,8.417 -0.904,8.495 -0.846,8.544C0.359,9.554 0.12,10.879 0,12.307" style="fill:rgb(253,203,165);fill-rule:nonzero;"/>
            </g>
            <g transform="matrix(4.16667,0,0,4.16667,1213.86,2639.62)">
                <path d="M0,11.393C-0.265,10.578 -0.319,10.066 0.169,9.632C0.227,9.582 0.271,9.514 0.314,9.45C0.703,8.859 0.746,8.315 0.491,8.36C0.21,8.409 -0.025,8.709 -0.324,8.933C-0.354,8.818 -0.384,8.652 -0.44,8.495C-0.608,8.026 -0.494,7.722 -0.045,7.433C0.664,6.976 0.627,6.937 0.364,6.129C-0.094,4.722 -0.414,3.289 -0.496,1.803C-0.538,1.031 -0.69,0.264 -0.776,-0.507C-0.835,-1.042 -0.771,-1.104 -0.23,-1.14C-0.152,-1.145 -0.074,-1.139 0.003,-1.14C1.115,-1.157 1.109,-1.156 1.423,-0.109C1.893,1.455 2.368,3.016 2.847,4.576C3.053,5.247 3.375,5.68 4.208,5.76C5.549,5.888 6.202,6.877 6.081,8.228C5.999,9.127 5.719,9.894 4.903,10.377C4.737,10.475 4.566,10.58 4.382,10.628C3.774,10.789 3.49,10.506 3.626,9.892C3.652,9.779 3.708,9.673 3.738,9.56C3.826,9.227 4.049,8.837 3.949,8.575C3.858,8.337 3.343,8.296 3.132,8.063C2.861,7.762 2.718,7.349 2.496,7C2.423,6.887 2.249,6.736 2.165,6.759C2.044,6.792 1.9,6.959 1.876,7.088C1.771,7.674 1.986,8.257 2.432,8.536C3.08,8.94 2.967,9.385 2.922,9.997C2.869,10.732 2.661,11.356 2.257,11.941C2.148,12.1 2.039,12.315 1.881,12.371C1.612,12.466 1.275,12.55 1.02,12.47C0.665,12.359 0.663,11.981 0.772,11.674C0.903,11.311 1.083,10.964 1.257,10.618C1.363,10.411 1.529,10.23 1.606,10.015C1.647,9.902 1.6,9.68 1.513,9.619C1.426,9.556 1.179,9.579 1.11,9.658C0.858,9.947 0.644,10.27 0.431,10.59C0.31,10.775 0.22,10.98 0,11.393" style="fill:rgb(253,203,165);fill-rule:nonzero;"/>
            </g>
            <g transform="matrix(4.16667,0,0,4.16667,1267.45,2534.36)">
                <path d="M0,-1.396C0.051,-2.169 0.103,-2.857 0.138,-3.544C0.162,-4.012 0.473,-4.226 0.852,-4.366C2.393,-4.935 3.945,-4.492 5.069,-3.027C5.956,-1.874 5.865,-0.558 5.687,0.763C5.658,0.973 5.495,1.189 5.344,1.354C3.727,3.118 1.659,3.539 -0.61,3.292C-1.083,3.242 -1.143,3.035 -0.982,2.556C-0.75,1.86 -0.487,1.167 -0.334,0.453C-0.169,-0.317 0.267,-0.705 1.019,-0.733C1.479,-0.75 1.94,-0.673 2.401,-0.672C2.568,-0.672 2.736,-0.774 2.903,-0.829C2.792,-1.004 2.707,-1.302 2.564,-1.333C2.042,-1.445 1.502,-1.49 0.966,-1.514C0.674,-1.527 0.378,-1.446 0,-1.396" style="fill:rgb(253,203,165);fill-rule:nonzero;"/>
            </g>
            <g transform="matrix(4.16667,0,0,4.16667,1095.86,2544.69)">
                <path d="M0,-2.965C-0.65,-3.085 -1.213,-3.225 -1.784,-3.283C-2.237,-3.329 -2.622,-3.114 -2.853,-2.71C-2.918,-2.596 -2.943,-2.385 -2.879,-2.293C-2.819,-2.206 -2.585,-2.148 -2.482,-2.195C-1.625,-2.593 -0.881,-2.248 -0.167,-1.838C0.087,-1.693 0.342,-1.444 0.456,-1.182C0.765,-0.471 0.991,0.274 1.266,1C1.366,1.265 1.274,1.408 1.073,1.587C0.128,2.429 -1.575,2.688 -2.738,1.977C-4.865,0.678 -5.762,-1.293 -4.752,-3.554C-4.102,-5.01 -2.428,-5.653 -0.916,-5.11C0.085,-4.75 0.235,-4.402 0,-2.965" style="fill:rgb(253,203,165);fill-rule:nonzero;"/>
            </g>
            <g transform="matrix(4.16667,0,0,4.16667,1198.28,2603.56)">
                <path d="M0,-0.696C0.025,0.477 -0.287,1.514 -0.717,2.516C-1.006,3.188 -1.228,3.257 -1.893,2.938C-2.862,2.471 -3.419,1.658 -3.768,0.67C-3.89,0.325 -3.79,0.048 -3.526,-0.156C-3.19,-0.416 -2.833,-0.65 -2.472,-0.876C-2.069,-1.128 -1.864,-1.436 -1.983,-1.94C-2.062,-2.275 -2.088,-2.631 -2.081,-2.976C-2.074,-3.296 -2.2,-3.703 -1.697,-3.821C-1.132,-3.953 -0.845,-3.844 -0.544,-3.324C-0.062,-2.49 0.082,-1.583 0,-0.696" style="fill:rgb(242,111,116);fill-rule:nonzero;"/>
            </g>
            <g transform="matrix(4.16667,0,0,4.16667,1164.62,2604.15)">
                <path d="M0,-1.42C0.112,-2.106 0.204,-2.795 0.345,-3.474C0.436,-3.912 0.745,-4.104 1.207,-4.077C1.568,-4.057 1.81,-3.955 1.792,-3.54C1.784,-3.346 1.801,-3.15 1.783,-2.957C1.736,-2.461 1.894,-2.079 2.257,-1.71C3.358,-0.592 3.404,0.093 2.554,1.443C2.409,1.673 2.265,1.908 2.089,2.113C1.599,2.684 1.02,2.67 0.698,1.978C0.393,1.323 0.234,0.588 0.093,-0.128C0.012,-0.537 0.094,-0.98 0.104,-1.407C0.069,-1.411 0.034,-1.416 0,-1.42" style="fill:rgb(242,111,116);fill-rule:nonzero;"/>
            </g>
            <g transform="matrix(4.16667,0,0,4.16667,1180.59,2599.51)">
                <path d="M0,-2.906C1.617,-2.879 1.199,-2.871 1.402,-1.571C1.489,-1.012 1.346,-0.604 0.817,-0.319C0.25,-0.015 0.232,0.008 -0.26,-0.482C-0.479,-0.701 -0.697,-0.923 -0.908,-1.149C-1.013,-1.262 -1.125,-1.378 -1.195,-1.512C-1.636,-2.355 -1.295,-2.914 -0.349,-2.913C-0.233,-2.913 -0.117,-2.909 0,-2.906" style="fill:rgb(253,203,165);fill-rule:nonzero;"/>
            </g>
            <g transform="matrix(4.16667,0,0,4.16667,1125.91,2709.29)">
                <path d="M0,-1.951C0.092,-1.87 0.234,-1.795 0.294,-1.679C0.434,-1.409 0.592,-1.127 0.631,-0.835C0.663,-0.597 0.604,-0.196 0.458,-0.122C0.233,-0.009 -0.229,0 -0.364,-0.15C-0.68,-0.502 -0.869,-0.97 -1.085,-1.403C-1.113,-1.458 -1.016,-1.639 -0.94,-1.669C-0.656,-1.778 -0.357,-1.848 0,-1.951" style="fill:rgb(253,203,165);fill-rule:nonzero;"/>
            </g>
            <g transform="matrix(4.16667,0,0,4.16667,1234.09,2692.3)">
                <path d="M0,-1.187C-0.526,-0.002 -0.58,0.038 -1.591,0.03C-1.448,-1.191 -1.405,-1.225 0,-1.187" style="fill:rgb(253,203,165);fill-rule:nonzero;"/>
            </g>
            <g transform="matrix(-4.15626,-0.294294,-0.294294,4.15626,1211.54,2668.56)">
                <path d="M-0.071,-0.808C-0.166,-0.565 -0.256,-0.405 -0.279,-0.235C-0.287,-0.167 -0.145,-0.08 -0.071,-0.001C0.011,-0.155 0.119,-0.304 0.162,-0.469C0.18,-0.533 0.052,-0.637 -0.071,-0.808" style="fill:white;fill-rule:nonzero;"/>
            </g>
            <g transform="matrix(4.16667,0,0,4.16667,1192.49,2561.5)">
                <path d="M0,-5.119C0.636,-5.679 1.321,-5.671 1.948,-5.744C2.561,-5.815 3.193,-5.765 3.81,-5.697C3.978,-5.68 4.12,-5.413 4.273,-5.26C4.106,-5.137 3.952,-4.935 3.77,-4.905C3.429,-4.848 3.07,-4.874 2.721,-4.894C2.26,-4.922 2.088,-4.703 2.111,-4.267C2.121,-4.074 2.115,-3.877 2.093,-3.684C1.984,-2.719 1.636,-1.849 0.829,-1.274C-0.872,-0.062 -2.692,0.696 -4.855,0.13C-6.139,-0.207 -7.01,-1.072 -7.823,-2.025C-7.916,-2.135 -7.863,-2.368 -7.877,-2.543C-7.695,-2.541 -7.477,-2.602 -7.339,-2.523C-6.969,-2.311 -6.61,-2.067 -6.289,-1.788C-3.931,0.26 -0.687,-1.134 0.764,-2.659C1.017,-2.925 1.168,-3.322 1.277,-3.684C1.567,-4.647 1.503,-4.716 0.457,-4.906C0.348,-4.926 0.25,-5 0,-5.119" style="fill:rgb(35,31,32);fill-rule:nonzero;"/>
            </g>
            <g transform="matrix(4.16667,0,0,4.16667,1159.66,2508.3)">
                <path d="M0,-0.978C0.201,-1.597 0.32,-2.258 0.62,-2.826C1.104,-3.745 1.9,-4.238 2.994,-4.23C4.035,-4.222 5.008,-4.054 5.836,-3.376C6.016,-3.229 6.225,-3.086 6.333,-2.892C6.455,-2.676 6.611,-2.301 6.516,-2.178C6.24,-1.822 6.057,-2.23 5.899,-2.391C5.298,-3.005 4.542,-3.292 3.73,-3.448C2.72,-3.642 1.867,-3.209 1.395,-2.311C0.781,-1.141 0.954,0.06 1.888,1.011C2.623,1.761 3.561,2.126 4.556,2.369C4.819,2.433 5.096,2.45 5.356,2.525C5.432,2.546 5.496,2.687 5.52,2.784C5.532,2.833 5.452,2.952 5.397,2.963C4.947,3.06 4.477,3.26 4.043,3.203C2.681,3.023 1.538,2.388 0.72,1.253C0.192,0.521 0.081,0.065 0,-0.978" style="fill:rgb(35,31,32);fill-rule:nonzero;"/>
            </g>
            <g transform="matrix(4.16667,0,0,4.16667,1195.35,2487.9)">
                <path d="M0,0.178C0.142,-0.394 0.209,-1.065 0.473,-1.648C0.93,-2.661 1.952,-2.68 2.559,-1.749C3.2,-0.764 2.896,1.452 2.009,2.264C1.36,2.858 0.549,2.704 0.247,1.858C0.071,1.364 0.084,0.802 0,0.178" style="fill:rgb(35,31,32);fill-rule:nonzero;"/>
            </g>
            <g transform="matrix(4.16667,0,0,4.16667,1157.7,2491.24)">
                <path d="M0,-1.68C0.007,-0.652 -0.275,0.302 -0.771,1.195C-0.963,1.54 -1.192,1.864 -1.655,1.832C-2.111,1.799 -2.307,1.46 -2.458,1.092C-3.062,-0.378 -2.668,-1.705 -1.838,-2.953C-1.589,-3.326 -1.223,-3.544 -0.741,-3.425C-0.309,-3.318 -0.037,-2.948 0.011,-2.375C0.03,-2.146 0.005,-1.911 0,-1.68" style="fill:rgb(35,31,32);fill-rule:nonzero;"/>
            </g>
            <g transform="matrix(4.16667,0,0,4.16667,1198.51,2472.66)">
                <path d="M0,-2.759C1.752,-2.607 2.846,-1.667 3.723,-0.405C3.776,-0.326 3.742,-0.187 3.748,-0.075C3.609,-0.068 3.43,0 3.338,-0.063C3.051,-0.257 2.771,-0.478 2.533,-0.73C1.773,-1.536 0.893,-2.037 -0.258,-1.942C-0.41,-1.929 -0.576,-1.937 -0.716,-1.988C-0.807,-2.023 -0.909,-2.151 -0.917,-2.244C-0.925,-2.336 -0.842,-2.492 -0.761,-2.525C-0.477,-2.637 -0.177,-2.707 0,-2.759" style="fill:rgb(35,31,32);fill-rule:nonzero;"/>
            </g>
            <g transform="matrix(4.16667,0,0,4.16667,1156.8,2473.91)">
                <path d="M0,-3.586C0.307,-3.546 0.432,-3.555 0.533,-3.509C0.624,-3.468 0.736,-3.375 0.75,-3.29C0.764,-3.2 0.688,-3.082 0.624,-2.997C0.583,-2.943 0.493,-2.905 0.421,-2.9C-1.106,-2.782 -2.055,-1.743 -3.034,-0.748C-3.261,-0.518 -3.479,0 -3.809,-0.256C-4.206,-0.565 -3.824,-0.982 -3.549,-1.222C-2.768,-1.907 -1.975,-2.587 -1.128,-3.19C-0.772,-3.442 -0.272,-3.495 0,-3.586" style="fill:rgb(35,31,32);fill-rule:nonzero;"/>
            </g>
        </g>
    </g>
</svg>
