<?xml version="1.0" encoding="UTF-8" standalone="no"?>
<!DOCTYPE svg PUBLIC "-//W3C//DTD SVG 1.1//EN" "http://www.w3.org/Graphics/SVG/1.1/DTD/svg11.dtd">
<svg width="100%" height="100%" viewBox="0 0 312 401" version="1.1" xmlns="http://www.w3.org/2000/svg" xmlns:xlink="http://www.w3.org/1999/xlink" xml:space="preserve" xmlns:serif="http://www.serif.com/" style="fill-rule:evenodd;clip-rule:evenodd;stroke-linejoin:round;stroke-miterlimit:2;">
    <g transform="matrix(1,0,0,1,-1307,-2381)">
        <g>
            <g transform="matrix(4.16667,0,0,4.16667,1390.84,2513.18)">
                <path d="M0,32.92C-0.021,31.485 -0.232,30.312 -0.465,29.06C-1.141,29.84 -1.395,30.241 -1.27,30.622C-1.019,31.382 -0.751,32.151 0,32.92M14.618,26.958C14.162,28.181 14.083,30.126 14.498,31.111C14.614,30.93 14.693,30.801 14.776,30.675C16.036,28.768 16.333,29.155 14.618,26.958M37.958,-16.1C37.921,-15.753 37.859,-15.406 37.857,-15.059C37.856,-14.894 37.933,-14.621 38.034,-14.589C38.177,-14.544 38.409,-14.637 38.546,-14.743C39.716,-15.649 40.295,-17.701 39.553,-18.94C39.159,-19.598 38.39,-20.037 37.762,-20.54C37.645,-20.634 37.386,-20.594 37.205,-20.556C36.694,-20.448 36.553,-20.129 36.904,-19.755C37.891,-18.707 38.168,-17.479 37.958,-16.1M5.826,23.666C7.355,23.749 7.928,23.114 7.645,21.885C7.49,21.213 7.311,20.547 7.143,19.879C6.419,19.869 5.694,19.845 4.971,19.856C4.254,19.866 4.194,19.935 4.213,20.673C4.226,21.174 4.333,21.676 4.304,22.172C4.255,22.994 4.255,23.089 4.932,23.386C5.28,23.538 5.662,23.616 5.826,23.666M12.446,54.815C12.537,54.809 12.654,54.808 12.771,54.795C12.964,54.775 13.158,54.758 13.35,54.724C13.995,54.607 14.034,54.517 13.863,53.851C13.38,51.972 12.907,50.09 12.436,48.207C12.29,47.623 12.154,47.545 11.656,47.829C11.285,48.041 10.937,48.296 10.555,48.486C10.179,48.674 10.065,48.896 10.185,49.321C10.624,50.894 11.017,52.48 11.446,54.055C11.625,54.712 11.762,54.796 12.446,54.815M-17.136,4.953C-17.117,4.855 -17.1,4.757 -17.081,4.658C-16.514,4.682 -15.947,4.722 -15.38,4.719C-15.226,4.718 -15.002,4.627 -14.932,4.507C-14.62,3.972 -14.702,3.665 -15.207,3.347C-15.47,3.182 -15.741,3.015 -16.031,2.911C-17.141,2.516 -17.854,2.81 -18.268,3.908C-18.771,5.244 -18.741,6.603 -18.058,7.865C-17.567,8.773 -16.772,9.315 -15.674,9.271C-15.35,9.258 -15.174,9.134 -15.177,8.78C-15.183,8.046 -15.173,7.311 -15.16,6.575C-15.147,5.791 -15.481,5.358 -16.261,5.167C-16.553,5.096 -16.845,5.024 -17.136,4.953M3.345,48.152C3.727,50.505 4.067,52.641 4.423,54.774C4.574,55.683 4.685,55.81 5.549,55.891C5.922,55.927 6.315,55.837 6.689,55.758C7.049,55.682 7.17,55.45 7.084,55.065C6.668,53.211 6.282,51.352 5.861,49.5C5.817,49.307 5.65,49.067 5.478,48.989C4.849,48.704 4.191,48.478 3.345,48.152M9.452,56.637C9.873,56.001 10.26,55.469 10.583,54.901C10.703,54.691 10.757,54.379 10.704,54.144C10.354,52.595 9.96,51.056 9.593,49.511C9.486,49.063 9.259,48.848 8.772,48.914C8.236,48.987 7.694,49.016 7.155,49.064C6.555,49.118 6.454,49.221 6.58,49.778C6.938,51.364 7.307,52.949 7.696,54.528C7.768,54.814 7.912,55.111 8.106,55.329C8.491,55.761 8.935,56.141 9.452,56.637M14.811,31.575C15.212,32.047 15.612,32.515 16.009,32.987C16.268,33.296 16.533,33.31 16.771,32.984C17.163,32.451 17.546,31.912 17.913,31.362C18.872,29.924 18.792,28.448 18.088,26.932C17.446,25.553 16.369,24.539 15.31,23.507C15.166,23.367 14.97,23.281 14.642,23.068C14.611,23.776 14.617,24.316 14.56,24.849C14.495,25.435 14.661,25.894 15.058,26.334C15.472,26.795 15.81,27.325 16.167,27.834C16.651,28.523 16.638,29.207 16.117,29.877C15.69,30.426 15.269,30.979 14.811,31.575M-1.128,24.375C-1.214,24.356 -1.301,24.336 -1.387,24.316C-1.584,24.59 -1.813,24.847 -1.972,25.142C-2.358,25.862 -2.693,26.61 -3.084,27.327C-3.718,28.489 -3.988,29.732 -3.919,31.04C-3.818,32.94 -3.128,34.575 -1.597,35.954C-1.185,35.398 -0.794,34.922 -0.474,34.403C-0.385,34.261 -0.449,33.956 -0.545,33.781C-0.843,33.235 -1.194,32.719 -1.516,32.186C-2.19,31.067 -2.211,29.931 -1.373,28.923C-0.608,28.004 -0.583,27.04 -0.844,25.972C-0.972,25.447 -1.035,24.907 -1.128,24.375M-14.469,2.61C-14.317,2.273 -14.206,2.082 -14.146,1.876C-13.673,0.276 -13.239,-1.336 -12.738,-2.927C-12.132,-4.851 -11.466,-6.758 -10.838,-8.676C-10.593,-9.424 -10.64,-9.504 -11.375,-9.55C-12.538,-9.622 -13.704,-9.652 -14.868,-9.722C-15.257,-9.745 -15.458,-9.569 -15.526,-9.222C-15.67,-8.499 -15.832,-7.777 -15.922,-7.047C-16.299,-3.981 -15.822,-1.01 -14.857,1.899C-14.791,2.101 -14.652,2.279 -14.469,2.61M16.239,62.639C18.747,62.732 21.226,62.552 23.694,62.185C24.396,62.081 25.1,61.923 25.612,61.416C25.893,61.14 26.205,60.694 26.178,60.352C26.131,59.755 25.945,59.12 25.376,58.731C24.223,57.941 23.106,57.093 21.909,56.376C20.359,55.449 18.63,54.951 16.859,54.647C16.008,54.5 15.095,54.255 14.411,55.144C14.292,55.299 13.992,55.365 13.769,55.382C13.077,55.431 12.366,55.533 11.693,55.427C11.108,55.335 10.811,55.484 10.596,55.982C10.457,56.303 10.244,56.602 10.159,56.934C10.077,57.253 10.033,57.626 10.117,57.937C10.4,58.985 10.817,60.002 11.047,61.061C11.198,61.761 11.567,62.065 12.197,62.148C13.543,62.323 14.892,62.477 16.239,62.639M7.551,56.168C6.669,56.885 5.712,56.827 4.709,56.409C4.397,56.279 4.028,56.18 3.701,56.212C1.728,56.409 -0.243,56.632 -2.211,56.88C-4.337,57.147 -5.848,58.399 -7.033,60.071C-8.086,61.556 -7.751,62.455 -5.999,62.999C-5.483,63.159 -4.937,63.28 -4.4,63.305C-2.417,63.395 -0.426,63.545 1.554,63.464C3.216,63.396 4.87,63.065 6.52,62.796C7.555,62.627 8.581,62.39 9.596,62.123C10.267,61.947 10.354,61.741 10.184,61.107C9.992,60.394 9.818,59.672 9.566,58.98C9.165,57.877 8.681,56.814 7.551,56.168M53.798,-21.627C53.901,-22.365 53.72,-22.746 53.28,-22.934C52.892,-23.101 52.474,-23.265 52.059,-23.292C50.819,-23.374 49.567,-23.538 48.353,-23.083C48.212,-23.03 48.041,-23.002 47.897,-23.029C47.762,-23.057 47.554,-23.157 47.537,-23.252C47.51,-23.414 47.553,-23.666 47.665,-23.758C47.87,-23.924 48.163,-23.975 48.393,-24.116C49.416,-24.749 50.463,-25.353 51.436,-26.059C51.931,-26.418 52.386,-26.965 52.112,-27.667C51.854,-28.325 51.246,-28.513 50.58,-28.527C50.502,-28.528 50.424,-28.537 50.347,-28.537C48.045,-28.555 45.984,-27.832 44.124,-26.503C42.197,-25.125 40.716,-23.314 39.268,-21.477C38.837,-20.932 38.847,-20.808 39.459,-20.35C40.204,-19.793 40.591,-19.084 40.646,-18.174C40.671,-17.748 40.749,-17.313 40.692,-16.897C40.603,-16.241 40.784,-15.785 41.357,-15.43C42.613,-14.65 43.83,-13.809 45.098,-13.049C45.591,-12.753 46.167,-12.58 46.722,-12.404C47.512,-12.152 48.271,-12.339 48.975,-12.72C49.672,-13.096 49.815,-13.467 49.653,-14.271C49.376,-15.647 48.587,-16.672 47.462,-17.466C47.207,-17.644 46.921,-17.788 46.698,-18C46.582,-18.11 46.487,-18.363 46.536,-18.495C46.588,-18.635 46.813,-18.726 46.98,-18.8C47.078,-18.843 47.211,-18.801 47.327,-18.812C48.409,-18.92 49.499,-18.982 50.57,-19.161C51.174,-19.262 51.776,-19.494 52.322,-19.777C53.16,-20.211 53.645,-20.955 53.798,-21.627M13.604,26.769L13.618,26.769C13.667,25.601 13.717,24.433 13.764,23.265C13.773,23.031 13.819,22.787 13.769,22.566C13.732,22.411 13.582,22.191 13.449,22.165C12.81,22.037 12.161,21.912 11.512,21.887C10.813,21.858 10.109,21.928 9.41,21.98C8.698,22.032 8.708,22.048 8.577,22.773C8.537,22.995 8.494,23.257 8.354,23.414C7.853,23.977 7.279,24.426 6.451,24.394C5.083,24.341 3.933,23.938 3.29,22.601C3.224,22.462 3.009,22.299 2.871,22.306C2.056,22.35 1.232,22.383 0.432,22.532C-0.499,22.706 -0.596,22.901 -0.455,23.816C-0.373,24.354 -0.245,24.885 -0.166,25.424C0.195,27.887 0.548,30.351 0.901,32.815C0.962,33.237 1.052,33.661 1.053,34.085C1.054,34.266 0.793,34.615 0.766,34.604C0.129,34.35 -0.049,34.868 -0.301,35.223C-0.819,35.954 -1.324,36.695 -1.819,37.441C-3.092,39.36 -4.421,41.23 -6.069,42.858C-6.888,43.665 -6.869,43.785 -6.195,44.735C-4.692,46.858 -2.619,47.694 -0.084,47.247C1.615,46.947 3.232,46.972 4.824,47.709C6.5,48.484 9.334,48.275 10.874,47.202C12.19,46.285 13.61,46.07 15.105,46.408C17.334,46.912 18.976,46.038 20.312,44.366C20.674,43.912 20.91,43.359 21.267,42.899C21.749,42.275 21.75,41.74 21.221,41.136C20.426,40.231 19.639,39.311 18.925,38.341C17.31,36.15 15.841,33.85 13.935,31.884C13.525,31.462 13.404,30.973 13.443,30.389C13.524,29.184 13.554,27.976 13.604,26.769M22.232,6.689C21.026,5.892 20.707,4.567 20.733,3.175C20.767,1.426 20.962,-0.32 21.062,-2.068C21.082,-2.405 21.017,-2.755 20.94,-3.087C20.62,-4.488 20.283,-5.886 19.949,-7.283C19.88,-7.574 19.797,-7.861 19.654,-8.394C19.3,-7.233 18.626,-7.023 17.75,-7.179C17.176,-7.28 16.586,-7.304 16.019,-7.431C14.651,-7.735 13.284,-8.049 11.935,-8.422C11.266,-8.607 10.622,-8.907 9.99,-9.203C9.421,-9.469 9.266,-9.951 9.369,-10.569C9.489,-11.295 9.613,-12.03 9.62,-12.763C9.637,-14.357 9.579,-15.953 9.55,-17.548C9.549,-17.581 9.516,-17.613 9.452,-17.728C9.222,-16.921 8.996,-16.182 8.801,-15.434C8.337,-13.666 7.898,-11.891 7.427,-10.125C7.238,-9.423 7.132,-9.347 6.461,-9.466C4.087,-9.891 1.715,-10.325 -0.652,-10.789C-1.428,-10.941 -1.64,-11.262 -1.541,-12.033C-1.278,-14.079 -0.984,-16.12 -0.711,-18.164C-0.673,-18.449 -0.684,-18.74 -0.671,-19.028C-0.917,-18.854 -1.043,-18.66 -1.117,-18.447C-1.837,-16.391 -2.56,-14.334 -3.258,-12.27C-3.569,-11.349 -3.821,-10.408 -4.114,-9.479C-4.23,-9.112 -4.447,-8.857 -4.893,-8.981C-5.628,-9.185 -6.354,-9.076 -7.093,-8.966C-7.796,-8.86 -8.023,-9.083 -8.029,-9.79C-8.034,-10.4 -7.984,-11.01 -7.959,-11.62C-8.797,-10.798 -9.537,-9.977 -9.906,-8.952C-10.842,-6.353 -11.71,-3.73 -12.604,-1.117C-13.362,1.098 -13.959,3.357 -14.258,5.678C-14.376,6.595 -14.463,7.566 -14.289,8.46C-13.842,10.753 -12.695,12.695 -10.778,14.078C-8.837,15.478 -6.646,16.464 -4.387,17.169C-2.242,17.839 0,18.251 2.228,18.581C3.952,18.836 5.719,18.956 7.472,18.659C8.276,18.524 9.082,18.39 9.89,18.274C10.658,18.163 11.43,18.069 12.201,17.981C13.246,17.858 14.042,17.155 14.984,16.8C16.713,16.149 18.277,15.215 19.793,14.172C20.639,13.591 21.19,12.835 21.526,11.893C21.835,11.024 21.827,11.034 22.759,11.221C23.787,11.428 24.811,11.643 25.879,11.437C27.798,11.066 29.346,9.18 29.255,7.263C29.201,6.121 28.435,5.148 27.305,4.939C25.957,4.691 24.66,4.848 23.525,5.716C23.124,6.023 22.718,6.323 22.232,6.689M-16.514,-11.011C-15.914,-10.626 -15.224,-10.363 -14.481,-10.323C-13.235,-10.256 -11.986,-10.232 -10.739,-10.237C-10.463,-10.238 -10.057,-10.356 -9.932,-10.558C-9.053,-11.976 -8.079,-13.366 -7.426,-14.89C-6.444,-17.174 -5.706,-19.561 -4.849,-21.898C-4.736,-22.206 -4.637,-22.668 -4.173,-22.507C-4.055,-22.466 -4.002,-21.938 -4.079,-21.684C-4.465,-20.42 -4.891,-19.167 -5.329,-17.92C-5.729,-16.782 -6.192,-15.666 -6.573,-14.522C-7.009,-13.216 -7.095,-11.851 -7.109,-10.484C-7.112,-10.215 -7.146,-9.878 -6.739,-9.901C-6.087,-9.937 -5.321,-9.837 -4.824,-10.147C-4.428,-10.395 -4.358,-11.168 -4.15,-11.711C-4.081,-11.892 -4.028,-12.08 -3.977,-12.268C-3.102,-15.433 -1.928,-18.477 -0.357,-21.369C0.03,-22.083 0.291,-22.865 0.616,-23.613C0.828,-24.101 1.051,-24.584 1.269,-25.069C1.442,-24.877 1.474,-24.728 1.441,-24.594C1.113,-23.192 0.698,-21.806 0.457,-20.391C0.023,-17.86 -0.336,-15.316 -0.665,-12.77C-0.806,-11.684 -0.743,-11.632 0.285,-11.43C2.118,-11.069 3.96,-10.752 5.803,-10.445C6.565,-10.318 6.544,-10.36 6.75,-11.062C7.89,-14.945 9.043,-18.825 10.192,-22.705C10.236,-22.854 10.268,-23.022 10.36,-23.138C10.445,-23.243 10.632,-23.373 10.726,-23.343C10.881,-23.294 11.076,-23.143 11.111,-23C11.162,-22.788 11.099,-22.543 11.063,-22.316C10.919,-21.393 10.675,-20.476 10.634,-19.549C10.537,-17.371 10.544,-15.189 10.49,-13.01C10.475,-12.351 10.436,-11.686 10.34,-11.034C10.195,-10.05 10.207,-9.869 11.191,-9.588C13.062,-9.053 14.939,-8.487 16.854,-8.184C18.634,-7.902 18.57,-7.694 19.106,-9.768C19.583,-11.611 19.899,-13.495 20.306,-15.357C20.479,-16.154 20.684,-16.946 20.913,-17.729C20.949,-17.851 21.19,-17.938 21.353,-17.98C21.392,-17.991 21.563,-17.749 21.555,-17.632C21.53,-17.285 21.443,-16.942 21.385,-16.598C21.133,-15.104 20.821,-13.618 20.643,-12.115C20.3,-9.233 20.812,-6.432 21.793,-3.74C22.351,-2.214 23.193,-0.791 23.901,0.681C24.103,1.099 24.29,1.524 24.459,1.956C24.49,2.037 24.426,2.237 24.365,2.257C24.242,2.298 24.033,2.307 23.961,2.232C23.667,1.926 23.381,1.603 23.146,1.249C22.716,0.605 22.323,-0.066 21.796,-0.92C21.725,0.773 21.635,2.21 21.622,3.648C21.618,4.1 21.78,4.569 21.943,5.002C22.203,5.69 22.476,5.754 23.033,5.239C24.071,4.28 25.282,3.88 26.679,3.983C26.873,3.998 27.069,3.99 27.263,4.014C27.658,4.063 27.924,3.903 28.13,3.566C29.146,1.905 30.244,0.291 31.178,-1.414C32.073,-3.053 32.712,-4.832 33.625,-6.459C35.031,-8.962 35.955,-11.641 36.776,-14.362C37.031,-15.208 37.169,-16.114 37.192,-16.998C37.224,-18.178 36.627,-19.059 35.553,-19.605C35.209,-19.781 34.878,-19.998 34.576,-20.239C32.897,-21.582 31.138,-22.77 29.169,-23.682C25.877,-25.205 22.545,-26.609 19.094,-27.738C16.388,-28.624 13.658,-29.405 10.847,-29.873C9.196,-30.147 7.55,-30.482 5.888,-30.642C4.182,-30.806 2.459,-30.8 0.743,-30.846C0.279,-30.857 -0.197,-30.839 -0.65,-30.745C-2.747,-30.312 -4.854,-29.91 -6.924,-29.369C-8.006,-29.086 -9.063,-28.622 -10.052,-28.091C-11.479,-27.325 -12.619,-26.259 -13.3,-24.704C-14.47,-22.029 -15.66,-19.362 -17.129,-16.828C-17.674,-15.889 -18.144,-14.912 -19.121,-14.1C-18.525,-13.843 -18.049,-13.601 -17.548,-13.429C-16.71,-13.141 -16.643,-13.2 -16.386,-14.003C-15.913,-15.485 -15.47,-16.978 -14.933,-18.437C-14.202,-20.421 -13.235,-22.289 -11.87,-23.924C-11.623,-24.22 -11.331,-24.484 -11.028,-24.723C-10.948,-24.785 -10.705,-24.742 -10.617,-24.661C-10.548,-24.597 -10.543,-24.356 -10.609,-24.269C-10.938,-23.834 -11.313,-23.435 -11.646,-23.003C-13.114,-21.09 -14.025,-18.891 -14.8,-16.641C-15.431,-14.808 -15.936,-12.931 -16.514,-11.011M-15.636,2.121C-15.923,0.565 -16.189,-0.884 -16.457,-2.331C-16.877,-4.592 -16.717,-6.827 -16.167,-9.046C-15.956,-9.895 -15.957,-9.895 -16.766,-10.343C-17.302,-10.64 -17.359,-10.78 -17.182,-11.371C-17.147,-11.483 -17.101,-11.591 -17.063,-11.702C-16.813,-12.437 -16.817,-12.429 -17.513,-12.685C-18.097,-12.9 -18.683,-13.116 -19.246,-13.38C-19.52,-13.508 -19.771,-13.717 -19.98,-13.939C-20.158,-14.129 -20.15,-14.422 -19.892,-14.536C-18.697,-15.061 -18.344,-16.23 -17.776,-17.234C-16.414,-19.646 -15.241,-22.151 -14.216,-24.72C-13.496,-26.525 -12.09,-27.675 -10.557,-28.66C-9.588,-29.283 -8.478,-29.754 -7.367,-30.073C-5.461,-30.622 -3.517,-31.062 -1.566,-31.426C-0.427,-31.638 0.758,-31.693 1.92,-31.68C7.697,-31.613 13.278,-30.432 18.768,-28.696C22.942,-27.377 26.948,-25.671 30.875,-23.756C32.184,-23.117 33.368,-22.299 34.462,-21.356C35.1,-20.808 35.712,-20.696 36.457,-21.084C36.724,-21.224 37.063,-21.361 37.341,-21.316C38.048,-21.203 38.396,-21.57 38.764,-22.082C40.063,-23.895 41.53,-25.568 43.335,-26.898C45.433,-28.443 47.777,-29.301 50.42,-29.201C50.69,-29.191 50.968,-29.163 51.228,-29.091C52.904,-28.628 53.363,-27.187 52.245,-25.864C51.946,-25.51 51.572,-25.217 51.229,-24.9C51.063,-24.748 50.885,-24.608 50.576,-24.347C51.336,-24.223 51.927,-24.091 52.525,-24.035C54.318,-23.868 55.415,-22.434 54.13,-20.371C53.614,-19.542 52.891,-18.947 51.965,-18.68C51.034,-18.41 50.069,-18.256 49.118,-18.055C48.936,-18.016 48.749,-17.993 48.418,-17.939C48.755,-17.535 49.021,-17.219 49.284,-16.9C50.025,-16.006 50.49,-15.014 50.512,-13.818C50.527,-12.93 50.146,-12.339 49.39,-11.933C48.243,-11.317 47.047,-11.355 45.874,-11.763C45.145,-12.016 44.447,-12.394 43.781,-12.793C42.746,-13.412 41.748,-14.094 40.738,-14.756C40.196,-15.111 40.186,-15.132 39.722,-14.587C39.226,-14.005 38.67,-13.526 37.882,-13.449C37.445,-13.406 37.296,-13.135 37.181,-12.785C37.034,-12.342 36.882,-11.9 36.729,-11.46C36.46,-10.687 36.256,-9.884 35.906,-9.15C34.499,-6.196 33.072,-3.251 31.594,-0.332C31.122,0.601 30.463,1.437 29.899,2.323C29.607,2.783 29.321,3.249 29.061,3.727C28.688,4.41 28.681,4.435 29.235,5.019C30.422,6.268 30.61,7.729 29.982,9.24C29.263,10.972 27.437,12.7 24.94,12.581C24.862,12.577 24.783,12.586 24.706,12.576C24.011,12.492 23.315,12.405 22.62,12.319C22.245,12.897 21.893,13.49 21.487,14.046C21.284,14.323 21.008,14.562 20.727,14.764C19.171,15.879 17.57,16.918 15.757,17.582C15.392,17.715 15.026,17.871 14.698,18.075C13.397,18.881 11.956,19.133 10.463,19.233C9.844,19.274 9.221,19.357 8.615,19.491C7.967,19.636 7.883,19.853 8.03,20.628C8.135,21.179 8.293,21.293 8.936,21.267C9.983,21.226 11.031,21.165 12.08,21.143C12.585,21.133 13.091,21.211 13.597,21.217C14.112,21.224 14.41,21.47 14.739,21.871C15.277,22.527 15.942,23.086 16.585,23.649C17.507,24.459 18.255,25.402 18.802,26.491C19.684,28.246 19.703,30.016 18.691,31.729C18.298,32.396 17.82,33.02 17.337,33.628C17.047,33.993 17.009,34.301 17.291,34.669C18.284,35.965 19.262,37.274 20.265,38.565C20.956,39.454 21.685,40.316 22.389,41.197C22.775,41.68 22.788,42.178 22.447,42.705C22.045,43.326 21.674,43.968 21.283,44.597C20.418,45.991 19.152,46.839 17.602,47.308C16.837,47.538 16.078,47.568 15.293,47.401C14.764,47.288 14.218,47.245 13.676,47.199C13.277,47.165 13.112,47.392 13.153,47.776C13.179,48.009 13.192,48.245 13.247,48.471C13.584,49.871 13.912,51.274 14.281,52.666C14.52,53.562 14.564,53.573 15.472,53.633C18.044,53.8 20.471,54.498 22.679,55.811C23.878,56.523 24.955,57.441 26.085,58.269C26.775,58.775 26.808,59.62 27.101,60.326C27.171,60.496 27.029,60.776 26.939,60.986C26.599,61.786 25.98,62.341 25.179,62.594C24.407,62.837 23.59,62.944 22.787,63.078C20.66,63.431 18.52,63.401 16.376,63.257C15.637,63.208 14.896,63.167 14.154,63.155C13.288,63.141 12.445,63.021 11.643,62.688C11.311,62.551 11.02,62.507 10.642,62.638C9.688,62.967 8.717,63.265 7.73,63.465C4.283,64.166 0.811,64.613 -2.719,64.292C-3.727,64.2 -4.731,64.074 -5.734,63.941C-6.576,63.83 -7.267,63.373 -7.916,62.872C-8.518,62.407 -8.585,61.727 -8.377,61.065C-8.203,60.515 -7.965,59.953 -7.622,59.496C-6.347,57.794 -4.779,56.489 -2.566,56.228C-1.215,56.068 0.141,55.947 1.495,55.819C1.999,55.773 2.508,55.773 3.012,55.722C3.669,55.655 3.791,55.523 3.705,54.94C3.411,52.938 3.111,50.938 2.797,48.939C2.67,48.132 2.573,48.042 1.728,48.044C1.146,48.045 0.561,48.1 -0.013,48.194C-2.963,48.682 -5.746,47.376 -7.133,44.831C-7.726,43.744 -7.707,43.449 -6.824,42.58C-5.233,41.015 -3.85,39.287 -2.599,37.441C-2.227,36.893 -2.126,36.685 -2.707,36.053C-4.643,33.945 -5.07,31.385 -4.406,28.738C-3.956,26.943 -3.105,25.228 -1.812,23.816C-1.52,23.498 -1.248,23.213 -1.163,22.747C-1.118,22.499 -0.832,22.195 -0.585,22.105C-0.008,21.894 0.607,21.769 1.216,21.66C1.674,21.579 2.147,21.594 2.61,21.533C2.905,21.495 3.413,21.448 3.443,21.317C3.544,20.88 3.531,20.39 3.435,19.947C3.402,19.798 3.002,19.678 2.754,19.636C1.872,19.486 0.973,19.425 0.099,19.243C-1.614,18.888 -3.378,18.645 -5.006,18.042C-7.189,17.234 -9.375,16.329 -11.272,14.936C-12.671,13.908 -13.775,12.582 -14.429,10.948C-14.661,10.367 -14.938,10.119 -15.613,10.116C-17.421,10.109 -18.668,9.055 -19.172,7.31C-19.494,6.193 -19.55,5.089 -19.184,3.977C-18.574,2.127 -17.595,1.604 -16.055,2.065C-15.95,2.096 -15.836,2.095 -15.636,2.121" style="fill:rgb(35,31,32);fill-rule:nonzero;"/>
            </g>
            <g transform="matrix(4.16667,0,0,4.16667,1322.03,2454.47)">
                <path d="M0,3.082C0.578,1.162 1.083,-0.715 1.714,-2.548C2.488,-4.798 3.399,-6.997 4.868,-8.91C5.2,-9.343 5.576,-9.741 5.904,-10.177C5.971,-10.264 5.966,-10.504 5.896,-10.568C5.809,-10.649 5.565,-10.692 5.485,-10.63C5.183,-10.392 4.891,-10.127 4.644,-9.831C3.278,-8.196 2.312,-6.328 1.581,-4.345C1.044,-2.886 0.601,-1.393 0.128,0.09C-0.129,0.893 -0.196,0.952 -1.034,0.664C-1.535,0.492 -2.012,0.25 -2.607,-0.007C-1.63,-0.819 -1.16,-1.796 -0.615,-2.735C0.854,-5.27 2.044,-7.937 3.214,-10.611C3.895,-12.166 5.034,-13.232 6.462,-13.998C7.45,-14.529 8.508,-14.993 9.59,-15.276C11.66,-15.817 13.767,-16.22 15.863,-16.652C16.316,-16.746 16.793,-16.765 17.257,-16.753C18.973,-16.707 20.695,-16.713 22.401,-16.549C24.063,-16.39 25.71,-16.055 27.36,-15.78C30.172,-15.313 32.901,-14.531 35.607,-13.646C39.059,-12.517 42.391,-11.112 45.683,-9.589C47.651,-8.678 49.411,-7.489 51.09,-6.147C51.392,-5.905 51.723,-5.689 52.066,-5.513C53.141,-4.966 53.737,-4.085 53.706,-2.905C53.683,-2.022 53.545,-1.115 53.29,-0.27C52.469,2.452 51.545,5.131 50.139,7.634C49.226,9.261 48.587,11.04 47.691,12.679C46.758,14.384 45.66,15.998 44.644,17.658C44.438,17.996 44.172,18.155 43.776,18.106C43.583,18.083 43.387,18.091 43.192,18.076C41.796,17.973 40.585,18.373 39.547,19.332C38.989,19.847 38.717,19.782 38.457,19.095C38.294,18.662 38.132,18.192 38.136,17.74C38.148,16.303 38.238,14.865 38.31,13.173C38.837,14.026 39.229,14.697 39.659,15.342C39.895,15.695 40.181,16.019 40.475,16.324C40.547,16.399 40.756,16.391 40.879,16.35C40.939,16.33 41.004,16.13 40.973,16.049C40.804,15.617 40.616,15.191 40.415,14.773C39.707,13.302 38.864,11.879 38.307,10.353C37.325,7.661 36.813,4.859 37.156,1.978C37.335,0.475 37.646,-1.012 37.898,-2.505C37.957,-2.85 38.044,-3.192 38.068,-3.539C38.077,-3.656 37.905,-3.898 37.866,-3.888C37.704,-3.846 37.463,-3.759 37.427,-3.637C37.197,-2.854 36.992,-2.062 36.819,-1.265C36.413,0.598 36.097,2.481 35.62,4.325C35.084,6.398 35.147,6.19 33.367,5.908C31.453,5.605 29.575,5.04 27.705,4.505C26.721,4.224 26.709,4.043 26.854,3.059C26.949,2.406 26.988,1.742 27.004,1.083C27.058,-1.097 27.051,-3.278 27.147,-5.456C27.188,-6.383 27.433,-7.301 27.577,-8.224C27.612,-8.45 27.676,-8.695 27.625,-8.907C27.59,-9.05 27.395,-9.201 27.239,-9.25C27.146,-9.28 26.959,-9.15 26.874,-9.045C26.781,-8.93 26.75,-8.762 26.706,-8.612C25.557,-4.732 24.403,-0.853 23.264,3.03C23.058,3.732 23.079,3.774 22.316,3.647C20.474,3.341 18.632,3.023 16.799,2.663C15.771,2.461 15.708,2.408 15.849,1.322C16.178,-1.224 16.537,-3.768 16.971,-6.298C17.212,-7.713 17.627,-9.1 17.955,-10.501C17.987,-10.636 17.956,-10.784 17.782,-10.977C17.564,-10.491 17.342,-10.008 17.13,-9.521C16.805,-8.772 16.544,-7.99 16.156,-7.276C14.586,-4.385 13.412,-1.34 12.537,1.825C12.485,2.013 12.433,2.201 12.363,2.382C12.155,2.925 12.086,3.697 11.689,3.945C11.192,4.256 10.427,4.155 9.774,4.191C9.367,4.215 9.401,3.878 9.404,3.608C9.419,2.241 9.505,0.877 9.94,-0.43C10.321,-1.573 10.785,-2.689 11.185,-3.827C11.623,-5.074 12.049,-6.327 12.435,-7.592C12.512,-7.846 12.459,-8.373 12.341,-8.414C11.877,-8.575 11.777,-8.113 11.665,-7.806C10.808,-5.469 10.069,-3.081 9.088,-0.797C8.435,0.727 7.461,2.116 6.582,3.535C6.457,3.736 6.051,3.854 5.774,3.855C4.527,3.86 3.278,3.837 2.032,3.769C1.29,3.729 0.6,3.467 0,3.082" style="fill:rgb(96,56,18);fill-rule:nonzero;"/>
            </g>
            <g transform="matrix(4.16667,0,0,4.16667,1337.55,2399.15)">
                <path d="M0,14.542C0.309,13.294 0.714,12.072 1.161,10.867C1.602,9.678 2.058,8.484 2.574,7.325C3.065,6.225 3.65,5.162 4.338,4.172C4.667,3.697 5.015,3.225 5.412,2.803C5.712,2.483 6.042,2.179 6.242,1.791C5.516,1.771 4.399,1.863 4.437,0.987C4.472,0.21 5.32,-0.475 5.865,-0.93C6.594,-1.538 7.39,-2.101 8.226,-2.551C7.437,-2.377 6.646,-2.204 5.864,-2C4.782,-1.717 3.725,-1.253 2.736,-0.722C1.309,0.045 0.168,1.11 -0.512,2.665C-1.682,5.34 -2.872,8.007 -4.341,10.541C-4.886,11.48 -5.355,12.457 -6.333,13.27C-5.737,13.526 -5.261,13.769 -4.76,13.94C-3.922,14.229 -3.854,14.169 -3.598,13.366C-3.125,11.885 -2.682,10.391 -2.145,8.932C-1.414,6.948 -0.447,5.08 0.918,3.445C1.165,3.149 1.457,2.885 1.76,2.646C1.84,2.584 2.083,2.627 2.171,2.708C2.24,2.772 2.245,3.013 2.179,3.1C1.851,3.535 1.475,3.934 1.143,4.366C-0.326,6.279 -1.237,8.479 -2.012,10.729C-2.643,12.562 -3.147,14.438 -3.726,16.358C-3.126,16.743 -2.436,17.006 -1.693,17.046C-1.281,17.068 -0.869,17.079 -0.457,17.093C-0.361,16.233 -0.207,15.382 0,14.542" style="fill:rgb(129,78,35);fill-rule:nonzero;"/>
            </g>
            <g transform="matrix(4.16667,0,0,4.16667,1369.53,2442.1)">
                <path d="M0,6.321C-0.604,4.395 -0.57,2.283 -0.36,0.297C-0.318,-0.098 -0.265,-0.491 -0.206,-0.885C-0.209,-0.876 -0.212,-0.868 -0.215,-0.861C-0.614,0.277 -1.078,1.393 -1.459,2.537C-1.895,3.843 -1.98,5.208 -1.995,6.575C-1.998,6.844 -2.032,7.181 -1.625,7.158C-0.999,7.123 -0.272,7.206 0.225,6.937C0.143,6.735 0.065,6.53 0,6.321" style="fill:rgb(129,78,35);fill-rule:nonzero;"/>
            </g>
            <g transform="matrix(4.16667,0,0,4.16667,1396.18,2443.79)">
                <path d="M0,-0.444C-0.255,-2.409 -0.241,-4.392 -0.23,-6.373C-0.454,-5.498 -0.674,-4.623 -0.826,-3.736C-1.259,-1.206 -1.618,1.338 -1.947,3.884C-2.088,4.97 -2.025,5.023 -0.997,5.225C0.292,5.478 1.586,5.706 2.881,5.929C1.099,4.268 0.307,1.925 0,-0.444" style="fill:rgb(129,78,35);fill-rule:nonzero;"/>
            </g>
            <g transform="matrix(4.16667,0,0,4.16667,1441.89,2451.64)">
                <path d="M0,0.988C-0.8,-0.997 -1.378,-3.126 -1.572,-5.278C-1.591,-5.112 -1.61,-4.946 -1.618,-4.779C-1.715,-2.601 -1.708,-0.419 -1.762,1.76C-1.777,2.42 -1.816,3.084 -1.912,3.736C-2.057,4.72 -2.045,4.901 -1.061,5.182C0.276,5.565 1.619,5.96 2.975,6.266C1.685,4.712 0.742,2.832 0,0.988" style="fill:rgb(129,78,35);fill-rule:nonzero;"/>
            </g>
            <g transform="matrix(4.16667,0,0,4.16667,1504.48,2480.78)">
                <path d="M0,15.482C-0.063,15.266 -0.08,15.149 -0.13,15.046C-0.423,14.447 -0.908,14.147 -1.665,14.276C-3.108,14.52 -4.203,15.359 -5.07,16.502C-5.151,16.609 -5.06,16.847 -5.048,17.024C-4.873,16.985 -4.666,16.993 -4.529,16.898C-4.021,16.546 -3.558,16.128 -3.039,15.795C-2.255,15.292 -1.454,14.717 -0.546,15.626C-0.48,15.691 -0.195,15.537 0,15.482M-17.242,4.159C-17.355,3.692 -17.477,3.059 -17.67,2.448C-17.78,2.102 -18.071,1.883 -18.471,1.892C-18.938,1.903 -19.181,2.233 -19.271,2.61C-19.518,3.647 -19.513,4.69 -18.964,5.64C-18.834,5.864 -18.479,6.087 -18.236,6.078C-17.994,6.069 -17.66,5.815 -17.553,5.583C-17.381,5.211 -17.364,4.77 -17.242,4.159M-28.331,3.766C-28.336,3.878 -28.35,4.032 -28.348,4.186C-28.344,4.616 -28.354,5.068 -27.827,5.225C-27.354,5.367 -27.016,5.128 -26.725,4.779C-26.085,4.015 -25.701,3.153 -25.688,2.144C-25.682,1.684 -25.818,1.302 -26.273,1.112C-26.691,0.936 -27.141,1.072 -27.505,1.495C-28.054,2.133 -28.332,2.878 -28.331,3.766M-20.604,7.872C-20.199,7.388 -20.269,6.983 -20.406,6.569C-20.803,5.375 -22.001,4.564 -23.5,4.479C-24.902,4.399 -26.009,5.001 -26.476,6.26C-26.726,6.936 -26.793,7.693 -26.865,8.421C-27.165,11.42 -24.134,12.74 -22.036,12.379C-21.745,12.33 -21.457,12.149 -21.219,11.962C-21.083,11.857 -21.052,11.618 -20.999,11.499C-21.924,11.408 -22.773,11.392 -23.593,11.227C-24.594,11.026 -25.396,10.475 -25.734,9.451C-26.052,8.491 -26,7.524 -25.607,6.595C-25.274,5.809 -24.667,5.389 -23.791,5.366C-22.203,5.323 -21.368,5.905 -20.835,7.448C-20.798,7.554 -20.728,7.648 -20.604,7.872M-16.359,15.887C-15.912,15.692 -15.532,15.578 -15.218,15.367C-15.074,15.27 -15.058,14.985 -14.983,14.785C-15.161,14.744 -15.353,14.638 -15.516,14.671C-16.429,14.851 -17.338,15.056 -18.241,15.28C-18.346,15.305 -18.446,15.486 -18.476,15.612C-18.493,15.686 -18.38,15.858 -18.302,15.875C-18,15.937 -17.689,15.98 -17.382,15.983C-16.91,15.988 -16.76,16.283 -16.772,16.665C-16.797,17.361 -17.05,17.925 -17.721,18.281C-19.217,19.073 -20.796,19.586 -22.466,19.84C-23.419,19.985 -24.323,19.846 -25.191,19.427C-25.91,19.08 -26.312,18.496 -26.535,17.751C-26.568,17.641 -26.771,17.495 -26.864,17.514C-26.982,17.538 -27.117,17.698 -27.162,17.828C-27.335,18.315 -27.137,18.744 -26.874,19.142C-26.233,20.114 -25.295,20.642 -24.171,20.8C-21.622,21.162 -19.317,20.364 -17.14,19.153C-16.173,18.616 -15.911,17.767 -16.172,16.653C-16.225,16.426 -16.282,16.202 -16.359,15.887M-5.042,14.465C-4.557,14.1 -4.15,13.799 -3.749,13.493C-2.614,12.625 -1.317,12.467 0.03,12.715C1.16,12.924 1.927,13.898 1.98,15.04C2.071,16.957 0.523,18.842 -1.396,19.213C-2.464,19.42 -3.487,19.205 -4.516,18.998C-5.447,18.811 -5.439,18.8 -5.748,19.669C-6.084,20.612 -6.636,21.368 -7.481,21.949C-8.997,22.992 -10.562,23.925 -12.29,24.577C-13.232,24.932 -14.028,25.635 -15.073,25.757C-15.845,25.846 -16.616,25.94 -17.385,26.05C-18.192,26.167 -18.998,26.3 -19.803,26.436C-21.556,26.733 -23.322,26.613 -25.047,26.358C-27.274,26.028 -29.517,25.616 -31.661,24.946C-33.92,24.241 -36.111,23.254 -38.053,21.855C-39.97,20.472 -41.116,18.53 -41.563,16.237C-41.737,15.343 -41.65,14.372 -41.532,13.455C-41.233,11.133 -40.637,8.875 -39.879,6.66C-38.984,4.046 -38.116,1.423 -37.181,-1.175C-36.812,-2.201 -36.071,-3.021 -35.233,-3.843C-35.259,-3.233 -35.309,-2.623 -35.304,-2.013C-35.298,-1.306 -35.07,-1.083 -34.367,-1.189C-33.628,-1.299 -32.902,-1.409 -32.167,-1.205C-31.722,-1.08 -31.505,-1.335 -31.389,-1.703C-31.096,-2.631 -30.844,-3.572 -30.532,-4.494C-29.834,-6.557 -29.111,-8.614 -28.392,-10.67C-28.317,-10.883 -28.191,-11.078 -27.945,-11.251C-27.958,-10.963 -27.947,-10.672 -27.985,-10.387C-28.259,-8.343 -28.553,-6.302 -28.815,-4.256C-28.914,-3.485 -28.702,-3.164 -27.927,-3.012C-25.56,-2.548 -23.187,-2.114 -20.813,-1.689C-20.143,-1.57 -20.036,-1.646 -19.848,-2.348C-19.376,-4.114 -18.937,-5.889 -18.474,-7.658C-18.278,-8.405 -18.053,-9.144 -17.822,-9.952C-17.759,-9.836 -17.726,-9.804 -17.725,-9.771C-17.695,-8.176 -17.638,-6.58 -17.654,-4.986C-17.661,-4.253 -17.785,-3.518 -17.905,-2.792C-18.009,-2.174 -17.854,-1.692 -17.284,-1.426C-16.652,-1.13 -16.009,-0.83 -15.34,-0.645C-13.99,-0.272 -12.623,0.042 -11.256,0.346C-10.688,0.473 -10.099,0.497 -9.524,0.598C-8.648,0.753 -7.975,0.544 -7.62,-0.618C-7.478,-0.084 -7.395,0.203 -7.325,0.494C-6.991,1.891 -6.654,3.289 -6.334,4.69C-6.258,5.022 -6.192,5.372 -6.212,5.709C-6.312,7.457 -6.508,9.203 -6.541,10.952C-6.567,12.344 -6.248,13.669 -5.042,14.465" style="fill:rgb(237,171,122);fill-rule:nonzero;"/>
            </g>
            <g transform="matrix(4.16667,0,0,4.16667,1502.21,2467.88)">
                <path d="M0,18.722C-0.908,17.814 -1.709,18.388 -2.493,18.892C-3.012,19.225 -3.476,19.643 -3.983,19.994C-4.12,20.089 -4.327,20.081 -4.502,20.12C-4.514,19.944 -4.605,19.705 -4.524,19.598C-3.657,18.455 -2.563,17.617 -1.119,17.372C-0.362,17.243 0.123,17.543 0.416,18.143C0.466,18.245 0.482,18.363 0.546,18.578C0.351,18.633 0.065,18.787 0,18.722M0.576,15.813C-0.771,15.564 -2.068,15.721 -3.203,16.589C-3.604,16.896 -4.011,17.197 -4.496,17.561C-5.702,16.765 -6.021,15.441 -5.995,14.048C-5.962,12.299 -5.767,10.553 -5.666,8.805C-5.646,8.468 -5.712,8.118 -5.788,7.786C-6.108,6.385 -6.445,4.988 -6.779,3.59C-6.849,3.299 -6.933,3.012 -7.074,2.479C-7.429,3.64 -8.103,3.85 -8.979,3.695C-9.553,3.593 -10.143,3.57 -10.71,3.443C-12.077,3.138 -13.444,2.825 -14.794,2.451C-15.463,2.266 -16.106,1.966 -16.738,1.67C-17.308,1.405 -17.463,0.922 -17.359,0.304C-17.239,-0.422 -17.115,-1.157 -17.108,-1.889C-17.092,-3.484 -17.149,-5.08 -17.179,-6.674C-17.18,-6.708 -17.213,-6.74 -17.276,-6.855C-17.507,-6.048 -17.732,-5.308 -17.928,-4.561C-18.392,-2.793 -18.83,-1.017 -19.303,0.748C-19.49,1.451 -19.597,1.527 -20.268,1.408C-22.642,0.983 -25.014,0.548 -27.381,0.084C-28.156,-0.068 -28.369,-0.388 -28.27,-1.16C-28.007,-3.206 -27.713,-5.247 -27.439,-7.291C-27.401,-7.576 -27.412,-7.867 -27.399,-8.155C-27.646,-7.981 -27.771,-7.787 -27.846,-7.574C-28.565,-5.517 -29.288,-3.461 -29.986,-1.397C-30.298,-0.475 -30.55,0.465 -30.843,1.393C-30.959,1.761 -31.176,2.016 -31.621,1.892C-31.729,1.863 -31.835,1.852 -31.941,1.834C-31.938,1.853 -31.94,1.872 -31.937,1.891C-31.896,2.151 -31.815,2.402 -31.604,2.572C-31.333,2.79 -30.942,2.846 -30.609,2.89C-30.192,2.946 -29.774,2.97 -29.358,3.029C-28.923,3.091 -28.362,3.225 -27.931,3.082C-27.571,2.964 -27.549,2.352 -27.425,2.046C-27.301,1.742 -27.104,1.493 -26.762,1.455C-26.098,1.381 -25.353,1.697 -24.743,1.916C-23.968,2.195 -23.211,2.522 -22.443,2.819C-21.459,3.2 -20.401,3.405 -19.376,3.645C-18.165,3.928 -16.947,4.252 -15.722,4.466C-14.803,4.626 -13.863,4.69 -12.958,4.924C-12.173,5.128 -11.407,5.484 -10.933,6.169C-10.66,6.563 -10.531,7 -10.409,7.457C-10.239,8.095 -10.078,8.736 -9.928,9.379C-9.304,12.043 -8.897,14.738 -8.867,17.477C-8.852,18.888 -8.903,20.3 -9.028,21.705C-9.147,23.028 -9.302,24.369 -9.606,25.663C-9.703,26.076 -9.832,26.481 -9.979,26.877C-8.925,26.34 -7.917,25.721 -6.936,25.045C-6.09,24.464 -5.538,23.708 -5.202,22.766C-4.894,21.897 -4.901,21.908 -3.97,22.094C-2.941,22.301 -1.918,22.516 -0.85,22.309C1.069,21.939 2.617,20.053 2.526,18.136C2.473,16.994 1.706,16.021 0.576,15.813" style="fill:rgb(221,151,106);fill-rule:nonzero;"/>
            </g>
            <g transform="matrix(4.16667,0,0,4.16667,1447.52,2694.75)">
                <path d="M0,-16.806C-0.051,-15.599 -0.08,-14.391 -0.161,-13.186C-0.2,-12.602 -0.079,-12.113 0.33,-11.691C2.236,-9.725 3.705,-7.424 5.32,-5.234C6.034,-4.264 6.821,-3.344 7.616,-2.439C8.146,-1.834 8.145,-1.299 7.662,-0.676C7.306,-0.215 7.069,0.338 6.707,0.792C5.371,2.464 3.729,3.338 1.501,2.834C0.006,2.496 -1.414,2.711 -2.73,3.628C-4.271,4.701 -7.104,4.91 -8.78,4.134C-10.372,3.397 -11.989,3.373 -13.688,3.673C-16.224,4.12 -18.297,3.284 -19.8,1.161C-20.474,0.211 -20.492,0.09 -19.674,-0.717C-18.025,-2.345 -16.696,-4.214 -15.424,-6.133C-14.929,-6.879 -14.424,-7.62 -13.905,-8.352C-13.653,-8.706 -13.476,-9.225 -12.839,-8.971C-12.812,-8.959 -12.551,-9.309 -12.552,-9.49C-12.553,-9.913 -12.643,-10.337 -12.703,-10.76C-13.057,-13.224 -13.409,-15.688 -13.771,-18.151C-13.85,-18.69 -13.978,-19.221 -14.06,-19.759C-14.2,-20.673 -14.104,-20.868 -13.173,-21.042C-12.372,-21.192 -11.549,-21.225 -10.733,-21.269C-10.596,-21.276 -10.381,-21.113 -10.314,-20.974C-9.672,-19.637 -8.521,-19.234 -7.153,-19.181C-6.325,-19.149 -5.752,-19.598 -5.251,-20.16C-5.11,-20.318 -5.067,-20.579 -5.027,-20.802C-4.896,-21.527 -4.906,-21.542 -4.194,-21.595C-3.495,-21.647 -2.791,-21.716 -2.093,-21.688C-1.443,-21.662 -0.795,-21.537 -0.155,-21.41C-0.022,-21.383 0.128,-21.163 0.164,-21.008C0.215,-20.787 0.169,-20.543 0.159,-20.31C0.112,-19.142 0.062,-17.974 0.014,-16.806L0,-16.806Z" style="fill:rgb(198,115,151);fill-rule:nonzero;"/>
            </g>
            <g transform="matrix(4.16667,0,0,4.16667,1614.99,2433.69)">
                <path d="M0,-2.547C-0.153,-1.875 -0.638,-1.131 -1.476,-0.697C-2.021,-0.414 -2.624,-0.182 -3.228,-0.081C-4.299,0.098 -5.389,0.16 -6.471,0.267C-6.587,0.279 -6.72,0.237 -6.817,0.28C-6.984,0.353 -7.21,0.445 -7.262,0.585C-7.311,0.717 -7.216,0.97 -7.1,1.08C-6.877,1.292 -6.591,1.435 -6.336,1.614C-5.211,2.408 -4.422,3.432 -4.145,4.808C-3.982,5.613 -4.126,5.984 -4.823,6.36C-5.527,6.741 -6.286,6.928 -7.076,6.676C-7.631,6.5 -8.207,6.327 -8.7,6.031C-9.968,5.271 -11.185,4.43 -12.44,3.65C-13.014,3.295 -13.195,2.839 -13.105,2.182C-13.049,1.766 -13.127,1.332 -13.152,0.906C-13.207,-0.004 -13.594,-0.713 -14.339,-1.27C-14.951,-1.728 -14.961,-1.852 -14.53,-2.398C-13.082,-4.234 -11.601,-6.045 -9.674,-7.423C-7.813,-8.752 -5.753,-9.475 -3.451,-9.457C-3.374,-9.457 -3.296,-9.448 -3.218,-9.447C-2.552,-9.433 -1.943,-9.245 -1.686,-8.587C-1.412,-7.885 -1.867,-7.338 -2.362,-6.979C-3.335,-6.274 -4.382,-5.669 -5.405,-5.036C-5.635,-4.895 -5.928,-4.844 -6.133,-4.678C-6.245,-4.586 -6.288,-4.334 -6.261,-4.172C-6.244,-4.077 -6.036,-3.977 -5.9,-3.949C-5.757,-3.922 -5.586,-3.95 -5.445,-4.003C-4.23,-4.458 -2.979,-4.294 -1.739,-4.212C-1.324,-4.185 -0.906,-4.022 -0.518,-3.855C-0.078,-3.666 0.104,-3.285 0,-2.547" style="fill:rgb(96,56,18);fill-rule:nonzero;"/>
            </g>
            <g transform="matrix(4.16667,0,0,4.16667,1422.3,2777.96)">
                <path d="M0,-7.377C1.13,-6.731 1.614,-5.668 2.016,-4.565C2.268,-3.873 2.441,-3.151 2.633,-2.438C2.803,-1.804 2.716,-1.598 2.045,-1.422C1.03,-1.155 0.004,-0.918 -1.031,-0.749C-2.681,-0.481 -4.335,-0.149 -5.997,-0.081C-7.977,0 -9.968,-0.15 -11.951,-0.24C-12.488,-0.265 -13.034,-0.386 -13.55,-0.546C-15.302,-1.09 -15.637,-1.989 -14.584,-3.474C-13.398,-5.146 -11.888,-6.398 -9.762,-6.665C-7.794,-6.913 -5.823,-7.136 -3.85,-7.333C-3.522,-7.365 -3.153,-7.266 -2.842,-7.136C-1.839,-6.718 -0.882,-6.66 0,-7.377" style="fill:rgb(255,215,64);fill-rule:nonzero;"/>
            </g>
            <g transform="matrix(4.16667,0,0,4.16667,1458.5,2739.63)">
                <path d="M0,8.291C-1.348,8.129 -2.696,7.976 -4.042,7.8C-4.672,7.717 -5.041,7.413 -5.192,6.713C-5.422,5.654 -5.839,4.638 -6.122,3.589C-6.206,3.278 -6.162,2.905 -6.08,2.586C-5.995,2.254 -5.782,1.955 -5.644,1.635C-5.429,1.137 -5.131,0.987 -4.546,1.079C-3.873,1.186 -3.162,1.083 -2.471,1.034C-2.247,1.018 -1.947,0.951 -1.828,0.796C-1.145,-0.093 -0.231,0.152 0.62,0.299C2.391,0.604 4.12,1.102 5.67,2.028C6.867,2.745 7.983,3.594 9.137,4.383C9.706,4.772 9.892,5.407 9.938,6.004C9.966,6.347 9.653,6.792 9.373,7.068C8.86,7.575 8.156,7.733 7.455,7.837C4.986,8.204 2.508,8.384 0,8.291" style="fill:rgb(255,215,64);fill-rule:nonzero;"/>
            </g>
            <g transform="matrix(4.16667,0,0,4.16667,1330.55,2472.58)">
                <path d="M0,12.355C-0.184,12.024 -0.322,11.845 -0.389,11.643C-1.354,8.735 -1.83,5.763 -1.453,2.698C-1.363,1.967 -1.201,1.246 -1.058,0.523C-0.989,0.175 -0.788,0 -0.399,0.023C0.765,0.092 1.931,0.123 3.094,0.195C3.829,0.241 3.876,0.321 3.631,1.069C3.003,2.987 2.337,4.893 1.73,6.818C1.229,8.409 0.796,10.021 0.323,11.621C0.263,11.827 0.151,12.017 0,12.355" style="fill:rgb(96,56,18);fill-rule:nonzero;"/>
            </g>
            <g transform="matrix(4.16667,0,0,4.16667,1386.14,2662.75)">
                <path d="M0,-11.52C0.093,-10.988 0.156,-10.448 0.284,-9.923C0.545,-8.855 0.52,-7.891 -0.245,-6.972C-1.083,-5.964 -1.062,-4.828 -0.388,-3.709C-0.066,-3.176 0.285,-2.66 0.583,-2.114C0.679,-1.939 0.743,-1.634 0.654,-1.492C0.334,-0.973 -0.057,-0.498 -0.469,0.059C-2,-1.32 -2.69,-2.956 -2.791,-4.855C-2.86,-6.163 -2.59,-7.406 -1.956,-8.568C-1.565,-9.285 -1.23,-10.033 -0.844,-10.753C-0.686,-11.048 -0.456,-11.305 -0.259,-11.579C-0.173,-11.559 -0.086,-11.54 0,-11.52" style="fill:rgb(237,171,122);fill-rule:nonzero;"/>
            </g>
            <g transform="matrix(4.16667,0,0,4.16667,1452.55,2616.53)">
                <path d="M0,6.773C0.458,6.176 0.88,5.624 1.307,5.075C1.827,4.405 1.841,3.72 1.356,3.032C0.999,2.523 0.661,1.993 0.247,1.532C-0.149,1.091 -0.315,0.632 -0.251,0.046C-0.193,-0.486 -0.199,-1.026 -0.169,-1.734C0.159,-1.521 0.355,-1.435 0.499,-1.295C1.559,-0.263 2.636,0.751 3.277,2.129C3.981,3.646 4.062,5.122 3.103,6.56C2.735,7.11 2.353,7.649 1.961,8.182C1.723,8.507 1.457,8.494 1.198,8.185C0.802,7.712 0.401,7.245 0,6.773" style="fill:rgb(237,171,122);fill-rule:nonzero;"/>
            </g>
            <g transform="matrix(4.16667,0,0,4.16667,1430.22,2716.72)">
                <path d="M0,7.789C-0.518,7.293 -0.961,6.913 -1.346,6.481C-1.54,6.264 -1.685,5.966 -1.756,5.681C-2.146,4.101 -2.514,2.517 -2.872,0.931C-2.998,0.373 -2.897,0.27 -2.297,0.216C-1.758,0.168 -1.216,0.14 -0.68,0.066C-0.193,0 0.034,0.215 0.141,0.663C0.508,2.208 0.901,3.747 1.252,5.296C1.305,5.531 1.251,5.843 1.131,6.054C0.808,6.621 0.421,7.153 0,7.789" style="fill:white;fill-rule:nonzero;"/>
            </g>
            <g transform="matrix(4.16667,0,0,4.16667,1404.77,2746.21)">
                <path d="M0,-7.774C0.847,-7.449 1.504,-7.222 2.133,-6.937C2.306,-6.859 2.473,-6.62 2.517,-6.426C2.938,-4.575 3.323,-2.715 3.739,-0.862C3.825,-0.476 3.704,-0.245 3.345,-0.169C2.971,-0.089 2.577,0 2.204,-0.036C1.34,-0.117 1.229,-0.244 1.078,-1.153C0.723,-3.286 0.382,-5.421 0,-7.774" style="fill:rgb(237,171,122);fill-rule:nonzero;"/>
            </g>
            <g transform="matrix(4.16667,0,0,4.16667,1319.44,2541.84)">
                <path d="M0,-1.923C0.291,-1.852 0.583,-1.78 0.875,-1.709C1.654,-1.519 1.988,-1.085 1.976,-0.301C1.963,0.434 1.953,1.17 1.959,1.904C1.962,2.258 1.786,2.382 1.462,2.394C0.363,2.438 -0.432,1.896 -0.922,0.989C-1.605,-0.274 -1.635,-1.632 -1.132,-2.968C-0.718,-4.067 -0.005,-4.361 1.104,-3.965C1.395,-3.861 1.666,-3.694 1.929,-3.529C2.434,-3.211 2.516,-2.904 2.204,-2.369C2.134,-2.249 1.91,-2.158 1.756,-2.157C1.188,-2.154 0.622,-2.194 0.055,-2.218C0.036,-2.119 0.019,-2.022 0,-1.923" style="fill:rgb(237,171,122);fill-rule:nonzero;"/>
            </g>
            <g transform="matrix(4.16667,0,0,4.16667,1442.7,2711.29)">
                <path d="M0,7.27C-0.685,7.251 -0.821,7.167 -1,6.51C-1.43,4.935 -1.822,3.349 -2.262,1.777C-2.381,1.351 -2.268,1.129 -1.892,0.942C-1.51,0.751 -1.161,0.497 -0.79,0.285C-0.292,0 -0.156,0.079 -0.011,0.663C0.461,2.545 0.934,4.427 1.417,6.306C1.588,6.972 1.549,7.062 0.903,7.179C0.712,7.213 0.518,7.231 0.324,7.25C0.208,7.263 0.091,7.264 0,7.27" style="fill:rgb(237,171,122);fill-rule:nonzero;"/>
            </g>
            <g transform="matrix(4.16667,0,0,4.16667,1415.11,2596.22)">
                <path d="M0,3.738C-0.164,3.688 -0.546,3.61 -0.895,3.458C-1.571,3.161 -1.571,3.066 -1.522,2.244C-1.493,1.748 -1.601,1.246 -1.613,0.745C-1.632,0.007 -1.572,-0.062 -0.855,-0.073C-0.132,-0.083 0.593,-0.059 1.316,-0.049C1.484,0.619 1.664,1.285 1.818,1.957C2.102,3.186 1.529,3.821 0,3.738" style="fill:rgb(237,171,122);fill-rule:nonzero;"/>
            </g>
            <g transform="matrix(4.16667,0,0,4.16667,1548.99,2433.69)">
                <path d="M0,2.978C0.21,1.598 -0.067,0.371 -1.054,-0.677C-1.405,-1.051 -1.264,-1.371 -0.753,-1.478C-0.572,-1.516 -0.313,-1.556 -0.196,-1.462C0.432,-0.96 1.201,-0.52 1.595,0.137C2.337,1.376 1.758,3.428 0.588,4.334C0.451,4.441 0.219,4.534 0.076,4.489C-0.025,4.457 -0.102,4.183 -0.101,4.018C-0.099,3.671 -0.037,3.325 0,2.978" style="fill:white;fill-rule:nonzero;"/>
            </g>
            <g transform="matrix(4.16667,0,0,4.16667,1436.32,2563.75)">
                <path d="M0,-4.025C0.077,-3.711 0.135,-3.486 0.187,-3.259C0.448,-2.145 0.187,-1.296 -0.78,-0.759C-2.958,0.452 -5.263,1.249 -7.812,0.888C-8.936,0.73 -9.874,0.202 -10.515,-0.77C-10.777,-1.169 -10.976,-1.597 -10.803,-2.085C-10.758,-2.214 -10.623,-2.375 -10.505,-2.398C-10.411,-2.418 -10.209,-2.271 -10.176,-2.162C-9.952,-1.417 -9.551,-0.833 -8.832,-0.485C-7.964,-0.066 -7.06,0.073 -6.106,-0.072C-4.437,-0.326 -2.857,-0.839 -1.361,-1.631C-0.69,-1.987 -0.437,-2.551 -0.413,-3.248C-0.4,-3.629 -0.551,-3.924 -1.022,-3.929C-1.33,-3.932 -1.641,-3.975 -1.942,-4.038C-2.021,-4.054 -2.134,-4.226 -2.116,-4.3C-2.087,-4.426 -1.986,-4.607 -1.882,-4.632C-0.979,-4.856 -0.069,-5.061 0.844,-5.241C1.007,-5.274 1.198,-5.169 1.376,-5.128C1.302,-4.927 1.285,-4.642 1.142,-4.546C0.827,-4.335 0.447,-4.22 0,-4.025" style="fill:rgb(35,31,32);fill-rule:nonzero;"/>
            </g>
            <g transform="matrix(4.16667,0,0,4.16667,1418.63,2519.39)">
                <path d="M0,-1.395C-0.123,-1.619 -0.193,-1.712 -0.23,-1.819C-0.764,-3.362 -1.599,-3.944 -3.187,-3.901C-4.062,-3.877 -4.67,-3.458 -5.003,-2.671C-5.396,-1.743 -5.447,-0.776 -5.13,0.184C-4.791,1.209 -3.989,1.759 -2.988,1.96C-2.169,2.126 -1.319,2.141 -0.395,2.232C-0.447,2.351 -0.479,2.59 -0.614,2.696C-0.853,2.882 -1.141,3.063 -1.432,3.113C-3.529,3.473 -6.561,2.153 -6.261,-0.845C-6.188,-1.574 -6.121,-2.331 -5.871,-3.006C-5.404,-4.266 -4.298,-4.868 -2.896,-4.788C-1.396,-4.703 -0.198,-3.892 0.198,-2.698C0.336,-2.284 0.405,-1.878 0,-1.395" style="fill:rgb(35,31,32);fill-rule:nonzero;"/>
            </g>
            <g transform="matrix(4.16667,0,0,4.16667,1386.43,2491.35)">
                <path d="M0,1.229C-0.001,0.341 0.277,-0.404 0.826,-1.042C1.19,-1.465 1.64,-1.601 2.058,-1.425C2.513,-1.235 2.649,-0.853 2.643,-0.393C2.63,0.616 2.246,1.478 1.606,2.242C1.315,2.59 0.978,2.83 0.504,2.688C-0.023,2.531 -0.013,2.079 -0.017,1.649C-0.019,1.495 -0.005,1.34 0,1.229" style="fill:rgb(35,31,32);fill-rule:nonzero;"/>
            </g>
            <g transform="matrix(4.16667,0,0,4.16667,1432.64,2496.67)">
                <path d="M0,0.346C-0.122,0.957 -0.139,1.399 -0.311,1.77C-0.418,2.002 -0.752,2.256 -0.994,2.265C-1.236,2.275 -1.592,2.051 -1.722,1.827C-2.271,0.877 -2.275,-0.166 -2.028,-1.203C-1.938,-1.58 -1.696,-1.91 -1.229,-1.921C-0.829,-1.929 -0.538,-1.711 -0.428,-1.365C-0.234,-0.754 -0.113,-0.121 0,0.346" style="fill:rgb(35,31,32);fill-rule:nonzero;"/>
            </g>
            <g transform="matrix(4.16667,0,0,4.16667,1504.48,2546.15)">
                <path d="M0,-0.207C-0.195,-0.152 -0.48,0.002 -0.546,-0.063C-1.454,-0.972 -2.255,-0.397 -3.039,0.106C-3.558,0.439 -4.021,0.857 -4.529,1.209C-4.666,1.304 -4.873,1.296 -5.048,1.335C-5.06,1.158 -5.151,0.92 -5.07,0.813C-4.203,-0.33 -3.108,-1.169 -1.665,-1.413C-0.908,-1.542 -0.423,-1.242 -0.13,-0.643C-0.08,-0.54 -0.063,-0.423 0,-0.207" style="fill:rgb(35,31,32);fill-rule:nonzero;"/>
            </g>
        </g>
    </g>
</svg>
