<?xml version="1.0" encoding="UTF-8" standalone="no"?>
<!DOCTYPE svg PUBLIC "-//W3C//DTD SVG 1.1//EN" "http://www.w3.org/Graphics/SVG/1.1/DTD/svg11.dtd">
<svg width="100%" height="100%" viewBox="0 0 202 399" version="1.1" xmlns="http://www.w3.org/2000/svg" xmlns:xlink="http://www.w3.org/1999/xlink" xml:space="preserve" xmlns:serif="http://www.serif.com/" style="fill-rule:evenodd;clip-rule:evenodd;stroke-linejoin:round;stroke-miterlimit:2;">
    <g transform="matrix(1,0,0,1,-1608,-2386)">
        <g>
            <g transform="matrix(4.16667,0,0,4.16667,1742.65,2534.55)">
                <path d="M0,24.462C-0.141,23.9 -0.264,23.373 -0.405,22.851C-0.477,22.59 -0.533,22.3 -0.691,22.099C-0.8,21.961 -1.077,21.902 -1.272,21.914C-1.348,21.918 -1.491,22.238 -1.456,22.376C-1.241,23.2 -0.994,24.017 -0.734,24.827C-0.66,25.06 -0.299,25.07 -0.168,24.858C-0.091,24.732 -0.05,24.583 0,24.462M-14.917,25.16C-14.729,24.316 -14.567,23.569 -14.396,22.825C-14.297,22.394 -14.516,22.187 -14.891,22.064C-15.339,21.917 -15.42,22.242 -15.499,22.54C-15.607,22.947 -15.692,23.36 -15.779,23.774C-15.96,24.633 -15.958,24.634 -14.917,25.16M-7.631,11.915L-7.631,11.903C-8.06,11.903 -8.488,11.911 -8.916,11.901C-9.325,11.892 -9.429,12.106 -9.454,12.481C-9.514,13.363 -9.022,13.839 -8.304,14.189C-6.899,14.873 -5.918,14.266 -5.935,12.712C-5.942,11.922 -5.942,11.921 -6.696,11.915C-7.008,11.913 -7.319,11.915 -7.631,11.915M-21.14,11.892C-20.125,10.649 -18.966,10.037 -17.715,9.433C-18.897,8.366 -19.999,7.373 -21.204,6.287C-21.481,8.198 -21.173,9.929 -21.14,11.892M5.224,11.301C5.877,9.622 6.141,7.007 5.861,5.723C4.5,6.976 3.121,8.244 1.72,9.534C2.908,9.931 4.26,10.109 5.224,11.301M-5.132,11.743C-5.167,12.505 -5.177,13.124 -5.229,13.739C-5.295,14.497 -5.788,14.953 -6.469,15.123C-8.208,15.558 -10.061,14.464 -10.057,12.937C-10.056,12.782 -10.042,12.595 -10.12,12.483C-10.211,12.352 -10.429,12.179 -10.537,12.211C-11.649,12.534 -12.253,13.502 -11.398,14.494C-11.128,14.808 -10.755,15.066 -10.38,15.252C-8.974,15.953 -7.455,16.058 -5.943,15.81C-5.325,15.709 -4.63,15.393 -4.204,14.949C-3.129,13.829 -3.036,12.903 -4.511,12.044C-4.676,11.948 -4.854,11.877 -5.132,11.743M0.082,28.077C0.788,27.765 1.466,27.503 2.107,27.171C2.853,26.784 3.039,26.473 2.856,25.67C2.548,24.314 2.155,22.975 1.779,21.635C1.721,21.425 1.559,21.245 1.429,21.025C1.207,21.119 1.025,21.183 0.855,21.269C0.035,21.682 0.041,21.683 0.259,22.594C0.394,23.159 0.532,23.725 0.631,24.296C0.699,24.69 0.645,25.066 0.267,25.328C-0.008,25.52 -0.399,25.701 -0.482,25.967C-0.57,26.251 -0.366,26.631 -0.272,26.963C-0.18,27.294 -0.065,27.619 0.082,28.077M-15.365,30.106C-15.242,29.561 -15.014,29.168 -15.123,28.926C-15.505,28.072 -15.32,27.246 -15.156,26.413C-15.093,26.091 -15.179,25.889 -15.429,25.72C-15.654,25.566 -15.883,25.416 -16.105,25.258C-16.566,24.932 -16.756,24.532 -16.573,23.948C-16.376,23.318 -16.271,22.661 -16.1,22.023C-16.009,21.682 -16.043,21.41 -16.347,21.202C-16.617,21.018 -16.888,20.831 -17.207,20.612C-17.925,22.003 -18.444,23.342 -18.793,24.74C-19.031,25.697 -18.875,26.645 -18.199,27.374C-17.359,28.281 -16.42,29.098 -15.365,30.106M-18.306,54.676C-18.487,55.322 -18.696,55.861 -18.78,56.419C-18.861,56.949 -18.639,57.452 -18.155,57.707C-17.507,58.049 -16.829,58.357 -16.133,58.584C-14.707,59.05 -13.22,59.044 -11.744,58.968C-10.211,58.889 -8.757,58.534 -7.526,57.515C-6.794,56.907 -6.499,56.195 -6.719,55.243C-6.868,55.264 -6.996,55.247 -7.083,55.299C-8.682,56.254 -10.419,56.52 -12.246,56.364C-12.517,56.342 -12.792,56.377 -13.063,56.357C-14.895,56.22 -16.716,56.038 -18.306,54.676M-5.832,56.995C-4.057,57.582 -2.325,57.779 -0.565,57.75C1.57,57.715 3.708,57.695 5.841,57.58C6.681,57.535 7.521,57.295 8.336,57.058C9.023,56.858 9.097,56.669 9.1,55.941C9.103,55.233 8.948,55.067 8.278,55.261C7.175,55.578 6.056,55.599 4.926,55.569C2.904,55.517 0.882,55.48 -1.14,55.406C-2.42,55.359 -3.699,55.271 -4.977,55.176C-5.446,55.141 -5.72,55.239 -5.715,55.779C-5.712,56.16 -5.785,56.542 -5.832,56.995M-14.545,50.627C-13.467,50.502 -12.581,50.383 -11.692,50.302C-10.907,50.231 -10.897,50.25 -10.803,49.434C-10.578,47.502 -10.366,45.567 -10.14,43.636C-10.037,42.762 -9.914,41.89 -9.798,40.997C-10.83,40.884 -11.752,40.775 -12.675,40.685C-13.313,40.621 -13.373,40.694 -13.444,41.375C-13.563,42.497 -13.689,43.618 -13.824,44.738C-14.055,46.661 -14.295,48.584 -14.545,50.627M-12.162,55.736C-10.439,55.795 -8.913,55.259 -7.469,54.425C-6.979,54.143 -6.912,53.865 -7.337,53.509C-8.227,52.761 -9.163,52.064 -10.122,51.406C-10.383,51.228 -10.792,51.205 -11.133,51.209C-13.111,51.23 -15.007,51.564 -16.651,52.774C-17.109,53.11 -17.818,53.37 -17.718,54.012C-17.625,54.601 -16.943,54.829 -16.406,55.063C-16.23,55.139 -16.037,55.191 -15.847,55.22C-14.619,55.398 -13.391,55.566 -12.162,55.736M-3.474,40.528C-4.29,40.66 -5.051,40.809 -5.818,40.898C-6.292,40.953 -6.379,41.144 -6.297,41.592C-5.982,43.311 -5.735,45.042 -5.409,46.759C-5.163,48.055 -4.854,49.34 -4.532,50.618C-4.388,51.195 -4.173,51.339 -3.604,51.193C-2.854,51.001 -2.122,50.724 -1.405,50.429C-1.242,50.362 -1.099,50.079 -1.077,49.882C-1.05,49.624 -1.135,49.348 -1.201,49.086C-1.858,46.488 -2.521,43.892 -3.188,41.296C-3.254,41.04 -3.372,40.798 -3.474,40.528M-6.872,52.713C-6.399,52.33 -6.021,51.918 -5.554,51.673C-5.051,51.408 -5.044,51.122 -5.165,50.638C-5.467,49.436 -5.729,48.221 -5.95,47.001C-6.282,45.167 -6.574,43.326 -6.862,41.484C-6.92,41.111 -7.068,40.921 -7.453,40.928C-7.725,40.933 -7.998,40.935 -8.27,40.92C-8.732,40.894 -8.965,41.057 -9.027,41.563C-9.221,43.142 -9.466,44.715 -9.688,46.29C-9.852,47.444 -10.016,48.598 -10.168,49.753C-10.208,50.058 -10.226,50.344 -9.895,50.569C-8.873,51.265 -7.876,51.997 -6.872,52.713M1.662,54.838C1.663,54.808 1.665,54.776 1.666,54.746C3.343,54.746 5.02,54.761 6.695,54.738C7.358,54.73 8.008,54.599 8.533,54.135C8.456,53.302 7.86,52.805 7.235,52.453C5.637,51.556 3.97,50.77 2.118,50.561C1.084,50.444 0.074,50.42 -0.934,50.982C-1.937,51.541 -3.035,51.965 -4.258,51.971C-4.722,51.973 -5.235,52.247 -5.632,52.53C-6.042,52.824 -6.325,53.286 -6.115,53.858C-5.923,54.384 -5.492,54.488 -4.99,54.512C-2.772,54.611 -0.555,54.728 1.662,54.838M-8.688,40.131C-6.069,40.284 -3.573,39.729 -1.111,38.937C-0.213,38.648 -0.183,38.613 -0.332,37.713C-0.369,37.484 -0.44,37.26 -0.504,37.036C-1.14,34.794 -1.794,32.558 -2.401,30.308C-2.535,29.816 -2.792,29.687 -3.236,29.728C-3.816,29.782 -4.4,29.898 -4.978,29.87C-7.075,29.773 -9.172,29.637 -11.267,29.494C-12.082,29.44 -12.895,29.341 -13.706,29.241C-14.127,29.191 -14.381,29.305 -14.431,29.763C-14.452,29.952 -14.535,30.136 -14.59,30.322C-15.065,31.964 -15.538,33.606 -16.02,35.245C-16.26,36.065 -16.5,36.885 -16.77,37.694C-17.023,38.461 -16.921,38.608 -16.122,38.893C-15.137,39.243 -14.124,39.574 -13.097,39.731C-11.641,39.951 -10.159,40.006 -8.688,40.131M-12.632,13.282C-13.95,13.915 -14.854,14.901 -15.759,15.85C-16.425,16.548 -16.928,17.404 -17.487,18.201C-17.757,18.585 -17.847,19.052 -17.463,19.369C-16.63,20.059 -15.761,20.708 -14.867,21.318C-14.335,21.682 -14.148,21.582 -13.97,20.95C-13.695,19.977 -13.453,18.994 -13.182,18.021C-13.109,17.761 -12.997,17.508 -12.868,17.271C-12.826,17.193 -12.639,17.113 -12.578,17.146C-12.462,17.208 -12.316,17.351 -12.315,17.461C-12.315,17.687 -12.398,17.913 -12.454,18.139C-12.921,20.027 -13.396,21.914 -13.854,23.805C-14.109,24.863 -14.362,25.925 -14.57,26.993C-14.78,28.076 -14.521,28.412 -13.436,28.542C-12.584,28.645 -11.731,28.733 -10.877,28.798C-9.205,28.926 -7.532,29.12 -5.86,29.121C-4.43,29.122 -2.993,28.936 -1.57,28.746C-0.883,28.654 -0.678,28.228 -0.835,27.559C-1.092,26.462 -1.354,25.366 -1.638,24.276C-2.135,22.356 -2.652,20.441 -3.153,18.522C-3.211,18.301 -3.24,18.066 -3.238,17.839C-3.237,17.757 -3.117,17.632 -3.028,17.607C-2.941,17.582 -2.774,17.629 -2.733,17.698C-2.616,17.897 -2.522,18.114 -2.461,18.336C-2.273,19.011 -2.12,19.696 -1.925,20.368C-1.737,21.014 -1.572,21.183 -0.916,21.01C-0.139,20.806 0.635,20.497 1.333,20.099C2.318,19.537 2.316,19.417 1.779,18.456C1.515,17.982 1.235,17.505 0.893,17.087C0.128,16.153 -0.672,15.247 -1.477,14.347C-1.778,14.009 -2.133,13.719 -2.541,13.333C-2.641,13.658 -2.698,13.84 -2.753,14.022C-3.241,15.666 -4.499,16.354 -6.06,16.561C-6.864,16.668 -7.699,16.631 -8.514,16.568C-10.669,16.401 -12.122,15.246 -12.632,13.282M-16.45,-24.904C-16.571,-24.309 -16.66,-23.937 -16.72,-23.561C-16.935,-22.219 -17.116,-20.87 -17.354,-19.531C-17.699,-17.579 -18.128,-15.642 -18.436,-13.684C-18.707,-11.959 -18.812,-10.208 -19.076,-8.481C-19.564,-5.294 -20.114,-2.116 -20.641,1.065C-20.8,2.024 -20.974,2.98 -21.132,3.939C-21.253,4.669 -21.153,5.277 -20.484,5.789C-19.528,6.522 -18.651,7.358 -17.754,8.164C-16.837,8.988 -15.771,9.519 -14.599,9.872C-12.952,10.368 -11.264,10.594 -9.566,10.847C-7.744,11.118 -5.984,10.967 -4.255,10.518C-2.793,10.138 -1.379,9.558 0.033,9.005C1.051,8.607 2.013,8.083 2.778,7.269C3.656,6.334 4.485,5.344 5.44,4.497C5.885,4.104 6.042,3.745 5.999,3.215C5.921,2.246 5.817,1.279 5.78,0.31C5.685,-2.181 5.626,-4.671 5.538,-7.161C5.5,-8.25 5.429,-9.337 5.366,-10.424C5.276,-11.976 5.166,-13.528 5.093,-15.082C5.05,-16.012 5.04,-16.042 4.112,-16.141C2.604,-16.301 1.091,-16.427 -0.408,-16.648C-1.983,-16.882 -3.569,-17.099 -5.059,-17.725C-7.796,-18.874 -10.39,-20.295 -12.885,-21.893C-13.533,-22.309 -14.095,-22.864 -14.688,-23.366C-15.219,-23.816 -15.738,-24.282 -16.45,-24.904M-16.981,-27.067C-16.629,-26.517 -16.371,-25.864 -15.906,-25.436C-14.445,-24.098 -13.047,-22.668 -11.242,-21.753C-10.688,-21.472 -10.185,-21.087 -9.625,-20.814C-7.771,-19.91 -5.909,-19.017 -4.031,-18.161C-3.579,-17.955 -3.06,-17.883 -2.563,-17.785C0.155,-17.253 2.899,-16.925 5.67,-16.835C5.825,-16.83 5.996,-16.846 6.132,-16.788C6.298,-16.718 6.517,-16.604 6.559,-16.464C6.592,-16.354 6.416,-16.073 6.29,-16.043C5.781,-15.918 5.733,-15.573 5.76,-15.153C5.787,-14.726 5.787,-14.297 5.822,-13.87C5.954,-12.281 6.149,-10.694 6.222,-9.103C6.345,-6.379 6.388,-3.651 6.477,-0.925C6.489,-0.538 6.575,-0.154 6.626,0.232C6.937,2.598 6.94,4.98 6.829,7.352C6.748,9.057 6.502,10.76 5.907,12.39C5.749,12.823 5.702,13.299 5.63,13.76C5.562,14.191 5.725,14.344 6.146,14.218C7.086,13.935 7.975,13.545 8.69,12.839C9.536,12.004 10.529,11.541 11.746,11.66C12.246,11.709 12.643,11.533 12.996,11.165C14.505,9.591 15.148,7.661 15.096,5.549C15.056,3.922 14.771,2.3 14.553,0.681C14.211,-1.866 13.905,-4.406 13.948,-6.992C13.989,-9.413 14.204,-11.816 14.49,-14.21C14.64,-15.458 14.77,-16.698 14.632,-17.93C14.426,-19.784 14.069,-21.62 13.789,-23.466C13.418,-25.905 12.356,-27.976 10.505,-29.622C10.011,-30.061 9.468,-30.449 8.986,-30.902C7.159,-32.622 4.933,-33.537 2.518,-33.94C0.448,-34.286 -1.653,-34.476 -3.748,-34.623C-5.104,-34.718 -6.481,-34.682 -7.84,-34.577C-10.535,-34.369 -13.127,-33.654 -15.682,-32.793C-16.877,-32.39 -18.003,-31.861 -18.952,-31.025C-19.295,-30.725 -19.681,-30.354 -19.801,-29.944C-19.995,-29.28 -20.403,-29.059 -20.996,-28.847C-22.278,-28.386 -23.597,-27.912 -24.467,-26.778C-26.259,-24.443 -27.77,-21.953 -28.438,-19.039C-28.839,-17.295 -29.144,-15.524 -29.62,-13.802C-30.594,-10.289 -31.049,-6.698 -31.185,-3.08C-31.29,-0.243 -31.396,2.597 -31.267,5.446C-31.169,7.594 -30.056,9.174 -28.943,10.806C-28.613,11.29 -28.274,11.309 -27.703,11.058C-27.492,10.965 -27.295,10.834 -27.106,10.698C-26.461,10.233 -26.5,10.256 -26.002,10.927C-25.189,12.02 -24.348,13.094 -23.471,14.135C-23.025,14.663 -22.448,15.054 -21.738,15.147C-21.671,15.005 -21.605,14.936 -21.611,14.872C-21.727,13.635 -21.917,12.4 -21.959,11.16C-22.034,8.982 -22.192,6.783 -21.999,4.621C-21.774,2.11 -21.203,-0.37 -20.792,-2.865C-20.362,-5.475 -19.857,-8.076 -19.546,-10.7C-19.284,-12.903 -19.053,-15.1 -18.591,-17.276C-18.083,-19.672 -17.761,-22.106 -17.31,-24.516C-17.148,-25.376 -17.037,-26.162 -17.492,-26.999C-17.878,-27.708 -17.514,-28.066 -16.691,-27.948C-15.234,-27.739 -13.937,-27.111 -12.666,-26.424C-10.668,-25.342 -8.521,-24.896 -6.271,-24.782C-4.17,-24.675 -2.073,-24.49 0.025,-24.334C0.577,-24.294 1.08,-24.113 1.524,-23.769C0.882,-23.695 0.258,-23.679 -0.365,-23.698C-2.08,-23.753 -3.794,-23.839 -5.509,-23.882C-8.355,-23.954 -11.075,-24.467 -13.572,-25.934C-14.573,-26.523 -15.647,-26.989 -16.981,-27.067M-3.793,11.483C-3.219,11.988 -2.852,12.405 -2.4,12.69C-1.626,13.177 -1.014,13.815 -0.43,14.499C0.151,15.181 0.799,15.812 1.328,16.529C1.879,17.278 2.336,18.099 2.811,18.901C3.066,19.333 2.935,19.741 2.584,20.061C2.237,20.376 2.28,20.687 2.407,21.107C2.823,22.482 3.183,23.874 3.542,25.267C3.618,25.563 3.615,25.883 3.627,26.193C3.651,26.834 3.409,27.33 2.806,27.613C2.206,27.895 1.613,28.19 1.008,28.456C0.194,28.814 -0.638,29.131 -1.439,29.514C-1.589,29.585 -1.73,29.898 -1.704,30.072C-1.623,30.608 -1.468,31.134 -1.323,31.658C-0.732,33.795 -0.122,35.927 0.454,38.067C0.659,38.828 0.556,39.051 -0.128,39.364C-0.692,39.623 -1.293,39.805 -1.875,40.025C-2.484,40.257 -2.54,40.324 -2.434,40.978C-2.353,41.477 -2.209,41.964 -2.098,42.458C-1.885,43.407 -1.699,44.363 -1.458,45.306C-1.149,46.511 -0.776,47.699 -0.471,48.905C-0.326,49.476 0.004,49.638 0.549,49.605C2.937,49.456 5.054,50.34 7.139,51.352C8.202,51.867 8.952,52.674 9.481,53.713C9.864,54.462 10.009,55.251 9.963,56.088C9.919,56.912 9.576,57.463 8.743,57.734C7.585,58.111 6.414,58.364 5.193,58.377C3.833,58.391 2.472,58.417 1.11,58.428C-1.194,58.447 -3.498,58.436 -5.713,57.673C-6.068,57.551 -6.295,57.621 -6.548,57.851C-6.836,58.112 -7.145,58.352 -7.452,58.589C-8.477,59.382 -9.69,59.658 -10.935,59.815C-13.01,60.074 -15.061,59.873 -17.066,59.312C-17.581,59.168 -18.055,58.851 -18.522,58.573C-19.485,58.003 -19.855,57.099 -19.676,55.984C-19.365,54.055 -18.478,52.494 -16.655,51.681C-15.382,51.112 -15.131,50.157 -15.026,48.915C-14.866,47.018 -14.522,45.137 -14.261,43.248C-14.197,42.786 -14.147,42.321 -14.094,41.858C-13.948,40.59 -13.952,40.597 -15.211,40.137C-15.832,39.91 -16.463,39.692 -17.051,39.396C-17.805,39.014 -17.89,38.822 -17.689,38.001C-17.46,37.058 -17.184,36.124 -16.896,35.196C-16.504,33.933 -16.089,32.676 -15.668,31.421C-15.54,31.04 -15.597,30.825 -15.95,30.55C-16.779,29.905 -17.562,29.195 -18.312,28.46C-19.453,27.345 -19.967,26.007 -19.439,24.428C-19.045,23.247 -18.594,22.084 -18.127,20.931C-17.944,20.48 -17.798,20.146 -18.151,19.654C-18.559,19.09 -18.502,18.391 -18.098,17.783C-16.634,15.59 -14.936,13.627 -12.585,12.329C-12.214,12.124 -11.815,11.97 -11.304,11.735C-11.991,11.555 -12.591,11.421 -13.175,11.238C-14.249,10.903 -15.313,10.533 -16.386,10.191C-16.597,10.122 -16.859,10.024 -17.043,10.09C-18.337,10.558 -19.521,11.196 -20.478,12.234C-21.146,12.961 -21.133,14.017 -20.678,14.941C-20.533,15.234 -20.312,15.47 -20.538,15.767C-20.655,15.921 -20.892,16.091 -21.064,16.08C-22.466,15.994 -23.599,15.359 -24.46,14.264C-25.062,13.498 -25.629,12.705 -26.197,11.915C-26.43,11.592 -26.654,11.425 -27.068,11.654C-27.333,11.801 -27.649,11.867 -27.952,11.929C-28.716,12.085 -29.334,11.868 -29.762,11.183C-30.36,10.224 -30.986,9.281 -31.563,8.311C-31.735,8.02 -31.858,7.661 -31.878,7.326C-31.986,5.461 -32.147,3.592 -32.115,1.728C-32.075,-0.644 -31.826,-3.013 -31.741,-5.385C-31.565,-10.33 -30.181,-15.054 -29.098,-19.827C-28.439,-22.725 -26.817,-25.189 -25.05,-27.534C-24.221,-28.633 -22.941,-29.123 -21.709,-29.605C-21.093,-29.847 -20.678,-30.184 -20.329,-30.748C-20.032,-31.229 -19.578,-31.658 -19.104,-31.976C-18.33,-32.491 -17.523,-33.008 -16.659,-33.329C-12.944,-34.709 -9.117,-35.612 -5.127,-35.497C-2.247,-35.413 0.638,-35.264 3.463,-34.616C5.149,-34.229 6.784,-33.624 8.187,-32.639C10,-31.365 11.706,-29.923 13.022,-28.101C13.813,-27.007 14.282,-25.738 14.531,-24.449C15.062,-21.702 15.613,-18.944 15.583,-16.125C15.575,-15.352 15.427,-14.582 15.345,-13.81C15.029,-10.865 14.811,-7.918 14.862,-4.95C14.885,-3.658 15.08,-2.396 15.226,-1.121C15.543,1.66 16.008,4.428 16.066,7.236C16.078,7.806 15.96,8.286 15.623,8.761C14.994,9.649 14.444,10.591 13.825,11.486C13.35,12.174 12.688,12.517 11.817,12.426C10.813,12.32 9.993,12.744 9.293,13.422C8.396,14.291 7.297,14.772 6.117,15.088C5.117,15.355 4.749,15.031 4.799,13.98C4.808,13.785 4.826,13.591 4.845,13.398C4.887,12.941 5.139,12.318 4.934,12.066C4.511,11.544 3.883,11.143 3.267,10.835C2.576,10.489 1.812,10.281 1.066,10.055C0.819,9.98 0.509,9.957 0.27,10.038C-1.015,10.47 -2.285,10.941 -3.793,11.483" style="fill:rgb(35,31,32);fill-rule:nonzero;"/>
            </g>
            <g transform="matrix(4.16667,0,0,4.16667,1671.9,2565.79)">
                <path d="M0,-34.564C1.334,-34.486 2.408,-34.02 3.409,-33.431C5.906,-31.963 8.626,-31.451 11.473,-31.378C13.188,-31.335 14.901,-31.25 16.616,-31.195C17.239,-31.175 17.863,-31.192 18.506,-31.266C18.062,-31.61 17.559,-31.791 17.007,-31.831C14.908,-31.987 12.812,-32.171 10.711,-32.279C8.461,-32.393 6.313,-32.838 4.315,-33.92C3.045,-34.608 1.747,-35.236 0.29,-35.445C-0.532,-35.563 -0.896,-35.205 -0.511,-34.496C-0.056,-33.659 -0.167,-32.873 -0.328,-32.012C-0.779,-29.603 -1.102,-27.168 -1.609,-24.773C-2.071,-22.596 -2.303,-20.4 -2.564,-18.197C-2.876,-15.573 -3.381,-12.971 -3.811,-10.362C-4.222,-7.867 -4.793,-5.386 -5.018,-2.876C-5.211,-0.713 -5.053,1.485 -4.978,3.664C-4.936,4.904 -4.745,6.138 -4.63,7.375C-4.624,7.439 -4.689,7.508 -4.757,7.65C-5.467,7.557 -6.044,7.166 -6.489,6.638C-7.366,5.597 -8.208,4.523 -9.021,3.43C-9.519,2.759 -9.479,2.736 -10.125,3.202C-10.313,3.337 -10.511,3.468 -10.722,3.561C-11.293,3.812 -11.632,3.793 -11.962,3.309C-13.074,1.677 -14.188,0.097 -14.285,-2.05C-14.415,-4.9 -14.309,-7.74 -14.203,-10.577C-14.067,-14.195 -13.612,-17.786 -12.639,-21.298C-12.162,-23.021 -11.857,-24.792 -11.457,-26.536C-10.788,-29.45 -9.277,-31.94 -7.485,-34.275C-6.615,-35.409 -5.297,-35.882 -4.015,-36.343C-3.422,-36.556 -3.014,-36.777 -2.819,-37.441C-2.699,-37.851 -2.313,-38.221 -1.971,-38.522C-1.021,-39.358 0.104,-39.886 1.3,-40.29C3.854,-41.151 6.446,-41.866 9.142,-42.074C10.5,-42.178 11.877,-42.214 13.233,-42.12C15.328,-41.973 17.43,-41.783 19.499,-41.437C21.914,-41.034 24.141,-40.119 25.968,-38.399C26.449,-37.946 26.992,-37.558 27.486,-37.119C29.338,-35.472 30.399,-33.402 30.771,-30.962C31.051,-29.117 31.407,-27.281 31.613,-25.426C31.751,-24.195 31.621,-22.955 31.472,-21.707C31.186,-19.313 30.971,-16.91 30.93,-14.489C30.887,-11.903 31.192,-9.363 31.534,-6.816C31.752,-5.197 32.037,-3.575 32.077,-1.948C32.13,0.165 31.486,2.094 29.978,3.668C29.624,4.037 29.228,4.212 28.728,4.164C27.511,4.044 26.518,4.507 25.672,5.342C24.956,6.048 24.067,6.438 23.127,6.721C22.706,6.847 22.543,6.694 22.611,6.263C22.684,5.802 22.73,5.327 22.889,4.893C23.483,3.263 23.729,1.56 23.811,-0.145C23.922,-2.517 23.919,-4.899 23.607,-7.265C23.557,-7.651 23.471,-8.035 23.458,-8.421C23.369,-11.148 23.326,-13.876 23.203,-16.6C23.131,-18.191 22.936,-19.778 22.804,-21.367C22.769,-21.793 22.769,-22.223 22.741,-22.65C22.715,-23.07 22.763,-23.415 23.271,-23.54C23.397,-23.57 23.573,-23.851 23.54,-23.96C23.498,-24.101 23.279,-24.214 23.113,-24.285C22.978,-24.342 22.807,-24.327 22.651,-24.332C19.881,-24.421 17.137,-24.75 14.418,-25.282C13.922,-25.379 13.402,-25.452 12.95,-25.658C11.072,-26.514 9.211,-27.407 7.356,-28.311C6.797,-28.584 6.294,-28.968 5.739,-29.25C3.935,-30.165 2.536,-31.594 1.075,-32.933C0.61,-33.361 0.353,-34.014 0,-34.564" style="fill:rgb(140,92,51);fill-rule:nonzero;"/>
            </g>
            <g transform="matrix(4.16667,0,0,4.16667,1644.64,2405.39)">
                <path d="M0,42.427C-0.359,41.127 -0.52,39.781 -0.645,38.442C-0.778,37.006 -0.918,35.576 -0.886,34.133C-0.812,30.864 -0.162,27.549 -0.611,24.286C-1.182,24.725 -1.648,25.275 -2.022,25.896C-2.899,27.352 -3.32,29.068 -3.626,30.724C-3.915,32.294 -4.072,33.882 -4.322,35.458C-4.364,35.721 -4.768,35.707 -4.799,35.446C-4.801,35.426 -4.802,35.406 -4.804,35.386L-4.804,35.385C-5.106,32.787 -5.034,30.161 -4.698,27.571C-4.089,22.862 -2.675,18.262 -0.799,13.908C0.123,11.77 1.143,9.695 2.521,7.81C3.572,6.372 4.758,5.044 5.909,3.688C5.81,3.294 6.019,3.066 6.453,3.037C6.573,2.893 6.695,2.751 6.813,2.607C6.863,2.544 6.945,2.507 7.026,2.524C8.54,2.84 10.042,3.207 11.547,3.56C16.499,4.721 21.923,5.902 26.892,4.314C25.831,4.271 24.771,4.217 23.714,4.133C21.138,3.929 18.565,3.58 16.055,2.957C14.843,2.656 13.654,2.292 12.496,1.823C11.335,1.354 10.18,0.841 8.935,0.64C8.772,0.614 8.63,0.414 8.743,0.263C9.644,-0.934 10.895,-1.788 12.271,-2.356C14.701,-3.358 17.408,-3.586 20.034,-3.604C19.948,-3.61 19.862,-3.618 19.776,-3.624C18.42,-3.719 17.043,-3.682 15.685,-3.578C12.989,-3.37 10.397,-2.655 7.843,-1.794C6.647,-1.39 5.521,-0.862 4.572,-0.026C4.229,0.275 3.844,0.645 3.724,1.055C3.529,1.719 3.121,1.94 2.528,2.153C1.246,2.614 -0.072,3.087 -0.942,4.221C-2.734,6.556 -4.245,9.046 -4.914,11.96C-5.314,13.704 -5.619,15.475 -6.096,17.198C-7.069,20.71 -7.524,24.301 -7.66,27.919C-7.766,30.756 -7.872,33.596 -7.742,36.446C-7.645,38.593 -6.53,40.173 -5.418,41.805C-5.089,42.289 -4.75,42.308 -4.179,42.057C-3.968,41.964 -3.771,41.833 -3.582,41.698C-2.937,41.232 -2.976,41.255 -2.478,41.926C-1.665,43.019 -0.823,44.093 0.054,45.134C0.5,45.662 1.076,46.053 1.786,46.146C1.843,46.027 1.889,45.962 1.901,45.906C0.936,44.96 0.357,43.721 0,42.427" style="fill:rgb(162,106,62);fill-rule:nonzero;"/>
            </g>
            <g transform="matrix(4.16667,0,0,4.16667,1679.2,2537)">
                <path d="M0,-14.958C0,-14.808 -0.016,-14.759 0.003,-14.732C0.103,-14.587 0.21,-14.447 0.314,-14.306C0.413,-14.41 0.563,-14.498 0.601,-14.62C1.066,-16.163 1.742,-17.571 3.029,-18.618C3.113,-18.687 3.155,-18.923 3.102,-19.012C3.04,-19.114 2.845,-19.2 2.719,-19.187C2.537,-19.166 2.323,-19.094 2.196,-18.97C1.026,-17.831 0.294,-16.453 0,-14.958M14.299,-10.927C14.191,-11.311 14.049,-11.949 13.827,-12.561C13.698,-12.917 13.34,-13.122 12.972,-12.991C12.715,-12.899 12.404,-12.667 12.321,-12.427C11.969,-11.396 12.031,-10.36 12.5,-9.365C12.564,-9.228 12.651,-9.06 12.774,-8.999C13.035,-8.869 13.359,-8.678 13.594,-8.742C13.832,-8.808 14.092,-9.122 14.166,-9.378C14.281,-9.78 14.249,-10.225 14.299,-10.927M2.868,-10.165C3.004,-9.732 3.081,-9.187 3.337,-8.744C3.623,-8.249 4.164,-8.227 4.493,-8.681C5.272,-9.753 5.539,-11.004 5.396,-12.296C5.313,-13.055 4.479,-13.309 3.896,-12.806C3.644,-12.587 3.423,-12.275 3.313,-11.962C3.122,-11.423 3.031,-10.85 2.868,-10.165M9.722,-7.656C10.657,-7.662 11.137,-7.436 11.319,-6.788C11.514,-6.102 11.569,-5.366 11.13,-4.759C10.2,-3.475 9.111,-2.385 7.416,-2.168C7.223,-2.144 7.049,-1.975 6.866,-1.872C7.02,-1.71 7.152,-1.519 7.332,-1.395C7.447,-1.316 7.632,-1.317 7.785,-1.318C7.978,-1.32 8.184,-1.322 8.361,-1.388C10.078,-2.025 11.426,-3.101 12.122,-4.826C12.538,-5.86 12.445,-6.924 11.7,-7.798C10.985,-8.635 9.991,-8.629 8.997,-8.457C8.73,-8.411 8.462,-8.335 8.214,-8.229C7.127,-7.762 6.312,-7.019 5.95,-5.863C5.901,-5.705 5.984,-5.506 6.007,-5.326C6.158,-5.404 6.35,-5.449 6.453,-5.569C6.681,-5.833 6.844,-6.152 7.069,-6.418C7.762,-7.23 8.628,-7.692 9.722,-7.656M4.347,0.054C4.325,0.025 4.309,-0.023 4.283,-0.028C3.451,-0.193 2.969,0.31 2.61,0.928C2.177,1.678 1.859,2.486 2.271,3.358C2.402,3.635 2.667,3.59 2.836,3.375C2.95,3.229 2.99,3.025 3.093,2.776C3.951,4.286 5.271,5.008 6.907,5.183C8.294,5.331 9.647,5.127 10.86,4.444C11.486,4.092 12.043,3.566 12.527,3.026C13.004,2.495 13.016,2.067 12.822,1.344C12.262,2.194 11.635,2.898 10.742,3.371C9.409,4.077 8.005,4.249 6.555,4.059C5.567,3.929 4.692,3.506 4.121,2.621C3.47,1.61 3.5,1.207 4.291,0.268C4.334,0.217 4.329,0.126 4.347,0.054M-1.221,-25.49C-0.509,-24.868 0.011,-24.402 0.542,-23.952C1.135,-23.45 1.696,-22.895 2.345,-22.479C4.84,-20.881 7.434,-19.46 10.171,-18.311C11.66,-17.685 13.246,-17.468 14.821,-17.234C16.32,-17.013 17.834,-16.887 19.342,-16.727C20.27,-16.628 20.279,-16.598 20.322,-15.668C20.396,-14.114 20.506,-12.562 20.596,-11.01C20.658,-9.923 20.729,-8.836 20.768,-7.747C20.855,-5.257 20.914,-2.767 21.01,-0.276C21.047,0.693 21.15,1.66 21.229,2.629C21.271,3.159 21.114,3.518 20.67,3.911C19.715,4.758 18.886,5.748 18.008,6.683C17.242,7.497 16.28,8.021 15.263,8.419C13.851,8.972 12.437,9.552 10.975,9.932C9.245,10.381 7.485,10.532 5.663,10.261C3.966,10.008 2.277,9.782 0.631,9.286C-0.542,8.933 -1.607,8.402 -2.524,7.578C-3.422,6.771 -4.299,5.936 -5.255,5.203C-5.924,4.691 -6.023,4.083 -5.902,3.353C-5.744,2.394 -5.57,1.438 -5.411,0.479C-4.885,-2.702 -4.335,-5.88 -3.847,-9.067C-3.582,-10.794 -3.478,-12.545 -3.206,-14.271C-2.898,-16.228 -2.47,-18.165 -2.124,-20.117C-1.887,-21.456 -1.705,-22.805 -1.49,-24.147C-1.431,-24.523 -1.342,-24.895 -1.221,-25.49" style="fill:rgb(253,203,165);fill-rule:nonzero;"/>
            </g>
            <g transform="matrix(4.16667,0,0,4.16667,1766.74,2473.63)">
                <path d="M0,14.932C-0.096,12.442 -0.154,9.951 -0.242,7.461C-0.28,6.372 -0.352,5.286 -0.414,4.199C-0.504,2.646 -0.614,1.094 -0.687,-0.46C-0.73,-1.389 -0.74,-1.42 -1.668,-1.518C-3.176,-1.678 -4.689,-1.804 -6.188,-2.026C-7.764,-2.259 -9.35,-2.476 -10.839,-3.102C-13.576,-4.252 -16.17,-5.672 -18.665,-7.271C-19.313,-7.687 -19.875,-8.242 -20.468,-8.744C-20.999,-9.194 -21.519,-9.66 -22.23,-10.282C-22.352,-9.686 -22.44,-9.315 -22.5,-8.939C-22.638,-8.078 -22.767,-7.215 -22.9,-6.354C-22.361,-5.614 -21.786,-4.903 -21.191,-4.229C-20.723,-3.697 -20.237,-3.175 -19.729,-2.679C-19.458,-3.057 -19.162,-3.422 -18.813,-3.761C-18.687,-3.885 -18.473,-3.958 -18.291,-3.978C-18.165,-3.991 -17.97,-3.906 -17.908,-3.803C-17.854,-3.714 -17.896,-3.478 -17.98,-3.41C-18.445,-3.032 -18.828,-2.605 -19.152,-2.143C-18.842,-1.865 -18.524,-1.592 -18.192,-1.339C-17.134,-0.533 -15.97,0.115 -14.736,0.611C-12.678,1.437 -10.494,1.865 -8.344,2.385C-8.244,2.315 -8.138,2.253 -8.038,2.217C-7.67,2.086 -7.312,2.291 -7.183,2.648C-7.18,2.657 -7.177,2.666 -7.174,2.675C-6.605,2.828 -6.043,3 -5.469,3.13C-5.213,3.188 -4.937,3.233 -4.747,3.429C-4.529,3.654 -4.432,3.997 -4.311,4.277C-4.099,4.764 -3.938,5.245 -3.845,5.77C-3.423,8.159 -3.863,10.71 -4.406,13.043C-4.758,14.553 -5.204,16.033 -5.847,17.444C-7.083,20.156 -8.601,22.803 -10.381,25.214C-10.267,25.187 -10.15,25.169 -10.035,25.14C-8.573,24.76 -7.158,24.18 -5.747,23.627C-4.729,23.229 -3.768,22.705 -3.002,21.891C-2.124,20.956 -1.295,19.966 -0.339,19.119C0.104,18.726 0.262,18.368 0.219,17.837C0.141,16.869 0.037,15.902 0,14.932" style="fill:rgb(231,177,136);fill-rule:nonzero;"/>
            </g>
            <g transform="matrix(4.16667,0,0,4.16667,1726.45,2531.97)">
                <path d="M0,-6.921C0.126,-6.828 0.247,-6.724 0.36,-6.592C1.106,-5.718 1.198,-4.654 0.782,-3.62C0.086,-1.895 -1.262,-0.819 -2.979,-0.182C-3.046,-0.157 -3.118,-0.149 -3.191,-0.138C-2.487,0.162 -1.694,0.1 -0.946,-0.192C0.673,-0.825 2.348,-2.424 2.5,-4.236C2.568,-5.046 2.354,-5.939 1.756,-6.521C1.257,-7.005 0.618,-7.083 0,-6.921" style="fill:rgb(231,177,136);fill-rule:nonzero;"/>
            </g>
            <g transform="matrix(4.16667,0,0,4.16667,1690.02,2655.9)">
                <path d="M0,-15.84C0.51,-13.876 1.963,-12.721 4.118,-12.554C4.933,-12.491 5.768,-12.454 6.572,-12.562C8.133,-12.769 9.391,-13.456 9.879,-15.101C9.934,-15.282 9.991,-15.464 10.091,-15.789C10.499,-15.403 10.854,-15.113 11.155,-14.776C11.96,-13.875 12.76,-12.969 13.524,-12.035C13.867,-11.617 14.146,-11.141 14.411,-10.666C14.948,-9.705 14.95,-9.585 13.965,-9.024C13.267,-8.625 12.493,-8.317 11.716,-8.112C11.06,-7.94 10.895,-8.109 10.707,-8.754C10.512,-9.426 10.358,-10.111 10.171,-10.786C10.109,-11.008 10.016,-11.226 9.898,-11.424C9.857,-11.493 9.69,-11.54 9.604,-11.516C9.515,-11.49 9.395,-11.365 9.394,-11.283C9.392,-11.056 9.421,-10.821 9.479,-10.601C9.979,-8.682 10.497,-6.767 10.994,-4.846C11.277,-3.756 11.54,-2.66 11.797,-1.564C11.954,-0.895 11.749,-0.468 11.062,-0.376C9.639,-0.187 8.202,0 6.771,-0.001C5.1,-0.002 3.427,-0.196 1.755,-0.324C0.9,-0.39 0.048,-0.478 -0.804,-0.58C-1.89,-0.71 -2.148,-1.046 -1.938,-2.129C-1.73,-3.197 -1.478,-4.259 -1.222,-5.318C-0.764,-7.208 -0.289,-9.095 0.178,-10.984C0.233,-11.209 0.316,-11.436 0.316,-11.661C0.315,-11.772 0.17,-11.914 0.054,-11.977C-0.007,-12.009 -0.194,-11.929 -0.236,-11.852C-0.365,-11.614 -0.478,-11.361 -0.55,-11.102C-0.821,-10.128 -1.063,-9.146 -1.338,-8.172C-1.517,-7.54 -1.703,-7.441 -2.235,-7.804C-3.129,-8.414 -3.998,-9.064 -4.831,-9.753C-5.215,-10.07 -5.125,-10.537 -4.855,-10.921C-4.296,-11.718 -3.793,-12.574 -3.127,-13.273C-2.223,-14.221 -1.318,-15.207 0,-15.84" style="fill:rgb(145,204,128);fill-rule:nonzero;"/>
            </g>
            <g transform="matrix(4.16667,0,0,4.16667,1706.45,2656.82)">
                <path d="M0,10.787C-1.471,10.662 -2.952,10.607 -4.408,10.387C-5.436,10.23 -6.448,9.899 -7.434,9.549C-8.232,9.265 -8.335,9.117 -8.081,8.35C-7.812,7.541 -7.571,6.721 -7.331,5.901C-6.85,4.262 -6.377,2.62 -5.901,0.978C-5.847,0.792 -5.764,0.608 -5.742,0.419C-5.692,-0.039 -5.438,-0.153 -5.018,-0.103C-4.206,-0.003 -3.394,0.096 -2.578,0.15C-0.483,0.293 1.613,0.429 3.711,0.526C4.288,0.554 4.872,0.438 5.452,0.384C5.896,0.343 6.153,0.472 6.287,0.964C6.895,3.214 7.549,5.45 8.185,7.692C8.248,7.916 8.319,8.141 8.356,8.369C8.506,9.269 8.476,9.304 7.577,9.593C5.115,10.385 2.619,10.94 0,10.787" style="fill:rgb(173,65,49);fill-rule:nonzero;"/>
            </g>
            <g transform="matrix(4.16667,0,0,4.16667,1749.58,2744.64)">
                <path d="M0,4.418C-2.217,4.308 -4.435,4.191 -6.652,4.092C-7.154,4.068 -7.585,3.964 -7.777,3.439C-7.987,2.866 -7.704,2.404 -7.294,2.11C-6.897,1.827 -6.384,1.553 -5.92,1.551C-4.697,1.545 -3.6,1.121 -2.596,0.562C-1.588,0 -0.578,0.024 0.456,0.141C2.308,0.35 3.975,1.136 5.573,2.033C6.198,2.385 6.794,2.882 6.871,3.715C6.346,4.179 5.696,4.31 5.033,4.318C3.357,4.341 1.681,4.326 0.004,4.326C0.003,4.356 0.001,4.388 0,4.418" style="fill:rgb(194,128,100);fill-rule:nonzero;"/>
            </g>
            <g transform="matrix(4.16667,0,0,4.16667,1728.18,2748.47)">
                <path d="M0,-10.811C0.102,-10.541 0.22,-10.299 0.285,-10.043C0.953,-7.448 1.615,-4.851 2.272,-2.253C2.339,-1.992 2.424,-1.715 2.396,-1.457C2.375,-1.26 2.231,-0.977 2.068,-0.911C1.352,-0.616 0.619,-0.338 -0.131,-0.146C-0.699,0 -0.914,-0.144 -1.059,-0.721C-1.381,-1.999 -1.689,-3.285 -1.936,-4.581C-2.262,-6.297 -2.509,-8.029 -2.823,-9.748C-2.905,-10.196 -2.818,-10.386 -2.345,-10.442C-1.577,-10.531 -0.816,-10.679 0,-10.811" style="fill:rgb(253,203,165);fill-rule:nonzero;"/>
            </g>
            <g transform="matrix(4.16667,0,0,4.16667,1691.98,2748.16)">
                <path d="M0,4.472C-1.229,4.301 -2.457,4.133 -3.685,3.955C-3.875,3.927 -4.068,3.874 -4.244,3.798C-4.781,3.565 -5.463,3.336 -5.556,2.747C-5.656,2.106 -4.947,1.846 -4.489,1.509C-2.845,0.299 -0.949,-0.035 1.029,-0.055C1.37,-0.059 1.779,-0.037 2.04,0.142C2.999,0.799 3.936,1.496 4.825,2.244C5.25,2.601 5.183,2.878 4.693,3.16C3.249,3.994 1.723,4.531 0,4.472" style="fill:rgb(194,128,100);fill-rule:nonzero;"/>
            </g>
            <g transform="matrix(4.16667,0,0,4.16667,1682.05,2703.81)">
                <path d="M0,10.006C0.25,7.963 0.49,6.04 0.721,4.117C0.855,2.997 0.982,1.876 1.101,0.754C1.172,0.073 1.231,0 1.87,0.064C2.793,0.154 3.715,0.263 4.747,0.376C4.631,1.269 4.508,2.141 4.405,3.015C4.179,4.946 3.967,6.881 3.742,8.813C3.647,9.629 3.638,9.61 2.853,9.681C1.964,9.762 1.078,9.881 0,10.006" style="fill:rgb(253,203,165);fill-rule:nonzero;"/>
            </g>
            <g transform="matrix(4.16667,0,0,4.16667,1718.35,2767.27)">
                <path d="M0,1.144C0.047,0.691 0.12,0.309 0.117,-0.072C0.112,-0.612 0.386,-0.71 0.855,-0.675C2.133,-0.581 3.412,-0.492 4.692,-0.445C6.714,-0.372 8.736,-0.335 10.758,-0.282C11.888,-0.252 13.007,-0.273 14.11,-0.59C14.78,-0.784 14.935,-0.619 14.932,0.089C14.929,0.818 14.855,1.006 14.168,1.206C13.353,1.444 12.513,1.684 11.673,1.729C9.54,1.844 7.402,1.864 5.267,1.899C3.507,1.928 1.775,1.731 0,1.144" style="fill:white;fill-rule:nonzero;"/>
            </g>
            <g transform="matrix(4.16667,0,0,4.16667,1666.38,2780.6)">
                <path d="M0,-4.374C1.59,-3.012 3.411,-2.83 5.243,-2.693C5.514,-2.673 5.789,-2.708 6.06,-2.686C7.887,-2.53 9.624,-2.796 11.223,-3.751C11.31,-3.803 11.438,-3.786 11.587,-3.807C11.807,-2.854 11.512,-2.143 10.779,-1.535C9.549,-0.516 8.095,-0.161 6.562,-0.082C5.086,-0.006 3.599,0 2.173,-0.466C1.477,-0.693 0.799,-1.001 0.15,-1.343C-0.333,-1.598 -0.556,-2.101 -0.475,-2.631C-0.391,-3.188 -0.182,-3.728 0,-4.374" style="fill:white;fill-rule:nonzero;"/>
            </g>
            <g transform="matrix(4.16667,0,0,4.16667,1678.63,2620.44)">
                <path d="M0,9.493C-1.055,8.485 -1.994,7.669 -2.834,6.762C-3.51,6.032 -3.666,5.085 -3.428,4.128C-3.079,2.729 -2.56,1.39 -1.842,0C-1.522,0.219 -1.252,0.405 -0.981,0.59C-0.678,0.798 -0.644,1.069 -0.734,1.41C-0.905,2.049 -1.011,2.706 -1.208,3.336C-1.391,3.92 -1.201,4.319 -0.74,4.645C-0.518,4.804 -0.289,4.954 -0.063,5.107C0.187,5.276 0.272,5.478 0.209,5.801C0.045,6.634 -0.14,7.46 0.242,8.313C0.352,8.556 0.123,8.948 0,9.493" style="fill:rgb(253,203,165);fill-rule:nonzero;"/>
            </g>
            <g transform="matrix(4.16667,0,0,4.16667,1743,2622.16)">
                <path d="M0,7.052C-0.147,6.594 -0.262,6.269 -0.354,5.938C-0.448,5.606 -0.652,5.226 -0.564,4.942C-0.481,4.676 -0.09,4.494 0.185,4.303C0.562,4.04 0.617,3.664 0.549,3.271C0.45,2.699 0.312,2.134 0.177,1.569C-0.041,0.657 -0.047,0.656 0.773,0.243C0.943,0.157 1.125,0.094 1.347,0C1.477,0.22 1.639,0.4 1.697,0.61C2.073,1.949 2.466,3.288 2.774,4.645C2.957,5.448 2.771,5.759 2.025,6.146C1.384,6.478 0.706,6.74 0,7.052" style="fill:rgb(253,203,165);fill-rule:nonzero;"/>
            </g>
            <g transform="matrix(4.16667,0,0,4.16667,1721.27,2601.46)">
                <path d="M0,-4.314C0.278,-4.18 0.456,-4.109 0.621,-4.013C2.096,-3.154 2.003,-2.228 0.928,-1.108C0.502,-0.665 -0.193,-0.348 -0.812,-0.248C-2.323,0 -3.842,-0.104 -5.248,-0.805C-5.623,-0.992 -5.996,-1.25 -6.267,-1.563C-7.121,-2.555 -6.518,-3.523 -5.405,-3.846C-5.297,-3.878 -5.079,-3.706 -4.988,-3.575C-4.91,-3.462 -4.924,-3.275 -4.925,-3.121C-4.929,-1.593 -3.076,-0.5 -1.337,-0.934C-0.656,-1.104 -0.163,-1.56 -0.098,-2.318C-0.045,-2.933 -0.035,-3.552 0,-4.314" style="fill:white;fill-rule:nonzero;"/>
            </g>
            <g transform="matrix(4.16667,0,0,4.16667,1764.42,2558.4)">
                <path d="M0,5.578C-0.964,4.387 -2.315,4.208 -3.504,3.811C-2.103,2.521 -0.724,1.253 0.638,0C0.917,1.284 0.653,3.899 0,5.578" style="fill:rgb(105,68,34);fill-rule:nonzero;"/>
            </g>
            <g transform="matrix(4.16667,0,0,4.16667,1654.57,2560.75)">
                <path d="M0,5.604C-0.033,3.641 -0.342,1.911 -0.064,0C1.141,1.085 2.242,2.079 3.425,3.145C2.174,3.75 1.015,4.362 0,5.604" style="fill:rgb(105,68,34);fill-rule:nonzero;"/>
            </g>
            <g transform="matrix(4.16667,0,0,4.16667,1710.86,2596.43)">
                <path d="M0,-2.935C0.312,-2.935 0.623,-2.937 0.935,-2.935C1.688,-2.929 1.688,-2.928 1.696,-2.138C1.713,-0.584 0.731,0.023 -0.673,-0.662C-1.392,-1.011 -1.883,-1.487 -1.823,-2.37C-1.798,-2.745 -1.694,-2.958 -1.285,-2.949C-0.857,-2.939 -0.429,-2.947 0,-2.947L0,-2.935Z" style="fill:rgb(253,203,165);fill-rule:nonzero;"/>
            </g>
            <g transform="matrix(4.16667,0,0,4.16667,1697.31,2558.18)">
                <path d="M0,-5.03C-0.018,-4.958 -0.013,-4.867 -0.056,-4.816C-0.847,-3.877 -0.877,-3.473 -0.226,-2.463C0.346,-1.578 1.221,-1.155 2.208,-1.025C3.658,-0.835 5.062,-1.007 6.396,-1.713C7.288,-2.185 7.915,-2.889 8.476,-3.74C8.669,-3.016 8.657,-2.589 8.181,-2.057C7.696,-1.517 7.14,-0.992 6.514,-0.639C5.301,0.043 3.947,0.247 2.561,0.099C0.924,-0.076 -0.396,-0.798 -1.254,-2.307C-1.356,-2.058 -1.396,-1.854 -1.511,-1.709C-1.68,-1.494 -1.944,-1.449 -2.075,-1.725C-2.487,-2.597 -2.17,-3.406 -1.736,-4.156C-1.378,-4.774 -0.896,-5.277 -0.063,-5.112C-0.038,-5.107 -0.021,-5.058 0,-5.03" style="fill:rgb(35,31,32);fill-rule:nonzero;"/>
            </g>
            <g transform="matrix(4.16667,0,0,4.16667,1719.71,2527.43)">
                <path d="M0,-5.361C-1.095,-5.397 -1.961,-4.935 -2.653,-4.123C-2.879,-3.857 -3.042,-3.538 -3.27,-3.274C-3.373,-3.154 -3.564,-3.109 -3.716,-3.031C-3.738,-3.211 -3.821,-3.41 -3.772,-3.568C-3.41,-4.723 -2.596,-5.466 -1.509,-5.933C-1.261,-6.04 -0.992,-6.116 -0.726,-6.162C0.269,-6.334 1.263,-6.34 1.978,-5.503C2.723,-4.629 2.815,-3.565 2.399,-2.531C1.703,-0.805 0.355,0.27 -1.361,0.908C-1.539,0.973 -1.745,0.975 -1.937,0.977C-2.091,0.978 -2.275,0.979 -2.391,0.9C-2.57,0.777 -2.703,0.585 -2.856,0.423C-2.674,0.321 -2.5,0.152 -2.307,0.127C-0.611,-0.09 0.478,-1.179 1.407,-2.464C1.847,-3.071 1.791,-3.806 1.597,-4.493C1.414,-5.14 0.935,-5.367 0,-5.361" style="fill:rgb(35,31,32);fill-rule:nonzero;"/>
            </g>
            <g transform="matrix(4.16667,0,0,4.16667,1691.15,2489.62)">
                <path d="M0,1.206C0.163,0.521 0.254,-0.052 0.444,-0.591C0.555,-0.904 0.775,-1.216 1.028,-1.435C1.611,-1.938 2.445,-1.684 2.528,-0.925C2.671,0.367 2.404,1.618 1.625,2.69C1.296,3.144 0.755,3.122 0.469,2.627C0.213,2.184 0.136,1.639 0,1.206" style="fill:rgb(35,31,32);fill-rule:nonzero;"/>
            </g>
            <g transform="matrix(4.16667,0,0,4.16667,1738.78,2491.69)">
                <path d="M0,-0.054C-0.05,0.648 -0.018,1.092 -0.133,1.495C-0.207,1.751 -0.467,2.065 -0.705,2.131C-0.939,2.195 -1.264,2.004 -1.524,1.874C-1.647,1.813 -1.734,1.645 -1.799,1.508C-2.268,0.512 -2.33,-0.524 -1.978,-1.554C-1.895,-1.794 -1.584,-2.027 -1.327,-2.118C-0.959,-2.249 -0.601,-2.044 -0.472,-1.688C-0.25,-1.076 -0.107,-0.438 0,-0.054" style="fill:rgb(35,31,32);fill-rule:nonzero;"/>
            </g>
            <g transform="matrix(4.16667,0,0,4.16667,1679.2,2459.71)">
                <path d="M0,3.59C0.294,2.095 1.026,0.717 2.196,-0.422C2.323,-0.546 2.537,-0.618 2.719,-0.639C2.845,-0.652 3.04,-0.566 3.102,-0.464C3.155,-0.375 3.113,-0.139 3.029,-0.07C1.742,0.977 1.066,2.385 0.601,3.928C0.563,4.05 0.413,4.138 0.314,4.242C0.21,4.101 0.103,3.961 0.003,3.816C-0.016,3.789 0,3.74 0,3.59" style="fill:rgb(35,31,32);fill-rule:nonzero;"/>
            </g>
        </g>
    </g>
</svg>
