<?xml version="1.0" encoding="UTF-8" standalone="no"?>
<!DOCTYPE svg PUBLIC "-//W3C//DTD SVG 1.1//EN" "http://www.w3.org/Graphics/SVG/1.1/DTD/svg11.dtd">
<svg width="100%" height="100%" viewBox="0 0 213 420" version="1.1" xmlns="http://www.w3.org/2000/svg" xmlns:xlink="http://www.w3.org/1999/xlink" xml:space="preserve" xmlns:serif="http://www.serif.com/" style="fill-rule:evenodd;clip-rule:evenodd;stroke-linejoin:round;stroke-miterlimit:2;">
    <g transform="matrix(1,0,0,1,-1814,-2365)">
        <g>
            <g transform="matrix(4.16667,0,0,4.16667,1989.58,2473.96)">
                <path d="M0,48.454C-0.41,48.418 -0.543,48.665 -0.532,49.024C-0.521,49.366 -0.508,49.711 -0.446,50.046C-0.426,50.156 -0.263,50.306 -0.147,50.323C0.369,50.402 0.838,49.97 0.851,49.438C0.865,48.809 0.548,48.437 0,48.454M0.386,44.434C0.499,44.624 0.605,44.819 0.729,45.002C1.218,45.732 1.498,46.507 1.347,47.409C1.291,47.748 1.285,48.112 1.347,48.449C1.4,48.738 1.531,49.045 1.716,49.272C2.148,49.805 2.762,49.685 2.924,49.01C3.115,48.214 3.112,47.395 2.713,46.637C2.199,45.66 1.479,44.875 0.386,44.434M-13.771,21.233C-13.815,21.343 -13.878,21.438 -13.892,21.541C-14.022,22.555 -14.18,22.73 -15.093,22.958C-16.028,23.19 -16.959,23.081 -17.87,22.881C-18.633,22.714 -18.931,22.247 -18.962,21.449C-18.969,21.281 -19.006,21.114 -19.035,20.909C-20.089,21.53 -20.228,22.151 -19.518,22.861C-19.302,23.078 -19.037,23.293 -18.755,23.387C-17.945,23.656 -17.128,23.955 -16.289,24.075C-15.059,24.252 -13.804,23.506 -13.403,22.51C-13.168,21.926 -13.214,21.762 -13.771,21.233M-16.195,22.347C-16,22.322 -15.561,22.321 -15.159,22.196C-14.946,22.13 -14.654,21.848 -14.652,21.662C-14.649,21.165 -14.757,20.66 -14.883,20.174C-14.915,20.051 -15.181,19.916 -15.342,19.912C-16.121,19.893 -16.902,19.893 -17.68,19.945C-17.842,19.956 -18.082,20.189 -18.127,20.361C-18.526,21.877 -18.237,22.25 -16.663,22.322C-16.585,22.326 -16.507,22.33 -16.195,22.347M-27.698,31.567C-27.77,31.684 -27.86,31.852 -27.967,32.011C-28.641,33.014 -28.613,33.221 -27.773,34.107C-26.921,35.01 -25.793,35.477 -24.723,36.015C-23.552,36.603 -23.403,36.487 -23.153,35.205C-23.01,34.466 -23.003,34.449 -23.696,34.173C-25.08,33.62 -26.406,32.988 -27.341,31.76C-27.383,31.705 -27.474,31.685 -27.698,31.567M-2.596,32.31C-2.961,31.782 -3.288,31.259 -3.669,30.776C-4.033,30.313 -4.083,30.362 -4.586,30.749C-5.779,31.668 -6.791,32.853 -8.3,33.322C-8.604,33.416 -8.739,33.61 -8.61,33.947C-8.485,34.273 -8.383,34.61 -8.291,34.947C-8.161,35.427 -7.889,35.416 -7.493,35.25C-6.562,34.859 -5.597,34.546 -4.685,34.118C-4.096,33.843 -3.557,33.445 -3.034,33.05C-2.843,32.904 -2.765,32.608 -2.596,32.31M-23.364,67.643C-23.064,68.583 -22.744,69.445 -22.522,70.332C-22.365,70.961 -22.038,71.272 -21.403,71.276C-20.629,71.282 -19.847,71.352 -19.08,71.273C-17.732,71.134 -16.395,70.892 -15.05,70.711C-13.206,70.462 -13.087,70.27 -13.642,68.528C-13.781,68.087 -14.02,67.909 -14.475,67.894C-16.725,67.822 -18.973,67.723 -21.222,67.647C-21.951,67.623 -22.682,67.643 -23.364,67.643M1.546,66.973C1.398,66.973 1.204,66.937 1.027,66.977C-1.155,67.472 -3.367,67.417 -5.582,67.366C-7.899,67.313 -8.026,67.438 -8.258,69.764C-8.266,69.841 -8.271,69.918 -8.273,69.996C-8.286,70.568 -8.22,70.697 -7.633,70.717C-4.801,70.811 -1.967,70.873 0.866,70.953C1.36,70.967 1.561,70.752 1.552,70.256C1.532,69.213 1.546,68.169 1.546,66.973M-2.925,43.969C-2.925,44.274 -2.947,44.582 -2.921,44.886C-2.845,45.755 -2.667,45.948 -1.753,45.95C-1.327,45.951 -1.115,46.076 -0.967,46.46C-0.857,46.744 -0.686,47.015 -0.496,47.254C-0.339,47.452 -0.046,47.771 0.066,47.727C0.319,47.628 0.566,47.37 0.685,47.116C0.782,46.904 0.785,46.552 0.67,46.354C0.302,45.725 -0.065,45.063 -0.572,44.554C-1.29,43.831 -2.013,43.166 -2.126,42.074C-2.157,41.77 -2.295,41.476 -2.396,41.183C-2.971,39.529 -3.569,37.885 -4.118,36.223C-4.567,34.865 -4.541,34.856 -5.91,35.427C-6.09,35.502 -6.271,35.575 -6.444,35.662C-6.676,35.779 -6.798,35.93 -6.669,36.218C-6.048,37.6 -5.447,38.991 -4.824,40.372C-4.617,40.832 -4.356,41.268 -4.131,41.721C-3.883,42.22 -3.843,42.703 -3.965,43.286C-4.158,44.214 -4.376,45.197 -3.735,46.098C-3.628,46.247 -3.704,46.538 -3.72,46.762C-3.759,47.342 -3.828,47.92 -3.852,48.5C-3.867,48.864 -3.654,49.11 -3.285,49.097C-2.937,49.084 -2.896,48.786 -2.873,48.499C-2.83,47.931 -2.728,47.378 -2.403,46.799C-2.019,47.236 -2.248,47.613 -2.252,47.973C-2.257,48.512 -2.272,49.055 -2.205,49.586C-2.185,49.742 -1.9,49.964 -1.729,49.972C-1.564,49.978 -1.278,49.774 -1.238,49.614C-1.031,48.78 -0.896,47.94 -1.375,47.124C-1.547,46.831 -1.696,46.613 -2.07,46.621C-2.815,46.636 -3.187,46.143 -3.428,45.536C-3.657,44.959 -3.592,44.412 -2.925,43.969M-3.303,71.615C-3.303,71.589 -3.302,71.562 -3.302,71.535C-4.78,71.452 -6.261,71.391 -7.736,71.273C-8.179,71.237 -8.283,71.392 -8.299,71.772C-8.317,72.209 -8.199,72.557 -7.74,72.67C-6.836,72.892 -5.933,73.234 -5.018,73.275C-2.964,73.367 -0.905,73.703 1.155,73.278C3.175,72.861 5.214,72.536 7.222,72.073C8.25,71.836 8.598,70.745 8.036,69.838C7.573,69.09 6.923,68.541 6.097,68.216C5.119,67.832 4.139,67.456 3.165,67.063C2.808,66.919 2.539,66.975 2.432,67.357C2.338,67.689 2.266,68.036 2.25,68.38C2.221,69.041 2.247,69.704 2.233,70.367C2.212,71.45 2.088,71.595 1.025,71.61C-0.417,71.632 -1.86,71.615 -3.303,71.615M-24.567,73.871C-21.496,73.661 -18.588,73.483 -15.685,73.248C-15.076,73.199 -14.474,72.975 -13.89,72.769C-13.456,72.618 -13.22,71.95 -13.407,71.488C-13.585,71.052 -13.947,71.335 -14.219,71.354C-14.72,71.391 -15.217,71.497 -15.718,71.552C-17.261,71.721 -18.802,71.911 -20.349,72.025C-20.92,72.067 -21.506,71.922 -22.084,71.858C-22.609,71.802 -22.923,71.526 -23.04,70.995C-23.165,70.428 -23.354,69.873 -23.486,69.307C-23.662,68.553 -24.149,68.117 -24.844,67.835C-25.64,67.512 -26.405,67.634 -27.079,68.06C-28.027,68.661 -28.926,69.346 -29.814,70.033C-30.114,70.266 -30.364,70.591 -30.562,70.919C-31.007,71.656 -30.877,72.376 -30.171,72.843C-29.727,73.136 -29.212,73.421 -28.698,73.491C-27.28,73.683 -25.846,73.761 -24.567,73.871M-27.287,46.261C-27.287,46.641 -27.248,46.828 -27.295,46.991C-27.498,47.701 -27.979,48.195 -28.585,48.593C-28.907,48.805 -29.259,49.01 -29.501,49.299C-29.949,49.832 -29.663,50.484 -28.979,50.593C-28.309,50.699 -27.958,50.502 -27.679,49.729C-27.482,49.187 -27.29,48.759 -26.613,48.667C-26.074,48.594 -25.783,48.121 -25.583,47.638C-25.479,47.387 -25.426,47.114 -25.315,46.866C-25.28,46.786 -25.128,46.7 -25.045,46.714C-24.951,46.728 -24.824,46.841 -24.804,46.932C-24.763,47.114 -24.743,47.32 -24.787,47.498C-24.998,48.349 -25.509,48.973 -26.335,49.272C-26.739,49.419 -26.943,49.649 -27.116,50.038C-27.603,51.13 -28.01,51.336 -29.24,51.12C-29.668,51.045 -29.86,51.13 -30.049,51.524C-30.297,52.04 -30.61,52.536 -30.971,52.98C-31.229,53.299 -31.321,53.577 -31.128,53.927C-30.929,54.285 -30.578,54.346 -30.215,54.306C-29.796,54.261 -29.626,53.959 -29.593,53.577C-29.555,53.15 -29.565,52.719 -29.512,52.295C-29.476,52.003 -29.439,51.664 -28.958,51.623C-28.929,51.859 -28.882,52.081 -28.875,52.305C-28.863,52.693 -28.928,53.094 -28.858,53.47C-28.816,53.694 -28.623,53.955 -28.423,54.07C-28.14,54.233 -27.892,54.022 -27.766,53.761C-27.582,53.377 -27.395,52.984 -27.292,52.575C-27.208,52.242 -27.276,51.873 -27.217,51.53C-27.19,51.378 -27.016,51.25 -26.909,51.111C-26.806,51.258 -26.647,51.392 -26.612,51.554C-26.555,51.815 -26.594,52.098 -26.563,52.368C-26.499,52.947 -26.136,53.348 -25.729,53.314C-25.339,53.281 -25.048,52.935 -25.073,52.358C-25.098,51.821 -25.164,51.261 -25.353,50.764C-25.637,50.018 -25.515,49.489 -24.983,48.868C-23.819,47.506 -23.833,46.512 -24.998,45.164C-25.521,44.56 -25.553,44.081 -25.203,43.39C-24.734,42.464 -24.304,41.496 -24.035,40.499C-23.784,39.568 -23.754,38.576 -23.661,37.608C-23.648,37.473 -23.802,37.241 -23.934,37.186C-24.596,36.911 -25.275,36.68 -26.01,36.41C-26.282,38.06 -26.535,39.593 -26.79,41.125C-27.002,42.392 -27.224,43.655 -27.427,44.923C-27.486,45.29 -27.643,45.485 -27.988,45.706C-29.696,46.795 -31.018,48.268 -31.913,50.092C-32.133,50.538 -32.257,51.044 -32.352,51.536C-32.418,51.885 -32.34,52.266 -31.923,52.392C-31.571,52.498 -31.285,52.298 -31.146,52.009C-30.829,51.351 -30.426,50.689 -30.317,49.989C-30.196,49.201 -29.838,48.694 -29.206,48.322C-28.584,47.958 -28.079,47.498 -27.762,46.839C-27.686,46.68 -27.534,46.556 -27.287,46.261M-20.759,26.01C-20.759,26.311 -20.722,26.537 -20.765,26.746C-21.169,28.728 -21.629,30.7 -21.991,32.689C-22.499,35.483 -22.943,38.288 -23.402,41.09C-23.535,41.897 -23.476,42.013 -22.773,42.401C-21.734,42.975 -20.621,43.3 -19.426,43.328C-18.607,43.348 -17.789,43.414 -16.971,43.405C-15.297,43.387 -13.615,43.413 -11.951,43.267C-10.561,43.144 -9.184,42.832 -7.812,42.549C-7.086,42.399 -7.069,42.281 -7.3,41.593C-7.46,41.113 -7.615,40.631 -7.733,40.14C-8.179,38.299 -8.795,36.507 -9.247,34.664C-9.857,32.172 -10.677,29.731 -11.392,27.265C-11.488,26.933 -11.535,26.578 -11.54,26.232C-11.542,26.083 -11.379,25.931 -11.29,25.779C-11.152,25.884 -10.983,25.967 -10.885,26.101C-10.798,26.22 -10.789,26.394 -10.747,26.544C-10.222,28.418 -9.7,30.293 -9.169,32.164C-8.976,32.845 -8.774,32.97 -8.18,32.591C-7.297,32.027 -6.453,31.393 -5.636,30.737C-4.545,29.861 -4.535,29.688 -5.354,28.562C-6.294,27.272 -7.321,26.04 -8.179,24.698C-9.046,23.344 -10.254,22.505 -11.691,21.928C-12.371,21.654 -12.413,21.679 -12.648,22.435C-13.036,23.686 -13.909,24.39 -15.146,24.626C-16.85,24.952 -18.389,24.458 -19.77,23.476C-20.064,23.267 -20.255,22.877 -20.429,22.538C-20.752,21.909 -20.785,21.847 -21.308,22.335C-21.985,22.97 -22.652,23.642 -23.187,24.396C-24.065,25.635 -24.836,26.95 -25.649,28.233C-26.066,28.892 -26.465,29.562 -26.898,30.209C-27.183,30.634 -27.157,30.963 -26.797,31.345C-26.179,32.003 -25.524,32.566 -24.687,32.963C-22.425,34.033 -22.965,33.774 -22.543,31.871C-22.188,30.275 -21.876,28.671 -21.503,27.08C-21.414,26.701 -21.354,26.226 -20.759,26.01M-22.493,43.54C-22.528,43.8 -22.566,43.949 -22.566,44.1C-22.573,49.205 -22.585,54.31 -22.565,59.415C-22.563,59.862 -22.405,60.328 -22.232,60.749C-22.026,61.25 -21.716,61.706 -21.471,62.192C-21.309,62.515 -21.477,62.839 -21.76,62.732C-22.329,62.517 -22.425,62.835 -22.53,63.237C-22.757,64.102 -22.979,64.969 -23.225,65.828C-23.474,66.697 -23.402,66.824 -22.504,66.936C-22.389,66.951 -22.271,66.952 -22.153,66.956C-19.778,67.038 -17.404,67.127 -15.028,67.2C-13.812,67.237 -13.755,67.157 -13.98,65.961C-14.456,63.439 -14.941,60.93 -15.143,58.353C-15.373,55.399 -15.587,52.453 -15.54,49.49C-15.518,48.039 -15.547,48.317 -14.365,48.142C-13.645,48.036 -12.898,48.058 -12.166,48.085C-11.91,48.094 -11.737,48.366 -12.001,48.576C-12.396,48.89 -12.307,49.267 -12.228,49.641C-12.122,50.134 -11.944,50.612 -11.837,51.105C-11.03,54.79 -10.237,58.478 -9.434,62.164C-9.227,63.113 -8.985,64.057 -8.783,65.007C-8.511,66.289 -8.38,66.45 -7.111,66.473C-5.239,66.506 -3.363,66.558 -1.497,66.459C-0.409,66.402 0.724,66.353 1.829,65.866C1.186,64.957 0.436,64.282 -0.395,63.706C-0.856,63.386 -1.133,63.037 -1.028,62.455C-0.919,61.85 -1.131,61.323 -1.381,60.777C-2.32,58.724 -3.32,56.689 -4.112,54.579C-5.423,51.086 -6.893,47.628 -7.308,43.865C-7.364,43.353 -7.6,43.35 -8.023,43.45C-10.23,43.969 -12.476,44.216 -14.74,44.241C-17.309,44.27 -19.871,44.172 -22.493,43.54M-2.151,-9.035C-2.231,-6.716 -2.436,-4.517 -1.685,-2.426C-0.816,-0.009 0.201,2.354 1.156,4.74C1.199,4.849 1.273,4.944 1.315,5.053C1.468,5.446 1.698,5.405 2.055,5.283C2.709,5.058 3.388,4.881 4.07,4.773C4.485,4.709 4.72,4.548 4.794,4.157C5.005,3.053 5.282,1.962 4.902,0.821C4.693,0.192 4.812,0.002 5.491,-0.177C6.152,-0.351 6.415,-0.754 6.603,-1.37C7.019,-2.742 7.015,-4.142 6.942,-5.538C6.844,-7.459 6.431,-9.307 5.381,-10.964C5.076,-11.446 5.224,-11.749 5.82,-11.827C6.206,-11.877 6.603,-11.84 6.986,-11.893C7.361,-11.944 7.536,-12.267 7.337,-12.578C7.154,-12.865 6.903,-13.136 6.624,-13.326C6.207,-13.609 5.741,-13.821 5.291,-14.052C5.013,-14.192 4.718,-14.3 4.441,-14.443C4.17,-14.585 3.812,-14.723 3.977,-15.123C4.132,-15.498 4.5,-15.388 4.796,-15.335C5.141,-15.275 5.473,-15.15 5.816,-15.087C6.081,-15.038 6.359,-15.001 6.622,-15.033C7.143,-15.097 7.305,-15.406 7.05,-15.846C6.896,-16.111 6.697,-16.362 6.477,-16.578C6.143,-16.903 5.778,-17.199 5.416,-17.495C3.28,-19.242 1.342,-21.259 -1.259,-22.372C-1.435,-22.448 -1.606,-22.562 -1.745,-22.694C-2.9,-23.795 -4.382,-24.173 -5.866,-24.494C-8.618,-25.089 -11.406,-25.361 -14.226,-25.225C-14.688,-25.202 -15.161,-25.152 -15.604,-25.026C-16.495,-24.774 -17.334,-24.63 -18.313,-24.723C-20.41,-24.92 -22.492,-24.6 -24.524,-23.914C-28.171,-22.684 -31.571,-20.972 -34.777,-18.87C-36.443,-17.778 -37.998,-16.515 -39.258,-14.963C-39.989,-14.063 -40.594,-13.047 -41.161,-12.031C-41.583,-11.275 -41.657,-10.442 -41.08,-9.549C-40.811,-9.853 -40.619,-10.085 -40.41,-10.301C-40.187,-10.532 -40.01,-11.002 -39.596,-10.696C-39.251,-10.442 -39.6,-10.143 -39.71,-9.873C-40.15,-8.795 -40.666,-7.74 -41.007,-6.632C-41.347,-5.525 -41.175,-5.254 -40.231,-4.616C-40.272,-4.522 -40.307,-4.416 -40.36,-4.321C-41.143,-2.933 -41.443,-1.417 -41.507,0.152C-41.515,0.346 -41.36,0.546 -41.28,0.743C-41.094,0.626 -40.886,0.531 -40.727,0.385C-40.588,0.256 -40.508,0.064 -40.394,-0.092C-40.195,-0.362 -40.099,-0.852 -39.684,-0.756C-39.231,-0.652 -39.425,-0.174 -39.417,0.143C-39.398,0.884 -39.48,1.628 -39.424,2.363C-39.317,3.728 -38.921,5.009 -38.188,6.167C-37.07,5.69 -37.068,5.678 -35.736,5.889C-35.314,5.955 -35.108,5.85 -34.968,5.423C-33.71,1.587 -32.866,-2.315 -33.029,-6.382C-33.04,-6.644 -33.088,-6.904 -33.137,-7.322C-33.601,-7.069 -33.964,-6.873 -34.326,-6.674C-35.282,-6.148 -36.231,-5.609 -37.196,-5.103C-37.423,-4.984 -37.732,-4.855 -37.918,-5.187C-38.084,-5.484 -37.924,-5.709 -37.671,-5.872C-37.377,-6.063 -37.081,-6.253 -36.775,-6.424C-36.026,-6.84 -35.271,-7.246 -34.517,-7.654C-32.223,-8.896 -30.238,-10.503 -28.687,-12.614C-28.273,-13.179 -27.901,-13.775 -27.484,-14.336C-27.383,-14.472 -27.177,-14.531 -27.02,-14.626C-26.918,-14.44 -26.728,-14.25 -26.733,-14.067C-26.748,-13.685 -26.835,-13.297 -26.946,-12.927C-27.181,-12.144 -27.454,-11.373 -27.702,-10.594C-27.791,-10.316 -27.853,-10.027 -27.943,-9.675C-27.731,-9.675 -27.617,-9.651 -27.518,-9.68C-27.219,-9.766 -26.913,-9.846 -26.633,-9.976C-23.517,-11.418 -20.865,-13.384 -19.261,-16.527C-18.942,-17.151 -18.615,-17.772 -18.279,-18.388C-18.155,-18.615 -17.996,-18.823 -17.732,-19.224C-17.619,-18.743 -17.552,-18.46 -17.486,-18.177C-17.204,-16.961 -16.971,-15.696 -16.081,-14.765C-15.142,-13.78 -14.11,-12.878 -13.066,-12.003C-12.624,-11.633 -12.076,-11.306 -11.37,-11.498C-11.549,-11.931 -11.739,-12.279 -11.837,-12.651C-12.163,-13.891 -12.471,-15.136 -12.743,-16.387C-12.778,-16.546 -12.565,-16.758 -12.468,-16.945C-12.32,-16.842 -12.139,-16.765 -12.032,-16.629C-11.77,-16.294 -11.604,-15.858 -11.288,-15.595C-9.883,-14.423 -8.517,-13.169 -6.824,-12.421C-5.185,-11.696 -3.743,-10.619 -2.055,-9.966C-0.902,-9.521 0.155,-8.826 1.402,-8.6C1.517,-8.578 1.658,-8.56 1.727,-8.485C1.819,-8.383 1.888,-8.23 1.899,-8.093C1.904,-8.035 1.733,-7.9 1.65,-7.907C1.188,-7.942 0.708,-7.943 0.274,-8.083C-0.498,-8.332 -1.241,-8.672 -2.151,-9.035M-28.185,-11.51C-28.23,-11.538 -28.276,-11.567 -28.323,-11.596C-28.481,-11.455 -28.646,-11.319 -28.797,-11.173C-29.746,-10.252 -30.656,-9.288 -31.655,-8.426C-32.128,-8.017 -32.249,-7.632 -32.241,-7.029C-32.224,-5.475 -32.321,-3.919 -32.366,-2.364C-32.46,0.837 -33.73,3.775 -34.426,6.841C-34.521,7.264 -34.82,7.368 -35.1,7.052C-35.509,6.588 -36.043,6.486 -36.57,6.451C-36.867,6.431 -37.313,6.597 -37.468,6.828C-38.063,7.721 -38.433,8.723 -38.127,9.808C-37.928,10.516 -37.637,11.209 -37.308,11.868C-36.797,12.891 -35.387,13.487 -34.322,13.1C-33.957,12.966 -33.636,12.601 -33.403,12.266C-33.297,12.112 -33.443,11.773 -33.494,11.521C-33.756,10.222 -34.732,9.711 -35.877,9.408C-36.138,9.34 -36.429,9.382 -36.687,9.308C-36.878,9.255 -37.04,9.096 -37.216,8.983C-37.055,8.835 -36.918,8.627 -36.728,8.555C-36.522,8.476 -36.255,8.471 -36.039,8.527C-34.645,8.898 -33.416,9.439 -32.894,10.993C-32.421,12.401 -31.687,13.682 -30.635,14.775C-29.441,16.016 -28.019,16.893 -26.412,17.408C-24.637,17.977 -22.812,18.392 -21.002,18.844C-20.554,18.956 -20.077,18.992 -19.613,18.998C-18.132,19.016 -16.645,19.074 -15.169,18.978C-13.972,18.901 -12.768,18.708 -11.604,18.413C-10.324,18.089 -9.091,17.58 -7.831,17.171C-6.545,16.753 -5.431,16.085 -4.505,15.085C-3.87,14.4 -3.22,13.715 -2.494,13.133C-1.463,12.306 -0.669,11.374 -0.262,10.077C0.085,8.973 1.329,8.225 2.482,8.238C2.822,8.242 3.304,8.189 3.294,8.664C3.285,9.118 2.803,8.86 2.542,8.954C2.001,9.148 1.3,9.236 0.98,9.626C0.535,10.169 0.315,10.933 0.135,11.636C0.072,11.877 0.355,12.287 0.588,12.508C1.178,13.07 2.636,13.183 3.34,12.688C5.712,11.024 6.278,9.603 5.757,7.012C5.532,5.892 4.894,5.438 3.747,5.502C3.024,5.542 2.389,5.814 1.804,6.233C1.436,6.496 1.073,6.809 0.41,6.702C0.706,6.32 0.849,6.028 0.648,5.575C-0.374,3.261 -1.37,0.932 -2.286,-1.427C-3.015,-3.305 -3.187,-5.282 -3.001,-7.29C-2.951,-7.833 -2.888,-8.379 -2.906,-8.922C-2.915,-9.147 -3.067,-9.459 -3.251,-9.568C-4.253,-10.168 -5.257,-10.779 -6.314,-11.269C-7.815,-11.964 -9.173,-12.858 -10.451,-13.891C-10.764,-14.143 -11.104,-14.359 -11.562,-14.686C-11.553,-13.8 -11.242,-13.211 -11.002,-12.609C-10.843,-12.211 -10.612,-11.842 -10.466,-11.441C-10.197,-10.701 -10.463,-10.342 -11.206,-10.488C-12.126,-10.671 -13.024,-10.941 -13.746,-11.598C-14.524,-12.307 -15.297,-13.022 -16.088,-13.716C-16.875,-14.405 -17.404,-15.24 -17.664,-16.257C-17.753,-16.608 -17.914,-16.94 -18.1,-17.434C-18.39,-16.964 -18.6,-16.685 -18.745,-16.376C-20.325,-13.033 -23.005,-10.869 -26.283,-9.356C-26.771,-9.13 -27.307,-8.956 -27.837,-8.879C-28.672,-8.758 -28.913,-9.073 -28.686,-9.874C-28.529,-10.423 -28.353,-10.965 -28.185,-11.51M-23.971,42.615C-24.072,42.725 -24.14,42.773 -24.173,42.839C-24.851,44.199 -24.865,44.213 -23.89,45.387C-23.152,46.274 -23.379,47.218 -23.707,48.139C-23.871,48.601 -24.203,49.018 -24.514,49.414C-24.786,49.762 -24.795,50.075 -24.69,50.491C-24.531,51.126 -24.396,51.789 -24.399,52.439C-24.407,53.625 -25.102,54.102 -26.266,53.816C-26.45,53.771 -26.625,53.686 -26.838,53.607C-27.008,53.841 -27.157,54.063 -27.324,54.272C-27.644,54.673 -28.042,54.885 -28.554,54.668C-28.899,54.521 -29.181,54.562 -29.544,54.7C-30.681,55.133 -31.332,54.77 -31.748,53.603C-31.807,53.44 -31.925,53.265 -32.066,53.17C-33.021,52.525 -33.238,52.018 -32.986,50.947C-32.683,49.661 -31.985,48.568 -31.151,47.592C-30.553,46.89 -29.822,46.272 -29.062,45.745C-28.376,45.27 -27.988,44.778 -27.87,43.898C-27.553,41.548 -27.118,39.211 -26.663,36.882C-26.548,36.288 -26.65,35.994 -27.144,35.634C-27.826,35.136 -28.418,34.504 -29,33.883C-29.449,33.404 -29.455,32.858 -29.09,32.278C-28.031,30.598 -27.01,28.894 -25.957,27.211C-25.316,26.186 -24.641,25.183 -23.985,24.169C-23.252,23.03 -22.293,22.142 -21.088,21.517C-20.884,21.41 -20.684,21.285 -20.511,21.135C-20.08,20.76 -19.666,20.366 -19.316,20.045C-20.955,19.687 -22.698,19.314 -24.438,18.928C-27.942,18.15 -30.782,16.398 -32.713,13.212C-33.449,14.227 -34.524,14.062 -35.488,13.954C-36.547,13.834 -37.516,13.398 -37.99,12.284C-38.432,11.247 -39.155,10.208 -38.894,9.08C-38.577,7.715 -38.977,6.62 -39.509,5.439C-40.14,4.041 -40.364,2.536 -40.156,0.839C-40.461,1.031 -40.655,1.185 -40.873,1.286C-41.507,1.578 -41.941,1.321 -41.981,0.61C-42.06,-0.733 -41.767,-2.026 -41.341,-3.285C-41.163,-3.811 -40.895,-4.244 -41.504,-4.711C-41.716,-4.873 -41.788,-5.365 -41.745,-5.683C-41.63,-6.525 -41.409,-7.352 -41.251,-8.189C-41.213,-8.391 -41.166,-8.704 -41.274,-8.805C-42.427,-9.875 -42.204,-11.158 -41.702,-12.353C-41.003,-14.016 -39.902,-15.442 -38.598,-16.703C-36.475,-18.756 -34.007,-20.317 -31.428,-21.709C-29.021,-23.009 -26.515,-24.092 -23.89,-24.87C-21.815,-25.484 -19.702,-25.702 -17.55,-25.257C-17.31,-25.206 -17.009,-25.275 -16.776,-25.381C-15.795,-25.824 -14.77,-25.936 -13.702,-25.963C-10.96,-26.031 -8.25,-25.819 -5.577,-25.201C-4.016,-24.841 -2.469,-24.437 -1.233,-23.311C-1.035,-23.13 -0.791,-22.982 -0.542,-22.878C0.993,-22.237 2.274,-21.229 3.518,-20.152C4.521,-19.286 5.583,-18.489 6.572,-17.609C7.06,-17.175 7.523,-16.672 7.848,-16.113C8.325,-15.287 8.131,-14.816 7.29,-14.285C7.197,-14.227 7.105,-14.168 6.973,-14.084C7.248,-13.821 7.522,-13.601 7.747,-13.337C8.606,-12.326 8.344,-11.478 7.072,-11.102C6.894,-11.048 6.72,-10.977 6.524,-10.906C6.828,-9.879 7.14,-8.924 7.391,-7.952C7.975,-5.684 8.012,-3.414 7.365,-1.144C7.165,-0.442 6.921,0.195 6.144,0.433C5.835,0.527 5.696,0.716 5.75,1.041C5.932,2.139 5.788,3.214 5.522,4.279C5.414,4.714 5.458,5.057 5.781,5.449C6.137,5.881 6.399,6.443 6.536,6.99C7.193,9.61 6.069,12.137 3.722,13.45C2.568,14.095 1.022,13.962 -0.01,13.129C-0.603,12.651 -0.62,12.632 -1.216,13.168C-2.171,14.028 -3.146,14.872 -4.028,15.805C-5.056,16.891 -6.311,17.544 -7.687,18.019C-8.865,18.427 -10.038,18.854 -11.233,19.204C-12.014,19.433 -12.831,19.528 -13.627,19.705C-13.756,19.733 -13.933,19.852 -13.956,19.958C-13.979,20.063 -13.869,20.267 -13.763,20.322C-13.178,20.628 -12.573,20.894 -11.982,21.187C-11.077,21.637 -10.153,22.054 -9.285,22.565C-8.542,23.003 -7.937,23.61 -7.526,24.401C-7.313,24.812 -7.025,25.191 -6.737,25.558C-5.485,27.151 -4.222,28.735 -2.964,30.323C-2.818,30.507 -2.671,30.688 -2.534,30.879C-1.546,32.258 -1.678,33.136 -3.026,34.164C-3.862,34.802 -3.902,34.814 -3.586,35.768C-2.889,37.876 -2.145,39.968 -1.423,42.067C-1.239,42.603 -0.75,42.785 -0.329,43.061C0.514,43.615 1.401,44.126 2.154,44.785C3.263,45.755 3.806,47.015 3.696,48.532C3.597,49.916 3.047,50.372 1.674,50.161C1.49,50.133 1.216,50.219 1.094,50.352C0.507,50.997 -0.133,51.099 -0.9,50.701C-1.129,50.582 -1.414,50.574 -1.672,50.51C-1.895,50.454 -2.213,50.46 -2.319,50.314C-2.694,49.803 -3.213,49.647 -3.782,49.482C-4.289,49.336 -4.451,48.861 -4.422,48.351C-4.399,47.963 -4.336,47.576 -4.321,47.187C-4.312,46.919 -4.264,46.592 -4.389,46.389C-5.022,45.363 -4.805,44.273 -4.646,43.21C-4.565,42.675 -4.584,42.198 -4.833,41.745C-5.735,40.101 -6.541,38.418 -7.064,36.61C-7.13,36.384 -7.231,36.1 -7.523,36.258C-7.677,36.341 -7.774,36.612 -7.806,36.813C-7.835,36.992 -7.752,37.195 -7.694,37.38C-7.256,38.791 -6.822,40.205 -6.36,41.608C-6.208,42.072 -6.052,42.523 -6.443,42.917C-6.812,43.288 -6.726,43.724 -6.638,44.126C-6.328,45.531 -6.078,46.962 -5.616,48.319C-4.701,51.011 -3.704,53.677 -2.655,56.32C-2.067,57.802 -1.285,59.206 -0.637,60.666C-0.437,61.114 -0.283,61.633 -0.298,62.114C-0.314,62.675 -0.059,62.961 0.327,63.267C1.334,64.063 2.342,64.863 2.974,66.03C3.072,66.211 3.313,66.345 3.516,66.435C4.299,66.78 5.082,67.132 5.888,67.42C6.905,67.785 7.78,68.313 8.427,69.203C9.495,70.672 8.98,72.336 7.203,72.742C5.08,73.226 2.918,73.538 0.777,73.948C-1.208,74.329 -3.188,73.935 -5.169,73.908C-6.115,73.895 -7.064,73.503 -7.998,73.233C-8.679,73.037 -8.936,72.543 -8.969,71.819C-9.041,70.278 -8.742,68.805 -8.31,67.273C-9.126,67.074 -9.316,66.414 -9.474,65.708C-10.31,61.948 -11.156,58.19 -12.004,54.433C-12.38,52.764 -12.761,51.095 -13.149,49.428C-13.316,48.715 -13.329,48.717 -14.077,48.706C-14.233,48.703 -14.39,48.715 -14.545,48.713C-14.923,48.709 -15.128,48.855 -15.092,49.27C-15.052,49.736 -15.045,50.205 -15.014,50.672C-14.793,53.975 -14.643,57.284 -14.32,60.577C-14.14,62.429 -13.676,64.254 -13.339,66.091C-13.129,67.237 -12.944,68.39 -12.696,69.528C-12.483,70.504 -12.562,71.455 -12.71,72.428C-12.794,72.976 -13.071,73.234 -13.546,73.423C-14.76,73.904 -16.044,74.078 -17.319,74.15C-20.275,74.317 -23.237,74.411 -26.197,74.468C-27.123,74.485 -28.066,74.353 -28.977,74.17C-29.531,74.058 -30.086,73.784 -30.559,73.464C-31.664,72.713 -31.87,71.517 -31.087,70.418C-30.73,69.918 -30.269,69.482 -29.808,69.069C-29.201,68.525 -28.564,68.012 -27.909,67.528C-27.638,67.327 -27.297,67.185 -26.967,67.106C-26.553,67.006 -26.118,66.991 -25.692,66.952C-25.236,66.91 -24.656,67.039 -24.355,66.806C-24.047,66.565 -23.999,65.98 -23.855,65.54C-23.48,64.392 -23.102,63.247 -22.759,62.09C-22.689,61.853 -22.703,61.541 -22.799,61.314C-23.175,60.427 -23.219,59.501 -23.218,58.561C-23.214,55.677 -23.218,52.792 -23.214,49.907C-23.212,47.961 -23.294,46.014 -23.073,44.069C-22.969,43.155 -23.032,43.147 -23.971,42.615" style="fill:rgb(35,31,32);fill-rule:nonzero;"/>
            </g>
            <g transform="matrix(4.16667,0,0,4.16667,1945.63,2509.58)">
                <path d="M0,-15.455C-0.109,-15.712 -0.162,-15.949 -0.296,-16.125C-0.859,-16.867 -1.425,-17.61 -2.038,-18.31C-2.283,-18.591 -2.638,-18.793 -2.976,-18.964C-3.077,-19.015 -3.294,-18.839 -3.457,-18.767C-3.378,-18.652 -3.314,-18.521 -3.216,-18.428C-3.049,-18.268 -2.82,-18.161 -2.685,-17.982C-2.03,-17.118 -1.402,-16.233 -0.753,-15.365C-0.652,-15.231 -0.473,-15.049 -0.356,-15.066C-0.226,-15.086 -0.126,-15.308 0,-15.455M-14.671,-15.067C-14.574,-14.846 -14.523,-14.504 -14.392,-14.47C-14.023,-14.374 -14,-14.728 -13.934,-14.985C-13.653,-16.062 -12.981,-16.835 -12.057,-17.415C-11.859,-17.539 -11.657,-17.66 -11.483,-17.811C-11.412,-17.873 -11.36,-18.032 -11.391,-18.112C-11.42,-18.191 -11.58,-18.291 -11.656,-18.272C-11.991,-18.192 -12.359,-18.137 -12.638,-17.954C-13.396,-17.455 -14.008,-16.797 -14.394,-15.964C-14.522,-15.687 -14.577,-15.378 -14.671,-15.067M-5.273,-11.295C-5.244,-10.689 -5.19,-10.124 -4.776,-9.648C-4.159,-8.939 -3.245,-9.075 -2.97,-9.965C-2.801,-10.511 -2.719,-11.096 -2.69,-11.667C-2.675,-11.994 -2.794,-12.354 -2.942,-12.655C-3.163,-13.102 -3.574,-13.351 -4.081,-13.298C-4.535,-13.249 -4.874,-12.977 -5.003,-12.526C-5.118,-12.123 -5.186,-11.706 -5.273,-11.295M-10.314,-11.453C-10.386,-12.241 -10.571,-12.851 -10.928,-13.213C-11.354,-13.645 -11.818,-13.681 -12.273,-13.317C-12.963,-12.766 -13.548,-10.71 -13.255,-9.865C-13.082,-9.365 -12.513,-8.979 -11.895,-8.939C-11.34,-8.903 -11.006,-9.221 -10.837,-9.684C-10.626,-10.262 -10.485,-10.863 -10.314,-11.453M-6.637,-3.541C-6.98,-3.564 -7.101,-3.601 -7.204,-3.574C-8.854,-3.153 -10.674,-5.061 -10.373,-7.104C-10.216,-8.174 -9.364,-8.706 -8.333,-8.394C-7.669,-8.193 -7.154,-7.805 -6.833,-7.183C-6.727,-6.976 -6.661,-6.748 -6.543,-6.551C-6.502,-6.483 -6.355,-6.457 -6.257,-6.457C-6.202,-6.457 -6.104,-6.546 -6.1,-6.601C-6.079,-6.825 -6.035,-7.065 -6.094,-7.274C-6.394,-8.352 -7.189,-8.946 -8.201,-9.263C-9.735,-9.742 -11.14,-8.794 -11.293,-7.19C-11.333,-6.767 -11.334,-6.332 -11.291,-5.908C-11.152,-4.525 -9.934,-3.069 -8.676,-2.768C-7.907,-2.585 -7.233,-2.702 -6.637,-3.541M-7.92,4.792C-8.001,4.853 -8.082,4.912 -8.162,4.972C-7.932,5.308 -7.745,5.688 -7.461,5.971C-6.412,7.019 -5.127,7.588 -3.656,7.271C-1.84,6.879 -0.35,4.848 -0.305,2.963C-0.264,1.251 -0.211,-0.462 -0.67,-2.134C-0.775,-2.518 -0.646,-2.701 -0.326,-2.875C0.011,-3.057 0.349,-3.264 0.622,-3.525C0.749,-3.646 0.725,-3.926 0.77,-4.133C0.596,-4.104 0.399,-4.119 0.252,-4.041C-0.475,-3.653 -1.2,-3.305 -2.058,-3.311C-2.362,-3.314 -2.813,-3.538 -2.917,-3.044C-2.934,-2.962 -2.448,-2.733 -2.172,-2.64C-1.51,-2.413 -1.377,-2.241 -1.653,-1.654C-1.813,-1.315 -2.061,-0.984 -2.347,-0.741C-3.571,0.295 -4.914,1.158 -6.398,1.775C-8.487,2.644 -10.636,2.172 -12.264,0.53C-12.331,0.462 -12.458,0.454 -12.646,0.387C-12.632,0.595 -12.676,0.782 -12.603,0.867C-12.225,1.299 -11.877,1.798 -11.407,2.098C-10.442,2.715 -9.353,2.999 -8.188,2.98C-7.901,2.976 -7.444,3.031 -7.356,3.205C-7.038,3.84 -6.754,4.525 -7.047,5.39C-7.382,5.161 -7.65,4.977 -7.92,4.792M-17.638,-20.058C-17.806,-19.513 -17.982,-18.971 -18.139,-18.422C-18.366,-17.621 -18.125,-17.306 -17.29,-17.427C-16.76,-17.504 -16.225,-17.678 -15.736,-17.903C-12.458,-19.417 -9.778,-21.581 -8.198,-24.924C-8.053,-25.232 -7.843,-25.512 -7.553,-25.981C-7.367,-25.487 -7.206,-25.155 -7.117,-24.805C-6.857,-23.788 -6.328,-22.953 -5.541,-22.264C-4.75,-21.569 -3.978,-20.854 -3.199,-20.145C-2.478,-19.488 -1.579,-19.219 -0.659,-19.036C0.084,-18.89 0.35,-19.249 0.081,-19.988C-0.065,-20.39 -0.296,-20.759 -0.455,-21.156C-0.695,-21.759 -1.006,-22.348 -1.015,-23.233C-0.557,-22.907 -0.217,-22.69 0.096,-22.438C1.374,-21.405 2.731,-20.512 4.232,-19.816C5.29,-19.327 6.294,-18.716 7.296,-18.116C7.479,-18.007 7.632,-17.694 7.641,-17.47C7.659,-16.927 7.596,-16.381 7.546,-15.838C7.36,-13.83 7.532,-11.852 8.261,-9.975C9.177,-7.616 10.173,-5.287 11.195,-2.973C11.396,-2.519 11.253,-2.227 10.957,-1.846C11.62,-1.738 11.982,-2.052 12.351,-2.314C12.936,-2.733 13.571,-3.006 14.294,-3.046C15.44,-3.109 16.079,-2.655 16.304,-1.536C16.825,1.056 16.259,2.477 13.887,4.141C13.183,4.635 11.725,4.523 11.135,3.96C10.902,3.739 10.619,3.329 10.682,3.088C10.862,2.385 11.082,1.621 11.527,1.078C11.847,0.689 12.548,0.601 13.089,0.406C13.35,0.313 13.832,0.57 13.841,0.116C13.851,-0.358 13.369,-0.306 13.029,-0.309C11.876,-0.323 10.632,0.425 10.285,1.529C9.878,2.826 9.084,3.758 8.053,4.585C7.327,5.167 6.677,5.853 6.042,6.537C5.116,7.537 4.002,8.205 2.716,8.623C1.456,9.032 0.223,9.541 -1.058,9.865C-2.221,10.16 -3.425,10.354 -4.622,10.431C-6.098,10.526 -7.585,10.468 -9.066,10.45C-9.53,10.444 -10.007,10.408 -10.455,10.296C-12.266,9.844 -14.09,9.43 -15.865,8.86C-17.472,8.346 -18.895,7.468 -20.088,6.228C-21.141,5.134 -21.874,3.854 -22.347,2.445C-22.869,0.892 -24.098,0.351 -25.492,-0.02C-25.708,-0.077 -25.976,-0.071 -26.181,0.007C-26.371,0.079 -26.508,0.287 -26.669,0.436C-26.493,0.548 -26.331,0.707 -26.14,0.761C-25.882,0.834 -25.591,0.792 -25.33,0.86C-24.186,1.163 -23.209,1.674 -22.947,2.974C-22.896,3.226 -22.75,3.565 -22.856,3.719C-23.089,4.054 -23.41,4.418 -23.775,4.552C-24.84,4.94 -26.25,4.343 -26.761,3.32C-27.09,2.661 -27.381,1.969 -27.58,1.261C-27.886,0.175 -27.516,-0.827 -26.921,-1.72C-26.767,-1.951 -26.32,-2.117 -26.023,-2.097C-25.496,-2.061 -24.962,-1.96 -24.553,-1.496C-24.273,-1.18 -23.975,-1.284 -23.879,-1.707C-23.184,-4.772 -21.913,-7.711 -21.819,-10.912C-21.774,-12.467 -21.677,-14.022 -21.694,-15.577C-21.702,-16.18 -21.581,-16.564 -21.108,-16.974C-20.109,-17.836 -19.199,-18.8 -18.25,-19.721C-18.099,-19.867 -17.935,-20.003 -17.776,-20.143C-17.729,-20.114 -17.684,-20.086 -17.638,-20.058" style="fill:rgb(237,171,122);fill-rule:nonzero;"/>
            </g>
            <g transform="matrix(4.16667,0,0,4.16667,1944.15,2499.72)">
                <path d="M0,-12.7C-0.116,-12.682 -0.296,-12.865 -0.396,-12.999C-1.046,-13.867 -1.674,-14.752 -2.328,-15.616C-2.464,-15.795 -2.691,-15.902 -2.859,-16.061C-2.958,-16.155 -3.021,-16.286 -3.101,-16.4C-2.938,-16.472 -2.721,-16.648 -2.619,-16.597C-2.281,-16.427 -1.927,-16.224 -1.682,-15.944C-1.068,-15.244 -0.503,-14.501 0.061,-13.759C0.194,-13.583 0.247,-13.346 0.356,-13.089C0.23,-12.941 0.131,-12.72 0,-12.7M16.66,0.83C16.436,-0.289 15.797,-0.743 14.65,-0.679C13.928,-0.639 13.292,-0.367 12.707,0.052C12.339,0.315 11.977,0.628 11.314,0.52C11.609,0.139 11.752,-0.153 11.552,-0.606C10.529,-2.921 9.533,-5.25 8.617,-7.608C7.889,-9.486 7.717,-11.464 7.902,-13.471C7.952,-14.014 8.016,-14.56 7.997,-15.103C7.988,-15.328 7.836,-15.64 7.652,-15.75C6.65,-16.349 5.646,-16.961 4.589,-17.45C3.088,-18.145 1.73,-19.039 0.452,-20.072C0.14,-20.324 -0.2,-20.541 -0.658,-20.867C-0.649,-19.981 -0.339,-19.392 -0.099,-18.79C0.061,-18.392 0.291,-18.023 0.437,-17.622C0.706,-16.883 0.44,-16.523 -0.303,-16.67C-1.223,-16.852 -2.121,-17.122 -2.843,-17.779C-3.621,-18.488 -4.394,-19.203 -5.185,-19.897C-5.972,-20.587 -6.501,-21.422 -6.761,-22.438C-6.85,-22.789 -7.011,-23.121 -7.196,-23.615C-7.486,-23.144 -7.695,-22.866 -7.842,-22.557C-9.422,-19.215 -12.102,-17.051 -15.38,-15.537C-15.622,-15.425 -15.876,-15.326 -16.135,-15.245C-16.211,-15.136 -16.287,-15.025 -16.364,-14.92C-16.786,-14.34 -17.247,-13.785 -17.649,-13.191C-17.084,-12.881 -16.414,-12.799 -15.777,-12.821C-15.256,-12.84 -14.738,-12.924 -14.224,-13.033C-14.173,-13.228 -14.119,-13.421 -14.037,-13.597C-13.651,-14.43 -13.04,-15.089 -12.281,-15.588C-12.003,-15.77 -11.635,-15.826 -11.3,-15.906C-11.224,-15.925 -11.063,-15.825 -11.034,-15.746C-11.004,-15.666 -11.056,-15.507 -11.127,-15.445C-11.301,-15.294 -11.503,-15.173 -11.7,-15.049C-12.432,-14.59 -12.996,-14.003 -13.342,-13.247C-12.513,-13.493 -11.704,-13.82 -10.936,-14.177C-9.585,-14.804 -8.2,-15.571 -7.134,-16.628C-6.994,-16.766 -6.782,-16.6 -6.737,-16.462C-6.425,-15.479 -5.888,-14.552 -5.316,-13.699C-4.733,-12.83 -4.072,-12.001 -3.311,-11.282C-2.697,-10.703 -1.921,-10.067 -1.063,-9.919C-0.114,-9.756 0.564,-10.407 1.036,-11.149C1.579,-12.006 1.946,-12.962 2.474,-13.828C2.568,-13.984 2.83,-13.909 2.891,-13.762C4.247,-10.512 5.044,-7.053 5.482,-3.565C5.653,-2.207 5.827,-0.816 5.815,0.555C5.807,1.488 5.729,2.419 5.6,3.342C5.311,5.41 4.778,7.455 3.978,9.385C3.765,9.899 3.524,10.411 3.263,10.915C4.467,10.494 5.52,9.853 6.398,8.904C7.033,8.219 7.684,7.533 8.409,6.951C9.44,6.124 10.234,5.193 10.642,3.896C10.988,2.791 12.232,2.043 13.386,2.057C13.726,2.061 14.207,2.008 14.198,2.483C14.188,2.937 13.706,2.679 13.445,2.773C12.904,2.967 12.203,3.055 11.884,3.445C11.438,3.987 11.219,4.751 11.038,5.454C10.976,5.696 11.259,6.106 11.491,6.326C12.081,6.889 13.539,7.001 14.243,6.507C16.615,4.843 17.182,3.422 16.66,0.83" style="fill:rgb(221,151,106);fill-rule:nonzero;"/>
            </g>
            <g transform="matrix(4.16667,0,0,4.16667,1980.61,2431.63)">
                <path d="M0,1.124C0.91,1.487 1.653,1.827 2.426,2.076C2.859,2.216 3.34,2.217 3.802,2.252C3.885,2.259 4.056,2.124 4.051,2.066C4.039,1.93 3.971,1.776 3.878,1.674C3.81,1.6 3.668,1.581 3.554,1.56C2.307,1.333 1.249,0.639 0.097,0.193C-1.592,-0.46 -3.033,-1.537 -4.673,-2.262C-6.365,-3.01 -7.731,-4.264 -9.137,-5.436C-9.452,-5.698 -9.618,-6.135 -9.881,-6.47C-9.987,-6.605 -10.169,-6.683 -10.316,-6.786C-10.414,-6.599 -10.627,-6.387 -10.592,-6.228C-10.319,-4.977 -10.012,-3.731 -9.686,-2.492C-9.588,-2.12 -9.397,-1.772 -9.219,-1.339C-9.925,-1.147 -10.473,-1.474 -10.915,-1.844C-11.959,-2.719 -12.99,-3.621 -13.93,-4.605C-14.819,-5.537 -15.053,-6.802 -15.335,-8.018C-15.4,-8.301 -15.468,-8.584 -15.581,-9.064C-15.845,-8.664 -16.004,-8.456 -16.128,-8.229C-16.464,-7.612 -16.791,-6.992 -17.109,-6.368C-18.714,-3.225 -21.365,-1.259 -24.481,0.184C-24.762,0.313 -25.067,0.394 -25.366,0.479C-25.466,0.508 -25.58,0.484 -25.792,0.484C-25.701,0.132 -25.64,-0.156 -25.551,-0.435C-25.303,-1.214 -25.029,-1.984 -24.795,-2.768C-24.684,-3.138 -24.597,-3.525 -24.582,-3.908C-24.576,-4.091 -24.767,-4.28 -24.868,-4.467C-25.025,-4.372 -25.231,-4.313 -25.333,-4.177C-25.75,-3.615 -26.122,-3.02 -26.536,-2.455C-28.087,-0.344 -30.071,1.264 -32.365,2.505C-33.119,2.913 -33.875,3.319 -34.624,3.735C-34.93,3.906 -35.226,4.097 -35.52,4.287C-35.772,4.45 -35.933,4.675 -35.767,4.973C-35.581,5.305 -35.271,5.176 -35.045,5.057C-34.08,4.55 -33.131,4.012 -32.175,3.485C-31.812,3.286 -31.449,3.09 -30.985,2.837C-30.937,3.255 -30.889,3.516 -30.878,3.777C-30.715,7.845 -31.559,11.746 -32.816,15.582C-32.957,16.01 -33.163,16.114 -33.585,16.048C-34.917,15.837 -34.919,15.85 -36.036,16.326C-36.77,15.168 -37.166,13.888 -37.272,12.522C-37.329,11.787 -37.247,11.043 -37.266,10.303C-37.273,9.985 -37.08,9.507 -37.532,9.403C-37.947,9.308 -38.044,9.797 -38.242,10.067C-38.356,10.224 -38.437,10.415 -38.575,10.544C-38.734,10.69 -38.942,10.785 -39.129,10.902C-39.209,10.705 -39.363,10.505 -39.355,10.312C-39.292,8.742 -38.991,7.227 -38.209,5.838C-38.155,5.743 -38.121,5.638 -38.08,5.543C-39.023,4.905 -39.195,4.634 -38.855,3.527C-38.515,2.419 -37.999,1.364 -37.559,0.286C-37.448,0.017 -37.1,-0.283 -37.444,-0.537C-37.858,-0.843 -38.035,-0.373 -38.259,-0.142C-38.468,0.074 -38.659,0.307 -38.929,0.61C-39.506,-0.282 -39.432,-1.115 -39.01,-1.872C-38.442,-2.888 -37.838,-3.903 -37.106,-4.804C-35.847,-6.355 -34.292,-7.619 -32.626,-8.711C-29.42,-10.813 -26.02,-12.524 -22.373,-13.755C-20.341,-14.44 -18.259,-14.761 -16.162,-14.564C-15.183,-14.471 -14.344,-14.614 -13.453,-14.867C-13.01,-14.993 -12.536,-15.043 -12.074,-15.065C-9.255,-15.202 -6.467,-14.93 -3.715,-14.335C-2.23,-14.014 -0.749,-13.636 0.406,-12.535C0.545,-12.402 0.717,-12.289 0.893,-12.213C3.493,-11.1 5.432,-9.083 7.567,-7.336C7.93,-7.04 8.294,-6.744 8.628,-6.419C8.849,-6.203 9.047,-5.952 9.201,-5.687C9.456,-5.247 9.294,-4.938 8.773,-4.874C8.511,-4.842 8.232,-4.879 7.968,-4.928C7.624,-4.99 7.292,-5.115 6.947,-5.176C6.651,-5.229 6.283,-5.339 6.128,-4.964C5.963,-4.563 6.321,-4.426 6.593,-4.284C6.869,-4.141 7.164,-4.033 7.442,-3.893C7.893,-3.662 8.358,-3.45 8.775,-3.167C9.055,-2.977 9.306,-2.706 9.488,-2.419C9.688,-2.107 9.513,-1.785 9.138,-1.733C8.754,-1.681 8.357,-1.718 7.972,-1.668C7.375,-1.59 7.228,-1.287 7.532,-0.805C8.582,0.853 8.995,2.7 9.094,4.621C9.166,6.018 9.17,7.417 8.754,8.789C8.566,9.405 8.304,9.809 7.643,9.982C6.964,10.161 6.845,10.352 7.054,10.98C7.434,12.121 7.156,13.212 6.945,14.316C6.871,14.707 6.637,14.868 6.222,14.933C5.539,15.04 4.86,15.218 4.206,15.442C3.85,15.564 3.619,15.605 3.467,15.212C3.425,15.103 3.351,15.008 3.308,14.899C2.353,12.514 1.335,10.15 0.467,7.733C-0.284,5.643 -0.08,3.443 0,1.124" style="fill:rgb(89,74,66);fill-rule:nonzero;"/>
            </g>
            <g transform="matrix(4.16667,0,0,4.16667,1832.62,2422.87)">
                <path d="M0,6.389C0.294,6.199 0.59,6.008 0.896,5.837C1.645,5.421 2.4,5.015 3.154,4.607C5.065,3.572 6.745,2.263 8.155,0.641C6.974,0.786 5.787,0.663 4.776,-0.021C4.682,-0.086 4.622,-0.25 4.705,-0.348C6.499,-2.468 8.637,-4.248 10.834,-5.938C10.482,-5.765 10.129,-5.593 9.783,-5.409C6.321,-3.56 3.21,-1.152 0.105,1.229C-0.06,1.355 -0.39,1.154 -0.285,0.946C0.544,-0.702 1.598,-2.22 2.807,-3.61C5.105,-6.257 7.905,-8.464 10.928,-10.225C12.075,-10.895 13.262,-11.502 14.479,-12.039C14.033,-11.925 13.588,-11.802 13.146,-11.653C9.5,-10.423 6.1,-8.711 2.894,-6.609C1.228,-5.517 -0.327,-4.254 -1.587,-2.702C-2.318,-1.801 -2.923,-0.786 -3.49,0.23C-3.912,0.987 -3.986,1.82 -3.409,2.712C-3.14,2.409 -2.948,2.176 -2.739,1.96C-2.516,1.729 -2.339,1.259 -1.925,1.565C-1.58,1.819 -1.929,2.118 -2.039,2.388C-2.479,3.466 -2.995,4.521 -3.336,5.629C-3.676,6.736 -3.503,7.007 -2.561,7.645C-2.602,7.74 -2.636,7.845 -2.689,7.94C-3.472,9.328 -3.772,10.843 -3.836,12.413C-3.844,12.607 -3.689,12.807 -3.609,13.003C-3.423,12.887 -3.215,12.792 -3.056,12.646C-2.917,12.517 -2.837,12.326 -2.723,12.169C-2.524,11.899 -2.428,11.41 -2.013,11.505C-1.561,11.609 -1.754,12.087 -1.746,12.405C-1.728,13.145 -1.81,13.889 -1.753,14.624C-1.646,15.99 -1.25,17.27 -0.517,18.428C0.601,17.952 0.603,17.939 1.935,18.15C2.356,18.216 2.563,18.112 2.703,17.684C3.961,13.848 4.805,9.947 4.642,5.879C4.631,5.618 4.583,5.357 4.534,4.939C4.07,5.192 3.707,5.388 3.345,5.587C2.389,6.114 1.439,6.652 0.475,7.159C0.248,7.278 -0.062,7.407 -0.247,7.075C-0.413,6.777 -0.253,6.552 0,6.389" style="fill:rgb(114,95,85);fill-rule:nonzero;"/>
            </g>
            <g transform="matrix(4.16667,0,0,4.16667,1906.57,2429.95)">
                <path d="M0,-5.914C-2.063,-4.305 -4.307,-2.825 -6.741,-1.843C-6.906,-1.776 -7.08,-1.714 -7.253,-1.65C-7.428,-1.111 -7.608,-0.573 -7.78,-0.032C-7.869,0.246 -7.931,0.534 -8.021,0.887C-7.81,0.887 -7.695,0.91 -7.596,0.882C-7.297,0.796 -6.991,0.716 -6.711,0.585C-3.595,-0.856 -0.943,-2.822 0.661,-5.966C0.809,-6.254 0.964,-6.538 1.114,-6.824C0.747,-6.515 0.377,-6.208 0,-5.914" style="fill:rgb(114,95,85);fill-rule:nonzero;"/>
            </g>
            <g transform="matrix(4.16667,0,0,4.16667,1895.86,2753.33)">
                <path d="M0,-23.508C2.622,-22.876 5.185,-22.778 7.753,-22.807C10.018,-22.832 12.263,-23.079 14.47,-23.598C14.894,-23.697 15.129,-23.695 15.186,-23.183C15.601,-19.42 17.07,-15.962 18.381,-12.469C19.173,-10.359 20.173,-8.324 21.112,-6.271C21.362,-5.725 21.574,-5.198 21.465,-4.593C21.36,-4.011 21.637,-3.662 22.099,-3.342C22.929,-2.766 23.679,-2.091 24.322,-1.182C23.217,-0.695 22.084,-0.646 20.996,-0.589C19.13,-0.49 17.254,-0.542 15.382,-0.575C14.113,-0.598 13.982,-0.759 13.71,-2.041C13.508,-2.991 13.267,-3.935 13.06,-4.884C12.256,-8.57 11.463,-12.258 10.656,-15.943C10.549,-16.436 10.371,-16.914 10.266,-17.407C10.187,-17.78 10.098,-18.158 10.492,-18.472C10.756,-18.682 10.583,-18.954 10.327,-18.963C9.595,-18.989 8.849,-19.012 8.128,-18.905C6.946,-18.731 6.976,-19.009 6.953,-17.558C6.906,-14.595 7.12,-11.649 7.351,-8.695C7.552,-6.118 8.037,-3.609 8.513,-1.087C8.738,0.109 8.682,0.189 7.465,0.152C5.089,0.079 2.715,-0.01 0.34,-0.092C0.223,-0.096 0.104,-0.097 -0.011,-0.112C-0.909,-0.224 -0.98,-0.351 -0.731,-1.22C-0.485,-2.079 -0.264,-2.946 -0.037,-3.811C0.068,-4.213 0.164,-4.53 0.733,-4.316C1.017,-4.209 1.185,-4.533 1.022,-4.856C0.777,-5.342 0.467,-5.798 0.261,-6.299C0.088,-6.72 -0.07,-7.186 -0.072,-7.633C-0.092,-12.737 -0.08,-17.843 -0.073,-22.948C-0.073,-23.099 -0.035,-23.248 0,-23.508" style="fill:rgb(194,181,155);fill-rule:nonzero;"/>
            </g>
            <g transform="matrix(4.16667,0,0,4.16667,1903.08,2636.7)">
                <path d="M0,-13.049C-0.596,-12.832 -0.655,-12.358 -0.744,-11.979C-1.117,-10.388 -1.43,-8.783 -1.784,-7.188C-2.206,-5.284 -1.666,-5.026 -3.928,-6.096C-4.766,-6.492 -5.42,-7.056 -6.038,-7.714C-6.398,-8.096 -6.424,-8.425 -6.14,-8.85C-5.706,-9.496 -5.308,-10.167 -4.891,-10.825C-4.077,-12.109 -3.307,-13.424 -2.429,-14.662C-1.894,-15.416 -1.227,-16.089 -0.549,-16.724C-0.026,-17.212 0.007,-17.15 0.33,-16.521C0.504,-16.182 0.694,-15.792 0.989,-15.582C2.37,-14.601 3.909,-14.107 5.613,-14.433C6.85,-14.669 7.723,-15.372 8.11,-16.623C8.346,-17.38 8.388,-17.404 9.067,-17.131C10.505,-16.554 11.713,-15.715 12.58,-14.361C13.438,-13.019 14.465,-11.786 15.404,-10.496C16.224,-9.37 16.214,-9.197 15.123,-8.321C14.306,-7.665 13.462,-7.031 12.579,-6.468C11.984,-6.089 11.783,-6.214 11.59,-6.895C11.059,-8.766 10.537,-10.641 10.012,-12.515C9.97,-12.664 9.961,-12.839 9.874,-12.957C9.775,-13.092 9.606,-13.175 9.469,-13.279C9.38,-13.128 9.217,-12.976 9.219,-12.826C9.224,-12.481 9.271,-12.125 9.367,-11.794C10.082,-9.327 10.901,-6.887 11.512,-4.395C11.964,-2.552 12.58,-0.76 13.025,1.081C13.144,1.572 13.299,2.055 13.459,2.534C13.689,3.222 13.673,3.341 12.946,3.49C11.575,3.773 10.198,4.086 8.808,4.208C7.144,4.354 5.462,4.328 3.788,4.347C2.97,4.355 2.151,4.289 1.333,4.269C0.138,4.241 -0.976,3.916 -2.015,3.343C-2.717,2.954 -2.776,2.839 -2.644,2.031C-2.185,-0.771 -1.74,-3.575 -1.232,-6.369C-0.87,-8.359 -0.41,-10.33 -0.006,-12.313C0.037,-12.522 0,-12.747 0,-13.049" style="fill:rgb(129,128,189);fill-rule:nonzero;"/>
            </g>
            <g transform="matrix(4.16667,0,0,4.16667,1875.88,2659.35)">
                <path d="M0,1.766C-0.247,2.061 -0.398,2.185 -0.475,2.344C-0.792,3.003 -1.297,3.463 -1.919,3.828C-2.551,4.2 -2.909,4.706 -3.03,5.495C-3.139,6.195 -3.542,6.857 -3.859,7.514C-3.998,7.803 -4.284,8.003 -4.636,7.897C-5.053,7.771 -5.131,7.39 -5.064,7.041C-4.97,6.549 -4.846,6.043 -4.626,5.597C-3.73,3.774 -2.409,2.3 -0.701,1.211C-0.355,0.991 -0.199,0.795 -0.14,0.428C0.063,-0.839 0.285,-2.103 0.497,-3.37C0.752,-4.902 1.005,-6.434 1.277,-8.085C2.012,-7.815 2.691,-7.584 3.354,-7.308C3.485,-7.254 3.639,-7.022 3.626,-6.886C3.533,-5.919 3.503,-4.926 3.252,-3.996C2.983,-2.999 2.553,-2.031 2.084,-1.105C1.734,-0.414 1.767,0.066 2.289,0.669C3.454,2.017 3.468,3.011 2.304,4.373C1.772,4.995 1.65,5.524 1.935,6.269C2.123,6.766 2.189,7.327 2.214,7.864C2.239,8.441 1.948,8.787 1.559,8.82C1.151,8.853 0.788,8.453 0.724,7.873C0.693,7.603 0.732,7.321 0.675,7.059C0.64,6.898 0.481,6.763 0.378,6.617C0.271,6.755 0.097,6.883 0.07,7.036C0.011,7.378 0.079,7.747 -0.005,8.08C-0.107,8.49 -0.295,8.882 -0.479,9.266C-0.604,9.528 -0.853,9.739 -1.136,9.576C-1.336,9.46 -1.529,9.2 -1.571,8.975C-1.641,8.599 -1.576,8.199 -1.588,7.81C-1.595,7.586 -1.642,7.365 -1.671,7.128C-2.152,7.169 -2.188,7.508 -2.225,7.8C-2.278,8.224 -2.268,8.656 -2.306,9.082C-2.339,9.464 -2.509,9.766 -2.928,9.811C-3.291,9.851 -3.642,9.79 -3.841,9.432C-4.034,9.082 -3.941,8.804 -3.684,8.486C-3.323,8.041 -3.01,7.545 -2.762,7.03C-2.573,6.635 -2.381,6.55 -1.953,6.625C-0.723,6.841 -0.315,6.635 0.171,5.543C0.344,5.155 0.548,4.924 0.952,4.778C1.778,4.478 2.289,3.854 2.5,3.003C2.544,2.826 2.524,2.62 2.483,2.437C2.463,2.346 2.336,2.234 2.242,2.219C2.159,2.205 2.007,2.291 1.972,2.371C1.861,2.62 1.809,2.892 1.704,3.143C1.504,3.626 1.213,4.099 0.674,4.172C-0.003,4.264 -0.195,4.693 -0.392,5.235C-0.671,6.007 -1.021,6.204 -1.692,6.098C-2.376,5.99 -2.662,5.337 -2.214,4.804C-1.972,4.515 -1.62,4.31 -1.298,4.098C-0.692,3.701 -0.211,3.206 -0.008,2.496C0.039,2.333 0,2.146 0,1.766" style="fill:rgb(237,171,122);fill-rule:nonzero;"/>
            </g>
            <g transform="matrix(4.16667,0,0,4.16667,1887.21,2755.26)">
                <path d="M0,6.359C-1.278,6.249 -2.713,6.172 -4.131,5.979C-4.645,5.909 -5.159,5.624 -5.604,5.331C-6.31,4.864 -6.439,4.144 -5.995,3.407C-5.797,3.079 -5.547,2.754 -5.247,2.521C-4.358,1.834 -3.46,1.149 -2.512,0.548C-1.838,0.122 -1.072,0 -0.276,0.323C0.418,0.605 0.905,1.041 1.081,1.795C1.214,2.361 1.402,2.916 1.527,3.483C1.645,4.014 1.958,4.29 2.483,4.346C3.062,4.41 3.647,4.555 4.219,4.513C5.766,4.399 7.307,4.209 8.85,4.04C9.351,3.985 9.848,3.879 10.349,3.842C10.62,3.823 10.982,3.54 11.16,3.976C11.348,4.438 11.111,5.106 10.678,5.257C10.094,5.463 9.491,5.687 8.883,5.736C5.979,5.971 3.071,6.149 0,6.359" style="fill:white;fill-rule:nonzero;"/>
            </g>
            <g transform="matrix(4.16667,0,0,4.16667,1975.82,2761.49)">
                <path d="M0,2.608C1.442,2.608 2.886,2.625 4.328,2.603C5.391,2.587 5.515,2.443 5.536,1.36C5.55,0.697 5.523,0.034 5.553,-0.627C5.568,-0.971 5.641,-1.318 5.734,-1.65C5.842,-2.033 6.11,-2.088 6.468,-1.944C7.441,-1.551 8.422,-1.175 9.399,-0.791C10.226,-0.466 10.876,0.083 11.339,0.831C11.9,1.738 11.553,2.829 10.524,3.066C8.517,3.529 6.478,3.854 4.458,4.271C2.397,4.696 0.339,4.36 -1.715,4.268C-2.63,4.227 -3.533,3.885 -4.437,3.663C-4.896,3.549 -5.015,3.202 -4.996,2.765C-4.98,2.385 -4.876,2.23 -4.434,2.266C-2.958,2.384 -1.478,2.445 0.001,2.528C0.001,2.555 0,2.582 0,2.608" style="fill:white;fill-rule:nonzero;"/>
            </g>
            <g transform="matrix(4.16667,0,0,4.16667,1977.39,2644.24)">
                <path d="M0,3.102C-0.667,3.545 -0.732,4.092 -0.503,4.669C-0.262,5.277 0.109,5.769 0.854,5.754C1.229,5.747 1.378,5.964 1.55,6.257C2.028,7.074 1.894,7.914 1.687,8.748C1.646,8.908 1.36,9.112 1.195,9.105C1.024,9.097 0.74,8.875 0.72,8.719C0.652,8.188 0.668,7.645 0.673,7.106C0.677,6.747 0.906,6.37 0.521,5.932C0.197,6.511 0.095,7.064 0.052,7.632C0.029,7.919 -0.012,8.217 -0.36,8.23C-0.729,8.244 -0.942,7.998 -0.927,7.633C-0.903,7.053 -0.834,6.475 -0.795,5.895C-0.779,5.671 -0.703,5.38 -0.811,5.231C-1.451,4.331 -1.233,3.347 -1.04,2.419C-0.918,1.836 -0.958,1.353 -1.206,0.854C-1.432,0.402 -1.692,-0.035 -1.899,-0.495C-2.522,-1.876 -3.123,-3.267 -3.744,-4.649C-3.873,-4.937 -3.751,-5.087 -3.52,-5.205C-3.346,-5.292 -3.165,-5.365 -2.985,-5.44C-1.616,-6.01 -1.643,-6.002 -1.193,-4.644C-0.645,-2.982 -0.046,-1.337 0.528,0.316C0.63,0.61 0.768,0.904 0.799,1.207C0.912,2.299 1.635,2.964 2.353,3.687C2.859,4.197 3.227,4.858 3.595,5.488C3.71,5.685 3.707,6.038 3.609,6.249C3.491,6.503 3.244,6.761 2.991,6.861C2.879,6.905 2.586,6.585 2.429,6.387C2.239,6.148 2.067,5.877 1.958,5.593C1.81,5.209 1.598,5.084 1.172,5.083C0.258,5.081 0.08,4.888 0.004,4.019C-0.022,3.715 0,3.408 0,3.102" style="fill:rgb(237,171,122);fill-rule:nonzero;"/>
            </g>
            <g transform="matrix(4.16667,0,0,4.16667,1996.02,2769.51)">
                <path d="M0,-3.959C0,-2.763 -0.014,-1.719 0.006,-0.676C0.015,-0.18 -0.186,0.035 -0.68,0.021C-3.513,-0.059 -6.347,-0.12 -9.179,-0.215C-9.766,-0.234 -9.832,-0.363 -9.819,-0.936C-9.817,-1.014 -9.812,-1.091 -9.804,-1.168C-9.572,-3.493 -9.445,-3.618 -7.128,-3.565C-4.913,-3.515 -2.701,-3.46 -0.519,-3.954C-0.342,-3.994 -0.147,-3.959 0,-3.959" style="fill:rgb(19,117,188);fill-rule:nonzero;"/>
            </g>
            <g transform="matrix(4.16667,0,0,4.16667,1892.23,2771.17)">
                <path d="M0,-3.688C0.683,-3.688 1.413,-3.709 2.143,-3.684C4.392,-3.609 6.64,-3.509 8.89,-3.437C9.345,-3.422 9.583,-3.245 9.723,-2.803C10.277,-1.061 10.158,-0.87 8.314,-0.621C6.97,-0.439 5.632,-0.198 4.284,-0.058C3.518,0.021 2.735,-0.049 1.961,-0.055C1.326,-0.059 0.999,-0.371 0.842,-1C0.62,-1.886 0.3,-2.749 0,-3.688" style="fill:rgb(19,117,188);fill-rule:nonzero;"/>
            </g>
            <g transform="matrix(4.16667,0,0,4.16667,1978.76,2613.25)">
                <path d="M0,-1.119C-0.169,-0.821 -0.247,-0.525 -0.438,-0.38C-0.961,0.016 -1.5,0.413 -2.089,0.689C-3.001,1.116 -3.967,1.43 -4.897,1.82C-5.293,1.986 -5.565,1.997 -5.695,1.518C-5.787,1.181 -5.89,0.844 -6.015,0.518C-6.144,0.181 -6.008,-0.014 -5.704,-0.107C-4.195,-0.576 -3.184,-1.762 -1.99,-2.681C-1.487,-3.067 -1.437,-3.116 -1.073,-2.653C-0.692,-2.171 -0.365,-1.647 0,-1.119" style="fill:white;fill-rule:nonzero;"/>
            </g>
            <g transform="matrix(4.16667,0,0,4.16667,1874.17,2626.47)">
                <path d="M0,-5.036C0.225,-4.918 0.315,-4.898 0.357,-4.844C1.292,-3.615 2.618,-2.983 4.002,-2.431C4.695,-2.154 4.688,-2.138 4.545,-1.398C4.295,-0.116 4.146,0 2.976,-0.589C1.905,-1.126 0.777,-1.594 -0.075,-2.496C-0.915,-3.383 -0.942,-3.59 -0.269,-4.593C-0.162,-4.751 -0.071,-4.919 0,-5.036" style="fill:white;fill-rule:nonzero;"/>
            </g>
            <g transform="matrix(4.16667,0,0,4.16667,1922.1,2556.85)">
                <path d="M0,2.453C-0.312,2.436 -0.39,2.432 -0.468,2.429C-2.042,2.356 -2.331,1.983 -1.932,0.468C-1.887,0.296 -1.646,0.062 -1.484,0.052C-0.707,0 0.074,0 0.854,0.018C1.015,0.022 1.28,0.157 1.312,0.28C1.438,0.766 1.546,1.271 1.543,1.768C1.541,1.954 1.249,2.236 1.036,2.303C0.635,2.428 0.195,2.429 0,2.453" style="fill:rgb(237,171,122);fill-rule:nonzero;"/>
            </g>
            <g transform="matrix(4.16667,0,0,4.16667,1932.2,2573.66)">
                <path d="M0,-2.695C0.557,-2.167 0.603,-2.003 0.367,-1.419C-0.033,-0.423 -1.288,0.324 -2.519,0.147C-3.357,0.027 -4.175,-0.272 -4.984,-0.542C-5.267,-0.635 -5.531,-0.85 -5.747,-1.067C-6.457,-1.777 -6.318,-2.398 -5.265,-3.019C-5.235,-2.814 -5.198,-2.647 -5.191,-2.479C-5.16,-1.681 -4.862,-1.215 -4.1,-1.048C-3.188,-0.847 -2.258,-0.738 -1.322,-0.97C-0.409,-1.198 -0.252,-1.374 -0.121,-2.387C-0.107,-2.49 -0.045,-2.586 0,-2.695" style="fill:white;fill-rule:nonzero;"/>
            </g>
            <g transform="matrix(4.16667,0,0,4.16667,1991.19,2681.48)">
                <path d="M0,-5.37C1.093,-4.93 1.813,-4.144 2.327,-3.168C2.727,-2.409 2.729,-1.591 2.538,-0.795C2.376,-0.119 1.763,0 1.33,-0.532C1.146,-0.76 1.015,-1.066 0.961,-1.355C0.899,-1.692 0.905,-2.057 0.961,-2.395C1.112,-3.298 0.832,-4.072 0.343,-4.803C0.22,-4.985 0.113,-5.181 0,-5.37" style="fill:rgb(237,171,122);fill-rule:nonzero;"/>
            </g>
            <g transform="matrix(4.16667,0,0,4.16667,1989.58,2683.82)">
                <path d="M0,-1.912C0.548,-1.929 0.865,-1.557 0.851,-0.928C0.838,-0.396 0.369,0.036 -0.147,-0.043C-0.263,-0.06 -0.426,-0.21 -0.446,-0.32C-0.508,-0.655 -0.521,-1 -0.532,-1.342C-0.543,-1.701 -0.41,-1.948 0,-1.912" style="fill:rgb(237,171,122);fill-rule:nonzero;"/>
            </g>
            <g transform="matrix(4.16667,0,0,4.16667,1939.24,2506.37)">
                <path d="M0,4.994C-1.562,4.778 -3.714,5.637 -4.577,6.77C-2.72,7.868 -1.05,7.244 0,4.994M-4.483,5.665C-3.064,4.789 -1.658,4.066 -0.006,4.052C0.328,4.049 0.434,3.762 0.442,3.473C0.466,2.66 0.49,1.847 0.475,1.034C0.472,0.846 0.31,0.661 0.19,0.411C-1.098,1.643 -2.503,2.526 -4.021,3.234C-5.079,3.728 -5.089,3.72 -4.787,4.83C-4.72,5.081 -4.61,5.32 -4.483,5.665M-6.386,5.561C-6.116,5.746 -5.848,5.931 -5.513,6.159C-5.22,5.295 -5.504,4.609 -5.822,3.974C-5.91,3.801 -6.367,3.745 -6.653,3.749C-7.818,3.768 -8.908,3.484 -9.873,2.867C-10.343,2.567 -10.69,2.068 -11.068,1.637C-11.142,1.552 -11.098,1.364 -11.112,1.156C-10.924,1.223 -10.797,1.231 -10.729,1.3C-9.102,2.941 -6.953,3.413 -4.864,2.545C-3.38,1.928 -2.037,1.064 -0.812,0.028C-0.526,-0.215 -0.279,-0.546 -0.119,-0.885C0.157,-1.472 0.024,-1.644 -0.638,-1.87C-0.914,-1.964 -1.399,-2.193 -1.383,-2.275C-1.279,-2.769 -0.828,-2.545 -0.523,-2.542C0.334,-2.535 1.06,-2.884 1.786,-3.272C1.934,-3.35 2.13,-3.335 2.304,-3.363C2.259,-3.156 2.283,-2.877 2.156,-2.756C1.883,-2.494 1.545,-2.287 1.208,-2.106C0.888,-1.932 0.759,-1.749 0.864,-1.364C1.323,0.307 1.271,2.02 1.229,3.732C1.185,5.617 -0.306,7.648 -2.122,8.04C-3.593,8.357 -4.878,7.788 -5.927,6.74C-6.211,6.457 -6.397,6.077 -6.628,5.741C-6.548,5.681 -6.467,5.622 -6.386,5.561" style="fill:rgb(35,31,32);fill-rule:nonzero;"/>
            </g>
            <g transform="matrix(4.16667,0,0,4.16667,1917.98,2472.97)">
                <path d="M0,5.245C-0.597,6.084 -1.271,6.201 -2.039,6.017C-3.297,5.717 -4.516,4.261 -4.654,2.878C-4.697,2.454 -4.696,2.019 -4.656,1.596C-4.503,-0.008 -3.099,-0.956 -1.564,-0.477C-0.553,-0.16 0.243,0.433 0.543,1.512C0.602,1.721 0.558,1.961 0.537,2.184C0.532,2.24 0.435,2.329 0.38,2.329C0.281,2.329 0.135,2.303 0.094,2.235C-0.024,2.038 -0.09,1.809 -0.196,1.603C-0.518,0.981 -1.032,0.593 -1.696,0.391C-2.728,0.08 -3.579,0.612 -3.736,1.682C-4.037,3.724 -2.218,5.633 -0.567,5.212C-0.464,5.184 -0.344,5.222 0,5.245" style="fill:rgb(35,31,32);fill-rule:nonzero;"/>
            </g>
            <g transform="matrix(4.16667,0,0,4.16667,1902.66,2463.2)">
                <path d="M0,-0.322C-0.171,0.268 -0.312,0.869 -0.522,1.447C-0.691,1.91 -1.025,2.228 -1.58,2.192C-2.198,2.152 -2.768,1.766 -2.94,1.266C-3.233,0.421 -2.648,-1.634 -1.959,-2.186C-1.504,-2.55 -1.039,-2.514 -0.613,-2.082C-0.257,-1.72 -0.071,-1.11 0,-0.322" style="fill:rgb(35,31,32);fill-rule:nonzero;"/>
            </g>
            <g transform="matrix(4.16667,0,0,4.16667,1923.66,2463.76)">
                <path d="M0,-0.299C0.088,-0.71 0.155,-1.127 0.271,-1.53C0.399,-1.982 0.738,-2.253 1.192,-2.302C1.699,-2.355 2.11,-2.107 2.331,-1.659C2.479,-1.359 2.599,-0.998 2.583,-0.671C2.555,-0.1 2.473,0.485 2.304,1.031C2.028,1.921 1.114,2.056 0.497,1.347C0.083,0.872 0.029,0.306 0,-0.299" style="fill:rgb(35,31,32);fill-rule:nonzero;"/>
            </g>
            <g transform="matrix(4.16667,0,0,4.16667,1884.5,2436.25)">
                <path d="M0,2.531C0.094,2.22 0.148,1.911 0.277,1.635C0.663,0.802 1.274,0.143 2.033,-0.356C2.312,-0.538 2.68,-0.594 3.015,-0.674C3.091,-0.693 3.251,-0.593 3.28,-0.514C3.311,-0.434 3.259,-0.275 3.188,-0.213C3.014,-0.062 2.812,0.059 2.614,0.183C1.689,0.763 1.018,1.536 0.737,2.613C0.671,2.87 0.647,3.224 0.279,3.129C0.147,3.094 0.097,2.753 0,2.531" style="fill:rgb(35,31,32);fill-rule:nonzero;"/>
            </g>
            <g transform="matrix(4.16667,0,0,4.16667,1945.63,2432.04)">
                <path d="M0,3.154C-0.126,3.301 -0.226,3.523 -0.356,3.543C-0.473,3.56 -0.652,3.378 -0.753,3.244C-1.402,2.376 -2.03,1.491 -2.685,0.627C-2.82,0.448 -3.049,0.341 -3.216,0.181C-3.314,0.088 -3.378,-0.043 -3.457,-0.158C-3.294,-0.23 -3.077,-0.406 -2.976,-0.355C-2.638,-0.184 -2.283,0.018 -2.038,0.299C-1.425,0.999 -0.859,1.742 -0.296,2.484C-0.162,2.66 -0.109,2.897 0,3.154" style="fill:rgb(35,31,32);fill-rule:nonzero;"/>
            </g>
            <g transform="matrix(4.16667,0,0,4.16667,1920.56,2508.08)">
                <path d="M0,5.254C-0.127,4.909 -0.236,4.67 -0.304,4.419C-0.605,3.309 -0.596,3.317 0.463,2.823C1.98,2.115 3.386,1.233 4.674,0C4.793,0.25 4.955,0.435 4.958,0.623C4.974,1.436 4.949,2.249 4.926,3.062C4.917,3.351 4.812,3.638 4.478,3.641C2.825,3.655 1.419,4.378 0,5.254" style="fill:rgb(190,30,45);fill-rule:nonzero;"/>
            </g>
            <g transform="matrix(4.16667,0,0,4.16667,1939.24,2538.25)">
                <path d="M0,-2.658C-1.05,-0.408 -2.72,0.216 -4.577,-0.882C-3.714,-2.015 -1.562,-2.874 0,-2.658" style="fill:rgb(249,181,181);fill-rule:nonzero;"/>
            </g>
        </g>
    </g>
</svg>
