<?xml version="1.0" encoding="UTF-8" standalone="no"?>
<!DOCTYPE svg PUBLIC "-//W3C//DTD SVG 1.1//EN" "http://www.w3.org/Graphics/SVG/1.1/DTD/svg11.dtd">
<svg width="100%" height="100%" viewBox="0 0 212 395" version="1.1" xmlns="http://www.w3.org/2000/svg" xmlns:xlink="http://www.w3.org/1999/xlink" xml:space="preserve" xmlns:serif="http://www.serif.com/" style="fill-rule:evenodd;clip-rule:evenodd;stroke-linejoin:round;stroke-miterlimit:2;">
    <g transform="matrix(1,0,0,1,-2027,-2390)">
        <g>
            <g transform="matrix(4.16667,0,0,4.16667,2132.42,2578.81)">
                <path d="M0,4.427C0.629,3.572 0.869,2.63 1.278,1.681L-1.494,1.681C-1.16,2.734 -0.717,3.606 0,4.427M7.939,12.24C8.465,11.847 8.769,11.618 9.073,11.391C9.47,11.095 9.571,10.755 9.342,10.28C8.873,9.309 8.446,8.317 8.003,7.333C7.741,8.912 7.698,10.444 7.939,12.24M-9.424,13.609C-8.988,10.962 -8.594,8.562 -8.198,6.16C-9.393,7.704 -10.313,9.38 -10.822,11.258C-10.875,11.449 -10.791,11.731 -10.675,11.906C-10.336,12.42 -9.949,12.903 -9.424,13.609M6.41,34.713C6.249,34.079 6.124,33.475 5.932,32.893C5.875,32.72 5.636,32.498 5.469,32.488C4.691,32.441 3.91,32.455 3.131,32.455C2.701,32.456 2.61,32.735 2.664,33.086C2.757,33.701 2.87,34.315 2.974,34.929C3.039,35.324 3.271,35.388 3.646,35.357C4.583,35.279 5.479,35.069 6.41,34.713M-7.024,35.555C-6.831,35.555 -6.637,35.559 -6.443,35.555C-5.581,35.534 -5.54,35.514 -5.358,34.693C-5.191,33.939 -5.058,33.177 -4.905,32.419C-4.849,32.137 -4.959,31.964 -5.239,31.933C-5.739,31.877 -6.241,31.83 -6.743,31.799C-7.968,31.725 -8.144,31.641 -8.161,32.93C-8.166,33.312 -8.297,33.691 -8.338,34.073C-8.497,35.565 -8.492,35.565 -7.024,35.555M18.926,-8.389C19.54,-8.697 20.075,-9.011 20.647,-9.231C20.912,-9.332 21.249,-9.264 21.55,-9.234C21.622,-9.227 21.729,-9.065 21.729,-8.974C21.73,-8.889 21.627,-8.763 21.54,-8.727C21.362,-8.654 21.166,-8.625 20.977,-8.587C19.897,-8.368 19.262,-7.529 18.631,-6.771C18.044,-6.066 18.244,-5.792 19.161,-5.534C19.98,-5.303 20.743,-5.423 21.374,-5.924C21.974,-6.398 22.525,-6.969 22.981,-7.583C23.585,-8.396 23.308,-9.9 22.511,-10.541C22.339,-10.679 22.101,-10.8 21.887,-10.81C21.084,-10.853 20.352,-10.61 19.701,-10.136C19.125,-9.718 18.842,-9.159 18.926,-8.389M-17.084,-9.042C-17.008,-10.136 -17.639,-10.655 -18.437,-11.035C-19.653,-11.612 -20.724,-11.087 -20.958,-9.754C-21.07,-9.112 -21.084,-8.435 -21.028,-7.784C-20.932,-6.662 -19.692,-5.593 -18.649,-5.647C-18.051,-5.678 -16.757,-6.631 -16.595,-7.184C-16.556,-7.317 -16.565,-7.527 -16.646,-7.621C-16.89,-7.904 -17.138,-8.244 -17.461,-8.386C-18.022,-8.632 -18.64,-8.751 -19.236,-8.914C-19.444,-8.97 -19.781,-8.927 -19.689,-9.254C-19.649,-9.398 -19.337,-9.524 -19.134,-9.551C-18.915,-9.58 -18.677,-9.497 -18.453,-9.437C-18.014,-9.32 -17.579,-9.185 -17.084,-9.042M4.32,1.762C1.991,1.466 2.366,1.473 1.511,3.096C1.366,3.37 1.267,3.667 1.143,3.952C1.003,4.273 0.887,4.607 0.712,4.906C0.437,5.378 0.068,5.448 -0.349,5.11C-0.555,4.942 -0.742,4.725 -0.869,4.493C-1.279,3.746 -1.706,3.001 -2.031,2.216C-2.257,1.669 -2.62,1.439 -3.157,1.358C-3.74,1.27 -3.84,1.391 -3.616,1.989C-2.915,3.863 -1.836,5.522 -0.66,7.122C-0.569,7.245 -0.453,7.354 -0.332,7.448C0.101,7.787 0.276,7.759 0.616,7.33C1.243,6.539 1.871,5.749 2.507,4.965C3.269,4.025 3.788,2.954 4.32,1.762M8.519,2.128C8.411,2.155 8.305,2.182 8.197,2.208C7.946,3.214 7.961,4.26 7.866,5.287C7.848,5.489 8.035,5.711 8.136,5.919C8.848,7.386 9.575,8.845 10.267,10.322C10.572,10.975 10.521,11.189 9.983,11.647C9.511,12.049 8.998,12.406 8.486,12.76C8.165,12.983 8.017,13.25 8.058,13.644C8.147,14.493 8.204,15.348 8.305,16.197C8.375,16.783 8.597,16.909 9.073,16.572C10.245,15.74 11.439,14.922 12.518,13.977C13.612,13.015 13.897,11.848 13.201,10.415C12.52,9.015 11.896,7.602 10.947,6.348C10.529,5.796 10.247,5.141 9.9,4.534C9.441,3.732 8.979,2.93 8.519,2.128M-10.015,17.672C-9.712,15.891 -8.994,14.367 -10.606,13.163C-10.636,13.141 -10.651,13.1 -10.675,13.069C-11.774,11.62 -11.777,11.619 -11.123,9.915C-10.449,8.163 -9.487,6.565 -8.488,4.984C-8.244,4.598 -7.932,4.156 -7.928,3.738C-7.919,2.836 -8.091,1.934 -8.204,0.887C-8.45,1.17 -8.62,1.327 -8.743,1.515C-9.981,3.401 -11.289,5.247 -12.416,7.198C-13.189,8.535 -13.716,10.018 -14.341,11.441C-14.841,12.583 -14.572,13.555 -13.656,14.377C-12.502,15.413 -11.355,16.457 -10.015,17.672M8.002,35.347C7.153,35.494 6.509,35.603 5.866,35.719C5.024,35.87 4.189,36.09 3.342,36.17C2.302,36.268 2.374,36.507 2.42,37.37C2.433,37.601 2.493,37.831 2.555,38.055C2.719,38.655 2.891,39.252 3.066,39.848C3.171,40.201 3.229,40.54 2.866,40.79C1.721,41.581 1.621,42.888 1.254,44.061C1.108,44.527 1.305,44.779 1.771,44.914C2.892,45.24 4.001,45.604 5.116,45.945C5.301,46 5.496,46.031 5.688,46.05C6.342,46.117 6.417,46.075 6.617,45.459C7.108,43.947 7.577,42.423 9.08,41.48C8.495,41.438 7.961,41.471 7.432,41.534C6.931,41.594 6.437,41.705 5.936,41.751C5.831,41.761 5.647,41.6 5.612,41.484C5.577,41.373 5.652,41.181 5.744,41.091C5.845,40.991 6.019,40.927 6.164,40.921C6.707,40.898 6.835,40.593 6.924,40.097C7.135,38.915 7.44,37.749 7.71,36.578C7.787,36.241 7.869,35.906 8.002,35.347M9.65,48.415C10.723,48.332 12.12,48.249 13.511,48.106C14.047,48.05 14.582,47.894 15.093,47.715C15.797,47.469 15.881,47.278 15.604,46.575C14.795,44.522 13.329,43.084 11.337,42.179C10.747,41.91 10.138,41.957 9.524,42.216C8.788,42.527 8.327,43.083 8.038,43.781C7.711,44.571 7.446,45.385 7.157,46.19C6.886,46.945 6.738,47.07 5.961,46.94C5.312,46.831 4.672,46.653 4.037,46.474C3.139,46.221 2.252,45.929 1.352,45.68C1.2,45.638 0.922,45.673 0.854,45.775C0.441,46.392 0.771,47.356 1.478,47.536C2.453,47.786 3.438,48.059 4.434,48.154C6.058,48.307 7.693,48.324 9.65,48.415M-11.221,48.156C-11.218,48.222 -11.216,48.288 -11.213,48.354C-9.237,48.216 -7.259,48.107 -5.288,47.923C-4.724,47.87 -4.174,47.617 -3.626,47.429C-3.22,47.289 -3.124,46.94 -3.228,46.573C-3.344,46.158 -3.665,46.384 -3.902,46.439C-5.821,46.88 -7.768,46.796 -9.711,46.731C-10.053,46.719 -10.392,46.602 -10.73,46.526C-11.165,46.428 -11.366,46.17 -11.402,45.707C-11.447,45.129 -11.537,44.549 -11.673,43.986C-11.914,42.99 -12.306,42.073 -13.134,41.392C-14.171,40.539 -14.707,40.49 -15.876,41.133C-17.667,42.119 -18.466,43.86 -19.302,45.574C-19.351,45.675 -19.348,45.802 -19.368,45.916C-19.459,46.43 -19.297,46.802 -18.837,47.095C-17.755,47.785 -16.566,48.11 -15.305,48.147C-13.944,48.187 -12.582,48.156 -11.221,48.156M-3.594,36.583C-3.965,36.514 -4.225,36.424 -4.484,36.424C-6.315,36.425 -8.146,36.443 -9.978,36.459C-10.132,36.461 -10.289,36.487 -10.44,36.523C-11.014,36.657 -11.068,36.757 -10.914,37.319C-10.771,37.843 -10.515,38.37 -10.518,38.895C-10.521,39.65 -10.229,40.139 -9.639,40.539C-9.493,40.638 -9.438,40.869 -9.343,41.039C-10.057,40.889 -10.604,40.518 -11.209,40.326C-11.846,40.124 -12.532,40.134 -13.324,40.4C-12.436,41.123 -11.672,41.755 -11.357,42.717C-11.092,43.526 -10.865,44.353 -10.707,45.188C-10.63,45.599 -10.492,45.835 -10.087,45.894C-9.817,45.933 -9.547,45.96 -9.275,45.987C-7.55,46.157 -5.854,45.934 -4.165,45.6C-3.381,45.445 -3.255,45.271 -3.474,44.495C-3.547,44.236 -3.671,43.988 -3.794,43.745C-4.268,42.809 -4.755,41.878 -5.229,40.943C-5.591,40.231 -5.632,39.567 -5.097,38.874C-4.558,38.178 -4.123,37.401 -3.594,36.583M-3.184,25.864C-3.183,25.802 -3.181,25.74 -3.179,25.678C-2.973,25.619 -2.768,25.516 -2.56,25.511C-1.471,25.481 -0.38,25.454 0.709,25.475C1.084,25.483 1.731,25.195 1.761,25.788C1.783,26.256 1.152,26.097 0.787,26.138C0.171,26.208 0.102,26.256 0.123,26.832C0.174,28.193 0.255,29.552 0.302,30.912C0.316,31.336 0.469,31.534 0.909,31.585C3.515,31.887 6.113,31.831 8.708,31.48C9.005,31.44 9.289,31.308 9.633,31.203C9.129,29.554 8.64,27.965 8.159,26.373C8.024,25.927 7.907,25.476 7.8,25.022C7.497,23.736 7.223,22.443 6.9,21.162C6.692,20.336 6.663,20.329 5.794,20.303C3.343,20.231 0.89,20.401 -1.561,20.098C-3.873,19.812 -6.203,19.661 -8.522,19.423C-8.861,19.389 -9.042,19.453 -9.132,19.773C-9.174,19.922 -9.231,20.068 -9.269,20.218C-9.935,22.938 -10.605,25.655 -11.259,28.377C-11.7,30.219 -11.621,30.251 -9.802,30.644C-7.649,31.107 -5.47,31.083 -3.295,31.177C-2.715,31.202 -2.608,31.113 -2.518,30.559C-2.417,29.946 -2.354,29.325 -2.238,28.715C-2.131,28.143 -1.959,27.582 -1.851,27.01C-1.718,26.309 -1.786,26.24 -2.486,26.094C-2.725,26.045 -2.951,25.943 -3.184,25.864M7.537,1.153C7.062,1.275 6.734,1.399 6.398,1.435C5.573,1.523 5.092,1.976 4.763,2.718C4.176,4.043 3.396,5.25 2.401,6.317C2.004,6.742 1.604,7.188 1.314,7.687C0.62,8.889 0.247,8.771 -0.918,7.941C-1.1,7.811 -1.217,7.587 -1.355,7.401C-2.597,5.738 -3.649,3.971 -4.375,2.018C-4.493,1.701 -4.642,1.257 -4.892,1.156C-5.656,0.846 -6.442,0.533 -7.322,0.434C-7.322,1.365 -7.564,2.319 -7.253,3.03C-6.947,3.726 -6.996,4.267 -7.139,4.901C-7.31,5.659 -7.524,6.411 -7.644,7.179C-8.179,10.637 -8.678,14.101 -9.214,17.559C-9.289,18.043 -9.104,18.313 -8.71,18.48C-8.428,18.601 -8.126,18.709 -7.824,18.744C-6.975,18.843 -6.119,18.896 -5.267,18.978C-2.169,19.277 0.921,19.693 4.048,19.445C4.624,19.399 5.212,19.512 5.794,19.522C6.256,19.53 6.729,19.541 7.179,19.458C7.837,19.336 7.94,19.148 7.821,18.487C7.767,18.185 7.609,17.897 7.582,17.595C7.412,15.698 7.263,13.801 7.11,11.903C7.033,10.935 6.907,9.966 6.904,8.997C6.896,6.429 7.059,3.869 7.537,1.153M-11.689,-24.279C-12.824,-23.688 -13.846,-23.124 -14.896,-22.622C-15.48,-22.343 -15.751,-21.949 -15.886,-21.306C-16.625,-17.806 -16.645,-14.265 -16.508,-10.722C-16.469,-9.73 -16.289,-8.672 -15.879,-7.779C-14.993,-5.851 -13.697,-4.205 -11.942,-2.933C-10.626,-1.979 -9.13,-1.44 -7.653,-0.833C-5.021,0.25 -2.294,0.772 0.553,0.695C1.645,0.665 2.737,0.717 3.828,0.692C4.602,0.674 5.405,0.709 6.14,0.514C9.003,-0.25 11.789,-1.216 14.383,-2.702C16.493,-3.912 17.534,-5.799 17.854,-8.067C18.355,-11.608 17.793,-15.134 17.428,-18.655C17.394,-18.983 17.25,-19.178 16.932,-19.184C15.964,-19.201 15.276,-19.794 14.531,-20.29C13.723,-20.829 12.931,-21.425 12.052,-21.819C10.4,-22.559 8.879,-23.477 7.49,-24.631C6.453,-25.491 5.403,-26.336 4.291,-27.243C4.383,-26.131 4.696,-25.098 4.986,-24.058C5.115,-23.595 5.522,-23.048 4.982,-22.666C4.479,-22.308 4.035,-22.808 3.608,-23.038C2.581,-23.591 1.541,-24.129 0.565,-24.764C-0.007,-25.138 -0.555,-25.623 -0.954,-26.174C-1.591,-27.053 -2.095,-28.029 -2.654,-28.965C-2.807,-29.219 -2.959,-29.471 -3.189,-29.853C-3.436,-29.399 -3.604,-29.062 -3.796,-28.74C-4.374,-27.771 -4.912,-26.773 -5.558,-25.85C-6.918,-23.902 -8.952,-22.655 -10.68,-21.089C-10.846,-20.938 -11.208,-20.868 -11.421,-20.937C-11.774,-21.052 -11.706,-21.417 -11.697,-21.737C-11.674,-22.549 -11.689,-23.361 -11.689,-24.279M12.62,-43.236C12.319,-43.433 12.234,-43.521 12.134,-43.55C9.53,-44.284 6.907,-44.865 4.195,-44.206C1.867,-43.64 -0.595,-43.431 -2.532,-41.767C-2.824,-41.515 -3.148,-41.625 -3.265,-42.006C-3.441,-42.581 -3.859,-42.662 -4.364,-42.629C-6.077,-42.517 -7.77,-42.285 -9.415,-41.767C-10.604,-41.393 -11.792,-41.012 -12.99,-40.671C-14.654,-40.197 -16.196,-39.462 -17.656,-38.547C-18.939,-37.743 -19.873,-36.598 -20.678,-35.341C-20.8,-35.149 -20.93,-34.916 -20.927,-34.704C-20.92,-34.345 -21.109,-34.158 -21.321,-33.914C-22.847,-32.159 -24.124,-30.267 -24.42,-27.881C-24.465,-27.514 -24.466,-27.142 -24.495,-26.635C-24.198,-26.794 -24.033,-26.835 -23.94,-26.939C-23.451,-27.492 -22.983,-28.063 -22.501,-28.622C-22.301,-28.853 -22.103,-29.094 -21.865,-29.28C-21.79,-29.339 -21.571,-29.266 -21.452,-29.196C-21.395,-29.163 -21.391,-28.991 -21.409,-28.89C-21.43,-28.78 -21.496,-28.675 -21.558,-28.577C-22.374,-27.278 -22.667,-25.839 -22.624,-24.334C-22.583,-22.935 -22.548,-21.528 -22.364,-20.144C-22.119,-18.297 -21.871,-16.432 -21.007,-14.734C-20.601,-13.936 -20.18,-13.146 -19.745,-12.364C-19.659,-12.21 -19.501,-12.055 -19.34,-11.991C-18.675,-11.727 -17.995,-11.499 -17.218,-11.22C-17.218,-12.976 -17.298,-14.691 -17.195,-16.394C-17.093,-18.081 -16.806,-19.757 -16.594,-21.483C-17.098,-21.412 -17.55,-21.311 -18.004,-21.299C-18.19,-21.294 -18.382,-21.475 -18.571,-21.573C-18.445,-21.741 -18.336,-21.925 -18.187,-22.07C-18.114,-22.142 -17.971,-22.163 -17.857,-22.171C-17.199,-22.216 -16.701,-22.591 -16.18,-22.936C-15.865,-23.145 -15.521,-23.316 -15.175,-23.467C-14.1,-23.932 -13.029,-24.4 -12.135,-25.184C-11.852,-25.432 -11.602,-25.865 -11.165,-25.677C-10.726,-25.486 -10.879,-25.002 -10.869,-24.631C-10.848,-23.869 -10.854,-23.107 -10.85,-22.335C-10.637,-22.362 -10.545,-22.347 -10.491,-22.385C-7.517,-24.45 -5.228,-27.108 -3.635,-30.357C-3.516,-30.601 -3.495,-30.965 -3.577,-31.227C-3.946,-32.408 -3.918,-33.613 -3.87,-34.82C-3.845,-35.466 -3.762,-36.112 -3.297,-36.648C-3.234,-36.184 -3.274,-35.735 -3.297,-35.285C-3.38,-33.597 -3.321,-31.91 -2.553,-30.375C-1.893,-29.055 -1.101,-27.801 -0.327,-26.542C0.023,-25.97 0.562,-25.586 1.175,-25.281C1.975,-24.885 2.737,-24.41 3.521,-23.977C3.703,-23.876 3.903,-23.807 4.224,-23.667C4.094,-24.158 4.013,-24.491 3.916,-24.82C3.406,-26.559 3.294,-28.34 3.343,-30.138C3.351,-30.419 3.388,-30.77 3.713,-30.759C3.897,-30.752 4.078,-30.435 4.245,-30.245C4.289,-30.195 4.274,-30.094 4.286,-30.017C4.522,-28.47 5.296,-27.273 6.574,-26.364C8.128,-25.26 9.5,-23.888 11.279,-23.122C12.721,-22.501 14.049,-21.709 15.31,-20.777C15.768,-20.438 16.315,-20.167 16.863,-20.016C17.57,-19.821 18.317,-19.77 19.05,-19.675C19.39,-19.63 19.868,-19.698 19.848,-19.227C19.829,-18.796 19.36,-18.835 19.016,-18.792C18.389,-18.713 18.404,-18.705 18.455,-18.094C18.646,-15.769 18.828,-13.443 19.017,-11.118C19.029,-10.969 19.067,-10.821 19.092,-10.684C19.817,-10.947 20.497,-11.37 21.194,-11.402C22.145,-11.445 22.364,-11.968 22.502,-12.697C22.53,-12.849 22.557,-13.003 22.589,-13.155C23.172,-15.932 23.756,-18.709 24.34,-21.486C24.646,-22.942 24.845,-24.417 24.58,-25.891C24.024,-28.983 22.972,-31.885 21.096,-34.447C20.768,-34.895 20.942,-35.269 21.52,-35.328C21.984,-35.375 22.457,-35.333 22.922,-35.376C23.177,-35.399 23.423,-35.516 23.673,-35.591C23.573,-35.868 23.511,-36.167 23.365,-36.416C23.23,-36.645 23.02,-36.838 22.817,-37.019C21.998,-37.76 21.062,-38.333 20.022,-38.687C18.107,-39.342 16.191,-40.008 14.238,-40.534C12.858,-40.906 11.521,-41.513 10.045,-41.505C9.928,-41.504 9.708,-41.673 9.712,-41.756C9.719,-41.917 9.813,-42.12 9.938,-42.219C10.081,-42.333 10.302,-42.342 10.483,-42.411C11.134,-42.658 11.781,-42.912 12.62,-43.236M-8.286,-0.142C-11.692,-1.264 -14.275,-3.28 -16.014,-6.444C-16.378,-6.097 -16.651,-5.836 -16.926,-5.576C-17.948,-4.608 -19.486,-4.581 -20.516,-5.513C-22.301,-7.13 -22.387,-9.803 -20.71,-11.552C-20.606,-11.66 -20.504,-11.768 -20.386,-11.892C-23.351,-16.396 -23.519,-21.413 -23.237,-26.527C-23.582,-26.354 -23.932,-26.12 -24.318,-26C-24.775,-25.857 -25.101,-26.092 -25.127,-26.569C-25.147,-26.952 -25.051,-27.339 -25.021,-27.725C-24.854,-29.879 -23.93,-31.68 -22.479,-33.242C-22.03,-33.724 -21.599,-34.173 -21.585,-34.938C-21.578,-35.356 -21.23,-35.789 -20.979,-36.178C-19.662,-38.219 -17.79,-39.634 -15.554,-40.444C-12.885,-41.411 -10.149,-42.203 -7.414,-42.969C-6.454,-43.239 -5.41,-43.21 -4.404,-43.312C-3.719,-43.383 -3.08,-43.305 -2.667,-42.685C-0.834,-43.859 1.217,-44.21 3.217,-44.69C4.084,-44.898 4.98,-45.059 5.869,-45.093C6.873,-45.13 7.894,-45.067 8.889,-44.922C10.003,-44.759 11.1,-44.466 12.199,-44.207C12.498,-44.136 12.798,-44.015 13.063,-43.858C13.569,-43.558 13.567,-43.065 13.051,-42.765C12.618,-42.513 12.149,-42.324 11.496,-42.011C12.265,-41.782 12.844,-41.612 13.422,-41.437C15.583,-40.782 17.753,-40.156 19.9,-39.458C21.168,-39.046 22.354,-38.428 23.312,-37.477C23.721,-37.071 24.093,-36.598 24.367,-36.094C24.741,-35.407 24.526,-34.987 23.761,-34.808C23.275,-34.695 22.766,-34.678 22.159,-34.605C22.502,-33.679 22.936,-32.834 23.411,-32.019C24.248,-30.585 24.691,-29.008 25.089,-27.427C25.63,-25.276 25.516,-23.11 25.048,-20.944C24.481,-18.323 23.983,-15.687 23.452,-13.058C23.414,-12.868 23.361,-12.678 23.299,-12.495C23.036,-11.727 23.064,-11.08 23.577,-10.335C24.433,-9.092 24.404,-7.762 23.318,-6.589C22.923,-6.161 22.53,-5.715 22.067,-5.37C21.196,-4.721 20.234,-4.351 19.11,-4.677C18.398,-4.885 17.83,-4.787 17.342,-4.079C15.991,-2.122 13.815,-1.317 11.786,-0.346C10.879,0.088 9.885,0.341 8.93,0.674C8.429,0.849 8.327,1.046 8.655,1.419C9.594,2.487 10.246,3.724 10.882,4.976C11.022,5.252 11.19,5.522 11.387,5.761C12.592,7.227 13.37,8.922 14.064,10.665C14.499,11.757 14.513,12.798 13.69,13.726C13.228,14.248 12.785,14.809 12.24,15.234C11.229,16.024 10.164,16.749 9.09,17.454C8.702,17.708 8.54,17.955 8.664,18.406C8.725,18.628 8.712,18.87 8.72,19.104C8.736,19.604 8.677,20.045 8.043,20.135C7.577,20.2 7.51,20.528 7.613,20.918C8.186,23.097 8.417,25.366 9.363,27.447C9.491,27.728 9.594,28.035 9.63,28.34C9.736,29.239 9.997,30.083 10.378,30.906C10.687,31.573 10.559,31.834 9.839,31.974C9.077,32.122 8.298,32.18 7.527,32.289C6.623,32.417 6.526,32.556 6.707,33.416C6.747,33.607 6.833,33.791 6.85,33.982C6.89,34.467 7.128,34.618 7.615,34.624C9.062,34.644 9.035,34.658 8.635,36.047C8.217,37.5 7.702,38.938 7.696,40.536C7.814,40.574 7.955,40.663 8.092,40.657C9.841,40.582 11.4,41.205 12.828,42.098C14.439,43.106 15.697,44.474 16.346,46.316C16.742,47.444 16.528,48.01 15.423,48.441C14.776,48.693 14.081,48.899 13.395,48.952C11.385,49.11 9.378,49.557 7.348,49.117C7.011,49.044 6.644,49.047 6.298,49.084C4.631,49.26 3.063,48.728 1.465,48.423C1.199,48.372 0.947,48.252 0.686,48.177C0.123,48.018 -0.165,47.661 -0.147,47.069C-0.137,46.718 -0.206,46.346 -0.111,46.021C0.333,44.49 0.806,42.967 1.309,41.455C1.4,41.181 1.642,40.907 1.887,40.743C2.418,40.391 2.426,39.991 2.226,39.445C2.025,38.9 1.888,38.322 1.81,37.745C1.713,37.029 1.515,36.277 2.168,35.656C2.298,35.533 2.317,35.23 2.293,35.021C2.22,34.404 2.104,33.79 1.994,33.177C1.864,32.455 1.803,32.407 1.153,32.291C0.709,32.212 0.104,32.448 -0.135,31.965C-0.345,31.541 -0.351,30.996 -0.37,30.502C-0.421,29.256 -0.417,28.009 -0.465,26.763C-0.472,26.58 -0.644,26.405 -0.738,26.226C-0.843,26.376 -1.009,26.514 -1.04,26.678C-1.31,28.09 -1.568,29.505 -1.801,30.924C-1.95,31.834 -2.056,31.986 -2.994,31.969C-4.028,31.952 -4.104,31.726 -4.443,33.129C-4.589,33.734 -4.719,34.342 -4.849,34.95C-4.929,35.323 -4.768,35.573 -4.401,35.632C-3.904,35.712 -3.395,35.72 -2.901,35.816C-2.701,35.855 -2.473,36.009 -2.367,36.179C-2.312,36.269 -2.446,36.561 -2.574,36.666C-3.379,37.332 -3.803,38.266 -4.353,39.113C-4.708,39.662 -4.691,40.184 -4.379,40.757C-3.878,41.679 -3.412,42.621 -2.96,43.569C-2.48,44.573 -2.367,45.663 -2.358,46.754C-2.353,47.462 -2.633,48.045 -3.421,48.231C-4.249,48.426 -5.064,48.709 -5.904,48.821C-9.284,49.269 -12.671,49.09 -16.058,48.859C-17.305,48.775 -18.412,48.343 -19.434,47.667C-20.247,47.127 -20.5,46.604 -20.158,45.663C-18.873,42.126 -16.795,39.52 -12.468,39.515C-11.106,39.513 -10.887,39.722 -11.453,38.019C-11.503,37.87 -11.567,37.729 -11.621,37.582C-12.104,36.262 -11.906,35.952 -10.473,35.773C-9.328,35.629 -9.32,35.63 -9.135,34.53C-9.019,33.839 -8.921,33.146 -8.827,32.452C-8.718,31.642 -8.739,31.627 -9.525,31.431C-10.166,31.272 -10.815,31.131 -11.439,30.917C-12.313,30.618 -12.384,30.511 -12.205,29.647C-11.922,28.276 -11.606,26.91 -11.269,25.551C-10.782,23.587 -10.256,21.633 -9.763,19.67C-9.558,18.855 -9.59,18.868 -10.317,18.362C-11.889,17.266 -13.301,15.985 -14.592,14.571C-15.337,13.753 -15.546,12.816 -15.229,11.753C-14.621,9.723 -13.715,7.825 -12.604,6.033C-11.373,4.047 -10.113,2.074 -8.529,0.335C-8.456,0.255 -8.425,0.136 -8.286,-0.142" style="fill:rgb(35,31,32);fill-rule:nonzero;"/>
            </g>
            <g transform="matrix(4.16667,0,0,4.16667,2185,2527.5)">
                <path d="M0,-30.923C-0.839,-30.599 -1.486,-30.345 -2.137,-30.098C-2.318,-30.028 -2.539,-30.02 -2.682,-29.906C-2.808,-29.807 -2.901,-29.604 -2.908,-29.443C-2.912,-29.36 -2.692,-29.191 -2.575,-29.192C-1.1,-29.2 0.238,-28.593 1.618,-28.221C3.571,-27.694 5.487,-27.028 7.402,-26.374C8.442,-26.02 9.378,-25.446 10.197,-24.706C10.399,-24.525 10.61,-24.332 10.745,-24.103C10.891,-23.854 10.953,-23.555 11.053,-23.277C10.803,-23.203 10.557,-23.086 10.302,-23.063C9.837,-23.02 9.364,-23.062 8.899,-23.015C8.322,-22.956 8.147,-22.582 8.476,-22.134C10.352,-19.571 11.404,-16.67 11.96,-13.578C12.225,-12.104 12.025,-10.629 11.72,-9.173C11.136,-6.396 10.552,-3.619 9.969,-0.842C9.937,-0.69 9.91,-0.536 9.882,-0.384C9.744,0.346 9.524,0.868 8.574,0.911C7.877,0.943 7.197,1.366 6.472,1.629C6.447,1.492 6.409,1.345 6.396,1.195C6.208,-1.13 6.026,-3.456 5.835,-5.781C5.784,-6.392 5.769,-6.4 6.396,-6.479C6.74,-6.522 7.209,-6.483 7.228,-6.914C7.248,-7.385 6.77,-7.317 6.43,-7.361C5.697,-7.457 4.95,-7.508 4.243,-7.703C3.695,-7.854 3.147,-8.125 2.689,-8.464C1.429,-9.396 0.101,-10.188 -1.341,-10.809C-3.12,-11.575 -4.492,-12.947 -6.046,-14.051C-7.324,-14.96 -8.098,-16.157 -8.334,-17.704C-8.346,-17.781 -8.331,-17.882 -8.375,-17.932C-8.542,-18.122 -8.723,-18.439 -8.907,-18.445C-9.232,-18.457 -9.27,-18.106 -9.277,-17.825C-9.326,-16.027 -9.214,-14.246 -8.704,-12.507C-8.607,-12.178 -8.526,-11.845 -8.396,-11.354C-8.717,-11.494 -8.917,-11.563 -9.1,-11.664C-9.883,-12.097 -10.646,-12.571 -11.445,-12.968C-12.059,-13.273 -12.597,-13.657 -12.947,-14.229C-13.721,-15.487 -14.513,-16.742 -15.173,-18.062C-15.941,-19.597 -16,-21.284 -15.917,-22.972C-15.895,-23.422 -15.854,-23.871 -15.917,-24.335C-16.382,-23.799 -16.465,-23.152 -16.49,-22.507C-16.538,-21.3 -16.566,-20.095 -16.197,-18.914C-16.115,-18.652 -16.136,-18.288 -16.255,-18.044C-17.848,-14.795 -20.137,-12.137 -23.111,-10.071C-23.165,-10.034 -23.257,-10.049 -23.47,-10.022C-23.475,-10.794 -23.468,-11.556 -23.489,-12.318C-23.499,-12.689 -23.346,-13.173 -23.785,-13.363C-24.222,-13.552 -24.472,-13.119 -24.755,-12.871C-25.649,-12.087 -26.72,-11.619 -27.795,-11.153C-28.142,-11.003 -28.485,-10.832 -28.8,-10.623C-29.321,-10.277 -29.819,-9.902 -30.478,-9.858C-30.591,-9.85 -30.734,-9.829 -30.808,-9.757C-30.956,-9.611 -31.065,-9.428 -31.191,-9.26C-31.002,-9.162 -30.811,-8.981 -30.624,-8.986C-30.17,-8.998 -29.718,-9.099 -29.214,-9.17C-29.426,-7.444 -29.713,-5.768 -29.815,-4.081C-29.918,-2.378 -29.838,-0.663 -29.838,1.093C-30.615,0.814 -31.295,0.586 -31.96,0.322C-32.121,0.258 -32.279,0.103 -32.365,-0.051C-32.8,-0.833 -33.221,-1.623 -33.627,-2.421C-34.491,-4.119 -34.739,-5.984 -34.984,-7.831C-35.168,-9.215 -35.203,-10.622 -35.244,-12.021C-35.287,-13.526 -34.994,-14.965 -34.178,-16.264C-34.116,-16.361 -34.05,-16.467 -34.029,-16.577C-34.011,-16.678 -34.015,-16.85 -34.072,-16.883C-34.191,-16.953 -34.41,-17.026 -34.485,-16.967C-34.723,-16.78 -34.921,-16.54 -35.121,-16.309C-35.604,-15.75 -36.071,-15.179 -36.561,-14.626C-36.653,-14.522 -36.818,-14.481 -37.115,-14.322C-37.086,-14.829 -37.085,-15.201 -37.04,-15.568C-36.744,-17.954 -35.467,-19.846 -33.941,-21.601C-33.729,-21.845 -33.54,-22.032 -33.547,-22.391C-33.55,-22.603 -33.42,-22.836 -33.298,-23.027C-32.493,-24.285 -31.56,-25.43 -30.276,-26.234C-28.816,-27.149 -27.274,-27.884 -25.61,-28.358C-24.412,-28.699 -23.224,-29.08 -22.035,-29.454C-20.39,-29.972 -18.697,-30.204 -16.984,-30.316C-16.479,-30.349 -16.062,-30.268 -15.885,-29.693C-15.769,-29.312 -15.444,-29.202 -15.152,-29.454C-13.215,-31.118 -10.753,-31.327 -8.425,-31.893C-5.713,-32.552 -3.09,-31.971 -0.486,-31.236C-0.386,-31.208 -0.301,-31.12 0,-30.923" style="fill:rgb(213,125,65);fill-rule:nonzero;"/>
            </g>
            <g transform="matrix(4.16667,0,0,4.16667,2056.93,2531.38)">
                <path d="M0,-9.936C-0.608,-9.061 -1.159,-8.136 -1.605,-7.174C-2.059,-6.195 -2.295,-5.01 -3.143,-4.274C-3.182,-4.239 -3.228,-4.228 -3.273,-4.229C-3.159,-3.932 -3.036,-3.638 -2.89,-3.35C-2.483,-2.552 -2.063,-1.762 -1.628,-0.98C-1.542,-0.827 -1.384,-0.67 -1.223,-0.607C-0.558,-0.343 0.122,-0.115 0.899,0.164C0.899,-1.592 0.819,-3.307 0.922,-5.01C1.024,-6.697 1.312,-8.373 1.523,-10.1C1.02,-10.028 0.567,-9.927 0.113,-9.915C0.076,-9.914 0.038,-9.924 0,-9.936" style="fill:rgb(232,156,80);fill-rule:nonzero;"/>
            </g>
            <g transform="matrix(4.16667,0,0,4.16667,2116.24,2486.08)">
                <path d="M0,-10.936C-0.446,-8.718 -1.12,-6.578 -2.585,-4.749C-2.708,-4.595 -2.913,-4.67 -3.003,-4.815C-3.632,-5.826 -4.185,-6.915 -4.087,-8.097C-5.299,-7.298 -6.496,-6.478 -7.654,-5.602C-9.815,-3.967 -11.873,-2.15 -13.538,0C-13.083,-0.138 -12.696,-0.417 -12.297,-0.683C-11.982,-0.891 -11.639,-1.062 -11.292,-1.212C-10.217,-1.678 -9.146,-2.146 -8.252,-2.93C-7.969,-3.178 -7.719,-3.611 -7.282,-3.422C-6.843,-3.232 -6.996,-2.748 -6.986,-2.376C-6.965,-1.615 -6.972,-0.853 -6.967,-0.081C-6.754,-0.108 -6.662,-0.093 -6.608,-0.13C-3.634,-2.196 -1.344,-4.854 0.248,-8.103C0.367,-8.347 0.388,-8.71 0.306,-8.973C0.104,-9.621 0.025,-10.277 0,-10.936" style="fill:rgb(232,156,80);fill-rule:nonzero;"/>
            </g>
            <g transform="matrix(4.16667,0,0,4.16667,2040.95,2411.85)">
                <path d="M0,20.216C0.224,17.733 1.104,15.344 2.309,13.174C3.347,11.305 4.655,9.59 6.153,8.063C5.22,8.392 4.311,8.793 3.33,8.977C2.375,9.154 1.206,9.017 0.992,7.874C0.826,6.983 1.496,6.026 1.996,5.355C2.722,4.381 3.606,3.501 4.571,2.767C5.241,2.257 6.132,1.606 7.021,1.663C7.177,1.673 7.28,1.846 7.241,1.987C6.913,3.153 6.332,4.222 5.873,5.337C6.452,4.695 7.04,4.063 7.651,3.45C10.003,1.094 12.84,-1.256 16.049,-2.415C14.861,-2.276 13.688,-2.058 12.537,-1.697C11.349,-1.323 10.16,-0.942 8.962,-0.6C7.298,-0.127 5.756,0.609 4.296,1.524C3.013,2.327 2.079,3.472 1.274,4.73C1.152,4.921 1.022,5.154 1.025,5.366C1.032,5.725 0.843,5.912 0.631,6.156C-0.895,7.911 -2.172,9.803 -2.468,12.19C-2.513,12.556 -2.514,12.928 -2.543,13.435C-2.246,13.277 -2.081,13.236 -1.988,13.131C-1.499,12.578 -1.031,12.007 -0.549,11.448C-0.349,11.217 -0.15,10.977 0.087,10.79C0.162,10.732 0.381,10.804 0.5,10.874C0.558,10.907 0.562,11.079 0.543,11.18C0.522,11.29 0.456,11.396 0.395,11.493C-0.422,12.792 -0.715,14.232 -0.672,15.737C-0.631,17.135 -0.596,18.542 -0.412,19.926C-0.292,20.83 -0.171,21.739 0.023,22.631C-0.061,21.829 -0.072,21.021 0,20.216" style="fill:rgb(232,156,80);fill-rule:nonzero;"/>
            </g>
            <g transform="matrix(4.16667,0,0,4.16667,2147.35,2438.98)">
                <path d="M0,7.271C-0.769,6.573 -1.497,5.845 -2.146,5.031C-4.021,2.673 -5.229,-0.105 -6.858,-2.621C-6.854,-2.321 -6.865,-2.023 -6.88,-1.726C-6.963,-0.039 -6.904,1.649 -6.136,3.184C-5.476,4.503 -4.684,5.758 -3.91,7.017C-3.56,7.588 -3.021,7.973 -2.408,8.278C-1.608,8.674 -0.846,9.149 -0.062,9.582C0.12,9.682 0.32,9.752 0.641,9.892C0.511,9.401 0.43,9.067 0.333,8.739C0.19,8.252 0.085,7.762 0,7.271" style="fill:rgb(232,156,80);fill-rule:nonzero;"/>
            </g>
            <g transform="matrix(4.16667,0,0,4.16667,2121.37,2564.99)">
                <path d="M0,-22.447C-0.189,-22.571 -0.325,-22.728 -0.41,-22.704C-0.813,-22.589 -1.231,-22.474 -1.593,-22.269C-2.587,-21.706 -3.465,-20.999 -3.978,-19.946C-4.06,-19.777 -4.034,-19.401 -3.919,-19.32C-3.617,-19.108 -3.596,-19.488 -3.467,-19.641C-3.119,-20.055 -2.818,-20.53 -2.404,-20.863C-1.834,-21.321 -1.176,-21.67 -0.557,-22.068C-0.401,-22.169 -0.25,-22.276 0,-22.447M1.976,1.389C2.605,1.363 3.32,1.144 3.769,0.407C3.813,0.335 3.784,0.199 3.748,0.109C3.731,0.067 3.608,0.035 3.547,0.051C3.398,0.088 3.256,0.15 3.116,0.212C2.14,0.649 1.198,0.895 0.46,-0.208C0.424,-0.262 0.233,-0.282 0.172,-0.238C0.094,-0.182 0.027,-0.04 0.038,0.056C0.123,0.836 0.858,1.385 1.976,1.389M7.388,-14.604C7.517,-14.123 7.578,-13.607 7.79,-13.163C8.099,-12.52 8.793,-12.515 9.192,-13.095C9.721,-13.864 9.557,-15.649 8.898,-16.286C8.483,-16.687 7.982,-16.636 7.767,-16.104C7.58,-15.643 7.516,-15.133 7.388,-14.604M-2.002,-15.883C-2.017,-16.188 -2.014,-16.344 -2.033,-16.499C-2.127,-17.22 -2.464,-17.629 -2.976,-17.654C-3.463,-17.679 -3.835,-17.283 -4.061,-16.605C-4.295,-15.899 -4.126,-15.219 -4.01,-14.533C-3.949,-14.17 -3.801,-13.85 -3.385,-13.784C-2.925,-13.71 -2.621,-13.963 -2.474,-14.353C-2.271,-14.894 -2.129,-15.46 -2.002,-15.883M4.34,-11.063C4.617,-12.068 4.551,-12.427 4.103,-12.977C3.229,-14.049 1.684,-14.268 0.531,-13.462C-0.713,-12.591 -1.082,-11.333 -0.997,-9.884C-0.916,-8.496 0.036,-7.309 1.386,-7.087C2.106,-6.967 2.86,-7.001 3.597,-7.035C4.068,-7.057 4.507,-7.24 4.583,-7.925L3.884,-7.925C3.184,-7.925 2.479,-7.876 1.785,-7.935C0.859,-8.013 0.075,-8.641 -0.05,-9.471C-0.146,-10.113 -0.146,-10.801 -0.025,-11.437C0.152,-12.373 1.077,-13.1 1.952,-13.152C3.006,-13.214 3.675,-12.775 4.11,-11.734C4.169,-11.595 4.209,-11.449 4.34,-11.063M9.97,-5.481C9.477,-5.171 8.966,-4.882 8.492,-4.544C7.187,-3.612 5.806,-2.822 4.292,-2.286C3.25,-1.917 2.202,-1.802 1.086,-2.037C-0.552,-2.382 -1.831,-3.272 -2.988,-4.402C-3.267,-4.674 -3.519,-4.972 -3.8,-5.241C-3.87,-5.307 -4.088,-5.348 -4.101,-5.326C-4.167,-5.204 -4.253,-5.038 -4.217,-4.924C-4.146,-4.709 -4.014,-4.508 -3.88,-4.32C-3.218,-3.388 -2.386,-2.636 -1.408,-2.046C0.038,-1.172 1.613,-0.733 3.28,-1.025C5.467,-1.407 7.393,-2.427 9.095,-3.84C9.438,-4.125 9.684,-4.553 9.897,-4.956C10.042,-5.227 10.03,-5.565 9.97,-5.481M-9.036,-20.962C-9.036,-20.044 -9.021,-19.231 -9.044,-18.42C-9.053,-18.099 -9.121,-17.735 -8.768,-17.62C-8.555,-17.551 -8.192,-17.621 -8.026,-17.771C-6.299,-19.338 -4.265,-20.585 -2.904,-22.533C-2.259,-23.456 -1.721,-24.454 -1.143,-25.423C-0.95,-25.745 -0.782,-26.082 -0.536,-26.536C-0.306,-26.154 -0.153,-25.901 -0.001,-25.647C0.559,-24.712 1.062,-23.736 1.699,-22.856C2.099,-22.305 2.646,-21.821 3.219,-21.447C4.194,-20.811 5.234,-20.273 6.262,-19.72C6.688,-19.491 7.132,-18.991 7.636,-19.348C8.176,-19.73 7.769,-20.278 7.64,-20.741C7.35,-21.781 7.036,-22.813 6.944,-23.926C8.057,-23.018 9.106,-22.174 10.144,-21.313C11.532,-20.16 13.054,-19.242 14.705,-18.502C15.584,-18.107 16.376,-17.511 17.185,-16.972C17.93,-16.476 18.617,-15.884 19.585,-15.867C19.903,-15.861 20.047,-15.666 20.081,-15.338C20.446,-11.816 21.009,-8.291 20.508,-4.75C20.187,-2.481 19.146,-0.594 17.036,0.615C14.442,2.102 11.656,3.068 8.793,3.831C8.059,4.027 7.255,3.991 6.481,4.009C5.391,4.034 4.298,3.983 3.206,4.012C0.359,4.089 -2.368,3.568 -5,2.485C-6.477,1.877 -7.973,1.338 -9.289,0.384C-11.044,-0.887 -12.34,-2.534 -13.226,-4.462C-13.636,-5.354 -13.815,-6.413 -13.854,-7.405C-13.991,-10.948 -13.972,-14.489 -13.232,-17.989C-13.098,-18.632 -12.827,-19.025 -12.243,-19.304C-11.192,-19.806 -10.171,-20.371 -9.036,-20.962" style="fill:rgb(254,220,196);fill-rule:nonzero;"/>
            </g>
            <g transform="matrix(4.16667,0,0,4.16667,2119.05,2557.62)">
                <path d="M0,-20.299C-0.619,-19.901 -1.277,-19.552 -1.848,-19.094C-2.262,-18.761 -2.563,-18.286 -2.91,-17.872C-3.039,-17.719 -3.061,-17.339 -3.362,-17.551C-3.478,-17.632 -3.503,-18.008 -3.421,-18.177C-2.908,-19.23 -2.03,-19.937 -1.036,-20.5C-0.675,-20.705 -0.257,-20.82 0.146,-20.935C0.231,-20.959 0.367,-20.802 0.557,-20.678C0.307,-20.507 0.155,-20.4 0,-20.299M20.638,-13.569C20.604,-13.897 20.46,-14.092 20.142,-14.098C19.174,-14.114 18.486,-14.707 17.741,-15.203C16.933,-15.742 16.141,-16.338 15.262,-16.733C13.61,-17.473 12.089,-18.391 10.7,-19.544C9.663,-20.404 8.613,-21.249 7.501,-22.157C7.593,-21.044 7.906,-20.012 8.196,-18.972C8.325,-18.509 8.732,-17.961 8.192,-17.579C7.688,-17.222 7.245,-17.722 6.818,-17.951C5.791,-18.504 4.751,-19.042 3.775,-19.678C3.203,-20.052 2.655,-20.536 2.256,-21.087C1.619,-21.967 1.115,-22.943 0.556,-23.878C0.403,-24.132 0.251,-24.385 0.021,-24.767C-0.226,-24.313 -0.394,-23.976 -0.586,-23.653C-1.164,-22.685 -1.702,-21.687 -2.348,-20.764C-3.27,-19.443 -4.502,-18.445 -5.738,-17.45C-5.963,-16.554 -6.187,-15.646 -6.234,-14.721C-4.739,-14.757 -3.33,-15.596 -2.141,-16.426C-0.835,-17.336 0.348,-18.403 1.617,-19.359C1.697,-19.419 1.832,-19.414 1.908,-19.349C4.174,-17.399 6.921,-15.948 9.662,-14.778C10.099,-15.422 10.268,-16.185 10.508,-16.919C10.571,-17.113 10.803,-17.07 10.917,-16.96C12.782,-15.156 13.908,-12.787 14.43,-10.266C14.894,-8.022 14.929,-5.702 14.766,-3.423C14.592,-0.985 14.219,1.494 13.288,3.77C13.191,4.006 13.088,4.238 12.979,4.468C14.564,3.899 16.112,3.233 17.593,2.385C19.703,1.175 20.744,-0.712 21.064,-2.981C21.565,-6.522 21.003,-10.047 20.638,-13.569" style="fill:rgb(253,203,165);fill-rule:nonzero;"/>
            </g>
            <g transform="matrix(4.16667,0,0,4.16667,2163.83,2657.87)">
                <path d="M0,-17.821C-0.479,-15.104 -0.641,-12.545 -0.633,-9.976C-0.63,-9.008 -0.504,-8.039 -0.427,-7.071C-0.274,-5.173 -0.125,-3.275 0.045,-1.379C0.072,-1.077 0.229,-0.789 0.284,-0.487C0.403,0.174 0.3,0.363 -0.358,0.485C-0.809,0.568 -1.281,0.556 -1.743,0.548C-2.325,0.538 -2.913,0.425 -3.489,0.471C-6.616,0.719 -9.706,0.303 -12.804,0.004C-13.656,-0.078 -14.512,-0.131 -15.361,-0.229C-15.663,-0.264 -15.965,-0.373 -16.247,-0.494C-16.642,-0.661 -16.826,-0.93 -16.751,-1.415C-16.215,-4.873 -15.716,-8.337 -15.181,-11.795C-15.062,-12.562 -14.847,-13.314 -14.676,-14.073C-14.533,-14.707 -14.484,-15.248 -14.79,-15.944C-15.102,-16.655 -14.859,-17.608 -14.859,-18.54C-13.979,-18.44 -13.193,-18.128 -12.429,-17.817C-12.179,-17.717 -12.03,-17.272 -11.912,-16.956C-11.187,-15.003 -10.134,-13.236 -8.893,-11.573C-8.754,-11.386 -8.637,-11.163 -8.455,-11.033C-7.29,-10.203 -6.917,-10.085 -6.223,-11.287C-5.934,-11.786 -5.533,-12.231 -5.136,-12.657C-4.142,-13.723 -3.361,-14.93 -2.774,-16.256C-2.445,-16.998 -1.964,-17.451 -1.139,-17.539C-0.803,-17.575 -0.476,-17.699 0,-17.821" style="fill:rgb(237,28,36);fill-rule:nonzero;"/>
            </g>
            <g transform="matrix(4.16667,0,0,4.16667,2119.16,2684.69)">
                <path d="M0,0.454C0.232,0.532 0.459,0.635 0.697,0.683C1.397,0.83 1.466,0.898 1.333,1.6C1.225,2.172 1.053,2.732 0.945,3.305C0.83,3.915 0.767,4.535 0.666,5.148C0.575,5.702 0.469,5.792 -0.111,5.766C-2.286,5.673 -4.466,5.696 -6.618,5.233C-8.438,4.841 -8.517,4.808 -8.075,2.967C-7.422,0.244 -6.751,-2.473 -6.085,-5.192C-6.048,-5.343 -5.99,-5.488 -5.948,-5.638C-5.858,-5.957 -5.678,-6.022 -5.339,-5.987C-3.02,-5.749 -0.689,-5.599 1.623,-5.313C4.073,-5.01 6.526,-5.18 8.978,-5.108C9.847,-5.081 9.876,-5.074 10.084,-4.248C10.406,-2.968 10.681,-1.675 10.983,-0.389C11.091,0.065 11.208,0.516 11.343,0.963C11.823,2.555 12.313,4.143 12.816,5.793C12.473,5.897 12.188,6.029 11.892,6.069C9.297,6.421 6.698,6.476 4.093,6.175C3.652,6.124 3.5,5.926 3.485,5.502C3.438,4.142 3.357,2.782 3.307,1.422C3.285,0.846 3.354,0.798 3.971,0.727C4.336,0.686 4.967,0.846 4.944,0.378C4.915,-0.216 4.268,0.072 3.893,0.064C2.804,0.044 1.713,0.07 0.624,0.1C0.416,0.105 0.211,0.209 0.005,0.267C0.003,0.33 0.001,0.392 0,0.454" style="fill:rgb(237,28,36);fill-rule:nonzero;"/>
            </g>
            <g transform="matrix(4.16667,0,0,4.16667,2117.45,2770.47)">
                <path d="M0,-9.415C-0.529,-8.598 -0.964,-7.82 -1.503,-7.124C-2.038,-6.432 -1.997,-5.768 -1.636,-5.056C-1.161,-4.12 -0.674,-3.189 -0.2,-2.253C-0.077,-2.011 0.047,-1.763 0.12,-1.503C0.339,-0.727 0.213,-0.554 -0.571,-0.398C-2.26,-0.064 -3.956,0.159 -5.682,-0.012C-5.953,-0.038 -6.224,-0.065 -6.493,-0.104C-6.898,-0.163 -7.036,-0.399 -7.113,-0.811C-7.271,-1.645 -7.498,-2.473 -7.764,-3.281C-8.078,-4.243 -8.842,-4.875 -9.73,-5.599C-8.938,-5.864 -8.252,-5.874 -7.615,-5.672C-7.011,-5.48 -6.463,-5.109 -5.749,-4.959C-5.845,-5.129 -5.899,-5.36 -6.045,-5.459C-6.636,-5.859 -6.928,-6.349 -6.924,-7.103C-6.921,-7.628 -7.177,-8.155 -7.32,-8.68C-7.475,-9.241 -7.42,-9.341 -6.847,-9.476C-6.695,-9.512 -6.538,-9.537 -6.384,-9.539C-4.553,-9.556 -2.722,-9.573 -0.891,-9.574C-0.631,-9.574 -0.371,-9.484 0,-9.415" style="fill:rgb(36,170,225);fill-rule:nonzero;"/>
            </g>
            <g transform="matrix(4.16667,0,0,4.16667,2085.67,2748.34)">
                <path d="M0,7.468C-1.361,7.468 -2.724,7.499 -4.084,7.459C-5.346,7.422 -6.534,7.098 -7.616,6.407C-8.076,6.114 -8.238,5.742 -8.147,5.229C-8.127,5.114 -8.13,4.988 -8.081,4.887C-7.245,3.172 -6.446,1.432 -4.655,0.446C-3.486,-0.198 -2.95,-0.148 -1.913,0.704C-1.085,1.386 -0.693,2.303 -0.452,3.298C-0.316,3.862 -0.227,4.442 -0.182,5.02C-0.146,5.483 0.056,5.74 0.49,5.838C0.829,5.914 1.168,6.031 1.51,6.043C3.453,6.109 5.399,6.193 7.318,5.751C7.556,5.697 7.877,5.471 7.993,5.886C8.097,6.252 8.001,6.602 7.595,6.741C7.047,6.93 6.497,7.183 5.933,7.236C3.962,7.419 1.983,7.529 0.008,7.666C0.005,7.601 0.003,7.534 0,7.468" style="fill:white;fill-rule:nonzero;"/>
            </g>
            <g transform="matrix(4.16667,0,0,4.16667,2172.63,2753.44)">
                <path d="M0,6.505C-1.957,6.414 -3.593,6.397 -5.217,6.243C-6.213,6.149 -7.197,5.876 -8.173,5.626C-8.88,5.445 -9.209,4.482 -8.796,3.864C-8.729,3.763 -8.45,3.728 -8.299,3.77C-7.398,4.019 -6.512,4.311 -5.613,4.564C-4.979,4.742 -4.339,4.921 -3.689,5.029C-2.912,5.159 -2.765,5.034 -2.493,4.279C-2.204,3.475 -1.939,2.66 -1.612,1.871C-1.323,1.173 -0.862,0.616 -0.126,0.306C0.487,0.047 1.097,0 1.687,0.269C3.679,1.174 5.145,2.611 5.954,4.665C6.23,5.367 6.146,5.559 5.442,5.805C4.932,5.984 4.396,6.14 3.86,6.195C2.47,6.339 1.072,6.422 0,6.505" style="fill:white;fill-rule:nonzero;"/>
            </g>
            <g transform="matrix(4.16667,0,0,4.16667,2165.76,2770.97)">
                <path d="M0,-10.771C-0.133,-10.211 -0.215,-9.876 -0.292,-9.54C-0.562,-8.369 -0.867,-7.203 -1.078,-6.021C-1.167,-5.525 -1.295,-5.22 -1.838,-5.197C-1.983,-5.191 -2.157,-5.126 -2.258,-5.027C-2.35,-4.937 -2.425,-4.745 -2.39,-4.634C-2.354,-4.518 -2.171,-4.357 -2.066,-4.367C-1.565,-4.413 -1.071,-4.524 -0.57,-4.584C-0.041,-4.647 0.493,-4.68 1.078,-4.638C-0.425,-3.695 -0.894,-2.171 -1.385,-0.659C-1.585,-0.042 -1.66,0 -2.313,-0.068C-2.506,-0.087 -2.701,-0.118 -2.886,-0.173C-4.001,-0.514 -5.11,-0.877 -6.23,-1.204C-6.697,-1.339 -6.894,-1.591 -6.748,-2.057C-6.381,-3.23 -6.281,-4.537 -5.136,-5.328C-4.773,-5.578 -4.831,-5.917 -4.936,-6.27C-5.111,-6.866 -5.283,-7.463 -5.447,-8.063C-5.509,-8.287 -5.569,-8.517 -5.582,-8.748C-5.628,-9.611 -5.7,-9.85 -4.66,-9.948C-3.813,-10.028 -2.978,-10.248 -2.136,-10.399C-1.493,-10.515 -0.849,-10.624 0,-10.771" style="fill:rgb(36,170,225);fill-rule:nonzero;"/>
            </g>
            <g transform="matrix(4.16667,0,0,4.16667,2090.69,2582.51)">
                <path d="M0,16.785C-1.341,15.57 -2.487,14.526 -3.642,13.49C-4.558,12.668 -4.826,11.696 -4.326,10.554C-3.701,9.131 -3.175,7.648 -2.401,6.31C-1.274,4.36 0.033,2.514 1.271,0.628C1.395,0.44 1.564,0.283 1.811,0C1.924,1.047 2.096,1.949 2.087,2.85C2.083,3.269 1.771,3.711 1.526,4.097C0.527,5.678 -0.435,7.276 -1.108,9.028C-1.763,10.732 -1.76,10.733 -0.66,12.181C-0.637,12.213 -0.621,12.254 -0.592,12.276C1.021,13.48 0.303,15.004 0,16.785" style="fill:rgb(254,220,196);fill-rule:nonzero;"/>
            </g>
            <g transform="matrix(4.16667,0,0,4.16667,2167.92,2649.26)">
                <path d="M0,-14.781C0.46,-13.979 0.923,-13.177 1.382,-12.375C1.729,-11.768 2.011,-11.113 2.429,-10.561C3.377,-9.307 4.001,-7.894 4.683,-6.494C5.379,-5.061 5.094,-3.894 3.999,-2.932C2.921,-1.987 1.727,-1.17 0.555,-0.338C0.078,0 -0.144,-0.126 -0.214,-0.713C-0.314,-1.561 -0.371,-2.416 -0.461,-3.265C-0.502,-3.659 -0.354,-3.927 -0.032,-4.149C0.479,-4.503 0.992,-4.86 1.465,-5.262C2.002,-5.72 2.054,-5.934 1.748,-6.588C1.057,-8.064 0.329,-9.523 -0.383,-10.99C-0.483,-11.198 -0.671,-11.421 -0.652,-11.622C-0.558,-12.649 -0.572,-13.695 -0.321,-14.701C-0.214,-14.727 -0.107,-14.755 0,-14.781" style="fill:rgb(254,220,196);fill-rule:nonzero;"/>
            </g>
            <g transform="matrix(4.16667,0,0,4.16667,2150.42,2609.2)">
                <path d="M0,-5.533C-0.532,-4.341 -1.052,-3.27 -1.813,-2.33C-2.449,-1.546 -3.077,-0.756 -3.704,0.035C-4.044,0.464 -4.22,0.492 -4.652,0.154C-4.773,0.059 -4.89,-0.05 -4.98,-0.173C-6.156,-1.773 -7.235,-3.432 -7.937,-5.306C-8.16,-5.904 -8.061,-6.025 -7.478,-5.937C-6.94,-5.856 -6.577,-5.626 -6.352,-5.079C-6.026,-4.294 -5.6,-3.549 -5.189,-2.802C-5.062,-2.57 -4.875,-2.353 -4.669,-2.185C-4.252,-1.846 -3.884,-1.917 -3.608,-2.388C-3.434,-2.688 -3.317,-3.022 -3.178,-3.343C-3.054,-3.628 -2.954,-3.925 -2.81,-4.199C-1.954,-5.822 -2.329,-5.829 0,-5.533" style="fill:white;fill-rule:nonzero;"/>
            </g>
            <g transform="matrix(4.16667,0,0,4.16667,2061.24,2544.8)">
                <path d="M0,-0.879C-0.495,-1.023 -0.93,-1.157 -1.369,-1.275C-1.593,-1.334 -1.831,-1.417 -2.05,-1.388C-2.253,-1.361 -2.565,-1.235 -2.605,-1.091C-2.697,-0.764 -2.36,-0.808 -2.152,-0.751C-1.556,-0.588 -0.938,-0.469 -0.377,-0.223C-0.054,-0.081 0.194,0.259 0.438,0.542C0.519,0.636 0.528,0.846 0.489,0.978C0.327,1.532 -0.967,2.484 -1.565,2.516C-2.608,2.57 -3.848,1.501 -3.944,0.379C-4,-0.273 -3.986,-0.949 -3.874,-1.591C-3.64,-2.924 -2.569,-3.449 -1.354,-2.872C-0.555,-2.492 0.076,-1.974 0,-0.879" style="fill:rgb(254,220,196);fill-rule:nonzero;"/>
            </g>
            <g transform="matrix(4.16667,0,0,4.16667,2211.28,2546.44)">
                <path d="M0,-0.622C-0.084,-1.392 0.199,-1.95 0.775,-2.369C1.426,-2.843 2.158,-3.086 2.961,-3.043C3.175,-3.032 3.413,-2.912 3.585,-2.773C4.382,-2.133 4.659,-0.629 4.056,0.185C3.6,0.799 3.048,1.369 2.448,1.844C1.817,2.345 1.055,2.464 0.235,2.233C-0.682,1.976 -0.882,1.701 -0.295,0.996C0.336,0.238 0.972,-0.601 2.051,-0.819C2.24,-0.857 2.437,-0.887 2.614,-0.96C2.701,-0.996 2.805,-1.122 2.804,-1.207C2.803,-1.298 2.696,-1.46 2.624,-1.467C2.323,-1.497 1.986,-1.564 1.722,-1.464C1.149,-1.244 0.614,-0.93 0,-0.622" style="fill:rgb(254,220,196);fill-rule:nonzero;"/>
            </g>
            <g transform="matrix(4.16667,0,0,4.16667,2103.15,2710.69)">
                <path d="M0,3.904C-1.468,3.914 -1.473,3.914 -1.313,2.423C-1.272,2.04 -1.142,1.661 -1.137,1.279C-1.119,-0.01 -0.943,0.074 0.281,0.148C0.783,0.179 1.285,0.226 1.785,0.282C2.065,0.313 2.176,0.486 2.119,0.768C1.967,1.526 1.833,2.288 1.666,3.042C1.484,3.863 1.443,3.883 0.581,3.904C0.388,3.908 0.193,3.904 0,3.904" style="fill:rgb(254,220,196);fill-rule:nonzero;"/>
            </g>
            <g transform="matrix(4.16667,0,0,4.16667,2159.13,2716.79)">
                <path d="M0,1.597C-0.932,1.952 -1.827,2.162 -2.764,2.241C-3.139,2.272 -3.371,2.208 -3.437,1.813C-3.54,1.199 -3.653,0.585 -3.746,-0.03C-3.8,-0.382 -3.709,-0.66 -3.279,-0.661C-2.5,-0.661 -1.719,-0.675 -0.941,-0.629C-0.774,-0.618 -0.535,-0.396 -0.479,-0.223C-0.286,0.359 -0.161,0.963 0,1.597" style="fill:rgb(254,220,196);fill-rule:nonzero;"/>
            </g>
            <g transform="matrix(4.16667,0,0,4.16667,2132.42,2585.81)">
                <path d="M0,2.746C-0.717,1.925 -1.16,1.053 -1.494,0L1.278,0C0.869,0.949 0.629,1.891 0,2.746" style="fill:rgb(254,220,196);fill-rule:nonzero;"/>
            </g>
            <g transform="matrix(4.16667,0,0,4.16667,2162.91,2561.58)">
                <path d="M0,-4.664C0.061,-4.748 0.072,-4.41 -0.072,-4.139C-0.286,-3.736 -0.532,-3.308 -0.875,-3.022C-2.577,-1.61 -4.503,-0.59 -6.689,-0.208C-8.356,0.084 -9.932,-0.354 -11.378,-1.228C-12.355,-1.819 -13.188,-2.571 -13.85,-3.503C-13.983,-3.69 -14.116,-3.892 -14.187,-4.106C-14.223,-4.221 -14.137,-4.387 -14.07,-4.509C-14.058,-4.531 -13.84,-4.49 -13.77,-4.424C-13.488,-4.155 -13.236,-3.856 -12.958,-3.585C-11.801,-2.455 -10.521,-1.564 -8.884,-1.22C-7.768,-0.985 -6.72,-1.1 -5.678,-1.469C-4.164,-2.005 -2.783,-2.795 -1.478,-3.727C-1.004,-4.064 -0.493,-4.353 0,-4.664" style="fill:rgb(35,31,32);fill-rule:nonzero;"/>
            </g>
            <g transform="matrix(4.16667,0,0,4.16667,2139.45,2522.61)">
                <path d="M0,-0.892C-0.131,-1.278 -0.171,-1.424 -0.229,-1.563C-0.665,-2.604 -1.334,-3.042 -2.388,-2.981C-3.263,-2.929 -4.187,-2.202 -4.365,-1.266C-4.486,-0.629 -4.486,0.058 -4.39,0.7C-4.265,1.53 -3.48,2.158 -2.555,2.236C-1.86,2.296 -1.156,2.247 -0.456,2.247L0.243,2.247C0.167,2.931 -0.271,3.114 -0.743,3.136C-1.479,3.17 -2.233,3.205 -2.954,3.085C-4.304,2.862 -5.256,1.675 -5.337,0.287C-5.422,-1.162 -5.053,-2.419 -3.809,-3.29C-2.656,-4.097 -1.111,-3.877 -0.237,-2.806C0.211,-2.256 0.277,-1.897 0,-0.892" style="fill:rgb(35,31,32);fill-rule:nonzero;"/>
            </g>
            <g transform="matrix(4.16667,0,0,4.16667,2113.02,2500.38)">
                <path d="M0,-0.376C-0.127,0.047 -0.269,0.612 -0.472,1.153C-0.619,1.544 -0.923,1.797 -1.383,1.723C-1.799,1.656 -1.947,1.337 -2.008,0.974C-2.124,0.287 -2.293,-0.393 -2.059,-1.099C-1.833,-1.776 -1.461,-2.173 -0.974,-2.147C-0.462,-2.122 -0.125,-1.714 -0.031,-0.992C-0.012,-0.838 -0.015,-0.682 0,-0.376" style="fill:rgb(35,31,32);fill-rule:nonzero;"/>
            </g>
            <g transform="matrix(4.16667,0,0,4.16667,2152.15,2504.16)">
                <path d="M0,-0.006C0.128,-0.534 0.192,-1.045 0.379,-1.506C0.595,-2.038 1.096,-2.089 1.511,-1.688C2.169,-1.051 2.333,0.734 1.805,1.503C1.405,2.083 0.711,2.078 0.402,1.435C0.19,0.991 0.129,0.475 0,-0.006" style="fill:rgb(35,31,32);fill-rule:nonzero;"/>
            </g>
            <g transform="matrix(4.16667,0,0,4.16667,2129.6,2563.81)">
                <path d="M0,1.671C-1.117,1.667 -1.853,1.118 -1.937,0.338C-1.948,0.242 -1.882,0.1 -1.804,0.044C-1.742,0 -1.552,0.02 -1.516,0.074C-0.777,1.177 0.164,0.931 1.141,0.494C1.28,0.432 1.423,0.37 1.571,0.333C1.633,0.317 1.756,0.349 1.772,0.391C1.809,0.481 1.837,0.617 1.793,0.69C1.345,1.426 0.63,1.645 0,1.671" style="fill:rgb(35,31,32);fill-rule:nonzero;"/>
            </g>
            <g transform="matrix(4.16667,0,0,4.16667,2121.37,2484.2)">
                <path d="M0,-3.058C-0.25,-2.887 -0.401,-2.78 -0.557,-2.679C-1.176,-2.281 -1.834,-1.932 -2.404,-1.474C-2.818,-1.141 -3.119,-0.666 -3.467,-0.252C-3.596,-0.099 -3.617,0.281 -3.919,0.069C-4.034,-0.012 -4.06,-0.388 -3.978,-0.557C-3.465,-1.61 -2.587,-2.317 -1.593,-2.88C-1.231,-3.085 -0.813,-3.2 -0.41,-3.315C-0.325,-3.339 -0.189,-3.182 0,-3.058" style="fill:rgb(35,31,32);fill-rule:nonzero;"/>
            </g>
        </g>
    </g>
</svg>
