<?xml version="1.0" encoding="UTF-8" standalone="no"?><!DOCTYPE svg PUBLIC "-//W3C//DTD SVG 1.1//EN" "http://www.w3.org/Graphics/SVG/1.1/DTD/svg11.dtd"><svg width="100%" height="100%" viewBox="0 0 90 80" version="1.1" xmlns="http://www.w3.org/2000/svg" xmlns:xlink="http://www.w3.org/1999/xlink" xml:space="preserve" xmlns:serif="http://www.serif.com/" style="fill-rule:evenodd;clip-rule:evenodd;stroke-linejoin:round;stroke-miterlimit:2;"><g><path d="M43.742,55.276c-1.019,-0.171 -1.955,-0.108 -1.986,-1.461c-0.011,-0.46 0.157,-1.013 0.179,-1.472c0.04,-0.849 0.001,-1.779 -0.436,-2.533c-0.434,-0.748 -1.076,-1.01 -1.872,-1.255c-1.714,-0.53 -3.456,-0.55 -5.129,-1.293c-0.002,-0.001 -0.004,-0.001 -0.006,-0.002c0.082,-0.798 0.141,-1.662 -0.129,-2.235c-0.893,-1.899 -4.555,-1.64 -6.268,-1.635c-1.715,0.004 -2.545,0.566 -2.92,1.649c-2.492,-0.867 -4.964,-1.824 -4.877,-4.934c0.043,-1.573 0.274,-3.027 0.075,-4.599c2.411,-1.886 5.421,-3.041 9.05,-3.031c0.123,0.001 0.214,-0.044 0.287,-0.104c10.43,1.338 15.231,12.83 14.031,22.905" style="fill:#1375bc;fill-rule:nonzero;"/><path d="M42.629,60.161c-1.814,-0.663 -4.233,-1.03 -4.41,-3.276c-0.096,-1.208 0.335,-2.531 0.005,-3.71c-0.413,-1.472 -2.353,-2.638 -3.897,-2.737c0.019,-0.658 0.038,-1.316 0.057,-1.974c0.005,-0.164 0.021,-0.351 0.04,-0.544c1.088,0.467 2.19,0.735 3.356,0.99c1.209,0.264 2.729,0.395 3.235,1.885c0.278,0.817 0.073,2.016 -0.057,2.801c-0.085,0.504 -0.314,1.044 -0.062,1.521c0.428,0.81 1.897,0.84 2.728,0.982c-0.215,1.4 -0.544,2.763 -0.995,4.062" style="fill:#638595;fill-rule:nonzero;"/><path d="M41.224,63.305c-3.389,-1.884 -6.446,-2.756 -10.273,-3.655c-2.049,-0.482 -4.167,-1.088 -6.121,-1.871c-2.878,-1.154 -3.672,-2 -4.028,-4.934c-0.181,-1.49 -0.049,-3.078 -0.02,-4.588c0.927,0.386 1.83,0.763 2.804,0.85c-1.341,2.669 -0.358,6.967 3.094,7.052c0.45,0.01 0.844,-0.067 1.213,-0.181c0.02,0.018 0.034,0.039 0.059,0.055c1.268,0.791 4.915,2.567 6.108,0.882c0.581,-0.819 0.19,-3.825 0.217,-4.779c0.011,-0.383 0.023,-0.766 0.033,-1.148c1.599,0.705 3.049,1.164 3.211,3.415c0.085,1.194 -0.481,2.758 -0.08,3.92c0.547,1.584 3.429,2.126 4.917,2.572c-0.327,0.838 -0.704,1.644 -1.134,2.41" style="fill:#1375bc;fill-rule:nonzero;"/><path d="M32.25,56.611c-1.146,0.08 -2.419,-0.519 -3.451,-1.068c2.698,-1.88 2.097,-7.536 -1.499,-8.326c-0.074,-0.107 -0.191,-0.186 -0.363,-0.191c-0.557,-0.017 -1.044,0.095 -1.484,0.278c0.036,-1.444 0.02,-2.972 1.971,-3.337c0.826,-0.154 2.563,0.186 3.229,0.291c0.96,0.152 1.647,0.196 2.329,0.964c0.872,0.981 0.562,1.956 0.528,3.242c-0.051,1.923 -0.099,3.846 -0.153,5.77c-0.032,1.155 0.477,2.266 -1.107,2.377" style="fill:#7b8d96;fill-rule:nonzero;"/><path d="M26.716,47.999c0.531,0.665 1.083,1.228 1.381,2.091c0.372,1.08 0.249,2.024 0.092,3.121c-0.024,0.162 0.178,0.271 0.276,0.117c0.827,-1.324 0.634,-3.615 -0.367,-5.033c2.375,1.645 1.959,7.016 -1.418,6.891c-3.755,-0.139 -3.537,-6.77 0.036,-7.187" style="fill:#d1d3d4;fill-rule:nonzero;"/><path d="M19.932,35.85c0.015,1.32 -0.119,2.56 -0.257,3.891c-0.103,0.986 -0.13,1.821 0.331,2.73c0.952,1.875 3.112,2.67 4.987,3.254c0.004,0.001 0.008,-0 0.012,0.001c-0.079,0.479 -0.11,1.025 -0.105,1.647c0.001,0.081 0.035,0.137 0.078,0.181c-0.349,0.218 -0.665,0.481 -0.921,0.805c-1.913,-0.289 -4.159,-1.054 -5.794,-2.019c-1.343,-0.792 -1.728,-1.906 -1.773,-3.366c-0.02,-0.669 0.279,-2.183 -0.082,-2.899c0.956,-1.612 2.13,-3.046 3.524,-4.225" style="fill:#638595;fill-rule:nonzero;"/><path d="M76.803,25.351c-7.009,-0.578 -13.955,-1.802 -20.948,-2.52c10.234,0.228 20.366,1.583 30.553,2.62c-3.204,0.095 -6.38,0.122 -9.605,-0.1" style="fill:#c39a6b;fill-rule:nonzero;"/><path d="M33.918,0.937c3.598,0.058 16.277,-1.17 17.921,3.151c0.022,0.058 0.054,0.105 0.09,0.142c-0.001,0.029 -0.003,0.059 0.006,0.093c1.485,5.729 1.176,12.002 1.183,17.898c-0.818,0.011 -1.634,0.006 -2.452,0.035c-0.133,0.005 -0.201,0.091 -0.235,0.189c-0.108,0.021 -0.201,0.091 -0.187,0.238c0.05,0.522 0.079,1.051 0.162,1.568c0.011,0.067 0.05,0.107 0.094,0.14c0.02,0.131 0.104,0.245 0.279,0.277c0.771,0.141 1.544,0.271 2.315,0.407c-0.009,0.347 -0.017,0.697 0.004,1.043c-10.756,-1.308 -21.673,-2.551 -32.445,-2.277c-0.048,-4.789 -0.193,-9.579 -0.529,-14.358c-0.132,-1.875 0.121,-5.065 -1.06,-6.815c4.854,-1.59 9.776,-1.811 14.854,-1.731" style="fill:#008ed0;fill-rule:nonzero;"/><path d="M53.224,32.955c-0.003,0.192 -0.008,0.387 -0.013,0.58c-0.284,-0.803 -0.584,-1.594 -0.908,-2.364c0.339,-0.011 0.676,-0.029 1.014,-0.051c-0.158,0.584 -0.085,1.226 -0.093,1.835" style="fill:#008ed0;fill-rule:nonzero;"/><path d="M77.744,41.11c2.377,1.609 1.534,7.603 1.635,10.055c0.119,2.912 0.23,5.825 0.351,8.738c-0.26,0.087 -0.519,0.182 -0.778,0.271c-0.087,-0.014 -0.174,-0.028 -0.261,-0.043c-0.24,-0.039 -0.411,0.118 -0.471,0.298c-6.988,2.508 -13.607,6.059 -20.731,8.204c-0.066,0.021 -0.111,0.058 -0.146,0.101c-0.275,-0.462 -0.593,-0.885 -0.954,-1.242c0.001,-0.007 0.004,-0.012 0.005,-0.02c0.033,-0.355 0.059,-0.721 0.088,-1.083c0.127,-0.017 0.255,-0.115 0.272,-0.258c0.082,-0.682 -0.001,-1.401 -0.107,-2.105c0.514,-8.723 0.011,-18.54 -2.372,-27.115c7.815,1.099 15.836,2.185 23.469,4.199" style="fill:#008ed0;fill-rule:nonzero;"/><path d="M54.773,66.49c0.071,-0.094 0.103,-0.217 0.051,-0.366c-0.871,-2.515 -0.444,-4.49 -0.105,-7.034c0.139,-1.045 0.037,-1.963 -0.435,-2.871c0.003,-0.071 -0.025,-0.131 -0.084,-0.169c-0.025,-0.043 -0.037,-0.087 -0.064,-0.131c-0.17,-0.274 -0.55,-0.101 -0.535,0.164c-0.742,0.118 -1.349,0.389 -1.819,0.799c-0.358,-0.037 -0.723,-0.027 -1.079,-0.081c-0.596,-0.091 -1.153,-0.288 -1.704,-0.512c1.59,-11.615 -3.759,-24.881 -15.598,-27.205c2.835,0.288 5.648,0.584 8.337,1.103c3.192,0.616 6.632,1.049 10.029,0.993c3.762,11.043 4.855,24.017 3.837,35.686c-0.261,-0.162 -0.539,-0.284 -0.831,-0.376" style="fill:#1375bc;fill-rule:nonzero;"/><path d="M51.961,66.76c-0.026,0.013 -0.042,0.03 -0.061,0.046c-0.055,0.007 -0.11,0.012 -0.165,0.02c0.06,-0.085 0.084,-0.196 0.042,-0.328c-1.056,-3.311 -1.701,-8.151 2.02,-9.893c0.683,1.756 -0.209,3.563 -0.386,5.366c-0.148,1.505 0.072,2.933 0.537,4.361c-0.611,-0.033 -1.275,0.092 -1.987,0.428" style="fill:#638595;fill-rule:nonzero;"/><path d="M50.185,62.02c-0.798,0.031 -1.639,-0.61 -2.426,-0.376c-0.024,0.008 -0.041,0.025 -0.061,0.039c0.559,-1.574 0.967,-3.226 1.228,-4.919c0.366,0.217 0.749,0.402 1.164,0.517c0.377,0.105 0.779,0.126 1.173,0.165c-0.86,1.156 -1.125,2.858 -1.078,4.574" style="fill:#638595;fill-rule:nonzero;"/><path d="M29.567,28.7c-0.186,-0.004 -0.361,0.013 -0.544,0.014c-0.064,-0.005 -0.123,-0.018 -0.187,-0.022c-0.064,-0.004 -0.117,0.009 -0.163,0.03c-3.066,0.076 -5.764,0.848 -8.086,2.154c0.031,-1.273 0.051,-2.545 0.061,-3.819c3.01,0.863 6.19,1.32 9.395,1.676c-0.122,-0.003 -0.243,-0.009 -0.367,-0.009c-0.036,-0.008 -0.067,-0.023 -0.109,-0.024" style="fill:#1375bc;fill-rule:nonzero;"/><path d="M38.579,28.699c-6.023,-1.189 -12.153,-1.281 -18.18,-2.397c-0.028,-0.011 -0.058,-0.014 -0.089,-0.019c-0.618,-0.115 -1.235,-0.238 -1.85,-0.378c0.048,-0.203 0.009,-0.421 -0.006,-0.636c-0.015,-0.212 -0.032,-0.423 -0.049,-0.634c6.786,1.333 13.758,1.659 20.617,2.495c6.976,0.849 14.144,2.354 21.126,0.95c0.01,-0.002 0.016,-0.009 0.026,-0.012c0.071,0.269 0.095,0.536 0.085,0.822c-6.903,2.526 -14.687,1.19 -21.68,-0.191" style="fill:#a87b50;fill-rule:nonzero;"/><path d="M39.022,26.268c-5.739,-0.69 -11.501,-1.149 -17.239,-1.84c12.326,-0.032 24.7,1.694 36.941,3.05c-6.6,0.729 -13.132,-0.42 -19.702,-1.21" style="fill:#c39a6b;fill-rule:nonzero;"/><path d="M3.395,6.729c-0.048,-0.025 -0.103,-0.042 -0.168,-0.045c-1.437,-0.054 -2.72,-0.749 -2.185,-2.384c0.355,-1.086 1.001,-1.635 1.969,-2.169c0.043,-0.024 0.063,-0.057 0.081,-0.09c5.065,0.257 10.213,-0.414 15.203,0.689c0.056,0.012 0.104,0.009 0.153,0.003c1.399,2.665 0.98,8.144 1.105,10.797c0.161,3.445 0.237,6.891 0.26,10.341c-0.494,0.016 -0.988,0.028 -1.482,0.051c-0.109,0.005 -0.173,0.065 -0.216,0.138c-0.14,-0.011 -0.281,0.068 -0.274,0.252c0.013,0.319 0.024,0.638 0.038,0.957c0.013,0.268 -0.022,0.577 0.138,0.803c0.01,0.063 0.04,0.124 0.118,0.154c0.551,0.212 1.111,0.401 1.677,0.58c-0.014,1.465 -0.036,2.93 -0.07,4.395c-0.002,0.06 0.01,0.112 0.028,0.159c-1.025,0.656 -1.969,1.42 -2.834,2.271c0.312,-9.152 0.259,-18.339 -0.222,-27.485c-0.021,-0.394 -0.625,-0.399 -0.617,0c0.003,0.108 0.003,0.216 0.005,0.324c-4.221,-0.411 -8.516,-0.448 -12.707,0.259" style="fill:#638595;fill-rule:nonzero;"/><path d="M38.62,71.517c0.103,-0.072 0.211,-0.133 0.312,-0.207c7.02,-5.203 9.054,-15.041 7.874,-23.272c-1.098,-7.66 -5.132,-14.802 -11.882,-17.839c16.36,5.035 18.084,33.352 3.696,41.318" style="fill:#6f7784;fill-rule:nonzero;"/><path d="M48.511,66.35c-0.767,-0.509 -1.635,-0.738 -2.523,-0.92c0.625,-1.093 1.16,-2.253 1.606,-3.461c0.011,0.033 0.026,0.066 0.055,0.092c0.383,0.341 1.001,0.381 1.49,0.495c0.362,0.084 0.721,0.186 1.087,0.189c0.114,1.502 0.429,2.952 0.753,3.972c0.038,0.119 0.113,0.195 0.2,0.239c-0.396,0.121 -0.766,0.294 -1.08,0.533c-0.071,0.054 -0.134,0.117 -0.202,0.175c-0.312,-0.543 -0.914,-1.001 -1.386,-1.314" style="fill:#1375bc;fill-rule:nonzero;"/><path d="M48.871,70.884c0.372,-1.327 1.247,-2.894 2.684,-3.292c1.068,-0.297 2.656,0.23 3.549,1.078c0.006,0.034 0.01,0.069 0.028,0.105c0.9,1.846 1.34,3.841 0.912,5.883c-0.57,2.728 -3.23,5.128 -5.759,2.766c-1.765,-1.648 -2.056,-4.248 -1.414,-6.54" style="fill:#666d72;fill-rule:nonzero;"/><path d="M57.895,73.862c-0.061,1.137 -0.342,2.948 -1.188,3.801c-0.614,0.618 -1.336,0.815 -2.09,0.86c0.175,-0.152 0.345,-0.322 0.498,-0.529c1.822,-2.469 1.965,-5.991 0.923,-8.813c-0.237,-1.222 -1.266,-1.994 -2.471,-2.282c0.774,-0.057 1.434,0.169 1.989,0.585c-0.02,0.283 0.21,0.407 0.435,0.382c1.423,1.465 1.998,4.233 1.904,5.996" style="fill:#6f7784;fill-rule:nonzero;"/><path d="M65.417,66.694c2.433,0.403 4.865,0.8 7.273,1.338c0.586,0.131 3.93,0.608 4.307,1.076c1.065,1.319 -0.548,1.702 -1.507,2.261c-2.744,1.597 -5.03,2.513 -8.291,2.086c-2.88,-0.378 -5.696,-1.337 -8.515,-2.017c-0.203,-0.049 -0.307,0.143 -0.254,0.291c-0.145,-0.845 -0.419,-1.71 -0.814,-2.498c0.013,-0.002 0.024,0.001 0.037,-0.003c2.603,-0.68 5.154,-1.579 7.679,-2.568c0.026,0.013 0.051,0.029 0.085,0.034" style="fill:#638595;fill-rule:nonzero;"/><path d="M87.732,63.399c-3.084,2.677 -6.193,3.255 -10.222,2.657c-2.382,-0.353 -4.756,-0.943 -7.109,-1.491c2.826,-1.22 5.638,-2.464 8.463,-3.605c1.515,0.247 3.03,0.493 4.544,0.74c0.759,0.124 1.517,0.247 2.275,0.371c0.131,0.021 0.466,0.04 0.84,0.091c0.106,0.093 0.257,0.128 0.39,0.066c0.732,0.148 1.397,0.456 0.819,1.171" style="fill:#638595;fill-rule:nonzero;"/><path d="M84.64,54.912c1.051,1.475 1.156,4.47 0.62,6.22c-0.338,-0.034 -0.667,-0.068 -0.982,-0.104c0.179,-1.964 0.304,-4.015 0.362,-6.116" style="fill:#666d72;fill-rule:nonzero;"/><path d="M86.635,61.313c-0.224,-0.039 -0.452,-0.073 -0.683,-0.103c0.533,-1.169 0.268,-2.943 0.112,-4.067c-0.133,-0.952 -0.283,-2.612 -1.413,-2.887c0.006,-0.317 0.012,-0.633 0.016,-0.952c2.607,1.27 3.067,5.463 1.968,8.009" style="fill:#6f7784;fill-rule:nonzero;"/><path d="M83.448,60.912c-0.989,-0.162 -1.975,-0.324 -2.963,-0.486c0.082,-0.07 0.134,-0.176 0.126,-0.32c-0.001,-0.011 -0.001,-0.023 -0.002,-0.035c0.006,-0.048 0.005,-0.096 -0.007,-0.14c-0.266,-4.661 -0.488,-9.32 -0.662,-13.984c-0.086,-2.311 0.207,-4.108 -1.755,-5.442c-0.045,-0.055 -0.102,-0.101 -0.188,-0.122c-7.775,-1.967 -15.946,-3.254 -23.917,-4.139c-0.078,-0.267 -0.152,-0.535 -0.233,-0.799c0.051,-0.826 0.019,-1.666 0.017,-2.49c-0.001,-0.621 0.081,-1.272 -0.082,-1.864c2.362,-0.185 4.675,-0.64 6.837,-1.479c0.287,-0.111 0.324,-0.434 0.203,-0.635c0.047,-0.542 -0.125,-1.115 -0.387,-1.577c0.031,-0.179 -0.07,-0.401 -0.306,-0.429c-2.063,-0.246 -4.136,-0.499 -6.215,-0.753c0.04,-0.327 0.043,-0.66 0.043,-0.992c5.4,0.937 10.823,1.748 16.272,2.329c3.201,0.341 6.551,0.724 9.888,0.813c3.333,10.121 4.306,21.929 3.33,32.544" style="fill:#1375bc;fill-rule:nonzero;"/><path d="M70.229,26.734c-6.446,-0.687 -12.858,-1.687 -19.237,-2.838c-0.022,-0.004 -0.04,0.002 -0.061,0.001c-0.027,-0.284 -0.061,-0.568 -0.1,-0.851c8.665,0.983 17.28,2.447 25.972,3.178c4.017,0.284 8.148,0.474 12.147,-0.107c0.072,-0.011 0.124,-0.044 0.167,-0.085c0.049,0.242 0.061,0.488 0.048,0.75c-0.025,0.002 -0.048,-0.004 -0.075,0.003c-6.061,1.425 -12.746,0.602 -18.861,-0.051" style="fill:#a87b50;fill-rule:nonzero;"/><path d="M37.958,68.615c-6.113,4.799 -15.343,3.871 -20.503,-1.858c-9.825,-10.909 -5.347,-34.791 11.236,-35.2c0.03,-0.005 0.058,-0.015 0.094,-0.012c0.024,0.002 0.046,0.007 0.07,0.007c0.191,-0.002 0.374,-0.018 0.569,-0.015c0.127,0.002 0.222,0.052 0.296,0.118c8.568,1.069 13.612,8.547 14.811,16.794c1.032,7.098 -0.668,15.531 -6.573,20.166m-8.077,-39.1c-0.075,0.074 -0.176,0.124 -0.314,0.123c-10.243,-0.074 -16.624,7.956 -18.14,17.519c-1.216,7.674 0.416,16.8 6.344,22.261c6.545,6.032 17.363,5.393 23.176,-1.311c9.987,-11.519 5.757,-36.52 -11.066,-38.592" style="fill:#666d72;fill-rule:nonzero;"/><path d="M51.568,74.151c-0.403,-0.353 -0.431,-1.241 -0.332,-1.731c0.067,-0.331 0.187,-0.614 0.495,-0.783c0.201,-0.11 0.373,-0.104 0.553,-0.07c0.188,0.486 0.235,0.974 0.248,1.497c0.012,0.536 -0.13,1.816 -0.964,1.087" style="fill:#d1d3d4;fill-rule:nonzero;"/><g opacity="0.2"><path d="M39.496,47.832c0.107,-0.387 0.195,-0.774 0.229,-1.175c0.022,-0.26 0.059,-0.576 -0.069,-0.816c-0.101,-0.193 -0.299,-0.322 -0.462,-0.456c-0.281,-0.231 -0.538,-0.487 -0.812,-0.724c-0.174,-0.151 -0.37,-0.301 -0.492,-0.5c-0.109,-0.177 -0.126,-0.386 -0.12,-0.589c0.014,-0.399 0.077,-0.801 0.123,-1.197c0.057,-0.48 0.142,-0.967 0.091,-1.451c-0.087,-0.835 -0.581,-1.496 -1.216,-2.007c-0.652,-0.524 -1.4,-0.921 -2.121,-1.343c-0.337,-0.197 -0.673,-0.398 -0.992,-0.624c-0.393,-0.278 -0.773,-0.551 -1.223,-0.734c-1.706,-0.696 -3.55,-0.114 -5.25,0.361c-0.016,0.008 -0.031,0.015 -0.047,0.022c-0.63,0.291 -1.249,0.608 -1.851,0.952c-0.325,0.184 -0.645,0.378 -0.952,0.592c-0.223,0.156 -0.463,0.327 -0.63,0.545c-0.176,0.229 -0.107,0.516 0.083,0.708c0.26,0.265 0.664,0.391 1.02,0.484c0.536,0.14 1.091,0.207 1.643,0.254c0.669,0.057 1.34,0.08 2.012,0.089c1.38,0.018 2.76,-0.028 4.139,-0.059c0.536,-0.013 1.072,-0.025 1.608,-0.018c0.332,0.006 0.684,0.002 1.009,0.082c0.056,0.014 0.079,0.071 0.07,0.124c-0.105,0.605 -0.432,1.151 -0.795,1.636c-0.491,0.655 -1.067,1.232 -1.638,1.814c0.679,0.245 1.23,0.628 1.51,1.223c0.27,0.574 0.212,1.437 0.129,2.236c0.003,0.001 0.004,0.001 0.006,0.002c1.567,0.696 3.195,0.762 4.803,1.203c0.071,-0.212 0.136,-0.425 0.195,-0.634" style="fill:#fff;fill-rule:nonzero;"/></g><g opacity="0.5"><path d="M25.476,48.878c0.249,0.082 0.488,0.198 0.554,0.476c0.155,0.656 -0.517,1.453 0.152,1.957c0.137,0.103 0.293,0.181 0.446,0.257c0.2,0.098 0.401,0.2 0.605,0.288c0.339,0.145 0.812,0.266 0.836,0.712c0.023,0.42 -0.375,0.884 0.003,1.244c0.161,0.153 0.395,0.216 0.594,0.303c0.053,0.023 0.11,0.037 0.164,0.059c1.231,-1.61 0.972,-4.698 -0.732,-5.879c1.001,1.418 1.194,3.709 0.366,5.033c-0.097,0.154 -0.299,0.045 -0.276,-0.117c0.158,-1.097 0.281,-2.041 -0.091,-3.121c-0.298,-0.863 -0.85,-1.426 -1.381,-2.091c-0.638,0.074 -1.164,0.353 -1.584,0.751c0.114,0.043 0.225,0.088 0.344,0.128" style="fill:#fff;fill-rule:nonzero;"/></g><g opacity="0.2"><path d="M20.462,8.769c0.478,0.604 0.911,1.241 1.401,1.834c0.426,0.515 0.935,1.111 1.59,1.33c0.659,0.219 1.298,0.079 1.835,-0.349c0.521,-0.415 0.91,-0.969 1.329,-1.479c0.193,-0.235 0.393,-0.466 0.625,-0.664c0.265,-0.228 0.569,-0.506 0.918,-0.594c0.211,-0.053 0.403,0.005 0.578,0.128c0.241,0.17 0.451,0.377 0.703,0.533c0.652,0.406 1.431,0.623 2.164,0.31c0.629,-0.271 1.117,-0.795 1.596,-1.267c0.51,-0.501 1.071,-1.065 1.751,-1.325c0.511,-0.196 0.914,0.101 1.395,0.236c0.419,0.119 0.876,0.156 1.305,0.076c0.446,-0.083 0.86,-0.273 1.259,-0.482c0.415,-0.217 0.818,-0.457 1.246,-0.649c0.476,-0.214 0.982,-0.367 1.497,-0.456c2.066,-0.36 4.103,0.331 5.974,1.148c0.489,0.214 0.973,0.44 1.457,0.665c0.258,0.121 0.503,0.246 0.736,0.412c0.479,0.341 0.903,0.758 1.295,1.195c0.732,0.815 1.378,1.727 1.904,2.696c-0.141,-2.634 -0.436,-5.241 -1.085,-7.744c-0.009,-0.034 -0.007,-0.064 -0.006,-0.093c-0.036,-0.037 -0.068,-0.084 -0.09,-0.142c-1.644,-4.321 -14.323,-3.093 -17.921,-3.151c-5.078,-0.08 -9.999,0.141 -14.853,1.731c0.967,1.434 0.972,3.824 1.015,5.675c0.129,0.141 0.263,0.277 0.382,0.426" style="fill:#fff;fill-rule:nonzero;"/></g><g opacity="0.2"><path d="M63.928,42.697c0.564,-0.21 1.154,-0.346 1.719,-0.556c0.445,-0.166 0.909,-0.399 1.174,-0.807c-0.784,-0.299 -1.592,-0.532 -2.412,-0.707c-1.633,-0.352 -3.303,-0.513 -4.97,-0.597c-1.47,-0.074 -2.942,-0.081 -4.414,-0.082c0.41,1.853 0.731,3.751 0.993,5.668c0.471,-0.14 0.964,-0.216 1.449,-0.269c1.315,-0.142 2.644,-0.171 3.952,-0.384c0.571,-0.094 1.154,-0.216 1.683,-0.455c0.376,-0.17 0.725,-0.414 0.942,-0.768c-0.148,-0.037 -0.292,-0.098 -0.424,-0.166c-0.176,-0.092 -0.343,-0.2 -0.52,-0.29c-0.072,-0.037 -0.057,-0.133 0,-0.173c0.252,-0.181 0.538,-0.307 0.828,-0.414" style="fill:#fff;fill-rule:nonzero;"/></g><g opacity="0.2"><path d="M76.898,50.93c-0.13,-0.316 -0.272,-0.637 -0.449,-0.93c-0.283,-0.466 -0.68,-0.84 -1.184,-1.054c-0.489,-0.208 -1.027,-0.278 -1.55,-0.341c-0.653,-0.078 -1.317,-0.131 -1.951,-0.316c-0.682,-0.198 -1.324,-0.508 -2.006,-0.708c-0.351,-0.102 -0.71,-0.173 -1.075,-0.186c-0.335,-0.013 -0.673,0.024 -1.005,0.068c-0.677,0.089 -1.35,0.243 -1.998,0.459c-0.374,0.124 -0.742,0.284 -1.096,0.471c-0.004,0.009 0.001,0.016 -0.006,0.026c-0.162,0.215 -0.33,0.424 -0.506,0.627c-0.66,0.768 -1.417,1.445 -2.082,2.206c-0.662,0.759 -1.174,1.617 -1.391,2.61c-0.107,0.487 -0.135,0.986 -0.159,1.483c-0.023,0.483 -0.031,0.968 -0.017,1.452c0.016,0.529 0.057,1.058 0.149,1.578c0.085,0.472 0.207,0.949 0.433,1.373c0.162,0.306 0.404,0.628 0.753,0.729c0.275,0.079 0.546,-0.028 0.773,-0.182c0.303,-0.203 0.552,-0.485 0.782,-0.765c0.275,-0.335 0.525,-0.691 0.776,-1.044c0.25,-0.352 0.5,-0.705 0.771,-1.042c0.232,-0.286 0.487,-0.586 0.804,-0.782c1.131,-0.693 2.413,-1.177 3.744,-1.27c0.335,-0.024 0.672,-0.022 1.007,0.009c0.336,0.031 0.66,0.103 0.986,0.187c0.664,0.171 1.317,0.378 1.975,0.571c1.286,0.376 2.608,0.683 3.956,0.54c0.02,-0.136 0.04,-0.271 0.056,-0.408c0.17,-1.441 0.164,-2.952 -0.175,-4.37c-0.08,-0.337 -0.182,-0.671 -0.315,-0.991" style="fill:#fff;fill-rule:nonzero;"/></g><g opacity="0.2"><path d="M49.721,33.701c-0.421,0.015 -0.892,0.037 -1.279,0.222c-0.123,0.059 -0.255,0.143 -0.312,0.272c-0.059,0.131 -0.021,0.3 0.021,0.431c0.137,0.43 0.448,0.81 0.731,1.153c0.36,0.436 0.75,0.848 1.128,1.268c0.332,0.369 0.672,0.744 0.935,1.168c0.234,0.378 0.32,0.8 0.264,1.245c-0.05,0.391 -0.242,0.719 -0.521,0.992c-0.189,0.186 -0.468,0.362 -0.556,0.625c-0.129,0.389 0.248,0.83 0.472,1.101c0.46,0.557 0.927,1.099 1.319,1.71c0.671,1.045 1.085,2.202 1.325,3.417c0.209,1.057 0.321,2.13 0.453,3.199c0.111,0.893 0.234,1.837 0.611,2.664c0.146,0.321 0.346,0.659 0.665,0.835c0.282,0.154 0.594,0.111 0.879,-0.004c-0.318,-6.877 -1.371,-13.796 -3.26,-20.186c-0.958,-0.041 -1.914,-0.146 -2.875,-0.112" style="fill:#fff;fill-rule:nonzero;"/></g><g opacity="0.2"><path d="M5.053,3.783c2.756,-0.024 5.514,-0.096 8.27,0c1.332,0.046 2.66,0.14 3.986,0.275c0.452,0.047 0.908,0.111 1.327,0.295c0.172,0.076 0.314,0.191 0.456,0.306c-0.154,-0.726 -0.36,-1.386 -0.644,-1.926c-0.048,0.006 -0.097,0.009 -0.152,-0.003c-4.991,-1.102 -10.139,-0.431 -15.203,-0.689c-0.019,0.033 -0.039,0.066 -0.082,0.091c-0.786,0.432 -1.35,0.893 -1.728,1.627c1.257,0.029 2.514,0.035 3.77,0.024" style="fill:#fff;fill-rule:nonzero;"/></g><g opacity="0.2"><path d="M19.553,13.53c-0.034,-0.712 -0.028,-1.634 -0.03,-2.644c-0.23,0.373 -0.431,0.762 -0.561,1.183c-0.163,0.526 -0.241,1.073 -0.267,1.622c-0.05,1.034 0.063,2.068 0.106,3.101c0.02,0.476 0.017,0.945 -0.014,1.421c-0.028,0.446 -0.062,0.891 -0.089,1.338c-0.061,0.96 -0.103,1.927 -0.038,2.889c0.033,0.486 0.098,0.984 0.221,1.463c0.311,-0.011 0.622,-0.021 0.932,-0.032c-0.023,-3.449 -0.098,-6.896 -0.26,-10.341" style="fill:#fff;fill-rule:nonzero;"/></g><g opacity="0.2"><path d="M79.021,31.013c-0.971,-0.392 -2.058,-0.544 -3.093,-0.649c-1.171,-0.119 -2.353,-0.142 -3.53,-0.09c-1.074,0.049 -2.165,0.147 -3.215,0.386c-0.548,0.125 -1.079,0.358 -1.588,0.591c-0.624,0.287 -1.245,0.611 -1.799,1.02c-0.244,0.179 -0.834,0.61 -0.68,0.967c0.086,0.197 0.351,0.286 0.538,0.342c0.413,0.126 0.832,0.16 1.262,0.129c0.514,-0.035 1.024,-0.118 1.538,-0.156c0.483,-0.035 0.996,-0.046 1.459,0.115c0.45,0.157 0.81,0.494 0.918,0.969c0.112,0.49 0.001,1.004 -0.013,1.5c0.135,0.052 0.27,0.101 0.409,0.139c0.778,0.213 1.598,0.25 2.4,0.274c0.862,0.027 1.726,0.023 2.585,0.091c0.758,0.06 1.538,0.17 2.231,0.498c0.307,0.145 0.569,0.34 0.815,0.57c0.286,0.267 0.408,0.688 0.506,1.054c0.11,0.406 0.218,0.806 0.35,1.206c0.193,0.59 0.4,1.174 0.605,1.759c0.409,1.169 0.786,2.34 1.052,3.551c0.269,1.228 0.45,2.472 0.672,3.71c0.112,0.616 0.233,1.231 0.381,1.84c0.136,0.563 0.292,1.12 0.414,1.686c0.197,0.916 0.351,1.845 0.516,2.77c0.201,-7.629 -0.562,-15.587 -2.466,-22.915c-0.692,-0.55 -1.456,-1.031 -2.267,-1.357" style="fill:#fff;fill-rule:nonzero;"/></g><path d="M29.568,28.7c-19.572,-0.391 -24.858,27.244 -13.869,39.957c5.723,6.62 16.146,7.905 23.234,2.653c7.019,-5.202 9.053,-15.041 7.874,-23.271c-1.397,-9.74 -7.519,-18.677 -17.97,-19.347c-0.456,-0.029 -0.454,0.68 -0,0.709c17.696,1.135 22.302,26.95 12.11,38.706c-5.813,6.704 -16.63,7.343 -23.176,1.312c-5.928,-5.462 -7.559,-14.588 -6.344,-22.262c1.516,-9.563 7.897,-17.593 18.141,-17.519c0.604,0.005 0.604,-0.925 -0,-0.938" style="fill:#231f20;fill-rule:nonzero;"/><path d="M29.479,74.567c26.925,0.797 25.837,-45.974 0.062,-45.846c-0.457,0.002 -0.457,0.711 0,0.708c24.641,-0.122 25.649,44.919 -0.062,44.167c-0.625,-0.018 -0.625,0.952 0,0.971" style="fill:#231f20;fill-rule:nonzero;"/><path d="M29.424,31.537c-17.19,-0.297 -21.939,24.151 -11.969,35.22c5.16,5.729 14.39,6.657 20.503,1.858c5.905,-4.635 7.605,-13.068 6.573,-20.166c-1.243,-8.547 -6.602,-16.287 -15.746,-16.904c-0.455,-0.031 -0.453,0.678 -0,0.709c19.856,1.34 20.564,38.496 -0.111,38.489c-20.992,-0.006 -20.251,-38.325 0.75,-38.268c0.604,0.002 0.604,-0.927 -0,-0.938" style="fill:#231f20;fill-rule:nonzero;"/><path d="M26.936,47.026c-5.079,-0.149 -5.309,9.007 -0.256,9.132c5.136,0.127 4.978,-8.632 0.123,-9.04c-0.454,-0.038 -0.452,0.671 0,0.709c3.736,0.314 3.776,7.503 -0.123,7.358c-3.834,-0.141 -3.536,-7.068 0.256,-7.221c0.603,-0.024 0.606,-0.92 0,-0.938" style="fill:#231f20;fill-rule:nonzero;"/><path d="M32.845,32.907c-2.435,4.605 -4.549,9.424 -5.99,14.438c-0.125,0.433 0.528,0.605 0.671,0.184c1.673,-4.907 3.493,-9.687 5.806,-14.337c0.161,-0.323 -0.316,-0.608 -0.487,-0.285" style="fill:#231f20;fill-rule:nonzero;"/><path d="M23.932,70.416c0.635,-2.534 0.71,-5.244 1.085,-7.83c0.331,-2.271 0.82,-4.52 1.077,-6.799c0.032,-0.282 -0.409,-0.324 -0.483,-0.065c-1.247,4.357 -2.252,10.16 -1.827,14.674c0.007,0.08 0.126,0.108 0.148,0.02" style="fill:#231f20;fill-rule:nonzero;"/><path d="M20.669,35.115c0.923,4.63 1.459,9.412 3.483,13.726c0.176,0.374 0.73,0.047 0.556,-0.326c-2.021,-4.307 -2.285,-9.008 -3.59,-13.524c-0.084,-0.291 -0.508,-0.168 -0.449,0.124" style="fill:#231f20;fill-rule:nonzero;"/><path d="M42.939,43.804c-4.639,1.078 -9.624,2.836 -13.518,5.642c-0.374,0.269 -0.051,0.859 0.368,0.629c4.339,-2.383 8.602,-4.151 13.338,-5.587c0.437,-0.133 0.257,-0.788 -0.188,-0.684" style="fill:#231f20;fill-rule:nonzero;"/><path d="M43.808,56.941c-4.504,-1.52 -9.291,-1.766 -13.771,-3.426c-0.568,-0.21 -0.795,0.681 -0.248,0.899c4.412,1.758 9.285,2.305 13.964,2.933c0.242,0.033 0.263,-0.336 0.055,-0.406" style="fill:#231f20;fill-rule:nonzero;"/><path d="M13.1,47.046c2.906,2.646 6.467,4.183 10.361,4.612c0.511,0.057 0.509,-0.746 0,-0.799c-3.792,-0.402 -7.013,-1.99 -10.075,-4.184c-0.218,-0.156 -0.483,0.192 -0.286,0.371" style="fill:#231f20;fill-rule:nonzero;"/><path d="M15.417,61.759c2.339,-3.019 5.595,-5.029 8.638,-7.255c0.372,-0.271 0.011,-0.898 -0.364,-0.624c-3.114,2.285 -6.452,4.338 -8.805,7.469c-0.228,0.305 0.296,0.713 0.531,0.41" style="fill:#231f20;fill-rule:nonzero;"/><path d="M36.35,68.537c-2.024,-1.84 -3.677,-3.854 -4.886,-6.327c-1.095,-2.241 -1.561,-4.67 -2.556,-6.925c-0.149,-0.339 -0.724,-0.17 -0.697,0.189c0.361,4.832 3.569,11.011 7.749,13.568c0.308,0.187 0.664,-0.257 0.39,-0.505" style="fill:#231f20;fill-rule:nonzero;"/><path d="M28.465,53.328c1.086,-1.737 0.42,-5.145 -1.532,-6.051c-0.257,-0.119 -0.652,0.154 -0.44,0.441c0.593,0.801 1.265,1.386 1.604,2.372c0.373,1.08 0.25,2.024 0.092,3.121c-0.023,0.162 0.179,0.271 0.276,0.117" style="fill:#231f20;fill-rule:nonzero;"/><path d="M2.897,2.034c5.127,0.286 10.344,-0.42 15.398,0.696c0.54,0.119 0.77,-0.712 0.229,-0.829c-5.019,-1.09 -10.543,-0.788 -15.627,-0.372c-0.322,0.026 -0.328,0.486 0,0.505" style="fill:#231f20;fill-rule:nonzero;"/><path d="M19.814,26.677c-0.014,1.509 -0.037,3.017 -0.072,4.524c-0.012,0.541 0.826,0.54 0.84,-0c0.039,-1.507 0.064,-3.015 0.072,-4.524c0.003,-0.541 -0.835,-0.541 -0.84,-0" style="fill:#231f20;fill-rule:nonzero;"/><path d="M18.15,2.248c1.755,2.422 1.27,8.457 1.403,11.282c0.164,3.51 0.241,7.02 0.263,10.533c0.003,0.54 0.845,0.542 0.84,-0c-0.045,-4.863 -0.191,-9.727 -0.532,-14.58c-0.151,-2.145 0.204,-6.012 -1.664,-7.473c-0.159,-0.124 -0.454,0.039 -0.31,0.238" style="fill:#231f20;fill-rule:nonzero;"/><path d="M2.893,1.697c-1.476,-0.166 -2.633,1.878 -2.751,3.132c-0.169,1.787 1.543,2.609 3.085,2.61c0.487,0 0.484,-0.736 0,-0.755c-1.438,-0.053 -2.72,-0.749 -2.185,-2.383c0.355,-1.086 1.001,-1.636 1.969,-2.169c0.22,-0.123 0.094,-0.411 -0.118,-0.435" style="fill:#231f20;fill-rule:nonzero;"/><path d="M3.382,7.402c4.322,-0.273 8.55,-0.412 12.87,0.007c0.593,0.056 0.588,-0.867 0,-0.926c-4.303,-0.428 -8.686,-0.473 -12.959,0.262c-0.37,0.063 -0.286,0.68 0.089,0.657" style="fill:#231f20;fill-rule:nonzero;"/><path d="M16.097,6.146c0.19,9.355 0.194,18.682 -0.048,28.036c-0.014,0.563 0.853,0.561 0.873,0c0.333,-9.334 0.282,-18.707 -0.208,-28.036c-0.021,-0.394 -0.625,-0.399 -0.617,0" style="fill:#231f20;fill-rule:nonzero;"/><path d="M18.281,24.613c6.826,1.353 13.84,1.676 20.741,2.517c6.976,0.849 14.144,2.354 21.126,0.95c0.487,-0.099 0.27,-0.804 -0.203,-0.735c-7.017,1.034 -13.948,-0.238 -20.923,-1.077c-6.853,-0.824 -13.74,-1.296 -20.575,-2.257c-0.386,-0.053 -0.567,0.522 -0.166,0.602" style="fill:#231f20;fill-rule:nonzero;"/><path d="M18.135,26.226c7.305,2.813 15.958,2.484 23.603,3.961c6.064,1.171 13.022,1.696 18.882,-0.575c0.473,-0.184 0.273,-0.954 -0.213,-0.773c-6.939,2.6 -14.786,1.25 -21.828,-0.14c-6.745,-1.332 -13.625,-1.278 -20.343,-2.84c-0.243,-0.056 -0.327,0.28 -0.101,0.367" style="fill:#231f20;fill-rule:nonzero;"/><path d="M18.331,24.48c13.936,-0.431 27.958,1.655 41.798,3.153c0.426,0.046 0.418,-0.613 0,-0.663c-13.77,-1.635 -27.923,-3.694 -41.798,-3.048c-0.357,0.017 -0.36,0.569 0,0.558" style="fill:#231f20;fill-rule:nonzero;"/><path d="M59.937,27.492c0.377,0.63 0.35,1.187 0.291,1.886c-0.027,0.307 0.407,0.318 0.502,0.068c0.268,-0.705 0.018,-1.591 -0.374,-2.199c-0.168,-0.261 -0.581,-0.025 -0.419,0.245" style="fill:#231f20;fill-rule:nonzero;"/><path d="M76.803,26.225c4.017,0.284 8.148,0.474 12.147,-0.107c0.426,-0.063 0.323,-0.764 -0.101,-0.748c-4.041,0.152 -8.004,0.26 -12.046,-0.018c-0.561,-0.039 -0.558,0.833 -0,0.873" style="fill:#231f20;fill-rule:nonzero;"/><path d="M50.658,23.025c8.723,0.983 17.395,2.463 26.145,3.199c0.559,0.047 0.557,-0.827 0,-0.873c-8.743,-0.721 -17.384,-2.461 -26.145,-2.95c-0.408,-0.022 -0.39,0.58 0,0.624" style="fill:#231f20;fill-rule:nonzero;"/><path d="M50.78,24.669c6.448,1.179 12.931,2.19 19.45,2.887c6.192,0.66 12.939,1.499 19.074,0.001c0.5,-0.122 0.289,-0.89 -0.213,-0.772c-6.061,1.425 -12.747,0.603 -18.861,-0.05c-6.446,-0.688 -12.859,-1.688 -19.237,-2.838c-0.504,-0.091 -0.72,0.679 -0.213,0.772" style="fill:#231f20;fill-rule:nonzero;"/><path d="M50.666,22.814c12.852,-0.248 25.501,1.676 38.259,2.891c0.426,0.041 0.42,-0.619 0,-0.662c-12.715,-1.347 -25.44,-3.253 -38.259,-2.787c-0.357,0.013 -0.36,0.565 0,0.558" style="fill:#231f20;fill-rule:nonzero;"/><path d="M88.883,25.407c0.344,0.576 0.308,1.076 0.262,1.715c-0.022,0.31 0.405,0.316 0.503,0.068c0.254,-0.644 0.013,-1.472 -0.346,-2.028c-0.169,-0.262 -0.581,-0.026 -0.419,0.245" style="fill:#231f20;fill-rule:nonzero;"/><path d="M18.845,2.735c4.925,-1.657 9.919,-1.88 15.074,-1.797c3.598,0.057 16.277,-1.171 17.921,3.151c0.172,0.452 0.904,0.26 0.734,-0.203c-1.627,-4.422 -8.428,-3.463 -12.147,-3.563c-7.331,-0.197 -14.746,-0.772 -21.774,1.716c-0.433,0.153 -0.251,0.845 0.192,0.696" style="fill:#231f20;fill-rule:nonzero;"/><path d="M53.1,24.839c-0.006,0.461 -0.038,0.929 0,1.389c0.045,0.53 0.751,0.514 0.814,-0c0.056,-0.458 0.04,-0.928 0.046,-1.389c0.007,-0.554 -0.853,-0.554 -0.86,-0" style="fill:#231f20;fill-rule:nonzero;"/><path d="M51.935,4.323c1.5,5.789 1.169,12.133 1.182,18.081c0.002,0.554 0.861,0.555 0.86,0c-0.013,-5.98 0.182,-12.434 -1.504,-18.229c-0.1,-0.345 -0.628,-0.201 -0.538,0.148" style="fill:#231f20;fill-rule:nonzero;"/><path d="M17.842,24.312c0.013,0.319 0.023,0.638 0.038,0.957c0.012,0.271 -0.024,0.584 0.141,0.811c0.092,0.126 0.287,0.152 0.374,0c0.142,-0.25 0.079,-0.533 0.059,-0.811c-0.023,-0.319 -0.05,-0.638 -0.074,-0.957c-0.026,-0.341 -0.552,-0.35 -0.538,0" style="fill:#231f20;fill-rule:nonzero;"/><path d="M50.244,22.684c0.05,0.521 0.079,1.051 0.162,1.568c0.049,0.313 0.573,0.241 0.554,-0.075c-0.03,-0.498 -0.116,-0.998 -0.178,-1.493c-0.041,-0.337 -0.572,-0.349 -0.538,-0" style="fill:#231f20;fill-rule:nonzero;"/><path d="M51.76,31.158c3.833,11.238 4.905,24.483 3.794,36.314c-0.05,0.539 0.791,0.536 0.84,0c1.058,-11.525 0.417,-25.736 -4.172,-36.508c-0.112,-0.262 -0.554,-0.076 -0.462,0.194" style="fill:#231f20;fill-rule:nonzero;"/><path d="M79.987,27.96c3.46,10.264 4.461,22.324 3.446,33.125c-0.05,0.538 0.791,0.535 0.84,-0c0.964,-10.504 0.393,-23.52 -3.824,-33.32c-0.113,-0.262 -0.553,-0.076 -0.462,0.195" style="fill:#231f20;fill-rule:nonzero;"/><path d="M53.447,30.739c-0.345,0.674 -0.212,1.472 -0.222,2.216c-0.014,0.972 -0.077,1.966 0.014,2.933c0.035,0.372 0.539,0.37 0.578,0c0.102,-0.966 0.051,-1.961 0.048,-2.933c-0.001,-0.744 0.14,-1.538 -0.197,-2.216c-0.042,-0.084 -0.179,-0.082 -0.221,0" style="fill:#231f20;fill-rule:nonzero;"/><path d="M77.705,41.078c2.43,1.567 1.573,7.62 1.674,10.087c0.122,2.98 0.235,5.961 0.36,8.941c0.023,0.562 0.905,0.561 0.873,0c-0.271,-4.717 -0.494,-9.436 -0.671,-14.159c-0.088,-2.355 0.232,-4.179 -1.855,-5.52c-0.41,-0.264 -0.788,0.389 -0.381,0.651" style="fill:#231f20;fill-rule:nonzero;"/><path d="M53.888,36.857c7.953,1.12 16.132,2.21 23.905,4.266c0.478,0.126 0.683,-0.62 0.204,-0.741c-7.809,-1.975 -16.019,-3.266 -24.024,-4.151c-0.353,-0.039 -0.44,0.575 -0.085,0.626" style="fill:#231f20;fill-rule:nonzero;"/><path d="M56.077,69.366c-0.316,-2.593 -4.105,-3.301 -5.978,-1.877c-2.651,2.017 -2.818,6.341 -1.528,9.138c1.089,2.362 4.724,3.831 6.543,1.367c1.989,-2.693 1.995,-6.653 0.624,-9.573c-0.191,-0.408 -0.805,-0.053 -0.606,0.353c0.9,1.847 1.34,3.842 0.912,5.884c-0.571,2.728 -3.23,5.128 -5.759,2.766c-1.765,-1.649 -2.056,-4.248 -1.414,-6.54c0.372,-1.328 1.247,-2.894 2.684,-3.292c1.359,-0.378 3.58,0.571 4.109,1.83c0.081,0.193 0.445,0.204 0.413,-0.056" style="fill:#231f20;fill-rule:nonzero;"/><path d="M52.239,67.236c4.194,-1.815 5.809,3.752 5.656,6.626c-0.061,1.137 -0.342,2.948 -1.188,3.801c-1.157,1.165 -2.694,0.849 -4.115,0.801c-0.515,-0.019 -0.506,0.758 -0,0.793c1.753,0.123 3.616,0.306 4.729,-1.236c1.193,-1.653 1.419,-3.972 1.169,-5.93c-0.415,-3.239 -2.826,-7.078 -6.529,-5.332c-0.325,0.154 -0.041,0.615 0.278,0.477" style="fill:#231f20;fill-rule:nonzero;"/><path d="M52.894,71.384c-0.315,-0.876 -1.497,-0.604 -1.98,-0.023c-0.651,0.781 -0.602,2.277 -0.046,3.095c0.478,0.705 1.468,0.874 2.027,0.162c0.638,-0.812 0.411,-2.42 0.046,-3.296c-0.17,-0.411 -0.849,-0.232 -0.676,0.187c0.207,0.506 0.254,1.012 0.267,1.556c0.012,0.536 -0.13,1.816 -0.964,1.087c-0.403,-0.353 -0.43,-1.242 -0.331,-1.732c0.066,-0.33 0.187,-0.613 0.494,-0.782c0.324,-0.178 0.57,-0.065 0.901,0.009c0.146,0.032 0.321,-0.101 0.262,-0.263" style="fill:#231f20;fill-rule:nonzero;"/><path d="M54.081,56.011c-5.06,0.28 -4.106,7.546 -3.102,10.707c0.161,0.506 0.959,0.289 0.797,-0.22c-1.088,-3.413 -1.755,-8.462 2.364,-10.055c0.213,-0.082 0.208,-0.447 -0.059,-0.432" style="fill:#231f20;fill-rule:nonzero;"/><path d="M53.637,56.211c1.004,1.879 -0.035,3.821 -0.226,5.76c-0.149,1.515 0.074,2.954 0.546,4.392c0.18,0.548 1.056,0.308 0.867,-0.239c-0.871,-2.515 -0.443,-4.49 -0.104,-7.034c0.154,-1.16 0.038,-2.164 -0.584,-3.171c-0.196,-0.316 -0.674,-0.036 -0.499,0.292" style="fill:#231f20;fill-rule:nonzero;"/><path d="M52.676,48.278c0.38,2.637 0.599,5.285 0.664,7.949c0.011,0.462 0.746,0.457 0.715,0c-0.18,-2.706 -0.54,-5.373 -1.088,-8.029c-0.04,-0.194 -0.318,-0.107 -0.291,0.08" style="fill:#231f20;fill-rule:nonzero;"/><path d="M45.539,65.906c0.879,0.214 1.765,0.438 2.524,0.953c0.664,0.451 1.006,1.175 1.632,1.63c0.213,0.154 0.427,-0.101 0.395,-0.304c-0.119,-0.77 -0.963,-1.425 -1.579,-1.835c-0.853,-0.566 -1.831,-0.79 -2.824,-0.982c-0.348,-0.067 -0.501,0.452 -0.148,0.538" style="fill:#231f20;fill-rule:nonzero;"/><path d="M25.451,47.373c0.038,-1.464 -0.01,-3.035 1.973,-3.405c0.825,-0.155 2.563,0.185 3.228,0.291c0.96,0.151 1.647,0.195 2.33,0.964c0.871,0.98 0.561,1.956 0.528,3.241c-0.051,1.924 -0.1,3.846 -0.153,5.77c-0.032,1.156 0.476,2.266 -1.108,2.377c-1.31,0.091 -2.785,-0.703 -3.877,-1.299c-0.471,-0.257 -0.876,0.436 -0.421,0.72c1.269,0.791 4.916,2.568 6.109,0.883c0.581,-0.819 0.19,-3.825 0.217,-4.779c0.035,-1.224 0.071,-2.449 0.107,-3.672c0.027,-0.959 0.398,-2.549 -0.021,-3.439c-0.892,-1.899 -4.555,-1.639 -6.268,-1.634c-2.685,0.006 -3.215,1.366 -3.195,3.982c0.002,0.354 0.542,0.354 0.551,-0" style="fill:#231f20;fill-rule:nonzero;"/><path d="M19.93,35.412c0.057,1.491 -0.101,2.85 -0.255,4.328c-0.102,0.986 -0.13,1.821 0.332,2.731c0.952,1.875 3.111,2.67 4.986,3.254c0.44,0.136 0.616,-0.536 0.189,-0.684c-2.494,-0.867 -4.97,-1.822 -4.883,-4.936c0.045,-1.625 0.299,-3.12 0.063,-4.752c-0.036,-0.246 -0.441,-0.186 -0.432,0.059" style="fill:#231f20;fill-rule:nonzero;"/><path d="M16.46,39.797l0.003,-0.267c0.002,-0.277 -0.407,-0.271 -0.427,-0c-0.159,2.142 -0.843,5.204 0.98,6.827c1.011,0.9 2.517,1.381 3.75,1.894c1.184,0.491 2.324,0.98 3.624,0.861c0.457,-0.042 0.445,-0.647 -0,-0.702c-1.978,-0.245 -4.397,-1.05 -6.127,-2.07c-1.343,-0.792 -1.727,-1.906 -1.773,-3.366c-0.022,-0.739 0.354,-2.516 -0.209,-3.103c0.064,0.067 0.179,0.015 0.179,-0.074" style="fill:#231f20;fill-rule:nonzero;"/><path d="M20.509,47.878c-0.49,4.968 -1.412,8.339 3.449,10.453c5.661,2.461 11.674,2.763 17.139,5.806c0.447,0.249 0.846,-0.433 0.4,-0.686c-3.499,-1.991 -6.615,-2.878 -10.546,-3.802c-2.048,-0.481 -4.166,-1.087 -6.12,-1.871c-2.879,-1.153 -3.673,-2 -4.028,-4.933c-0.196,-1.614 -0.02,-3.349 -0.012,-4.967c0.001,-0.186 -0.264,-0.178 -0.282,-0" style="fill:#231f20;fill-rule:nonzero;"/><path d="M33.795,50.753c1.791,0.866 3.547,1.157 3.727,3.649c0.085,1.195 -0.481,2.759 -0.081,3.92c0.583,1.688 3.817,2.193 5.189,2.66c0.479,0.162 0.662,-0.57 0.207,-0.748c-1.831,-0.713 -4.434,-1.019 -4.618,-3.349c-0.096,-1.208 0.335,-2.53 0.005,-3.71c-0.453,-1.615 -2.753,-2.879 -4.342,-2.746c-0.155,0.012 -0.256,0.242 -0.087,0.324" style="fill:#231f20;fill-rule:nonzero;"/><path d="M34.174,47.817c1.168,0.538 2.351,0.818 3.605,1.093c1.21,0.263 2.73,0.395 3.236,1.885c0.278,0.817 0.073,2.016 -0.058,2.8c-0.084,0.505 -0.314,1.044 -0.061,1.522c0.457,0.865 2.111,0.839 2.895,1.012c0.523,0.116 0.746,-0.688 0.222,-0.804c-1.117,-0.246 -2.222,-0.037 -2.257,-1.51c-0.011,-0.46 0.157,-1.013 0.179,-1.472c0.041,-0.849 0.002,-1.779 -0.435,-2.533c-0.434,-0.748 -1.077,-1.01 -1.873,-1.255c-1.713,-0.53 -3.456,-0.55 -5.128,-1.293c-0.374,-0.166 -0.702,0.381 -0.325,0.555" style="fill:#231f20;fill-rule:nonzero;"/><path d="M47.649,62.061c0.382,0.341 1.001,0.381 1.49,0.495c0.472,0.109 0.939,0.253 1.423,0.162c0.465,-0.087 0.267,-0.793 -0.196,-0.709c-0.85,0.155 -1.76,-0.617 -2.607,-0.365c-0.171,0.052 -0.255,0.288 -0.11,0.417" style="fill:#231f20;fill-rule:nonzero;"/><path d="M48.415,56.442c0.5,0.392 1.063,0.668 1.675,0.839c0.661,0.184 1.402,0.1 2.035,0.333c0.394,0.145 0.577,-0.499 0.175,-0.633c-0.514,-0.17 -1.066,-0.1 -1.597,-0.181c-0.723,-0.11 -1.389,-0.373 -2.058,-0.657c-0.176,-0.075 -0.417,0.153 -0.23,0.299" style="fill:#231f20;fill-rule:nonzero;"/><path d="M56.327,62.989c-0.096,1.046 -0.28,2.17 -0.102,3.214c0.055,0.326 0.495,0.202 0.528,-0.071c0.125,-1.03 -0.122,-2.145 -0.265,-3.164c-0.014,-0.098 -0.153,-0.064 -0.161,0.021" style="fill:#231f20;fill-rule:nonzero;"/><path d="M57.653,69.228c7.834,-2.049 15.212,-5.974 22.746,-8.886c0.374,-0.144 0.228,-0.742 -0.169,-0.614c-7.742,2.502 -14.936,6.555 -22.741,8.905c-0.379,0.115 -0.221,0.697 0.164,0.595" style="fill:#231f20;fill-rule:nonzero;"/><path d="M58.566,71.869c3.746,1.366 8.459,3.271 12.537,2.448c1.118,-0.225 1.892,-0.632 2.895,-1.17c1.032,-0.553 3.732,-1.493 4.287,-2.566c1.798,-3.471 -10.68,-4.285 -12.778,-4.551c-0.374,-0.047 -0.465,0.602 -0.089,0.664c2.433,0.404 4.864,0.8 7.273,1.338c0.585,0.131 3.93,0.608 4.307,1.076c1.065,1.32 -0.548,1.702 -1.508,2.261c-2.744,1.598 -5.029,2.514 -8.291,2.086c-2.879,-0.378 -5.695,-1.337 -8.514,-2.017c-0.283,-0.068 -0.386,0.333 -0.119,0.431" style="fill:#231f20;fill-rule:nonzero;"/><path d="M88.288,63.956c0.716,-0.887 0.947,-1.749 -0.243,-2.262c-1.233,-0.53 -3.104,-0.538 -4.427,-0.755c-1.643,-0.269 -3.286,-0.538 -4.928,-0.807c-0.5,-0.082 -0.715,0.683 -0.211,0.765c1.643,0.268 3.286,0.536 4.929,0.803c0.758,0.124 1.516,0.247 2.275,0.371c0.424,0.07 3.03,0.114 2.048,1.328c-0.316,0.391 0.239,0.952 0.557,0.557" style="fill:#231f20;fill-rule:nonzero;"/><path d="M69.389,64.929c3.619,0.998 8.144,2.723 11.941,2.506c2.487,-0.142 5.147,-1.906 6.958,-3.479c0.384,-0.333 -0.175,-0.887 -0.557,-0.556c-3.084,2.676 -6.193,3.255 -10.221,2.657c-2.671,-0.397 -5.334,-1.093 -7.966,-1.691c-0.365,-0.083 -0.519,0.462 -0.155,0.563" style="fill:#231f20;fill-rule:nonzero;"/><path d="M84.493,53.214c2.915,1.223 3.317,5.979 1.949,8.509c-0.223,0.412 0.385,0.768 0.629,0.367c1.664,-2.733 1.15,-8.415 -2.442,-9.369c-0.328,-0.087 -0.43,0.37 -0.136,0.493" style="fill:#231f20;fill-rule:nonzero;"/><path d="M84.412,54.594c1.37,1.42 1.449,5.188 0.718,6.948c-0.106,0.253 0.272,0.437 0.444,0.258c1.027,-1.064 0.675,-3.323 0.489,-4.656c-0.134,-0.963 -0.282,-2.655 -1.447,-2.901c-0.202,-0.043 -0.355,0.195 -0.204,0.351" style="fill:#231f20;fill-rule:nonzero;"/><path d="M61.526,69.67c3.17,0.806 6.277,1.657 9.386,2.679c0.386,0.127 0.535,-0.462 0.166,-0.602c-3.023,-1.14 -6.228,-2.046 -9.418,-2.564c-0.313,-0.051 -0.456,0.405 -0.134,0.487" style="fill:#231f20;fill-rule:nonzero;"/><path d="M66.159,68.433c2.107,0.033 4.123,0.239 5.978,1.319c0.344,0.201 0.646,-0.321 0.311,-0.533c-1.885,-1.187 -4.129,-1.234 -6.289,-1.154c-0.236,0.009 -0.237,0.364 -0,0.368" style="fill:#231f20;fill-rule:nonzero;"/><path d="M75.24,63.856c0.911,0.235 1.823,0.48 2.716,0.781c0.89,0.3 1.751,0.739 2.661,0.959c0.276,0.068 0.445,-0.311 0.195,-0.462c-1.582,-0.946 -3.737,-1.26 -5.549,-1.453c-0.099,-0.011 -0.117,0.15 -0.022,0.175" style="fill:#231f20;fill-rule:nonzero;"/><path d="M78.218,62.695c1.803,0.238 3.423,0.825 5.094,1.516c0.316,0.13 0.531,-0.394 0.232,-0.552c-1.636,-0.862 -3.493,-1.234 -5.326,-1.338c-0.246,-0.014 -0.231,0.344 0,0.374" style="fill:#231f20;fill-rule:nonzero;"/><path d="M59.886,47.529c4.972,-1.08 9.897,-2.4 14.828,-3.655c0.412,-0.106 0.237,-0.745 -0.177,-0.639c-4.925,1.267 -9.878,2.475 -14.755,3.914c-0.245,0.072 -0.143,0.434 0.104,0.38" style="fill:#231f20;fill-rule:nonzero;"/></g></svg>