<?xml version="1.0" encoding="UTF-8" standalone="no"?><!DOCTYPE svg PUBLIC "-//W3C//DTD SVG 1.1//EN" "http://www.w3.org/Graphics/SVG/1.1/DTD/svg11.dtd"><svg width="100%" height="100%" viewBox="0 0 69 84" version="1.1" xmlns="http://www.w3.org/2000/svg" xmlns:xlink="http://www.w3.org/1999/xlink" xml:space="preserve" xmlns:serif="http://www.serif.com/" style="fill-rule:evenodd;clip-rule:evenodd;stroke-linejoin:round;stroke-miterlimit:2;"><g><path d="M2.986,75.541c-0.428,0.149 -0.893,-0.152 -1.174,-0.452c-0.4,-0.426 -0.597,-0.984 -0.723,-1.552c0.821,0.37 1.659,0.712 2.51,1.03c-0.157,0.35 -0.231,0.84 -0.613,0.974" style="fill:#666d72;fill-rule:nonzero;"/><path d="M39.966,82.371c-0.084,0.254 -0.128,0.478 -0.347,0.652c-0.286,0.229 -0.554,0.156 -0.912,0.1c-0.624,-0.098 -1.037,-0.231 -1.113,-0.923c-0.05,-0.45 0.054,-0.91 0.04,-1.366c0.898,0.044 1.796,0.074 2.691,0.088c-0.047,0.496 -0.204,0.977 -0.359,1.449" style="fill:#666d72;fill-rule:nonzero;"/><path d="M62.367,72.987c0.017,0.921 -0.111,1.879 -0.457,2.732c-0.393,0.969 -1.101,1.957 -2.056,2.441c-2.388,1.211 -4.036,-0.934 -4.032,-3.085c0.004,-1.949 1.321,-5.481 3.703,-5.686c-1.839,1.1 -2.77,4.761 -2.767,6.32c0,0.131 0.201,0.131 0.203,-0c0.032,-1.942 0.911,-3.983 2.382,-5.271c1.798,-1.575 2.997,1.006 3.024,2.549" style="fill:#666d72;fill-rule:nonzero;"/><path d="M63.335,24.338c-0.452,-0.122 -0.909,-0.236 -1.364,-0.355c0.289,-3.503 7.409,-16.642 0.177,-17.031c0.051,-0.263 0.064,-0.519 0.182,-0.768c0.092,-0.196 0.23,-0.349 0.364,-0.508c9.685,0.665 1.12,13.313 0.641,18.662" style="fill:#666d72;fill-rule:nonzero;"/><path d="M41.495,0.931c0.02,-0.012 0.028,-0.027 0.044,-0.04c0.011,0.001 0.018,0.006 0.028,0.007c3.769,0.233 7.533,0.52 11.282,0.994c1.716,0.218 10.388,0.695 11.049,3.087c-0.413,-0.074 -0.85,-0.133 -1.341,-0.156c-0.259,-0.013 -0.39,0.174 -0.4,0.375c-0.475,0.415 -0.767,1.184 -0.652,1.774c0.016,0.085 0.066,0.144 0.131,0.183c-0.076,0.21 0.042,0.502 0.337,0.532c0.377,0.038 0.707,0.12 0.993,0.242c-1.789,1.406 -9.043,-0.496 -10.562,-0.757c-3.747,-0.644 -7.487,-1.448 -11.152,-2.468c-0.014,-0.052 -0.036,-0.104 -0.077,-0.153c-0.732,-0.874 -0.786,-2.994 0.32,-3.62" style="fill:#be1e2d;fill-rule:nonzero;"/><path d="M39.989,2.128c-0.095,0.512 -0.084,1.049 0.025,1.555c-5.876,1.542 -5.911,11.068 -7.455,15.74c-0.004,0.011 0.004,0.017 0.002,0.028c-0.385,-0.009 -0.771,-0.024 -1.157,-0.027c2.671,-5.427 0.54,-16.751 8.585,-17.296" style="fill:#666d72;fill-rule:nonzero;"/><path d="M7.428,23.512c18.694,-5.566 37.205,-2.559 55.843,1.612c2.044,14.688 -0.241,29.134 -3.24,43.532c-2.447,-0.584 -4.268,2.734 -4.814,5.237c-0.104,-0.068 -0.237,-0.089 -0.38,-0.011c-4.523,2.484 -9.121,4.629 -14.025,6.255c-0.021,-0.006 -0.037,-0.016 -0.06,-0.019c-7.059,-0.753 -14.08,-1.293 -21.078,-2.596c-6.225,-1.16 -12.256,-3.173 -18.443,-4.406c0.064,-0.064 0.101,-0.157 0.086,-0.282c-0.994,-8.072 -0.133,-16.462 0.824,-24.496c0.989,-8.299 2.163,-17.015 5.287,-24.826" style="fill:#be1e2d;fill-rule:nonzero;"/><path d="M54.742,35.56c0.03,-0.188 0.094,-0.444 0.24,-0.582c0.225,-0.211 0.512,-0.167 0.796,-0.147c0.063,0.091 0.162,0.158 0.312,0.157c0.479,-0.001 1.024,0.073 0.657,0.713c-0.27,0.468 -0.742,0.369 -1.223,0.359c-0.157,-0.003 -0.46,0.026 -0.609,-0.024c-0.273,-0.092 -0.216,-0.214 -0.173,-0.476" style="fill:#cbdde6;fill-rule:nonzero;"/><path d="M55.22,36.795c0.348,0.016 0.796,0.074 1.187,0.025c0.215,0.746 0.562,1.462 0.693,2.229c0.223,1.309 -0.612,1.915 -1.838,1.854c0.084,0.005 -1.01,-0.209 -0.895,-0.094c-0.135,-0.134 0.013,-1.165 0.022,-1.369c0.039,-0.856 0.081,-1.893 0.526,-2.661c0.105,0.008 0.207,0.011 0.305,0.016" style="fill:#cbdde6;fill-rule:nonzero;"/><path d="M24.406,28.299c2.323,-0.096 2.808,2.104 3.154,3.899c-1.536,0.216 -3.056,0.167 -4.565,-0.231c-0.965,-0.255 -1.879,-0.858 -2.862,-0.992c1.16,-1.199 2.487,-2.603 4.273,-2.676" style="fill:#cbdde6;fill-rule:nonzero;"/><path d="M33.667,59.33c-0.153,0.092 -0.306,0.185 -0.459,0.276c-0.63,-0.064 -0.884,-0.337 -0.762,-0.816c-0.069,-0.325 0.024,-0.767 0.034,-1.095c0.018,-0.669 0.044,-1.34 0.037,-2.01c0.282,-0.013 0.561,-0.049 0.821,-0.168c0.04,-0.017 0.075,-0.041 0.113,-0.062c0.606,1.089 1.282,2.848 0.216,3.875" style="fill:#cbdde6;fill-rule:nonzero;"/><path d="M33.435,54.488c-0.111,0.284 -0.443,0.432 -0.72,0.484c-0.201,0.038 -0.611,0.08 -0.865,0.018c-0.012,-0.253 0.1,-0.57 0.159,-0.782c0.054,-0.194 0.133,-0.379 0.205,-0.568c0.545,0.064 1.497,0.14 1.221,0.848" style="fill:#cbdde6;fill-rule:nonzero;"/><g opacity="0.2"><path d="M45.81,2.414c1.798,0.125 3.592,0.306 5.379,0.543c1.771,0.236 3.535,0.527 5.288,0.875c1.759,0.349 3.507,0.754 5.241,1.213c0.149,0.039 0.296,0.085 0.445,0.125c0.02,-0.19 0.147,-0.36 0.394,-0.347c0.49,0.024 0.928,0.082 1.341,0.156c-0.661,-2.391 -9.333,-2.869 -11.05,-3.086c-3.748,-0.474 -7.513,-0.761 -11.281,-0.995c-0.011,-0.001 -0.018,-0.005 -0.028,-0.006c-0.016,0.012 -0.025,0.028 -0.044,0.04c-0.44,0.248 -0.69,0.735 -0.793,1.283c1.704,0.019 3.408,0.082 5.108,0.199" style="fill:#fff;fill-rule:nonzero;"/></g><g opacity="0.2"><path d="M21.453,22.419c2.958,0.354 5.902,0.816 8.844,1.281c1.501,0.239 3.002,0.477 4.505,0.702c1.469,0.22 2.944,0.458 4.423,0.606c2.524,0.251 5.073,0.321 7.563,0.839c0.624,0.13 1.243,0.288 1.849,0.489c0.538,0.179 1.11,0.372 1.587,0.683c0.768,0.498 1.019,1.367 1.496,2.102c0.66,-0.298 1.067,-0.944 1.473,-1.515c0.034,-0.048 0.083,-0.058 0.137,-0.035c0.966,0.41 1.987,0.727 3.05,0.649c0.458,-0.034 0.954,-0.121 1.367,-0.333c0.286,-0.147 0.522,-0.362 0.751,-0.585c0.476,-0.47 0.936,-0.857 1.625,-0.944c0.793,-0.1 1.648,0.129 2.394,-0.236c0.339,-0.167 0.584,-0.423 0.788,-0.711c-0.013,-0.096 -0.022,-0.19 -0.035,-0.286c-16.35,-3.659 -32.604,-6.42 -48.969,-3.284c2.39,0.09 4.776,0.294 7.152,0.578" style="fill:#fff;fill-rule:nonzero;"/></g><g opacity="0.2"><path d="M42.674,31.24c-1.349,-0.938 -2.807,-1.724 -4.346,-2.299c-1.706,-0.637 -3.49,-1.046 -5.287,-1.329c-1.818,-0.287 -3.653,-0.447 -5.488,-0.582c-1.904,-0.14 -3.809,-0.284 -5.715,-0.387c-0.995,-0.052 -1.995,-0.127 -2.971,-0.341c-0.917,-0.203 -1.802,-0.517 -2.713,-0.742c-1.925,-0.473 -4.01,-0.129 -5.884,0.418c-0.01,0.003 -0.016,-0.003 -0.025,-0.003c-0.467,0.314 -0.841,0.793 -1.13,1.278c-0.455,0.76 -0.748,1.59 -1.075,2.409c-0.424,1.057 -0.88,2.1 -1.305,3.157c-0.46,1.142 -0.893,2.299 -1.219,3.486c-0.297,1.08 -0.507,2.194 -0.494,3.317c0.297,0.007 0.595,-0 0.892,-0.032c1.412,-0.155 2.754,-0.667 4.144,-0.939c1.413,-0.275 2.906,-0.319 4.341,-0.249c1.322,0.066 2.621,0.29 3.901,0.62c0.395,0.103 0.788,0.237 1.113,0.49c0.362,0.281 0.623,0.696 0.825,1.1c0.098,0.195 0.146,0.482 0.305,0.638c0.096,0.094 0.239,0.139 0.363,0.18c0.273,0.09 0.553,0.154 0.831,0.219c1.359,0.321 2.73,0.586 4.085,0.918c1.34,0.329 2.664,0.735 3.925,1.301c0.686,0.307 1.384,0.531 2.116,0.697c0.69,0.156 1.388,0.279 2.073,0.458c0.631,0.166 1.239,0.384 1.801,0.718c0.499,0.295 0.953,0.659 1.369,1.061c0.832,0.799 1.515,1.734 2.248,2.623c0.435,-0.416 0.735,-0.943 0.925,-1.512c0.404,-1.203 0.414,-2.518 0.362,-3.773c-0.048,-1.177 -0.196,-2.349 -0.239,-3.528c-0.002,-0.053 0.047,-0.101 0.099,-0.1c0.333,0.007 0.653,0.12 0.961,0.236c0.339,0.129 0.676,0.289 1.031,0.366c0.285,0.063 0.583,-0.021 0.843,-0.143c0.44,-0.204 0.698,-0.586 0.773,-1.06c0.079,-0.51 -0.018,-1.041 -0.134,-1.537c-0.128,-0.543 -0.3,-1.073 -0.458,-1.608c-0.129,-0.434 -0.268,-0.883 -0.291,-1.339c-0.027,-0.483 0.194,-0.856 0.537,-1.178c0.162,-0.154 0.34,-0.302 0.438,-0.507c0.139,-0.289 0.094,-0.657 -0.024,-0.946c-0.274,-0.667 -0.931,-1.158 -1.503,-1.556" style="fill:#fff;fill-rule:nonzero;"/></g><g opacity="0.2"><path d="M30.521,59.098c-0.253,-0.32 -0.426,-0.694 -0.53,-1.089c-0.101,-0.378 -0.111,-0.752 -0.102,-1.14c0.007,-0.296 -0.07,-0.512 -0.27,-0.736c-0.258,-0.289 -0.551,-0.492 -0.91,-0.637c-0.774,-0.309 -1.617,-0.432 -2.432,-0.582c-0.975,-0.177 -1.934,-0.435 -2.903,-0.638c-1.198,-0.25 -2.402,-0.468 -3.613,-0.642c-1.226,-0.177 -2.452,-0.344 -3.674,-0.553c-1.201,-0.205 -2.398,-0.434 -3.588,-0.698c-0.596,-0.132 -1.19,-0.272 -1.782,-0.423c-0.581,-0.147 -1.164,-0.354 -1.763,-0.409c-0.464,-0.042 -0.926,0.006 -1.388,0.055c-0.45,0.048 -0.9,0.066 -1.351,0.026c-0.617,0.184 -1.11,0.625 -1.458,1.17c-0.5,0.784 -0.768,1.704 -0.961,2.606c-0.225,1.056 -0.338,2.135 -0.402,3.213c-0.062,1.046 -0.075,2.095 -0.061,3.143c0.012,0.787 0.042,1.572 0.074,2.358c0.046,1.132 0.016,2.269 0.124,3.399c0.105,1.109 0.365,2.255 1.107,3.121c0.93,1.086 2.312,1.456 3.64,1.806c1.665,0.438 3.348,0.818 5.054,1.062c1.593,0.229 3.251,0.36 4.852,0.115c-0.095,-0.348 -0.235,-0.679 -0.439,-0.98c-0.46,-0.678 -1.144,-1.166 -1.82,-1.609c-0.682,-0.45 -1.397,-0.866 -2.009,-1.413c-0.596,-0.534 -1.041,-1.218 -1.25,-1.996c-0.138,-0.511 -0.083,-1.079 0.454,-1.316c0.538,-0.236 1.205,-0.136 1.761,-0.033c0.644,0.118 1.286,0.295 1.902,0.517c0.657,0.237 1.338,0.48 2.037,0.55c0.316,0.032 0.734,0.043 0.971,-0.183c0.197,-0.187 0.218,-0.482 0.198,-0.757c-0.031,-0.403 -0.154,-0.8 -0.277,-1.183c-0.312,-0.974 -0.712,-1.921 -0.944,-2.919c-0.194,-0.832 -0.31,-1.838 0.244,-2.562c0.325,-0.424 0.829,-0.674 1.339,-0.797c0.882,-0.213 1.788,-0.004 2.607,0.341c0.918,0.389 1.758,0.939 2.595,1.475c0.771,0.493 1.554,1.026 2.422,1.335c0.892,0.319 1.894,0.415 2.757,-0.031c0.368,-0.191 0.699,-0.445 1.028,-0.695c0.356,-0.27 0.717,-0.532 1.092,-0.775c-0.145,-0.071 -0.29,-0.142 -0.435,-0.211c-0.691,-0.328 -1.413,-0.671 -1.896,-1.285" style="fill:#fff;fill-rule:nonzero;"/></g><g opacity="0.2"><path d="M62.985,43.34c-0.067,-0.188 -0.128,-0.38 -0.185,-0.573c-0.009,-0.021 -0.013,-0.044 -0.024,-0.064c-0.007,-0.011 -0.002,-0.021 -0.004,-0.032c-0.256,-0.907 -0.453,-1.835 -0.998,-2.621c-1.214,0.923 -1.784,2.456 -2.375,3.807c-0.016,0.036 -0.076,0.061 -0.112,0.045c-0.438,-0.183 -0.892,-0.331 -1.361,-0.412c-0.863,-0.147 -1.758,-0.031 -2.5,0.457c-0.863,0.57 -1.361,1.506 -1.741,2.439c-0.096,0.233 -0.166,0.494 -0.342,0.683c-0.099,0.107 -0.221,0.195 -0.337,0.283c-0.196,0.148 -0.423,0.219 -0.658,0.288c-0.51,0.148 -1.058,0.29 -1.419,0.711c-0.221,0.259 -0.403,0.551 -0.563,0.85c-0.403,0.752 -0.681,1.572 -0.898,2.395c-0.243,0.924 -0.409,1.869 -0.495,2.819c-0.077,0.853 -0.097,1.72 0.009,2.571c0.043,0.342 0.11,0.685 0.22,1.013c0.134,0.402 0.33,0.833 0.623,1.144c0.191,0.202 0.43,0.306 0.704,0.221c0.28,-0.087 0.52,-0.296 0.738,-0.485c0.531,-0.46 1.062,-1.037 1.77,-1.212c0.367,-0.091 0.762,-0.111 1.047,0.177c0.137,0.141 0.24,0.316 0.345,0.481c0.152,0.239 0.314,0.465 0.493,0.683c0.579,0.706 1.268,1.504 2.197,1.726c0.925,0.22 1.936,-0.234 2.65,-0.8c0.658,-0.522 1.151,-1.219 1.519,-1.967c0.822,-1.671 1.105,-3.584 1.273,-5.42c0.078,-0.861 0.124,-1.726 0.168,-2.589c0.037,-0.743 0.104,-1.479 0.177,-2.22c0.094,-0.937 0.182,-1.877 0.191,-2.82c0.005,-0.43 -0.004,-0.861 -0.059,-1.288c-0.013,-0.096 -0.034,-0.193 -0.053,-0.29" style="fill:#fff;fill-rule:nonzero;"/></g><g opacity="0.2"><path d="M35.543,48.633c-0.689,-0.863 -1.637,-1.474 -2.636,-1.924c-2.093,-0.943 -4.402,-1.25 -6.625,-1.748c-0.66,-0.148 -1.313,-0.325 -1.971,-0.48c-0.792,-0.188 -1.588,-0.36 -2.387,-0.518c-1.567,-0.309 -3.145,-0.557 -4.73,-0.753c-0.805,-0.099 -1.614,-0.186 -2.422,-0.263c-0.714,-0.068 -1.406,-0.211 -2.101,-0.386c-1.37,-0.344 -2.879,-0.783 -4.241,-0.177c-0.069,0.03 -0.126,-0.017 -0.143,-0.07c-0.86,0.28 -1.682,0.767 -2.105,1.575c-0.267,0.509 -0.48,1.058 -0.58,1.625c-0.051,0.284 -0.072,0.586 -0.012,0.87c0.052,0.242 0.175,0.448 0.329,0.639c0.556,0.689 1.502,0.876 2.339,0.934c1.036,0.073 2.077,-0.027 3.112,-0.087c0.867,-0.049 1.816,-0.129 2.658,0.137c1.091,0.344 1.768,1.372 2.69,1.982c0.6,0.398 1.285,0.555 1.984,0.682c0.803,0.145 1.616,0.217 2.43,0.251c1.595,0.067 3.189,-0.011 4.784,0.022c1.515,0.031 3.023,0.191 4.496,0.55c0.875,0.213 1.666,0.607 2.485,0.974c0.829,0.373 1.724,0.792 2.642,0.864c0.335,0.026 0.701,-0.001 0.982,-0.207c0.334,-0.246 0.454,-0.697 0.463,-1.094c0.017,-0.651 -0.221,-1.294 -0.504,-1.871c-0.26,-0.529 -0.569,-1.064 -0.937,-1.527" style="fill:#fff;fill-rule:nonzero;"/></g><path d="M7.036,23.62c18.854,-5.733 37.518,-2.688 56.312,1.522c0.484,0.109 0.689,-0.616 0.206,-0.747c-18.318,-4.943 -38.357,-7.613 -56.636,-1.205c-0.268,0.094 -0.159,0.515 0.118,0.43" style="fill:#231f20;fill-rule:nonzero;"/><path d="M7.06,24.573c0.008,-0 0.008,-0.014 0,-0.014c-0.009,-0 -0.009,0.014 0,0.014" style="fill:#231f20;fill-rule:nonzero;"/><path d="M6.959,23.243c-3.274,7.106 -4.288,15.456 -5.291,23.135c-1.128,8.63 -2.229,17.765 -1.159,26.457c0.063,0.509 0.871,0.515 0.807,-0c-0.994,-8.072 -0.132,-16.462 0.825,-24.496c0.992,-8.321 2.167,-17.062 5.309,-24.889c0.113,-0.28 -0.364,-0.483 -0.491,-0.207" style="fill:#231f20;fill-rule:nonzero;"/><path d="M0.587,73.322c6.1,2.854 13.157,4.125 19.745,5.326c6.691,1.22 13.612,2.22 20.42,2.284c0.535,0.006 0.51,-0.758 -0,-0.813c-7.06,-0.754 -14.081,-1.294 -21.078,-2.597c-6.398,-1.191 -12.588,-3.291 -18.955,-4.512c-0.177,-0.034 -0.319,0.224 -0.132,0.312" style="fill:#231f20;fill-rule:nonzero;"/><path d="M40.818,80.942c5.012,-1.615 9.89,-3.675 14.409,-6.391c0.428,-0.256 0.047,-0.909 -0.39,-0.669c-4.585,2.518 -9.243,4.692 -14.222,6.326c-0.463,0.152 -0.266,0.884 0.203,0.734" style="fill:#231f20;fill-rule:nonzero;"/><path d="M60.845,68.974c-3.442,-1.996 -5.896,3.952 -5.799,6.452c0.142,3.626 3.967,5.16 6.377,2.315c1.126,-1.33 1.633,-2.701 1.704,-4.438c0.052,-1.259 -0.09,-3.332 -1.423,-3.971c-3.28,-1.569 -4.951,4.29 -4.946,6.376c-0,0.131 0.201,0.131 0.203,0c0.032,-1.941 0.911,-3.982 2.382,-5.27c1.799,-1.575 2.997,1.006 3.024,2.549c0.017,0.921 -0.111,1.879 -0.457,2.732c-0.392,0.969 -1.1,1.957 -2.055,2.441c-2.389,1.21 -4.036,-0.934 -4.032,-3.085c0.004,-2.23 1.726,-6.527 4.792,-5.555c0.325,0.103 0.52,-0.377 0.23,-0.546" style="fill:#231f20;fill-rule:nonzero;"/><path d="M60.439,73.389c-0.329,0.272 -0.519,0.703 -0.584,1.118c-0.049,0.313 -0.097,0.842 0.297,0.962c0.376,0.115 0.688,-0.241 0.802,-0.558c0.064,-0.183 0.081,-0.378 0.084,-0.572c0.003,-0.269 0.061,-0.587 0.027,-0.846c-0.029,-0.223 -0.336,-0.453 -0.521,-0.216c-0.197,0.251 -0.214,0.505 -0.208,0.819c0.001,0.068 0.06,0.728 -0.095,0.719c0.078,0.033 0.157,0.065 0.235,0.097c0.053,0.049 0.005,-0.087 0.008,-0.157c0.005,-0.135 0.029,-0.262 0.065,-0.39c0.07,-0.241 0.191,-0.434 0.313,-0.65c0.157,-0.279 -0.194,-0.515 -0.423,-0.326" style="fill:#231f20;fill-rule:nonzero;"/><path d="M63.232,24.819c2.127,14.853 -0.2,29.456 -3.238,44.012c-0.125,0.596 0.788,0.853 0.918,0.253c3.142,-14.594 5.351,-29.559 2.953,-44.439c-0.068,-0.419 -0.693,-0.237 -0.633,0.174" style="fill:#231f20;fill-rule:nonzero;"/><path d="M10.131,24.088c5.734,-0.239 11.381,0.252 17.022,1.321c4.783,0.908 11.81,1.568 16.041,3.994c5.486,3.147 4.417,11.613 3.546,16.909c-0.854,5.206 -1.758,10.403 -2.649,15.602c-0.044,0.259 0.343,0.374 0.399,0.111c1.338,-6.272 2.424,-12.653 3.227,-19.016c0.475,-3.763 0.831,-10.113 -2.085,-13.141c-1.052,-1.091 -2.852,-1.415 -4.24,-1.8c-3.402,-0.94 -6.831,-1.816 -10.277,-2.581c-6.93,-1.538 -13.874,-2.472 -20.984,-2.095c-0.444,0.023 -0.449,0.715 -0,0.696" style="fill:#231f20;fill-rule:nonzero;"/><path d="M26.211,21.48c5.708,-0.345 11.555,0.511 17.183,1.413c2.1,0.336 4.35,0.611 6.36,1.334c5.415,1.946 5.937,5.631 5.464,10.204c-0.051,0.495 0.724,0.492 0.774,0c0.217,-2.125 1.087,-6.051 -0.209,-8.02c-1.333,-2.026 -5.37,-2.825 -7.395,-3.329c-6.846,-1.706 -15.259,-3.024 -22.234,-2.021c-0.237,0.034 -0.181,0.433 0.057,0.419" style="fill:#231f20;fill-rule:nonzero;"/><path d="M55.991,34.443c-0.753,-0.619 -1.591,-0.204 -1.889,0.667c-0.13,0.38 -0.28,0.964 -0.016,1.318c0.259,0.348 0.741,0.35 1.134,0.368c0.48,0.021 1.154,0.131 1.603,-0.085c0.389,-0.187 0.703,-0.737 0.809,-1.138c0.264,-1.008 -0.712,-1.432 -1.542,-1.379c-0.506,0.033 -0.517,0.796 -0,0.794c0.479,-0.001 1.024,0.073 0.657,0.713c-0.27,0.469 -0.742,0.369 -1.223,0.359c-0.157,-0.003 -0.46,0.027 -0.609,-0.024c-0.273,-0.092 -0.216,-0.214 -0.173,-0.476c0.03,-0.188 0.094,-0.444 0.24,-0.582c0.238,-0.223 0.546,-0.16 0.847,-0.143c0.189,0.011 0.315,-0.266 0.162,-0.392" style="fill:#231f20;fill-rule:nonzero;"/><path d="M54.417,36.377c-0.729,1.111 -0.714,2.807 -0.714,4.09c-0,1.069 0.717,1.097 1.731,1.117c0.888,0.019 1.851,-0.306 2.241,-1.172c0.51,-1.134 -0.158,-2.742 -0.523,-3.825c-0.159,-0.472 -0.891,-0.28 -0.754,0.208c0.214,0.754 0.569,1.478 0.702,2.254c0.223,1.309 -0.613,1.915 -1.838,1.854c0.084,0.005 -1.01,-0.209 -0.895,-0.094c-0.136,-0.134 0.013,-1.165 0.022,-1.369c0.041,-0.886 0.074,-1.975 0.567,-2.749c0.217,-0.34 -0.319,-0.649 -0.539,-0.314" style="fill:#231f20;fill-rule:nonzero;"/><path d="M55.331,37.258c-0.063,0.652 0.005,1.335 0.017,1.99c0.006,0.405 0.654,0.398 0.623,0c-0.053,-0.676 -0.053,-1.386 -0.183,-2.052c-0.054,-0.276 -0.434,-0.181 -0.457,0.062" style="fill:#231f20;fill-rule:nonzero;"/><path d="M49.955,72.456c1.297,-5.099 1.298,-10.365 2.403,-15.499c1.102,-5.119 2.228,-10.194 3.081,-15.366c0.092,-0.558 -0.762,-0.798 -0.854,-0.236c-0.846,5.176 -1.945,10.253 -3.037,15.378c-1.101,5.16 -0.92,10.454 -1.941,15.627c-0.045,0.226 0.29,0.324 0.348,0.096" style="fill:#231f20;fill-rule:nonzero;"/><path d="M20.123,30.985c1.162,-1.201 2.492,-2.612 4.283,-2.686c2.363,-0.097 2.825,2.183 3.173,3.995c0.075,0.391 0.736,0.307 0.702,-0.096c-0.163,-1.957 -0.881,-4.245 -3.102,-4.601c-2.327,-0.371 -4.029,1.453 -5.371,3.073c-0.181,0.217 0.112,0.525 0.315,0.315" style="fill:#231f20;fill-rule:nonzero;"/><path d="M19.766,31.134c2.257,1.803 5.451,2.251 8.228,1.825c0.514,-0.079 0.296,-0.865 -0.217,-0.784c-1.61,0.253 -3.202,0.209 -4.782,-0.208c-1.059,-0.279 -2.054,-0.984 -3.15,-1.023c-0.09,-0.003 -0.155,0.128 -0.079,0.19" style="fill:#231f20;fill-rule:nonzero;"/><path d="M4.887,45.335c-0.429,-8.633 23.086,-1.576 26.752,-0.477c2.636,0.79 4.761,1.429 6.534,3.631c1.727,2.145 1.355,3.703 1.307,6.373c-0.075,4.092 -0.37,8.167 -0.605,12.251c-0.016,0.284 0.403,0.272 0.433,-0c0.427,-3.757 0.632,-7.528 0.752,-11.307c0.065,-2.067 0.869,-5.575 -0.215,-7.483c-1.787,-3.149 -8.232,-4.185 -11.259,-4.997c-4.025,-1.079 -25.114,-7.377 -24.224,2.009c0.032,0.331 0.542,0.342 0.525,-0" style="fill:#231f20;fill-rule:nonzero;"/><path d="M6.823,49.533c7.609,2.812 16.755,3.837 24.8,4.733c0.561,0.063 0.556,-0.817 0,-0.879c-8.248,-0.917 -16.591,-2.428 -24.675,-4.31c-0.3,-0.069 -0.408,0.352 -0.125,0.456" style="fill:#231f20;fill-rule:nonzero;"/><path d="M31.772,53.085c-0.224,0.393 -0.385,0.811 -0.487,1.251c-0.071,0.302 -0.212,0.749 -0.057,1.042c0.171,0.319 0.585,0.302 0.899,0.317c0.412,0.022 0.832,-0.006 1.21,-0.177c0.63,-0.286 1.058,-0.99 0.787,-1.668c-0.299,-0.747 -1.267,-1.067 -2.011,-1.011c-0.413,0.03 -0.57,0.685 -0.105,0.773c0.45,0.084 1.743,0.066 1.427,0.876c-0.111,0.284 -0.444,0.432 -0.72,0.485c-0.239,0.045 -0.789,0.106 -1,-0.024c0.053,0.069 0.106,0.137 0.158,0.205c-0.1,-0.259 0.063,-0.686 0.136,-0.946c0.085,-0.303 0.201,-0.598 0.322,-0.888c0.134,-0.323 -0.391,-0.529 -0.559,-0.235" style="fill:#231f20;fill-rule:nonzero;"/><path d="M31.998,55.506c-0.082,0.848 -0.103,1.702 -0.14,2.554c-0.021,0.463 -0.186,1.2 0.036,1.645c0.325,0.655 1.2,0.689 1.781,0.405c1.621,-0.791 1.627,-4.433 0.081,-5.289c-0.266,-0.147 -0.582,0.151 -0.422,0.422c0.627,1.06 1.469,2.992 0.333,4.086c-0.153,0.092 -0.306,0.185 -0.459,0.277c-0.63,-0.065 -0.884,-0.337 -0.762,-0.817c-0.069,-0.325 0.024,-0.766 0.033,-1.095c0.021,-0.728 0.055,-1.459 0.038,-2.188c-0.008,-0.34 -0.487,-0.327 -0.519,0" style="fill:#231f20;fill-rule:nonzero;"/><path d="M33.652,57.188c-0.066,-0.323 -0.153,-0.641 -0.214,-0.965c-0.06,-0.32 -0.081,-0.666 -0.197,-0.97c-0.137,-0.359 -0.628,-0.297 -0.664,0.09c-0.061,0.663 0.309,1.479 0.679,2.012c0.14,0.202 0.446,0.079 0.396,-0.167" style="fill:#231f20;fill-rule:nonzero;"/><path d="M34.599,54.716c0.057,-0.018 0.117,-0.037 0.176,-0.046c0.018,-0.003 0.088,-0.003 0.09,-0.003c0.073,0.011 0.084,0.029 0.155,0.051c0.112,0.032 0.225,0.017 0.324,-0.04c0.131,-0.073 0.162,-0.212 0.143,-0.349c-0.04,-0.267 -0.368,-0.342 -0.594,-0.331c-0.22,0.011 -0.416,0.079 -0.578,0.231c-0.21,0.196 0.007,0.576 0.284,0.487" style="fill:#231f20;fill-rule:nonzero;"/><path d="M34.548,77.502c0.004,-0.021 0.007,-0.042 0.011,-0.062c0.01,-0.06 -0.008,-0.111 -0.06,-0.145c-0.017,-0.012 -0.035,-0.024 -0.053,-0.036c-0.047,-0.032 -0.129,-0.022 -0.168,0.021c-0.013,0.016 -0.028,0.033 -0.042,0.048c-0.046,0.054 -0.053,0.117 -0.023,0.181c0.01,0.019 0.02,0.038 0.028,0.057c0.031,0.063 0.116,0.09 0.179,0.074c1.535,-0.411 2.98,-1.416 3.8,-2.794c0.186,-0.314 -0.276,-0.568 -0.483,-0.282c-0.42,0.587 -0.851,1.135 -1.405,1.602c-0.266,0.224 -0.553,0.425 -0.851,0.603c-0.16,0.095 -1.19,0.537 -1.161,0.733c0.017,0.113 0.208,0.111 0.228,0" style="fill:#231f20;fill-rule:nonzero;"/><path d="M43.971,66.264c-0.908,3.951 -2.159,7.857 -2.96,11.825c-0.06,0.296 0.346,0.405 0.449,0.124c1.386,-3.77 2.075,-7.936 2.74,-11.887c0.024,-0.147 -0.194,-0.213 -0.229,-0.062" style="fill:#231f20;fill-rule:nonzero;"/><path d="M3.548,65.873c-0.652,1.607 -0.746,2.777 0.113,4.311c0.761,1.357 1.904,1.811 3.405,2.033c0.355,0.052 0.516,-0.486 0.151,-0.551c-1.34,-0.239 -2.35,-0.504 -3.119,-1.737c-0.843,-1.349 -0.819,-2.536 -0.392,-4.012c0.03,-0.105 -0.119,-0.14 -0.158,-0.044" style="fill:#231f20;fill-rule:nonzero;"/><path d="M31.103,19.977c3.188,-5.25 0.462,-17.693 9.297,-17.876c0.518,-0.011 0.52,-0.815 0,-0.808c-8.464,0.137 -8.416,12.501 -9.687,18.52c-0.048,0.231 0.261,0.377 0.39,0.164" style="fill:#231f20;fill-rule:nonzero;"/><path d="M33.062,19.635c2.196,-4.353 1.448,-13.918 7.363,-15.252c0.499,-0.112 0.288,-0.878 -0.211,-0.766c-6.087,1.367 -6.092,11.08 -7.655,15.806c-0.098,0.294 0.362,0.492 0.503,0.212" style="fill:#231f20;fill-rule:nonzero;"/><path d="M61.968,24.007c0.263,-3.499 7.555,-16.892 0.005,-17.068c-0.49,-0.012 -0.47,0.7 -0,0.748c6.097,0.612 -0.35,12.77 -0.529,16.32c-0.018,0.34 0.499,0.334 0.524,0" style="fill:#231f20;fill-rule:nonzero;"/><path d="M63.908,24.541c0.877,-5.631 9.583,-19.188 -1.351,-19.718c-0.541,-0.026 -0.538,0.81 0,0.84c9.987,0.554 1.123,13.496 0.764,18.799c-0.022,0.331 0.534,0.414 0.587,0.079" style="fill:#231f20;fill-rule:nonzero;"/><path d="M41.402,0.987c0.031,-0.019 0.062,-0.037 0.093,-0.056c0.393,-0.239 0.042,-0.843 -0.362,-0.618c-1.52,0.852 -1.559,3.557 -0.469,4.748c0.317,0.348 0.804,-0.159 0.51,-0.51c-0.731,-0.874 -0.786,-2.994 0.321,-3.62l-0.362,-0l0.1,0.056c0.052,0.029 0.118,0.031 0.169,-0" style="fill:#231f20;fill-rule:nonzero;"/><path d="M62.144,6.972c0.055,-0.271 0.064,-0.533 0.186,-0.788c0.118,-0.251 0.314,-0.43 0.478,-0.647c0.223,-0.294 -0.202,-0.667 -0.489,-0.49c-0.577,0.359 -0.943,1.266 -0.815,1.925c0.062,0.318 0.577,0.315 0.64,0" style="fill:#231f20;fill-rule:nonzero;"/><path d="M41.567,0.898c3.769,0.233 7.533,0.521 11.281,0.994c1.735,0.22 10.577,0.702 11.08,3.156c0.105,0.509 0.883,0.294 0.779,-0.213c-0.496,-2.412 -5.684,-2.784 -7.439,-3.092c-5.172,-0.909 -10.459,-1.38 -15.701,-1.619c-0.5,-0.023 -0.495,0.744 0,0.774" style="fill:#231f20;fill-rule:nonzero;"/><path d="M41.117,1.072c0.144,-0 0.145,-0.224 0,-0.224c-0.144,-0 -0.144,0.224 0,0.224" style="fill:#231f20;fill-rule:nonzero;"/><path d="M40.661,5.207c5.138,1.648 10.5,2.741 15.851,3.429c1.556,0.2 6.007,1.276 7.253,-0.277c0.337,-0.421 -0.257,-1.023 -0.599,-0.598c-1.397,1.737 -9.185,-0.318 -10.762,-0.588c-3.89,-0.669 -7.774,-1.504 -11.574,-2.58c-0.396,-0.113 -0.558,0.489 -0.169,0.614" style="fill:#231f20;fill-rule:nonzero;"/><path d="M37.104,80.558c-0.124,0.448 -0.137,0.918 -0.179,1.38c-0.031,0.349 -0.088,0.707 0.055,1.04c0.297,0.695 1.218,0.894 1.884,0.97c0.718,0.081 1.275,0.033 1.621,-0.654c0.354,-0.705 0.731,-1.735 0.616,-2.529c-0.066,-0.461 -0.735,-0.305 -0.767,0.105c-0.041,0.514 -0.208,1.012 -0.369,1.5c-0.084,0.254 -0.128,0.478 -0.346,0.653c-0.286,0.228 -0.555,0.156 -0.912,0.099c-0.624,-0.097 -1.038,-0.231 -1.114,-0.922c-0.056,-0.519 0.098,-1.048 0.032,-1.571c-0.034,-0.279 -0.435,-0.383 -0.521,-0.071" style="fill:#231f20;fill-rule:nonzero;"/><path d="M0.905,72.907c0.002,-0.021 0.005,-0.041 0.007,-0.062c0.149,-0.209 -0.197,-0.41 -0.344,-0.202c-0.679,0.962 0.301,2.77 1.145,3.346c0.449,0.308 1.031,0.453 1.561,0.285c0.677,-0.214 0.747,-0.796 1.036,-1.352c0.238,-0.458 -0.465,-0.865 -0.691,-0.404c-0.173,0.35 -0.234,0.883 -0.633,1.023c-0.428,0.149 -0.893,-0.153 -1.175,-0.452c-0.598,-0.639 -0.758,-1.57 -0.879,-2.398c-0.111,0.065 -0.222,0.13 -0.333,0.195c0.079,0.073 0.104,0.085 0.209,0.118c0.055,0.016 0.117,-0.04 0.097,-0.097" style="fill:#231f20;fill-rule:nonzero;"/></g></svg>