<?xml version="1.0" encoding="UTF-8" standalone="no"?><!DOCTYPE svg PUBLIC "-//W3C//DTD SVG 1.1//EN" "http://www.w3.org/Graphics/SVG/1.1/DTD/svg11.dtd"><svg width="100%" height="100%" viewBox="0 0 108 72" version="1.1" xmlns="http://www.w3.org/2000/svg" xmlns:xlink="http://www.w3.org/1999/xlink" xml:space="preserve" xmlns:serif="http://www.serif.com/" style="fill-rule:evenodd;clip-rule:evenodd;stroke-linejoin:round;stroke-miterlimit:2;"><g><path d="M7.064,2.747c1.372,-1.153 4.195,-1.233 5.84,-1.37c4.222,-0.351 8.676,-0.208 12.853,0.516c3.263,0.564 5.499,2.418 5.512,5.976c0.008,2.385 -1.005,9.111 -4.275,9.265c-3.115,0.145 -1.146,-7.444 -4.051,-8.987c-0.109,-0.057 -0.214,-0.061 -0.307,-0.037c-0.084,-0.083 -0.201,-0.129 -0.349,-0.085c-1.389,0.414 -3.309,-0.284 -4.785,-0.241c-1.114,0.418 -2.149,0.371 -3.104,-0.14c-0.069,-0.018 -0.137,-0.018 -0.206,-0c-1.343,0.209 -2.493,0.707 -3.877,0.738c-0.016,-0.019 -0.028,-0.039 -0.05,-0.056c-1.471,-1.094 -5.567,-3.589 -3.201,-5.579" style="fill:#39b54a;fill-rule:nonzero;"/><path d="M26.451,57.404c-0.036,-0.04 -0.072,-0.079 -0.127,-0.11c-2.614,-1.476 -2.287,-4.81 -0.852,-7.009c0.024,-0.011 0.049,-0.019 0.071,-0.033c0.804,0.819 1.504,1.76 2.356,2.508c-0.479,0.329 -0.66,1.12 -0.594,1.652c0.057,0.45 0.279,0.866 0.606,1.18c0.162,0.156 0.353,0.289 0.556,0.384c0.053,0.026 0.627,0.193 0.557,0.283c-0.041,0.053 -0.054,0.113 -0.048,0.171c-0.276,0.061 -0.554,0.142 -0.835,0.248c-0.562,0.213 -1.132,0.455 -1.69,0.726" style="fill:#be1e2d;fill-rule:nonzero;"/><path d="M23.696,55.757c-0.366,-0.092 -0.75,-0.203 -1.027,-0.439c-0.562,-0.478 -0.619,-1.094 -0.3,-1.728c0.187,-0.372 0.481,-0.699 0.841,-0.91c0.086,-0.051 0.161,-0.086 0.23,-0.116c-0.194,1.093 -0.127,2.206 0.256,3.193" style="fill:#f7931d;fill-rule:nonzero;"/><path d="M23.615,51.818c-0.996,-0.258 -2.051,1.434 -2.173,2.216c-0.237,1.513 1.106,2.365 2.469,2.503c0.058,0.006 0.107,-0.005 0.152,-0.024c0.169,0.276 0.377,0.533 0.611,0.773c-1.812,1.177 -4.224,0.3 -4.741,-1.896c-0.625,-2.658 1.716,-4.261 4.016,-4.515c-0.132,0.306 -0.243,0.622 -0.334,0.943" style="fill:#f7931d;fill-rule:nonzero;"/><path d="M21.779,16.621c0.4,10.547 2.085,21.323 4.62,31.556c0.038,0.155 0.135,0.239 0.248,0.276c0.009,0.017 0.013,0.033 0.026,0.049c0.772,0.936 1.715,1.772 2.798,2.332c0.123,0.665 0.245,1.33 0.369,1.995c0.001,0.008 0.006,0.012 0.008,0.02c-0.028,0.085 -0.066,0.169 -0.09,0.257c-1.721,-0.595 -2.606,-2.329 -4.051,-3.333c-0.104,-0.432 -0.208,-0.864 -0.312,-1.297c0.054,-0.151 0.033,-0.321 -0.101,-0.416c-2.459,-10.188 -4.841,-20.275 -5.494,-30.784c0.66,-0.039 1.367,-0.283 1.979,-0.655" style="fill:#f7931d;fill-rule:nonzero;"/><path d="M29.812,56.245c0.008,0.021 0.018,0.043 0.025,0.064c-0.014,0.001 -0.028,-0 -0.044,0.001c0.008,-0.021 0.015,-0.043 0.019,-0.065" style="fill:#231f20;fill-rule:nonzero;"/><path d="M30.422,51.515c-2.062,-11.096 -3.889,-22.171 -3.982,-33.486c0.667,0.058 1.382,-0.069 2.016,-0.325c-0.134,10.58 1.012,21.417 3.035,31.796c0.031,0.158 0.123,0.243 0.232,0.28c-0.021,0.021 -0.046,0.038 -0.067,0.059c-0.473,0.484 -0.89,1.057 -1.234,1.676" style="fill:#f7931d;fill-rule:nonzero;"/><path d="M18.47,15.604c-0.898,-1.896 -0.563,-4.337 -2.846,-5.327c-0.094,-0.041 -0.185,-0.041 -0.269,-0.026c-0.083,-0.081 -0.2,-0.126 -0.347,-0.083c-1.221,0.365 -2.937,-0.249 -4.237,-0.208c-0.973,0.361 -1.875,0.319 -2.708,-0.128c-0.068,-0.018 -0.137,-0.018 -0.205,0c-1.175,0.182 -2.191,0.606 -3.397,0.648c-0.937,-0.72 -4.39,-2.776 -3.427,-4.373c0.776,-1.285 3.334,-1.481 4.714,-1.627c0.395,1.493 2.13,3.096 3.997,4.247c0.019,0.084 0.063,0.158 0.167,0.174c1.008,0.157 1.79,0.096 2.797,-0.021c1.286,-0.149 2.368,-0.011 3.634,0.029c1.173,0.036 2.319,-0.327 3.524,-0.155c0.793,0.116 1.279,0.245 1.917,0.17c0.403,1.776 1.495,4.493 0.513,6.11c-0.702,1.157 -3.103,2.097 -3.827,0.57" style="fill:#39b54a;fill-rule:nonzero;"/><path d="M15.817,56.223c-0.646,-2.238 0.271,-4.819 2.032,-6.219c1.201,-0.954 3.249,-2.146 4.814,-1.972c0.019,0.003 0.038,0.009 0.057,0.012c-2.664,0.541 -5.077,2.632 -5.869,5.23c-0.688,2.255 0.203,4.331 1.801,5.697c-1.282,-0.481 -2.39,-1.206 -2.835,-2.748" style="fill:#6f7784;fill-rule:nonzero;"/><path d="M17.896,52.839c1.149,-2.507 3.924,-4.408 6.722,-4.109c0.065,0.269 0.13,0.539 0.195,0.809c-0.099,0.036 -0.193,0.095 -0.265,0.206c-0.124,0.193 -0.238,0.395 -0.346,0.6c-0.018,-0.007 -0.023,-0.025 -0.046,-0.027c-2.812,-0.399 -5.46,2.189 -4.926,5.042c0.523,2.792 3.694,4.122 5.992,2.43c0.005,-0.003 0.006,-0.008 0.01,-0.011c0.073,0.053 0.153,0.101 0.23,0.152c-0.86,0.508 -1.65,1.119 -2.283,1.867c-3.641,0.056 -6.946,-3.332 -5.283,-6.959" style="fill:#666d72;fill-rule:nonzero;"/><path d="M23.623,68.195c-1.852,-1.995 -1.388,-5.826 0.202,-7.771c1.126,-1.377 2.949,-2.414 4.648,-2.959c0.735,-0.237 1.403,-0.298 2.048,-0.259c-3.436,0.686 -6.79,3.95 -6.931,7.441c-0.078,1.937 0.967,3.724 2.473,4.949c-0.919,-0.298 -1.792,-0.703 -2.44,-1.401" style="fill:#6f7784;fill-rule:nonzero;"/><path d="M35.65,67.948c-2.515,2.856 -6.63,3.324 -9.449,0.643c-5.336,-5.077 2.888,-13.147 8.348,-9.76c0.021,0.045 0.052,0.086 0.097,0.123c2.932,2.443 3.658,5.979 1.004,8.994" style="fill:#666d72;fill-rule:nonzero;"/><path d="M77.626,59.721c0.269,0.008 0.538,0.019 0.807,0.028c0.306,0.384 0.644,0.717 0.997,1.022c-0.668,-0.238 -1.292,-0.55 -1.804,-1.05" style="fill:#231f20;fill-rule:nonzero;"/><path d="M79.546,59.788c1.921,0.088 3.842,0.229 5.764,0.423c-0.01,0.022 -0.024,0.041 -0.034,0.064c-0.151,0.365 -0.269,0.721 -0.369,1.071c-2.048,0.571 -3.93,-0.115 -5.361,-1.558" style="fill:#666d72;fill-rule:nonzero;"/><path d="M98.743,66.814c-2.515,2.856 -6.63,3.324 -9.449,0.643c-5.335,-5.077 2.887,-13.147 8.348,-9.76c0.021,0.044 0.052,0.086 0.096,0.123c2.933,2.443 3.658,5.979 1.005,8.994" style="fill:#666d72;fill-rule:nonzero;"/><path d="M91.565,56.331c0.735,-0.236 1.403,-0.298 2.049,-0.259c-3.437,0.687 -6.791,3.95 -6.931,7.442c-0.078,1.936 0.967,3.723 2.472,4.949c-0.919,-0.299 -1.791,-0.703 -2.44,-1.402c-1.851,-1.995 -1.387,-5.826 0.203,-7.771c1.126,-1.377 2.948,-2.413 4.647,-2.959" style="fill:#6f7784;fill-rule:nonzero;"/><path d="M84.373,55.959c-0.996,-0.445 -2.021,-0.812 -3.064,-1.127c0.955,-1.182 2.399,-1.867 3.967,-1.411c1.305,0.379 2.135,1.78 2.055,3.06c-0.947,-0.09 -1.896,-0.178 -2.843,-0.246c0.029,-0.106 0.01,-0.221 -0.115,-0.276" style="fill:#f7931d;fill-rule:nonzero;"/><path d="M89.274,56.407c-0.151,0.078 -0.301,0.159 -0.449,0.242c-0.044,-0.017 -0.087,-0.039 -0.141,-0.044c-0.264,-0.029 -0.53,-0.046 -0.795,-0.073c0.138,-1.551 -0.875,-3.255 -2.462,-3.66c-1.52,-0.39 -4.106,0.051 -4.517,1.844c-0.612,-0.175 -1.228,-0.337 -1.852,-0.474c1.794,-2.802 5.104,-4.25 7.89,-2.511c0.013,0.016 0.019,0.033 0.036,0.047c1.477,1.265 2.466,2.646 2.29,4.629" style="fill:#666d72;fill-rule:nonzero;"/><path d="M81.009,50.804c0.719,-0.321 1.35,-0.451 1.953,-0.474c-1.924,0.592 -3.741,2.077 -4.745,3.745c-0.347,-0.067 -0.695,-0.13 -1.045,-0.187c0.809,-1.531 2.268,-2.383 3.837,-3.084" style="fill:#6f7784;fill-rule:nonzero;"/><path d="M82.953,56.144c-8.179,-0.481 -16.359,-0.177 -24.55,0.391c-4.897,0.339 -9.788,0.755 -14.686,1.075c-1.47,0.096 -6.992,1.032 -8.199,-1.389c15.604,-1.839 32.042,-4.038 47.435,-0.077" style="fill:#be1e2d;fill-rule:nonzero;"/><path d="M99.655,32.905c-2.988,5.204 -5.709,11.851 -11.834,13.676c-14.631,4.36 -30.519,0.803 -45.428,3.105c-2.966,-0.104 -7.38,0.944 -8.341,4.245c-0.832,2.859 1.295,4.549 3.854,4.906c3.665,0.509 7.995,-0.379 11.684,-0.657c4.242,-0.318 8.482,-0.655 12.729,-0.909c8.42,-0.503 16.82,-0.604 25.216,0.217c-0.663,0.503 -1.251,1.088 -1.709,1.779c-16.161,-1.718 -32.219,0.739 -48.342,1.697c-0.433,-0.861 -1.065,-1.649 -1.888,-2.31c-0.308,-0.318 -0.637,-0.589 -0.985,-0.807c0.017,-0.125 -0.027,-0.254 -0.162,-0.325c-1.163,-0.608 -2.338,-1.054 -3.538,-1.183c-1.168,-2.324 0.546,-5.124 2.395,-6.508c1.953,-1.461 4.389,-2.073 6.785,-2.266c0.115,-0.009 0.204,-0.054 0.281,-0.11c8.486,-1.076 17.177,-0.746 25.71,-1.017c7.271,-0.23 16.524,0.269 23.287,-2.949c4.934,-2.348 7.99,-10.436 10.287,-14.987c1.59,-3.153 6.607,-11.962 1.77,-14.526c-0.014,-0.012 -0.035,-0.019 -0.052,-0.03c-0.007,-0.004 -0.014,-0.009 -0.022,-0.013c-0.005,-0.003 -0.01,-0.002 -0.015,-0.004c-0.03,-0.013 -0.052,-0.031 -0.087,-0.039c-22.57,-5.007 -46.292,-8.502 -69.456,-8.318c-0.282,-0.993 -0.752,-1.799 -1.381,-2.442c25.032,1.206 49.712,3.622 74.167,9.347c5.905,3.006 -2.924,16.945 -4.925,20.428" style="fill:#ef3f36;fill-rule:nonzero;"/><path d="M31.738,65.084c-0.624,0.506 -1.579,0.644 -2.112,-0.072c-0.478,-0.644 -0.145,-1.334 0.384,-1.814c0.623,-0.564 1.286,-0.612 2.026,-0.272c0.023,0.022 0.039,0.048 0.07,0.067c0.714,0.457 0.081,1.727 -0.368,2.091" style="fill:#f7931d;fill-rule:nonzero;"/><path d="M94.828,63.947c-0.622,0.504 -1.573,0.642 -2.104,-0.073c-0.478,-0.641 -0.146,-1.329 0.381,-1.807c0.621,-0.562 1.283,-0.61 2.02,-0.271c0.022,0.022 0.039,0.047 0.069,0.067c0.711,0.455 0.081,1.721 -0.366,2.084" style="fill:#f7931d;fill-rule:nonzero;"/><g opacity="0.2"><path d="M11.833,4.748c3.169,-0.196 6.347,-0.213 9.521,-0.176c1.577,0.019 3.153,0.051 4.73,0.08c0.789,0.015 1.573,0.016 2.362,-0.002c0.679,-0.014 1.358,0.009 2.031,0.104c-0.925,-1.571 -2.599,-2.495 -4.72,-2.861c-4.177,-0.724 -8.631,-0.867 -12.852,-0.516c-1.646,0.137 -4.469,0.217 -5.841,1.37c-0.943,0.794 -0.852,1.667 -0.316,2.5c1.688,-0.229 3.384,-0.394 5.085,-0.499" style="fill:#fff;fill-rule:nonzero;"/></g><g opacity="0.2"><path d="M6.748,6.236c-0.487,-0.58 -0.847,-1.176 -1,-1.756c-1.38,0.147 -3.938,0.342 -4.714,1.627c-0.05,0.083 -0.081,0.168 -0.109,0.254c1.941,-0.066 3.882,-0.115 5.823,-0.125" style="fill:#fff;fill-rule:nonzero;"/></g><g opacity="0.2"><path d="M35.275,66.723c-0.062,0.012 -0.126,-0.028 -0.126,-0.097c0.001,-0.906 0.118,-1.9 -0.307,-2.736c-0.558,0.24 -1.058,0.596 -1.577,0.908c-0.077,0.047 -0.166,-0.03 -0.147,-0.113c0.08,-0.333 0.057,-0.704 -0.253,-0.909c-0.313,-0.208 -0.728,-0.203 -1.086,-0.16c-0.083,0.009 -0.114,-0.091 -0.086,-0.151c0.132,-0.291 0.276,-0.577 0.408,-0.868c0.196,-0.436 0.439,-0.969 0.346,-1.46c-0.112,-0.6 -0.77,-0.79 -1.293,-0.875c-0.094,-0.016 -0.083,-0.138 -0.024,-0.183c0.49,-0.368 0.969,-0.751 1.457,-1.121c-0.317,-0.361 -0.692,-0.678 -1.109,-0.919c-2.774,0.104 -5.518,2.148 -6.561,4.668c0.184,0.207 0.519,0.181 0.774,0.12c0.435,-0.102 0.846,-0.293 1.252,-0.475c0.074,-0.032 0.141,0.008 0.15,0.087c0.047,0.385 0.22,0.753 0.606,0.888c0.378,0.133 0.804,0.066 1.182,-0.028c0.063,-0.015 0.126,0.03 0.127,0.097c0.002,0.253 0.036,0.556 0.254,0.72c0.172,0.13 0.407,0.142 0.613,0.136c0.515,-0.015 1.028,-0.179 1.545,-0.119c0.047,0.006 0.08,0.027 0.097,0.073c0.165,0.453 0.193,0.939 0.045,1.4c-0.139,0.431 -0.411,0.802 -0.721,1.129c0.091,0.09 0.18,0.182 0.288,0.25c0.076,0.047 0.156,0.084 0.239,0.115c0.097,0.037 0.13,0.051 0.174,0.148c0.046,0.102 0.082,0.204 0.102,0.314c0.015,0.081 0.042,0.133 0.097,0.195c0.042,0.048 0.115,0.097 0.135,0.158c0.015,0.049 0.003,0.118 0.003,0.168c-0.001,0.124 -0.002,0.247 -0.003,0.371c-0.003,0.242 -0.005,0.483 0,0.723c0.005,0.337 0.032,0.68 0.102,1.012c1.358,-0.32 2.648,-1.078 3.672,-2.241c0.431,-0.491 0.764,-0.995 1.022,-1.504c-0.466,0.092 -0.931,0.185 -1.397,0.279" style="fill:#fff;fill-rule:nonzero;"/></g><g opacity="0.2"><path d="M98.928,65.418c-0.167,0.241 -0.352,0.473 -0.559,0.682c-0.078,0.078 -0.223,-0.029 -0.156,-0.121c0.005,-0.007 0.011,-0.014 0.016,-0.021c0.001,-0.001 0.002,-0.003 0.003,-0.004c0.166,-0.229 0.347,-0.45 0.54,-0.66c0.269,-0.392 0.458,-0.827 0.488,-1.31c-0.654,0.027 -1.286,0.225 -1.892,0.466c-0.045,0.018 -0.115,-0.02 -0.123,-0.07c-0.077,-0.527 -0.251,-1.192 -0.817,-1.388c-0.549,-0.189 -1.185,0.052 -1.691,0.262c-0.075,0.03 -0.14,-0.057 -0.123,-0.123c0.058,-0.236 0.109,-0.474 0.148,-0.714c0.07,-0.432 0.127,-0.911 0.007,-1.339c-0.046,-0.163 -0.127,-0.328 -0.278,-0.418c-0.178,-0.107 -0.398,-0.085 -0.592,-0.038c-0.073,0.017 -0.145,-0.048 -0.123,-0.123c0.24,-0.811 0.891,-1.403 1.619,-1.794c-0.152,-0.177 -0.29,-0.376 -0.496,-0.486c-0.052,-0.029 -0.057,-0.089 -0.036,-0.137c0.161,-0.371 0.281,-0.767 0.316,-1.17c-0,-0.001 -0.001,-0.001 -0,-0.002c-3.522,-0.241 -7.19,2.841 -7.574,6.206c0.553,0.533 1.815,-0.388 2.249,-0.748c0.078,-0.064 0.185,-0.003 0.167,0.098c-0.087,0.48 0.157,0.864 0.32,1.288c0.712,-0.143 1.29,-0.648 1.859,-1.065c0.08,-0.059 0.16,-0.117 0.242,-0.172c0.086,-0.06 0.119,-0.064 0.216,-0.023c0.143,0.06 0.279,0.131 0.418,0.196c0.304,0.142 0.576,0.114 0.889,0.012c0.057,-0.018 0.135,0.032 0.127,0.096c-0.107,0.875 -0.125,1.778 0.098,2.637c0.296,-0.058 0.577,0.009 0.879,0.015c0.063,0.001 0.115,0.063 0.096,0.126c-0.122,0.411 -0.38,0.748 -0.625,1.092c-0.257,0.359 -0.469,0.738 -0.547,1.175l0.597,-0c0.041,-0 0.089,0.031 0.097,0.073c0.067,0.391 0.253,0.739 0.597,0.949c0.063,0.039 0.135,0.053 0.202,0.082c1.205,-0.368 2.338,-1.089 3.257,-2.133c0.656,-0.744 1.103,-1.52 1.364,-2.304c-0.451,0.214 -0.838,0.538 -1.179,0.908" style="fill:#fff;fill-rule:nonzero;"/></g><g opacity="0.2"><path d="M32.898,4.091c2.978,0.107 5.934,0.518 8.902,0.763c3.025,0.249 6.067,0.244 9.099,0.367c5.951,0.24 11.907,0.564 17.811,1.382c5.824,0.805 11.589,1.973 17.349,3.143c2.907,0.59 5.815,1.181 8.73,1.726c1.303,0.243 2.603,0.465 3.917,0.64c1.167,0.157 2.339,0.326 3.469,0.667c1.031,0.312 2.002,0.776 2.788,1.523c0.712,0.676 1.231,1.525 1.577,2.441c0.008,0.023 0.014,0.047 0.023,0.07c0.112,-1.951 -0.408,-3.534 -1.983,-4.335c-24.455,-5.726 -49.136,-8.142 -74.167,-9.348c0.276,0.282 0.515,0.602 0.727,0.948c0.586,-0.006 1.172,-0.008 1.758,0.013" style="fill:#fff;fill-rule:nonzero;"/></g><g opacity="0.2"><path d="M46.163,48.346c5.193,-0.135 10.389,-0.197 15.581,-0.404c2.637,-0.106 5.273,-0.25 7.902,-0.464c2.382,-0.194 4.766,-0.416 7.113,-0.875c0.955,-0.187 1.907,-0.414 2.852,-0.673c-4.601,0.479 -9.386,0.377 -13.529,0.508c-8.533,0.27 -17.224,-0.06 -25.71,1.016c-0.077,0.057 -0.166,0.102 -0.281,0.111c-2.396,0.192 -4.832,0.804 -6.784,2.265c-1.208,0.905 -2.353,2.413 -2.68,3.998c1.375,-2.423 4.114,-3.709 6.713,-4.412c2.867,-0.774 5.864,-0.993 8.823,-1.07" style="fill:#fff;fill-rule:nonzero;"/></g><path d="M39.197,38.99c-3.616,0.071 -7.657,3.828 -3.709,4.905c3.948,1.076 7.776,0.837 16.51,0.24c8.734,-0.599 12.562,0 20.578,-0.838c8.016,-0.837 10.05,0 13.399,-2.034c3.351,-2.034 6.701,-6.58 6.701,-6.58c0,0 7.776,-9.81 7.058,-13.998c-0.718,-4.187 0.957,-5.383 -5.742,-5.504c-6.7,-0.119 -15.075,0.36 -18.664,6.102c-3.589,5.743 -1.317,8.734 -8.614,6.58c-7.298,-2.153 -16.51,-3.35 -18.784,0.599c-2.273,3.948 -2.631,10.408 -8.733,10.528" style="fill:#aae1fa;fill-rule:nonzero;"/><path d="M10.265,8.326c-1.471,-1.094 -5.567,-3.589 -3.201,-5.578c1.372,-1.154 4.195,-1.234 5.841,-1.371c4.221,-0.35 8.675,-0.208 12.852,0.515c3.263,0.565 5.5,2.419 5.512,5.977c0.008,2.385 -1.004,9.111 -4.275,9.265c-3.115,0.145 -1.145,-7.444 -4.05,-8.987c-0.485,-0.257 -0.9,0.448 -0.431,0.738c3.062,1.89 0.306,6.036 2.253,8.374c1.134,1.361 3.931,0.808 4.994,-0.413c1.926,-2.213 2.714,-7.722 2.212,-10.568c-0.521,-2.954 -2.519,-4.45 -5.331,-5.071c-5.442,-1.201 -12.465,-1.557 -17.878,-0.041c-5.762,1.613 -2.423,5.541 1.19,7.693c0.35,0.208 0.623,-0.302 0.312,-0.533" style="fill:#231f20;fill-rule:nonzero;"/><path d="M9.912,8.902c1.007,0.156 1.79,0.095 2.797,-0.021c1.286,-0.15 2.368,-0.012 3.634,0.028c1.173,0.036 2.319,-0.327 3.524,-0.153c1.058,0.152 1.569,0.332 2.626,0.016c0.476,-0.141 0.273,-0.89 -0.206,-0.747c-1.389,0.414 -3.309,-0.284 -4.784,-0.241c-1.115,0.418 -2.15,0.371 -3.105,-0.14c-0.069,-0.018 -0.137,-0.018 -0.206,0c-1.45,0.226 -2.673,0.795 -4.21,0.742c-0.289,-0.01 -0.367,0.469 -0.07,0.516" style="fill:#231f20;fill-rule:nonzero;"/><path d="M21.722,8.661c0.344,1.761 1.604,4.678 0.574,6.373c-0.702,1.157 -3.103,2.098 -3.827,0.57c-0.898,-1.895 -0.563,-4.337 -2.845,-5.327c-0.49,-0.212 -0.922,0.459 -0.431,0.738c1.584,0.897 1.763,2.47 2.201,4.077c0.276,1.008 0.712,2.029 1.871,2.172c1.429,0.175 3.372,-0.806 3.924,-2.146c0.834,-2.026 -0.271,-4.671 -0.67,-6.677c-0.103,-0.521 -0.899,-0.3 -0.797,0.22" style="fill:#231f20;fill-rule:nonzero;"/><path d="M4.48,10.496c-0.911,-0.708 -4.416,-2.782 -3.446,-4.389c0.805,-1.335 3.546,-1.495 4.88,-1.644c0.531,-0.06 0.537,-0.9 0,-0.84c-1.7,0.188 -4.863,0.396 -5.706,2.252c-0.99,2.183 2.435,4.295 3.898,5.105c0.293,0.162 0.661,-0.261 0.374,-0.484" style="fill:#231f20;fill-rule:nonzero;"/><path d="M4.08,11.016c0.896,0.146 1.593,0.096 2.49,-0.007c1.133,-0.129 2.083,-0.005 3.198,0.028c1.035,0.032 2.038,-0.291 3.102,-0.137c0.94,0.137 1.402,0.296 2.343,0.015c0.476,-0.142 0.274,-0.889 -0.206,-0.747c-1.219,0.365 -2.936,-0.249 -4.237,-0.208c-0.972,0.361 -1.875,0.319 -2.707,-0.129c-0.068,-0.017 -0.137,-0.017 -0.206,0c-1.276,0.199 -2.356,0.705 -3.707,0.669c-0.289,-0.007 -0.367,0.467 -0.07,0.516" style="fill:#231f20;fill-rule:nonzero;"/><path d="M42.414,49.686c-2.966,-0.109 -7.399,0.936 -8.362,4.245c-0.832,2.859 1.295,4.549 3.854,4.905c3.664,0.51 7.995,-0.379 11.684,-0.656c4.241,-0.318 8.483,-0.655 12.729,-0.909c8.803,-0.525 17.587,-0.625 26.365,0.324c0.633,0.069 0.628,-0.923 0,-0.99c-10.089,-1.092 -20.178,-0.77 -30.281,-0.07c-4.897,0.339 -9.788,0.755 -14.686,1.075c-1.918,0.125 -10.741,1.687 -7.869,-4.652c0.868,-1.917 4.848,-2.251 6.566,-2.189c0.697,0.024 0.696,-1.058 0,-1.083" style="fill:#231f20;fill-rule:nonzero;"/><path d="M104.525,12.444c6.022,2.943 -2.862,16.966 -4.87,20.461c-2.988,5.204 -5.709,11.851 -11.834,13.676c-14.671,4.373 -30.607,0.78 -45.551,3.122c-0.69,0.107 -0.398,1.159 0.289,1.05c9.32,-1.483 19.068,-0.706 28.472,-1.106c6.284,-0.266 16.433,0.182 21.619,-4.2c2.039,-1.723 3.385,-4.625 4.764,-6.859c2.375,-3.846 4.615,-7.781 6.544,-11.873c1.641,-3.484 6.266,-12.452 1.001,-15.013c-0.496,-0.24 -0.932,0.499 -0.434,0.742" style="fill:#231f20;fill-rule:nonzero;"/><path d="M30.062,3.112c25.168,1.201 49.981,3.616 74.566,9.376c0.539,0.126 0.768,-0.709 0.228,-0.829c-24.446,-5.447 -49.695,-9.187 -74.794,-9c-0.293,0.002 -0.29,0.439 -0,0.453" style="fill:#231f20;fill-rule:nonzero;"/><path d="M100.919,14.676c5.431,2.758 -3.521,16.231 -5.447,19.434c-1.319,2.19 -2.599,4.77 -4.274,6.714c-1.82,2.116 -4.662,2.657 -7.314,3.151c-14.43,2.686 -29.296,0.565 -43.793,2.422c-0.687,0.088 -0.694,1.18 -0,1.09c8.575,-1.121 17.364,-0.775 25.992,-1.048c7.271,-0.23 16.524,0.268 23.286,-2.95c4.935,-2.347 7.99,-10.435 10.287,-14.987c1.599,-3.169 6.665,-12.057 1.697,-14.568c-0.493,-0.249 -0.928,0.491 -0.434,0.742" style="fill:#231f20;fill-rule:nonzero;"/><path d="M31.547,6.025c23.35,1.171 46.663,3.353 69.475,8.694c0.539,0.126 0.768,-0.71 0.228,-0.829c-22.649,-5.025 -46.46,-8.529 -69.703,-8.318c-0.293,0.003 -0.29,0.438 -0,0.453" style="fill:#231f20;fill-rule:nonzero;"/><path d="M42.414,49.686c-2.966,-0.109 -7.399,0.936 -8.362,4.245c-0.832,2.859 1.295,4.549 3.854,4.905c3.664,0.51 7.995,-0.379 11.684,-0.656c4.241,-0.318 8.483,-0.655 12.729,-0.909c8.803,-0.525 17.587,-0.625 26.365,0.324c0.633,0.069 0.628,-0.923 0,-0.99c-10.089,-1.092 -20.178,-0.77 -30.281,-0.07c-4.897,0.339 -9.788,0.755 -14.686,1.075c-1.918,0.125 -10.741,1.687 -7.869,-4.652c0.868,-1.917 4.848,-2.251 6.566,-2.189c0.697,0.024 0.696,-1.058 0,-1.083" style="fill:#231f20;fill-rule:nonzero;"/><path d="M37.322,61.971c16.193,-1.007 32.352,-3.445 48.583,-1.706c0.633,0.067 0.628,-0.924 0,-0.991c-16.242,-1.74 -32.379,0.747 -48.583,1.7c-0.639,0.038 -0.642,1.037 0,0.997" style="fill:#231f20;fill-rule:nonzero;"/><path d="M40.091,46.483c-3.045,0.24 -6.235,1.111 -8.434,3.356c-1.737,1.774 -2.83,4.706 -1.604,7.011c0.303,0.569 1.15,0.067 0.862,-0.504c-1.176,-2.325 0.541,-5.13 2.392,-6.515c1.952,-1.461 4.388,-2.074 6.784,-2.266c0.689,-0.055 0.696,-1.138 -0,-1.082" style="fill:#231f20;fill-rule:nonzero;"/><path d="M24.548,49.745c-1.733,2.68 -1.87,6.706 1.272,8.41c0.564,0.306 1.064,-0.545 0.503,-0.861c-2.613,-1.476 -2.286,-4.81 -0.851,-7.009c0.376,-0.578 -0.551,-1.117 -0.924,-0.54" style="fill:#231f20;fill-rule:nonzero;"/><path d="M36.259,59.461c-3.782,-5.536 -12.441,-0.468 -12.668,5.187c-0.128,3.179 2.764,5.968 5.77,6.501c2.978,0.529 6.017,-1.131 7.639,-3.594c2.113,-3.206 1.281,-7.076 -1.857,-9.244c-0.379,-0.263 -0.856,0.344 -0.497,0.643c2.932,2.444 3.658,5.98 1.005,8.994c-2.516,2.857 -6.63,3.325 -9.45,0.643c-5.753,-5.473 4.26,-14.438 9.574,-8.756c0.235,0.252 0.684,-0.081 0.484,-0.374" style="fill:#231f20;fill-rule:nonzero;"/><path d="M32.239,62.769c-1.23,-1.905 -4.655,1.066 -2.777,2.783c0.841,0.77 2.052,0.493 2.808,-0.241c0.702,-0.682 0.944,-2.18 0.018,-2.772c-0.392,-0.251 -0.755,0.373 -0.364,0.623c0.606,0.387 0.069,1.464 -0.311,1.774c-0.53,0.429 -1.34,0.546 -1.792,-0.062c-0.406,-0.545 -0.124,-1.131 0.325,-1.539c0.536,-0.486 1.108,-0.524 1.747,-0.22c0.211,0.099 0.494,-0.117 0.346,-0.346" style="fill:#231f20;fill-rule:nonzero;"/><path d="M28.392,70.234c-1.615,-0.449 -3.572,-0.75 -4.77,-2.039c-1.851,-1.995 -1.387,-5.826 0.203,-7.772c1.126,-1.377 2.948,-2.413 4.647,-2.959c2.124,-0.682 3.7,0.036 5.711,0.688c0.369,0.12 0.612,-0.448 0.266,-0.63c-2.043,-1.069 -4.122,-1.672 -6.308,-0.844c-2.384,0.905 -4.93,2.252 -5.957,4.731c-2.15,5.182 1.03,8.863 6.14,9.328c0.293,0.026 0.339,-0.428 0.068,-0.503" style="fill:#231f20;fill-rule:nonzero;"/><path d="M25.138,47.999c-3.498,-0.629 -7.257,1.902 -8.287,5.275c-1.232,4.039 2.598,7.509 6.492,7.34c0.522,-0.022 0.524,-0.837 -0,-0.813c-3.705,0.163 -7.135,-3.281 -5.447,-6.962c1.192,-2.599 4.131,-4.555 7.031,-4.074c0.498,0.082 0.716,-0.676 0.211,-0.766" style="fill:#231f20;fill-rule:nonzero;"/><path d="M20.933,59.665c-2.081,-0.608 -4.417,-1.017 -5.116,-3.441c-0.646,-2.239 0.271,-4.82 2.032,-6.219c1.201,-0.954 3.249,-2.147 4.814,-1.972c0.758,0.084 1.477,0.55 2.248,0.497c0.334,-0.022 0.476,-0.456 0.173,-0.641c-3.273,-2.008 -8.321,0.631 -9.73,3.84c-2.039,4.645 0.92,8.082 5.511,8.439c0.295,0.022 0.338,-0.424 0.068,-0.503" style="fill:#231f20;fill-rule:nonzero;"/><path d="M99.351,58.327c-3.781,-5.536 -12.44,-0.468 -12.669,5.187c-0.128,3.179 2.765,5.968 5.771,6.501c2.978,0.529 6.017,-1.131 7.639,-3.594c2.113,-3.206 1.28,-7.076 -1.857,-9.245c-0.379,-0.262 -0.856,0.345 -0.497,0.644c2.932,2.444 3.658,5.98 1.005,8.994c-2.515,2.857 -6.63,3.325 -9.45,0.643c-5.753,-5.473 4.26,-14.438 9.574,-8.756c0.235,0.252 0.684,-0.081 0.484,-0.374" style="fill:#231f20;fill-rule:nonzero;"/><path d="M95.332,61.636c-1.23,-1.905 -4.655,1.066 -2.777,2.783c0.841,0.77 2.051,0.493 2.808,-0.241c0.702,-0.682 0.944,-2.18 0.019,-2.772c-0.393,-0.251 -0.755,0.373 -0.365,0.623c0.606,0.387 0.07,1.464 -0.312,1.774c-0.529,0.429 -1.339,0.546 -1.791,-0.063c-0.406,-0.544 -0.124,-1.13 0.325,-1.538c0.536,-0.486 1.108,-0.524 1.747,-0.22c0.211,0.099 0.494,-0.117 0.346,-0.346" style="fill:#231f20;fill-rule:nonzero;"/><path d="M91.485,69.1c-1.615,-0.449 -3.572,-0.75 -4.77,-2.039c-1.851,-1.995 -1.387,-5.826 0.203,-7.772c1.126,-1.377 2.948,-2.413 4.647,-2.959c2.124,-0.682 3.699,0.036 5.711,0.688c0.369,0.12 0.612,-0.448 0.266,-0.63c-2.042,-1.069 -4.122,-1.673 -6.308,-0.844c-2.384,0.905 -4.93,2.252 -5.958,4.731c-2.149,5.181 1.031,8.863 6.142,9.328c0.292,0.026 0.338,-0.428 0.067,-0.503" style="fill:#231f20;fill-rule:nonzero;"/><path d="M90.109,56.606c0.29,-2.205 -0.784,-4.263 -2.628,-5.472c-0.385,-0.253 -0.852,0.339 -0.497,0.644c1.526,1.307 2.545,2.733 2.279,4.828c-0.069,0.54 0.777,0.532 0.846,0" style="fill:#231f20;fill-rule:nonzero;"/><path d="M78.408,59.721c1.7,2.152 4.187,3.127 6.856,2.412c0.527,-0.141 0.298,-0.975 -0.224,-0.816c-2.385,0.727 -4.554,-0.263 -6.062,-2.166c-0.322,-0.408 -0.889,0.167 -0.57,0.57" style="fill:#231f20;fill-rule:nonzero;"/><path d="M88.453,52.155c-2.792,-4.193 -8.418,-1.375 -10.362,2.122c-0.253,0.454 0.444,0.862 0.696,0.407c1.919,-3.457 6.097,-5.18 9.182,-2.155c0.242,0.238 0.683,-0.074 0.484,-0.374" style="fill:#231f20;fill-rule:nonzero;"/><path d="M76.948,54.345c0.741,-1.831 2.339,-2.771 4.061,-3.54c2.144,-0.959 3.536,-0.311 5.604,0.288c0.375,0.108 0.604,-0.434 0.266,-0.63c-2.003,-1.164 -3.941,-1.417 -6.032,-0.512c-2.075,0.899 -3.856,2 -4.741,4.162c-0.212,0.519 0.633,0.748 0.842,0.232" style="fill:#231f20;fill-rule:nonzero;"/><path d="M81.638,61.439c-1.655,-0.539 -3.516,-0.743 -4.532,-2.349c-0.301,-0.473 -1.06,-0.033 -0.754,0.441c1.093,1.69 3.296,2.345 5.218,2.411c0.297,0.01 0.335,-0.416 0.068,-0.503" style="fill:#231f20;fill-rule:nonzero;"/><path d="M25.863,17.781c-0.296,11.826 1.819,23.469 3.977,35.048c0.096,0.514 0.88,0.296 0.784,-0.217c-2.159,-11.544 -4.119,-23.057 -4.19,-34.831c-0.002,-0.368 -0.562,-0.367 -0.571,0" style="fill:#231f20;fill-rule:nonzero;"/><path d="M28.456,17.496c-0.151,10.646 1,21.558 3.036,32.005c0.105,0.54 0.9,0.304 0.816,-0.226c-1.68,-10.6 -2.655,-21.078 -3.314,-31.779c-0.021,-0.343 -0.533,-0.35 -0.538,-0" style="fill:#231f20;fill-rule:nonzero;"/><path d="M19.19,16.786c0.273,11.347 3.103,22.274 5.743,33.25c0.122,0.509 0.907,0.293 0.785,-0.217c-2.643,-10.949 -5.315,-21.741 -5.957,-33.033c-0.021,-0.364 -0.58,-0.37 -0.571,-0" style="fill:#231f20;fill-rule:nonzero;"/><path d="M21.766,16.372c0.383,10.626 2.078,21.492 4.632,31.805c0.132,0.531 0.928,0.305 0.817,-0.225c-2.208,-10.497 -3.718,-20.924 -4.911,-31.58c-0.038,-0.336 -0.551,-0.354 -0.538,-0" style="fill:#231f20;fill-rule:nonzero;"/><path d="M25.225,49.933c1.431,1.329 2.428,3.171 4.352,3.859c0.43,0.155 0.62,-0.535 0.189,-0.682c-1.819,-0.625 -2.697,-2.531 -4.291,-3.502c-0.198,-0.12 -0.424,0.164 -0.25,0.325" style="fill:#231f20;fill-rule:nonzero;"/><path d="M26.672,48.502c0.783,0.95 1.741,1.799 2.845,2.359c0.426,0.217 0.793,-0.395 0.377,-0.645c-1.023,-0.617 -1.934,-1.31 -2.716,-2.22c-0.302,-0.351 -0.795,0.155 -0.506,0.506" style="fill:#231f20;fill-rule:nonzero;"/><path d="M28.258,52.612c-0.753,0.102 -1.034,1.149 -0.952,1.8c0.057,0.45 0.279,0.866 0.605,1.18c0.162,0.156 0.354,0.289 0.556,0.384c0.053,0.026 0.627,0.193 0.558,0.283c-0.163,0.212 0.106,0.519 0.34,0.444c0.679,-0.219 0.568,-1.012 -0.053,-1.228c-0.617,-0.214 -1.151,-0.312 -1.352,-1.04c-0.192,-0.699 0.283,-1.045 0.437,-1.639c0.021,-0.081 -0.043,-0.197 -0.139,-0.184" style="fill:#231f20;fill-rule:nonzero;"/><path d="M23.854,51.916c-1.059,-0.639 -2.281,1.273 -2.413,2.118c-0.236,1.514 1.106,2.364 2.47,2.503c0.406,0.041 0.478,-0.602 0.095,-0.702c-0.444,-0.116 -0.98,-0.213 -1.338,-0.518c-0.561,-0.477 -0.618,-1.093 -0.299,-1.727c0.187,-0.372 0.481,-0.699 0.841,-0.91c0.336,-0.198 0.512,-0.167 0.718,-0.481c0.062,-0.095 0.018,-0.227 -0.074,-0.283" style="fill:#231f20;fill-rule:nonzero;"/><path d="M24.156,50.317c-2.813,-0.398 -5.46,2.189 -4.926,5.042c0.523,2.793 3.694,4.122 5.991,2.431c0.365,-0.269 0.008,-0.885 -0.357,-0.613c-1.829,1.366 -4.396,0.485 -4.931,-1.787c-0.638,-2.709 1.807,-4.327 4.15,-4.532c0.283,-0.024 0.404,-0.495 0.073,-0.541" style="fill:#231f20;fill-rule:nonzero;"/><path d="M34.948,56.039c0.072,-0 0.072,-0.112 -0,-0.112c-0.072,-0 -0.072,0.112 -0,0.112" style="fill:#231f20;fill-rule:nonzero;"/><path d="M34.952,56.288c16.181,-1.897 33.29,-4.292 49.214,0.162c0.284,0.08 0.492,-0.364 0.207,-0.491c-6.853,-3.06 -14.941,-2.779 -22.285,-2.618c-9.094,0.2 -18.239,0.873 -27.209,2.406c-0.303,0.052 -0.237,0.577 0.073,0.541" style="fill:#231f20;fill-rule:nonzero;"/><path d="M81.216,54.939c0.953,-1.251 2.443,-1.988 4.061,-1.519c1.345,0.391 2.194,1.87 2.053,3.181c-0.034,0.314 0.511,0.391 0.554,0.075c0.217,-1.587 -0.82,-3.386 -2.456,-3.804c-1.546,-0.396 -4.203,0.058 -4.548,1.925c-0.039,0.212 0.21,0.307 0.336,0.142" style="fill:#231f20;fill-rule:nonzero;"/><path d="M83.715,55.003c1.107,-0.225 2.385,0.115 2.27,1.468c-0.03,0.341 0.501,0.398 0.585,0.08c0.187,-0.693 -0.163,-1.419 -0.722,-1.834c-0.669,-0.497 -1.584,-0.486 -2.318,-0.151c-0.259,0.118 -0.066,0.488 0.185,0.437" style="fill:#231f20;fill-rule:nonzero;"/><path d="M23.616,20.362c0.361,0.177 0.756,0.271 1.13,0.416c0.457,0.178 0.882,0.407 1.313,0.639c0.257,0.137 0.477,-0.239 0.228,-0.391c-0.732,-0.452 -1.719,-0.932 -2.593,-0.951c-0.147,-0.004 -0.217,0.219 -0.078,0.287" style="fill:#231f20;fill-rule:nonzero;"/><path d="M24.169,25.483c0.121,0.242 0.472,0.344 0.703,0.465c0.251,0.131 0.513,0.327 0.801,0.337c0.174,0.006 0.223,-0.198 0.13,-0.314c-0.182,-0.226 -0.546,-0.332 -0.804,-0.458c-0.237,-0.114 -0.474,-0.295 -0.742,-0.247c-0.1,0.018 -0.127,0.139 -0.088,0.217" style="fill:#231f20;fill-rule:nonzero;"/><path d="M24.931,30.463c0.3,0.25 0.621,0.471 0.975,0.639c0.31,0.148 0.704,0.345 1.052,0.307c0.181,-0.019 0.276,-0.256 0.098,-0.36c-0.278,-0.165 -0.626,-0.201 -0.924,-0.334c-0.323,-0.145 -0.624,-0.333 -0.899,-0.554c-0.211,-0.169 -0.514,0.124 -0.302,0.302" style="fill:#231f20;fill-rule:nonzero;"/><path d="M25.758,36.565c0.091,0.336 0.52,0.447 0.815,0.56c0.356,0.134 0.764,0.264 1.145,0.196c0.279,-0.051 0.204,-0.409 0,-0.494c-0.31,-0.129 -0.672,-0.142 -0.993,-0.251c-0.275,-0.093 -0.542,-0.321 -0.836,-0.24c-0.098,0.026 -0.157,0.132 -0.131,0.229" style="fill:#231f20;fill-rule:nonzero;"/><path d="M27.017,41.853c-0.051,-0.009 -0.099,-0.024 -0.146,-0.047c-0.188,-0.114 -0.444,0.076 -0.377,0.291c0.079,0.256 0.325,0.446 0.533,0.604c0.224,0.17 0.468,0.293 0.73,0.392c0.096,0.036 0.226,-0.005 0.294,-0.077c0.056,-0.06 0.099,-0.128 0.088,-0.214c-0.018,-0.142 -0.082,-0.241 -0.221,-0.29c-0.202,-0.071 -0.392,-0.17 -0.566,-0.295c-0.169,-0.123 -0.296,-0.312 -0.481,-0.411c-0.02,0.157 -0.041,0.314 -0.061,0.471c0.049,-0.022 0.1,-0.032 0.154,-0.031c0.212,-0.018 0.286,-0.337 0.053,-0.393" style="fill:#231f20;fill-rule:nonzero;"/><path d="M35.764,44.117c1.427,-5.55 0.515,-12.163 0.561,-17.877c0.055,-6.766 0.178,-13.534 0.192,-20.3c0.001,-0.537 -0.828,-0.537 -0.834,-0c-0.057,6.15 -0.014,12.3 -0.032,18.45c-0.018,6.278 0.842,13.423 -0.406,19.583c-0.068,0.336 0.432,0.482 0.519,0.144" style="fill:#231f20;fill-rule:nonzero;"/><path d="M43.911,43.493c1.697,-5.086 0.891,-11.418 1.037,-16.727c0.188,-6.824 0.242,-13.649 0.295,-20.475c0.004,-0.544 -0.845,-0.545 -0.847,-0c-0.022,6.235 -0.005,12.471 -0.098,18.705c-0.087,5.808 0.764,12.768 -0.811,18.381c-0.077,0.274 0.335,0.383 0.424,0.116" style="fill:#231f20;fill-rule:nonzero;"/><path d="M52.232,43.134c2.474,-3.885 1.323,-10.591 1.461,-15.014c0.219,-6.99 0.365,-13.98 0.46,-20.972c0.007,-0.503 -0.774,-0.503 -0.781,-0c-0.085,6.038 -0.194,12.076 -0.318,18.113c-0.11,5.314 0.97,12.84 -1.056,17.774c-0.057,0.139 0.16,0.216 0.234,0.099" style="fill:#231f20;fill-rule:nonzero;"/><path d="M60.888,43.194c0.907,-1.182 0.787,-2.319 0.886,-3.796c0.244,-3.627 0.487,-7.255 0.718,-10.882c0.44,-6.925 0.877,-13.848 1.283,-20.775c0.031,-0.531 -0.796,-0.529 -0.827,0c-0.348,5.934 -0.657,11.871 -0.986,17.807c-0.145,2.638 -0.283,5.276 -0.418,7.915c-0.14,2.763 0.402,7.043 -0.905,9.585c-0.088,0.169 0.139,0.29 0.249,0.146" style="fill:#231f20;fill-rule:nonzero;"/><path d="M69.007,42.844c2.884,-1.147 2.409,-7.888 2.648,-10.406c0.736,-7.713 2.136,-15.724 1.832,-23.477c-0.02,-0.517 -0.824,-0.52 -0.807,-0c0.172,5.182 -0.601,10.402 -1.025,15.562c-0.215,2.638 -0.436,5.276 -0.659,7.915c-0.208,2.467 0.297,8.77 -2.106,10.131c-0.144,0.081 -0.046,0.339 0.117,0.275" style="fill:#231f20;fill-rule:nonzero;"/><path d="M78.199,42.794c2.897,-3.341 3.344,-7.73 3.612,-12.011c0.417,-6.638 0.046,-13.274 0.668,-19.908c0.049,-0.517 -0.741,-0.502 -0.801,-0c-1.135,9.567 2.361,23.532 -3.83,31.648c-0.152,0.202 0.186,0.462 0.351,0.271" style="fill:#231f20;fill-rule:nonzero;"/><path d="M85.496,41.746c3.227,-3.055 4.268,-7.045 5.032,-11.327c1.053,-5.892 1.949,-11.839 1.986,-17.834c0.003,-0.503 -0.764,-0.501 -0.782,-0c-0.177,5.343 -0.847,10.592 -1.651,15.873c-0.728,4.775 -1.44,9.322 -4.928,12.944c-0.218,0.226 0.116,0.559 0.343,0.344" style="fill:#231f20;fill-rule:nonzero;"/><path d="M33.081,13.372c11.055,0.263 22.161,-0.103 33.201,0.55c10.839,0.639 21.493,2.853 32.252,4.164c0.315,0.039 0.385,-0.491 0.074,-0.554c-21.666,-4.341 -43.511,-4.833 -65.527,-4.751c-0.38,0.001 -0.38,0.581 -0,0.591" style="fill:#231f20;fill-rule:nonzero;"/><path d="M32.922,21.01c11.037,1.268 22.231,0.603 33.316,0.854c10.532,0.237 20.881,2.375 31.374,2.668c0.358,0.01 0.34,-0.506 -0,-0.544c-10.446,-1.149 -20.854,-2.595 -31.374,-2.827c-11.109,-0.245 -22.207,-0.068 -33.316,-0.447c-0.194,-0.006 -0.184,0.275 -0,0.296" style="fill:#231f20;fill-rule:nonzero;"/><path d="M33.974,29.207c9.675,0.833 19.674,-0.296 29.42,0.156c10.053,0.467 19.986,1.639 29.97,2.835c0.35,0.042 0.434,-0.559 0.084,-0.618c-19.712,-3.304 -39.573,-3.209 -59.474,-2.799c-0.278,0.006 -0.271,0.404 0,0.426" style="fill:#231f20;fill-rule:nonzero;"/><path d="M33.32,37.909c9.057,0.891 18.797,-0.559 27.921,-0.669c9.937,-0.121 19.857,0.127 29.763,0.93c0.468,0.038 0.465,-0.69 -0,-0.729c-10.231,-0.86 -20.492,-1.054 -30.756,-0.901c-4.97,0.075 -9.938,0.232 -14.905,0.425c-3.923,0.151 -8.219,-0.177 -12.053,0.725c-0.13,0.031 -0.088,0.207 0.03,0.219" style="fill:#231f20;fill-rule:nonzero;"/></g></svg>