<?xml version="1.0" encoding="UTF-8" standalone="no"?><!DOCTYPE svg PUBLIC "-//W3C//DTD SVG 1.1//EN" "http://www.w3.org/Graphics/SVG/1.1/DTD/svg11.dtd"><svg width="100%" height="100%" viewBox="0 0 136 63" version="1.1" xmlns="http://www.w3.org/2000/svg" xmlns:xlink="http://www.w3.org/1999/xlink" xml:space="preserve" xmlns:serif="http://www.serif.com/" style="fill-rule:evenodd;clip-rule:evenodd;stroke-linejoin:round;stroke-miterlimit:2;"><g><path d="M49.854,27.247c0.022,0.029 0.046,0.059 0.068,0.087c0.16,0.204 0.324,0.403 0.486,0.604c-3.002,2.455 -4.597,6.252 -2.855,9.942c-0.36,0.087 -0.72,0.173 -1.082,0.261c-2.321,-3.818 -0.069,-8.585 3.383,-10.894" style="fill:#6f7784;fill-rule:nonzero;"/><path d="M55.539,34.326c0.104,0.17 0.249,0.323 0.412,0.436c0.263,0.178 0.851,0.445 0.181,0.7c-0.121,0.046 -0.158,0.153 -0.153,0.256c-1.094,-0.541 -2.45,-1.019 -3.642,-0.872c-0.418,-0.834 -0.582,-1.679 -0.319,-2.601c0.161,-0.565 0.588,-1.032 0.81,-1.554c0.822,0.853 1.678,1.658 2.567,2.411c-0.118,0.408 -0.08,0.858 0.144,1.224" style="fill:#716558;fill-rule:nonzero;"/><path d="M54.902,38.965c0.059,0.009 0.118,0.003 0.173,-0.027c0.691,-0.387 0.508,-1.381 0.027,-1.864c-0.66,-0.664 -1.744,-0.682 -2.58,-0.396c-0.018,0.006 -0.023,0.02 -0.038,0.029c-0.225,0.053 -0.449,0.107 -0.674,0.159c-0,-0.006 0.006,-0.011 0.006,-0.018c-0.041,-0.872 -0.148,-1.275 0.918,-1.253c0.956,0.019 1.957,0.391 2.809,0.797c0.715,0.34 1.762,0.842 2.141,1.588c0.255,0.5 0.068,0.74 -0.427,1.039c-0.739,0.446 -1.722,0.365 -2.495,-0.019c0.047,-0.011 0.093,-0.024 0.14,-0.035" style="fill:#939598;fill-rule:nonzero;"/><path d="M51.182,32.322c-0.211,0.937 -0.077,1.937 0.415,2.763c-0.645,0.4 -0.861,1.215 -0.269,1.894c-0.998,0.237 -1.997,0.474 -2.998,0.714c-0.007,-0.03 -0.008,-0.06 -0.024,-0.092c-1.657,-3.351 -0.131,-6.845 2.602,-9.049c0.481,0.577 0.976,1.135 1.483,1.678c-0.664,0.391 -1.058,1.418 -1.209,2.092" style="fill:#666d72;fill-rule:nonzero;"/><path d="M25.239,48.327c-0.462,0.493 -1.191,0.544 -1.806,0.73c0.032,-0.884 0.023,-1.72 -0.027,-2.456c-0.009,-0.122 -0.112,-0.17 -0.205,-0.158c-0.464,-0.769 -1.15,-1.388 -1.999,-1.874c1.539,-0.607 4.294,-1.084 4.425,1.119c0.042,0.711 0.12,2.097 -0.388,2.639" style="fill:#939598;fill-rule:nonzero;"/><path d="M26.325,45.044c-0.058,-0.295 -0.168,-0.542 -0.314,-0.75c9.079,-2.019 18.101,-4.581 27.092,-6.958c0.124,-0.033 0.2,-0.107 0.238,-0.196c0.347,0.008 0.691,0.042 0.997,0.217c0.393,0.226 0.478,0.527 0.427,0.871c-0.011,0.002 -0.02,-0.001 -0.032,0.002c-9.58,2.294 -19.12,4.901 -28.367,8.318c0.021,-0.504 0.05,-1.038 -0.041,-1.504" style="fill:#638595;fill-rule:nonzero;"/><path d="M49.384,40.363c0.058,-0.015 0.115,-0.028 0.173,-0.044c0.086,0.069 0.174,0.131 0.261,0.195c-0.146,-0.047 -0.29,-0.095 -0.434,-0.151" style="fill:#231f20;fill-rule:nonzero;"/><path d="M50.555,40.067c1.026,-0.263 2.053,-0.529 3.083,-0.781c0.008,0.007 0.011,0.014 0.02,0.021c1.223,0.933 4.521,1.451 4.967,-0.69c0.06,-0.288 0.013,-0.562 -0.096,-0.819c0.31,0.095 0.617,0.176 0.91,0.345c0.04,0.023 0.076,0.051 0.115,0.075c-2.318,2.912 -5.89,3.988 -8.999,1.849" style="fill:#666d72;fill-rule:nonzero;"/><path d="M60.531,37.812c-0.671,-0.501 -1.469,-1.045 -2.34,-0.791c-0.062,0.019 -0.098,0.057 -0.136,0.093c-0.478,-0.503 -1.143,-0.905 -1.616,-1.158c-0.035,-0.02 -0.075,-0.039 -0.111,-0.058c0.445,-0.17 0.78,-0.593 0.682,-1.092c-0.061,-0.31 -0.282,-0.421 -0.512,-0.599c-0.166,-0.129 -0.269,-0.285 -0.31,-0.457c2.226,1.765 4.662,3.203 7.337,4.208c-0.315,0.432 -0.66,0.836 -0.975,1.245c-0.573,-0.551 -1.409,-0.935 -2.019,-1.391" style="fill:#638595;fill-rule:nonzero;"/><path d="M62.935,40.159c0.477,-0.676 0.993,-1.219 1.373,-1.926c1.017,0.344 2.065,0.628 3.148,0.844c-1.646,1.321 -2.949,3.241 -3.666,5.274c-1.234,-1.053 -1.882,-2.734 -0.855,-4.192" style="fill:#716558;fill-rule:nonzero;"/><path d="M64.385,49.923c-0.951,-2.009 -0.538,-4.426 0.394,-6.357c0.884,-1.833 2.324,-3.459 4.147,-4.395c1.343,-0.689 2.585,-0.828 3.824,-0.66c-3.743,0.652 -7.481,4.723 -7.621,8.566c-0.079,2.184 1.053,4.327 2.751,5.752c-1.465,-0.536 -2.761,-1.351 -3.496,-2.906" style="fill:#6f7784;fill-rule:nonzero;"/><path d="M77.923,50.601c-2.547,3.438 -7.004,4.174 -10.092,1.007c-5.492,-5.632 2.927,-15.369 8.741,-11.269c0.018,0.055 0.046,0.108 0.096,0.153c3.053,2.761 3.79,6.687 1.255,10.109" style="fill:#666d72;fill-rule:nonzero;"/><path d="M84.179,41.749c-1.414,0.318 -3.38,0.292 -4.493,1.294c-0.44,-1.008 -1.098,-1.942 -1.979,-2.739c-0.098,-0.117 -0.199,-0.23 -0.301,-0.334c4.061,1.276 8.712,0.715 12.987,0.305c-2.069,0.501 -4.137,1.006 -6.214,1.474" style="fill:#716558;fill-rule:nonzero;"/><path d="M96.716,39.69c3.742,-0.406 7.464,-0.97 11.155,-1.726c-1.013,1.546 -1.679,3.33 -1.872,5.051c-3.608,0.681 -6.441,-1.453 -9.283,-3.325" style="fill:#716558;fill-rule:nonzero;"/><path d="M107.143,46.209c-0.95,-2.009 -0.537,-4.426 0.395,-6.358c0.884,-1.832 2.324,-3.459 4.147,-4.395c1.343,-0.688 2.585,-0.827 3.824,-0.659c-3.743,0.651 -7.481,4.722 -7.621,8.565c-0.079,2.185 1.053,4.327 2.75,5.753c-1.465,-0.537 -2.76,-1.352 -3.495,-2.906" style="fill:#6f7784;fill-rule:nonzero;"/><path d="M120.681,46.886c-2.548,3.438 -7.004,4.174 -10.093,1.007c-5.491,-5.632 2.928,-15.368 8.741,-11.268c0.019,0.055 0.047,0.107 0.097,0.153c3.052,2.76 3.79,6.687 1.255,10.108" style="fill:#666d72;fill-rule:nonzero;"/><path d="M118.929,35.043c-3.95,-2.817 -7.917,-1.11 -10.41,2.031c-0.015,0.002 -0.028,-0.003 -0.042,0c-4.274,0.833 -8.563,1.483 -12.885,1.935c-0.003,0 -0.006,0.001 -0.009,0.001c-1.134,0.118 -2.27,0.231 -3.411,0.321c-4.982,0.393 -11.034,1.437 -15.753,-0.46c-0.041,-0.016 -0.078,-0.019 -0.114,-0.02c-2.878,-2.128 -5.771,-1.832 -8.108,-0.31c-0.045,-0.07 -0.115,-0.13 -0.224,-0.157c-6.44,-1.631 -11.415,-4.933 -15.885,-9.844c-3.794,-4.168 -8.915,-10.268 -9.322,-16.042c0.541,0.471 1.057,0.898 1.461,1.259c4.686,4.188 9.943,7.695 16.19,8.954c0.105,0.02 0.193,-0.001 0.268,-0.042c5.621,1.521 11.59,1.102 17.354,0.938c6.547,-0.185 13.093,-0.46 19.622,-0.987c11.747,-0.948 23.38,-2.809 34.66,-6.24c-3.291,7.08 -7.587,13.363 -13.392,18.663" style="fill:#be1e2d;fill-rule:nonzero;"/><path d="M124.251,15.806c-9.187,2.083 -18.761,2.804 -28.132,3.5c-8.957,0.666 -18.04,1.298 -27.026,0.963c-5.315,-0.199 -9.88,-1.423 -14.765,-3.791c-0.918,-0.445 -16.036,-9.189 -10.116,-10.039c0.22,-0.031 0.388,0.26 0.162,0.385c-3.18,1.75 6.357,6.822 7.859,7.623c3.634,1.938 7.518,3.886 11.619,4.518c10.677,1.646 22.461,0.214 33.213,-0.606c7.804,-0.596 15.644,-1.311 23.355,-2.677c1.523,-0.271 13.247,-2.366 8.818,-4.68c-0.22,-0.115 -0.024,-0.451 0.196,-0.334c4.796,2.561 -3.354,4.724 -5.183,5.138m-2.067,-10.888c-3.323,-1.31 -6.766,-2.133 -10.295,-2.654c-0.137,-0.021 -0.225,-0.085 -0.285,-0.164c-11.513,-0.602 -23.023,-1.199 -34.555,-0.799c-12.127,0.422 -23.968,2.3 -35.908,4.302c0.035,0.091 0.042,0.194 -0.042,0.298c-2.848,3.511 6.656,9.85 8.63,11.216c3.344,2.315 6.938,3.912 10.897,4.841c0.173,0.041 0.256,0.16 0.272,0.29c11.896,1.09 23.931,0.489 35.832,-0.434c12.656,-0.981 25.173,-2.975 37.276,-6.867c1.222,-4.726 -8.656,-8.781 -11.822,-10.029" style="fill:#be1e2d;fill-rule:nonzero;"/><path d="M17.048,56.38c-0.018,0.031 -0.022,0.062 -0.031,0.092c-1.869,-0.422 -4.962,-3.27 -5.645,-3.861c-0.452,-0.39 -3.052,-2.671 -4.372,-4.475c3.472,-0.091 7.066,-0.96 10.527,-0.656c4.937,0.433 0.816,6.683 -0.479,8.9m5.693,-9.513c-2.32,-3.241 -9.769,-3.037 -13.231,-2.997c-1.863,0.022 -4.864,-0.188 -6.482,0.809c-3.504,2.159 0.158,7.055 2.052,9.273c3.028,3.548 9.296,11.295 13.951,6.25c3.033,-3.286 3.966,-8.838 4.017,-13.199c-0.108,0.014 -0.226,-0.021 -0.307,-0.136" style="fill:#f15a29;fill-rule:nonzero;"/><path d="M73.595,47.543c-0.643,0.579 -1.606,0.71 -2.142,-0.086c-0.48,-0.717 -0.171,-1.508 0.386,-2.066c0.624,-0.626 1.306,-0.711 2.073,-0.284c0.017,0.017 0.027,0.036 0.047,0.049c0.736,0.516 0.112,1.957 -0.364,2.387" style="fill:#bbbdc0;fill-rule:nonzero;"/><path d="M116.322,43.786c-0.617,0.558 -1.546,0.683 -2.06,-0.083c-0.462,-0.689 -0.165,-1.45 0.371,-1.987c0.6,-0.603 1.256,-0.684 1.995,-0.273c0.015,0.016 0.025,0.033 0.045,0.047c0.707,0.496 0.107,1.883 -0.351,2.296" style="fill:#bbbdc0;fill-rule:nonzero;"/><g opacity="0.2"><path d="M79.041,44.599c-0.349,0.619 -0.541,1.315 -0.904,1.928c-0.036,0.061 -0.139,0.069 -0.173,-0c-0.258,-0.523 -0.444,-1.078 -0.653,-1.622c-0.245,0.287 -0.43,0.618 -0.588,0.96c-0.195,0.421 -0.37,0.85 -0.598,1.254c-0.05,0.087 -0.187,0.047 -0.187,-0.05c-0.002,-0.673 -0.087,-1.367 -0.319,-2.003c-0.349,0.111 -0.684,0.263 -1.04,0.356c-0.299,0.078 -0.632,0.113 -0.913,-0.041c-0.148,-0.081 -0.267,-0.209 -0.354,-0.351c-0.101,-0.165 -0.188,-0.351 -0.215,-0.543c-0.102,-0.734 0.533,-1.332 0.983,-1.857c-0.565,-0.128 -1.129,-0.31 -1.712,-0.315c-0.061,-0.001 -0.118,-0.064 -0.097,-0.127c0.244,-0.705 0.811,-1.198 1.276,-1.758c-0.2,-0.378 -0.458,-0.732 -0.829,-0.955c-0.024,-0.014 -0.048,-0.021 -0.072,-0.033c-2.693,0.435 -5.209,2.767 -6.176,5.521c0.015,0.066 0.019,0.133 0.044,0.198c0.829,-0.267 1.558,-0.817 2.114,-1.478c0.072,-0.086 0.18,0.011 0.167,0.098c-0.112,0.771 -0.315,1.533 -0.342,2.315c0.945,-0.259 1.723,-0.893 2.29,-1.683c0.056,-0.078 0.185,-0.054 0.187,0.051c0.005,0.253 0.075,0.504 0.02,0.749c0.263,0.03 0.524,0.115 0.759,0.23c0.04,0.02 0.055,0.072 0.046,0.113c-0.101,0.43 -0.136,0.977 0.375,1.13c0.402,0.119 0.858,0.047 1.266,0.005c0.437,-0.044 0.896,-0.112 1.331,-0.023c0.173,0.036 0.345,0.108 0.473,0.234c0.193,0.188 0.209,0.479 0.126,0.724c-0.114,0.335 -0.358,0.617 -0.59,0.876c-0.211,0.238 -0.431,0.469 -0.626,0.72c0.28,0.014 0.564,-0.034 0.832,-0.1c0.356,-0.086 0.707,-0.194 1.07,-0.255c0.079,-0.014 0.136,0.044 0.123,0.123c-0.131,0.751 -0.56,1.407 -0.99,2.019c-0.405,0.575 -0.833,1.143 -1.144,1.775c0.275,-0.124 0.544,-0.262 0.809,-0.407c0.567,-0.31 1.155,-0.653 1.802,-0.755c0.146,-0.022 0.285,-0.021 0.424,-0.014c0.314,-0.306 0.613,-0.638 0.887,-1.007c1.402,-1.894 1.799,-3.94 1.36,-5.859c-0.075,-0.055 -0.156,-0.104 -0.242,-0.143" style="fill:#fff;fill-rule:nonzero;"/></g><g opacity="0.2"><path d="M120.264,46.073c-0.074,0.06 -0.193,0.007 -0.167,-0.098c0.179,-0.706 0.442,-1.386 0.66,-2.081c0.206,-0.656 0.354,-1.326 0.388,-2.012c-0.853,0.817 -1.479,1.843 -2.049,2.869c-0.038,0.069 -0.17,0.063 -0.183,-0.024c-0.112,-0.792 -0.192,-1.605 -0.412,-2.378c-0.191,0.257 -0.493,0.422 -0.722,0.646c-0.051,0.05 -0.119,0.031 -0.158,-0.02c-0.166,-0.216 -0.393,-0.377 -0.623,-0.519c-0.339,-0.212 -0.805,-0.402 -1.007,-0.771c-0.233,-0.426 0.08,-0.881 0.368,-1.211c-0.694,-0.383 -1.54,-0.283 -2.294,-0.175c-0.068,0.008 -0.122,-0.027 -0.127,-0.097c-0.021,-0.279 0.036,-0.561 0.204,-0.788c0.3,-0.404 0.826,-0.57 1.298,-0.665c0.428,-0.086 0.861,-0.119 1.295,-0.16c-0.964,-0.726 -2.217,-0.953 -3.221,-1.616c-0.065,-0.043 -0.063,-0.129 0,-0.172c1.073,-0.741 2.408,-0.734 3.672,-0.806c-0.366,-0.119 -0.735,-0.231 -1.106,-0.334c-2.77,0.109 -5.475,2.322 -6.656,5.075c-0.117,0.426 -0.207,0.859 -0.231,1.302c0.233,-0.219 0.517,-0.379 0.749,-0.605c0.049,-0.047 0.156,-0.034 0.168,0.044c0.114,0.818 0.106,1.732 0.528,2.466c0.242,-0.237 0.488,-0.471 0.752,-0.683c0.463,-0.375 0.965,-0.698 1.51,-0.941c0.582,-0.26 1.197,-0.431 1.822,-0.557c0.047,-0.009 0.115,0.014 0.123,0.071c0.041,0.299 0.113,0.633 0.348,0.844c0.156,0.141 0.365,0.193 0.565,0.242c0.186,0.045 0.373,0.091 0.541,0.184c0.199,0.112 0.352,0.286 0.454,0.489c0.231,0.458 0.371,1.033 0.122,1.511c-0.214,0.41 -0.641,0.667 -1.026,0.895c-0.272,0.161 -0.544,0.329 -0.802,0.514c0.816,-0.342 1.582,-0.792 2.373,-1.188c0.077,-0.038 0.17,0.025 0.148,0.113c-0.226,0.867 -0.94,1.484 -1.231,2.315c0.055,-0.008 0.112,-0.013 0.169,-0.014c0.145,-0.003 0.305,0.015 0.441,-0.046c0.053,-0.024 0.134,-0.01 0.147,0.06c0.084,0.467 0.124,0.938 0.125,1.412c0,0.124 0.001,0.248 -0.002,0.372c1.306,-0.47 2.517,-1.372 3.464,-2.651c0.331,-0.447 0.604,-0.903 0.825,-1.364c-0.45,0.072 -0.879,0.266 -1.242,0.552" style="fill:#fff;fill-rule:nonzero;"/></g><g opacity="0.2"><path d="M97.793,33.595c1.873,-0.458 4.27,-0.095 5.762,-1.537c-0.814,-0.442 -1.789,-0.566 -2.697,-0.63c-2.008,-0.142 -4.018,0.059 -6.028,0.04c-1.142,-0.01 -2.294,-0.096 -3.433,-0.163c-1.394,-0.081 -2.789,-0.226 -4.139,-0.595c-0.082,-0.022 -0.1,-0.141 -0.025,-0.183c1.942,-1.072 4.511,-0.715 6.223,-2.234c-1.295,-0.397 -2.695,-0.363 -4.032,-0.275c-0.709,0.047 -1.417,0.115 -2.127,0.169c-0.808,0.061 -1.618,0.073 -2.427,0.097c-6.274,0.186 -12.559,0.251 -18.829,-0.113c-2.201,-0.127 -4.4,-0.359 -6.558,-0.822c-1.925,-0.414 -3.98,-0.995 -5.576,-2.205c-0.076,0.096 -0.209,0.169 -0.344,0.211c0.184,0.541 0.608,1.003 1.001,1.399c0.061,0.063 0.015,0.17 -0.071,0.171c-0.47,0.005 -0.936,0.072 -1.404,0.101c0.625,0.528 1.251,1.055 1.884,1.576c2.432,2.002 4.958,3.932 7.728,5.45c-0.086,-0.263 -0.116,-0.55 0.067,-0.772c0.19,-0.233 0.523,-0.289 0.806,-0.307c0.426,-0.026 0.857,0.036 1.275,0.109c0.743,0.13 1.471,0.381 2.216,0.492c0.006,-0.138 0.026,-0.276 0.08,-0.406c0.307,-0.736 1.291,-0.863 1.984,-0.891c1.078,-0.045 2.173,0.134 3.221,0.374c0.453,0.103 0.903,0.221 1.344,0.366c0.446,0.145 0.836,0.347 1.243,0.58c0.544,0.312 1.08,0.653 1.67,0.873c0.701,0.263 1.446,0.331 2.19,0.316c0.441,-0.008 0.859,-0.054 1.29,-0.155c0.426,-0.099 0.848,-0.224 1.28,-0.289c0.636,-0.096 1.316,-0.046 1.857,0.325c0.579,0.397 1.102,0.807 1.769,1.057c0.725,0.27 1.495,0.403 2.263,0.471c1.614,0.14 3.236,0.009 4.85,-0.073c1.282,-0.064 2.547,-0.013 3.829,0.045c1.415,0.064 2.846,0.106 4.254,-0.086c1.207,-0.165 2.471,-0.529 3.355,-1.409c-1.815,-0.755 -3.883,-0.317 -5.75,-0.885c-0.092,-0.027 -0.099,-0.168 -0,-0.192" style="fill:#fff;fill-rule:nonzero;"/></g><g opacity="0.2"><path d="M61.22,19.128c-0.036,0.535 0.76,0.821 1.149,0.961c0.964,0.346 1.998,0.506 3.009,0.642c2.61,0.349 5.254,0.452 7.884,0.511c2.261,0.051 4.524,0.048 6.786,0.026c5.286,-0.055 10.569,-0.29 15.846,-0.607c2.062,-0.123 4.138,-0.222 6.189,-0.478c1.547,-0.193 3.357,-0.538 4.462,-1.738c-3.483,0.334 -6.969,0.604 -10.427,0.861c-8.957,0.666 -18.04,1.298 -27.026,0.963c-2.772,-0.105 -5.341,-0.498 -7.858,-1.181c-0.002,0.015 -0.014,0.025 -0.014,0.04" style="fill:#fff;fill-rule:nonzero;"/></g><g opacity="0.2"><path d="M45.003,11.501c1.155,1.071 2.435,2.001 3.767,2.84c1.38,0.87 2.831,1.672 4.342,2.294c1.138,0.469 2.391,0.876 3.644,0.923c-0.805,-0.332 -1.61,-0.685 -2.428,-1.08c-0.918,-0.446 -16.036,-9.189 -10.116,-10.039c0.185,-0.027 0.317,0.17 0.227,0.309c0.53,-0.044 1.061,-0.09 1.592,-0.132c7.134,-0.568 14.279,-0.969 21.417,-1.463c3.548,-0.245 7.091,-0.565 10.638,-0.816c3.541,-0.25 7.092,-0.342 10.641,-0.369c3.54,-0.028 7.08,0.011 10.619,0.023c3.2,0.013 6.395,-0.143 9.594,-0.136c3.053,0.008 6.171,0.225 9.067,1.265c2.739,0.985 5.455,2.011 8.154,3.102c1.408,0.569 2.892,1.198 4.062,2.189c0.428,0.363 0.913,0.869 0.907,1.473c-0.002,0.263 -0.102,0.49 -0.251,0.687c-0.486,1.669 -5.277,2.929 -6.628,3.235c-3.888,0.882 -7.847,1.51 -11.828,2.006c-0.272,0.097 -0.54,0.203 -0.8,0.333c0.174,0.038 0.346,0.078 0.521,0.106c2.387,0.39 4.854,-0.015 7.19,-0.528c1.201,-0.264 2.391,-0.573 3.582,-0.874c0.569,-0.145 1.14,-0.287 1.711,-0.421c0.533,-0.124 1.068,-0.216 1.609,-0.296c1.125,-0.168 2.263,-0.316 3.354,-0.652c0.821,-0.253 1.668,-0.627 2.269,-1.261c0.678,-0.715 1.083,-1.687 1.244,-2.679c-2.422,-3.182 -8.55,-5.687 -10.919,-6.622c-3.323,-1.311 -6.766,-2.133 -10.295,-2.654c-0.137,-0.021 -0.225,-0.085 -0.285,-0.164c-11.513,-0.602 -23.023,-1.2 -34.555,-0.799c-12.127,0.422 -23.968,2.3 -35.908,4.302c0.035,0.09 0.042,0.194 -0.042,0.297c-0.031,0.039 -0.052,0.079 -0.08,0.117c0.335,0.733 0.715,1.445 1.151,2.125c0.794,1.238 1.755,2.36 2.833,3.359" style="fill:#fff;fill-rule:nonzero;"/></g><g opacity="0.2"><path d="M93.541,5.962c-0.927,0.047 -1.871,-0.133 -2.793,-0.212c-0.533,-0.046 -1.068,-0.085 -1.603,-0.08c-0.087,0.001 -0.18,0.001 -0.275,0.003c0.073,0.046 0.062,0.181 -0.047,0.181c-2.15,0 -4.302,0.057 -6.45,0.148c-1.906,0.08 -3.811,0.188 -5.716,0.306c-1.675,0.104 -3.348,0.243 -5.026,0.295c-1.386,0.042 -2.777,0.083 -4.151,0.29c-1.177,0.177 -2.437,0.476 -3.413,1.201c0.79,0.306 1.602,0.553 2.427,0.742c3.28,0.753 6.674,0.771 10.018,0.961c0.084,0.005 0.134,0.106 0.07,0.17c-1.434,1.413 -3.606,1.597 -5.113,2.887c0.705,0.559 1.553,0.901 2.423,1.113c1.845,0.449 3.787,0.418 5.674,0.407c1.786,-0.01 3.62,-0.088 5.377,0.279c0.109,0.024 0.081,0.16 -0,0.194c-0.479,0.201 -0.813,0.579 -1.164,0.942c0.503,0.312 1.06,0.532 1.628,0.691c1.302,0.36 2.704,0.461 4.043,0.276c1.176,-0.161 2.395,-0.584 3.205,-1.488c-0.427,-0.146 -0.97,-0.436 -0.701,-0.946c0.259,-0.488 0.896,-0.795 1.36,-1.038c0.762,-0.398 1.563,-0.723 2.366,-1.031c0.774,-0.297 1.556,-0.571 2.341,-0.84c0.268,-0.092 0.538,-0.182 0.804,-0.277c0.077,-0.027 0.157,-0.053 0.232,-0.081c-0.758,-0.774 -1.898,-1.071 -2.92,-1.299c-0.079,-0.018 -0.104,-0.148 -0.025,-0.183c0.595,-0.256 1.205,-0.47 1.824,-0.661c2.161,-0.664 4.459,-1.054 6.429,-2.214c-1.034,-0.696 -2.303,-0.961 -3.528,-1.06c-2.442,-0.198 -4.863,0.202 -7.296,0.324" style="fill:#fff;fill-rule:nonzero;"/></g><g opacity="0.2"><path d="M4.824,47.747c0.27,0.994 0.735,1.923 1.311,2.774c0.593,0.88 1.303,1.678 2.064,2.415c0.733,0.711 1.516,1.391 2.336,1.998c0.893,0.662 1.76,1.361 2.699,1.955c0.851,0.538 1.8,1.017 2.83,1.028c0.263,0.003 0.556,-0.031 0.765,-0.208c0.177,-0.149 0.255,-0.375 0.29,-0.598c0.043,-0.28 0.025,-0.569 -0,-0.851c-0.023,0.039 -0.05,0.084 -0.071,0.12c-0.018,0.031 -0.023,0.061 -0.032,0.092c-1.869,-0.422 -4.962,-3.27 -5.644,-3.861c-0.345,-0.298 -1.935,-1.694 -3.258,-3.14c-0.36,-0.327 -0.716,-0.659 -1.035,-1.025c-0.323,-0.369 -0.678,-0.811 -0.75,-1.314c-0.072,-0.503 0.204,-1.004 0.604,-1.295c0.457,-0.332 1.051,-0.439 1.601,-0.49c0.554,-0.053 1.111,-0.039 1.666,-0.036c1.935,0.016 3.861,0.219 5.793,0.315c1.683,0.084 3.384,0.081 5.051,-0.189c-3.174,-1.739 -8.694,-1.6 -11.534,-1.567c-1.115,0.013 -2.634,-0.053 -4.024,0.103c-0.299,0.286 -0.546,0.625 -0.696,1.046c-0.314,0.878 -0.204,1.847 0.034,2.728" style="fill:#fff;fill-rule:nonzero;"/></g><path d="M78.328,41.136c-4.126,-6.525 -12.982,-0.014 -13.198,5.941c-0.125,3.453 2.771,6.808 6.156,7.377c3.183,0.536 6.256,-1.505 7.839,-4.157c2.147,-3.596 1.363,-7.896 -1.96,-10.449c-0.368,-0.284 -0.839,0.334 -0.496,0.643c3.052,2.762 3.789,6.688 1.254,10.11c-2.547,3.438 -7.004,4.174 -10.092,1.007c-5.908,-6.06 4.285,-16.88 10.013,-10.098c0.226,0.269 0.671,-0.08 0.484,-0.374" style="fill:#231f20;fill-rule:nonzero;"/><path d="M74.132,44.917c-1.288,-2.091 -4.795,1.24 -2.88,3.129c0.87,0.858 2.145,0.539 2.91,-0.275c0.729,-0.775 0.994,-2.41 0.023,-3.091c-0.381,-0.268 -0.742,0.358 -0.365,0.623c0.651,0.457 0.099,1.732 -0.322,2.111c-0.568,0.513 -1.422,0.629 -1.894,-0.076c-0.426,-0.634 -0.152,-1.333 0.34,-1.827c0.554,-0.557 1.16,-0.631 1.842,-0.248c0.215,0.12 0.482,-0.126 0.346,-0.346" style="fill:#231f20;fill-rule:nonzero;"/><path d="M70.122,53.475c-2.303,-0.543 -4.64,-1.231 -5.737,-3.552c-0.95,-2.009 -0.537,-4.425 0.394,-6.357c0.885,-1.833 2.324,-3.459 4.148,-4.395c2.528,-1.298 4.703,-0.677 7.168,0.363c0.32,0.135 0.757,-0.276 0.417,-0.541c-10.105,-7.887 -20.623,14.568 -6.457,14.985c0.286,0.009 0.35,-0.437 0.067,-0.503" style="fill:#231f20;fill-rule:nonzero;"/><path d="M49.452,40.241c3.62,2.99 8.061,1.96 10.853,-1.623c0.37,-0.476 -0.288,-0.992 -0.661,-0.509c-2.446,3.167 -6.356,4.251 -9.622,1.561c-0.397,-0.327 -0.971,0.24 -0.57,0.571" style="fill:#231f20;fill-rule:nonzero;"/><path d="M50.76,27.653c-3.266,2.466 -5.063,6.483 -3.151,10.355c0.23,0.466 0.926,0.058 0.697,-0.407c-1.709,-3.456 -0.035,-7.069 2.858,-9.257c0.407,-0.306 0.008,-1.002 -0.404,-0.691" style="fill:#231f20;fill-rule:nonzero;"/><path d="M46.6,38.365c-2.606,-3.939 -0.164,-8.992 3.488,-11.278c0.461,-0.289 0.037,-1.021 -0.426,-0.732c-4.051,2.518 -6.704,8.105 -3.81,12.447c0.308,0.461 1.057,0.03 0.748,-0.437" style="fill:#231f20;fill-rule:nonzero;"/><path d="M51.809,41.036c-1.168,-0.256 -2.309,-0.52 -3.364,-1.1c-0.463,-0.255 -0.878,0.477 -0.411,0.703c1.16,0.56 2.418,0.88 3.707,0.9c0.284,0.004 0.354,-0.441 0.068,-0.503" style="fill:#231f20;fill-rule:nonzero;"/><path d="M121.087,37.422c-4.127,-6.526 -12.982,-0.015 -13.198,5.94c-0.126,3.453 2.77,6.808 6.156,7.378c3.183,0.536 6.256,-1.505 7.839,-4.157c2.147,-3.596 1.362,-7.897 -1.96,-10.45c-0.369,-0.283 -0.839,0.335 -0.497,0.644c3.052,2.761 3.79,6.688 1.255,10.11c-2.548,3.437 -7.004,4.173 -10.093,1.006c-5.908,-6.059 4.286,-16.879 10.014,-10.097c0.226,0.268 0.67,-0.08 0.484,-0.374" style="fill:#231f20;fill-rule:nonzero;"/><path d="M116.89,41.202c-1.288,-2.091 -4.794,1.24 -2.879,3.13c0.869,0.857 2.145,0.538 2.91,-0.276c0.728,-0.775 0.993,-2.41 0.023,-3.09c-0.381,-0.268 -0.742,0.357 -0.365,0.623c0.651,0.456 0.099,1.731 -0.322,2.111c-0.568,0.513 -1.422,0.628 -1.894,-0.076c-0.426,-0.634 -0.152,-1.334 0.34,-1.828c0.554,-0.556 1.16,-0.631 1.841,-0.248c0.216,0.121 0.482,-0.125 0.346,-0.346" style="fill:#231f20;fill-rule:nonzero;"/><path d="M112.881,49.761c-2.303,-0.543 -4.641,-1.231 -5.737,-3.552c-0.95,-2.009 -0.537,-4.426 0.394,-6.358c0.885,-1.832 2.324,-3.459 4.148,-4.395c2.528,-1.297 4.702,-0.677 7.168,0.364c0.319,0.134 0.756,-0.277 0.417,-0.541c-10.105,-7.888 -20.624,14.567 -6.458,14.985c0.286,0.008 0.35,-0.437 0.068,-0.503" style="fill:#231f20;fill-rule:nonzero;"/><path d="M40.685,5.487c-3.528,2.878 1.461,6.409 3.542,8.27c4.687,4.188 9.943,7.694 16.19,8.954c0.489,0.098 0.701,-0.638 0.208,-0.753c-3.959,-0.93 -7.552,-2.527 -10.897,-4.841c-1.974,-1.366 -11.478,-7.705 -8.63,-11.217c0.237,-0.293 -0.12,-0.652 -0.413,-0.413" style="fill:#231f20;fill-rule:nonzero;"/><path d="M60.641,22.659c5.634,1.535 11.619,1.112 17.398,0.948c6.547,-0.185 13.093,-0.46 19.623,-0.987c12.444,-1.005 24.764,-3.011 36.666,-6.847c0.542,-0.174 0.31,-1.03 -0.235,-0.854c-12.13,3.912 -24.678,5.911 -37.364,6.894c-11.967,0.928 -24.07,1.534 -36.03,0.42c-0.247,-0.023 -0.288,0.363 -0.058,0.426" style="fill:#231f20;fill-rule:nonzero;"/><path d="M40.868,5.648c12.033,-2.019 23.962,-3.922 36.181,-4.347c11.698,-0.406 23.374,0.215 35.052,0.825c0.584,0.03 0.579,-0.868 -0,-0.906c-23.645,-1.555 -48.258,-2.191 -71.355,3.986c-0.291,0.077 -0.164,0.49 0.122,0.442" style="fill:#231f20;fill-rule:nonzero;"/><path d="M111.888,2.264c3.529,0.521 6.973,1.344 10.295,2.654c3.214,1.268 13.351,5.425 11.767,10.242c-0.101,0.31 0.337,0.46 0.504,0.211c2.407,-3.574 -1.727,-5.882 -4.421,-7.605c-5.439,-3.48 -11.494,-5.583 -17.87,-6.502c-0.651,-0.094 -0.935,0.902 -0.275,1" style="fill:#231f20;fill-rule:nonzero;"/><path d="M44.212,6.439c-5.921,0.851 9.197,9.594 10.115,10.039c4.885,2.368 9.45,3.592 14.765,3.79c8.986,0.336 18.069,-0.296 27.026,-0.961c9.371,-0.697 18.946,-1.418 28.132,-3.501c1.829,-0.414 9.979,-2.577 5.183,-5.138c-0.22,-0.117 -0.416,0.219 -0.196,0.334c4.429,2.314 -7.295,4.41 -8.818,4.68c-7.711,1.366 -15.551,2.081 -23.354,2.677c-10.753,0.82 -22.537,2.252 -33.214,0.606c-4.101,-0.63 -7.984,-2.58 -11.619,-4.518c-1.501,-0.801 -11.039,-5.873 -7.859,-7.624c0.226,-0.123 0.058,-0.415 -0.162,-0.384" style="fill:#231f20;fill-rule:nonzero;"/><path d="M51.287,6.395c16.628,-1.466 33.07,-2.227 49.763,-1.624c0.496,0.018 0.49,-0.738 -0,-0.768c-16.532,-1.003 -33.434,-0.504 -49.801,2.115c-0.155,0.025 -0.121,0.291 0.038,0.277" style="fill:#231f20;fill-rule:nonzero;"/><path d="M105.8,4.384c3.79,0.407 7.879,0.436 11.523,1.577c2.903,0.909 5.654,2.356 8.498,3.433c0.284,0.107 0.483,-0.362 0.208,-0.492c-2.867,-1.363 -5.948,-2.944 -9.033,-3.781c-3.562,-0.966 -7.535,-0.832 -11.196,-1.086c-0.226,-0.015 -0.218,0.326 0,0.349" style="fill:#231f20;fill-rule:nonzero;"/><path d="M113.963,6.897c-2.353,3.53 -5.113,6.646 -8.248,9.495c-0.246,0.224 0.115,0.577 0.361,0.362c3.21,-2.791 5.923,-6.086 8.148,-9.705c0.102,-0.167 -0.155,-0.312 -0.261,-0.152" style="fill:#231f20;fill-rule:nonzero;"/><path d="M42.327,11.761c-1.001,6.083 4.144,11.135 7.596,15.573c4.613,5.93 10.416,10.428 17.841,11.809c0.491,0.092 0.708,-0.633 0.209,-0.759c-6.44,-1.631 -11.415,-4.933 -15.884,-9.844c-3.944,-4.333 -9.337,-10.753 -9.363,-16.725c-0.001,-0.221 -0.361,-0.287 -0.399,-0.054" style="fill:#231f20;fill-rule:nonzero;"/><path d="M76.233,39.548c4.874,2.05 10.805,0.972 15.939,0.569c5.548,-0.433 11.063,-1.148 16.507,-2.308c0.481,-0.103 0.276,-0.827 -0.202,-0.735c-5.398,1.053 -10.819,1.826 -16.305,2.257c-4.982,0.393 -11.034,1.437 -15.752,-0.46c-0.422,-0.17 -0.595,0.505 -0.187,0.677" style="fill:#231f20;fill-rule:nonzero;"/><path d="M132.753,15.469c-3.36,7.498 -7.813,14.12 -13.919,19.667c-0.36,0.327 0.174,0.858 0.533,0.533c6.104,-5.524 10.977,-12.258 13.824,-20.015c0.092,-0.252 -0.327,-0.433 -0.438,-0.185" style="fill:#231f20;fill-rule:nonzero;"/><path d="M70.597,34.214c-4.523,-2.956 -7.523,-6.524 -9.41,-11.605c-0.204,-0.55 -1.043,-0.341 -0.892,0.246c1.312,5.096 5.24,9.781 10.11,11.815c0.271,0.113 0.416,-0.31 0.192,-0.456" style="fill:#231f20;fill-rule:nonzero;"/><path d="M23.058,46.602c0.002,4.416 -0.903,10.215 -4.027,13.601c-4.656,5.045 -10.924,-2.703 -13.952,-6.25c-1.894,-2.219 -5.556,-7.115 -2.051,-9.274c1.617,-0.997 4.618,-0.787 6.481,-0.808c3.462,-0.04 10.911,-0.245 13.232,2.997c0.229,0.32 0.738,0.042 0.538,-0.315c-2.445,-4.345 -12.021,-3.855 -16.104,-3.538c-1.789,0.14 -5.267,0.182 -6.48,1.823c-1.492,2.02 0.574,5.763 1.673,7.439c2.505,3.822 9.259,12.363 14.782,10.227c5.337,-2.063 6.587,-11.034 6.256,-15.902c-0.016,-0.221 -0.348,-0.226 -0.348,-0" style="fill:#231f20;fill-rule:nonzero;"/><path d="M6.209,45.636c-2.251,1.437 3.383,6.454 4.249,7.245c1.072,0.978 6.652,6.284 8.133,3.859c0.213,-0.347 -0.249,-0.64 -0.53,-0.409c-1.383,1.132 -5.851,-2.994 -6.689,-3.719c-0.685,-0.593 -6.334,-5.545 -4.921,-6.563c0.245,-0.176 0.023,-0.582 -0.242,-0.413" style="fill:#231f20;fill-rule:nonzero;"/><path d="M6.89,48.141c3.505,-0.074 7.139,-0.968 10.637,-0.661c4.936,0.433 0.815,6.683 -0.48,8.901c-0.234,0.402 0.387,0.764 0.624,0.364c1.157,-1.951 5.259,-7.973 1.602,-9.652c-1.361,-0.624 -3.131,-0.415 -4.567,-0.285c-2.611,0.237 -5.201,0.673 -7.816,0.881c-0.287,0.022 -0.296,0.459 0,0.452" style="fill:#231f20;fill-rule:nonzero;"/><path d="M20.757,44.761c1.371,-0.67 4.725,-1.506 4.869,0.928c0.042,0.711 0.12,2.096 -0.388,2.638c-0.493,0.528 -1.296,0.543 -1.933,0.767c-0.352,0.123 -0.312,0.671 0.09,0.67c0.913,-0.002 2.038,-0.368 2.586,-1.147c0.342,-0.487 0.365,-1.018 0.37,-1.594c0.006,-0.626 0.093,-1.362 -0.027,-1.979c-0.479,-2.462 -4.417,-1.717 -5.808,-0.696c-0.247,0.181 -0.039,0.551 0.241,0.413" style="fill:#231f20;fill-rule:nonzero;"/><path d="M25.623,44.385c9.21,-2.03 18.361,-4.638 27.48,-7.049c0.471,-0.124 0.272,-0.839 -0.201,-0.727c-9.157,2.15 -18.462,4.404 -27.383,7.397c-0.24,0.08 -0.144,0.434 0.104,0.379" style="fill:#231f20;fill-rule:nonzero;"/><path d="M26.123,47.08c9.558,-2.91 19.088,-5.799 28.811,-8.123c0.472,-0.113 0.272,-0.841 -0.201,-0.728c-9.702,2.325 -19.365,4.964 -28.722,8.447c-0.249,0.092 -0.152,0.484 0.112,0.404" style="fill:#231f20;fill-rule:nonzero;"/><path d="M52.582,37.115c0.581,0.054 1.226,-0.062 1.756,0.242c0.537,0.309 0.506,0.754 0.327,1.265c-0.083,0.239 0.209,0.428 0.41,0.315c0.692,-0.386 0.508,-1.381 0.028,-1.863c-0.661,-0.664 -1.745,-0.683 -2.581,-0.396c-0.244,0.083 -0.191,0.415 0.06,0.437" style="fill:#231f20;fill-rule:nonzero;"/><path d="M51.816,36.848c-0.041,-0.872 -0.148,-1.275 0.918,-1.253c0.956,0.02 1.957,0.392 2.809,0.797c0.715,0.34 1.762,0.842 2.141,1.588c0.255,0.5 0.068,0.74 -0.427,1.039c-0.941,0.568 -2.285,0.288 -3.075,-0.393c-0.47,-0.405 -1.026,0.298 -0.524,0.681c1.223,0.933 4.521,1.451 4.968,-0.69c0.254,-1.224 -1.309,-2.189 -2.187,-2.662c-1.207,-0.65 -2.882,-1.346 -4.288,-1.09c-1.069,0.194 -1.594,1.31 -0.783,2.169c0.152,0.161 0.459,0.041 0.448,-0.186" style="fill:#231f20;fill-rule:nonzero;"/><path d="M64.097,44.606c-1.433,-1.021 -2.273,-2.868 -1.162,-4.446c0.581,-0.824 1.235,-1.436 1.608,-2.409c0.157,-0.406 -0.47,-0.64 -0.683,-0.289c-0.932,1.54 -2.554,2.574 -2.239,4.524c0.215,1.329 1.008,2.554 2.336,2.95c0.207,0.062 0.298,-0.217 0.14,-0.33" style="fill:#231f20;fill-rule:nonzero;"/><path d="M62.882,39.562c-0.521,-0.77 -1.614,-1.199 -2.352,-1.75c-0.67,-0.501 -1.468,-1.045 -2.339,-0.791c-0.347,0.101 -0.308,0.549 0,0.665c0.424,0.16 0.848,0.227 1.248,0.457c0.39,0.225 0.745,0.513 1.123,0.756c0.624,0.401 1.388,0.935 2.15,0.959c0.144,0.004 0.254,-0.173 0.17,-0.296" style="fill:#231f20;fill-rule:nonzero;"/><path d="M56.26,35.931c0.48,-0.149 0.853,-0.6 0.749,-1.125c-0.061,-0.311 -0.281,-0.421 -0.512,-0.6c-0.332,-0.256 -0.409,-0.624 -0.252,-1.006c0.205,-0.5 -0.62,-0.732 -0.816,-0.225c-0.17,0.437 -0.138,0.947 0.109,1.352c0.104,0.169 0.249,0.323 0.412,0.435c0.263,0.179 0.851,0.445 0.181,0.7c-0.286,0.11 -0.175,0.563 0.129,0.469" style="fill:#231f20;fill-rule:nonzero;"/><path d="M52.712,30.467c0.04,-0.013 0.08,-0.024 0.12,-0.037c0.219,-0.066 0.128,-0.384 -0.094,-0.34c-0.878,0.179 -1.38,1.448 -1.555,2.232c-0.231,1.024 -0.072,2.133 0.543,2.996c0.278,0.391 0.88,0.055 0.651,-0.381c-0.452,-0.865 -0.632,-1.737 -0.359,-2.692c0.199,-0.701 0.828,-1.245 0.937,-1.938l-0.34,-0c0.012,0.042 0.024,0.084 0.036,0.125c0.007,0.025 0.035,0.043 0.061,0.035" style="fill:#231f20;fill-rule:nonzero;"/><path d="M79.775,43.824c1.191,-1.329 5.041,-1.49 6.674,-1.866c2.252,-0.52 4.506,-1.045 6.736,-1.653c0.424,-0.115 0.245,-0.757 -0.181,-0.658c-2.945,0.691 -5.875,1.438 -8.825,2.102c-1.591,0.358 -3.885,0.272 -4.873,1.714c-0.19,0.278 0.243,0.614 0.469,0.361" style="fill:#231f20;fill-rule:nonzero;"/><path d="M95.94,39.511c-0.022,-0.09 -0.046,-0.18 -0.068,-0.271c-0.151,0.117 -0.302,0.233 -0.453,0.349c3.156,2.398 6.754,4.977 10.914,4.12c0.466,-0.096 0.269,-0.812 -0.198,-0.716c-4.092,0.85 -7.183,-1.941 -10.405,-3.936c-0.387,-0.239 -0.675,0.467 -0.237,0.562l0.278,0.062c0.103,0.022 0.196,-0.065 0.169,-0.17" style="fill:#231f20;fill-rule:nonzero;"/><path d="M104.328,39.469c-0.066,-0.106 -0.108,-0.157 -0.197,-0.249c-0.299,-0.308 -0.741,0.239 -0.363,0.47c0.491,0.299 1.013,0.395 1.573,0.496c0.635,0.115 1.27,0.249 1.913,0.323c0.346,0.04 0.415,-0.526 0.082,-0.605c-1.047,-0.249 -2.309,-0.206 -3.266,-0.731c-0.051,0.186 -0.1,0.371 -0.151,0.558c0.088,0.016 0.175,0.014 0.262,-0.005c0.121,-0.015 0.223,-0.136 0.147,-0.257" style="fill:#231f20;fill-rule:nonzero;"/></g></svg>